<?xml version="1.0" encoding="UTF-8" standalone="no"?>
<svg width="2976.38px" height="1417.32px" viewBox="0 0 2976.38 1417.32"
 xmlns="http://www.w3.org/2000/svg" xmlns:xlink="http://www.w3.org/1999/xlink" version="1.2" baseProfile="tiny">
<title>FiddleTuneTemplate_MobileBackup</title>
<desc>Generated by MuseScore 3.6.2</desc>
<polyline class="StaffLines" fill="none" stroke="#000000" stroke-width="2.73" stroke-linejoin="bevel" points="138.189,187.795 2933.86,187.795"/>
<polyline class="StaffLines" fill="none" stroke="#000000" stroke-width="2.73" stroke-linejoin="bevel" points="138.189,212.598 2933.86,212.598"/>
<polyline class="StaffLines" fill="none" stroke="#000000" stroke-width="2.73" stroke-linejoin="bevel" points="138.189,237.402 2933.86,237.402"/>
<polyline class="StaffLines" fill="none" stroke="#000000" stroke-width="2.73" stroke-linejoin="bevel" points="138.189,262.205 2933.86,262.205"/>
<polyline class="StaffLines" fill="none" stroke="#000000" stroke-width="2.73" stroke-linejoin="bevel" points="138.189,287.008 2933.86,287.008"/>
<polyline class="StaffLines" fill="none" stroke="#000000" stroke-width="2.73" stroke-linejoin="bevel" points="14.1732,497.835 2933.86,497.835"/>
<polyline class="StaffLines" fill="none" stroke="#000000" stroke-width="2.73" stroke-linejoin="bevel" points="14.1732,522.638 2933.86,522.638"/>
<polyline class="StaffLines" fill="none" stroke="#000000" stroke-width="2.73" stroke-linejoin="bevel" points="14.1732,547.441 2933.86,547.441"/>
<polyline class="StaffLines" fill="none" stroke="#000000" stroke-width="2.73" stroke-linejoin="bevel" points="14.1732,572.244 2933.86,572.244"/>
<polyline class="StaffLines" fill="none" stroke="#000000" stroke-width="2.73" stroke-linejoin="bevel" points="14.1732,597.047 2933.86,597.047"/>
<polyline class="StaffLines" fill="none" stroke="#000000" stroke-width="2.73" stroke-linejoin="bevel" points="14.1732,815.417 2933.86,815.417"/>
<polyline class="StaffLines" fill="none" stroke="#000000" stroke-width="2.73" stroke-linejoin="bevel" points="14.1732,840.22 2933.86,840.22"/>
<polyline class="StaffLines" fill="none" stroke="#000000" stroke-width="2.73" stroke-linejoin="bevel" points="14.1732,865.023 2933.86,865.023"/>
<polyline class="StaffLines" fill="none" stroke="#000000" stroke-width="2.73" stroke-linejoin="bevel" points="14.1732,889.826 2933.86,889.826"/>
<polyline class="StaffLines" fill="none" stroke="#000000" stroke-width="2.73" stroke-linejoin="bevel" points="14.1732,914.629 2933.86,914.629"/>
<polyline class="StaffLines" fill="none" stroke="#000000" stroke-width="2.73" stroke-linejoin="bevel" points="14.1732,1125.46 2933.86,1125.46"/>
<polyline class="StaffLines" fill="none" stroke="#000000" stroke-width="2.73" stroke-linejoin="bevel" points="14.1732,1150.26 2933.86,1150.26"/>
<polyline class="StaffLines" fill="none" stroke="#000000" stroke-width="2.73" stroke-linejoin="bevel" points="14.1732,1175.06 2933.86,1175.06"/>
<polyline class="StaffLines" fill="none" stroke="#000000" stroke-width="2.73" stroke-linejoin="bevel" points="14.1732,1199.87 2933.86,1199.87"/>
<polyline class="StaffLines" fill="none" stroke="#000000" stroke-width="2.73" stroke-linejoin="bevel" points="14.1732,1224.67 2933.86,1224.67"/>
<polyline class="BarLine" fill="none" stroke="#000000" stroke-width="4.46" stroke-linejoin="bevel" points="953.226,186.431 953.226,288.372"/>
<polyline class="BarLine" fill="none" stroke="#000000" stroke-width="4.46" stroke-linejoin="bevel" points="1612.69,186.431 1612.69,288.372"/>
<polyline class="BarLine" fill="none" stroke="#000000" stroke-width="4.46" stroke-linejoin="bevel" points="2272.16,186.431 2272.16,288.372"/>
<polyline class="BarLine" fill="none" stroke="#000000" stroke-width="4.46" stroke-linejoin="bevel" points="2931.63,186.431 2931.63,288.372"/>
<polyline class="BarLine" fill="none" stroke="#000000" stroke-width="4.46" stroke-linejoin="bevel" points="808.481,496.47 808.481,598.411"/>
<polyline class="BarLine" fill="none" stroke="#000000" stroke-width="4.46" stroke-linejoin="bevel" points="1502.1,496.47 1502.1,598.411"/>
<polyline class="BarLine" fill="none" stroke="#000000" stroke-width="4.46" stroke-linejoin="bevel" points="2195.73,496.47 2195.73,598.411"/>
<path class="BarLine" transform="matrix(0.992126,0,0,0.992126,2887.12,535.039)" d="M10.4063,0 C10.4063,-2.90625 8.09375,-5.29688 5.20313,-5.29688 C2.29688,-5.29688 0,-2.90625 0,0 C0,2.90625 2.29688,5.29688 5.20313,5.29688 C8.09375,5.29688 10.4063,2.90625 10.4063,0"/>
<path class="BarLine" transform="matrix(0.992126,0,0,0.992126,2887.12,559.843)" d="M10.4063,0 C10.4063,-2.90625 8.09375,-5.29688 5.20313,-5.29688 C2.29688,-5.29688 0,-2.90625 0,0 C0,2.90625 2.29688,5.29688 5.20313,5.29688 C8.09375,5.29688 10.4063,2.90625 10.4063,0"/>
<polyline class="BarLine" fill="none" stroke="#000000" stroke-width="4.46" stroke-linejoin="bevel" points="2909.64,496.47 2909.64,598.411"/>
<polyline class="BarLine" fill="none" stroke="#000000" stroke-width="13.64" stroke-linejoin="bevel" points="2927,496.47 2927,598.411"/>
<polyline class="BarLine" fill="none" stroke="#000000" stroke-width="4.46" stroke-linejoin="bevel" points="819.051,814.053 819.051,915.994"/>
<polyline class="BarLine" fill="none" stroke="#000000" stroke-width="4.46" stroke-linejoin="bevel" points="1523.24,814.053 1523.24,915.994"/>
<polyline class="BarLine" fill="none" stroke="#000000" stroke-width="4.46" stroke-linejoin="bevel" points="2227.44,814.053 2227.44,915.994"/>
<polyline class="BarLine" fill="none" stroke="#000000" stroke-width="4.46" stroke-linejoin="bevel" points="2931.63,814.053 2931.63,915.994"/>
<polyline class="BarLine" fill="none" stroke="#000000" stroke-width="4.46" stroke-linejoin="bevel" points="812.511,1124.09 812.511,1226.03"/>
<polyline class="BarLine" fill="none" stroke="#000000" stroke-width="4.46" stroke-linejoin="bevel" points="1494.04,1124.09 1494.04,1226.03"/>
<polyline class="BarLine" fill="none" stroke="#000000" stroke-width="4.46" stroke-linejoin="bevel" points="2191.69,1124.09 2191.69,1226.03"/>
<path class="BarLine" transform="matrix(0.992126,0,0,0.992126,2887.12,1162.66)" d="M10.4063,0 C10.4063,-2.90625 8.09375,-5.29688 5.20313,-5.29688 C2.29688,-5.29688 0,-2.90625 0,0 C0,2.90625 2.29688,5.29688 5.20313,5.29688 C8.09375,5.29688 10.4063,2.90625 10.4063,0"/>
<path class="BarLine" transform="matrix(0.992126,0,0,0.992126,2887.12,1187.46)" d="M10.4063,0 C10.4063,-2.90625 8.09375,-5.29688 5.20313,-5.29688 C2.29688,-5.29688 0,-2.90625 0,0 C0,2.90625 2.29688,5.29688 5.20313,5.29688 C8.09375,5.29688 10.4063,2.90625 10.4063,0"/>
<polyline class="BarLine" fill="none" stroke="#000000" stroke-width="4.46" stroke-linejoin="bevel" points="2909.64,1124.09 2909.64,1226.03"/>
<polyline class="BarLine" fill="none" stroke="#000000" stroke-width="13.64" stroke-linejoin="bevel" points="2927,1124.09 2927,1226.03"/>
<path class="Note" transform="matrix(0.992126,0,0,0.992126,338.405,237.402)" d="M43,-25 L0,25 L10,25 L53,-25 L43,-25 "/>
<path class="Note" transform="matrix(0.992126,0,0,0.992126,489.01,237.402)" d="M43,-25 L0,25 L10,25 L53,-25 L43,-25 "/>
<path class="Note" transform="matrix(0.992126,0,0,0.992126,639.615,237.402)" d="M43,-25 L0,25 L10,25 L53,-25 L43,-25 "/>
<path class="Note" transform="matrix(0.992126,0,0,0.992126,790.22,237.402)" d="M43,-25 L0,25 L10,25 L53,-25 L43,-25 "/>
<path class="Note" transform="matrix(0.992126,0,0,0.992126,997.872,237.402)" d="M43,-25 L0,25 L10,25 L53,-25 L43,-25 "/>
<path class="Note" transform="matrix(0.992126,0,0,0.992126,1148.48,237.402)" d="M43,-25 L0,25 L10,25 L53,-25 L43,-25 "/>
<path class="Note" transform="matrix(0.992126,0,0,0.992126,1299.08,237.402)" d="M43,-25 L0,25 L10,25 L53,-25 L43,-25 "/>
<path class="Note" transform="matrix(0.992126,0,0,0.992126,1449.69,237.402)" d="M43,-25 L0,25 L10,25 L53,-25 L43,-25 "/>
<path class="Note" transform="matrix(0.992126,0,0,0.992126,1657.34,237.402)" d="M43,-25 L0,25 L10,25 L53,-25 L43,-25 "/>
<path class="Note" transform="matrix(0.992126,0,0,0.992126,1807.94,237.402)" d="M43,-25 L0,25 L10,25 L53,-25 L43,-25 "/>
<path class="Note" transform="matrix(0.992126,0,0,0.992126,1958.55,237.402)" d="M43,-25 L0,25 L10,25 L53,-25 L43,-25 "/>
<path class="Note" transform="matrix(0.992126,0,0,0.992126,2109.15,237.402)" d="M43,-25 L0,25 L10,25 L53,-25 L43,-25 "/>
<path class="Note" transform="matrix(0.992126,0,0,0.992126,2316.81,237.402)" d="M43,-25 L0,25 L10,25 L53,-25 L43,-25 "/>
<path class="Note" transform="matrix(0.992126,0,0,0.992126,2467.41,237.402)" d="M43,-25 L0,25 L10,25 L53,-25 L43,-25 "/>
<path class="Note" transform="matrix(0.992126,0,0,0.992126,2618.02,237.402)" d="M43,-25 L0,25 L10,25 L53,-25 L43,-25 "/>
<path class="Note" transform="matrix(0.992126,0,0,0.992126,2768.62,237.402)" d="M43,-25 L0,25 L10,25 L53,-25 L43,-25 "/>
<path class="Note" transform="matrix(0.992126,0,0,0.992126,159.504,547.441)" d="M43,-25 L0,25 L10,25 L53,-25 L43,-25 "/>
<path class="Note" transform="matrix(0.992126,0,0,0.992126,318.648,547.441)" d="M43,-25 L0,25 L10,25 L53,-25 L43,-25 "/>
<path class="Note" transform="matrix(0.992126,0,0,0.992126,477.792,547.441)" d="M43,-25 L0,25 L10,25 L53,-25 L43,-25 "/>
<path class="Note" transform="matrix(0.992126,0,0,0.992126,636.935,547.441)" d="M43,-25 L0,25 L10,25 L53,-25 L43,-25 "/>
<path class="Note" transform="matrix(0.992126,0,0,0.992126,853.126,547.441)" d="M43,-25 L0,25 L10,25 L53,-25 L43,-25 "/>
<path class="Note" transform="matrix(0.992126,0,0,0.992126,1012.27,547.441)" d="M43,-25 L0,25 L10,25 L53,-25 L43,-25 "/>
<path class="Note" transform="matrix(0.992126,0,0,0.992126,1171.41,547.441)" d="M43,-25 L0,25 L10,25 L53,-25 L43,-25 "/>
<path class="Note" transform="matrix(0.992126,0,0,0.992126,1330.56,547.441)" d="M43,-25 L0,25 L10,25 L53,-25 L43,-25 "/>
<path class="Note" transform="matrix(0.992126,0,0,0.992126,1546.75,547.441)" d="M43,-25 L0,25 L10,25 L53,-25 L43,-25 "/>
<path class="Note" transform="matrix(0.992126,0,0,0.992126,1705.89,547.441)" d="M43,-25 L0,25 L10,25 L53,-25 L43,-25 "/>
<path class="Note" transform="matrix(0.992126,0,0,0.992126,1865.04,547.441)" d="M43,-25 L0,25 L10,25 L53,-25 L43,-25 "/>
<path class="Note" transform="matrix(0.992126,0,0,0.992126,2024.18,547.441)" d="M43,-25 L0,25 L10,25 L53,-25 L43,-25 "/>
<path class="Note" transform="matrix(0.992126,0,0,0.992126,2240.37,547.441)" d="M43,-25 L0,25 L10,25 L53,-25 L43,-25 "/>
<path class="Note" transform="matrix(0.992126,0,0,0.992126,2399.51,547.441)" d="M43,-25 L0,25 L10,25 L53,-25 L43,-25 "/>
<path class="Note" transform="matrix(0.992126,0,0,0.992126,2558.66,547.441)" d="M43,-25 L0,25 L10,25 L53,-25 L43,-25 "/>
<path class="Note" transform="matrix(0.992126,0,0,0.992126,2717.8,547.441)" d="M43,-25 L0,25 L10,25 L53,-25 L43,-25 "/>
<path class="Note" transform="matrix(0.992126,0,0,0.992126,159.504,865.023)" d="M43,-25 L0,25 L10,25 L53,-25 L43,-25 "/>
<path class="Note" transform="matrix(0.992126,0,0,0.992126,321.29,865.023)" d="M43,-25 L0,25 L10,25 L53,-25 L43,-25 "/>
<path class="Note" transform="matrix(0.992126,0,0,0.992126,483.077,865.023)" d="M43,-25 L0,25 L10,25 L53,-25 L43,-25 "/>
<path class="Note" transform="matrix(0.992126,0,0,0.992126,644.863,865.023)" d="M43,-25 L0,25 L10,25 L53,-25 L43,-25 "/>
<path class="Note" transform="matrix(0.992126,0,0,0.992126,863.696,865.023)" d="M43,-25 L0,25 L10,25 L53,-25 L43,-25 "/>
<path class="Note" transform="matrix(0.992126,0,0,0.992126,1025.48,865.023)" d="M43,-25 L0,25 L10,25 L53,-25 L43,-25 "/>
<path class="Note" transform="matrix(0.992126,0,0,0.992126,1187.27,865.023)" d="M43,-25 L0,25 L10,25 L53,-25 L43,-25 "/>
<path class="Note" transform="matrix(0.992126,0,0,0.992126,1349.06,865.023)" d="M43,-25 L0,25 L10,25 L53,-25 L43,-25 "/>
<path class="Note" transform="matrix(0.992126,0,0,0.992126,1567.89,865.023)" d="M43,-25 L0,25 L10,25 L53,-25 L43,-25 "/>
<path class="Note" transform="matrix(0.992126,0,0,0.992126,1729.67,865.023)" d="M43,-25 L0,25 L10,25 L53,-25 L43,-25 "/>
<path class="Note" transform="matrix(0.992126,0,0,0.992126,1891.46,865.023)" d="M43,-25 L0,25 L10,25 L53,-25 L43,-25 "/>
<path class="Note" transform="matrix(0.992126,0,0,0.992126,2053.25,865.023)" d="M43,-25 L0,25 L10,25 L53,-25 L43,-25 "/>
<path class="Note" transform="matrix(0.992126,0,0,0.992126,2272.08,865.023)" d="M43,-25 L0,25 L10,25 L53,-25 L43,-25 "/>
<path class="Note" transform="matrix(0.992126,0,0,0.992126,2433.87,865.023)" d="M43,-25 L0,25 L10,25 L53,-25 L43,-25 "/>
<path class="Note" transform="matrix(0.992126,0,0,0.992126,2595.65,865.023)" d="M43,-25 L0,25 L10,25 L53,-25 L43,-25 "/>
<path class="Note" transform="matrix(0.992126,0,0,0.992126,2757.44,865.023)" d="M43,-25 L0,25 L10,25 L53,-25 L43,-25 "/>
<path class="Note" transform="matrix(0.992126,0,0,0.992126,159.504,1175.06)" d="M43,-25 L0,25 L10,25 L53,-25 L43,-25 "/>
<path class="Note" transform="matrix(0.992126,0,0,0.992126,319.656,1175.06)" d="M43,-25 L0,25 L10,25 L53,-25 L43,-25 "/>
<path class="Note" transform="matrix(0.992126,0,0,0.992126,479.807,1175.06)" d="M43,-25 L0,25 L10,25 L53,-25 L43,-25 "/>
<path class="Note" transform="matrix(0.992126,0,0,0.992126,639.958,1175.06)" d="M43,-25 L0,25 L10,25 L53,-25 L43,-25 "/>
<path class="Note" transform="matrix(0.992126,0,0,0.992126,841.035,1175.06)" d="M43,-25 L0,25 L10,25 L53,-25 L43,-25 "/>
<path class="Note" transform="matrix(0.992126,0,0,0.992126,1001.19,1175.06)" d="M43,-25 L0,25 L10,25 L53,-25 L43,-25 "/>
<path class="Note" transform="matrix(0.992126,0,0,0.992126,1161.34,1175.06)" d="M43,-25 L0,25 L10,25 L53,-25 L43,-25 "/>
<path class="Note" transform="matrix(0.992126,0,0,0.992126,1321.49,1175.06)" d="M43,-25 L0,25 L10,25 L53,-25 L43,-25 "/>
<path class="Note" transform="matrix(0.992126,0,0,0.992126,1538.69,1175.06)" d="M43,-25 L0,25 L10,25 L53,-25 L43,-25 "/>
<path class="Note" transform="matrix(0.992126,0,0,0.992126,1698.84,1175.06)" d="M43,-25 L0,25 L10,25 L53,-25 L43,-25 "/>
<path class="Note" transform="matrix(0.992126,0,0,0.992126,1858.99,1175.06)" d="M43,-25 L0,25 L10,25 L53,-25 L43,-25 "/>
<path class="Note" transform="matrix(0.992126,0,0,0.992126,2019.14,1175.06)" d="M43,-25 L0,25 L10,25 L53,-25 L43,-25 "/>
<path class="Note" transform="matrix(0.992126,0,0,0.992126,2236.34,1175.06)" d="M43,-25 L0,25 L10,25 L53,-25 L43,-25 "/>
<path class="Note" transform="matrix(0.992126,0,0,0.992126,2396.49,1175.06)" d="M43,-25 L0,25 L10,25 L53,-25 L43,-25 "/>
<path class="Note" transform="matrix(0.992126,0,0,0.992126,2556.64,1175.06)" d="M43,-25 L0,25 L10,25 L53,-25 L43,-25 "/>
<path class="Note" transform="matrix(0.992126,0,0,0.992126,2716.79,1175.06)" d="M43,-25 L0,25 L10,25 L53,-25 L43,-25 "/>
<path class="Clef" transform="matrix(0.992126,0,0,0.992126,158.032,262.205)" d="M63.3594,-5.92188 C62.125,-11.3438 59.4844,-15.1719 58.7031,-16.2031 C55.5156,-20.4844 51.5,-23.3281 46.8125,-24.6875 C43.7031,-25.5625 40.7031,-25.6875 38.2813,-25.5 C37.2344,-31.5156 36.2344,-37.3906 35.3281,-42.8438 C40.7813,-49.0156 44.4063,-54.8125 46.6875,-59.1094 C50.1563,-65.6875 51.2969,-70.2656 51.3594,-70.4688 C53.0781,-75.6875 53.4375,-83.3906 52.3281,-91.5938 C51.3281,-99.1406 49.2344,-105.859 46.875,-109.109 C45.8594,-110.531 44.7969,-111.266 43.7656,-111.266 C42.5469,-111.266 40.0313,-110.031 37.1406,-107.25 C34.8438,-105.063 31.5781,-101.172 29.0156,-95.1563 C26.0156,-88.0938 25.7969,-78.6094 26.1563,-71.8906 C26.5313,-64.6094 27.6406,-58.9219 27.6563,-58.875 C27.6719,-58.7813 27.9375,-57.2813 28.375,-54.7188 C28.1563,-54.4844 27.9063,-54.2656 27.6563,-54.0156 C26.625,-53.0156 25.4375,-51.8906 24.0469,-50.5 C23.1875,-49.6406 22.2344,-48.7344 21.2344,-47.7656 C12.7969,-39.625 0,-27.2969 0,-8.14063 C0,-3.4375 0.90625,0.984375 2.6875,5 C4.26563,8.59375 6.5625,11.875 9.5,14.75 C17.2344,22.3125 27.8281,25.5156 34.875,25.3594 C37.8281,25.2813 40.4688,25.0469 42.8594,24.5938 C44.6875,34.2031 45.8281,41.2344 45.8594,46.5781 C45.9063,53.0938 44.25,57.0781 40.3594,59.8438 C37.9219,61.5781 35.1094,62.5313 32.0156,62.6719 C29.4219,62.7969 27.1563,62.3281 25.7344,61.9219 L25.7188,61.9219 C25.7188,61.9219 25.4375,61.8281 25.4219,61.6406 C25.4063,61.4531 25.7656,61.4063 25.7656,61.4063 L25.7969,61.4063 C27.7188,60.9688 31.2813,59.7344 33.6406,56.4375 C35.4375,53.9063 36.3125,49.2813 34.4688,45.3438 C33.3594,42.9531 30.8594,40 25.2344,39.5469 C22.7344,39.3438 20.4688,39.8594 18.4688,41.0625 C16.6563,42.1406 15.1563,43.7813 14.1094,45.7813 C11.6563,50.4844 12.1094,56.2188 15.2344,60.0625 C18.2031,63.6875 22.8125,66 28.25,66.5781 C29.1094,66.6719 29.9531,66.7031 30.7969,66.7031 C35.2344,66.7031 39.625,65.5 43.2031,63.2969 C46.8594,60.7188 48.9844,56.7344 49.6563,51.1094 C50.2188,46.4688 49.8281,40.5469 48.4375,32.4688 C48.0781,30.375 47.5313,27.3438 46.875,23.5938 C52.625,21.6719 56.7813,18.0938 60.5469,12.2344 C63.8438,6.5 64.7813,0.390625 63.3594,-5.92188 M29.1406,20.2969 C24.5,19.0781 20.0625,16.5781 16.3125,13.0625 C15,11.8438 13.125,9.67188 11.6563,6.28125 C10.2969,3.10938 9.625,-0.328125 9.6875,-3.90625 C9.75,-8.60938 11.0625,-13.4375 13.5625,-18.2188 C16.4844,-23.7969 21.0469,-29.3281 27.1094,-34.6563 C28.5625,-35.9375 29.9375,-37.2188 31.2188,-38.5 C31.9844,-34.2344 32.8125,-29.5469 33.6875,-24.6719 C29.8438,-23.4063 25.0938,-20.25 21.9844,-14.5938 C18.4375,-8.03125 18.5781,-2.5 19.3125,0.984375 C20.25,5.4375 22.7813,9.20313 26.2344,11.2969 C27.1719,11.8594 31.2969,13.9844 33.1406,13.4063 C33.5156,13.2969 33.7813,13.0625 33.9219,12.7344 C34.4375,11.5625 33.4063,10.9219 31.8594,9.96875 C31.25,9.59375 30.5781,9.17188 29.8594,8.64063 C26.5313,6.15625 25.0781,1.70313 26.1563,-2.6875 C26.7344,-5.07813 28.0156,-7.25 29.8594,-8.95313 C31.5156,-10.5 33.5625,-11.5938 35.9375,-12.2344 C37.9844,-0.984375 40.0469,10.1719 41.6875,18.5313 C41.8125,19.2188 41.9531,19.8906 42.0781,20.5625 C37.7031,21.5 33.3594,21.4063 29.1406,20.2969 M40.4688,-12.9063 C50.8125,-13.375 55.0781,-5.9375 55.9688,-1.10938 C56.4375,1.4375 56.4375,5.875 54.8906,10.0938 C53.7188,13.2656 51.2656,17.3438 46.125,19.4063 C46.0625,18.9844 45.9844,18.5469 45.9063,18.125 C44.3594,9.34375 42.4219,-1.65625 40.4688,-12.9063 M33.1406,-83.8594 C34.9219,-89.5938 37.6563,-92.8438 39.6563,-94.5781 C41.4063,-96.0938 43.0469,-96.8125 43.9688,-96.8125 C44.1094,-96.8125 44.2344,-96.7813 44.3281,-96.75 C44.7969,-96.6094 45.3281,-96.0469 45.7969,-95.1719 C48.1094,-90.8906 47.3594,-84.1719 46.0156,-79.7344 C44.3906,-74.3281 41.4688,-68.7188 32.6719,-59.1094 C32.5,-60.2188 32.3438,-61.2656 32.1875,-62.25 C30.9375,-70.5313 31.2656,-77.8125 33.1406,-83.8594"/>
<path class="Clef" transform="matrix(0.992126,0,0,0.992126,34.0158,572.244)" d="M63.3594,-5.92188 C62.125,-11.3438 59.4844,-15.1719 58.7031,-16.2031 C55.5156,-20.4844 51.5,-23.3281 46.8125,-24.6875 C43.7031,-25.5625 40.7031,-25.6875 38.2813,-25.5 C37.2344,-31.5156 36.2344,-37.3906 35.3281,-42.8438 C40.7813,-49.0156 44.4063,-54.8125 46.6875,-59.1094 C50.1563,-65.6875 51.2969,-70.2656 51.3594,-70.4688 C53.0781,-75.6875 53.4375,-83.3906 52.3281,-91.5938 C51.3281,-99.1406 49.2344,-105.859 46.875,-109.109 C45.8594,-110.531 44.7969,-111.266 43.7656,-111.266 C42.5469,-111.266 40.0313,-110.031 37.1406,-107.25 C34.8438,-105.063 31.5781,-101.172 29.0156,-95.1563 C26.0156,-88.0938 25.7969,-78.6094 26.1563,-71.8906 C26.5313,-64.6094 27.6406,-58.9219 27.6563,-58.875 C27.6719,-58.7813 27.9375,-57.2813 28.375,-54.7188 C28.1563,-54.4844 27.9063,-54.2656 27.6563,-54.0156 C26.625,-53.0156 25.4375,-51.8906 24.0469,-50.5 C23.1875,-49.6406 22.2344,-48.7344 21.2344,-47.7656 C12.7969,-39.625 0,-27.2969 0,-8.14063 C0,-3.4375 0.90625,0.984375 2.6875,5 C4.26563,8.59375 6.5625,11.875 9.5,14.75 C17.2344,22.3125 27.8281,25.5156 34.875,25.3594 C37.8281,25.2813 40.4688,25.0469 42.8594,24.5938 C44.6875,34.2031 45.8281,41.2344 45.8594,46.5781 C45.9063,53.0938 44.25,57.0781 40.3594,59.8438 C37.9219,61.5781 35.1094,62.5313 32.0156,62.6719 C29.4219,62.7969 27.1563,62.3281 25.7344,61.9219 L25.7188,61.9219 C25.7188,61.9219 25.4375,61.8281 25.4219,61.6406 C25.4063,61.4531 25.7656,61.4063 25.7656,61.4063 L25.7969,61.4063 C27.7188,60.9688 31.2813,59.7344 33.6406,56.4375 C35.4375,53.9063 36.3125,49.2813 34.4688,45.3438 C33.3594,42.9531 30.8594,40 25.2344,39.5469 C22.7344,39.3438 20.4688,39.8594 18.4688,41.0625 C16.6563,42.1406 15.1563,43.7813 14.1094,45.7813 C11.6563,50.4844 12.1094,56.2188 15.2344,60.0625 C18.2031,63.6875 22.8125,66 28.25,66.5781 C29.1094,66.6719 29.9531,66.7031 30.7969,66.7031 C35.2344,66.7031 39.625,65.5 43.2031,63.2969 C46.8594,60.7188 48.9844,56.7344 49.6563,51.1094 C50.2188,46.4688 49.8281,40.5469 48.4375,32.4688 C48.0781,30.375 47.5313,27.3438 46.875,23.5938 C52.625,21.6719 56.7813,18.0938 60.5469,12.2344 C63.8438,6.5 64.7813,0.390625 63.3594,-5.92188 M29.1406,20.2969 C24.5,19.0781 20.0625,16.5781 16.3125,13.0625 C15,11.8438 13.125,9.67188 11.6563,6.28125 C10.2969,3.10938 9.625,-0.328125 9.6875,-3.90625 C9.75,-8.60938 11.0625,-13.4375 13.5625,-18.2188 C16.4844,-23.7969 21.0469,-29.3281 27.1094,-34.6563 C28.5625,-35.9375 29.9375,-37.2188 31.2188,-38.5 C31.9844,-34.2344 32.8125,-29.5469 33.6875,-24.6719 C29.8438,-23.4063 25.0938,-20.25 21.9844,-14.5938 C18.4375,-8.03125 18.5781,-2.5 19.3125,0.984375 C20.25,5.4375 22.7813,9.20313 26.2344,11.2969 C27.1719,11.8594 31.2969,13.9844 33.1406,13.4063 C33.5156,13.2969 33.7813,13.0625 33.9219,12.7344 C34.4375,11.5625 33.4063,10.9219 31.8594,9.96875 C31.25,9.59375 30.5781,9.17188 29.8594,8.64063 C26.5313,6.15625 25.0781,1.70313 26.1563,-2.6875 C26.7344,-5.07813 28.0156,-7.25 29.8594,-8.95313 C31.5156,-10.5 33.5625,-11.5938 35.9375,-12.2344 C37.9844,-0.984375 40.0469,10.1719 41.6875,18.5313 C41.8125,19.2188 41.9531,19.8906 42.0781,20.5625 C37.7031,21.5 33.3594,21.4063 29.1406,20.2969 M40.4688,-12.9063 C50.8125,-13.375 55.0781,-5.9375 55.9688,-1.10938 C56.4375,1.4375 56.4375,5.875 54.8906,10.0938 C53.7188,13.2656 51.2656,17.3438 46.125,19.4063 C46.0625,18.9844 45.9844,18.5469 45.9063,18.125 C44.3594,9.34375 42.4219,-1.65625 40.4688,-12.9063 M33.1406,-83.8594 C34.9219,-89.5938 37.6563,-92.8438 39.6563,-94.5781 C41.4063,-96.0938 43.0469,-96.8125 43.9688,-96.8125 C44.1094,-96.8125 44.2344,-96.7813 44.3281,-96.75 C44.7969,-96.6094 45.3281,-96.0469 45.7969,-95.1719 C48.1094,-90.8906 47.3594,-84.1719 46.0156,-79.7344 C44.3906,-74.3281 41.4688,-68.7188 32.6719,-59.1094 C32.5,-60.2188 32.3438,-61.2656 32.1875,-62.25 C30.9375,-70.5313 31.2656,-77.8125 33.1406,-83.8594"/>
<path class="Clef" transform="matrix(0.992126,0,0,0.992126,34.0158,889.826)" d="M63.3594,-5.92188 C62.125,-11.3438 59.4844,-15.1719 58.7031,-16.2031 C55.5156,-20.4844 51.5,-23.3281 46.8125,-24.6875 C43.7031,-25.5625 40.7031,-25.6875 38.2813,-25.5 C37.2344,-31.5156 36.2344,-37.3906 35.3281,-42.8438 C40.7813,-49.0156 44.4063,-54.8125 46.6875,-59.1094 C50.1563,-65.6875 51.2969,-70.2656 51.3594,-70.4688 C53.0781,-75.6875 53.4375,-83.3906 52.3281,-91.5938 C51.3281,-99.1406 49.2344,-105.859 46.875,-109.109 C45.8594,-110.531 44.7969,-111.266 43.7656,-111.266 C42.5469,-111.266 40.0313,-110.031 37.1406,-107.25 C34.8438,-105.063 31.5781,-101.172 29.0156,-95.1563 C26.0156,-88.0938 25.7969,-78.6094 26.1563,-71.8906 C26.5313,-64.6094 27.6406,-58.9219 27.6563,-58.875 C27.6719,-58.7813 27.9375,-57.2813 28.375,-54.7188 C28.1563,-54.4844 27.9063,-54.2656 27.6563,-54.0156 C26.625,-53.0156 25.4375,-51.8906 24.0469,-50.5 C23.1875,-49.6406 22.2344,-48.7344 21.2344,-47.7656 C12.7969,-39.625 0,-27.2969 0,-8.14063 C0,-3.4375 0.90625,0.984375 2.6875,5 C4.26563,8.59375 6.5625,11.875 9.5,14.75 C17.2344,22.3125 27.8281,25.5156 34.875,25.3594 C37.8281,25.2813 40.4688,25.0469 42.8594,24.5938 C44.6875,34.2031 45.8281,41.2344 45.8594,46.5781 C45.9063,53.0938 44.25,57.0781 40.3594,59.8438 C37.9219,61.5781 35.1094,62.5313 32.0156,62.6719 C29.4219,62.7969 27.1563,62.3281 25.7344,61.9219 L25.7188,61.9219 C25.7188,61.9219 25.4375,61.8281 25.4219,61.6406 C25.4063,61.4531 25.7656,61.4063 25.7656,61.4063 L25.7969,61.4063 C27.7188,60.9688 31.2813,59.7344 33.6406,56.4375 C35.4375,53.9063 36.3125,49.2813 34.4688,45.3438 C33.3594,42.9531 30.8594,40 25.2344,39.5469 C22.7344,39.3438 20.4688,39.8594 18.4688,41.0625 C16.6563,42.1406 15.1563,43.7813 14.1094,45.7813 C11.6563,50.4844 12.1094,56.2188 15.2344,60.0625 C18.2031,63.6875 22.8125,66 28.25,66.5781 C29.1094,66.6719 29.9531,66.7031 30.7969,66.7031 C35.2344,66.7031 39.625,65.5 43.2031,63.2969 C46.8594,60.7188 48.9844,56.7344 49.6563,51.1094 C50.2188,46.4688 49.8281,40.5469 48.4375,32.4688 C48.0781,30.375 47.5313,27.3438 46.875,23.5938 C52.625,21.6719 56.7813,18.0938 60.5469,12.2344 C63.8438,6.5 64.7813,0.390625 63.3594,-5.92188 M29.1406,20.2969 C24.5,19.0781 20.0625,16.5781 16.3125,13.0625 C15,11.8438 13.125,9.67188 11.6563,6.28125 C10.2969,3.10938 9.625,-0.328125 9.6875,-3.90625 C9.75,-8.60938 11.0625,-13.4375 13.5625,-18.2188 C16.4844,-23.7969 21.0469,-29.3281 27.1094,-34.6563 C28.5625,-35.9375 29.9375,-37.2188 31.2188,-38.5 C31.9844,-34.2344 32.8125,-29.5469 33.6875,-24.6719 C29.8438,-23.4063 25.0938,-20.25 21.9844,-14.5938 C18.4375,-8.03125 18.5781,-2.5 19.3125,0.984375 C20.25,5.4375 22.7813,9.20313 26.2344,11.2969 C27.1719,11.8594 31.2969,13.9844 33.1406,13.4063 C33.5156,13.2969 33.7813,13.0625 33.9219,12.7344 C34.4375,11.5625 33.4063,10.9219 31.8594,9.96875 C31.25,9.59375 30.5781,9.17188 29.8594,8.64063 C26.5313,6.15625 25.0781,1.70313 26.1563,-2.6875 C26.7344,-5.07813 28.0156,-7.25 29.8594,-8.95313 C31.5156,-10.5 33.5625,-11.5938 35.9375,-12.2344 C37.9844,-0.984375 40.0469,10.1719 41.6875,18.5313 C41.8125,19.2188 41.9531,19.8906 42.0781,20.5625 C37.7031,21.5 33.3594,21.4063 29.1406,20.2969 M40.4688,-12.9063 C50.8125,-13.375 55.0781,-5.9375 55.9688,-1.10938 C56.4375,1.4375 56.4375,5.875 54.8906,10.0938 C53.7188,13.2656 51.2656,17.3438 46.125,19.4063 C46.0625,18.9844 45.9844,18.5469 45.9063,18.125 C44.3594,9.34375 42.4219,-1.65625 40.4688,-12.9063 M33.1406,-83.8594 C34.9219,-89.5938 37.6563,-92.8438 39.6563,-94.5781 C41.4063,-96.0938 43.0469,-96.8125 43.9688,-96.8125 C44.1094,-96.8125 44.2344,-96.7813 44.3281,-96.75 C44.7969,-96.6094 45.3281,-96.0469 45.7969,-95.1719 C48.1094,-90.8906 47.3594,-84.1719 46.0156,-79.7344 C44.3906,-74.3281 41.4688,-68.7188 32.6719,-59.1094 C32.5,-60.2188 32.3438,-61.2656 32.1875,-62.25 C30.9375,-70.5313 31.2656,-77.8125 33.1406,-83.8594"/>
<path class="Clef" transform="matrix(0.992126,0,0,0.992126,34.0158,1199.87)" d="M63.3594,-5.92188 C62.125,-11.3438 59.4844,-15.1719 58.7031,-16.2031 C55.5156,-20.4844 51.5,-23.3281 46.8125,-24.6875 C43.7031,-25.5625 40.7031,-25.6875 38.2813,-25.5 C37.2344,-31.5156 36.2344,-37.3906 35.3281,-42.8438 C40.7813,-49.0156 44.4063,-54.8125 46.6875,-59.1094 C50.1563,-65.6875 51.2969,-70.2656 51.3594,-70.4688 C53.0781,-75.6875 53.4375,-83.3906 52.3281,-91.5938 C51.3281,-99.1406 49.2344,-105.859 46.875,-109.109 C45.8594,-110.531 44.7969,-111.266 43.7656,-111.266 C42.5469,-111.266 40.0313,-110.031 37.1406,-107.25 C34.8438,-105.063 31.5781,-101.172 29.0156,-95.1563 C26.0156,-88.0938 25.7969,-78.6094 26.1563,-71.8906 C26.5313,-64.6094 27.6406,-58.9219 27.6563,-58.875 C27.6719,-58.7813 27.9375,-57.2813 28.375,-54.7188 C28.1563,-54.4844 27.9063,-54.2656 27.6563,-54.0156 C26.625,-53.0156 25.4375,-51.8906 24.0469,-50.5 C23.1875,-49.6406 22.2344,-48.7344 21.2344,-47.7656 C12.7969,-39.625 0,-27.2969 0,-8.14063 C0,-3.4375 0.90625,0.984375 2.6875,5 C4.26563,8.59375 6.5625,11.875 9.5,14.75 C17.2344,22.3125 27.8281,25.5156 34.875,25.3594 C37.8281,25.2813 40.4688,25.0469 42.8594,24.5938 C44.6875,34.2031 45.8281,41.2344 45.8594,46.5781 C45.9063,53.0938 44.25,57.0781 40.3594,59.8438 C37.9219,61.5781 35.1094,62.5313 32.0156,62.6719 C29.4219,62.7969 27.1563,62.3281 25.7344,61.9219 L25.7188,61.9219 C25.7188,61.9219 25.4375,61.8281 25.4219,61.6406 C25.4063,61.4531 25.7656,61.4063 25.7656,61.4063 L25.7969,61.4063 C27.7188,60.9688 31.2813,59.7344 33.6406,56.4375 C35.4375,53.9063 36.3125,49.2813 34.4688,45.3438 C33.3594,42.9531 30.8594,40 25.2344,39.5469 C22.7344,39.3438 20.4688,39.8594 18.4688,41.0625 C16.6563,42.1406 15.1563,43.7813 14.1094,45.7813 C11.6563,50.4844 12.1094,56.2188 15.2344,60.0625 C18.2031,63.6875 22.8125,66 28.25,66.5781 C29.1094,66.6719 29.9531,66.7031 30.7969,66.7031 C35.2344,66.7031 39.625,65.5 43.2031,63.2969 C46.8594,60.7188 48.9844,56.7344 49.6563,51.1094 C50.2188,46.4688 49.8281,40.5469 48.4375,32.4688 C48.0781,30.375 47.5313,27.3438 46.875,23.5938 C52.625,21.6719 56.7813,18.0938 60.5469,12.2344 C63.8438,6.5 64.7813,0.390625 63.3594,-5.92188 M29.1406,20.2969 C24.5,19.0781 20.0625,16.5781 16.3125,13.0625 C15,11.8438 13.125,9.67188 11.6563,6.28125 C10.2969,3.10938 9.625,-0.328125 9.6875,-3.90625 C9.75,-8.60938 11.0625,-13.4375 13.5625,-18.2188 C16.4844,-23.7969 21.0469,-29.3281 27.1094,-34.6563 C28.5625,-35.9375 29.9375,-37.2188 31.2188,-38.5 C31.9844,-34.2344 32.8125,-29.5469 33.6875,-24.6719 C29.8438,-23.4063 25.0938,-20.25 21.9844,-14.5938 C18.4375,-8.03125 18.5781,-2.5 19.3125,0.984375 C20.25,5.4375 22.7813,9.20313 26.2344,11.2969 C27.1719,11.8594 31.2969,13.9844 33.1406,13.4063 C33.5156,13.2969 33.7813,13.0625 33.9219,12.7344 C34.4375,11.5625 33.4063,10.9219 31.8594,9.96875 C31.25,9.59375 30.5781,9.17188 29.8594,8.64063 C26.5313,6.15625 25.0781,1.70313 26.1563,-2.6875 C26.7344,-5.07813 28.0156,-7.25 29.8594,-8.95313 C31.5156,-10.5 33.5625,-11.5938 35.9375,-12.2344 C37.9844,-0.984375 40.0469,10.1719 41.6875,18.5313 C41.8125,19.2188 41.9531,19.8906 42.0781,20.5625 C37.7031,21.5 33.3594,21.4063 29.1406,20.2969 M40.4688,-12.9063 C50.8125,-13.375 55.0781,-5.9375 55.9688,-1.10938 C56.4375,1.4375 56.4375,5.875 54.8906,10.0938 C53.7188,13.2656 51.2656,17.3438 46.125,19.4063 C46.0625,18.9844 45.9844,18.5469 45.9063,18.125 C44.3594,9.34375 42.4219,-1.65625 40.4688,-12.9063 M33.1406,-83.8594 C34.9219,-89.5938 37.6563,-92.8438 39.6563,-94.5781 C41.4063,-96.0938 43.0469,-96.8125 43.9688,-96.8125 C44.1094,-96.8125 44.2344,-96.7813 44.3281,-96.75 C44.7969,-96.6094 45.3281,-96.0469 45.7969,-95.1719 C48.1094,-90.8906 47.3594,-84.1719 46.0156,-79.7344 C44.3906,-74.3281 41.4688,-68.7188 32.6719,-59.1094 C32.5,-60.2188 32.3438,-61.2656 32.1875,-62.25 C30.9375,-70.5313 31.2656,-77.8125 33.1406,-83.8594"/>
<path class="TimeSig" transform="matrix(0.992126,0,0,0.992126,244.951,212.73)" d="M3.59375,12.625 L20.7656,12.625 L20.7656,20.0781 L12.5469,20.0781 C11.7656,20.0781 11.125,20.7031 11.125,21.4844 L11.125,23.3906 C11.125,24.1719 11.7656,24.7969 12.5469,24.7969 L42.7969,24.7969 C43.5781,24.7969 44.2031,24.1719 44.2031,23.3906 L44.2031,21.4844 C44.2031,20.7031 43.5781,20.0781 42.7969,20.0781 L33.8594,20.0781 L33.8594,12.625 L42.7969,12.625 C43.5781,12.625 44.2031,12 44.2031,11.2188 L44.2031,9.3125 C44.2031,8.53125 43.5781,7.90625 42.7969,7.90625 L33.8594,7.90625 L33.8594,-8.0625 C33.8594,-8.59375 33.5469,-9.07813 33.0781,-9.3125 L31.8594,-9.92188 C31.3281,-10.1719 30.7031,-10.0781 30.2656,-9.6875 L21.2188,-1.375 C20.9375,-1.09375 20.7656,-0.734375 20.7656,-0.328125 L20.7656,7.90625 L9.25,7.90625 C9.25,7.90625 20.375,-4.125 32.2188,-19.8906 C33.0781,-21.0469 32.5781,-22.0938 32.3906,-22.2813 L30.2188,-24.4844 C29.9531,-24.75 29.5938,-24.9063 29.2188,-24.9063 C28.625,-24.9063 15.0625,-24.875 14.3438,-24.9063 C13.625,-24.9219 13.0938,-24.2969 13.0156,-23.6875 C13.0156,-23.6875 12.4844,-16.3281 9.875,-8.1875 C7.28125,-0.078125 4.34375,4.90625 1.6875,8.53125 C1.6875,8.53125 1.14063,9.51563 1.5,10.2656 C1.84375,11.0156 2.48438,12.0938 2.48438,12.0938 C2.48438,12.0938 2.73438,12.625 3.59375,12.625"/>
<path class="TimeSig" transform="matrix(0.992126,0,0,0.992126,244.951,262.073)" d="M3.59375,12.625 L20.7656,12.625 L20.7656,20.0781 L12.5469,20.0781 C11.7656,20.0781 11.125,20.7031 11.125,21.4844 L11.125,23.3906 C11.125,24.1719 11.7656,24.7969 12.5469,24.7969 L42.7969,24.7969 C43.5781,24.7969 44.2031,24.1719 44.2031,23.3906 L44.2031,21.4844 C44.2031,20.7031 43.5781,20.0781 42.7969,20.0781 L33.8594,20.0781 L33.8594,12.625 L42.7969,12.625 C43.5781,12.625 44.2031,12 44.2031,11.2188 L44.2031,9.3125 C44.2031,8.53125 43.5781,7.90625 42.7969,7.90625 L33.8594,7.90625 L33.8594,-8.0625 C33.8594,-8.59375 33.5469,-9.07813 33.0781,-9.3125 L31.8594,-9.92188 C31.3281,-10.1719 30.7031,-10.0781 30.2656,-9.6875 L21.2188,-1.375 C20.9375,-1.09375 20.7656,-0.734375 20.7656,-0.328125 L20.7656,7.90625 L9.25,7.90625 C9.25,7.90625 20.375,-4.125 32.2188,-19.8906 C33.0781,-21.0469 32.5781,-22.0938 32.3906,-22.2813 L30.2188,-24.4844 C29.9531,-24.75 29.5938,-24.9063 29.2188,-24.9063 C28.625,-24.9063 15.0625,-24.875 14.3438,-24.9063 C13.625,-24.9219 13.0938,-24.2969 13.0156,-23.6875 C13.0156,-23.6875 12.4844,-16.3281 9.875,-8.1875 C7.28125,-0.078125 4.34375,4.90625 1.6875,8.53125 C1.6875,8.53125 1.14063,9.51563 1.5,10.2656 C1.84375,11.0156 2.48438,12.0938 2.48438,12.0938 C2.48438,12.0938 2.73438,12.625 3.59375,12.625"/>
<path class="RehearsalMark" fill="none" stroke="#000000" stroke-width="3.97" stroke-linecap="square" stroke-linejoin="miter" stroke-miterlimit="2" fill-rule="evenodd" d="M154.216,21.073 L262.987,21.073 L262.987,122.845 L154.216,122.845 L154.216,21.073 "/>
<path class="RehearsalMark" d="M205.352,35.49 L182.883,87.9588 C178.32,98.6619 174.664,102.521 168.82,103.115 L168.82,108.459 L197.43,108.459 L197.43,103.115 C190.398,102.724 187.633,100.834 187.633,96.2869 C187.633,94.5994 188.023,93.0213 189.117,90.6463 L190.695,86.8807 L215.352,86.8807 L219.117,96.5838 C220.195,99.3494 220.305,99.8494 220.305,100.631 C220.305,102.428 218.914,103.021 214.555,103.021 L212.867,103.115 L212.867,108.459 L247.617,108.459 L247.617,103.115 C241.977,102.912 240.398,101.928 238.32,96.8807 L212.867,35.49 L205.352,35.49 M203.273,56.5838 L212.867,80.24 L193.273,80.24 L203.273,56.5838 "/>
<path class="RehearsalMark" fill="none" stroke="#000000" stroke-width="3.97" stroke-linecap="square" stroke-linejoin="miter" stroke-miterlimit="2" fill-rule="evenodd" d="M32.3294,654.622 L133.101,654.622 L133.101,755.393 L32.3294,755.393 L32.3294,654.622 "/>
<path class="RehearsalMark" d="M47.4027,669.523 L47.4027,674.882 L48.8871,674.882 C54.2308,674.882 56.1058,675.273 56.9964,676.257 C57.6996,677.351 57.6996,677.648 57.6996,683.789 L57.6996,726.757 C57.6996,732.882 57.6996,733.179 56.9964,734.179 C56.1058,735.273 54.1371,735.664 48.8871,735.664 L47.4027,735.664 L47.4027,741.007 L87.4964,741.007 C97.7933,741.007 103.043,740.211 108.184,737.945 C114.418,735.164 118.575,728.929 118.575,722.195 C118.575,715.273 114.621,709.82 107.293,706.461 C103.934,704.867 101.059,704.086 95.8089,703.382 C100.653,702.601 103.434,701.898 106.2,700.617 C112.137,697.742 115.309,692.992 115.309,687.054 C115.309,681.414 112.34,676.164 107.496,673.492 C102.043,670.414 97.2933,669.523 85.6058,669.523 L47.4027,669.523 M75.5121,701.601 L75.5121,680.617 C75.3089,676.461 76.6996,675.07 81.0589,674.882 L84.0277,674.882 C92.7464,674.882 97.3871,679.226 97.3871,687.445 C97.3871,692.304 95.7152,696.164 92.5433,698.632 C89.8714,700.82 86.4964,701.601 80.3714,701.601 L75.5121,701.601 M75.5121,707.054 L82.3402,707.054 C88.5746,707.054 91.4496,707.648 94.2308,709.429 C97.6839,711.711 99.6683,716.054 99.6683,721.211 C99.6683,725.961 97.8871,730.32 95.0121,732.695 C92.5433,734.664 89.2777,735.664 84.5277,735.664 L81.5589,735.664 C75.9027,735.461 75.3089,734.867 75.5121,729.32 L75.5121,707.054 "/>
<path class="Harmony" d="M350.527,121.866 C350.496,121.881 350.449,121.881 350.386,121.881 C350.324,121.881 350.277,121.897 350.246,121.897 C350.199,121.912 350.152,121.912 350.09,121.928 C350.027,121.928 349.996,121.944 349.949,121.959 C349.902,121.975 349.871,122.006 349.824,122.022 C349.777,122.053 349.746,122.069 349.73,122.116 C349.683,122.147 349.668,122.178 349.636,122.225 C349.621,122.256 349.605,122.319 349.605,122.366 C349.605,122.397 349.605,122.428 349.605,122.475 L349.605,122.506 C349.605,122.537 349.605,122.584 349.605,122.647 C349.621,122.709 349.621,122.756 349.621,122.787 C349.621,123.366 349.636,123.928 349.652,124.475 C349.652,124.506 349.652,124.537 349.652,124.569 C349.652,124.678 349.652,124.819 349.636,124.975 C349.621,125.178 349.621,125.319 349.621,125.412 L349.621,125.444 L349.621,125.537 C349.621,125.553 349.621,125.584 349.636,125.616 C349.636,125.647 349.636,125.662 349.652,125.678 C349.668,125.694 349.683,125.709 349.715,125.725 C349.73,125.741 349.761,125.741 349.793,125.741 L349.808,125.741 C349.98,125.741 350.152,125.709 350.324,125.631 C350.511,125.569 350.668,125.491 350.824,125.381 C350.98,125.287 351.121,125.162 351.261,125.006 C351.402,124.866 351.527,124.709 351.621,124.553 C351.73,124.397 351.808,124.225 351.871,124.053 C351.949,123.881 351.98,123.709 351.98,123.537 C351.996,123.506 351.996,123.459 351.996,123.428 C351.996,123.334 351.98,123.241 351.965,123.131 C351.933,122.991 351.902,122.85 351.84,122.725 C351.793,122.6 351.715,122.475 351.621,122.366 C351.543,122.241 351.433,122.147 351.324,122.069 C351.215,121.991 351.09,121.928 350.949,121.897 C350.871,121.866 350.777,121.866 350.668,121.866 C350.621,121.866 350.574,121.866 350.527,121.866 M350.215,125.1 C350.215,124.959 350.215,124.741 350.215,124.475 C350.23,124.256 350.23,124.053 350.23,123.866 C350.23,123.819 350.23,123.787 350.23,123.741 C350.23,123.522 350.215,123.303 350.215,123.1 C350.215,123.069 350.199,123.037 350.199,122.959 C350.183,122.881 350.168,122.803 350.168,122.741 C350.152,122.709 350.152,122.678 350.152,122.647 C350.152,122.616 350.152,122.584 350.168,122.553 C350.168,122.491 350.199,122.444 350.23,122.412 C350.277,122.381 350.324,122.366 350.386,122.366 C350.402,122.366 350.402,122.366 350.418,122.366 C350.496,122.381 350.574,122.397 350.668,122.444 C350.746,122.491 350.824,122.553 350.902,122.616 C350.98,122.678 351.043,122.741 351.105,122.787 C351.168,122.85 351.199,122.897 351.23,122.944 C351.308,123.069 351.371,123.225 351.402,123.381 C351.418,123.475 351.418,123.553 351.418,123.647 C351.418,123.709 351.418,123.787 351.418,123.85 C351.386,124.006 351.34,124.147 351.277,124.303 C351.215,124.444 351.121,124.569 351.027,124.694 C350.918,124.803 350.793,124.897 350.668,124.959 C350.527,125.037 350.371,125.084 350.215,125.1"/>
<path class="Harmony" d="M366.527,34.9952 C366.058,35.089 365.293,35.1827 364.058,35.2921 C362.824,35.3858 361.871,35.5733 361.215,35.6671 C360.543,35.7608 359.59,35.8546 358.449,36.0421 C357.308,36.2296 356.465,36.5265 355.699,36.8077 C354.933,37.089 354.09,37.464 353.324,37.9483 C352.558,38.4171 351.902,38.9015 351.418,39.5577 C350.761,40.2296 350.277,40.9796 349.902,41.7452 C349.527,42.5108 349.246,43.4483 349.136,44.4015 C349.043,45.0733 349.043,45.7296 349.043,46.4015 L349.043,46.964 C349.136,47.6358 349.136,48.589 349.246,49.7296 C349.34,50.8702 349.34,51.8077 349.34,52.4796 C349.34,63.3077 349.621,73.9483 350.09,84.4952 C350.183,85.0577 350.183,85.6358 350.183,86.3077 C350.09,88.2921 349.996,90.9483 349.808,94.089 C349.527,97.7921 349.34,100.558 349.34,102.355 L349.34,102.933 L349.34,104.542 C349.34,105.011 349.527,105.495 349.621,106.058 C349.715,106.636 349.902,107.105 350.183,107.386 C350.48,107.683 350.761,107.964 351.23,108.245 C351.621,108.433 352.09,108.526 352.652,108.526 L352.949,108.526 C356.261,108.433 359.59,107.776 362.918,106.542 C366.246,105.308 369.386,103.776 372.324,101.792 C375.277,99.7921 378.027,97.4171 380.683,94.6671 C383.34,91.9015 385.621,89.0577 387.527,86.0108 C389.418,82.9796 391.043,79.839 392.277,76.5108 C393.511,73.1827 394.168,69.8702 394.371,66.7296 C394.465,66.0577 394.465,65.3077 394.465,64.6358 C394.465,62.839 394.277,60.9327 393.886,59.0421 C393.418,56.3702 392.652,53.714 391.605,51.2452 C390.558,48.7765 389.23,46.4952 387.527,44.3077 C385.808,42.1202 383.918,40.3233 381.824,38.8077 C379.73,37.2765 377.449,36.1358 374.793,35.4796 C373.09,34.9952 371.277,34.8077 369.48,34.8077 C368.527,34.8077 367.574,34.9015 366.527,34.9952 M360.636,96.3702 C360.636,93.6202 360.73,89.6202 360.824,84.4952 C360.918,80.4171 361.011,76.5108 361.011,72.9952 C361.011,72.1515 360.918,71.2921 360.918,70.4327 C360.918,66.2608 360.824,62.1671 360.636,58.3702 C360.636,57.9015 360.543,57.0421 360.355,55.6202 C360.168,54.1827 359.886,52.8546 359.777,51.6202 C359.683,51.0577 359.683,50.4796 359.683,49.9171 C359.683,49.2452 359.683,48.6827 359.777,48.0108 C359.98,46.7765 360.355,45.8233 361.011,45.3546 C361.871,44.6827 362.824,44.4015 363.871,44.4015 C364.152,44.4952 364.433,44.4952 364.73,44.4952 C366.152,44.6827 367.668,45.1671 369.277,46.0265 C370.902,46.8702 372.418,48.0108 373.84,49.1515 C375.277,50.2921 376.605,51.4327 377.652,52.5733 C378.683,53.714 379.543,54.5733 380.027,55.4327 C381.543,57.9015 382.59,60.6515 383.152,63.6827 C383.433,65.4015 383.636,67.1046 383.636,68.8233 C383.636,70.0577 383.527,71.2921 383.433,72.5265 C382.965,75.464 382.105,78.3233 380.871,81.0733 C379.636,83.8233 378.027,86.3077 376.121,88.4796 C374.136,90.6671 371.855,92.3858 369.183,93.8077 C366.527,95.2296 363.683,96.089 360.636,96.3702"/>
<path class="Harmony" d="M1348.11,51.7874 C1344.41,52.2562 1340.89,53.1155 1337.47,54.3499 C1334.05,55.5843 1330.91,57.2874 1327.88,59.2874 C1324.83,61.2874 1322.08,63.5687 1319.7,66.1312 C1317.33,68.6937 1315.33,71.6312 1313.63,74.9593 C1311.91,78.2874 1310.77,81.803 1310.11,85.5062 C1309.63,87.7874 1309.44,90.1624 1309.44,92.5374 L1309.44,93.2093 C1309.44,95.4749 1309.53,97.6624 1309.81,99.8499 C1310.11,102.225 1310.67,104.6 1311.44,106.787 C1312.3,109.069 1313.24,111.256 1314.28,113.241 C1315.33,115.241 1316.66,117.053 1318.19,118.662 C1319.7,120.272 1321.59,121.6 1323.5,122.741 C1325.41,123.881 1327.58,124.741 1329.95,125.225 C1331.58,125.506 1333.19,125.694 1334.81,125.694 C1335.66,125.694 1336.61,125.694 1337.66,125.6 C1340.59,125.319 1343.36,124.647 1345.92,123.694 C1348.49,122.741 1350.86,121.6 1352.86,120.272 C1354.84,118.944 1356.84,117.241 1358.66,115.334 C1360.45,113.444 1362.17,111.35 1363.59,109.256 C1365.02,107.162 1366.34,104.787 1367.77,102.131 C1369.95,97.7562 1371,94.053 1371,91.1155 C1371,88.1624 1369.95,85.8812 1367.77,84.2718 C1366.53,83.2249 1364.45,82.5687 1361.69,82.0843 C1359.7,81.803 1357.7,81.6155 1355.7,81.6155 L1355.24,81.6155 L1353.14,81.6155 C1350.2,81.7093 1347.44,82.178 1344.78,83.0374 C1342.13,83.8968 1340.31,84.9437 1339.36,86.178 C1339.08,86.6468 1338.8,87.0218 1338.52,87.4124 C1337.84,88.4593 1337.47,89.3968 1337.47,90.2562 C1337.47,91.4905 1338.33,92.3499 1339.94,92.8187 C1341.27,93.2093 1343.83,93.3968 1347.53,93.3968 L1348.39,93.3968 C1349.63,93.4905 1350.58,93.4905 1351.24,93.4905 C1355.14,93.4905 1357.52,93.9593 1358.27,95.0062 C1358.56,95.3812 1358.84,95.9593 1358.84,96.5218 C1358.84,97.0999 1358.75,97.6624 1358.66,98.2405 C1358.56,98.803 1358.27,99.4749 1357.99,100.225 C1357.7,100.991 1357.42,101.569 1357.13,102.037 C1356.84,102.506 1356.56,103.178 1356.19,103.944 C1355.8,104.694 1355.52,105.084 1355.42,105.272 C1354.95,106.116 1354.66,106.787 1354.38,107.256 C1354.09,107.741 1353.7,108.209 1353.24,108.881 C1352.77,109.537 1352.19,110.116 1351.72,110.491 C1349.72,112.006 1347.53,113.053 1344.97,113.537 L1341.74,113.912 L1341.36,113.912 C1340.13,113.819 1338.8,113.725 1337.56,113.444 C1335.19,112.959 1332.81,112.1 1330.63,110.772 C1328.44,109.444 1326.55,107.834 1325.11,105.928 C1323.69,103.944 1322.36,101.569 1321.41,98.8968 C1320.45,96.2405 1319.89,93.4905 1319.7,90.5374 C1319.61,89.4905 1319.61,88.553 1319.61,87.5062 C1319.61,85.5999 1319.7,83.7093 1319.99,81.8968 C1320.45,79.1468 1321.31,76.4749 1322.64,74.0062 C1323.97,71.5374 1325.69,69.553 1327.78,68.0218 C1330.34,66.0374 1333.47,64.5999 1337.08,63.6624 C1339.08,63.0843 1341.08,62.803 1342.97,62.803 C1344.31,62.803 1345.64,62.9905 1346.88,63.2718 C1347.92,63.5687 1348.95,63.9437 1350.2,64.5062 C1351.44,65.0843 1352.47,65.6468 1353.42,66.2249 C1354.38,66.7874 1355.42,67.3655 1356.47,67.928 C1357.52,68.5062 1358.56,68.9749 1359.5,69.1624 C1360.45,69.3499 1361.41,69.4593 1362.36,69.3499 C1363.31,69.2562 1364.25,68.7874 1365.2,67.928 C1366.16,67.0843 1367.02,65.9437 1367.86,64.5062 C1368.34,63.6624 1368.63,62.803 1368.63,61.9437 C1368.63,61.2874 1368.44,60.7093 1368.16,60.053 C1367.39,58.6155 1366.16,57.3812 1364.45,56.3343 C1362.74,55.303 1360.94,54.3499 1358.84,53.5843 C1356.75,52.8187 1354.75,52.3499 1352.77,52.0687 C1351.33,51.7874 1350.2,51.6937 1349.25,51.6937 C1348.77,51.6937 1348.39,51.6937 1348.11,51.7874"/>
<path class="Harmony" d="M1685.46,51.3968 C1684.99,51.4905 1684.23,51.5843 1682.99,51.6937 C1681.76,51.7874 1680.81,51.9749 1680.15,52.0687 C1679.48,52.1624 1678.52,52.2562 1677.38,52.4437 C1676.24,52.6312 1675.4,52.928 1674.63,53.2093 C1673.87,53.4905 1673.02,53.8655 1672.26,54.3499 C1671.49,54.8187 1670.84,55.303 1670.35,55.9593 C1669.7,56.6312 1669.21,57.3812 1668.84,58.1468 C1668.46,58.9124 1668.18,59.8499 1668.07,60.803 C1667.98,61.4749 1667.98,62.1312 1667.98,62.803 L1667.98,63.3655 C1668.07,64.0374 1668.07,64.9905 1668.18,66.1312 C1668.27,67.2718 1668.27,68.2093 1668.27,68.8812 C1668.27,79.7093 1668.56,90.3499 1669.02,100.897 C1669.12,101.459 1669.12,102.037 1669.12,102.709 C1669.02,104.694 1668.93,107.35 1668.74,110.491 C1668.46,114.194 1668.27,116.959 1668.27,118.756 L1668.27,119.334 L1668.27,120.944 C1668.27,121.412 1668.46,121.897 1668.56,122.459 C1668.65,123.037 1668.84,123.506 1669.12,123.787 C1669.41,124.084 1669.7,124.366 1670.16,124.647 C1670.56,124.834 1671.02,124.928 1671.59,124.928 L1671.88,124.928 C1675.2,124.834 1678.52,124.178 1681.85,122.944 C1685.18,121.709 1688.32,120.178 1691.26,118.194 C1694.21,116.194 1696.96,113.819 1699.62,111.069 C1702.27,108.303 1704.56,105.459 1706.46,102.412 C1708.35,99.3812 1709.98,96.2405 1711.21,92.9124 C1712.45,89.5843 1713.1,86.2718 1713.31,83.1312 C1713.4,82.4593 1713.4,81.7093 1713.4,81.0374 C1713.4,79.2405 1713.21,77.3343 1712.82,75.4437 C1712.35,72.7718 1711.59,70.1155 1710.54,67.6468 C1709.49,65.178 1708.16,62.8968 1706.46,60.7093 C1704.74,58.5218 1702.85,56.7249 1700.76,55.2093 C1698.66,53.678 1696.38,52.5374 1693.73,51.8812 C1692.02,51.3968 1690.21,51.2093 1688.41,51.2093 C1687.46,51.2093 1686.51,51.303 1685.46,51.3968 M1679.57,112.772 C1679.57,110.022 1679.66,106.022 1679.76,100.897 C1679.85,96.8187 1679.95,92.9124 1679.95,89.3968 C1679.95,88.553 1679.85,87.6937 1679.85,86.8343 C1679.85,82.6624 1679.76,78.5687 1679.57,74.7718 C1679.57,74.303 1679.48,73.4437 1679.29,72.0218 C1679.1,70.5843 1678.82,69.2562 1678.71,68.0218 C1678.62,67.4593 1678.62,66.8812 1678.62,66.3187 C1678.62,65.6468 1678.62,65.0843 1678.71,64.4124 C1678.91,63.178 1679.29,62.2249 1679.95,61.7562 C1680.81,61.0843 1681.76,60.803 1682.81,60.803 C1683.09,60.8968 1683.37,60.8968 1683.66,60.8968 C1685.09,61.0843 1686.6,61.5687 1688.21,62.428 C1689.84,63.2718 1691.35,64.4124 1692.77,65.553 C1694.21,66.6937 1695.54,67.8343 1696.59,68.9749 C1697.62,70.1155 1698.48,70.9749 1698.96,71.8343 C1700.48,74.303 1701.52,77.053 1702.09,80.0843 C1702.37,81.803 1702.57,83.5062 1702.57,85.2249 C1702.57,86.4593 1702.46,87.6937 1702.37,88.928 C1701.9,91.8655 1701.04,94.7249 1699.81,97.4749 C1698.57,100.225 1696.96,102.709 1695.06,104.881 C1693.07,107.069 1690.79,108.787 1688.12,110.209 C1685.46,111.631 1682.62,112.491 1679.57,112.772"/>
<path class="Harmony" d="M2344.93,51.3968 C2344.46,51.4905 2343.69,51.5843 2342.46,51.6937 C2341.23,51.7874 2340.27,51.9749 2339.62,52.0687 C2338.94,52.1624 2337.99,52.2562 2336.85,52.4437 C2335.71,52.6312 2334.87,52.928 2334.1,53.2093 C2333.33,53.4905 2332.49,53.8655 2331.73,54.3499 C2330.96,54.8187 2330.3,55.303 2329.82,55.9593 C2329.16,56.6312 2328.68,57.3812 2328.3,58.1468 C2327.93,58.9124 2327.65,59.8499 2327.54,60.803 C2327.44,61.4749 2327.44,62.1312 2327.44,62.803 L2327.44,63.3655 C2327.54,64.0374 2327.54,64.9905 2327.65,66.1312 C2327.74,67.2718 2327.74,68.2093 2327.74,68.8812 C2327.74,79.7093 2328.02,90.3499 2328.49,100.897 C2328.58,101.459 2328.58,102.037 2328.58,102.709 C2328.49,104.694 2328.4,107.35 2328.21,110.491 C2327.93,114.194 2327.74,116.959 2327.74,118.756 L2327.74,119.334 L2327.74,120.944 C2327.74,121.412 2327.93,121.897 2328.02,122.459 C2328.12,123.037 2328.3,123.506 2328.58,123.787 C2328.88,124.084 2329.16,124.366 2329.63,124.647 C2330.02,124.834 2330.49,124.928 2331.05,124.928 L2331.35,124.928 C2334.66,124.834 2337.99,124.178 2341.32,122.944 C2344.65,121.709 2347.79,120.178 2350.73,118.194 C2353.68,116.194 2356.43,113.819 2359.08,111.069 C2361.74,108.303 2364.02,105.459 2365.93,102.412 C2367.82,99.3812 2369.44,96.2405 2370.68,92.9124 C2371.91,89.5843 2372.57,86.2718 2372.77,83.1312 C2372.87,82.4593 2372.87,81.7093 2372.87,81.0374 C2372.87,79.2405 2372.68,77.3343 2372.29,75.4437 C2371.82,72.7718 2371.05,70.1155 2370.01,67.6468 C2368.96,65.178 2367.63,62.8968 2365.93,60.7093 C2364.21,58.5218 2362.32,56.7249 2360.23,55.2093 C2358.13,53.678 2355.85,52.5374 2353.19,51.8812 C2351.49,51.3968 2349.68,51.2093 2347.88,51.2093 C2346.93,51.2093 2345.98,51.303 2344.93,51.3968 M2339.04,112.772 C2339.04,110.022 2339.13,106.022 2339.23,100.897 C2339.32,96.8187 2339.41,92.9124 2339.41,89.3968 C2339.41,88.553 2339.32,87.6937 2339.32,86.8343 C2339.32,82.6624 2339.23,78.5687 2339.04,74.7718 C2339.04,74.303 2338.94,73.4437 2338.76,72.0218 C2338.57,70.5843 2338.29,69.2562 2338.18,68.0218 C2338.08,67.4593 2338.08,66.8812 2338.08,66.3187 C2338.08,65.6468 2338.08,65.0843 2338.18,64.4124 C2338.38,63.178 2338.76,62.2249 2339.41,61.7562 C2340.27,61.0843 2341.23,60.803 2342.27,60.803 C2342.55,60.8968 2342.83,60.8968 2343.13,60.8968 C2344.55,61.0843 2346.07,61.5687 2347.68,62.428 C2349.3,63.2718 2350.82,64.4124 2352.24,65.553 C2353.68,66.6937 2355.01,67.8343 2356.05,68.9749 C2357.08,70.1155 2357.94,70.9749 2358.43,71.8343 C2359.94,74.303 2360.99,77.053 2361.55,80.0843 C2361.83,81.803 2362.04,83.5062 2362.04,85.2249 C2362.04,86.4593 2361.93,87.6937 2361.83,88.928 C2361.37,91.8655 2360.51,94.7249 2359.27,97.4749 C2358.04,100.225 2356.43,102.709 2354.52,104.881 C2352.54,107.069 2350.26,108.787 2347.58,110.209 C2344.93,111.631 2342.08,112.491 2339.04,112.772"/>
<path class="Harmony" d="M187.627,361.436 C187.158,361.53 186.392,361.624 185.158,361.733 C183.923,361.827 182.97,362.014 182.314,362.108 C181.642,362.202 180.689,362.296 179.548,362.483 C178.408,362.671 177.564,362.967 176.798,363.249 C176.033,363.53 175.189,363.905 174.423,364.389 C173.658,364.858 173.002,365.342 172.517,365.999 C171.861,366.671 171.377,367.421 171.002,368.186 C170.627,368.952 170.345,369.889 170.236,370.842 C170.142,371.514 170.142,372.171 170.142,372.842 L170.142,373.405 C170.236,374.077 170.236,375.03 170.345,376.171 C170.439,377.311 170.439,378.249 170.439,378.921 C170.439,389.749 170.72,400.389 171.189,410.936 C171.283,411.499 171.283,412.077 171.283,412.749 C171.189,414.733 171.095,417.389 170.908,420.53 C170.627,424.233 170.439,426.999 170.439,428.796 L170.439,429.374 L170.439,430.983 C170.439,431.452 170.627,431.936 170.72,432.499 C170.814,433.077 171.002,433.546 171.283,433.827 C171.58,434.124 171.861,434.405 172.33,434.686 C172.72,434.874 173.189,434.967 173.752,434.967 L174.048,434.967 C177.361,434.874 180.689,434.217 184.017,432.983 C187.345,431.749 190.486,430.217 193.423,428.233 C196.377,426.233 199.127,423.858 201.783,421.108 C204.439,418.342 206.72,415.499 208.627,412.452 C210.517,409.421 212.142,406.28 213.377,402.952 C214.611,399.624 215.267,396.311 215.47,393.171 C215.564,392.499 215.564,391.749 215.564,391.077 C215.564,389.28 215.377,387.374 214.986,385.483 C214.517,382.811 213.752,380.155 212.705,377.686 C211.658,375.217 210.33,372.936 208.627,370.749 C206.908,368.561 205.017,366.764 202.923,365.249 C200.83,363.717 198.548,362.577 195.892,361.921 C194.189,361.436 192.377,361.249 190.58,361.249 C189.627,361.249 188.673,361.342 187.627,361.436 M181.736,422.811 C181.736,420.061 181.83,416.061 181.923,410.936 C182.017,406.858 182.111,402.952 182.111,399.436 C182.111,398.592 182.017,397.733 182.017,396.874 C182.017,392.702 181.923,388.608 181.736,384.811 C181.736,384.342 181.642,383.483 181.455,382.061 C181.267,380.624 180.986,379.296 180.877,378.061 C180.783,377.499 180.783,376.921 180.783,376.358 C180.783,375.686 180.783,375.124 180.877,374.452 C181.08,373.217 181.455,372.264 182.111,371.796 C182.97,371.124 183.923,370.842 184.97,370.842 C185.252,370.936 185.533,370.936 185.83,370.936 C187.252,371.124 188.767,371.608 190.377,372.467 C192.002,373.311 193.517,374.452 194.939,375.592 C196.377,376.733 197.705,377.874 198.752,379.014 C199.783,380.155 200.642,381.014 201.127,381.874 C202.642,384.342 203.689,387.092 204.252,390.124 C204.533,391.842 204.736,393.546 204.736,395.264 C204.736,396.499 204.627,397.733 204.533,398.967 C204.064,401.905 203.205,404.764 201.97,407.514 C200.736,410.264 199.127,412.749 197.22,414.921 C195.236,417.108 192.955,418.827 190.283,420.249 C187.627,421.671 184.783,422.53 181.736,422.811"/>
<path class="Harmony" d="M881.249,361.436 C880.78,361.53 880.014,361.624 878.78,361.733 C877.546,361.827 876.593,362.014 875.936,362.108 C875.264,362.202 874.311,362.296 873.171,362.483 C872.03,362.671 871.186,362.967 870.421,363.249 C869.655,363.53 868.811,363.905 868.046,364.389 C867.28,364.858 866.624,365.342 866.139,365.999 C865.483,366.671 864.999,367.421 864.624,368.186 C864.249,368.952 863.968,369.889 863.858,370.842 C863.764,371.514 863.764,372.171 863.764,372.842 L863.764,373.405 C863.858,374.077 863.858,375.03 863.968,376.171 C864.061,377.311 864.061,378.249 864.061,378.921 C864.061,389.749 864.343,400.389 864.811,410.936 C864.905,411.499 864.905,412.077 864.905,412.749 C864.811,414.733 864.718,417.389 864.53,420.53 C864.249,424.233 864.061,426.999 864.061,428.796 L864.061,429.374 L864.061,430.983 C864.061,431.452 864.249,431.936 864.343,432.499 C864.436,433.077 864.624,433.546 864.905,433.827 C865.202,434.124 865.483,434.405 865.952,434.686 C866.343,434.874 866.811,434.967 867.374,434.967 L867.671,434.967 C870.983,434.874 874.311,434.217 877.639,432.983 C880.968,431.749 884.108,430.217 887.046,428.233 C889.999,426.233 892.749,423.858 895.405,421.108 C898.061,418.342 900.343,415.499 902.249,412.452 C904.139,409.421 905.764,406.28 906.999,402.952 C908.233,399.624 908.889,396.311 909.093,393.171 C909.186,392.499 909.186,391.749 909.186,391.077 C909.186,389.28 908.999,387.374 908.608,385.483 C908.139,382.811 907.374,380.155 906.327,377.686 C905.28,375.217 903.952,372.936 902.249,370.749 C900.53,368.561 898.639,366.764 896.546,365.249 C894.452,363.717 892.171,362.577 889.514,361.921 C887.811,361.436 885.999,361.249 884.202,361.249 C883.249,361.249 882.296,361.342 881.249,361.436 M875.358,422.811 C875.358,420.061 875.452,416.061 875.546,410.936 C875.639,406.858 875.733,402.952 875.733,399.436 C875.733,398.592 875.639,397.733 875.639,396.874 C875.639,392.702 875.546,388.608 875.358,384.811 C875.358,384.342 875.264,383.483 875.077,382.061 C874.889,380.624 874.608,379.296 874.499,378.061 C874.405,377.499 874.405,376.921 874.405,376.358 C874.405,375.686 874.405,375.124 874.499,374.452 C874.702,373.217 875.077,372.264 875.733,371.796 C876.593,371.124 877.546,370.842 878.593,370.842 C878.874,370.936 879.155,370.936 879.452,370.936 C880.874,371.124 882.389,371.608 883.999,372.467 C885.624,373.311 887.139,374.452 888.561,375.592 C889.999,376.733 891.327,377.874 892.374,379.014 C893.405,380.155 894.264,381.014 894.749,381.874 C896.264,384.342 897.311,387.092 897.874,390.124 C898.155,391.842 898.358,393.546 898.358,395.264 C898.358,396.499 898.249,397.733 898.155,398.967 C897.686,401.905 896.827,404.764 895.593,407.514 C894.358,410.264 892.749,412.749 890.843,414.921 C888.858,417.108 886.577,418.827 883.905,420.249 C881.249,421.671 878.405,422.53 875.358,422.811"/>
<path class="Harmony" d="M1574.87,361.436 C1574.4,361.53 1573.64,361.624 1572.4,361.733 C1571.17,361.827 1570.21,362.014 1569.56,362.108 C1568.89,362.202 1567.93,362.296 1566.79,362.483 C1565.65,362.671 1564.81,362.967 1564.04,363.249 C1563.28,363.53 1562.43,363.905 1561.67,364.389 C1560.9,364.858 1560.25,365.342 1559.76,365.999 C1559.11,366.671 1558.62,367.421 1558.25,368.186 C1557.87,368.952 1557.59,369.889 1557.48,370.842 C1557.39,371.514 1557.39,372.171 1557.39,372.842 L1557.39,373.405 C1557.48,374.077 1557.48,375.03 1557.59,376.171 C1557.68,377.311 1557.68,378.249 1557.68,378.921 C1557.68,389.749 1557.96,400.389 1558.43,410.936 C1558.53,411.499 1558.53,412.077 1558.53,412.749 C1558.43,414.733 1558.34,417.389 1558.15,420.53 C1557.87,424.233 1557.68,426.999 1557.68,428.796 L1557.68,429.374 L1557.68,430.983 C1557.68,431.452 1557.87,431.936 1557.96,432.499 C1558.06,433.077 1558.25,433.546 1558.53,433.827 C1558.82,434.124 1559.11,434.405 1559.57,434.686 C1559.96,434.874 1560.43,434.967 1561,434.967 L1561.29,434.967 C1564.61,434.874 1567.93,434.217 1571.26,432.983 C1574.59,431.749 1577.73,430.217 1580.67,428.233 C1583.62,426.233 1586.37,423.858 1589.03,421.108 C1591.68,418.342 1593.96,415.499 1595.87,412.452 C1597.76,409.421 1599.39,406.28 1600.62,402.952 C1601.86,399.624 1602.51,396.311 1602.71,393.171 C1602.81,392.499 1602.81,391.749 1602.81,391.077 C1602.81,389.28 1602.62,387.374 1602.23,385.483 C1601.76,382.811 1601,380.155 1599.95,377.686 C1598.9,375.217 1597.57,372.936 1595.87,370.749 C1594.15,368.561 1592.26,366.764 1590.17,365.249 C1588.07,363.717 1585.79,362.577 1583.14,361.921 C1581.43,361.436 1579.62,361.249 1577.82,361.249 C1576.87,361.249 1575.92,361.342 1574.87,361.436 M1568.98,422.811 C1568.98,420.061 1569.07,416.061 1569.17,410.936 C1569.26,406.858 1569.36,402.952 1569.36,399.436 C1569.36,398.592 1569.26,397.733 1569.26,396.874 C1569.26,392.702 1569.17,388.608 1568.98,384.811 C1568.98,384.342 1568.89,383.483 1568.7,382.061 C1568.51,380.624 1568.23,379.296 1568.12,378.061 C1568.03,377.499 1568.03,376.921 1568.03,376.358 C1568.03,375.686 1568.03,375.124 1568.12,374.452 C1568.32,373.217 1568.7,372.264 1569.36,371.796 C1570.21,371.124 1571.17,370.842 1572.21,370.842 C1572.5,370.936 1572.78,370.936 1573.07,370.936 C1574.5,371.124 1576.01,371.608 1577.62,372.467 C1579.25,373.311 1580.76,374.452 1582.18,375.592 C1583.62,376.733 1584.95,377.874 1586,379.014 C1587.03,380.155 1587.89,381.014 1588.37,381.874 C1589.89,384.342 1590.93,387.092 1591.5,390.124 C1591.78,391.842 1591.98,393.546 1591.98,395.264 C1591.98,396.499 1591.87,397.733 1591.78,398.967 C1591.31,401.905 1590.45,404.764 1589.21,407.514 C1587.98,410.264 1586.37,412.749 1584.46,414.921 C1582.48,417.108 1580.2,418.827 1577.53,420.249 C1574.87,421.671 1572.03,422.53 1568.98,422.811"/>
<path class="Harmony" d="M2268.49,361.436 C2268.02,361.53 2267.26,361.624 2266.02,361.733 C2264.79,361.827 2263.84,362.014 2263.18,362.108 C2262.51,362.202 2261.56,362.296 2260.42,362.483 C2259.27,362.671 2258.43,362.967 2257.67,363.249 C2256.9,363.53 2256.06,363.905 2255.29,364.389 C2254.52,364.858 2253.87,365.342 2253.38,365.999 C2252.73,366.671 2252.24,367.421 2251.87,368.186 C2251.49,368.952 2251.21,369.889 2251.1,370.842 C2251.01,371.514 2251.01,372.171 2251.01,372.842 L2251.01,373.405 C2251.1,374.077 2251.1,375.03 2251.21,376.171 C2251.31,377.311 2251.31,378.249 2251.31,378.921 C2251.31,389.749 2251.59,400.389 2252.06,410.936 C2252.15,411.499 2252.15,412.077 2252.15,412.749 C2252.06,414.733 2251.96,417.389 2251.77,420.53 C2251.49,424.233 2251.31,426.999 2251.31,428.796 L2251.31,429.374 L2251.31,430.983 C2251.31,431.452 2251.49,431.936 2251.59,432.499 C2251.68,433.077 2251.87,433.546 2252.15,433.827 C2252.45,434.124 2252.73,434.405 2253.2,434.686 C2253.59,434.874 2254.06,434.967 2254.62,434.967 L2254.92,434.967 C2258.23,434.874 2261.56,434.217 2264.88,432.983 C2268.21,431.749 2271.35,430.217 2274.29,428.233 C2277.24,426.233 2279.99,423.858 2282.65,421.108 C2285.31,418.342 2287.59,415.499 2289.49,412.452 C2291.38,409.421 2293.01,406.28 2294.24,402.952 C2295.48,399.624 2296.13,396.311 2296.34,393.171 C2296.43,392.499 2296.43,391.749 2296.43,391.077 C2296.43,389.28 2296.24,387.374 2295.85,385.483 C2295.38,382.811 2294.62,380.155 2293.57,377.686 C2292.52,375.217 2291.2,372.936 2289.49,370.749 C2287.77,368.561 2285.88,366.764 2283.79,365.249 C2281.7,363.717 2279.42,362.577 2276.76,361.921 C2275.06,361.436 2273.24,361.249 2271.45,361.249 C2270.49,361.249 2269.54,361.342 2268.49,361.436 M2262.6,422.811 C2262.6,420.061 2262.7,416.061 2262.79,410.936 C2262.88,406.858 2262.98,402.952 2262.98,399.436 C2262.98,398.592 2262.88,397.733 2262.88,396.874 C2262.88,392.702 2262.79,388.608 2262.6,384.811 C2262.6,384.342 2262.51,383.483 2262.32,382.061 C2262.13,380.624 2261.85,379.296 2261.74,378.061 C2261.65,377.499 2261.65,376.921 2261.65,376.358 C2261.65,375.686 2261.65,375.124 2261.74,374.452 C2261.95,373.217 2262.32,372.264 2262.98,371.796 C2263.84,371.124 2264.79,370.842 2265.84,370.842 C2266.12,370.936 2266.4,370.936 2266.7,370.936 C2268.12,371.124 2269.63,371.608 2271.24,372.467 C2272.87,373.311 2274.38,374.452 2275.81,375.592 C2277.24,376.733 2278.57,377.874 2279.62,379.014 C2280.65,380.155 2281.51,381.014 2281.99,381.874 C2283.51,384.342 2284.56,387.092 2285.12,390.124 C2285.4,391.842 2285.6,393.546 2285.6,395.264 C2285.6,396.499 2285.49,397.733 2285.4,398.967 C2284.93,401.905 2284.07,404.764 2282.84,407.514 C2281.6,410.264 2279.99,412.749 2278.09,414.921 C2276.1,417.108 2273.82,418.827 2271.15,420.249 C2268.49,421.671 2265.65,422.53 2262.6,422.811"/>
<path class="Harmony" d="M187.627,679.018 C187.158,679.112 186.392,679.206 185.158,679.315 C183.923,679.409 182.97,679.596 182.314,679.69 C181.642,679.784 180.689,679.878 179.548,680.065 C178.408,680.253 177.564,680.55 176.798,680.831 C176.033,681.112 175.189,681.487 174.423,681.971 C173.658,682.44 173.002,682.925 172.517,683.581 C171.861,684.253 171.377,685.003 171.002,685.768 C170.627,686.534 170.345,687.471 170.236,688.425 C170.142,689.096 170.142,689.753 170.142,690.425 L170.142,690.987 C170.236,691.659 170.236,692.612 170.345,693.753 C170.439,694.893 170.439,695.831 170.439,696.503 C170.439,707.331 170.72,717.971 171.189,728.518 C171.283,729.081 171.283,729.659 171.283,730.331 C171.189,732.315 171.095,734.971 170.908,738.112 C170.627,741.815 170.439,744.581 170.439,746.378 L170.439,746.956 L170.439,748.565 C170.439,749.034 170.627,749.518 170.72,750.081 C170.814,750.659 171.002,751.128 171.283,751.409 C171.58,751.706 171.861,751.987 172.33,752.268 C172.72,752.456 173.189,752.55 173.752,752.55 L174.048,752.55 C177.361,752.456 180.689,751.8 184.017,750.565 C187.345,749.331 190.486,747.8 193.423,745.815 C196.377,743.815 199.127,741.44 201.783,738.69 C204.439,735.925 206.72,733.081 208.627,730.034 C210.517,727.003 212.142,723.862 213.377,720.534 C214.611,717.206 215.267,713.893 215.47,710.753 C215.564,710.081 215.564,709.331 215.564,708.659 C215.564,706.862 215.377,704.956 214.986,703.065 C214.517,700.393 213.752,697.737 212.705,695.268 C211.658,692.8 210.33,690.518 208.627,688.331 C206.908,686.143 205.017,684.346 202.923,682.831 C200.83,681.3 198.548,680.159 195.892,679.503 C194.189,679.018 192.377,678.831 190.58,678.831 C189.627,678.831 188.673,678.925 187.627,679.018 M181.736,740.393 C181.736,737.643 181.83,733.643 181.923,728.518 C182.017,724.44 182.111,720.534 182.111,717.018 C182.111,716.175 182.017,715.315 182.017,714.456 C182.017,710.284 181.923,706.19 181.736,702.393 C181.736,701.925 181.642,701.065 181.455,699.643 C181.267,698.206 180.986,696.878 180.877,695.643 C180.783,695.081 180.783,694.503 180.783,693.94 C180.783,693.268 180.783,692.706 180.877,692.034 C181.08,690.8 181.455,689.846 182.111,689.378 C182.97,688.706 183.923,688.425 184.97,688.425 C185.252,688.518 185.533,688.518 185.83,688.518 C187.252,688.706 188.767,689.19 190.377,690.05 C192.002,690.893 193.517,692.034 194.939,693.175 C196.377,694.315 197.705,695.456 198.752,696.596 C199.783,697.737 200.642,698.596 201.127,699.456 C202.642,701.925 203.689,704.675 204.252,707.706 C204.533,709.425 204.736,711.128 204.736,712.846 C204.736,714.081 204.627,715.315 204.533,716.55 C204.064,719.487 203.205,722.346 201.97,725.096 C200.736,727.846 199.127,730.331 197.22,732.503 C195.236,734.69 192.955,736.409 190.283,737.831 C187.627,739.253 184.783,740.112 181.736,740.393"/>
<path class="Harmony" d="M891.819,679.018 C891.35,679.112 890.584,679.206 889.35,679.315 C888.116,679.409 887.163,679.596 886.506,679.69 C885.834,679.784 884.881,679.878 883.741,680.065 C882.6,680.253 881.756,680.55 880.991,680.831 C880.225,681.112 879.381,681.487 878.616,681.971 C877.85,682.44 877.194,682.925 876.709,683.581 C876.053,684.253 875.569,685.003 875.194,685.768 C874.819,686.534 874.538,687.471 874.428,688.425 C874.334,689.096 874.334,689.753 874.334,690.425 L874.334,690.987 C874.428,691.659 874.428,692.612 874.538,693.753 C874.631,694.893 874.631,695.831 874.631,696.503 C874.631,707.331 874.913,717.971 875.381,728.518 C875.475,729.081 875.475,729.659 875.475,730.331 C875.381,732.315 875.288,734.971 875.1,738.112 C874.819,741.815 874.631,744.581 874.631,746.378 L874.631,746.956 L874.631,748.565 C874.631,749.034 874.819,749.518 874.913,750.081 C875.006,750.659 875.194,751.128 875.475,751.409 C875.772,751.706 876.053,751.987 876.522,752.268 C876.913,752.456 877.381,752.55 877.944,752.55 L878.241,752.55 C881.553,752.456 884.881,751.8 888.209,750.565 C891.538,749.331 894.678,747.8 897.616,745.815 C900.569,743.815 903.319,741.44 905.975,738.69 C908.631,735.925 910.913,733.081 912.819,730.034 C914.709,727.003 916.334,723.862 917.569,720.534 C918.803,717.206 919.459,713.893 919.663,710.753 C919.756,710.081 919.756,709.331 919.756,708.659 C919.756,706.862 919.569,704.956 919.178,703.065 C918.709,700.393 917.944,697.737 916.897,695.268 C915.85,692.8 914.522,690.518 912.819,688.331 C911.1,686.143 909.209,684.346 907.116,682.831 C905.022,681.3 902.741,680.159 900.084,679.503 C898.381,679.018 896.569,678.831 894.772,678.831 C893.819,678.831 892.866,678.925 891.819,679.018 M885.928,740.393 C885.928,737.643 886.022,733.643 886.116,728.518 C886.209,724.44 886.303,720.534 886.303,717.018 C886.303,716.175 886.209,715.315 886.209,714.456 C886.209,710.284 886.116,706.19 885.928,702.393 C885.928,701.925 885.834,701.065 885.647,699.643 C885.459,698.206 885.178,696.878 885.069,695.643 C884.975,695.081 884.975,694.503 884.975,693.94 C884.975,693.268 884.975,692.706 885.069,692.034 C885.272,690.8 885.647,689.846 886.303,689.378 C887.163,688.706 888.116,688.425 889.163,688.425 C889.444,688.518 889.725,688.518 890.022,688.518 C891.444,688.706 892.959,689.19 894.569,690.05 C896.194,690.893 897.709,692.034 899.131,693.175 C900.569,694.315 901.897,695.456 902.944,696.596 C903.975,697.737 904.834,698.596 905.319,699.456 C906.834,701.925 907.881,704.675 908.444,707.706 C908.725,709.425 908.928,711.128 908.928,712.846 C908.928,714.081 908.819,715.315 908.725,716.55 C908.256,719.487 907.397,722.346 906.163,725.096 C904.928,727.846 903.319,730.331 901.413,732.503 C899.428,734.69 897.147,736.409 894.475,737.831 C891.819,739.253 888.975,740.112 885.928,740.393"/>
<path class="Harmony" d="M1236.3,679.409 C1232.59,679.878 1229.08,680.737 1225.66,681.971 C1222.24,683.206 1219.09,684.909 1216.06,686.909 C1213.02,688.909 1210.27,691.19 1207.89,693.753 C1205.52,696.315 1203.52,699.253 1201.81,702.581 C1200.09,705.909 1198.95,709.425 1198.3,713.128 C1197.81,715.409 1197.63,717.784 1197.63,720.159 L1197.63,720.831 C1197.63,723.096 1197.72,725.284 1198,727.471 C1198.3,729.846 1198.86,732.221 1199.63,734.409 C1200.49,736.69 1201.42,738.878 1202.47,740.862 C1203.52,742.862 1204.84,744.675 1206.38,746.284 C1207.89,747.893 1209.78,749.221 1211.69,750.362 C1213.59,751.503 1215.77,752.362 1218.14,752.846 C1219.77,753.128 1221.38,753.315 1223,753.315 C1223.84,753.315 1224.8,753.315 1225.84,753.221 C1228.78,752.94 1231.55,752.268 1234.11,751.315 C1236.67,750.362 1239.05,749.221 1241.05,747.893 C1243.03,746.565 1245.03,744.862 1246.84,742.956 C1248.64,741.065 1250.36,738.971 1251.78,736.878 C1253.2,734.784 1254.53,732.409 1255.95,729.753 C1258.14,725.378 1259.19,721.675 1259.19,718.737 C1259.19,715.784 1258.14,713.503 1255.95,711.893 C1254.72,710.846 1252.64,710.19 1249.88,709.706 C1247.89,709.425 1245.89,709.237 1243.89,709.237 L1243.42,709.237 L1241.33,709.237 C1238.39,709.331 1235.63,709.8 1232.97,710.659 C1230.31,711.518 1228.5,712.565 1227.55,713.8 C1227.27,714.268 1226.99,714.643 1226.7,715.034 C1226.03,716.081 1225.66,717.018 1225.66,717.878 C1225.66,719.112 1226.52,719.971 1228.13,720.44 C1229.45,720.831 1232.02,721.018 1235.72,721.018 L1236.58,721.018 C1237.81,721.112 1238.77,721.112 1239.42,721.112 C1243.33,721.112 1245.7,721.581 1246.45,722.628 C1246.75,723.003 1247.03,723.581 1247.03,724.143 C1247.03,724.721 1246.94,725.284 1246.84,725.862 C1246.75,726.425 1246.45,727.096 1246.17,727.846 C1245.89,728.612 1245.61,729.19 1245.31,729.659 C1245.03,730.128 1244.75,730.8 1244.38,731.565 C1243.99,732.315 1243.7,732.706 1243.61,732.893 C1243.14,733.737 1242.84,734.409 1242.56,734.878 C1242.28,735.362 1241.89,735.831 1241.42,736.503 C1240.95,737.159 1240.38,737.737 1239.91,738.112 C1237.91,739.628 1235.72,740.675 1233.16,741.159 L1229.92,741.534 L1229.55,741.534 C1228.31,741.44 1226.99,741.346 1225.75,741.065 C1223.38,740.581 1221,739.721 1218.81,738.393 C1216.63,737.065 1214.74,735.456 1213.3,733.55 C1211.88,731.565 1210.55,729.19 1209.59,726.518 C1208.64,723.862 1208.08,721.112 1207.89,718.159 C1207.8,717.112 1207.8,716.175 1207.8,715.128 C1207.8,713.221 1207.89,711.331 1208.17,709.518 C1208.64,706.768 1209.5,704.096 1210.83,701.628 C1212.16,699.159 1213.88,697.175 1215.97,695.643 C1218.53,693.659 1221.66,692.221 1225.27,691.284 C1227.27,690.706 1229.27,690.425 1231.16,690.425 C1232.5,690.425 1233.83,690.612 1235.06,690.893 C1236.11,691.19 1237.14,691.565 1238.39,692.128 C1239.63,692.706 1240.66,693.268 1241.61,693.846 C1242.56,694.409 1243.61,694.987 1244.66,695.55 C1245.7,696.128 1246.75,696.596 1247.69,696.784 C1248.64,696.971 1249.59,697.081 1250.55,696.971 C1251.5,696.878 1252.44,696.409 1253.39,695.55 C1254.34,694.706 1255.2,693.565 1256.05,692.128 C1256.53,691.284 1256.81,690.425 1256.81,689.565 C1256.81,688.909 1256.63,688.331 1256.34,687.675 C1255.58,686.237 1254.34,685.003 1252.64,683.956 C1250.92,682.925 1249.13,681.971 1247.03,681.206 C1244.94,680.44 1242.94,679.971 1240.95,679.69 C1239.52,679.409 1238.39,679.315 1237.44,679.315 C1236.95,679.315 1236.58,679.315 1236.3,679.409"/>
<path class="Harmony" d="M1596.01,679.018 C1595.54,679.112 1594.78,679.206 1593.54,679.315 C1592.31,679.409 1591.35,679.596 1590.7,679.69 C1590.03,679.784 1589.07,679.878 1587.93,680.065 C1586.79,680.253 1585.95,680.55 1585.18,680.831 C1584.42,681.112 1583.57,681.487 1582.81,681.971 C1582.04,682.44 1581.39,682.925 1580.9,683.581 C1580.25,684.253 1579.76,685.003 1579.39,685.768 C1579.01,686.534 1578.73,687.471 1578.62,688.425 C1578.53,689.096 1578.53,689.753 1578.53,690.425 L1578.53,690.987 C1578.62,691.659 1578.62,692.612 1578.73,693.753 C1578.82,694.893 1578.82,695.831 1578.82,696.503 C1578.82,707.331 1579.1,717.971 1579.57,728.518 C1579.67,729.081 1579.67,729.659 1579.67,730.331 C1579.57,732.315 1579.48,734.971 1579.29,738.112 C1579.01,741.815 1578.82,744.581 1578.82,746.378 L1578.82,746.956 L1578.82,748.565 C1578.82,749.034 1579.01,749.518 1579.1,750.081 C1579.2,750.659 1579.39,751.128 1579.67,751.409 C1579.96,751.706 1580.25,751.987 1580.71,752.268 C1581.1,752.456 1581.57,752.55 1582.14,752.55 L1582.43,752.55 C1585.75,752.456 1589.07,751.8 1592.4,750.565 C1595.73,749.331 1598.87,747.8 1601.81,745.815 C1604.76,743.815 1607.51,741.44 1610.17,738.69 C1612.82,735.925 1615.1,733.081 1617.01,730.034 C1618.9,727.003 1620.53,723.862 1621.76,720.534 C1623,717.206 1623.65,713.893 1623.85,710.753 C1623.95,710.081 1623.95,709.331 1623.95,708.659 C1623.95,706.862 1623.76,704.956 1623.37,703.065 C1622.9,700.393 1622.14,697.737 1621.09,695.268 C1620.04,692.8 1618.71,690.518 1617.01,688.331 C1615.29,686.143 1613.4,684.346 1611.31,682.831 C1609.21,681.3 1606.93,680.159 1604.28,679.503 C1602.57,679.018 1600.76,678.831 1598.96,678.831 C1598.01,678.831 1597.06,678.925 1596.01,679.018 M1590.12,740.393 C1590.12,737.643 1590.21,733.643 1590.31,728.518 C1590.4,724.44 1590.5,720.534 1590.5,717.018 C1590.5,716.175 1590.4,715.315 1590.4,714.456 C1590.4,710.284 1590.31,706.19 1590.12,702.393 C1590.12,701.925 1590.03,701.065 1589.84,699.643 C1589.65,698.206 1589.37,696.878 1589.26,695.643 C1589.17,695.081 1589.17,694.503 1589.17,693.94 C1589.17,693.268 1589.17,692.706 1589.26,692.034 C1589.46,690.8 1589.84,689.846 1590.5,689.378 C1591.35,688.706 1592.31,688.425 1593.35,688.425 C1593.64,688.518 1593.92,688.518 1594.21,688.518 C1595.64,688.706 1597.15,689.19 1598.76,690.05 C1600.39,690.893 1601.9,692.034 1603.32,693.175 C1604.76,694.315 1606.09,695.456 1607.14,696.596 C1608.17,697.737 1609.03,698.596 1609.51,699.456 C1611.03,701.925 1612.07,704.675 1612.64,707.706 C1612.92,709.425 1613.12,711.128 1613.12,712.846 C1613.12,714.081 1613.01,715.315 1612.92,716.55 C1612.45,719.487 1611.59,722.346 1610.35,725.096 C1609.12,727.846 1607.51,730.331 1605.6,732.503 C1603.62,734.69 1601.34,736.409 1598.67,737.831 C1596.01,739.253 1593.17,740.112 1590.12,740.393"/>
<path class="Harmony" d="M2300.2,679.018 C2299.73,679.112 2298.97,679.206 2297.73,679.315 C2296.5,679.409 2295.55,679.596 2294.89,679.69 C2294.22,679.784 2293.27,679.878 2292.13,680.065 C2290.98,680.253 2290.14,680.55 2289.38,680.831 C2288.61,681.112 2287.77,681.487 2287,681.971 C2286.23,682.44 2285.58,682.925 2285.09,683.581 C2284.44,684.253 2283.95,685.003 2283.58,685.768 C2283.2,686.534 2282.92,687.471 2282.81,688.425 C2282.72,689.096 2282.72,689.753 2282.72,690.425 L2282.72,690.987 C2282.81,691.659 2282.81,692.612 2282.92,693.753 C2283.02,694.893 2283.02,695.831 2283.02,696.503 C2283.02,707.331 2283.3,717.971 2283.77,728.518 C2283.86,729.081 2283.86,729.659 2283.86,730.331 C2283.77,732.315 2283.67,734.971 2283.48,738.112 C2283.2,741.815 2283.02,744.581 2283.02,746.378 L2283.02,746.956 L2283.02,748.565 C2283.02,749.034 2283.2,749.518 2283.3,750.081 C2283.39,750.659 2283.58,751.128 2283.86,751.409 C2284.16,751.706 2284.44,751.987 2284.91,752.268 C2285.3,752.456 2285.77,752.55 2286.33,752.55 L2286.63,752.55 C2289.94,752.456 2293.27,751.8 2296.59,750.565 C2299.92,749.331 2303.06,747.8 2306,745.815 C2308.95,743.815 2311.7,741.44 2314.36,738.69 C2317.02,735.925 2319.3,733.081 2321.2,730.034 C2323.09,727.003 2324.72,723.862 2325.95,720.534 C2327.19,717.206 2327.84,713.893 2328.05,710.753 C2328.14,710.081 2328.14,709.331 2328.14,708.659 C2328.14,706.862 2327.95,704.956 2327.56,703.065 C2327.09,700.393 2326.33,697.737 2325.28,695.268 C2324.23,692.8 2322.91,690.518 2321.2,688.331 C2319.48,686.143 2317.59,684.346 2315.5,682.831 C2313.41,681.3 2311.13,680.159 2308.47,679.503 C2306.77,679.018 2304.95,678.831 2303.16,678.831 C2302.2,678.831 2301.25,678.925 2300.2,679.018 M2294.31,740.393 C2294.31,737.643 2294.41,733.643 2294.5,728.518 C2294.59,724.44 2294.69,720.534 2294.69,717.018 C2294.69,716.175 2294.59,715.315 2294.59,714.456 C2294.59,710.284 2294.5,706.19 2294.31,702.393 C2294.31,701.925 2294.22,701.065 2294.03,699.643 C2293.84,698.206 2293.56,696.878 2293.45,695.643 C2293.36,695.081 2293.36,694.503 2293.36,693.94 C2293.36,693.268 2293.36,692.706 2293.45,692.034 C2293.66,690.8 2294.03,689.846 2294.69,689.378 C2295.55,688.706 2296.5,688.425 2297.55,688.425 C2297.83,688.518 2298.11,688.518 2298.41,688.518 C2299.83,688.706 2301.34,689.19 2302.95,690.05 C2304.58,690.893 2306.09,692.034 2307.52,693.175 C2308.95,694.315 2310.28,695.456 2311.33,696.596 C2312.36,697.737 2313.22,698.596 2313.7,699.456 C2315.22,701.925 2316.27,704.675 2316.83,707.706 C2317.11,709.425 2317.31,711.128 2317.31,712.846 C2317.31,714.081 2317.2,715.315 2317.11,716.55 C2316.64,719.487 2315.78,722.346 2314.55,725.096 C2313.31,727.846 2311.7,730.331 2309.8,732.503 C2307.81,734.69 2305.53,736.409 2302.86,737.831 C2300.2,739.253 2297.36,740.112 2294.31,740.393"/>
<path class="Harmony" d="M187.627,989.058 C187.158,989.151 186.392,989.245 185.158,989.355 C183.923,989.448 182.97,989.636 182.314,989.73 C181.642,989.823 180.689,989.917 179.548,990.105 C178.408,990.292 177.564,990.589 176.798,990.87 C176.033,991.151 175.189,991.526 174.423,992.011 C173.658,992.48 173.002,992.964 172.517,993.62 C171.861,994.292 171.377,995.042 171.002,995.808 C170.627,996.573 170.345,997.511 170.236,998.464 C170.142,999.136 170.142,999.792 170.142,1000.46 L170.142,1001.03 C170.236,1001.7 170.236,1002.65 170.345,1003.79 C170.439,1004.93 170.439,1005.87 170.439,1006.54 C170.439,1017.37 170.72,1028.01 171.189,1038.56 C171.283,1039.12 171.283,1039.7 171.283,1040.37 C171.189,1042.35 171.095,1045.01 170.908,1048.15 C170.627,1051.85 170.439,1054.62 170.439,1056.42 L170.439,1057 L170.439,1058.6 C170.439,1059.07 170.627,1059.56 170.72,1060.12 C170.814,1060.7 171.002,1061.17 171.283,1061.45 C171.58,1061.75 171.861,1062.03 172.33,1062.31 C172.72,1062.5 173.189,1062.59 173.752,1062.59 L174.048,1062.59 C177.361,1062.5 180.689,1061.84 184.017,1060.6 C187.345,1059.37 190.486,1057.84 193.423,1055.85 C196.377,1053.85 199.127,1051.48 201.783,1048.73 C204.439,1045.96 206.72,1043.12 208.627,1040.07 C210.517,1037.04 212.142,1033.9 213.377,1030.57 C214.611,1027.25 215.267,1023.93 215.47,1020.79 C215.564,1020.12 215.564,1019.37 215.564,1018.7 C215.564,1016.9 215.377,1015 214.986,1013.1 C214.517,1010.43 213.752,1007.78 212.705,1005.31 C211.658,1002.84 210.33,1000.56 208.627,998.37 C206.908,996.183 205.017,994.386 202.923,992.87 C200.83,991.339 198.548,990.198 195.892,989.542 C194.189,989.058 192.377,988.87 190.58,988.87 C189.627,988.87 188.673,988.964 187.627,989.058 M181.736,1050.43 C181.736,1047.68 181.83,1043.68 181.923,1038.56 C182.017,1034.48 182.111,1030.57 182.111,1027.06 C182.111,1026.21 182.017,1025.35 182.017,1024.5 C182.017,1020.32 181.923,1016.23 181.736,1012.43 C181.736,1011.96 181.642,1011.1 181.455,1009.68 C181.267,1008.25 180.986,1006.92 180.877,1005.68 C180.783,1005.12 180.783,1004.54 180.783,1003.98 C180.783,1003.31 180.783,1002.75 180.877,1002.07 C181.08,1000.84 181.455,999.886 182.111,999.417 C182.97,998.745 183.923,998.464 184.97,998.464 C185.252,998.558 185.533,998.558 185.83,998.558 C187.252,998.745 188.767,999.23 190.377,1000.09 C192.002,1000.93 193.517,1002.07 194.939,1003.21 C196.377,1004.35 197.705,1005.5 198.752,1006.64 C199.783,1007.78 200.642,1008.64 201.127,1009.5 C202.642,1011.96 203.689,1014.71 204.252,1017.75 C204.533,1019.46 204.736,1021.17 204.736,1022.89 C204.736,1024.12 204.627,1025.35 204.533,1026.59 C204.064,1029.53 203.205,1032.39 201.97,1035.14 C200.736,1037.89 199.127,1040.37 197.22,1042.54 C195.236,1044.73 192.955,1046.45 190.283,1047.87 C187.627,1049.29 184.783,1050.15 181.736,1050.43"/>
<path class="Harmony" d="M869.157,989.058 C868.689,989.151 867.923,989.245 866.689,989.355 C865.454,989.448 864.501,989.636 863.845,989.73 C863.173,989.823 862.22,989.917 861.079,990.105 C859.939,990.292 859.095,990.589 858.329,990.87 C857.564,991.151 856.72,991.526 855.954,992.011 C855.189,992.48 854.532,992.964 854.048,993.62 C853.392,994.292 852.907,995.042 852.532,995.808 C852.157,996.573 851.876,997.511 851.767,998.464 C851.673,999.136 851.673,999.792 851.673,1000.46 L851.673,1001.03 C851.767,1001.7 851.767,1002.65 851.876,1003.79 C851.97,1004.93 851.97,1005.87 851.97,1006.54 C851.97,1017.37 852.251,1028.01 852.72,1038.56 C852.814,1039.12 852.814,1039.7 852.814,1040.37 C852.72,1042.35 852.626,1045.01 852.439,1048.15 C852.157,1051.85 851.97,1054.62 851.97,1056.42 L851.97,1057 L851.97,1058.6 C851.97,1059.07 852.157,1059.56 852.251,1060.12 C852.345,1060.7 852.532,1061.17 852.814,1061.45 C853.11,1061.75 853.392,1062.03 853.86,1062.31 C854.251,1062.5 854.72,1062.59 855.282,1062.59 L855.579,1062.59 C858.892,1062.5 862.22,1061.84 865.548,1060.6 C868.876,1059.37 872.017,1057.84 874.954,1055.85 C877.907,1053.85 880.657,1051.48 883.314,1048.73 C885.97,1045.96 888.251,1043.12 890.157,1040.07 C892.048,1037.04 893.673,1033.9 894.907,1030.57 C896.142,1027.25 896.798,1023.93 897.001,1020.79 C897.095,1020.12 897.095,1019.37 897.095,1018.7 C897.095,1016.9 896.907,1015 896.517,1013.1 C896.048,1010.43 895.282,1007.78 894.235,1005.31 C893.189,1002.84 891.86,1000.56 890.157,998.37 C888.439,996.183 886.548,994.386 884.454,992.87 C882.36,991.339 880.079,990.198 877.423,989.542 C875.72,989.058 873.907,988.87 872.11,988.87 C871.157,988.87 870.204,988.964 869.157,989.058 M863.267,1050.43 C863.267,1047.68 863.36,1043.68 863.454,1038.56 C863.548,1034.48 863.642,1030.57 863.642,1027.06 C863.642,1026.21 863.548,1025.35 863.548,1024.5 C863.548,1020.32 863.454,1016.23 863.267,1012.43 C863.267,1011.96 863.173,1011.1 862.985,1009.68 C862.798,1008.25 862.517,1006.92 862.407,1005.68 C862.314,1005.12 862.314,1004.54 862.314,1003.98 C862.314,1003.31 862.314,1002.75 862.407,1002.07 C862.61,1000.84 862.985,999.886 863.642,999.417 C864.501,998.745 865.454,998.464 866.501,998.464 C866.782,998.558 867.064,998.558 867.36,998.558 C868.782,998.745 870.298,999.23 871.907,1000.09 C873.532,1000.93 875.048,1002.07 876.47,1003.21 C877.907,1004.35 879.235,1005.5 880.282,1006.64 C881.314,1007.78 882.173,1008.64 882.657,1009.5 C884.173,1011.96 885.22,1014.71 885.782,1017.75 C886.064,1019.46 886.267,1021.17 886.267,1022.89 C886.267,1024.12 886.157,1025.35 886.064,1026.59 C885.595,1029.53 884.735,1032.39 883.501,1035.14 C882.267,1037.89 880.657,1040.37 878.751,1042.54 C876.767,1044.73 874.485,1046.45 871.814,1047.87 C869.157,1049.29 866.314,1050.15 863.267,1050.43"/>
<path class="Harmony" d="M1566.81,989.058 C1566.34,989.151 1565.58,989.245 1564.34,989.355 C1563.11,989.448 1562.15,989.636 1561.5,989.73 C1560.83,989.823 1559.87,989.917 1558.73,990.105 C1557.59,990.292 1556.75,990.589 1555.98,990.87 C1555.22,991.151 1554.37,991.526 1553.61,992.011 C1552.84,992.48 1552.19,992.964 1551.7,993.62 C1551.04,994.292 1550.56,995.042 1550.19,995.808 C1549.81,996.573 1549.53,997.511 1549.42,998.464 C1549.33,999.136 1549.33,999.792 1549.33,1000.46 L1549.33,1001.03 C1549.42,1001.7 1549.42,1002.65 1549.53,1003.79 C1549.62,1004.93 1549.62,1005.87 1549.62,1006.54 C1549.62,1017.37 1549.9,1028.01 1550.37,1038.56 C1550.47,1039.12 1550.47,1039.7 1550.47,1040.37 C1550.37,1042.35 1550.28,1045.01 1550.09,1048.15 C1549.81,1051.85 1549.62,1054.62 1549.62,1056.42 L1549.62,1057 L1549.62,1058.6 C1549.62,1059.07 1549.81,1059.56 1549.9,1060.12 C1550,1060.7 1550.19,1061.17 1550.47,1061.45 C1550.76,1061.75 1551.04,1062.03 1551.51,1062.31 C1551.9,1062.5 1552.37,1062.59 1552.94,1062.59 L1553.23,1062.59 C1556.54,1062.5 1559.87,1061.84 1563.2,1060.6 C1566.53,1059.37 1569.67,1057.84 1572.61,1055.85 C1575.56,1053.85 1578.31,1051.48 1580.97,1048.73 C1583.62,1045.96 1585.9,1043.12 1587.81,1040.07 C1589.7,1037.04 1591.33,1033.9 1592.56,1030.57 C1593.79,1027.25 1594.45,1023.93 1594.65,1020.79 C1594.75,1020.12 1594.75,1019.37 1594.75,1018.7 C1594.75,1016.9 1594.56,1015 1594.17,1013.1 C1593.7,1010.43 1592.94,1007.78 1591.89,1005.31 C1590.84,1002.84 1589.51,1000.56 1587.81,998.37 C1586.09,996.183 1584.2,994.386 1582.11,992.87 C1580.01,991.339 1577.73,990.198 1575.08,989.542 C1573.37,989.058 1571.56,988.87 1569.76,988.87 C1568.81,988.87 1567.86,988.964 1566.81,989.058 M1560.92,1050.43 C1560.92,1047.68 1561.01,1043.68 1561.11,1038.56 C1561.2,1034.48 1561.29,1030.57 1561.29,1027.06 C1561.29,1026.21 1561.2,1025.35 1561.2,1024.5 C1561.2,1020.32 1561.11,1016.23 1560.92,1012.43 C1560.92,1011.96 1560.83,1011.1 1560.64,1009.68 C1560.45,1008.25 1560.17,1006.92 1560.06,1005.68 C1559.97,1005.12 1559.97,1004.54 1559.97,1003.98 C1559.97,1003.31 1559.97,1002.75 1560.06,1002.07 C1560.26,1000.84 1560.64,999.886 1561.29,999.417 C1562.15,998.745 1563.11,998.464 1564.15,998.464 C1564.44,998.558 1564.72,998.558 1565.01,998.558 C1566.44,998.745 1567.95,999.23 1569.56,1000.09 C1571.19,1000.93 1572.7,1002.07 1574.12,1003.21 C1575.56,1004.35 1576.89,1005.5 1577.94,1006.64 C1578.97,1007.78 1579.83,1008.64 1580.31,1009.5 C1581.83,1011.96 1582.87,1014.71 1583.44,1017.75 C1583.72,1019.46 1583.92,1021.17 1583.92,1022.89 C1583.92,1024.12 1583.81,1025.35 1583.72,1026.59 C1583.25,1029.53 1582.39,1032.39 1581.15,1035.14 C1579.92,1037.89 1578.31,1040.37 1576.4,1042.54 C1574.42,1044.73 1572.14,1046.45 1569.47,1047.87 C1566.81,1049.29 1563.97,1050.15 1560.92,1050.43"/>
<path class="Harmony" d="M2264.46,989.058 C2263.99,989.151 2263.23,989.245 2261.99,989.355 C2260.76,989.448 2259.81,989.636 2259.15,989.73 C2258.48,989.823 2257.53,989.917 2256.38,990.105 C2255.24,990.292 2254.4,990.589 2253.63,990.87 C2252.87,991.151 2252.03,991.526 2251.26,992.011 C2250.49,992.48 2249.84,992.964 2249.35,993.62 C2248.7,994.292 2248.21,995.042 2247.84,995.808 C2247.46,996.573 2247.18,997.511 2247.07,998.464 C2246.98,999.136 2246.98,999.792 2246.98,1000.46 L2246.98,1001.03 C2247.07,1001.7 2247.07,1002.65 2247.18,1003.79 C2247.28,1004.93 2247.28,1005.87 2247.28,1006.54 C2247.28,1017.37 2247.56,1028.01 2248.03,1038.56 C2248.12,1039.12 2248.12,1039.7 2248.12,1040.37 C2248.03,1042.35 2247.93,1045.01 2247.74,1048.15 C2247.46,1051.85 2247.28,1054.62 2247.28,1056.42 L2247.28,1057 L2247.28,1058.6 C2247.28,1059.07 2247.46,1059.56 2247.56,1060.12 C2247.65,1060.7 2247.84,1061.17 2248.12,1061.45 C2248.42,1061.75 2248.7,1062.03 2249.17,1062.31 C2249.56,1062.5 2250.03,1062.59 2250.59,1062.59 L2250.88,1062.59 C2254.2,1062.5 2257.53,1061.84 2260.85,1060.6 C2264.18,1059.37 2267.32,1057.84 2270.26,1055.85 C2273.21,1053.85 2275.96,1051.48 2278.62,1048.73 C2281.28,1045.96 2283.56,1043.12 2285.46,1040.07 C2287.35,1037.04 2288.98,1033.9 2290.21,1030.57 C2291.45,1027.25 2292.1,1023.93 2292.31,1020.79 C2292.4,1020.12 2292.4,1019.37 2292.4,1018.7 C2292.4,1016.9 2292.21,1015 2291.82,1013.1 C2291.35,1010.43 2290.59,1007.78 2289.54,1005.31 C2288.49,1002.84 2287.17,1000.56 2285.46,998.37 C2283.74,996.183 2281.85,994.386 2279.76,992.87 C2277.67,991.339 2275.38,990.198 2272.73,989.542 C2271.03,989.058 2269.21,988.87 2267.42,988.87 C2266.46,988.87 2265.51,988.964 2264.46,989.058 M2258.57,1050.43 C2258.57,1047.68 2258.67,1043.68 2258.76,1038.56 C2258.85,1034.48 2258.95,1030.57 2258.95,1027.06 C2258.95,1026.21 2258.85,1025.35 2258.85,1024.5 C2258.85,1020.32 2258.76,1016.23 2258.57,1012.43 C2258.57,1011.96 2258.48,1011.1 2258.29,1009.68 C2258.1,1008.25 2257.82,1006.92 2257.71,1005.68 C2257.62,1005.12 2257.62,1004.54 2257.62,1003.98 C2257.62,1003.31 2257.62,1002.75 2257.71,1002.07 C2257.92,1000.84 2258.29,999.886 2258.95,999.417 C2259.81,998.745 2260.76,998.464 2261.81,998.464 C2262.09,998.558 2262.37,998.558 2262.67,998.558 C2264.09,998.745 2265.6,999.23 2267.21,1000.09 C2268.84,1000.93 2270.35,1002.07 2271.78,1003.21 C2273.21,1004.35 2274.54,1005.5 2275.59,1006.64 C2276.62,1007.78 2277.48,1008.64 2277.96,1009.5 C2279.48,1011.96 2280.53,1014.71 2281.09,1017.75 C2281.37,1019.46 2281.57,1021.17 2281.57,1022.89 C2281.57,1024.12 2281.46,1025.35 2281.37,1026.59 C2280.9,1029.53 2280.04,1032.39 2278.81,1035.14 C2277.57,1037.89 2275.96,1040.37 2274.06,1042.54 C2272.07,1044.73 2269.79,1046.45 2267.12,1047.87 C2264.46,1049.29 2261.62,1050.15 2258.57,1050.43"/>
</svg>
