<?xml version="1.0" encoding="UTF-8" standalone="no"?>
<svg width="2976.38px" height="637.795px" viewBox="0 0 2976.38 637.795"
 xmlns="http://www.w3.org/2000/svg" xmlns:xlink="http://www.w3.org/1999/xlink" version="1.2" baseProfile="tiny">
<title>BoatinUpSandy</title>
<desc>Generated by MuseScore 3.6.2</desc>
<polyline class="StaffLines" fill="none" stroke="#000000" stroke-width="1.71" stroke-linejoin="bevel" points="92.126,123.307 2834.65,123.307"/>
<polyline class="StaffLines" fill="none" stroke="#000000" stroke-width="1.71" stroke-linejoin="bevel" points="92.126,138.898 2834.65,138.898"/>
<polyline class="StaffLines" fill="none" stroke="#000000" stroke-width="1.71" stroke-linejoin="bevel" points="92.126,154.488 2834.65,154.488"/>
<polyline class="StaffLines" fill="none" stroke="#000000" stroke-width="1.71" stroke-linejoin="bevel" points="92.126,170.079 2834.65,170.079"/>
<polyline class="StaffLines" fill="none" stroke="#000000" stroke-width="1.71" stroke-linejoin="bevel" points="92.126,185.669 2834.65,185.669"/>
<polyline class="StaffLines" fill="none" stroke="#000000" stroke-width="1.71" stroke-linejoin="bevel" points="14.1732,318.189 2834.65,318.189"/>
<polyline class="StaffLines" fill="none" stroke="#000000" stroke-width="1.71" stroke-linejoin="bevel" points="14.1732,333.78 2834.65,333.78"/>
<polyline class="StaffLines" fill="none" stroke="#000000" stroke-width="1.71" stroke-linejoin="bevel" points="14.1732,349.37 2834.65,349.37"/>
<polyline class="StaffLines" fill="none" stroke="#000000" stroke-width="1.71" stroke-linejoin="bevel" points="14.1732,364.961 2834.65,364.961"/>
<polyline class="StaffLines" fill="none" stroke="#000000" stroke-width="1.71" stroke-linejoin="bevel" points="14.1732,380.551 2834.65,380.551"/>
<path class="MeasureNumber" d="M29.892,273.336 C29.2045,276.492 28.4857,278.414 27.3295,280.648 C25.3764,284.289 23.2982,285.93 20.4857,285.93 C19.3295,285.93 18.5795,285.445 18.5795,284.727 C18.5795,284.445 18.6576,284.336 18.9701,283.852 C19.3764,283.336 19.5795,282.852 19.5795,282.289 C19.5795,280.977 18.5326,279.977 17.1732,279.977 C15.5795,279.977 14.4545,281.164 14.4545,282.93 C14.4545,285.648 17.017,287.602 20.5795,287.602 C23.767,287.602 26.7357,286.211 29.1732,283.414 C32.6576,279.523 34.9232,273.727 34.9232,268.805 C34.9232,262.57 31.9232,258.852 26.9701,258.852 C24.017,258.852 21.2514,260.18 19.4076,262.445 C17.6107,264.648 16.5795,267.445 16.5795,270.055 C16.5795,273.852 19.4857,276.727 23.3764,276.727 C26.017,276.727 28.0482,275.648 29.892,273.336 M26.9389,260.539 C29.4857,260.539 31.1264,262.57 31.1264,265.773 C31.1264,270.727 28.4076,274.367 24.7357,274.367 C22.2045,274.367 20.8139,272.648 20.8139,269.648 C20.8139,267.289 21.3764,265.164 22.4545,263.367 C23.6576,261.445 25.0951,260.539 26.9389,260.539"/>
<polyline class="BarLine" fill="none" stroke="#000000" stroke-width="2.81" stroke-linejoin="bevel" points="506.713,122.45 506.713,186.527"/>
<polyline class="BarLine" fill="none" stroke="#000000" stroke-width="2.81" stroke-linejoin="bevel" points="835.002,122.45 835.002,186.527"/>
<polyline class="BarLine" fill="none" stroke="#000000" stroke-width="2.81" stroke-linejoin="bevel" points="1163.29,122.45 1163.29,186.527"/>
<polyline class="BarLine" fill="none" stroke="#000000" stroke-width="2.81" stroke-linejoin="bevel" points="1491.58,122.45 1491.58,186.527"/>
<polyline class="BarLine" fill="none" stroke="#000000" stroke-width="2.81" stroke-linejoin="bevel" points="1819.87,122.45 1819.87,186.527"/>
<polyline class="BarLine" fill="none" stroke="#000000" stroke-width="2.81" stroke-linejoin="bevel" points="2148.16,122.45 2148.16,186.527"/>
<polyline class="BarLine" fill="none" stroke="#000000" stroke-width="2.81" stroke-linejoin="bevel" points="2476.45,122.45 2476.45,186.527"/>
<path class="BarLine" transform="matrix(0.623622,0,0,0.623622,2803.33,146.693)" d="M10.4063,0 C10.4063,-2.90625 8.09375,-5.29688 5.20313,-5.29688 C2.29688,-5.29688 0,-2.90625 0,0 C0,2.90625 2.29688,5.29688 5.20313,5.29688 C8.09375,5.29688 10.4063,2.90625 10.4063,0"/>
<path class="BarLine" transform="matrix(0.623622,0,0,0.623622,2803.33,162.283)" d="M10.4063,0 C10.4063,-2.90625 8.09375,-5.29688 5.20313,-5.29688 C2.29688,-5.29688 0,-2.90625 0,0 C0,2.90625 2.29688,5.29688 5.20313,5.29688 C8.09375,5.29688 10.4063,2.90625 10.4063,0"/>
<polyline class="BarLine" fill="none" stroke="#000000" stroke-width="2.81" stroke-linejoin="bevel" points="2817.49,122.45 2817.49,186.527"/>
<polyline class="BarLine" fill="none" stroke="#000000" stroke-width="8.57" stroke-linejoin="bevel" points="2828.4,122.45 2828.4,186.527"/>
<polyline class="BarLine" fill="none" stroke="#000000" stroke-width="2.81" stroke-linejoin="bevel" points="438.505,317.331 438.505,381.409"/>
<polyline class="BarLine" fill="none" stroke="#000000" stroke-width="2.81" stroke-linejoin="bevel" points="776.538,317.331 776.538,381.409"/>
<polyline class="BarLine" fill="none" stroke="#000000" stroke-width="2.81" stroke-linejoin="bevel" points="1114.57,317.331 1114.57,381.409"/>
<polyline class="BarLine" fill="none" stroke="#000000" stroke-width="2.81" stroke-linejoin="bevel" points="1452.6,317.331 1452.6,381.409"/>
<polyline class="BarLine" fill="none" stroke="#000000" stroke-width="2.81" stroke-linejoin="bevel" points="1790.64,317.331 1790.64,381.409"/>
<polyline class="BarLine" fill="none" stroke="#000000" stroke-width="2.81" stroke-linejoin="bevel" points="2128.67,317.331 2128.67,381.409"/>
<polyline class="BarLine" fill="none" stroke="#000000" stroke-width="2.81" stroke-linejoin="bevel" points="2466.7,317.331 2466.7,381.409"/>
<path class="BarLine" transform="matrix(0.623622,0,0,0.623622,2803.33,341.575)" d="M10.4063,0 C10.4063,-2.90625 8.09375,-5.29688 5.20313,-5.29688 C2.29688,-5.29688 0,-2.90625 0,0 C0,2.90625 2.29688,5.29688 5.20313,5.29688 C8.09375,5.29688 10.4063,2.90625 10.4063,0"/>
<path class="BarLine" transform="matrix(0.623622,0,0,0.623622,2803.33,357.165)" d="M10.4063,0 C10.4063,-2.90625 8.09375,-5.29688 5.20313,-5.29688 C2.29688,-5.29688 0,-2.90625 0,0 C0,2.90625 2.29688,5.29688 5.20313,5.29688 C8.09375,5.29688 10.4063,2.90625 10.4063,0"/>
<polyline class="BarLine" fill="none" stroke="#000000" stroke-width="2.81" stroke-linejoin="bevel" points="2817.49,317.331 2817.49,381.409"/>
<polyline class="BarLine" fill="none" stroke="#000000" stroke-width="8.57" stroke-linejoin="bevel" points="2828.4,317.331 2828.4,381.409"/>
<path class="Note" transform="matrix(0.623622,0,0,0.623622,214.283,154.488)" d="M64.5,-22 L27.5,22 L12.5,22 L49.5,-22 L64.5,-22 M43,-25 L0,25 L35,25 L78,-25 L43,-25 "/>
<path class="Note" transform="matrix(0.623622,0,0,0.623622,352.703,154.488)" d="M64.5,-22 L27.5,22 L12.5,22 L49.5,-22 L64.5,-22 M43,-25 L0,25 L35,25 L78,-25 L43,-25 "/>
<path class="Note" transform="matrix(0.623622,0,0,0.623622,542.572,154.488)" d="M64.5,-22 L27.5,22 L12.5,22 L49.5,-22 L64.5,-22 M43,-25 L0,25 L35,25 L78,-25 L43,-25 "/>
<path class="Note" transform="matrix(0.623622,0,0,0.623622,680.992,154.488)" d="M64.5,-22 L27.5,22 L12.5,22 L49.5,-22 L64.5,-22 M43,-25 L0,25 L35,25 L78,-25 L43,-25 "/>
<path class="Note" transform="matrix(0.623622,0,0,0.623622,870.861,154.488)" d="M64.5,-22 L27.5,22 L12.5,22 L49.5,-22 L64.5,-22 M43,-25 L0,25 L35,25 L78,-25 L43,-25 "/>
<path class="Note" transform="matrix(0.623622,0,0,0.623622,1009.28,154.488)" d="M64.5,-22 L27.5,22 L12.5,22 L49.5,-22 L64.5,-22 M43,-25 L0,25 L35,25 L78,-25 L43,-25 "/>
<path class="Note" transform="matrix(0.623622,0,0,0.623622,1199.15,154.488)" d="M64.5,-22 L27.5,22 L12.5,22 L49.5,-22 L64.5,-22 M43,-25 L0,25 L35,25 L78,-25 L43,-25 "/>
<path class="Note" transform="matrix(0.623622,0,0,0.623622,1337.57,154.488)" d="M64.5,-22 L27.5,22 L12.5,22 L49.5,-22 L64.5,-22 M43,-25 L0,25 L35,25 L78,-25 L43,-25 "/>
<path class="Note" transform="matrix(0.623622,0,0,0.623622,1527.44,154.488)" d="M64.5,-22 L27.5,22 L12.5,22 L49.5,-22 L64.5,-22 M43,-25 L0,25 L35,25 L78,-25 L43,-25 "/>
<path class="Note" transform="matrix(0.623622,0,0,0.623622,1665.86,154.488)" d="M64.5,-22 L27.5,22 L12.5,22 L49.5,-22 L64.5,-22 M43,-25 L0,25 L35,25 L78,-25 L43,-25 "/>
<path class="Note" transform="matrix(0.623622,0,0,0.623622,1855.73,154.488)" d="M64.5,-22 L27.5,22 L12.5,22 L49.5,-22 L64.5,-22 M43,-25 L0,25 L35,25 L78,-25 L43,-25 "/>
<path class="Note" transform="matrix(0.623622,0,0,0.623622,1994.15,154.488)" d="M64.5,-22 L27.5,22 L12.5,22 L49.5,-22 L64.5,-22 M43,-25 L0,25 L35,25 L78,-25 L43,-25 "/>
<path class="Note" transform="matrix(0.623622,0,0,0.623622,2184.02,154.488)" d="M64.5,-22 L27.5,22 L12.5,22 L49.5,-22 L64.5,-22 M43,-25 L0,25 L35,25 L78,-25 L43,-25 "/>
<path class="Note" transform="matrix(0.623622,0,0,0.623622,2322.44,154.488)" d="M64.5,-22 L27.5,22 L12.5,22 L49.5,-22 L64.5,-22 M43,-25 L0,25 L35,25 L78,-25 L43,-25 "/>
<path class="Note" transform="matrix(0.623622,0,0,0.623622,2512.3,154.488)" d="M64.5,-22 L27.5,22 L12.5,22 L49.5,-22 L64.5,-22 M43,-25 L0,25 L35,25 L78,-25 L43,-25 "/>
<path class="Note" transform="matrix(0.623622,0,0,0.623622,2650.72,154.488)" d="M64.5,-22 L27.5,22 L12.5,22 L49.5,-22 L64.5,-22 M43,-25 L0,25 L35,25 L78,-25 L43,-25 "/>
<path class="Note" transform="matrix(0.623622,0,0,0.623622,136.33,349.37)" d="M64.5,-22 L27.5,22 L12.5,22 L49.5,-22 L64.5,-22 M43,-25 L0,25 L35,25 L78,-25 L43,-25 "/>
<path class="Note" transform="matrix(0.623622,0,0,0.623622,279.622,349.37)" d="M64.5,-22 L27.5,22 L12.5,22 L49.5,-22 L64.5,-22 M43,-25 L0,25 L35,25 L78,-25 L43,-25 "/>
<path class="Note" transform="matrix(0.623622,0,0,0.623622,474.363,349.37)" d="M64.5,-22 L27.5,22 L12.5,22 L49.5,-22 L64.5,-22 M43,-25 L0,25 L35,25 L78,-25 L43,-25 "/>
<path class="Note" transform="matrix(0.623622,0,0,0.623622,617.655,349.37)" d="M64.5,-22 L27.5,22 L12.5,22 L49.5,-22 L64.5,-22 M43,-25 L0,25 L35,25 L78,-25 L43,-25 "/>
<path class="Note" transform="matrix(0.623622,0,0,0.623622,812.396,349.37)" d="M64.5,-22 L27.5,22 L12.5,22 L49.5,-22 L64.5,-22 M43,-25 L0,25 L35,25 L78,-25 L43,-25 "/>
<path class="Note" transform="matrix(0.623622,0,0,0.623622,955.688,349.37)" d="M64.5,-22 L27.5,22 L12.5,22 L49.5,-22 L64.5,-22 M43,-25 L0,25 L35,25 L78,-25 L43,-25 "/>
<path class="Note" transform="matrix(0.623622,0,0,0.623622,1150.43,349.37)" d="M64.5,-22 L27.5,22 L12.5,22 L49.5,-22 L64.5,-22 M43,-25 L0,25 L35,25 L78,-25 L43,-25 "/>
<path class="Note" transform="matrix(0.623622,0,0,0.623622,1293.72,349.37)" d="M64.5,-22 L27.5,22 L12.5,22 L49.5,-22 L64.5,-22 M43,-25 L0,25 L35,25 L78,-25 L43,-25 "/>
<path class="Note" transform="matrix(0.623622,0,0,0.623622,1488.46,349.37)" d="M64.5,-22 L27.5,22 L12.5,22 L49.5,-22 L64.5,-22 M43,-25 L0,25 L35,25 L78,-25 L43,-25 "/>
<path class="Note" transform="matrix(0.623622,0,0,0.623622,1631.75,349.37)" d="M64.5,-22 L27.5,22 L12.5,22 L49.5,-22 L64.5,-22 M43,-25 L0,25 L35,25 L78,-25 L43,-25 "/>
<path class="Note" transform="matrix(0.623622,0,0,0.623622,1826.49,349.37)" d="M64.5,-22 L27.5,22 L12.5,22 L49.5,-22 L64.5,-22 M43,-25 L0,25 L35,25 L78,-25 L43,-25 "/>
<path class="Note" transform="matrix(0.623622,0,0,0.623622,1969.79,349.37)" d="M64.5,-22 L27.5,22 L12.5,22 L49.5,-22 L64.5,-22 M43,-25 L0,25 L35,25 L78,-25 L43,-25 "/>
<path class="Note" transform="matrix(0.623622,0,0,0.623622,2164.53,349.37)" d="M64.5,-22 L27.5,22 L12.5,22 L49.5,-22 L64.5,-22 M43,-25 L0,25 L35,25 L78,-25 L43,-25 "/>
<path class="Note" transform="matrix(0.623622,0,0,0.623622,2307.82,349.37)" d="M64.5,-22 L27.5,22 L12.5,22 L49.5,-22 L64.5,-22 M43,-25 L0,25 L35,25 L78,-25 L43,-25 "/>
<path class="Note" transform="matrix(0.623622,0,0,0.623622,2502.56,349.37)" d="M64.5,-22 L27.5,22 L12.5,22 L49.5,-22 L64.5,-22 M43,-25 L0,25 L35,25 L78,-25 L43,-25 "/>
<path class="Note" transform="matrix(0.623622,0,0,0.623622,2645.85,349.37)" d="M64.5,-22 L27.5,22 L12.5,22 L49.5,-22 L64.5,-22 M43,-25 L0,25 L35,25 L78,-25 L43,-25 "/>
<path class="Clef" transform="matrix(0.623622,0,0,0.623622,104.598,170.079)" d="M63.3594,-5.92188 C62.125,-11.3438 59.4844,-15.1719 58.7031,-16.2031 C55.5156,-20.4844 51.5,-23.3281 46.8125,-24.6875 C43.7031,-25.5625 40.7031,-25.6875 38.2813,-25.5 C37.2344,-31.5156 36.2344,-37.3906 35.3281,-42.8438 C40.7813,-49.0156 44.4063,-54.8125 46.6875,-59.1094 C50.1563,-65.6875 51.2969,-70.2656 51.3594,-70.4688 C53.0781,-75.6875 53.4375,-83.3906 52.3281,-91.5938 C51.3281,-99.1406 49.2344,-105.859 46.875,-109.109 C45.8594,-110.531 44.7969,-111.266 43.7656,-111.266 C42.5469,-111.266 40.0313,-110.031 37.1406,-107.25 C34.8438,-105.063 31.5781,-101.172 29.0156,-95.1563 C26.0156,-88.0938 25.7969,-78.6094 26.1563,-71.8906 C26.5313,-64.6094 27.6406,-58.9219 27.6563,-58.875 C27.6719,-58.7813 27.9375,-57.2813 28.375,-54.7188 C28.1563,-54.4844 27.9063,-54.2656 27.6563,-54.0156 C26.625,-53.0156 25.4375,-51.8906 24.0469,-50.5 C23.1875,-49.6406 22.2344,-48.7344 21.2344,-47.7656 C12.7969,-39.625 0,-27.2969 0,-8.14063 C0,-3.4375 0.90625,0.984375 2.6875,5 C4.26563,8.59375 6.5625,11.875 9.5,14.75 C17.2344,22.3125 27.8281,25.5156 34.875,25.3594 C37.8281,25.2813 40.4688,25.0469 42.8594,24.5938 C44.6875,34.2031 45.8281,41.2344 45.8594,46.5781 C45.9063,53.0938 44.25,57.0781 40.3594,59.8438 C37.9219,61.5781 35.1094,62.5313 32.0156,62.6719 C29.4219,62.7969 27.1563,62.3281 25.7344,61.9219 L25.7188,61.9219 C25.7188,61.9219 25.4375,61.8281 25.4219,61.6406 C25.4063,61.4531 25.7656,61.4063 25.7656,61.4063 L25.7969,61.4063 C27.7188,60.9688 31.2813,59.7344 33.6406,56.4375 C35.4375,53.9063 36.3125,49.2813 34.4688,45.3438 C33.3594,42.9531 30.8594,40 25.2344,39.5469 C22.7344,39.3438 20.4688,39.8594 18.4688,41.0625 C16.6563,42.1406 15.1563,43.7813 14.1094,45.7813 C11.6563,50.4844 12.1094,56.2188 15.2344,60.0625 C18.2031,63.6875 22.8125,66 28.25,66.5781 C29.1094,66.6719 29.9531,66.7031 30.7969,66.7031 C35.2344,66.7031 39.625,65.5 43.2031,63.2969 C46.8594,60.7188 48.9844,56.7344 49.6563,51.1094 C50.2188,46.4688 49.8281,40.5469 48.4375,32.4688 C48.0781,30.375 47.5313,27.3438 46.875,23.5938 C52.625,21.6719 56.7813,18.0938 60.5469,12.2344 C63.8438,6.5 64.7813,0.390625 63.3594,-5.92188 M29.1406,20.2969 C24.5,19.0781 20.0625,16.5781 16.3125,13.0625 C15,11.8438 13.125,9.67188 11.6563,6.28125 C10.2969,3.10938 9.625,-0.328125 9.6875,-3.90625 C9.75,-8.60938 11.0625,-13.4375 13.5625,-18.2188 C16.4844,-23.7969 21.0469,-29.3281 27.1094,-34.6563 C28.5625,-35.9375 29.9375,-37.2188 31.2188,-38.5 C31.9844,-34.2344 32.8125,-29.5469 33.6875,-24.6719 C29.8438,-23.4063 25.0938,-20.25 21.9844,-14.5938 C18.4375,-8.03125 18.5781,-2.5 19.3125,0.984375 C20.25,5.4375 22.7813,9.20313 26.2344,11.2969 C27.1719,11.8594 31.2969,13.9844 33.1406,13.4063 C33.5156,13.2969 33.7813,13.0625 33.9219,12.7344 C34.4375,11.5625 33.4063,10.9219 31.8594,9.96875 C31.25,9.59375 30.5781,9.17188 29.8594,8.64063 C26.5313,6.15625 25.0781,1.70313 26.1563,-2.6875 C26.7344,-5.07813 28.0156,-7.25 29.8594,-8.95313 C31.5156,-10.5 33.5625,-11.5938 35.9375,-12.2344 C37.9844,-0.984375 40.0469,10.1719 41.6875,18.5313 C41.8125,19.2188 41.9531,19.8906 42.0781,20.5625 C37.7031,21.5 33.3594,21.4063 29.1406,20.2969 M40.4688,-12.9063 C50.8125,-13.375 55.0781,-5.9375 55.9688,-1.10938 C56.4375,1.4375 56.4375,5.875 54.8906,10.0938 C53.7188,13.2656 51.2656,17.3438 46.125,19.4063 C46.0625,18.9844 45.9844,18.5469 45.9063,18.125 C44.3594,9.34375 42.4219,-1.65625 40.4688,-12.9063 M33.1406,-83.8594 C34.9219,-89.5938 37.6563,-92.8438 39.6563,-94.5781 C41.4063,-96.0938 43.0469,-96.8125 43.9688,-96.8125 C44.1094,-96.8125 44.2344,-96.7813 44.3281,-96.75 C44.7969,-96.6094 45.3281,-96.0469 45.7969,-95.1719 C48.1094,-90.8906 47.3594,-84.1719 46.0156,-79.7344 C44.3906,-74.3281 41.4688,-68.7188 32.6719,-59.1094 C32.5,-60.2188 32.3438,-61.2656 32.1875,-62.25 C30.9375,-70.5313 31.2656,-77.8125 33.1406,-83.8594"/>
<path class="Clef" transform="matrix(0.623622,0,0,0.623622,26.6457,364.961)" d="M63.3594,-5.92188 C62.125,-11.3438 59.4844,-15.1719 58.7031,-16.2031 C55.5156,-20.4844 51.5,-23.3281 46.8125,-24.6875 C43.7031,-25.5625 40.7031,-25.6875 38.2813,-25.5 C37.2344,-31.5156 36.2344,-37.3906 35.3281,-42.8438 C40.7813,-49.0156 44.4063,-54.8125 46.6875,-59.1094 C50.1563,-65.6875 51.2969,-70.2656 51.3594,-70.4688 C53.0781,-75.6875 53.4375,-83.3906 52.3281,-91.5938 C51.3281,-99.1406 49.2344,-105.859 46.875,-109.109 C45.8594,-110.531 44.7969,-111.266 43.7656,-111.266 C42.5469,-111.266 40.0313,-110.031 37.1406,-107.25 C34.8438,-105.063 31.5781,-101.172 29.0156,-95.1563 C26.0156,-88.0938 25.7969,-78.6094 26.1563,-71.8906 C26.5313,-64.6094 27.6406,-58.9219 27.6563,-58.875 C27.6719,-58.7813 27.9375,-57.2813 28.375,-54.7188 C28.1563,-54.4844 27.9063,-54.2656 27.6563,-54.0156 C26.625,-53.0156 25.4375,-51.8906 24.0469,-50.5 C23.1875,-49.6406 22.2344,-48.7344 21.2344,-47.7656 C12.7969,-39.625 0,-27.2969 0,-8.14063 C0,-3.4375 0.90625,0.984375 2.6875,5 C4.26563,8.59375 6.5625,11.875 9.5,14.75 C17.2344,22.3125 27.8281,25.5156 34.875,25.3594 C37.8281,25.2813 40.4688,25.0469 42.8594,24.5938 C44.6875,34.2031 45.8281,41.2344 45.8594,46.5781 C45.9063,53.0938 44.25,57.0781 40.3594,59.8438 C37.9219,61.5781 35.1094,62.5313 32.0156,62.6719 C29.4219,62.7969 27.1563,62.3281 25.7344,61.9219 L25.7188,61.9219 C25.7188,61.9219 25.4375,61.8281 25.4219,61.6406 C25.4063,61.4531 25.7656,61.4063 25.7656,61.4063 L25.7969,61.4063 C27.7188,60.9688 31.2813,59.7344 33.6406,56.4375 C35.4375,53.9063 36.3125,49.2813 34.4688,45.3438 C33.3594,42.9531 30.8594,40 25.2344,39.5469 C22.7344,39.3438 20.4688,39.8594 18.4688,41.0625 C16.6563,42.1406 15.1563,43.7813 14.1094,45.7813 C11.6563,50.4844 12.1094,56.2188 15.2344,60.0625 C18.2031,63.6875 22.8125,66 28.25,66.5781 C29.1094,66.6719 29.9531,66.7031 30.7969,66.7031 C35.2344,66.7031 39.625,65.5 43.2031,63.2969 C46.8594,60.7188 48.9844,56.7344 49.6563,51.1094 C50.2188,46.4688 49.8281,40.5469 48.4375,32.4688 C48.0781,30.375 47.5313,27.3438 46.875,23.5938 C52.625,21.6719 56.7813,18.0938 60.5469,12.2344 C63.8438,6.5 64.7813,0.390625 63.3594,-5.92188 M29.1406,20.2969 C24.5,19.0781 20.0625,16.5781 16.3125,13.0625 C15,11.8438 13.125,9.67188 11.6563,6.28125 C10.2969,3.10938 9.625,-0.328125 9.6875,-3.90625 C9.75,-8.60938 11.0625,-13.4375 13.5625,-18.2188 C16.4844,-23.7969 21.0469,-29.3281 27.1094,-34.6563 C28.5625,-35.9375 29.9375,-37.2188 31.2188,-38.5 C31.9844,-34.2344 32.8125,-29.5469 33.6875,-24.6719 C29.8438,-23.4063 25.0938,-20.25 21.9844,-14.5938 C18.4375,-8.03125 18.5781,-2.5 19.3125,0.984375 C20.25,5.4375 22.7813,9.20313 26.2344,11.2969 C27.1719,11.8594 31.2969,13.9844 33.1406,13.4063 C33.5156,13.2969 33.7813,13.0625 33.9219,12.7344 C34.4375,11.5625 33.4063,10.9219 31.8594,9.96875 C31.25,9.59375 30.5781,9.17188 29.8594,8.64063 C26.5313,6.15625 25.0781,1.70313 26.1563,-2.6875 C26.7344,-5.07813 28.0156,-7.25 29.8594,-8.95313 C31.5156,-10.5 33.5625,-11.5938 35.9375,-12.2344 C37.9844,-0.984375 40.0469,10.1719 41.6875,18.5313 C41.8125,19.2188 41.9531,19.8906 42.0781,20.5625 C37.7031,21.5 33.3594,21.4063 29.1406,20.2969 M40.4688,-12.9063 C50.8125,-13.375 55.0781,-5.9375 55.9688,-1.10938 C56.4375,1.4375 56.4375,5.875 54.8906,10.0938 C53.7188,13.2656 51.2656,17.3438 46.125,19.4063 C46.0625,18.9844 45.9844,18.5469 45.9063,18.125 C44.3594,9.34375 42.4219,-1.65625 40.4688,-12.9063 M33.1406,-83.8594 C34.9219,-89.5938 37.6563,-92.8438 39.6563,-94.5781 C41.4063,-96.0938 43.0469,-96.8125 43.9688,-96.8125 C44.1094,-96.8125 44.2344,-96.7813 44.3281,-96.75 C44.7969,-96.6094 45.3281,-96.0469 45.7969,-95.1719 C48.1094,-90.8906 47.3594,-84.1719 46.0156,-79.7344 C44.3906,-74.3281 41.4688,-68.7188 32.6719,-59.1094 C32.5,-60.2188 32.3438,-61.2656 32.1875,-62.25 C30.9375,-70.5313 31.2656,-77.8125 33.1406,-83.8594"/>
<path class="KeySig" transform="matrix(0.623622,0,0,0.623622,160.091,123.307)" d="M23.2969,-10.5938 C23.9063,-10.7031 24.4063,-11.4063 24.4063,-12 L24.4063,-17.9063 C24.4063,-18.7031 23.7969,-19.2969 23,-19.2969 L22.7969,-19.2969 L19.5,-18.5938 L19.5,-33.5 L16.7031,-33.5 L16.7031,-18 L7.79688,-16.2031 L7.79688,-30.2969 L5,-30.2969 L5,-15.5938 L1.09375,-14.7969 C0.5,-14.7031 0,-14 0,-13.4063 L0,-13.2031 L0,-7.40625 L0,-7.59375 C0,-6.79688 0.59375,-6.20313 1.40625,-6.20313 L1.70313,-6.20313 L5,-6.90625 L5,9.59375 L1.09375,10.4063 C0.5,10.5 0,11.2031 0,11.7969 L0,17.5938 C0,18.4063 0.59375,19 1.40625,19 L1.70313,19 L5,18.2969 L5,33.2031 L7.79688,33.2031 L7.79688,17.7031 L16.7031,15.9063 L16.7031,30 L19.5,30 L19.5,15.2969 L23.2969,14.5938 C23.9063,14.5 24.4063,13.7969 24.4063,13.2031 L24.4063,7.29688 C24.4063,6.5 23.7969,5.90625 23,5.90625 L22.7969,5.90625 L19.5,6.59375 L19.5,-9.90625 L23.2969,-10.5938 M7.79688,9.09375 L7.79688,-7.5 L16.7031,-9.29688 L16.7031,7.20313 L7.79688,9.09375 "/>
<path class="KeySig" transform="matrix(0.623622,0,0,0.623622,82.1383,318.189)" d="M23.2969,-10.5938 C23.9063,-10.7031 24.4063,-11.4063 24.4063,-12 L24.4063,-17.9063 C24.4063,-18.7031 23.7969,-19.2969 23,-19.2969 L22.7969,-19.2969 L19.5,-18.5938 L19.5,-33.5 L16.7031,-33.5 L16.7031,-18 L7.79688,-16.2031 L7.79688,-30.2969 L5,-30.2969 L5,-15.5938 L1.09375,-14.7969 C0.5,-14.7031 0,-14 0,-13.4063 L0,-13.2031 L0,-7.40625 L0,-7.59375 C0,-6.79688 0.59375,-6.20313 1.40625,-6.20313 L1.70313,-6.20313 L5,-6.90625 L5,9.59375 L1.09375,10.4063 C0.5,10.5 0,11.2031 0,11.7969 L0,17.5938 C0,18.4063 0.59375,19 1.40625,19 L1.70313,19 L5,18.2969 L5,33.2031 L7.79688,33.2031 L7.79688,17.7031 L16.7031,15.9063 L16.7031,30 L19.5,30 L19.5,15.2969 L23.2969,14.5938 C23.9063,14.5 24.4063,13.7969 24.4063,13.2031 L24.4063,7.29688 C24.4063,6.5 23.7969,5.90625 23,5.90625 L22.7969,5.90625 L19.5,6.59375 L19.5,-9.90625 L23.2969,-10.5938 M7.79688,9.09375 L7.79688,-7.5 L16.7031,-9.29688 L16.7031,7.20313 L7.79688,9.09375 "/>
<path class="RehearsalMark" fill="none" stroke="#000000" stroke-width="2.49" stroke-linecap="square" stroke-linejoin="miter" stroke-miterlimit="2" fill-rule="evenodd" d="M206.52,45.9779 L264.605,45.9779 L264.605,102.063 L206.52,102.063 L206.52,45.9779 "/>
<path class="RehearsalMark" d="M250.515,55.3642 L248.312,55.3642 L245.359,57.8642 C241.859,55.8642 239.469,55.161 235.812,55.161 C230.062,55.161 225.156,57.2235 221.406,61.2235 C218.062,64.8173 216.515,69.0204 216.515,74.5204 C216.515,85.3642 223.609,92.7704 233.969,92.7704 C237.015,92.7704 240.062,92.0204 242.312,90.7235 C243.562,89.9735 244.359,89.3173 245.859,87.8173 L248.312,92.7235 L250.969,92.7235 L250.969,82.4735 C250.969,79.3173 250.969,79.1142 251.312,78.6767 C251.859,78.1142 252.609,77.9735 255.422,77.9267 L255.422,75.2235 L237.656,75.2235 L237.656,77.9267 L238.219,77.9267 C242.672,77.9735 242.719,78.0204 242.765,81.7235 L242.765,82.4735 C242.765,87.1142 239.812,90.1767 235.359,90.1767 C232.312,90.1767 229.812,88.5673 228.562,85.8642 C227.219,82.9735 226.515,78.9267 226.515,74.2235 C226.515,68.9267 227.515,64.5204 229.359,61.5204 C230.812,59.161 233.469,57.7704 236.406,57.7704 C242.312,57.7704 246.672,62.1142 248.312,69.7235 L250.969,69.7235 L250.515,55.3642 "/>
<path class="RehearsalMark" fill="none" stroke="#000000" stroke-width="2.49" stroke-linecap="square" stroke-linejoin="miter" stroke-miterlimit="2" fill-rule="evenodd" d="M356.43,44.0599 L414.515,44.0599 L414.515,98.1449 L356.43,98.1449 L356.43,44.0599 "/>
<path class="RehearsalMark" d="M366.425,89.1024 L384.816,89.1024 C391.128,89.1024 395.128,88.1961 398.222,86.0086 C402.675,82.8993 405.128,77.5086 405.128,70.6493 C405.128,63.8993 402.675,58.8055 397.972,55.6961 C394.925,53.6961 391.269,52.993 384.222,52.993 L366.425,52.993 L366.425,55.6961 L367.175,55.6961 C369.816,55.6961 370.816,55.8993 371.269,56.4461 C371.628,56.9461 371.628,57.1024 371.628,60.1961 L371.628,81.8993 C371.628,85.0086 371.628,85.1493 371.269,85.6493 C370.816,86.1961 369.816,86.3993 367.175,86.3993 L366.425,86.3993 L366.425,89.1024 M383.628,86.3993 C381.066,86.3524 380.628,85.8524 380.628,83.1493 L380.628,58.6961 C380.519,56.3993 381.128,55.8055 383.628,55.6961 L384.878,55.6961 C391.832,55.6961 395.175,60.5555 395.175,70.5555 C395.175,75.8993 394.128,80.7586 392.519,83.0086 C390.972,85.1024 388.019,86.3993 384.675,86.3993 L383.628,86.3993 "/>
<path class="RehearsalMark" fill="none" stroke="#000000" stroke-width="2.49" stroke-linecap="square" stroke-linejoin="miter" stroke-miterlimit="2" fill-rule="evenodd" d="M531.723,42.8809 L589.808,42.8809 L589.808,97.9659 L531.723,97.9659 L531.723,42.8809 "/>
<path class="RehearsalMark" d="M559.312,52.0641 L547.969,78.5797 C545.672,83.9703 543.812,85.9234 540.859,86.2203 L540.859,88.9234 L555.312,88.9234 L555.312,86.2203 C551.766,86.0172 550.359,85.0797 550.359,82.7672 C550.359,81.9234 550.562,81.1266 551.109,79.9234 L551.922,78.0172 L564.359,78.0172 L566.266,82.9234 C566.812,84.3297 566.859,84.5797 566.859,84.9703 C566.859,85.8766 566.172,86.1734 563.969,86.1734 L563.109,86.2203 L563.109,88.9234 L580.672,88.9234 L580.672,86.2203 C577.812,86.1266 577.016,85.6266 575.969,83.0797 L563.109,52.0641 L559.312,52.0641 M558.266,62.7203 L563.109,74.6734 L553.219,74.6734 L558.266,62.7203 "/>
<path class="RehearsalMark" fill="none" stroke="#000000" stroke-width="2.49" stroke-linecap="square" stroke-linejoin="miter" stroke-miterlimit="2" fill-rule="evenodd" d="M866.206,42.8809 L924.291,42.8809 L924.291,98.9659 L866.206,98.9659 L866.206,42.8809 "/>
<path class="RehearsalMark" d="M910.202,52.2672 L907.998,52.2672 L905.045,54.7672 C901.545,52.7672 899.155,52.0641 895.498,52.0641 C889.748,52.0641 884.842,54.1266 881.092,58.1266 C877.748,61.7203 876.202,65.9234 876.202,71.4234 C876.202,82.2672 883.295,89.6734 893.655,89.6734 C896.702,89.6734 899.748,88.9234 901.998,87.6266 C903.248,86.8766 904.045,86.2203 905.545,84.7203 L907.998,89.6266 L910.655,89.6266 L910.655,79.3766 C910.655,76.2203 910.655,76.0172 910.998,75.5797 C911.545,75.0172 912.295,74.8766 915.108,74.8297 L915.108,72.1266 L897.342,72.1266 L897.342,74.8297 L897.905,74.8297 C902.358,74.8766 902.405,74.9234 902.452,78.6266 L902.452,79.3766 C902.452,84.0172 899.498,87.0797 895.045,87.0797 C891.998,87.0797 889.498,85.4703 888.248,82.7672 C886.905,79.8766 886.202,75.8297 886.202,71.1266 C886.202,65.8297 887.202,61.4234 889.045,58.4234 C890.498,56.0641 893.155,54.6734 896.092,54.6734 C901.998,54.6734 906.358,59.0172 907.998,66.6266 L910.655,66.6266 L910.202,52.2672 "/>
<path class="RehearsalMark" fill="none" stroke="#000000" stroke-width="2.49" stroke-linecap="square" stroke-linejoin="miter" stroke-miterlimit="2" fill-rule="evenodd" d="M1013.93,45.0738 L1072.01,45.0738 L1072.01,99.1588 L1013.93,99.1588 L1013.93,45.0738 "/>
<path class="RehearsalMark" d="M1023.92,90.1163 L1042.31,90.1163 C1048.62,90.1163 1052.62,89.2101 1055.72,87.0226 C1060.17,83.9132 1062.62,78.5226 1062.62,71.6632 C1062.62,64.9132 1060.17,59.8195 1055.47,56.7101 C1052.42,54.7101 1048.76,54.007 1041.72,54.007 L1023.92,54.007 L1023.92,56.7101 L1024.67,56.7101 C1027.31,56.7101 1028.31,56.9132 1028.76,57.4601 C1029.12,57.9601 1029.12,58.1163 1029.12,61.2101 L1029.12,82.9132 C1029.12,86.0226 1029.12,86.1632 1028.76,86.6632 C1028.31,87.2101 1027.31,87.4132 1024.67,87.4132 L1023.92,87.4132 L1023.92,90.1163 M1041.12,87.4132 C1038.56,87.3663 1038.12,86.8663 1038.12,84.1632 L1038.12,59.7101 C1038.01,57.4132 1038.62,56.8195 1041.12,56.7101 L1042.37,56.7101 C1049.33,56.7101 1052.67,61.5695 1052.67,71.5695 C1052.67,76.9132 1051.62,81.7726 1050.01,84.0226 C1048.47,86.1163 1045.51,87.4132 1042.17,87.4132 L1041.12,87.4132 "/>
<path class="RehearsalMark" fill="none" stroke="#000000" stroke-width="2.49" stroke-linecap="square" stroke-linejoin="miter" stroke-miterlimit="2" fill-rule="evenodd" d="M1192.3,43.4395 L1242.39,43.4395 L1242.39,93.5246 L1192.3,93.5246 L1192.3,43.4395 "/>
<path class="RehearsalMark" d="M1231.58,52.7164 L1202.05,52.7164 L1202.05,55.0914 L1202.7,55.0914 C1205.05,55.0914 1205.92,55.2633 1206.31,55.7477 C1206.62,56.1852 1206.62,56.3102 1206.62,59.0446 L1206.62,78.1383 C1206.62,80.8727 1206.62,81.0133 1206.31,81.4508 C1205.92,81.9352 1205.05,82.1071 1202.7,82.1071 L1202.05,82.1071 L1202.05,84.4821 L1231.92,84.4821 L1232.45,72.6383 L1230.12,72.6383 C1228.45,79.0289 1225.16,82.0602 1219.83,82.1071 L1218.5,82.1071 C1215.3,82.2008 1214.5,81.5758 1214.55,78.9821 L1214.55,69.2633 L1215.3,69.2633 C1218.77,69.2633 1220.87,71.4508 1221.36,75.4977 L1223.75,75.4977 L1223.75,60.5914 L1221.36,60.5914 C1220.87,64.6383 1218.77,66.8414 1215.3,66.8414 L1214.55,66.8414 L1214.55,58.8727 C1214.45,55.7946 1215.08,55.1227 1218.33,55.0914 L1219.56,55.0914 C1225.06,55.2164 1227.7,57.5914 1229.55,64.1539 L1231.84,64.1539 L1231.58,52.7164 "/>
<path class="RehearsalMark" fill="none" stroke="#000000" stroke-width="2.49" stroke-linecap="square" stroke-linejoin="miter" stroke-miterlimit="2" fill-rule="evenodd" d="M1531.48,43.7839 L1584.56,43.7839 L1584.56,95.8689 L1531.48,95.8689 L1531.48,43.7839 "/>
<path class="RehearsalMark" d="M1571.16,53.5764 L1569.22,53.5764 L1566.63,55.7639 C1563.55,54.0139 1561.44,53.3889 1558.22,53.3889 C1553.16,53.3889 1548.85,55.2014 1545.55,58.7171 C1542.6,61.8889 1541.24,65.5764 1541.24,70.4202 C1541.24,79.9671 1547.49,86.4827 1556.6,86.4827 C1559.29,86.4827 1561.96,85.8264 1563.94,84.6858 C1565.05,84.0296 1565.75,83.4514 1567.07,82.1233 L1569.22,86.4358 L1571.55,86.4358 L1571.55,77.4202 C1571.55,74.6546 1571.55,74.4671 1571.86,74.0764 C1572.35,73.5921 1573,73.4671 1575.47,73.4202 L1575.47,71.0452 L1559.85,71.0452 L1559.85,73.4202 L1560.33,73.4202 C1564.25,73.4671 1564.3,73.4983 1564.33,76.7639 L1564.33,77.4202 C1564.33,81.5139 1561.74,84.2014 1557.83,84.2014 C1555.15,84.2014 1552.94,82.7952 1551.85,80.4202 C1550.66,77.8577 1550.04,74.2952 1550.04,70.1546 C1550.04,65.4983 1550.91,61.6233 1552.55,58.9827 C1553.82,56.9202 1556.16,55.6858 1558.75,55.6858 C1563.94,55.6858 1567.77,59.5139 1569.22,66.2014 L1571.55,66.2014 L1571.16,53.5764 "/>
<path class="RehearsalMark" fill="none" stroke="#000000" stroke-width="2.49" stroke-linecap="square" stroke-linejoin="miter" stroke-miterlimit="2" fill-rule="evenodd" d="M1681.38,47.8809 L1734.46,47.8809 L1734.46,97.9659 L1681.38,97.9659 L1681.38,47.8809 "/>
<path class="RehearsalMark" d="M1691.26,88.9234 L1707.45,88.9234 C1713,88.9234 1716.51,88.1266 1719.25,86.1891 C1723.15,83.4703 1725.31,78.7203 1725.31,72.6891 C1725.31,66.7516 1723.15,62.2516 1719.03,59.5328 C1716.34,57.7672 1713.12,57.1578 1706.92,57.1578 L1691.26,57.1578 L1691.26,59.5328 L1691.92,59.5328 C1694.25,59.5328 1695.12,59.7047 1695.53,60.1891 C1695.82,60.6266 1695.82,60.7516 1695.82,63.4859 L1695.82,82.5797 C1695.82,85.3141 1695.82,85.4547 1695.53,85.8922 C1695.12,86.3766 1694.25,86.5484 1691.92,86.5484 L1691.26,86.5484 L1691.26,88.9234 M1706.39,86.5484 C1704.15,86.5016 1703.75,86.0641 1703.75,83.6891 L1703.75,62.1734 C1703.67,60.1422 1704.2,59.6109 1706.39,59.5328 L1707.5,59.5328 C1713.61,59.5328 1716.56,63.7984 1716.56,72.5953 C1716.56,77.2984 1715.64,81.5797 1714.23,83.5484 C1712.86,85.4078 1710.26,86.5484 1707.32,86.5484 L1706.39,86.5484 "/>
<path class="RehearsalMark" fill="none" stroke="#000000" stroke-width="2.49" stroke-linecap="square" stroke-linejoin="miter" stroke-miterlimit="2" fill-rule="evenodd" d="M1843.78,46.523 L1897.87,46.523 L1897.87,97.608 L1843.78,97.608 L1843.78,46.523 "/>
<path class="RehearsalMark" d="M1869.28,56.128 L1859.28,79.4562 C1857.26,84.2062 1855.62,85.9249 1853.03,86.1905 L1853.03,88.5655 L1865.75,88.5655 L1865.75,86.1905 C1862.62,86.0187 1861.39,85.1749 1861.39,83.1593 C1861.39,82.4093 1861.57,81.7062 1862.06,80.6437 L1862.76,78.9718 L1873.71,78.9718 L1875.39,83.2843 C1875.87,84.5187 1875.92,84.7374 1875.92,85.0968 C1875.92,85.878 1875.29,86.1437 1873.36,86.1437 L1872.62,86.1905 L1872.62,88.5655 L1888.06,88.5655 L1888.06,86.1905 C1885.56,86.0968 1884.86,85.6593 1883.92,83.4093 L1872.62,56.128 L1869.28,56.128 M1868.34,65.503 L1872.62,76.0187 L1863.9,76.0187 L1868.34,65.503 "/>
<path class="RehearsalMark" fill="none" stroke="#000000" stroke-width="2.49" stroke-linecap="square" stroke-linejoin="miter" stroke-miterlimit="2" fill-rule="evenodd" d="M2152.07,43.7839 L2246.16,43.7839 L2246.16,94.8689 L2152.07,94.8689 L2152.07,43.7839 "/>
<path class="RehearsalMark" d="M2177.57,53.3889 L2167.57,76.7171 C2165.55,81.4671 2163.91,83.1858 2161.32,83.4514 L2161.32,85.8264 L2174.03,85.8264 L2174.03,83.4514 C2170.91,83.2796 2169.68,82.4358 2169.68,80.4202 C2169.68,79.6702 2169.86,78.9671 2170.35,77.9046 L2171.05,76.2327 L2182,76.2327 L2183.68,80.5452 C2184.16,81.7796 2184.21,81.9983 2184.21,82.3577 C2184.21,83.1389 2183.58,83.4046 2181.64,83.4046 L2180.91,83.4514 L2180.91,85.8264 L2196.35,85.8264 L2196.35,83.4514 C2193.85,83.3577 2193.14,82.9202 2192.21,80.6702 L2180.91,53.3889 L2177.57,53.3889 M2176.63,62.7639 L2180.91,73.2796 L2172.19,73.2796 L2176.63,62.7639 M2206.02,65.0139 L2195.99,65.3264 L2195.99,67.5608 L2196.69,67.5608 C2199.43,67.6077 2199.55,67.7796 2199.52,71.7014 L2199.52,79.4827 L2199.52,81.5139 L2199.52,81.8733 C2199.47,82.4827 2199.43,82.7483 2199.25,83.0139 C2198.94,83.4046 2198.11,83.5764 2196.21,83.5764 L2195.99,83.5764 L2195.99,85.8264 L2208.97,85.8264 L2208.97,83.5764 C2206.33,83.4983 2206.33,83.4983 2206.43,79.4827 L2206.43,73.5921 C2206.43,70.4202 2207.96,68.4514 2210.43,68.4514 C2212.14,68.4514 2212.85,69.5921 2212.85,72.5296 L2212.85,79.4827 C2212.94,83.4983 2212.89,83.4983 2210.33,83.5764 L2210.33,85.8264 L2222.32,85.8264 L2222.32,83.5764 C2219.71,83.4983 2219.68,83.4983 2219.75,79.4827 L2219.75,73.5921 C2219.75,70.4671 2221.35,68.4514 2223.75,68.4514 C2225.44,68.4514 2226.18,69.6389 2226.18,72.3577 L2226.18,79.4827 L2226.18,80.7171 L2226.18,81.9046 C2226.18,82.4827 2226.1,82.7014 2225.91,83.0139 C2225.57,83.4514 2225.08,83.5764 2223.63,83.5764 L2223.63,85.8264 L2236.57,85.8264 L2236.57,83.5764 L2236.39,83.5764 C2233.49,83.5452 2233.1,83.3108 2233.1,81.6858 L2233.1,79.4827 L2233.1,70.7327 C2233.1,67.1233 2230.1,64.3577 2226.22,64.3577 C2223.36,64.3577 2221.38,65.4983 2219.27,68.3108 C2218.3,65.8108 2216.02,64.3577 2213.07,64.3577 C2210.11,64.3577 2207.78,65.7171 2206.02,68.4827 L2206.02,65.0139 "/>
<path class="RehearsalMark" fill="none" stroke="#000000" stroke-width="2.49" stroke-linecap="square" stroke-linejoin="miter" stroke-miterlimit="2" fill-rule="evenodd" d="M2331.76,42.7974 L2384.84,42.7974 L2384.84,94.8825 L2331.76,94.8825 L2331.76,42.7974 "/>
<path class="RehearsalMark" d="M2371.44,52.59 L2369.51,52.59 L2366.91,54.7775 C2363.83,53.0275 2361.72,52.4025 2358.51,52.4025 C2353.44,52.4025 2349.13,54.215 2345.83,57.7306 C2342.88,60.9025 2341.52,64.59 2341.52,69.4337 C2341.52,78.9806 2347.77,85.4962 2356.88,85.4962 C2359.57,85.4962 2362.24,84.84 2364.22,83.6993 C2365.33,83.0431 2366.04,82.465 2367.35,81.1368 L2369.51,85.4493 L2371.83,85.4493 L2371.83,76.4337 C2371.83,73.6681 2371.83,73.4806 2372.15,73.09 C2372.63,72.6056 2373.29,72.4806 2375.76,72.4337 L2375.76,70.0587 L2360.13,70.0587 L2360.13,72.4337 L2360.61,72.4337 C2364.54,72.4806 2364.58,72.5118 2364.61,75.7775 L2364.61,76.4337 C2364.61,80.5275 2362.02,83.215 2358.11,83.215 C2355.43,83.215 2353.22,81.8087 2352.13,79.4337 C2350.94,76.8712 2350.32,73.3087 2350.32,69.1681 C2350.32,64.5118 2351.19,60.6368 2352.83,57.9962 C2354.1,55.9337 2356.44,54.6993 2359.04,54.6993 C2364.22,54.6993 2368.05,58.5275 2369.51,65.215 L2371.83,65.215 L2371.44,52.59 "/>
<path class="RehearsalMark" fill="none" stroke="#000000" stroke-width="2.49" stroke-linecap="square" stroke-linejoin="miter" stroke-miterlimit="2" fill-rule="evenodd" d="M2480.36,44.908 L2574.44,44.908 L2574.44,95.993 L2480.36,95.993 L2480.36,44.908 "/>
<path class="RehearsalMark" d="M2505.85,54.513 L2495.85,77.8411 C2493.84,82.5911 2492.2,84.3099 2489.6,84.5755 L2489.6,86.9505 L2502.32,86.9505 L2502.32,84.5755 C2499.2,84.4036 2497.96,83.5599 2497.96,81.5442 C2497.96,80.7942 2498.15,80.0911 2498.64,79.0286 L2499.34,77.3567 L2510.29,77.3567 L2511.96,81.6692 C2512.45,82.9036 2512.5,83.1224 2512.5,83.4817 C2512.5,84.263 2511.87,84.5286 2509.93,84.5286 L2509.2,84.5755 L2509.2,86.9505 L2524.64,86.9505 L2524.64,84.5755 C2522.14,84.4817 2521.43,84.0442 2520.5,81.7942 L2509.2,54.513 L2505.85,54.513 M2504.92,63.888 L2509.2,74.4036 L2500.48,74.4036 L2504.92,63.888 M2534.31,66.138 L2524.28,66.4505 L2524.28,68.6849 L2524.98,68.6849 C2527.71,68.7317 2527.84,68.9036 2527.81,72.8255 L2527.81,80.6067 L2527.81,82.638 L2527.81,82.9974 C2527.76,83.6067 2527.71,83.8724 2527.54,84.138 C2527.23,84.5286 2526.4,84.7005 2524.5,84.7005 L2524.28,84.7005 L2524.28,86.9505 L2537.26,86.9505 L2537.26,84.7005 C2534.62,84.6224 2534.62,84.6224 2534.71,80.6067 L2534.71,74.7161 C2534.71,71.5442 2536.25,69.5755 2538.71,69.5755 C2540.43,69.5755 2541.14,70.7161 2541.14,73.6536 L2541.14,80.6067 C2541.23,84.6224 2541.18,84.6224 2538.62,84.7005 L2538.62,86.9505 L2550.6,86.9505 L2550.6,84.7005 C2548,84.6224 2547.96,84.6224 2548.04,80.6067 L2548.04,74.7161 C2548.04,71.5911 2549.64,69.5755 2552.04,69.5755 C2553.73,69.5755 2554.46,70.763 2554.46,73.4817 L2554.46,80.6067 L2554.46,81.8411 L2554.46,83.0286 C2554.46,83.6067 2554.39,83.8255 2554.2,84.138 C2553.85,84.5755 2553.37,84.7005 2551.92,84.7005 L2551.92,86.9505 L2564.85,86.9505 L2564.85,84.7005 L2564.68,84.7005 C2561.78,84.6692 2561.39,84.4349 2561.39,82.8099 L2561.39,80.6067 L2561.39,71.8567 C2561.39,68.2474 2558.39,65.4817 2554.51,65.4817 C2551.65,65.4817 2549.67,66.6224 2547.56,69.4349 C2546.59,66.9349 2544.31,65.4817 2541.35,65.4817 C2538.4,65.4817 2536.07,66.8411 2534.31,69.6067 L2534.31,66.138 "/>
<path class="RehearsalMark" fill="none" stroke="#000000" stroke-width="2.49" stroke-linecap="square" stroke-linejoin="miter" stroke-miterlimit="2" fill-rule="evenodd" d="M109.848,234.666 L214.933,234.666 L214.933,289.751 L109.848,289.751 L109.848,234.666 "/>
<path class="RehearsalMark" d="M137.438,243.849 L126.094,270.365 C123.797,275.755 121.938,277.708 118.984,278.005 L118.984,280.708 L133.438,280.708 L133.438,278.005 C129.891,277.802 128.484,276.865 128.484,274.552 C128.484,273.708 128.688,272.911 129.234,271.708 L130.047,269.802 L142.484,269.802 L144.391,274.708 C144.938,276.115 144.984,276.365 144.984,276.755 C144.984,277.661 144.297,277.958 142.094,277.958 L141.234,278.005 L141.234,280.708 L158.797,280.708 L158.797,278.005 C155.938,277.911 155.141,277.411 154.094,274.865 L141.234,243.849 L137.438,243.849 M136.391,254.505 L141.234,266.458 L131.344,266.458 L136.391,254.505 M170.297,257.052 L158.891,257.411 L158.891,259.958 L159.688,259.958 C162.797,260.005 162.938,260.208 162.891,264.661 L162.891,273.505 L162.891,275.802 L162.891,276.208 C162.844,276.911 162.797,277.208 162.594,277.505 C162.234,277.958 161.297,278.161 159.141,278.161 L158.891,278.161 L158.891,280.708 L173.641,280.708 L173.641,278.161 C170.641,278.052 170.641,278.052 170.734,273.505 L170.734,266.802 C170.734,263.208 172.484,260.958 175.297,260.958 C177.234,260.958 178.047,262.255 178.047,265.615 L178.047,273.505 C178.141,278.052 178.094,278.052 175.188,278.161 L175.188,280.708 L188.797,280.708 L188.797,278.161 C185.844,278.052 185.797,278.052 185.891,273.505 L185.891,266.802 C185.891,263.255 187.688,260.958 190.438,260.958 C192.344,260.958 193.188,262.302 193.188,265.411 L193.188,273.505 L193.188,274.911 L193.188,276.255 C193.188,276.911 193.094,277.161 192.891,277.505 C192.5,278.005 191.938,278.161 190.297,278.161 L190.297,280.708 L205,280.708 L205,278.161 L204.797,278.161 C201.5,278.115 201.047,277.865 201.047,276.005 L201.047,273.505 L201.047,263.552 C201.047,259.458 197.641,256.302 193.25,256.302 C190,256.302 187.75,257.615 185.344,260.802 C184.25,257.958 181.641,256.302 178.297,256.302 C174.938,256.302 172.297,257.865 170.297,261.005 L170.297,257.052 "/>
<path class="RehearsalMark" fill="none" stroke="#000000" stroke-width="2.49" stroke-linecap="square" stroke-linejoin="miter" stroke-miterlimit="2" fill-rule="evenodd" d="M311.222,234.845 L369.307,234.845 L369.307,290.93 L311.222,290.93 L311.222,234.845 "/>
<path class="RehearsalMark" d="M355.218,244.231 L353.015,244.231 L350.061,246.731 C346.561,244.731 344.171,244.028 340.515,244.028 C334.765,244.028 329.858,246.09 326.108,250.09 C322.765,253.684 321.218,257.887 321.218,263.387 C321.218,274.231 328.311,281.637 338.671,281.637 C341.718,281.637 344.765,280.887 347.015,279.59 C348.265,278.84 349.061,278.184 350.561,276.684 L353.015,281.59 L355.671,281.59 L355.671,271.34 C355.671,268.184 355.671,267.981 356.015,267.544 C356.561,266.981 357.311,266.84 360.124,266.794 L360.124,264.09 L342.358,264.09 L342.358,266.794 L342.921,266.794 C347.374,266.84 347.421,266.887 347.468,270.59 L347.468,271.34 C347.468,275.981 344.515,279.044 340.061,279.044 C337.015,279.044 334.515,277.434 333.265,274.731 C331.921,271.84 331.218,267.794 331.218,263.09 C331.218,257.794 332.218,253.387 334.061,250.387 C335.515,248.028 338.171,246.637 341.108,246.637 C347.015,246.637 351.374,250.981 353.015,258.59 L355.671,258.59 L355.218,244.231 "/>
<path class="RehearsalMark" fill="none" stroke="#000000" stroke-width="2.49" stroke-linecap="square" stroke-linejoin="miter" stroke-miterlimit="2" fill-rule="evenodd" d="M446.208,235.024 L551.293,235.024 L551.293,290.109 L446.208,290.109 L446.208,235.024 "/>
<path class="RehearsalMark" d="M473.798,244.207 L462.454,270.722 C460.157,276.113 458.298,278.066 455.345,278.363 L455.345,281.066 L469.798,281.066 L469.798,278.363 C466.251,278.16 464.845,277.222 464.845,274.91 C464.845,274.066 465.048,273.269 465.595,272.066 L466.407,270.16 L478.845,270.16 L480.751,275.066 C481.298,276.472 481.345,276.722 481.345,277.113 C481.345,278.019 480.657,278.316 478.454,278.316 L477.595,278.363 L477.595,281.066 L495.157,281.066 L495.157,278.363 C492.298,278.269 491.501,277.769 490.454,275.222 L477.595,244.207 L473.798,244.207 M472.751,254.863 L477.595,266.816 L467.704,266.816 L472.751,254.863 M506.657,257.41 L495.251,257.769 L495.251,260.316 L496.048,260.316 C499.157,260.363 499.298,260.566 499.251,265.019 L499.251,273.863 L499.251,276.16 L499.251,276.566 C499.204,277.269 499.157,277.566 498.954,277.863 C498.595,278.316 497.657,278.519 495.501,278.519 L495.251,278.519 L495.251,281.066 L510.001,281.066 L510.001,278.519 C507.001,278.41 507.001,278.41 507.095,273.863 L507.095,267.16 C507.095,263.566 508.845,261.316 511.657,261.316 C513.595,261.316 514.407,262.613 514.407,265.972 L514.407,273.863 C514.501,278.41 514.454,278.41 511.548,278.519 L511.548,281.066 L525.157,281.066 L525.157,278.519 C522.204,278.41 522.157,278.41 522.251,273.863 L522.251,267.16 C522.251,263.613 524.048,261.316 526.798,261.316 C528.704,261.316 529.548,262.66 529.548,265.769 L529.548,273.863 L529.548,275.269 L529.548,276.613 C529.548,277.269 529.454,277.519 529.251,277.863 C528.86,278.363 528.298,278.519 526.657,278.519 L526.657,281.066 L541.36,281.066 L541.36,278.519 L541.157,278.519 C537.86,278.472 537.407,278.222 537.407,276.363 L537.407,273.863 L537.407,263.91 C537.407,259.816 534.001,256.66 529.61,256.66 C526.36,256.66 524.11,257.972 521.704,261.16 C520.61,258.316 518.001,256.66 514.657,256.66 C511.298,256.66 508.657,258.222 506.657,261.363 L506.657,257.41 "/>
<path class="RehearsalMark" fill="none" stroke="#000000" stroke-width="2.49" stroke-linecap="square" stroke-linejoin="miter" stroke-miterlimit="2" fill-rule="evenodd" d="M768.756,240.86 L873.841,240.86 L873.841,295.945 L768.756,295.945 L768.756,240.86 "/>
<path class="RehearsalMark" d="M796.346,250.043 L785.002,276.559 C782.705,281.949 780.846,283.902 777.893,284.199 L777.893,286.902 L792.346,286.902 L792.346,284.199 C788.799,283.996 787.393,283.059 787.393,280.746 C787.393,279.902 787.596,279.105 788.143,277.902 L788.955,275.996 L801.393,275.996 L803.299,280.902 C803.846,282.309 803.893,282.559 803.893,282.949 C803.893,283.855 803.205,284.152 801.002,284.152 L800.143,284.199 L800.143,286.902 L817.705,286.902 L817.705,284.199 C814.846,284.105 814.049,283.605 813.002,281.059 L800.143,250.043 L796.346,250.043 M795.299,260.699 L800.143,272.652 L790.252,272.652 L795.299,260.699 M829.205,263.246 L817.799,263.605 L817.799,266.152 L818.596,266.152 C821.705,266.199 821.846,266.402 821.799,270.855 L821.799,279.699 L821.799,281.996 L821.799,282.402 C821.752,283.105 821.705,283.402 821.502,283.699 C821.143,284.152 820.205,284.355 818.049,284.355 L817.799,284.355 L817.799,286.902 L832.549,286.902 L832.549,284.355 C829.549,284.246 829.549,284.246 829.643,279.699 L829.643,272.996 C829.643,269.402 831.393,267.152 834.205,267.152 C836.143,267.152 836.955,268.449 836.955,271.809 L836.955,279.699 C837.049,284.246 837.002,284.246 834.096,284.355 L834.096,286.902 L847.705,286.902 L847.705,284.355 C844.752,284.246 844.705,284.246 844.799,279.699 L844.799,272.996 C844.799,269.449 846.596,267.152 849.346,267.152 C851.252,267.152 852.096,268.496 852.096,271.605 L852.096,279.699 L852.096,281.105 L852.096,282.449 C852.096,283.105 852.002,283.355 851.799,283.699 C851.408,284.199 850.846,284.355 849.205,284.355 L849.205,286.902 L863.908,286.902 L863.908,284.355 L863.705,284.355 C860.408,284.309 859.955,284.059 859.955,282.199 L859.955,279.699 L859.955,269.746 C859.955,265.652 856.549,262.496 852.158,262.496 C848.908,262.496 846.658,263.809 844.252,266.996 C843.158,264.152 840.549,262.496 837.205,262.496 C833.846,262.496 831.205,264.059 829.205,267.199 L829.205,263.246 "/>
<path class="RehearsalMark" fill="none" stroke="#000000" stroke-width="2.49" stroke-linecap="square" stroke-linejoin="miter" stroke-miterlimit="2" fill-rule="evenodd" d="M965.609,239.782 L1023.69,239.782 L1023.69,295.867 L965.609,295.867 L965.609,239.782 "/>
<path class="RehearsalMark" d="M1009.6,249.168 L1007.4,249.168 L1004.45,251.668 C1000.95,249.668 998.558,248.965 994.901,248.965 C989.151,248.965 984.245,251.027 980.495,255.027 C977.151,258.621 975.605,262.824 975.605,268.324 C975.605,279.168 982.698,286.574 993.058,286.574 C996.105,286.574 999.151,285.824 1001.4,284.527 C1002.65,283.777 1003.45,283.121 1004.95,281.621 L1007.4,286.527 L1010.06,286.527 L1010.06,276.277 C1010.06,273.121 1010.06,272.918 1010.4,272.48 C1010.95,271.918 1011.7,271.777 1014.51,271.73 L1014.51,269.027 L996.745,269.027 L996.745,271.73 L997.308,271.73 C1001.76,271.777 1001.81,271.824 1001.85,275.527 L1001.85,276.277 C1001.85,280.918 998.901,283.98 994.448,283.98 C991.401,283.98 988.901,282.371 987.651,279.668 C986.308,276.777 985.605,272.73 985.605,268.027 C985.605,262.73 986.605,258.324 988.448,255.324 C989.901,252.965 992.558,251.574 995.495,251.574 C1001.4,251.574 1005.76,255.918 1007.4,263.527 L1010.06,263.527 L1009.6,249.168 "/>
<path class="RehearsalMark" fill="none" stroke="#000000" stroke-width="2.49" stroke-linecap="square" stroke-linejoin="miter" stroke-miterlimit="2" fill-rule="evenodd" d="M1128.47,243.058 L1233.55,243.058 L1233.55,298.143 L1128.47,298.143 L1128.47,243.058 "/>
<path class="RehearsalMark" d="M1156.06,252.241 L1144.71,278.756 C1142.42,284.147 1140.56,286.1 1137.6,286.397 L1137.6,289.1 L1152.06,289.1 L1152.06,286.397 C1148.51,286.194 1147.1,285.256 1147.1,282.944 C1147.1,282.1 1147.31,281.303 1147.85,280.1 L1148.67,278.194 L1161.1,278.194 L1163.01,283.1 C1163.56,284.506 1163.6,284.756 1163.6,285.147 C1163.6,286.053 1162.92,286.35 1160.71,286.35 L1159.85,286.397 L1159.85,289.1 L1177.42,289.1 L1177.42,286.397 C1174.56,286.303 1173.76,285.803 1172.71,283.256 L1159.85,252.241 L1156.06,252.241 M1155.01,262.897 L1159.85,274.85 L1149.96,274.85 L1155.01,262.897 M1188.92,265.444 L1177.51,265.803 L1177.51,268.35 L1178.31,268.35 C1181.42,268.397 1181.56,268.6 1181.51,273.053 L1181.51,281.897 L1181.51,284.194 L1181.51,284.6 C1181.46,285.303 1181.42,285.6 1181.21,285.897 C1180.85,286.35 1179.92,286.553 1177.76,286.553 L1177.51,286.553 L1177.51,289.1 L1192.26,289.1 L1192.26,286.553 C1189.26,286.444 1189.26,286.444 1189.35,281.897 L1189.35,275.194 C1189.35,271.6 1191.1,269.35 1193.92,269.35 C1195.85,269.35 1196.67,270.647 1196.67,274.006 L1196.67,281.897 C1196.76,286.444 1196.71,286.444 1193.81,286.553 L1193.81,289.1 L1207.42,289.1 L1207.42,286.553 C1204.46,286.444 1204.42,286.444 1204.51,281.897 L1204.51,275.194 C1204.51,271.647 1206.31,269.35 1209.06,269.35 C1210.96,269.35 1211.81,270.694 1211.81,273.803 L1211.81,281.897 L1211.81,283.303 L1211.81,284.647 C1211.81,285.303 1211.71,285.553 1211.51,285.897 C1211.12,286.397 1210.56,286.553 1208.92,286.553 L1208.92,289.1 L1223.62,289.1 L1223.62,286.553 L1223.42,286.553 C1220.12,286.506 1219.67,286.256 1219.67,284.397 L1219.67,281.897 L1219.67,271.944 C1219.67,267.85 1216.26,264.694 1211.87,264.694 C1208.62,264.694 1206.37,266.006 1203.96,269.194 C1202.87,266.35 1200.26,264.694 1196.92,264.694 C1193.56,264.694 1190.92,266.256 1188.92,269.397 L1188.92,265.444 "/>
<path class="RehearsalMark" fill="none" stroke="#000000" stroke-width="2.49" stroke-linecap="square" stroke-linejoin="miter" stroke-miterlimit="2" fill-rule="evenodd" d="M1454.11,237.763 L1559.2,237.763 L1559.2,292.848 L1454.11,292.848 L1454.11,237.763 "/>
<path class="RehearsalMark" d="M1481.7,246.946 L1470.36,273.462 C1468.06,278.852 1466.2,280.805 1463.25,281.102 L1463.25,283.805 L1477.7,283.805 L1477.7,281.102 C1474.16,280.899 1472.75,279.962 1472.75,277.649 C1472.75,276.805 1472.95,276.008 1473.5,274.805 L1474.31,272.899 L1486.75,272.899 L1488.66,277.805 C1489.2,279.212 1489.25,279.462 1489.25,279.852 C1489.25,280.758 1488.56,281.055 1486.36,281.055 L1485.5,281.102 L1485.5,283.805 L1503.06,283.805 L1503.06,281.102 C1500.2,281.008 1499.41,280.508 1498.36,277.962 L1485.5,246.946 L1481.7,246.946 M1480.66,257.602 L1485.5,269.555 L1475.61,269.555 L1480.66,257.602 M1514.56,260.149 L1503.16,260.508 L1503.16,263.055 L1503.95,263.055 C1507.06,263.102 1507.2,263.305 1507.16,267.758 L1507.16,276.602 L1507.16,278.899 L1507.16,279.305 C1507.11,280.008 1507.06,280.305 1506.86,280.602 C1506.5,281.055 1505.56,281.258 1503.41,281.258 L1503.16,281.258 L1503.16,283.805 L1517.91,283.805 L1517.91,281.258 C1514.91,281.149 1514.91,281.149 1515,276.602 L1515,269.899 C1515,266.305 1516.75,264.055 1519.56,264.055 C1521.5,264.055 1522.31,265.352 1522.31,268.712 L1522.31,276.602 C1522.41,281.149 1522.36,281.149 1519.45,281.258 L1519.45,283.805 L1533.06,283.805 L1533.06,281.258 C1530.11,281.149 1530.06,281.149 1530.16,276.602 L1530.16,269.899 C1530.16,266.352 1531.95,264.055 1534.7,264.055 C1536.61,264.055 1537.45,265.399 1537.45,268.508 L1537.45,276.602 L1537.45,278.008 L1537.45,279.352 C1537.45,280.008 1537.36,280.258 1537.16,280.602 C1536.77,281.102 1536.2,281.258 1534.56,281.258 L1534.56,283.805 L1549.27,283.805 L1549.27,281.258 L1549.06,281.258 C1545.77,281.212 1545.31,280.962 1545.31,279.102 L1545.31,276.602 L1545.31,266.649 C1545.31,262.555 1541.91,259.399 1537.52,259.399 C1534.27,259.399 1532.02,260.712 1529.61,263.899 C1528.52,261.055 1525.91,259.399 1522.56,259.399 C1519.2,259.399 1516.56,260.962 1514.56,264.102 L1514.56,260.149 "/>
<path class="RehearsalMark" fill="none" stroke="#000000" stroke-width="2.49" stroke-linecap="square" stroke-linejoin="miter" stroke-miterlimit="2" fill-rule="evenodd" d="M1635.48,241.039 L1693.57,241.039 L1693.57,297.124 L1635.48,297.124 L1635.48,241.039 "/>
<path class="RehearsalMark" d="M1679.48,250.425 L1677.27,250.425 L1674.32,252.925 C1670.82,250.925 1668.43,250.222 1664.77,250.222 C1659.02,250.222 1654.12,252.284 1650.37,256.284 C1647.02,259.878 1645.48,264.081 1645.48,269.581 C1645.48,280.425 1652.57,287.831 1662.93,287.831 C1665.98,287.831 1669.02,287.081 1671.27,285.784 C1672.52,285.034 1673.32,284.378 1674.82,282.878 L1677.27,287.784 L1679.93,287.784 L1679.93,277.534 C1679.93,274.378 1679.93,274.175 1680.27,273.738 C1680.82,273.175 1681.57,273.034 1684.38,272.988 L1684.38,270.284 L1666.62,270.284 L1666.62,272.988 L1667.18,272.988 C1671.63,273.034 1671.68,273.081 1671.73,276.784 L1671.73,277.534 C1671.73,282.175 1668.77,285.238 1664.32,285.238 C1661.27,285.238 1658.77,283.628 1657.52,280.925 C1656.18,278.034 1655.48,273.988 1655.48,269.284 C1655.48,263.988 1656.48,259.581 1658.32,256.581 C1659.77,254.222 1662.43,252.831 1665.37,252.831 C1671.27,252.831 1675.63,257.175 1677.27,264.784 L1679.93,264.784 L1679.48,250.425 "/>
<path class="RehearsalMark" fill="none" stroke="#000000" stroke-width="2.49" stroke-linecap="square" stroke-linejoin="miter" stroke-miterlimit="2" fill-rule="evenodd" d="M1795.24,238.121 L1900.33,238.121 L1900.33,293.206 L1795.24,293.206 L1795.24,238.121 "/>
<path class="RehearsalMark" d="M1822.83,247.304 L1811.49,273.819 C1809.19,279.21 1807.33,281.163 1804.38,281.46 L1804.38,284.163 L1818.83,284.163 L1818.83,281.46 C1815.29,281.257 1813.88,280.319 1813.88,278.007 C1813.88,277.163 1814.08,276.366 1814.63,275.163 L1815.44,273.257 L1827.88,273.257 L1829.79,278.163 C1830.33,279.569 1830.38,279.819 1830.38,280.21 C1830.38,281.116 1829.69,281.413 1827.49,281.413 L1826.63,281.46 L1826.63,284.163 L1844.19,284.163 L1844.19,281.46 C1841.33,281.366 1840.54,280.866 1839.49,278.319 L1826.63,247.304 L1822.83,247.304 M1821.79,257.96 L1826.63,269.913 L1816.74,269.913 L1821.79,257.96 M1855.69,260.507 L1844.29,260.866 L1844.29,263.413 L1845.08,263.413 C1848.19,263.46 1848.33,263.663 1848.29,268.116 L1848.29,276.96 L1848.29,279.257 L1848.29,279.663 C1848.24,280.366 1848.19,280.663 1847.99,280.96 C1847.63,281.413 1846.69,281.616 1844.54,281.616 L1844.29,281.616 L1844.29,284.163 L1859.04,284.163 L1859.04,281.616 C1856.04,281.507 1856.04,281.507 1856.13,276.96 L1856.13,270.257 C1856.13,266.663 1857.88,264.413 1860.69,264.413 C1862.63,264.413 1863.44,265.71 1863.44,269.069 L1863.44,276.96 C1863.54,281.507 1863.49,281.507 1860.58,281.616 L1860.58,284.163 L1874.19,284.163 L1874.19,281.616 C1871.24,281.507 1871.19,281.507 1871.29,276.96 L1871.29,270.257 C1871.29,266.71 1873.08,264.413 1875.83,264.413 C1877.74,264.413 1878.58,265.757 1878.58,268.866 L1878.58,276.96 L1878.58,278.366 L1878.58,279.71 C1878.58,280.366 1878.49,280.616 1878.29,280.96 C1877.9,281.46 1877.33,281.616 1875.69,281.616 L1875.69,284.163 L1890.4,284.163 L1890.4,281.616 L1890.19,281.616 C1886.9,281.569 1886.44,281.319 1886.44,279.46 L1886.44,276.96 L1886.44,267.007 C1886.44,262.913 1883.04,259.757 1878.65,259.757 C1875.4,259.757 1873.15,261.069 1870.74,264.257 C1869.65,261.413 1867.04,259.757 1863.69,259.757 C1860.33,259.757 1857.69,261.319 1855.69,264.46 L1855.69,260.507 "/>
<path class="RehearsalMark" fill="none" stroke="#000000" stroke-width="2.49" stroke-linecap="square" stroke-linejoin="miter" stroke-miterlimit="2" fill-rule="evenodd" d="M2133.28,237.763 L2238.36,237.763 L2238.36,292.848 L2133.28,292.848 L2133.28,237.763 "/>
<path class="RehearsalMark" d="M2160.87,246.946 L2149.52,273.462 C2147.22,278.852 2145.37,280.805 2142.41,281.102 L2142.41,283.805 L2156.87,283.805 L2156.87,281.102 C2153.32,280.899 2151.91,279.962 2151.91,277.649 C2151.91,276.805 2152.12,276.008 2152.66,274.805 L2153.47,272.899 L2165.91,272.899 L2167.82,277.805 C2168.37,279.212 2168.41,279.462 2168.41,279.852 C2168.41,280.758 2167.72,281.055 2165.52,281.055 L2164.66,281.102 L2164.66,283.805 L2182.22,283.805 L2182.22,281.102 C2179.37,281.008 2178.57,280.508 2177.52,277.962 L2164.66,246.946 L2160.87,246.946 M2159.82,257.602 L2164.66,269.555 L2154.77,269.555 L2159.82,257.602 M2193.72,260.149 L2182.32,260.508 L2182.32,263.055 L2183.12,263.055 C2186.22,263.102 2186.37,263.305 2186.32,267.758 L2186.32,276.602 L2186.32,278.899 L2186.32,279.305 C2186.27,280.008 2186.22,280.305 2186.02,280.602 C2185.66,281.055 2184.72,281.258 2182.57,281.258 L2182.32,281.258 L2182.32,283.805 L2197.07,283.805 L2197.07,281.258 C2194.07,281.149 2194.07,281.149 2194.16,276.602 L2194.16,269.899 C2194.16,266.305 2195.91,264.055 2198.72,264.055 C2200.66,264.055 2201.47,265.352 2201.47,268.712 L2201.47,276.602 C2201.57,281.149 2201.52,281.149 2198.62,281.258 L2198.62,283.805 L2212.22,283.805 L2212.22,281.258 C2209.27,281.149 2209.22,281.149 2209.32,276.602 L2209.32,269.899 C2209.32,266.352 2211.12,264.055 2213.87,264.055 C2215.77,264.055 2216.62,265.399 2216.62,268.508 L2216.62,276.602 L2216.62,278.008 L2216.62,279.352 C2216.62,280.008 2216.52,280.258 2216.32,280.602 C2215.93,281.102 2215.37,281.258 2213.72,281.258 L2213.72,283.805 L2228.43,283.805 L2228.43,281.258 L2228.22,281.258 C2224.93,281.212 2224.47,280.962 2224.47,279.102 L2224.47,276.602 L2224.47,266.649 C2224.47,262.555 2221.07,259.399 2216.68,259.399 C2213.43,259.399 2211.18,260.712 2208.77,263.899 C2207.68,261.055 2205.07,259.399 2201.72,259.399 C2198.37,259.399 2195.72,260.962 2193.72,264.102 L2193.72,260.149 "/>
<path class="RehearsalMark" fill="none" stroke="#000000" stroke-width="2.49" stroke-linecap="square" stroke-linejoin="miter" stroke-miterlimit="2" fill-rule="evenodd" d="M2320.84,241.039 L2378.92,241.039 L2378.92,297.124 L2320.84,297.124 L2320.84,241.039 "/>
<path class="RehearsalMark" d="M2364.83,250.425 L2362.63,250.425 L2359.68,252.925 C2356.18,250.925 2353.79,250.222 2350.13,250.222 C2344.38,250.222 2339.47,252.284 2335.72,256.284 C2332.38,259.878 2330.83,264.081 2330.83,269.581 C2330.83,280.425 2337.93,287.831 2348.29,287.831 C2351.33,287.831 2354.38,287.081 2356.63,285.784 C2357.88,285.034 2358.68,284.378 2360.18,282.878 L2362.63,287.784 L2365.29,287.784 L2365.29,277.534 C2365.29,274.378 2365.29,274.175 2365.63,273.738 C2366.18,273.175 2366.93,273.034 2369.74,272.988 L2369.74,270.284 L2351.97,270.284 L2351.97,272.988 L2352.54,272.988 C2356.99,273.034 2357.04,273.081 2357.08,276.784 L2357.08,277.534 C2357.08,282.175 2354.13,285.238 2349.68,285.238 C2346.63,285.238 2344.13,283.628 2342.88,280.925 C2341.54,278.034 2340.83,273.988 2340.83,269.284 C2340.83,263.988 2341.83,259.581 2343.68,256.581 C2345.13,254.222 2347.79,252.831 2350.72,252.831 C2356.63,252.831 2360.99,257.175 2362.63,264.784 L2365.29,264.784 L2364.83,250.425 "/>
<path class="RehearsalMark" fill="none" stroke="#000000" stroke-width="2.49" stroke-linecap="square" stroke-linejoin="miter" stroke-miterlimit="2" fill-rule="evenodd" d="M2489.2,235.569 L2583.28,235.569 L2583.28,286.654 L2489.2,286.654 L2489.2,235.569 "/>
<path class="RehearsalMark" d="M2514.69,245.174 L2504.69,268.502 C2502.68,273.252 2501.04,274.971 2498.44,275.236 L2498.44,277.611 L2511.16,277.611 L2511.16,275.236 C2508.04,275.064 2506.8,274.221 2506.8,272.205 C2506.8,271.455 2506.99,270.752 2507.47,269.689 L2508.18,268.018 L2519.13,268.018 L2520.8,272.33 C2521.29,273.564 2521.33,273.783 2521.33,274.143 C2521.33,274.924 2520.71,275.189 2518.77,275.189 L2518.04,275.236 L2518.04,277.611 L2533.47,277.611 L2533.47,275.236 C2530.97,275.143 2530.27,274.705 2529.33,272.455 L2518.04,245.174 L2514.69,245.174 M2513.76,254.549 L2518.04,265.064 L2509.32,265.064 L2513.76,254.549 M2543.15,256.799 L2533.11,257.111 L2533.11,259.346 L2533.82,259.346 C2536.55,259.393 2536.68,259.564 2536.65,263.486 L2536.65,271.268 L2536.65,273.299 L2536.65,273.658 C2536.6,274.268 2536.55,274.533 2536.38,274.799 C2536.07,275.189 2535.24,275.361 2533.33,275.361 L2533.11,275.361 L2533.11,277.611 L2546.1,277.611 L2546.1,275.361 C2543.46,275.283 2543.46,275.283 2543.55,271.268 L2543.55,265.377 C2543.55,262.205 2545.08,260.236 2547.55,260.236 C2549.27,260.236 2549.97,261.377 2549.97,264.314 L2549.97,271.268 C2550.07,275.283 2550.02,275.283 2547.46,275.361 L2547.46,277.611 L2559.44,277.611 L2559.44,275.361 C2556.83,275.283 2556.8,275.283 2556.88,271.268 L2556.88,265.377 C2556.88,262.252 2558.47,260.236 2560.88,260.236 C2562.57,260.236 2563.3,261.424 2563.3,264.143 L2563.3,271.268 L2563.3,272.502 L2563.3,273.689 C2563.3,274.268 2563.22,274.486 2563.04,274.799 C2562.69,275.236 2562.21,275.361 2560.76,275.361 L2560.76,277.611 L2573.69,277.611 L2573.69,275.361 L2573.52,275.361 C2570.61,275.33 2570.22,275.096 2570.22,273.471 L2570.22,271.268 L2570.22,262.518 C2570.22,258.908 2567.22,256.143 2563.35,256.143 C2560.49,256.143 2558.51,257.283 2556.4,260.096 C2555.43,257.596 2553.15,256.143 2550.19,256.143 C2547.24,256.143 2544.91,257.502 2543.15,260.268 L2543.15,256.799 "/>
</svg>
