<?xml version="1.0" encoding="UTF-8" standalone="no"?>
<svg width="2976.38px" height="1417.32px" viewBox="0 0 2976.38 1417.32"
 xmlns="http://www.w3.org/2000/svg" xmlns:xlink="http://www.w3.org/1999/xlink" version="1.2" baseProfile="tiny">
<title>CampMeeting_Fourth_Of_July</title>
<desc>Generated by MuseScore 3.6.2</desc>
<polyline class="StaffLines" fill="none" stroke="#000000" stroke-width="2.73" stroke-linejoin="bevel" points="138.189,187.795 2933.86,187.795"/>
<polyline class="StaffLines" fill="none" stroke="#000000" stroke-width="2.73" stroke-linejoin="bevel" points="138.189,212.598 2933.86,212.598"/>
<polyline class="StaffLines" fill="none" stroke="#000000" stroke-width="2.73" stroke-linejoin="bevel" points="138.189,237.402 2933.86,237.402"/>
<polyline class="StaffLines" fill="none" stroke="#000000" stroke-width="2.73" stroke-linejoin="bevel" points="138.189,262.205 2933.86,262.205"/>
<polyline class="StaffLines" fill="none" stroke="#000000" stroke-width="2.73" stroke-linejoin="bevel" points="138.189,287.008 2933.86,287.008"/>
<polyline class="StaffLines" fill="none" stroke="#000000" stroke-width="2.73" stroke-linejoin="bevel" points="14.1732,497.835 2933.86,497.835"/>
<polyline class="StaffLines" fill="none" stroke="#000000" stroke-width="2.73" stroke-linejoin="bevel" points="14.1732,522.638 2933.86,522.638"/>
<polyline class="StaffLines" fill="none" stroke="#000000" stroke-width="2.73" stroke-linejoin="bevel" points="14.1732,547.441 2933.86,547.441"/>
<polyline class="StaffLines" fill="none" stroke="#000000" stroke-width="2.73" stroke-linejoin="bevel" points="14.1732,572.244 2933.86,572.244"/>
<polyline class="StaffLines" fill="none" stroke="#000000" stroke-width="2.73" stroke-linejoin="bevel" points="14.1732,597.047 2933.86,597.047"/>
<polyline class="StaffLines" fill="none" stroke="#000000" stroke-width="2.73" stroke-linejoin="bevel" points="14.1732,815.417 2933.86,815.417"/>
<polyline class="StaffLines" fill="none" stroke="#000000" stroke-width="2.73" stroke-linejoin="bevel" points="14.1732,840.22 2933.86,840.22"/>
<polyline class="StaffLines" fill="none" stroke="#000000" stroke-width="2.73" stroke-linejoin="bevel" points="14.1732,865.023 2933.86,865.023"/>
<polyline class="StaffLines" fill="none" stroke="#000000" stroke-width="2.73" stroke-linejoin="bevel" points="14.1732,889.826 2933.86,889.826"/>
<polyline class="StaffLines" fill="none" stroke="#000000" stroke-width="2.73" stroke-linejoin="bevel" points="14.1732,914.629 2933.86,914.629"/>
<polyline class="StaffLines" fill="none" stroke="#000000" stroke-width="2.73" stroke-linejoin="bevel" points="14.1732,1125.46 2933.86,1125.46"/>
<polyline class="StaffLines" fill="none" stroke="#000000" stroke-width="2.73" stroke-linejoin="bevel" points="14.1732,1150.26 2933.86,1150.26"/>
<polyline class="StaffLines" fill="none" stroke="#000000" stroke-width="2.73" stroke-linejoin="bevel" points="14.1732,1175.06 2933.86,1175.06"/>
<polyline class="StaffLines" fill="none" stroke="#000000" stroke-width="2.73" stroke-linejoin="bevel" points="14.1732,1199.87 2933.86,1199.87"/>
<polyline class="StaffLines" fill="none" stroke="#000000" stroke-width="2.73" stroke-linejoin="bevel" points="14.1732,1224.67 2933.86,1224.67"/>
<polyline class="BarLine" fill="none" stroke="#000000" stroke-width="4.46" stroke-linejoin="bevel" points="953.226,186.431 953.226,288.372"/>
<polyline class="BarLine" fill="none" stroke="#000000" stroke-width="4.46" stroke-linejoin="bevel" points="1612.69,186.431 1612.69,288.372"/>
<polyline class="BarLine" fill="none" stroke="#000000" stroke-width="4.46" stroke-linejoin="bevel" points="2272.16,186.431 2272.16,288.372"/>
<polyline class="BarLine" fill="none" stroke="#000000" stroke-width="4.46" stroke-linejoin="bevel" points="2931.63,186.431 2931.63,288.372"/>
<polyline class="BarLine" fill="none" stroke="#000000" stroke-width="4.46" stroke-linejoin="bevel" points="808.481,496.47 808.481,598.411"/>
<polyline class="BarLine" fill="none" stroke="#000000" stroke-width="4.46" stroke-linejoin="bevel" points="1502.1,496.47 1502.1,598.411"/>
<polyline class="BarLine" fill="none" stroke="#000000" stroke-width="4.46" stroke-linejoin="bevel" points="2195.73,496.47 2195.73,598.411"/>
<path class="BarLine" transform="matrix(0.992126,0,0,0.992126,2887.12,535.039)" d="M10.4063,0 C10.4063,-2.90625 8.09375,-5.29688 5.20313,-5.29688 C2.29688,-5.29688 0,-2.90625 0,0 C0,2.90625 2.29688,5.29688 5.20313,5.29688 C8.09375,5.29688 10.4063,2.90625 10.4063,0"/>
<path class="BarLine" transform="matrix(0.992126,0,0,0.992126,2887.12,559.843)" d="M10.4063,0 C10.4063,-2.90625 8.09375,-5.29688 5.20313,-5.29688 C2.29688,-5.29688 0,-2.90625 0,0 C0,2.90625 2.29688,5.29688 5.20313,5.29688 C8.09375,5.29688 10.4063,2.90625 10.4063,0"/>
<polyline class="BarLine" fill="none" stroke="#000000" stroke-width="4.46" stroke-linejoin="bevel" points="2909.64,496.47 2909.64,598.411"/>
<polyline class="BarLine" fill="none" stroke="#000000" stroke-width="13.64" stroke-linejoin="bevel" points="2927,496.47 2927,598.411"/>
<polyline class="BarLine" fill="none" stroke="#000000" stroke-width="4.46" stroke-linejoin="bevel" points="819.051,814.053 819.051,915.994"/>
<polyline class="BarLine" fill="none" stroke="#000000" stroke-width="4.46" stroke-linejoin="bevel" points="1523.24,814.053 1523.24,915.994"/>
<polyline class="BarLine" fill="none" stroke="#000000" stroke-width="4.46" stroke-linejoin="bevel" points="2227.44,814.053 2227.44,915.994"/>
<polyline class="BarLine" fill="none" stroke="#000000" stroke-width="4.46" stroke-linejoin="bevel" points="2931.63,814.053 2931.63,915.994"/>
<polyline class="BarLine" fill="none" stroke="#000000" stroke-width="4.46" stroke-linejoin="bevel" points="812.511,1124.09 812.511,1226.03"/>
<polyline class="BarLine" fill="none" stroke="#000000" stroke-width="4.46" stroke-linejoin="bevel" points="1494.04,1124.09 1494.04,1226.03"/>
<polyline class="BarLine" fill="none" stroke="#000000" stroke-width="4.46" stroke-linejoin="bevel" points="2191.69,1124.09 2191.69,1226.03"/>
<path class="BarLine" transform="matrix(0.992126,0,0,0.992126,2887.12,1162.66)" d="M10.4063,0 C10.4063,-2.90625 8.09375,-5.29688 5.20313,-5.29688 C2.29688,-5.29688 0,-2.90625 0,0 C0,2.90625 2.29688,5.29688 5.20313,5.29688 C8.09375,5.29688 10.4063,2.90625 10.4063,0"/>
<path class="BarLine" transform="matrix(0.992126,0,0,0.992126,2887.12,1187.46)" d="M10.4063,0 C10.4063,-2.90625 8.09375,-5.29688 5.20313,-5.29688 C2.29688,-5.29688 0,-2.90625 0,0 C0,2.90625 2.29688,5.29688 5.20313,5.29688 C8.09375,5.29688 10.4063,2.90625 10.4063,0"/>
<polyline class="BarLine" fill="none" stroke="#000000" stroke-width="4.46" stroke-linejoin="bevel" points="2909.64,1124.09 2909.64,1226.03"/>
<polyline class="BarLine" fill="none" stroke="#000000" stroke-width="13.64" stroke-linejoin="bevel" points="2927,1124.09 2927,1226.03"/>
<path class="Note" transform="matrix(0.992126,0,0,0.992126,338.405,237.402)" d="M43,-25 L0,25 L10,25 L53,-25 L43,-25 "/>
<path class="Note" transform="matrix(0.992126,0,0,0.992126,489.01,237.402)" d="M43,-25 L0,25 L10,25 L53,-25 L43,-25 "/>
<path class="Note" transform="matrix(0.992126,0,0,0.992126,639.615,237.402)" d="M43,-25 L0,25 L10,25 L53,-25 L43,-25 "/>
<path class="Note" transform="matrix(0.992126,0,0,0.992126,790.22,237.402)" d="M43,-25 L0,25 L10,25 L53,-25 L43,-25 "/>
<path class="Note" transform="matrix(0.992126,0,0,0.992126,997.872,237.402)" d="M43,-25 L0,25 L10,25 L53,-25 L43,-25 "/>
<path class="Note" transform="matrix(0.992126,0,0,0.992126,1148.48,237.402)" d="M43,-25 L0,25 L10,25 L53,-25 L43,-25 "/>
<path class="Note" transform="matrix(0.992126,0,0,0.992126,1299.08,237.402)" d="M43,-25 L0,25 L10,25 L53,-25 L43,-25 "/>
<path class="Note" transform="matrix(0.992126,0,0,0.992126,1449.69,237.402)" d="M43,-25 L0,25 L10,25 L53,-25 L43,-25 "/>
<path class="Note" transform="matrix(0.992126,0,0,0.992126,1657.34,237.402)" d="M43,-25 L0,25 L10,25 L53,-25 L43,-25 "/>
<path class="Note" transform="matrix(0.992126,0,0,0.992126,1807.94,237.402)" d="M43,-25 L0,25 L10,25 L53,-25 L43,-25 "/>
<path class="Note" transform="matrix(0.992126,0,0,0.992126,1958.55,237.402)" d="M43,-25 L0,25 L10,25 L53,-25 L43,-25 "/>
<path class="Note" transform="matrix(0.992126,0,0,0.992126,2109.15,237.402)" d="M43,-25 L0,25 L10,25 L53,-25 L43,-25 "/>
<path class="Note" transform="matrix(0.992126,0,0,0.992126,2316.81,237.402)" d="M43,-25 L0,25 L10,25 L53,-25 L43,-25 "/>
<path class="Note" transform="matrix(0.992126,0,0,0.992126,2467.41,237.402)" d="M43,-25 L0,25 L10,25 L53,-25 L43,-25 "/>
<path class="Note" transform="matrix(0.992126,0,0,0.992126,2618.02,237.402)" d="M43,-25 L0,25 L10,25 L53,-25 L43,-25 "/>
<path class="Note" transform="matrix(0.992126,0,0,0.992126,2768.62,237.402)" d="M43,-25 L0,25 L10,25 L53,-25 L43,-25 "/>
<path class="Note" transform="matrix(0.992126,0,0,0.992126,159.504,547.441)" d="M43,-25 L0,25 L10,25 L53,-25 L43,-25 "/>
<path class="Note" transform="matrix(0.992126,0,0,0.992126,318.648,547.441)" d="M43,-25 L0,25 L10,25 L53,-25 L43,-25 "/>
<path class="Note" transform="matrix(0.992126,0,0,0.992126,477.792,547.441)" d="M43,-25 L0,25 L10,25 L53,-25 L43,-25 "/>
<path class="Note" transform="matrix(0.992126,0,0,0.992126,636.935,547.441)" d="M43,-25 L0,25 L10,25 L53,-25 L43,-25 "/>
<path class="Note" transform="matrix(0.992126,0,0,0.992126,853.126,547.441)" d="M43,-25 L0,25 L10,25 L53,-25 L43,-25 "/>
<path class="Note" transform="matrix(0.992126,0,0,0.992126,1012.27,547.441)" d="M43,-25 L0,25 L10,25 L53,-25 L43,-25 "/>
<path class="Note" transform="matrix(0.992126,0,0,0.992126,1171.41,547.441)" d="M43,-25 L0,25 L10,25 L53,-25 L43,-25 "/>
<path class="Note" transform="matrix(0.992126,0,0,0.992126,1330.56,547.441)" d="M43,-25 L0,25 L10,25 L53,-25 L43,-25 "/>
<path class="Note" transform="matrix(0.992126,0,0,0.992126,1546.75,547.441)" d="M43,-25 L0,25 L10,25 L53,-25 L43,-25 "/>
<path class="Note" transform="matrix(0.992126,0,0,0.992126,1705.89,547.441)" d="M43,-25 L0,25 L10,25 L53,-25 L43,-25 "/>
<path class="Note" transform="matrix(0.992126,0,0,0.992126,1865.04,547.441)" d="M43,-25 L0,25 L10,25 L53,-25 L43,-25 "/>
<path class="Note" transform="matrix(0.992126,0,0,0.992126,2024.18,547.441)" d="M43,-25 L0,25 L10,25 L53,-25 L43,-25 "/>
<path class="Note" transform="matrix(0.992126,0,0,0.992126,2240.37,547.441)" d="M43,-25 L0,25 L10,25 L53,-25 L43,-25 "/>
<path class="Note" transform="matrix(0.992126,0,0,0.992126,2399.51,547.441)" d="M43,-25 L0,25 L10,25 L53,-25 L43,-25 "/>
<path class="Note" transform="matrix(0.992126,0,0,0.992126,2558.66,547.441)" d="M43,-25 L0,25 L10,25 L53,-25 L43,-25 "/>
<path class="Note" transform="matrix(0.992126,0,0,0.992126,2717.8,547.441)" d="M43,-25 L0,25 L10,25 L53,-25 L43,-25 "/>
<path class="Note" transform="matrix(0.992126,0,0,0.992126,159.504,865.023)" d="M43,-25 L0,25 L10,25 L53,-25 L43,-25 "/>
<path class="Note" transform="matrix(0.992126,0,0,0.992126,321.29,865.023)" d="M43,-25 L0,25 L10,25 L53,-25 L43,-25 "/>
<path class="Note" transform="matrix(0.992126,0,0,0.992126,483.077,865.023)" d="M43,-25 L0,25 L10,25 L53,-25 L43,-25 "/>
<path class="Note" transform="matrix(0.992126,0,0,0.992126,644.863,865.023)" d="M43,-25 L0,25 L10,25 L53,-25 L43,-25 "/>
<path class="Note" transform="matrix(0.992126,0,0,0.992126,863.696,865.023)" d="M43,-25 L0,25 L10,25 L53,-25 L43,-25 "/>
<path class="Note" transform="matrix(0.992126,0,0,0.992126,1025.48,865.023)" d="M43,-25 L0,25 L10,25 L53,-25 L43,-25 "/>
<path class="Note" transform="matrix(0.992126,0,0,0.992126,1187.27,865.023)" d="M43,-25 L0,25 L10,25 L53,-25 L43,-25 "/>
<path class="Note" transform="matrix(0.992126,0,0,0.992126,1349.06,865.023)" d="M43,-25 L0,25 L10,25 L53,-25 L43,-25 "/>
<path class="Note" transform="matrix(0.992126,0,0,0.992126,1567.89,865.023)" d="M43,-25 L0,25 L10,25 L53,-25 L43,-25 "/>
<path class="Note" transform="matrix(0.992126,0,0,0.992126,1729.67,865.023)" d="M43,-25 L0,25 L10,25 L53,-25 L43,-25 "/>
<path class="Note" transform="matrix(0.992126,0,0,0.992126,1891.46,865.023)" d="M43,-25 L0,25 L10,25 L53,-25 L43,-25 "/>
<path class="Note" transform="matrix(0.992126,0,0,0.992126,2053.25,865.023)" d="M43,-25 L0,25 L10,25 L53,-25 L43,-25 "/>
<path class="Note" transform="matrix(0.992126,0,0,0.992126,2272.08,865.023)" d="M43,-25 L0,25 L10,25 L53,-25 L43,-25 "/>
<path class="Note" transform="matrix(0.992126,0,0,0.992126,2433.87,865.023)" d="M43,-25 L0,25 L10,25 L53,-25 L43,-25 "/>
<path class="Note" transform="matrix(0.992126,0,0,0.992126,2595.65,865.023)" d="M43,-25 L0,25 L10,25 L53,-25 L43,-25 "/>
<path class="Note" transform="matrix(0.992126,0,0,0.992126,2757.44,865.023)" d="M43,-25 L0,25 L10,25 L53,-25 L43,-25 "/>
<path class="Note" transform="matrix(0.992126,0,0,0.992126,159.504,1175.06)" d="M43,-25 L0,25 L10,25 L53,-25 L43,-25 "/>
<path class="Note" transform="matrix(0.992126,0,0,0.992126,319.656,1175.06)" d="M43,-25 L0,25 L10,25 L53,-25 L43,-25 "/>
<path class="Note" transform="matrix(0.992126,0,0,0.992126,479.807,1175.06)" d="M43,-25 L0,25 L10,25 L53,-25 L43,-25 "/>
<path class="Note" transform="matrix(0.992126,0,0,0.992126,639.958,1175.06)" d="M43,-25 L0,25 L10,25 L53,-25 L43,-25 "/>
<path class="Note" transform="matrix(0.992126,0,0,0.992126,841.035,1175.06)" d="M43,-25 L0,25 L10,25 L53,-25 L43,-25 "/>
<path class="Note" transform="matrix(0.992126,0,0,0.992126,1001.19,1175.06)" d="M43,-25 L0,25 L10,25 L53,-25 L43,-25 "/>
<path class="Note" transform="matrix(0.992126,0,0,0.992126,1161.34,1175.06)" d="M43,-25 L0,25 L10,25 L53,-25 L43,-25 "/>
<path class="Note" transform="matrix(0.992126,0,0,0.992126,1321.49,1175.06)" d="M43,-25 L0,25 L10,25 L53,-25 L43,-25 "/>
<path class="Note" transform="matrix(0.992126,0,0,0.992126,1538.69,1175.06)" d="M43,-25 L0,25 L10,25 L53,-25 L43,-25 "/>
<path class="Note" transform="matrix(0.992126,0,0,0.992126,1698.84,1175.06)" d="M43,-25 L0,25 L10,25 L53,-25 L43,-25 "/>
<path class="Note" transform="matrix(0.992126,0,0,0.992126,1858.99,1175.06)" d="M43,-25 L0,25 L10,25 L53,-25 L43,-25 "/>
<path class="Note" transform="matrix(0.992126,0,0,0.992126,2019.14,1175.06)" d="M43,-25 L0,25 L10,25 L53,-25 L43,-25 "/>
<path class="Note" transform="matrix(0.992126,0,0,0.992126,2236.34,1175.06)" d="M43,-25 L0,25 L10,25 L53,-25 L43,-25 "/>
<path class="Note" transform="matrix(0.992126,0,0,0.992126,2396.49,1175.06)" d="M43,-25 L0,25 L10,25 L53,-25 L43,-25 "/>
<path class="Note" transform="matrix(0.992126,0,0,0.992126,2556.64,1175.06)" d="M43,-25 L0,25 L10,25 L53,-25 L43,-25 "/>
<path class="Note" transform="matrix(0.992126,0,0,0.992126,2716.79,1175.06)" d="M43,-25 L0,25 L10,25 L53,-25 L43,-25 "/>
<path class="Clef" transform="matrix(0.992126,0,0,0.992126,158.032,262.205)" d="M63.3594,-5.92188 C62.125,-11.3438 59.4844,-15.1719 58.7031,-16.2031 C55.5156,-20.4844 51.5,-23.3281 46.8125,-24.6875 C43.7031,-25.5625 40.7031,-25.6875 38.2813,-25.5 C37.2344,-31.5156 36.2344,-37.3906 35.3281,-42.8438 C40.7813,-49.0156 44.4063,-54.8125 46.6875,-59.1094 C50.1563,-65.6875 51.2969,-70.2656 51.3594,-70.4688 C53.0781,-75.6875 53.4375,-83.3906 52.3281,-91.5938 C51.3281,-99.1406 49.2344,-105.859 46.875,-109.109 C45.8594,-110.531 44.7969,-111.266 43.7656,-111.266 C42.5469,-111.266 40.0313,-110.031 37.1406,-107.25 C34.8438,-105.063 31.5781,-101.172 29.0156,-95.1563 C26.0156,-88.0938 25.7969,-78.6094 26.1563,-71.8906 C26.5313,-64.6094 27.6406,-58.9219 27.6563,-58.875 C27.6719,-58.7813 27.9375,-57.2813 28.375,-54.7188 C28.1563,-54.4844 27.9063,-54.2656 27.6563,-54.0156 C26.625,-53.0156 25.4375,-51.8906 24.0469,-50.5 C23.1875,-49.6406 22.2344,-48.7344 21.2344,-47.7656 C12.7969,-39.625 0,-27.2969 0,-8.14063 C0,-3.4375 0.90625,0.984375 2.6875,5 C4.26563,8.59375 6.5625,11.875 9.5,14.75 C17.2344,22.3125 27.8281,25.5156 34.875,25.3594 C37.8281,25.2813 40.4688,25.0469 42.8594,24.5938 C44.6875,34.2031 45.8281,41.2344 45.8594,46.5781 C45.9063,53.0938 44.25,57.0781 40.3594,59.8438 C37.9219,61.5781 35.1094,62.5313 32.0156,62.6719 C29.4219,62.7969 27.1563,62.3281 25.7344,61.9219 L25.7188,61.9219 C25.7188,61.9219 25.4375,61.8281 25.4219,61.6406 C25.4063,61.4531 25.7656,61.4063 25.7656,61.4063 L25.7969,61.4063 C27.7188,60.9688 31.2813,59.7344 33.6406,56.4375 C35.4375,53.9063 36.3125,49.2813 34.4688,45.3438 C33.3594,42.9531 30.8594,40 25.2344,39.5469 C22.7344,39.3438 20.4688,39.8594 18.4688,41.0625 C16.6563,42.1406 15.1563,43.7813 14.1094,45.7813 C11.6563,50.4844 12.1094,56.2188 15.2344,60.0625 C18.2031,63.6875 22.8125,66 28.25,66.5781 C29.1094,66.6719 29.9531,66.7031 30.7969,66.7031 C35.2344,66.7031 39.625,65.5 43.2031,63.2969 C46.8594,60.7188 48.9844,56.7344 49.6563,51.1094 C50.2188,46.4688 49.8281,40.5469 48.4375,32.4688 C48.0781,30.375 47.5313,27.3438 46.875,23.5938 C52.625,21.6719 56.7813,18.0938 60.5469,12.2344 C63.8438,6.5 64.7813,0.390625 63.3594,-5.92188 M29.1406,20.2969 C24.5,19.0781 20.0625,16.5781 16.3125,13.0625 C15,11.8438 13.125,9.67188 11.6563,6.28125 C10.2969,3.10938 9.625,-0.328125 9.6875,-3.90625 C9.75,-8.60938 11.0625,-13.4375 13.5625,-18.2188 C16.4844,-23.7969 21.0469,-29.3281 27.1094,-34.6563 C28.5625,-35.9375 29.9375,-37.2188 31.2188,-38.5 C31.9844,-34.2344 32.8125,-29.5469 33.6875,-24.6719 C29.8438,-23.4063 25.0938,-20.25 21.9844,-14.5938 C18.4375,-8.03125 18.5781,-2.5 19.3125,0.984375 C20.25,5.4375 22.7813,9.20313 26.2344,11.2969 C27.1719,11.8594 31.2969,13.9844 33.1406,13.4063 C33.5156,13.2969 33.7813,13.0625 33.9219,12.7344 C34.4375,11.5625 33.4063,10.9219 31.8594,9.96875 C31.25,9.59375 30.5781,9.17188 29.8594,8.64063 C26.5313,6.15625 25.0781,1.70313 26.1563,-2.6875 C26.7344,-5.07813 28.0156,-7.25 29.8594,-8.95313 C31.5156,-10.5 33.5625,-11.5938 35.9375,-12.2344 C37.9844,-0.984375 40.0469,10.1719 41.6875,18.5313 C41.8125,19.2188 41.9531,19.8906 42.0781,20.5625 C37.7031,21.5 33.3594,21.4063 29.1406,20.2969 M40.4688,-12.9063 C50.8125,-13.375 55.0781,-5.9375 55.9688,-1.10938 C56.4375,1.4375 56.4375,5.875 54.8906,10.0938 C53.7188,13.2656 51.2656,17.3438 46.125,19.4063 C46.0625,18.9844 45.9844,18.5469 45.9063,18.125 C44.3594,9.34375 42.4219,-1.65625 40.4688,-12.9063 M33.1406,-83.8594 C34.9219,-89.5938 37.6563,-92.8438 39.6563,-94.5781 C41.4063,-96.0938 43.0469,-96.8125 43.9688,-96.8125 C44.1094,-96.8125 44.2344,-96.7813 44.3281,-96.75 C44.7969,-96.6094 45.3281,-96.0469 45.7969,-95.1719 C48.1094,-90.8906 47.3594,-84.1719 46.0156,-79.7344 C44.3906,-74.3281 41.4688,-68.7188 32.6719,-59.1094 C32.5,-60.2188 32.3438,-61.2656 32.1875,-62.25 C30.9375,-70.5313 31.2656,-77.8125 33.1406,-83.8594"/>
<path class="Clef" transform="matrix(0.992126,0,0,0.992126,34.0158,572.244)" d="M63.3594,-5.92188 C62.125,-11.3438 59.4844,-15.1719 58.7031,-16.2031 C55.5156,-20.4844 51.5,-23.3281 46.8125,-24.6875 C43.7031,-25.5625 40.7031,-25.6875 38.2813,-25.5 C37.2344,-31.5156 36.2344,-37.3906 35.3281,-42.8438 C40.7813,-49.0156 44.4063,-54.8125 46.6875,-59.1094 C50.1563,-65.6875 51.2969,-70.2656 51.3594,-70.4688 C53.0781,-75.6875 53.4375,-83.3906 52.3281,-91.5938 C51.3281,-99.1406 49.2344,-105.859 46.875,-109.109 C45.8594,-110.531 44.7969,-111.266 43.7656,-111.266 C42.5469,-111.266 40.0313,-110.031 37.1406,-107.25 C34.8438,-105.063 31.5781,-101.172 29.0156,-95.1563 C26.0156,-88.0938 25.7969,-78.6094 26.1563,-71.8906 C26.5313,-64.6094 27.6406,-58.9219 27.6563,-58.875 C27.6719,-58.7813 27.9375,-57.2813 28.375,-54.7188 C28.1563,-54.4844 27.9063,-54.2656 27.6563,-54.0156 C26.625,-53.0156 25.4375,-51.8906 24.0469,-50.5 C23.1875,-49.6406 22.2344,-48.7344 21.2344,-47.7656 C12.7969,-39.625 0,-27.2969 0,-8.14063 C0,-3.4375 0.90625,0.984375 2.6875,5 C4.26563,8.59375 6.5625,11.875 9.5,14.75 C17.2344,22.3125 27.8281,25.5156 34.875,25.3594 C37.8281,25.2813 40.4688,25.0469 42.8594,24.5938 C44.6875,34.2031 45.8281,41.2344 45.8594,46.5781 C45.9063,53.0938 44.25,57.0781 40.3594,59.8438 C37.9219,61.5781 35.1094,62.5313 32.0156,62.6719 C29.4219,62.7969 27.1563,62.3281 25.7344,61.9219 L25.7188,61.9219 C25.7188,61.9219 25.4375,61.8281 25.4219,61.6406 C25.4063,61.4531 25.7656,61.4063 25.7656,61.4063 L25.7969,61.4063 C27.7188,60.9688 31.2813,59.7344 33.6406,56.4375 C35.4375,53.9063 36.3125,49.2813 34.4688,45.3438 C33.3594,42.9531 30.8594,40 25.2344,39.5469 C22.7344,39.3438 20.4688,39.8594 18.4688,41.0625 C16.6563,42.1406 15.1563,43.7813 14.1094,45.7813 C11.6563,50.4844 12.1094,56.2188 15.2344,60.0625 C18.2031,63.6875 22.8125,66 28.25,66.5781 C29.1094,66.6719 29.9531,66.7031 30.7969,66.7031 C35.2344,66.7031 39.625,65.5 43.2031,63.2969 C46.8594,60.7188 48.9844,56.7344 49.6563,51.1094 C50.2188,46.4688 49.8281,40.5469 48.4375,32.4688 C48.0781,30.375 47.5313,27.3438 46.875,23.5938 C52.625,21.6719 56.7813,18.0938 60.5469,12.2344 C63.8438,6.5 64.7813,0.390625 63.3594,-5.92188 M29.1406,20.2969 C24.5,19.0781 20.0625,16.5781 16.3125,13.0625 C15,11.8438 13.125,9.67188 11.6563,6.28125 C10.2969,3.10938 9.625,-0.328125 9.6875,-3.90625 C9.75,-8.60938 11.0625,-13.4375 13.5625,-18.2188 C16.4844,-23.7969 21.0469,-29.3281 27.1094,-34.6563 C28.5625,-35.9375 29.9375,-37.2188 31.2188,-38.5 C31.9844,-34.2344 32.8125,-29.5469 33.6875,-24.6719 C29.8438,-23.4063 25.0938,-20.25 21.9844,-14.5938 C18.4375,-8.03125 18.5781,-2.5 19.3125,0.984375 C20.25,5.4375 22.7813,9.20313 26.2344,11.2969 C27.1719,11.8594 31.2969,13.9844 33.1406,13.4063 C33.5156,13.2969 33.7813,13.0625 33.9219,12.7344 C34.4375,11.5625 33.4063,10.9219 31.8594,9.96875 C31.25,9.59375 30.5781,9.17188 29.8594,8.64063 C26.5313,6.15625 25.0781,1.70313 26.1563,-2.6875 C26.7344,-5.07813 28.0156,-7.25 29.8594,-8.95313 C31.5156,-10.5 33.5625,-11.5938 35.9375,-12.2344 C37.9844,-0.984375 40.0469,10.1719 41.6875,18.5313 C41.8125,19.2188 41.9531,19.8906 42.0781,20.5625 C37.7031,21.5 33.3594,21.4063 29.1406,20.2969 M40.4688,-12.9063 C50.8125,-13.375 55.0781,-5.9375 55.9688,-1.10938 C56.4375,1.4375 56.4375,5.875 54.8906,10.0938 C53.7188,13.2656 51.2656,17.3438 46.125,19.4063 C46.0625,18.9844 45.9844,18.5469 45.9063,18.125 C44.3594,9.34375 42.4219,-1.65625 40.4688,-12.9063 M33.1406,-83.8594 C34.9219,-89.5938 37.6563,-92.8438 39.6563,-94.5781 C41.4063,-96.0938 43.0469,-96.8125 43.9688,-96.8125 C44.1094,-96.8125 44.2344,-96.7813 44.3281,-96.75 C44.7969,-96.6094 45.3281,-96.0469 45.7969,-95.1719 C48.1094,-90.8906 47.3594,-84.1719 46.0156,-79.7344 C44.3906,-74.3281 41.4688,-68.7188 32.6719,-59.1094 C32.5,-60.2188 32.3438,-61.2656 32.1875,-62.25 C30.9375,-70.5313 31.2656,-77.8125 33.1406,-83.8594"/>
<path class="Clef" transform="matrix(0.992126,0,0,0.992126,34.0158,889.826)" d="M63.3594,-5.92188 C62.125,-11.3438 59.4844,-15.1719 58.7031,-16.2031 C55.5156,-20.4844 51.5,-23.3281 46.8125,-24.6875 C43.7031,-25.5625 40.7031,-25.6875 38.2813,-25.5 C37.2344,-31.5156 36.2344,-37.3906 35.3281,-42.8438 C40.7813,-49.0156 44.4063,-54.8125 46.6875,-59.1094 C50.1563,-65.6875 51.2969,-70.2656 51.3594,-70.4688 C53.0781,-75.6875 53.4375,-83.3906 52.3281,-91.5938 C51.3281,-99.1406 49.2344,-105.859 46.875,-109.109 C45.8594,-110.531 44.7969,-111.266 43.7656,-111.266 C42.5469,-111.266 40.0313,-110.031 37.1406,-107.25 C34.8438,-105.063 31.5781,-101.172 29.0156,-95.1563 C26.0156,-88.0938 25.7969,-78.6094 26.1563,-71.8906 C26.5313,-64.6094 27.6406,-58.9219 27.6563,-58.875 C27.6719,-58.7813 27.9375,-57.2813 28.375,-54.7188 C28.1563,-54.4844 27.9063,-54.2656 27.6563,-54.0156 C26.625,-53.0156 25.4375,-51.8906 24.0469,-50.5 C23.1875,-49.6406 22.2344,-48.7344 21.2344,-47.7656 C12.7969,-39.625 0,-27.2969 0,-8.14063 C0,-3.4375 0.90625,0.984375 2.6875,5 C4.26563,8.59375 6.5625,11.875 9.5,14.75 C17.2344,22.3125 27.8281,25.5156 34.875,25.3594 C37.8281,25.2813 40.4688,25.0469 42.8594,24.5938 C44.6875,34.2031 45.8281,41.2344 45.8594,46.5781 C45.9063,53.0938 44.25,57.0781 40.3594,59.8438 C37.9219,61.5781 35.1094,62.5313 32.0156,62.6719 C29.4219,62.7969 27.1563,62.3281 25.7344,61.9219 L25.7188,61.9219 C25.7188,61.9219 25.4375,61.8281 25.4219,61.6406 C25.4063,61.4531 25.7656,61.4063 25.7656,61.4063 L25.7969,61.4063 C27.7188,60.9688 31.2813,59.7344 33.6406,56.4375 C35.4375,53.9063 36.3125,49.2813 34.4688,45.3438 C33.3594,42.9531 30.8594,40 25.2344,39.5469 C22.7344,39.3438 20.4688,39.8594 18.4688,41.0625 C16.6563,42.1406 15.1563,43.7813 14.1094,45.7813 C11.6563,50.4844 12.1094,56.2188 15.2344,60.0625 C18.2031,63.6875 22.8125,66 28.25,66.5781 C29.1094,66.6719 29.9531,66.7031 30.7969,66.7031 C35.2344,66.7031 39.625,65.5 43.2031,63.2969 C46.8594,60.7188 48.9844,56.7344 49.6563,51.1094 C50.2188,46.4688 49.8281,40.5469 48.4375,32.4688 C48.0781,30.375 47.5313,27.3438 46.875,23.5938 C52.625,21.6719 56.7813,18.0938 60.5469,12.2344 C63.8438,6.5 64.7813,0.390625 63.3594,-5.92188 M29.1406,20.2969 C24.5,19.0781 20.0625,16.5781 16.3125,13.0625 C15,11.8438 13.125,9.67188 11.6563,6.28125 C10.2969,3.10938 9.625,-0.328125 9.6875,-3.90625 C9.75,-8.60938 11.0625,-13.4375 13.5625,-18.2188 C16.4844,-23.7969 21.0469,-29.3281 27.1094,-34.6563 C28.5625,-35.9375 29.9375,-37.2188 31.2188,-38.5 C31.9844,-34.2344 32.8125,-29.5469 33.6875,-24.6719 C29.8438,-23.4063 25.0938,-20.25 21.9844,-14.5938 C18.4375,-8.03125 18.5781,-2.5 19.3125,0.984375 C20.25,5.4375 22.7813,9.20313 26.2344,11.2969 C27.1719,11.8594 31.2969,13.9844 33.1406,13.4063 C33.5156,13.2969 33.7813,13.0625 33.9219,12.7344 C34.4375,11.5625 33.4063,10.9219 31.8594,9.96875 C31.25,9.59375 30.5781,9.17188 29.8594,8.64063 C26.5313,6.15625 25.0781,1.70313 26.1563,-2.6875 C26.7344,-5.07813 28.0156,-7.25 29.8594,-8.95313 C31.5156,-10.5 33.5625,-11.5938 35.9375,-12.2344 C37.9844,-0.984375 40.0469,10.1719 41.6875,18.5313 C41.8125,19.2188 41.9531,19.8906 42.0781,20.5625 C37.7031,21.5 33.3594,21.4063 29.1406,20.2969 M40.4688,-12.9063 C50.8125,-13.375 55.0781,-5.9375 55.9688,-1.10938 C56.4375,1.4375 56.4375,5.875 54.8906,10.0938 C53.7188,13.2656 51.2656,17.3438 46.125,19.4063 C46.0625,18.9844 45.9844,18.5469 45.9063,18.125 C44.3594,9.34375 42.4219,-1.65625 40.4688,-12.9063 M33.1406,-83.8594 C34.9219,-89.5938 37.6563,-92.8438 39.6563,-94.5781 C41.4063,-96.0938 43.0469,-96.8125 43.9688,-96.8125 C44.1094,-96.8125 44.2344,-96.7813 44.3281,-96.75 C44.7969,-96.6094 45.3281,-96.0469 45.7969,-95.1719 C48.1094,-90.8906 47.3594,-84.1719 46.0156,-79.7344 C44.3906,-74.3281 41.4688,-68.7188 32.6719,-59.1094 C32.5,-60.2188 32.3438,-61.2656 32.1875,-62.25 C30.9375,-70.5313 31.2656,-77.8125 33.1406,-83.8594"/>
<path class="Clef" transform="matrix(0.992126,0,0,0.992126,34.0158,1199.87)" d="M63.3594,-5.92188 C62.125,-11.3438 59.4844,-15.1719 58.7031,-16.2031 C55.5156,-20.4844 51.5,-23.3281 46.8125,-24.6875 C43.7031,-25.5625 40.7031,-25.6875 38.2813,-25.5 C37.2344,-31.5156 36.2344,-37.3906 35.3281,-42.8438 C40.7813,-49.0156 44.4063,-54.8125 46.6875,-59.1094 C50.1563,-65.6875 51.2969,-70.2656 51.3594,-70.4688 C53.0781,-75.6875 53.4375,-83.3906 52.3281,-91.5938 C51.3281,-99.1406 49.2344,-105.859 46.875,-109.109 C45.8594,-110.531 44.7969,-111.266 43.7656,-111.266 C42.5469,-111.266 40.0313,-110.031 37.1406,-107.25 C34.8438,-105.063 31.5781,-101.172 29.0156,-95.1563 C26.0156,-88.0938 25.7969,-78.6094 26.1563,-71.8906 C26.5313,-64.6094 27.6406,-58.9219 27.6563,-58.875 C27.6719,-58.7813 27.9375,-57.2813 28.375,-54.7188 C28.1563,-54.4844 27.9063,-54.2656 27.6563,-54.0156 C26.625,-53.0156 25.4375,-51.8906 24.0469,-50.5 C23.1875,-49.6406 22.2344,-48.7344 21.2344,-47.7656 C12.7969,-39.625 0,-27.2969 0,-8.14063 C0,-3.4375 0.90625,0.984375 2.6875,5 C4.26563,8.59375 6.5625,11.875 9.5,14.75 C17.2344,22.3125 27.8281,25.5156 34.875,25.3594 C37.8281,25.2813 40.4688,25.0469 42.8594,24.5938 C44.6875,34.2031 45.8281,41.2344 45.8594,46.5781 C45.9063,53.0938 44.25,57.0781 40.3594,59.8438 C37.9219,61.5781 35.1094,62.5313 32.0156,62.6719 C29.4219,62.7969 27.1563,62.3281 25.7344,61.9219 L25.7188,61.9219 C25.7188,61.9219 25.4375,61.8281 25.4219,61.6406 C25.4063,61.4531 25.7656,61.4063 25.7656,61.4063 L25.7969,61.4063 C27.7188,60.9688 31.2813,59.7344 33.6406,56.4375 C35.4375,53.9063 36.3125,49.2813 34.4688,45.3438 C33.3594,42.9531 30.8594,40 25.2344,39.5469 C22.7344,39.3438 20.4688,39.8594 18.4688,41.0625 C16.6563,42.1406 15.1563,43.7813 14.1094,45.7813 C11.6563,50.4844 12.1094,56.2188 15.2344,60.0625 C18.2031,63.6875 22.8125,66 28.25,66.5781 C29.1094,66.6719 29.9531,66.7031 30.7969,66.7031 C35.2344,66.7031 39.625,65.5 43.2031,63.2969 C46.8594,60.7188 48.9844,56.7344 49.6563,51.1094 C50.2188,46.4688 49.8281,40.5469 48.4375,32.4688 C48.0781,30.375 47.5313,27.3438 46.875,23.5938 C52.625,21.6719 56.7813,18.0938 60.5469,12.2344 C63.8438,6.5 64.7813,0.390625 63.3594,-5.92188 M29.1406,20.2969 C24.5,19.0781 20.0625,16.5781 16.3125,13.0625 C15,11.8438 13.125,9.67188 11.6563,6.28125 C10.2969,3.10938 9.625,-0.328125 9.6875,-3.90625 C9.75,-8.60938 11.0625,-13.4375 13.5625,-18.2188 C16.4844,-23.7969 21.0469,-29.3281 27.1094,-34.6563 C28.5625,-35.9375 29.9375,-37.2188 31.2188,-38.5 C31.9844,-34.2344 32.8125,-29.5469 33.6875,-24.6719 C29.8438,-23.4063 25.0938,-20.25 21.9844,-14.5938 C18.4375,-8.03125 18.5781,-2.5 19.3125,0.984375 C20.25,5.4375 22.7813,9.20313 26.2344,11.2969 C27.1719,11.8594 31.2969,13.9844 33.1406,13.4063 C33.5156,13.2969 33.7813,13.0625 33.9219,12.7344 C34.4375,11.5625 33.4063,10.9219 31.8594,9.96875 C31.25,9.59375 30.5781,9.17188 29.8594,8.64063 C26.5313,6.15625 25.0781,1.70313 26.1563,-2.6875 C26.7344,-5.07813 28.0156,-7.25 29.8594,-8.95313 C31.5156,-10.5 33.5625,-11.5938 35.9375,-12.2344 C37.9844,-0.984375 40.0469,10.1719 41.6875,18.5313 C41.8125,19.2188 41.9531,19.8906 42.0781,20.5625 C37.7031,21.5 33.3594,21.4063 29.1406,20.2969 M40.4688,-12.9063 C50.8125,-13.375 55.0781,-5.9375 55.9688,-1.10938 C56.4375,1.4375 56.4375,5.875 54.8906,10.0938 C53.7188,13.2656 51.2656,17.3438 46.125,19.4063 C46.0625,18.9844 45.9844,18.5469 45.9063,18.125 C44.3594,9.34375 42.4219,-1.65625 40.4688,-12.9063 M33.1406,-83.8594 C34.9219,-89.5938 37.6563,-92.8438 39.6563,-94.5781 C41.4063,-96.0938 43.0469,-96.8125 43.9688,-96.8125 C44.1094,-96.8125 44.2344,-96.7813 44.3281,-96.75 C44.7969,-96.6094 45.3281,-96.0469 45.7969,-95.1719 C48.1094,-90.8906 47.3594,-84.1719 46.0156,-79.7344 C44.3906,-74.3281 41.4688,-68.7188 32.6719,-59.1094 C32.5,-60.2188 32.3438,-61.2656 32.1875,-62.25 C30.9375,-70.5313 31.2656,-77.8125 33.1406,-83.8594"/>
<path class="TimeSig" transform="matrix(0.992126,0,0,0.992126,244.951,212.73)" d="M3.59375,12.625 L20.7656,12.625 L20.7656,20.0781 L12.5469,20.0781 C11.7656,20.0781 11.125,20.7031 11.125,21.4844 L11.125,23.3906 C11.125,24.1719 11.7656,24.7969 12.5469,24.7969 L42.7969,24.7969 C43.5781,24.7969 44.2031,24.1719 44.2031,23.3906 L44.2031,21.4844 C44.2031,20.7031 43.5781,20.0781 42.7969,20.0781 L33.8594,20.0781 L33.8594,12.625 L42.7969,12.625 C43.5781,12.625 44.2031,12 44.2031,11.2188 L44.2031,9.3125 C44.2031,8.53125 43.5781,7.90625 42.7969,7.90625 L33.8594,7.90625 L33.8594,-8.0625 C33.8594,-8.59375 33.5469,-9.07813 33.0781,-9.3125 L31.8594,-9.92188 C31.3281,-10.1719 30.7031,-10.0781 30.2656,-9.6875 L21.2188,-1.375 C20.9375,-1.09375 20.7656,-0.734375 20.7656,-0.328125 L20.7656,7.90625 L9.25,7.90625 C9.25,7.90625 20.375,-4.125 32.2188,-19.8906 C33.0781,-21.0469 32.5781,-22.0938 32.3906,-22.2813 L30.2188,-24.4844 C29.9531,-24.75 29.5938,-24.9063 29.2188,-24.9063 C28.625,-24.9063 15.0625,-24.875 14.3438,-24.9063 C13.625,-24.9219 13.0938,-24.2969 13.0156,-23.6875 C13.0156,-23.6875 12.4844,-16.3281 9.875,-8.1875 C7.28125,-0.078125 4.34375,4.90625 1.6875,8.53125 C1.6875,8.53125 1.14063,9.51563 1.5,10.2656 C1.84375,11.0156 2.48438,12.0938 2.48438,12.0938 C2.48438,12.0938 2.73438,12.625 3.59375,12.625"/>
<path class="TimeSig" transform="matrix(0.992126,0,0,0.992126,244.951,262.073)" d="M3.59375,12.625 L20.7656,12.625 L20.7656,20.0781 L12.5469,20.0781 C11.7656,20.0781 11.125,20.7031 11.125,21.4844 L11.125,23.3906 C11.125,24.1719 11.7656,24.7969 12.5469,24.7969 L42.7969,24.7969 C43.5781,24.7969 44.2031,24.1719 44.2031,23.3906 L44.2031,21.4844 C44.2031,20.7031 43.5781,20.0781 42.7969,20.0781 L33.8594,20.0781 L33.8594,12.625 L42.7969,12.625 C43.5781,12.625 44.2031,12 44.2031,11.2188 L44.2031,9.3125 C44.2031,8.53125 43.5781,7.90625 42.7969,7.90625 L33.8594,7.90625 L33.8594,-8.0625 C33.8594,-8.59375 33.5469,-9.07813 33.0781,-9.3125 L31.8594,-9.92188 C31.3281,-10.1719 30.7031,-10.0781 30.2656,-9.6875 L21.2188,-1.375 C20.9375,-1.09375 20.7656,-0.734375 20.7656,-0.328125 L20.7656,7.90625 L9.25,7.90625 C9.25,7.90625 20.375,-4.125 32.2188,-19.8906 C33.0781,-21.0469 32.5781,-22.0938 32.3906,-22.2813 L30.2188,-24.4844 C29.9531,-24.75 29.5938,-24.9063 29.2188,-24.9063 C28.625,-24.9063 15.0625,-24.875 14.3438,-24.9063 C13.625,-24.9219 13.0938,-24.2969 13.0156,-23.6875 C13.0156,-23.6875 12.4844,-16.3281 9.875,-8.1875 C7.28125,-0.078125 4.34375,4.90625 1.6875,8.53125 C1.6875,8.53125 1.14063,9.51563 1.5,10.2656 C1.84375,11.0156 2.48438,12.0938 2.48438,12.0938 C2.48438,12.0938 2.73438,12.625 3.59375,12.625"/>
<path class="RehearsalMark" fill="none" stroke="#000000" stroke-width="3.97" stroke-linecap="square" stroke-linejoin="miter" stroke-miterlimit="2" fill-rule="evenodd" d="M154.216,21.0729 L262.987,21.0729 L262.987,122.845 L154.216,122.845 L154.216,21.0729 "/>
<path class="RehearsalMark" d="M205.352,35.4899 L182.883,87.9587 C178.32,98.6618 174.664,102.521 168.82,103.115 L168.82,108.459 L197.43,108.459 L197.43,103.115 C190.398,102.724 187.633,100.834 187.633,96.2868 C187.633,94.5993 188.023,93.0212 189.117,90.6462 L190.695,86.8806 L215.352,86.8806 L219.117,96.5837 C220.195,99.3493 220.305,99.8493 220.305,100.631 C220.305,102.427 218.914,103.021 214.555,103.021 L212.867,103.115 L212.867,108.459 L247.617,108.459 L247.617,103.115 C241.977,102.912 240.398,101.927 238.32,96.8806 L212.867,35.4899 L205.352,35.4899 M203.273,56.5837 L212.867,80.2399 L193.273,80.2399 L203.273,56.5837 "/>
<path class="RehearsalMark" fill="none" stroke="#000000" stroke-width="3.97" stroke-linecap="square" stroke-linejoin="miter" stroke-miterlimit="2" fill-rule="evenodd" d="M32.3294,654.622 L133.101,654.622 L133.101,755.393 L32.3294,755.393 L32.3294,654.622 "/>
<path class="RehearsalMark" d="M47.4027,669.523 L47.4027,674.882 L48.8871,674.882 C54.2308,674.882 56.1058,675.273 56.9964,676.257 C57.6996,677.351 57.6996,677.648 57.6996,683.789 L57.6996,726.757 C57.6996,732.882 57.6996,733.179 56.9964,734.179 C56.1058,735.273 54.1371,735.664 48.8871,735.664 L47.4027,735.664 L47.4027,741.007 L87.4964,741.007 C97.7933,741.007 103.043,740.211 108.184,737.945 C114.418,735.164 118.575,728.929 118.575,722.195 C118.575,715.273 114.621,709.82 107.293,706.461 C103.934,704.867 101.059,704.086 95.8089,703.382 C100.653,702.601 103.434,701.898 106.2,700.617 C112.137,697.742 115.309,692.992 115.309,687.054 C115.309,681.414 112.34,676.164 107.496,673.492 C102.043,670.414 97.2933,669.523 85.6058,669.523 L47.4027,669.523 M75.5121,701.601 L75.5121,680.617 C75.3089,676.461 76.6996,675.07 81.0589,674.882 L84.0277,674.882 C92.7464,674.882 97.3871,679.226 97.3871,687.445 C97.3871,692.304 95.7152,696.164 92.5433,698.632 C89.8714,700.82 86.4964,701.601 80.3714,701.601 L75.5121,701.601 M75.5121,707.054 L82.3402,707.054 C88.5746,707.054 91.4496,707.648 94.2308,709.429 C97.6839,711.711 99.6683,716.054 99.6683,721.211 C99.6683,725.961 97.8871,730.32 95.0121,732.695 C92.5433,734.664 89.2777,735.664 84.5277,735.664 L81.5589,735.664 C75.9027,735.461 75.3089,734.867 75.5121,729.32 L75.5121,707.054 "/>
<path class="Harmony" d="M350.527,121.866 C350.496,121.881 350.449,121.881 350.386,121.881 C350.324,121.881 350.277,121.897 350.246,121.897 C350.199,121.912 350.152,121.912 350.09,121.928 C350.027,121.928 349.996,121.944 349.949,121.959 C349.902,121.975 349.871,122.006 349.824,122.022 C349.777,122.053 349.746,122.069 349.73,122.116 C349.683,122.147 349.668,122.178 349.636,122.225 C349.621,122.256 349.605,122.319 349.605,122.366 C349.605,122.397 349.605,122.428 349.605,122.475 L349.605,122.506 C349.605,122.537 349.605,122.584 349.605,122.647 C349.621,122.709 349.621,122.756 349.621,122.787 C349.621,123.366 349.636,123.928 349.652,124.475 C349.652,124.506 349.652,124.537 349.652,124.569 C349.652,124.678 349.652,124.819 349.636,124.975 C349.621,125.178 349.621,125.319 349.621,125.412 L349.621,125.444 L349.621,125.537 C349.621,125.553 349.621,125.584 349.636,125.616 C349.636,125.647 349.636,125.662 349.652,125.678 C349.668,125.694 349.683,125.709 349.715,125.725 C349.73,125.741 349.761,125.741 349.793,125.741 L349.808,125.741 C349.98,125.741 350.152,125.709 350.324,125.631 C350.511,125.569 350.668,125.491 350.824,125.381 C350.98,125.287 351.121,125.162 351.261,125.006 C351.402,124.866 351.527,124.709 351.621,124.553 C351.73,124.397 351.808,124.225 351.871,124.053 C351.949,123.881 351.98,123.709 351.98,123.537 C351.996,123.506 351.996,123.459 351.996,123.428 C351.996,123.334 351.98,123.241 351.965,123.131 C351.933,122.991 351.902,122.85 351.84,122.725 C351.793,122.6 351.715,122.475 351.621,122.366 C351.543,122.241 351.433,122.147 351.324,122.069 C351.215,121.991 351.09,121.928 350.949,121.897 C350.871,121.866 350.777,121.866 350.668,121.866 C350.621,121.866 350.574,121.866 350.527,121.866 M350.215,125.1 C350.215,124.959 350.215,124.741 350.215,124.475 C350.23,124.256 350.23,124.053 350.23,123.866 C350.23,123.819 350.23,123.787 350.23,123.741 C350.23,123.522 350.215,123.303 350.215,123.1 C350.215,123.069 350.199,123.037 350.199,122.959 C350.183,122.881 350.168,122.803 350.168,122.741 C350.152,122.709 350.152,122.678 350.152,122.647 C350.152,122.616 350.152,122.584 350.168,122.553 C350.168,122.491 350.199,122.444 350.23,122.412 C350.277,122.381 350.324,122.366 350.386,122.366 C350.402,122.366 350.402,122.366 350.418,122.366 C350.496,122.381 350.574,122.397 350.668,122.444 C350.746,122.491 350.824,122.553 350.902,122.616 C350.98,122.678 351.043,122.741 351.105,122.787 C351.168,122.85 351.199,122.897 351.23,122.944 C351.308,123.069 351.371,123.225 351.402,123.381 C351.418,123.475 351.418,123.553 351.418,123.647 C351.418,123.709 351.418,123.787 351.418,123.85 C351.386,124.006 351.34,124.147 351.277,124.303 C351.215,124.444 351.121,124.569 351.027,124.694 C350.918,124.803 350.793,124.897 350.668,124.959 C350.527,125.037 350.371,125.084 350.215,125.1"/>
<path class="Harmony" d="M366.527,34.9952 C366.058,35.089 365.293,35.1827 364.058,35.2921 C362.824,35.3858 361.871,35.5733 361.215,35.6671 C360.543,35.7608 359.59,35.8546 358.449,36.0421 C357.308,36.2296 356.465,36.5265 355.699,36.8077 C354.933,37.089 354.09,37.464 353.324,37.9483 C352.558,38.4171 351.902,38.9015 351.418,39.5577 C350.761,40.2296 350.277,40.9796 349.902,41.7452 C349.527,42.5108 349.246,43.4483 349.136,44.4015 C349.043,45.0733 349.043,45.7296 349.043,46.4015 L349.043,46.964 C349.136,47.6358 349.136,48.589 349.246,49.7296 C349.34,50.8702 349.34,51.8077 349.34,52.4796 C349.34,63.3077 349.621,73.9483 350.09,84.4952 C350.183,85.0577 350.183,85.6358 350.183,86.3077 C350.09,88.2921 349.996,90.9483 349.808,94.089 C349.527,97.7921 349.34,100.558 349.34,102.355 L349.34,102.933 L349.34,104.542 C349.34,105.011 349.527,105.495 349.621,106.058 C349.715,106.636 349.902,107.105 350.183,107.386 C350.48,107.683 350.761,107.964 351.23,108.245 C351.621,108.433 352.09,108.526 352.652,108.526 L352.949,108.526 C356.261,108.433 359.59,107.776 362.918,106.542 C366.246,105.308 369.386,103.776 372.324,101.792 C375.277,99.7921 378.027,97.4171 380.683,94.6671 C383.34,91.9015 385.621,89.0577 387.527,86.0108 C389.418,82.9796 391.043,79.839 392.277,76.5108 C393.511,73.1827 394.168,69.8702 394.371,66.7296 C394.465,66.0577 394.465,65.3077 394.465,64.6358 C394.465,62.839 394.277,60.9327 393.886,59.0421 C393.418,56.3702 392.652,53.714 391.605,51.2452 C390.558,48.7765 389.23,46.4952 387.527,44.3077 C385.808,42.1202 383.918,40.3233 381.824,38.8077 C379.73,37.2765 377.449,36.1358 374.793,35.4796 C373.09,34.9952 371.277,34.8077 369.48,34.8077 C368.527,34.8077 367.574,34.9015 366.527,34.9952 M360.636,96.3702 C360.636,93.6202 360.73,89.6202 360.824,84.4952 C360.918,80.4171 361.011,76.5108 361.011,72.9952 C361.011,72.1515 360.918,71.2921 360.918,70.4327 C360.918,66.2608 360.824,62.1671 360.636,58.3702 C360.636,57.9015 360.543,57.0421 360.355,55.6202 C360.168,54.1827 359.886,52.8546 359.777,51.6202 C359.683,51.0577 359.683,50.4796 359.683,49.9171 C359.683,49.2452 359.683,48.6827 359.777,48.0108 C359.98,46.7765 360.355,45.8233 361.011,45.3546 C361.871,44.6827 362.824,44.4015 363.871,44.4015 C364.152,44.4952 364.433,44.4952 364.73,44.4952 C366.152,44.6827 367.668,45.1671 369.277,46.0265 C370.902,46.8702 372.418,48.0108 373.84,49.1515 C375.277,50.2921 376.605,51.4327 377.652,52.5733 C378.683,53.714 379.543,54.5733 380.027,55.4327 C381.543,57.9015 382.59,60.6515 383.152,63.6827 C383.433,65.4015 383.636,67.1046 383.636,68.8233 C383.636,70.0577 383.527,71.2921 383.433,72.5265 C382.965,75.464 382.105,78.3233 380.871,81.0733 C379.636,83.8233 378.027,86.3077 376.121,88.4796 C374.136,90.6671 371.855,92.3858 369.183,93.8077 C366.527,95.2296 363.683,96.089 360.636,96.3702"/>
<path class="Harmony" d="M1025.99,51.3968 C1025.53,51.4905 1024.76,51.5843 1023.53,51.6937 C1022.29,51.7874 1021.34,51.9749 1020.68,52.0687 C1020.01,52.1624 1019.06,52.2562 1017.92,52.4437 C1016.78,52.6312 1015.93,52.928 1015.17,53.2093 C1014.4,53.4905 1013.56,53.8655 1012.79,54.3499 C1012.03,54.8187 1011.37,55.303 1010.88,55.9593 C1010.23,56.6312 1009.74,57.3812 1009.37,58.1468 C1008.99,58.9124 1008.71,59.8499 1008.6,60.803 C1008.51,61.4749 1008.51,62.1312 1008.51,62.803 L1008.51,63.3655 C1008.6,64.0374 1008.6,64.9905 1008.71,66.1312 C1008.81,67.2718 1008.81,68.2093 1008.81,68.8812 C1008.81,79.7093 1009.09,90.3499 1009.56,100.897 C1009.65,101.459 1009.65,102.037 1009.65,102.709 C1009.56,104.694 1009.46,107.35 1009.28,110.491 C1008.99,114.194 1008.81,116.959 1008.81,118.756 L1008.81,119.334 L1008.81,120.944 C1008.81,121.412 1008.99,121.897 1009.09,122.459 C1009.18,123.037 1009.37,123.506 1009.65,123.787 C1009.95,124.084 1010.23,124.366 1010.7,124.647 C1011.09,124.834 1011.56,124.928 1012.12,124.928 L1012.42,124.928 C1015.73,124.834 1019.06,124.178 1022.38,122.944 C1025.71,121.709 1028.85,120.178 1031.79,118.194 C1034.74,116.194 1037.49,113.819 1040.15,111.069 C1042.81,108.303 1045.09,105.459 1046.99,102.412 C1048.88,99.3812 1050.51,96.2405 1051.74,92.9124 C1052.98,89.5843 1053.63,86.2718 1053.84,83.1312 C1053.93,82.4593 1053.93,81.7093 1053.93,81.0374 C1053.93,79.2405 1053.74,77.3343 1053.35,75.4437 C1052.88,72.7718 1052.12,70.1155 1051.07,67.6468 C1050.03,65.178 1048.7,62.8968 1046.99,60.7093 C1045.28,58.5218 1043.38,56.7249 1041.29,55.2093 C1039.2,53.678 1036.92,52.5374 1034.26,51.8812 C1032.56,51.3968 1030.74,51.2093 1028.95,51.2093 C1027.99,51.2093 1027.04,51.303 1025.99,51.3968 M1020.1,112.772 C1020.1,110.022 1020.2,106.022 1020.29,100.897 C1020.38,96.8187 1020.48,92.9124 1020.48,89.3968 C1020.48,88.553 1020.38,87.6937 1020.38,86.8343 C1020.38,82.6624 1020.29,78.5687 1020.1,74.7718 C1020.1,74.303 1020.01,73.4437 1019.82,72.0218 C1019.63,70.5843 1019.35,69.2562 1019.24,68.0218 C1019.15,67.4593 1019.15,66.8812 1019.15,66.3187 C1019.15,65.6468 1019.15,65.0843 1019.24,64.4124 C1019.45,63.178 1019.82,62.2249 1020.48,61.7562 C1021.34,61.0843 1022.29,60.803 1023.34,60.803 C1023.62,60.8968 1023.9,60.8968 1024.2,60.8968 C1025.62,61.0843 1027.13,61.5687 1028.74,62.428 C1030.37,63.2718 1031.88,64.4124 1033.31,65.553 C1034.74,66.6937 1036.07,67.8343 1037.12,68.9749 C1038.15,70.1155 1039.01,70.9749 1039.49,71.8343 C1041.01,74.303 1042.06,77.053 1042.62,80.0843 C1042.9,81.803 1043.1,83.5062 1043.1,85.2249 C1043.1,86.4593 1042.99,87.6937 1042.9,88.928 C1042.43,91.8655 1041.57,94.7249 1040.34,97.4749 C1039.1,100.225 1037.49,102.709 1035.59,104.881 C1033.6,107.069 1031.32,108.787 1028.65,110.209 C1025.99,111.631 1023.15,112.491 1020.1,112.772"/>
<path class="Harmony" d="M1685.46,51.3968 C1684.99,51.4905 1684.23,51.5843 1682.99,51.6937 C1681.76,51.7874 1680.81,51.9749 1680.15,52.0687 C1679.48,52.1624 1678.52,52.2562 1677.38,52.4437 C1676.24,52.6312 1675.4,52.928 1674.63,53.2093 C1673.87,53.4905 1673.02,53.8655 1672.26,54.3499 C1671.49,54.8187 1670.84,55.303 1670.35,55.9593 C1669.7,56.6312 1669.21,57.3812 1668.84,58.1468 C1668.46,58.9124 1668.18,59.8499 1668.07,60.803 C1667.98,61.4749 1667.98,62.1312 1667.98,62.803 L1667.98,63.3655 C1668.07,64.0374 1668.07,64.9905 1668.18,66.1312 C1668.27,67.2718 1668.27,68.2093 1668.27,68.8812 C1668.27,79.7093 1668.56,90.3499 1669.02,100.897 C1669.12,101.459 1669.12,102.037 1669.12,102.709 C1669.02,104.694 1668.93,107.35 1668.74,110.491 C1668.46,114.194 1668.27,116.959 1668.27,118.756 L1668.27,119.334 L1668.27,120.944 C1668.27,121.412 1668.46,121.897 1668.56,122.459 C1668.65,123.037 1668.84,123.506 1669.12,123.787 C1669.41,124.084 1669.7,124.366 1670.16,124.647 C1670.56,124.834 1671.02,124.928 1671.59,124.928 L1671.88,124.928 C1675.2,124.834 1678.52,124.178 1681.85,122.944 C1685.18,121.709 1688.32,120.178 1691.26,118.194 C1694.21,116.194 1696.96,113.819 1699.62,111.069 C1702.27,108.303 1704.56,105.459 1706.46,102.412 C1708.35,99.3812 1709.98,96.2405 1711.21,92.9124 C1712.45,89.5843 1713.1,86.2718 1713.31,83.1312 C1713.4,82.4593 1713.4,81.7093 1713.4,81.0374 C1713.4,79.2405 1713.21,77.3343 1712.82,75.4437 C1712.35,72.7718 1711.59,70.1155 1710.54,67.6468 C1709.49,65.178 1708.16,62.8968 1706.46,60.7093 C1704.74,58.5218 1702.85,56.7249 1700.76,55.2093 C1698.66,53.678 1696.38,52.5374 1693.73,51.8812 C1692.02,51.3968 1690.21,51.2093 1688.41,51.2093 C1687.46,51.2093 1686.51,51.303 1685.46,51.3968 M1679.57,112.772 C1679.57,110.022 1679.66,106.022 1679.76,100.897 C1679.85,96.8187 1679.95,92.9124 1679.95,89.3968 C1679.95,88.553 1679.85,87.6937 1679.85,86.8343 C1679.85,82.6624 1679.76,78.5687 1679.57,74.7718 C1679.57,74.303 1679.48,73.4437 1679.29,72.0218 C1679.1,70.5843 1678.82,69.2562 1678.71,68.0218 C1678.62,67.4593 1678.62,66.8812 1678.62,66.3187 C1678.62,65.6468 1678.62,65.0843 1678.71,64.4124 C1678.91,63.178 1679.29,62.2249 1679.95,61.7562 C1680.81,61.0843 1681.76,60.803 1682.81,60.803 C1683.09,60.8968 1683.37,60.8968 1683.66,60.8968 C1685.09,61.0843 1686.6,61.5687 1688.21,62.428 C1689.84,63.2718 1691.35,64.4124 1692.77,65.553 C1694.21,66.6937 1695.54,67.8343 1696.59,68.9749 C1697.62,70.1155 1698.48,70.9749 1698.96,71.8343 C1700.48,74.303 1701.52,77.053 1702.09,80.0843 C1702.37,81.803 1702.57,83.5062 1702.57,85.2249 C1702.57,86.4593 1702.46,87.6937 1702.37,88.928 C1701.9,91.8655 1701.04,94.7249 1699.81,97.4749 C1698.57,100.225 1696.96,102.709 1695.06,104.881 C1693.07,107.069 1690.79,108.787 1688.12,110.209 C1685.46,111.631 1682.62,112.491 1679.57,112.772"/>
<path class="Harmony" d="M2359.85,71.3499 C2361.08,72.9593 2361.93,75.1468 2362.6,77.9124 C2363.27,80.6624 2363.74,83.3187 2364.21,86.0843 C2364.69,88.8343 2364.98,91.3968 2365.07,93.678 L2357.85,92.9124 L2350.05,93.678 L2354.05,81.803 L2359.85,71.3499 M2358.13,104.787 L2360.04,104.787 L2362.88,104.787 L2363.65,104.787 L2364.51,104.787 C2364.6,104.787 2364.88,104.881 2365.26,104.881 C2365.65,104.881 2365.93,104.881 2366.12,104.975 C2366.3,105.084 2366.49,105.178 2366.79,105.272 C2367.07,105.366 2367.26,105.459 2367.44,105.647 C2367.63,105.834 2367.93,105.928 2368.12,106.116 C2368.58,106.6 2369.05,107.553 2369.44,108.787 C2369.82,109.928 2370.19,111.162 2370.49,112.584 C2370.77,114.006 2371.05,115.428 2371.33,117.053 C2371.63,118.662 2372.01,120.084 2372.38,121.412 C2372.77,122.741 2373.33,123.975 2373.91,125.022 C2374.48,126.069 2375.15,126.741 2375.99,127.116 C2376.38,127.303 2376.85,127.397 2377.43,127.397 C2377.9,127.397 2378.46,127.303 2379.04,127.116 C2379.9,126.834 2380.55,126.459 2381.23,126.069 C2381.88,125.694 2382.37,125.319 2382.74,124.834 C2383.12,124.366 2383.41,123.881 2383.69,123.319 C2383.98,122.741 2384.16,122.366 2384.26,121.897 C2384.35,121.506 2384.35,121.131 2384.35,120.662 L2384.35,120.178 C2384.35,119.522 2384.35,118.85 2384.26,118.381 C2384.16,117.897 2383.98,117.334 2383.79,116.569 C2383.6,115.819 2383.41,115.241 2383.21,114.772 C2383.02,114.287 2382.93,113.631 2382.65,112.772 C2382.37,111.912 2382.07,111.35 2381.98,110.975 C2381.32,109.069 2380.18,105.272 2378.55,99.6624 C2377.43,95.5843 2376.48,92.1624 2375.8,89.4905 C2374.57,84.6468 2373.52,80.6624 2372.77,77.5218 C2371.54,72.303 2370.58,68.7874 2370.1,66.9749 C2370.01,66.5999 2369.91,66.0374 2369.73,65.2718 C2369.54,64.5062 2369.44,63.8499 2369.35,63.2718 C2369.26,62.7093 2368.96,62.1312 2368.77,61.3812 C2368.58,60.6155 2368.4,59.8499 2368.21,59.2874 C2368.02,58.7093 2367.63,58.053 2367.35,57.3812 C2367.07,56.7249 2366.68,56.2405 2366.3,55.7718 C2365.93,55.303 2365.65,54.9124 2365.16,54.5374 C2364.69,54.1624 2364.21,53.7718 2363.65,53.678 C2363.18,53.5843 2362.69,53.4905 2362.13,53.4905 L2361.74,53.4905 C2361.08,53.5843 2360.32,53.678 2359.46,53.9593 C2358.8,54.2562 2358.04,54.6312 2357.38,55.0999 C2356.71,55.5843 2356.05,55.9593 2355.57,56.4437 C2355.1,56.9124 2354.62,57.5843 2354.15,58.3343 C2353.68,59.0999 2353.19,59.6624 2352.91,60.2405 C2352.63,60.803 2352.24,61.5687 2351.87,62.5218 C2351.49,63.4593 2351.1,64.2249 2350.91,64.803 C2350.73,65.3655 2350.54,66.1312 2350.16,67.0843 C2349.77,68.0218 2349.49,68.6937 2349.4,69.1624 C2346.65,76.0999 2343.88,82.6624 2341.13,89.0218 C2336.66,99.1937 2334.01,105.366 2333.24,107.647 C2333.15,108.022 2332.77,108.694 2332.29,109.725 C2331.82,110.772 2331.26,111.725 2330.77,112.678 C2330.3,113.631 2329.82,114.866 2329.26,116.1 C2328.68,117.334 2328.21,118.569 2327.93,119.616 C2327.54,120.662 2327.35,121.6 2327.35,122.459 C2327.44,123.319 2327.65,123.881 2328.12,124.366 C2328.98,125.022 2329.91,125.412 2330.96,125.412 L2331.63,125.412 C2332.96,125.225 2334.29,124.834 2335.62,124.084 C2336.94,123.319 2337.9,122.459 2338.38,121.6 C2338.94,120.569 2339.52,119.334 2339.99,117.803 C2340.46,116.287 2340.94,114.866 2341.23,113.631 C2341.51,112.397 2341.9,111.069 2342.55,109.631 C2343.23,108.209 2343.98,107.069 2344.83,106.116 L2349.96,104.506 C2350.26,104.412 2350.63,104.506 2351.3,104.506 L2354.05,104.506 C2354.33,104.506 2355.76,104.6 2358.13,104.787"/>
<path class="Harmony" d="M187.627,361.436 C187.158,361.53 186.392,361.624 185.158,361.733 C183.923,361.827 182.97,362.014 182.314,362.108 C181.642,362.202 180.689,362.296 179.548,362.483 C178.408,362.671 177.564,362.967 176.798,363.249 C176.033,363.53 175.189,363.905 174.423,364.389 C173.658,364.858 173.002,365.342 172.517,365.999 C171.861,366.671 171.377,367.421 171.002,368.186 C170.627,368.952 170.345,369.889 170.236,370.842 C170.142,371.514 170.142,372.171 170.142,372.842 L170.142,373.405 C170.236,374.077 170.236,375.03 170.345,376.171 C170.439,377.311 170.439,378.249 170.439,378.921 C170.439,389.749 170.72,400.389 171.189,410.936 C171.283,411.499 171.283,412.077 171.283,412.749 C171.189,414.733 171.095,417.389 170.908,420.53 C170.627,424.233 170.439,426.999 170.439,428.796 L170.439,429.374 L170.439,430.983 C170.439,431.452 170.627,431.936 170.72,432.499 C170.814,433.077 171.002,433.546 171.283,433.827 C171.58,434.124 171.861,434.405 172.33,434.686 C172.72,434.874 173.189,434.967 173.752,434.967 L174.048,434.967 C177.361,434.874 180.689,434.217 184.017,432.983 C187.345,431.749 190.486,430.217 193.423,428.233 C196.377,426.233 199.127,423.858 201.783,421.108 C204.439,418.342 206.72,415.499 208.627,412.452 C210.517,409.421 212.142,406.28 213.377,402.952 C214.611,399.624 215.267,396.311 215.47,393.171 C215.564,392.499 215.564,391.749 215.564,391.077 C215.564,389.28 215.377,387.374 214.986,385.483 C214.517,382.811 213.752,380.155 212.705,377.686 C211.658,375.217 210.33,372.936 208.627,370.749 C206.908,368.561 205.017,366.764 202.923,365.249 C200.83,363.717 198.548,362.577 195.892,361.921 C194.189,361.436 192.377,361.249 190.58,361.249 C189.627,361.249 188.673,361.342 187.627,361.436 M181.736,422.811 C181.736,420.061 181.83,416.061 181.923,410.936 C182.017,406.858 182.111,402.952 182.111,399.436 C182.111,398.592 182.017,397.733 182.017,396.874 C182.017,392.702 181.923,388.608 181.736,384.811 C181.736,384.342 181.642,383.483 181.455,382.061 C181.267,380.624 180.986,379.296 180.877,378.061 C180.783,377.499 180.783,376.921 180.783,376.358 C180.783,375.686 180.783,375.124 180.877,374.452 C181.08,373.217 181.455,372.264 182.111,371.796 C182.97,371.124 183.923,370.842 184.97,370.842 C185.252,370.936 185.533,370.936 185.83,370.936 C187.252,371.124 188.767,371.608 190.377,372.467 C192.002,373.311 193.517,374.452 194.939,375.592 C196.377,376.733 197.705,377.874 198.752,379.014 C199.783,380.155 200.642,381.014 201.127,381.874 C202.642,384.342 203.689,387.092 204.252,390.124 C204.533,391.842 204.736,393.546 204.736,395.264 C204.736,396.499 204.627,397.733 204.533,398.967 C204.064,401.905 203.205,404.764 201.97,407.514 C200.736,410.264 199.127,412.749 197.22,414.921 C195.236,417.108 192.955,418.827 190.283,420.249 C187.627,421.671 184.783,422.53 181.736,422.811"/>
<path class="Harmony" d="M881.249,361.436 C880.78,361.53 880.014,361.624 878.78,361.733 C877.546,361.827 876.593,362.014 875.936,362.108 C875.264,362.202 874.311,362.296 873.171,362.483 C872.03,362.671 871.186,362.967 870.421,363.249 C869.655,363.53 868.811,363.905 868.046,364.389 C867.28,364.858 866.624,365.342 866.139,365.999 C865.483,366.671 864.999,367.421 864.624,368.186 C864.249,368.952 863.968,369.889 863.858,370.842 C863.764,371.514 863.764,372.171 863.764,372.842 L863.764,373.405 C863.858,374.077 863.858,375.03 863.968,376.171 C864.061,377.311 864.061,378.249 864.061,378.921 C864.061,389.749 864.343,400.389 864.811,410.936 C864.905,411.499 864.905,412.077 864.905,412.749 C864.811,414.733 864.718,417.389 864.53,420.53 C864.249,424.233 864.061,426.999 864.061,428.796 L864.061,429.374 L864.061,430.983 C864.061,431.452 864.249,431.936 864.343,432.499 C864.436,433.077 864.624,433.546 864.905,433.827 C865.202,434.124 865.483,434.405 865.952,434.686 C866.343,434.874 866.811,434.967 867.374,434.967 L867.671,434.967 C870.983,434.874 874.311,434.217 877.639,432.983 C880.968,431.749 884.108,430.217 887.046,428.233 C889.999,426.233 892.749,423.858 895.405,421.108 C898.061,418.342 900.343,415.499 902.249,412.452 C904.139,409.421 905.764,406.28 906.999,402.952 C908.233,399.624 908.889,396.311 909.093,393.171 C909.186,392.499 909.186,391.749 909.186,391.077 C909.186,389.28 908.999,387.374 908.608,385.483 C908.139,382.811 907.374,380.155 906.327,377.686 C905.28,375.217 903.952,372.936 902.249,370.749 C900.53,368.561 898.639,366.764 896.546,365.249 C894.452,363.717 892.171,362.577 889.514,361.921 C887.811,361.436 885.999,361.249 884.202,361.249 C883.249,361.249 882.296,361.342 881.249,361.436 M875.358,422.811 C875.358,420.061 875.452,416.061 875.546,410.936 C875.639,406.858 875.733,402.952 875.733,399.436 C875.733,398.592 875.639,397.733 875.639,396.874 C875.639,392.702 875.546,388.608 875.358,384.811 C875.358,384.342 875.264,383.483 875.077,382.061 C874.889,380.624 874.608,379.296 874.499,378.061 C874.405,377.499 874.405,376.921 874.405,376.358 C874.405,375.686 874.405,375.124 874.499,374.452 C874.702,373.217 875.077,372.264 875.733,371.796 C876.593,371.124 877.546,370.842 878.593,370.842 C878.874,370.936 879.155,370.936 879.452,370.936 C880.874,371.124 882.389,371.608 883.999,372.467 C885.624,373.311 887.139,374.452 888.561,375.592 C889.999,376.733 891.327,377.874 892.374,379.014 C893.405,380.155 894.264,381.014 894.749,381.874 C896.264,384.342 897.311,387.092 897.874,390.124 C898.155,391.842 898.358,393.546 898.358,395.264 C898.358,396.499 898.249,397.733 898.155,398.967 C897.686,401.905 896.827,404.764 895.593,407.514 C894.358,410.264 892.749,412.749 890.843,414.921 C888.858,417.108 886.577,418.827 883.905,420.249 C881.249,421.671 878.405,422.53 875.358,422.811"/>
<path class="Harmony" d="M1589.79,381.389 C1591.03,382.999 1591.87,385.186 1592.54,387.952 C1593.21,390.702 1593.68,393.358 1594.15,396.124 C1594.64,398.874 1594.92,401.436 1595.01,403.717 L1587.79,402.952 L1580,403.717 L1584,391.842 L1589.79,381.389 M1588.07,414.827 L1589.98,414.827 L1592.82,414.827 L1593.59,414.827 L1594.45,414.827 C1594.54,414.827 1594.82,414.921 1595.2,414.921 C1595.59,414.921 1595.87,414.921 1596.06,415.014 C1596.25,415.124 1596.43,415.217 1596.73,415.311 C1597.01,415.405 1597.2,415.499 1597.39,415.686 C1597.57,415.874 1597.87,415.967 1598.06,416.155 C1598.53,416.639 1599,417.592 1599.39,418.827 C1599.76,419.967 1600.14,421.202 1600.43,422.624 C1600.71,424.046 1601,425.467 1601.28,427.092 C1601.57,428.702 1601.95,430.124 1602.32,431.452 C1602.71,432.78 1603.28,434.014 1603.86,435.061 C1604.42,436.108 1605.09,436.78 1605.93,437.155 C1606.32,437.342 1606.79,437.436 1607.37,437.436 C1607.84,437.436 1608.4,437.342 1608.98,437.155 C1609.84,436.874 1610.5,436.499 1611.17,436.108 C1611.82,435.733 1612.31,435.358 1612.68,434.874 C1613.06,434.405 1613.36,433.921 1613.64,433.358 C1613.92,432.78 1614.11,432.405 1614.2,431.936 C1614.29,431.546 1614.29,431.171 1614.29,430.702 L1614.29,430.217 C1614.29,429.561 1614.29,428.889 1614.2,428.421 C1614.11,427.936 1613.92,427.374 1613.73,426.608 C1613.54,425.858 1613.36,425.28 1613.15,424.811 C1612.96,424.327 1612.87,423.671 1612.59,422.811 C1612.31,421.952 1612.01,421.389 1611.92,421.014 C1611.26,419.108 1610.12,415.311 1608.5,409.702 C1607.37,405.624 1606.42,402.202 1605.75,399.53 C1604.51,394.686 1603.46,390.702 1602.71,387.561 C1601.48,382.342 1600.53,378.827 1600.04,377.014 C1599.95,376.639 1599.86,376.077 1599.67,375.311 C1599.48,374.546 1599.39,373.889 1599.29,373.311 C1599.2,372.749 1598.9,372.171 1598.71,371.421 C1598.53,370.655 1598.34,369.889 1598.15,369.327 C1597.96,368.749 1597.57,368.092 1597.29,367.421 C1597.01,366.764 1596.62,366.28 1596.25,365.811 C1595.87,365.342 1595.59,364.952 1595.11,364.577 C1594.64,364.202 1594.15,363.811 1593.59,363.717 C1593.12,363.624 1592.64,363.53 1592.07,363.53 L1591.68,363.53 C1591.03,363.624 1590.26,363.717 1589.4,363.999 C1588.75,364.296 1587.98,364.671 1587.32,365.139 C1586.65,365.624 1586,365.999 1585.51,366.483 C1585.04,366.952 1584.56,367.624 1584.09,368.374 C1583.62,369.139 1583.14,369.702 1582.86,370.28 C1582.57,370.842 1582.18,371.608 1581.81,372.561 C1581.43,373.499 1581.04,374.264 1580.86,374.842 C1580.67,375.405 1580.48,376.171 1580.11,377.124 C1579.71,378.061 1579.43,378.733 1579.34,379.202 C1576.59,386.139 1573.82,392.702 1571.07,399.061 C1566.61,409.233 1563.95,415.405 1563.18,417.686 C1563.09,418.061 1562.71,418.733 1562.23,419.764 C1561.76,420.811 1561.2,421.764 1560.71,422.717 C1560.25,423.671 1559.76,424.905 1559.2,426.139 C1558.62,427.374 1558.15,428.608 1557.87,429.655 C1557.48,430.702 1557.29,431.639 1557.29,432.499 C1557.39,433.358 1557.59,433.921 1558.06,434.405 C1558.92,435.061 1559.86,435.452 1560.9,435.452 L1561.57,435.452 C1562.9,435.264 1564.23,434.874 1565.56,434.124 C1566.89,433.358 1567.84,432.499 1568.32,431.639 C1568.89,430.608 1569.46,429.374 1569.93,427.842 C1570.4,426.327 1570.89,424.905 1571.17,423.671 C1571.45,422.436 1571.84,421.108 1572.5,419.671 C1573.17,418.249 1573.92,417.108 1574.78,416.155 L1579.9,414.546 C1580.2,414.452 1580.57,414.546 1581.25,414.546 L1584,414.546 C1584.28,414.546 1585.7,414.639 1588.07,414.827"/>
<path class="Harmony" d="M2268.49,361.436 C2268.02,361.53 2267.26,361.624 2266.02,361.733 C2264.79,361.827 2263.84,362.014 2263.18,362.108 C2262.51,362.202 2261.56,362.296 2260.42,362.483 C2259.27,362.671 2258.43,362.967 2257.67,363.249 C2256.9,363.53 2256.06,363.905 2255.29,364.389 C2254.52,364.858 2253.87,365.342 2253.38,365.999 C2252.73,366.671 2252.24,367.421 2251.87,368.186 C2251.49,368.952 2251.21,369.889 2251.1,370.842 C2251.01,371.514 2251.01,372.171 2251.01,372.842 L2251.01,373.405 C2251.1,374.077 2251.1,375.03 2251.21,376.171 C2251.31,377.311 2251.31,378.249 2251.31,378.921 C2251.31,389.749 2251.59,400.389 2252.06,410.936 C2252.15,411.499 2252.15,412.077 2252.15,412.749 C2252.06,414.733 2251.96,417.389 2251.77,420.53 C2251.49,424.233 2251.31,426.999 2251.31,428.796 L2251.31,429.374 L2251.31,430.983 C2251.31,431.452 2251.49,431.936 2251.59,432.499 C2251.68,433.077 2251.87,433.546 2252.15,433.827 C2252.45,434.124 2252.73,434.405 2253.2,434.686 C2253.59,434.874 2254.06,434.967 2254.62,434.967 L2254.92,434.967 C2258.23,434.874 2261.56,434.217 2264.88,432.983 C2268.21,431.749 2271.35,430.217 2274.29,428.233 C2277.24,426.233 2279.99,423.858 2282.65,421.108 C2285.31,418.342 2287.59,415.499 2289.49,412.452 C2291.38,409.421 2293.01,406.28 2294.24,402.952 C2295.48,399.624 2296.13,396.311 2296.34,393.171 C2296.43,392.499 2296.43,391.749 2296.43,391.077 C2296.43,389.28 2296.24,387.374 2295.85,385.483 C2295.38,382.811 2294.62,380.155 2293.57,377.686 C2292.52,375.217 2291.2,372.936 2289.49,370.749 C2287.77,368.561 2285.88,366.764 2283.79,365.249 C2281.7,363.717 2279.42,362.577 2276.76,361.921 C2275.06,361.436 2273.24,361.249 2271.45,361.249 C2270.49,361.249 2269.54,361.342 2268.49,361.436 M2262.6,422.811 C2262.6,420.061 2262.7,416.061 2262.79,410.936 C2262.88,406.858 2262.98,402.952 2262.98,399.436 C2262.98,398.592 2262.88,397.733 2262.88,396.874 C2262.88,392.702 2262.79,388.608 2262.6,384.811 C2262.6,384.342 2262.51,383.483 2262.32,382.061 C2262.13,380.624 2261.85,379.296 2261.74,378.061 C2261.65,377.499 2261.65,376.921 2261.65,376.358 C2261.65,375.686 2261.65,375.124 2261.74,374.452 C2261.95,373.217 2262.32,372.264 2262.98,371.796 C2263.84,371.124 2264.79,370.842 2265.84,370.842 C2266.12,370.936 2266.4,370.936 2266.7,370.936 C2268.12,371.124 2269.63,371.608 2271.24,372.467 C2272.87,373.311 2274.38,374.452 2275.81,375.592 C2277.24,376.733 2278.57,377.874 2279.62,379.014 C2280.65,380.155 2281.51,381.014 2281.99,381.874 C2283.51,384.342 2284.56,387.092 2285.12,390.124 C2285.4,391.842 2285.6,393.546 2285.6,395.264 C2285.6,396.499 2285.49,397.733 2285.4,398.967 C2284.93,401.905 2284.07,404.764 2282.84,407.514 C2281.6,410.264 2279.99,412.749 2278.09,414.921 C2276.1,417.108 2273.82,418.827 2271.15,420.249 C2268.49,421.671 2265.65,422.53 2262.6,422.811"/>
<path class="Harmony" d="M187.627,679.018 C187.158,679.112 186.392,679.206 185.158,679.315 C183.923,679.409 182.97,679.596 182.314,679.69 C181.642,679.784 180.689,679.878 179.548,680.065 C178.408,680.253 177.564,680.55 176.798,680.831 C176.033,681.112 175.189,681.487 174.423,681.971 C173.658,682.44 173.002,682.925 172.517,683.581 C171.861,684.253 171.377,685.003 171.002,685.768 C170.627,686.534 170.345,687.471 170.236,688.425 C170.142,689.096 170.142,689.753 170.142,690.425 L170.142,690.987 C170.236,691.659 170.236,692.612 170.345,693.753 C170.439,694.893 170.439,695.831 170.439,696.503 C170.439,707.331 170.72,717.971 171.189,728.518 C171.283,729.081 171.283,729.659 171.283,730.331 C171.189,732.315 171.095,734.971 170.908,738.112 C170.627,741.815 170.439,744.581 170.439,746.378 L170.439,746.956 L170.439,748.565 C170.439,749.034 170.627,749.518 170.72,750.081 C170.814,750.659 171.002,751.128 171.283,751.409 C171.58,751.706 171.861,751.987 172.33,752.268 C172.72,752.456 173.189,752.55 173.752,752.55 L174.048,752.55 C177.361,752.456 180.689,751.8 184.017,750.565 C187.345,749.331 190.486,747.8 193.423,745.815 C196.377,743.815 199.127,741.44 201.783,738.69 C204.439,735.925 206.72,733.081 208.627,730.034 C210.517,727.003 212.142,723.862 213.377,720.534 C214.611,717.206 215.267,713.893 215.47,710.753 C215.564,710.081 215.564,709.331 215.564,708.659 C215.564,706.862 215.377,704.956 214.986,703.065 C214.517,700.393 213.752,697.737 212.705,695.268 C211.658,692.8 210.33,690.518 208.627,688.331 C206.908,686.143 205.017,684.346 202.923,682.831 C200.83,681.3 198.548,680.159 195.892,679.503 C194.189,679.018 192.377,678.831 190.58,678.831 C189.627,678.831 188.673,678.925 187.627,679.018 M181.736,740.393 C181.736,737.643 181.83,733.643 181.923,728.518 C182.017,724.44 182.111,720.534 182.111,717.018 C182.111,716.175 182.017,715.315 182.017,714.456 C182.017,710.284 181.923,706.19 181.736,702.393 C181.736,701.925 181.642,701.065 181.455,699.643 C181.267,698.206 180.986,696.878 180.877,695.643 C180.783,695.081 180.783,694.503 180.783,693.94 C180.783,693.268 180.783,692.706 180.877,692.034 C181.08,690.8 181.455,689.846 182.111,689.378 C182.97,688.706 183.923,688.425 184.97,688.425 C185.252,688.518 185.533,688.518 185.83,688.518 C187.252,688.706 188.767,689.19 190.377,690.05 C192.002,690.893 193.517,692.034 194.939,693.175 C196.377,694.315 197.705,695.456 198.752,696.596 C199.783,697.737 200.642,698.596 201.127,699.456 C202.642,701.925 203.689,704.675 204.252,707.706 C204.533,709.425 204.736,711.128 204.736,712.846 C204.736,714.081 204.627,715.315 204.533,716.55 C204.064,719.487 203.205,722.346 201.97,725.096 C200.736,727.846 199.127,730.331 197.22,732.503 C195.236,734.69 192.955,736.409 190.283,737.831 C187.627,739.253 184.783,740.112 181.736,740.393"/>
<path class="Harmony" d="M912.725,679.409 C909.022,679.878 905.506,680.737 902.084,681.971 C898.663,683.206 895.522,684.909 892.491,686.909 C889.444,688.909 886.694,691.19 884.319,693.753 C881.944,696.315 879.944,699.253 878.241,702.581 C876.522,705.909 875.381,709.425 874.725,713.128 C874.241,715.409 874.053,717.784 874.053,720.159 L874.053,720.831 C874.053,723.096 874.147,725.284 874.428,727.471 C874.725,729.846 875.288,732.221 876.053,734.409 C876.913,736.69 877.85,738.878 878.897,740.862 C879.944,742.862 881.272,744.675 882.803,746.284 C884.319,747.893 886.209,749.221 888.116,750.362 C890.022,751.503 892.194,752.362 894.569,752.846 C896.194,753.128 897.803,753.315 899.428,753.315 C900.272,753.315 901.225,753.315 902.272,753.221 C905.209,752.94 907.975,752.268 910.538,751.315 C913.1,750.362 915.475,749.221 917.475,747.893 C919.459,746.565 921.459,744.862 923.272,742.956 C925.069,741.065 926.788,738.971 928.209,736.878 C929.631,734.784 930.959,732.409 932.381,729.753 C934.569,725.378 935.616,721.675 935.616,718.737 C935.616,715.784 934.569,713.503 932.381,711.893 C931.147,710.846 929.069,710.19 926.303,709.706 C924.319,709.425 922.319,709.237 920.319,709.237 L919.85,709.237 L917.756,709.237 C914.819,709.331 912.053,709.8 909.397,710.659 C906.741,711.518 904.928,712.565 903.975,713.8 C903.694,714.268 903.413,714.643 903.131,715.034 C902.459,716.081 902.084,717.018 902.084,717.878 C902.084,719.112 902.944,719.971 904.553,720.44 C905.881,720.831 908.444,721.018 912.147,721.018 L913.006,721.018 C914.241,721.112 915.194,721.112 915.85,721.112 C919.756,721.112 922.131,721.581 922.881,722.628 C923.178,723.003 923.459,723.581 923.459,724.143 C923.459,724.721 923.366,725.284 923.272,725.862 C923.178,726.425 922.881,727.096 922.6,727.846 C922.319,728.612 922.038,729.19 921.741,729.659 C921.459,730.128 921.178,730.8 920.803,731.565 C920.413,732.315 920.131,732.706 920.038,732.893 C919.569,733.737 919.272,734.409 918.991,734.878 C918.709,735.362 918.319,735.831 917.85,736.503 C917.381,737.159 916.803,737.737 916.334,738.112 C914.334,739.628 912.147,740.675 909.584,741.159 L906.35,741.534 L905.975,741.534 C904.741,741.44 903.413,741.346 902.178,741.065 C899.803,740.581 897.428,739.721 895.241,738.393 C893.053,737.065 891.163,735.456 889.725,733.55 C888.303,731.565 886.975,729.19 886.022,726.518 C885.069,723.862 884.506,721.112 884.319,718.159 C884.225,717.112 884.225,716.175 884.225,715.128 C884.225,713.221 884.319,711.331 884.6,709.518 C885.069,706.768 885.928,704.096 887.256,701.628 C888.584,699.159 890.303,697.175 892.397,695.643 C894.959,693.659 898.084,692.221 901.694,691.284 C903.694,690.706 905.694,690.425 907.584,690.425 C908.928,690.425 910.256,690.612 911.491,690.893 C912.538,691.19 913.569,691.565 914.819,692.128 C916.053,692.706 917.084,693.268 918.038,693.846 C918.991,694.409 920.038,694.987 921.084,695.55 C922.131,696.128 923.178,696.596 924.116,696.784 C925.069,696.971 926.022,697.081 926.975,696.971 C927.928,696.878 928.866,696.409 929.819,695.55 C930.772,694.706 931.631,693.565 932.475,692.128 C932.959,691.284 933.241,690.425 933.241,689.565 C933.241,688.909 933.053,688.331 932.772,687.675 C932.006,686.237 930.772,685.003 929.069,683.956 C927.35,682.925 925.553,681.971 923.459,681.206 C921.366,680.44 919.366,679.971 917.381,679.69 C915.944,679.409 914.819,679.315 913.866,679.315 C913.381,679.315 913.006,679.315 912.725,679.409"/>
<path class="Harmony" d="M1596.01,679.018 C1595.54,679.112 1594.78,679.206 1593.54,679.315 C1592.31,679.409 1591.35,679.596 1590.7,679.69 C1590.03,679.784 1589.07,679.878 1587.93,680.065 C1586.79,680.253 1585.95,680.55 1585.18,680.831 C1584.42,681.112 1583.57,681.487 1582.81,681.971 C1582.04,682.44 1581.39,682.925 1580.9,683.581 C1580.25,684.253 1579.76,685.003 1579.39,685.768 C1579.01,686.534 1578.73,687.471 1578.62,688.425 C1578.53,689.096 1578.53,689.753 1578.53,690.425 L1578.53,690.987 C1578.62,691.659 1578.62,692.612 1578.73,693.753 C1578.82,694.893 1578.82,695.831 1578.82,696.503 C1578.82,707.331 1579.1,717.971 1579.57,728.518 C1579.67,729.081 1579.67,729.659 1579.67,730.331 C1579.57,732.315 1579.48,734.971 1579.29,738.112 C1579.01,741.815 1578.82,744.581 1578.82,746.378 L1578.82,746.956 L1578.82,748.565 C1578.82,749.034 1579.01,749.518 1579.1,750.081 C1579.2,750.659 1579.39,751.128 1579.67,751.409 C1579.96,751.706 1580.25,751.987 1580.71,752.268 C1581.1,752.456 1581.57,752.55 1582.14,752.55 L1582.43,752.55 C1585.75,752.456 1589.07,751.8 1592.4,750.565 C1595.73,749.331 1598.87,747.8 1601.81,745.815 C1604.76,743.815 1607.51,741.44 1610.17,738.69 C1612.82,735.925 1615.1,733.081 1617.01,730.034 C1618.9,727.003 1620.53,723.862 1621.76,720.534 C1623,717.206 1623.65,713.893 1623.85,710.753 C1623.95,710.081 1623.95,709.331 1623.95,708.659 C1623.95,706.862 1623.76,704.956 1623.37,703.065 C1622.9,700.393 1622.14,697.737 1621.09,695.268 C1620.04,692.8 1618.71,690.518 1617.01,688.331 C1615.29,686.143 1613.4,684.346 1611.31,682.831 C1609.21,681.3 1606.93,680.159 1604.28,679.503 C1602.57,679.018 1600.76,678.831 1598.96,678.831 C1598.01,678.831 1597.06,678.925 1596.01,679.018 M1590.12,740.393 C1590.12,737.643 1590.21,733.643 1590.31,728.518 C1590.4,724.44 1590.5,720.534 1590.5,717.018 C1590.5,716.175 1590.4,715.315 1590.4,714.456 C1590.4,710.284 1590.31,706.19 1590.12,702.393 C1590.12,701.925 1590.03,701.065 1589.84,699.643 C1589.65,698.206 1589.37,696.878 1589.26,695.643 C1589.17,695.081 1589.17,694.503 1589.17,693.94 C1589.17,693.268 1589.17,692.706 1589.26,692.034 C1589.46,690.8 1589.84,689.846 1590.5,689.378 C1591.35,688.706 1592.31,688.425 1593.35,688.425 C1593.64,688.518 1593.92,688.518 1594.21,688.518 C1595.64,688.706 1597.15,689.19 1598.76,690.05 C1600.39,690.893 1601.9,692.034 1603.32,693.175 C1604.76,694.315 1606.09,695.456 1607.14,696.596 C1608.17,697.737 1609.03,698.596 1609.51,699.456 C1611.03,701.925 1612.07,704.675 1612.64,707.706 C1612.92,709.425 1613.12,711.128 1613.12,712.846 C1613.12,714.081 1613.01,715.315 1612.92,716.55 C1612.45,719.487 1611.59,722.346 1610.35,725.096 C1609.12,727.846 1607.51,730.331 1605.6,732.503 C1603.62,734.69 1601.34,736.409 1598.67,737.831 C1596.01,739.253 1593.17,740.112 1590.12,740.393"/>
<path class="Harmony" d="M2313.41,711.128 C2313.89,710.659 2314.55,710.081 2315.5,709.331 C2316.45,708.565 2317.2,708.003 2317.88,707.518 C2318.55,707.05 2319.3,706.378 2320.06,705.628 C2320.83,704.862 2321.39,704.096 2321.95,703.44 C2322.53,702.768 2323,702.018 2323.48,701.159 C2323.95,700.3 2324.33,699.456 2324.53,698.503 C2324.72,697.643 2324.81,696.784 2324.81,695.94 L2324.81,695.55 C2324.72,694.596 2324.53,693.659 2324.14,692.706 C2323.86,691.753 2323.48,690.893 2322.91,690.143 C2322.34,689.378 2321.77,688.612 2321.02,687.862 C2320.25,687.096 2319.48,686.331 2318.73,685.768 C2317.97,685.206 2317.2,684.628 2316.36,684.065 C2314.64,682.831 2312.66,681.878 2310.28,681.206 C2307.91,680.55 2305.63,680.253 2303.16,680.253 C2300.69,680.253 2298.31,680.55 2295.94,681.112 C2293.56,681.69 2291.38,682.721 2289.38,684.065 C2287.38,685.393 2285.67,687.096 2284.44,689.096 C2283.95,689.846 2283.77,690.893 2283.77,692.221 C2283.77,693.565 2283.95,695.081 2284.16,696.784 C2284.34,698.503 2284.44,699.643 2284.44,700.3 C2284.44,702.393 2284.34,704.862 2284.16,707.706 C2283.95,710.565 2283.86,712.94 2283.67,715.034 C2283.48,717.112 2283.39,719.581 2283.39,722.44 L2283.39,723.3 C2283.39,725.768 2283.48,727.956 2283.77,729.753 C2283.86,730.706 2283.86,731.753 2283.86,732.8 L2283.86,733.362 C2283.86,734.596 2283.77,736.018 2283.67,737.456 C2283.39,740.206 2283.2,742.393 2283.2,743.909 L2283.2,744.284 C2283.2,744.768 2283.2,745.721 2283.11,747.331 C2283.02,748.846 2282.92,749.8 2282.92,750.268 C2283.02,750.565 2283.02,750.94 2283.11,751.596 C2283.2,752.081 2283.3,752.55 2283.39,752.846 C2283.48,753.128 2283.86,753.315 2284.53,753.409 C2286.53,753.784 2288.52,753.971 2290.61,753.971 C2292.8,753.971 2295.17,753.784 2297.64,753.315 C2302.48,752.456 2306.95,750.846 2311.03,748.659 C2315.13,746.378 2318.34,743.721 2320.72,740.675 C2322.16,738.878 2323.2,737.065 2324.05,735.175 C2324.91,733.268 2325.38,731.268 2325.67,729.284 C2325.77,728.518 2325.86,727.753 2325.86,726.909 C2325.86,725.768 2325.77,724.628 2325.58,723.581 C2325.19,721.675 2324.53,719.971 2323.58,718.346 C2322.63,716.737 2321.2,715.315 2319.48,714.081 C2317.78,712.846 2315.78,711.8 2313.41,711.128 M2297.73,718.737 C2298.78,718.456 2299.73,718.346 2300.69,718.253 C2302.48,718.253 2304.39,718.737 2306.19,719.784 C2308.95,721.393 2311.22,723.675 2312.84,726.815 C2314.17,729.284 2314.83,731.659 2314.83,733.94 C2314.83,734.784 2314.73,735.55 2314.55,736.409 C2313.89,739.831 2311.7,742.206 2308,743.44 C2307.14,743.721 2306.19,743.909 2305.23,744.19 C2304.3,744.471 2303.06,744.675 2301.72,744.862 C2301.16,744.956 2300.58,745.05 2300.02,745.05 C2299.34,744.956 2298.78,744.956 2298.2,744.862 C2297.17,744.768 2296.41,744.284 2295.94,743.534 C2295.45,742.768 2295.17,741.628 2295.08,740.018 C2294.98,739.346 2294.98,738.69 2294.98,738.018 C2295.08,736.971 2295.08,735.737 2295.17,734.409 C2295.27,732.221 2295.36,730.893 2295.36,730.612 C2295.36,730.128 2295.36,729.378 2295.27,728.331 C2295.17,727.284 2295.17,726.425 2295.17,725.471 C2295.17,724.534 2295.27,723.581 2295.36,722.628 C2295.45,721.675 2295.73,720.721 2296.13,720.065 C2296.5,719.393 2297.06,718.925 2297.73,718.737 M2295.94,689.471 C2296.59,689.378 2297.27,689.19 2297.83,689.19 C2298.41,689.19 2298.97,689.19 2299.64,689.378 C2300.3,689.565 2300.78,689.753 2301.25,689.956 C2301.72,690.143 2302.39,690.331 2303.16,690.612 C2304.39,691.19 2305.63,691.846 2306.77,692.612 C2307.91,693.362 2308.95,694.034 2309.89,694.893 C2310.84,695.737 2311.52,696.69 2312.08,697.737 C2312.66,698.784 2312.94,699.831 2313.03,700.878 L2313.03,701.065 C2313.03,702.018 2312.66,702.956 2311.98,704.003 C2311.22,705.143 2310.08,706.19 2308.56,707.143 C2308.09,707.425 2307.52,707.815 2306.77,708.19 C2306,708.565 2305.14,708.956 2304.09,709.331 C2303.06,709.706 2302.11,710.081 2301.16,710.284 C2300.2,710.471 2299.34,710.565 2298.5,710.471 C2297.64,710.378 2297.06,710.081 2296.78,709.612 C2296.5,709.237 2296.41,708.753 2296.31,708.19 C2296.22,707.612 2296.22,707.05 2296.31,706.581 C2296.41,706.096 2296.59,705.534 2296.69,704.862 C2296.78,704.206 2296.78,703.721 2296.78,703.346 C2296.78,697.175 2296.5,692.612 2295.94,689.471"/>
<path class="Harmony" d="M2330.69,727.175 C2330.69,731.3 2330.59,734.128 2330.52,735.503 C2330.44,735.596 2330.36,737.206 2330.28,740.206 C2330.19,740.94 2330.11,742.643 2330.03,745.471 C2330.03,745.628 2329.88,746.284 2329.55,747.409 C2329.22,748.55 2329.14,749.19 2329.14,749.596 L2329.14,750.175 C2329.22,750.971 2329.22,751.628 2329.3,752.19 C2329.39,752.596 2329.78,752.846 2330.59,752.846 C2330.84,752.846 2331.48,752.675 2332.3,752.268 C2333.11,751.878 2333.92,751.378 2334.89,750.815 C2335.86,750.253 2336.67,749.69 2337.41,749.19 C2338.13,748.706 2338.45,748.221 2338.53,747.987 C2339.11,745.956 2339.34,743.846 2339.34,741.581 L2339.34,741.175 L2339.34,739.878 C2339.27,739.643 2339.27,739.315 2339.27,738.909 C2339.34,737.784 2339.42,736.081 2339.59,733.893 C2339.75,731.534 2340.23,729.268 2341.05,727.175 C2341.78,725.143 2343.31,723.44 2345.58,722.143 L2346.16,722.143 C2346.39,722.143 2346.47,722.143 2346.55,722.065 C2346.64,721.987 2346.8,721.987 2346.88,721.987 L2348.42,721.987 C2348.98,721.987 2349.39,722.393 2349.55,723.034 L2349.55,726.596 L2349.55,729.925 C2349.47,731.143 2349.31,732.675 2349.23,734.456 C2349.14,736.237 2349.06,737.94 2348.98,739.643 C2348.91,741.346 2348.73,742.8 2348.66,744.018 L2348.5,745.878 L2347.45,746.925 L2347.45,754.143 C2349.31,754.143 2351.09,753.893 2352.7,753.487 C2354.33,753.081 2355.88,752.19 2357.41,750.893 C2357.89,747.253 2358.3,743.44 2358.63,739.471 C2358.95,735.503 2359.19,731.706 2359.36,728.065 C2360,727.565 2360.56,727.003 2360.97,726.268 C2361.38,725.55 2361.78,724.893 2362.27,724.253 C2362.75,723.596 2363.23,723.112 2363.89,722.628 C2364.53,722.143 2365.34,721.987 2366.39,721.987 C2367.13,721.987 2367.69,722.143 2368.09,722.628 C2368.5,723.112 2368.75,723.69 2368.91,724.331 C2369.08,724.987 2369.16,725.628 2369.23,726.362 C2369.31,727.081 2369.31,727.737 2369.31,728.3 C2369.31,732.518 2369.16,736.721 2368.75,740.862 C2368.34,744.987 2368.19,749.19 2368.19,753.409 C2370.45,753.409 2372.39,752.925 2373.94,751.956 C2375.47,750.971 2376.92,749.69 2378.22,747.987 C2378.47,745.956 2378.7,744.175 2378.88,742.55 C2379.03,740.94 2379.11,739.315 2379.19,737.69 C2379.28,736.081 2379.28,734.456 2379.28,732.925 L2379.28,727.565 L2379.28,725.706 C2379.28,724.815 2379.28,723.846 2379.19,722.878 C2379.11,721.909 2379.11,720.925 2379.11,720.034 L2379.11,718.175 C2378.7,716.393 2377.73,715.096 2376.36,714.284 C2374.98,713.471 2373.44,713.081 2371.91,713.081 C2370.69,713.081 2369.56,713.393 2368.58,713.878 C2367.61,714.378 2366.89,715.018 2366.16,715.659 C2365.42,716.315 2364.61,716.956 2363.89,717.44 C2363.16,717.94 2362.34,718.175 2361.45,718.175 C2360.64,718.175 2360.08,717.94 2359.67,717.284 C2359.27,716.643 2358.95,715.987 2358.55,715.175 C2358.14,714.378 2357.56,713.721 2356.84,713.081 C2356.11,712.425 2354.89,712.096 2353.36,712.096 C2351.98,712.096 2350.77,712.425 2349.8,713.081 C2348.83,713.721 2347.77,714.378 2346.88,715.175 C2345.98,715.987 2345.09,716.643 2344.28,717.284 C2343.48,717.94 2342.58,718.175 2341.53,718.175 L2340.56,718.175 C2340.56,717.94 2340.48,717.534 2340.41,716.956 C2340.31,716.393 2340.16,715.753 2340.08,715.175 C2339.91,714.284 2340.08,714.284 2339.91,713.393 C2339.83,712.831 2339.67,712.425 2339.59,712.268 C2339.59,712.096 2339.42,711.94 2339.19,711.784 C2338.94,711.612 2338.7,711.378 2338.53,711.3 L2338.45,711.3 L2338.13,711.206 C2337.48,711.206 2336.83,711.378 2336.11,711.784 C2335.38,712.19 2334.73,712.753 2334.16,713.393 C2333.59,714.05 2333.03,714.69 2332.55,715.346 C2332.06,715.987 2331.73,716.643 2331.66,717.206 C2331.58,717.612 2331.48,718.253 2331.33,719.143 C2331.17,720.034 2331.08,721.096 2331,722.143 C2330.92,723.206 2330.84,724.175 2330.77,725.143 C2330.69,726.112 2330.69,726.768 2330.69,727.175"/>
<path class="Harmony" d="M187.627,989.058 C187.158,989.151 186.392,989.245 185.158,989.355 C183.923,989.448 182.97,989.636 182.314,989.73 C181.642,989.823 180.689,989.917 179.548,990.105 C178.408,990.292 177.564,990.589 176.798,990.87 C176.033,991.151 175.189,991.526 174.423,992.011 C173.658,992.48 173.002,992.964 172.517,993.62 C171.861,994.292 171.377,995.042 171.002,995.808 C170.627,996.573 170.345,997.511 170.236,998.464 C170.142,999.136 170.142,999.792 170.142,1000.46 L170.142,1001.03 C170.236,1001.7 170.236,1002.65 170.345,1003.79 C170.439,1004.93 170.439,1005.87 170.439,1006.54 C170.439,1017.37 170.72,1028.01 171.189,1038.56 C171.283,1039.12 171.283,1039.7 171.283,1040.37 C171.189,1042.35 171.095,1045.01 170.908,1048.15 C170.627,1051.85 170.439,1054.62 170.439,1056.42 L170.439,1057 L170.439,1058.6 C170.439,1059.07 170.627,1059.56 170.72,1060.12 C170.814,1060.7 171.002,1061.17 171.283,1061.45 C171.58,1061.75 171.861,1062.03 172.33,1062.31 C172.72,1062.5 173.189,1062.59 173.752,1062.59 L174.048,1062.59 C177.361,1062.5 180.689,1061.84 184.017,1060.6 C187.345,1059.37 190.486,1057.84 193.423,1055.85 C196.377,1053.85 199.127,1051.48 201.783,1048.73 C204.439,1045.96 206.72,1043.12 208.627,1040.07 C210.517,1037.04 212.142,1033.9 213.377,1030.57 C214.611,1027.25 215.267,1023.93 215.47,1020.79 C215.564,1020.12 215.564,1019.37 215.564,1018.7 C215.564,1016.9 215.377,1015 214.986,1013.1 C214.517,1010.43 213.752,1007.78 212.705,1005.31 C211.658,1002.84 210.33,1000.56 208.627,998.37 C206.908,996.183 205.017,994.386 202.923,992.87 C200.83,991.339 198.548,990.198 195.892,989.542 C194.189,989.058 192.377,988.87 190.58,988.87 C189.627,988.87 188.673,988.964 187.627,989.058 M181.736,1050.43 C181.736,1047.68 181.83,1043.68 181.923,1038.56 C182.017,1034.48 182.111,1030.57 182.111,1027.06 C182.111,1026.21 182.017,1025.35 182.017,1024.5 C182.017,1020.32 181.923,1016.23 181.736,1012.43 C181.736,1011.96 181.642,1011.1 181.455,1009.68 C181.267,1008.25 180.986,1006.92 180.877,1005.68 C180.783,1005.12 180.783,1004.54 180.783,1003.98 C180.783,1003.31 180.783,1002.75 180.877,1002.07 C181.08,1000.84 181.455,999.886 182.111,999.417 C182.97,998.745 183.923,998.464 184.97,998.464 C185.252,998.558 185.533,998.558 185.83,998.558 C187.252,998.745 188.767,999.23 190.377,1000.09 C192.002,1000.93 193.517,1002.07 194.939,1003.21 C196.377,1004.35 197.705,1005.5 198.752,1006.64 C199.783,1007.78 200.642,1008.64 201.127,1009.5 C202.642,1011.96 203.689,1014.71 204.252,1017.75 C204.533,1019.46 204.736,1021.17 204.736,1022.89 C204.736,1024.12 204.627,1025.35 204.533,1026.59 C204.064,1029.53 203.205,1032.39 201.97,1035.14 C200.736,1037.89 199.127,1040.37 197.22,1042.54 C195.236,1044.73 192.955,1046.45 190.283,1047.87 C187.627,1049.29 184.783,1050.15 181.736,1050.43"/>
<path class="Harmony" d="M890.064,989.448 C886.36,989.917 882.845,990.776 879.423,992.011 C876.001,993.245 872.86,994.948 869.829,996.948 C866.782,998.948 864.032,1001.23 861.657,1003.79 C859.282,1006.35 857.282,1009.29 855.579,1012.62 C853.86,1015.95 852.72,1019.46 852.064,1023.17 C851.579,1025.45 851.392,1027.82 851.392,1030.2 L851.392,1030.87 C851.392,1033.14 851.485,1035.32 851.767,1037.51 C852.064,1039.89 852.626,1042.26 853.392,1044.45 C854.251,1046.73 855.189,1048.92 856.235,1050.9 C857.282,1052.9 858.61,1054.71 860.142,1056.32 C861.657,1057.93 863.548,1059.26 865.454,1060.4 C867.36,1061.54 869.532,1062.4 871.907,1062.89 C873.532,1063.17 875.142,1063.35 876.767,1063.35 C877.61,1063.35 878.564,1063.35 879.61,1063.26 C882.548,1062.98 885.314,1062.31 887.876,1061.35 C890.439,1060.4 892.814,1059.26 894.814,1057.93 C896.798,1056.6 898.798,1054.9 900.61,1053 C902.407,1051.1 904.126,1049.01 905.548,1046.92 C906.97,1044.82 908.298,1042.45 909.72,1039.79 C911.907,1035.42 912.954,1031.71 912.954,1028.78 C912.954,1025.82 911.907,1023.54 909.72,1021.93 C908.485,1020.89 906.407,1020.23 903.642,1019.75 C901.657,1019.46 899.657,1019.28 897.657,1019.28 L897.189,1019.28 L895.095,1019.28 C892.157,1019.37 889.392,1019.84 886.735,1020.7 C884.079,1021.56 882.267,1022.6 881.314,1023.84 C881.032,1024.31 880.751,1024.68 880.47,1025.07 C879.798,1026.12 879.423,1027.06 879.423,1027.92 C879.423,1029.15 880.282,1030.01 881.892,1030.48 C883.22,1030.87 885.782,1031.06 889.485,1031.06 L890.345,1031.06 C891.579,1031.15 892.532,1031.15 893.189,1031.15 C897.095,1031.15 899.47,1031.62 900.22,1032.67 C900.517,1033.04 900.798,1033.62 900.798,1034.18 C900.798,1034.76 900.704,1035.32 900.61,1035.9 C900.517,1036.46 900.22,1037.14 899.939,1037.89 C899.657,1038.65 899.376,1039.23 899.079,1039.7 C898.798,1040.17 898.517,1040.84 898.142,1041.6 C897.751,1042.35 897.47,1042.75 897.376,1042.93 C896.907,1043.78 896.61,1044.45 896.329,1044.92 C896.048,1045.4 895.657,1045.87 895.189,1046.54 C894.72,1047.2 894.142,1047.78 893.673,1048.15 C891.673,1049.67 889.485,1050.71 886.923,1051.2 L883.689,1051.57 L883.314,1051.57 C882.079,1051.48 880.751,1051.39 879.517,1051.1 C877.142,1050.62 874.767,1049.76 872.579,1048.43 C870.392,1047.1 868.501,1045.5 867.064,1043.59 C865.642,1041.6 864.314,1039.23 863.36,1036.56 C862.407,1033.9 861.845,1031.15 861.657,1028.2 C861.564,1027.15 861.564,1026.21 861.564,1025.17 C861.564,1023.26 861.657,1021.37 861.939,1019.56 C862.407,1016.81 863.267,1014.14 864.595,1011.67 C865.923,1009.2 867.642,1007.21 869.735,1005.68 C872.298,1003.7 875.423,1002.26 879.032,1001.32 C881.032,1000.75 883.032,1000.46 884.923,1000.46 C886.267,1000.46 887.595,1000.65 888.829,1000.93 C889.876,1001.23 890.907,1001.6 892.157,1002.17 C893.392,1002.75 894.423,1003.31 895.376,1003.89 C896.329,1004.45 897.376,1005.03 898.423,1005.59 C899.47,1006.17 900.517,1006.64 901.454,1006.82 C902.407,1007.01 903.36,1007.12 904.314,1007.01 C905.267,1006.92 906.204,1006.45 907.157,1005.59 C908.11,1004.75 908.97,1003.6 909.814,1002.17 C910.298,1001.32 910.579,1000.46 910.579,999.605 C910.579,998.948 910.392,998.37 910.11,997.714 C909.345,996.276 908.11,995.042 906.407,993.995 C904.689,992.964 902.892,992.011 900.798,991.245 C898.704,990.48 896.704,990.011 894.72,989.73 C893.282,989.448 892.157,989.355 891.204,989.355 C890.72,989.355 890.345,989.355 890.064,989.448"/>
<path class="Harmony" d="M1566.81,989.058 C1566.34,989.151 1565.58,989.245 1564.34,989.355 C1563.11,989.448 1562.15,989.636 1561.5,989.73 C1560.83,989.823 1559.87,989.917 1558.73,990.105 C1557.59,990.292 1556.75,990.589 1555.98,990.87 C1555.22,991.151 1554.37,991.526 1553.61,992.011 C1552.84,992.48 1552.19,992.964 1551.7,993.62 C1551.04,994.292 1550.56,995.042 1550.19,995.808 C1549.81,996.573 1549.53,997.511 1549.42,998.464 C1549.33,999.136 1549.33,999.792 1549.33,1000.46 L1549.33,1001.03 C1549.42,1001.7 1549.42,1002.65 1549.53,1003.79 C1549.62,1004.93 1549.62,1005.87 1549.62,1006.54 C1549.62,1017.37 1549.9,1028.01 1550.37,1038.56 C1550.47,1039.12 1550.47,1039.7 1550.47,1040.37 C1550.37,1042.35 1550.28,1045.01 1550.09,1048.15 C1549.81,1051.85 1549.62,1054.62 1549.62,1056.42 L1549.62,1057 L1549.62,1058.6 C1549.62,1059.07 1549.81,1059.56 1549.9,1060.12 C1550,1060.7 1550.19,1061.17 1550.47,1061.45 C1550.76,1061.75 1551.04,1062.03 1551.51,1062.31 C1551.9,1062.5 1552.37,1062.59 1552.94,1062.59 L1553.23,1062.59 C1556.54,1062.5 1559.87,1061.84 1563.2,1060.6 C1566.53,1059.37 1569.67,1057.84 1572.61,1055.85 C1575.56,1053.85 1578.31,1051.48 1580.97,1048.73 C1583.62,1045.96 1585.9,1043.12 1587.81,1040.07 C1589.7,1037.04 1591.33,1033.9 1592.56,1030.57 C1593.79,1027.25 1594.45,1023.93 1594.65,1020.79 C1594.75,1020.12 1594.75,1019.37 1594.75,1018.7 C1594.75,1016.9 1594.56,1015 1594.17,1013.1 C1593.7,1010.43 1592.94,1007.78 1591.89,1005.31 C1590.84,1002.84 1589.51,1000.56 1587.81,998.37 C1586.09,996.183 1584.2,994.386 1582.11,992.87 C1580.01,991.339 1577.73,990.198 1575.08,989.542 C1573.37,989.058 1571.56,988.87 1569.76,988.87 C1568.81,988.87 1567.86,988.964 1566.81,989.058 M1560.92,1050.43 C1560.92,1047.68 1561.01,1043.68 1561.11,1038.56 C1561.2,1034.48 1561.29,1030.57 1561.29,1027.06 C1561.29,1026.21 1561.2,1025.35 1561.2,1024.5 C1561.2,1020.32 1561.11,1016.23 1560.92,1012.43 C1560.92,1011.96 1560.83,1011.1 1560.64,1009.68 C1560.45,1008.25 1560.17,1006.92 1560.06,1005.68 C1559.97,1005.12 1559.97,1004.54 1559.97,1003.98 C1559.97,1003.31 1559.97,1002.75 1560.06,1002.07 C1560.26,1000.84 1560.64,999.886 1561.29,999.417 C1562.15,998.745 1563.11,998.464 1564.15,998.464 C1564.44,998.558 1564.72,998.558 1565.01,998.558 C1566.44,998.745 1567.95,999.23 1569.56,1000.09 C1571.19,1000.93 1572.7,1002.07 1574.12,1003.21 C1575.56,1004.35 1576.89,1005.5 1577.94,1006.64 C1578.97,1007.78 1579.83,1008.64 1580.31,1009.5 C1581.83,1011.96 1582.87,1014.71 1583.44,1017.75 C1583.72,1019.46 1583.92,1021.17 1583.92,1022.89 C1583.92,1024.12 1583.81,1025.35 1583.72,1026.59 C1583.25,1029.53 1582.39,1032.39 1581.15,1035.14 C1579.92,1037.89 1578.31,1040.37 1576.4,1042.54 C1574.42,1044.73 1572.14,1046.45 1569.47,1047.87 C1566.81,1049.29 1563.97,1050.15 1560.92,1050.43"/>
<path class="Harmony" d="M1902.03,1009.01 C1903.27,1010.62 1904.11,1012.81 1904.78,1015.57 C1905.46,1018.32 1905.93,1020.98 1906.39,1023.75 C1906.88,1026.5 1907.16,1029.06 1907.25,1031.34 L1900.03,1030.57 L1892.24,1031.34 L1896.24,1019.46 L1902.03,1009.01 M1900.32,1042.45 L1902.22,1042.45 L1905.07,1042.45 L1905.83,1042.45 L1906.69,1042.45 C1906.78,1042.45 1907.07,1042.54 1907.44,1042.54 C1907.83,1042.54 1908.11,1042.54 1908.3,1042.64 C1908.49,1042.75 1908.68,1042.84 1908.97,1042.93 C1909.25,1043.03 1909.44,1043.12 1909.63,1043.31 C1909.82,1043.5 1910.11,1043.59 1910.3,1043.78 C1910.77,1044.26 1911.24,1045.21 1911.63,1046.45 C1912,1047.59 1912.38,1048.82 1912.68,1050.25 C1912.96,1051.67 1913.24,1053.09 1913.52,1054.71 C1913.82,1056.32 1914.19,1057.75 1914.57,1059.07 C1914.96,1060.4 1915.52,1061.64 1916.1,1062.68 C1916.66,1063.73 1917.33,1064.4 1918.18,1064.78 C1918.57,1064.96 1919.03,1065.06 1919.61,1065.06 C1920.08,1065.06 1920.64,1064.96 1921.22,1064.78 C1922.08,1064.5 1922.74,1064.12 1923.41,1063.73 C1924.07,1063.35 1924.55,1062.98 1924.93,1062.5 C1925.3,1062.03 1925.6,1061.54 1925.88,1060.98 C1926.16,1060.4 1926.35,1060.03 1926.44,1059.56 C1926.53,1059.17 1926.53,1058.79 1926.53,1058.32 L1926.53,1057.84 C1926.53,1057.18 1926.53,1056.51 1926.44,1056.04 C1926.35,1055.56 1926.16,1055 1925.97,1054.23 C1925.78,1053.48 1925.6,1052.9 1925.39,1052.43 C1925.21,1051.95 1925.11,1051.29 1924.83,1050.43 C1924.55,1049.57 1924.25,1049.01 1924.16,1048.64 C1923.5,1046.73 1922.36,1042.93 1920.74,1037.32 C1919.61,1033.25 1918.66,1029.82 1917.99,1027.15 C1916.75,1022.31 1915.71,1018.32 1914.96,1015.18 C1913.72,1009.96 1912.77,1006.45 1912.28,1004.64 C1912.19,1004.26 1912.1,1003.7 1911.91,1002.93 C1911.72,1002.17 1911.63,1001.51 1911.53,1000.93 C1911.44,1000.37 1911.14,999.792 1910.96,999.042 C1910.77,998.276 1910.58,997.511 1910.39,996.948 C1910.21,996.37 1909.82,995.714 1909.53,995.042 C1909.25,994.386 1908.86,993.901 1908.49,993.433 C1908.11,992.964 1907.83,992.573 1907.35,992.198 C1906.88,991.823 1906.39,991.433 1905.83,991.339 C1905.36,991.245 1904.88,991.151 1904.32,991.151 L1903.93,991.151 C1903.27,991.245 1902.5,991.339 1901.64,991.62 C1900.99,991.917 1900.22,992.292 1899.57,992.761 C1898.89,993.245 1898.24,993.62 1897.75,994.105 C1897.28,994.573 1896.8,995.245 1896.33,995.995 C1895.86,996.761 1895.38,997.323 1895.1,997.901 C1894.82,998.464 1894.43,999.23 1894.05,1000.18 C1893.68,1001.12 1893.28,1001.89 1893.1,1002.46 C1892.91,1003.03 1892.72,1003.79 1892.35,1004.75 C1891.96,1005.68 1891.68,1006.35 1891.58,1006.82 C1888.83,1013.76 1886.07,1020.32 1883.32,1026.68 C1878.85,1036.85 1876.19,1043.03 1875.43,1045.31 C1875.33,1045.68 1874.96,1046.35 1874.47,1047.39 C1874,1048.43 1873.44,1049.39 1872.96,1050.34 C1872.49,1051.29 1872,1052.53 1871.44,1053.76 C1870.86,1055 1870.39,1056.23 1870.11,1057.28 C1869.72,1058.32 1869.53,1059.26 1869.53,1060.12 C1869.63,1060.98 1869.83,1061.54 1870.3,1062.03 C1871.16,1062.68 1872.1,1063.07 1873.14,1063.07 L1873.82,1063.07 C1875.14,1062.89 1876.47,1062.5 1877.8,1061.75 C1879.13,1060.98 1880.08,1060.12 1880.57,1059.26 C1881.13,1058.23 1881.71,1057 1882.18,1055.46 C1882.64,1053.95 1883.13,1052.53 1883.41,1051.29 C1883.69,1050.06 1884.08,1048.73 1884.74,1047.29 C1885.41,1045.87 1886.16,1044.73 1887.02,1043.78 L1892.14,1042.17 C1892.44,1042.07 1892.82,1042.17 1893.49,1042.17 L1896.24,1042.17 C1896.52,1042.17 1897.94,1042.26 1900.32,1042.45"/>
<path class="Harmony" d="M2264.46,989.058 C2263.99,989.151 2263.23,989.245 2261.99,989.355 C2260.76,989.448 2259.81,989.636 2259.15,989.73 C2258.48,989.823 2257.53,989.917 2256.38,990.105 C2255.24,990.292 2254.4,990.589 2253.63,990.87 C2252.87,991.151 2252.03,991.526 2251.26,992.011 C2250.49,992.48 2249.84,992.964 2249.35,993.62 C2248.7,994.292 2248.21,995.042 2247.84,995.808 C2247.46,996.573 2247.18,997.511 2247.07,998.464 C2246.98,999.136 2246.98,999.792 2246.98,1000.46 L2246.98,1001.03 C2247.07,1001.7 2247.07,1002.65 2247.18,1003.79 C2247.28,1004.93 2247.28,1005.87 2247.28,1006.54 C2247.28,1017.37 2247.56,1028.01 2248.03,1038.56 C2248.12,1039.12 2248.12,1039.7 2248.12,1040.37 C2248.03,1042.35 2247.93,1045.01 2247.74,1048.15 C2247.46,1051.85 2247.28,1054.62 2247.28,1056.42 L2247.28,1057 L2247.28,1058.6 C2247.28,1059.07 2247.46,1059.56 2247.56,1060.12 C2247.65,1060.7 2247.84,1061.17 2248.12,1061.45 C2248.42,1061.75 2248.7,1062.03 2249.17,1062.31 C2249.56,1062.5 2250.03,1062.59 2250.59,1062.59 L2250.88,1062.59 C2254.2,1062.5 2257.53,1061.84 2260.85,1060.6 C2264.18,1059.37 2267.32,1057.84 2270.26,1055.85 C2273.21,1053.85 2275.96,1051.48 2278.62,1048.73 C2281.28,1045.96 2283.56,1043.12 2285.46,1040.07 C2287.35,1037.04 2288.98,1033.9 2290.21,1030.57 C2291.45,1027.25 2292.1,1023.93 2292.31,1020.79 C2292.4,1020.12 2292.4,1019.37 2292.4,1018.7 C2292.4,1016.9 2292.21,1015 2291.82,1013.1 C2291.35,1010.43 2290.59,1007.78 2289.54,1005.31 C2288.49,1002.84 2287.17,1000.56 2285.46,998.37 C2283.74,996.183 2281.85,994.386 2279.76,992.87 C2277.67,991.339 2275.38,990.198 2272.73,989.542 C2271.03,989.058 2269.21,988.87 2267.42,988.87 C2266.46,988.87 2265.51,988.964 2264.46,989.058 M2258.57,1050.43 C2258.57,1047.68 2258.67,1043.68 2258.76,1038.56 C2258.85,1034.48 2258.95,1030.57 2258.95,1027.06 C2258.95,1026.21 2258.85,1025.35 2258.85,1024.5 C2258.85,1020.32 2258.76,1016.23 2258.57,1012.43 C2258.57,1011.96 2258.48,1011.1 2258.29,1009.68 C2258.1,1008.25 2257.82,1006.92 2257.71,1005.68 C2257.62,1005.12 2257.62,1004.54 2257.62,1003.98 C2257.62,1003.31 2257.62,1002.75 2257.71,1002.07 C2257.92,1000.84 2258.29,999.886 2258.95,999.417 C2259.81,998.745 2260.76,998.464 2261.81,998.464 C2262.09,998.558 2262.37,998.558 2262.67,998.558 C2264.09,998.745 2265.6,999.23 2267.21,1000.09 C2268.84,1000.93 2270.35,1002.07 2271.78,1003.21 C2273.21,1004.35 2274.54,1005.5 2275.59,1006.64 C2276.62,1007.78 2277.48,1008.64 2277.96,1009.5 C2279.48,1011.96 2280.53,1014.71 2281.09,1017.75 C2281.37,1019.46 2281.57,1021.17 2281.57,1022.89 C2281.57,1024.12 2281.46,1025.35 2281.37,1026.59 C2280.9,1029.53 2280.04,1032.39 2278.81,1035.14 C2277.57,1037.89 2275.96,1040.37 2274.06,1042.54 C2272.07,1044.73 2269.79,1046.45 2267.12,1047.87 C2264.46,1049.29 2261.62,1050.15 2258.57,1050.43"/>
</svg>
