<?xml version="1.0" encoding="UTF-8" standalone="no"?>
<svg width="2976.38px" height="1417.32px" viewBox="0 0 2976.38 1417.32"
 xmlns="http://www.w3.org/2000/svg" xmlns:xlink="http://www.w3.org/1999/xlink" version="1.2" baseProfile="tiny">
<title>Chincapin_Hunting_D</title>
<desc>Generated by MuseScore 3.6.2</desc>
<polyline class="StaffLines" fill="none" stroke="#000000" stroke-width="2.73" stroke-linejoin="bevel" points="138.189,187.795 2933.86,187.795"/>
<polyline class="StaffLines" fill="none" stroke="#000000" stroke-width="2.73" stroke-linejoin="bevel" points="138.189,212.598 2933.86,212.598"/>
<polyline class="StaffLines" fill="none" stroke="#000000" stroke-width="2.73" stroke-linejoin="bevel" points="138.189,237.402 2933.86,237.402"/>
<polyline class="StaffLines" fill="none" stroke="#000000" stroke-width="2.73" stroke-linejoin="bevel" points="138.189,262.205 2933.86,262.205"/>
<polyline class="StaffLines" fill="none" stroke="#000000" stroke-width="2.73" stroke-linejoin="bevel" points="138.189,287.008 2933.86,287.008"/>
<polyline class="StaffLines" fill="none" stroke="#000000" stroke-width="2.73" stroke-linejoin="bevel" points="14.1732,497.835 2933.86,497.835"/>
<polyline class="StaffLines" fill="none" stroke="#000000" stroke-width="2.73" stroke-linejoin="bevel" points="14.1732,522.638 2933.86,522.638"/>
<polyline class="StaffLines" fill="none" stroke="#000000" stroke-width="2.73" stroke-linejoin="bevel" points="14.1732,547.441 2933.86,547.441"/>
<polyline class="StaffLines" fill="none" stroke="#000000" stroke-width="2.73" stroke-linejoin="bevel" points="14.1732,572.244 2933.86,572.244"/>
<polyline class="StaffLines" fill="none" stroke="#000000" stroke-width="2.73" stroke-linejoin="bevel" points="14.1732,597.047 2933.86,597.047"/>
<polyline class="StaffLines" fill="none" stroke="#000000" stroke-width="2.73" stroke-linejoin="bevel" points="14.1732,815.417 2933.86,815.417"/>
<polyline class="StaffLines" fill="none" stroke="#000000" stroke-width="2.73" stroke-linejoin="bevel" points="14.1732,840.22 2933.86,840.22"/>
<polyline class="StaffLines" fill="none" stroke="#000000" stroke-width="2.73" stroke-linejoin="bevel" points="14.1732,865.023 2933.86,865.023"/>
<polyline class="StaffLines" fill="none" stroke="#000000" stroke-width="2.73" stroke-linejoin="bevel" points="14.1732,889.826 2933.86,889.826"/>
<polyline class="StaffLines" fill="none" stroke="#000000" stroke-width="2.73" stroke-linejoin="bevel" points="14.1732,914.629 2933.86,914.629"/>
<polyline class="StaffLines" fill="none" stroke="#000000" stroke-width="2.73" stroke-linejoin="bevel" points="14.1732,1125.46 2933.86,1125.46"/>
<polyline class="StaffLines" fill="none" stroke="#000000" stroke-width="2.73" stroke-linejoin="bevel" points="14.1732,1150.26 2933.86,1150.26"/>
<polyline class="StaffLines" fill="none" stroke="#000000" stroke-width="2.73" stroke-linejoin="bevel" points="14.1732,1175.06 2933.86,1175.06"/>
<polyline class="StaffLines" fill="none" stroke="#000000" stroke-width="2.73" stroke-linejoin="bevel" points="14.1732,1199.87 2933.86,1199.87"/>
<polyline class="StaffLines" fill="none" stroke="#000000" stroke-width="2.73" stroke-linejoin="bevel" points="14.1732,1224.67 2933.86,1224.67"/>
<polyline class="BarLine" fill="none" stroke="#000000" stroke-width="4.46" stroke-linejoin="bevel" points="953.226,186.431 953.226,288.372"/>
<polyline class="BarLine" fill="none" stroke="#000000" stroke-width="4.46" stroke-linejoin="bevel" points="1612.69,186.431 1612.69,288.372"/>
<polyline class="BarLine" fill="none" stroke="#000000" stroke-width="4.46" stroke-linejoin="bevel" points="2272.16,186.431 2272.16,288.372"/>
<polyline class="BarLine" fill="none" stroke="#000000" stroke-width="4.46" stroke-linejoin="bevel" points="2931.63,186.431 2931.63,288.372"/>
<polyline class="BarLine" fill="none" stroke="#000000" stroke-width="4.46" stroke-linejoin="bevel" points="808.481,496.47 808.481,598.411"/>
<polyline class="BarLine" fill="none" stroke="#000000" stroke-width="4.46" stroke-linejoin="bevel" points="1502.1,496.47 1502.1,598.411"/>
<polyline class="BarLine" fill="none" stroke="#000000" stroke-width="4.46" stroke-linejoin="bevel" points="2195.73,496.47 2195.73,598.411"/>
<path class="BarLine" transform="matrix(0.992126,0,0,0.992126,2887.12,535.039)" d="M10.4063,0 C10.4063,-2.90625 8.09375,-5.29688 5.20313,-5.29688 C2.29688,-5.29688 0,-2.90625 0,0 C0,2.90625 2.29688,5.29688 5.20313,5.29688 C8.09375,5.29688 10.4063,2.90625 10.4063,0"/>
<path class="BarLine" transform="matrix(0.992126,0,0,0.992126,2887.12,559.843)" d="M10.4063,0 C10.4063,-2.90625 8.09375,-5.29688 5.20313,-5.29688 C2.29688,-5.29688 0,-2.90625 0,0 C0,2.90625 2.29688,5.29688 5.20313,5.29688 C8.09375,5.29688 10.4063,2.90625 10.4063,0"/>
<polyline class="BarLine" fill="none" stroke="#000000" stroke-width="4.46" stroke-linejoin="bevel" points="2909.64,496.47 2909.64,598.411"/>
<polyline class="BarLine" fill="none" stroke="#000000" stroke-width="13.64" stroke-linejoin="bevel" points="2927,496.47 2927,598.411"/>
<polyline class="BarLine" fill="none" stroke="#000000" stroke-width="4.46" stroke-linejoin="bevel" points="819.051,814.053 819.051,915.994"/>
<polyline class="BarLine" fill="none" stroke="#000000" stroke-width="4.46" stroke-linejoin="bevel" points="1523.24,814.053 1523.24,915.994"/>
<polyline class="BarLine" fill="none" stroke="#000000" stroke-width="4.46" stroke-linejoin="bevel" points="2227.44,814.053 2227.44,915.994"/>
<polyline class="BarLine" fill="none" stroke="#000000" stroke-width="4.46" stroke-linejoin="bevel" points="2931.63,814.053 2931.63,915.994"/>
<polyline class="BarLine" fill="none" stroke="#000000" stroke-width="4.46" stroke-linejoin="bevel" points="812.511,1124.09 812.511,1226.03"/>
<polyline class="BarLine" fill="none" stroke="#000000" stroke-width="4.46" stroke-linejoin="bevel" points="1494.04,1124.09 1494.04,1226.03"/>
<polyline class="BarLine" fill="none" stroke="#000000" stroke-width="4.46" stroke-linejoin="bevel" points="2191.69,1124.09 2191.69,1226.03"/>
<path class="BarLine" transform="matrix(0.992126,0,0,0.992126,2887.12,1162.66)" d="M10.4063,0 C10.4063,-2.90625 8.09375,-5.29688 5.20313,-5.29688 C2.29688,-5.29688 0,-2.90625 0,0 C0,2.90625 2.29688,5.29688 5.20313,5.29688 C8.09375,5.29688 10.4063,2.90625 10.4063,0"/>
<path class="BarLine" transform="matrix(0.992126,0,0,0.992126,2887.12,1187.46)" d="M10.4063,0 C10.4063,-2.90625 8.09375,-5.29688 5.20313,-5.29688 C2.29688,-5.29688 0,-2.90625 0,0 C0,2.90625 2.29688,5.29688 5.20313,5.29688 C8.09375,5.29688 10.4063,2.90625 10.4063,0"/>
<polyline class="BarLine" fill="none" stroke="#000000" stroke-width="4.46" stroke-linejoin="bevel" points="2909.64,1124.09 2909.64,1226.03"/>
<polyline class="BarLine" fill="none" stroke="#000000" stroke-width="13.64" stroke-linejoin="bevel" points="2927,1124.09 2927,1226.03"/>
<path class="Note" transform="matrix(0.992126,0,0,0.992126,338.405,237.402)" d="M43,-25 L0,25 L10,25 L53,-25 L43,-25 "/>
<path class="Note" transform="matrix(0.992126,0,0,0.992126,489.01,237.402)" d="M43,-25 L0,25 L10,25 L53,-25 L43,-25 "/>
<path class="Note" transform="matrix(0.992126,0,0,0.992126,639.615,237.402)" d="M43,-25 L0,25 L10,25 L53,-25 L43,-25 "/>
<path class="Note" transform="matrix(0.992126,0,0,0.992126,790.22,237.402)" d="M43,-25 L0,25 L10,25 L53,-25 L43,-25 "/>
<path class="Note" transform="matrix(0.992126,0,0,0.992126,997.872,237.402)" d="M43,-25 L0,25 L10,25 L53,-25 L43,-25 "/>
<path class="Note" transform="matrix(0.992126,0,0,0.992126,1148.48,237.402)" d="M43,-25 L0,25 L10,25 L53,-25 L43,-25 "/>
<path class="Note" transform="matrix(0.992126,0,0,0.992126,1299.08,237.402)" d="M43,-25 L0,25 L10,25 L53,-25 L43,-25 "/>
<path class="Note" transform="matrix(0.992126,0,0,0.992126,1449.69,237.402)" d="M43,-25 L0,25 L10,25 L53,-25 L43,-25 "/>
<path class="Note" transform="matrix(0.992126,0,0,0.992126,1657.34,237.402)" d="M43,-25 L0,25 L10,25 L53,-25 L43,-25 "/>
<path class="Note" transform="matrix(0.992126,0,0,0.992126,1807.94,237.402)" d="M43,-25 L0,25 L10,25 L53,-25 L43,-25 "/>
<path class="Note" transform="matrix(0.992126,0,0,0.992126,1958.55,237.402)" d="M43,-25 L0,25 L10,25 L53,-25 L43,-25 "/>
<path class="Note" transform="matrix(0.992126,0,0,0.992126,2109.15,237.402)" d="M43,-25 L0,25 L10,25 L53,-25 L43,-25 "/>
<path class="Note" transform="matrix(0.992126,0,0,0.992126,2316.81,237.402)" d="M43,-25 L0,25 L10,25 L53,-25 L43,-25 "/>
<path class="Note" transform="matrix(0.992126,0,0,0.992126,2467.41,237.402)" d="M43,-25 L0,25 L10,25 L53,-25 L43,-25 "/>
<path class="Note" transform="matrix(0.992126,0,0,0.992126,2618.02,237.402)" d="M43,-25 L0,25 L10,25 L53,-25 L43,-25 "/>
<path class="Note" transform="matrix(0.992126,0,0,0.992126,2768.62,237.402)" d="M43,-25 L0,25 L10,25 L53,-25 L43,-25 "/>
<path class="Note" transform="matrix(0.992126,0,0,0.992126,159.504,547.441)" d="M43,-25 L0,25 L10,25 L53,-25 L43,-25 "/>
<path class="Note" transform="matrix(0.992126,0,0,0.992126,318.648,547.441)" d="M43,-25 L0,25 L10,25 L53,-25 L43,-25 "/>
<path class="Note" transform="matrix(0.992126,0,0,0.992126,477.792,547.441)" d="M43,-25 L0,25 L10,25 L53,-25 L43,-25 "/>
<path class="Note" transform="matrix(0.992126,0,0,0.992126,636.935,547.441)" d="M43,-25 L0,25 L10,25 L53,-25 L43,-25 "/>
<path class="Note" transform="matrix(0.992126,0,0,0.992126,853.126,547.441)" d="M43,-25 L0,25 L10,25 L53,-25 L43,-25 "/>
<path class="Note" transform="matrix(0.992126,0,0,0.992126,1012.27,547.441)" d="M43,-25 L0,25 L10,25 L53,-25 L43,-25 "/>
<path class="Note" transform="matrix(0.992126,0,0,0.992126,1171.41,547.441)" d="M43,-25 L0,25 L10,25 L53,-25 L43,-25 "/>
<path class="Note" transform="matrix(0.992126,0,0,0.992126,1330.56,547.441)" d="M43,-25 L0,25 L10,25 L53,-25 L43,-25 "/>
<path class="Note" transform="matrix(0.992126,0,0,0.992126,1546.75,547.441)" d="M43,-25 L0,25 L10,25 L53,-25 L43,-25 "/>
<path class="Note" transform="matrix(0.992126,0,0,0.992126,1705.89,547.441)" d="M43,-25 L0,25 L10,25 L53,-25 L43,-25 "/>
<path class="Note" transform="matrix(0.992126,0,0,0.992126,1865.04,547.441)" d="M43,-25 L0,25 L10,25 L53,-25 L43,-25 "/>
<path class="Note" transform="matrix(0.992126,0,0,0.992126,2024.18,547.441)" d="M43,-25 L0,25 L10,25 L53,-25 L43,-25 "/>
<path class="Note" transform="matrix(0.992126,0,0,0.992126,2240.37,547.441)" d="M43,-25 L0,25 L10,25 L53,-25 L43,-25 "/>
<path class="Note" transform="matrix(0.992126,0,0,0.992126,2399.51,547.441)" d="M43,-25 L0,25 L10,25 L53,-25 L43,-25 "/>
<path class="Note" transform="matrix(0.992126,0,0,0.992126,2558.66,547.441)" d="M43,-25 L0,25 L10,25 L53,-25 L43,-25 "/>
<path class="Note" transform="matrix(0.992126,0,0,0.992126,2717.8,547.441)" d="M43,-25 L0,25 L10,25 L53,-25 L43,-25 "/>
<path class="Note" transform="matrix(0.992126,0,0,0.992126,159.504,865.023)" d="M43,-25 L0,25 L10,25 L53,-25 L43,-25 "/>
<path class="Note" transform="matrix(0.992126,0,0,0.992126,321.29,865.023)" d="M43,-25 L0,25 L10,25 L53,-25 L43,-25 "/>
<path class="Note" transform="matrix(0.992126,0,0,0.992126,483.077,865.023)" d="M43,-25 L0,25 L10,25 L53,-25 L43,-25 "/>
<path class="Note" transform="matrix(0.992126,0,0,0.992126,644.863,865.023)" d="M43,-25 L0,25 L10,25 L53,-25 L43,-25 "/>
<path class="Note" transform="matrix(0.992126,0,0,0.992126,863.696,865.023)" d="M43,-25 L0,25 L10,25 L53,-25 L43,-25 "/>
<path class="Note" transform="matrix(0.992126,0,0,0.992126,1025.48,865.023)" d="M43,-25 L0,25 L10,25 L53,-25 L43,-25 "/>
<path class="Note" transform="matrix(0.992126,0,0,0.992126,1187.27,865.023)" d="M43,-25 L0,25 L10,25 L53,-25 L43,-25 "/>
<path class="Note" transform="matrix(0.992126,0,0,0.992126,1349.06,865.023)" d="M43,-25 L0,25 L10,25 L53,-25 L43,-25 "/>
<path class="Note" transform="matrix(0.992126,0,0,0.992126,1567.89,865.023)" d="M43,-25 L0,25 L10,25 L53,-25 L43,-25 "/>
<path class="Note" transform="matrix(0.992126,0,0,0.992126,1729.67,865.023)" d="M43,-25 L0,25 L10,25 L53,-25 L43,-25 "/>
<path class="Note" transform="matrix(0.992126,0,0,0.992126,1891.46,865.023)" d="M43,-25 L0,25 L10,25 L53,-25 L43,-25 "/>
<path class="Note" transform="matrix(0.992126,0,0,0.992126,2053.25,865.023)" d="M43,-25 L0,25 L10,25 L53,-25 L43,-25 "/>
<path class="Note" transform="matrix(0.992126,0,0,0.992126,2272.08,865.023)" d="M43,-25 L0,25 L10,25 L53,-25 L43,-25 "/>
<path class="Note" transform="matrix(0.992126,0,0,0.992126,2433.87,865.023)" d="M43,-25 L0,25 L10,25 L53,-25 L43,-25 "/>
<path class="Note" transform="matrix(0.992126,0,0,0.992126,2595.65,865.023)" d="M43,-25 L0,25 L10,25 L53,-25 L43,-25 "/>
<path class="Note" transform="matrix(0.992126,0,0,0.992126,2757.44,865.023)" d="M43,-25 L0,25 L10,25 L53,-25 L43,-25 "/>
<path class="Note" transform="matrix(0.992126,0,0,0.992126,159.504,1175.06)" d="M43,-25 L0,25 L10,25 L53,-25 L43,-25 "/>
<path class="Note" transform="matrix(0.992126,0,0,0.992126,319.656,1175.06)" d="M43,-25 L0,25 L10,25 L53,-25 L43,-25 "/>
<path class="Note" transform="matrix(0.992126,0,0,0.992126,479.807,1175.06)" d="M43,-25 L0,25 L10,25 L53,-25 L43,-25 "/>
<path class="Note" transform="matrix(0.992126,0,0,0.992126,639.958,1175.06)" d="M43,-25 L0,25 L10,25 L53,-25 L43,-25 "/>
<path class="Note" transform="matrix(0.992126,0,0,0.992126,841.035,1175.06)" d="M43,-25 L0,25 L10,25 L53,-25 L43,-25 "/>
<path class="Note" transform="matrix(0.992126,0,0,0.992126,1001.19,1175.06)" d="M43,-25 L0,25 L10,25 L53,-25 L43,-25 "/>
<path class="Note" transform="matrix(0.992126,0,0,0.992126,1161.34,1175.06)" d="M43,-25 L0,25 L10,25 L53,-25 L43,-25 "/>
<path class="Note" transform="matrix(0.992126,0,0,0.992126,1321.49,1175.06)" d="M43,-25 L0,25 L10,25 L53,-25 L43,-25 "/>
<path class="Note" transform="matrix(0.992126,0,0,0.992126,1538.69,1175.06)" d="M43,-25 L0,25 L10,25 L53,-25 L43,-25 "/>
<path class="Note" transform="matrix(0.992126,0,0,0.992126,1698.84,1175.06)" d="M43,-25 L0,25 L10,25 L53,-25 L43,-25 "/>
<path class="Note" transform="matrix(0.992126,0,0,0.992126,1858.99,1175.06)" d="M43,-25 L0,25 L10,25 L53,-25 L43,-25 "/>
<path class="Note" transform="matrix(0.992126,0,0,0.992126,2019.14,1175.06)" d="M43,-25 L0,25 L10,25 L53,-25 L43,-25 "/>
<path class="Note" transform="matrix(0.992126,0,0,0.992126,2236.34,1175.06)" d="M43,-25 L0,25 L10,25 L53,-25 L43,-25 "/>
<path class="Note" transform="matrix(0.992126,0,0,0.992126,2396.49,1175.06)" d="M43,-25 L0,25 L10,25 L53,-25 L43,-25 "/>
<path class="Note" transform="matrix(0.992126,0,0,0.992126,2556.64,1175.06)" d="M43,-25 L0,25 L10,25 L53,-25 L43,-25 "/>
<path class="Note" transform="matrix(0.992126,0,0,0.992126,2716.79,1175.06)" d="M43,-25 L0,25 L10,25 L53,-25 L43,-25 "/>
<path class="Clef" transform="matrix(0.992126,0,0,0.992126,158.032,262.205)" d="M63.3594,-5.92188 C62.125,-11.3438 59.4844,-15.1719 58.7031,-16.2031 C55.5156,-20.4844 51.5,-23.3281 46.8125,-24.6875 C43.7031,-25.5625 40.7031,-25.6875 38.2813,-25.5 C37.2344,-31.5156 36.2344,-37.3906 35.3281,-42.8438 C40.7813,-49.0156 44.4063,-54.8125 46.6875,-59.1094 C50.1563,-65.6875 51.2969,-70.2656 51.3594,-70.4688 C53.0781,-75.6875 53.4375,-83.3906 52.3281,-91.5938 C51.3281,-99.1406 49.2344,-105.859 46.875,-109.109 C45.8594,-110.531 44.7969,-111.266 43.7656,-111.266 C42.5469,-111.266 40.0313,-110.031 37.1406,-107.25 C34.8438,-105.063 31.5781,-101.172 29.0156,-95.1563 C26.0156,-88.0938 25.7969,-78.6094 26.1563,-71.8906 C26.5313,-64.6094 27.6406,-58.9219 27.6563,-58.875 C27.6719,-58.7813 27.9375,-57.2813 28.375,-54.7188 C28.1563,-54.4844 27.9063,-54.2656 27.6563,-54.0156 C26.625,-53.0156 25.4375,-51.8906 24.0469,-50.5 C23.1875,-49.6406 22.2344,-48.7344 21.2344,-47.7656 C12.7969,-39.625 0,-27.2969 0,-8.14063 C0,-3.4375 0.90625,0.984375 2.6875,5 C4.26563,8.59375 6.5625,11.875 9.5,14.75 C17.2344,22.3125 27.8281,25.5156 34.875,25.3594 C37.8281,25.2813 40.4688,25.0469 42.8594,24.5938 C44.6875,34.2031 45.8281,41.2344 45.8594,46.5781 C45.9063,53.0938 44.25,57.0781 40.3594,59.8438 C37.9219,61.5781 35.1094,62.5313 32.0156,62.6719 C29.4219,62.7969 27.1563,62.3281 25.7344,61.9219 L25.7188,61.9219 C25.7188,61.9219 25.4375,61.8281 25.4219,61.6406 C25.4063,61.4531 25.7656,61.4063 25.7656,61.4063 L25.7969,61.4063 C27.7188,60.9688 31.2813,59.7344 33.6406,56.4375 C35.4375,53.9063 36.3125,49.2813 34.4688,45.3438 C33.3594,42.9531 30.8594,40 25.2344,39.5469 C22.7344,39.3438 20.4688,39.8594 18.4688,41.0625 C16.6563,42.1406 15.1563,43.7813 14.1094,45.7813 C11.6563,50.4844 12.1094,56.2188 15.2344,60.0625 C18.2031,63.6875 22.8125,66 28.25,66.5781 C29.1094,66.6719 29.9531,66.7031 30.7969,66.7031 C35.2344,66.7031 39.625,65.5 43.2031,63.2969 C46.8594,60.7188 48.9844,56.7344 49.6563,51.1094 C50.2188,46.4688 49.8281,40.5469 48.4375,32.4688 C48.0781,30.375 47.5313,27.3438 46.875,23.5938 C52.625,21.6719 56.7813,18.0938 60.5469,12.2344 C63.8438,6.5 64.7813,0.390625 63.3594,-5.92188 M29.1406,20.2969 C24.5,19.0781 20.0625,16.5781 16.3125,13.0625 C15,11.8438 13.125,9.67188 11.6563,6.28125 C10.2969,3.10938 9.625,-0.328125 9.6875,-3.90625 C9.75,-8.60938 11.0625,-13.4375 13.5625,-18.2188 C16.4844,-23.7969 21.0469,-29.3281 27.1094,-34.6563 C28.5625,-35.9375 29.9375,-37.2188 31.2188,-38.5 C31.9844,-34.2344 32.8125,-29.5469 33.6875,-24.6719 C29.8438,-23.4063 25.0938,-20.25 21.9844,-14.5938 C18.4375,-8.03125 18.5781,-2.5 19.3125,0.984375 C20.25,5.4375 22.7813,9.20313 26.2344,11.2969 C27.1719,11.8594 31.2969,13.9844 33.1406,13.4063 C33.5156,13.2969 33.7813,13.0625 33.9219,12.7344 C34.4375,11.5625 33.4063,10.9219 31.8594,9.96875 C31.25,9.59375 30.5781,9.17188 29.8594,8.64063 C26.5313,6.15625 25.0781,1.70313 26.1563,-2.6875 C26.7344,-5.07813 28.0156,-7.25 29.8594,-8.95313 C31.5156,-10.5 33.5625,-11.5938 35.9375,-12.2344 C37.9844,-0.984375 40.0469,10.1719 41.6875,18.5313 C41.8125,19.2188 41.9531,19.8906 42.0781,20.5625 C37.7031,21.5 33.3594,21.4063 29.1406,20.2969 M40.4688,-12.9063 C50.8125,-13.375 55.0781,-5.9375 55.9688,-1.10938 C56.4375,1.4375 56.4375,5.875 54.8906,10.0938 C53.7188,13.2656 51.2656,17.3438 46.125,19.4063 C46.0625,18.9844 45.9844,18.5469 45.9063,18.125 C44.3594,9.34375 42.4219,-1.65625 40.4688,-12.9063 M33.1406,-83.8594 C34.9219,-89.5938 37.6563,-92.8438 39.6563,-94.5781 C41.4063,-96.0938 43.0469,-96.8125 43.9688,-96.8125 C44.1094,-96.8125 44.2344,-96.7813 44.3281,-96.75 C44.7969,-96.6094 45.3281,-96.0469 45.7969,-95.1719 C48.1094,-90.8906 47.3594,-84.1719 46.0156,-79.7344 C44.3906,-74.3281 41.4688,-68.7188 32.6719,-59.1094 C32.5,-60.2188 32.3438,-61.2656 32.1875,-62.25 C30.9375,-70.5313 31.2656,-77.8125 33.1406,-83.8594"/>
<path class="Clef" transform="matrix(0.992126,0,0,0.992126,34.0158,572.244)" d="M63.3594,-5.92188 C62.125,-11.3438 59.4844,-15.1719 58.7031,-16.2031 C55.5156,-20.4844 51.5,-23.3281 46.8125,-24.6875 C43.7031,-25.5625 40.7031,-25.6875 38.2813,-25.5 C37.2344,-31.5156 36.2344,-37.3906 35.3281,-42.8438 C40.7813,-49.0156 44.4063,-54.8125 46.6875,-59.1094 C50.1563,-65.6875 51.2969,-70.2656 51.3594,-70.4688 C53.0781,-75.6875 53.4375,-83.3906 52.3281,-91.5938 C51.3281,-99.1406 49.2344,-105.859 46.875,-109.109 C45.8594,-110.531 44.7969,-111.266 43.7656,-111.266 C42.5469,-111.266 40.0313,-110.031 37.1406,-107.25 C34.8438,-105.063 31.5781,-101.172 29.0156,-95.1563 C26.0156,-88.0938 25.7969,-78.6094 26.1563,-71.8906 C26.5313,-64.6094 27.6406,-58.9219 27.6563,-58.875 C27.6719,-58.7813 27.9375,-57.2813 28.375,-54.7188 C28.1563,-54.4844 27.9063,-54.2656 27.6563,-54.0156 C26.625,-53.0156 25.4375,-51.8906 24.0469,-50.5 C23.1875,-49.6406 22.2344,-48.7344 21.2344,-47.7656 C12.7969,-39.625 0,-27.2969 0,-8.14063 C0,-3.4375 0.90625,0.984375 2.6875,5 C4.26563,8.59375 6.5625,11.875 9.5,14.75 C17.2344,22.3125 27.8281,25.5156 34.875,25.3594 C37.8281,25.2813 40.4688,25.0469 42.8594,24.5938 C44.6875,34.2031 45.8281,41.2344 45.8594,46.5781 C45.9063,53.0938 44.25,57.0781 40.3594,59.8438 C37.9219,61.5781 35.1094,62.5313 32.0156,62.6719 C29.4219,62.7969 27.1563,62.3281 25.7344,61.9219 L25.7188,61.9219 C25.7188,61.9219 25.4375,61.8281 25.4219,61.6406 C25.4063,61.4531 25.7656,61.4063 25.7656,61.4063 L25.7969,61.4063 C27.7188,60.9688 31.2813,59.7344 33.6406,56.4375 C35.4375,53.9063 36.3125,49.2813 34.4688,45.3438 C33.3594,42.9531 30.8594,40 25.2344,39.5469 C22.7344,39.3438 20.4688,39.8594 18.4688,41.0625 C16.6563,42.1406 15.1563,43.7813 14.1094,45.7813 C11.6563,50.4844 12.1094,56.2188 15.2344,60.0625 C18.2031,63.6875 22.8125,66 28.25,66.5781 C29.1094,66.6719 29.9531,66.7031 30.7969,66.7031 C35.2344,66.7031 39.625,65.5 43.2031,63.2969 C46.8594,60.7188 48.9844,56.7344 49.6563,51.1094 C50.2188,46.4688 49.8281,40.5469 48.4375,32.4688 C48.0781,30.375 47.5313,27.3438 46.875,23.5938 C52.625,21.6719 56.7813,18.0938 60.5469,12.2344 C63.8438,6.5 64.7813,0.390625 63.3594,-5.92188 M29.1406,20.2969 C24.5,19.0781 20.0625,16.5781 16.3125,13.0625 C15,11.8438 13.125,9.67188 11.6563,6.28125 C10.2969,3.10938 9.625,-0.328125 9.6875,-3.90625 C9.75,-8.60938 11.0625,-13.4375 13.5625,-18.2188 C16.4844,-23.7969 21.0469,-29.3281 27.1094,-34.6563 C28.5625,-35.9375 29.9375,-37.2188 31.2188,-38.5 C31.9844,-34.2344 32.8125,-29.5469 33.6875,-24.6719 C29.8438,-23.4063 25.0938,-20.25 21.9844,-14.5938 C18.4375,-8.03125 18.5781,-2.5 19.3125,0.984375 C20.25,5.4375 22.7813,9.20313 26.2344,11.2969 C27.1719,11.8594 31.2969,13.9844 33.1406,13.4063 C33.5156,13.2969 33.7813,13.0625 33.9219,12.7344 C34.4375,11.5625 33.4063,10.9219 31.8594,9.96875 C31.25,9.59375 30.5781,9.17188 29.8594,8.64063 C26.5313,6.15625 25.0781,1.70313 26.1563,-2.6875 C26.7344,-5.07813 28.0156,-7.25 29.8594,-8.95313 C31.5156,-10.5 33.5625,-11.5938 35.9375,-12.2344 C37.9844,-0.984375 40.0469,10.1719 41.6875,18.5313 C41.8125,19.2188 41.9531,19.8906 42.0781,20.5625 C37.7031,21.5 33.3594,21.4063 29.1406,20.2969 M40.4688,-12.9063 C50.8125,-13.375 55.0781,-5.9375 55.9688,-1.10938 C56.4375,1.4375 56.4375,5.875 54.8906,10.0938 C53.7188,13.2656 51.2656,17.3438 46.125,19.4063 C46.0625,18.9844 45.9844,18.5469 45.9063,18.125 C44.3594,9.34375 42.4219,-1.65625 40.4688,-12.9063 M33.1406,-83.8594 C34.9219,-89.5938 37.6563,-92.8438 39.6563,-94.5781 C41.4063,-96.0938 43.0469,-96.8125 43.9688,-96.8125 C44.1094,-96.8125 44.2344,-96.7813 44.3281,-96.75 C44.7969,-96.6094 45.3281,-96.0469 45.7969,-95.1719 C48.1094,-90.8906 47.3594,-84.1719 46.0156,-79.7344 C44.3906,-74.3281 41.4688,-68.7188 32.6719,-59.1094 C32.5,-60.2188 32.3438,-61.2656 32.1875,-62.25 C30.9375,-70.5313 31.2656,-77.8125 33.1406,-83.8594"/>
<path class="Clef" transform="matrix(0.992126,0,0,0.992126,34.0158,889.826)" d="M63.3594,-5.92188 C62.125,-11.3438 59.4844,-15.1719 58.7031,-16.2031 C55.5156,-20.4844 51.5,-23.3281 46.8125,-24.6875 C43.7031,-25.5625 40.7031,-25.6875 38.2813,-25.5 C37.2344,-31.5156 36.2344,-37.3906 35.3281,-42.8438 C40.7813,-49.0156 44.4063,-54.8125 46.6875,-59.1094 C50.1563,-65.6875 51.2969,-70.2656 51.3594,-70.4688 C53.0781,-75.6875 53.4375,-83.3906 52.3281,-91.5938 C51.3281,-99.1406 49.2344,-105.859 46.875,-109.109 C45.8594,-110.531 44.7969,-111.266 43.7656,-111.266 C42.5469,-111.266 40.0313,-110.031 37.1406,-107.25 C34.8438,-105.063 31.5781,-101.172 29.0156,-95.1563 C26.0156,-88.0938 25.7969,-78.6094 26.1563,-71.8906 C26.5313,-64.6094 27.6406,-58.9219 27.6563,-58.875 C27.6719,-58.7813 27.9375,-57.2813 28.375,-54.7188 C28.1563,-54.4844 27.9063,-54.2656 27.6563,-54.0156 C26.625,-53.0156 25.4375,-51.8906 24.0469,-50.5 C23.1875,-49.6406 22.2344,-48.7344 21.2344,-47.7656 C12.7969,-39.625 0,-27.2969 0,-8.14063 C0,-3.4375 0.90625,0.984375 2.6875,5 C4.26563,8.59375 6.5625,11.875 9.5,14.75 C17.2344,22.3125 27.8281,25.5156 34.875,25.3594 C37.8281,25.2813 40.4688,25.0469 42.8594,24.5938 C44.6875,34.2031 45.8281,41.2344 45.8594,46.5781 C45.9063,53.0938 44.25,57.0781 40.3594,59.8438 C37.9219,61.5781 35.1094,62.5313 32.0156,62.6719 C29.4219,62.7969 27.1563,62.3281 25.7344,61.9219 L25.7188,61.9219 C25.7188,61.9219 25.4375,61.8281 25.4219,61.6406 C25.4063,61.4531 25.7656,61.4063 25.7656,61.4063 L25.7969,61.4063 C27.7188,60.9688 31.2813,59.7344 33.6406,56.4375 C35.4375,53.9063 36.3125,49.2813 34.4688,45.3438 C33.3594,42.9531 30.8594,40 25.2344,39.5469 C22.7344,39.3438 20.4688,39.8594 18.4688,41.0625 C16.6563,42.1406 15.1563,43.7813 14.1094,45.7813 C11.6563,50.4844 12.1094,56.2188 15.2344,60.0625 C18.2031,63.6875 22.8125,66 28.25,66.5781 C29.1094,66.6719 29.9531,66.7031 30.7969,66.7031 C35.2344,66.7031 39.625,65.5 43.2031,63.2969 C46.8594,60.7188 48.9844,56.7344 49.6563,51.1094 C50.2188,46.4688 49.8281,40.5469 48.4375,32.4688 C48.0781,30.375 47.5313,27.3438 46.875,23.5938 C52.625,21.6719 56.7813,18.0938 60.5469,12.2344 C63.8438,6.5 64.7813,0.390625 63.3594,-5.92188 M29.1406,20.2969 C24.5,19.0781 20.0625,16.5781 16.3125,13.0625 C15,11.8438 13.125,9.67188 11.6563,6.28125 C10.2969,3.10938 9.625,-0.328125 9.6875,-3.90625 C9.75,-8.60938 11.0625,-13.4375 13.5625,-18.2188 C16.4844,-23.7969 21.0469,-29.3281 27.1094,-34.6563 C28.5625,-35.9375 29.9375,-37.2188 31.2188,-38.5 C31.9844,-34.2344 32.8125,-29.5469 33.6875,-24.6719 C29.8438,-23.4063 25.0938,-20.25 21.9844,-14.5938 C18.4375,-8.03125 18.5781,-2.5 19.3125,0.984375 C20.25,5.4375 22.7813,9.20313 26.2344,11.2969 C27.1719,11.8594 31.2969,13.9844 33.1406,13.4063 C33.5156,13.2969 33.7813,13.0625 33.9219,12.7344 C34.4375,11.5625 33.4063,10.9219 31.8594,9.96875 C31.25,9.59375 30.5781,9.17188 29.8594,8.64063 C26.5313,6.15625 25.0781,1.70313 26.1563,-2.6875 C26.7344,-5.07813 28.0156,-7.25 29.8594,-8.95313 C31.5156,-10.5 33.5625,-11.5938 35.9375,-12.2344 C37.9844,-0.984375 40.0469,10.1719 41.6875,18.5313 C41.8125,19.2188 41.9531,19.8906 42.0781,20.5625 C37.7031,21.5 33.3594,21.4063 29.1406,20.2969 M40.4688,-12.9063 C50.8125,-13.375 55.0781,-5.9375 55.9688,-1.10938 C56.4375,1.4375 56.4375,5.875 54.8906,10.0938 C53.7188,13.2656 51.2656,17.3438 46.125,19.4063 C46.0625,18.9844 45.9844,18.5469 45.9063,18.125 C44.3594,9.34375 42.4219,-1.65625 40.4688,-12.9063 M33.1406,-83.8594 C34.9219,-89.5938 37.6563,-92.8438 39.6563,-94.5781 C41.4063,-96.0938 43.0469,-96.8125 43.9688,-96.8125 C44.1094,-96.8125 44.2344,-96.7813 44.3281,-96.75 C44.7969,-96.6094 45.3281,-96.0469 45.7969,-95.1719 C48.1094,-90.8906 47.3594,-84.1719 46.0156,-79.7344 C44.3906,-74.3281 41.4688,-68.7188 32.6719,-59.1094 C32.5,-60.2188 32.3438,-61.2656 32.1875,-62.25 C30.9375,-70.5313 31.2656,-77.8125 33.1406,-83.8594"/>
<path class="Clef" transform="matrix(0.992126,0,0,0.992126,34.0158,1199.87)" d="M63.3594,-5.92188 C62.125,-11.3438 59.4844,-15.1719 58.7031,-16.2031 C55.5156,-20.4844 51.5,-23.3281 46.8125,-24.6875 C43.7031,-25.5625 40.7031,-25.6875 38.2813,-25.5 C37.2344,-31.5156 36.2344,-37.3906 35.3281,-42.8438 C40.7813,-49.0156 44.4063,-54.8125 46.6875,-59.1094 C50.1563,-65.6875 51.2969,-70.2656 51.3594,-70.4688 C53.0781,-75.6875 53.4375,-83.3906 52.3281,-91.5938 C51.3281,-99.1406 49.2344,-105.859 46.875,-109.109 C45.8594,-110.531 44.7969,-111.266 43.7656,-111.266 C42.5469,-111.266 40.0313,-110.031 37.1406,-107.25 C34.8438,-105.063 31.5781,-101.172 29.0156,-95.1563 C26.0156,-88.0938 25.7969,-78.6094 26.1563,-71.8906 C26.5313,-64.6094 27.6406,-58.9219 27.6563,-58.875 C27.6719,-58.7813 27.9375,-57.2813 28.375,-54.7188 C28.1563,-54.4844 27.9063,-54.2656 27.6563,-54.0156 C26.625,-53.0156 25.4375,-51.8906 24.0469,-50.5 C23.1875,-49.6406 22.2344,-48.7344 21.2344,-47.7656 C12.7969,-39.625 0,-27.2969 0,-8.14063 C0,-3.4375 0.90625,0.984375 2.6875,5 C4.26563,8.59375 6.5625,11.875 9.5,14.75 C17.2344,22.3125 27.8281,25.5156 34.875,25.3594 C37.8281,25.2813 40.4688,25.0469 42.8594,24.5938 C44.6875,34.2031 45.8281,41.2344 45.8594,46.5781 C45.9063,53.0938 44.25,57.0781 40.3594,59.8438 C37.9219,61.5781 35.1094,62.5313 32.0156,62.6719 C29.4219,62.7969 27.1563,62.3281 25.7344,61.9219 L25.7188,61.9219 C25.7188,61.9219 25.4375,61.8281 25.4219,61.6406 C25.4063,61.4531 25.7656,61.4063 25.7656,61.4063 L25.7969,61.4063 C27.7188,60.9688 31.2813,59.7344 33.6406,56.4375 C35.4375,53.9063 36.3125,49.2813 34.4688,45.3438 C33.3594,42.9531 30.8594,40 25.2344,39.5469 C22.7344,39.3438 20.4688,39.8594 18.4688,41.0625 C16.6563,42.1406 15.1563,43.7813 14.1094,45.7813 C11.6563,50.4844 12.1094,56.2188 15.2344,60.0625 C18.2031,63.6875 22.8125,66 28.25,66.5781 C29.1094,66.6719 29.9531,66.7031 30.7969,66.7031 C35.2344,66.7031 39.625,65.5 43.2031,63.2969 C46.8594,60.7188 48.9844,56.7344 49.6563,51.1094 C50.2188,46.4688 49.8281,40.5469 48.4375,32.4688 C48.0781,30.375 47.5313,27.3438 46.875,23.5938 C52.625,21.6719 56.7813,18.0938 60.5469,12.2344 C63.8438,6.5 64.7813,0.390625 63.3594,-5.92188 M29.1406,20.2969 C24.5,19.0781 20.0625,16.5781 16.3125,13.0625 C15,11.8438 13.125,9.67188 11.6563,6.28125 C10.2969,3.10938 9.625,-0.328125 9.6875,-3.90625 C9.75,-8.60938 11.0625,-13.4375 13.5625,-18.2188 C16.4844,-23.7969 21.0469,-29.3281 27.1094,-34.6563 C28.5625,-35.9375 29.9375,-37.2188 31.2188,-38.5 C31.9844,-34.2344 32.8125,-29.5469 33.6875,-24.6719 C29.8438,-23.4063 25.0938,-20.25 21.9844,-14.5938 C18.4375,-8.03125 18.5781,-2.5 19.3125,0.984375 C20.25,5.4375 22.7813,9.20313 26.2344,11.2969 C27.1719,11.8594 31.2969,13.9844 33.1406,13.4063 C33.5156,13.2969 33.7813,13.0625 33.9219,12.7344 C34.4375,11.5625 33.4063,10.9219 31.8594,9.96875 C31.25,9.59375 30.5781,9.17188 29.8594,8.64063 C26.5313,6.15625 25.0781,1.70313 26.1563,-2.6875 C26.7344,-5.07813 28.0156,-7.25 29.8594,-8.95313 C31.5156,-10.5 33.5625,-11.5938 35.9375,-12.2344 C37.9844,-0.984375 40.0469,10.1719 41.6875,18.5313 C41.8125,19.2188 41.9531,19.8906 42.0781,20.5625 C37.7031,21.5 33.3594,21.4063 29.1406,20.2969 M40.4688,-12.9063 C50.8125,-13.375 55.0781,-5.9375 55.9688,-1.10938 C56.4375,1.4375 56.4375,5.875 54.8906,10.0938 C53.7188,13.2656 51.2656,17.3438 46.125,19.4063 C46.0625,18.9844 45.9844,18.5469 45.9063,18.125 C44.3594,9.34375 42.4219,-1.65625 40.4688,-12.9063 M33.1406,-83.8594 C34.9219,-89.5938 37.6563,-92.8438 39.6563,-94.5781 C41.4063,-96.0938 43.0469,-96.8125 43.9688,-96.8125 C44.1094,-96.8125 44.2344,-96.7813 44.3281,-96.75 C44.7969,-96.6094 45.3281,-96.0469 45.7969,-95.1719 C48.1094,-90.8906 47.3594,-84.1719 46.0156,-79.7344 C44.3906,-74.3281 41.4688,-68.7188 32.6719,-59.1094 C32.5,-60.2188 32.3438,-61.2656 32.1875,-62.25 C30.9375,-70.5313 31.2656,-77.8125 33.1406,-83.8594"/>
<path class="TimeSig" transform="matrix(0.992126,0,0,0.992126,244.951,212.73)" d="M3.59375,12.625 L20.7656,12.625 L20.7656,20.0781 L12.5469,20.0781 C11.7656,20.0781 11.125,20.7031 11.125,21.4844 L11.125,23.3906 C11.125,24.1719 11.7656,24.7969 12.5469,24.7969 L42.7969,24.7969 C43.5781,24.7969 44.2031,24.1719 44.2031,23.3906 L44.2031,21.4844 C44.2031,20.7031 43.5781,20.0781 42.7969,20.0781 L33.8594,20.0781 L33.8594,12.625 L42.7969,12.625 C43.5781,12.625 44.2031,12 44.2031,11.2188 L44.2031,9.3125 C44.2031,8.53125 43.5781,7.90625 42.7969,7.90625 L33.8594,7.90625 L33.8594,-8.0625 C33.8594,-8.59375 33.5469,-9.07813 33.0781,-9.3125 L31.8594,-9.92188 C31.3281,-10.1719 30.7031,-10.0781 30.2656,-9.6875 L21.2188,-1.375 C20.9375,-1.09375 20.7656,-0.734375 20.7656,-0.328125 L20.7656,7.90625 L9.25,7.90625 C9.25,7.90625 20.375,-4.125 32.2188,-19.8906 C33.0781,-21.0469 32.5781,-22.0938 32.3906,-22.2813 L30.2188,-24.4844 C29.9531,-24.75 29.5938,-24.9063 29.2188,-24.9063 C28.625,-24.9063 15.0625,-24.875 14.3438,-24.9063 C13.625,-24.9219 13.0938,-24.2969 13.0156,-23.6875 C13.0156,-23.6875 12.4844,-16.3281 9.875,-8.1875 C7.28125,-0.078125 4.34375,4.90625 1.6875,8.53125 C1.6875,8.53125 1.14063,9.51563 1.5,10.2656 C1.84375,11.0156 2.48438,12.0938 2.48438,12.0938 C2.48438,12.0938 2.73438,12.625 3.59375,12.625"/>
<path class="TimeSig" transform="matrix(0.992126,0,0,0.992126,244.951,262.073)" d="M3.59375,12.625 L20.7656,12.625 L20.7656,20.0781 L12.5469,20.0781 C11.7656,20.0781 11.125,20.7031 11.125,21.4844 L11.125,23.3906 C11.125,24.1719 11.7656,24.7969 12.5469,24.7969 L42.7969,24.7969 C43.5781,24.7969 44.2031,24.1719 44.2031,23.3906 L44.2031,21.4844 C44.2031,20.7031 43.5781,20.0781 42.7969,20.0781 L33.8594,20.0781 L33.8594,12.625 L42.7969,12.625 C43.5781,12.625 44.2031,12 44.2031,11.2188 L44.2031,9.3125 C44.2031,8.53125 43.5781,7.90625 42.7969,7.90625 L33.8594,7.90625 L33.8594,-8.0625 C33.8594,-8.59375 33.5469,-9.07813 33.0781,-9.3125 L31.8594,-9.92188 C31.3281,-10.1719 30.7031,-10.0781 30.2656,-9.6875 L21.2188,-1.375 C20.9375,-1.09375 20.7656,-0.734375 20.7656,-0.328125 L20.7656,7.90625 L9.25,7.90625 C9.25,7.90625 20.375,-4.125 32.2188,-19.8906 C33.0781,-21.0469 32.5781,-22.0938 32.3906,-22.2813 L30.2188,-24.4844 C29.9531,-24.75 29.5938,-24.9063 29.2188,-24.9063 C28.625,-24.9063 15.0625,-24.875 14.3438,-24.9063 C13.625,-24.9219 13.0938,-24.2969 13.0156,-23.6875 C13.0156,-23.6875 12.4844,-16.3281 9.875,-8.1875 C7.28125,-0.078125 4.34375,4.90625 1.6875,8.53125 C1.6875,8.53125 1.14063,9.51563 1.5,10.2656 C1.84375,11.0156 2.48438,12.0938 2.48438,12.0938 C2.48438,12.0938 2.73438,12.625 3.59375,12.625"/>
<path class="RehearsalMark" fill="none" stroke="#000000" stroke-width="3.97" stroke-linecap="square" stroke-linejoin="miter" stroke-miterlimit="2" fill-rule="evenodd" d="M154.216,21.0729 L262.987,21.0729 L262.987,122.845 L154.216,122.845 L154.216,21.0729 "/>
<path class="RehearsalMark" d="M205.352,35.4899 L182.883,87.9587 C178.32,98.6618 174.664,102.521 168.82,103.115 L168.82,108.459 L197.43,108.459 L197.43,103.115 C190.398,102.724 187.633,100.834 187.633,96.2868 C187.633,94.5993 188.023,93.0212 189.117,90.6462 L190.695,86.8806 L215.352,86.8806 L219.117,96.5837 C220.195,99.3493 220.305,99.8493 220.305,100.631 C220.305,102.427 218.914,103.021 214.555,103.021 L212.867,103.115 L212.867,108.459 L247.617,108.459 L247.617,103.115 C241.977,102.912 240.398,101.927 238.32,96.8806 L212.867,35.4899 L205.352,35.4899 M203.273,56.5837 L212.867,80.2399 L193.273,80.2399 L203.273,56.5837 "/>
<path class="RehearsalMark" fill="none" stroke="#000000" stroke-width="3.97" stroke-linecap="square" stroke-linejoin="miter" stroke-miterlimit="2" fill-rule="evenodd" d="M32.3294,654.622 L133.101,654.622 L133.101,755.393 L32.3294,755.393 L32.3294,654.622 "/>
<path class="RehearsalMark" d="M47.4027,669.523 L47.4027,674.882 L48.8871,674.882 C54.2308,674.882 56.1058,675.273 56.9964,676.257 C57.6996,677.351 57.6996,677.648 57.6996,683.789 L57.6996,726.757 C57.6996,732.882 57.6996,733.179 56.9964,734.179 C56.1058,735.273 54.1371,735.664 48.8871,735.664 L47.4027,735.664 L47.4027,741.007 L87.4964,741.007 C97.7933,741.007 103.043,740.211 108.184,737.945 C114.418,735.164 118.575,728.929 118.575,722.195 C118.575,715.273 114.621,709.82 107.293,706.461 C103.934,704.867 101.059,704.086 95.8089,703.382 C100.653,702.601 103.434,701.898 106.2,700.617 C112.137,697.742 115.309,692.992 115.309,687.054 C115.309,681.414 112.34,676.164 107.496,673.492 C102.043,670.414 97.2933,669.523 85.6058,669.523 L47.4027,669.523 M75.5121,701.601 L75.5121,680.617 C75.3089,676.461 76.6996,675.07 81.0589,674.882 L84.0277,674.882 C92.7464,674.882 97.3871,679.226 97.3871,687.445 C97.3871,692.304 95.7152,696.164 92.5433,698.632 C89.8714,700.82 86.4964,701.601 80.3714,701.601 L75.5121,701.601 M75.5121,707.054 L82.3402,707.054 C88.5746,707.054 91.4496,707.648 94.2308,709.429 C97.6839,711.711 99.6683,716.054 99.6683,721.211 C99.6683,725.961 97.8871,730.32 95.0121,732.695 C92.5433,734.664 89.2777,735.664 84.5277,735.664 L81.5589,735.664 C75.9027,735.461 75.3089,734.867 75.5121,729.32 L75.5121,707.054 "/>
<path class="Harmony" d="M350.527,121.866 C350.496,121.881 350.449,121.881 350.386,121.881 C350.324,121.881 350.277,121.897 350.246,121.897 C350.199,121.912 350.152,121.912 350.09,121.928 C350.027,121.928 349.996,121.944 349.949,121.959 C349.902,121.975 349.871,122.006 349.824,122.022 C349.777,122.053 349.746,122.069 349.73,122.116 C349.683,122.147 349.668,122.178 349.636,122.225 C349.621,122.256 349.605,122.319 349.605,122.366 C349.605,122.397 349.605,122.428 349.605,122.475 L349.605,122.506 C349.605,122.537 349.605,122.584 349.605,122.647 C349.621,122.709 349.621,122.756 349.621,122.787 C349.621,123.366 349.636,123.928 349.652,124.475 C349.652,124.506 349.652,124.537 349.652,124.569 C349.652,124.678 349.652,124.819 349.636,124.975 C349.621,125.178 349.621,125.319 349.621,125.412 L349.621,125.444 L349.621,125.537 C349.621,125.553 349.621,125.584 349.636,125.616 C349.636,125.647 349.636,125.662 349.652,125.678 C349.668,125.694 349.683,125.709 349.715,125.725 C349.73,125.741 349.761,125.741 349.793,125.741 L349.808,125.741 C349.98,125.741 350.152,125.709 350.324,125.631 C350.511,125.569 350.668,125.491 350.824,125.381 C350.98,125.287 351.121,125.162 351.261,125.006 C351.402,124.866 351.527,124.709 351.621,124.553 C351.73,124.397 351.808,124.225 351.871,124.053 C351.949,123.881 351.98,123.709 351.98,123.537 C351.996,123.506 351.996,123.459 351.996,123.428 C351.996,123.334 351.98,123.241 351.965,123.131 C351.933,122.991 351.902,122.85 351.84,122.725 C351.793,122.6 351.715,122.475 351.621,122.366 C351.543,122.241 351.433,122.147 351.324,122.069 C351.215,121.991 351.09,121.928 350.949,121.897 C350.871,121.866 350.777,121.866 350.668,121.866 C350.621,121.866 350.574,121.866 350.527,121.866 M350.215,125.1 C350.215,124.959 350.215,124.741 350.215,124.475 C350.23,124.256 350.23,124.053 350.23,123.866 C350.23,123.819 350.23,123.787 350.23,123.741 C350.23,123.522 350.215,123.303 350.215,123.1 C350.215,123.069 350.199,123.037 350.199,122.959 C350.183,122.881 350.168,122.803 350.168,122.741 C350.152,122.709 350.152,122.678 350.152,122.647 C350.152,122.616 350.152,122.584 350.168,122.553 C350.168,122.491 350.199,122.444 350.23,122.412 C350.277,122.381 350.324,122.366 350.386,122.366 C350.402,122.366 350.402,122.366 350.418,122.366 C350.496,122.381 350.574,122.397 350.668,122.444 C350.746,122.491 350.824,122.553 350.902,122.616 C350.98,122.678 351.043,122.741 351.105,122.787 C351.168,122.85 351.199,122.897 351.23,122.944 C351.308,123.069 351.371,123.225 351.402,123.381 C351.418,123.475 351.418,123.553 351.418,123.647 C351.418,123.709 351.418,123.787 351.418,123.85 C351.386,124.006 351.34,124.147 351.277,124.303 C351.215,124.444 351.121,124.569 351.027,124.694 C350.918,124.803 350.793,124.897 350.668,124.959 C350.527,125.037 350.371,125.084 350.215,125.1"/>
<path class="Harmony" d="M370.863,45.6074 C370.394,45.7011 369.628,45.7949 368.394,45.9043 C367.16,45.998 366.206,46.1855 365.55,46.2793 C364.878,46.373 363.925,46.4668 362.785,46.6543 C361.644,46.8418 360.8,47.1386 360.035,47.4199 C359.269,47.7011 358.425,48.0761 357.66,48.5605 C356.894,49.0293 356.238,49.5136 355.753,50.1699 C355.097,50.8418 354.613,51.5918 354.238,52.3574 C353.863,53.123 353.581,54.0605 353.472,55.0136 C353.378,55.6855 353.378,56.3418 353.378,57.0136 L353.378,57.5761 C353.472,58.248 353.472,59.2011 353.581,60.3418 C353.675,61.4824 353.675,62.4199 353.675,63.0918 C353.675,73.9199 353.956,84.5605 354.425,95.1074 C354.519,95.6699 354.519,96.248 354.519,96.9199 C354.425,98.9043 354.331,101.561 354.144,104.701 C353.863,108.404 353.675,111.17 353.675,112.967 L353.675,113.545 L353.675,115.154 C353.675,115.623 353.863,116.107 353.956,116.67 C354.05,117.248 354.238,117.717 354.519,117.998 C354.816,118.295 355.097,118.576 355.566,118.857 C355.956,119.045 356.425,119.139 356.988,119.139 L357.285,119.139 C360.597,119.045 363.925,118.389 367.253,117.154 C370.581,115.92 373.722,114.389 376.66,112.404 C379.613,110.404 382.363,108.029 385.019,105.279 C387.675,102.514 389.956,99.6699 391.863,96.623 C393.753,93.5918 395.378,90.4511 396.613,87.123 C397.847,83.7949 398.503,80.4824 398.706,77.3418 C398.8,76.6699 398.8,75.9199 398.8,75.248 C398.8,73.4511 398.613,71.5449 398.222,69.6543 C397.753,66.9824 396.988,64.3261 395.941,61.8574 C394.894,59.3886 393.566,57.1074 391.863,54.9199 C390.144,52.7324 388.253,50.9355 386.16,49.4199 C384.066,47.8886 381.785,46.748 379.128,46.0918 C377.425,45.6074 375.613,45.4199 373.816,45.4199 C372.863,45.4199 371.91,45.5136 370.863,45.6074 M364.972,106.982 C364.972,104.232 365.066,100.232 365.16,95.1074 C365.253,91.0293 365.347,87.123 365.347,83.6074 C365.347,82.7636 365.253,81.9043 365.253,81.0449 C365.253,76.873 365.16,72.7793 364.972,68.9824 C364.972,68.5136 364.878,67.6543 364.691,66.2324 C364.503,64.7949 364.222,63.4668 364.113,62.2324 C364.019,61.6699 364.019,61.0918 364.019,60.5293 C364.019,59.8574 364.019,59.2949 364.113,58.623 C364.316,57.3886 364.691,56.4355 365.347,55.9668 C366.206,55.2949 367.16,55.0136 368.206,55.0136 C368.488,55.1074 368.769,55.1074 369.066,55.1074 C370.488,55.2949 372.003,55.7793 373.613,56.6386 C375.238,57.4824 376.753,58.623 378.175,59.7636 C379.613,60.9043 380.941,62.0449 381.988,63.1855 C383.019,64.3261 383.878,65.1855 384.363,66.0449 C385.878,68.5136 386.925,71.2636 387.488,74.2949 C387.769,76.0136 387.972,77.7168 387.972,79.4355 C387.972,80.6699 387.863,81.9043 387.769,83.1386 C387.3,86.0761 386.441,88.9355 385.206,91.6855 C383.972,94.4355 382.363,96.9199 380.456,99.0918 C378.472,101.279 376.191,102.998 373.519,104.42 C370.863,105.842 368.019,106.701 364.972,106.982"/>
<path class="Harmony" d="M1040.92,71.3499 C1042.15,72.9593 1042.99,75.1468 1043.67,77.9124 C1044.34,80.6624 1044.81,83.3187 1045.28,86.0843 C1045.76,88.8343 1046.04,91.3968 1046.13,93.678 L1038.92,92.9124 L1031.12,93.678 L1035.12,81.803 L1040.92,71.3499 M1039.2,104.787 L1041.1,104.787 L1043.95,104.787 L1044.71,104.787 L1045.57,104.787 C1045.67,104.787 1045.95,104.881 1046.32,104.881 C1046.71,104.881 1046.99,104.881 1047.18,104.975 C1047.37,105.084 1047.56,105.178 1047.85,105.272 C1048.13,105.366 1048.32,105.459 1048.51,105.647 C1048.7,105.834 1048.99,105.928 1049.18,106.116 C1049.65,106.6 1050.12,107.553 1050.51,108.787 C1050.88,109.928 1051.26,111.162 1051.56,112.584 C1051.84,114.006 1052.12,115.428 1052.4,117.053 C1052.7,118.662 1053.07,120.084 1053.45,121.412 C1053.84,122.741 1054.4,123.975 1054.98,125.022 C1055.54,126.069 1056.21,126.741 1057.06,127.116 C1057.45,127.303 1057.92,127.397 1058.49,127.397 C1058.96,127.397 1059.53,127.303 1060.1,127.116 C1060.96,126.834 1061.62,126.459 1062.29,126.069 C1062.95,125.694 1063.43,125.319 1063.81,124.834 C1064.18,124.366 1064.48,123.881 1064.76,123.319 C1065.04,122.741 1065.23,122.366 1065.32,121.897 C1065.42,121.506 1065.42,121.131 1065.42,120.662 L1065.42,120.178 C1065.42,119.522 1065.42,118.85 1065.32,118.381 C1065.23,117.897 1065.04,117.334 1064.85,116.569 C1064.67,115.819 1064.48,115.241 1064.28,114.772 C1064.09,114.287 1063.99,113.631 1063.71,112.772 C1063.43,111.912 1063.13,111.35 1063.04,110.975 C1062.38,109.069 1061.24,105.272 1059.62,99.6624 C1058.49,95.5843 1057.54,92.1624 1056.87,89.4905 C1055.63,84.6468 1054.59,80.6624 1053.84,77.5218 C1052.6,72.303 1051.65,68.7874 1051.17,66.9749 C1051.07,66.5999 1050.98,66.0374 1050.79,65.2718 C1050.6,64.5062 1050.51,63.8499 1050.42,63.2718 C1050.32,62.7093 1050.03,62.1312 1049.84,61.3812 C1049.65,60.6155 1049.46,59.8499 1049.28,59.2874 C1049.09,58.7093 1048.7,58.053 1048.42,57.3812 C1048.13,56.7249 1047.74,56.2405 1047.37,55.7718 C1046.99,55.303 1046.71,54.9124 1046.23,54.5374 C1045.76,54.1624 1045.28,53.7718 1044.71,53.678 C1044.24,53.5843 1043.76,53.4905 1043.2,53.4905 L1042.81,53.4905 C1042.15,53.5843 1041.38,53.678 1040.53,53.9593 C1039.87,54.2562 1039.1,54.6312 1038.45,55.0999 C1037.78,55.5843 1037.12,55.9593 1036.63,56.4437 C1036.17,56.9124 1035.68,57.5843 1035.21,58.3343 C1034.74,59.0999 1034.26,59.6624 1033.98,60.2405 C1033.7,60.803 1033.31,61.5687 1032.93,62.5218 C1032.56,63.4593 1032.17,64.2249 1031.98,64.803 C1031.79,65.3655 1031.6,66.1312 1031.23,67.0843 C1030.84,68.0218 1030.56,68.6937 1030.46,69.1624 C1027.71,76.0999 1024.95,82.6624 1022.2,89.0218 C1017.73,99.1937 1015.07,105.366 1014.31,107.647 C1014.21,108.022 1013.84,108.694 1013.35,109.725 C1012.88,110.772 1012.32,111.725 1011.84,112.678 C1011.37,113.631 1010.88,114.866 1010.32,116.1 C1009.74,117.334 1009.28,118.569 1008.99,119.616 C1008.6,120.662 1008.42,121.6 1008.42,122.459 C1008.51,123.319 1008.71,123.881 1009.18,124.366 C1010.04,125.022 1010.98,125.412 1012.03,125.412 L1012.7,125.412 C1014.03,125.225 1015.35,124.834 1016.68,124.084 C1018.01,123.319 1018.96,122.459 1019.45,121.6 C1020.01,120.569 1020.59,119.334 1021.06,117.803 C1021.53,116.287 1022.01,114.866 1022.29,113.631 C1022.57,112.397 1022.96,111.069 1023.62,109.631 C1024.29,108.209 1025.04,107.069 1025.9,106.116 L1031.03,104.506 C1031.32,104.412 1031.7,104.506 1032.37,104.506 L1035.12,104.506 C1035.4,104.506 1036.82,104.6 1039.2,104.787"/>
<path class="Harmony" d="M1700.38,71.3499 C1701.62,72.9593 1702.46,75.1468 1703.13,77.9124 C1703.81,80.6624 1704.27,83.3187 1704.74,86.0843 C1705.23,88.8343 1705.51,91.3968 1705.6,93.678 L1698.38,92.9124 L1690.59,93.678 L1694.59,81.803 L1700.38,71.3499 M1698.66,104.787 L1700.57,104.787 L1703.41,104.787 L1704.18,104.787 L1705.04,104.787 C1705.13,104.787 1705.41,104.881 1705.79,104.881 C1706.18,104.881 1706.46,104.881 1706.65,104.975 C1706.84,105.084 1707.02,105.178 1707.32,105.272 C1707.6,105.366 1707.79,105.459 1707.98,105.647 C1708.16,105.834 1708.46,105.928 1708.65,106.116 C1709.12,106.6 1709.59,107.553 1709.98,108.787 C1710.35,109.928 1710.73,111.162 1711.02,112.584 C1711.31,114.006 1711.59,115.428 1711.87,117.053 C1712.16,118.662 1712.54,120.084 1712.91,121.412 C1713.31,122.741 1713.87,123.975 1714.45,125.022 C1715.01,126.069 1715.68,126.741 1716.52,127.116 C1716.91,127.303 1717.38,127.397 1717.96,127.397 C1718.43,127.397 1718.99,127.303 1719.57,127.116 C1720.43,126.834 1721.09,126.459 1721.76,126.069 C1722.41,125.694 1722.9,125.319 1723.27,124.834 C1723.65,124.366 1723.95,123.881 1724.23,123.319 C1724.51,122.741 1724.7,122.366 1724.79,121.897 C1724.88,121.506 1724.88,121.131 1724.88,120.662 L1724.88,120.178 C1724.88,119.522 1724.88,118.85 1724.79,118.381 C1724.7,117.897 1724.51,117.334 1724.32,116.569 C1724.13,115.819 1723.95,115.241 1723.74,114.772 C1723.56,114.287 1723.46,113.631 1723.18,112.772 C1722.9,111.912 1722.6,111.35 1722.51,110.975 C1721.85,109.069 1720.71,105.272 1719.09,99.6624 C1717.96,95.5843 1717.01,92.1624 1716.34,89.4905 C1715.1,84.6468 1714.06,80.6624 1713.31,77.5218 C1712.07,72.303 1711.12,68.7874 1710.63,66.9749 C1710.54,66.5999 1710.45,66.0374 1710.26,65.2718 C1710.07,64.5062 1709.98,63.8499 1709.88,63.2718 C1709.79,62.7093 1709.49,62.1312 1709.31,61.3812 C1709.12,60.6155 1708.93,59.8499 1708.74,59.2874 C1708.56,58.7093 1708.16,58.053 1707.88,57.3812 C1707.6,56.7249 1707.21,56.2405 1706.84,55.7718 C1706.46,55.303 1706.18,54.9124 1705.7,54.5374 C1705.23,54.1624 1704.74,53.7718 1704.18,53.678 C1703.71,53.5843 1703.23,53.4905 1702.66,53.4905 L1702.27,53.4905 C1701.62,53.5843 1700.85,53.678 1699.99,53.9593 C1699.34,54.2562 1698.57,54.6312 1697.91,55.0999 C1697.24,55.5843 1696.59,55.9593 1696.1,56.4437 C1695.63,56.9124 1695.15,57.5843 1694.68,58.3343 C1694.21,59.0999 1693.73,59.6624 1693.45,60.2405 C1693.16,60.803 1692.77,61.5687 1692.4,62.5218 C1692.02,63.4593 1691.63,64.2249 1691.45,64.803 C1691.26,65.3655 1691.07,66.1312 1690.7,67.0843 C1690.31,68.0218 1690.02,68.6937 1689.93,69.1624 C1687.18,76.0999 1684.41,82.6624 1681.66,89.0218 C1677.2,99.1937 1674.54,105.366 1673.77,107.647 C1673.68,108.022 1673.31,108.694 1672.82,109.725 C1672.35,110.772 1671.79,111.725 1671.31,112.678 C1670.84,113.631 1670.35,114.866 1669.79,116.1 C1669.21,117.334 1668.74,118.569 1668.46,119.616 C1668.07,120.662 1667.88,121.6 1667.88,122.459 C1667.98,123.319 1668.18,123.881 1668.65,124.366 C1669.51,125.022 1670.45,125.412 1671.49,125.412 L1672.16,125.412 C1673.49,125.225 1674.82,124.834 1676.15,124.084 C1677.48,123.319 1678.43,122.459 1678.91,121.6 C1679.48,120.569 1680.06,119.334 1680.52,117.803 C1680.99,116.287 1681.48,114.866 1681.76,113.631 C1682.04,112.397 1682.43,111.069 1683.09,109.631 C1683.76,108.209 1684.51,107.069 1685.37,106.116 L1690.49,104.506 C1690.79,104.412 1691.16,104.506 1691.84,104.506 L1694.59,104.506 C1694.87,104.506 1696.29,104.6 1698.66,104.787"/>
<path class="Harmony" d="M2646.14,51.3968 C2645.67,51.4905 2644.9,51.5843 2643.67,51.6937 C2642.44,51.7874 2641.48,51.9749 2640.83,52.0687 C2640.15,52.1624 2639.2,52.2562 2638.06,52.4437 C2636.92,52.6312 2636.08,52.928 2635.31,53.2093 C2634.54,53.4905 2633.7,53.8655 2632.94,54.3499 C2632.17,54.8187 2631.51,55.303 2631.03,55.9593 C2630.37,56.6312 2629.89,57.3812 2629.51,58.1468 C2629.14,58.9124 2628.86,59.8499 2628.75,60.803 C2628.65,61.4749 2628.65,62.1312 2628.65,62.803 L2628.65,63.3655 C2628.75,64.0374 2628.75,64.9905 2628.86,66.1312 C2628.95,67.2718 2628.95,68.2093 2628.95,68.8812 C2628.95,79.7093 2629.23,90.3499 2629.7,100.897 C2629.79,101.459 2629.79,102.037 2629.79,102.709 C2629.7,104.694 2629.61,107.35 2629.42,110.491 C2629.14,114.194 2628.95,116.959 2628.95,118.756 L2628.95,119.334 L2628.95,120.944 C2628.95,121.412 2629.14,121.897 2629.23,122.459 C2629.33,123.037 2629.51,123.506 2629.79,123.787 C2630.09,124.084 2630.37,124.366 2630.84,124.647 C2631.23,124.834 2631.7,124.928 2632.26,124.928 L2632.56,124.928 C2635.87,124.834 2639.2,124.178 2642.53,122.944 C2645.86,121.709 2649,120.178 2651.94,118.194 C2654.89,116.194 2657.64,113.819 2660.29,111.069 C2662.95,108.303 2665.23,105.459 2667.14,102.412 C2669.03,99.3812 2670.65,96.2405 2671.89,92.9124 C2673.12,89.5843 2673.78,86.2718 2673.98,83.1312 C2674.08,82.4593 2674.08,81.7093 2674.08,81.0374 C2674.08,79.2405 2673.89,77.3343 2673.5,75.4437 C2673.03,72.7718 2672.26,70.1155 2671.22,67.6468 C2670.17,65.178 2668.84,62.8968 2667.14,60.7093 C2665.42,58.5218 2663.53,56.7249 2661.44,55.2093 C2659.34,53.678 2657.06,52.5374 2654.4,51.8812 C2652.7,51.3968 2650.89,51.2093 2649.09,51.2093 C2648.14,51.2093 2647.19,51.303 2646.14,51.3968 M2640.25,112.772 C2640.25,110.022 2640.34,106.022 2640.44,100.897 C2640.53,96.8187 2640.62,92.9124 2640.62,89.3968 C2640.62,88.553 2640.53,87.6937 2640.53,86.8343 C2640.53,82.6624 2640.44,78.5687 2640.25,74.7718 C2640.25,74.303 2640.15,73.4437 2639.97,72.0218 C2639.78,70.5843 2639.5,69.2562 2639.39,68.0218 C2639.29,67.4593 2639.29,66.8812 2639.29,66.3187 C2639.29,65.6468 2639.29,65.0843 2639.39,64.4124 C2639.59,63.178 2639.97,62.2249 2640.62,61.7562 C2641.48,61.0843 2642.44,60.803 2643.48,60.803 C2643.76,60.8968 2644.04,60.8968 2644.34,60.8968 C2645.76,61.0843 2647.28,61.5687 2648.89,62.428 C2650.51,63.2718 2652.03,64.4124 2653.45,65.553 C2654.89,66.6937 2656.22,67.8343 2657.26,68.9749 C2658.29,70.1155 2659.15,70.9749 2659.64,71.8343 C2661.15,74.303 2662.2,77.053 2662.76,80.0843 C2663.04,81.803 2663.25,83.5062 2663.25,85.2249 C2663.25,86.4593 2663.14,87.6937 2663.04,88.928 C2662.58,91.8655 2661.72,94.7249 2660.48,97.4749 C2659.25,100.225 2657.64,102.709 2655.73,104.881 C2653.75,107.069 2651.47,108.787 2648.79,110.209 C2646.14,111.631 2643.29,112.491 2640.25,112.772"/>
<path class="Harmony" d="M196.298,370.107 C195.829,370.201 195.063,370.295 193.829,370.404 C192.595,370.498 191.642,370.686 190.985,370.779 C190.313,370.873 189.36,370.967 188.22,371.154 C187.079,371.342 186.235,371.639 185.47,371.92 C184.704,372.201 183.86,372.576 183.095,373.061 C182.329,373.529 181.673,374.014 181.188,374.67 C180.532,375.342 180.048,376.092 179.673,376.857 C179.298,377.623 179.017,378.561 178.907,379.514 C178.813,380.186 178.813,380.842 178.813,381.514 L178.813,382.076 C178.907,382.748 178.907,383.701 179.017,384.842 C179.11,385.982 179.11,386.92 179.11,387.592 C179.11,398.42 179.392,409.061 179.86,419.607 C179.954,420.17 179.954,420.748 179.954,421.42 C179.86,423.404 179.767,426.061 179.579,429.201 C179.298,432.904 179.11,435.67 179.11,437.467 L179.11,438.045 L179.11,439.654 C179.11,440.123 179.298,440.607 179.392,441.17 C179.485,441.748 179.673,442.217 179.954,442.498 C180.251,442.795 180.532,443.076 181.001,443.357 C181.392,443.545 181.86,443.639 182.423,443.639 L182.72,443.639 C186.032,443.545 189.36,442.889 192.688,441.654 C196.017,440.42 199.157,438.889 202.095,436.904 C205.048,434.904 207.798,432.529 210.454,429.779 C213.11,427.014 215.392,424.17 217.298,421.123 C219.188,418.092 220.813,414.951 222.048,411.623 C223.282,408.295 223.938,404.982 224.142,401.842 C224.235,401.17 224.235,400.42 224.235,399.748 C224.235,397.951 224.048,396.045 223.657,394.154 C223.188,391.482 222.423,388.826 221.376,386.357 C220.329,383.889 219.001,381.607 217.298,379.42 C215.579,377.232 213.688,375.436 211.595,373.92 C209.501,372.389 207.22,371.248 204.563,370.592 C202.86,370.107 201.048,369.92 199.251,369.92 C198.298,369.92 197.345,370.014 196.298,370.107 M190.407,431.482 C190.407,428.732 190.501,424.732 190.595,419.607 C190.688,415.529 190.782,411.623 190.782,408.107 C190.782,407.264 190.688,406.404 190.688,405.545 C190.688,401.373 190.595,397.279 190.407,393.482 C190.407,393.014 190.313,392.154 190.126,390.732 C189.938,389.295 189.657,387.967 189.548,386.732 C189.454,386.17 189.454,385.592 189.454,385.029 C189.454,384.357 189.454,383.795 189.548,383.123 C189.751,381.889 190.126,380.936 190.782,380.467 C191.642,379.795 192.595,379.514 193.642,379.514 C193.923,379.607 194.204,379.607 194.501,379.607 C195.923,379.795 197.438,380.279 199.048,381.139 C200.673,381.982 202.188,383.123 203.61,384.264 C205.048,385.404 206.376,386.545 207.423,387.686 C208.454,388.826 209.313,389.686 209.798,390.545 C211.313,393.014 212.36,395.764 212.923,398.795 C213.204,400.514 213.407,402.217 213.407,403.936 C213.407,405.17 213.298,406.404 213.204,407.639 C212.735,410.576 211.876,413.436 210.642,416.186 C209.407,418.936 207.798,421.42 205.892,423.592 C203.907,425.779 201.626,427.498 198.954,428.92 C196.298,430.342 193.454,431.201 190.407,431.482"/>
<path class="Harmony" d="M896.171,381.389 C897.405,382.999 898.249,385.186 898.921,387.952 C899.593,390.702 900.061,393.358 900.53,396.124 C901.014,398.874 901.296,401.436 901.389,403.717 L894.171,402.952 L886.374,403.717 L890.374,391.842 L896.171,381.389 M894.452,414.827 L896.358,414.827 L899.202,414.827 L899.968,414.827 L900.827,414.827 C900.921,414.827 901.202,414.921 901.577,414.921 C901.968,414.921 902.249,414.921 902.436,415.014 C902.624,415.124 902.811,415.217 903.108,415.311 C903.389,415.405 903.577,415.499 903.764,415.686 C903.952,415.874 904.249,415.967 904.436,416.155 C904.905,416.639 905.374,417.592 905.764,418.827 C906.139,419.967 906.514,421.202 906.811,422.624 C907.093,424.046 907.374,425.467 907.655,427.092 C907.952,428.702 908.327,430.124 908.702,431.452 C909.093,432.78 909.655,434.014 910.233,435.061 C910.796,436.108 911.468,436.78 912.311,437.155 C912.702,437.342 913.171,437.436 913.749,437.436 C914.218,437.436 914.78,437.342 915.358,437.155 C916.218,436.874 916.874,436.499 917.546,436.108 C918.202,435.733 918.686,435.358 919.061,434.874 C919.436,434.405 919.733,433.921 920.014,433.358 C920.296,432.78 920.483,432.405 920.577,431.936 C920.671,431.546 920.671,431.171 920.671,430.702 L920.671,430.217 C920.671,429.561 920.671,428.889 920.577,428.421 C920.483,427.936 920.296,427.374 920.108,426.608 C919.921,425.858 919.733,425.28 919.53,424.811 C919.343,424.327 919.249,423.671 918.968,422.811 C918.686,421.952 918.389,421.389 918.296,421.014 C917.639,419.108 916.499,415.311 914.874,409.702 C913.749,405.624 912.796,402.202 912.124,399.53 C910.889,394.686 909.843,390.702 909.093,387.561 C907.858,382.342 906.905,378.827 906.421,377.014 C906.327,376.639 906.233,376.077 906.046,375.311 C905.858,374.546 905.764,373.889 905.671,373.311 C905.577,372.749 905.28,372.171 905.093,371.421 C904.905,370.655 904.718,369.889 904.53,369.327 C904.343,368.749 903.952,368.092 903.671,367.421 C903.389,366.764 902.999,366.28 902.624,365.811 C902.249,365.342 901.968,364.952 901.483,364.577 C901.014,364.202 900.53,363.811 899.968,363.717 C899.499,363.624 899.014,363.53 898.452,363.53 L898.061,363.53 C897.405,363.624 896.639,363.717 895.78,363.999 C895.124,364.296 894.358,364.671 893.702,365.139 C893.03,365.624 892.374,365.999 891.889,366.483 C891.421,366.952 890.936,367.624 890.468,368.374 C889.999,369.139 889.514,369.702 889.233,370.28 C888.952,370.842 888.561,371.608 888.186,372.561 C887.811,373.499 887.421,374.264 887.233,374.842 C887.046,375.405 886.858,376.171 886.483,377.124 C886.093,378.061 885.811,378.733 885.718,379.202 C882.968,386.139 880.202,392.702 877.452,399.061 C872.983,409.233 870.327,415.405 869.561,417.686 C869.468,418.061 869.093,418.733 868.608,419.764 C868.139,420.811 867.577,421.764 867.093,422.717 C866.624,423.671 866.139,424.905 865.577,426.139 C864.999,427.374 864.53,428.608 864.249,429.655 C863.858,430.702 863.671,431.639 863.671,432.499 C863.764,433.358 863.968,433.921 864.436,434.405 C865.296,435.061 866.233,435.452 867.28,435.452 L867.952,435.452 C869.28,435.264 870.608,434.874 871.936,434.124 C873.264,433.358 874.218,432.499 874.702,431.639 C875.264,430.608 875.843,429.374 876.311,427.842 C876.78,426.327 877.264,424.905 877.546,423.671 C877.827,422.436 878.218,421.108 878.874,419.671 C879.546,418.249 880.296,417.108 881.155,416.155 L886.28,414.546 C886.577,414.452 886.952,414.546 887.624,414.546 L890.374,414.546 C890.655,414.546 892.077,414.639 894.452,414.827"/>
<path class="Harmony" d="M1589.79,381.389 C1591.03,382.999 1591.87,385.186 1592.54,387.952 C1593.21,390.702 1593.68,393.358 1594.15,396.124 C1594.64,398.874 1594.92,401.436 1595.01,403.717 L1587.79,402.952 L1580,403.717 L1584,391.842 L1589.79,381.389 M1588.07,414.827 L1589.98,414.827 L1592.82,414.827 L1593.59,414.827 L1594.45,414.827 C1594.54,414.827 1594.82,414.921 1595.2,414.921 C1595.59,414.921 1595.87,414.921 1596.06,415.014 C1596.25,415.124 1596.43,415.217 1596.73,415.311 C1597.01,415.405 1597.2,415.499 1597.39,415.686 C1597.57,415.874 1597.87,415.967 1598.06,416.155 C1598.53,416.639 1599,417.592 1599.39,418.827 C1599.76,419.967 1600.14,421.202 1600.43,422.624 C1600.71,424.046 1601,425.467 1601.28,427.092 C1601.57,428.702 1601.95,430.124 1602.32,431.452 C1602.71,432.78 1603.28,434.014 1603.86,435.061 C1604.42,436.108 1605.09,436.78 1605.93,437.155 C1606.32,437.342 1606.79,437.436 1607.37,437.436 C1607.84,437.436 1608.4,437.342 1608.98,437.155 C1609.84,436.874 1610.5,436.499 1611.17,436.108 C1611.82,435.733 1612.31,435.358 1612.68,434.874 C1613.06,434.405 1613.36,433.921 1613.64,433.358 C1613.92,432.78 1614.11,432.405 1614.2,431.936 C1614.29,431.546 1614.29,431.171 1614.29,430.702 L1614.29,430.217 C1614.29,429.561 1614.29,428.889 1614.2,428.421 C1614.11,427.936 1613.92,427.374 1613.73,426.608 C1613.54,425.858 1613.36,425.28 1613.15,424.811 C1612.96,424.327 1612.87,423.671 1612.59,422.811 C1612.31,421.952 1612.01,421.389 1611.92,421.014 C1611.26,419.108 1610.12,415.311 1608.5,409.702 C1607.37,405.624 1606.42,402.202 1605.75,399.53 C1604.51,394.686 1603.46,390.702 1602.71,387.561 C1601.48,382.342 1600.53,378.827 1600.04,377.014 C1599.95,376.639 1599.86,376.077 1599.67,375.311 C1599.48,374.546 1599.39,373.889 1599.29,373.311 C1599.2,372.749 1598.9,372.171 1598.71,371.421 C1598.53,370.655 1598.34,369.889 1598.15,369.327 C1597.96,368.749 1597.57,368.092 1597.29,367.421 C1597.01,366.764 1596.62,366.28 1596.25,365.811 C1595.87,365.342 1595.59,364.952 1595.11,364.577 C1594.64,364.202 1594.15,363.811 1593.59,363.717 C1593.12,363.624 1592.64,363.53 1592.07,363.53 L1591.68,363.53 C1591.03,363.624 1590.26,363.717 1589.4,363.999 C1588.75,364.296 1587.98,364.671 1587.32,365.139 C1586.65,365.624 1586,365.999 1585.51,366.483 C1585.04,366.952 1584.56,367.624 1584.09,368.374 C1583.62,369.139 1583.14,369.702 1582.86,370.28 C1582.57,370.842 1582.18,371.608 1581.81,372.561 C1581.43,373.499 1581.04,374.264 1580.86,374.842 C1580.67,375.405 1580.48,376.171 1580.11,377.124 C1579.71,378.061 1579.43,378.733 1579.34,379.202 C1576.59,386.139 1573.82,392.702 1571.07,399.061 C1566.61,409.233 1563.95,415.405 1563.18,417.686 C1563.09,418.061 1562.71,418.733 1562.23,419.764 C1561.76,420.811 1561.2,421.764 1560.71,422.717 C1560.25,423.671 1559.76,424.905 1559.2,426.139 C1558.62,427.374 1558.15,428.608 1557.87,429.655 C1557.48,430.702 1557.29,431.639 1557.29,432.499 C1557.39,433.358 1557.59,433.921 1558.06,434.405 C1558.92,435.061 1559.86,435.452 1560.9,435.452 L1561.57,435.452 C1562.9,435.264 1564.23,434.874 1565.56,434.124 C1566.89,433.358 1567.84,432.499 1568.32,431.639 C1568.89,430.608 1569.46,429.374 1569.93,427.842 C1570.4,426.327 1570.89,424.905 1571.17,423.671 C1571.45,422.436 1571.84,421.108 1572.5,419.671 C1573.17,418.249 1573.92,417.108 1574.78,416.155 L1579.9,414.546 C1580.2,414.452 1580.57,414.546 1581.25,414.546 L1584,414.546 C1584.28,414.546 1585.7,414.639 1588.07,414.827"/>
<path class="Harmony" d="M2586.78,361.436 C2586.31,361.53 2585.55,361.624 2584.31,361.733 C2583.08,361.827 2582.12,362.014 2581.47,362.108 C2580.8,362.202 2579.84,362.296 2578.7,362.483 C2577.56,362.671 2576.72,362.967 2575.95,363.249 C2575.19,363.53 2574.34,363.905 2573.58,364.389 C2572.81,364.858 2572.16,365.342 2571.67,365.999 C2571.02,366.671 2570.53,367.421 2570.16,368.186 C2569.78,368.952 2569.5,369.889 2569.39,370.842 C2569.3,371.514 2569.3,372.171 2569.3,372.842 L2569.3,373.405 C2569.39,374.077 2569.39,375.03 2569.5,376.171 C2569.59,377.311 2569.59,378.249 2569.59,378.921 C2569.59,389.749 2569.87,400.389 2570.34,410.936 C2570.44,411.499 2570.44,412.077 2570.44,412.749 C2570.34,414.733 2570.25,417.389 2570.06,420.53 C2569.78,424.233 2569.59,426.999 2569.59,428.796 L2569.59,429.374 L2569.59,430.983 C2569.59,431.452 2569.78,431.936 2569.87,432.499 C2569.97,433.077 2570.16,433.546 2570.44,433.827 C2570.73,434.124 2571.02,434.405 2571.48,434.686 C2571.87,434.874 2572.34,434.967 2572.91,434.967 L2573.2,434.967 C2576.52,434.874 2579.84,434.217 2583.17,432.983 C2586.5,431.749 2589.64,430.217 2592.58,428.233 C2595.53,426.233 2598.28,423.858 2600.94,421.108 C2603.59,418.342 2605.87,415.499 2607.78,412.452 C2609.67,409.421 2611.3,406.28 2612.53,402.952 C2613.77,399.624 2614.42,396.311 2614.62,393.171 C2614.72,392.499 2614.72,391.749 2614.72,391.077 C2614.72,389.28 2614.53,387.374 2614.14,385.483 C2613.67,382.811 2612.91,380.155 2611.86,377.686 C2610.81,375.217 2609.48,372.936 2607.78,370.749 C2606.06,368.561 2604.17,366.764 2602.08,365.249 C2599.98,363.717 2597.7,362.577 2595.05,361.921 C2593.34,361.436 2591.53,361.249 2589.73,361.249 C2588.78,361.249 2587.83,361.342 2586.78,361.436 M2580.89,422.811 C2580.89,420.061 2580.98,416.061 2581.08,410.936 C2581.17,406.858 2581.27,402.952 2581.27,399.436 C2581.27,398.592 2581.17,397.733 2581.17,396.874 C2581.17,392.702 2581.08,388.608 2580.89,384.811 C2580.89,384.342 2580.8,383.483 2580.61,382.061 C2580.42,380.624 2580.14,379.296 2580.03,378.061 C2579.94,377.499 2579.94,376.921 2579.94,376.358 C2579.94,375.686 2579.94,375.124 2580.03,374.452 C2580.23,373.217 2580.61,372.264 2581.27,371.796 C2582.12,371.124 2583.08,370.842 2584.12,370.842 C2584.41,370.936 2584.69,370.936 2584.98,370.936 C2586.41,371.124 2587.92,371.608 2589.53,372.467 C2591.16,373.311 2592.67,374.452 2594.09,375.592 C2595.53,376.733 2596.86,377.874 2597.91,379.014 C2598.94,380.155 2599.8,381.014 2600.28,381.874 C2601.8,384.342 2602.84,387.092 2603.41,390.124 C2603.69,391.842 2603.89,393.546 2603.89,395.264 C2603.89,396.499 2603.78,397.733 2603.69,398.967 C2603.22,401.905 2602.36,404.764 2601.12,407.514 C2599.89,410.264 2598.28,412.749 2596.37,414.921 C2594.39,417.108 2592.11,418.827 2589.44,420.249 C2586.78,421.671 2583.94,422.53 2580.89,422.811"/>
<path class="Harmony" d="M208.533,679.409 C204.83,679.878 201.314,680.737 197.892,681.971 C194.47,683.206 191.33,684.909 188.298,686.909 C185.252,688.909 182.502,691.19 180.127,693.753 C177.752,696.315 175.752,699.253 174.048,702.581 C172.33,705.909 171.189,709.425 170.533,713.128 C170.048,715.409 169.861,717.784 169.861,720.159 L169.861,720.831 C169.861,723.096 169.955,725.284 170.236,727.471 C170.533,729.846 171.095,732.221 171.861,734.409 C172.72,736.69 173.658,738.878 174.705,740.862 C175.752,742.862 177.08,744.675 178.611,746.284 C180.127,747.893 182.017,749.221 183.923,750.362 C185.83,751.503 188.002,752.362 190.377,752.846 C192.002,753.128 193.611,753.315 195.236,753.315 C196.08,753.315 197.033,753.315 198.08,753.221 C201.017,752.94 203.783,752.268 206.345,751.315 C208.908,750.362 211.283,749.221 213.283,747.893 C215.267,746.565 217.267,744.862 219.08,742.956 C220.877,741.065 222.595,738.971 224.017,736.878 C225.439,734.784 226.767,732.409 228.189,729.753 C230.377,725.378 231.423,721.675 231.423,718.737 C231.423,715.784 230.377,713.503 228.189,711.893 C226.955,710.846 224.877,710.19 222.111,709.706 C220.127,709.425 218.127,709.237 216.127,709.237 L215.658,709.237 L213.564,709.237 C210.627,709.331 207.861,709.8 205.205,710.659 C202.548,711.518 200.736,712.565 199.783,713.8 C199.502,714.268 199.22,714.643 198.939,715.034 C198.267,716.081 197.892,717.018 197.892,717.878 C197.892,719.112 198.752,719.971 200.361,720.44 C201.689,720.831 204.252,721.018 207.955,721.018 L208.814,721.018 C210.048,721.112 211.002,721.112 211.658,721.112 C215.564,721.112 217.939,721.581 218.689,722.628 C218.986,723.003 219.267,723.581 219.267,724.143 C219.267,724.721 219.173,725.284 219.08,725.862 C218.986,726.425 218.689,727.096 218.408,727.846 C218.127,728.612 217.845,729.19 217.548,729.659 C217.267,730.128 216.986,730.8 216.611,731.565 C216.22,732.315 215.939,732.706 215.845,732.893 C215.377,733.737 215.08,734.409 214.798,734.878 C214.517,735.362 214.127,735.831 213.658,736.503 C213.189,737.159 212.611,737.737 212.142,738.112 C210.142,739.628 207.955,740.675 205.392,741.159 L202.158,741.534 L201.783,741.534 C200.548,741.44 199.22,741.346 197.986,741.065 C195.611,740.581 193.236,739.721 191.048,738.393 C188.861,737.065 186.97,735.456 185.533,733.55 C184.111,731.565 182.783,729.19 181.83,726.518 C180.877,723.862 180.314,721.112 180.127,718.159 C180.033,717.112 180.033,716.175 180.033,715.128 C180.033,713.221 180.127,711.331 180.408,709.518 C180.877,706.768 181.736,704.096 183.064,701.628 C184.392,699.159 186.111,697.175 188.205,695.643 C190.767,693.659 193.892,692.221 197.502,691.284 C199.502,690.706 201.502,690.425 203.392,690.425 C204.736,690.425 206.064,690.612 207.298,690.893 C208.345,691.19 209.377,691.565 210.627,692.128 C211.861,692.706 212.892,693.268 213.845,693.846 C214.798,694.409 215.845,694.987 216.892,695.55 C217.939,696.128 218.986,696.596 219.923,696.784 C220.877,696.971 221.83,697.081 222.783,696.971 C223.736,696.878 224.673,696.409 225.627,695.55 C226.58,694.706 227.439,693.565 228.283,692.128 C228.767,691.284 229.048,690.425 229.048,689.565 C229.048,688.909 228.861,688.331 228.58,687.675 C227.814,686.237 226.58,685.003 224.877,683.956 C223.158,682.925 221.361,681.971 219.267,681.206 C217.173,680.44 215.173,679.971 213.189,679.69 C211.752,679.409 210.627,679.315 209.673,679.315 C209.189,679.315 208.814,679.315 208.533,679.409"/>
<path class="Harmony" d="M912.725,679.409 C909.022,679.878 905.506,680.737 902.084,681.971 C898.663,683.206 895.522,684.909 892.491,686.909 C889.444,688.909 886.694,691.19 884.319,693.753 C881.944,696.315 879.944,699.253 878.241,702.581 C876.522,705.909 875.381,709.425 874.725,713.128 C874.241,715.409 874.053,717.784 874.053,720.159 L874.053,720.831 C874.053,723.096 874.147,725.284 874.428,727.471 C874.725,729.846 875.288,732.221 876.053,734.409 C876.913,736.69 877.85,738.878 878.897,740.862 C879.944,742.862 881.272,744.675 882.803,746.284 C884.319,747.893 886.209,749.221 888.116,750.362 C890.022,751.503 892.194,752.362 894.569,752.846 C896.194,753.128 897.803,753.315 899.428,753.315 C900.272,753.315 901.225,753.315 902.272,753.221 C905.209,752.94 907.975,752.268 910.538,751.315 C913.1,750.362 915.475,749.221 917.475,747.893 C919.459,746.565 921.459,744.862 923.272,742.956 C925.069,741.065 926.788,738.971 928.209,736.878 C929.631,734.784 930.959,732.409 932.381,729.753 C934.569,725.378 935.616,721.675 935.616,718.737 C935.616,715.784 934.569,713.503 932.381,711.893 C931.147,710.846 929.069,710.19 926.303,709.706 C924.319,709.425 922.319,709.237 920.319,709.237 L919.85,709.237 L917.756,709.237 C914.819,709.331 912.053,709.8 909.397,710.659 C906.741,711.518 904.928,712.565 903.975,713.8 C903.694,714.268 903.413,714.643 903.131,715.034 C902.459,716.081 902.084,717.018 902.084,717.878 C902.084,719.112 902.944,719.971 904.553,720.44 C905.881,720.831 908.444,721.018 912.147,721.018 L913.006,721.018 C914.241,721.112 915.194,721.112 915.85,721.112 C919.756,721.112 922.131,721.581 922.881,722.628 C923.178,723.003 923.459,723.581 923.459,724.143 C923.459,724.721 923.366,725.284 923.272,725.862 C923.178,726.425 922.881,727.096 922.6,727.846 C922.319,728.612 922.038,729.19 921.741,729.659 C921.459,730.128 921.178,730.8 920.803,731.565 C920.413,732.315 920.131,732.706 920.038,732.893 C919.569,733.737 919.272,734.409 918.991,734.878 C918.709,735.362 918.319,735.831 917.85,736.503 C917.381,737.159 916.803,737.737 916.334,738.112 C914.334,739.628 912.147,740.675 909.584,741.159 L906.35,741.534 L905.975,741.534 C904.741,741.44 903.413,741.346 902.178,741.065 C899.803,740.581 897.428,739.721 895.241,738.393 C893.053,737.065 891.163,735.456 889.725,733.55 C888.303,731.565 886.975,729.19 886.022,726.518 C885.069,723.862 884.506,721.112 884.319,718.159 C884.225,717.112 884.225,716.175 884.225,715.128 C884.225,713.221 884.319,711.331 884.6,709.518 C885.069,706.768 885.928,704.096 887.256,701.628 C888.584,699.159 890.303,697.175 892.397,695.643 C894.959,693.659 898.084,692.221 901.694,691.284 C903.694,690.706 905.694,690.425 907.584,690.425 C908.928,690.425 910.256,690.612 911.491,690.893 C912.538,691.19 913.569,691.565 914.819,692.128 C916.053,692.706 917.084,693.268 918.038,693.846 C918.991,694.409 920.038,694.987 921.084,695.55 C922.131,696.128 923.178,696.596 924.116,696.784 C925.069,696.971 926.022,697.081 926.975,696.971 C927.928,696.878 928.866,696.409 929.819,695.55 C930.772,694.706 931.631,693.565 932.475,692.128 C932.959,691.284 933.241,690.425 933.241,689.565 C933.241,688.909 933.053,688.331 932.772,687.675 C932.006,686.237 930.772,685.003 929.069,683.956 C927.35,682.925 925.553,681.971 923.459,681.206 C921.366,680.44 919.366,679.971 917.381,679.69 C915.944,679.409 914.819,679.315 913.866,679.315 C913.381,679.315 913.006,679.315 912.725,679.409"/>
<path class="Harmony" d="M1616.92,679.409 C1613.21,679.878 1609.7,680.737 1606.28,681.971 C1602.85,683.206 1599.71,684.909 1596.68,686.909 C1593.64,688.909 1590.89,691.19 1588.51,693.753 C1586.14,696.315 1584.14,699.253 1582.43,702.581 C1580.71,705.909 1579.57,709.425 1578.92,713.128 C1578.43,715.409 1578.25,717.784 1578.25,720.159 L1578.25,720.831 C1578.25,723.096 1578.34,725.284 1578.62,727.471 C1578.92,729.846 1579.48,732.221 1580.25,734.409 C1581.1,736.69 1582.04,738.878 1583.09,740.862 C1584.14,742.862 1585.46,744.675 1587,746.284 C1588.51,747.893 1590.4,749.221 1592.31,750.362 C1594.21,751.503 1596.39,752.362 1598.76,752.846 C1600.39,753.128 1602,753.315 1603.62,753.315 C1604.46,753.315 1605.42,753.315 1606.46,753.221 C1609.4,752.94 1612.17,752.268 1614.73,751.315 C1617.29,750.362 1619.67,749.221 1621.67,747.893 C1623.65,746.565 1625.65,744.862 1627.46,742.956 C1629.26,741.065 1630.98,738.971 1632.4,736.878 C1633.82,734.784 1635.15,732.409 1636.57,729.753 C1638.76,725.378 1639.81,721.675 1639.81,718.737 C1639.81,715.784 1638.76,713.503 1636.57,711.893 C1635.34,710.846 1633.26,710.19 1630.5,709.706 C1628.51,709.425 1626.51,709.237 1624.51,709.237 L1624.04,709.237 L1621.95,709.237 C1619.01,709.331 1616.25,709.8 1613.59,710.659 C1610.93,711.518 1609.12,712.565 1608.17,713.8 C1607.89,714.268 1607.6,714.643 1607.32,715.034 C1606.65,716.081 1606.28,717.018 1606.28,717.878 C1606.28,719.112 1607.14,719.971 1608.75,720.44 C1610.07,720.831 1612.64,721.018 1616.34,721.018 L1617.2,721.018 C1618.43,721.112 1619.39,721.112 1620.04,721.112 C1623.95,721.112 1626.32,721.581 1627.07,722.628 C1627.37,723.003 1627.65,723.581 1627.65,724.143 C1627.65,724.721 1627.56,725.284 1627.46,725.862 C1627.37,726.425 1627.07,727.096 1626.79,727.846 C1626.51,728.612 1626.23,729.19 1625.93,729.659 C1625.65,730.128 1625.37,730.8 1625,731.565 C1624.6,732.315 1624.32,732.706 1624.23,732.893 C1623.76,733.737 1623.46,734.409 1623.18,734.878 C1622.9,735.362 1622.51,735.831 1622.04,736.503 C1621.57,737.159 1621,737.737 1620.53,738.112 C1618.53,739.628 1616.34,740.675 1613.78,741.159 L1610.54,741.534 L1610.17,741.534 C1608.93,741.44 1607.6,741.346 1606.37,741.065 C1604,740.581 1601.62,739.721 1599.43,738.393 C1597.25,737.065 1595.35,735.456 1593.92,733.55 C1592.5,731.565 1591.17,729.19 1590.21,726.518 C1589.26,723.862 1588.7,721.112 1588.51,718.159 C1588.42,717.112 1588.42,716.175 1588.42,715.128 C1588.42,713.221 1588.51,711.331 1588.79,709.518 C1589.26,706.768 1590.12,704.096 1591.45,701.628 C1592.78,699.159 1594.5,697.175 1596.59,695.643 C1599.15,693.659 1602.28,692.221 1605.89,691.284 C1607.89,690.706 1609.89,690.425 1611.78,690.425 C1613.12,690.425 1614.45,690.612 1615.68,690.893 C1616.73,691.19 1617.76,691.565 1619.01,692.128 C1620.25,692.706 1621.28,693.268 1622.23,693.846 C1623.18,694.409 1624.23,694.987 1625.28,695.55 C1626.32,696.128 1627.37,696.596 1628.31,696.784 C1629.26,696.971 1630.21,697.081 1631.17,696.971 C1632.12,696.878 1633.06,696.409 1634.01,695.55 C1634.96,694.706 1635.82,693.565 1636.67,692.128 C1637.15,691.284 1637.43,690.425 1637.43,689.565 C1637.43,688.909 1637.25,688.331 1636.96,687.675 C1636.2,686.237 1634.96,685.003 1633.26,683.956 C1631.54,682.925 1629.75,681.971 1627.65,681.206 C1625.56,680.44 1623.56,679.971 1621.57,679.69 C1620.14,679.409 1619.01,679.315 1618.06,679.315 C1617.57,679.315 1617.2,679.315 1616.92,679.409"/>
<path class="Harmony" d="M2315.13,698.971 C2316.36,700.581 2317.2,702.768 2317.88,705.534 C2318.55,708.284 2319.02,710.94 2319.48,713.706 C2319.97,716.456 2320.25,719.018 2320.34,721.3 L2313.13,720.534 L2305.33,721.3 L2309.33,709.425 L2315.13,698.971 M2313.41,732.409 L2315.31,732.409 L2318.16,732.409 L2318.92,732.409 L2319.78,732.409 C2319.88,732.409 2320.16,732.503 2320.53,732.503 C2320.92,732.503 2321.2,732.503 2321.39,732.596 C2321.58,732.706 2321.77,732.8 2322.06,732.893 C2322.34,732.987 2322.53,733.081 2322.72,733.268 C2322.91,733.456 2323.2,733.55 2323.39,733.737 C2323.86,734.221 2324.33,735.175 2324.72,736.409 C2325.09,737.55 2325.47,738.784 2325.77,740.206 C2326.05,741.628 2326.33,743.05 2326.61,744.675 C2326.91,746.284 2327.28,747.706 2327.66,749.034 C2328.05,750.362 2328.61,751.596 2329.19,752.643 C2329.75,753.69 2330.42,754.362 2331.27,754.737 C2331.66,754.925 2332.13,755.018 2332.7,755.018 C2333.17,755.018 2333.73,754.925 2334.31,754.737 C2335.17,754.456 2335.83,754.081 2336.5,753.69 C2337.16,753.315 2337.64,752.94 2338.02,752.456 C2338.39,751.987 2338.69,751.503 2338.97,750.94 C2339.25,750.362 2339.44,749.987 2339.53,749.518 C2339.63,749.128 2339.63,748.753 2339.63,748.284 L2339.63,747.8 C2339.63,747.143 2339.63,746.471 2339.53,746.003 C2339.44,745.518 2339.25,744.956 2339.06,744.19 C2338.88,743.44 2338.69,742.862 2338.48,742.393 C2338.3,741.909 2338.2,741.253 2337.92,740.393 C2337.64,739.534 2337.34,738.971 2337.25,738.596 C2336.59,736.69 2335.45,732.893 2333.83,727.284 C2332.7,723.206 2331.75,719.784 2331.08,717.112 C2329.84,712.268 2328.8,708.284 2328.05,705.143 C2326.81,699.925 2325.86,696.409 2325.38,694.596 C2325.28,694.221 2325.19,693.659 2325,692.893 C2324.81,692.128 2324.72,691.471 2324.63,690.893 C2324.53,690.331 2324.23,689.753 2324.05,689.003 C2323.86,688.237 2323.67,687.471 2323.48,686.909 C2323.3,686.331 2322.91,685.675 2322.63,685.003 C2322.34,684.346 2321.95,683.862 2321.58,683.393 C2321.2,682.925 2320.92,682.534 2320.44,682.159 C2319.97,681.784 2319.48,681.393 2318.92,681.3 C2318.45,681.206 2317.97,681.112 2317.41,681.112 L2317.02,681.112 C2316.36,681.206 2315.59,681.3 2314.73,681.581 C2314.08,681.878 2313.31,682.253 2312.66,682.721 C2311.98,683.206 2311.33,683.581 2310.84,684.065 C2310.38,684.534 2309.89,685.206 2309.42,685.956 C2308.95,686.721 2308.47,687.284 2308.19,687.862 C2307.91,688.425 2307.52,689.19 2307.14,690.143 C2306.77,691.081 2306.38,691.846 2306.19,692.425 C2306,692.987 2305.81,693.753 2305.44,694.706 C2305.05,695.643 2304.77,696.315 2304.67,696.784 C2301.92,703.721 2299.16,710.284 2296.41,716.643 C2291.94,726.815 2289.28,732.987 2288.52,735.268 C2288.42,735.643 2288.05,736.315 2287.56,737.346 C2287.09,738.393 2286.53,739.346 2286.05,740.3 C2285.58,741.253 2285.09,742.487 2284.53,743.721 C2283.95,744.956 2283.48,746.19 2283.2,747.237 C2282.81,748.284 2282.63,749.221 2282.63,750.081 C2282.72,750.94 2282.92,751.503 2283.39,751.987 C2284.25,752.643 2285.19,753.034 2286.23,753.034 L2286.91,753.034 C2288.23,752.846 2289.56,752.456 2290.89,751.706 C2292.22,750.94 2293.17,750.081 2293.66,749.221 C2294.22,748.19 2294.8,746.956 2295.27,745.425 C2295.73,743.909 2296.22,742.487 2296.5,741.253 C2296.78,740.018 2297.17,738.69 2297.83,737.253 C2298.5,735.831 2299.25,734.69 2300.11,733.737 L2305.23,732.128 C2305.53,732.034 2305.91,732.128 2306.58,732.128 L2309.33,732.128 C2309.61,732.128 2311.03,732.221 2313.41,732.409"/>
<path class="Harmony" d="M208.533,989.448 C204.83,989.917 201.314,990.776 197.892,992.011 C194.47,993.245 191.33,994.948 188.298,996.948 C185.252,998.948 182.502,1001.23 180.127,1003.79 C177.752,1006.35 175.752,1009.29 174.048,1012.62 C172.33,1015.95 171.189,1019.46 170.533,1023.17 C170.048,1025.45 169.861,1027.82 169.861,1030.2 L169.861,1030.87 C169.861,1033.14 169.955,1035.32 170.236,1037.51 C170.533,1039.89 171.095,1042.26 171.861,1044.45 C172.72,1046.73 173.658,1048.92 174.705,1050.9 C175.752,1052.9 177.08,1054.71 178.611,1056.32 C180.127,1057.93 182.017,1059.26 183.923,1060.4 C185.83,1061.54 188.002,1062.4 190.377,1062.89 C192.002,1063.17 193.611,1063.35 195.236,1063.35 C196.08,1063.35 197.033,1063.35 198.08,1063.26 C201.017,1062.98 203.783,1062.31 206.345,1061.35 C208.908,1060.4 211.283,1059.26 213.283,1057.93 C215.267,1056.6 217.267,1054.9 219.08,1053 C220.877,1051.1 222.595,1049.01 224.017,1046.92 C225.439,1044.82 226.767,1042.45 228.189,1039.79 C230.377,1035.42 231.423,1031.71 231.423,1028.78 C231.423,1025.82 230.377,1023.54 228.189,1021.93 C226.955,1020.89 224.877,1020.23 222.111,1019.75 C220.127,1019.46 218.127,1019.28 216.127,1019.28 L215.658,1019.28 L213.564,1019.28 C210.627,1019.37 207.861,1019.84 205.205,1020.7 C202.548,1021.56 200.736,1022.6 199.783,1023.84 C199.502,1024.31 199.22,1024.68 198.939,1025.07 C198.267,1026.12 197.892,1027.06 197.892,1027.92 C197.892,1029.15 198.752,1030.01 200.361,1030.48 C201.689,1030.87 204.252,1031.06 207.955,1031.06 L208.814,1031.06 C210.048,1031.15 211.002,1031.15 211.658,1031.15 C215.564,1031.15 217.939,1031.62 218.689,1032.67 C218.986,1033.04 219.267,1033.62 219.267,1034.18 C219.267,1034.76 219.173,1035.32 219.08,1035.9 C218.986,1036.46 218.689,1037.14 218.408,1037.89 C218.127,1038.65 217.845,1039.23 217.548,1039.7 C217.267,1040.17 216.986,1040.84 216.611,1041.6 C216.22,1042.35 215.939,1042.75 215.845,1042.93 C215.377,1043.78 215.08,1044.45 214.798,1044.92 C214.517,1045.4 214.127,1045.87 213.658,1046.54 C213.189,1047.2 212.611,1047.78 212.142,1048.15 C210.142,1049.67 207.955,1050.71 205.392,1051.2 L202.158,1051.57 L201.783,1051.57 C200.548,1051.48 199.22,1051.39 197.986,1051.1 C195.611,1050.62 193.236,1049.76 191.048,1048.43 C188.861,1047.1 186.97,1045.5 185.533,1043.59 C184.111,1041.6 182.783,1039.23 181.83,1036.56 C180.877,1033.9 180.314,1031.15 180.127,1028.2 C180.033,1027.15 180.033,1026.21 180.033,1025.17 C180.033,1023.26 180.127,1021.37 180.408,1019.56 C180.877,1016.81 181.736,1014.14 183.064,1011.67 C184.392,1009.2 186.111,1007.21 188.205,1005.68 C190.767,1003.7 193.892,1002.26 197.502,1001.32 C199.502,1000.75 201.502,1000.46 203.392,1000.46 C204.736,1000.46 206.064,1000.65 207.298,1000.93 C208.345,1001.23 209.377,1001.6 210.627,1002.17 C211.861,1002.75 212.892,1003.31 213.845,1003.89 C214.798,1004.45 215.845,1005.03 216.892,1005.59 C217.939,1006.17 218.986,1006.64 219.923,1006.82 C220.877,1007.01 221.83,1007.12 222.783,1007.01 C223.736,1006.92 224.673,1006.45 225.627,1005.59 C226.58,1004.75 227.439,1003.6 228.283,1002.17 C228.767,1001.32 229.048,1000.46 229.048,999.605 C229.048,998.948 228.861,998.37 228.58,997.714 C227.814,996.276 226.58,995.042 224.877,993.995 C223.158,992.964 221.361,992.011 219.267,991.245 C217.173,990.48 215.173,990.011 213.189,989.73 C211.752,989.448 210.627,989.355 209.673,989.355 C209.189,989.355 208.814,989.355 208.533,989.448"/>
<path class="Harmony" d="M890.064,989.448 C886.36,989.917 882.845,990.776 879.423,992.011 C876.001,993.245 872.86,994.948 869.829,996.948 C866.782,998.948 864.032,1001.23 861.657,1003.79 C859.282,1006.35 857.282,1009.29 855.579,1012.62 C853.86,1015.95 852.72,1019.46 852.064,1023.17 C851.579,1025.45 851.392,1027.82 851.392,1030.2 L851.392,1030.87 C851.392,1033.14 851.485,1035.32 851.767,1037.51 C852.064,1039.89 852.626,1042.26 853.392,1044.45 C854.251,1046.73 855.189,1048.92 856.235,1050.9 C857.282,1052.9 858.61,1054.71 860.142,1056.32 C861.657,1057.93 863.548,1059.26 865.454,1060.4 C867.36,1061.54 869.532,1062.4 871.907,1062.89 C873.532,1063.17 875.142,1063.35 876.767,1063.35 C877.61,1063.35 878.564,1063.35 879.61,1063.26 C882.548,1062.98 885.314,1062.31 887.876,1061.35 C890.439,1060.4 892.814,1059.26 894.814,1057.93 C896.798,1056.6 898.798,1054.9 900.61,1053 C902.407,1051.1 904.126,1049.01 905.548,1046.92 C906.97,1044.82 908.298,1042.45 909.72,1039.79 C911.907,1035.42 912.954,1031.71 912.954,1028.78 C912.954,1025.82 911.907,1023.54 909.72,1021.93 C908.485,1020.89 906.407,1020.23 903.642,1019.75 C901.657,1019.46 899.657,1019.28 897.657,1019.28 L897.189,1019.28 L895.095,1019.28 C892.157,1019.37 889.392,1019.84 886.735,1020.7 C884.079,1021.56 882.267,1022.6 881.314,1023.84 C881.032,1024.31 880.751,1024.68 880.47,1025.07 C879.798,1026.12 879.423,1027.06 879.423,1027.92 C879.423,1029.15 880.282,1030.01 881.892,1030.48 C883.22,1030.87 885.782,1031.06 889.485,1031.06 L890.345,1031.06 C891.579,1031.15 892.532,1031.15 893.189,1031.15 C897.095,1031.15 899.47,1031.62 900.22,1032.67 C900.517,1033.04 900.798,1033.62 900.798,1034.18 C900.798,1034.76 900.704,1035.32 900.61,1035.9 C900.517,1036.46 900.22,1037.14 899.939,1037.89 C899.657,1038.65 899.376,1039.23 899.079,1039.7 C898.798,1040.17 898.517,1040.84 898.142,1041.6 C897.751,1042.35 897.47,1042.75 897.376,1042.93 C896.907,1043.78 896.61,1044.45 896.329,1044.92 C896.048,1045.4 895.657,1045.87 895.189,1046.54 C894.72,1047.2 894.142,1047.78 893.673,1048.15 C891.673,1049.67 889.485,1050.71 886.923,1051.2 L883.689,1051.57 L883.314,1051.57 C882.079,1051.48 880.751,1051.39 879.517,1051.1 C877.142,1050.62 874.767,1049.76 872.579,1048.43 C870.392,1047.1 868.501,1045.5 867.064,1043.59 C865.642,1041.6 864.314,1039.23 863.36,1036.56 C862.407,1033.9 861.845,1031.15 861.657,1028.2 C861.564,1027.15 861.564,1026.21 861.564,1025.17 C861.564,1023.26 861.657,1021.37 861.939,1019.56 C862.407,1016.81 863.267,1014.14 864.595,1011.67 C865.923,1009.2 867.642,1007.21 869.735,1005.68 C872.298,1003.7 875.423,1002.26 879.032,1001.32 C881.032,1000.75 883.032,1000.46 884.923,1000.46 C886.267,1000.46 887.595,1000.65 888.829,1000.93 C889.876,1001.23 890.907,1001.6 892.157,1002.17 C893.392,1002.75 894.423,1003.31 895.376,1003.89 C896.329,1004.45 897.376,1005.03 898.423,1005.59 C899.47,1006.17 900.517,1006.64 901.454,1006.82 C902.407,1007.01 903.36,1007.12 904.314,1007.01 C905.267,1006.92 906.204,1006.45 907.157,1005.59 C908.11,1004.75 908.97,1003.6 909.814,1002.17 C910.298,1001.32 910.579,1000.46 910.579,999.605 C910.579,998.948 910.392,998.37 910.11,997.714 C909.345,996.276 908.11,995.042 906.407,993.995 C904.689,992.964 902.892,992.011 900.798,991.245 C898.704,990.48 896.704,990.011 894.72,989.73 C893.282,989.448 892.157,989.355 891.204,989.355 C890.72,989.355 890.345,989.355 890.064,989.448"/>
<path class="Harmony" d="M1560.45,1018.6 C1560.45,1018.23 1560.36,1017.37 1560.26,1015.95 C1560.17,1014.53 1560.17,1013.2 1560.17,1011.96 L1560.17,1011.39 C1560.17,1010.34 1560.17,1009.2 1560.26,1007.96 C1560.36,1006.54 1560.64,1005.4 1560.92,1004.35 C1561.2,1003.31 1561.69,1002.56 1562.25,1002.17 C1562.92,1001.7 1563.78,1001.51 1564.81,1001.51 C1565.86,1001.51 1567.09,1001.7 1568.33,1001.89 C1569.56,1002.07 1570.51,1002.17 1571.09,1002.17 L1572.61,1002.17 C1574.22,1002.17 1576.31,1002.26 1578.78,1002.37 C1582.11,1002.56 1585.15,1002.65 1588.09,1002.65 L1589.14,1002.65 C1591.61,1002.65 1593.79,1002.46 1595.69,1002.07 C1596.94,1001.79 1597.87,1000.93 1598.54,999.511 C1599.2,998.089 1599.59,996.573 1599.59,994.948 C1599.59,993.245 1599.2,991.917 1598.45,991.058 C1597.97,990.589 1597.31,990.105 1596.36,989.917 C1595.4,989.73 1594.65,989.636 1593.89,989.636 C1593.12,989.636 1592.19,989.636 1590.94,989.73 C1589.7,989.823 1588.95,989.823 1588.67,989.823 C1586.95,989.823 1584.2,989.917 1580.4,990.011 C1577.64,990.105 1575.08,990.105 1572.79,990.105 L1570.33,990.105 C1567.39,990.011 1564.62,989.823 1562.06,989.542 C1561.29,989.448 1560.73,989.355 1560.45,989.355 C1560.17,989.355 1559.59,989.355 1558.73,989.245 C1558.26,989.151 1557.89,989.151 1557.5,989.151 L1556.65,989.151 C1556.08,989.245 1555.51,989.355 1554.84,989.448 C1554.17,989.542 1553.61,989.73 1553.14,990.011 C1552.65,990.292 1552.28,990.589 1552,991.058 C1551.42,992.011 1551.04,993.339 1550.76,994.948 C1550.47,996.37 1550.37,997.714 1550.37,998.948 L1550.37,999.417 C1550.37,1000.84 1550.47,1002.46 1550.56,1004.45 C1550.67,1006.45 1550.76,1007.78 1550.76,1008.45 L1550.76,1009.68 C1550.76,1013.2 1550.67,1018.7 1550.37,1026.12 C1550.19,1032.29 1550.09,1037.32 1550.09,1041.31 L1550.09,1045.21 L1550.09,1045.59 C1550.09,1046.45 1550,1047.59 1549.81,1048.92 C1549.53,1050.43 1549.33,1051.85 1549.14,1053.18 C1548.95,1054.42 1548.86,1055.76 1548.86,1057.09 L1548.86,1057.37 C1548.86,1058.79 1549.04,1059.93 1549.53,1060.89 C1549.81,1061.64 1550.37,1062.21 1551.04,1062.59 C1551.7,1062.98 1552.56,1063.17 1553.61,1063.26 L1554.94,1063.26 L1556.36,1063.26 C1557.22,1063.17 1558.26,1063.07 1559.31,1062.89 C1560.36,1062.68 1561.01,1062.68 1561.5,1062.68 L1590.94,1062.68 C1591.42,1062.68 1591.98,1062.68 1592.75,1062.78 C1593.51,1062.89 1594.17,1062.89 1594.65,1062.89 L1596.36,1062.89 C1597.03,1062.89 1597.59,1062.68 1598.06,1062.5 C1598.54,1062.31 1598.92,1062.21 1599.4,1061.93 C1599.87,1061.64 1600.15,1061.17 1600.54,1060.6 C1600.92,1060.03 1601.2,1059.46 1601.39,1058.79 C1601.58,1058.23 1601.69,1057.56 1601.69,1056.7 L1601.69,1056.14 C1601.69,1055.56 1601.69,1055 1601.58,1054.32 C1601.48,1053.57 1601.2,1052.81 1600.83,1052.14 C1600.44,1051.48 1599.97,1051.01 1599.31,1050.71 C1598.83,1050.53 1598.17,1050.34 1597.4,1050.34 C1596.64,1050.34 1595.89,1050.34 1595.22,1050.43 C1594.56,1050.53 1593.79,1050.62 1592.94,1050.71 C1592.08,1050.81 1591.42,1050.9 1590.94,1050.9 L1570.04,1050.9 C1569.76,1050.9 1569.19,1050.9 1568.23,1051.01 C1567.29,1051.1 1566.44,1051.1 1565.76,1051.1 C1565.11,1051.1 1564.34,1051.1 1563.48,1051.01 C1562.64,1050.9 1561.97,1050.71 1561.4,1050.43 C1560.83,1050.15 1560.45,1049.67 1560.26,1049.2 C1560.06,1048.34 1560.06,1047.5 1560.06,1046.92 C1560.06,1046.35 1560.17,1045.59 1560.26,1044.54 C1560.36,1043.5 1560.45,1042.84 1560.45,1042.35 C1560.36,1041.98 1560.26,1040.93 1560.17,1039.32 C1560.06,1038.28 1560.06,1037.42 1560.06,1036.56 L1560.06,1035.14 C1560.17,1033.9 1560.45,1033.04 1560.92,1032.39 C1561.29,1031.9 1561.87,1031.53 1562.73,1031.25 C1563.58,1030.96 1564.44,1030.87 1565.2,1030.87 C1565.95,1030.87 1566.81,1030.87 1567.95,1030.96 C1569.09,1031.06 1569.76,1031.06 1570.04,1031.06 C1575.65,1031.15 1581.44,1031.34 1587.53,1031.71 C1588,1031.71 1588.76,1031.81 1589.7,1031.9 C1590.65,1032 1591.42,1032.2 1592.08,1032.29 C1592.75,1032.39 1593.51,1032.39 1594.26,1032.29 C1595.03,1032.2 1595.79,1032.1 1596.45,1031.81 C1597.5,1031.43 1598.17,1030.39 1598.64,1028.78 C1598.92,1027.82 1599.01,1026.87 1599.01,1025.92 C1599.01,1025.17 1598.92,1024.4 1598.83,1023.75 C1598.54,1022.12 1597.87,1020.98 1596.94,1020.32 C1596.08,1019.75 1594.75,1019.37 1592.84,1019.09 C1591.61,1019 1590.28,1018.89 1589.04,1018.89 L1588.47,1018.89 L1587.23,1018.89 C1585.44,1018.89 1583.53,1019 1581.34,1019.09 C1580.01,1019.18 1578.87,1019.28 1578.03,1019.28 C1577.54,1019.18 1577.08,1019.18 1576.79,1019.18 C1576.12,1019.18 1573.75,1019.18 1569.67,1019.09 C1565.58,1019 1562.54,1018.89 1560.45,1018.6"/>
<path class="Harmony" d="M1606.29,1037.21 C1606.29,1041.34 1606.2,1044.17 1606.12,1045.54 C1606.04,1045.64 1605.97,1047.25 1605.89,1050.25 C1605.79,1050.98 1605.72,1052.68 1605.64,1055.51 C1605.64,1055.67 1605.48,1056.32 1605.15,1057.45 C1604.83,1058.59 1604.75,1059.23 1604.75,1059.64 L1604.75,1060.21 C1604.83,1061.01 1604.83,1061.67 1604.9,1062.23 C1605,1062.64 1605.39,1062.89 1606.2,1062.89 C1606.45,1062.89 1607.09,1062.71 1607.9,1062.31 C1608.72,1061.92 1609.53,1061.42 1610.5,1060.85 C1611.47,1060.29 1612.28,1059.73 1613.01,1059.23 C1613.73,1058.75 1614.06,1058.26 1614.14,1058.03 C1614.72,1056 1614.95,1053.89 1614.95,1051.62 L1614.95,1051.21 L1614.95,1049.92 C1614.87,1049.68 1614.87,1049.35 1614.87,1048.95 C1614.95,1047.82 1615.03,1046.12 1615.2,1043.93 C1615.36,1041.57 1615.84,1039.31 1616.65,1037.21 C1617.39,1035.18 1618.92,1033.48 1621.19,1032.18 L1621.76,1032.18 C1622,1032.18 1622.08,1032.18 1622.15,1032.1 C1622.25,1032.03 1622.4,1032.03 1622.48,1032.03 L1624.03,1032.03 C1624.59,1032.03 1625,1032.43 1625.15,1033.07 L1625.15,1036.64 L1625.15,1039.96 C1625.08,1041.18 1624.92,1042.71 1624.84,1044.5 C1624.75,1046.28 1624.67,1047.98 1624.59,1049.68 C1624.51,1051.39 1624.34,1052.84 1624.26,1054.06 L1624.11,1055.92 L1623.06,1056.96 L1623.06,1064.18 C1624.92,1064.18 1626.7,1063.93 1628.31,1063.53 C1629.94,1063.12 1631.48,1062.23 1633.01,1060.93 C1633.5,1057.29 1633.9,1053.48 1634.23,1049.51 C1634.56,1045.54 1634.79,1041.75 1634.97,1038.1 C1635.61,1037.6 1636.17,1037.04 1636.58,1036.31 C1636.98,1035.59 1637.39,1034.93 1637.87,1034.29 C1638.36,1033.64 1638.84,1033.15 1639.5,1032.67 C1640.14,1032.18 1640.95,1032.03 1642,1032.03 C1642.73,1032.03 1643.29,1032.18 1643.7,1032.67 C1644.11,1033.15 1644.36,1033.73 1644.51,1034.37 C1644.69,1035.03 1644.76,1035.67 1644.84,1036.4 C1644.92,1037.12 1644.92,1037.78 1644.92,1038.34 C1644.92,1042.56 1644.76,1046.76 1644.36,1050.9 C1643.95,1055.03 1643.79,1059.23 1643.79,1063.45 C1646.06,1063.45 1648,1062.96 1649.54,1062 C1651.08,1061.01 1652.53,1059.73 1653.83,1058.03 C1654.08,1056 1654.31,1054.21 1654.48,1052.59 C1654.64,1050.98 1654.72,1049.35 1654.79,1047.73 C1654.89,1046.12 1654.89,1044.5 1654.89,1042.96 L1654.89,1037.6 L1654.89,1035.75 C1654.89,1034.85 1654.89,1033.89 1654.79,1032.92 C1654.72,1031.95 1654.72,1030.96 1654.72,1030.07 L1654.72,1028.21 C1654.31,1026.43 1653.34,1025.14 1651.97,1024.32 C1650.59,1023.51 1649.04,1023.12 1647.51,1023.12 C1646.29,1023.12 1645.17,1023.43 1644.19,1023.92 C1643.22,1024.42 1642.5,1025.06 1641.76,1025.7 C1641.03,1026.35 1640.22,1027 1639.5,1027.48 C1638.76,1027.98 1637.95,1028.21 1637.06,1028.21 C1636.25,1028.21 1635.69,1027.98 1635.28,1027.32 C1634.87,1026.68 1634.56,1026.03 1634.15,1025.21 C1633.75,1024.42 1633.17,1023.76 1632.45,1023.12 C1631.72,1022.46 1630.5,1022.14 1628.97,1022.14 C1627.59,1022.14 1626.37,1022.46 1625.4,1023.12 C1624.44,1023.76 1623.37,1024.42 1622.48,1025.21 C1621.59,1026.03 1620.7,1026.68 1619.89,1027.32 C1619.09,1027.98 1618.19,1028.21 1617.14,1028.21 L1616.17,1028.21 C1616.17,1027.98 1616.09,1027.57 1616.01,1027 C1615.92,1026.43 1615.76,1025.79 1615.69,1025.21 C1615.51,1024.32 1615.69,1024.32 1615.51,1023.43 C1615.44,1022.87 1615.28,1022.46 1615.2,1022.31 C1615.2,1022.14 1615.03,1021.98 1614.79,1021.82 C1614.54,1021.65 1614.31,1021.42 1614.14,1021.34 L1614.06,1021.34 L1613.73,1021.25 C1613.09,1021.25 1612.44,1021.42 1611.72,1021.82 C1610.98,1022.23 1610.34,1022.79 1609.76,1023.43 C1609.2,1024.09 1608.64,1024.73 1608.15,1025.39 C1607.67,1026.03 1607.34,1026.68 1607.26,1027.25 C1607.19,1027.65 1607.09,1028.29 1606.94,1029.18 C1606.78,1030.07 1606.69,1031.14 1606.61,1032.18 C1606.53,1033.25 1606.45,1034.21 1606.37,1035.18 C1606.29,1036.15 1606.29,1036.81 1606.29,1037.21"/>
<path class="Harmony" d="M2279.38,1009.01 C2280.62,1010.62 2281.46,1012.81 2282.13,1015.57 C2282.81,1018.32 2283.28,1020.98 2283.74,1023.75 C2284.23,1026.5 2284.51,1029.06 2284.6,1031.34 L2277.38,1030.57 L2269.59,1031.34 L2273.59,1019.46 L2279.38,1009.01 M2277.67,1042.45 L2279.57,1042.45 L2282.42,1042.45 L2283.18,1042.45 L2284.04,1042.45 C2284.13,1042.45 2284.42,1042.54 2284.79,1042.54 C2285.18,1042.54 2285.46,1042.54 2285.65,1042.64 C2285.84,1042.75 2286.03,1042.84 2286.32,1042.93 C2286.6,1043.03 2286.79,1043.12 2286.98,1043.31 C2287.17,1043.5 2287.46,1043.59 2287.65,1043.78 C2288.12,1044.26 2288.59,1045.21 2288.98,1046.45 C2289.35,1047.59 2289.73,1048.82 2290.03,1050.25 C2290.31,1051.67 2290.59,1053.09 2290.87,1054.71 C2291.17,1056.32 2291.54,1057.75 2291.92,1059.07 C2292.31,1060.4 2292.87,1061.64 2293.45,1062.68 C2294.01,1063.73 2294.68,1064.4 2295.53,1064.78 C2295.92,1064.96 2296.38,1065.06 2296.96,1065.06 C2297.43,1065.06 2297.99,1064.96 2298.57,1064.78 C2299.43,1064.5 2300.09,1064.12 2300.76,1063.73 C2301.42,1063.35 2301.9,1062.98 2302.28,1062.5 C2302.65,1062.03 2302.95,1061.54 2303.23,1060.98 C2303.51,1060.4 2303.7,1060.03 2303.79,1059.56 C2303.88,1059.17 2303.88,1058.79 2303.88,1058.32 L2303.88,1057.84 C2303.88,1057.18 2303.88,1056.51 2303.79,1056.04 C2303.7,1055.56 2303.51,1055 2303.32,1054.23 C2303.13,1053.48 2302.95,1052.9 2302.74,1052.43 C2302.56,1051.95 2302.46,1051.29 2302.18,1050.43 C2301.9,1049.57 2301.6,1049.01 2301.51,1048.64 C2300.85,1046.73 2299.71,1042.93 2298.09,1037.32 C2296.96,1033.25 2296.01,1029.82 2295.34,1027.15 C2294.1,1022.31 2293.06,1018.32 2292.31,1015.18 C2291.07,1009.96 2290.12,1006.45 2289.63,1004.64 C2289.54,1004.26 2289.45,1003.7 2289.26,1002.93 C2289.07,1002.17 2288.98,1001.51 2288.88,1000.93 C2288.79,1000.37 2288.49,999.792 2288.31,999.042 C2288.12,998.276 2287.93,997.511 2287.74,996.948 C2287.56,996.37 2287.17,995.714 2286.88,995.042 C2286.6,994.386 2286.21,993.901 2285.84,993.433 C2285.46,992.964 2285.18,992.573 2284.7,992.198 C2284.23,991.823 2283.74,991.433 2283.18,991.339 C2282.71,991.245 2282.23,991.151 2281.67,991.151 L2281.28,991.151 C2280.62,991.245 2279.85,991.339 2278.99,991.62 C2278.34,991.917 2277.57,992.292 2276.92,992.761 C2276.24,993.245 2275.59,993.62 2275.1,994.105 C2274.63,994.573 2274.15,995.245 2273.68,995.995 C2273.21,996.761 2272.73,997.323 2272.45,997.901 C2272.17,998.464 2271.78,999.23 2271.4,1000.18 C2271.03,1001.12 2270.63,1001.89 2270.45,1002.46 C2270.26,1003.03 2270.07,1003.79 2269.7,1004.75 C2269.31,1005.68 2269.03,1006.35 2268.93,1006.82 C2266.18,1013.76 2263.42,1020.32 2260.67,1026.68 C2256.2,1036.85 2253.54,1043.03 2252.78,1045.31 C2252.68,1045.68 2252.31,1046.35 2251.82,1047.39 C2251.35,1048.43 2250.79,1049.39 2250.31,1050.34 C2249.84,1051.29 2249.35,1052.53 2248.79,1053.76 C2248.21,1055 2247.74,1056.23 2247.46,1057.28 C2247.07,1058.32 2246.88,1059.26 2246.88,1060.12 C2246.98,1060.98 2247.18,1061.54 2247.65,1062.03 C2248.51,1062.68 2249.45,1063.07 2250.49,1063.07 L2251.17,1063.07 C2252.49,1062.89 2253.82,1062.5 2255.15,1061.75 C2256.48,1060.98 2257.43,1060.12 2257.92,1059.26 C2258.48,1058.23 2259.06,1057 2259.53,1055.46 C2259.99,1053.95 2260.48,1052.53 2260.76,1051.29 C2261.04,1050.06 2261.43,1048.73 2262.09,1047.29 C2262.76,1045.87 2263.51,1044.73 2264.37,1043.78 L2269.49,1042.17 C2269.79,1042.07 2270.17,1042.17 2270.84,1042.17 L2273.59,1042.17 C2273.87,1042.17 2275.29,1042.26 2277.67,1042.45"/>
</svg>
