<?xml version="1.0" encoding="UTF-8" standalone="no"?>
<svg width="2976.38px" height="1417.32px" viewBox="0 0 2976.38 1417.32"
 xmlns="http://www.w3.org/2000/svg" xmlns:xlink="http://www.w3.org/1999/xlink" version="1.2" baseProfile="tiny">
<title>Girl_I_Left_Behind_Me_G</title>
<desc>Generated by MuseScore 3.6.2</desc>
<polyline class="StaffLines" fill="none" stroke="#000000" stroke-width="2.73" stroke-linejoin="bevel" points="138.189,187.795 2933.86,187.795"/>
<polyline class="StaffLines" fill="none" stroke="#000000" stroke-width="2.73" stroke-linejoin="bevel" points="138.189,212.598 2933.86,212.598"/>
<polyline class="StaffLines" fill="none" stroke="#000000" stroke-width="2.73" stroke-linejoin="bevel" points="138.189,237.402 2933.86,237.402"/>
<polyline class="StaffLines" fill="none" stroke="#000000" stroke-width="2.73" stroke-linejoin="bevel" points="138.189,262.205 2933.86,262.205"/>
<polyline class="StaffLines" fill="none" stroke="#000000" stroke-width="2.73" stroke-linejoin="bevel" points="138.189,287.008 2933.86,287.008"/>
<polyline class="StaffLines" fill="none" stroke="#000000" stroke-width="2.73" stroke-linejoin="bevel" points="14.1732,497.835 2933.86,497.835"/>
<polyline class="StaffLines" fill="none" stroke="#000000" stroke-width="2.73" stroke-linejoin="bevel" points="14.1732,522.638 2933.86,522.638"/>
<polyline class="StaffLines" fill="none" stroke="#000000" stroke-width="2.73" stroke-linejoin="bevel" points="14.1732,547.441 2933.86,547.441"/>
<polyline class="StaffLines" fill="none" stroke="#000000" stroke-width="2.73" stroke-linejoin="bevel" points="14.1732,572.244 2933.86,572.244"/>
<polyline class="StaffLines" fill="none" stroke="#000000" stroke-width="2.73" stroke-linejoin="bevel" points="14.1732,597.047 2933.86,597.047"/>
<polyline class="StaffLines" fill="none" stroke="#000000" stroke-width="2.73" stroke-linejoin="bevel" points="14.1732,815.417 2933.86,815.417"/>
<polyline class="StaffLines" fill="none" stroke="#000000" stroke-width="2.73" stroke-linejoin="bevel" points="14.1732,840.22 2933.86,840.22"/>
<polyline class="StaffLines" fill="none" stroke="#000000" stroke-width="2.73" stroke-linejoin="bevel" points="14.1732,865.023 2933.86,865.023"/>
<polyline class="StaffLines" fill="none" stroke="#000000" stroke-width="2.73" stroke-linejoin="bevel" points="14.1732,889.826 2933.86,889.826"/>
<polyline class="StaffLines" fill="none" stroke="#000000" stroke-width="2.73" stroke-linejoin="bevel" points="14.1732,914.629 2933.86,914.629"/>
<polyline class="StaffLines" fill="none" stroke="#000000" stroke-width="2.73" stroke-linejoin="bevel" points="14.1732,1125.46 2933.86,1125.46"/>
<polyline class="StaffLines" fill="none" stroke="#000000" stroke-width="2.73" stroke-linejoin="bevel" points="14.1732,1150.26 2933.86,1150.26"/>
<polyline class="StaffLines" fill="none" stroke="#000000" stroke-width="2.73" stroke-linejoin="bevel" points="14.1732,1175.06 2933.86,1175.06"/>
<polyline class="StaffLines" fill="none" stroke="#000000" stroke-width="2.73" stroke-linejoin="bevel" points="14.1732,1199.87 2933.86,1199.87"/>
<polyline class="StaffLines" fill="none" stroke="#000000" stroke-width="2.73" stroke-linejoin="bevel" points="14.1732,1224.67 2933.86,1224.67"/>
<polyline class="BarLine" fill="none" stroke="#000000" stroke-width="4.46" stroke-linejoin="bevel" points="953.226,186.431 953.226,288.372"/>
<polyline class="BarLine" fill="none" stroke="#000000" stroke-width="4.46" stroke-linejoin="bevel" points="1612.69,186.431 1612.69,288.372"/>
<polyline class="BarLine" fill="none" stroke="#000000" stroke-width="4.46" stroke-linejoin="bevel" points="2272.16,186.431 2272.16,288.372"/>
<polyline class="BarLine" fill="none" stroke="#000000" stroke-width="4.46" stroke-linejoin="bevel" points="2931.63,186.431 2931.63,288.372"/>
<polyline class="BarLine" fill="none" stroke="#000000" stroke-width="4.46" stroke-linejoin="bevel" points="808.481,496.47 808.481,598.411"/>
<polyline class="BarLine" fill="none" stroke="#000000" stroke-width="4.46" stroke-linejoin="bevel" points="1502.1,496.47 1502.1,598.411"/>
<polyline class="BarLine" fill="none" stroke="#000000" stroke-width="4.46" stroke-linejoin="bevel" points="2195.73,496.47 2195.73,598.411"/>
<path class="BarLine" transform="matrix(0.992126,0,0,0.992126,2887.12,535.039)" d="M10.4063,0 C10.4063,-2.90625 8.09375,-5.29688 5.20313,-5.29688 C2.29688,-5.29688 0,-2.90625 0,0 C0,2.90625 2.29688,5.29688 5.20313,5.29688 C8.09375,5.29688 10.4063,2.90625 10.4063,0"/>
<path class="BarLine" transform="matrix(0.992126,0,0,0.992126,2887.12,559.843)" d="M10.4063,0 C10.4063,-2.90625 8.09375,-5.29688 5.20313,-5.29688 C2.29688,-5.29688 0,-2.90625 0,0 C0,2.90625 2.29688,5.29688 5.20313,5.29688 C8.09375,5.29688 10.4063,2.90625 10.4063,0"/>
<polyline class="BarLine" fill="none" stroke="#000000" stroke-width="4.46" stroke-linejoin="bevel" points="2909.64,496.47 2909.64,598.411"/>
<polyline class="BarLine" fill="none" stroke="#000000" stroke-width="13.64" stroke-linejoin="bevel" points="2927,496.47 2927,598.411"/>
<polyline class="BarLine" fill="none" stroke="#000000" stroke-width="4.46" stroke-linejoin="bevel" points="819.051,814.053 819.051,915.994"/>
<polyline class="BarLine" fill="none" stroke="#000000" stroke-width="4.46" stroke-linejoin="bevel" points="1523.24,814.053 1523.24,915.994"/>
<polyline class="BarLine" fill="none" stroke="#000000" stroke-width="4.46" stroke-linejoin="bevel" points="2227.44,814.053 2227.44,915.994"/>
<polyline class="BarLine" fill="none" stroke="#000000" stroke-width="4.46" stroke-linejoin="bevel" points="2931.63,814.053 2931.63,915.994"/>
<polyline class="BarLine" fill="none" stroke="#000000" stroke-width="4.46" stroke-linejoin="bevel" points="812.511,1124.09 812.511,1226.03"/>
<polyline class="BarLine" fill="none" stroke="#000000" stroke-width="4.46" stroke-linejoin="bevel" points="1494.04,1124.09 1494.04,1226.03"/>
<polyline class="BarLine" fill="none" stroke="#000000" stroke-width="4.46" stroke-linejoin="bevel" points="2191.69,1124.09 2191.69,1226.03"/>
<path class="BarLine" transform="matrix(0.992126,0,0,0.992126,2887.12,1162.66)" d="M10.4063,0 C10.4063,-2.90625 8.09375,-5.29688 5.20313,-5.29688 C2.29688,-5.29688 0,-2.90625 0,0 C0,2.90625 2.29688,5.29688 5.20313,5.29688 C8.09375,5.29688 10.4063,2.90625 10.4063,0"/>
<path class="BarLine" transform="matrix(0.992126,0,0,0.992126,2887.12,1187.46)" d="M10.4063,0 C10.4063,-2.90625 8.09375,-5.29688 5.20313,-5.29688 C2.29688,-5.29688 0,-2.90625 0,0 C0,2.90625 2.29688,5.29688 5.20313,5.29688 C8.09375,5.29688 10.4063,2.90625 10.4063,0"/>
<polyline class="BarLine" fill="none" stroke="#000000" stroke-width="4.46" stroke-linejoin="bevel" points="2909.64,1124.09 2909.64,1226.03"/>
<polyline class="BarLine" fill="none" stroke="#000000" stroke-width="13.64" stroke-linejoin="bevel" points="2927,1124.09 2927,1226.03"/>
<path class="Note" transform="matrix(0.992126,0,0,0.992126,338.405,237.402)" d="M43,-25 L0,25 L10,25 L53,-25 L43,-25 "/>
<path class="Note" transform="matrix(0.992126,0,0,0.992126,489.01,237.402)" d="M43,-25 L0,25 L10,25 L53,-25 L43,-25 "/>
<path class="Note" transform="matrix(0.992126,0,0,0.992126,639.615,237.402)" d="M43,-25 L0,25 L10,25 L53,-25 L43,-25 "/>
<path class="Note" transform="matrix(0.992126,0,0,0.992126,790.22,237.402)" d="M43,-25 L0,25 L10,25 L53,-25 L43,-25 "/>
<path class="Note" transform="matrix(0.992126,0,0,0.992126,997.872,237.402)" d="M43,-25 L0,25 L10,25 L53,-25 L43,-25 "/>
<path class="Note" transform="matrix(0.992126,0,0,0.992126,1148.48,237.402)" d="M43,-25 L0,25 L10,25 L53,-25 L43,-25 "/>
<path class="Note" transform="matrix(0.992126,0,0,0.992126,1299.08,237.402)" d="M43,-25 L0,25 L10,25 L53,-25 L43,-25 "/>
<path class="Note" transform="matrix(0.992126,0,0,0.992126,1449.69,237.402)" d="M43,-25 L0,25 L10,25 L53,-25 L43,-25 "/>
<path class="Note" transform="matrix(0.992126,0,0,0.992126,1657.34,237.402)" d="M43,-25 L0,25 L10,25 L53,-25 L43,-25 "/>
<path class="Note" transform="matrix(0.992126,0,0,0.992126,1807.94,237.402)" d="M43,-25 L0,25 L10,25 L53,-25 L43,-25 "/>
<path class="Note" transform="matrix(0.992126,0,0,0.992126,1958.55,237.402)" d="M43,-25 L0,25 L10,25 L53,-25 L43,-25 "/>
<path class="Note" transform="matrix(0.992126,0,0,0.992126,2109.15,237.402)" d="M43,-25 L0,25 L10,25 L53,-25 L43,-25 "/>
<path class="Note" transform="matrix(0.992126,0,0,0.992126,2316.81,237.402)" d="M43,-25 L0,25 L10,25 L53,-25 L43,-25 "/>
<path class="Note" transform="matrix(0.992126,0,0,0.992126,2467.41,237.402)" d="M43,-25 L0,25 L10,25 L53,-25 L43,-25 "/>
<path class="Note" transform="matrix(0.992126,0,0,0.992126,2618.02,237.402)" d="M43,-25 L0,25 L10,25 L53,-25 L43,-25 "/>
<path class="Note" transform="matrix(0.992126,0,0,0.992126,2768.62,237.402)" d="M43,-25 L0,25 L10,25 L53,-25 L43,-25 "/>
<path class="Note" transform="matrix(0.992126,0,0,0.992126,159.504,547.441)" d="M43,-25 L0,25 L10,25 L53,-25 L43,-25 "/>
<path class="Note" transform="matrix(0.992126,0,0,0.992126,318.648,547.441)" d="M43,-25 L0,25 L10,25 L53,-25 L43,-25 "/>
<path class="Note" transform="matrix(0.992126,0,0,0.992126,477.792,547.441)" d="M43,-25 L0,25 L10,25 L53,-25 L43,-25 "/>
<path class="Note" transform="matrix(0.992126,0,0,0.992126,636.935,547.441)" d="M43,-25 L0,25 L10,25 L53,-25 L43,-25 "/>
<path class="Note" transform="matrix(0.992126,0,0,0.992126,853.126,547.441)" d="M43,-25 L0,25 L10,25 L53,-25 L43,-25 "/>
<path class="Note" transform="matrix(0.992126,0,0,0.992126,1012.27,547.441)" d="M43,-25 L0,25 L10,25 L53,-25 L43,-25 "/>
<path class="Note" transform="matrix(0.992126,0,0,0.992126,1171.41,547.441)" d="M43,-25 L0,25 L10,25 L53,-25 L43,-25 "/>
<path class="Note" transform="matrix(0.992126,0,0,0.992126,1330.56,547.441)" d="M43,-25 L0,25 L10,25 L53,-25 L43,-25 "/>
<path class="Note" transform="matrix(0.992126,0,0,0.992126,1546.75,547.441)" d="M43,-25 L0,25 L10,25 L53,-25 L43,-25 "/>
<path class="Note" transform="matrix(0.992126,0,0,0.992126,1705.89,547.441)" d="M43,-25 L0,25 L10,25 L53,-25 L43,-25 "/>
<path class="Note" transform="matrix(0.992126,0,0,0.992126,1865.04,547.441)" d="M43,-25 L0,25 L10,25 L53,-25 L43,-25 "/>
<path class="Note" transform="matrix(0.992126,0,0,0.992126,2024.18,547.441)" d="M43,-25 L0,25 L10,25 L53,-25 L43,-25 "/>
<path class="Note" transform="matrix(0.992126,0,0,0.992126,2240.37,547.441)" d="M43,-25 L0,25 L10,25 L53,-25 L43,-25 "/>
<path class="Note" transform="matrix(0.992126,0,0,0.992126,2399.51,547.441)" d="M43,-25 L0,25 L10,25 L53,-25 L43,-25 "/>
<path class="Note" transform="matrix(0.992126,0,0,0.992126,2558.66,547.441)" d="M43,-25 L0,25 L10,25 L53,-25 L43,-25 "/>
<path class="Note" transform="matrix(0.992126,0,0,0.992126,2717.8,547.441)" d="M43,-25 L0,25 L10,25 L53,-25 L43,-25 "/>
<path class="Note" transform="matrix(0.992126,0,0,0.992126,159.504,865.023)" d="M43,-25 L0,25 L10,25 L53,-25 L43,-25 "/>
<path class="Note" transform="matrix(0.992126,0,0,0.992126,321.29,865.023)" d="M43,-25 L0,25 L10,25 L53,-25 L43,-25 "/>
<path class="Note" transform="matrix(0.992126,0,0,0.992126,483.077,865.023)" d="M43,-25 L0,25 L10,25 L53,-25 L43,-25 "/>
<path class="Note" transform="matrix(0.992126,0,0,0.992126,644.863,865.023)" d="M43,-25 L0,25 L10,25 L53,-25 L43,-25 "/>
<path class="Note" transform="matrix(0.992126,0,0,0.992126,863.696,865.023)" d="M43,-25 L0,25 L10,25 L53,-25 L43,-25 "/>
<path class="Note" transform="matrix(0.992126,0,0,0.992126,1025.48,865.023)" d="M43,-25 L0,25 L10,25 L53,-25 L43,-25 "/>
<path class="Note" transform="matrix(0.992126,0,0,0.992126,1187.27,865.023)" d="M43,-25 L0,25 L10,25 L53,-25 L43,-25 "/>
<path class="Note" transform="matrix(0.992126,0,0,0.992126,1349.06,865.023)" d="M43,-25 L0,25 L10,25 L53,-25 L43,-25 "/>
<path class="Note" transform="matrix(0.992126,0,0,0.992126,1567.89,865.023)" d="M43,-25 L0,25 L10,25 L53,-25 L43,-25 "/>
<path class="Note" transform="matrix(0.992126,0,0,0.992126,1729.67,865.023)" d="M43,-25 L0,25 L10,25 L53,-25 L43,-25 "/>
<path class="Note" transform="matrix(0.992126,0,0,0.992126,1891.46,865.023)" d="M43,-25 L0,25 L10,25 L53,-25 L43,-25 "/>
<path class="Note" transform="matrix(0.992126,0,0,0.992126,2053.25,865.023)" d="M43,-25 L0,25 L10,25 L53,-25 L43,-25 "/>
<path class="Note" transform="matrix(0.992126,0,0,0.992126,2272.08,865.023)" d="M43,-25 L0,25 L10,25 L53,-25 L43,-25 "/>
<path class="Note" transform="matrix(0.992126,0,0,0.992126,2433.87,865.023)" d="M43,-25 L0,25 L10,25 L53,-25 L43,-25 "/>
<path class="Note" transform="matrix(0.992126,0,0,0.992126,2595.65,865.023)" d="M43,-25 L0,25 L10,25 L53,-25 L43,-25 "/>
<path class="Note" transform="matrix(0.992126,0,0,0.992126,2757.44,865.023)" d="M43,-25 L0,25 L10,25 L53,-25 L43,-25 "/>
<path class="Note" transform="matrix(0.992126,0,0,0.992126,159.504,1175.06)" d="M43,-25 L0,25 L10,25 L53,-25 L43,-25 "/>
<path class="Note" transform="matrix(0.992126,0,0,0.992126,319.656,1175.06)" d="M43,-25 L0,25 L10,25 L53,-25 L43,-25 "/>
<path class="Note" transform="matrix(0.992126,0,0,0.992126,479.807,1175.06)" d="M43,-25 L0,25 L10,25 L53,-25 L43,-25 "/>
<path class="Note" transform="matrix(0.992126,0,0,0.992126,639.958,1175.06)" d="M43,-25 L0,25 L10,25 L53,-25 L43,-25 "/>
<path class="Note" transform="matrix(0.992126,0,0,0.992126,841.035,1175.06)" d="M43,-25 L0,25 L10,25 L53,-25 L43,-25 "/>
<path class="Note" transform="matrix(0.992126,0,0,0.992126,1001.19,1175.06)" d="M43,-25 L0,25 L10,25 L53,-25 L43,-25 "/>
<path class="Note" transform="matrix(0.992126,0,0,0.992126,1161.34,1175.06)" d="M43,-25 L0,25 L10,25 L53,-25 L43,-25 "/>
<path class="Note" transform="matrix(0.992126,0,0,0.992126,1321.49,1175.06)" d="M43,-25 L0,25 L10,25 L53,-25 L43,-25 "/>
<path class="Note" transform="matrix(0.992126,0,0,0.992126,1538.69,1175.06)" d="M43,-25 L0,25 L10,25 L53,-25 L43,-25 "/>
<path class="Note" transform="matrix(0.992126,0,0,0.992126,1698.84,1175.06)" d="M43,-25 L0,25 L10,25 L53,-25 L43,-25 "/>
<path class="Note" transform="matrix(0.992126,0,0,0.992126,1858.99,1175.06)" d="M43,-25 L0,25 L10,25 L53,-25 L43,-25 "/>
<path class="Note" transform="matrix(0.992126,0,0,0.992126,2019.14,1175.06)" d="M43,-25 L0,25 L10,25 L53,-25 L43,-25 "/>
<path class="Note" transform="matrix(0.992126,0,0,0.992126,2236.34,1175.06)" d="M43,-25 L0,25 L10,25 L53,-25 L43,-25 "/>
<path class="Note" transform="matrix(0.992126,0,0,0.992126,2396.49,1175.06)" d="M43,-25 L0,25 L10,25 L53,-25 L43,-25 "/>
<path class="Note" transform="matrix(0.992126,0,0,0.992126,2556.64,1175.06)" d="M43,-25 L0,25 L10,25 L53,-25 L43,-25 "/>
<path class="Note" transform="matrix(0.992126,0,0,0.992126,2716.79,1175.06)" d="M43,-25 L0,25 L10,25 L53,-25 L43,-25 "/>
<path class="Clef" transform="matrix(0.992126,0,0,0.992126,158.032,262.205)" d="M63.3594,-5.92188 C62.125,-11.3438 59.4844,-15.1719 58.7031,-16.2031 C55.5156,-20.4844 51.5,-23.3281 46.8125,-24.6875 C43.7031,-25.5625 40.7031,-25.6875 38.2813,-25.5 C37.2344,-31.5156 36.2344,-37.3906 35.3281,-42.8438 C40.7813,-49.0156 44.4063,-54.8125 46.6875,-59.1094 C50.1563,-65.6875 51.2969,-70.2656 51.3594,-70.4688 C53.0781,-75.6875 53.4375,-83.3906 52.3281,-91.5938 C51.3281,-99.1406 49.2344,-105.859 46.875,-109.109 C45.8594,-110.531 44.7969,-111.266 43.7656,-111.266 C42.5469,-111.266 40.0313,-110.031 37.1406,-107.25 C34.8438,-105.063 31.5781,-101.172 29.0156,-95.1563 C26.0156,-88.0938 25.7969,-78.6094 26.1563,-71.8906 C26.5313,-64.6094 27.6406,-58.9219 27.6563,-58.875 C27.6719,-58.7813 27.9375,-57.2813 28.375,-54.7188 C28.1563,-54.4844 27.9063,-54.2656 27.6563,-54.0156 C26.625,-53.0156 25.4375,-51.8906 24.0469,-50.5 C23.1875,-49.6406 22.2344,-48.7344 21.2344,-47.7656 C12.7969,-39.625 0,-27.2969 0,-8.14063 C0,-3.4375 0.90625,0.984375 2.6875,5 C4.26563,8.59375 6.5625,11.875 9.5,14.75 C17.2344,22.3125 27.8281,25.5156 34.875,25.3594 C37.8281,25.2813 40.4688,25.0469 42.8594,24.5938 C44.6875,34.2031 45.8281,41.2344 45.8594,46.5781 C45.9063,53.0938 44.25,57.0781 40.3594,59.8438 C37.9219,61.5781 35.1094,62.5313 32.0156,62.6719 C29.4219,62.7969 27.1563,62.3281 25.7344,61.9219 L25.7188,61.9219 C25.7188,61.9219 25.4375,61.8281 25.4219,61.6406 C25.4063,61.4531 25.7656,61.4063 25.7656,61.4063 L25.7969,61.4063 C27.7188,60.9688 31.2813,59.7344 33.6406,56.4375 C35.4375,53.9063 36.3125,49.2813 34.4688,45.3438 C33.3594,42.9531 30.8594,40 25.2344,39.5469 C22.7344,39.3438 20.4688,39.8594 18.4688,41.0625 C16.6563,42.1406 15.1563,43.7813 14.1094,45.7813 C11.6563,50.4844 12.1094,56.2188 15.2344,60.0625 C18.2031,63.6875 22.8125,66 28.25,66.5781 C29.1094,66.6719 29.9531,66.7031 30.7969,66.7031 C35.2344,66.7031 39.625,65.5 43.2031,63.2969 C46.8594,60.7188 48.9844,56.7344 49.6563,51.1094 C50.2188,46.4688 49.8281,40.5469 48.4375,32.4688 C48.0781,30.375 47.5313,27.3438 46.875,23.5938 C52.625,21.6719 56.7813,18.0938 60.5469,12.2344 C63.8438,6.5 64.7813,0.390625 63.3594,-5.92188 M29.1406,20.2969 C24.5,19.0781 20.0625,16.5781 16.3125,13.0625 C15,11.8438 13.125,9.67188 11.6563,6.28125 C10.2969,3.10938 9.625,-0.328125 9.6875,-3.90625 C9.75,-8.60938 11.0625,-13.4375 13.5625,-18.2188 C16.4844,-23.7969 21.0469,-29.3281 27.1094,-34.6563 C28.5625,-35.9375 29.9375,-37.2188 31.2188,-38.5 C31.9844,-34.2344 32.8125,-29.5469 33.6875,-24.6719 C29.8438,-23.4063 25.0938,-20.25 21.9844,-14.5938 C18.4375,-8.03125 18.5781,-2.5 19.3125,0.984375 C20.25,5.4375 22.7813,9.20313 26.2344,11.2969 C27.1719,11.8594 31.2969,13.9844 33.1406,13.4063 C33.5156,13.2969 33.7813,13.0625 33.9219,12.7344 C34.4375,11.5625 33.4063,10.9219 31.8594,9.96875 C31.25,9.59375 30.5781,9.17188 29.8594,8.64063 C26.5313,6.15625 25.0781,1.70313 26.1563,-2.6875 C26.7344,-5.07813 28.0156,-7.25 29.8594,-8.95313 C31.5156,-10.5 33.5625,-11.5938 35.9375,-12.2344 C37.9844,-0.984375 40.0469,10.1719 41.6875,18.5313 C41.8125,19.2188 41.9531,19.8906 42.0781,20.5625 C37.7031,21.5 33.3594,21.4063 29.1406,20.2969 M40.4688,-12.9063 C50.8125,-13.375 55.0781,-5.9375 55.9688,-1.10938 C56.4375,1.4375 56.4375,5.875 54.8906,10.0938 C53.7188,13.2656 51.2656,17.3438 46.125,19.4063 C46.0625,18.9844 45.9844,18.5469 45.9063,18.125 C44.3594,9.34375 42.4219,-1.65625 40.4688,-12.9063 M33.1406,-83.8594 C34.9219,-89.5938 37.6563,-92.8438 39.6563,-94.5781 C41.4063,-96.0938 43.0469,-96.8125 43.9688,-96.8125 C44.1094,-96.8125 44.2344,-96.7813 44.3281,-96.75 C44.7969,-96.6094 45.3281,-96.0469 45.7969,-95.1719 C48.1094,-90.8906 47.3594,-84.1719 46.0156,-79.7344 C44.3906,-74.3281 41.4688,-68.7188 32.6719,-59.1094 C32.5,-60.2188 32.3438,-61.2656 32.1875,-62.25 C30.9375,-70.5313 31.2656,-77.8125 33.1406,-83.8594"/>
<path class="Clef" transform="matrix(0.992126,0,0,0.992126,34.0158,572.244)" d="M63.3594,-5.92188 C62.125,-11.3438 59.4844,-15.1719 58.7031,-16.2031 C55.5156,-20.4844 51.5,-23.3281 46.8125,-24.6875 C43.7031,-25.5625 40.7031,-25.6875 38.2813,-25.5 C37.2344,-31.5156 36.2344,-37.3906 35.3281,-42.8438 C40.7813,-49.0156 44.4063,-54.8125 46.6875,-59.1094 C50.1563,-65.6875 51.2969,-70.2656 51.3594,-70.4688 C53.0781,-75.6875 53.4375,-83.3906 52.3281,-91.5938 C51.3281,-99.1406 49.2344,-105.859 46.875,-109.109 C45.8594,-110.531 44.7969,-111.266 43.7656,-111.266 C42.5469,-111.266 40.0313,-110.031 37.1406,-107.25 C34.8438,-105.063 31.5781,-101.172 29.0156,-95.1563 C26.0156,-88.0938 25.7969,-78.6094 26.1563,-71.8906 C26.5313,-64.6094 27.6406,-58.9219 27.6563,-58.875 C27.6719,-58.7813 27.9375,-57.2813 28.375,-54.7188 C28.1563,-54.4844 27.9063,-54.2656 27.6563,-54.0156 C26.625,-53.0156 25.4375,-51.8906 24.0469,-50.5 C23.1875,-49.6406 22.2344,-48.7344 21.2344,-47.7656 C12.7969,-39.625 0,-27.2969 0,-8.14063 C0,-3.4375 0.90625,0.984375 2.6875,5 C4.26563,8.59375 6.5625,11.875 9.5,14.75 C17.2344,22.3125 27.8281,25.5156 34.875,25.3594 C37.8281,25.2813 40.4688,25.0469 42.8594,24.5938 C44.6875,34.2031 45.8281,41.2344 45.8594,46.5781 C45.9063,53.0938 44.25,57.0781 40.3594,59.8438 C37.9219,61.5781 35.1094,62.5313 32.0156,62.6719 C29.4219,62.7969 27.1563,62.3281 25.7344,61.9219 L25.7188,61.9219 C25.7188,61.9219 25.4375,61.8281 25.4219,61.6406 C25.4063,61.4531 25.7656,61.4063 25.7656,61.4063 L25.7969,61.4063 C27.7188,60.9688 31.2813,59.7344 33.6406,56.4375 C35.4375,53.9063 36.3125,49.2813 34.4688,45.3438 C33.3594,42.9531 30.8594,40 25.2344,39.5469 C22.7344,39.3438 20.4688,39.8594 18.4688,41.0625 C16.6563,42.1406 15.1563,43.7813 14.1094,45.7813 C11.6563,50.4844 12.1094,56.2188 15.2344,60.0625 C18.2031,63.6875 22.8125,66 28.25,66.5781 C29.1094,66.6719 29.9531,66.7031 30.7969,66.7031 C35.2344,66.7031 39.625,65.5 43.2031,63.2969 C46.8594,60.7188 48.9844,56.7344 49.6563,51.1094 C50.2188,46.4688 49.8281,40.5469 48.4375,32.4688 C48.0781,30.375 47.5313,27.3438 46.875,23.5938 C52.625,21.6719 56.7813,18.0938 60.5469,12.2344 C63.8438,6.5 64.7813,0.390625 63.3594,-5.92188 M29.1406,20.2969 C24.5,19.0781 20.0625,16.5781 16.3125,13.0625 C15,11.8438 13.125,9.67188 11.6563,6.28125 C10.2969,3.10938 9.625,-0.328125 9.6875,-3.90625 C9.75,-8.60938 11.0625,-13.4375 13.5625,-18.2188 C16.4844,-23.7969 21.0469,-29.3281 27.1094,-34.6563 C28.5625,-35.9375 29.9375,-37.2188 31.2188,-38.5 C31.9844,-34.2344 32.8125,-29.5469 33.6875,-24.6719 C29.8438,-23.4063 25.0938,-20.25 21.9844,-14.5938 C18.4375,-8.03125 18.5781,-2.5 19.3125,0.984375 C20.25,5.4375 22.7813,9.20313 26.2344,11.2969 C27.1719,11.8594 31.2969,13.9844 33.1406,13.4063 C33.5156,13.2969 33.7813,13.0625 33.9219,12.7344 C34.4375,11.5625 33.4063,10.9219 31.8594,9.96875 C31.25,9.59375 30.5781,9.17188 29.8594,8.64063 C26.5313,6.15625 25.0781,1.70313 26.1563,-2.6875 C26.7344,-5.07813 28.0156,-7.25 29.8594,-8.95313 C31.5156,-10.5 33.5625,-11.5938 35.9375,-12.2344 C37.9844,-0.984375 40.0469,10.1719 41.6875,18.5313 C41.8125,19.2188 41.9531,19.8906 42.0781,20.5625 C37.7031,21.5 33.3594,21.4063 29.1406,20.2969 M40.4688,-12.9063 C50.8125,-13.375 55.0781,-5.9375 55.9688,-1.10938 C56.4375,1.4375 56.4375,5.875 54.8906,10.0938 C53.7188,13.2656 51.2656,17.3438 46.125,19.4063 C46.0625,18.9844 45.9844,18.5469 45.9063,18.125 C44.3594,9.34375 42.4219,-1.65625 40.4688,-12.9063 M33.1406,-83.8594 C34.9219,-89.5938 37.6563,-92.8438 39.6563,-94.5781 C41.4063,-96.0938 43.0469,-96.8125 43.9688,-96.8125 C44.1094,-96.8125 44.2344,-96.7813 44.3281,-96.75 C44.7969,-96.6094 45.3281,-96.0469 45.7969,-95.1719 C48.1094,-90.8906 47.3594,-84.1719 46.0156,-79.7344 C44.3906,-74.3281 41.4688,-68.7188 32.6719,-59.1094 C32.5,-60.2188 32.3438,-61.2656 32.1875,-62.25 C30.9375,-70.5313 31.2656,-77.8125 33.1406,-83.8594"/>
<path class="Clef" transform="matrix(0.992126,0,0,0.992126,34.0158,889.826)" d="M63.3594,-5.92188 C62.125,-11.3438 59.4844,-15.1719 58.7031,-16.2031 C55.5156,-20.4844 51.5,-23.3281 46.8125,-24.6875 C43.7031,-25.5625 40.7031,-25.6875 38.2813,-25.5 C37.2344,-31.5156 36.2344,-37.3906 35.3281,-42.8438 C40.7813,-49.0156 44.4063,-54.8125 46.6875,-59.1094 C50.1563,-65.6875 51.2969,-70.2656 51.3594,-70.4688 C53.0781,-75.6875 53.4375,-83.3906 52.3281,-91.5938 C51.3281,-99.1406 49.2344,-105.859 46.875,-109.109 C45.8594,-110.531 44.7969,-111.266 43.7656,-111.266 C42.5469,-111.266 40.0313,-110.031 37.1406,-107.25 C34.8438,-105.063 31.5781,-101.172 29.0156,-95.1563 C26.0156,-88.0938 25.7969,-78.6094 26.1563,-71.8906 C26.5313,-64.6094 27.6406,-58.9219 27.6563,-58.875 C27.6719,-58.7813 27.9375,-57.2813 28.375,-54.7188 C28.1563,-54.4844 27.9063,-54.2656 27.6563,-54.0156 C26.625,-53.0156 25.4375,-51.8906 24.0469,-50.5 C23.1875,-49.6406 22.2344,-48.7344 21.2344,-47.7656 C12.7969,-39.625 0,-27.2969 0,-8.14063 C0,-3.4375 0.90625,0.984375 2.6875,5 C4.26563,8.59375 6.5625,11.875 9.5,14.75 C17.2344,22.3125 27.8281,25.5156 34.875,25.3594 C37.8281,25.2813 40.4688,25.0469 42.8594,24.5938 C44.6875,34.2031 45.8281,41.2344 45.8594,46.5781 C45.9063,53.0938 44.25,57.0781 40.3594,59.8438 C37.9219,61.5781 35.1094,62.5313 32.0156,62.6719 C29.4219,62.7969 27.1563,62.3281 25.7344,61.9219 L25.7188,61.9219 C25.7188,61.9219 25.4375,61.8281 25.4219,61.6406 C25.4063,61.4531 25.7656,61.4063 25.7656,61.4063 L25.7969,61.4063 C27.7188,60.9688 31.2813,59.7344 33.6406,56.4375 C35.4375,53.9063 36.3125,49.2813 34.4688,45.3438 C33.3594,42.9531 30.8594,40 25.2344,39.5469 C22.7344,39.3438 20.4688,39.8594 18.4688,41.0625 C16.6563,42.1406 15.1563,43.7813 14.1094,45.7813 C11.6563,50.4844 12.1094,56.2188 15.2344,60.0625 C18.2031,63.6875 22.8125,66 28.25,66.5781 C29.1094,66.6719 29.9531,66.7031 30.7969,66.7031 C35.2344,66.7031 39.625,65.5 43.2031,63.2969 C46.8594,60.7188 48.9844,56.7344 49.6563,51.1094 C50.2188,46.4688 49.8281,40.5469 48.4375,32.4688 C48.0781,30.375 47.5313,27.3438 46.875,23.5938 C52.625,21.6719 56.7813,18.0938 60.5469,12.2344 C63.8438,6.5 64.7813,0.390625 63.3594,-5.92188 M29.1406,20.2969 C24.5,19.0781 20.0625,16.5781 16.3125,13.0625 C15,11.8438 13.125,9.67188 11.6563,6.28125 C10.2969,3.10938 9.625,-0.328125 9.6875,-3.90625 C9.75,-8.60938 11.0625,-13.4375 13.5625,-18.2188 C16.4844,-23.7969 21.0469,-29.3281 27.1094,-34.6563 C28.5625,-35.9375 29.9375,-37.2188 31.2188,-38.5 C31.9844,-34.2344 32.8125,-29.5469 33.6875,-24.6719 C29.8438,-23.4063 25.0938,-20.25 21.9844,-14.5938 C18.4375,-8.03125 18.5781,-2.5 19.3125,0.984375 C20.25,5.4375 22.7813,9.20313 26.2344,11.2969 C27.1719,11.8594 31.2969,13.9844 33.1406,13.4063 C33.5156,13.2969 33.7813,13.0625 33.9219,12.7344 C34.4375,11.5625 33.4063,10.9219 31.8594,9.96875 C31.25,9.59375 30.5781,9.17188 29.8594,8.64063 C26.5313,6.15625 25.0781,1.70313 26.1563,-2.6875 C26.7344,-5.07813 28.0156,-7.25 29.8594,-8.95313 C31.5156,-10.5 33.5625,-11.5938 35.9375,-12.2344 C37.9844,-0.984375 40.0469,10.1719 41.6875,18.5313 C41.8125,19.2188 41.9531,19.8906 42.0781,20.5625 C37.7031,21.5 33.3594,21.4063 29.1406,20.2969 M40.4688,-12.9063 C50.8125,-13.375 55.0781,-5.9375 55.9688,-1.10938 C56.4375,1.4375 56.4375,5.875 54.8906,10.0938 C53.7188,13.2656 51.2656,17.3438 46.125,19.4063 C46.0625,18.9844 45.9844,18.5469 45.9063,18.125 C44.3594,9.34375 42.4219,-1.65625 40.4688,-12.9063 M33.1406,-83.8594 C34.9219,-89.5938 37.6563,-92.8438 39.6563,-94.5781 C41.4063,-96.0938 43.0469,-96.8125 43.9688,-96.8125 C44.1094,-96.8125 44.2344,-96.7813 44.3281,-96.75 C44.7969,-96.6094 45.3281,-96.0469 45.7969,-95.1719 C48.1094,-90.8906 47.3594,-84.1719 46.0156,-79.7344 C44.3906,-74.3281 41.4688,-68.7188 32.6719,-59.1094 C32.5,-60.2188 32.3438,-61.2656 32.1875,-62.25 C30.9375,-70.5313 31.2656,-77.8125 33.1406,-83.8594"/>
<path class="Clef" transform="matrix(0.992126,0,0,0.992126,34.0158,1199.87)" d="M63.3594,-5.92188 C62.125,-11.3438 59.4844,-15.1719 58.7031,-16.2031 C55.5156,-20.4844 51.5,-23.3281 46.8125,-24.6875 C43.7031,-25.5625 40.7031,-25.6875 38.2813,-25.5 C37.2344,-31.5156 36.2344,-37.3906 35.3281,-42.8438 C40.7813,-49.0156 44.4063,-54.8125 46.6875,-59.1094 C50.1563,-65.6875 51.2969,-70.2656 51.3594,-70.4688 C53.0781,-75.6875 53.4375,-83.3906 52.3281,-91.5938 C51.3281,-99.1406 49.2344,-105.859 46.875,-109.109 C45.8594,-110.531 44.7969,-111.266 43.7656,-111.266 C42.5469,-111.266 40.0313,-110.031 37.1406,-107.25 C34.8438,-105.063 31.5781,-101.172 29.0156,-95.1563 C26.0156,-88.0938 25.7969,-78.6094 26.1563,-71.8906 C26.5313,-64.6094 27.6406,-58.9219 27.6563,-58.875 C27.6719,-58.7813 27.9375,-57.2813 28.375,-54.7188 C28.1563,-54.4844 27.9063,-54.2656 27.6563,-54.0156 C26.625,-53.0156 25.4375,-51.8906 24.0469,-50.5 C23.1875,-49.6406 22.2344,-48.7344 21.2344,-47.7656 C12.7969,-39.625 0,-27.2969 0,-8.14063 C0,-3.4375 0.90625,0.984375 2.6875,5 C4.26563,8.59375 6.5625,11.875 9.5,14.75 C17.2344,22.3125 27.8281,25.5156 34.875,25.3594 C37.8281,25.2813 40.4688,25.0469 42.8594,24.5938 C44.6875,34.2031 45.8281,41.2344 45.8594,46.5781 C45.9063,53.0938 44.25,57.0781 40.3594,59.8438 C37.9219,61.5781 35.1094,62.5313 32.0156,62.6719 C29.4219,62.7969 27.1563,62.3281 25.7344,61.9219 L25.7188,61.9219 C25.7188,61.9219 25.4375,61.8281 25.4219,61.6406 C25.4063,61.4531 25.7656,61.4063 25.7656,61.4063 L25.7969,61.4063 C27.7188,60.9688 31.2813,59.7344 33.6406,56.4375 C35.4375,53.9063 36.3125,49.2813 34.4688,45.3438 C33.3594,42.9531 30.8594,40 25.2344,39.5469 C22.7344,39.3438 20.4688,39.8594 18.4688,41.0625 C16.6563,42.1406 15.1563,43.7813 14.1094,45.7813 C11.6563,50.4844 12.1094,56.2188 15.2344,60.0625 C18.2031,63.6875 22.8125,66 28.25,66.5781 C29.1094,66.6719 29.9531,66.7031 30.7969,66.7031 C35.2344,66.7031 39.625,65.5 43.2031,63.2969 C46.8594,60.7188 48.9844,56.7344 49.6563,51.1094 C50.2188,46.4688 49.8281,40.5469 48.4375,32.4688 C48.0781,30.375 47.5313,27.3438 46.875,23.5938 C52.625,21.6719 56.7813,18.0938 60.5469,12.2344 C63.8438,6.5 64.7813,0.390625 63.3594,-5.92188 M29.1406,20.2969 C24.5,19.0781 20.0625,16.5781 16.3125,13.0625 C15,11.8438 13.125,9.67188 11.6563,6.28125 C10.2969,3.10938 9.625,-0.328125 9.6875,-3.90625 C9.75,-8.60938 11.0625,-13.4375 13.5625,-18.2188 C16.4844,-23.7969 21.0469,-29.3281 27.1094,-34.6563 C28.5625,-35.9375 29.9375,-37.2188 31.2188,-38.5 C31.9844,-34.2344 32.8125,-29.5469 33.6875,-24.6719 C29.8438,-23.4063 25.0938,-20.25 21.9844,-14.5938 C18.4375,-8.03125 18.5781,-2.5 19.3125,0.984375 C20.25,5.4375 22.7813,9.20313 26.2344,11.2969 C27.1719,11.8594 31.2969,13.9844 33.1406,13.4063 C33.5156,13.2969 33.7813,13.0625 33.9219,12.7344 C34.4375,11.5625 33.4063,10.9219 31.8594,9.96875 C31.25,9.59375 30.5781,9.17188 29.8594,8.64063 C26.5313,6.15625 25.0781,1.70313 26.1563,-2.6875 C26.7344,-5.07813 28.0156,-7.25 29.8594,-8.95313 C31.5156,-10.5 33.5625,-11.5938 35.9375,-12.2344 C37.9844,-0.984375 40.0469,10.1719 41.6875,18.5313 C41.8125,19.2188 41.9531,19.8906 42.0781,20.5625 C37.7031,21.5 33.3594,21.4063 29.1406,20.2969 M40.4688,-12.9063 C50.8125,-13.375 55.0781,-5.9375 55.9688,-1.10938 C56.4375,1.4375 56.4375,5.875 54.8906,10.0938 C53.7188,13.2656 51.2656,17.3438 46.125,19.4063 C46.0625,18.9844 45.9844,18.5469 45.9063,18.125 C44.3594,9.34375 42.4219,-1.65625 40.4688,-12.9063 M33.1406,-83.8594 C34.9219,-89.5938 37.6563,-92.8438 39.6563,-94.5781 C41.4063,-96.0938 43.0469,-96.8125 43.9688,-96.8125 C44.1094,-96.8125 44.2344,-96.7813 44.3281,-96.75 C44.7969,-96.6094 45.3281,-96.0469 45.7969,-95.1719 C48.1094,-90.8906 47.3594,-84.1719 46.0156,-79.7344 C44.3906,-74.3281 41.4688,-68.7188 32.6719,-59.1094 C32.5,-60.2188 32.3438,-61.2656 32.1875,-62.25 C30.9375,-70.5313 31.2656,-77.8125 33.1406,-83.8594"/>
<path class="TimeSig" transform="matrix(0.992126,0,0,0.992126,244.951,212.73)" d="M3.59375,12.625 L20.7656,12.625 L20.7656,20.0781 L12.5469,20.0781 C11.7656,20.0781 11.125,20.7031 11.125,21.4844 L11.125,23.3906 C11.125,24.1719 11.7656,24.7969 12.5469,24.7969 L42.7969,24.7969 C43.5781,24.7969 44.2031,24.1719 44.2031,23.3906 L44.2031,21.4844 C44.2031,20.7031 43.5781,20.0781 42.7969,20.0781 L33.8594,20.0781 L33.8594,12.625 L42.7969,12.625 C43.5781,12.625 44.2031,12 44.2031,11.2188 L44.2031,9.3125 C44.2031,8.53125 43.5781,7.90625 42.7969,7.90625 L33.8594,7.90625 L33.8594,-8.0625 C33.8594,-8.59375 33.5469,-9.07813 33.0781,-9.3125 L31.8594,-9.92188 C31.3281,-10.1719 30.7031,-10.0781 30.2656,-9.6875 L21.2188,-1.375 C20.9375,-1.09375 20.7656,-0.734375 20.7656,-0.328125 L20.7656,7.90625 L9.25,7.90625 C9.25,7.90625 20.375,-4.125 32.2188,-19.8906 C33.0781,-21.0469 32.5781,-22.0938 32.3906,-22.2813 L30.2188,-24.4844 C29.9531,-24.75 29.5938,-24.9063 29.2188,-24.9063 C28.625,-24.9063 15.0625,-24.875 14.3438,-24.9063 C13.625,-24.9219 13.0938,-24.2969 13.0156,-23.6875 C13.0156,-23.6875 12.4844,-16.3281 9.875,-8.1875 C7.28125,-0.078125 4.34375,4.90625 1.6875,8.53125 C1.6875,8.53125 1.14063,9.51563 1.5,10.2656 C1.84375,11.0156 2.48438,12.0938 2.48438,12.0938 C2.48438,12.0938 2.73438,12.625 3.59375,12.625"/>
<path class="TimeSig" transform="matrix(0.992126,0,0,0.992126,244.951,262.073)" d="M3.59375,12.625 L20.7656,12.625 L20.7656,20.0781 L12.5469,20.0781 C11.7656,20.0781 11.125,20.7031 11.125,21.4844 L11.125,23.3906 C11.125,24.1719 11.7656,24.7969 12.5469,24.7969 L42.7969,24.7969 C43.5781,24.7969 44.2031,24.1719 44.2031,23.3906 L44.2031,21.4844 C44.2031,20.7031 43.5781,20.0781 42.7969,20.0781 L33.8594,20.0781 L33.8594,12.625 L42.7969,12.625 C43.5781,12.625 44.2031,12 44.2031,11.2188 L44.2031,9.3125 C44.2031,8.53125 43.5781,7.90625 42.7969,7.90625 L33.8594,7.90625 L33.8594,-8.0625 C33.8594,-8.59375 33.5469,-9.07813 33.0781,-9.3125 L31.8594,-9.92188 C31.3281,-10.1719 30.7031,-10.0781 30.2656,-9.6875 L21.2188,-1.375 C20.9375,-1.09375 20.7656,-0.734375 20.7656,-0.328125 L20.7656,7.90625 L9.25,7.90625 C9.25,7.90625 20.375,-4.125 32.2188,-19.8906 C33.0781,-21.0469 32.5781,-22.0938 32.3906,-22.2813 L30.2188,-24.4844 C29.9531,-24.75 29.5938,-24.9063 29.2188,-24.9063 C28.625,-24.9063 15.0625,-24.875 14.3438,-24.9063 C13.625,-24.9219 13.0938,-24.2969 13.0156,-23.6875 C13.0156,-23.6875 12.4844,-16.3281 9.875,-8.1875 C7.28125,-0.078125 4.34375,4.90625 1.6875,8.53125 C1.6875,8.53125 1.14063,9.51563 1.5,10.2656 C1.84375,11.0156 2.48438,12.0938 2.48438,12.0938 C2.48438,12.0938 2.73438,12.625 3.59375,12.625"/>
<path class="RehearsalMark" fill="none" stroke="#000000" stroke-width="3.97" stroke-linecap="square" stroke-linejoin="miter" stroke-miterlimit="2" fill-rule="evenodd" d="M154.216,21.0729 L262.987,21.0729 L262.987,122.845 L154.216,122.845 L154.216,21.0729 "/>
<path class="RehearsalMark" d="M205.352,35.4899 L182.883,87.9587 C178.32,98.6618 174.664,102.521 168.82,103.115 L168.82,108.459 L197.43,108.459 L197.43,103.115 C190.398,102.724 187.633,100.834 187.633,96.2868 C187.633,94.5993 188.023,93.0212 189.117,90.6462 L190.695,86.8806 L215.352,86.8806 L219.117,96.5837 C220.195,99.3493 220.305,99.8493 220.305,100.631 C220.305,102.427 218.914,103.021 214.555,103.021 L212.867,103.115 L212.867,108.459 L247.617,108.459 L247.617,103.115 C241.977,102.912 240.398,101.927 238.32,96.8806 L212.867,35.4899 L205.352,35.4899 M203.273,56.5837 L212.867,80.2399 L193.273,80.2399 L203.273,56.5837 "/>
<path class="RehearsalMark" fill="none" stroke="#000000" stroke-width="3.97" stroke-linecap="square" stroke-linejoin="miter" stroke-miterlimit="2" fill-rule="evenodd" d="M32.3294,654.622 L133.101,654.622 L133.101,755.393 L32.3294,755.393 L32.3294,654.622 "/>
<path class="RehearsalMark" d="M47.4027,669.523 L47.4027,674.882 L48.8871,674.882 C54.2308,674.882 56.1058,675.273 56.9964,676.257 C57.6996,677.351 57.6996,677.648 57.6996,683.789 L57.6996,726.757 C57.6996,732.882 57.6996,733.179 56.9964,734.179 C56.1058,735.273 54.1371,735.664 48.8871,735.664 L47.4027,735.664 L47.4027,741.007 L87.4964,741.007 C97.7933,741.007 103.043,740.211 108.184,737.945 C114.418,735.164 118.575,728.929 118.575,722.195 C118.575,715.273 114.621,709.82 107.293,706.461 C103.934,704.867 101.059,704.086 95.8089,703.382 C100.653,702.601 103.434,701.898 106.2,700.617 C112.137,697.742 115.309,692.992 115.309,687.054 C115.309,681.414 112.34,676.164 107.496,673.492 C102.043,670.414 97.2933,669.523 85.6058,669.523 L47.4027,669.523 M75.5121,701.601 L75.5121,680.617 C75.3089,676.461 76.6996,675.07 81.0589,674.882 L84.0277,674.882 C92.7464,674.882 97.3871,679.226 97.3871,687.445 C97.3871,692.304 95.7152,696.164 92.5433,698.632 C89.8714,700.82 86.4964,701.601 80.3714,701.601 L75.5121,701.601 M75.5121,707.054 L82.3402,707.054 C88.5746,707.054 91.4496,707.648 94.2308,709.429 C97.6839,711.711 99.6683,716.054 99.6683,721.211 C99.6683,725.961 97.8871,730.32 95.0121,732.695 C92.5433,734.664 89.2777,735.664 84.5277,735.664 L81.5589,735.664 C75.9027,735.461 75.3089,734.867 75.5121,729.32 L75.5121,707.054 "/>
<path class="Harmony" d="M350.527,121.866 C350.496,121.881 350.449,121.881 350.386,121.881 C350.324,121.881 350.277,121.897 350.246,121.897 C350.199,121.912 350.152,121.912 350.09,121.928 C350.027,121.928 349.996,121.944 349.949,121.959 C349.902,121.975 349.871,122.006 349.824,122.022 C349.777,122.053 349.746,122.069 349.73,122.116 C349.683,122.147 349.668,122.178 349.636,122.225 C349.621,122.256 349.605,122.319 349.605,122.366 C349.605,122.397 349.605,122.428 349.605,122.475 L349.605,122.506 C349.605,122.537 349.605,122.584 349.605,122.647 C349.621,122.709 349.621,122.756 349.621,122.787 C349.621,123.366 349.636,123.928 349.652,124.475 C349.652,124.506 349.652,124.537 349.652,124.569 C349.652,124.678 349.652,124.819 349.636,124.975 C349.621,125.178 349.621,125.319 349.621,125.412 L349.621,125.444 L349.621,125.537 C349.621,125.553 349.621,125.584 349.636,125.616 C349.636,125.647 349.636,125.662 349.652,125.678 C349.668,125.694 349.683,125.709 349.715,125.725 C349.73,125.741 349.761,125.741 349.793,125.741 L349.808,125.741 C349.98,125.741 350.152,125.709 350.324,125.631 C350.511,125.569 350.668,125.491 350.824,125.381 C350.98,125.287 351.121,125.162 351.261,125.006 C351.402,124.866 351.527,124.709 351.621,124.553 C351.73,124.397 351.808,124.225 351.871,124.053 C351.949,123.881 351.98,123.709 351.98,123.537 C351.996,123.506 351.996,123.459 351.996,123.428 C351.996,123.334 351.98,123.241 351.965,123.131 C351.933,122.991 351.902,122.85 351.84,122.725 C351.793,122.6 351.715,122.475 351.621,122.366 C351.543,122.241 351.433,122.147 351.324,122.069 C351.215,121.991 351.09,121.928 350.949,121.897 C350.871,121.866 350.777,121.866 350.668,121.866 C350.621,121.866 350.574,121.866 350.527,121.866 M350.215,125.1 C350.215,124.959 350.215,124.741 350.215,124.475 C350.23,124.256 350.23,124.053 350.23,123.866 C350.23,123.819 350.23,123.787 350.23,123.741 C350.23,123.522 350.215,123.303 350.215,123.1 C350.215,123.069 350.199,123.037 350.199,122.959 C350.183,122.881 350.168,122.803 350.168,122.741 C350.152,122.709 350.152,122.678 350.152,122.647 C350.152,122.616 350.152,122.584 350.168,122.553 C350.168,122.491 350.199,122.444 350.23,122.412 C350.277,122.381 350.324,122.366 350.386,122.366 C350.402,122.366 350.402,122.366 350.418,122.366 C350.496,122.381 350.574,122.397 350.668,122.444 C350.746,122.491 350.824,122.553 350.902,122.616 C350.98,122.678 351.043,122.741 351.105,122.787 C351.168,122.85 351.199,122.897 351.23,122.944 C351.308,123.069 351.371,123.225 351.402,123.381 C351.418,123.475 351.418,123.553 351.418,123.647 C351.418,123.709 351.418,123.787 351.418,123.85 C351.386,124.006 351.34,124.147 351.277,124.303 C351.215,124.444 351.121,124.569 351.027,124.694 C350.918,124.803 350.793,124.897 350.668,124.959 C350.527,125.037 350.371,125.084 350.215,125.1"/>
<path class="Harmony" d="M387.433,35.3858 C383.73,35.8546 380.215,36.714 376.793,37.9483 C373.371,39.1827 370.23,40.8858 367.199,42.8858 C364.152,44.8858 361.402,47.1671 359.027,49.7296 C356.652,52.2921 354.652,55.2296 352.949,58.5577 C351.23,61.8858 350.09,65.4015 349.433,69.1046 C348.949,71.3858 348.761,73.7608 348.761,76.1358 L348.761,76.8077 C348.761,79.0733 348.855,81.2608 349.136,83.4483 C349.433,85.8233 349.996,88.1983 350.761,90.3858 C351.621,92.6671 352.558,94.8546 353.605,96.839 C354.652,98.839 355.98,100.651 357.511,102.261 C359.027,103.87 360.918,105.198 362.824,106.339 C364.73,107.48 366.902,108.339 369.277,108.823 C370.902,109.105 372.511,109.292 374.136,109.292 C374.98,109.292 375.933,109.292 376.98,109.198 C379.918,108.917 382.683,108.245 385.246,107.292 C387.808,106.339 390.183,105.198 392.183,103.87 C394.168,102.542 396.168,100.839 397.98,98.9327 C399.777,97.0421 401.496,94.9483 402.918,92.8546 C404.34,90.7608 405.668,88.3858 407.09,85.7296 C409.277,81.3546 410.324,77.6515 410.324,74.714 C410.324,71.7608 409.277,69.4796 407.09,67.8702 C405.855,66.8233 403.777,66.1671 401.011,65.6827 C399.027,65.4015 397.027,65.214 395.027,65.214 L394.558,65.214 L392.465,65.214 C389.527,65.3077 386.761,65.7765 384.105,66.6358 C381.449,67.4952 379.636,68.5421 378.683,69.7765 C378.402,70.2452 378.121,70.6202 377.84,71.0108 C377.168,72.0577 376.793,72.9952 376.793,73.8546 C376.793,75.089 377.652,75.9483 379.261,76.4171 C380.59,76.8077 383.152,76.9952 386.855,76.9952 L387.715,76.9952 C388.949,77.089 389.902,77.089 390.558,77.089 C394.465,77.089 396.84,77.5577 397.59,78.6046 C397.886,78.9796 398.168,79.5577 398.168,80.1202 C398.168,80.6983 398.074,81.2608 397.98,81.839 C397.886,82.4015 397.59,83.0733 397.308,83.8233 C397.027,84.589 396.746,85.1671 396.449,85.6358 C396.168,86.1046 395.886,86.7765 395.511,87.5421 C395.121,88.2921 394.84,88.6827 394.746,88.8702 C394.277,89.714 393.98,90.3858 393.699,90.8546 C393.418,91.339 393.027,91.8077 392.558,92.4796 C392.09,93.1358 391.511,93.714 391.043,94.089 C389.043,95.6046 386.855,96.6515 384.293,97.1358 L381.058,97.5108 L380.683,97.5108 C379.449,97.4171 378.121,97.3233 376.886,97.0421 C374.511,96.5577 372.136,95.6983 369.949,94.3702 C367.761,93.0421 365.871,91.4327 364.433,89.5265 C363.011,87.5421 361.683,85.1671 360.73,82.4952 C359.777,79.839 359.215,77.089 359.027,74.1358 C358.933,73.089 358.933,72.1515 358.933,71.1046 C358.933,69.1983 359.027,67.3077 359.308,65.4952 C359.777,62.7452 360.636,60.0733 361.965,57.6046 C363.293,55.1358 365.011,53.1515 367.105,51.6202 C369.668,49.6358 372.793,48.1983 376.402,47.2608 C378.402,46.6827 380.402,46.4015 382.293,46.4015 C383.636,46.4015 384.965,46.589 386.199,46.8702 C387.246,47.1671 388.277,47.5421 389.527,48.1046 C390.761,48.6827 391.793,49.2452 392.746,49.8233 C393.699,50.3858 394.746,50.964 395.793,51.5265 C396.84,52.1046 397.886,52.5733 398.824,52.7608 C399.777,52.9483 400.73,53.0577 401.683,52.9483 C402.636,52.8546 403.574,52.3858 404.527,51.5265 C405.48,50.6827 406.34,49.5421 407.183,48.1046 C407.668,47.2608 407.949,46.4015 407.949,45.5421 C407.949,44.8858 407.761,44.3077 407.48,43.6515 C406.715,42.214 405.48,40.9796 403.777,39.9327 C402.058,38.9015 400.261,37.9483 398.168,37.1827 C396.074,36.4171 394.074,35.9483 392.09,35.6671 C390.652,35.3858 389.527,35.2921 388.574,35.2921 C388.09,35.2921 387.715,35.2921 387.433,35.3858"/>
<path class="Harmony" d="M1042.96,51.5843 C1039.73,52.0687 1036.49,53.0218 1033.37,54.5374 C1030.23,56.053 1027.37,57.9593 1024.81,60.2405 C1022.24,62.5218 1019.87,65.0843 1017.68,68.0218 C1015.49,70.9749 1013.79,74.0062 1012.37,77.1468 C1010.95,80.2874 1009.99,83.5999 1009.42,87.1155 C1009.13,89.0218 1008.95,90.928 1008.95,92.7249 C1008.95,94.2405 1009.04,95.7718 1009.23,97.1937 C1009.71,100.131 1010.56,103.084 1011.88,105.834 C1013.23,108.6 1014.74,111.162 1016.63,113.537 C1018.54,115.912 1020.92,117.897 1023.48,119.709 C1026.04,121.506 1028.6,122.85 1031.37,123.787 C1033.93,124.647 1036.59,125.116 1039.54,125.116 L1039.82,125.116 L1040.1,125.116 C1043.24,125.022 1046.28,124.459 1049.23,123.319 C1050.09,123.037 1050.93,122.741 1051.79,122.366 C1052.65,121.991 1053.6,121.506 1054.84,120.85 C1056.07,120.178 1057.12,119.616 1058.15,118.944 C1059.2,118.287 1060.15,117.522 1061.1,116.662 C1062.06,115.819 1062.81,114.866 1063.29,114.006 C1063.76,113.147 1064.04,112.303 1064.04,111.256 C1063.95,110.209 1063.57,109.162 1062.9,108.116 C1062.62,107.647 1062.15,107.35 1061.67,107.162 C1061.2,106.975 1060.62,106.881 1060.15,106.975 C1059.68,107.069 1059.2,107.256 1058.63,107.553 C1058.06,107.834 1057.49,108.116 1057.01,108.303 C1056.54,108.491 1056.07,108.787 1055.49,109.162 C1054.93,109.537 1054.54,109.834 1054.26,109.928 C1050.93,111.725 1047.71,112.678 1044.38,112.678 C1041.34,112.678 1038.4,111.912 1035.45,110.397 C1032.7,108.975 1030.13,107.35 1027.85,105.459 C1025.57,103.553 1023.85,101.459 1022.62,99.0843 C1021.59,96.9124 1020.73,94.6312 1020.24,92.2562 C1019.78,90.0687 1019.59,87.9749 1019.59,85.7874 L1019.59,85.0374 C1019.59,82.6624 1019.96,80.2874 1020.73,77.9124 C1021.48,75.5374 1022.43,73.3499 1023.67,71.4437 C1024.9,69.553 1026.62,67.8343 1028.6,66.4124 C1030.6,64.9905 1032.88,64.0374 1035.45,63.5687 C1036.03,63.3655 1036.68,63.2718 1037.35,63.2718 C1037.82,63.3655 1038.31,63.3655 1038.78,63.4593 C1040.01,63.6624 1041.34,63.9437 1042.67,64.3187 C1043.99,64.5999 1045.34,65.0843 1046.67,65.7405 L1050.65,67.4593 C1051.98,68.0218 1053.31,68.4124 1054.54,68.8812 C1055.78,69.3499 1057.01,69.553 1058.24,69.6468 C1058.63,69.7405 1059.01,69.7405 1059.29,69.7405 C1060.06,69.6468 1060.82,69.553 1061.48,69.4593 C1062.43,69.2562 1063.29,68.6937 1064.13,67.8343 C1064.99,66.9749 1065.76,65.9437 1066.23,64.5062 C1066.42,63.8499 1066.51,63.2718 1066.51,62.7093 C1066.62,62.2249 1066.51,61.7562 1066.32,61.2874 C1066.13,60.803 1065.85,60.428 1065.57,60.053 C1065.28,59.5687 1064.9,59.2874 1064.43,58.9124 C1063.95,58.5218 1063.57,58.1468 1063.2,57.8655 C1062.81,57.5843 1062.24,57.1937 1061.76,56.9124 C1055.87,53.2093 1050.46,51.3968 1045.43,51.3968 C1044.57,51.3968 1043.81,51.4905 1042.96,51.5843"/>
<path class="Harmony" d="M1706.37,51.7874 C1702.66,52.2562 1699.15,53.1155 1695.73,54.3499 C1692.31,55.5843 1689.16,57.2874 1686.13,59.2874 C1683.09,61.2874 1680.34,63.5687 1677.96,66.1312 C1675.59,68.6937 1673.59,71.6312 1671.88,74.9593 C1670.16,78.2874 1669.02,81.803 1668.37,85.5062 C1667.88,87.7874 1667.7,90.1624 1667.7,92.5374 L1667.7,93.2093 C1667.7,95.4749 1667.79,97.6624 1668.07,99.8499 C1668.37,102.225 1668.93,104.6 1669.7,106.787 C1670.56,109.069 1671.49,111.256 1672.54,113.241 C1673.59,115.241 1674.91,117.053 1676.45,118.662 C1677.96,120.272 1679.85,121.6 1681.76,122.741 C1683.66,123.881 1685.84,124.741 1688.21,125.225 C1689.84,125.506 1691.45,125.694 1693.07,125.694 C1693.91,125.694 1694.87,125.694 1695.91,125.6 C1698.85,125.319 1701.62,124.647 1704.18,123.694 C1706.74,122.741 1709.12,121.6 1711.12,120.272 C1713.1,118.944 1715.1,117.241 1716.91,115.334 C1718.71,113.444 1720.43,111.35 1721.85,109.256 C1723.27,107.162 1724.6,104.787 1726.02,102.131 C1728.21,97.7562 1729.26,94.053 1729.26,91.1155 C1729.26,88.1624 1728.21,85.8812 1726.02,84.2718 C1724.79,83.2249 1722.71,82.5687 1719.95,82.0843 C1717.96,81.803 1715.96,81.6155 1713.96,81.6155 L1713.49,81.6155 L1711.4,81.6155 C1708.46,81.7093 1705.7,82.178 1703.04,83.0374 C1700.38,83.8968 1698.57,84.9437 1697.62,86.178 C1697.34,86.6468 1697.06,87.0218 1696.77,87.4124 C1696.1,88.4593 1695.73,89.3968 1695.73,90.2562 C1695.73,91.4905 1696.59,92.3499 1698.2,92.8187 C1699.52,93.2093 1702.09,93.3968 1705.79,93.3968 L1706.65,93.3968 C1707.88,93.4905 1708.84,93.4905 1709.49,93.4905 C1713.4,93.4905 1715.77,93.9593 1716.52,95.0062 C1716.82,95.3812 1717.1,95.9593 1717.1,96.5218 C1717.1,97.0999 1717.01,97.6624 1716.91,98.2405 C1716.82,98.803 1716.52,99.4749 1716.24,100.225 C1715.96,100.991 1715.68,101.569 1715.38,102.037 C1715.1,102.506 1714.82,103.178 1714.45,103.944 C1714.06,104.694 1713.77,105.084 1713.68,105.272 C1713.21,106.116 1712.91,106.787 1712.63,107.256 C1712.35,107.741 1711.96,108.209 1711.49,108.881 C1711.02,109.537 1710.45,110.116 1709.98,110.491 C1707.98,112.006 1705.79,113.053 1703.23,113.537 L1699.99,113.912 L1699.62,113.912 C1698.38,113.819 1697.06,113.725 1695.82,113.444 C1693.45,112.959 1691.07,112.1 1688.88,110.772 C1686.7,109.444 1684.81,107.834 1683.37,105.928 C1681.95,103.944 1680.62,101.569 1679.66,98.8968 C1678.71,96.2405 1678.15,93.4905 1677.96,90.5374 C1677.87,89.4905 1677.87,88.553 1677.87,87.5062 C1677.87,85.5999 1677.96,83.7093 1678.24,81.8968 C1678.71,79.1468 1679.57,76.4749 1680.9,74.0062 C1682.23,71.5374 1683.95,69.553 1686.04,68.0218 C1688.6,66.0374 1691.73,64.5999 1695.34,63.6624 C1697.34,63.0843 1699.34,62.803 1701.23,62.803 C1702.57,62.803 1703.9,62.9905 1705.13,63.2718 C1706.18,63.5687 1707.21,63.9437 1708.46,64.5062 C1709.7,65.0843 1710.73,65.6468 1711.68,66.2249 C1712.63,66.7874 1713.68,67.3655 1714.73,67.928 C1715.77,68.5062 1716.82,68.9749 1717.76,69.1624 C1718.71,69.3499 1719.66,69.4593 1720.62,69.3499 C1721.57,69.2562 1722.51,68.7874 1723.46,67.928 C1724.41,67.0843 1725.27,65.9437 1726.12,64.5062 C1726.6,63.6624 1726.88,62.803 1726.88,61.9437 C1726.88,61.2874 1726.7,60.7093 1726.41,60.053 C1725.65,58.6155 1724.41,57.3812 1722.71,56.3343 C1720.99,55.303 1719.2,54.3499 1717.1,53.5843 C1715.01,52.8187 1713.01,52.3499 1711.02,52.0687 C1709.59,51.7874 1708.46,51.6937 1707.51,51.6937 C1707.02,51.6937 1706.65,51.6937 1706.37,51.7874"/>
<path class="Harmony" d="M2344.93,51.3968 C2344.46,51.4905 2343.69,51.5843 2342.46,51.6937 C2341.23,51.7874 2340.27,51.9749 2339.62,52.0687 C2338.94,52.1624 2337.99,52.2562 2336.85,52.4437 C2335.71,52.6312 2334.87,52.928 2334.1,53.2093 C2333.33,53.4905 2332.49,53.8655 2331.73,54.3499 C2330.96,54.8187 2330.3,55.303 2329.82,55.9593 C2329.16,56.6312 2328.68,57.3812 2328.3,58.1468 C2327.93,58.9124 2327.65,59.8499 2327.54,60.803 C2327.44,61.4749 2327.44,62.1312 2327.44,62.803 L2327.44,63.3655 C2327.54,64.0374 2327.54,64.9905 2327.65,66.1312 C2327.74,67.2718 2327.74,68.2093 2327.74,68.8812 C2327.74,79.7093 2328.02,90.3499 2328.49,100.897 C2328.58,101.459 2328.58,102.037 2328.58,102.709 C2328.49,104.694 2328.4,107.35 2328.21,110.491 C2327.93,114.194 2327.74,116.959 2327.74,118.756 L2327.74,119.334 L2327.74,120.944 C2327.74,121.412 2327.93,121.897 2328.02,122.459 C2328.12,123.037 2328.3,123.506 2328.58,123.787 C2328.88,124.084 2329.16,124.366 2329.63,124.647 C2330.02,124.834 2330.49,124.928 2331.05,124.928 L2331.35,124.928 C2334.66,124.834 2337.99,124.178 2341.32,122.944 C2344.65,121.709 2347.79,120.178 2350.73,118.194 C2353.68,116.194 2356.43,113.819 2359.08,111.069 C2361.74,108.303 2364.02,105.459 2365.93,102.412 C2367.82,99.3812 2369.44,96.2405 2370.68,92.9124 C2371.91,89.5843 2372.57,86.2718 2372.77,83.1312 C2372.87,82.4593 2372.87,81.7093 2372.87,81.0374 C2372.87,79.2405 2372.68,77.3343 2372.29,75.4437 C2371.82,72.7718 2371.05,70.1155 2370.01,67.6468 C2368.96,65.178 2367.63,62.8968 2365.93,60.7093 C2364.21,58.5218 2362.32,56.7249 2360.23,55.2093 C2358.13,53.678 2355.85,52.5374 2353.19,51.8812 C2351.49,51.3968 2349.68,51.2093 2347.88,51.2093 C2346.93,51.2093 2345.98,51.303 2344.93,51.3968 M2339.04,112.772 C2339.04,110.022 2339.13,106.022 2339.23,100.897 C2339.32,96.8187 2339.41,92.9124 2339.41,89.3968 C2339.41,88.553 2339.32,87.6937 2339.32,86.8343 C2339.32,82.6624 2339.23,78.5687 2339.04,74.7718 C2339.04,74.303 2338.94,73.4437 2338.76,72.0218 C2338.57,70.5843 2338.29,69.2562 2338.18,68.0218 C2338.08,67.4593 2338.08,66.8812 2338.08,66.3187 C2338.08,65.6468 2338.08,65.0843 2338.18,64.4124 C2338.38,63.178 2338.76,62.2249 2339.41,61.7562 C2340.27,61.0843 2341.23,60.803 2342.27,60.803 C2342.55,60.8968 2342.83,60.8968 2343.13,60.8968 C2344.55,61.0843 2346.07,61.5687 2347.68,62.428 C2349.3,63.2718 2350.82,64.4124 2352.24,65.553 C2353.68,66.6937 2355.01,67.8343 2356.05,68.9749 C2357.08,70.1155 2357.94,70.9749 2358.43,71.8343 C2359.94,74.303 2360.99,77.053 2361.55,80.0843 C2361.83,81.803 2362.04,83.5062 2362.04,85.2249 C2362.04,86.4593 2361.93,87.6937 2361.83,88.928 C2361.37,91.8655 2360.51,94.7249 2359.27,97.4749 C2358.04,100.225 2356.43,102.709 2354.52,104.881 C2352.54,107.069 2350.26,108.787 2347.58,110.209 C2344.93,111.631 2342.08,112.491 2339.04,112.772"/>
<path class="Harmony" d="M208.533,361.827 C204.83,362.296 201.314,363.155 197.892,364.389 C194.47,365.624 191.33,367.327 188.298,369.327 C185.252,371.327 182.502,373.608 180.127,376.171 C177.752,378.733 175.752,381.671 174.048,384.999 C172.33,388.327 171.189,391.842 170.533,395.546 C170.048,397.827 169.861,400.202 169.861,402.577 L169.861,403.249 C169.861,405.514 169.955,407.702 170.236,409.889 C170.533,412.264 171.095,414.639 171.861,416.827 C172.72,419.108 173.658,421.296 174.705,423.28 C175.752,425.28 177.08,427.092 178.611,428.702 C180.127,430.311 182.017,431.639 183.923,432.78 C185.83,433.921 188.002,434.78 190.377,435.264 C192.002,435.546 193.611,435.733 195.236,435.733 C196.08,435.733 197.033,435.733 198.08,435.639 C201.017,435.358 203.783,434.686 206.345,433.733 C208.908,432.78 211.283,431.639 213.283,430.311 C215.267,428.983 217.267,427.28 219.08,425.374 C220.877,423.483 222.595,421.389 224.017,419.296 C225.439,417.202 226.767,414.827 228.189,412.171 C230.377,407.796 231.423,404.092 231.423,401.155 C231.423,398.202 230.377,395.921 228.189,394.311 C226.955,393.264 224.877,392.608 222.111,392.124 C220.127,391.842 218.127,391.655 216.127,391.655 L215.658,391.655 L213.564,391.655 C210.627,391.749 207.861,392.217 205.205,393.077 C202.548,393.936 200.736,394.983 199.783,396.217 C199.502,396.686 199.22,397.061 198.939,397.452 C198.267,398.499 197.892,399.436 197.892,400.296 C197.892,401.53 198.752,402.389 200.361,402.858 C201.689,403.249 204.252,403.436 207.955,403.436 L208.814,403.436 C210.048,403.53 211.002,403.53 211.658,403.53 C215.564,403.53 217.939,403.999 218.689,405.046 C218.986,405.421 219.267,405.999 219.267,406.561 C219.267,407.139 219.173,407.702 219.08,408.28 C218.986,408.842 218.689,409.514 218.408,410.264 C218.127,411.03 217.845,411.608 217.548,412.077 C217.267,412.546 216.986,413.217 216.611,413.983 C216.22,414.733 215.939,415.124 215.845,415.311 C215.377,416.155 215.08,416.827 214.798,417.296 C214.517,417.78 214.127,418.249 213.658,418.921 C213.189,419.577 212.611,420.155 212.142,420.53 C210.142,422.046 207.955,423.092 205.392,423.577 L202.158,423.952 L201.783,423.952 C200.548,423.858 199.22,423.764 197.986,423.483 C195.611,422.999 193.236,422.139 191.048,420.811 C188.861,419.483 186.97,417.874 185.533,415.967 C184.111,413.983 182.783,411.608 181.83,408.936 C180.877,406.28 180.314,403.53 180.127,400.577 C180.033,399.53 180.033,398.592 180.033,397.546 C180.033,395.639 180.127,393.749 180.408,391.936 C180.877,389.186 181.736,386.514 183.064,384.046 C184.392,381.577 186.111,379.592 188.205,378.061 C190.767,376.077 193.892,374.639 197.502,373.702 C199.502,373.124 201.502,372.842 203.392,372.842 C204.736,372.842 206.064,373.03 207.298,373.311 C208.345,373.608 209.377,373.983 210.627,374.546 C211.861,375.124 212.892,375.686 213.845,376.264 C214.798,376.827 215.845,377.405 216.892,377.967 C217.939,378.546 218.986,379.014 219.923,379.202 C220.877,379.389 221.83,379.499 222.783,379.389 C223.736,379.296 224.673,378.827 225.627,377.967 C226.58,377.124 227.439,375.983 228.283,374.546 C228.767,373.702 229.048,372.842 229.048,371.983 C229.048,371.327 228.861,370.749 228.58,370.092 C227.814,368.655 226.58,367.421 224.877,366.374 C223.158,365.342 221.361,364.389 219.267,363.624 C217.173,362.858 215.173,362.389 213.189,362.108 C211.752,361.827 210.627,361.733 209.673,361.733 C209.189,361.733 208.814,361.733 208.533,361.827"/>
<path class="Harmony" d="M898.218,361.624 C894.983,362.108 891.749,363.061 888.624,364.577 C885.483,366.092 882.624,367.999 880.061,370.28 C877.499,372.561 875.124,375.124 872.936,378.061 C870.749,381.014 869.046,384.046 867.624,387.186 C866.202,390.327 865.249,393.639 864.671,397.155 C864.389,399.061 864.202,400.967 864.202,402.764 C864.202,404.28 864.296,405.811 864.483,407.233 C864.968,410.171 865.811,413.124 867.139,415.874 C868.483,418.639 869.999,421.202 871.889,423.577 C873.796,425.952 876.171,427.936 878.733,429.749 C881.296,431.546 883.858,432.889 886.624,433.827 C889.186,434.686 891.843,435.155 894.796,435.155 L895.077,435.155 L895.358,435.155 C898.499,435.061 901.53,434.499 904.483,433.358 C905.343,433.077 906.186,432.78 907.046,432.405 C907.905,432.03 908.858,431.546 910.093,430.889 C911.327,430.217 912.374,429.655 913.405,428.983 C914.452,428.327 915.405,427.561 916.358,426.702 C917.311,425.858 918.061,424.905 918.546,424.046 C919.014,423.186 919.296,422.342 919.296,421.296 C919.202,420.249 918.827,419.202 918.155,418.155 C917.874,417.686 917.405,417.389 916.921,417.202 C916.452,417.014 915.874,416.921 915.405,417.014 C914.936,417.108 914.452,417.296 913.889,417.592 C913.311,417.874 912.749,418.155 912.264,418.342 C911.796,418.53 911.327,418.827 910.749,419.202 C910.186,419.577 909.796,419.874 909.514,419.967 C906.186,421.764 902.968,422.717 899.639,422.717 C896.593,422.717 893.655,421.952 890.702,420.436 C887.952,419.014 885.389,417.389 883.108,415.499 C880.827,413.592 879.108,411.499 877.874,409.124 C876.843,406.952 875.983,404.671 875.499,402.296 C875.03,400.108 874.843,398.014 874.843,395.827 L874.843,395.077 C874.843,392.702 875.218,390.327 875.983,387.952 C876.733,385.577 877.686,383.389 878.921,381.483 C880.155,379.592 881.874,377.874 883.858,376.452 C885.858,375.03 888.139,374.077 890.702,373.608 C891.28,373.405 891.936,373.311 892.608,373.311 C893.077,373.405 893.561,373.405 894.03,373.499 C895.264,373.702 896.593,373.983 897.921,374.358 C899.249,374.639 900.593,375.124 901.921,375.78 L905.905,377.499 C907.233,378.061 908.561,378.452 909.796,378.921 C911.03,379.389 912.264,379.592 913.499,379.686 C913.889,379.78 914.264,379.78 914.546,379.78 C915.311,379.686 916.077,379.592 916.733,379.499 C917.686,379.296 918.546,378.733 919.389,377.874 C920.249,377.014 921.014,375.983 921.483,374.546 C921.671,373.889 921.764,373.311 921.764,372.749 C921.874,372.264 921.764,371.796 921.577,371.327 C921.389,370.842 921.108,370.467 920.827,370.092 C920.53,369.608 920.155,369.327 919.686,368.952 C919.202,368.561 918.827,368.186 918.452,367.905 C918.061,367.624 917.499,367.233 917.014,366.952 C911.124,363.249 905.718,361.436 900.686,361.436 C899.827,361.436 899.061,361.53 898.218,361.624"/>
<path class="Harmony" d="M1595.78,361.827 C1592.07,362.296 1588.56,363.155 1585.14,364.389 C1581.71,365.624 1578.57,367.327 1575.54,369.327 C1572.5,371.327 1569.75,373.608 1567.37,376.171 C1565,378.733 1563,381.671 1561.29,384.999 C1559.57,388.327 1558.43,391.842 1557.78,395.546 C1557.29,397.827 1557.11,400.202 1557.11,402.577 L1557.11,403.249 C1557.11,405.514 1557.2,407.702 1557.48,409.889 C1557.78,412.264 1558.34,414.639 1559.11,416.827 C1559.96,419.108 1560.9,421.296 1561.95,423.28 C1563,425.28 1564.32,427.092 1565.86,428.702 C1567.37,430.311 1569.26,431.639 1571.17,432.78 C1573.07,433.921 1575.25,434.78 1577.62,435.264 C1579.25,435.546 1580.86,435.733 1582.48,435.733 C1583.32,435.733 1584.28,435.733 1585.32,435.639 C1588.26,435.358 1591.03,434.686 1593.59,433.733 C1596.15,432.78 1598.53,431.639 1600.53,430.311 C1602.51,428.983 1604.51,427.28 1606.32,425.374 C1608.12,423.483 1609.84,421.389 1611.26,419.296 C1612.68,417.202 1614.01,414.827 1615.43,412.171 C1617.62,407.796 1618.67,404.092 1618.67,401.155 C1618.67,398.202 1617.62,395.921 1615.43,394.311 C1614.2,393.264 1612.12,392.608 1609.36,392.124 C1607.37,391.842 1605.37,391.655 1603.37,391.655 L1602.9,391.655 L1600.81,391.655 C1597.87,391.749 1595.11,392.217 1592.45,393.077 C1589.79,393.936 1587.98,394.983 1587.03,396.217 C1586.75,396.686 1586.46,397.061 1586.18,397.452 C1585.51,398.499 1585.14,399.436 1585.14,400.296 C1585.14,401.53 1586,402.389 1587.61,402.858 C1588.93,403.249 1591.5,403.436 1595.2,403.436 L1596.06,403.436 C1597.29,403.53 1598.25,403.53 1598.9,403.53 C1602.81,403.53 1605.18,403.999 1605.93,405.046 C1606.23,405.421 1606.51,405.999 1606.51,406.561 C1606.51,407.139 1606.42,407.702 1606.32,408.28 C1606.23,408.842 1605.93,409.514 1605.65,410.264 C1605.37,411.03 1605.09,411.608 1604.79,412.077 C1604.51,412.546 1604.23,413.217 1603.86,413.983 C1603.46,414.733 1603.18,415.124 1603.09,415.311 C1602.62,416.155 1602.32,416.827 1602.04,417.296 C1601.76,417.78 1601.37,418.249 1600.9,418.921 C1600.43,419.577 1599.86,420.155 1599.39,420.53 C1597.39,422.046 1595.2,423.092 1592.64,423.577 L1589.4,423.952 L1589.03,423.952 C1587.79,423.858 1586.46,423.764 1585.23,423.483 C1582.86,422.999 1580.48,422.139 1578.29,420.811 C1576.11,419.483 1574.21,417.874 1572.78,415.967 C1571.36,413.983 1570.03,411.608 1569.07,408.936 C1568.12,406.28 1567.56,403.53 1567.37,400.577 C1567.28,399.53 1567.28,398.592 1567.28,397.546 C1567.28,395.639 1567.37,393.749 1567.65,391.936 C1568.12,389.186 1568.98,386.514 1570.31,384.046 C1571.64,381.577 1573.36,379.592 1575.45,378.061 C1578.01,376.077 1581.14,374.639 1584.75,373.702 C1586.75,373.124 1588.75,372.842 1590.64,372.842 C1591.98,372.842 1593.31,373.03 1594.54,373.311 C1595.59,373.608 1596.62,373.983 1597.87,374.546 C1599.11,375.124 1600.14,375.686 1601.09,376.264 C1602.04,376.827 1603.09,377.405 1604.14,377.967 C1605.18,378.546 1606.23,379.014 1607.17,379.202 C1608.12,379.389 1609.07,379.499 1610.03,379.389 C1610.98,379.296 1611.92,378.827 1612.87,377.967 C1613.82,377.124 1614.68,375.983 1615.53,374.546 C1616.01,373.702 1616.29,372.842 1616.29,371.983 C1616.29,371.327 1616.11,370.749 1615.82,370.092 C1615.06,368.655 1613.82,367.421 1612.12,366.374 C1610.4,365.342 1608.61,364.389 1606.51,363.624 C1604.42,362.858 1602.42,362.389 1600.43,362.108 C1599,361.827 1597.87,361.733 1596.92,361.733 C1596.43,361.733 1596.06,361.733 1595.78,361.827"/>
<path class="Harmony" d="M2268.49,361.436 C2268.02,361.53 2267.26,361.624 2266.02,361.733 C2264.79,361.827 2263.84,362.014 2263.18,362.108 C2262.51,362.202 2261.56,362.296 2260.42,362.483 C2259.27,362.671 2258.43,362.967 2257.67,363.249 C2256.9,363.53 2256.06,363.905 2255.29,364.389 C2254.52,364.858 2253.87,365.342 2253.38,365.999 C2252.73,366.671 2252.24,367.421 2251.87,368.186 C2251.49,368.952 2251.21,369.889 2251.1,370.842 C2251.01,371.514 2251.01,372.171 2251.01,372.842 L2251.01,373.405 C2251.1,374.077 2251.1,375.03 2251.21,376.171 C2251.31,377.311 2251.31,378.249 2251.31,378.921 C2251.31,389.749 2251.59,400.389 2252.06,410.936 C2252.15,411.499 2252.15,412.077 2252.15,412.749 C2252.06,414.733 2251.96,417.389 2251.77,420.53 C2251.49,424.233 2251.31,426.999 2251.31,428.796 L2251.31,429.374 L2251.31,430.983 C2251.31,431.452 2251.49,431.936 2251.59,432.499 C2251.68,433.077 2251.87,433.546 2252.15,433.827 C2252.45,434.124 2252.73,434.405 2253.2,434.686 C2253.59,434.874 2254.06,434.967 2254.62,434.967 L2254.92,434.967 C2258.23,434.874 2261.56,434.217 2264.88,432.983 C2268.21,431.749 2271.35,430.217 2274.29,428.233 C2277.24,426.233 2279.99,423.858 2282.65,421.108 C2285.31,418.342 2287.59,415.499 2289.49,412.452 C2291.38,409.421 2293.01,406.28 2294.24,402.952 C2295.48,399.624 2296.13,396.311 2296.34,393.171 C2296.43,392.499 2296.43,391.749 2296.43,391.077 C2296.43,389.28 2296.24,387.374 2295.85,385.483 C2295.38,382.811 2294.62,380.155 2293.57,377.686 C2292.52,375.217 2291.2,372.936 2289.49,370.749 C2287.77,368.561 2285.88,366.764 2283.79,365.249 C2281.7,363.717 2279.42,362.577 2276.76,361.921 C2275.06,361.436 2273.24,361.249 2271.45,361.249 C2270.49,361.249 2269.54,361.342 2268.49,361.436 M2262.6,422.811 C2262.6,420.061 2262.7,416.061 2262.79,410.936 C2262.88,406.858 2262.98,402.952 2262.98,399.436 C2262.98,398.592 2262.88,397.733 2262.88,396.874 C2262.88,392.702 2262.79,388.608 2262.6,384.811 C2262.6,384.342 2262.51,383.483 2262.32,382.061 C2262.13,380.624 2261.85,379.296 2261.74,378.061 C2261.65,377.499 2261.65,376.921 2261.65,376.358 C2261.65,375.686 2261.65,375.124 2261.74,374.452 C2261.95,373.217 2262.32,372.264 2262.98,371.796 C2263.84,371.124 2264.79,370.842 2265.84,370.842 C2266.12,370.936 2266.4,370.936 2266.7,370.936 C2268.12,371.124 2269.63,371.608 2271.24,372.467 C2272.87,373.311 2274.38,374.452 2275.81,375.592 C2277.24,376.733 2278.57,377.874 2279.62,379.014 C2280.65,380.155 2281.51,381.014 2281.99,381.874 C2283.51,384.342 2284.56,387.092 2285.12,390.124 C2285.4,391.842 2285.6,393.546 2285.6,395.264 C2285.6,396.499 2285.49,397.733 2285.4,398.967 C2284.93,401.905 2284.07,404.764 2282.84,407.514 C2281.6,410.264 2279.99,412.749 2278.09,414.921 C2276.1,417.108 2273.82,418.827 2271.15,420.249 C2268.49,421.671 2265.65,422.53 2262.6,422.811"/>
<path class="Harmony" d="M208.533,679.409 C204.83,679.878 201.314,680.737 197.892,681.971 C194.47,683.206 191.33,684.909 188.298,686.909 C185.252,688.909 182.502,691.19 180.127,693.753 C177.752,696.315 175.752,699.253 174.048,702.581 C172.33,705.909 171.189,709.425 170.533,713.128 C170.048,715.409 169.861,717.784 169.861,720.159 L169.861,720.831 C169.861,723.096 169.955,725.284 170.236,727.471 C170.533,729.846 171.095,732.221 171.861,734.409 C172.72,736.69 173.658,738.878 174.705,740.862 C175.752,742.862 177.08,744.675 178.611,746.284 C180.127,747.893 182.017,749.221 183.923,750.362 C185.83,751.503 188.002,752.362 190.377,752.846 C192.002,753.128 193.611,753.315 195.236,753.315 C196.08,753.315 197.033,753.315 198.08,753.221 C201.017,752.94 203.783,752.268 206.345,751.315 C208.908,750.362 211.283,749.221 213.283,747.893 C215.267,746.565 217.267,744.862 219.08,742.956 C220.877,741.065 222.595,738.971 224.017,736.878 C225.439,734.784 226.767,732.409 228.189,729.753 C230.377,725.378 231.423,721.675 231.423,718.737 C231.423,715.784 230.377,713.503 228.189,711.893 C226.955,710.846 224.877,710.19 222.111,709.706 C220.127,709.425 218.127,709.237 216.127,709.237 L215.658,709.237 L213.564,709.237 C210.627,709.331 207.861,709.8 205.205,710.659 C202.548,711.518 200.736,712.565 199.783,713.8 C199.502,714.268 199.22,714.643 198.939,715.034 C198.267,716.081 197.892,717.018 197.892,717.878 C197.892,719.112 198.752,719.971 200.361,720.44 C201.689,720.831 204.252,721.018 207.955,721.018 L208.814,721.018 C210.048,721.112 211.002,721.112 211.658,721.112 C215.564,721.112 217.939,721.581 218.689,722.628 C218.986,723.003 219.267,723.581 219.267,724.143 C219.267,724.721 219.173,725.284 219.08,725.862 C218.986,726.425 218.689,727.096 218.408,727.846 C218.127,728.612 217.845,729.19 217.548,729.659 C217.267,730.128 216.986,730.8 216.611,731.565 C216.22,732.315 215.939,732.706 215.845,732.893 C215.377,733.737 215.08,734.409 214.798,734.878 C214.517,735.362 214.127,735.831 213.658,736.503 C213.189,737.159 212.611,737.737 212.142,738.112 C210.142,739.628 207.955,740.675 205.392,741.159 L202.158,741.534 L201.783,741.534 C200.548,741.44 199.22,741.346 197.986,741.065 C195.611,740.581 193.236,739.721 191.048,738.393 C188.861,737.065 186.97,735.456 185.533,733.55 C184.111,731.565 182.783,729.19 181.83,726.518 C180.877,723.862 180.314,721.112 180.127,718.159 C180.033,717.112 180.033,716.175 180.033,715.128 C180.033,713.221 180.127,711.331 180.408,709.518 C180.877,706.768 181.736,704.096 183.064,701.628 C184.392,699.159 186.111,697.175 188.205,695.643 C190.767,693.659 193.892,692.221 197.502,691.284 C199.502,690.706 201.502,690.425 203.392,690.425 C204.736,690.425 206.064,690.612 207.298,690.893 C208.345,691.19 209.377,691.565 210.627,692.128 C211.861,692.706 212.892,693.268 213.845,693.846 C214.798,694.409 215.845,694.987 216.892,695.55 C217.939,696.128 218.986,696.596 219.923,696.784 C220.877,696.971 221.83,697.081 222.783,696.971 C223.736,696.878 224.673,696.409 225.627,695.55 C226.58,694.706 227.439,693.565 228.283,692.128 C228.767,691.284 229.048,690.425 229.048,689.565 C229.048,688.909 228.861,688.331 228.58,687.675 C227.814,686.237 226.58,685.003 224.877,683.956 C223.158,682.925 221.361,681.971 219.267,681.206 C217.173,680.44 215.173,679.971 213.189,679.69 C211.752,679.409 210.627,679.315 209.673,679.315 C209.189,679.315 208.814,679.315 208.533,679.409"/>
<path class="Harmony" d="M912.725,679.409 C909.022,679.878 905.506,680.737 902.084,681.971 C898.663,683.206 895.522,684.909 892.491,686.909 C889.444,688.909 886.694,691.19 884.319,693.753 C881.944,696.315 879.944,699.253 878.241,702.581 C876.522,705.909 875.381,709.425 874.725,713.128 C874.241,715.409 874.053,717.784 874.053,720.159 L874.053,720.831 C874.053,723.096 874.147,725.284 874.428,727.471 C874.725,729.846 875.288,732.221 876.053,734.409 C876.913,736.69 877.85,738.878 878.897,740.862 C879.944,742.862 881.272,744.675 882.803,746.284 C884.319,747.893 886.209,749.221 888.116,750.362 C890.022,751.503 892.194,752.362 894.569,752.846 C896.194,753.128 897.803,753.315 899.428,753.315 C900.272,753.315 901.225,753.315 902.272,753.221 C905.209,752.94 907.975,752.268 910.538,751.315 C913.1,750.362 915.475,749.221 917.475,747.893 C919.459,746.565 921.459,744.862 923.272,742.956 C925.069,741.065 926.788,738.971 928.209,736.878 C929.631,734.784 930.959,732.409 932.381,729.753 C934.569,725.378 935.616,721.675 935.616,718.737 C935.616,715.784 934.569,713.503 932.381,711.893 C931.147,710.846 929.069,710.19 926.303,709.706 C924.319,709.425 922.319,709.237 920.319,709.237 L919.85,709.237 L917.756,709.237 C914.819,709.331 912.053,709.8 909.397,710.659 C906.741,711.518 904.928,712.565 903.975,713.8 C903.694,714.268 903.413,714.643 903.131,715.034 C902.459,716.081 902.084,717.018 902.084,717.878 C902.084,719.112 902.944,719.971 904.553,720.44 C905.881,720.831 908.444,721.018 912.147,721.018 L913.006,721.018 C914.241,721.112 915.194,721.112 915.85,721.112 C919.756,721.112 922.131,721.581 922.881,722.628 C923.178,723.003 923.459,723.581 923.459,724.143 C923.459,724.721 923.366,725.284 923.272,725.862 C923.178,726.425 922.881,727.096 922.6,727.846 C922.319,728.612 922.038,729.19 921.741,729.659 C921.459,730.128 921.178,730.8 920.803,731.565 C920.413,732.315 920.131,732.706 920.038,732.893 C919.569,733.737 919.272,734.409 918.991,734.878 C918.709,735.362 918.319,735.831 917.85,736.503 C917.381,737.159 916.803,737.737 916.334,738.112 C914.334,739.628 912.147,740.675 909.584,741.159 L906.35,741.534 L905.975,741.534 C904.741,741.44 903.413,741.346 902.178,741.065 C899.803,740.581 897.428,739.721 895.241,738.393 C893.053,737.065 891.163,735.456 889.725,733.55 C888.303,731.565 886.975,729.19 886.022,726.518 C885.069,723.862 884.506,721.112 884.319,718.159 C884.225,717.112 884.225,716.175 884.225,715.128 C884.225,713.221 884.319,711.331 884.6,709.518 C885.069,706.768 885.928,704.096 887.256,701.628 C888.584,699.159 890.303,697.175 892.397,695.643 C894.959,693.659 898.084,692.221 901.694,691.284 C903.694,690.706 905.694,690.425 907.584,690.425 C908.928,690.425 910.256,690.612 911.491,690.893 C912.538,691.19 913.569,691.565 914.819,692.128 C916.053,692.706 917.084,693.268 918.038,693.846 C918.991,694.409 920.038,694.987 921.084,695.55 C922.131,696.128 923.178,696.596 924.116,696.784 C925.069,696.971 926.022,697.081 926.975,696.971 C927.928,696.878 928.866,696.409 929.819,695.55 C930.772,694.706 931.631,693.565 932.475,692.128 C932.959,691.284 933.241,690.425 933.241,689.565 C933.241,688.909 933.053,688.331 932.772,687.675 C932.006,686.237 930.772,685.003 929.069,683.956 C927.35,682.925 925.553,681.971 923.459,681.206 C921.366,680.44 919.366,679.971 917.381,679.69 C915.944,679.409 914.819,679.315 913.866,679.315 C913.381,679.315 913.006,679.315 912.725,679.409"/>
<path class="Harmony" d="M1616.92,679.409 C1613.21,679.878 1609.7,680.737 1606.28,681.971 C1602.85,683.206 1599.71,684.909 1596.68,686.909 C1593.64,688.909 1590.89,691.19 1588.51,693.753 C1586.14,696.315 1584.14,699.253 1582.43,702.581 C1580.71,705.909 1579.57,709.425 1578.92,713.128 C1578.43,715.409 1578.25,717.784 1578.25,720.159 L1578.25,720.831 C1578.25,723.096 1578.34,725.284 1578.62,727.471 C1578.92,729.846 1579.48,732.221 1580.25,734.409 C1581.1,736.69 1582.04,738.878 1583.09,740.862 C1584.14,742.862 1585.46,744.675 1587,746.284 C1588.51,747.893 1590.4,749.221 1592.31,750.362 C1594.21,751.503 1596.39,752.362 1598.76,752.846 C1600.39,753.128 1602,753.315 1603.62,753.315 C1604.46,753.315 1605.42,753.315 1606.46,753.221 C1609.4,752.94 1612.17,752.268 1614.73,751.315 C1617.29,750.362 1619.67,749.221 1621.67,747.893 C1623.65,746.565 1625.65,744.862 1627.46,742.956 C1629.26,741.065 1630.98,738.971 1632.4,736.878 C1633.82,734.784 1635.15,732.409 1636.57,729.753 C1638.76,725.378 1639.81,721.675 1639.81,718.737 C1639.81,715.784 1638.76,713.503 1636.57,711.893 C1635.34,710.846 1633.26,710.19 1630.5,709.706 C1628.51,709.425 1626.51,709.237 1624.51,709.237 L1624.04,709.237 L1621.95,709.237 C1619.01,709.331 1616.25,709.8 1613.59,710.659 C1610.93,711.518 1609.12,712.565 1608.17,713.8 C1607.89,714.268 1607.6,714.643 1607.32,715.034 C1606.65,716.081 1606.28,717.018 1606.28,717.878 C1606.28,719.112 1607.14,719.971 1608.75,720.44 C1610.07,720.831 1612.64,721.018 1616.34,721.018 L1617.2,721.018 C1618.43,721.112 1619.39,721.112 1620.04,721.112 C1623.95,721.112 1626.32,721.581 1627.07,722.628 C1627.37,723.003 1627.65,723.581 1627.65,724.143 C1627.65,724.721 1627.56,725.284 1627.46,725.862 C1627.37,726.425 1627.07,727.096 1626.79,727.846 C1626.51,728.612 1626.23,729.19 1625.93,729.659 C1625.65,730.128 1625.37,730.8 1625,731.565 C1624.6,732.315 1624.32,732.706 1624.23,732.893 C1623.76,733.737 1623.46,734.409 1623.18,734.878 C1622.9,735.362 1622.51,735.831 1622.04,736.503 C1621.57,737.159 1621,737.737 1620.53,738.112 C1618.53,739.628 1616.34,740.675 1613.78,741.159 L1610.54,741.534 L1610.17,741.534 C1608.93,741.44 1607.6,741.346 1606.37,741.065 C1604,740.581 1601.62,739.721 1599.43,738.393 C1597.25,737.065 1595.35,735.456 1593.92,733.55 C1592.5,731.565 1591.17,729.19 1590.21,726.518 C1589.26,723.862 1588.7,721.112 1588.51,718.159 C1588.42,717.112 1588.42,716.175 1588.42,715.128 C1588.42,713.221 1588.51,711.331 1588.79,709.518 C1589.26,706.768 1590.12,704.096 1591.45,701.628 C1592.78,699.159 1594.5,697.175 1596.59,695.643 C1599.15,693.659 1602.28,692.221 1605.89,691.284 C1607.89,690.706 1609.89,690.425 1611.78,690.425 C1613.12,690.425 1614.45,690.612 1615.68,690.893 C1616.73,691.19 1617.76,691.565 1619.01,692.128 C1620.25,692.706 1621.28,693.268 1622.23,693.846 C1623.18,694.409 1624.23,694.987 1625.28,695.55 C1626.32,696.128 1627.37,696.596 1628.31,696.784 C1629.26,696.971 1630.21,697.081 1631.17,696.971 C1632.12,696.878 1633.06,696.409 1634.01,695.55 C1634.96,694.706 1635.82,693.565 1636.67,692.128 C1637.15,691.284 1637.43,690.425 1637.43,689.565 C1637.43,688.909 1637.25,688.331 1636.96,687.675 C1636.2,686.237 1634.96,685.003 1633.26,683.956 C1631.54,682.925 1629.75,681.971 1627.65,681.206 C1625.56,680.44 1623.56,679.971 1621.57,679.69 C1620.14,679.409 1619.01,679.315 1618.06,679.315 C1617.57,679.315 1617.2,679.315 1616.92,679.409"/>
<path class="Harmony" d="M2321.11,679.409 C2317.41,679.878 2313.89,680.737 2310.47,681.971 C2307.05,683.206 2303.91,684.909 2300.88,686.909 C2297.83,688.909 2295.08,691.19 2292.7,693.753 C2290.33,696.315 2288.33,699.253 2286.63,702.581 C2284.91,705.909 2283.77,709.425 2283.11,713.128 C2282.63,715.409 2282.44,717.784 2282.44,720.159 L2282.44,720.831 C2282.44,723.096 2282.53,725.284 2282.81,727.471 C2283.11,729.846 2283.67,732.221 2284.44,734.409 C2285.3,736.69 2286.23,738.878 2287.28,740.862 C2288.33,742.862 2289.66,744.675 2291.19,746.284 C2292.7,747.893 2294.59,749.221 2296.5,750.362 C2298.41,751.503 2300.58,752.362 2302.95,752.846 C2304.58,753.128 2306.19,753.315 2307.81,753.315 C2308.66,753.315 2309.61,753.315 2310.66,753.221 C2313.59,752.94 2316.36,752.268 2318.92,751.315 C2321.48,750.362 2323.86,749.221 2325.86,747.893 C2327.84,746.565 2329.84,744.862 2331.66,742.956 C2333.45,741.065 2335.17,738.971 2336.59,736.878 C2338.02,734.784 2339.34,732.409 2340.77,729.753 C2342.95,725.378 2344,721.675 2344,718.737 C2344,715.784 2342.95,713.503 2340.77,711.893 C2339.53,710.846 2337.45,710.19 2334.69,709.706 C2332.7,709.425 2330.7,709.237 2328.7,709.237 L2328.23,709.237 L2326.14,709.237 C2323.2,709.331 2320.44,709.8 2317.78,710.659 C2315.13,711.518 2313.31,712.565 2312.36,713.8 C2312.08,714.268 2311.8,714.643 2311.52,715.034 C2310.84,716.081 2310.47,717.018 2310.47,717.878 C2310.47,719.112 2311.33,719.971 2312.94,720.44 C2314.27,720.831 2316.83,721.018 2320.53,721.018 L2321.39,721.018 C2322.63,721.112 2323.58,721.112 2324.23,721.112 C2328.14,721.112 2330.52,721.581 2331.27,722.628 C2331.56,723.003 2331.84,723.581 2331.84,724.143 C2331.84,724.721 2331.75,725.284 2331.66,725.862 C2331.56,726.425 2331.27,727.096 2330.98,727.846 C2330.7,728.612 2330.42,729.19 2330.13,729.659 C2329.84,730.128 2329.56,730.8 2329.19,731.565 C2328.8,732.315 2328.52,732.706 2328.42,732.893 C2327.95,733.737 2327.66,734.409 2327.38,734.878 C2327.09,735.362 2326.7,735.831 2326.23,736.503 C2325.77,737.159 2325.19,737.737 2324.72,738.112 C2322.72,739.628 2320.53,740.675 2317.97,741.159 L2314.73,741.534 L2314.36,741.534 C2313.13,741.44 2311.8,741.346 2310.56,741.065 C2308.19,740.581 2305.81,739.721 2303.63,738.393 C2301.44,737.065 2299.55,735.456 2298.11,733.55 C2296.69,731.565 2295.36,729.19 2294.41,726.518 C2293.45,723.862 2292.89,721.112 2292.7,718.159 C2292.61,717.112 2292.61,716.175 2292.61,715.128 C2292.61,713.221 2292.7,711.331 2292.98,709.518 C2293.45,706.768 2294.31,704.096 2295.64,701.628 C2296.97,699.159 2298.69,697.175 2300.78,695.643 C2303.34,693.659 2306.47,692.221 2310.08,691.284 C2312.08,690.706 2314.08,690.425 2315.97,690.425 C2317.31,690.425 2318.64,690.612 2319.88,690.893 C2320.92,691.19 2321.95,691.565 2323.2,692.128 C2324.44,692.706 2325.47,693.268 2326.42,693.846 C2327.38,694.409 2328.42,694.987 2329.47,695.55 C2330.52,696.128 2331.56,696.596 2332.5,696.784 C2333.45,696.971 2334.41,697.081 2335.36,696.971 C2336.31,696.878 2337.25,696.409 2338.2,695.55 C2339.16,694.706 2340.02,693.565 2340.86,692.128 C2341.34,691.284 2341.63,690.425 2341.63,689.565 C2341.63,688.909 2341.44,688.331 2341.16,687.675 C2340.39,686.237 2339.16,685.003 2337.45,683.956 C2335.73,682.925 2333.94,681.971 2331.84,681.206 C2329.75,680.44 2327.75,679.971 2325.77,679.69 C2324.33,679.409 2323.2,679.315 2322.25,679.315 C2321.77,679.315 2321.39,679.315 2321.11,679.409"/>
<path class="Harmony" d="M2623.78,679.018 C2623.31,679.112 2622.54,679.206 2621.31,679.315 C2620.07,679.409 2619.12,679.596 2618.46,679.69 C2617.79,679.784 2616.84,679.878 2615.7,680.065 C2614.56,680.253 2613.71,680.55 2612.95,680.831 C2612.18,681.112 2611.34,681.487 2610.57,681.971 C2609.81,682.44 2609.15,682.925 2608.67,683.581 C2608.01,684.253 2607.53,685.003 2607.15,685.768 C2606.78,686.534 2606.49,687.471 2606.39,688.425 C2606.29,689.096 2606.29,689.753 2606.29,690.425 L2606.29,690.987 C2606.39,691.659 2606.39,692.612 2606.49,693.753 C2606.59,694.893 2606.59,695.831 2606.59,696.503 C2606.59,707.331 2606.87,717.971 2607.34,728.518 C2607.43,729.081 2607.43,729.659 2607.43,730.331 C2607.34,732.315 2607.24,734.971 2607.06,738.112 C2606.78,741.815 2606.59,744.581 2606.59,746.378 L2606.59,746.956 L2606.59,748.565 C2606.59,749.034 2606.78,749.518 2606.87,750.081 C2606.96,750.659 2607.15,751.128 2607.43,751.409 C2607.73,751.706 2608.01,751.987 2608.48,752.268 C2608.87,752.456 2609.34,752.55 2609.9,752.55 L2610.2,752.55 C2613.51,752.456 2616.84,751.8 2620.17,750.565 C2623.49,749.331 2626.64,747.8 2629.57,745.815 C2632.53,743.815 2635.28,741.44 2637.93,738.69 C2640.59,735.925 2642.87,733.081 2644.78,730.034 C2646.67,727.003 2648.29,723.862 2649.53,720.534 C2650.76,717.206 2651.42,713.893 2651.62,710.753 C2651.71,710.081 2651.71,709.331 2651.71,708.659 C2651.71,706.862 2651.53,704.956 2651.14,703.065 C2650.67,700.393 2649.9,697.737 2648.85,695.268 C2647.81,692.8 2646.48,690.518 2644.78,688.331 C2643.06,686.143 2641.17,684.346 2639.07,682.831 C2636.98,681.3 2634.7,680.159 2632.04,679.503 C2630.34,679.018 2628.53,678.831 2626.73,678.831 C2625.78,678.831 2624.82,678.925 2623.78,679.018 M2617.89,740.393 C2617.89,737.643 2617.98,733.643 2618.07,728.518 C2618.17,724.44 2618.26,720.534 2618.26,717.018 C2618.26,716.175 2618.17,715.315 2618.17,714.456 C2618.17,710.284 2618.07,706.19 2617.89,702.393 C2617.89,701.925 2617.79,701.065 2617.6,699.643 C2617.42,698.206 2617.14,696.878 2617.03,695.643 C2616.93,695.081 2616.93,694.503 2616.93,693.94 C2616.93,693.268 2616.93,692.706 2617.03,692.034 C2617.23,690.8 2617.6,689.846 2618.26,689.378 C2619.12,688.706 2620.07,688.425 2621.12,688.425 C2621.4,688.518 2621.68,688.518 2621.98,688.518 C2623.4,688.706 2624.92,689.19 2626.53,690.05 C2628.15,690.893 2629.67,692.034 2631.09,693.175 C2632.53,694.315 2633.85,695.456 2634.9,696.596 C2635.93,697.737 2636.79,698.596 2637.28,699.456 C2638.79,701.925 2639.84,704.675 2640.4,707.706 C2640.68,709.425 2640.89,711.128 2640.89,712.846 C2640.89,714.081 2640.78,715.315 2640.68,716.55 C2640.21,719.487 2639.35,722.346 2638.12,725.096 C2636.89,727.846 2635.28,730.331 2633.37,732.503 C2631.39,734.69 2629.1,736.409 2626.43,737.831 C2623.78,739.253 2620.93,740.112 2617.89,740.393"/>
<path class="Harmony" d="M208.533,989.448 C204.83,989.917 201.314,990.776 197.892,992.011 C194.47,993.245 191.33,994.948 188.298,996.948 C185.252,998.948 182.502,1001.23 180.127,1003.79 C177.752,1006.35 175.752,1009.29 174.048,1012.62 C172.33,1015.95 171.189,1019.46 170.533,1023.17 C170.048,1025.45 169.861,1027.82 169.861,1030.2 L169.861,1030.87 C169.861,1033.14 169.955,1035.32 170.236,1037.51 C170.533,1039.89 171.095,1042.26 171.861,1044.45 C172.72,1046.73 173.658,1048.92 174.705,1050.9 C175.752,1052.9 177.08,1054.71 178.611,1056.32 C180.127,1057.93 182.017,1059.26 183.923,1060.4 C185.83,1061.54 188.002,1062.4 190.377,1062.89 C192.002,1063.17 193.611,1063.35 195.236,1063.35 C196.08,1063.35 197.033,1063.35 198.08,1063.26 C201.017,1062.98 203.783,1062.31 206.345,1061.35 C208.908,1060.4 211.283,1059.26 213.283,1057.93 C215.267,1056.6 217.267,1054.9 219.08,1053 C220.877,1051.1 222.595,1049.01 224.017,1046.92 C225.439,1044.82 226.767,1042.45 228.189,1039.79 C230.377,1035.42 231.423,1031.71 231.423,1028.78 C231.423,1025.82 230.377,1023.54 228.189,1021.93 C226.955,1020.89 224.877,1020.23 222.111,1019.75 C220.127,1019.46 218.127,1019.28 216.127,1019.28 L215.658,1019.28 L213.564,1019.28 C210.627,1019.37 207.861,1019.84 205.205,1020.7 C202.548,1021.56 200.736,1022.6 199.783,1023.84 C199.502,1024.31 199.22,1024.68 198.939,1025.07 C198.267,1026.12 197.892,1027.06 197.892,1027.92 C197.892,1029.15 198.752,1030.01 200.361,1030.48 C201.689,1030.87 204.252,1031.06 207.955,1031.06 L208.814,1031.06 C210.048,1031.15 211.002,1031.15 211.658,1031.15 C215.564,1031.15 217.939,1031.62 218.689,1032.67 C218.986,1033.04 219.267,1033.62 219.267,1034.18 C219.267,1034.76 219.173,1035.32 219.08,1035.9 C218.986,1036.46 218.689,1037.14 218.408,1037.89 C218.127,1038.65 217.845,1039.23 217.548,1039.7 C217.267,1040.17 216.986,1040.84 216.611,1041.6 C216.22,1042.35 215.939,1042.75 215.845,1042.93 C215.377,1043.78 215.08,1044.45 214.798,1044.92 C214.517,1045.4 214.127,1045.87 213.658,1046.54 C213.189,1047.2 212.611,1047.78 212.142,1048.15 C210.142,1049.67 207.955,1050.71 205.392,1051.2 L202.158,1051.57 L201.783,1051.57 C200.548,1051.48 199.22,1051.39 197.986,1051.1 C195.611,1050.62 193.236,1049.76 191.048,1048.43 C188.861,1047.1 186.97,1045.5 185.533,1043.59 C184.111,1041.6 182.783,1039.23 181.83,1036.56 C180.877,1033.9 180.314,1031.15 180.127,1028.2 C180.033,1027.15 180.033,1026.21 180.033,1025.17 C180.033,1023.26 180.127,1021.37 180.408,1019.56 C180.877,1016.81 181.736,1014.14 183.064,1011.67 C184.392,1009.2 186.111,1007.21 188.205,1005.68 C190.767,1003.7 193.892,1002.26 197.502,1001.32 C199.502,1000.75 201.502,1000.46 203.392,1000.46 C204.736,1000.46 206.064,1000.65 207.298,1000.93 C208.345,1001.23 209.377,1001.6 210.627,1002.17 C211.861,1002.75 212.892,1003.31 213.845,1003.89 C214.798,1004.45 215.845,1005.03 216.892,1005.59 C217.939,1006.17 218.986,1006.64 219.923,1006.82 C220.877,1007.01 221.83,1007.12 222.783,1007.01 C223.736,1006.92 224.673,1006.45 225.627,1005.59 C226.58,1004.75 227.439,1003.6 228.283,1002.17 C228.767,1001.32 229.048,1000.46 229.048,999.605 C229.048,998.948 228.861,998.37 228.58,997.714 C227.814,996.276 226.58,995.042 224.877,993.995 C223.158,992.964 221.361,992.011 219.267,991.245 C217.173,990.48 215.173,990.011 213.189,989.73 C211.752,989.448 210.627,989.355 209.673,989.355 C209.189,989.355 208.814,989.355 208.533,989.448"/>
<path class="Harmony" d="M886.126,989.245 C882.892,989.73 879.657,990.683 876.532,992.198 C873.392,993.714 870.532,995.62 867.97,997.901 C865.407,1000.18 863.032,1002.75 860.845,1005.68 C858.657,1008.64 856.954,1011.67 855.532,1014.81 C854.11,1017.95 853.157,1021.26 852.579,1024.78 C852.298,1026.68 852.11,1028.59 852.11,1030.39 C852.11,1031.9 852.204,1033.43 852.392,1034.85 C852.876,1037.79 853.72,1040.75 855.048,1043.5 C856.392,1046.26 857.907,1048.82 859.798,1051.2 C861.704,1053.57 864.079,1055.56 866.642,1057.37 C869.204,1059.17 871.767,1060.51 874.532,1061.45 C877.095,1062.31 879.751,1062.78 882.704,1062.78 L882.985,1062.78 L883.267,1062.78 C886.407,1062.68 889.439,1062.12 892.392,1060.98 C893.251,1060.7 894.095,1060.4 894.954,1060.03 C895.814,1059.65 896.767,1059.17 898.001,1058.51 C899.235,1057.84 900.282,1057.28 901.314,1056.6 C902.36,1055.95 903.314,1055.18 904.267,1054.32 C905.22,1053.48 905.97,1052.53 906.454,1051.67 C906.923,1050.81 907.204,1049.96 907.204,1048.92 C907.11,1047.87 906.735,1046.82 906.064,1045.78 C905.782,1045.31 905.314,1045.01 904.829,1044.82 C904.36,1044.64 903.782,1044.54 903.314,1044.64 C902.845,1044.73 902.36,1044.92 901.798,1045.21 C901.22,1045.5 900.657,1045.78 900.173,1045.96 C899.704,1046.15 899.235,1046.45 898.657,1046.82 C898.095,1047.2 897.704,1047.5 897.423,1047.59 C894.095,1049.39 890.876,1050.34 887.548,1050.34 C884.501,1050.34 881.564,1049.57 878.61,1048.06 C875.86,1046.64 873.298,1045.01 871.017,1043.12 C868.735,1041.21 867.017,1039.12 865.782,1036.75 C864.751,1034.57 863.892,1032.29 863.407,1029.92 C862.939,1027.73 862.751,1025.64 862.751,1023.45 L862.751,1022.7 C862.751,1020.32 863.126,1017.95 863.892,1015.57 C864.642,1013.2 865.595,1011.01 866.829,1009.1 C868.064,1007.21 869.782,1005.5 871.767,1004.07 C873.767,1002.65 876.048,1001.7 878.61,1001.23 C879.189,1001.03 879.845,1000.93 880.517,1000.93 C880.985,1001.03 881.47,1001.03 881.939,1001.12 C883.173,1001.32 884.501,1001.6 885.829,1001.98 C887.157,1002.26 888.501,1002.75 889.829,1003.4 L893.814,1005.12 C895.142,1005.68 896.47,1006.07 897.704,1006.54 C898.939,1007.01 900.173,1007.21 901.407,1007.31 C901.798,1007.4 902.173,1007.4 902.454,1007.4 C903.22,1007.31 903.985,1007.21 904.642,1007.12 C905.595,1006.92 906.454,1006.35 907.298,1005.5 C908.157,1004.64 908.923,1003.6 909.392,1002.17 C909.579,1001.51 909.673,1000.93 909.673,1000.37 C909.782,999.886 909.673,999.417 909.485,998.948 C909.298,998.464 909.017,998.089 908.735,997.714 C908.439,997.23 908.064,996.948 907.595,996.573 C907.11,996.183 906.735,995.808 906.36,995.526 C905.97,995.245 905.407,994.855 904.923,994.573 C899.032,990.87 893.626,989.058 888.595,989.058 C887.735,989.058 886.97,989.151 886.126,989.245"/>
<path class="Harmony" d="M1566.81,989.058 C1566.34,989.151 1565.58,989.245 1564.34,989.355 C1563.11,989.448 1562.15,989.636 1561.5,989.73 C1560.83,989.823 1559.87,989.917 1558.73,990.105 C1557.59,990.292 1556.75,990.589 1555.98,990.87 C1555.22,991.151 1554.37,991.526 1553.61,992.011 C1552.84,992.48 1552.19,992.964 1551.7,993.62 C1551.04,994.292 1550.56,995.042 1550.19,995.808 C1549.81,996.573 1549.53,997.511 1549.42,998.464 C1549.33,999.136 1549.33,999.792 1549.33,1000.46 L1549.33,1001.03 C1549.42,1001.7 1549.42,1002.65 1549.53,1003.79 C1549.62,1004.93 1549.62,1005.87 1549.62,1006.54 C1549.62,1017.37 1549.9,1028.01 1550.37,1038.56 C1550.47,1039.12 1550.47,1039.7 1550.47,1040.37 C1550.37,1042.35 1550.28,1045.01 1550.09,1048.15 C1549.81,1051.85 1549.62,1054.62 1549.62,1056.42 L1549.62,1057 L1549.62,1058.6 C1549.62,1059.07 1549.81,1059.56 1549.9,1060.12 C1550,1060.7 1550.19,1061.17 1550.47,1061.45 C1550.76,1061.75 1551.04,1062.03 1551.51,1062.31 C1551.9,1062.5 1552.37,1062.59 1552.94,1062.59 L1553.23,1062.59 C1556.54,1062.5 1559.87,1061.84 1563.2,1060.6 C1566.53,1059.37 1569.67,1057.84 1572.61,1055.85 C1575.56,1053.85 1578.31,1051.48 1580.97,1048.73 C1583.62,1045.96 1585.9,1043.12 1587.81,1040.07 C1589.7,1037.04 1591.33,1033.9 1592.56,1030.57 C1593.79,1027.25 1594.45,1023.93 1594.65,1020.79 C1594.75,1020.12 1594.75,1019.37 1594.75,1018.7 C1594.75,1016.9 1594.56,1015 1594.17,1013.1 C1593.7,1010.43 1592.94,1007.78 1591.89,1005.31 C1590.84,1002.84 1589.51,1000.56 1587.81,998.37 C1586.09,996.183 1584.2,994.386 1582.11,992.87 C1580.01,991.339 1577.73,990.198 1575.08,989.542 C1573.37,989.058 1571.56,988.87 1569.76,988.87 C1568.81,988.87 1567.86,988.964 1566.81,989.058 M1560.92,1050.43 C1560.92,1047.68 1561.01,1043.68 1561.11,1038.56 C1561.2,1034.48 1561.29,1030.57 1561.29,1027.06 C1561.29,1026.21 1561.2,1025.35 1561.2,1024.5 C1561.2,1020.32 1561.11,1016.23 1560.92,1012.43 C1560.92,1011.96 1560.83,1011.1 1560.64,1009.68 C1560.45,1008.25 1560.17,1006.92 1560.06,1005.68 C1559.97,1005.12 1559.97,1004.54 1559.97,1003.98 C1559.97,1003.31 1559.97,1002.75 1560.06,1002.07 C1560.26,1000.84 1560.64,999.886 1561.29,999.417 C1562.15,998.745 1563.11,998.464 1564.15,998.464 C1564.44,998.558 1564.72,998.558 1565.01,998.558 C1566.44,998.745 1567.95,999.23 1569.56,1000.09 C1571.19,1000.93 1572.7,1002.07 1574.12,1003.21 C1575.56,1004.35 1576.89,1005.5 1577.94,1006.64 C1578.97,1007.78 1579.83,1008.64 1580.31,1009.5 C1581.83,1011.96 1582.87,1014.71 1583.44,1017.75 C1583.72,1019.46 1583.92,1021.17 1583.92,1022.89 C1583.92,1024.12 1583.81,1025.35 1583.72,1026.59 C1583.25,1029.53 1582.39,1032.39 1581.15,1035.14 C1579.92,1037.89 1578.31,1040.37 1576.4,1042.54 C1574.42,1044.73 1572.14,1046.45 1569.47,1047.87 C1566.81,1049.29 1563.97,1050.15 1560.92,1050.43"/>
<path class="Harmony" d="M2285.37,989.448 C2281.67,989.917 2278.15,990.776 2274.73,992.011 C2271.31,993.245 2268.17,994.948 2265.13,996.948 C2262.09,998.948 2259.34,1001.23 2256.96,1003.79 C2254.59,1006.35 2252.59,1009.29 2250.88,1012.62 C2249.17,1015.95 2248.03,1019.46 2247.37,1023.17 C2246.88,1025.45 2246.7,1027.82 2246.7,1030.2 L2246.7,1030.87 C2246.7,1033.14 2246.79,1035.32 2247.07,1037.51 C2247.37,1039.89 2247.93,1042.26 2248.7,1044.45 C2249.56,1046.73 2250.49,1048.92 2251.54,1050.9 C2252.59,1052.9 2253.92,1054.71 2255.45,1056.32 C2256.96,1057.93 2258.85,1059.26 2260.76,1060.4 C2262.67,1061.54 2264.84,1062.4 2267.21,1062.89 C2268.84,1063.17 2270.45,1063.35 2272.07,1063.35 C2272.92,1063.35 2273.87,1063.35 2274.92,1063.26 C2277.85,1062.98 2280.62,1062.31 2283.18,1061.35 C2285.74,1060.4 2288.12,1059.26 2290.12,1057.93 C2292.1,1056.6 2294.1,1054.9 2295.92,1053 C2297.71,1051.1 2299.43,1049.01 2300.85,1046.92 C2302.28,1044.82 2303.6,1042.45 2305.03,1039.79 C2307.21,1035.42 2308.26,1031.71 2308.26,1028.78 C2308.26,1025.82 2307.21,1023.54 2305.03,1021.93 C2303.79,1020.89 2301.71,1020.23 2298.95,1019.75 C2296.96,1019.46 2294.96,1019.28 2292.96,1019.28 L2292.49,1019.28 L2290.4,1019.28 C2287.46,1019.37 2284.7,1019.84 2282.04,1020.7 C2279.38,1021.56 2277.57,1022.6 2276.62,1023.84 C2276.34,1024.31 2276.06,1024.68 2275.78,1025.07 C2275.1,1026.12 2274.73,1027.06 2274.73,1027.92 C2274.73,1029.15 2275.59,1030.01 2277.2,1030.48 C2278.53,1030.87 2281.09,1031.06 2284.79,1031.06 L2285.65,1031.06 C2286.88,1031.15 2287.84,1031.15 2288.49,1031.15 C2292.4,1031.15 2294.78,1031.62 2295.53,1032.67 C2295.82,1033.04 2296.1,1033.62 2296.1,1034.18 C2296.1,1034.76 2296.01,1035.32 2295.92,1035.9 C2295.82,1036.46 2295.53,1037.14 2295.24,1037.89 C2294.96,1038.65 2294.68,1039.23 2294.38,1039.7 C2294.1,1040.17 2293.82,1040.84 2293.45,1041.6 C2293.06,1042.35 2292.78,1042.75 2292.68,1042.93 C2292.21,1043.78 2291.92,1044.45 2291.63,1044.92 C2291.35,1045.4 2290.96,1045.87 2290.49,1046.54 C2290.03,1047.2 2289.45,1047.78 2288.98,1048.15 C2286.98,1049.67 2284.79,1050.71 2282.23,1051.2 L2278.99,1051.57 L2278.62,1051.57 C2277.38,1051.48 2276.06,1051.39 2274.82,1051.1 C2272.45,1050.62 2270.07,1049.76 2267.88,1048.43 C2265.7,1047.1 2263.81,1045.5 2262.37,1043.59 C2260.95,1041.6 2259.62,1039.23 2258.67,1036.56 C2257.71,1033.9 2257.15,1031.15 2256.96,1028.2 C2256.87,1027.15 2256.87,1026.21 2256.87,1025.17 C2256.87,1023.26 2256.96,1021.37 2257.24,1019.56 C2257.71,1016.81 2258.57,1014.14 2259.9,1011.67 C2261.23,1009.2 2262.95,1007.21 2265.04,1005.68 C2267.6,1003.7 2270.73,1002.26 2274.34,1001.32 C2276.34,1000.75 2278.34,1000.46 2280.23,1000.46 C2281.57,1000.46 2282.9,1000.65 2284.13,1000.93 C2285.18,1001.23 2286.21,1001.6 2287.46,1002.17 C2288.7,1002.75 2289.73,1003.31 2290.68,1003.89 C2291.63,1004.45 2292.68,1005.03 2293.73,1005.59 C2294.78,1006.17 2295.82,1006.64 2296.76,1006.82 C2297.71,1007.01 2298.67,1007.12 2299.62,1007.01 C2300.57,1006.92 2301.51,1006.45 2302.46,1005.59 C2303.42,1004.75 2304.28,1003.6 2305.12,1002.17 C2305.6,1001.32 2305.88,1000.46 2305.88,999.605 C2305.88,998.948 2305.7,998.37 2305.42,997.714 C2304.65,996.276 2303.42,995.042 2301.71,993.995 C2299.99,992.964 2298.2,992.011 2296.1,991.245 C2294.01,990.48 2292.01,990.011 2290.03,989.73 C2288.59,989.448 2287.46,989.355 2286.51,989.355 C2286.03,989.355 2285.65,989.355 2285.37,989.448"/>
</svg>
