<?xml version="1.0" encoding="UTF-8" standalone="no"?>
<svg width="2976.38px" height="793.699px" viewBox="0 0 2976.38 793.699"
 xmlns="http://www.w3.org/2000/svg" xmlns:xlink="http://www.w3.org/1999/xlink" version="1.2" baseProfile="tiny">
<title>HogEyedMan</title>
<desc>Generated by MuseScore 3.6.2</desc>
<polyline class="StaffLines" fill="none" stroke="#000000" stroke-width="2.73" stroke-linejoin="bevel" points="138.189,187.795 2933.86,187.795"/>
<polyline class="StaffLines" fill="none" stroke="#000000" stroke-width="2.73" stroke-linejoin="bevel" points="138.189,212.598 2933.86,212.598"/>
<polyline class="StaffLines" fill="none" stroke="#000000" stroke-width="2.73" stroke-linejoin="bevel" points="138.189,237.402 2933.86,237.402"/>
<polyline class="StaffLines" fill="none" stroke="#000000" stroke-width="2.73" stroke-linejoin="bevel" points="138.189,262.205 2933.86,262.205"/>
<polyline class="StaffLines" fill="none" stroke="#000000" stroke-width="2.73" stroke-linejoin="bevel" points="138.189,287.008 2933.86,287.008"/>
<polyline class="StaffLines" fill="none" stroke="#000000" stroke-width="2.73" stroke-linejoin="bevel" points="14.1732,497.835 2933.86,497.835"/>
<polyline class="StaffLines" fill="none" stroke="#000000" stroke-width="2.73" stroke-linejoin="bevel" points="14.1732,522.638 2933.86,522.638"/>
<polyline class="StaffLines" fill="none" stroke="#000000" stroke-width="2.73" stroke-linejoin="bevel" points="14.1732,547.441 2933.86,547.441"/>
<polyline class="StaffLines" fill="none" stroke="#000000" stroke-width="2.73" stroke-linejoin="bevel" points="14.1732,572.244 2933.86,572.244"/>
<polyline class="StaffLines" fill="none" stroke="#000000" stroke-width="2.73" stroke-linejoin="bevel" points="14.1732,597.047 2933.86,597.047"/>
<path class="MeasureNumber" d="M29.892,434.556 C29.2045,437.713 28.4857,439.635 27.3295,441.869 C25.3764,445.51 23.2982,447.15 20.4857,447.15 C19.3295,447.15 18.5795,446.666 18.5795,445.947 C18.5795,445.666 18.6576,445.556 18.9701,445.072 C19.3764,444.556 19.5795,444.072 19.5795,443.51 C19.5795,442.197 18.5326,441.197 17.1732,441.197 C15.5795,441.197 14.4545,442.385 14.4545,444.15 C14.4545,446.869 17.017,448.822 20.5795,448.822 C23.767,448.822 26.7357,447.431 29.1732,444.635 C32.6576,440.744 34.9232,434.947 34.9232,430.025 C34.9232,423.791 31.9232,420.072 26.9701,420.072 C24.017,420.072 21.2514,421.4 19.4076,423.666 C17.6107,425.869 16.5795,428.666 16.5795,431.275 C16.5795,435.072 19.4857,437.947 23.3764,437.947 C26.017,437.947 28.0482,436.869 29.892,434.556 M26.9389,421.76 C29.4857,421.76 31.1264,423.791 31.1264,426.994 C31.1264,431.947 28.4076,435.588 24.7357,435.588 C22.2045,435.588 20.8139,433.869 20.8139,430.869 C20.8139,428.51 21.3764,426.385 22.4545,424.588 C23.6576,422.666 25.0951,421.76 26.9389,421.76"/>
<polyline class="BarLine" fill="none" stroke="#000000" stroke-width="4.46" stroke-linejoin="bevel" points="559.332,186.431 559.332,288.372"/>
<polyline class="BarLine" fill="none" stroke="#000000" stroke-width="4.46" stroke-linejoin="bevel" points="892.191,186.431 892.191,288.372"/>
<polyline class="BarLine" fill="none" stroke="#000000" stroke-width="4.46" stroke-linejoin="bevel" points="1225.05,186.431 1225.05,288.372"/>
<polyline class="BarLine" fill="none" stroke="#000000" stroke-width="4.46" stroke-linejoin="bevel" points="1557.91,186.431 1557.91,288.372"/>
<polyline class="BarLine" fill="none" stroke="#000000" stroke-width="4.46" stroke-linejoin="bevel" points="1890.77,186.431 1890.77,288.372"/>
<polyline class="BarLine" fill="none" stroke="#000000" stroke-width="4.46" stroke-linejoin="bevel" points="2223.63,186.431 2223.63,288.372"/>
<polyline class="BarLine" fill="none" stroke="#000000" stroke-width="4.46" stroke-linejoin="bevel" points="2556.49,186.431 2556.49,288.372"/>
<path class="BarLine" transform="matrix(0.992126,0,0,0.992126,2887.12,225)" d="M10.4063,0 C10.4063,-2.90625 8.09375,-5.29688 5.20313,-5.29688 C2.29688,-5.29688 0,-2.90625 0,0 C0,2.90625 2.29688,5.29688 5.20313,5.29688 C8.09375,5.29688 10.4063,2.90625 10.4063,0"/>
<path class="BarLine" transform="matrix(0.992126,0,0,0.992126,2887.12,249.803)" d="M10.4063,0 C10.4063,-2.90625 8.09375,-5.29688 5.20313,-5.29688 C2.29688,-5.29688 0,-2.90625 0,0 C0,2.90625 2.29688,5.29688 5.20313,5.29688 C8.09375,5.29688 10.4063,2.90625 10.4063,0"/>
<polyline class="BarLine" fill="none" stroke="#000000" stroke-width="4.46" stroke-linejoin="bevel" points="2909.64,186.431 2909.64,288.372"/>
<polyline class="BarLine" fill="none" stroke="#000000" stroke-width="13.64" stroke-linejoin="bevel" points="2927,186.431 2927,288.372"/>
<polyline class="BarLine" fill="none" stroke="#000000" stroke-width="4.46" stroke-linejoin="bevel" points="450.818,496.47 450.818,598.411"/>
<polyline class="BarLine" fill="none" stroke="#000000" stroke-width="4.46" stroke-linejoin="bevel" points="799.18,496.47 799.18,598.411"/>
<polyline class="BarLine" fill="none" stroke="#000000" stroke-width="4.46" stroke-linejoin="bevel" points="1147.54,496.47 1147.54,598.411"/>
<polyline class="BarLine" fill="none" stroke="#000000" stroke-width="4.46" stroke-linejoin="bevel" points="1495.9,496.47 1495.9,598.411"/>
<polyline class="BarLine" fill="none" stroke="#000000" stroke-width="4.46" stroke-linejoin="bevel" points="1844.26,496.47 1844.26,598.411"/>
<polyline class="BarLine" fill="none" stroke="#000000" stroke-width="4.46" stroke-linejoin="bevel" points="2192.62,496.47 2192.62,598.411"/>
<polyline class="BarLine" fill="none" stroke="#000000" stroke-width="4.46" stroke-linejoin="bevel" points="2540.99,496.47 2540.99,598.411"/>
<path class="BarLine" transform="matrix(0.992126,0,0,0.992126,2887.12,535.039)" d="M10.4063,0 C10.4063,-2.90625 8.09375,-5.29688 5.20313,-5.29688 C2.29688,-5.29688 0,-2.90625 0,0 C0,2.90625 2.29688,5.29688 5.20313,5.29688 C8.09375,5.29688 10.4063,2.90625 10.4063,0"/>
<path class="BarLine" transform="matrix(0.992126,0,0,0.992126,2887.12,559.843)" d="M10.4063,0 C10.4063,-2.90625 8.09375,-5.29688 5.20313,-5.29688 C2.29688,-5.29688 0,-2.90625 0,0 C0,2.90625 2.29688,5.29688 5.20313,5.29688 C8.09375,5.29688 10.4063,2.90625 10.4063,0"/>
<polyline class="BarLine" fill="none" stroke="#000000" stroke-width="4.46" stroke-linejoin="bevel" points="2909.64,496.47 2909.64,598.411"/>
<polyline class="BarLine" fill="none" stroke="#000000" stroke-width="13.64" stroke-linejoin="bevel" points="2927,496.47 2927,598.411"/>
<path class="Note" transform="matrix(0.992126,0,0,0.992126,283.52,237.402)" d="M64.5,-22 L27.5,22 L12.5,22 L49.5,-22 L64.5,-22 M43,-25 L0,25 L35,25 L78,-25 L43,-25 "/>
<path class="Note" transform="matrix(0.992126,0,0,0.992126,409.024,237.402)" d="M64.5,-22 L27.5,22 L12.5,22 L49.5,-22 L64.5,-22 M43,-25 L0,25 L35,25 L78,-25 L43,-25 "/>
<path class="Note" transform="matrix(0.992126,0,0,0.992126,616.379,237.402)" d="M64.5,-22 L27.5,22 L12.5,22 L49.5,-22 L64.5,-22 M43,-25 L0,25 L35,25 L78,-25 L43,-25 "/>
<path class="Note" transform="matrix(0.992126,0,0,0.992126,741.884,237.402)" d="M64.5,-22 L27.5,22 L12.5,22 L49.5,-22 L64.5,-22 M43,-25 L0,25 L35,25 L78,-25 L43,-25 "/>
<path class="Note" transform="matrix(0.992126,0,0,0.992126,949.239,237.402)" d="M64.5,-22 L27.5,22 L12.5,22 L49.5,-22 L64.5,-22 M43,-25 L0,25 L35,25 L78,-25 L43,-25 "/>
<path class="Note" transform="matrix(0.992126,0,0,0.992126,1074.74,237.402)" d="M64.5,-22 L27.5,22 L12.5,22 L49.5,-22 L64.5,-22 M43,-25 L0,25 L35,25 L78,-25 L43,-25 "/>
<path class="Note" transform="matrix(0.992126,0,0,0.992126,1282.1,237.402)" d="M64.5,-22 L27.5,22 L12.5,22 L49.5,-22 L64.5,-22 M43,-25 L0,25 L35,25 L78,-25 L43,-25 "/>
<path class="Note" transform="matrix(0.992126,0,0,0.992126,1407.6,237.402)" d="M64.5,-22 L27.5,22 L12.5,22 L49.5,-22 L64.5,-22 M43,-25 L0,25 L35,25 L78,-25 L43,-25 "/>
<path class="Note" transform="matrix(0.992126,0,0,0.992126,1614.96,237.402)" d="M64.5,-22 L27.5,22 L12.5,22 L49.5,-22 L64.5,-22 M43,-25 L0,25 L35,25 L78,-25 L43,-25 "/>
<path class="Note" transform="matrix(0.992126,0,0,0.992126,1740.46,237.402)" d="M64.5,-22 L27.5,22 L12.5,22 L49.5,-22 L64.5,-22 M43,-25 L0,25 L35,25 L78,-25 L43,-25 "/>
<path class="Note" transform="matrix(0.992126,0,0,0.992126,1947.82,237.402)" d="M64.5,-22 L27.5,22 L12.5,22 L49.5,-22 L64.5,-22 M43,-25 L0,25 L35,25 L78,-25 L43,-25 "/>
<path class="Note" transform="matrix(0.992126,0,0,0.992126,2073.32,237.402)" d="M64.5,-22 L27.5,22 L12.5,22 L49.5,-22 L64.5,-22 M43,-25 L0,25 L35,25 L78,-25 L43,-25 "/>
<path class="Note" transform="matrix(0.992126,0,0,0.992126,2280.68,237.402)" d="M64.5,-22 L27.5,22 L12.5,22 L49.5,-22 L64.5,-22 M43,-25 L0,25 L35,25 L78,-25 L43,-25 "/>
<path class="Note" transform="matrix(0.992126,0,0,0.992126,2406.18,237.402)" d="M64.5,-22 L27.5,22 L12.5,22 L49.5,-22 L64.5,-22 M43,-25 L0,25 L35,25 L78,-25 L43,-25 "/>
<path class="Note" transform="matrix(0.992126,0,0,0.992126,2613.54,237.402)" d="M64.5,-22 L27.5,22 L12.5,22 L49.5,-22 L64.5,-22 M43,-25 L0,25 L35,25 L78,-25 L43,-25 "/>
<path class="Note" transform="matrix(0.992126,0,0,0.992126,2739.04,237.402)" d="M64.5,-22 L27.5,22 L12.5,22 L49.5,-22 L64.5,-22 M43,-25 L0,25 L35,25 L78,-25 L43,-25 "/>
<path class="Note" transform="matrix(0.992126,0,0,0.992126,159.504,547.441)" d="M64.5,-22 L27.5,22 L12.5,22 L49.5,-22 L64.5,-22 M43,-25 L0,25 L35,25 L78,-25 L43,-25 "/>
<path class="Note" transform="matrix(0.992126,0,0,0.992126,292.76,547.441)" d="M64.5,-22 L27.5,22 L12.5,22 L49.5,-22 L64.5,-22 M43,-25 L0,25 L35,25 L78,-25 L43,-25 "/>
<path class="Note" transform="matrix(0.992126,0,0,0.992126,507.866,547.441)" d="M64.5,-22 L27.5,22 L12.5,22 L49.5,-22 L64.5,-22 M43,-25 L0,25 L35,25 L78,-25 L43,-25 "/>
<path class="Note" transform="matrix(0.992126,0,0,0.992126,641.121,547.441)" d="M64.5,-22 L27.5,22 L12.5,22 L49.5,-22 L64.5,-22 M43,-25 L0,25 L35,25 L78,-25 L43,-25 "/>
<path class="Note" transform="matrix(0.992126,0,0,0.992126,856.227,547.441)" d="M64.5,-22 L27.5,22 L12.5,22 L49.5,-22 L64.5,-22 M43,-25 L0,25 L35,25 L78,-25 L43,-25 "/>
<path class="Note" transform="matrix(0.992126,0,0,0.992126,989.482,547.441)" d="M64.5,-22 L27.5,22 L12.5,22 L49.5,-22 L64.5,-22 M43,-25 L0,25 L35,25 L78,-25 L43,-25 "/>
<path class="Note" transform="matrix(0.992126,0,0,0.992126,1204.59,547.441)" d="M64.5,-22 L27.5,22 L12.5,22 L49.5,-22 L64.5,-22 M43,-25 L0,25 L35,25 L78,-25 L43,-25 "/>
<path class="Note" transform="matrix(0.992126,0,0,0.992126,1337.84,547.441)" d="M64.5,-22 L27.5,22 L12.5,22 L49.5,-22 L64.5,-22 M43,-25 L0,25 L35,25 L78,-25 L43,-25 "/>
<path class="Note" transform="matrix(0.992126,0,0,0.992126,1552.95,547.441)" d="M64.5,-22 L27.5,22 L12.5,22 L49.5,-22 L64.5,-22 M43,-25 L0,25 L35,25 L78,-25 L43,-25 "/>
<path class="Note" transform="matrix(0.992126,0,0,0.992126,1686.2,547.441)" d="M64.5,-22 L27.5,22 L12.5,22 L49.5,-22 L64.5,-22 M43,-25 L0,25 L35,25 L78,-25 L43,-25 "/>
<path class="Note" transform="matrix(0.992126,0,0,0.992126,1901.31,547.441)" d="M64.5,-22 L27.5,22 L12.5,22 L49.5,-22 L64.5,-22 M43,-25 L0,25 L35,25 L78,-25 L43,-25 "/>
<path class="Note" transform="matrix(0.992126,0,0,0.992126,2034.57,547.441)" d="M64.5,-22 L27.5,22 L12.5,22 L49.5,-22 L64.5,-22 M43,-25 L0,25 L35,25 L78,-25 L43,-25 "/>
<path class="Note" transform="matrix(0.992126,0,0,0.992126,2249.67,547.441)" d="M64.5,-22 L27.5,22 L12.5,22 L49.5,-22 L64.5,-22 M43,-25 L0,25 L35,25 L78,-25 L43,-25 "/>
<path class="Note" transform="matrix(0.992126,0,0,0.992126,2382.93,547.441)" d="M64.5,-22 L27.5,22 L12.5,22 L49.5,-22 L64.5,-22 M43,-25 L0,25 L35,25 L78,-25 L43,-25 "/>
<path class="Note" transform="matrix(0.992126,0,0,0.992126,2598.03,547.441)" d="M64.5,-22 L27.5,22 L12.5,22 L49.5,-22 L64.5,-22 M43,-25 L0,25 L35,25 L78,-25 L43,-25 "/>
<path class="Note" transform="matrix(0.992126,0,0,0.992126,2731.29,547.441)" d="M64.5,-22 L27.5,22 L12.5,22 L49.5,-22 L64.5,-22 M43,-25 L0,25 L35,25 L78,-25 L43,-25 "/>
<path class="Clef" transform="matrix(0.992126,0,0,0.992126,158.032,262.205)" d="M63.3594,-5.92188 C62.125,-11.3438 59.4844,-15.1719 58.7031,-16.2031 C55.5156,-20.4844 51.5,-23.3281 46.8125,-24.6875 C43.7031,-25.5625 40.7031,-25.6875 38.2813,-25.5 C37.2344,-31.5156 36.2344,-37.3906 35.3281,-42.8438 C40.7813,-49.0156 44.4063,-54.8125 46.6875,-59.1094 C50.1563,-65.6875 51.2969,-70.2656 51.3594,-70.4688 C53.0781,-75.6875 53.4375,-83.3906 52.3281,-91.5938 C51.3281,-99.1406 49.2344,-105.859 46.875,-109.109 C45.8594,-110.531 44.7969,-111.266 43.7656,-111.266 C42.5469,-111.266 40.0313,-110.031 37.1406,-107.25 C34.8438,-105.063 31.5781,-101.172 29.0156,-95.1563 C26.0156,-88.0938 25.7969,-78.6094 26.1563,-71.8906 C26.5313,-64.6094 27.6406,-58.9219 27.6563,-58.875 C27.6719,-58.7813 27.9375,-57.2813 28.375,-54.7188 C28.1563,-54.4844 27.9063,-54.2656 27.6563,-54.0156 C26.625,-53.0156 25.4375,-51.8906 24.0469,-50.5 C23.1875,-49.6406 22.2344,-48.7344 21.2344,-47.7656 C12.7969,-39.625 0,-27.2969 0,-8.14063 C0,-3.4375 0.90625,0.984375 2.6875,5 C4.26563,8.59375 6.5625,11.875 9.5,14.75 C17.2344,22.3125 27.8281,25.5156 34.875,25.3594 C37.8281,25.2813 40.4688,25.0469 42.8594,24.5938 C44.6875,34.2031 45.8281,41.2344 45.8594,46.5781 C45.9063,53.0938 44.25,57.0781 40.3594,59.8438 C37.9219,61.5781 35.1094,62.5313 32.0156,62.6719 C29.4219,62.7969 27.1563,62.3281 25.7344,61.9219 L25.7188,61.9219 C25.7188,61.9219 25.4375,61.8281 25.4219,61.6406 C25.4063,61.4531 25.7656,61.4063 25.7656,61.4063 L25.7969,61.4063 C27.7188,60.9688 31.2813,59.7344 33.6406,56.4375 C35.4375,53.9063 36.3125,49.2813 34.4688,45.3438 C33.3594,42.9531 30.8594,40 25.2344,39.5469 C22.7344,39.3438 20.4688,39.8594 18.4688,41.0625 C16.6563,42.1406 15.1563,43.7813 14.1094,45.7813 C11.6563,50.4844 12.1094,56.2188 15.2344,60.0625 C18.2031,63.6875 22.8125,66 28.25,66.5781 C29.1094,66.6719 29.9531,66.7031 30.7969,66.7031 C35.2344,66.7031 39.625,65.5 43.2031,63.2969 C46.8594,60.7188 48.9844,56.7344 49.6563,51.1094 C50.2188,46.4688 49.8281,40.5469 48.4375,32.4688 C48.0781,30.375 47.5313,27.3438 46.875,23.5938 C52.625,21.6719 56.7813,18.0938 60.5469,12.2344 C63.8438,6.5 64.7813,0.390625 63.3594,-5.92188 M29.1406,20.2969 C24.5,19.0781 20.0625,16.5781 16.3125,13.0625 C15,11.8438 13.125,9.67188 11.6563,6.28125 C10.2969,3.10938 9.625,-0.328125 9.6875,-3.90625 C9.75,-8.60938 11.0625,-13.4375 13.5625,-18.2188 C16.4844,-23.7969 21.0469,-29.3281 27.1094,-34.6563 C28.5625,-35.9375 29.9375,-37.2188 31.2188,-38.5 C31.9844,-34.2344 32.8125,-29.5469 33.6875,-24.6719 C29.8438,-23.4063 25.0938,-20.25 21.9844,-14.5938 C18.4375,-8.03125 18.5781,-2.5 19.3125,0.984375 C20.25,5.4375 22.7813,9.20313 26.2344,11.2969 C27.1719,11.8594 31.2969,13.9844 33.1406,13.4063 C33.5156,13.2969 33.7813,13.0625 33.9219,12.7344 C34.4375,11.5625 33.4063,10.9219 31.8594,9.96875 C31.25,9.59375 30.5781,9.17188 29.8594,8.64063 C26.5313,6.15625 25.0781,1.70313 26.1563,-2.6875 C26.7344,-5.07813 28.0156,-7.25 29.8594,-8.95313 C31.5156,-10.5 33.5625,-11.5938 35.9375,-12.2344 C37.9844,-0.984375 40.0469,10.1719 41.6875,18.5313 C41.8125,19.2188 41.9531,19.8906 42.0781,20.5625 C37.7031,21.5 33.3594,21.4063 29.1406,20.2969 M40.4688,-12.9063 C50.8125,-13.375 55.0781,-5.9375 55.9688,-1.10938 C56.4375,1.4375 56.4375,5.875 54.8906,10.0938 C53.7188,13.2656 51.2656,17.3438 46.125,19.4063 C46.0625,18.9844 45.9844,18.5469 45.9063,18.125 C44.3594,9.34375 42.4219,-1.65625 40.4688,-12.9063 M33.1406,-83.8594 C34.9219,-89.5938 37.6563,-92.8438 39.6563,-94.5781 C41.4063,-96.0938 43.0469,-96.8125 43.9688,-96.8125 C44.1094,-96.8125 44.2344,-96.7813 44.3281,-96.75 C44.7969,-96.6094 45.3281,-96.0469 45.7969,-95.1719 C48.1094,-90.8906 47.3594,-84.1719 46.0156,-79.7344 C44.3906,-74.3281 41.4688,-68.7188 32.6719,-59.1094 C32.5,-60.2188 32.3438,-61.2656 32.1875,-62.25 C30.9375,-70.5313 31.2656,-77.8125 33.1406,-83.8594"/>
<path class="Clef" transform="matrix(0.992126,0,0,0.992126,34.0158,572.244)" d="M63.3594,-5.92188 C62.125,-11.3438 59.4844,-15.1719 58.7031,-16.2031 C55.5156,-20.4844 51.5,-23.3281 46.8125,-24.6875 C43.7031,-25.5625 40.7031,-25.6875 38.2813,-25.5 C37.2344,-31.5156 36.2344,-37.3906 35.3281,-42.8438 C40.7813,-49.0156 44.4063,-54.8125 46.6875,-59.1094 C50.1563,-65.6875 51.2969,-70.2656 51.3594,-70.4688 C53.0781,-75.6875 53.4375,-83.3906 52.3281,-91.5938 C51.3281,-99.1406 49.2344,-105.859 46.875,-109.109 C45.8594,-110.531 44.7969,-111.266 43.7656,-111.266 C42.5469,-111.266 40.0313,-110.031 37.1406,-107.25 C34.8438,-105.063 31.5781,-101.172 29.0156,-95.1563 C26.0156,-88.0938 25.7969,-78.6094 26.1563,-71.8906 C26.5313,-64.6094 27.6406,-58.9219 27.6563,-58.875 C27.6719,-58.7813 27.9375,-57.2813 28.375,-54.7188 C28.1563,-54.4844 27.9063,-54.2656 27.6563,-54.0156 C26.625,-53.0156 25.4375,-51.8906 24.0469,-50.5 C23.1875,-49.6406 22.2344,-48.7344 21.2344,-47.7656 C12.7969,-39.625 0,-27.2969 0,-8.14063 C0,-3.4375 0.90625,0.984375 2.6875,5 C4.26563,8.59375 6.5625,11.875 9.5,14.75 C17.2344,22.3125 27.8281,25.5156 34.875,25.3594 C37.8281,25.2813 40.4688,25.0469 42.8594,24.5938 C44.6875,34.2031 45.8281,41.2344 45.8594,46.5781 C45.9063,53.0938 44.25,57.0781 40.3594,59.8438 C37.9219,61.5781 35.1094,62.5313 32.0156,62.6719 C29.4219,62.7969 27.1563,62.3281 25.7344,61.9219 L25.7188,61.9219 C25.7188,61.9219 25.4375,61.8281 25.4219,61.6406 C25.4063,61.4531 25.7656,61.4063 25.7656,61.4063 L25.7969,61.4063 C27.7188,60.9688 31.2813,59.7344 33.6406,56.4375 C35.4375,53.9063 36.3125,49.2813 34.4688,45.3438 C33.3594,42.9531 30.8594,40 25.2344,39.5469 C22.7344,39.3438 20.4688,39.8594 18.4688,41.0625 C16.6563,42.1406 15.1563,43.7813 14.1094,45.7813 C11.6563,50.4844 12.1094,56.2188 15.2344,60.0625 C18.2031,63.6875 22.8125,66 28.25,66.5781 C29.1094,66.6719 29.9531,66.7031 30.7969,66.7031 C35.2344,66.7031 39.625,65.5 43.2031,63.2969 C46.8594,60.7188 48.9844,56.7344 49.6563,51.1094 C50.2188,46.4688 49.8281,40.5469 48.4375,32.4688 C48.0781,30.375 47.5313,27.3438 46.875,23.5938 C52.625,21.6719 56.7813,18.0938 60.5469,12.2344 C63.8438,6.5 64.7813,0.390625 63.3594,-5.92188 M29.1406,20.2969 C24.5,19.0781 20.0625,16.5781 16.3125,13.0625 C15,11.8438 13.125,9.67188 11.6563,6.28125 C10.2969,3.10938 9.625,-0.328125 9.6875,-3.90625 C9.75,-8.60938 11.0625,-13.4375 13.5625,-18.2188 C16.4844,-23.7969 21.0469,-29.3281 27.1094,-34.6563 C28.5625,-35.9375 29.9375,-37.2188 31.2188,-38.5 C31.9844,-34.2344 32.8125,-29.5469 33.6875,-24.6719 C29.8438,-23.4063 25.0938,-20.25 21.9844,-14.5938 C18.4375,-8.03125 18.5781,-2.5 19.3125,0.984375 C20.25,5.4375 22.7813,9.20313 26.2344,11.2969 C27.1719,11.8594 31.2969,13.9844 33.1406,13.4063 C33.5156,13.2969 33.7813,13.0625 33.9219,12.7344 C34.4375,11.5625 33.4063,10.9219 31.8594,9.96875 C31.25,9.59375 30.5781,9.17188 29.8594,8.64063 C26.5313,6.15625 25.0781,1.70313 26.1563,-2.6875 C26.7344,-5.07813 28.0156,-7.25 29.8594,-8.95313 C31.5156,-10.5 33.5625,-11.5938 35.9375,-12.2344 C37.9844,-0.984375 40.0469,10.1719 41.6875,18.5313 C41.8125,19.2188 41.9531,19.8906 42.0781,20.5625 C37.7031,21.5 33.3594,21.4063 29.1406,20.2969 M40.4688,-12.9063 C50.8125,-13.375 55.0781,-5.9375 55.9688,-1.10938 C56.4375,1.4375 56.4375,5.875 54.8906,10.0938 C53.7188,13.2656 51.2656,17.3438 46.125,19.4063 C46.0625,18.9844 45.9844,18.5469 45.9063,18.125 C44.3594,9.34375 42.4219,-1.65625 40.4688,-12.9063 M33.1406,-83.8594 C34.9219,-89.5938 37.6563,-92.8438 39.6563,-94.5781 C41.4063,-96.0938 43.0469,-96.8125 43.9688,-96.8125 C44.1094,-96.8125 44.2344,-96.7813 44.3281,-96.75 C44.7969,-96.6094 45.3281,-96.0469 45.7969,-95.1719 C48.1094,-90.8906 47.3594,-84.1719 46.0156,-79.7344 C44.3906,-74.3281 41.4688,-68.7188 32.6719,-59.1094 C32.5,-60.2188 32.3438,-61.2656 32.1875,-62.25 C30.9375,-70.5313 31.2656,-77.8125 33.1406,-83.8594"/>
<path class="SystemText" d="M322.071,113.262 C322.498,114.543 322.763,115.556 322.868,116.301 C322.972,117.046 322.828,117.603 322.438,117.973 C322.047,118.343 321.357,118.572 320.368,118.661 C319.378,118.749 318.013,118.793 316.274,118.793 C314.461,118.793 313.05,118.767 312.039,118.715 C311.029,118.663 310.258,118.559 309.727,118.403 C309.196,118.246 308.823,118.025 308.61,117.739 C308.396,117.452 308.216,117.08 308.071,116.621 L303.446,102.778 L277.571,102.778 L273.211,116.246 C273.065,116.746 272.878,117.163 272.649,117.496 C272.42,117.83 272.047,118.095 271.532,118.293 C271.016,118.491 270.289,118.624 269.352,118.692 C268.414,118.759 267.18,118.793 265.649,118.793 C264.024,118.793 262.748,118.741 261.821,118.637 C260.894,118.533 260.253,118.278 259.899,117.871 C259.545,117.465 259.422,116.89 259.532,116.145 C259.641,115.4 259.909,114.403 260.336,113.153 L281.571,52.0589 C281.779,51.4548 282.026,50.9678 282.313,50.598 C282.599,50.2282 283.052,49.9444 283.672,49.7464 C284.292,49.5485 285.151,49.4235 286.25,49.3714 C287.349,49.3194 288.805,49.2933 290.618,49.2933 C292.711,49.2933 294.378,49.3194 295.618,49.3714 C296.857,49.4235 297.823,49.5485 298.516,49.7464 C299.209,49.9444 299.706,50.236 300.008,50.6214 C300.31,51.0069 300.565,51.5381 300.774,52.2152 L322.071,113.262 M290.461,62.7621 L290.399,62.7621 L280.664,92.0277 L300.196,92.0277 L290.461,62.7621 M406.383,116.668 C406.383,117.022 406.276,117.332 406.063,117.598 C405.849,117.864 405.493,118.085 404.993,118.262 C404.493,118.439 403.818,118.572 402.969,118.661 C402.12,118.749 401.039,118.793 399.727,118.793 C398.373,118.793 397.271,118.749 396.422,118.661 C395.573,118.572 394.891,118.439 394.375,118.262 C393.86,118.085 393.506,117.864 393.313,117.598 C393.12,117.332 393.024,117.022 393.024,116.668 L393.024,88.5121 C393.024,86.9183 392.873,85.4652 392.571,84.1527 C392.269,82.8402 391.808,81.7126 391.188,80.7699 C390.568,79.8272 389.787,79.1006 388.844,78.5902 C387.901,78.0798 386.774,77.8246 385.461,77.8246 C383.868,77.8246 382.253,78.4444 380.618,79.6839 C378.982,80.9235 377.206,82.7308 375.289,85.1058 L375.289,116.668 C375.289,117.022 375.185,117.332 374.977,117.598 C374.769,117.864 374.407,118.085 373.891,118.262 C373.375,118.439 372.69,118.572 371.836,118.661 C370.982,118.749 369.92,118.793 368.649,118.793 C367.336,118.793 366.253,118.749 365.399,118.661 C364.545,118.572 363.86,118.439 363.344,118.262 C362.828,118.085 362.464,117.864 362.25,117.598 C362.037,117.332 361.93,117.022 361.93,116.668 L361.93,88.5121 C361.93,86.9183 361.782,85.4652 361.485,84.1527 C361.188,82.8402 360.737,81.7126 360.133,80.7699 C359.529,79.8272 358.748,79.1006 357.789,78.5902 C356.831,78.0798 355.711,77.8246 354.43,77.8246 C352.795,77.8246 351.162,78.4444 349.532,79.6839 C347.901,80.9235 346.149,82.7308 344.274,85.1058 L344.274,116.668 C344.274,117.022 344.167,117.332 343.953,117.598 C343.74,117.864 343.375,118.085 342.86,118.262 C342.344,118.439 341.659,118.572 340.805,118.661 C339.951,118.749 338.868,118.793 337.555,118.793 C336.243,118.793 335.162,118.749 334.313,118.661 C333.464,118.572 332.782,118.439 332.266,118.262 C331.75,118.085 331.386,117.864 331.172,117.598 C330.959,117.332 330.852,117.022 330.852,116.668 L330.852,69.1996 C330.852,68.8454 330.94,68.5355 331.118,68.2699 C331.295,68.0043 331.615,67.7829 332.078,67.6058 C332.542,67.4287 333.136,67.2959 333.86,67.2074 C334.584,67.1188 335.498,67.0746 336.602,67.0746 C337.737,67.0746 338.677,67.1188 339.422,67.2074 C340.167,67.2959 340.743,67.4287 341.149,67.6058 C341.555,67.7829 341.849,68.0043 342.032,68.2699 C342.214,68.5355 342.305,68.8454 342.305,69.1996 L342.305,74.6839 C344.93,71.8402 347.545,69.71 350.149,68.2933 C352.753,66.8766 355.477,66.1683 358.321,66.1683 C360.269,66.1683 362.024,66.3714 363.586,66.7777 C365.149,67.1839 366.542,67.7673 367.766,68.5277 C368.99,69.2881 370.045,70.2022 370.93,71.2699 C371.815,72.3376 372.56,73.5277 373.164,74.8402 C374.581,73.3089 375.974,71.9938 377.344,70.8949 C378.714,69.7959 380.063,68.9001 381.391,68.2074 C382.719,67.5147 384.05,67.0016 385.383,66.6683 C386.716,66.335 388.071,66.1683 389.446,66.1683 C392.612,66.1683 395.276,66.6996 397.438,67.7621 C399.599,68.8246 401.347,70.2699 402.68,72.098 C404.013,73.9261 404.964,76.0641 405.532,78.5121 C406.099,80.96 406.383,83.5485 406.383,86.2777 L406.383,116.668 "/>
<path class="SystemText" d="M1000.24,108.335 C1000.67,109.616 1000.93,110.629 1001.04,111.374 C1001.14,112.119 1001,112.676 1000.61,113.046 C1000.22,113.416 999.529,113.645 998.539,113.733 C997.549,113.822 996.185,113.866 994.445,113.866 C992.633,113.866 991.221,113.84 990.211,113.788 C989.2,113.736 988.43,113.632 987.898,113.476 C987.367,113.319 986.995,113.098 986.781,112.812 C986.568,112.525 986.388,112.153 986.242,111.694 L981.617,97.8506 L955.742,97.8506 L951.383,111.319 C951.237,111.819 951.049,112.236 950.82,112.569 C950.591,112.903 950.219,113.168 949.703,113.366 C949.187,113.564 948.461,113.697 947.523,113.765 C946.586,113.832 945.351,113.866 943.82,113.866 C942.195,113.866 940.919,113.814 939.992,113.71 C939.065,113.606 938.424,113.351 938.07,112.944 C937.716,112.538 937.594,111.963 937.703,111.218 C937.812,110.473 938.081,109.476 938.508,108.226 L959.742,47.1319 C959.95,46.5277 960.198,46.0407 960.484,45.671 C960.771,45.3012 961.224,45.0173 961.844,44.8194 C962.463,44.6215 963.323,44.4965 964.422,44.4444 C965.521,44.3923 966.976,44.3663 968.789,44.3663 C970.883,44.3663 972.549,44.3923 973.789,44.4444 C975.029,44.4965 975.995,44.6215 976.687,44.8194 C977.38,45.0173 977.877,45.309 978.18,45.6944 C978.482,46.0798 978.737,46.6111 978.945,47.2881 L1000.24,108.335 M968.633,57.835 L968.57,57.835 L958.836,87.1006 L978.367,87.1006 L968.633,57.835 M1084.55,111.741 C1084.55,112.095 1084.45,112.405 1084.23,112.671 C1084.02,112.937 1083.66,113.158 1083.16,113.335 C1082.66,113.512 1081.99,113.645 1081.14,113.733 C1080.29,113.822 1079.21,113.866 1077.9,113.866 C1076.54,113.866 1075.44,113.822 1074.59,113.733 C1073.74,113.645 1073.06,113.512 1072.55,113.335 C1072.03,113.158 1071.68,112.937 1071.48,112.671 C1071.29,112.405 1071.2,112.095 1071.2,111.741 L1071.2,83.585 C1071.2,81.9913 1071.04,80.5381 1070.74,79.2256 C1070.44,77.9131 1069.98,76.7855 1069.36,75.8428 C1068.74,74.9001 1067.96,74.1736 1067.02,73.6631 C1066.07,73.1527 1064.95,72.8975 1063.63,72.8975 C1062.04,72.8975 1060.42,73.5173 1058.79,74.7569 C1057.15,75.9965 1055.38,77.8038 1053.46,80.1788 L1053.46,111.741 C1053.46,112.095 1053.36,112.405 1053.15,112.671 C1052.94,112.937 1052.58,113.158 1052.06,113.335 C1051.55,113.512 1050.86,113.645 1050.01,113.733 C1049.15,113.822 1048.09,113.866 1046.82,113.866 C1045.51,113.866 1044.42,113.822 1043.57,113.733 C1042.72,113.645 1042.03,113.512 1041.52,113.335 C1041,113.158 1040.64,112.937 1040.42,112.671 C1040.21,112.405 1040.1,112.095 1040.1,111.741 L1040.1,83.585 C1040.1,81.9913 1039.95,80.5381 1039.66,79.2256 C1039.36,77.9131 1038.91,76.7855 1038.3,75.8428 C1037.7,74.9001 1036.92,74.1736 1035.96,73.6631 C1035,73.1527 1033.88,72.8975 1032.6,72.8975 C1030.97,72.8975 1029.33,73.5173 1027.7,74.7569 C1026.07,75.9965 1024.32,77.8038 1022.45,80.1788 L1022.45,111.741 C1022.45,112.095 1022.34,112.405 1022.12,112.671 C1021.91,112.937 1021.55,113.158 1021.03,113.335 C1020.52,113.512 1019.83,113.645 1018.98,113.733 C1018.12,113.822 1017.04,113.866 1015.73,113.866 C1014.41,113.866 1013.33,113.822 1012.48,113.733 C1011.64,113.645 1010.95,113.512 1010.44,113.335 C1009.92,113.158 1009.56,112.937 1009.34,112.671 C1009.13,112.405 1009.02,112.095 1009.02,111.741 L1009.02,64.2725 C1009.02,63.9184 1009.11,63.6085 1009.29,63.3428 C1009.47,63.0772 1009.79,62.8559 1010.25,62.6788 C1010.71,62.5017 1011.31,62.3689 1012.03,62.2803 C1012.76,62.1918 1013.67,62.1475 1014.77,62.1475 C1015.91,62.1475 1016.85,62.1918 1017.59,62.2803 C1018.34,62.3689 1018.91,62.5017 1019.32,62.6788 C1019.73,62.8559 1020.02,63.0772 1020.2,63.3428 C1020.39,63.6085 1020.48,63.9184 1020.48,64.2725 L1020.48,69.7569 C1023.1,66.9131 1025.72,64.7829 1028.32,63.3663 C1030.92,61.9496 1033.65,61.2413 1036.49,61.2413 C1038.44,61.2413 1040.2,61.4444 1041.76,61.8506 C1043.32,62.2569 1044.71,62.8402 1045.94,63.6006 C1047.16,64.3611 1048.22,65.2751 1049.1,66.3428 C1049.99,67.4105 1050.73,68.6006 1051.34,69.9131 C1052.75,68.3819 1054.15,67.0668 1055.52,65.9678 C1056.89,64.8689 1058.23,63.973 1059.56,63.2803 C1060.89,62.5876 1062.22,62.0746 1063.55,61.7413 C1064.89,61.4079 1066.24,61.2413 1067.62,61.2413 C1070.78,61.2413 1073.45,61.7725 1075.61,62.835 C1077.77,63.8975 1079.52,65.3428 1080.85,67.171 C1082.18,68.9991 1083.14,71.1371 1083.7,73.585 C1084.27,76.0329 1084.55,78.6215 1084.55,81.3506 L1084.55,111.741 "/>
<path class="SystemText" d="M1339.78,65.236 C1339.78,66.2672 1339.74,67.1553 1339.65,67.9 C1339.56,68.6448 1339.44,69.2386 1339.28,69.6813 C1339.11,70.124 1338.92,70.4339 1338.69,70.611 C1338.46,70.7881 1338.18,70.8766 1337.86,70.8766 C1337.4,70.8766 1336.66,70.5563 1335.64,69.9157 C1334.61,69.275 1333.24,68.5823 1331.54,67.8375 C1329.84,67.0928 1327.8,66.4026 1325.44,65.7672 C1323.08,65.1318 1320.34,64.8141 1317.22,64.8141 C1313.89,64.8141 1310.87,65.3896 1308.17,66.5407 C1305.48,67.6917 1303.17,69.3219 1301.25,71.4313 C1299.34,73.5407 1297.86,76.0771 1296.83,79.0407 C1295.8,82.0042 1295.28,85.2776 1295.28,88.861 C1295.28,92.7985 1295.81,96.2672 1296.85,99.2672 C1297.9,102.267 1299.36,104.778 1301.24,106.798 C1303.12,108.819 1305.39,110.345 1308.03,111.377 C1310.68,112.408 1313.6,112.923 1316.78,112.923 C1318.35,112.923 1319.89,112.746 1321.42,112.392 C1322.94,112.038 1324.36,111.507 1325.67,110.798 L1325.67,94.8297 L1312.64,94.8297 C1312,94.8297 1311.5,94.4313 1311.14,93.6344 C1310.79,92.8375 1310.61,91.4808 1310.61,89.5641 C1310.61,88.5641 1310.66,87.7282 1310.74,87.0563 C1310.83,86.3844 1310.97,85.8428 1311.14,85.4313 C1311.32,85.0198 1311.53,84.7178 1311.78,84.525 C1312.03,84.3323 1312.32,84.236 1312.64,84.236 L1335.89,84.236 C1336.47,84.236 1336.97,84.3323 1337.42,84.525 C1337.86,84.7178 1338.25,85.0094 1338.59,85.4 C1338.93,85.7907 1339.18,86.262 1339.36,86.8141 C1339.54,87.3662 1339.63,87.9964 1339.63,88.7047 L1339.63,116.111 C1339.63,117.184 1339.44,118.119 1339.06,118.916 C1338.69,119.713 1337.93,120.34 1336.78,120.798 C1335.62,121.257 1334.2,121.736 1332.49,122.236 C1330.79,122.736 1329.03,123.163 1327.2,123.517 C1325.37,123.871 1323.52,124.137 1321.66,124.314 C1319.79,124.491 1317.92,124.58 1316.05,124.58 C1310.55,124.58 1305.62,123.791 1301.28,122.213 C1296.93,120.634 1293.24,118.345 1290.23,115.345 C1287.21,112.345 1284.91,108.689 1283.31,104.377 C1281.72,100.064 1280.92,95.1787 1280.92,89.7204 C1280.92,84.0745 1281.78,79.0068 1283.48,74.5172 C1285.18,70.0276 1287.59,66.2151 1290.71,63.0797 C1293.83,59.9443 1297.6,57.5407 1302.02,55.8688 C1306.43,54.1969 1311.36,53.361 1316.78,53.361 C1319.77,53.361 1322.49,53.5667 1324.94,53.9782 C1327.39,54.3896 1329.53,54.887 1331.35,55.4704 C1333.18,56.0537 1334.7,56.6839 1335.9,57.361 C1337.1,58.0381 1337.95,58.624 1338.42,59.1188 C1338.9,59.6136 1339.25,60.3141 1339.46,61.2204 C1339.68,62.1266 1339.78,63.4651 1339.78,65.236"/>
<path class="SystemText" d="M1631.47,113.262 C1631.9,114.543 1632.16,115.556 1632.27,116.301 C1632.37,117.046 1632.23,117.603 1631.84,117.973 C1631.45,118.343 1630.76,118.572 1629.77,118.661 C1628.78,118.749 1627.41,118.793 1625.67,118.793 C1623.86,118.793 1622.45,118.767 1621.44,118.715 C1620.43,118.663 1619.66,118.559 1619.13,118.403 C1618.6,118.246 1618.22,118.025 1618.01,117.739 C1617.8,117.452 1617.62,117.08 1617.47,116.621 L1612.85,102.778 L1586.97,102.778 L1582.61,116.246 C1582.47,116.746 1582.28,117.163 1582.05,117.496 C1581.82,117.83 1581.45,118.095 1580.93,118.293 C1580.42,118.491 1579.69,118.624 1578.75,118.692 C1577.82,118.759 1576.58,118.793 1575.05,118.793 C1573.42,118.793 1572.15,118.741 1571.22,118.637 C1570.29,118.533 1569.65,118.278 1569.3,117.871 C1568.95,117.465 1568.82,116.89 1568.93,116.145 C1569.04,115.4 1569.31,114.403 1569.74,113.153 L1590.97,52.0589 C1591.18,51.4548 1591.43,50.9678 1591.71,50.598 C1592,50.2282 1592.45,49.9444 1593.07,49.7464 C1593.69,49.5485 1594.55,49.4235 1595.65,49.3714 C1596.75,49.3194 1598.21,49.2933 1600.02,49.2933 C1602.11,49.2933 1603.78,49.3194 1605.02,49.3714 C1606.26,49.4235 1607.22,49.5485 1607.92,49.7464 C1608.61,49.9444 1609.11,50.236 1609.41,50.6214 C1609.71,51.0069 1609.97,51.5381 1610.17,52.2152 L1631.47,113.262 M1599.86,62.7621 L1599.8,62.7621 L1590.07,92.0277 L1609.6,92.0277 L1599.86,62.7621 M1715.78,116.668 C1715.78,117.022 1715.68,117.332 1715.46,117.598 C1715.25,117.864 1714.89,118.085 1714.39,118.262 C1713.89,118.439 1713.22,118.572 1712.37,118.661 C1711.52,118.749 1710.44,118.793 1709.13,118.793 C1707.77,118.793 1706.67,118.749 1705.82,118.661 C1704.97,118.572 1704.29,118.439 1703.78,118.262 C1703.26,118.085 1702.91,117.864 1702.71,117.598 C1702.52,117.332 1702.42,117.022 1702.42,116.668 L1702.42,88.5121 C1702.42,86.9183 1702.27,85.4652 1701.97,84.1527 C1701.67,82.8402 1701.21,81.7126 1700.59,80.7699 C1699.97,79.8272 1699.19,79.1006 1698.24,78.5902 C1697.3,78.0798 1696.17,77.8246 1694.86,77.8246 C1693.27,77.8246 1691.65,78.4444 1690.02,79.6839 C1688.38,80.9235 1686.61,82.7308 1684.69,85.1058 L1684.69,116.668 C1684.69,117.022 1684.59,117.332 1684.38,117.598 C1684.17,117.864 1683.81,118.085 1683.29,118.262 C1682.78,118.439 1682.09,118.572 1681.24,118.661 C1680.38,118.749 1679.32,118.793 1678.05,118.793 C1676.74,118.793 1675.65,118.749 1674.8,118.661 C1673.95,118.572 1673.26,118.439 1672.74,118.262 C1672.23,118.085 1671.86,117.864 1671.65,117.598 C1671.44,117.332 1671.33,117.022 1671.33,116.668 L1671.33,88.5121 C1671.33,86.9183 1671.18,85.4652 1670.89,84.1527 C1670.59,82.8402 1670.14,81.7126 1669.53,80.7699 C1668.93,79.8272 1668.15,79.1006 1667.19,78.5902 C1666.23,78.0798 1665.11,77.8246 1663.83,77.8246 C1662.2,77.8246 1660.56,78.4444 1658.93,79.6839 C1657.3,80.9235 1655.55,82.7308 1653.67,85.1058 L1653.67,116.668 C1653.67,117.022 1653.57,117.332 1653.35,117.598 C1653.14,117.864 1652.78,118.085 1652.26,118.262 C1651.74,118.439 1651.06,118.572 1650.21,118.661 C1649.35,118.749 1648.27,118.793 1646.96,118.793 C1645.64,118.793 1644.56,118.749 1643.71,118.661 C1642.86,118.572 1642.18,118.439 1641.67,118.262 C1641.15,118.085 1640.79,117.864 1640.57,117.598 C1640.36,117.332 1640.25,117.022 1640.25,116.668 L1640.25,69.1996 C1640.25,68.8454 1640.34,68.5355 1640.52,68.2699 C1640.7,68.0043 1641.02,67.7829 1641.48,67.6058 C1641.94,67.4287 1642.54,67.2959 1643.26,67.2074 C1643.98,67.1188 1644.9,67.0746 1646,67.0746 C1647.14,67.0746 1648.08,67.1188 1648.82,67.2074 C1649.57,67.2959 1650.14,67.4287 1650.55,67.6058 C1650.96,67.7829 1651.25,68.0043 1651.43,68.2699 C1651.61,68.5355 1651.71,68.8454 1651.71,69.1996 L1651.71,74.6839 C1654.33,71.8402 1656.95,69.71 1659.55,68.2933 C1662.15,66.8766 1664.88,66.1683 1667.72,66.1683 C1669.67,66.1683 1671.42,66.3714 1672.99,66.7777 C1674.55,67.1839 1675.94,67.7673 1677.17,68.5277 C1678.39,69.2881 1679.45,70.2022 1680.33,71.2699 C1681.22,72.3376 1681.96,73.5277 1682.57,74.8402 C1683.98,73.3089 1685.38,71.9938 1686.74,70.8949 C1688.11,69.7959 1689.46,68.9001 1690.79,68.2074 C1692.12,67.5147 1693.45,67.0016 1694.78,66.6683 C1696.12,66.335 1697.47,66.1683 1698.85,66.1683 C1702.01,66.1683 1704.68,66.6996 1706.84,67.7621 C1709,68.8246 1710.75,70.2699 1712.08,72.098 C1713.41,73.9261 1714.36,76.0641 1714.93,78.5121 C1715.5,80.96 1715.78,83.5485 1715.78,86.2777 L1715.78,116.668 "/>
<path class="SystemText" d="M2257.77,103.408 C2258.2,104.689 2258.47,105.702 2258.57,106.447 C2258.67,107.192 2258.53,107.749 2258.14,108.119 C2257.75,108.489 2257.06,108.718 2256.07,108.806 C2255.08,108.895 2253.72,108.939 2251.98,108.939 C2250.16,108.939 2248.75,108.913 2247.74,108.861 C2246.73,108.809 2245.96,108.705 2245.43,108.549 C2244.9,108.392 2244.53,108.171 2244.31,107.885 C2244.1,107.598 2243.92,107.226 2243.77,106.767 L2239.15,92.9236 L2213.27,92.9236 L2208.91,106.392 C2208.77,106.892 2208.58,107.309 2208.35,107.642 C2208.12,107.976 2207.75,108.241 2207.23,108.439 C2206.72,108.637 2205.99,108.77 2205.06,108.838 C2204.12,108.905 2202.88,108.939 2201.35,108.939 C2199.73,108.939 2198.45,108.887 2197.52,108.783 C2196.6,108.679 2195.96,108.424 2195.6,108.017 C2195.25,107.611 2195.13,107.036 2195.23,106.291 C2195.34,105.546 2195.61,104.549 2196.04,103.299 L2217.27,42.2049 C2217.48,41.6007 2217.73,41.1137 2218.02,40.7439 C2218.3,40.3741 2218.76,40.0903 2219.38,39.8924 C2220,39.6944 2220.85,39.5694 2221.95,39.5174 C2223.05,39.4653 2224.51,39.4392 2226.32,39.4392 C2228.41,39.4392 2230.08,39.4653 2231.32,39.5174 C2232.56,39.5694 2233.53,39.6944 2234.22,39.8924 C2234.91,40.0903 2235.41,40.3819 2235.71,40.7674 C2236.01,41.1528 2236.27,41.684 2236.48,42.3611 L2257.77,103.408 M2226.16,52.908 L2226.1,52.908 L2216.37,82.1736 L2235.9,82.1736 L2226.16,52.908 M2342.09,106.814 C2342.09,107.168 2341.98,107.478 2341.77,107.744 C2341.55,108.01 2341.2,108.231 2340.7,108.408 C2340.2,108.585 2339.52,108.718 2338.67,108.806 C2337.82,108.895 2336.74,108.939 2335.43,108.939 C2334.08,108.939 2332.97,108.895 2332.13,108.806 C2331.28,108.718 2330.59,108.585 2330.08,108.408 C2329.56,108.231 2329.21,108.01 2329.02,107.744 C2328.82,107.478 2328.73,107.168 2328.73,106.814 L2328.73,78.658 C2328.73,77.0642 2328.58,75.6111 2328.27,74.2986 C2327.97,72.9861 2327.51,71.8585 2326.89,70.9158 C2326.27,69.9731 2325.49,69.2465 2324.55,68.7361 C2323.6,68.2257 2322.48,67.9705 2321.16,67.9705 C2319.57,67.9705 2317.96,68.5903 2316.32,69.8299 C2314.69,71.0694 2312.91,72.8767 2310.99,75.2517 L2310.99,106.814 C2310.99,107.168 2310.89,107.478 2310.68,107.744 C2310.47,108.01 2310.11,108.231 2309.59,108.408 C2309.08,108.585 2308.39,108.718 2307.54,108.806 C2306.69,108.895 2305.62,108.939 2304.35,108.939 C2303.04,108.939 2301.96,108.895 2301.1,108.806 C2300.25,108.718 2299.56,108.585 2299.05,108.408 C2298.53,108.231 2298.17,108.01 2297.95,107.744 C2297.74,107.478 2297.63,107.168 2297.63,106.814 L2297.63,78.658 C2297.63,77.0642 2297.48,75.6111 2297.19,74.2986 C2296.89,72.9861 2296.44,71.8585 2295.84,70.9158 C2295.23,69.9731 2294.45,69.2465 2293.49,68.7361 C2292.53,68.2257 2291.41,67.9705 2290.13,67.9705 C2288.5,67.9705 2286.86,68.5903 2285.23,69.8299 C2283.6,71.0694 2281.85,72.8767 2279.98,75.2517 L2279.98,106.814 C2279.98,107.168 2279.87,107.478 2279.66,107.744 C2279.44,108.01 2279.08,108.231 2278.56,108.408 C2278.05,108.585 2277.36,108.718 2276.51,108.806 C2275.65,108.895 2274.57,108.939 2273.26,108.939 C2271.95,108.939 2270.86,108.895 2270.02,108.806 C2269.17,108.718 2268.48,108.585 2267.97,108.408 C2267.45,108.231 2267.09,108.01 2266.88,107.744 C2266.66,107.478 2266.56,107.168 2266.56,106.814 L2266.56,59.3455 C2266.56,58.9913 2266.64,58.6814 2266.82,58.4158 C2267,58.1502 2267.32,57.9288 2267.78,57.7517 C2268.25,57.5746 2268.84,57.4418 2269.56,57.3533 C2270.29,57.2647 2271.2,57.2205 2272.31,57.2205 C2273.44,57.2205 2274.38,57.2647 2275.13,57.3533 C2275.87,57.4418 2276.45,57.5746 2276.85,57.7517 C2277.26,57.9288 2277.55,58.1502 2277.73,58.4158 C2277.92,58.6814 2278.01,58.9913 2278.01,59.3455 L2278.01,64.8299 C2280.63,61.9861 2283.25,59.8559 2285.85,58.4392 C2288.46,57.0226 2291.18,56.3142 2294.02,56.3142 C2295.97,56.3142 2297.73,56.5174 2299.29,56.9236 C2300.85,57.3299 2302.25,57.9132 2303.47,58.6736 C2304.69,59.434 2305.75,60.3481 2306.63,61.4158 C2307.52,62.4835 2308.26,63.6736 2308.87,64.9861 C2310.28,63.4549 2311.68,62.1397 2313.05,61.0408 C2314.42,59.9418 2315.77,59.046 2317.09,58.3533 C2318.42,57.6606 2319.75,57.1476 2321.09,56.8142 C2322.42,56.4809 2323.77,56.3142 2325.15,56.3142 C2328.32,56.3142 2330.98,56.8455 2333.14,57.908 C2335.3,58.9705 2337.05,60.4158 2338.38,62.2439 C2339.72,64.072 2340.67,66.2101 2341.23,68.658 C2341.8,71.1059 2342.09,73.6944 2342.09,76.4236 L2342.09,106.814 "/>
<path class="SystemText" d="M2671.22,65.236 C2671.22,66.2672 2671.18,67.1553 2671.09,67.9 C2671,68.6448 2670.87,69.2386 2670.71,69.6813 C2670.55,70.124 2670.36,70.4339 2670.13,70.611 C2669.9,70.7881 2669.62,70.8766 2669.3,70.8766 C2668.84,70.8766 2668.1,70.5563 2667.07,69.9157 C2666.05,69.275 2664.68,68.5823 2662.98,67.8375 C2661.28,67.0928 2659.24,66.4026 2656.88,65.7672 C2654.51,65.1318 2651.77,64.8141 2648.66,64.8141 C2645.33,64.8141 2642.31,65.3896 2639.61,66.5407 C2636.91,67.6917 2634.61,69.3219 2632.69,71.4313 C2630.77,73.5407 2629.3,76.0771 2628.27,79.0407 C2627.24,82.0042 2626.72,85.2776 2626.72,88.861 C2626.72,92.7985 2627.24,96.2672 2628.29,99.2672 C2629.34,102.267 2630.8,104.778 2632.68,106.798 C2634.56,108.819 2636.83,110.345 2639.47,111.377 C2642.12,112.408 2645.03,112.923 2648.22,112.923 C2649.78,112.923 2651.33,112.746 2652.85,112.392 C2654.38,112.038 2655.8,111.507 2657.11,110.798 L2657.11,94.8297 L2644.08,94.8297 C2643.43,94.8297 2642.93,94.4313 2642.58,93.6344 C2642.23,92.8375 2642.05,91.4808 2642.05,89.5641 C2642.05,88.5641 2642.09,87.7282 2642.18,87.0563 C2642.27,86.3844 2642.4,85.8428 2642.58,85.4313 C2642.76,85.0198 2642.97,84.7178 2643.22,84.525 C2643.47,84.3323 2643.76,84.236 2644.08,84.236 L2667.33,84.236 C2667.9,84.236 2668.41,84.3323 2668.85,84.525 C2669.3,84.7178 2669.69,85.0094 2670.03,85.4 C2670.36,85.7907 2670.62,86.262 2670.8,86.8141 C2670.98,87.3662 2671.06,87.9964 2671.06,88.7047 L2671.06,116.111 C2671.06,117.184 2670.88,118.119 2670.5,118.916 C2670.13,119.713 2669.36,120.34 2668.21,120.798 C2667.06,121.257 2665.64,121.736 2663.93,122.236 C2662.23,122.736 2660.46,123.163 2658.64,123.517 C2656.81,123.871 2654.96,124.137 2653.1,124.314 C2651.23,124.491 2649.36,124.58 2647.49,124.58 C2641.99,124.58 2637.06,123.791 2632.71,122.213 C2628.36,120.634 2624.68,118.345 2621.67,115.345 C2618.65,112.345 2616.35,108.689 2614.75,104.377 C2613.16,100.064 2612.36,95.1787 2612.36,89.7204 C2612.36,84.0745 2613.21,79.0068 2614.92,74.5172 C2616.62,70.0276 2619.03,66.2151 2622.15,63.0797 C2625.27,59.9443 2629.04,57.5407 2633.46,55.8688 C2637.87,54.1969 2642.79,53.361 2648.22,53.361 C2651.21,53.361 2653.93,53.5667 2656.38,53.9782 C2658.83,54.3896 2660.96,54.887 2662.79,55.4704 C2664.62,56.0537 2666.14,56.6839 2667.34,57.361 C2668.54,58.0381 2669.38,58.624 2669.86,59.1188 C2670.34,59.6136 2670.69,60.3141 2670.9,61.2204 C2671.11,62.1266 2671.22,63.4651 2671.22,65.236"/>
<path class="SystemText" d="M2799.9,118.189 C2800.32,119.47 2800.59,120.483 2800.69,121.228 C2800.8,121.973 2800.66,122.53 2800.26,122.9 C2799.87,123.27 2799.18,123.499 2798.19,123.588 C2797.2,123.676 2795.84,123.72 2794.1,123.72 C2792.29,123.72 2790.88,123.694 2789.87,123.642 C2788.86,123.59 2788.08,123.486 2787.55,123.33 C2787.02,123.173 2786.65,122.952 2786.44,122.666 C2786.22,122.379 2786.04,122.007 2785.9,121.548 L2781.27,107.705 L2755.4,107.705 L2751.04,121.173 C2750.89,121.673 2750.7,122.09 2750.48,122.423 C2750.25,122.757 2749.87,123.022 2749.36,123.22 C2748.84,123.418 2748.12,123.551 2747.18,123.619 C2746.24,123.687 2745.01,123.72 2743.48,123.72 C2741.85,123.72 2740.57,123.668 2739.65,123.564 C2738.72,123.46 2738.08,123.205 2737.73,122.798 C2737.37,122.392 2737.25,121.817 2737.36,121.072 C2737.47,120.327 2737.74,119.33 2738.16,118.08 L2759.4,56.986 C2759.61,56.3818 2759.85,55.8948 2760.14,55.525 C2760.43,55.1553 2760.88,54.8714 2761.5,54.6735 C2762.12,54.4756 2762.98,54.3506 2764.08,54.2985 C2765.18,54.2464 2766.63,54.2204 2768.44,54.2204 C2770.54,54.2204 2772.2,54.2464 2773.44,54.2985 C2774.68,54.3506 2775.65,54.4756 2776.34,54.6735 C2777.04,54.8714 2777.53,55.1631 2777.83,55.5485 C2778.14,55.9339 2778.39,56.4651 2778.6,57.1422 L2799.9,118.189 M2768.29,67.6891 L2768.23,67.6891 L2758.49,96.9547 L2778.02,96.9547 L2768.29,67.6891 M2884.21,121.595 C2884.21,121.95 2884.1,122.259 2883.89,122.525 C2883.68,122.791 2883.32,123.012 2882.82,123.189 C2882.32,123.366 2881.64,123.499 2880.8,123.588 C2879.95,123.676 2878.87,123.72 2877.55,123.72 C2876.2,123.72 2875.1,123.676 2874.25,123.588 C2873.4,123.499 2872.72,123.366 2872.2,123.189 C2871.69,123.012 2871.33,122.791 2871.14,122.525 C2870.95,122.259 2870.85,121.95 2870.85,121.595 L2870.85,93.4391 C2870.85,91.8454 2870.7,90.3922 2870.4,89.0797 C2870.1,87.7672 2869.63,86.6396 2869.01,85.6969 C2868.39,84.7542 2867.61,84.0276 2866.67,83.5172 C2865.73,83.0068 2864.6,82.7516 2863.29,82.7516 C2861.69,82.7516 2860.08,83.3714 2858.44,84.611 C2856.81,85.8506 2855.03,87.6579 2853.12,90.0329 L2853.12,121.595 C2853.12,121.95 2853.01,122.259 2852.8,122.525 C2852.6,122.791 2852.23,123.012 2851.72,123.189 C2851.2,123.366 2850.52,123.499 2849.66,123.588 C2848.81,123.676 2847.75,123.72 2846.48,123.72 C2845.16,123.72 2844.08,123.676 2843.23,123.588 C2842.37,123.499 2841.69,123.366 2841.17,123.189 C2840.66,123.012 2840.29,122.791 2840.08,122.525 C2839.86,122.259 2839.76,121.95 2839.76,121.595 L2839.76,93.4391 C2839.76,91.8454 2839.61,90.3922 2839.31,89.0797 C2839.01,87.7672 2838.56,86.6396 2837.96,85.6969 C2837.36,84.7542 2836.57,84.0276 2835.62,83.5172 C2834.66,83.0068 2833.54,82.7516 2832.26,82.7516 C2830.62,82.7516 2828.99,83.3714 2827.36,84.611 C2825.73,85.8506 2823.98,87.6579 2822.1,90.0329 L2822.1,121.595 C2822.1,121.95 2821.99,122.259 2821.78,122.525 C2821.57,122.791 2821.2,123.012 2820.69,123.189 C2820.17,123.366 2819.49,123.499 2818.63,123.588 C2817.78,123.676 2816.69,123.72 2815.38,123.72 C2814.07,123.72 2812.99,123.676 2812.14,123.588 C2811.29,123.499 2810.61,123.366 2810.09,123.189 C2809.58,123.012 2809.21,122.791 2809,122.525 C2808.79,122.259 2808.68,121.95 2808.68,121.595 L2808.68,74.1266 C2808.68,73.7724 2808.77,73.4625 2808.94,73.1969 C2809.12,72.9313 2809.44,72.7099 2809.91,72.5329 C2810.37,72.3558 2810.96,72.223 2811.69,72.1344 C2812.41,72.0459 2813.32,72.0016 2814.43,72.0016 C2815.56,72.0016 2816.5,72.0459 2817.25,72.1344 C2817.99,72.223 2818.57,72.3558 2818.98,72.5329 C2819.38,72.7099 2819.68,72.9313 2819.86,73.1969 C2820.04,73.4625 2820.13,73.7724 2820.13,74.1266 L2820.13,79.611 C2822.76,76.7672 2825.37,74.637 2827.98,73.2204 C2830.58,71.8037 2833.3,71.0954 2836.15,71.0954 C2838.1,71.0954 2839.85,71.2985 2841.41,71.7047 C2842.98,72.111 2844.37,72.6943 2845.59,73.4547 C2846.82,74.2151 2847.87,75.1292 2848.76,76.1969 C2849.64,77.2646 2850.39,78.4547 2850.99,79.7672 C2852.41,78.236 2853.8,76.9209 2855.17,75.8219 C2856.54,74.723 2857.89,73.8271 2859.22,73.1344 C2860.55,72.4417 2861.88,71.9287 2863.21,71.5954 C2864.54,71.262 2865.9,71.0954 2867.27,71.0954 C2870.44,71.0954 2873.1,71.6266 2875.26,72.6891 C2877.43,73.7516 2879.17,75.1969 2880.51,77.025 C2881.84,78.8532 2882.79,80.9912 2883.36,83.4391 C2883.93,85.887 2884.21,88.4756 2884.21,91.2047 L2884.21,121.595 "/>
<path class="SystemText" d="M195.727,428.228 C196.154,429.51 196.419,430.523 196.523,431.268 C196.628,432.012 196.484,432.57 196.094,432.939 C195.703,433.309 195.013,433.538 194.023,433.627 C193.034,433.715 191.669,433.76 189.93,433.76 C188.117,433.76 186.706,433.734 185.695,433.682 C184.685,433.63 183.914,433.525 183.383,433.369 C182.852,433.213 182.479,432.991 182.266,432.705 C182.052,432.419 181.872,432.046 181.727,431.588 L177.102,417.744 L151.227,417.744 L146.867,431.213 C146.721,431.713 146.534,432.13 146.305,432.463 C146.075,432.796 145.703,433.062 145.187,433.26 C144.672,433.458 143.945,433.59 143.008,433.658 C142.07,433.726 140.836,433.76 139.305,433.76 C137.68,433.76 136.404,433.708 135.477,433.603 C134.549,433.499 133.909,433.244 133.555,432.838 C133.2,432.432 133.078,431.856 133.187,431.111 C133.297,430.366 133.565,429.369 133.992,428.119 L155.227,367.025 C155.435,366.421 155.682,365.934 155.969,365.564 C156.255,365.195 156.708,364.911 157.328,364.713 C157.948,364.515 158.807,364.39 159.906,364.338 C161.005,364.286 162.461,364.26 164.273,364.26 C166.367,364.26 168.034,364.286 169.273,364.338 C170.513,364.39 171.479,364.515 172.172,364.713 C172.865,364.911 173.362,365.202 173.664,365.588 C173.966,365.973 174.221,366.505 174.43,367.182 L195.727,428.228 M164.117,377.728 L164.055,377.728 L154.32,406.994 L173.852,406.994 L164.117,377.728 M280.039,431.635 C280.039,431.989 279.932,432.299 279.719,432.564 C279.505,432.83 279.148,433.051 278.648,433.228 C278.148,433.406 277.474,433.538 276.625,433.627 C275.776,433.715 274.695,433.76 273.383,433.76 C272.029,433.76 270.927,433.715 270.078,433.627 C269.229,433.538 268.547,433.406 268.031,433.228 C267.516,433.051 267.161,432.83 266.969,432.564 C266.776,432.299 266.68,431.989 266.68,431.635 L266.68,403.478 C266.68,401.885 266.529,400.432 266.227,399.119 C265.924,397.807 265.463,396.679 264.844,395.736 C264.224,394.794 263.443,394.067 262.5,393.557 C261.557,393.046 260.43,392.791 259.117,392.791 C257.523,392.791 255.909,393.411 254.273,394.65 C252.638,395.89 250.862,397.697 248.945,400.072 L248.945,431.635 C248.945,431.989 248.841,432.299 248.633,432.564 C248.424,432.83 248.062,433.051 247.547,433.228 C247.031,433.406 246.346,433.538 245.492,433.627 C244.638,433.715 243.575,433.76 242.305,433.76 C240.992,433.76 239.909,433.715 239.055,433.627 C238.2,433.538 237.516,433.406 237,433.228 C236.484,433.051 236.12,432.83 235.906,432.564 C235.693,432.299 235.586,431.989 235.586,431.635 L235.586,403.478 C235.586,401.885 235.437,400.432 235.141,399.119 C234.844,397.807 234.393,396.679 233.789,395.736 C233.185,394.794 232.404,394.067 231.445,393.557 C230.487,393.046 229.367,392.791 228.086,392.791 C226.45,392.791 224.818,393.411 223.187,394.65 C221.557,395.89 219.805,397.697 217.93,400.072 L217.93,431.635 C217.93,431.989 217.823,432.299 217.609,432.564 C217.396,432.83 217.031,433.051 216.516,433.228 C216,433.406 215.315,433.538 214.461,433.627 C213.607,433.715 212.523,433.76 211.211,433.76 C209.898,433.76 208.818,433.715 207.969,433.627 C207.12,433.538 206.437,433.406 205.922,433.228 C205.406,433.051 205.042,432.83 204.828,432.564 C204.615,432.299 204.508,431.989 204.508,431.635 L204.508,384.166 C204.508,383.812 204.596,383.502 204.773,383.236 C204.95,382.971 205.271,382.749 205.734,382.572 C206.198,382.395 206.792,382.262 207.516,382.174 C208.24,382.085 209.154,382.041 210.258,382.041 C211.393,382.041 212.333,382.085 213.078,382.174 C213.823,382.262 214.398,382.395 214.805,382.572 C215.211,382.749 215.505,382.971 215.687,383.236 C215.87,383.502 215.961,383.812 215.961,384.166 L215.961,389.65 C218.586,386.807 221.2,384.676 223.805,383.26 C226.409,381.843 229.133,381.135 231.977,381.135 C233.924,381.135 235.68,381.338 237.242,381.744 C238.805,382.15 240.198,382.734 241.422,383.494 C242.646,384.255 243.7,385.169 244.586,386.236 C245.471,387.304 246.216,388.494 246.82,389.807 C248.237,388.275 249.63,386.96 251,385.861 C252.37,384.762 253.719,383.866 255.047,383.174 C256.375,382.481 257.706,381.968 259.039,381.635 C260.372,381.301 261.727,381.135 263.102,381.135 C266.268,381.135 268.932,381.666 271.094,382.728 C273.255,383.791 275.003,385.236 276.336,387.064 C277.669,388.893 278.62,391.031 279.187,393.478 C279.755,395.926 280.039,398.515 280.039,401.244 L280.039,431.635 "/>
<path class="SystemText" d="M887.522,443.01 C887.949,444.291 888.215,445.304 888.319,446.049 C888.423,446.793 888.28,447.351 887.889,447.721 C887.499,448.09 886.809,448.319 885.819,448.408 C884.829,448.497 883.465,448.541 881.725,448.541 C879.913,448.541 878.501,448.515 877.491,448.463 C876.48,448.411 875.71,448.306 875.178,448.15 C874.647,447.994 874.275,447.773 874.061,447.486 C873.848,447.2 873.668,446.827 873.522,446.369 L868.897,432.525 L843.022,432.525 L838.663,445.994 C838.517,446.494 838.329,446.911 838.1,447.244 C837.871,447.577 837.499,447.843 836.983,448.041 C836.467,448.239 835.741,448.372 834.803,448.439 C833.866,448.507 832.631,448.541 831.1,448.541 C829.475,448.541 828.199,448.489 827.272,448.385 C826.345,448.28 825.704,448.025 825.35,447.619 C824.996,447.213 824.874,446.637 824.983,445.892 C825.092,445.148 825.361,444.15 825.788,442.9 L847.022,381.806 C847.23,381.202 847.478,380.715 847.764,380.346 C848.051,379.976 848.504,379.692 849.124,379.494 C849.743,379.296 850.603,379.171 851.702,379.119 C852.801,379.067 854.256,379.041 856.069,379.041 C858.163,379.041 859.829,379.067 861.069,379.119 C862.309,379.171 863.275,379.296 863.967,379.494 C864.66,379.692 865.157,379.984 865.46,380.369 C865.762,380.754 866.017,381.286 866.225,381.963 L887.522,443.01 M855.913,392.51 L855.85,392.51 L846.116,421.775 L865.647,421.775 L855.913,392.51 M971.835,446.416 C971.835,446.77 971.728,447.08 971.514,447.346 C971.301,447.611 970.944,447.833 970.444,448.01 C969.944,448.187 969.269,448.319 968.421,448.408 C967.572,448.497 966.491,448.541 965.178,448.541 C963.824,448.541 962.723,448.497 961.874,448.408 C961.025,448.319 960.342,448.187 959.827,448.01 C959.311,447.833 958.957,447.611 958.764,447.346 C958.572,447.08 958.475,446.77 958.475,446.416 L958.475,418.26 C958.475,416.666 958.324,415.213 958.022,413.9 C957.72,412.588 957.259,411.46 956.639,410.517 C956.019,409.575 955.238,408.848 954.296,408.338 C953.353,407.827 952.225,407.572 950.913,407.572 C949.319,407.572 947.704,408.192 946.069,409.431 C944.434,410.671 942.657,412.478 940.741,414.853 L940.741,446.416 C940.741,446.77 940.637,447.08 940.428,447.346 C940.22,447.611 939.858,447.833 939.342,448.01 C938.827,448.187 938.142,448.319 937.288,448.408 C936.434,448.497 935.371,448.541 934.1,448.541 C932.788,448.541 931.704,448.497 930.85,448.408 C929.996,448.319 929.311,448.187 928.796,448.01 C928.28,447.833 927.915,447.611 927.702,447.346 C927.488,447.08 927.381,446.77 927.381,446.416 L927.381,418.26 C927.381,416.666 927.233,415.213 926.936,413.9 C926.639,412.588 926.189,411.46 925.585,410.517 C924.98,409.575 924.199,408.848 923.241,408.338 C922.282,407.827 921.163,407.572 919.881,407.572 C918.246,407.572 916.613,408.192 914.983,409.431 C913.353,410.671 911.6,412.478 909.725,414.853 L909.725,446.416 C909.725,446.77 909.618,447.08 909.405,447.346 C909.191,447.611 908.827,447.833 908.311,448.01 C907.796,448.187 907.111,448.319 906.256,448.408 C905.402,448.497 904.319,448.541 903.006,448.541 C901.694,448.541 900.613,448.497 899.764,448.408 C898.915,448.319 898.233,448.187 897.717,448.01 C897.202,447.833 896.837,447.611 896.624,447.346 C896.41,447.08 896.303,446.77 896.303,446.416 L896.303,398.947 C896.303,398.593 896.392,398.283 896.569,398.017 C896.746,397.752 897.066,397.53 897.53,397.353 C897.993,397.176 898.587,397.043 899.311,396.955 C900.035,396.866 900.949,396.822 902.053,396.822 C903.189,396.822 904.129,396.866 904.874,396.955 C905.618,397.043 906.194,397.176 906.6,397.353 C907.006,397.53 907.301,397.752 907.483,398.017 C907.665,398.283 907.756,398.593 907.756,398.947 L907.756,404.431 C910.381,401.588 912.996,399.458 915.6,398.041 C918.204,396.624 920.928,395.916 923.772,395.916 C925.72,395.916 927.475,396.119 929.038,396.525 C930.6,396.931 931.993,397.515 933.217,398.275 C934.441,399.036 935.496,399.95 936.381,401.017 C937.267,402.085 938.012,403.275 938.616,404.588 C940.032,403.056 941.426,401.741 942.796,400.642 C944.165,399.543 945.514,398.648 946.842,397.955 C948.171,397.262 949.501,396.749 950.835,396.416 C952.168,396.083 953.522,395.916 954.897,395.916 C958.064,395.916 960.728,396.447 962.889,397.51 C965.051,398.572 966.798,400.017 968.131,401.846 C969.465,403.674 970.415,405.812 970.983,408.26 C971.551,410.708 971.835,413.296 971.835,416.025 L971.835,446.416 "/>
<path class="SystemText" d="M1584.24,447.937 C1584.67,449.218 1584.94,450.231 1585.04,450.976 C1585.15,451.721 1585,452.278 1584.61,452.648 C1584.22,453.017 1583.53,453.247 1582.54,453.335 C1581.55,453.424 1580.19,453.468 1578.45,453.468 C1576.64,453.468 1575.22,453.442 1574.21,453.39 C1573.2,453.338 1572.43,453.234 1571.9,453.077 C1571.37,452.921 1571,452.7 1570.78,452.413 C1570.57,452.127 1570.39,451.754 1570.24,451.296 L1565.62,437.452 L1539.74,437.452 L1535.39,450.921 C1535.24,451.421 1535.05,451.838 1534.82,452.171 C1534.59,452.504 1534.22,452.77 1533.71,452.968 C1533.19,453.166 1532.46,453.299 1531.53,453.366 C1530.59,453.434 1529.35,453.468 1527.82,453.468 C1526.2,453.468 1524.92,453.416 1523.99,453.312 C1523.07,453.207 1522.43,452.952 1522.07,452.546 C1521.72,452.14 1521.6,451.564 1521.71,450.819 C1521.82,450.075 1522.08,449.077 1522.51,447.827 L1543.74,386.734 C1543.95,386.129 1544.2,385.642 1544.49,385.273 C1544.77,384.903 1545.23,384.619 1545.85,384.421 C1546.47,384.223 1547.33,384.098 1548.42,384.046 C1549.52,383.994 1550.98,383.968 1552.79,383.968 C1554.89,383.968 1556.55,383.994 1557.79,384.046 C1559.03,384.098 1560,384.223 1560.69,384.421 C1561.38,384.619 1561.88,384.911 1562.18,385.296 C1562.48,385.681 1562.74,386.213 1562.95,386.89 L1584.24,447.937 M1552.64,397.437 L1552.57,397.437 L1542.84,426.702 L1562.37,426.702 L1552.64,397.437 M1668.56,451.343 C1668.56,451.697 1668.45,452.007 1668.24,452.273 C1668.02,452.538 1667.67,452.76 1667.17,452.937 C1666.67,453.114 1665.99,453.247 1665.14,453.335 C1664.29,453.424 1663.21,453.468 1661.9,453.468 C1660.55,453.468 1659.45,453.424 1658.6,453.335 C1657.75,453.247 1657.07,453.114 1656.55,452.937 C1656.03,452.76 1655.68,452.538 1655.49,452.273 C1655.29,452.007 1655.2,451.697 1655.2,451.343 L1655.2,423.187 C1655.2,421.593 1655.05,420.14 1654.74,418.827 C1654.44,417.515 1653.98,416.387 1653.36,415.444 C1652.74,414.502 1651.96,413.775 1651.02,413.265 C1650.08,412.754 1648.95,412.499 1647.64,412.499 C1646.04,412.499 1644.43,413.119 1642.79,414.359 C1641.16,415.598 1639.38,417.405 1637.46,419.78 L1637.46,451.343 C1637.46,451.697 1637.36,452.007 1637.15,452.273 C1636.94,452.538 1636.58,452.76 1636.07,452.937 C1635.55,453.114 1634.86,453.247 1634.01,453.335 C1633.16,453.424 1632.09,453.468 1630.82,453.468 C1629.51,453.468 1628.43,453.424 1627.57,453.335 C1626.72,453.247 1626.03,453.114 1625.52,452.937 C1625,452.76 1624.64,452.538 1624.42,452.273 C1624.21,452.007 1624.1,451.697 1624.1,451.343 L1624.1,423.187 C1624.1,421.593 1623.96,420.14 1623.66,418.827 C1623.36,417.515 1622.91,416.387 1622.31,415.444 C1621.7,414.502 1620.92,413.775 1619.96,413.265 C1619.01,412.754 1617.89,412.499 1616.6,412.499 C1614.97,412.499 1613.34,413.119 1611.71,414.359 C1610.08,415.598 1608.32,417.405 1606.45,419.78 L1606.45,451.343 C1606.45,451.697 1606.34,452.007 1606.13,452.273 C1605.91,452.538 1605.55,452.76 1605.03,452.937 C1604.52,453.114 1603.83,453.247 1602.98,453.335 C1602.12,453.424 1601.04,453.468 1599.73,453.468 C1598.42,453.468 1597.34,453.424 1596.49,453.335 C1595.64,453.247 1594.96,453.114 1594.44,452.937 C1593.92,452.76 1593.56,452.538 1593.35,452.273 C1593.13,452.007 1593.03,451.697 1593.03,451.343 L1593.03,403.874 C1593.03,403.52 1593.11,403.21 1593.29,402.944 C1593.47,402.679 1593.79,402.457 1594.25,402.28 C1594.72,402.103 1595.31,401.971 1596.03,401.882 C1596.76,401.793 1597.67,401.749 1598.78,401.749 C1599.91,401.749 1600.85,401.793 1601.6,401.882 C1602.34,401.971 1602.92,402.103 1603.32,402.28 C1603.73,402.457 1604.02,402.679 1604.21,402.944 C1604.39,403.21 1604.48,403.52 1604.48,403.874 L1604.48,409.359 C1607.1,406.515 1609.72,404.385 1612.32,402.968 C1614.93,401.551 1617.65,400.843 1620.49,400.843 C1622.44,400.843 1624.2,401.046 1625.76,401.452 C1627.32,401.859 1628.72,402.442 1629.94,403.202 C1631.16,403.963 1632.22,404.877 1633.1,405.944 C1633.99,407.012 1634.73,408.202 1635.34,409.515 C1636.76,407.984 1638.15,406.668 1639.52,405.569 C1640.89,404.471 1642.24,403.575 1643.57,402.882 C1644.89,402.189 1646.22,401.676 1647.56,401.343 C1648.89,401.01 1650.24,400.843 1651.62,400.843 C1654.79,400.843 1657.45,401.374 1659.61,402.437 C1661.77,403.499 1663.52,404.944 1664.85,406.773 C1666.19,408.601 1667.14,410.739 1667.71,413.187 C1668.27,415.635 1668.56,418.223 1668.56,420.952 L1668.56,451.343 "/>
<path class="SystemText" d="M2114.86,412.775 C2114.86,419.098 2114.03,424.504 2112.38,428.994 C2110.73,433.484 2108.36,437.148 2105.28,439.986 C2102.19,442.825 2098.44,444.908 2094.02,446.236 C2089.6,447.564 2084.34,448.228 2078.25,448.228 L2061.79,448.228 C2060.63,448.228 2059.64,447.882 2058.84,447.189 C2058.04,446.497 2057.64,445.369 2057.64,443.806 L2057.64,383.775 C2057.64,382.213 2058.04,381.085 2058.84,380.392 C2059.64,379.7 2060.63,379.353 2061.79,379.353 L2079.47,379.353 C2085.6,379.353 2090.81,380.072 2095.08,381.51 C2099.36,382.947 2102.96,385.077 2105.89,387.9 C2108.81,390.723 2111.04,394.21 2112.57,398.361 C2114.09,402.512 2114.86,407.317 2114.86,412.775 M2100.39,413.26 C2100.39,409.999 2100,406.968 2099.24,404.166 C2098.47,401.364 2097.25,398.931 2095.56,396.869 C2093.87,394.806 2091.71,393.2 2089.07,392.049 C2086.43,390.898 2082.96,390.322 2078.67,390.322 L2071.59,390.322 L2071.59,437.15 L2078.87,437.15 C2082.7,437.15 2085.93,436.655 2088.56,435.666 C2091.18,434.676 2093.38,433.179 2095.14,431.174 C2096.9,429.168 2098.21,426.676 2099.08,423.697 C2099.95,420.718 2100.39,417.239 2100.39,413.26"/>
<path class="SystemText" d="M2329.96,412.775 C2329.96,419.098 2329.14,424.504 2327.49,428.994 C2325.83,433.484 2323.47,437.148 2320.38,439.986 C2317.3,442.825 2313.55,444.908 2309.13,446.236 C2304.7,447.564 2299.45,448.228 2293.35,448.228 L2276.9,448.228 C2275.73,448.228 2274.75,447.882 2273.95,447.189 C2273.14,446.497 2272.74,445.369 2272.74,443.806 L2272.74,383.775 C2272.74,382.213 2273.14,381.085 2273.95,380.392 C2274.75,379.7 2275.73,379.353 2276.9,379.353 L2294.57,379.353 C2300.71,379.353 2305.91,380.072 2310.19,381.51 C2314.46,382.947 2318.07,385.077 2320.99,387.9 C2323.92,390.723 2326.15,394.21 2327.67,398.361 C2329.2,402.512 2329.96,407.317 2329.96,412.775 M2315.49,413.26 C2315.49,409.999 2315.11,406.968 2314.34,404.166 C2313.58,401.364 2312.35,398.931 2310.66,396.869 C2308.98,394.806 2306.81,393.2 2304.17,392.049 C2301.53,390.898 2298.07,390.322 2293.77,390.322 L2286.7,390.322 L2286.7,437.15 L2293.98,437.15 C2297.81,437.15 2301.04,436.655 2303.66,435.666 C2306.29,434.676 2308.48,433.179 2310.24,431.174 C2312,429.168 2313.32,426.676 2314.19,423.697 C2315.06,420.718 2315.49,417.239 2315.49,413.26"/>
<path class="SystemText" d="M2675.43,380.202 C2675.43,381.234 2675.38,382.122 2675.29,382.866 C2675.21,383.611 2675.08,384.205 2674.92,384.648 C2674.76,385.09 2674.56,385.4 2674.33,385.577 C2674.1,385.754 2673.83,385.843 2673.51,385.843 C2673.05,385.843 2672.3,385.523 2671.28,384.882 C2670.25,384.241 2668.89,383.549 2667.18,382.804 C2665.48,382.059 2663.45,381.369 2661.08,380.734 C2658.72,380.098 2655.98,379.781 2652.86,379.781 C2649.53,379.781 2646.52,380.356 2643.82,381.507 C2641.12,382.658 2638.81,384.288 2636.9,386.398 C2634.98,388.507 2633.51,391.044 2632.47,394.007 C2631.44,396.971 2630.93,400.244 2630.93,403.827 C2630.93,407.765 2631.45,411.234 2632.5,414.234 C2633.54,417.234 2635.01,419.744 2636.89,421.765 C2638.77,423.786 2641.03,425.312 2643.68,426.343 C2646.32,427.374 2649.24,427.89 2652.43,427.89 C2653.99,427.89 2655.53,427.713 2657.06,427.359 C2658.59,427.004 2660.01,426.473 2661.32,425.765 L2661.32,409.796 L2648.29,409.796 C2647.64,409.796 2647.14,409.398 2646.79,408.601 C2646.43,407.804 2646.26,406.447 2646.26,404.531 C2646.26,403.531 2646.3,402.695 2646.39,402.023 C2646.48,401.351 2646.61,400.809 2646.79,400.398 C2646.96,399.986 2647.18,399.684 2647.43,399.491 C2647.68,399.299 2647.96,399.202 2648.29,399.202 L2671.54,399.202 C2672.11,399.202 2672.62,399.299 2673.06,399.491 C2673.5,399.684 2673.89,399.976 2674.23,400.366 C2674.57,400.757 2674.83,401.228 2675.01,401.781 C2675.18,402.333 2675.27,402.963 2675.27,403.671 L2675.27,431.077 C2675.27,432.15 2675.08,433.085 2674.71,433.882 C2674.33,434.679 2673.57,435.307 2672.42,435.765 C2671.27,436.223 2669.84,436.702 2668.14,437.202 C2666.43,437.702 2664.67,438.129 2662.84,438.484 C2661.01,438.838 2659.17,439.103 2657.3,439.281 C2655.44,439.458 2653.57,439.546 2651.69,439.546 C2646.19,439.546 2641.27,438.757 2636.92,437.179 C2632.57,435.601 2628.89,433.312 2625.87,430.312 C2622.86,427.312 2620.55,423.656 2618.96,419.343 C2617.36,415.031 2616.57,410.145 2616.57,404.687 C2616.57,399.041 2617.42,393.973 2619.12,389.484 C2620.83,384.994 2623.24,381.182 2626.36,378.046 C2629.48,374.911 2633.24,372.507 2637.66,370.835 C2642.08,369.163 2647,368.327 2652.43,368.327 C2655.42,368.327 2658.14,368.533 2660.58,368.945 C2663.03,369.356 2665.17,369.853 2667,370.437 C2668.83,371.02 2670.34,371.65 2671.54,372.327 C2672.75,373.004 2673.59,373.59 2674.07,374.085 C2674.55,374.58 2674.89,375.281 2675.11,376.187 C2675.32,377.093 2675.43,378.432 2675.43,380.202"/>
<path class="SystemText" d="M2797.07,438.083 C2797.5,439.364 2797.77,440.377 2797.87,441.122 C2797.97,441.866 2797.83,442.424 2797.44,442.793 C2797.05,443.163 2796.36,443.392 2795.37,443.481 C2794.38,443.57 2793.02,443.614 2791.28,443.614 C2789.46,443.614 2788.05,443.588 2787.04,443.536 C2786.03,443.484 2785.26,443.379 2784.73,443.223 C2784.2,443.067 2783.83,442.846 2783.61,442.559 C2783.4,442.273 2783.22,441.9 2783.07,441.442 L2778.45,427.598 L2752.57,427.598 L2748.21,441.067 C2748.07,441.567 2747.88,441.984 2747.65,442.317 C2747.42,442.65 2747.05,442.916 2746.53,443.114 C2746.02,443.312 2745.29,443.445 2744.35,443.512 C2743.42,443.58 2742.18,443.614 2740.65,443.614 C2739.03,443.614 2737.75,443.562 2736.82,443.458 C2735.9,443.353 2735.26,443.098 2734.9,442.692 C2734.55,442.286 2734.42,441.71 2734.53,440.965 C2734.64,440.221 2734.91,439.223 2735.34,437.973 L2756.57,376.879 C2756.78,376.275 2757.03,375.788 2757.32,375.418 C2757.6,375.049 2758.06,374.765 2758.67,374.567 C2759.29,374.369 2760.15,374.244 2761.25,374.192 C2762.35,374.14 2763.81,374.114 2765.62,374.114 C2767.71,374.114 2769.38,374.14 2770.62,374.192 C2771.86,374.244 2772.83,374.369 2773.52,374.567 C2774.21,374.765 2774.71,375.057 2775.01,375.442 C2775.31,375.827 2775.57,376.359 2775.78,377.036 L2797.07,438.083 M2765.46,387.583 L2765.4,387.583 L2755.67,416.848 L2775.2,416.848 L2765.46,387.583 M2881.39,441.489 C2881.39,441.843 2881.28,442.153 2881.07,442.418 C2880.85,442.684 2880.5,442.905 2880,443.083 C2879.5,443.26 2878.82,443.392 2877.97,443.481 C2877.12,443.57 2876.04,443.614 2874.73,443.614 C2873.38,443.614 2872.27,443.57 2871.42,443.481 C2870.58,443.392 2869.89,443.26 2869.38,443.083 C2868.86,442.905 2868.51,442.684 2868.32,442.418 C2868.12,442.153 2868.03,441.843 2868.03,441.489 L2868.03,413.333 C2868.03,411.739 2867.88,410.286 2867.57,408.973 C2867.27,407.661 2866.81,406.533 2866.19,405.59 C2865.57,404.648 2864.79,403.921 2863.85,403.411 C2862.9,402.9 2861.78,402.645 2860.46,402.645 C2858.87,402.645 2857.26,403.265 2855.62,404.504 C2853.98,405.744 2852.21,407.551 2850.29,409.926 L2850.29,441.489 C2850.29,441.843 2850.19,442.153 2849.98,442.418 C2849.77,442.684 2849.41,442.905 2848.89,443.083 C2848.38,443.26 2847.69,443.392 2846.84,443.481 C2845.98,443.57 2844.92,443.614 2843.65,443.614 C2842.34,443.614 2841.26,443.57 2840.4,443.481 C2839.55,443.392 2838.86,443.26 2838.35,443.083 C2837.83,442.905 2837.47,442.684 2837.25,442.418 C2837.04,442.153 2836.93,441.843 2836.93,441.489 L2836.93,413.333 C2836.93,411.739 2836.78,410.286 2836.49,408.973 C2836.19,407.661 2835.74,406.533 2835.14,405.59 C2834.53,404.648 2833.75,403.921 2832.79,403.411 C2831.83,402.9 2830.71,402.645 2829.43,402.645 C2827.8,402.645 2826.16,403.265 2824.53,404.504 C2822.9,405.744 2821.15,407.551 2819.28,409.926 L2819.28,441.489 C2819.28,441.843 2819.17,442.153 2818.96,442.418 C2818.74,442.684 2818.38,442.905 2817.86,443.083 C2817.35,443.26 2816.66,443.392 2815.81,443.481 C2814.95,443.57 2813.87,443.614 2812.56,443.614 C2811.25,443.614 2810.16,443.57 2809.32,443.481 C2808.47,443.392 2807.78,443.26 2807.27,443.083 C2806.75,442.905 2806.39,442.684 2806.17,442.418 C2805.96,442.153 2805.85,441.843 2805.85,441.489 L2805.85,394.02 C2805.85,393.666 2805.94,393.356 2806.12,393.09 C2806.3,392.825 2806.62,392.603 2807.08,392.426 C2807.54,392.249 2808.14,392.116 2808.86,392.028 C2809.59,391.939 2810.5,391.895 2811.6,391.895 C2812.74,391.895 2813.68,391.939 2814.42,392.028 C2815.17,392.116 2815.75,392.249 2816.15,392.426 C2816.56,392.603 2816.85,392.825 2817.03,393.09 C2817.22,393.356 2817.31,393.666 2817.31,394.02 L2817.31,399.504 C2819.93,396.661 2822.55,394.53 2825.15,393.114 C2827.76,391.697 2830.48,390.989 2833.32,390.989 C2835.27,390.989 2837.03,391.192 2838.59,391.598 C2840.15,392.004 2841.54,392.588 2842.77,393.348 C2843.99,394.109 2845.05,395.023 2845.93,396.09 C2846.82,397.158 2847.56,398.348 2848.17,399.661 C2849.58,398.129 2850.98,396.814 2852.35,395.715 C2853.72,394.616 2855.07,393.721 2856.39,393.028 C2857.72,392.335 2859.05,391.822 2860.39,391.489 C2861.72,391.155 2863.07,390.989 2864.45,390.989 C2867.62,390.989 2870.28,391.52 2872.44,392.583 C2874.6,393.645 2876.35,395.09 2877.68,396.918 C2879.02,398.747 2879.97,400.885 2880.53,403.333 C2881.1,405.78 2881.39,408.369 2881.39,411.098 L2881.39,441.489 "/>
</svg>
