<?xml version="1.0" encoding="UTF-8" standalone="no"?>
<svg width="2976.38px" height="1417.32px" viewBox="0 0 2976.38 1417.32"
 xmlns="http://www.w3.org/2000/svg" xmlns:xlink="http://www.w3.org/1999/xlink" version="1.2" baseProfile="tiny">
<title>HorseAndBuggy</title>
<desc>Generated by MuseScore 3.6.2</desc>
<polyline class="StaffLines" fill="none" stroke="#000000" stroke-width="2.73" stroke-linejoin="bevel" points="138.189,187.795 2933.86,187.795"/>
<polyline class="StaffLines" fill="none" stroke="#000000" stroke-width="2.73" stroke-linejoin="bevel" points="138.189,212.598 2933.86,212.598"/>
<polyline class="StaffLines" fill="none" stroke="#000000" stroke-width="2.73" stroke-linejoin="bevel" points="138.189,237.402 2933.86,237.402"/>
<polyline class="StaffLines" fill="none" stroke="#000000" stroke-width="2.73" stroke-linejoin="bevel" points="138.189,262.205 2933.86,262.205"/>
<polyline class="StaffLines" fill="none" stroke="#000000" stroke-width="2.73" stroke-linejoin="bevel" points="138.189,287.008 2933.86,287.008"/>
<polyline class="StaffLines" fill="none" stroke="#000000" stroke-width="2.73" stroke-linejoin="bevel" points="14.1732,497.835 2933.86,497.835"/>
<polyline class="StaffLines" fill="none" stroke="#000000" stroke-width="2.73" stroke-linejoin="bevel" points="14.1732,522.638 2933.86,522.638"/>
<polyline class="StaffLines" fill="none" stroke="#000000" stroke-width="2.73" stroke-linejoin="bevel" points="14.1732,547.441 2933.86,547.441"/>
<polyline class="StaffLines" fill="none" stroke="#000000" stroke-width="2.73" stroke-linejoin="bevel" points="14.1732,572.244 2933.86,572.244"/>
<polyline class="StaffLines" fill="none" stroke="#000000" stroke-width="2.73" stroke-linejoin="bevel" points="14.1732,597.047 2933.86,597.047"/>
<polyline class="StaffLines" fill="none" stroke="#000000" stroke-width="2.73" stroke-linejoin="bevel" points="14.1732,815.417 2933.86,815.417"/>
<polyline class="StaffLines" fill="none" stroke="#000000" stroke-width="2.73" stroke-linejoin="bevel" points="14.1732,840.22 2933.86,840.22"/>
<polyline class="StaffLines" fill="none" stroke="#000000" stroke-width="2.73" stroke-linejoin="bevel" points="14.1732,865.023 2933.86,865.023"/>
<polyline class="StaffLines" fill="none" stroke="#000000" stroke-width="2.73" stroke-linejoin="bevel" points="14.1732,889.826 2933.86,889.826"/>
<polyline class="StaffLines" fill="none" stroke="#000000" stroke-width="2.73" stroke-linejoin="bevel" points="14.1732,914.629 2933.86,914.629"/>
<polyline class="StaffLines" fill="none" stroke="#000000" stroke-width="2.73" stroke-linejoin="bevel" points="14.1732,1125.46 2933.86,1125.46"/>
<polyline class="StaffLines" fill="none" stroke="#000000" stroke-width="2.73" stroke-linejoin="bevel" points="14.1732,1150.26 2933.86,1150.26"/>
<polyline class="StaffLines" fill="none" stroke="#000000" stroke-width="2.73" stroke-linejoin="bevel" points="14.1732,1175.06 2933.86,1175.06"/>
<polyline class="StaffLines" fill="none" stroke="#000000" stroke-width="2.73" stroke-linejoin="bevel" points="14.1732,1199.87 2933.86,1199.87"/>
<polyline class="StaffLines" fill="none" stroke="#000000" stroke-width="2.73" stroke-linejoin="bevel" points="14.1732,1224.67 2933.86,1224.67"/>
<polyline class="BarLine" fill="none" stroke="#000000" stroke-width="4.46" stroke-linejoin="bevel" points="953.226,186.431 953.226,288.372"/>
<polyline class="BarLine" fill="none" stroke="#000000" stroke-width="4.46" stroke-linejoin="bevel" points="1612.69,186.431 1612.69,288.372"/>
<polyline class="BarLine" fill="none" stroke="#000000" stroke-width="4.46" stroke-linejoin="bevel" points="2272.16,186.431 2272.16,288.372"/>
<polyline class="BarLine" fill="none" stroke="#000000" stroke-width="4.46" stroke-linejoin="bevel" points="2931.63,186.431 2931.63,288.372"/>
<polyline class="BarLine" fill="none" stroke="#000000" stroke-width="4.46" stroke-linejoin="bevel" points="808.481,496.47 808.481,598.411"/>
<polyline class="BarLine" fill="none" stroke="#000000" stroke-width="4.46" stroke-linejoin="bevel" points="1502.1,496.47 1502.1,598.411"/>
<polyline class="BarLine" fill="none" stroke="#000000" stroke-width="4.46" stroke-linejoin="bevel" points="2195.73,496.47 2195.73,598.411"/>
<path class="BarLine" transform="matrix(0.992126,0,0,0.992126,2887.12,535.039)" d="M10.4063,0 C10.4063,-2.90625 8.09375,-5.29688 5.20313,-5.29688 C2.29688,-5.29688 0,-2.90625 0,0 C0,2.90625 2.29688,5.29688 5.20313,5.29688 C8.09375,5.29688 10.4063,2.90625 10.4063,0"/>
<path class="BarLine" transform="matrix(0.992126,0,0,0.992126,2887.12,559.843)" d="M10.4063,0 C10.4063,-2.90625 8.09375,-5.29688 5.20313,-5.29688 C2.29688,-5.29688 0,-2.90625 0,0 C0,2.90625 2.29688,5.29688 5.20313,5.29688 C8.09375,5.29688 10.4063,2.90625 10.4063,0"/>
<polyline class="BarLine" fill="none" stroke="#000000" stroke-width="4.46" stroke-linejoin="bevel" points="2909.64,496.47 2909.64,598.411"/>
<polyline class="BarLine" fill="none" stroke="#000000" stroke-width="13.64" stroke-linejoin="bevel" points="2927,496.47 2927,598.411"/>
<polyline class="BarLine" fill="none" stroke="#000000" stroke-width="4.46" stroke-linejoin="bevel" points="821.432,814.053 821.432,915.994"/>
<polyline class="BarLine" fill="none" stroke="#000000" stroke-width="4.46" stroke-linejoin="bevel" points="1524.83,814.053 1524.83,915.994"/>
<polyline class="BarLine" fill="none" stroke="#000000" stroke-width="4.46" stroke-linejoin="bevel" points="2228.23,814.053 2228.23,915.994"/>
<polyline class="BarLine" fill="none" stroke="#000000" stroke-width="4.46" stroke-linejoin="bevel" points="2931.63,814.053 2931.63,915.994"/>
<polyline class="BarLine" fill="none" stroke="#000000" stroke-width="4.46" stroke-linejoin="bevel" points="812.511,1124.09 812.511,1226.03"/>
<polyline class="BarLine" fill="none" stroke="#000000" stroke-width="4.46" stroke-linejoin="bevel" points="1494.04,1124.09 1494.04,1226.03"/>
<polyline class="BarLine" fill="none" stroke="#000000" stroke-width="4.46" stroke-linejoin="bevel" points="2191.69,1124.09 2191.69,1226.03"/>
<path class="BarLine" transform="matrix(0.992126,0,0,0.992126,2887.12,1162.66)" d="M10.4063,0 C10.4063,-2.90625 8.09375,-5.29688 5.20313,-5.29688 C2.29688,-5.29688 0,-2.90625 0,0 C0,2.90625 2.29688,5.29688 5.20313,5.29688 C8.09375,5.29688 10.4063,2.90625 10.4063,0"/>
<path class="BarLine" transform="matrix(0.992126,0,0,0.992126,2887.12,1187.46)" d="M10.4063,0 C10.4063,-2.90625 8.09375,-5.29688 5.20313,-5.29688 C2.29688,-5.29688 0,-2.90625 0,0 C0,2.90625 2.29688,5.29688 5.20313,5.29688 C8.09375,5.29688 10.4063,2.90625 10.4063,0"/>
<polyline class="BarLine" fill="none" stroke="#000000" stroke-width="4.46" stroke-linejoin="bevel" points="2909.64,1124.09 2909.64,1226.03"/>
<polyline class="BarLine" fill="none" stroke="#000000" stroke-width="13.64" stroke-linejoin="bevel" points="2927,1124.09 2927,1226.03"/>
<path class="Note" transform="matrix(0.992126,0,0,0.992126,338.405,237.402)" d="M43,-25 L0,25 L10,25 L53,-25 L43,-25 "/>
<path class="Note" transform="matrix(0.992126,0,0,0.992126,489.01,237.402)" d="M43,-25 L0,25 L10,25 L53,-25 L43,-25 "/>
<path class="Note" transform="matrix(0.992126,0,0,0.992126,639.615,237.402)" d="M43,-25 L0,25 L10,25 L53,-25 L43,-25 "/>
<path class="Note" transform="matrix(0.992126,0,0,0.992126,790.22,237.402)" d="M43,-25 L0,25 L10,25 L53,-25 L43,-25 "/>
<path class="Note" transform="matrix(0.992126,0,0,0.992126,997.872,237.402)" d="M43,-25 L0,25 L10,25 L53,-25 L43,-25 "/>
<path class="Note" transform="matrix(0.992126,0,0,0.992126,1148.48,237.402)" d="M43,-25 L0,25 L10,25 L53,-25 L43,-25 "/>
<path class="Note" transform="matrix(0.992126,0,0,0.992126,1299.08,237.402)" d="M43,-25 L0,25 L10,25 L53,-25 L43,-25 "/>
<path class="Note" transform="matrix(0.992126,0,0,0.992126,1449.69,237.402)" d="M43,-25 L0,25 L10,25 L53,-25 L43,-25 "/>
<path class="Note" transform="matrix(0.992126,0,0,0.992126,1657.34,237.402)" d="M43,-25 L0,25 L10,25 L53,-25 L43,-25 "/>
<path class="Note" transform="matrix(0.992126,0,0,0.992126,1807.94,237.402)" d="M43,-25 L0,25 L10,25 L53,-25 L43,-25 "/>
<path class="Note" transform="matrix(0.992126,0,0,0.992126,1958.55,237.402)" d="M43,-25 L0,25 L10,25 L53,-25 L43,-25 "/>
<path class="Note" transform="matrix(0.992126,0,0,0.992126,2109.15,237.402)" d="M43,-25 L0,25 L10,25 L53,-25 L43,-25 "/>
<path class="Note" transform="matrix(0.992126,0,0,0.992126,2316.81,237.402)" d="M43,-25 L0,25 L10,25 L53,-25 L43,-25 "/>
<path class="Note" transform="matrix(0.992126,0,0,0.992126,2467.41,237.402)" d="M43,-25 L0,25 L10,25 L53,-25 L43,-25 "/>
<path class="Note" transform="matrix(0.992126,0,0,0.992126,2618.02,237.402)" d="M43,-25 L0,25 L10,25 L53,-25 L43,-25 "/>
<path class="Note" transform="matrix(0.992126,0,0,0.992126,2768.62,237.402)" d="M43,-25 L0,25 L10,25 L53,-25 L43,-25 "/>
<path class="Note" transform="matrix(0.992126,0,0,0.992126,159.504,547.441)" d="M43,-25 L0,25 L10,25 L53,-25 L43,-25 "/>
<path class="Note" transform="matrix(0.992126,0,0,0.992126,318.648,547.441)" d="M43,-25 L0,25 L10,25 L53,-25 L43,-25 "/>
<path class="Note" transform="matrix(0.992126,0,0,0.992126,477.792,547.441)" d="M43,-25 L0,25 L10,25 L53,-25 L43,-25 "/>
<path class="Note" transform="matrix(0.992126,0,0,0.992126,636.935,547.441)" d="M43,-25 L0,25 L10,25 L53,-25 L43,-25 "/>
<path class="Note" transform="matrix(0.992126,0,0,0.992126,853.126,547.441)" d="M43,-25 L0,25 L10,25 L53,-25 L43,-25 "/>
<path class="Note" transform="matrix(0.992126,0,0,0.992126,1012.27,547.441)" d="M43,-25 L0,25 L10,25 L53,-25 L43,-25 "/>
<path class="Note" transform="matrix(0.992126,0,0,0.992126,1171.41,547.441)" d="M43,-25 L0,25 L10,25 L53,-25 L43,-25 "/>
<path class="Note" transform="matrix(0.992126,0,0,0.992126,1330.56,547.441)" d="M43,-25 L0,25 L10,25 L53,-25 L43,-25 "/>
<path class="Note" transform="matrix(0.992126,0,0,0.992126,1546.75,547.441)" d="M43,-25 L0,25 L10,25 L53,-25 L43,-25 "/>
<path class="Note" transform="matrix(0.992126,0,0,0.992126,1705.89,547.441)" d="M43,-25 L0,25 L10,25 L53,-25 L43,-25 "/>
<path class="Note" transform="matrix(0.992126,0,0,0.992126,1865.04,547.441)" d="M43,-25 L0,25 L10,25 L53,-25 L43,-25 "/>
<path class="Note" transform="matrix(0.992126,0,0,0.992126,2024.18,547.441)" d="M43,-25 L0,25 L10,25 L53,-25 L43,-25 "/>
<path class="Note" transform="matrix(0.992126,0,0,0.992126,2240.37,547.441)" d="M43,-25 L0,25 L10,25 L53,-25 L43,-25 "/>
<path class="Note" transform="matrix(0.992126,0,0,0.992126,2399.51,547.441)" d="M43,-25 L0,25 L10,25 L53,-25 L43,-25 "/>
<path class="Note" transform="matrix(0.992126,0,0,0.992126,2558.66,547.441)" d="M43,-25 L0,25 L10,25 L53,-25 L43,-25 "/>
<path class="Note" transform="matrix(0.992126,0,0,0.992126,2717.8,547.441)" d="M43,-25 L0,25 L10,25 L53,-25 L43,-25 "/>
<path class="Note" transform="matrix(0.992126,0,0,0.992126,159.504,865.023)" d="M43,-25 L0,25 L10,25 L53,-25 L43,-25 "/>
<path class="Note" transform="matrix(0.992126,0,0,0.992126,320.025,865.023)" d="M43,-25 L0,25 L10,25 L53,-25 L43,-25 "/>
<path class="Note" transform="matrix(0.992126,0,0,0.992126,483.027,865.023)" d="M43,-25 L0,25 L10,25 L53,-25 L43,-25 "/>
<path class="Note" transform="matrix(0.992126,0,0,0.992126,646.029,865.023)" d="M43,-25 L0,25 L10,25 L53,-25 L43,-25 "/>
<path class="Note" transform="matrix(0.992126,0,0,0.992126,866.078,865.023)" d="M43,-25 L0,25 L10,25 L53,-25 L43,-25 "/>
<path class="Note" transform="matrix(0.992126,0,0,0.992126,1027.67,865.023)" d="M43,-25 L0,25 L10,25 L53,-25 L43,-25 "/>
<path class="Note" transform="matrix(0.992126,0,0,0.992126,1189.25,865.023)" d="M43,-25 L0,25 L10,25 L53,-25 L43,-25 "/>
<path class="Note" transform="matrix(0.992126,0,0,0.992126,1350.84,865.023)" d="M43,-25 L0,25 L10,25 L53,-25 L43,-25 "/>
<path class="Note" transform="matrix(0.992126,0,0,0.992126,1569.48,865.023)" d="M43,-25 L0,25 L10,25 L53,-25 L43,-25 "/>
<path class="Note" transform="matrix(0.992126,0,0,0.992126,1731.06,865.023)" d="M43,-25 L0,25 L10,25 L53,-25 L43,-25 "/>
<path class="Note" transform="matrix(0.992126,0,0,0.992126,1892.65,865.023)" d="M43,-25 L0,25 L10,25 L53,-25 L43,-25 "/>
<path class="Note" transform="matrix(0.992126,0,0,0.992126,2054.24,865.023)" d="M43,-25 L0,25 L10,25 L53,-25 L43,-25 "/>
<path class="Note" transform="matrix(0.992126,0,0,0.992126,2272.87,865.023)" d="M43,-25 L0,25 L10,25 L53,-25 L43,-25 "/>
<path class="Note" transform="matrix(0.992126,0,0,0.992126,2434.46,865.023)" d="M43,-25 L0,25 L10,25 L53,-25 L43,-25 "/>
<path class="Note" transform="matrix(0.992126,0,0,0.992126,2596.05,865.023)" d="M43,-25 L0,25 L10,25 L53,-25 L43,-25 "/>
<path class="Note" transform="matrix(0.992126,0,0,0.992126,2757.64,865.023)" d="M43,-25 L0,25 L10,25 L53,-25 L43,-25 "/>
<path class="Note" transform="matrix(0.992126,0,0,0.992126,159.504,1175.06)" d="M43,-25 L0,25 L10,25 L53,-25 L43,-25 "/>
<path class="Note" transform="matrix(0.992126,0,0,0.992126,319.656,1175.06)" d="M43,-25 L0,25 L10,25 L53,-25 L43,-25 "/>
<path class="Note" transform="matrix(0.992126,0,0,0.992126,479.807,1175.06)" d="M43,-25 L0,25 L10,25 L53,-25 L43,-25 "/>
<path class="Note" transform="matrix(0.992126,0,0,0.992126,639.958,1175.06)" d="M43,-25 L0,25 L10,25 L53,-25 L43,-25 "/>
<path class="Note" transform="matrix(0.992126,0,0,0.992126,841.035,1175.06)" d="M43,-25 L0,25 L10,25 L53,-25 L43,-25 "/>
<path class="Note" transform="matrix(0.992126,0,0,0.992126,1001.19,1175.06)" d="M43,-25 L0,25 L10,25 L53,-25 L43,-25 "/>
<path class="Note" transform="matrix(0.992126,0,0,0.992126,1161.34,1175.06)" d="M43,-25 L0,25 L10,25 L53,-25 L43,-25 "/>
<path class="Note" transform="matrix(0.992126,0,0,0.992126,1321.49,1175.06)" d="M43,-25 L0,25 L10,25 L53,-25 L43,-25 "/>
<path class="Note" transform="matrix(0.992126,0,0,0.992126,1538.69,1175.06)" d="M43,-25 L0,25 L10,25 L53,-25 L43,-25 "/>
<path class="Note" transform="matrix(0.992126,0,0,0.992126,1698.84,1175.06)" d="M43,-25 L0,25 L10,25 L53,-25 L43,-25 "/>
<path class="Note" transform="matrix(0.992126,0,0,0.992126,1858.99,1175.06)" d="M43,-25 L0,25 L10,25 L53,-25 L43,-25 "/>
<path class="Note" transform="matrix(0.992126,0,0,0.992126,2019.14,1175.06)" d="M43,-25 L0,25 L10,25 L53,-25 L43,-25 "/>
<path class="Note" transform="matrix(0.992126,0,0,0.992126,2236.34,1175.06)" d="M43,-25 L0,25 L10,25 L53,-25 L43,-25 "/>
<path class="Note" transform="matrix(0.992126,0,0,0.992126,2396.49,1175.06)" d="M43,-25 L0,25 L10,25 L53,-25 L43,-25 "/>
<path class="Note" transform="matrix(0.992126,0,0,0.992126,2556.64,1175.06)" d="M43,-25 L0,25 L10,25 L53,-25 L43,-25 "/>
<path class="Note" transform="matrix(0.992126,0,0,0.992126,2716.79,1175.06)" d="M43,-25 L0,25 L10,25 L53,-25 L43,-25 "/>
<path class="Clef" transform="matrix(0.992126,0,0,0.992126,158.032,262.205)" d="M63.3594,-5.92188 C62.125,-11.3438 59.4844,-15.1719 58.7031,-16.2031 C55.5156,-20.4844 51.5,-23.3281 46.8125,-24.6875 C43.7031,-25.5625 40.7031,-25.6875 38.2813,-25.5 C37.2344,-31.5156 36.2344,-37.3906 35.3281,-42.8438 C40.7813,-49.0156 44.4063,-54.8125 46.6875,-59.1094 C50.1563,-65.6875 51.2969,-70.2656 51.3594,-70.4688 C53.0781,-75.6875 53.4375,-83.3906 52.3281,-91.5938 C51.3281,-99.1406 49.2344,-105.859 46.875,-109.109 C45.8594,-110.531 44.7969,-111.266 43.7656,-111.266 C42.5469,-111.266 40.0313,-110.031 37.1406,-107.25 C34.8438,-105.063 31.5781,-101.172 29.0156,-95.1563 C26.0156,-88.0938 25.7969,-78.6094 26.1563,-71.8906 C26.5313,-64.6094 27.6406,-58.9219 27.6563,-58.875 C27.6719,-58.7813 27.9375,-57.2813 28.375,-54.7188 C28.1563,-54.4844 27.9063,-54.2656 27.6563,-54.0156 C26.625,-53.0156 25.4375,-51.8906 24.0469,-50.5 C23.1875,-49.6406 22.2344,-48.7344 21.2344,-47.7656 C12.7969,-39.625 0,-27.2969 0,-8.14063 C0,-3.4375 0.90625,0.984375 2.6875,5 C4.26563,8.59375 6.5625,11.875 9.5,14.75 C17.2344,22.3125 27.8281,25.5156 34.875,25.3594 C37.8281,25.2813 40.4688,25.0469 42.8594,24.5938 C44.6875,34.2031 45.8281,41.2344 45.8594,46.5781 C45.9063,53.0938 44.25,57.0781 40.3594,59.8438 C37.9219,61.5781 35.1094,62.5313 32.0156,62.6719 C29.4219,62.7969 27.1563,62.3281 25.7344,61.9219 L25.7188,61.9219 C25.7188,61.9219 25.4375,61.8281 25.4219,61.6406 C25.4063,61.4531 25.7656,61.4063 25.7656,61.4063 L25.7969,61.4063 C27.7188,60.9688 31.2813,59.7344 33.6406,56.4375 C35.4375,53.9063 36.3125,49.2813 34.4688,45.3438 C33.3594,42.9531 30.8594,40 25.2344,39.5469 C22.7344,39.3438 20.4688,39.8594 18.4688,41.0625 C16.6563,42.1406 15.1563,43.7813 14.1094,45.7813 C11.6563,50.4844 12.1094,56.2188 15.2344,60.0625 C18.2031,63.6875 22.8125,66 28.25,66.5781 C29.1094,66.6719 29.9531,66.7031 30.7969,66.7031 C35.2344,66.7031 39.625,65.5 43.2031,63.2969 C46.8594,60.7188 48.9844,56.7344 49.6563,51.1094 C50.2188,46.4688 49.8281,40.5469 48.4375,32.4688 C48.0781,30.375 47.5313,27.3438 46.875,23.5938 C52.625,21.6719 56.7813,18.0938 60.5469,12.2344 C63.8438,6.5 64.7813,0.390625 63.3594,-5.92188 M29.1406,20.2969 C24.5,19.0781 20.0625,16.5781 16.3125,13.0625 C15,11.8438 13.125,9.67188 11.6563,6.28125 C10.2969,3.10938 9.625,-0.328125 9.6875,-3.90625 C9.75,-8.60938 11.0625,-13.4375 13.5625,-18.2188 C16.4844,-23.7969 21.0469,-29.3281 27.1094,-34.6563 C28.5625,-35.9375 29.9375,-37.2188 31.2188,-38.5 C31.9844,-34.2344 32.8125,-29.5469 33.6875,-24.6719 C29.8438,-23.4063 25.0938,-20.25 21.9844,-14.5938 C18.4375,-8.03125 18.5781,-2.5 19.3125,0.984375 C20.25,5.4375 22.7813,9.20313 26.2344,11.2969 C27.1719,11.8594 31.2969,13.9844 33.1406,13.4063 C33.5156,13.2969 33.7813,13.0625 33.9219,12.7344 C34.4375,11.5625 33.4063,10.9219 31.8594,9.96875 C31.25,9.59375 30.5781,9.17188 29.8594,8.64063 C26.5313,6.15625 25.0781,1.70313 26.1563,-2.6875 C26.7344,-5.07813 28.0156,-7.25 29.8594,-8.95313 C31.5156,-10.5 33.5625,-11.5938 35.9375,-12.2344 C37.9844,-0.984375 40.0469,10.1719 41.6875,18.5313 C41.8125,19.2188 41.9531,19.8906 42.0781,20.5625 C37.7031,21.5 33.3594,21.4063 29.1406,20.2969 M40.4688,-12.9063 C50.8125,-13.375 55.0781,-5.9375 55.9688,-1.10938 C56.4375,1.4375 56.4375,5.875 54.8906,10.0938 C53.7188,13.2656 51.2656,17.3438 46.125,19.4063 C46.0625,18.9844 45.9844,18.5469 45.9063,18.125 C44.3594,9.34375 42.4219,-1.65625 40.4688,-12.9063 M33.1406,-83.8594 C34.9219,-89.5938 37.6563,-92.8438 39.6563,-94.5781 C41.4063,-96.0938 43.0469,-96.8125 43.9688,-96.8125 C44.1094,-96.8125 44.2344,-96.7813 44.3281,-96.75 C44.7969,-96.6094 45.3281,-96.0469 45.7969,-95.1719 C48.1094,-90.8906 47.3594,-84.1719 46.0156,-79.7344 C44.3906,-74.3281 41.4688,-68.7188 32.6719,-59.1094 C32.5,-60.2188 32.3438,-61.2656 32.1875,-62.25 C30.9375,-70.5313 31.2656,-77.8125 33.1406,-83.8594"/>
<path class="Clef" transform="matrix(0.992126,0,0,0.992126,34.0158,572.244)" d="M63.3594,-5.92188 C62.125,-11.3438 59.4844,-15.1719 58.7031,-16.2031 C55.5156,-20.4844 51.5,-23.3281 46.8125,-24.6875 C43.7031,-25.5625 40.7031,-25.6875 38.2813,-25.5 C37.2344,-31.5156 36.2344,-37.3906 35.3281,-42.8438 C40.7813,-49.0156 44.4063,-54.8125 46.6875,-59.1094 C50.1563,-65.6875 51.2969,-70.2656 51.3594,-70.4688 C53.0781,-75.6875 53.4375,-83.3906 52.3281,-91.5938 C51.3281,-99.1406 49.2344,-105.859 46.875,-109.109 C45.8594,-110.531 44.7969,-111.266 43.7656,-111.266 C42.5469,-111.266 40.0313,-110.031 37.1406,-107.25 C34.8438,-105.063 31.5781,-101.172 29.0156,-95.1563 C26.0156,-88.0938 25.7969,-78.6094 26.1563,-71.8906 C26.5313,-64.6094 27.6406,-58.9219 27.6563,-58.875 C27.6719,-58.7813 27.9375,-57.2813 28.375,-54.7188 C28.1563,-54.4844 27.9063,-54.2656 27.6563,-54.0156 C26.625,-53.0156 25.4375,-51.8906 24.0469,-50.5 C23.1875,-49.6406 22.2344,-48.7344 21.2344,-47.7656 C12.7969,-39.625 0,-27.2969 0,-8.14063 C0,-3.4375 0.90625,0.984375 2.6875,5 C4.26563,8.59375 6.5625,11.875 9.5,14.75 C17.2344,22.3125 27.8281,25.5156 34.875,25.3594 C37.8281,25.2813 40.4688,25.0469 42.8594,24.5938 C44.6875,34.2031 45.8281,41.2344 45.8594,46.5781 C45.9063,53.0938 44.25,57.0781 40.3594,59.8438 C37.9219,61.5781 35.1094,62.5313 32.0156,62.6719 C29.4219,62.7969 27.1563,62.3281 25.7344,61.9219 L25.7188,61.9219 C25.7188,61.9219 25.4375,61.8281 25.4219,61.6406 C25.4063,61.4531 25.7656,61.4063 25.7656,61.4063 L25.7969,61.4063 C27.7188,60.9688 31.2813,59.7344 33.6406,56.4375 C35.4375,53.9063 36.3125,49.2813 34.4688,45.3438 C33.3594,42.9531 30.8594,40 25.2344,39.5469 C22.7344,39.3438 20.4688,39.8594 18.4688,41.0625 C16.6563,42.1406 15.1563,43.7813 14.1094,45.7813 C11.6563,50.4844 12.1094,56.2188 15.2344,60.0625 C18.2031,63.6875 22.8125,66 28.25,66.5781 C29.1094,66.6719 29.9531,66.7031 30.7969,66.7031 C35.2344,66.7031 39.625,65.5 43.2031,63.2969 C46.8594,60.7188 48.9844,56.7344 49.6563,51.1094 C50.2188,46.4688 49.8281,40.5469 48.4375,32.4688 C48.0781,30.375 47.5313,27.3438 46.875,23.5938 C52.625,21.6719 56.7813,18.0938 60.5469,12.2344 C63.8438,6.5 64.7813,0.390625 63.3594,-5.92188 M29.1406,20.2969 C24.5,19.0781 20.0625,16.5781 16.3125,13.0625 C15,11.8438 13.125,9.67188 11.6563,6.28125 C10.2969,3.10938 9.625,-0.328125 9.6875,-3.90625 C9.75,-8.60938 11.0625,-13.4375 13.5625,-18.2188 C16.4844,-23.7969 21.0469,-29.3281 27.1094,-34.6563 C28.5625,-35.9375 29.9375,-37.2188 31.2188,-38.5 C31.9844,-34.2344 32.8125,-29.5469 33.6875,-24.6719 C29.8438,-23.4063 25.0938,-20.25 21.9844,-14.5938 C18.4375,-8.03125 18.5781,-2.5 19.3125,0.984375 C20.25,5.4375 22.7813,9.20313 26.2344,11.2969 C27.1719,11.8594 31.2969,13.9844 33.1406,13.4063 C33.5156,13.2969 33.7813,13.0625 33.9219,12.7344 C34.4375,11.5625 33.4063,10.9219 31.8594,9.96875 C31.25,9.59375 30.5781,9.17188 29.8594,8.64063 C26.5313,6.15625 25.0781,1.70313 26.1563,-2.6875 C26.7344,-5.07813 28.0156,-7.25 29.8594,-8.95313 C31.5156,-10.5 33.5625,-11.5938 35.9375,-12.2344 C37.9844,-0.984375 40.0469,10.1719 41.6875,18.5313 C41.8125,19.2188 41.9531,19.8906 42.0781,20.5625 C37.7031,21.5 33.3594,21.4063 29.1406,20.2969 M40.4688,-12.9063 C50.8125,-13.375 55.0781,-5.9375 55.9688,-1.10938 C56.4375,1.4375 56.4375,5.875 54.8906,10.0938 C53.7188,13.2656 51.2656,17.3438 46.125,19.4063 C46.0625,18.9844 45.9844,18.5469 45.9063,18.125 C44.3594,9.34375 42.4219,-1.65625 40.4688,-12.9063 M33.1406,-83.8594 C34.9219,-89.5938 37.6563,-92.8438 39.6563,-94.5781 C41.4063,-96.0938 43.0469,-96.8125 43.9688,-96.8125 C44.1094,-96.8125 44.2344,-96.7813 44.3281,-96.75 C44.7969,-96.6094 45.3281,-96.0469 45.7969,-95.1719 C48.1094,-90.8906 47.3594,-84.1719 46.0156,-79.7344 C44.3906,-74.3281 41.4688,-68.7188 32.6719,-59.1094 C32.5,-60.2188 32.3438,-61.2656 32.1875,-62.25 C30.9375,-70.5313 31.2656,-77.8125 33.1406,-83.8594"/>
<path class="Clef" transform="matrix(0.992126,0,0,0.992126,34.0158,889.826)" d="M63.3594,-5.92188 C62.125,-11.3438 59.4844,-15.1719 58.7031,-16.2031 C55.5156,-20.4844 51.5,-23.3281 46.8125,-24.6875 C43.7031,-25.5625 40.7031,-25.6875 38.2813,-25.5 C37.2344,-31.5156 36.2344,-37.3906 35.3281,-42.8438 C40.7813,-49.0156 44.4063,-54.8125 46.6875,-59.1094 C50.1563,-65.6875 51.2969,-70.2656 51.3594,-70.4688 C53.0781,-75.6875 53.4375,-83.3906 52.3281,-91.5938 C51.3281,-99.1406 49.2344,-105.859 46.875,-109.109 C45.8594,-110.531 44.7969,-111.266 43.7656,-111.266 C42.5469,-111.266 40.0313,-110.031 37.1406,-107.25 C34.8438,-105.063 31.5781,-101.172 29.0156,-95.1563 C26.0156,-88.0938 25.7969,-78.6094 26.1563,-71.8906 C26.5313,-64.6094 27.6406,-58.9219 27.6563,-58.875 C27.6719,-58.7813 27.9375,-57.2813 28.375,-54.7188 C28.1563,-54.4844 27.9063,-54.2656 27.6563,-54.0156 C26.625,-53.0156 25.4375,-51.8906 24.0469,-50.5 C23.1875,-49.6406 22.2344,-48.7344 21.2344,-47.7656 C12.7969,-39.625 0,-27.2969 0,-8.14063 C0,-3.4375 0.90625,0.984375 2.6875,5 C4.26563,8.59375 6.5625,11.875 9.5,14.75 C17.2344,22.3125 27.8281,25.5156 34.875,25.3594 C37.8281,25.2813 40.4688,25.0469 42.8594,24.5938 C44.6875,34.2031 45.8281,41.2344 45.8594,46.5781 C45.9063,53.0938 44.25,57.0781 40.3594,59.8438 C37.9219,61.5781 35.1094,62.5313 32.0156,62.6719 C29.4219,62.7969 27.1563,62.3281 25.7344,61.9219 L25.7188,61.9219 C25.7188,61.9219 25.4375,61.8281 25.4219,61.6406 C25.4063,61.4531 25.7656,61.4063 25.7656,61.4063 L25.7969,61.4063 C27.7188,60.9688 31.2813,59.7344 33.6406,56.4375 C35.4375,53.9063 36.3125,49.2813 34.4688,45.3438 C33.3594,42.9531 30.8594,40 25.2344,39.5469 C22.7344,39.3438 20.4688,39.8594 18.4688,41.0625 C16.6563,42.1406 15.1563,43.7813 14.1094,45.7813 C11.6563,50.4844 12.1094,56.2188 15.2344,60.0625 C18.2031,63.6875 22.8125,66 28.25,66.5781 C29.1094,66.6719 29.9531,66.7031 30.7969,66.7031 C35.2344,66.7031 39.625,65.5 43.2031,63.2969 C46.8594,60.7188 48.9844,56.7344 49.6563,51.1094 C50.2188,46.4688 49.8281,40.5469 48.4375,32.4688 C48.0781,30.375 47.5313,27.3438 46.875,23.5938 C52.625,21.6719 56.7813,18.0938 60.5469,12.2344 C63.8438,6.5 64.7813,0.390625 63.3594,-5.92188 M29.1406,20.2969 C24.5,19.0781 20.0625,16.5781 16.3125,13.0625 C15,11.8438 13.125,9.67188 11.6563,6.28125 C10.2969,3.10938 9.625,-0.328125 9.6875,-3.90625 C9.75,-8.60938 11.0625,-13.4375 13.5625,-18.2188 C16.4844,-23.7969 21.0469,-29.3281 27.1094,-34.6563 C28.5625,-35.9375 29.9375,-37.2188 31.2188,-38.5 C31.9844,-34.2344 32.8125,-29.5469 33.6875,-24.6719 C29.8438,-23.4063 25.0938,-20.25 21.9844,-14.5938 C18.4375,-8.03125 18.5781,-2.5 19.3125,0.984375 C20.25,5.4375 22.7813,9.20313 26.2344,11.2969 C27.1719,11.8594 31.2969,13.9844 33.1406,13.4063 C33.5156,13.2969 33.7813,13.0625 33.9219,12.7344 C34.4375,11.5625 33.4063,10.9219 31.8594,9.96875 C31.25,9.59375 30.5781,9.17188 29.8594,8.64063 C26.5313,6.15625 25.0781,1.70313 26.1563,-2.6875 C26.7344,-5.07813 28.0156,-7.25 29.8594,-8.95313 C31.5156,-10.5 33.5625,-11.5938 35.9375,-12.2344 C37.9844,-0.984375 40.0469,10.1719 41.6875,18.5313 C41.8125,19.2188 41.9531,19.8906 42.0781,20.5625 C37.7031,21.5 33.3594,21.4063 29.1406,20.2969 M40.4688,-12.9063 C50.8125,-13.375 55.0781,-5.9375 55.9688,-1.10938 C56.4375,1.4375 56.4375,5.875 54.8906,10.0938 C53.7188,13.2656 51.2656,17.3438 46.125,19.4063 C46.0625,18.9844 45.9844,18.5469 45.9063,18.125 C44.3594,9.34375 42.4219,-1.65625 40.4688,-12.9063 M33.1406,-83.8594 C34.9219,-89.5938 37.6563,-92.8438 39.6563,-94.5781 C41.4063,-96.0938 43.0469,-96.8125 43.9688,-96.8125 C44.1094,-96.8125 44.2344,-96.7813 44.3281,-96.75 C44.7969,-96.6094 45.3281,-96.0469 45.7969,-95.1719 C48.1094,-90.8906 47.3594,-84.1719 46.0156,-79.7344 C44.3906,-74.3281 41.4688,-68.7188 32.6719,-59.1094 C32.5,-60.2188 32.3438,-61.2656 32.1875,-62.25 C30.9375,-70.5313 31.2656,-77.8125 33.1406,-83.8594"/>
<path class="Clef" transform="matrix(0.992126,0,0,0.992126,34.0158,1199.87)" d="M63.3594,-5.92188 C62.125,-11.3438 59.4844,-15.1719 58.7031,-16.2031 C55.5156,-20.4844 51.5,-23.3281 46.8125,-24.6875 C43.7031,-25.5625 40.7031,-25.6875 38.2813,-25.5 C37.2344,-31.5156 36.2344,-37.3906 35.3281,-42.8438 C40.7813,-49.0156 44.4063,-54.8125 46.6875,-59.1094 C50.1563,-65.6875 51.2969,-70.2656 51.3594,-70.4688 C53.0781,-75.6875 53.4375,-83.3906 52.3281,-91.5938 C51.3281,-99.1406 49.2344,-105.859 46.875,-109.109 C45.8594,-110.531 44.7969,-111.266 43.7656,-111.266 C42.5469,-111.266 40.0313,-110.031 37.1406,-107.25 C34.8438,-105.063 31.5781,-101.172 29.0156,-95.1563 C26.0156,-88.0938 25.7969,-78.6094 26.1563,-71.8906 C26.5313,-64.6094 27.6406,-58.9219 27.6563,-58.875 C27.6719,-58.7813 27.9375,-57.2813 28.375,-54.7188 C28.1563,-54.4844 27.9063,-54.2656 27.6563,-54.0156 C26.625,-53.0156 25.4375,-51.8906 24.0469,-50.5 C23.1875,-49.6406 22.2344,-48.7344 21.2344,-47.7656 C12.7969,-39.625 0,-27.2969 0,-8.14063 C0,-3.4375 0.90625,0.984375 2.6875,5 C4.26563,8.59375 6.5625,11.875 9.5,14.75 C17.2344,22.3125 27.8281,25.5156 34.875,25.3594 C37.8281,25.2813 40.4688,25.0469 42.8594,24.5938 C44.6875,34.2031 45.8281,41.2344 45.8594,46.5781 C45.9063,53.0938 44.25,57.0781 40.3594,59.8438 C37.9219,61.5781 35.1094,62.5313 32.0156,62.6719 C29.4219,62.7969 27.1563,62.3281 25.7344,61.9219 L25.7188,61.9219 C25.7188,61.9219 25.4375,61.8281 25.4219,61.6406 C25.4063,61.4531 25.7656,61.4063 25.7656,61.4063 L25.7969,61.4063 C27.7188,60.9688 31.2813,59.7344 33.6406,56.4375 C35.4375,53.9063 36.3125,49.2813 34.4688,45.3438 C33.3594,42.9531 30.8594,40 25.2344,39.5469 C22.7344,39.3438 20.4688,39.8594 18.4688,41.0625 C16.6563,42.1406 15.1563,43.7813 14.1094,45.7813 C11.6563,50.4844 12.1094,56.2188 15.2344,60.0625 C18.2031,63.6875 22.8125,66 28.25,66.5781 C29.1094,66.6719 29.9531,66.7031 30.7969,66.7031 C35.2344,66.7031 39.625,65.5 43.2031,63.2969 C46.8594,60.7188 48.9844,56.7344 49.6563,51.1094 C50.2188,46.4688 49.8281,40.5469 48.4375,32.4688 C48.0781,30.375 47.5313,27.3438 46.875,23.5938 C52.625,21.6719 56.7813,18.0938 60.5469,12.2344 C63.8438,6.5 64.7813,0.390625 63.3594,-5.92188 M29.1406,20.2969 C24.5,19.0781 20.0625,16.5781 16.3125,13.0625 C15,11.8438 13.125,9.67188 11.6563,6.28125 C10.2969,3.10938 9.625,-0.328125 9.6875,-3.90625 C9.75,-8.60938 11.0625,-13.4375 13.5625,-18.2188 C16.4844,-23.7969 21.0469,-29.3281 27.1094,-34.6563 C28.5625,-35.9375 29.9375,-37.2188 31.2188,-38.5 C31.9844,-34.2344 32.8125,-29.5469 33.6875,-24.6719 C29.8438,-23.4063 25.0938,-20.25 21.9844,-14.5938 C18.4375,-8.03125 18.5781,-2.5 19.3125,0.984375 C20.25,5.4375 22.7813,9.20313 26.2344,11.2969 C27.1719,11.8594 31.2969,13.9844 33.1406,13.4063 C33.5156,13.2969 33.7813,13.0625 33.9219,12.7344 C34.4375,11.5625 33.4063,10.9219 31.8594,9.96875 C31.25,9.59375 30.5781,9.17188 29.8594,8.64063 C26.5313,6.15625 25.0781,1.70313 26.1563,-2.6875 C26.7344,-5.07813 28.0156,-7.25 29.8594,-8.95313 C31.5156,-10.5 33.5625,-11.5938 35.9375,-12.2344 C37.9844,-0.984375 40.0469,10.1719 41.6875,18.5313 C41.8125,19.2188 41.9531,19.8906 42.0781,20.5625 C37.7031,21.5 33.3594,21.4063 29.1406,20.2969 M40.4688,-12.9063 C50.8125,-13.375 55.0781,-5.9375 55.9688,-1.10938 C56.4375,1.4375 56.4375,5.875 54.8906,10.0938 C53.7188,13.2656 51.2656,17.3438 46.125,19.4063 C46.0625,18.9844 45.9844,18.5469 45.9063,18.125 C44.3594,9.34375 42.4219,-1.65625 40.4688,-12.9063 M33.1406,-83.8594 C34.9219,-89.5938 37.6563,-92.8438 39.6563,-94.5781 C41.4063,-96.0938 43.0469,-96.8125 43.9688,-96.8125 C44.1094,-96.8125 44.2344,-96.7813 44.3281,-96.75 C44.7969,-96.6094 45.3281,-96.0469 45.7969,-95.1719 C48.1094,-90.8906 47.3594,-84.1719 46.0156,-79.7344 C44.3906,-74.3281 41.4688,-68.7188 32.6719,-59.1094 C32.5,-60.2188 32.3438,-61.2656 32.1875,-62.25 C30.9375,-70.5313 31.2656,-77.8125 33.1406,-83.8594"/>
<path class="TimeSig" transform="matrix(0.992126,0,0,0.992126,244.951,212.73)" d="M3.59375,12.625 L20.7656,12.625 L20.7656,20.0781 L12.5469,20.0781 C11.7656,20.0781 11.125,20.7031 11.125,21.4844 L11.125,23.3906 C11.125,24.1719 11.7656,24.7969 12.5469,24.7969 L42.7969,24.7969 C43.5781,24.7969 44.2031,24.1719 44.2031,23.3906 L44.2031,21.4844 C44.2031,20.7031 43.5781,20.0781 42.7969,20.0781 L33.8594,20.0781 L33.8594,12.625 L42.7969,12.625 C43.5781,12.625 44.2031,12 44.2031,11.2188 L44.2031,9.3125 C44.2031,8.53125 43.5781,7.90625 42.7969,7.90625 L33.8594,7.90625 L33.8594,-8.0625 C33.8594,-8.59375 33.5469,-9.07813 33.0781,-9.3125 L31.8594,-9.92188 C31.3281,-10.1719 30.7031,-10.0781 30.2656,-9.6875 L21.2188,-1.375 C20.9375,-1.09375 20.7656,-0.734375 20.7656,-0.328125 L20.7656,7.90625 L9.25,7.90625 C9.25,7.90625 20.375,-4.125 32.2188,-19.8906 C33.0781,-21.0469 32.5781,-22.0938 32.3906,-22.2813 L30.2188,-24.4844 C29.9531,-24.75 29.5938,-24.9063 29.2188,-24.9063 C28.625,-24.9063 15.0625,-24.875 14.3438,-24.9063 C13.625,-24.9219 13.0938,-24.2969 13.0156,-23.6875 C13.0156,-23.6875 12.4844,-16.3281 9.875,-8.1875 C7.28125,-0.078125 4.34375,4.90625 1.6875,8.53125 C1.6875,8.53125 1.14063,9.51563 1.5,10.2656 C1.84375,11.0156 2.48438,12.0938 2.48438,12.0938 C2.48438,12.0938 2.73438,12.625 3.59375,12.625"/>
<path class="TimeSig" transform="matrix(0.992126,0,0,0.992126,244.951,262.073)" d="M3.59375,12.625 L20.7656,12.625 L20.7656,20.0781 L12.5469,20.0781 C11.7656,20.0781 11.125,20.7031 11.125,21.4844 L11.125,23.3906 C11.125,24.1719 11.7656,24.7969 12.5469,24.7969 L42.7969,24.7969 C43.5781,24.7969 44.2031,24.1719 44.2031,23.3906 L44.2031,21.4844 C44.2031,20.7031 43.5781,20.0781 42.7969,20.0781 L33.8594,20.0781 L33.8594,12.625 L42.7969,12.625 C43.5781,12.625 44.2031,12 44.2031,11.2188 L44.2031,9.3125 C44.2031,8.53125 43.5781,7.90625 42.7969,7.90625 L33.8594,7.90625 L33.8594,-8.0625 C33.8594,-8.59375 33.5469,-9.07813 33.0781,-9.3125 L31.8594,-9.92188 C31.3281,-10.1719 30.7031,-10.0781 30.2656,-9.6875 L21.2188,-1.375 C20.9375,-1.09375 20.7656,-0.734375 20.7656,-0.328125 L20.7656,7.90625 L9.25,7.90625 C9.25,7.90625 20.375,-4.125 32.2188,-19.8906 C33.0781,-21.0469 32.5781,-22.0938 32.3906,-22.2813 L30.2188,-24.4844 C29.9531,-24.75 29.5938,-24.9063 29.2188,-24.9063 C28.625,-24.9063 15.0625,-24.875 14.3438,-24.9063 C13.625,-24.9219 13.0938,-24.2969 13.0156,-23.6875 C13.0156,-23.6875 12.4844,-16.3281 9.875,-8.1875 C7.28125,-0.078125 4.34375,4.90625 1.6875,8.53125 C1.6875,8.53125 1.14063,9.51563 1.5,10.2656 C1.84375,11.0156 2.48438,12.0938 2.48438,12.0938 C2.48438,12.0938 2.73438,12.625 3.59375,12.625"/>
<path class="RehearsalMark" fill="none" stroke="#000000" stroke-width="3.97" stroke-linecap="square" stroke-linejoin="miter" stroke-miterlimit="2" fill-rule="evenodd" d="M154.216,21.0729 L262.987,21.0729 L262.987,122.845 L154.216,122.845 L154.216,21.0729 "/>
<path class="RehearsalMark" d="M205.352,35.4899 L182.883,87.9587 C178.32,98.6618 174.664,102.521 168.82,103.115 L168.82,108.459 L197.43,108.459 L197.43,103.115 C190.398,102.724 187.633,100.834 187.633,96.2868 C187.633,94.5993 188.023,93.0212 189.117,90.6462 L190.695,86.8806 L215.352,86.8806 L219.117,96.5837 C220.195,99.3493 220.305,99.8493 220.305,100.631 C220.305,102.427 218.914,103.021 214.555,103.021 L212.867,103.115 L212.867,108.459 L247.617,108.459 L247.617,103.115 C241.977,102.912 240.398,101.927 238.32,96.8806 L212.867,35.4899 L205.352,35.4899 M203.273,56.5837 L212.867,80.2399 L193.273,80.2399 L203.273,56.5837 "/>
<path class="RehearsalMark" fill="none" stroke="#000000" stroke-width="3.97" stroke-linecap="square" stroke-linejoin="miter" stroke-miterlimit="2" fill-rule="evenodd" d="M32.3294,654.622 L133.101,654.622 L133.101,755.393 L32.3294,755.393 L32.3294,654.622 "/>
<path class="RehearsalMark" d="M47.4027,669.523 L47.4027,674.882 L48.8871,674.882 C54.2308,674.882 56.1058,675.273 56.9964,676.257 C57.6996,677.351 57.6996,677.648 57.6996,683.789 L57.6996,726.757 C57.6996,732.882 57.6996,733.179 56.9964,734.179 C56.1058,735.273 54.1371,735.664 48.8871,735.664 L47.4027,735.664 L47.4027,741.007 L87.4964,741.007 C97.7933,741.007 103.043,740.211 108.184,737.945 C114.418,735.164 118.575,728.929 118.575,722.195 C118.575,715.273 114.621,709.82 107.293,706.461 C103.934,704.867 101.059,704.086 95.8089,703.382 C100.653,702.601 103.434,701.898 106.2,700.617 C112.137,697.742 115.309,692.992 115.309,687.054 C115.309,681.414 112.34,676.164 107.496,673.492 C102.043,670.414 97.2933,669.523 85.6058,669.523 L47.4027,669.523 M75.5121,701.601 L75.5121,680.617 C75.3089,676.461 76.6996,675.07 81.0589,674.882 L84.0277,674.882 C92.7464,674.882 97.3871,679.226 97.3871,687.445 C97.3871,692.304 95.7152,696.164 92.5433,698.632 C89.8714,700.82 86.4964,701.601 80.3714,701.601 L75.5121,701.601 M75.5121,707.054 L82.3402,707.054 C88.5746,707.054 91.4496,707.648 94.2308,709.429 C97.6839,711.711 99.6683,716.054 99.6683,721.211 C99.6683,725.961 97.8871,730.32 95.0121,732.695 C92.5433,734.664 89.2777,735.664 84.5277,735.664 L81.5589,735.664 C75.9027,735.461 75.3089,734.867 75.5121,729.32 L75.5121,707.054 "/>
<path class="Harmony" d="M350.527,121.866 C350.496,121.881 350.449,121.881 350.386,121.881 C350.324,121.881 350.277,121.897 350.246,121.897 C350.199,121.912 350.152,121.912 350.09,121.928 C350.027,121.928 349.996,121.944 349.949,121.959 C349.902,121.975 349.871,122.006 349.824,122.022 C349.777,122.053 349.746,122.069 349.73,122.116 C349.683,122.147 349.668,122.178 349.636,122.225 C349.621,122.256 349.605,122.319 349.605,122.366 C349.605,122.397 349.605,122.428 349.605,122.475 L349.605,122.506 C349.605,122.537 349.605,122.584 349.605,122.647 C349.621,122.709 349.621,122.756 349.621,122.787 C349.621,123.366 349.636,123.928 349.652,124.475 C349.652,124.506 349.652,124.537 349.652,124.569 C349.652,124.678 349.652,124.819 349.636,124.975 C349.621,125.178 349.621,125.319 349.621,125.412 L349.621,125.444 L349.621,125.537 C349.621,125.553 349.621,125.584 349.636,125.616 C349.636,125.647 349.636,125.662 349.652,125.678 C349.668,125.694 349.683,125.709 349.715,125.725 C349.73,125.741 349.761,125.741 349.793,125.741 L349.808,125.741 C349.98,125.741 350.152,125.709 350.324,125.631 C350.511,125.569 350.668,125.491 350.824,125.381 C350.98,125.287 351.121,125.162 351.261,125.006 C351.402,124.866 351.527,124.709 351.621,124.553 C351.73,124.397 351.808,124.225 351.871,124.053 C351.949,123.881 351.98,123.709 351.98,123.537 C351.996,123.506 351.996,123.459 351.996,123.428 C351.996,123.334 351.98,123.241 351.965,123.131 C351.933,122.991 351.902,122.85 351.84,122.725 C351.793,122.6 351.715,122.475 351.621,122.366 C351.543,122.241 351.433,122.147 351.324,122.069 C351.215,121.991 351.09,121.928 350.949,121.897 C350.871,121.866 350.777,121.866 350.668,121.866 C350.621,121.866 350.574,121.866 350.527,121.866 M350.215,125.1 C350.215,124.959 350.215,124.741 350.215,124.475 C350.23,124.256 350.23,124.053 350.23,123.866 C350.23,123.819 350.23,123.787 350.23,123.741 C350.23,123.522 350.215,123.303 350.215,123.1 C350.215,123.069 350.199,123.037 350.199,122.959 C350.183,122.881 350.168,122.803 350.168,122.741 C350.152,122.709 350.152,122.678 350.152,122.647 C350.152,122.616 350.152,122.584 350.168,122.553 C350.168,122.491 350.199,122.444 350.23,122.412 C350.277,122.381 350.324,122.366 350.386,122.366 C350.402,122.366 350.402,122.366 350.418,122.366 C350.496,122.381 350.574,122.397 350.668,122.444 C350.746,122.491 350.824,122.553 350.902,122.616 C350.98,122.678 351.043,122.741 351.105,122.787 C351.168,122.85 351.199,122.897 351.23,122.944 C351.308,123.069 351.371,123.225 351.402,123.381 C351.418,123.475 351.418,123.553 351.418,123.647 C351.418,123.709 351.418,123.787 351.418,123.85 C351.386,124.006 351.34,124.147 351.277,124.303 C351.215,124.444 351.121,124.569 351.027,124.694 C350.918,124.803 350.793,124.897 350.668,124.959 C350.527,125.037 350.371,125.084 350.215,125.1"/>
<path class="Harmony" d="M381.449,52.9483 C382.683,54.5577 383.527,56.7452 384.199,59.5108 C384.871,62.2608 385.34,64.9171 385.808,67.6827 C386.293,70.4327 386.574,72.9952 386.668,75.2765 L379.449,74.5108 L371.652,75.2765 L375.652,63.4015 L381.449,52.9483 M379.73,86.3858 L381.636,86.3858 L384.48,86.3858 L385.246,86.3858 L386.105,86.3858 C386.199,86.3858 386.48,86.4796 386.855,86.4796 C387.246,86.4796 387.527,86.4796 387.715,86.5733 C387.902,86.6827 388.09,86.7765 388.386,86.8702 C388.668,86.964 388.855,87.0577 389.043,87.2452 C389.23,87.4327 389.527,87.5265 389.715,87.714 C390.183,88.1983 390.652,89.1515 391.043,90.3858 C391.418,91.5265 391.793,92.7608 392.09,94.1827 C392.371,95.6046 392.652,97.0265 392.933,98.6515 C393.23,100.261 393.605,101.683 393.98,103.011 C394.371,104.339 394.933,105.573 395.511,106.62 C396.074,107.667 396.746,108.339 397.59,108.714 C397.98,108.901 398.449,108.995 399.027,108.995 C399.496,108.995 400.058,108.901 400.636,108.714 C401.496,108.433 402.152,108.058 402.824,107.667 C403.48,107.292 403.965,106.917 404.34,106.433 C404.715,105.964 405.011,105.48 405.293,104.917 C405.574,104.339 405.761,103.964 405.855,103.495 C405.949,103.105 405.949,102.73 405.949,102.261 L405.949,101.776 C405.949,101.12 405.949,100.448 405.855,99.9796 C405.761,99.4952 405.574,98.9327 405.386,98.1671 C405.199,97.4171 405.011,96.839 404.808,96.3702 C404.621,95.8858 404.527,95.2296 404.246,94.3702 C403.965,93.5108 403.668,92.9483 403.574,92.5733 C402.918,90.6671 401.777,86.8702 400.152,81.2608 C399.027,77.1827 398.074,73.7608 397.402,71.089 C396.168,66.2452 395.121,62.2608 394.371,59.1202 C393.136,53.9015 392.183,50.3858 391.699,48.5733 C391.605,48.1983 391.511,47.6358 391.324,46.8702 C391.136,46.1046 391.043,45.4483 390.949,44.8702 C390.855,44.3077 390.558,43.7296 390.371,42.9796 C390.183,42.214 389.996,41.4483 389.808,40.8858 C389.621,40.3077 389.23,39.6515 388.949,38.9796 C388.668,38.3233 388.277,37.839 387.902,37.3702 C387.527,36.9015 387.246,36.5108 386.761,36.1358 C386.293,35.7608 385.808,35.3702 385.246,35.2765 C384.777,35.1827 384.293,35.089 383.73,35.089 L383.34,35.089 C382.683,35.1827 381.918,35.2765 381.058,35.5577 C380.402,35.8546 379.636,36.2296 378.98,36.6983 C378.308,37.1827 377.652,37.5577 377.168,38.0421 C376.699,38.5108 376.215,39.1827 375.746,39.9327 C375.277,40.6983 374.793,41.2608 374.511,41.839 C374.23,42.4015 373.84,43.1671 373.465,44.1202 C373.09,45.0577 372.699,45.8233 372.511,46.4015 C372.324,46.964 372.136,47.7296 371.761,48.6827 C371.371,49.6202 371.09,50.2921 370.996,50.7608 C368.246,57.6983 365.48,64.2608 362.73,70.6202 C358.261,80.7921 355.605,86.964 354.84,89.2452 C354.746,89.6202 354.371,90.2921 353.886,91.3233 C353.418,92.3702 352.855,93.3233 352.371,94.2765 C351.902,95.2296 351.418,96.464 350.855,97.6983 C350.277,98.9327 349.808,100.167 349.527,101.214 C349.136,102.261 348.949,103.198 348.949,104.058 C349.043,104.917 349.246,105.48 349.715,105.964 C350.574,106.62 351.511,107.011 352.558,107.011 L353.23,107.011 C354.558,106.823 355.886,106.433 357.215,105.683 C358.543,104.917 359.496,104.058 359.98,103.198 C360.543,102.167 361.121,100.933 361.59,99.4015 C362.058,97.8858 362.543,96.464 362.824,95.2296 C363.105,93.9952 363.496,92.6671 364.152,91.2296 C364.824,89.8077 365.574,88.6671 366.433,87.714 L371.558,86.1046 C371.855,86.0108 372.23,86.1046 372.902,86.1046 L375.652,86.1046 C375.933,86.1046 377.355,86.1983 379.73,86.3858"/>
<path class="Harmony" d="M1040.92,71.3499 C1042.15,72.9593 1042.99,75.1468 1043.67,77.9124 C1044.34,80.6624 1044.81,83.3187 1045.28,86.0843 C1045.76,88.8343 1046.04,91.3968 1046.13,93.678 L1038.92,92.9124 L1031.12,93.678 L1035.12,81.803 L1040.92,71.3499 M1039.2,104.787 L1041.1,104.787 L1043.95,104.787 L1044.71,104.787 L1045.57,104.787 C1045.67,104.787 1045.95,104.881 1046.32,104.881 C1046.71,104.881 1046.99,104.881 1047.18,104.975 C1047.37,105.084 1047.56,105.178 1047.85,105.272 C1048.13,105.366 1048.32,105.459 1048.51,105.647 C1048.7,105.834 1048.99,105.928 1049.18,106.116 C1049.65,106.6 1050.12,107.553 1050.51,108.787 C1050.88,109.928 1051.26,111.162 1051.56,112.584 C1051.84,114.006 1052.12,115.428 1052.4,117.053 C1052.7,118.662 1053.07,120.084 1053.45,121.412 C1053.84,122.741 1054.4,123.975 1054.98,125.022 C1055.54,126.069 1056.21,126.741 1057.06,127.116 C1057.45,127.303 1057.92,127.397 1058.49,127.397 C1058.96,127.397 1059.53,127.303 1060.1,127.116 C1060.96,126.834 1061.62,126.459 1062.29,126.069 C1062.95,125.694 1063.43,125.319 1063.81,124.834 C1064.18,124.366 1064.48,123.881 1064.76,123.319 C1065.04,122.741 1065.23,122.366 1065.32,121.897 C1065.42,121.506 1065.42,121.131 1065.42,120.662 L1065.42,120.178 C1065.42,119.522 1065.42,118.85 1065.32,118.381 C1065.23,117.897 1065.04,117.334 1064.85,116.569 C1064.67,115.819 1064.48,115.241 1064.28,114.772 C1064.09,114.287 1063.99,113.631 1063.71,112.772 C1063.43,111.912 1063.13,111.35 1063.04,110.975 C1062.38,109.069 1061.24,105.272 1059.62,99.6624 C1058.49,95.5843 1057.54,92.1624 1056.87,89.4905 C1055.63,84.6468 1054.59,80.6624 1053.84,77.5218 C1052.6,72.303 1051.65,68.7874 1051.17,66.9749 C1051.07,66.5999 1050.98,66.0374 1050.79,65.2718 C1050.6,64.5062 1050.51,63.8499 1050.42,63.2718 C1050.32,62.7093 1050.03,62.1312 1049.84,61.3812 C1049.65,60.6155 1049.46,59.8499 1049.28,59.2874 C1049.09,58.7093 1048.7,58.053 1048.42,57.3812 C1048.13,56.7249 1047.74,56.2405 1047.37,55.7718 C1046.99,55.303 1046.71,54.9124 1046.23,54.5374 C1045.76,54.1624 1045.28,53.7718 1044.71,53.678 C1044.24,53.5843 1043.76,53.4905 1043.2,53.4905 L1042.81,53.4905 C1042.15,53.5843 1041.38,53.678 1040.53,53.9593 C1039.87,54.2562 1039.1,54.6312 1038.45,55.0999 C1037.78,55.5843 1037.12,55.9593 1036.63,56.4437 C1036.17,56.9124 1035.68,57.5843 1035.21,58.3343 C1034.74,59.0999 1034.26,59.6624 1033.98,60.2405 C1033.7,60.803 1033.31,61.5687 1032.93,62.5218 C1032.56,63.4593 1032.17,64.2249 1031.98,64.803 C1031.79,65.3655 1031.6,66.1312 1031.23,67.0843 C1030.84,68.0218 1030.56,68.6937 1030.46,69.1624 C1027.71,76.0999 1024.95,82.6624 1022.2,89.0218 C1017.73,99.1937 1015.07,105.366 1014.31,107.647 C1014.21,108.022 1013.84,108.694 1013.35,109.725 C1012.88,110.772 1012.32,111.725 1011.84,112.678 C1011.37,113.631 1010.88,114.866 1010.32,116.1 C1009.74,117.334 1009.28,118.569 1008.99,119.616 C1008.6,120.662 1008.42,121.6 1008.42,122.459 C1008.51,123.319 1008.71,123.881 1009.18,124.366 C1010.04,125.022 1010.98,125.412 1012.03,125.412 L1012.7,125.412 C1014.03,125.225 1015.35,124.834 1016.68,124.084 C1018.01,123.319 1018.96,122.459 1019.45,121.6 C1020.01,120.569 1020.59,119.334 1021.06,117.803 C1021.53,116.287 1022.01,114.866 1022.29,113.631 C1022.57,112.397 1022.96,111.069 1023.62,109.631 C1024.29,108.209 1025.04,107.069 1025.9,106.116 L1031.03,104.506 C1031.32,104.412 1031.7,104.506 1032.37,104.506 L1035.12,104.506 C1035.4,104.506 1036.82,104.6 1039.2,104.787"/>
<path class="Harmony" d="M1700.38,71.3499 C1701.62,72.9593 1702.46,75.1468 1703.13,77.9124 C1703.81,80.6624 1704.27,83.3187 1704.74,86.0843 C1705.23,88.8343 1705.51,91.3968 1705.6,93.678 L1698.38,92.9124 L1690.59,93.678 L1694.59,81.803 L1700.38,71.3499 M1698.66,104.787 L1700.57,104.787 L1703.41,104.787 L1704.18,104.787 L1705.04,104.787 C1705.13,104.787 1705.41,104.881 1705.79,104.881 C1706.18,104.881 1706.46,104.881 1706.65,104.975 C1706.84,105.084 1707.02,105.178 1707.32,105.272 C1707.6,105.366 1707.79,105.459 1707.98,105.647 C1708.16,105.834 1708.46,105.928 1708.65,106.116 C1709.12,106.6 1709.59,107.553 1709.98,108.787 C1710.35,109.928 1710.73,111.162 1711.02,112.584 C1711.31,114.006 1711.59,115.428 1711.87,117.053 C1712.16,118.662 1712.54,120.084 1712.91,121.412 C1713.31,122.741 1713.87,123.975 1714.45,125.022 C1715.01,126.069 1715.68,126.741 1716.52,127.116 C1716.91,127.303 1717.38,127.397 1717.96,127.397 C1718.43,127.397 1718.99,127.303 1719.57,127.116 C1720.43,126.834 1721.09,126.459 1721.76,126.069 C1722.41,125.694 1722.9,125.319 1723.27,124.834 C1723.65,124.366 1723.95,123.881 1724.23,123.319 C1724.51,122.741 1724.7,122.366 1724.79,121.897 C1724.88,121.506 1724.88,121.131 1724.88,120.662 L1724.88,120.178 C1724.88,119.522 1724.88,118.85 1724.79,118.381 C1724.7,117.897 1724.51,117.334 1724.32,116.569 C1724.13,115.819 1723.95,115.241 1723.74,114.772 C1723.56,114.287 1723.46,113.631 1723.18,112.772 C1722.9,111.912 1722.6,111.35 1722.51,110.975 C1721.85,109.069 1720.71,105.272 1719.09,99.6624 C1717.96,95.5843 1717.01,92.1624 1716.34,89.4905 C1715.1,84.6468 1714.06,80.6624 1713.31,77.5218 C1712.07,72.303 1711.12,68.7874 1710.63,66.9749 C1710.54,66.5999 1710.45,66.0374 1710.26,65.2718 C1710.07,64.5062 1709.98,63.8499 1709.88,63.2718 C1709.79,62.7093 1709.49,62.1312 1709.31,61.3812 C1709.12,60.6155 1708.93,59.8499 1708.74,59.2874 C1708.56,58.7093 1708.16,58.053 1707.88,57.3812 C1707.6,56.7249 1707.21,56.2405 1706.84,55.7718 C1706.46,55.303 1706.18,54.9124 1705.7,54.5374 C1705.23,54.1624 1704.74,53.7718 1704.18,53.678 C1703.71,53.5843 1703.23,53.4905 1702.66,53.4905 L1702.27,53.4905 C1701.62,53.5843 1700.85,53.678 1699.99,53.9593 C1699.34,54.2562 1698.57,54.6312 1697.91,55.0999 C1697.24,55.5843 1696.59,55.9593 1696.1,56.4437 C1695.63,56.9124 1695.15,57.5843 1694.68,58.3343 C1694.21,59.0999 1693.73,59.6624 1693.45,60.2405 C1693.16,60.803 1692.77,61.5687 1692.4,62.5218 C1692.02,63.4593 1691.63,64.2249 1691.45,64.803 C1691.26,65.3655 1691.07,66.1312 1690.7,67.0843 C1690.31,68.0218 1690.02,68.6937 1689.93,69.1624 C1687.18,76.0999 1684.41,82.6624 1681.66,89.0218 C1677.2,99.1937 1674.54,105.366 1673.77,107.647 C1673.68,108.022 1673.31,108.694 1672.82,109.725 C1672.35,110.772 1671.79,111.725 1671.31,112.678 C1670.84,113.631 1670.35,114.866 1669.79,116.1 C1669.21,117.334 1668.74,118.569 1668.46,119.616 C1668.07,120.662 1667.88,121.6 1667.88,122.459 C1667.98,123.319 1668.18,123.881 1668.65,124.366 C1669.51,125.022 1670.45,125.412 1671.49,125.412 L1672.16,125.412 C1673.49,125.225 1674.82,124.834 1676.15,124.084 C1677.48,123.319 1678.43,122.459 1678.91,121.6 C1679.48,120.569 1680.06,119.334 1680.52,117.803 C1680.99,116.287 1681.48,114.866 1681.76,113.631 C1682.04,112.397 1682.43,111.069 1683.09,109.631 C1683.76,108.209 1684.51,107.069 1685.37,106.116 L1690.49,104.506 C1690.79,104.412 1691.16,104.506 1691.84,104.506 L1694.59,104.506 C1694.87,104.506 1696.29,104.6 1698.66,104.787"/>
<path class="Harmony" d="M2359.85,71.3499 C2361.08,72.9593 2361.93,75.1468 2362.6,77.9124 C2363.27,80.6624 2363.74,83.3187 2364.21,86.0843 C2364.69,88.8343 2364.98,91.3968 2365.07,93.678 L2357.85,92.9124 L2350.05,93.678 L2354.05,81.803 L2359.85,71.3499 M2358.13,104.787 L2360.04,104.787 L2362.88,104.787 L2363.65,104.787 L2364.51,104.787 C2364.6,104.787 2364.88,104.881 2365.26,104.881 C2365.65,104.881 2365.93,104.881 2366.12,104.975 C2366.3,105.084 2366.49,105.178 2366.79,105.272 C2367.07,105.366 2367.26,105.459 2367.44,105.647 C2367.63,105.834 2367.93,105.928 2368.12,106.116 C2368.58,106.6 2369.05,107.553 2369.44,108.787 C2369.82,109.928 2370.19,111.162 2370.49,112.584 C2370.77,114.006 2371.05,115.428 2371.33,117.053 C2371.63,118.662 2372.01,120.084 2372.38,121.412 C2372.77,122.741 2373.33,123.975 2373.91,125.022 C2374.48,126.069 2375.15,126.741 2375.99,127.116 C2376.38,127.303 2376.85,127.397 2377.43,127.397 C2377.9,127.397 2378.46,127.303 2379.04,127.116 C2379.9,126.834 2380.55,126.459 2381.23,126.069 C2381.88,125.694 2382.37,125.319 2382.74,124.834 C2383.12,124.366 2383.41,123.881 2383.69,123.319 C2383.98,122.741 2384.16,122.366 2384.26,121.897 C2384.35,121.506 2384.35,121.131 2384.35,120.662 L2384.35,120.178 C2384.35,119.522 2384.35,118.85 2384.26,118.381 C2384.16,117.897 2383.98,117.334 2383.79,116.569 C2383.6,115.819 2383.41,115.241 2383.21,114.772 C2383.02,114.287 2382.93,113.631 2382.65,112.772 C2382.37,111.912 2382.07,111.35 2381.98,110.975 C2381.32,109.069 2380.18,105.272 2378.55,99.6624 C2377.43,95.5843 2376.48,92.1624 2375.8,89.4905 C2374.57,84.6468 2373.52,80.6624 2372.77,77.5218 C2371.54,72.303 2370.58,68.7874 2370.1,66.9749 C2370.01,66.5999 2369.91,66.0374 2369.73,65.2718 C2369.54,64.5062 2369.44,63.8499 2369.35,63.2718 C2369.26,62.7093 2368.96,62.1312 2368.77,61.3812 C2368.58,60.6155 2368.4,59.8499 2368.21,59.2874 C2368.02,58.7093 2367.63,58.053 2367.35,57.3812 C2367.07,56.7249 2366.68,56.2405 2366.3,55.7718 C2365.93,55.303 2365.65,54.9124 2365.16,54.5374 C2364.69,54.1624 2364.21,53.7718 2363.65,53.678 C2363.18,53.5843 2362.69,53.4905 2362.13,53.4905 L2361.74,53.4905 C2361.08,53.5843 2360.32,53.678 2359.46,53.9593 C2358.8,54.2562 2358.04,54.6312 2357.38,55.0999 C2356.71,55.5843 2356.05,55.9593 2355.57,56.4437 C2355.1,56.9124 2354.62,57.5843 2354.15,58.3343 C2353.68,59.0999 2353.19,59.6624 2352.91,60.2405 C2352.63,60.803 2352.24,61.5687 2351.87,62.5218 C2351.49,63.4593 2351.1,64.2249 2350.91,64.803 C2350.73,65.3655 2350.54,66.1312 2350.16,67.0843 C2349.77,68.0218 2349.49,68.6937 2349.4,69.1624 C2346.65,76.0999 2343.88,82.6624 2341.13,89.0218 C2336.66,99.1937 2334.01,105.366 2333.24,107.647 C2333.15,108.022 2332.77,108.694 2332.29,109.725 C2331.82,110.772 2331.26,111.725 2330.77,112.678 C2330.3,113.631 2329.82,114.866 2329.26,116.1 C2328.68,117.334 2328.21,118.569 2327.93,119.616 C2327.54,120.662 2327.35,121.6 2327.35,122.459 C2327.44,123.319 2327.65,123.881 2328.12,124.366 C2328.98,125.022 2329.91,125.412 2330.96,125.412 L2331.63,125.412 C2332.96,125.225 2334.29,124.834 2335.62,124.084 C2336.94,123.319 2337.9,122.459 2338.38,121.6 C2338.94,120.569 2339.52,119.334 2339.99,117.803 C2340.46,116.287 2340.94,114.866 2341.23,113.631 C2341.51,112.397 2341.9,111.069 2342.55,109.631 C2343.23,108.209 2343.98,107.069 2344.83,106.116 L2349.96,104.506 C2350.26,104.412 2350.63,104.506 2351.3,104.506 L2354.05,104.506 C2354.33,104.506 2355.76,104.6 2358.13,104.787"/>
<path class="Harmony" d="M202.548,381.389 C203.783,382.999 204.627,385.186 205.298,387.952 C205.97,390.702 206.439,393.358 206.908,396.124 C207.392,398.874 207.673,401.436 207.767,403.717 L200.548,402.952 L192.752,403.717 L196.752,391.842 L202.548,381.389 M200.83,414.827 L202.736,414.827 L205.58,414.827 L206.345,414.827 L207.205,414.827 C207.298,414.827 207.58,414.921 207.955,414.921 C208.345,414.921 208.627,414.921 208.814,415.014 C209.002,415.124 209.189,415.217 209.486,415.311 C209.767,415.405 209.955,415.499 210.142,415.686 C210.33,415.874 210.627,415.967 210.814,416.155 C211.283,416.639 211.752,417.592 212.142,418.827 C212.517,419.967 212.892,421.202 213.189,422.624 C213.47,424.046 213.752,425.467 214.033,427.092 C214.33,428.702 214.705,430.124 215.08,431.452 C215.47,432.78 216.033,434.014 216.611,435.061 C217.173,436.108 217.845,436.78 218.689,437.155 C219.08,437.342 219.548,437.436 220.127,437.436 C220.595,437.436 221.158,437.342 221.736,437.155 C222.595,436.874 223.252,436.499 223.923,436.108 C224.58,435.733 225.064,435.358 225.439,434.874 C225.814,434.405 226.111,433.921 226.392,433.358 C226.673,432.78 226.861,432.405 226.955,431.936 C227.048,431.546 227.048,431.171 227.048,430.702 L227.048,430.217 C227.048,429.561 227.048,428.889 226.955,428.421 C226.861,427.936 226.673,427.374 226.486,426.608 C226.298,425.858 226.111,425.28 225.908,424.811 C225.72,424.327 225.627,423.671 225.345,422.811 C225.064,421.952 224.767,421.389 224.673,421.014 C224.017,419.108 222.877,415.311 221.252,409.702 C220.127,405.624 219.173,402.202 218.502,399.53 C217.267,394.686 216.22,390.702 215.47,387.561 C214.236,382.342 213.283,378.827 212.798,377.014 C212.705,376.639 212.611,376.077 212.423,375.311 C212.236,374.546 212.142,373.889 212.048,373.311 C211.955,372.749 211.658,372.171 211.47,371.421 C211.283,370.655 211.095,369.889 210.908,369.327 C210.72,368.749 210.33,368.092 210.048,367.421 C209.767,366.764 209.377,366.28 209.002,365.811 C208.627,365.342 208.345,364.952 207.861,364.577 C207.392,364.202 206.908,363.811 206.345,363.717 C205.877,363.624 205.392,363.53 204.83,363.53 L204.439,363.53 C203.783,363.624 203.017,363.717 202.158,363.999 C201.502,364.296 200.736,364.671 200.08,365.139 C199.408,365.624 198.752,365.999 198.267,366.483 C197.798,366.952 197.314,367.624 196.845,368.374 C196.377,369.139 195.892,369.702 195.611,370.28 C195.33,370.842 194.939,371.608 194.564,372.561 C194.189,373.499 193.798,374.264 193.611,374.842 C193.423,375.405 193.236,376.171 192.861,377.124 C192.47,378.061 192.189,378.733 192.095,379.202 C189.345,386.139 186.58,392.702 183.83,399.061 C179.361,409.233 176.705,415.405 175.939,417.686 C175.845,418.061 175.47,418.733 174.986,419.764 C174.517,420.811 173.955,421.764 173.47,422.717 C173.002,423.671 172.517,424.905 171.955,426.139 C171.377,427.374 170.908,428.608 170.627,429.655 C170.236,430.702 170.048,431.639 170.048,432.499 C170.142,433.358 170.345,433.921 170.814,434.405 C171.673,435.061 172.611,435.452 173.658,435.452 L174.33,435.452 C175.658,435.264 176.986,434.874 178.314,434.124 C179.642,433.358 180.595,432.499 181.08,431.639 C181.642,430.608 182.22,429.374 182.689,427.842 C183.158,426.327 183.642,424.905 183.923,423.671 C184.205,422.436 184.595,421.108 185.252,419.671 C185.923,418.249 186.673,417.108 187.533,416.155 L192.658,414.546 C192.955,414.452 193.33,414.546 194.002,414.546 L196.752,414.546 C197.033,414.546 198.455,414.639 200.83,414.827"/>
<path class="Harmony" d="M896.171,381.389 C897.405,382.999 898.249,385.186 898.921,387.952 C899.593,390.702 900.061,393.358 900.53,396.124 C901.014,398.874 901.296,401.436 901.389,403.717 L894.171,402.952 L886.374,403.717 L890.374,391.842 L896.171,381.389 M894.452,414.827 L896.358,414.827 L899.202,414.827 L899.968,414.827 L900.827,414.827 C900.921,414.827 901.202,414.921 901.577,414.921 C901.968,414.921 902.249,414.921 902.436,415.014 C902.624,415.124 902.811,415.217 903.108,415.311 C903.389,415.405 903.577,415.499 903.764,415.686 C903.952,415.874 904.249,415.967 904.436,416.155 C904.905,416.639 905.374,417.592 905.764,418.827 C906.139,419.967 906.514,421.202 906.811,422.624 C907.093,424.046 907.374,425.467 907.655,427.092 C907.952,428.702 908.327,430.124 908.702,431.452 C909.093,432.78 909.655,434.014 910.233,435.061 C910.796,436.108 911.468,436.78 912.311,437.155 C912.702,437.342 913.171,437.436 913.749,437.436 C914.218,437.436 914.78,437.342 915.358,437.155 C916.218,436.874 916.874,436.499 917.546,436.108 C918.202,435.733 918.686,435.358 919.061,434.874 C919.436,434.405 919.733,433.921 920.014,433.358 C920.296,432.78 920.483,432.405 920.577,431.936 C920.671,431.546 920.671,431.171 920.671,430.702 L920.671,430.217 C920.671,429.561 920.671,428.889 920.577,428.421 C920.483,427.936 920.296,427.374 920.108,426.608 C919.921,425.858 919.733,425.28 919.53,424.811 C919.343,424.327 919.249,423.671 918.968,422.811 C918.686,421.952 918.389,421.389 918.296,421.014 C917.639,419.108 916.499,415.311 914.874,409.702 C913.749,405.624 912.796,402.202 912.124,399.53 C910.889,394.686 909.843,390.702 909.093,387.561 C907.858,382.342 906.905,378.827 906.421,377.014 C906.327,376.639 906.233,376.077 906.046,375.311 C905.858,374.546 905.764,373.889 905.671,373.311 C905.577,372.749 905.28,372.171 905.093,371.421 C904.905,370.655 904.718,369.889 904.53,369.327 C904.343,368.749 903.952,368.092 903.671,367.421 C903.389,366.764 902.999,366.28 902.624,365.811 C902.249,365.342 901.968,364.952 901.483,364.577 C901.014,364.202 900.53,363.811 899.968,363.717 C899.499,363.624 899.014,363.53 898.452,363.53 L898.061,363.53 C897.405,363.624 896.639,363.717 895.78,363.999 C895.124,364.296 894.358,364.671 893.702,365.139 C893.03,365.624 892.374,365.999 891.889,366.483 C891.421,366.952 890.936,367.624 890.468,368.374 C889.999,369.139 889.514,369.702 889.233,370.28 C888.952,370.842 888.561,371.608 888.186,372.561 C887.811,373.499 887.421,374.264 887.233,374.842 C887.046,375.405 886.858,376.171 886.483,377.124 C886.093,378.061 885.811,378.733 885.718,379.202 C882.968,386.139 880.202,392.702 877.452,399.061 C872.983,409.233 870.327,415.405 869.561,417.686 C869.468,418.061 869.093,418.733 868.608,419.764 C868.139,420.811 867.577,421.764 867.093,422.717 C866.624,423.671 866.139,424.905 865.577,426.139 C864.999,427.374 864.53,428.608 864.249,429.655 C863.858,430.702 863.671,431.639 863.671,432.499 C863.764,433.358 863.968,433.921 864.436,434.405 C865.296,435.061 866.233,435.452 867.28,435.452 L867.952,435.452 C869.28,435.264 870.608,434.874 871.936,434.124 C873.264,433.358 874.218,432.499 874.702,431.639 C875.264,430.608 875.843,429.374 876.311,427.842 C876.78,426.327 877.264,424.905 877.546,423.671 C877.827,422.436 878.218,421.108 878.874,419.671 C879.546,418.249 880.296,417.108 881.155,416.155 L886.28,414.546 C886.577,414.452 886.952,414.546 887.624,414.546 L890.374,414.546 C890.655,414.546 892.077,414.639 894.452,414.827"/>
<path class="Harmony" d="M1589.79,381.389 C1591.03,382.999 1591.87,385.186 1592.54,387.952 C1593.21,390.702 1593.68,393.358 1594.15,396.124 C1594.64,398.874 1594.92,401.436 1595.01,403.717 L1587.79,402.952 L1580,403.717 L1584,391.842 L1589.79,381.389 M1588.07,414.827 L1589.98,414.827 L1592.82,414.827 L1593.59,414.827 L1594.45,414.827 C1594.54,414.827 1594.82,414.921 1595.2,414.921 C1595.59,414.921 1595.87,414.921 1596.06,415.014 C1596.25,415.124 1596.43,415.217 1596.73,415.311 C1597.01,415.405 1597.2,415.499 1597.39,415.686 C1597.57,415.874 1597.87,415.967 1598.06,416.155 C1598.53,416.639 1599,417.592 1599.39,418.827 C1599.76,419.967 1600.14,421.202 1600.43,422.624 C1600.71,424.046 1601,425.467 1601.28,427.092 C1601.57,428.702 1601.95,430.124 1602.32,431.452 C1602.71,432.78 1603.28,434.014 1603.86,435.061 C1604.42,436.108 1605.09,436.78 1605.93,437.155 C1606.32,437.342 1606.79,437.436 1607.37,437.436 C1607.84,437.436 1608.4,437.342 1608.98,437.155 C1609.84,436.874 1610.5,436.499 1611.17,436.108 C1611.82,435.733 1612.31,435.358 1612.68,434.874 C1613.06,434.405 1613.36,433.921 1613.64,433.358 C1613.92,432.78 1614.11,432.405 1614.2,431.936 C1614.29,431.546 1614.29,431.171 1614.29,430.702 L1614.29,430.217 C1614.29,429.561 1614.29,428.889 1614.2,428.421 C1614.11,427.936 1613.92,427.374 1613.73,426.608 C1613.54,425.858 1613.36,425.28 1613.15,424.811 C1612.96,424.327 1612.87,423.671 1612.59,422.811 C1612.31,421.952 1612.01,421.389 1611.92,421.014 C1611.26,419.108 1610.12,415.311 1608.5,409.702 C1607.37,405.624 1606.42,402.202 1605.75,399.53 C1604.51,394.686 1603.46,390.702 1602.71,387.561 C1601.48,382.342 1600.53,378.827 1600.04,377.014 C1599.95,376.639 1599.86,376.077 1599.67,375.311 C1599.48,374.546 1599.39,373.889 1599.29,373.311 C1599.2,372.749 1598.9,372.171 1598.71,371.421 C1598.53,370.655 1598.34,369.889 1598.15,369.327 C1597.96,368.749 1597.57,368.092 1597.29,367.421 C1597.01,366.764 1596.62,366.28 1596.25,365.811 C1595.87,365.342 1595.59,364.952 1595.11,364.577 C1594.64,364.202 1594.15,363.811 1593.59,363.717 C1593.12,363.624 1592.64,363.53 1592.07,363.53 L1591.68,363.53 C1591.03,363.624 1590.26,363.717 1589.4,363.999 C1588.75,364.296 1587.98,364.671 1587.32,365.139 C1586.65,365.624 1586,365.999 1585.51,366.483 C1585.04,366.952 1584.56,367.624 1584.09,368.374 C1583.62,369.139 1583.14,369.702 1582.86,370.28 C1582.57,370.842 1582.18,371.608 1581.81,372.561 C1581.43,373.499 1581.04,374.264 1580.86,374.842 C1580.67,375.405 1580.48,376.171 1580.11,377.124 C1579.71,378.061 1579.43,378.733 1579.34,379.202 C1576.59,386.139 1573.82,392.702 1571.07,399.061 C1566.61,409.233 1563.95,415.405 1563.18,417.686 C1563.09,418.061 1562.71,418.733 1562.23,419.764 C1561.76,420.811 1561.2,421.764 1560.71,422.717 C1560.25,423.671 1559.76,424.905 1559.2,426.139 C1558.62,427.374 1558.15,428.608 1557.87,429.655 C1557.48,430.702 1557.29,431.639 1557.29,432.499 C1557.39,433.358 1557.59,433.921 1558.06,434.405 C1558.92,435.061 1559.86,435.452 1560.9,435.452 L1561.57,435.452 C1562.9,435.264 1564.23,434.874 1565.56,434.124 C1566.89,433.358 1567.84,432.499 1568.32,431.639 C1568.89,430.608 1569.46,429.374 1569.93,427.842 C1570.4,426.327 1570.89,424.905 1571.17,423.671 C1571.45,422.436 1571.84,421.108 1572.5,419.671 C1573.17,418.249 1573.92,417.108 1574.78,416.155 L1579.9,414.546 C1580.2,414.452 1580.57,414.546 1581.25,414.546 L1584,414.546 C1584.28,414.546 1585.7,414.639 1588.07,414.827"/>
<path class="Harmony" d="M1886.8,390.983 C1886.8,390.608 1886.71,389.749 1886.61,388.327 C1886.52,386.905 1886.52,385.577 1886.52,384.342 L1886.52,383.764 C1886.52,382.717 1886.52,381.577 1886.61,380.342 C1886.71,378.921 1886.99,377.78 1887.27,376.733 C1887.55,375.686 1888.03,374.936 1888.6,374.546 C1889.27,374.077 1890.13,373.889 1891.16,373.889 C1892.21,373.889 1893.44,374.077 1894.67,374.264 C1895.91,374.452 1896.86,374.546 1897.44,374.546 L1898.96,374.546 C1900.56,374.546 1902.66,374.639 1905.13,374.749 C1908.46,374.936 1911.5,375.03 1914.44,375.03 L1915.49,375.03 C1917.96,375.03 1920.14,374.842 1922.03,374.452 C1923.28,374.171 1924.22,373.311 1924.89,371.889 C1925.55,370.467 1925.94,368.952 1925.94,367.327 C1925.94,365.624 1925.55,364.296 1924.8,363.436 C1924.31,362.967 1923.66,362.483 1922.71,362.296 C1921.75,362.108 1921,362.014 1920.24,362.014 C1919.47,362.014 1918.53,362.014 1917.28,362.108 C1916.05,362.202 1915.3,362.202 1915.02,362.202 C1913.3,362.202 1910.55,362.296 1906.75,362.389 C1903.99,362.483 1901.42,362.483 1899.14,362.483 L1896.67,362.483 C1893.74,362.389 1890.97,362.202 1888.41,361.921 C1887.64,361.827 1887.08,361.733 1886.8,361.733 C1886.52,361.733 1885.94,361.733 1885.08,361.624 C1884.61,361.53 1884.24,361.53 1883.85,361.53 L1883,361.53 C1882.42,361.624 1881.86,361.733 1881.19,361.827 C1880.52,361.921 1879.96,362.108 1879.49,362.389 C1879,362.671 1878.63,362.967 1878.35,363.436 C1877.77,364.389 1877.39,365.717 1877.11,367.327 C1876.81,368.749 1876.72,370.092 1876.72,371.327 L1876.72,371.796 C1876.72,373.217 1876.81,374.842 1876.91,376.827 C1877.02,378.827 1877.11,380.155 1877.11,380.827 L1877.11,382.061 C1877.11,385.577 1877.02,391.077 1876.72,398.499 C1876.53,404.671 1876.44,409.702 1876.44,413.686 L1876.44,417.592 L1876.44,417.967 C1876.44,418.827 1876.35,419.967 1876.16,421.296 C1875.88,422.811 1875.67,424.233 1875.49,425.561 C1875.3,426.796 1875.21,428.139 1875.21,429.467 L1875.21,429.749 C1875.21,431.171 1875.39,432.311 1875.88,433.264 C1876.16,434.014 1876.72,434.592 1877.39,434.967 C1878.05,435.358 1878.91,435.546 1879.96,435.639 L1881.28,435.639 L1882.71,435.639 C1883.56,435.546 1884.61,435.452 1885.66,435.264 C1886.71,435.061 1887.36,435.061 1887.85,435.061 L1917.28,435.061 C1917.77,435.061 1918.33,435.061 1919.1,435.155 C1919.86,435.264 1920.52,435.264 1921,435.264 L1922.71,435.264 C1923.38,435.264 1923.94,435.061 1924.41,434.874 C1924.89,434.686 1925.27,434.592 1925.75,434.311 C1926.22,434.014 1926.5,433.546 1926.89,432.983 C1927.27,432.405 1927.55,431.842 1927.74,431.171 C1927.92,430.608 1928.03,429.936 1928.03,429.077 L1928.03,428.514 C1928.03,427.936 1928.03,427.374 1927.92,426.702 C1927.83,425.952 1927.55,425.186 1927.17,424.514 C1926.78,423.858 1926.31,423.389 1925.66,423.092 C1925.17,422.905 1924.52,422.717 1923.75,422.717 C1922.99,422.717 1922.24,422.717 1921.56,422.811 C1920.91,422.905 1920.14,422.999 1919.28,423.092 C1918.42,423.186 1917.77,423.28 1917.28,423.28 L1896.39,423.28 C1896.11,423.28 1895.53,423.28 1894.58,423.389 C1893.64,423.483 1892.78,423.483 1892.11,423.483 C1891.46,423.483 1890.69,423.483 1889.83,423.389 C1888.99,423.28 1888.31,423.092 1887.75,422.811 C1887.17,422.53 1886.8,422.046 1886.61,421.577 C1886.41,420.717 1886.41,419.874 1886.41,419.296 C1886.41,418.733 1886.52,417.967 1886.61,416.921 C1886.71,415.874 1886.8,415.217 1886.8,414.733 C1886.71,414.358 1886.61,413.311 1886.52,411.702 C1886.41,410.655 1886.41,409.796 1886.41,408.936 L1886.41,407.514 C1886.52,406.28 1886.8,405.421 1887.27,404.764 C1887.64,404.28 1888.22,403.905 1889.08,403.624 C1889.92,403.342 1890.78,403.249 1891.55,403.249 C1892.3,403.249 1893.16,403.249 1894.3,403.342 C1895.44,403.436 1896.11,403.436 1896.39,403.436 C1902,403.53 1907.78,403.717 1913.88,404.092 C1914.35,404.092 1915.11,404.186 1916.05,404.28 C1917,404.374 1917.77,404.577 1918.42,404.671 C1919.1,404.764 1919.86,404.764 1920.61,404.671 C1921.38,404.577 1922.14,404.483 1922.8,404.186 C1923.85,403.811 1924.52,402.764 1924.99,401.155 C1925.27,400.202 1925.36,399.249 1925.36,398.296 C1925.36,397.546 1925.27,396.78 1925.17,396.124 C1924.89,394.499 1924.22,393.358 1923.28,392.702 C1922.42,392.124 1921.1,391.749 1919.19,391.467 C1917.96,391.374 1916.63,391.264 1915.39,391.264 L1914.81,391.264 L1913.58,391.264 C1911.78,391.264 1909.88,391.374 1907.69,391.467 C1906.36,391.561 1905.22,391.655 1904.38,391.655 C1903.89,391.561 1903.42,391.561 1903.14,391.561 C1902.47,391.561 1900.1,391.561 1896.02,391.467 C1891.92,391.374 1888.89,391.264 1886.8,390.983"/>
<path class="Harmony" d="M2283.42,381.389 C2284.65,382.999 2285.49,385.186 2286.17,387.952 C2286.84,390.702 2287.31,393.358 2287.77,396.124 C2288.26,398.874 2288.54,401.436 2288.63,403.717 L2281.42,402.952 L2273.62,403.717 L2277.62,391.842 L2283.42,381.389 M2281.7,414.827 L2283.6,414.827 L2286.45,414.827 L2287.21,414.827 L2288.07,414.827 C2288.17,414.827 2288.45,414.921 2288.82,414.921 C2289.21,414.921 2289.49,414.921 2289.68,415.014 C2289.87,415.124 2290.06,415.217 2290.35,415.311 C2290.63,415.405 2290.82,415.499 2291.01,415.686 C2291.2,415.874 2291.49,415.967 2291.68,416.155 C2292.15,416.639 2292.62,417.592 2293.01,418.827 C2293.38,419.967 2293.76,421.202 2294.06,422.624 C2294.34,424.046 2294.62,425.467 2294.9,427.092 C2295.2,428.702 2295.57,430.124 2295.95,431.452 C2296.34,432.78 2296.9,434.014 2297.48,435.061 C2298.04,436.108 2298.71,436.78 2299.56,437.155 C2299.95,437.342 2300.42,437.436 2300.99,437.436 C2301.46,437.436 2302.02,437.342 2302.6,437.155 C2303.46,436.874 2304.12,436.499 2304.79,436.108 C2305.45,435.733 2305.93,435.358 2306.31,434.874 C2306.68,434.405 2306.98,433.921 2307.26,433.358 C2307.54,432.78 2307.73,432.405 2307.82,431.936 C2307.92,431.546 2307.92,431.171 2307.92,430.702 L2307.92,430.217 C2307.92,429.561 2307.92,428.889 2307.82,428.421 C2307.73,427.936 2307.54,427.374 2307.35,426.608 C2307.17,425.858 2306.98,425.28 2306.77,424.811 C2306.59,424.327 2306.49,423.671 2306.21,422.811 C2305.93,421.952 2305.63,421.389 2305.54,421.014 C2304.88,419.108 2303.74,415.311 2302.12,409.702 C2300.99,405.624 2300.04,402.202 2299.37,399.53 C2298.13,394.686 2297.09,390.702 2296.34,387.561 C2295.1,382.342 2294.15,378.827 2293.67,377.014 C2293.57,376.639 2293.48,376.077 2293.29,375.311 C2293.1,374.546 2293.01,373.889 2292.92,373.311 C2292.82,372.749 2292.52,372.171 2292.34,371.421 C2292.15,370.655 2291.96,369.889 2291.77,369.327 C2291.59,368.749 2291.2,368.092 2290.92,367.421 C2290.63,366.764 2290.24,366.28 2289.87,365.811 C2289.49,365.342 2289.21,364.952 2288.73,364.577 C2288.26,364.202 2287.77,363.811 2287.21,363.717 C2286.74,363.624 2286.26,363.53 2285.7,363.53 L2285.31,363.53 C2284.65,363.624 2283.88,363.717 2283.02,363.999 C2282.37,364.296 2281.6,364.671 2280.95,365.139 C2280.27,365.624 2279.62,365.999 2279.13,366.483 C2278.67,366.952 2278.18,367.624 2277.71,368.374 C2277.24,369.139 2276.76,369.702 2276.48,370.28 C2276.2,370.842 2275.81,371.608 2275.43,372.561 C2275.06,373.499 2274.67,374.264 2274.48,374.842 C2274.29,375.405 2274.1,376.171 2273.73,377.124 C2273.34,378.061 2273.06,378.733 2272.96,379.202 C2270.21,386.139 2267.45,392.702 2264.7,399.061 C2260.23,409.233 2257.57,415.405 2256.81,417.686 C2256.71,418.061 2256.34,418.733 2255.85,419.764 C2255.38,420.811 2254.82,421.764 2254.34,422.717 C2253.87,423.671 2253.38,424.905 2252.82,426.139 C2252.24,427.374 2251.77,428.608 2251.49,429.655 C2251.1,430.702 2250.92,431.639 2250.92,432.499 C2251.01,433.358 2251.21,433.921 2251.68,434.405 C2252.54,435.061 2253.48,435.452 2254.52,435.452 L2255.2,435.452 C2256.52,435.264 2257.85,434.874 2259.18,434.124 C2260.51,433.358 2261.46,432.499 2261.95,431.639 C2262.51,430.608 2263.09,429.374 2263.56,427.842 C2264.02,426.327 2264.51,424.905 2264.79,423.671 C2265.07,422.436 2265.46,421.108 2266.12,419.671 C2266.79,418.249 2267.54,417.108 2268.4,416.155 L2273.52,414.546 C2273.82,414.452 2274.2,414.546 2274.87,414.546 L2277.62,414.546 C2277.9,414.546 2279.32,414.639 2281.7,414.827"/>
<path class="Harmony" d="M185.146,679.018 C184.678,679.112 183.912,679.206 182.678,679.315 C181.443,679.409 180.49,679.596 179.834,679.69 C179.162,679.784 178.209,679.878 177.068,680.065 C175.928,680.253 175.084,680.55 174.318,680.831 C173.553,681.112 172.709,681.487 171.943,681.971 C171.178,682.44 170.521,682.925 170.037,683.581 C169.381,684.253 168.896,685.003 168.521,685.768 C168.146,686.534 167.865,687.471 167.756,688.425 C167.662,689.096 167.662,689.753 167.662,690.425 L167.662,690.987 C167.756,691.659 167.756,692.612 167.865,693.753 C167.959,694.893 167.959,695.831 167.959,696.503 C167.959,707.331 168.24,717.971 168.709,728.518 C168.803,729.081 168.803,729.659 168.803,730.331 C168.709,732.315 168.615,734.971 168.428,738.112 C168.146,741.815 167.959,744.581 167.959,746.378 L167.959,746.956 L167.959,748.565 C167.959,749.034 168.146,749.518 168.24,750.081 C168.334,750.659 168.521,751.128 168.803,751.409 C169.099,751.706 169.381,751.987 169.849,752.268 C170.24,752.456 170.709,752.55 171.271,752.55 L171.568,752.55 C174.881,752.456 178.209,751.8 181.537,750.565 C184.865,749.331 188.006,747.8 190.943,745.815 C193.896,743.815 196.646,741.44 199.303,738.69 C201.959,735.925 204.24,733.081 206.146,730.034 C208.037,727.003 209.662,723.862 210.896,720.534 C212.131,717.206 212.787,713.893 212.99,710.753 C213.084,710.081 213.084,709.331 213.084,708.659 C213.084,706.862 212.896,704.956 212.506,703.065 C212.037,700.393 211.271,697.737 210.224,695.268 C209.178,692.8 207.849,690.518 206.146,688.331 C204.428,686.143 202.537,684.346 200.443,682.831 C198.349,681.3 196.068,680.159 193.412,679.503 C191.709,679.018 189.896,678.831 188.099,678.831 C187.146,678.831 186.193,678.925 185.146,679.018 M179.256,740.393 C179.256,737.643 179.349,733.643 179.443,728.518 C179.537,724.44 179.631,720.534 179.631,717.018 C179.631,716.175 179.537,715.315 179.537,714.456 C179.537,710.284 179.443,706.19 179.256,702.393 C179.256,701.925 179.162,701.065 178.974,699.643 C178.787,698.206 178.506,696.878 178.396,695.643 C178.303,695.081 178.303,694.503 178.303,693.94 C178.303,693.268 178.303,692.706 178.396,692.034 C178.599,690.8 178.974,689.846 179.631,689.378 C180.49,688.706 181.443,688.425 182.49,688.425 C182.771,688.518 183.053,688.518 183.349,688.518 C184.771,688.706 186.287,689.19 187.896,690.05 C189.521,690.893 191.037,692.034 192.459,693.175 C193.896,694.315 195.224,695.456 196.271,696.596 C197.303,697.737 198.162,698.596 198.646,699.456 C200.162,701.925 201.209,704.675 201.771,707.706 C202.053,709.425 202.256,711.128 202.256,712.846 C202.256,714.081 202.146,715.315 202.053,716.55 C201.584,719.487 200.724,722.346 199.49,725.096 C198.256,727.846 196.646,730.331 194.74,732.503 C192.756,734.69 190.474,736.409 187.803,737.831 C185.146,739.253 182.303,740.112 179.256,740.393"/>
<path class="Harmony" d="M894.2,679.018 C893.731,679.112 892.966,679.206 891.731,679.315 C890.497,679.409 889.544,679.596 888.887,679.69 C888.216,679.784 887.262,679.878 886.122,680.065 C884.981,680.253 884.137,680.55 883.372,680.831 C882.606,681.112 881.762,681.487 880.997,681.971 C880.231,682.44 879.575,682.925 879.091,683.581 C878.434,684.253 877.95,685.003 877.575,685.768 C877.2,686.534 876.919,687.471 876.809,688.425 C876.716,689.096 876.716,689.753 876.716,690.425 L876.716,690.987 C876.809,691.659 876.809,692.612 876.919,693.753 C877.012,694.893 877.012,695.831 877.012,696.503 C877.012,707.331 877.294,717.971 877.762,728.518 C877.856,729.081 877.856,729.659 877.856,730.331 C877.762,732.315 877.669,734.971 877.481,738.112 C877.2,741.815 877.012,744.581 877.012,746.378 L877.012,746.956 L877.012,748.565 C877.012,749.034 877.2,749.518 877.294,750.081 C877.387,750.659 877.575,751.128 877.856,751.409 C878.153,751.706 878.434,751.987 878.903,752.268 C879.294,752.456 879.762,752.55 880.325,752.55 L880.622,752.55 C883.934,752.456 887.262,751.8 890.591,750.565 C893.919,749.331 897.059,747.8 899.997,745.815 C902.95,743.815 905.7,741.44 908.356,738.69 C911.012,735.925 913.294,733.081 915.2,730.034 C917.091,727.003 918.716,723.862 919.95,720.534 C921.184,717.206 921.841,713.893 922.044,710.753 C922.137,710.081 922.137,709.331 922.137,708.659 C922.137,706.862 921.95,704.956 921.559,703.065 C921.091,700.393 920.325,697.737 919.278,695.268 C918.231,692.8 916.903,690.518 915.2,688.331 C913.481,686.143 911.591,684.346 909.497,682.831 C907.403,681.3 905.122,680.159 902.466,679.503 C900.762,679.018 898.95,678.831 897.153,678.831 C896.2,678.831 895.247,678.925 894.2,679.018 M888.309,740.393 C888.309,737.643 888.403,733.643 888.497,728.518 C888.591,724.44 888.684,720.534 888.684,717.018 C888.684,716.175 888.591,715.315 888.591,714.456 C888.591,710.284 888.497,706.19 888.309,702.393 C888.309,701.925 888.216,701.065 888.028,699.643 C887.841,698.206 887.559,696.878 887.45,695.643 C887.356,695.081 887.356,694.503 887.356,693.94 C887.356,693.268 887.356,692.706 887.45,692.034 C887.653,690.8 888.028,689.846 888.684,689.378 C889.544,688.706 890.497,688.425 891.544,688.425 C891.825,688.518 892.106,688.518 892.403,688.518 C893.825,688.706 895.341,689.19 896.95,690.05 C898.575,690.893 900.091,692.034 901.512,693.175 C902.95,694.315 904.278,695.456 905.325,696.596 C906.356,697.737 907.216,698.596 907.7,699.456 C909.216,701.925 910.262,704.675 910.825,707.706 C911.106,709.425 911.309,711.128 911.309,712.846 C911.309,714.081 911.2,715.315 911.106,716.55 C910.637,719.487 909.778,722.346 908.544,725.096 C907.309,727.846 905.7,730.331 903.794,732.503 C901.809,734.69 899.528,736.409 896.856,737.831 C894.2,739.253 891.356,740.112 888.309,740.393"/>
<path class="Harmony" d="M1612.52,698.971 C1613.75,700.581 1614.6,702.768 1615.27,705.534 C1615.94,708.284 1616.41,710.94 1616.88,713.706 C1617.36,716.456 1617.65,719.018 1617.74,721.3 L1610.52,720.534 L1602.72,721.3 L1606.72,709.425 L1612.52,698.971 M1610.8,732.409 L1612.71,732.409 L1615.55,732.409 L1616.32,732.409 L1617.18,732.409 C1617.27,732.409 1617.55,732.503 1617.93,732.503 C1618.32,732.503 1618.6,732.503 1618.79,732.596 C1618.97,732.706 1619.16,732.8 1619.46,732.893 C1619.74,732.987 1619.93,733.081 1620.11,733.268 C1620.3,733.456 1620.6,733.55 1620.79,733.737 C1621.25,734.221 1621.72,735.175 1622.11,736.409 C1622.49,737.55 1622.86,738.784 1623.16,740.206 C1623.44,741.628 1623.72,743.05 1624,744.675 C1624.3,746.284 1624.68,747.706 1625.05,749.034 C1625.44,750.362 1626,751.596 1626.58,752.643 C1627.15,753.69 1627.82,754.362 1628.66,754.737 C1629.05,754.925 1629.52,755.018 1630.1,755.018 C1630.57,755.018 1631.13,754.925 1631.71,754.737 C1632.57,754.456 1633.22,754.081 1633.9,753.69 C1634.55,753.315 1635.04,752.94 1635.41,752.456 C1635.79,751.987 1636.08,751.503 1636.36,750.94 C1636.65,750.362 1636.83,749.987 1636.93,749.518 C1637.02,749.128 1637.02,748.753 1637.02,748.284 L1637.02,747.8 C1637.02,747.143 1637.02,746.471 1636.93,746.003 C1636.83,745.518 1636.65,744.956 1636.46,744.19 C1636.27,743.44 1636.08,742.862 1635.88,742.393 C1635.69,741.909 1635.6,741.253 1635.32,740.393 C1635.04,739.534 1634.74,738.971 1634.65,738.596 C1633.99,736.69 1632.85,732.893 1631.22,727.284 C1630.1,723.206 1629.15,719.784 1628.47,717.112 C1627.24,712.268 1626.19,708.284 1625.44,705.143 C1624.21,699.925 1623.25,696.409 1622.77,694.596 C1622.68,694.221 1622.58,693.659 1622.4,692.893 C1622.21,692.128 1622.11,691.471 1622.02,690.893 C1621.93,690.331 1621.63,689.753 1621.44,689.003 C1621.25,688.237 1621.07,687.471 1620.88,686.909 C1620.69,686.331 1620.3,685.675 1620.02,685.003 C1619.74,684.346 1619.35,683.862 1618.97,683.393 C1618.6,682.925 1618.32,682.534 1617.83,682.159 C1617.36,681.784 1616.88,681.393 1616.32,681.3 C1615.85,681.206 1615.36,681.112 1614.8,681.112 L1614.41,681.112 C1613.75,681.206 1612.99,681.3 1612.13,681.581 C1611.47,681.878 1610.71,682.253 1610.05,682.721 C1609.38,683.206 1608.72,683.581 1608.24,684.065 C1607.77,684.534 1607.29,685.206 1606.82,685.956 C1606.35,686.721 1605.86,687.284 1605.58,687.862 C1605.3,688.425 1604.91,689.19 1604.54,690.143 C1604.16,691.081 1603.77,691.846 1603.58,692.425 C1603.4,692.987 1603.21,693.753 1602.83,694.706 C1602.44,695.643 1602.16,696.315 1602.07,696.784 C1599.32,703.721 1596.55,710.284 1593.8,716.643 C1589.33,726.815 1586.68,732.987 1585.91,735.268 C1585.82,735.643 1585.44,736.315 1584.96,737.346 C1584.49,738.393 1583.93,739.346 1583.44,740.3 C1582.97,741.253 1582.49,742.487 1581.93,743.721 C1581.35,744.956 1580.88,746.19 1580.6,747.237 C1580.21,748.284 1580.02,749.221 1580.02,750.081 C1580.11,750.94 1580.32,751.503 1580.79,751.987 C1581.65,752.643 1582.58,753.034 1583.63,753.034 L1584.3,753.034 C1585.63,752.846 1586.96,752.456 1588.29,751.706 C1589.61,750.94 1590.57,750.081 1591.05,749.221 C1591.61,748.19 1592.19,746.956 1592.66,745.425 C1593.13,743.909 1593.61,742.487 1593.9,741.253 C1594.18,740.018 1594.57,738.69 1595.22,737.253 C1595.9,735.831 1596.65,734.69 1597.5,733.737 L1602.63,732.128 C1602.93,732.034 1603.3,732.128 1603.97,732.128 L1606.72,732.128 C1607,732.128 1608.43,732.221 1610.8,732.409"/>
<path class="Harmony" d="M2315.92,698.971 C2317.15,700.581 2318,702.768 2318.67,705.534 C2319.34,708.284 2319.81,710.94 2320.28,713.706 C2320.76,716.456 2321.04,719.018 2321.14,721.3 L2313.92,720.534 L2306.12,721.3 L2310.12,709.425 L2315.92,698.971 M2314.2,732.409 L2316.11,732.409 L2318.95,732.409 L2319.72,732.409 L2320.58,732.409 C2320.67,732.409 2320.95,732.503 2321.33,732.503 C2321.72,732.503 2322,732.503 2322.18,732.596 C2322.37,732.706 2322.56,732.8 2322.86,732.893 C2323.14,732.987 2323.33,733.081 2323.51,733.268 C2323.7,733.456 2324,733.55 2324.18,733.737 C2324.65,734.221 2325.12,735.175 2325.51,736.409 C2325.89,737.55 2326.26,738.784 2326.56,740.206 C2326.84,741.628 2327.12,743.05 2327.4,744.675 C2327.7,746.284 2328.08,747.706 2328.45,749.034 C2328.84,750.362 2329.4,751.596 2329.98,752.643 C2330.54,753.69 2331.22,754.362 2332.06,754.737 C2332.45,754.925 2332.92,755.018 2333.5,755.018 C2333.97,755.018 2334.53,754.925 2335.11,754.737 C2335.97,754.456 2336.62,754.081 2337.29,753.69 C2337.95,753.315 2338.43,752.94 2338.81,752.456 C2339.18,751.987 2339.48,751.503 2339.76,750.94 C2340.04,750.362 2340.23,749.987 2340.33,749.518 C2340.42,749.128 2340.42,748.753 2340.42,748.284 L2340.42,747.8 C2340.42,747.143 2340.42,746.471 2340.33,746.003 C2340.23,745.518 2340.04,744.956 2339.86,744.19 C2339.67,743.44 2339.48,742.862 2339.28,742.393 C2339.09,741.909 2339,741.253 2338.72,740.393 C2338.43,739.534 2338.14,738.971 2338.04,738.596 C2337.39,736.69 2336.25,732.893 2334.62,727.284 C2333.5,723.206 2332.54,719.784 2331.87,717.112 C2330.64,712.268 2329.59,708.284 2328.84,705.143 C2327.61,699.925 2326.65,696.409 2326.17,694.596 C2326.08,694.221 2325.98,693.659 2325.79,692.893 C2325.61,692.128 2325.51,691.471 2325.42,690.893 C2325.33,690.331 2325.03,689.753 2324.84,689.003 C2324.65,688.237 2324.47,687.471 2324.28,686.909 C2324.09,686.331 2323.7,685.675 2323.42,685.003 C2323.14,684.346 2322.75,683.862 2322.37,683.393 C2322,682.925 2321.72,682.534 2321.23,682.159 C2320.76,681.784 2320.28,681.393 2319.72,681.3 C2319.25,681.206 2318.76,681.112 2318.2,681.112 L2317.81,681.112 C2317.15,681.206 2316.39,681.3 2315.53,681.581 C2314.87,681.878 2314.11,682.253 2313.45,682.721 C2312.78,683.206 2312.12,683.581 2311.64,684.065 C2311.17,684.534 2310.68,685.206 2310.22,685.956 C2309.75,686.721 2309.26,687.284 2308.98,687.862 C2308.7,688.425 2308.31,689.19 2307.93,690.143 C2307.56,691.081 2307.17,691.846 2306.98,692.425 C2306.79,692.987 2306.61,693.753 2306.23,694.706 C2305.84,695.643 2305.56,696.315 2305.47,696.784 C2302.72,703.721 2299.95,710.284 2297.2,716.643 C2292.73,726.815 2290.08,732.987 2289.31,735.268 C2289.22,735.643 2288.84,736.315 2288.36,737.346 C2287.89,738.393 2287.33,739.346 2286.84,740.3 C2286.37,741.253 2285.89,742.487 2285.33,743.721 C2284.75,744.956 2284.28,746.19 2284,747.237 C2283.61,748.284 2283.42,749.221 2283.42,750.081 C2283.51,750.94 2283.72,751.503 2284.18,751.987 C2285.04,752.643 2285.98,753.034 2287.03,753.034 L2287.7,753.034 C2289.03,752.846 2290.36,752.456 2291.68,751.706 C2293.01,750.94 2293.97,750.081 2294.45,749.221 C2295.01,748.19 2295.59,746.956 2296.06,745.425 C2296.53,743.909 2297.01,742.487 2297.29,741.253 C2297.58,740.018 2297.97,738.69 2298.62,737.253 C2299.29,735.831 2300.04,734.69 2300.9,733.737 L2306.03,732.128 C2306.33,732.034 2306.7,732.128 2307.37,732.128 L2310.12,732.128 C2310.4,732.128 2311.83,732.221 2314.2,732.409"/>
<path class="Harmony" d="M187.627,989.058 C187.158,989.151 186.392,989.245 185.158,989.355 C183.923,989.448 182.97,989.636 182.314,989.73 C181.642,989.823 180.689,989.917 179.548,990.105 C178.408,990.292 177.564,990.589 176.798,990.87 C176.033,991.151 175.189,991.526 174.423,992.011 C173.658,992.48 173.002,992.964 172.517,993.62 C171.861,994.292 171.377,995.042 171.002,995.808 C170.627,996.573 170.345,997.511 170.236,998.464 C170.142,999.136 170.142,999.792 170.142,1000.46 L170.142,1001.03 C170.236,1001.7 170.236,1002.65 170.345,1003.79 C170.439,1004.93 170.439,1005.87 170.439,1006.54 C170.439,1017.37 170.72,1028.01 171.189,1038.56 C171.283,1039.12 171.283,1039.7 171.283,1040.37 C171.189,1042.35 171.095,1045.01 170.908,1048.15 C170.627,1051.85 170.439,1054.62 170.439,1056.42 L170.439,1057 L170.439,1058.6 C170.439,1059.07 170.627,1059.56 170.72,1060.12 C170.814,1060.7 171.002,1061.17 171.283,1061.45 C171.58,1061.75 171.861,1062.03 172.33,1062.31 C172.72,1062.5 173.189,1062.59 173.752,1062.59 L174.048,1062.59 C177.361,1062.5 180.689,1061.84 184.017,1060.6 C187.345,1059.37 190.486,1057.84 193.423,1055.85 C196.377,1053.85 199.127,1051.48 201.783,1048.73 C204.439,1045.96 206.72,1043.12 208.627,1040.07 C210.517,1037.04 212.142,1033.9 213.377,1030.57 C214.611,1027.25 215.267,1023.93 215.47,1020.79 C215.564,1020.12 215.564,1019.37 215.564,1018.7 C215.564,1016.9 215.377,1015 214.986,1013.1 C214.517,1010.43 213.752,1007.78 212.705,1005.31 C211.658,1002.84 210.33,1000.56 208.627,998.37 C206.908,996.183 205.017,994.386 202.923,992.87 C200.83,991.339 198.548,990.198 195.892,989.542 C194.189,989.058 192.377,988.87 190.58,988.87 C189.627,988.87 188.673,988.964 187.627,989.058 M181.736,1050.43 C181.736,1047.68 181.83,1043.68 181.923,1038.56 C182.017,1034.48 182.111,1030.57 182.111,1027.06 C182.111,1026.21 182.017,1025.35 182.017,1024.5 C182.017,1020.32 181.923,1016.23 181.736,1012.43 C181.736,1011.96 181.642,1011.1 181.455,1009.68 C181.267,1008.25 180.986,1006.92 180.877,1005.68 C180.783,1005.12 180.783,1004.54 180.783,1003.98 C180.783,1003.31 180.783,1002.75 180.877,1002.07 C181.08,1000.84 181.455,999.886 182.111,999.417 C182.97,998.745 183.923,998.464 184.97,998.464 C185.252,998.558 185.533,998.558 185.83,998.558 C187.252,998.745 188.767,999.23 190.377,1000.09 C192.002,1000.93 193.517,1002.07 194.939,1003.21 C196.377,1004.35 197.705,1005.5 198.752,1006.64 C199.783,1007.78 200.642,1008.64 201.127,1009.5 C202.642,1011.96 203.689,1014.71 204.252,1017.75 C204.533,1019.46 204.736,1021.17 204.736,1022.89 C204.736,1024.12 204.627,1025.35 204.533,1026.59 C204.064,1029.53 203.205,1032.39 201.97,1035.14 C200.736,1037.89 199.127,1040.37 197.22,1042.54 C195.236,1044.73 192.955,1046.45 190.283,1047.87 C187.627,1049.29 184.783,1050.15 181.736,1050.43"/>
<path class="Harmony" d="M869.157,989.058 C868.689,989.151 867.923,989.245 866.689,989.355 C865.454,989.448 864.501,989.636 863.845,989.73 C863.173,989.823 862.22,989.917 861.079,990.105 C859.939,990.292 859.095,990.589 858.329,990.87 C857.564,991.151 856.72,991.526 855.954,992.011 C855.189,992.48 854.532,992.964 854.048,993.62 C853.392,994.292 852.907,995.042 852.532,995.808 C852.157,996.573 851.876,997.511 851.767,998.464 C851.673,999.136 851.673,999.792 851.673,1000.46 L851.673,1001.03 C851.767,1001.7 851.767,1002.65 851.876,1003.79 C851.97,1004.93 851.97,1005.87 851.97,1006.54 C851.97,1017.37 852.251,1028.01 852.72,1038.56 C852.814,1039.12 852.814,1039.7 852.814,1040.37 C852.72,1042.35 852.626,1045.01 852.439,1048.15 C852.157,1051.85 851.97,1054.62 851.97,1056.42 L851.97,1057 L851.97,1058.6 C851.97,1059.07 852.157,1059.56 852.251,1060.12 C852.345,1060.7 852.532,1061.17 852.814,1061.45 C853.11,1061.75 853.392,1062.03 853.86,1062.31 C854.251,1062.5 854.72,1062.59 855.282,1062.59 L855.579,1062.59 C858.892,1062.5 862.22,1061.84 865.548,1060.6 C868.876,1059.37 872.017,1057.84 874.954,1055.85 C877.907,1053.85 880.657,1051.48 883.314,1048.73 C885.97,1045.96 888.251,1043.12 890.157,1040.07 C892.048,1037.04 893.673,1033.9 894.907,1030.57 C896.142,1027.25 896.798,1023.93 897.001,1020.79 C897.095,1020.12 897.095,1019.37 897.095,1018.7 C897.095,1016.9 896.907,1015 896.517,1013.1 C896.048,1010.43 895.282,1007.78 894.235,1005.31 C893.189,1002.84 891.86,1000.56 890.157,998.37 C888.439,996.183 886.548,994.386 884.454,992.87 C882.36,991.339 880.079,990.198 877.423,989.542 C875.72,989.058 873.907,988.87 872.11,988.87 C871.157,988.87 870.204,988.964 869.157,989.058 M863.267,1050.43 C863.267,1047.68 863.36,1043.68 863.454,1038.56 C863.548,1034.48 863.642,1030.57 863.642,1027.06 C863.642,1026.21 863.548,1025.35 863.548,1024.5 C863.548,1020.32 863.454,1016.23 863.267,1012.43 C863.267,1011.96 863.173,1011.1 862.985,1009.68 C862.798,1008.25 862.517,1006.92 862.407,1005.68 C862.314,1005.12 862.314,1004.54 862.314,1003.98 C862.314,1003.31 862.314,1002.75 862.407,1002.07 C862.61,1000.84 862.985,999.886 863.642,999.417 C864.501,998.745 865.454,998.464 866.501,998.464 C866.782,998.558 867.064,998.558 867.36,998.558 C868.782,998.745 870.298,999.23 871.907,1000.09 C873.532,1000.93 875.048,1002.07 876.47,1003.21 C877.907,1004.35 879.235,1005.5 880.282,1006.64 C881.314,1007.78 882.173,1008.64 882.657,1009.5 C884.173,1011.96 885.22,1014.71 885.782,1017.75 C886.064,1019.46 886.267,1021.17 886.267,1022.89 C886.267,1024.12 886.157,1025.35 886.064,1026.59 C885.595,1029.53 884.735,1032.39 883.501,1035.14 C882.267,1037.89 880.657,1040.37 878.751,1042.54 C876.767,1044.73 874.485,1046.45 871.814,1047.87 C869.157,1049.29 866.314,1050.15 863.267,1050.43"/>
<path class="Harmony" d="M1581.73,1009.01 C1582.97,1010.62 1583.81,1012.81 1584.48,1015.57 C1585.15,1018.32 1585.62,1020.98 1586.09,1023.75 C1586.58,1026.5 1586.86,1029.06 1586.95,1031.34 L1579.73,1030.57 L1571.94,1031.34 L1575.94,1019.46 L1581.73,1009.01 M1580.01,1042.45 L1581.92,1042.45 L1584.76,1042.45 L1585.53,1042.45 L1586.39,1042.45 C1586.48,1042.45 1586.76,1042.54 1587.14,1042.54 C1587.53,1042.54 1587.81,1042.54 1588,1042.64 C1588.19,1042.75 1588.37,1042.84 1588.67,1042.93 C1588.95,1043.03 1589.14,1043.12 1589.33,1043.31 C1589.51,1043.5 1589.81,1043.59 1590,1043.78 C1590.47,1044.26 1590.94,1045.21 1591.33,1046.45 C1591.7,1047.59 1592.08,1048.82 1592.37,1050.25 C1592.65,1051.67 1592.94,1053.09 1593.22,1054.71 C1593.51,1056.32 1593.89,1057.75 1594.26,1059.07 C1594.65,1060.4 1595.22,1061.64 1595.79,1062.68 C1596.36,1063.73 1597.03,1064.4 1597.87,1064.78 C1598.26,1064.96 1598.73,1065.06 1599.31,1065.06 C1599.78,1065.06 1600.34,1064.96 1600.92,1064.78 C1601.78,1064.5 1602.44,1064.12 1603.11,1063.73 C1603.76,1063.35 1604.25,1062.98 1604.62,1062.5 C1605,1062.03 1605.29,1061.54 1605.58,1060.98 C1605.86,1060.4 1606.04,1060.03 1606.14,1059.56 C1606.23,1059.17 1606.23,1058.79 1606.23,1058.32 L1606.23,1057.84 C1606.23,1057.18 1606.23,1056.51 1606.14,1056.04 C1606.04,1055.56 1605.86,1055 1605.67,1054.23 C1605.48,1053.48 1605.29,1052.9 1605.09,1052.43 C1604.9,1051.95 1604.81,1051.29 1604.53,1050.43 C1604.25,1049.57 1603.95,1049.01 1603.86,1048.64 C1603.2,1046.73 1602.06,1042.93 1600.44,1037.32 C1599.31,1033.25 1598.36,1029.82 1597.69,1027.15 C1596.45,1022.31 1595.4,1018.32 1594.65,1015.18 C1593.42,1009.96 1592.47,1006.45 1591.98,1004.64 C1591.89,1004.26 1591.79,1003.7 1591.61,1002.93 C1591.42,1002.17 1591.33,1001.51 1591.23,1000.93 C1591.14,1000.37 1590.84,999.792 1590.65,999.042 C1590.47,998.276 1590.28,997.511 1590.09,996.948 C1589.9,996.37 1589.51,995.714 1589.23,995.042 C1588.95,994.386 1588.56,993.901 1588.19,993.433 C1587.81,992.964 1587.53,992.573 1587.04,992.198 C1586.58,991.823 1586.09,991.433 1585.53,991.339 C1585.06,991.245 1584.58,991.151 1584.01,991.151 L1583.62,991.151 C1582.97,991.245 1582.2,991.339 1581.34,991.62 C1580.69,991.917 1579.92,992.292 1579.26,992.761 C1578.59,993.245 1577.94,993.62 1577.45,994.105 C1576.98,994.573 1576.5,995.245 1576.03,995.995 C1575.56,996.761 1575.08,997.323 1574.79,997.901 C1574.51,998.464 1574.12,999.23 1573.75,1000.18 C1573.37,1001.12 1572.98,1001.89 1572.79,1002.46 C1572.61,1003.03 1572.42,1003.79 1572.04,1004.75 C1571.65,1005.68 1571.37,1006.35 1571.28,1006.82 C1568.53,1013.76 1565.76,1020.32 1563.01,1026.68 C1558.54,1036.85 1555.89,1043.03 1555.12,1045.31 C1555.03,1045.68 1554.65,1046.35 1554.17,1047.39 C1553.7,1048.43 1553.14,1049.39 1552.65,1050.34 C1552.19,1051.29 1551.7,1052.53 1551.14,1053.76 C1550.56,1055 1550.09,1056.23 1549.81,1057.28 C1549.42,1058.32 1549.23,1059.26 1549.23,1060.12 C1549.33,1060.98 1549.53,1061.54 1550,1062.03 C1550.86,1062.68 1551.79,1063.07 1552.84,1063.07 L1553.51,1063.07 C1554.84,1062.89 1556.17,1062.5 1557.5,1061.75 C1558.83,1060.98 1559.78,1060.12 1560.26,1059.26 C1560.83,1058.23 1561.4,1057 1561.87,1055.46 C1562.34,1053.95 1562.83,1052.53 1563.11,1051.29 C1563.39,1050.06 1563.78,1048.73 1564.44,1047.29 C1565.11,1045.87 1565.86,1044.73 1566.72,1043.78 L1571.84,1042.17 C1572.14,1042.07 1572.51,1042.17 1573.19,1042.17 L1575.94,1042.17 C1576.22,1042.17 1577.64,1042.26 1580.01,1042.45"/>
<path class="Harmony" d="M1880.75,1018.6 C1880.75,1018.23 1880.66,1017.37 1880.57,1015.95 C1880.47,1014.53 1880.47,1013.2 1880.47,1011.96 L1880.47,1011.39 C1880.47,1010.34 1880.47,1009.2 1880.57,1007.96 C1880.66,1006.54 1880.94,1005.4 1881.22,1004.35 C1881.5,1003.31 1881.99,1002.56 1882.55,1002.17 C1883.22,1001.7 1884.08,1001.51 1885.11,1001.51 C1886.16,1001.51 1887.39,1001.7 1888.63,1001.89 C1889.86,1002.07 1890.82,1002.17 1891.39,1002.17 L1892.91,1002.17 C1894.52,1002.17 1896.61,1002.26 1899.08,1002.37 C1902.41,1002.56 1905.46,1002.65 1908.39,1002.65 L1909.44,1002.65 C1911.91,1002.65 1914.1,1002.46 1915.99,1002.07 C1917.24,1001.79 1918.18,1000.93 1918.85,999.511 C1919.5,998.089 1919.89,996.573 1919.89,994.948 C1919.89,993.245 1919.5,991.917 1918.75,991.058 C1918.27,990.589 1917.61,990.105 1916.66,989.917 C1915.71,989.73 1914.96,989.636 1914.19,989.636 C1913.43,989.636 1912.49,989.636 1911.24,989.73 C1910,989.823 1909.25,989.823 1908.97,989.823 C1907.25,989.823 1904.5,989.917 1900.71,990.011 C1897.94,990.105 1895.38,990.105 1893.1,990.105 L1890.63,990.105 C1887.69,990.011 1884.93,989.823 1882.36,989.542 C1881.6,989.448 1881.03,989.355 1880.75,989.355 C1880.47,989.355 1879.89,989.355 1879.03,989.245 C1878.57,989.151 1878.19,989.151 1877.8,989.151 L1876.96,989.151 C1876.38,989.245 1875.82,989.355 1875.14,989.448 C1874.47,989.542 1873.91,989.73 1873.44,990.011 C1872.96,990.292 1872.58,990.589 1872.3,991.058 C1871.72,992.011 1871.35,993.339 1871.07,994.948 C1870.77,996.37 1870.68,997.714 1870.68,998.948 L1870.68,999.417 C1870.68,1000.84 1870.77,1002.46 1870.86,1004.45 C1870.97,1006.45 1871.07,1007.78 1871.07,1008.45 L1871.07,1009.68 C1871.07,1013.2 1870.97,1018.7 1870.68,1026.12 C1870.49,1032.29 1870.39,1037.32 1870.39,1041.31 L1870.39,1045.21 L1870.39,1045.59 C1870.39,1046.45 1870.3,1047.59 1870.11,1048.92 C1869.83,1050.43 1869.63,1051.85 1869.44,1053.18 C1869.25,1054.42 1869.16,1055.76 1869.16,1057.09 L1869.16,1057.37 C1869.16,1058.79 1869.35,1059.93 1869.83,1060.89 C1870.11,1061.64 1870.68,1062.21 1871.35,1062.59 C1872,1062.98 1872.86,1063.17 1873.91,1063.26 L1875.24,1063.26 L1876.66,1063.26 C1877.52,1063.17 1878.57,1063.07 1879.61,1062.89 C1880.66,1062.68 1881.32,1062.68 1881.8,1062.68 L1911.24,1062.68 C1911.72,1062.68 1912.28,1062.68 1913.05,1062.78 C1913.82,1062.89 1914.47,1062.89 1914.96,1062.89 L1916.66,1062.89 C1917.33,1062.89 1917.89,1062.68 1918.36,1062.5 C1918.85,1062.31 1919.22,1062.21 1919.71,1061.93 C1920.18,1061.64 1920.46,1061.17 1920.85,1060.6 C1921.22,1060.03 1921.5,1059.46 1921.69,1058.79 C1921.88,1058.23 1921.99,1057.56 1921.99,1056.7 L1921.99,1056.14 C1921.99,1055.56 1921.99,1055 1921.88,1054.32 C1921.78,1053.57 1921.5,1052.81 1921.13,1052.14 C1920.74,1051.48 1920.27,1051.01 1919.61,1050.71 C1919.13,1050.53 1918.47,1050.34 1917.71,1050.34 C1916.94,1050.34 1916.19,1050.34 1915.52,1050.43 C1914.86,1050.53 1914.1,1050.62 1913.24,1050.71 C1912.38,1050.81 1911.72,1050.9 1911.24,1050.9 L1890.35,1050.9 C1890.07,1050.9 1889.49,1050.9 1888.53,1051.01 C1887.6,1051.1 1886.74,1051.1 1886.07,1051.1 C1885.41,1051.1 1884.64,1051.1 1883.78,1051.01 C1882.94,1050.9 1882.27,1050.71 1881.71,1050.43 C1881.13,1050.15 1880.75,1049.67 1880.57,1049.2 C1880.36,1048.34 1880.36,1047.5 1880.36,1046.92 C1880.36,1046.35 1880.47,1045.59 1880.57,1044.54 C1880.66,1043.5 1880.75,1042.84 1880.75,1042.35 C1880.66,1041.98 1880.57,1040.93 1880.47,1039.32 C1880.36,1038.28 1880.36,1037.42 1880.36,1036.56 L1880.36,1035.14 C1880.47,1033.9 1880.75,1033.04 1881.22,1032.39 C1881.6,1031.9 1882.18,1031.53 1883.03,1031.25 C1883.88,1030.96 1884.74,1030.87 1885.5,1030.87 C1886.25,1030.87 1887.11,1030.87 1888.25,1030.96 C1889.39,1031.06 1890.07,1031.06 1890.35,1031.06 C1895.96,1031.15 1901.74,1031.34 1907.83,1031.71 C1908.3,1031.71 1909.07,1031.81 1910,1031.9 C1910.96,1032 1911.72,1032.2 1912.38,1032.29 C1913.05,1032.39 1913.82,1032.39 1914.57,1032.29 C1915.33,1032.2 1916.1,1032.1 1916.75,1031.81 C1917.8,1031.43 1918.47,1030.39 1918.94,1028.78 C1919.22,1027.82 1919.32,1026.87 1919.32,1025.92 C1919.32,1025.17 1919.22,1024.4 1919.13,1023.75 C1918.85,1022.12 1918.18,1020.98 1917.24,1020.32 C1916.38,1019.75 1915.05,1019.37 1913.14,1019.09 C1911.91,1019 1910.58,1018.89 1909.35,1018.89 L1908.77,1018.89 L1907.53,1018.89 C1905.74,1018.89 1903.83,1019 1901.64,1019.09 C1900.32,1019.18 1899.18,1019.28 1898.33,1019.28 C1897.85,1019.18 1897.38,1019.18 1897.1,1019.18 C1896.43,1019.18 1894.05,1019.18 1889.97,1019.09 C1885.88,1019 1882.85,1018.89 1880.75,1018.6"/>
<path class="Harmony" d="M2279.38,1009.01 C2280.62,1010.62 2281.46,1012.81 2282.13,1015.57 C2282.81,1018.32 2283.28,1020.98 2283.74,1023.75 C2284.23,1026.5 2284.51,1029.06 2284.6,1031.34 L2277.38,1030.57 L2269.59,1031.34 L2273.59,1019.46 L2279.38,1009.01 M2277.67,1042.45 L2279.57,1042.45 L2282.42,1042.45 L2283.18,1042.45 L2284.04,1042.45 C2284.13,1042.45 2284.42,1042.54 2284.79,1042.54 C2285.18,1042.54 2285.46,1042.54 2285.65,1042.64 C2285.84,1042.75 2286.03,1042.84 2286.32,1042.93 C2286.6,1043.03 2286.79,1043.12 2286.98,1043.31 C2287.17,1043.5 2287.46,1043.59 2287.65,1043.78 C2288.12,1044.26 2288.59,1045.21 2288.98,1046.45 C2289.35,1047.59 2289.73,1048.82 2290.03,1050.25 C2290.31,1051.67 2290.59,1053.09 2290.87,1054.71 C2291.17,1056.32 2291.54,1057.75 2291.92,1059.07 C2292.31,1060.4 2292.87,1061.64 2293.45,1062.68 C2294.01,1063.73 2294.68,1064.4 2295.53,1064.78 C2295.92,1064.96 2296.38,1065.06 2296.96,1065.06 C2297.43,1065.06 2297.99,1064.96 2298.57,1064.78 C2299.43,1064.5 2300.09,1064.12 2300.76,1063.73 C2301.42,1063.35 2301.9,1062.98 2302.28,1062.5 C2302.65,1062.03 2302.95,1061.54 2303.23,1060.98 C2303.51,1060.4 2303.7,1060.03 2303.79,1059.56 C2303.88,1059.17 2303.88,1058.79 2303.88,1058.32 L2303.88,1057.84 C2303.88,1057.18 2303.88,1056.51 2303.79,1056.04 C2303.7,1055.56 2303.51,1055 2303.32,1054.23 C2303.13,1053.48 2302.95,1052.9 2302.74,1052.43 C2302.56,1051.95 2302.46,1051.29 2302.18,1050.43 C2301.9,1049.57 2301.6,1049.01 2301.51,1048.64 C2300.85,1046.73 2299.71,1042.93 2298.09,1037.32 C2296.96,1033.25 2296.01,1029.82 2295.34,1027.15 C2294.1,1022.31 2293.06,1018.32 2292.31,1015.18 C2291.07,1009.96 2290.12,1006.45 2289.63,1004.64 C2289.54,1004.26 2289.45,1003.7 2289.26,1002.93 C2289.07,1002.17 2288.98,1001.51 2288.88,1000.93 C2288.79,1000.37 2288.49,999.792 2288.31,999.042 C2288.12,998.276 2287.93,997.511 2287.74,996.948 C2287.56,996.37 2287.17,995.714 2286.88,995.042 C2286.6,994.386 2286.21,993.901 2285.84,993.433 C2285.46,992.964 2285.18,992.573 2284.7,992.198 C2284.23,991.823 2283.74,991.433 2283.18,991.339 C2282.71,991.245 2282.23,991.151 2281.67,991.151 L2281.28,991.151 C2280.62,991.245 2279.85,991.339 2278.99,991.62 C2278.34,991.917 2277.57,992.292 2276.92,992.761 C2276.24,993.245 2275.59,993.62 2275.1,994.105 C2274.63,994.573 2274.15,995.245 2273.68,995.995 C2273.21,996.761 2272.73,997.323 2272.45,997.901 C2272.17,998.464 2271.78,999.23 2271.4,1000.18 C2271.03,1001.12 2270.63,1001.89 2270.45,1002.46 C2270.26,1003.03 2270.07,1003.79 2269.7,1004.75 C2269.31,1005.68 2269.03,1006.35 2268.93,1006.82 C2266.18,1013.76 2263.42,1020.32 2260.67,1026.68 C2256.2,1036.85 2253.54,1043.03 2252.78,1045.31 C2252.68,1045.68 2252.31,1046.35 2251.82,1047.39 C2251.35,1048.43 2250.79,1049.39 2250.31,1050.34 C2249.84,1051.29 2249.35,1052.53 2248.79,1053.76 C2248.21,1055 2247.74,1056.23 2247.46,1057.28 C2247.07,1058.32 2246.88,1059.26 2246.88,1060.12 C2246.98,1060.98 2247.18,1061.54 2247.65,1062.03 C2248.51,1062.68 2249.45,1063.07 2250.49,1063.07 L2251.17,1063.07 C2252.49,1062.89 2253.82,1062.5 2255.15,1061.75 C2256.48,1060.98 2257.43,1060.12 2257.92,1059.26 C2258.48,1058.23 2259.06,1057 2259.53,1055.46 C2259.99,1053.95 2260.48,1052.53 2260.76,1051.29 C2261.04,1050.06 2261.43,1048.73 2262.09,1047.29 C2262.76,1045.87 2263.51,1044.73 2264.37,1043.78 L2269.49,1042.17 C2269.79,1042.07 2270.17,1042.17 2270.84,1042.17 L2273.59,1042.17 C2273.87,1042.17 2275.29,1042.26 2277.67,1042.45"/>
</svg>
