<?xml version="1.0" encoding="UTF-8" standalone="no"?>
<svg width="2976.38px" height="1417.32px" viewBox="0 0 2976.38 1417.32"
 xmlns="http://www.w3.org/2000/svg" xmlns:xlink="http://www.w3.org/1999/xlink" version="1.2" baseProfile="tiny">
<title>June_Apple_Amix</title>
<desc>Generated by MuseScore 3.6.2</desc>
<polyline class="StaffLines" fill="none" stroke="#000000" stroke-width="2.73" stroke-linejoin="bevel" points="138.189,187.795 2933.86,187.795"/>
<polyline class="StaffLines" fill="none" stroke="#000000" stroke-width="2.73" stroke-linejoin="bevel" points="138.189,212.598 2933.86,212.598"/>
<polyline class="StaffLines" fill="none" stroke="#000000" stroke-width="2.73" stroke-linejoin="bevel" points="138.189,237.402 2933.86,237.402"/>
<polyline class="StaffLines" fill="none" stroke="#000000" stroke-width="2.73" stroke-linejoin="bevel" points="138.189,262.205 2933.86,262.205"/>
<polyline class="StaffLines" fill="none" stroke="#000000" stroke-width="2.73" stroke-linejoin="bevel" points="138.189,287.008 2933.86,287.008"/>
<polyline class="StaffLines" fill="none" stroke="#000000" stroke-width="2.73" stroke-linejoin="bevel" points="14.1732,497.835 2933.86,497.835"/>
<polyline class="StaffLines" fill="none" stroke="#000000" stroke-width="2.73" stroke-linejoin="bevel" points="14.1732,522.638 2933.86,522.638"/>
<polyline class="StaffLines" fill="none" stroke="#000000" stroke-width="2.73" stroke-linejoin="bevel" points="14.1732,547.441 2933.86,547.441"/>
<polyline class="StaffLines" fill="none" stroke="#000000" stroke-width="2.73" stroke-linejoin="bevel" points="14.1732,572.244 2933.86,572.244"/>
<polyline class="StaffLines" fill="none" stroke="#000000" stroke-width="2.73" stroke-linejoin="bevel" points="14.1732,597.047 2933.86,597.047"/>
<polyline class="StaffLines" fill="none" stroke="#000000" stroke-width="2.73" stroke-linejoin="bevel" points="14.1732,815.417 2933.86,815.417"/>
<polyline class="StaffLines" fill="none" stroke="#000000" stroke-width="2.73" stroke-linejoin="bevel" points="14.1732,840.22 2933.86,840.22"/>
<polyline class="StaffLines" fill="none" stroke="#000000" stroke-width="2.73" stroke-linejoin="bevel" points="14.1732,865.023 2933.86,865.023"/>
<polyline class="StaffLines" fill="none" stroke="#000000" stroke-width="2.73" stroke-linejoin="bevel" points="14.1732,889.826 2933.86,889.826"/>
<polyline class="StaffLines" fill="none" stroke="#000000" stroke-width="2.73" stroke-linejoin="bevel" points="14.1732,914.629 2933.86,914.629"/>
<polyline class="StaffLines" fill="none" stroke="#000000" stroke-width="2.73" stroke-linejoin="bevel" points="14.1732,1125.46 2933.86,1125.46"/>
<polyline class="StaffLines" fill="none" stroke="#000000" stroke-width="2.73" stroke-linejoin="bevel" points="14.1732,1150.26 2933.86,1150.26"/>
<polyline class="StaffLines" fill="none" stroke="#000000" stroke-width="2.73" stroke-linejoin="bevel" points="14.1732,1175.06 2933.86,1175.06"/>
<polyline class="StaffLines" fill="none" stroke="#000000" stroke-width="2.73" stroke-linejoin="bevel" points="14.1732,1199.87 2933.86,1199.87"/>
<polyline class="StaffLines" fill="none" stroke="#000000" stroke-width="2.73" stroke-linejoin="bevel" points="14.1732,1224.67 2933.86,1224.67"/>
<polyline class="BarLine" fill="none" stroke="#000000" stroke-width="4.46" stroke-linejoin="bevel" points="953.226,186.431 953.226,288.372"/>
<polyline class="BarLine" fill="none" stroke="#000000" stroke-width="4.46" stroke-linejoin="bevel" points="1612.69,186.431 1612.69,288.372"/>
<polyline class="BarLine" fill="none" stroke="#000000" stroke-width="4.46" stroke-linejoin="bevel" points="2272.16,186.431 2272.16,288.372"/>
<polyline class="BarLine" fill="none" stroke="#000000" stroke-width="4.46" stroke-linejoin="bevel" points="2931.63,186.431 2931.63,288.372"/>
<polyline class="BarLine" fill="none" stroke="#000000" stroke-width="4.46" stroke-linejoin="bevel" points="808.481,496.47 808.481,598.411"/>
<polyline class="BarLine" fill="none" stroke="#000000" stroke-width="4.46" stroke-linejoin="bevel" points="1502.1,496.47 1502.1,598.411"/>
<polyline class="BarLine" fill="none" stroke="#000000" stroke-width="4.46" stroke-linejoin="bevel" points="2195.73,496.47 2195.73,598.411"/>
<path class="BarLine" transform="matrix(0.992126,0,0,0.992126,2887.12,535.039)" d="M10.4063,0 C10.4063,-2.90625 8.09375,-5.29688 5.20313,-5.29688 C2.29688,-5.29688 0,-2.90625 0,0 C0,2.90625 2.29688,5.29688 5.20313,5.29688 C8.09375,5.29688 10.4063,2.90625 10.4063,0"/>
<path class="BarLine" transform="matrix(0.992126,0,0,0.992126,2887.12,559.843)" d="M10.4063,0 C10.4063,-2.90625 8.09375,-5.29688 5.20313,-5.29688 C2.29688,-5.29688 0,-2.90625 0,0 C0,2.90625 2.29688,5.29688 5.20313,5.29688 C8.09375,5.29688 10.4063,2.90625 10.4063,0"/>
<polyline class="BarLine" fill="none" stroke="#000000" stroke-width="4.46" stroke-linejoin="bevel" points="2909.64,496.47 2909.64,598.411"/>
<polyline class="BarLine" fill="none" stroke="#000000" stroke-width="13.64" stroke-linejoin="bevel" points="2927,496.47 2927,598.411"/>
<polyline class="BarLine" fill="none" stroke="#000000" stroke-width="4.46" stroke-linejoin="bevel" points="819.051,814.053 819.051,915.994"/>
<polyline class="BarLine" fill="none" stroke="#000000" stroke-width="4.46" stroke-linejoin="bevel" points="1523.24,814.053 1523.24,915.994"/>
<polyline class="BarLine" fill="none" stroke="#000000" stroke-width="4.46" stroke-linejoin="bevel" points="2227.44,814.053 2227.44,915.994"/>
<polyline class="BarLine" fill="none" stroke="#000000" stroke-width="4.46" stroke-linejoin="bevel" points="2931.63,814.053 2931.63,915.994"/>
<polyline class="BarLine" fill="none" stroke="#000000" stroke-width="4.46" stroke-linejoin="bevel" points="812.511,1124.09 812.511,1226.03"/>
<polyline class="BarLine" fill="none" stroke="#000000" stroke-width="4.46" stroke-linejoin="bevel" points="1494.04,1124.09 1494.04,1226.03"/>
<polyline class="BarLine" fill="none" stroke="#000000" stroke-width="4.46" stroke-linejoin="bevel" points="2191.69,1124.09 2191.69,1226.03"/>
<path class="BarLine" transform="matrix(0.992126,0,0,0.992126,2887.12,1162.66)" d="M10.4063,0 C10.4063,-2.90625 8.09375,-5.29688 5.20313,-5.29688 C2.29688,-5.29688 0,-2.90625 0,0 C0,2.90625 2.29688,5.29688 5.20313,5.29688 C8.09375,5.29688 10.4063,2.90625 10.4063,0"/>
<path class="BarLine" transform="matrix(0.992126,0,0,0.992126,2887.12,1187.46)" d="M10.4063,0 C10.4063,-2.90625 8.09375,-5.29688 5.20313,-5.29688 C2.29688,-5.29688 0,-2.90625 0,0 C0,2.90625 2.29688,5.29688 5.20313,5.29688 C8.09375,5.29688 10.4063,2.90625 10.4063,0"/>
<polyline class="BarLine" fill="none" stroke="#000000" stroke-width="4.46" stroke-linejoin="bevel" points="2909.64,1124.09 2909.64,1226.03"/>
<polyline class="BarLine" fill="none" stroke="#000000" stroke-width="13.64" stroke-linejoin="bevel" points="2927,1124.09 2927,1226.03"/>
<path class="Note" transform="matrix(0.992126,0,0,0.992126,338.405,237.402)" d="M43,-25 L0,25 L10,25 L53,-25 L43,-25 "/>
<path class="Note" transform="matrix(0.992126,0,0,0.992126,489.01,237.402)" d="M43,-25 L0,25 L10,25 L53,-25 L43,-25 "/>
<path class="Note" transform="matrix(0.992126,0,0,0.992126,639.615,237.402)" d="M43,-25 L0,25 L10,25 L53,-25 L43,-25 "/>
<path class="Note" transform="matrix(0.992126,0,0,0.992126,790.22,237.402)" d="M43,-25 L0,25 L10,25 L53,-25 L43,-25 "/>
<path class="Note" transform="matrix(0.992126,0,0,0.992126,997.872,237.402)" d="M43,-25 L0,25 L10,25 L53,-25 L43,-25 "/>
<path class="Note" transform="matrix(0.992126,0,0,0.992126,1148.48,237.402)" d="M43,-25 L0,25 L10,25 L53,-25 L43,-25 "/>
<path class="Note" transform="matrix(0.992126,0,0,0.992126,1299.08,237.402)" d="M43,-25 L0,25 L10,25 L53,-25 L43,-25 "/>
<path class="Note" transform="matrix(0.992126,0,0,0.992126,1449.69,237.402)" d="M43,-25 L0,25 L10,25 L53,-25 L43,-25 "/>
<path class="Note" transform="matrix(0.992126,0,0,0.992126,1657.34,237.402)" d="M43,-25 L0,25 L10,25 L53,-25 L43,-25 "/>
<path class="Note" transform="matrix(0.992126,0,0,0.992126,1807.94,237.402)" d="M43,-25 L0,25 L10,25 L53,-25 L43,-25 "/>
<path class="Note" transform="matrix(0.992126,0,0,0.992126,1958.55,237.402)" d="M43,-25 L0,25 L10,25 L53,-25 L43,-25 "/>
<path class="Note" transform="matrix(0.992126,0,0,0.992126,2109.15,237.402)" d="M43,-25 L0,25 L10,25 L53,-25 L43,-25 "/>
<path class="Note" transform="matrix(0.992126,0,0,0.992126,2316.81,237.402)" d="M43,-25 L0,25 L10,25 L53,-25 L43,-25 "/>
<path class="Note" transform="matrix(0.992126,0,0,0.992126,2467.41,237.402)" d="M43,-25 L0,25 L10,25 L53,-25 L43,-25 "/>
<path class="Note" transform="matrix(0.992126,0,0,0.992126,2618.02,237.402)" d="M43,-25 L0,25 L10,25 L53,-25 L43,-25 "/>
<path class="Note" transform="matrix(0.992126,0,0,0.992126,2768.62,237.402)" d="M43,-25 L0,25 L10,25 L53,-25 L43,-25 "/>
<path class="Note" transform="matrix(0.992126,0,0,0.992126,159.504,547.441)" d="M43,-25 L0,25 L10,25 L53,-25 L43,-25 "/>
<path class="Note" transform="matrix(0.992126,0,0,0.992126,318.648,547.441)" d="M43,-25 L0,25 L10,25 L53,-25 L43,-25 "/>
<path class="Note" transform="matrix(0.992126,0,0,0.992126,477.792,547.441)" d="M43,-25 L0,25 L10,25 L53,-25 L43,-25 "/>
<path class="Note" transform="matrix(0.992126,0,0,0.992126,636.935,547.441)" d="M43,-25 L0,25 L10,25 L53,-25 L43,-25 "/>
<path class="Note" transform="matrix(0.992126,0,0,0.992126,853.126,547.441)" d="M43,-25 L0,25 L10,25 L53,-25 L43,-25 "/>
<path class="Note" transform="matrix(0.992126,0,0,0.992126,1012.27,547.441)" d="M43,-25 L0,25 L10,25 L53,-25 L43,-25 "/>
<path class="Note" transform="matrix(0.992126,0,0,0.992126,1171.41,547.441)" d="M43,-25 L0,25 L10,25 L53,-25 L43,-25 "/>
<path class="Note" transform="matrix(0.992126,0,0,0.992126,1330.56,547.441)" d="M43,-25 L0,25 L10,25 L53,-25 L43,-25 "/>
<path class="Note" transform="matrix(0.992126,0,0,0.992126,1546.75,547.441)" d="M43,-25 L0,25 L10,25 L53,-25 L43,-25 "/>
<path class="Note" transform="matrix(0.992126,0,0,0.992126,1705.89,547.441)" d="M43,-25 L0,25 L10,25 L53,-25 L43,-25 "/>
<path class="Note" transform="matrix(0.992126,0,0,0.992126,1865.04,547.441)" d="M43,-25 L0,25 L10,25 L53,-25 L43,-25 "/>
<path class="Note" transform="matrix(0.992126,0,0,0.992126,2024.18,547.441)" d="M43,-25 L0,25 L10,25 L53,-25 L43,-25 "/>
<path class="Note" transform="matrix(0.992126,0,0,0.992126,2240.37,547.441)" d="M43,-25 L0,25 L10,25 L53,-25 L43,-25 "/>
<path class="Note" transform="matrix(0.992126,0,0,0.992126,2399.51,547.441)" d="M43,-25 L0,25 L10,25 L53,-25 L43,-25 "/>
<path class="Note" transform="matrix(0.992126,0,0,0.992126,2558.66,547.441)" d="M43,-25 L0,25 L10,25 L53,-25 L43,-25 "/>
<path class="Note" transform="matrix(0.992126,0,0,0.992126,2717.8,547.441)" d="M43,-25 L0,25 L10,25 L53,-25 L43,-25 "/>
<path class="Note" transform="matrix(0.992126,0,0,0.992126,159.504,865.023)" d="M43,-25 L0,25 L10,25 L53,-25 L43,-25 "/>
<path class="Note" transform="matrix(0.992126,0,0,0.992126,321.29,865.023)" d="M43,-25 L0,25 L10,25 L53,-25 L43,-25 "/>
<path class="Note" transform="matrix(0.992126,0,0,0.992126,483.077,865.023)" d="M43,-25 L0,25 L10,25 L53,-25 L43,-25 "/>
<path class="Note" transform="matrix(0.992126,0,0,0.992126,644.863,865.023)" d="M43,-25 L0,25 L10,25 L53,-25 L43,-25 "/>
<path class="Note" transform="matrix(0.992126,0,0,0.992126,863.696,865.023)" d="M43,-25 L0,25 L10,25 L53,-25 L43,-25 "/>
<path class="Note" transform="matrix(0.992126,0,0,0.992126,1025.48,865.023)" d="M43,-25 L0,25 L10,25 L53,-25 L43,-25 "/>
<path class="Note" transform="matrix(0.992126,0,0,0.992126,1187.27,865.023)" d="M43,-25 L0,25 L10,25 L53,-25 L43,-25 "/>
<path class="Note" transform="matrix(0.992126,0,0,0.992126,1349.06,865.023)" d="M43,-25 L0,25 L10,25 L53,-25 L43,-25 "/>
<path class="Note" transform="matrix(0.992126,0,0,0.992126,1567.89,865.023)" d="M43,-25 L0,25 L10,25 L53,-25 L43,-25 "/>
<path class="Note" transform="matrix(0.992126,0,0,0.992126,1729.67,865.023)" d="M43,-25 L0,25 L10,25 L53,-25 L43,-25 "/>
<path class="Note" transform="matrix(0.992126,0,0,0.992126,1891.46,865.023)" d="M43,-25 L0,25 L10,25 L53,-25 L43,-25 "/>
<path class="Note" transform="matrix(0.992126,0,0,0.992126,2053.25,865.023)" d="M43,-25 L0,25 L10,25 L53,-25 L43,-25 "/>
<path class="Note" transform="matrix(0.992126,0,0,0.992126,2272.08,865.023)" d="M43,-25 L0,25 L10,25 L53,-25 L43,-25 "/>
<path class="Note" transform="matrix(0.992126,0,0,0.992126,2433.87,865.023)" d="M43,-25 L0,25 L10,25 L53,-25 L43,-25 "/>
<path class="Note" transform="matrix(0.992126,0,0,0.992126,2595.65,865.023)" d="M43,-25 L0,25 L10,25 L53,-25 L43,-25 "/>
<path class="Note" transform="matrix(0.992126,0,0,0.992126,2757.44,865.023)" d="M43,-25 L0,25 L10,25 L53,-25 L43,-25 "/>
<path class="Note" transform="matrix(0.992126,0,0,0.992126,159.504,1175.06)" d="M43,-25 L0,25 L10,25 L53,-25 L43,-25 "/>
<path class="Note" transform="matrix(0.992126,0,0,0.992126,319.656,1175.06)" d="M43,-25 L0,25 L10,25 L53,-25 L43,-25 "/>
<path class="Note" transform="matrix(0.992126,0,0,0.992126,479.807,1175.06)" d="M43,-25 L0,25 L10,25 L53,-25 L43,-25 "/>
<path class="Note" transform="matrix(0.992126,0,0,0.992126,639.958,1175.06)" d="M43,-25 L0,25 L10,25 L53,-25 L43,-25 "/>
<path class="Note" transform="matrix(0.992126,0,0,0.992126,841.035,1175.06)" d="M43,-25 L0,25 L10,25 L53,-25 L43,-25 "/>
<path class="Note" transform="matrix(0.992126,0,0,0.992126,1001.19,1175.06)" d="M43,-25 L0,25 L10,25 L53,-25 L43,-25 "/>
<path class="Note" transform="matrix(0.992126,0,0,0.992126,1161.34,1175.06)" d="M43,-25 L0,25 L10,25 L53,-25 L43,-25 "/>
<path class="Note" transform="matrix(0.992126,0,0,0.992126,1321.49,1175.06)" d="M43,-25 L0,25 L10,25 L53,-25 L43,-25 "/>
<path class="Note" transform="matrix(0.992126,0,0,0.992126,1538.69,1175.06)" d="M43,-25 L0,25 L10,25 L53,-25 L43,-25 "/>
<path class="Note" transform="matrix(0.992126,0,0,0.992126,1698.84,1175.06)" d="M43,-25 L0,25 L10,25 L53,-25 L43,-25 "/>
<path class="Note" transform="matrix(0.992126,0,0,0.992126,1858.99,1175.06)" d="M43,-25 L0,25 L10,25 L53,-25 L43,-25 "/>
<path class="Note" transform="matrix(0.992126,0,0,0.992126,2019.14,1175.06)" d="M43,-25 L0,25 L10,25 L53,-25 L43,-25 "/>
<path class="Note" transform="matrix(0.992126,0,0,0.992126,2236.34,1175.06)" d="M43,-25 L0,25 L10,25 L53,-25 L43,-25 "/>
<path class="Note" transform="matrix(0.992126,0,0,0.992126,2396.49,1175.06)" d="M43,-25 L0,25 L10,25 L53,-25 L43,-25 "/>
<path class="Note" transform="matrix(0.992126,0,0,0.992126,2556.64,1175.06)" d="M43,-25 L0,25 L10,25 L53,-25 L43,-25 "/>
<path class="Note" transform="matrix(0.992126,0,0,0.992126,2716.79,1175.06)" d="M43,-25 L0,25 L10,25 L53,-25 L43,-25 "/>
<path class="Clef" transform="matrix(0.992126,0,0,0.992126,158.032,262.205)" d="M63.3594,-5.92188 C62.125,-11.3438 59.4844,-15.1719 58.7031,-16.2031 C55.5156,-20.4844 51.5,-23.3281 46.8125,-24.6875 C43.7031,-25.5625 40.7031,-25.6875 38.2813,-25.5 C37.2344,-31.5156 36.2344,-37.3906 35.3281,-42.8438 C40.7813,-49.0156 44.4063,-54.8125 46.6875,-59.1094 C50.1563,-65.6875 51.2969,-70.2656 51.3594,-70.4688 C53.0781,-75.6875 53.4375,-83.3906 52.3281,-91.5938 C51.3281,-99.1406 49.2344,-105.859 46.875,-109.109 C45.8594,-110.531 44.7969,-111.266 43.7656,-111.266 C42.5469,-111.266 40.0313,-110.031 37.1406,-107.25 C34.8438,-105.063 31.5781,-101.172 29.0156,-95.1563 C26.0156,-88.0938 25.7969,-78.6094 26.1563,-71.8906 C26.5313,-64.6094 27.6406,-58.9219 27.6563,-58.875 C27.6719,-58.7813 27.9375,-57.2813 28.375,-54.7188 C28.1563,-54.4844 27.9063,-54.2656 27.6563,-54.0156 C26.625,-53.0156 25.4375,-51.8906 24.0469,-50.5 C23.1875,-49.6406 22.2344,-48.7344 21.2344,-47.7656 C12.7969,-39.625 0,-27.2969 0,-8.14063 C0,-3.4375 0.90625,0.984375 2.6875,5 C4.26563,8.59375 6.5625,11.875 9.5,14.75 C17.2344,22.3125 27.8281,25.5156 34.875,25.3594 C37.8281,25.2813 40.4688,25.0469 42.8594,24.5938 C44.6875,34.2031 45.8281,41.2344 45.8594,46.5781 C45.9063,53.0938 44.25,57.0781 40.3594,59.8438 C37.9219,61.5781 35.1094,62.5313 32.0156,62.6719 C29.4219,62.7969 27.1563,62.3281 25.7344,61.9219 L25.7188,61.9219 C25.7188,61.9219 25.4375,61.8281 25.4219,61.6406 C25.4063,61.4531 25.7656,61.4063 25.7656,61.4063 L25.7969,61.4063 C27.7188,60.9688 31.2813,59.7344 33.6406,56.4375 C35.4375,53.9063 36.3125,49.2813 34.4688,45.3438 C33.3594,42.9531 30.8594,40 25.2344,39.5469 C22.7344,39.3438 20.4688,39.8594 18.4688,41.0625 C16.6563,42.1406 15.1563,43.7813 14.1094,45.7813 C11.6563,50.4844 12.1094,56.2188 15.2344,60.0625 C18.2031,63.6875 22.8125,66 28.25,66.5781 C29.1094,66.6719 29.9531,66.7031 30.7969,66.7031 C35.2344,66.7031 39.625,65.5 43.2031,63.2969 C46.8594,60.7188 48.9844,56.7344 49.6563,51.1094 C50.2188,46.4688 49.8281,40.5469 48.4375,32.4688 C48.0781,30.375 47.5313,27.3438 46.875,23.5938 C52.625,21.6719 56.7813,18.0938 60.5469,12.2344 C63.8438,6.5 64.7813,0.390625 63.3594,-5.92188 M29.1406,20.2969 C24.5,19.0781 20.0625,16.5781 16.3125,13.0625 C15,11.8438 13.125,9.67188 11.6563,6.28125 C10.2969,3.10938 9.625,-0.328125 9.6875,-3.90625 C9.75,-8.60938 11.0625,-13.4375 13.5625,-18.2188 C16.4844,-23.7969 21.0469,-29.3281 27.1094,-34.6563 C28.5625,-35.9375 29.9375,-37.2188 31.2188,-38.5 C31.9844,-34.2344 32.8125,-29.5469 33.6875,-24.6719 C29.8438,-23.4063 25.0938,-20.25 21.9844,-14.5938 C18.4375,-8.03125 18.5781,-2.5 19.3125,0.984375 C20.25,5.4375 22.7813,9.20313 26.2344,11.2969 C27.1719,11.8594 31.2969,13.9844 33.1406,13.4063 C33.5156,13.2969 33.7813,13.0625 33.9219,12.7344 C34.4375,11.5625 33.4063,10.9219 31.8594,9.96875 C31.25,9.59375 30.5781,9.17188 29.8594,8.64063 C26.5313,6.15625 25.0781,1.70313 26.1563,-2.6875 C26.7344,-5.07813 28.0156,-7.25 29.8594,-8.95313 C31.5156,-10.5 33.5625,-11.5938 35.9375,-12.2344 C37.9844,-0.984375 40.0469,10.1719 41.6875,18.5313 C41.8125,19.2188 41.9531,19.8906 42.0781,20.5625 C37.7031,21.5 33.3594,21.4063 29.1406,20.2969 M40.4688,-12.9063 C50.8125,-13.375 55.0781,-5.9375 55.9688,-1.10938 C56.4375,1.4375 56.4375,5.875 54.8906,10.0938 C53.7188,13.2656 51.2656,17.3438 46.125,19.4063 C46.0625,18.9844 45.9844,18.5469 45.9063,18.125 C44.3594,9.34375 42.4219,-1.65625 40.4688,-12.9063 M33.1406,-83.8594 C34.9219,-89.5938 37.6563,-92.8438 39.6563,-94.5781 C41.4063,-96.0938 43.0469,-96.8125 43.9688,-96.8125 C44.1094,-96.8125 44.2344,-96.7813 44.3281,-96.75 C44.7969,-96.6094 45.3281,-96.0469 45.7969,-95.1719 C48.1094,-90.8906 47.3594,-84.1719 46.0156,-79.7344 C44.3906,-74.3281 41.4688,-68.7188 32.6719,-59.1094 C32.5,-60.2188 32.3438,-61.2656 32.1875,-62.25 C30.9375,-70.5313 31.2656,-77.8125 33.1406,-83.8594"/>
<path class="Clef" transform="matrix(0.992126,0,0,0.992126,34.0158,572.244)" d="M63.3594,-5.92188 C62.125,-11.3438 59.4844,-15.1719 58.7031,-16.2031 C55.5156,-20.4844 51.5,-23.3281 46.8125,-24.6875 C43.7031,-25.5625 40.7031,-25.6875 38.2813,-25.5 C37.2344,-31.5156 36.2344,-37.3906 35.3281,-42.8438 C40.7813,-49.0156 44.4063,-54.8125 46.6875,-59.1094 C50.1563,-65.6875 51.2969,-70.2656 51.3594,-70.4688 C53.0781,-75.6875 53.4375,-83.3906 52.3281,-91.5938 C51.3281,-99.1406 49.2344,-105.859 46.875,-109.109 C45.8594,-110.531 44.7969,-111.266 43.7656,-111.266 C42.5469,-111.266 40.0313,-110.031 37.1406,-107.25 C34.8438,-105.063 31.5781,-101.172 29.0156,-95.1563 C26.0156,-88.0938 25.7969,-78.6094 26.1563,-71.8906 C26.5313,-64.6094 27.6406,-58.9219 27.6563,-58.875 C27.6719,-58.7813 27.9375,-57.2813 28.375,-54.7188 C28.1563,-54.4844 27.9063,-54.2656 27.6563,-54.0156 C26.625,-53.0156 25.4375,-51.8906 24.0469,-50.5 C23.1875,-49.6406 22.2344,-48.7344 21.2344,-47.7656 C12.7969,-39.625 0,-27.2969 0,-8.14063 C0,-3.4375 0.90625,0.984375 2.6875,5 C4.26563,8.59375 6.5625,11.875 9.5,14.75 C17.2344,22.3125 27.8281,25.5156 34.875,25.3594 C37.8281,25.2813 40.4688,25.0469 42.8594,24.5938 C44.6875,34.2031 45.8281,41.2344 45.8594,46.5781 C45.9063,53.0938 44.25,57.0781 40.3594,59.8438 C37.9219,61.5781 35.1094,62.5313 32.0156,62.6719 C29.4219,62.7969 27.1563,62.3281 25.7344,61.9219 L25.7188,61.9219 C25.7188,61.9219 25.4375,61.8281 25.4219,61.6406 C25.4063,61.4531 25.7656,61.4063 25.7656,61.4063 L25.7969,61.4063 C27.7188,60.9688 31.2813,59.7344 33.6406,56.4375 C35.4375,53.9063 36.3125,49.2813 34.4688,45.3438 C33.3594,42.9531 30.8594,40 25.2344,39.5469 C22.7344,39.3438 20.4688,39.8594 18.4688,41.0625 C16.6563,42.1406 15.1563,43.7813 14.1094,45.7813 C11.6563,50.4844 12.1094,56.2188 15.2344,60.0625 C18.2031,63.6875 22.8125,66 28.25,66.5781 C29.1094,66.6719 29.9531,66.7031 30.7969,66.7031 C35.2344,66.7031 39.625,65.5 43.2031,63.2969 C46.8594,60.7188 48.9844,56.7344 49.6563,51.1094 C50.2188,46.4688 49.8281,40.5469 48.4375,32.4688 C48.0781,30.375 47.5313,27.3438 46.875,23.5938 C52.625,21.6719 56.7813,18.0938 60.5469,12.2344 C63.8438,6.5 64.7813,0.390625 63.3594,-5.92188 M29.1406,20.2969 C24.5,19.0781 20.0625,16.5781 16.3125,13.0625 C15,11.8438 13.125,9.67188 11.6563,6.28125 C10.2969,3.10938 9.625,-0.328125 9.6875,-3.90625 C9.75,-8.60938 11.0625,-13.4375 13.5625,-18.2188 C16.4844,-23.7969 21.0469,-29.3281 27.1094,-34.6563 C28.5625,-35.9375 29.9375,-37.2188 31.2188,-38.5 C31.9844,-34.2344 32.8125,-29.5469 33.6875,-24.6719 C29.8438,-23.4063 25.0938,-20.25 21.9844,-14.5938 C18.4375,-8.03125 18.5781,-2.5 19.3125,0.984375 C20.25,5.4375 22.7813,9.20313 26.2344,11.2969 C27.1719,11.8594 31.2969,13.9844 33.1406,13.4063 C33.5156,13.2969 33.7813,13.0625 33.9219,12.7344 C34.4375,11.5625 33.4063,10.9219 31.8594,9.96875 C31.25,9.59375 30.5781,9.17188 29.8594,8.64063 C26.5313,6.15625 25.0781,1.70313 26.1563,-2.6875 C26.7344,-5.07813 28.0156,-7.25 29.8594,-8.95313 C31.5156,-10.5 33.5625,-11.5938 35.9375,-12.2344 C37.9844,-0.984375 40.0469,10.1719 41.6875,18.5313 C41.8125,19.2188 41.9531,19.8906 42.0781,20.5625 C37.7031,21.5 33.3594,21.4063 29.1406,20.2969 M40.4688,-12.9063 C50.8125,-13.375 55.0781,-5.9375 55.9688,-1.10938 C56.4375,1.4375 56.4375,5.875 54.8906,10.0938 C53.7188,13.2656 51.2656,17.3438 46.125,19.4063 C46.0625,18.9844 45.9844,18.5469 45.9063,18.125 C44.3594,9.34375 42.4219,-1.65625 40.4688,-12.9063 M33.1406,-83.8594 C34.9219,-89.5938 37.6563,-92.8438 39.6563,-94.5781 C41.4063,-96.0938 43.0469,-96.8125 43.9688,-96.8125 C44.1094,-96.8125 44.2344,-96.7813 44.3281,-96.75 C44.7969,-96.6094 45.3281,-96.0469 45.7969,-95.1719 C48.1094,-90.8906 47.3594,-84.1719 46.0156,-79.7344 C44.3906,-74.3281 41.4688,-68.7188 32.6719,-59.1094 C32.5,-60.2188 32.3438,-61.2656 32.1875,-62.25 C30.9375,-70.5313 31.2656,-77.8125 33.1406,-83.8594"/>
<path class="Clef" transform="matrix(0.992126,0,0,0.992126,34.0158,889.826)" d="M63.3594,-5.92188 C62.125,-11.3438 59.4844,-15.1719 58.7031,-16.2031 C55.5156,-20.4844 51.5,-23.3281 46.8125,-24.6875 C43.7031,-25.5625 40.7031,-25.6875 38.2813,-25.5 C37.2344,-31.5156 36.2344,-37.3906 35.3281,-42.8438 C40.7813,-49.0156 44.4063,-54.8125 46.6875,-59.1094 C50.1563,-65.6875 51.2969,-70.2656 51.3594,-70.4688 C53.0781,-75.6875 53.4375,-83.3906 52.3281,-91.5938 C51.3281,-99.1406 49.2344,-105.859 46.875,-109.109 C45.8594,-110.531 44.7969,-111.266 43.7656,-111.266 C42.5469,-111.266 40.0313,-110.031 37.1406,-107.25 C34.8438,-105.063 31.5781,-101.172 29.0156,-95.1563 C26.0156,-88.0938 25.7969,-78.6094 26.1563,-71.8906 C26.5313,-64.6094 27.6406,-58.9219 27.6563,-58.875 C27.6719,-58.7813 27.9375,-57.2813 28.375,-54.7188 C28.1563,-54.4844 27.9063,-54.2656 27.6563,-54.0156 C26.625,-53.0156 25.4375,-51.8906 24.0469,-50.5 C23.1875,-49.6406 22.2344,-48.7344 21.2344,-47.7656 C12.7969,-39.625 0,-27.2969 0,-8.14063 C0,-3.4375 0.90625,0.984375 2.6875,5 C4.26563,8.59375 6.5625,11.875 9.5,14.75 C17.2344,22.3125 27.8281,25.5156 34.875,25.3594 C37.8281,25.2813 40.4688,25.0469 42.8594,24.5938 C44.6875,34.2031 45.8281,41.2344 45.8594,46.5781 C45.9063,53.0938 44.25,57.0781 40.3594,59.8438 C37.9219,61.5781 35.1094,62.5313 32.0156,62.6719 C29.4219,62.7969 27.1563,62.3281 25.7344,61.9219 L25.7188,61.9219 C25.7188,61.9219 25.4375,61.8281 25.4219,61.6406 C25.4063,61.4531 25.7656,61.4063 25.7656,61.4063 L25.7969,61.4063 C27.7188,60.9688 31.2813,59.7344 33.6406,56.4375 C35.4375,53.9063 36.3125,49.2813 34.4688,45.3438 C33.3594,42.9531 30.8594,40 25.2344,39.5469 C22.7344,39.3438 20.4688,39.8594 18.4688,41.0625 C16.6563,42.1406 15.1563,43.7813 14.1094,45.7813 C11.6563,50.4844 12.1094,56.2188 15.2344,60.0625 C18.2031,63.6875 22.8125,66 28.25,66.5781 C29.1094,66.6719 29.9531,66.7031 30.7969,66.7031 C35.2344,66.7031 39.625,65.5 43.2031,63.2969 C46.8594,60.7188 48.9844,56.7344 49.6563,51.1094 C50.2188,46.4688 49.8281,40.5469 48.4375,32.4688 C48.0781,30.375 47.5313,27.3438 46.875,23.5938 C52.625,21.6719 56.7813,18.0938 60.5469,12.2344 C63.8438,6.5 64.7813,0.390625 63.3594,-5.92188 M29.1406,20.2969 C24.5,19.0781 20.0625,16.5781 16.3125,13.0625 C15,11.8438 13.125,9.67188 11.6563,6.28125 C10.2969,3.10938 9.625,-0.328125 9.6875,-3.90625 C9.75,-8.60938 11.0625,-13.4375 13.5625,-18.2188 C16.4844,-23.7969 21.0469,-29.3281 27.1094,-34.6563 C28.5625,-35.9375 29.9375,-37.2188 31.2188,-38.5 C31.9844,-34.2344 32.8125,-29.5469 33.6875,-24.6719 C29.8438,-23.4063 25.0938,-20.25 21.9844,-14.5938 C18.4375,-8.03125 18.5781,-2.5 19.3125,0.984375 C20.25,5.4375 22.7813,9.20313 26.2344,11.2969 C27.1719,11.8594 31.2969,13.9844 33.1406,13.4063 C33.5156,13.2969 33.7813,13.0625 33.9219,12.7344 C34.4375,11.5625 33.4063,10.9219 31.8594,9.96875 C31.25,9.59375 30.5781,9.17188 29.8594,8.64063 C26.5313,6.15625 25.0781,1.70313 26.1563,-2.6875 C26.7344,-5.07813 28.0156,-7.25 29.8594,-8.95313 C31.5156,-10.5 33.5625,-11.5938 35.9375,-12.2344 C37.9844,-0.984375 40.0469,10.1719 41.6875,18.5313 C41.8125,19.2188 41.9531,19.8906 42.0781,20.5625 C37.7031,21.5 33.3594,21.4063 29.1406,20.2969 M40.4688,-12.9063 C50.8125,-13.375 55.0781,-5.9375 55.9688,-1.10938 C56.4375,1.4375 56.4375,5.875 54.8906,10.0938 C53.7188,13.2656 51.2656,17.3438 46.125,19.4063 C46.0625,18.9844 45.9844,18.5469 45.9063,18.125 C44.3594,9.34375 42.4219,-1.65625 40.4688,-12.9063 M33.1406,-83.8594 C34.9219,-89.5938 37.6563,-92.8438 39.6563,-94.5781 C41.4063,-96.0938 43.0469,-96.8125 43.9688,-96.8125 C44.1094,-96.8125 44.2344,-96.7813 44.3281,-96.75 C44.7969,-96.6094 45.3281,-96.0469 45.7969,-95.1719 C48.1094,-90.8906 47.3594,-84.1719 46.0156,-79.7344 C44.3906,-74.3281 41.4688,-68.7188 32.6719,-59.1094 C32.5,-60.2188 32.3438,-61.2656 32.1875,-62.25 C30.9375,-70.5313 31.2656,-77.8125 33.1406,-83.8594"/>
<path class="Clef" transform="matrix(0.992126,0,0,0.992126,34.0158,1199.87)" d="M63.3594,-5.92188 C62.125,-11.3438 59.4844,-15.1719 58.7031,-16.2031 C55.5156,-20.4844 51.5,-23.3281 46.8125,-24.6875 C43.7031,-25.5625 40.7031,-25.6875 38.2813,-25.5 C37.2344,-31.5156 36.2344,-37.3906 35.3281,-42.8438 C40.7813,-49.0156 44.4063,-54.8125 46.6875,-59.1094 C50.1563,-65.6875 51.2969,-70.2656 51.3594,-70.4688 C53.0781,-75.6875 53.4375,-83.3906 52.3281,-91.5938 C51.3281,-99.1406 49.2344,-105.859 46.875,-109.109 C45.8594,-110.531 44.7969,-111.266 43.7656,-111.266 C42.5469,-111.266 40.0313,-110.031 37.1406,-107.25 C34.8438,-105.063 31.5781,-101.172 29.0156,-95.1563 C26.0156,-88.0938 25.7969,-78.6094 26.1563,-71.8906 C26.5313,-64.6094 27.6406,-58.9219 27.6563,-58.875 C27.6719,-58.7813 27.9375,-57.2813 28.375,-54.7188 C28.1563,-54.4844 27.9063,-54.2656 27.6563,-54.0156 C26.625,-53.0156 25.4375,-51.8906 24.0469,-50.5 C23.1875,-49.6406 22.2344,-48.7344 21.2344,-47.7656 C12.7969,-39.625 0,-27.2969 0,-8.14063 C0,-3.4375 0.90625,0.984375 2.6875,5 C4.26563,8.59375 6.5625,11.875 9.5,14.75 C17.2344,22.3125 27.8281,25.5156 34.875,25.3594 C37.8281,25.2813 40.4688,25.0469 42.8594,24.5938 C44.6875,34.2031 45.8281,41.2344 45.8594,46.5781 C45.9063,53.0938 44.25,57.0781 40.3594,59.8438 C37.9219,61.5781 35.1094,62.5313 32.0156,62.6719 C29.4219,62.7969 27.1563,62.3281 25.7344,61.9219 L25.7188,61.9219 C25.7188,61.9219 25.4375,61.8281 25.4219,61.6406 C25.4063,61.4531 25.7656,61.4063 25.7656,61.4063 L25.7969,61.4063 C27.7188,60.9688 31.2813,59.7344 33.6406,56.4375 C35.4375,53.9063 36.3125,49.2813 34.4688,45.3438 C33.3594,42.9531 30.8594,40 25.2344,39.5469 C22.7344,39.3438 20.4688,39.8594 18.4688,41.0625 C16.6563,42.1406 15.1563,43.7813 14.1094,45.7813 C11.6563,50.4844 12.1094,56.2188 15.2344,60.0625 C18.2031,63.6875 22.8125,66 28.25,66.5781 C29.1094,66.6719 29.9531,66.7031 30.7969,66.7031 C35.2344,66.7031 39.625,65.5 43.2031,63.2969 C46.8594,60.7188 48.9844,56.7344 49.6563,51.1094 C50.2188,46.4688 49.8281,40.5469 48.4375,32.4688 C48.0781,30.375 47.5313,27.3438 46.875,23.5938 C52.625,21.6719 56.7813,18.0938 60.5469,12.2344 C63.8438,6.5 64.7813,0.390625 63.3594,-5.92188 M29.1406,20.2969 C24.5,19.0781 20.0625,16.5781 16.3125,13.0625 C15,11.8438 13.125,9.67188 11.6563,6.28125 C10.2969,3.10938 9.625,-0.328125 9.6875,-3.90625 C9.75,-8.60938 11.0625,-13.4375 13.5625,-18.2188 C16.4844,-23.7969 21.0469,-29.3281 27.1094,-34.6563 C28.5625,-35.9375 29.9375,-37.2188 31.2188,-38.5 C31.9844,-34.2344 32.8125,-29.5469 33.6875,-24.6719 C29.8438,-23.4063 25.0938,-20.25 21.9844,-14.5938 C18.4375,-8.03125 18.5781,-2.5 19.3125,0.984375 C20.25,5.4375 22.7813,9.20313 26.2344,11.2969 C27.1719,11.8594 31.2969,13.9844 33.1406,13.4063 C33.5156,13.2969 33.7813,13.0625 33.9219,12.7344 C34.4375,11.5625 33.4063,10.9219 31.8594,9.96875 C31.25,9.59375 30.5781,9.17188 29.8594,8.64063 C26.5313,6.15625 25.0781,1.70313 26.1563,-2.6875 C26.7344,-5.07813 28.0156,-7.25 29.8594,-8.95313 C31.5156,-10.5 33.5625,-11.5938 35.9375,-12.2344 C37.9844,-0.984375 40.0469,10.1719 41.6875,18.5313 C41.8125,19.2188 41.9531,19.8906 42.0781,20.5625 C37.7031,21.5 33.3594,21.4063 29.1406,20.2969 M40.4688,-12.9063 C50.8125,-13.375 55.0781,-5.9375 55.9688,-1.10938 C56.4375,1.4375 56.4375,5.875 54.8906,10.0938 C53.7188,13.2656 51.2656,17.3438 46.125,19.4063 C46.0625,18.9844 45.9844,18.5469 45.9063,18.125 C44.3594,9.34375 42.4219,-1.65625 40.4688,-12.9063 M33.1406,-83.8594 C34.9219,-89.5938 37.6563,-92.8438 39.6563,-94.5781 C41.4063,-96.0938 43.0469,-96.8125 43.9688,-96.8125 C44.1094,-96.8125 44.2344,-96.7813 44.3281,-96.75 C44.7969,-96.6094 45.3281,-96.0469 45.7969,-95.1719 C48.1094,-90.8906 47.3594,-84.1719 46.0156,-79.7344 C44.3906,-74.3281 41.4688,-68.7188 32.6719,-59.1094 C32.5,-60.2188 32.3438,-61.2656 32.1875,-62.25 C30.9375,-70.5313 31.2656,-77.8125 33.1406,-83.8594"/>
<path class="TimeSig" transform="matrix(0.992126,0,0,0.992126,244.951,212.73)" d="M3.59375,12.625 L20.7656,12.625 L20.7656,20.0781 L12.5469,20.0781 C11.7656,20.0781 11.125,20.7031 11.125,21.4844 L11.125,23.3906 C11.125,24.1719 11.7656,24.7969 12.5469,24.7969 L42.7969,24.7969 C43.5781,24.7969 44.2031,24.1719 44.2031,23.3906 L44.2031,21.4844 C44.2031,20.7031 43.5781,20.0781 42.7969,20.0781 L33.8594,20.0781 L33.8594,12.625 L42.7969,12.625 C43.5781,12.625 44.2031,12 44.2031,11.2188 L44.2031,9.3125 C44.2031,8.53125 43.5781,7.90625 42.7969,7.90625 L33.8594,7.90625 L33.8594,-8.0625 C33.8594,-8.59375 33.5469,-9.07813 33.0781,-9.3125 L31.8594,-9.92188 C31.3281,-10.1719 30.7031,-10.0781 30.2656,-9.6875 L21.2188,-1.375 C20.9375,-1.09375 20.7656,-0.734375 20.7656,-0.328125 L20.7656,7.90625 L9.25,7.90625 C9.25,7.90625 20.375,-4.125 32.2188,-19.8906 C33.0781,-21.0469 32.5781,-22.0938 32.3906,-22.2813 L30.2188,-24.4844 C29.9531,-24.75 29.5938,-24.9063 29.2188,-24.9063 C28.625,-24.9063 15.0625,-24.875 14.3438,-24.9063 C13.625,-24.9219 13.0938,-24.2969 13.0156,-23.6875 C13.0156,-23.6875 12.4844,-16.3281 9.875,-8.1875 C7.28125,-0.078125 4.34375,4.90625 1.6875,8.53125 C1.6875,8.53125 1.14063,9.51563 1.5,10.2656 C1.84375,11.0156 2.48438,12.0938 2.48438,12.0938 C2.48438,12.0938 2.73438,12.625 3.59375,12.625"/>
<path class="TimeSig" transform="matrix(0.992126,0,0,0.992126,244.951,262.073)" d="M3.59375,12.625 L20.7656,12.625 L20.7656,20.0781 L12.5469,20.0781 C11.7656,20.0781 11.125,20.7031 11.125,21.4844 L11.125,23.3906 C11.125,24.1719 11.7656,24.7969 12.5469,24.7969 L42.7969,24.7969 C43.5781,24.7969 44.2031,24.1719 44.2031,23.3906 L44.2031,21.4844 C44.2031,20.7031 43.5781,20.0781 42.7969,20.0781 L33.8594,20.0781 L33.8594,12.625 L42.7969,12.625 C43.5781,12.625 44.2031,12 44.2031,11.2188 L44.2031,9.3125 C44.2031,8.53125 43.5781,7.90625 42.7969,7.90625 L33.8594,7.90625 L33.8594,-8.0625 C33.8594,-8.59375 33.5469,-9.07813 33.0781,-9.3125 L31.8594,-9.92188 C31.3281,-10.1719 30.7031,-10.0781 30.2656,-9.6875 L21.2188,-1.375 C20.9375,-1.09375 20.7656,-0.734375 20.7656,-0.328125 L20.7656,7.90625 L9.25,7.90625 C9.25,7.90625 20.375,-4.125 32.2188,-19.8906 C33.0781,-21.0469 32.5781,-22.0938 32.3906,-22.2813 L30.2188,-24.4844 C29.9531,-24.75 29.5938,-24.9063 29.2188,-24.9063 C28.625,-24.9063 15.0625,-24.875 14.3438,-24.9063 C13.625,-24.9219 13.0938,-24.2969 13.0156,-23.6875 C13.0156,-23.6875 12.4844,-16.3281 9.875,-8.1875 C7.28125,-0.078125 4.34375,4.90625 1.6875,8.53125 C1.6875,8.53125 1.14063,9.51563 1.5,10.2656 C1.84375,11.0156 2.48438,12.0938 2.48438,12.0938 C2.48438,12.0938 2.73438,12.625 3.59375,12.625"/>
<path class="RehearsalMark" fill="none" stroke="#000000" stroke-width="3.97" stroke-linecap="square" stroke-linejoin="miter" stroke-miterlimit="2" fill-rule="evenodd" d="M154.216,21.0729 L262.987,21.0729 L262.987,122.845 L154.216,122.845 L154.216,21.0729 "/>
<path class="RehearsalMark" d="M205.352,35.4899 L182.883,87.9587 C178.32,98.6618 174.664,102.521 168.82,103.115 L168.82,108.459 L197.43,108.459 L197.43,103.115 C190.398,102.724 187.633,100.834 187.633,96.2868 C187.633,94.5993 188.023,93.0212 189.117,90.6462 L190.695,86.8806 L215.352,86.8806 L219.117,96.5837 C220.195,99.3493 220.305,99.8493 220.305,100.631 C220.305,102.427 218.914,103.021 214.555,103.021 L212.867,103.115 L212.867,108.459 L247.617,108.459 L247.617,103.115 C241.977,102.912 240.398,101.927 238.32,96.8806 L212.867,35.4899 L205.352,35.4899 M203.273,56.5837 L212.867,80.2399 L193.273,80.2399 L203.273,56.5837 "/>
<path class="RehearsalMark" fill="none" stroke="#000000" stroke-width="3.97" stroke-linecap="square" stroke-linejoin="miter" stroke-miterlimit="2" fill-rule="evenodd" d="M32.3294,654.622 L133.101,654.622 L133.101,755.393 L32.3294,755.393 L32.3294,654.622 "/>
<path class="RehearsalMark" d="M47.4027,669.523 L47.4027,674.882 L48.8871,674.882 C54.2308,674.882 56.1058,675.273 56.9964,676.257 C57.6996,677.351 57.6996,677.648 57.6996,683.789 L57.6996,726.757 C57.6996,732.882 57.6996,733.179 56.9964,734.179 C56.1058,735.273 54.1371,735.664 48.8871,735.664 L47.4027,735.664 L47.4027,741.007 L87.4964,741.007 C97.7933,741.007 103.043,740.211 108.184,737.945 C114.418,735.164 118.575,728.929 118.575,722.195 C118.575,715.273 114.621,709.82 107.293,706.461 C103.934,704.867 101.059,704.086 95.8089,703.382 C100.653,702.601 103.434,701.898 106.2,700.617 C112.137,697.742 115.309,692.992 115.309,687.054 C115.309,681.414 112.34,676.164 107.496,673.492 C102.043,670.414 97.2933,669.523 85.6058,669.523 L47.4027,669.523 M75.5121,701.601 L75.5121,680.617 C75.3089,676.461 76.6996,675.07 81.0589,674.882 L84.0277,674.882 C92.7464,674.882 97.3871,679.226 97.3871,687.445 C97.3871,692.304 95.7152,696.164 92.5433,698.632 C89.8714,700.82 86.4964,701.601 80.3714,701.601 L75.5121,701.601 M75.5121,707.054 L82.3402,707.054 C88.5746,707.054 91.4496,707.648 94.2308,709.429 C97.6839,711.711 99.6683,716.054 99.6683,721.211 C99.6683,725.961 97.8871,730.32 95.0121,732.695 C92.5433,734.664 89.2777,735.664 84.5277,735.664 L81.5589,735.664 C75.9027,735.461 75.3089,734.867 75.5121,729.32 L75.5121,707.054 "/>
<path class="Harmony" d="M350.527,121.866 C350.496,121.881 350.449,121.881 350.386,121.881 C350.324,121.881 350.277,121.897 350.246,121.897 C350.199,121.912 350.152,121.912 350.09,121.928 C350.027,121.928 349.996,121.944 349.949,121.959 C349.902,121.975 349.871,122.006 349.824,122.022 C349.777,122.053 349.746,122.069 349.73,122.116 C349.683,122.147 349.668,122.178 349.636,122.225 C349.621,122.256 349.605,122.319 349.605,122.366 C349.605,122.397 349.605,122.428 349.605,122.475 L349.605,122.506 C349.605,122.537 349.605,122.584 349.605,122.647 C349.621,122.709 349.621,122.756 349.621,122.787 C349.621,123.366 349.636,123.928 349.652,124.475 C349.652,124.506 349.652,124.537 349.652,124.569 C349.652,124.678 349.652,124.819 349.636,124.975 C349.621,125.178 349.621,125.319 349.621,125.412 L349.621,125.444 L349.621,125.537 C349.621,125.553 349.621,125.584 349.636,125.616 C349.636,125.647 349.636,125.662 349.652,125.678 C349.668,125.694 349.683,125.709 349.715,125.725 C349.73,125.741 349.761,125.741 349.793,125.741 L349.808,125.741 C349.98,125.741 350.152,125.709 350.324,125.631 C350.511,125.569 350.668,125.491 350.824,125.381 C350.98,125.287 351.121,125.162 351.261,125.006 C351.402,124.866 351.527,124.709 351.621,124.553 C351.73,124.397 351.808,124.225 351.871,124.053 C351.949,123.881 351.98,123.709 351.98,123.537 C351.996,123.506 351.996,123.459 351.996,123.428 C351.996,123.334 351.98,123.241 351.965,123.131 C351.933,122.991 351.902,122.85 351.84,122.725 C351.793,122.6 351.715,122.475 351.621,122.366 C351.543,122.241 351.433,122.147 351.324,122.069 C351.215,121.991 351.09,121.928 350.949,121.897 C350.871,121.866 350.777,121.866 350.668,121.866 C350.621,121.866 350.574,121.866 350.527,121.866 M350.215,125.1 C350.215,124.959 350.215,124.741 350.215,124.475 C350.23,124.256 350.23,124.053 350.23,123.866 C350.23,123.819 350.23,123.787 350.23,123.741 C350.23,123.522 350.215,123.303 350.215,123.1 C350.215,123.069 350.199,123.037 350.199,122.959 C350.183,122.881 350.168,122.803 350.168,122.741 C350.152,122.709 350.152,122.678 350.152,122.647 C350.152,122.616 350.152,122.584 350.168,122.553 C350.168,122.491 350.199,122.444 350.23,122.412 C350.277,122.381 350.324,122.366 350.386,122.366 C350.402,122.366 350.402,122.366 350.418,122.366 C350.496,122.381 350.574,122.397 350.668,122.444 C350.746,122.491 350.824,122.553 350.902,122.616 C350.98,122.678 351.043,122.741 351.105,122.787 C351.168,122.85 351.199,122.897 351.23,122.944 C351.308,123.069 351.371,123.225 351.402,123.381 C351.418,123.475 351.418,123.553 351.418,123.647 C351.418,123.709 351.418,123.787 351.418,123.85 C351.386,124.006 351.34,124.147 351.277,124.303 C351.215,124.444 351.121,124.569 351.027,124.694 C350.918,124.803 350.793,124.897 350.668,124.959 C350.527,125.037 350.371,125.084 350.215,125.1"/>
<path class="Harmony" d="M365.871,78.7296 C366.527,79.589 366.98,80.7296 367.324,82.1827 C367.668,83.6358 367.918,85.0421 368.168,86.4796 C368.418,87.9327 368.574,89.2921 368.621,90.4796 L364.824,90.089 L360.73,90.4796 L362.824,84.2296 L365.871,78.7296 M364.98,96.339 L365.98,96.339 L367.48,96.339 L367.871,96.339 L368.324,96.339 C368.371,96.339 368.527,96.3858 368.73,96.3858 C368.918,96.3858 369.074,96.3858 369.168,96.4327 C369.277,96.4796 369.371,96.5421 369.527,96.589 C369.668,96.6358 369.777,96.6827 369.871,96.7921 C369.98,96.8858 370.121,96.9327 370.23,97.0421 C370.48,97.2921 370.73,97.7921 370.918,98.4327 C371.121,99.0421 371.324,99.6827 371.48,100.433 C371.621,101.183 371.777,101.933 371.918,102.792 C372.074,103.636 372.277,104.386 372.48,105.089 C372.668,105.792 372.98,106.433 373.277,106.98 C373.574,107.542 373.918,107.886 374.371,108.089 C374.574,108.183 374.824,108.23 375.121,108.23 C375.371,108.23 375.683,108.183 375.98,108.089 C376.433,107.933 376.777,107.73 377.121,107.542 C377.48,107.339 377.73,107.136 377.933,106.886 C378.121,106.636 378.277,106.386 378.433,106.089 C378.574,105.792 378.683,105.589 378.73,105.339 C378.777,105.136 378.777,104.933 378.777,104.683 L378.777,104.433 C378.777,104.089 378.777,103.73 378.73,103.48 C378.683,103.23 378.574,102.933 378.48,102.542 C378.371,102.136 378.277,101.839 378.183,101.589 C378.074,101.339 378.027,100.98 377.871,100.542 C377.73,100.089 377.574,99.7921 377.527,99.589 C377.183,98.589 376.574,96.589 375.73,93.6358 C375.121,91.4796 374.621,89.6827 374.277,88.2921 C373.621,85.7296 373.074,83.6358 372.668,81.9796 C372.027,79.2296 371.527,77.3858 371.277,76.4327 C371.23,76.2296 371.168,75.9327 371.074,75.5265 C370.98,75.1358 370.918,74.7765 370.871,74.4796 C370.824,74.1827 370.668,73.8858 370.574,73.4796 C370.48,73.089 370.371,72.6827 370.277,72.3858 C370.168,72.089 369.98,71.7296 369.824,71.3858 C369.668,71.0265 369.48,70.7765 369.277,70.5265 C369.074,70.2765 368.918,70.089 368.668,69.8858 C368.418,69.6827 368.168,69.4796 367.871,69.4327 C367.621,69.3858 367.371,69.339 367.074,69.339 L366.871,69.339 C366.527,69.3858 366.121,69.4327 365.668,69.589 C365.324,69.7296 364.918,69.9327 364.574,70.1827 C364.23,70.4327 363.871,70.6358 363.621,70.8858 C363.371,71.1358 363.121,71.4796 362.871,71.8858 C362.621,72.2765 362.371,72.589 362.23,72.8858 C362.074,73.1827 361.871,73.589 361.668,74.089 C361.48,74.589 361.277,74.9796 361.168,75.2765 C361.074,75.589 360.98,75.9796 360.777,76.4796 C360.574,76.9796 360.418,77.339 360.371,77.589 C358.918,81.2296 357.48,84.6827 356.027,88.0421 C353.668,93.3858 352.277,96.6358 351.871,97.839 C351.824,98.0421 351.621,98.3858 351.371,98.9327 C351.121,99.4796 350.824,99.9796 350.574,100.48 C350.324,100.98 350.074,101.636 349.777,102.292 C349.48,102.933 349.23,103.589 349.074,104.136 C348.871,104.683 348.777,105.183 348.777,105.636 C348.824,106.089 348.918,106.386 349.168,106.636 C349.621,106.98 350.121,107.183 350.668,107.183 L351.027,107.183 C351.73,107.089 352.418,106.886 353.121,106.48 C353.824,106.089 354.324,105.636 354.574,105.183 C354.871,104.636 355.168,103.98 355.418,103.183 C355.668,102.386 355.918,101.636 356.074,100.98 C356.23,100.339 356.418,99.6358 356.777,98.8858 C357.121,98.1358 357.527,97.5421 357.98,97.0421 L360.668,96.1827 C360.824,96.1358 361.027,96.1827 361.371,96.1827 L362.824,96.1827 C362.98,96.1827 363.73,96.2296 364.98,96.339"/>
<path class="Harmony" d="M1025.34,97.1312 C1025.99,97.9905 1026.45,99.1312 1026.79,100.584 C1027.13,102.037 1027.38,103.444 1027.63,104.881 C1027.88,106.334 1028.04,107.694 1028.09,108.881 L1024.29,108.491 L1020.2,108.881 L1022.29,102.631 L1025.34,97.1312 M1024.45,114.741 L1025.45,114.741 L1026.95,114.741 L1027.34,114.741 L1027.79,114.741 C1027.84,114.741 1027.99,114.787 1028.2,114.787 C1028.38,114.787 1028.54,114.787 1028.63,114.834 C1028.74,114.881 1028.84,114.944 1028.99,114.991 C1029.13,115.037 1029.24,115.084 1029.34,115.194 C1029.45,115.287 1029.59,115.334 1029.7,115.444 C1029.95,115.694 1030.2,116.194 1030.38,116.834 C1030.59,117.444 1030.79,118.084 1030.95,118.834 C1031.09,119.584 1031.24,120.334 1031.38,121.194 C1031.54,122.037 1031.74,122.787 1031.95,123.491 C1032.13,124.194 1032.45,124.834 1032.74,125.381 C1033.04,125.944 1033.38,126.287 1033.84,126.491 C1034.04,126.584 1034.29,126.631 1034.59,126.631 C1034.84,126.631 1035.15,126.584 1035.45,126.491 C1035.9,126.334 1036.24,126.131 1036.59,125.944 C1036.95,125.741 1037.2,125.537 1037.4,125.287 C1037.59,125.037 1037.74,124.787 1037.9,124.491 C1038.04,124.194 1038.15,123.991 1038.2,123.741 C1038.24,123.537 1038.24,123.334 1038.24,123.084 L1038.24,122.834 C1038.24,122.491 1038.24,122.131 1038.2,121.881 C1038.15,121.631 1038.04,121.334 1037.95,120.944 C1037.84,120.537 1037.74,120.241 1037.65,119.991 C1037.54,119.741 1037.49,119.381 1037.34,118.944 C1037.2,118.491 1037.04,118.194 1036.99,117.991 C1036.65,116.991 1036.04,114.991 1035.2,112.037 C1034.59,109.881 1034.09,108.084 1033.74,106.694 C1033.09,104.131 1032.54,102.037 1032.13,100.381 C1031.49,97.6312 1030.99,95.7874 1030.74,94.8343 C1030.7,94.6312 1030.63,94.3343 1030.54,93.928 C1030.45,93.5374 1030.38,93.178 1030.34,92.8812 C1030.29,92.5843 1030.13,92.2874 1030.04,91.8812 C1029.95,91.4905 1029.84,91.0843 1029.74,90.7874 C1029.63,90.4905 1029.45,90.1312 1029.29,89.7874 C1029.13,89.428 1028.95,89.178 1028.74,88.928 C1028.54,88.678 1028.38,88.4905 1028.13,88.2874 C1027.88,88.0843 1027.63,87.8812 1027.34,87.8343 C1027.09,87.7874 1026.84,87.7405 1026.54,87.7405 L1026.34,87.7405 C1025.99,87.7874 1025.59,87.8343 1025.13,87.9905 C1024.79,88.1312 1024.38,88.3343 1024.04,88.5843 C1023.7,88.8343 1023.34,89.0374 1023.09,89.2874 C1022.84,89.5374 1022.59,89.8812 1022.34,90.2874 C1022.09,90.678 1021.84,90.9905 1021.7,91.2874 C1021.54,91.5843 1021.34,91.9905 1021.13,92.4905 C1020.95,92.9905 1020.74,93.3812 1020.63,93.678 C1020.54,93.9905 1020.45,94.3812 1020.24,94.8812 C1020.04,95.3812 1019.88,95.7405 1019.84,95.9905 C1018.38,99.6312 1016.95,103.084 1015.49,106.444 C1013.13,111.787 1011.74,115.037 1011.34,116.241 C1011.29,116.444 1011.09,116.787 1010.84,117.334 C1010.59,117.881 1010.29,118.381 1010.04,118.881 C1009.79,119.381 1009.54,120.037 1009.24,120.694 C1008.95,121.334 1008.7,121.991 1008.54,122.537 C1008.34,123.084 1008.24,123.584 1008.24,124.037 C1008.29,124.491 1008.38,124.787 1008.63,125.037 C1009.09,125.381 1009.59,125.584 1010.13,125.584 L1010.49,125.584 C1011.2,125.491 1011.88,125.287 1012.59,124.881 C1013.29,124.491 1013.79,124.037 1014.04,123.584 C1014.34,123.037 1014.63,122.381 1014.88,121.584 C1015.13,120.787 1015.38,120.037 1015.54,119.381 C1015.7,118.741 1015.88,118.037 1016.24,117.287 C1016.59,116.537 1016.99,115.944 1017.45,115.444 L1020.13,114.584 C1020.29,114.537 1020.49,114.584 1020.84,114.584 L1022.29,114.584 C1022.45,114.584 1023.2,114.631 1024.45,114.741"/>
<path class="Harmony" d="M1687.96,86.8343 C1686.01,87.0843 1684.16,87.5374 1682.35,88.178 C1680.56,88.8343 1678.91,89.7405 1677.31,90.7874 C1675.71,91.8343 1674.26,93.0374 1673.01,94.3812 C1671.76,95.7405 1670.71,97.2874 1669.81,99.0374 C1668.91,100.787 1668.31,102.631 1667.96,104.584 C1667.71,105.787 1667.6,107.037 1667.6,108.287 L1667.6,108.631 C1667.6,109.834 1667.66,110.991 1667.81,112.131 C1667.96,113.381 1668.26,114.631 1668.66,115.787 C1669.1,116.991 1669.6,118.131 1670.16,119.194 C1670.71,120.241 1671.41,121.194 1672.21,122.037 C1673.01,122.881 1674.01,123.584 1675.01,124.194 C1676.01,124.787 1677.16,125.241 1678.41,125.491 C1679.26,125.631 1680.1,125.741 1680.96,125.741 C1681.41,125.741 1681.91,125.741 1682.46,125.694 C1684.01,125.537 1685.46,125.194 1686.81,124.694 C1688.16,124.194 1689.41,123.584 1690.46,122.881 C1691.51,122.194 1692.56,121.287 1693.51,120.287 C1694.46,119.287 1695.37,118.194 1696.12,117.084 C1696.87,115.991 1697.56,114.741 1698.31,113.334 C1699.46,111.037 1700.01,109.084 1700.01,107.537 C1700.01,105.991 1699.46,104.787 1698.31,103.944 C1697.66,103.381 1696.56,103.037 1695.12,102.787 C1694.06,102.631 1693.01,102.537 1691.96,102.537 L1691.71,102.537 L1690.6,102.537 C1689.06,102.584 1687.6,102.834 1686.21,103.287 C1684.81,103.741 1683.85,104.287 1683.35,104.944 C1683.21,105.194 1683.06,105.381 1682.91,105.584 C1682.56,106.131 1682.35,106.631 1682.35,107.084 C1682.35,107.741 1682.81,108.194 1683.66,108.444 C1684.35,108.631 1685.71,108.741 1687.66,108.741 L1688.1,108.741 C1688.76,108.787 1689.26,108.787 1689.6,108.787 C1691.66,108.787 1692.91,109.037 1693.31,109.584 C1693.46,109.787 1693.62,110.084 1693.62,110.381 C1693.62,110.694 1693.56,110.991 1693.51,111.287 C1693.46,111.584 1693.31,111.944 1693.16,112.334 C1693.01,112.741 1692.85,113.037 1692.71,113.287 C1692.56,113.537 1692.41,113.881 1692.21,114.287 C1692.01,114.694 1691.85,114.881 1691.81,114.991 C1691.56,115.444 1691.41,115.787 1691.26,116.037 C1691.1,116.287 1690.91,116.537 1690.66,116.881 C1690.41,117.241 1690.1,117.537 1689.85,117.741 C1688.81,118.537 1687.66,119.084 1686.31,119.334 L1684.6,119.537 L1684.41,119.537 C1683.76,119.491 1683.06,119.444 1682.41,119.287 C1681.16,119.037 1679.91,118.584 1678.76,117.881 C1677.6,117.194 1676.6,116.334 1675.85,115.334 C1675.1,114.287 1674.41,113.037 1673.91,111.631 C1673.41,110.241 1673.1,108.787 1673.01,107.241 C1672.96,106.694 1672.96,106.194 1672.96,105.631 C1672.96,104.631 1673.01,103.631 1673.16,102.694 C1673.41,101.241 1673.85,99.8343 1674.56,98.5374 C1675.26,97.2405 1676.16,96.178 1677.26,95.3812 C1678.6,94.3343 1680.26,93.5843 1682.16,93.0843 C1683.21,92.7874 1684.26,92.6312 1685.26,92.6312 C1685.96,92.6312 1686.66,92.7405 1687.31,92.8812 C1687.85,93.0374 1688.41,93.2405 1689.06,93.5374 C1689.71,93.8343 1690.26,94.1312 1690.76,94.428 C1691.26,94.7405 1691.81,95.0374 1692.35,95.3343 C1692.91,95.6312 1693.46,95.8812 1693.96,95.9905 C1694.46,96.0843 1694.96,96.1312 1695.46,96.0843 C1695.96,96.0374 1696.46,95.7874 1696.96,95.3343 C1697.46,94.8812 1697.91,94.2874 1698.37,93.5374 C1698.62,93.0843 1698.76,92.6312 1698.76,92.178 C1698.76,91.8343 1698.66,91.5374 1698.51,91.178 C1698.12,90.428 1697.46,89.7874 1696.56,89.2405 C1695.66,88.678 1694.71,88.178 1693.62,87.7874 C1692.51,87.3812 1691.46,87.1312 1690.41,86.9905 C1689.66,86.8343 1689.06,86.7874 1688.56,86.7874 C1688.31,86.7874 1688.1,86.7874 1687.96,86.8343"/>
<path class="Harmony" d="M2347.43,86.8343 C2345.48,87.0843 2343.63,87.5374 2341.82,88.178 C2340.02,88.8343 2338.38,89.7405 2336.77,90.7874 C2335.18,91.8343 2333.73,93.0374 2332.48,94.3812 C2331.23,95.7405 2330.18,97.2874 2329.27,99.0374 C2328.38,100.787 2327.77,102.631 2327.43,104.584 C2327.18,105.787 2327.07,107.037 2327.07,108.287 L2327.07,108.631 C2327.07,109.834 2327.13,110.991 2327.27,112.131 C2327.43,113.381 2327.73,114.631 2328.13,115.787 C2328.57,116.991 2329.07,118.131 2329.63,119.194 C2330.18,120.241 2330.88,121.194 2331.68,122.037 C2332.48,122.881 2333.48,123.584 2334.48,124.194 C2335.48,124.787 2336.63,125.241 2337.88,125.491 C2338.73,125.631 2339.57,125.741 2340.43,125.741 C2340.88,125.741 2341.38,125.741 2341.93,125.694 C2343.48,125.537 2344.93,125.194 2346.27,124.694 C2347.63,124.194 2348.88,123.584 2349.93,122.881 C2350.98,122.194 2352.02,121.287 2352.98,120.287 C2353.93,119.287 2354.83,118.194 2355.58,117.084 C2356.33,115.991 2357.02,114.741 2357.77,113.334 C2358.93,111.037 2359.48,109.084 2359.48,107.537 C2359.48,105.991 2358.93,104.787 2357.77,103.944 C2357.13,103.381 2356.02,103.037 2354.58,102.787 C2353.52,102.631 2352.48,102.537 2351.43,102.537 L2351.18,102.537 L2350.07,102.537 C2348.52,102.584 2347.07,102.834 2345.68,103.287 C2344.27,103.741 2343.32,104.287 2342.82,104.944 C2342.68,105.194 2342.52,105.381 2342.38,105.584 C2342.02,106.131 2341.82,106.631 2341.82,107.084 C2341.82,107.741 2342.27,108.194 2343.13,108.444 C2343.82,108.631 2345.18,108.741 2347.13,108.741 L2347.57,108.741 C2348.23,108.787 2348.73,108.787 2349.07,108.787 C2351.13,108.787 2352.38,109.037 2352.77,109.584 C2352.93,109.787 2353.08,110.084 2353.08,110.381 C2353.08,110.694 2353.02,110.991 2352.98,111.287 C2352.93,111.584 2352.77,111.944 2352.63,112.334 C2352.48,112.741 2352.32,113.037 2352.18,113.287 C2352.02,113.537 2351.88,113.881 2351.68,114.287 C2351.48,114.694 2351.32,114.881 2351.27,114.991 C2351.02,115.444 2350.88,115.787 2350.73,116.037 C2350.57,116.287 2350.38,116.537 2350.13,116.881 C2349.88,117.241 2349.57,117.537 2349.32,117.741 C2348.27,118.537 2347.13,119.084 2345.77,119.334 L2344.07,119.537 L2343.88,119.537 C2343.23,119.491 2342.52,119.444 2341.88,119.287 C2340.63,119.037 2339.38,118.584 2338.23,117.881 C2337.07,117.194 2336.07,116.334 2335.32,115.334 C2334.57,114.287 2333.88,113.037 2333.38,111.631 C2332.88,110.241 2332.57,108.787 2332.48,107.241 C2332.43,106.694 2332.43,106.194 2332.43,105.631 C2332.43,104.631 2332.48,103.631 2332.63,102.694 C2332.88,101.241 2333.32,99.8343 2334.02,98.5374 C2334.73,97.2405 2335.63,96.178 2336.73,95.3812 C2338.07,94.3343 2339.73,93.5843 2341.63,93.0843 C2342.68,92.7874 2343.73,92.6312 2344.73,92.6312 C2345.43,92.6312 2346.13,92.7405 2346.77,92.8812 C2347.32,93.0374 2347.88,93.2405 2348.52,93.5374 C2349.18,93.8343 2349.73,94.1312 2350.23,94.428 C2350.73,94.7405 2351.27,95.0374 2351.82,95.3343 C2352.38,95.6312 2352.93,95.8812 2353.43,95.9905 C2353.93,96.0843 2354.43,96.1312 2354.93,96.0843 C2355.43,96.0374 2355.93,95.7874 2356.43,95.3343 C2356.93,94.8812 2357.38,94.2874 2357.83,93.5374 C2358.08,93.0843 2358.23,92.6312 2358.23,92.178 C2358.23,91.8343 2358.13,91.5374 2357.98,91.178 C2357.58,90.428 2356.93,89.7874 2356.02,89.2405 C2355.13,88.678 2354.18,88.178 2353.08,87.7874 C2351.98,87.3812 2350.93,87.1312 2349.88,86.9905 C2349.13,86.8343 2348.52,86.7874 2348.02,86.7874 C2347.77,86.7874 2347.57,86.7874 2347.43,86.8343"/>
<path class="Harmony" d="M186.97,407.171 C187.627,408.03 188.08,409.171 188.423,410.624 C188.767,412.077 189.017,413.483 189.267,414.921 C189.517,416.374 189.673,417.733 189.72,418.921 L185.923,418.53 L181.83,418.921 L183.923,412.671 L186.97,407.171 M186.08,424.78 L187.08,424.78 L188.58,424.78 L188.97,424.78 L189.423,424.78 C189.47,424.78 189.627,424.827 189.83,424.827 C190.017,424.827 190.173,424.827 190.267,424.874 C190.377,424.921 190.47,424.983 190.627,425.03 C190.767,425.077 190.877,425.124 190.97,425.233 C191.08,425.327 191.22,425.374 191.33,425.483 C191.58,425.733 191.83,426.233 192.017,426.874 C192.22,427.483 192.423,428.124 192.58,428.874 C192.72,429.624 192.877,430.374 193.017,431.233 C193.173,432.077 193.377,432.827 193.58,433.53 C193.767,434.233 194.08,434.874 194.377,435.421 C194.673,435.983 195.017,436.327 195.47,436.53 C195.673,436.624 195.923,436.671 196.22,436.671 C196.47,436.671 196.783,436.624 197.08,436.53 C197.533,436.374 197.877,436.171 198.22,435.983 C198.58,435.78 198.83,435.577 199.033,435.327 C199.22,435.077 199.377,434.827 199.533,434.53 C199.673,434.233 199.783,434.03 199.83,433.78 C199.877,433.577 199.877,433.374 199.877,433.124 L199.877,432.874 C199.877,432.53 199.877,432.171 199.83,431.921 C199.783,431.671 199.673,431.374 199.58,430.983 C199.47,430.577 199.377,430.28 199.283,430.03 C199.173,429.78 199.127,429.421 198.97,428.983 C198.83,428.53 198.673,428.233 198.627,428.03 C198.283,427.03 197.673,425.03 196.83,422.077 C196.22,419.921 195.72,418.124 195.377,416.733 C194.72,414.171 194.173,412.077 193.767,410.421 C193.127,407.671 192.627,405.827 192.377,404.874 C192.33,404.671 192.267,404.374 192.173,403.967 C192.08,403.577 192.017,403.217 191.97,402.921 C191.923,402.624 191.767,402.327 191.673,401.921 C191.58,401.53 191.47,401.124 191.377,400.827 C191.267,400.53 191.08,400.171 190.923,399.827 C190.767,399.467 190.58,399.217 190.377,398.967 C190.173,398.717 190.017,398.53 189.767,398.327 C189.517,398.124 189.267,397.921 188.97,397.874 C188.72,397.827 188.47,397.78 188.173,397.78 L187.97,397.78 C187.627,397.827 187.22,397.874 186.767,398.03 C186.423,398.171 186.017,398.374 185.673,398.624 C185.33,398.874 184.97,399.077 184.72,399.327 C184.47,399.577 184.22,399.921 183.97,400.327 C183.72,400.717 183.47,401.03 183.33,401.327 C183.173,401.624 182.97,402.03 182.767,402.53 C182.58,403.03 182.377,403.421 182.267,403.717 C182.173,404.03 182.08,404.421 181.877,404.921 C181.673,405.421 181.517,405.78 181.47,406.03 C180.017,409.671 178.58,413.124 177.127,416.483 C174.767,421.827 173.377,425.077 172.97,426.28 C172.923,426.483 172.72,426.827 172.47,427.374 C172.22,427.921 171.923,428.421 171.673,428.921 C171.423,429.421 171.173,430.077 170.877,430.733 C170.58,431.374 170.33,432.03 170.173,432.577 C169.97,433.124 169.877,433.624 169.877,434.077 C169.923,434.53 170.017,434.827 170.267,435.077 C170.72,435.421 171.22,435.624 171.767,435.624 L172.127,435.624 C172.83,435.53 173.517,435.327 174.22,434.921 C174.923,434.53 175.423,434.077 175.673,433.624 C175.97,433.077 176.267,432.421 176.517,431.624 C176.767,430.827 177.017,430.077 177.173,429.421 C177.33,428.78 177.517,428.077 177.877,427.327 C178.22,426.577 178.627,425.983 179.08,425.483 L181.767,424.624 C181.923,424.577 182.127,424.624 182.47,424.624 L183.923,424.624 C184.08,424.624 184.83,424.671 186.08,424.78"/>
<path class="Harmony" d="M880.593,407.171 C881.249,408.03 881.702,409.171 882.046,410.624 C882.389,412.077 882.639,413.483 882.889,414.921 C883.139,416.374 883.296,417.733 883.343,418.921 L879.546,418.53 L875.452,418.921 L877.546,412.671 L880.593,407.171 M879.702,424.78 L880.702,424.78 L882.202,424.78 L882.593,424.78 L883.046,424.78 C883.093,424.78 883.249,424.827 883.452,424.827 C883.639,424.827 883.796,424.827 883.889,424.874 C883.999,424.921 884.093,424.983 884.249,425.03 C884.389,425.077 884.499,425.124 884.593,425.233 C884.702,425.327 884.843,425.374 884.952,425.483 C885.202,425.733 885.452,426.233 885.639,426.874 C885.843,427.483 886.046,428.124 886.202,428.874 C886.343,429.624 886.499,430.374 886.639,431.233 C886.796,432.077 886.999,432.827 887.202,433.53 C887.389,434.233 887.702,434.874 887.999,435.421 C888.296,435.983 888.639,436.327 889.093,436.53 C889.296,436.624 889.546,436.671 889.843,436.671 C890.093,436.671 890.405,436.624 890.702,436.53 C891.155,436.374 891.499,436.171 891.843,435.983 C892.202,435.78 892.452,435.577 892.655,435.327 C892.843,435.077 892.999,434.827 893.155,434.53 C893.296,434.233 893.405,434.03 893.452,433.78 C893.499,433.577 893.499,433.374 893.499,433.124 L893.499,432.874 C893.499,432.53 893.499,432.171 893.452,431.921 C893.405,431.671 893.296,431.374 893.202,430.983 C893.093,430.577 892.999,430.28 892.905,430.03 C892.796,429.78 892.749,429.421 892.593,428.983 C892.452,428.53 892.296,428.233 892.249,428.03 C891.905,427.03 891.296,425.03 890.452,422.077 C889.843,419.921 889.343,418.124 888.999,416.733 C888.343,414.171 887.796,412.077 887.389,410.421 C886.749,407.671 886.249,405.827 885.999,404.874 C885.952,404.671 885.889,404.374 885.796,403.967 C885.702,403.577 885.639,403.217 885.593,402.921 C885.546,402.624 885.389,402.327 885.296,401.921 C885.202,401.53 885.093,401.124 884.999,400.827 C884.889,400.53 884.702,400.171 884.546,399.827 C884.389,399.467 884.202,399.217 883.999,398.967 C883.796,398.717 883.639,398.53 883.389,398.327 C883.139,398.124 882.889,397.921 882.593,397.874 C882.343,397.827 882.093,397.78 881.796,397.78 L881.593,397.78 C881.249,397.827 880.843,397.874 880.389,398.03 C880.046,398.171 879.639,398.374 879.296,398.624 C878.952,398.874 878.593,399.077 878.343,399.327 C878.093,399.577 877.843,399.921 877.593,400.327 C877.343,400.717 877.093,401.03 876.952,401.327 C876.796,401.624 876.593,402.03 876.389,402.53 C876.202,403.03 875.999,403.421 875.889,403.717 C875.796,404.03 875.702,404.421 875.499,404.921 C875.296,405.421 875.139,405.78 875.093,406.03 C873.639,409.671 872.202,413.124 870.749,416.483 C868.389,421.827 866.999,425.077 866.593,426.28 C866.546,426.483 866.343,426.827 866.093,427.374 C865.843,427.921 865.546,428.421 865.296,428.921 C865.046,429.421 864.796,430.077 864.499,430.733 C864.202,431.374 863.952,432.03 863.796,432.577 C863.593,433.124 863.499,433.624 863.499,434.077 C863.546,434.53 863.639,434.827 863.889,435.077 C864.343,435.421 864.843,435.624 865.389,435.624 L865.749,435.624 C866.452,435.53 867.139,435.327 867.843,434.921 C868.546,434.53 869.046,434.077 869.296,433.624 C869.593,433.077 869.889,432.421 870.139,431.624 C870.389,430.827 870.639,430.077 870.796,429.421 C870.952,428.78 871.139,428.077 871.499,427.327 C871.843,426.577 872.249,425.983 872.702,425.483 L875.389,424.624 C875.546,424.577 875.749,424.624 876.093,424.624 L877.546,424.624 C877.702,424.624 878.452,424.671 879.702,424.78"/>
<path class="Harmony" d="M1577.37,396.874 C1575.42,397.124 1573.57,397.577 1571.76,398.217 C1569.96,398.874 1568.32,399.78 1566.71,400.827 C1565.12,401.874 1563.67,403.077 1562.42,404.421 C1561.17,405.78 1560.12,407.327 1559.21,409.077 C1558.32,410.827 1557.71,412.671 1557.37,414.624 C1557.12,415.827 1557.01,417.077 1557.01,418.327 L1557.01,418.671 C1557.01,419.874 1557.07,421.03 1557.21,422.171 C1557.37,423.421 1557.67,424.671 1558.07,425.827 C1558.51,427.03 1559.01,428.171 1559.57,429.233 C1560.12,430.28 1560.82,431.233 1561.62,432.077 C1562.42,432.921 1563.42,433.624 1564.42,434.233 C1565.42,434.827 1566.57,435.28 1567.82,435.53 C1568.67,435.671 1569.51,435.78 1570.37,435.78 C1570.82,435.78 1571.32,435.78 1571.87,435.733 C1573.42,435.577 1574.87,435.233 1576.21,434.733 C1577.57,434.233 1578.82,433.624 1579.87,432.921 C1580.92,432.233 1581.96,431.327 1582.92,430.327 C1583.87,429.327 1584.78,428.233 1585.53,427.124 C1586.28,426.03 1586.96,424.78 1587.71,423.374 C1588.87,421.077 1589.42,419.124 1589.42,417.577 C1589.42,416.03 1588.87,414.827 1587.71,413.983 C1587.07,413.421 1585.96,413.077 1584.53,412.827 C1583.46,412.671 1582.42,412.577 1581.37,412.577 L1581.12,412.577 L1580.01,412.577 C1578.46,412.624 1577.01,412.874 1575.62,413.327 C1574.21,413.78 1573.26,414.327 1572.76,414.983 C1572.62,415.233 1572.46,415.421 1572.32,415.624 C1571.96,416.171 1571.76,416.671 1571.76,417.124 C1571.76,417.78 1572.21,418.233 1573.07,418.483 C1573.76,418.671 1575.12,418.78 1577.07,418.78 L1577.51,418.78 C1578.17,418.827 1578.67,418.827 1579.01,418.827 C1581.07,418.827 1582.32,419.077 1582.71,419.624 C1582.87,419.827 1583.03,420.124 1583.03,420.421 C1583.03,420.733 1582.96,421.03 1582.92,421.327 C1582.87,421.624 1582.71,421.983 1582.57,422.374 C1582.42,422.78 1582.26,423.077 1582.12,423.327 C1581.96,423.577 1581.82,423.921 1581.62,424.327 C1581.42,424.733 1581.26,424.921 1581.21,425.03 C1580.96,425.483 1580.82,425.827 1580.67,426.077 C1580.51,426.327 1580.32,426.577 1580.07,426.921 C1579.82,427.28 1579.51,427.577 1579.26,427.78 C1578.21,428.577 1577.07,429.124 1575.71,429.374 L1574.01,429.577 L1573.82,429.577 C1573.17,429.53 1572.46,429.483 1571.82,429.327 C1570.57,429.077 1569.32,428.624 1568.17,427.921 C1567.01,427.233 1566.01,426.374 1565.26,425.374 C1564.51,424.327 1563.82,423.077 1563.32,421.671 C1562.82,420.28 1562.51,418.827 1562.42,417.28 C1562.37,416.733 1562.37,416.233 1562.37,415.671 C1562.37,414.671 1562.42,413.671 1562.57,412.733 C1562.82,411.28 1563.26,409.874 1563.96,408.577 C1564.67,407.28 1565.57,406.217 1566.67,405.421 C1568.01,404.374 1569.67,403.624 1571.57,403.124 C1572.62,402.827 1573.67,402.671 1574.67,402.671 C1575.37,402.671 1576.07,402.78 1576.71,402.921 C1577.26,403.077 1577.82,403.28 1578.46,403.577 C1579.12,403.874 1579.67,404.171 1580.17,404.467 C1580.67,404.78 1581.21,405.077 1581.76,405.374 C1582.32,405.671 1582.87,405.921 1583.37,406.03 C1583.87,406.124 1584.37,406.171 1584.87,406.124 C1585.37,406.077 1585.87,405.827 1586.37,405.374 C1586.87,404.921 1587.32,404.327 1587.78,403.577 C1588.03,403.124 1588.17,402.671 1588.17,402.217 C1588.17,401.874 1588.07,401.577 1587.92,401.217 C1587.53,400.467 1586.87,399.827 1585.96,399.28 C1585.07,398.717 1584.12,398.217 1583.03,397.827 C1581.92,397.421 1580.87,397.171 1579.82,397.03 C1579.07,396.874 1578.46,396.827 1577.96,396.827 C1577.71,396.827 1577.51,396.827 1577.37,396.874"/>
<path class="Harmony" d="M2267.84,407.171 C2268.49,408.03 2268.95,409.171 2269.29,410.624 C2269.63,412.077 2269.88,413.483 2270.13,414.921 C2270.38,416.374 2270.54,417.733 2270.59,418.921 L2266.79,418.53 L2262.7,418.921 L2264.79,412.671 L2267.84,407.171 M2266.95,424.78 L2267.95,424.78 L2269.45,424.78 L2269.84,424.78 L2270.29,424.78 C2270.34,424.78 2270.49,424.827 2270.7,424.827 C2270.88,424.827 2271.04,424.827 2271.13,424.874 C2271.24,424.921 2271.34,424.983 2271.49,425.03 C2271.63,425.077 2271.74,425.124 2271.84,425.233 C2271.95,425.327 2272.09,425.374 2272.2,425.483 C2272.45,425.733 2272.7,426.233 2272.88,426.874 C2273.09,427.483 2273.29,428.124 2273.45,428.874 C2273.59,429.624 2273.74,430.374 2273.88,431.233 C2274.04,432.077 2274.24,432.827 2274.45,433.53 C2274.63,434.233 2274.95,434.874 2275.24,435.421 C2275.54,435.983 2275.88,436.327 2276.34,436.53 C2276.54,436.624 2276.79,436.671 2277.09,436.671 C2277.34,436.671 2277.65,436.624 2277.95,436.53 C2278.4,436.374 2278.74,436.171 2279.09,435.983 C2279.45,435.78 2279.7,435.577 2279.9,435.327 C2280.09,435.077 2280.24,434.827 2280.4,434.53 C2280.54,434.233 2280.65,434.03 2280.7,433.78 C2280.74,433.577 2280.74,433.374 2280.74,433.124 L2280.74,432.874 C2280.74,432.53 2280.74,432.171 2280.7,431.921 C2280.65,431.671 2280.54,431.374 2280.45,430.983 C2280.34,430.577 2280.24,430.28 2280.15,430.03 C2280.04,429.78 2279.99,429.421 2279.84,428.983 C2279.7,428.53 2279.54,428.233 2279.49,428.03 C2279.15,427.03 2278.54,425.03 2277.7,422.077 C2277.09,419.921 2276.59,418.124 2276.24,416.733 C2275.59,414.171 2275.04,412.077 2274.63,410.421 C2273.99,407.671 2273.49,405.827 2273.24,404.874 C2273.2,404.671 2273.13,404.374 2273.04,403.967 C2272.95,403.577 2272.88,403.217 2272.84,402.921 C2272.79,402.624 2272.63,402.327 2272.54,401.921 C2272.45,401.53 2272.34,401.124 2272.24,400.827 C2272.13,400.53 2271.95,400.171 2271.79,399.827 C2271.63,399.467 2271.45,399.217 2271.24,398.967 C2271.04,398.717 2270.88,398.53 2270.63,398.327 C2270.38,398.124 2270.13,397.921 2269.84,397.874 C2269.59,397.827 2269.34,397.78 2269.04,397.78 L2268.84,397.78 C2268.49,397.827 2268.09,397.874 2267.63,398.03 C2267.29,398.171 2266.88,398.374 2266.54,398.624 C2266.2,398.874 2265.84,399.077 2265.59,399.327 C2265.34,399.577 2265.09,399.921 2264.84,400.327 C2264.59,400.717 2264.34,401.03 2264.2,401.327 C2264.04,401.624 2263.84,402.03 2263.63,402.53 C2263.45,403.03 2263.24,403.421 2263.13,403.717 C2263.04,404.03 2262.95,404.421 2262.74,404.921 C2262.54,405.421 2262.38,405.78 2262.34,406.03 C2260.88,409.671 2259.45,413.124 2257.99,416.483 C2255.63,421.827 2254.24,425.077 2253.84,426.28 C2253.79,426.483 2253.59,426.827 2253.34,427.374 C2253.09,427.921 2252.79,428.421 2252.54,428.921 C2252.29,429.421 2252.04,430.077 2251.74,430.733 C2251.45,431.374 2251.2,432.03 2251.04,432.577 C2250.84,433.124 2250.74,433.624 2250.74,434.077 C2250.79,434.53 2250.88,434.827 2251.13,435.077 C2251.59,435.421 2252.09,435.624 2252.63,435.624 L2252.99,435.624 C2253.7,435.53 2254.38,435.327 2255.09,434.921 C2255.79,434.53 2256.29,434.077 2256.54,433.624 C2256.84,433.077 2257.13,432.421 2257.38,431.624 C2257.63,430.827 2257.88,430.077 2258.04,429.421 C2258.2,428.78 2258.38,428.077 2258.74,427.327 C2259.09,426.577 2259.49,425.983 2259.95,425.483 L2262.63,424.624 C2262.79,424.577 2262.99,424.624 2263.34,424.624 L2264.79,424.624 C2264.95,424.624 2265.7,424.671 2266.95,424.78"/>
<path class="Harmony" d="M186.97,724.753 C187.627,725.612 188.08,726.753 188.423,728.206 C188.767,729.659 189.017,731.065 189.267,732.503 C189.517,733.956 189.673,735.315 189.72,736.503 L185.923,736.112 L181.83,736.503 L183.923,730.253 L186.97,724.753 M186.08,742.362 L187.08,742.362 L188.58,742.362 L188.97,742.362 L189.423,742.362 C189.47,742.362 189.627,742.409 189.83,742.409 C190.017,742.409 190.173,742.409 190.267,742.456 C190.377,742.503 190.47,742.565 190.627,742.612 C190.767,742.659 190.877,742.706 190.97,742.815 C191.08,742.909 191.22,742.956 191.33,743.065 C191.58,743.315 191.83,743.815 192.017,744.456 C192.22,745.065 192.423,745.706 192.58,746.456 C192.72,747.206 192.877,747.956 193.017,748.815 C193.173,749.659 193.377,750.409 193.58,751.112 C193.767,751.815 194.08,752.456 194.377,753.003 C194.673,753.565 195.017,753.909 195.47,754.112 C195.673,754.206 195.923,754.253 196.22,754.253 C196.47,754.253 196.783,754.206 197.08,754.112 C197.533,753.956 197.877,753.753 198.22,753.565 C198.58,753.362 198.83,753.159 199.033,752.909 C199.22,752.659 199.377,752.409 199.533,752.112 C199.673,751.815 199.783,751.612 199.83,751.362 C199.877,751.159 199.877,750.956 199.877,750.706 L199.877,750.456 C199.877,750.112 199.877,749.753 199.83,749.503 C199.783,749.253 199.673,748.956 199.58,748.565 C199.47,748.159 199.377,747.862 199.283,747.612 C199.173,747.362 199.127,747.003 198.97,746.565 C198.83,746.112 198.673,745.815 198.627,745.612 C198.283,744.612 197.673,742.612 196.83,739.659 C196.22,737.503 195.72,735.706 195.377,734.315 C194.72,731.753 194.173,729.659 193.767,728.003 C193.127,725.253 192.627,723.409 192.377,722.456 C192.33,722.253 192.267,721.956 192.173,721.55 C192.08,721.159 192.017,720.8 191.97,720.503 C191.923,720.206 191.767,719.909 191.673,719.503 C191.58,719.112 191.47,718.706 191.377,718.409 C191.267,718.112 191.08,717.753 190.923,717.409 C190.767,717.05 190.58,716.8 190.377,716.55 C190.173,716.3 190.017,716.112 189.767,715.909 C189.517,715.706 189.267,715.503 188.97,715.456 C188.72,715.409 188.47,715.362 188.173,715.362 L187.97,715.362 C187.627,715.409 187.22,715.456 186.767,715.612 C186.423,715.753 186.017,715.956 185.673,716.206 C185.33,716.456 184.97,716.659 184.72,716.909 C184.47,717.159 184.22,717.503 183.97,717.909 C183.72,718.3 183.47,718.612 183.33,718.909 C183.173,719.206 182.97,719.612 182.767,720.112 C182.58,720.612 182.377,721.003 182.267,721.3 C182.173,721.612 182.08,722.003 181.877,722.503 C181.673,723.003 181.517,723.362 181.47,723.612 C180.017,727.253 178.58,730.706 177.127,734.065 C174.767,739.409 173.377,742.659 172.97,743.862 C172.923,744.065 172.72,744.409 172.47,744.956 C172.22,745.503 171.923,746.003 171.673,746.503 C171.423,747.003 171.173,747.659 170.877,748.315 C170.58,748.956 170.33,749.612 170.173,750.159 C169.97,750.706 169.877,751.206 169.877,751.659 C169.923,752.112 170.017,752.409 170.267,752.659 C170.72,753.003 171.22,753.206 171.767,753.206 L172.127,753.206 C172.83,753.112 173.517,752.909 174.22,752.503 C174.923,752.112 175.423,751.659 175.673,751.206 C175.97,750.659 176.267,750.003 176.517,749.206 C176.767,748.409 177.017,747.659 177.173,747.003 C177.33,746.362 177.517,745.659 177.877,744.909 C178.22,744.159 178.627,743.565 179.08,743.065 L181.767,742.206 C181.923,742.159 182.127,742.206 182.47,742.206 L183.923,742.206 C184.08,742.206 184.83,742.253 186.08,742.362"/>
<path class="Harmony" d="M891.163,724.753 C891.819,725.612 892.272,726.753 892.616,728.206 C892.959,729.659 893.209,731.065 893.459,732.503 C893.709,733.956 893.866,735.315 893.913,736.503 L890.116,736.112 L886.022,736.503 L888.116,730.253 L891.163,724.753 M890.272,742.362 L891.272,742.362 L892.772,742.362 L893.163,742.362 L893.616,742.362 C893.663,742.362 893.819,742.409 894.022,742.409 C894.209,742.409 894.366,742.409 894.459,742.456 C894.569,742.503 894.663,742.565 894.819,742.612 C894.959,742.659 895.069,742.706 895.163,742.815 C895.272,742.909 895.413,742.956 895.522,743.065 C895.772,743.315 896.022,743.815 896.209,744.456 C896.413,745.065 896.616,745.706 896.772,746.456 C896.913,747.206 897.069,747.956 897.209,748.815 C897.366,749.659 897.569,750.409 897.772,751.112 C897.959,751.815 898.272,752.456 898.569,753.003 C898.866,753.565 899.209,753.909 899.663,754.112 C899.866,754.206 900.116,754.253 900.413,754.253 C900.663,754.253 900.975,754.206 901.272,754.112 C901.725,753.956 902.069,753.753 902.413,753.565 C902.772,753.362 903.022,753.159 903.225,752.909 C903.413,752.659 903.569,752.409 903.725,752.112 C903.866,751.815 903.975,751.612 904.022,751.362 C904.069,751.159 904.069,750.956 904.069,750.706 L904.069,750.456 C904.069,750.112 904.069,749.753 904.022,749.503 C903.975,749.253 903.866,748.956 903.772,748.565 C903.663,748.159 903.569,747.862 903.475,747.612 C903.366,747.362 903.319,747.003 903.163,746.565 C903.022,746.112 902.866,745.815 902.819,745.612 C902.475,744.612 901.866,742.612 901.022,739.659 C900.413,737.503 899.913,735.706 899.569,734.315 C898.913,731.753 898.366,729.659 897.959,728.003 C897.319,725.253 896.819,723.409 896.569,722.456 C896.522,722.253 896.459,721.956 896.366,721.55 C896.272,721.159 896.209,720.8 896.163,720.503 C896.116,720.206 895.959,719.909 895.866,719.503 C895.772,719.112 895.663,718.706 895.569,718.409 C895.459,718.112 895.272,717.753 895.116,717.409 C894.959,717.05 894.772,716.8 894.569,716.55 C894.366,716.3 894.209,716.112 893.959,715.909 C893.709,715.706 893.459,715.503 893.163,715.456 C892.913,715.409 892.663,715.362 892.366,715.362 L892.163,715.362 C891.819,715.409 891.413,715.456 890.959,715.612 C890.616,715.753 890.209,715.956 889.866,716.206 C889.522,716.456 889.163,716.659 888.913,716.909 C888.663,717.159 888.413,717.503 888.163,717.909 C887.913,718.3 887.663,718.612 887.522,718.909 C887.366,719.206 887.163,719.612 886.959,720.112 C886.772,720.612 886.569,721.003 886.459,721.3 C886.366,721.612 886.272,722.003 886.069,722.503 C885.866,723.003 885.709,723.362 885.663,723.612 C884.209,727.253 882.772,730.706 881.319,734.065 C878.959,739.409 877.569,742.659 877.163,743.862 C877.116,744.065 876.913,744.409 876.663,744.956 C876.413,745.503 876.116,746.003 875.866,746.503 C875.616,747.003 875.366,747.659 875.069,748.315 C874.772,748.956 874.522,749.612 874.366,750.159 C874.163,750.706 874.069,751.206 874.069,751.659 C874.116,752.112 874.209,752.409 874.459,752.659 C874.913,753.003 875.413,753.206 875.959,753.206 L876.319,753.206 C877.022,753.112 877.709,752.909 878.413,752.503 C879.116,752.112 879.616,751.659 879.866,751.206 C880.163,750.659 880.459,750.003 880.709,749.206 C880.959,748.409 881.209,747.659 881.366,747.003 C881.522,746.362 881.709,745.659 882.069,744.909 C882.413,744.159 882.819,743.565 883.272,743.065 L885.959,742.206 C886.116,742.159 886.319,742.206 886.663,742.206 L888.116,742.206 C888.272,742.206 889.022,742.253 890.272,742.362"/>
<path class="Harmony" d="M1598.51,714.456 C1596.56,714.706 1594.71,715.159 1592.9,715.8 C1591.1,716.456 1589.46,717.362 1587.85,718.409 C1586.26,719.456 1584.81,720.659 1583.56,722.003 C1582.31,723.362 1581.26,724.909 1580.35,726.659 C1579.46,728.409 1578.85,730.253 1578.51,732.206 C1578.26,733.409 1578.15,734.659 1578.15,735.909 L1578.15,736.253 C1578.15,737.456 1578.21,738.612 1578.35,739.753 C1578.51,741.003 1578.81,742.253 1579.21,743.409 C1579.65,744.612 1580.15,745.753 1580.71,746.815 C1581.26,747.862 1581.96,748.815 1582.76,749.659 C1583.56,750.503 1584.56,751.206 1585.56,751.815 C1586.56,752.409 1587.71,752.862 1588.96,753.112 C1589.81,753.253 1590.65,753.362 1591.51,753.362 C1591.96,753.362 1592.46,753.362 1593.01,753.315 C1594.56,753.159 1596.01,752.815 1597.35,752.315 C1598.71,751.815 1599.96,751.206 1601.01,750.503 C1602.06,749.815 1603.1,748.909 1604.06,747.909 C1605.01,746.909 1605.92,745.815 1606.67,744.706 C1607.42,743.612 1608.1,742.362 1608.85,740.956 C1610.01,738.659 1610.56,736.706 1610.56,735.159 C1610.56,733.612 1610.01,732.409 1608.85,731.565 C1608.21,731.003 1607.1,730.659 1605.67,730.409 C1604.6,730.253 1603.56,730.159 1602.51,730.159 L1602.26,730.159 L1601.15,730.159 C1599.6,730.206 1598.15,730.456 1596.76,730.909 C1595.35,731.362 1594.4,731.909 1593.9,732.565 C1593.76,732.815 1593.6,733.003 1593.46,733.206 C1593.1,733.753 1592.9,734.253 1592.9,734.706 C1592.9,735.362 1593.35,735.815 1594.21,736.065 C1594.9,736.253 1596.26,736.362 1598.21,736.362 L1598.65,736.362 C1599.31,736.409 1599.81,736.409 1600.15,736.409 C1602.21,736.409 1603.46,736.659 1603.85,737.206 C1604.01,737.409 1604.17,737.706 1604.17,738.003 C1604.17,738.315 1604.1,738.612 1604.06,738.909 C1604.01,739.206 1603.85,739.565 1603.71,739.956 C1603.56,740.362 1603.4,740.659 1603.26,740.909 C1603.1,741.159 1602.96,741.503 1602.76,741.909 C1602.56,742.315 1602.4,742.503 1602.35,742.612 C1602.1,743.065 1601.96,743.409 1601.81,743.659 C1601.65,743.909 1601.46,744.159 1601.21,744.503 C1600.96,744.862 1600.65,745.159 1600.4,745.362 C1599.35,746.159 1598.21,746.706 1596.85,746.956 L1595.15,747.159 L1594.96,747.159 C1594.31,747.112 1593.6,747.065 1592.96,746.909 C1591.71,746.659 1590.46,746.206 1589.31,745.503 C1588.15,744.815 1587.15,743.956 1586.4,742.956 C1585.65,741.909 1584.96,740.659 1584.46,739.253 C1583.96,737.862 1583.65,736.409 1583.56,734.862 C1583.51,734.315 1583.51,733.815 1583.51,733.253 C1583.51,732.253 1583.56,731.253 1583.71,730.315 C1583.96,728.862 1584.4,727.456 1585.1,726.159 C1585.81,724.862 1586.71,723.8 1587.81,723.003 C1589.15,721.956 1590.81,721.206 1592.71,720.706 C1593.76,720.409 1594.81,720.253 1595.81,720.253 C1596.51,720.253 1597.21,720.362 1597.85,720.503 C1598.4,720.659 1598.96,720.862 1599.6,721.159 C1600.26,721.456 1600.81,721.753 1601.31,722.05 C1601.81,722.362 1602.35,722.659 1602.9,722.956 C1603.46,723.253 1604.01,723.503 1604.51,723.612 C1605.01,723.706 1605.51,723.753 1606.01,723.706 C1606.51,723.659 1607.01,723.409 1607.51,722.956 C1608.01,722.503 1608.46,721.909 1608.92,721.159 C1609.17,720.706 1609.31,720.253 1609.31,719.8 C1609.31,719.456 1609.21,719.159 1609.06,718.8 C1608.67,718.05 1608.01,717.409 1607.1,716.862 C1606.21,716.3 1605.26,715.8 1604.17,715.409 C1603.06,715.003 1602.01,714.753 1600.96,714.612 C1600.21,714.456 1599.6,714.409 1599.1,714.409 C1598.85,714.409 1598.65,714.409 1598.51,714.456"/>
<path class="Harmony" d="M2291.7,714.253 C2291.45,714.3 2291.05,714.362 2290.41,714.409 C2289.75,714.456 2289.25,714.55 2288.91,714.612 C2288.55,714.659 2288.05,714.706 2287.45,714.8 C2286.84,714.909 2286.41,715.05 2286,715.206 C2285.59,715.362 2285.16,715.55 2284.75,715.8 C2284.34,716.05 2284,716.3 2283.75,716.659 C2283.41,717.003 2283.16,717.409 2282.95,717.8 C2282.75,718.206 2282.59,718.706 2282.55,719.206 C2282.5,719.55 2282.5,719.909 2282.5,720.253 L2282.5,720.55 C2282.55,720.909 2282.55,721.409 2282.59,722.003 C2282.66,722.612 2282.66,723.112 2282.66,723.456 C2282.66,729.159 2282.8,734.753 2283.05,740.315 C2283.09,740.612 2283.09,740.909 2283.09,741.253 C2283.05,742.315 2283,743.706 2282.91,745.362 C2282.75,747.315 2282.66,748.753 2282.66,749.706 L2282.66,750.003 L2282.66,750.862 C2282.66,751.112 2282.75,751.362 2282.8,751.659 C2282.84,751.956 2282.95,752.206 2283.09,752.362 C2283.25,752.503 2283.41,752.659 2283.66,752.815 C2283.84,752.909 2284.09,752.956 2284.41,752.956 L2284.55,752.956 C2286.3,752.909 2288.05,752.565 2289.8,751.909 C2291.55,751.253 2293.2,750.456 2294.75,749.409 C2296.3,748.362 2297.75,747.112 2299.16,745.659 C2300.55,744.206 2301.75,742.706 2302.75,741.112 C2303.75,739.503 2304.59,737.862 2305.25,736.112 C2305.91,734.362 2306.25,732.612 2306.34,730.956 C2306.41,730.612 2306.41,730.206 2306.41,729.862 C2306.41,728.909 2306.3,727.909 2306.09,726.909 C2305.84,725.503 2305.45,724.112 2304.91,722.8 C2304.34,721.503 2303.66,720.3 2302.75,719.159 C2301.84,718.003 2300.84,717.05 2299.75,716.253 C2298.66,715.456 2297.45,714.862 2296.05,714.503 C2295.16,714.253 2294.2,714.159 2293.25,714.159 C2292.75,714.159 2292.25,714.206 2291.7,714.253 M2288.59,746.565 C2288.59,745.112 2288.66,743.003 2288.7,740.315 C2288.75,738.159 2288.8,736.112 2288.8,734.253 C2288.8,733.815 2288.75,733.362 2288.75,732.909 C2288.75,730.706 2288.7,728.565 2288.59,726.55 C2288.59,726.3 2288.55,725.862 2288.45,725.112 C2288.34,724.362 2288.2,723.659 2288.16,723.003 C2288.09,722.706 2288.09,722.409 2288.09,722.112 C2288.09,721.753 2288.09,721.456 2288.16,721.112 C2288.25,720.456 2288.45,719.956 2288.8,719.706 C2289.25,719.362 2289.75,719.206 2290.3,719.206 C2290.45,719.253 2290.59,719.253 2290.75,719.253 C2291.5,719.362 2292.3,719.612 2293.16,720.05 C2294,720.503 2294.8,721.112 2295.55,721.706 C2296.3,722.3 2297,722.909 2297.55,723.503 C2298.09,724.112 2298.55,724.55 2298.8,725.003 C2299.59,726.3 2300.16,727.753 2300.45,729.362 C2300.59,730.253 2300.7,731.159 2300.7,732.065 C2300.7,732.706 2300.66,733.362 2300.59,734.003 C2300.34,735.565 2299.91,737.065 2299.25,738.503 C2298.59,739.956 2297.75,741.253 2296.75,742.409 C2295.7,743.565 2294.5,744.456 2293.09,745.206 C2291.7,745.956 2290.2,746.409 2288.59,746.565"/>
<path class="Harmony" d="M186.97,1034.79 C187.627,1035.65 188.08,1036.79 188.423,1038.25 C188.767,1039.7 189.017,1041.1 189.267,1042.54 C189.517,1044 189.673,1045.35 189.72,1046.54 L185.923,1046.15 L181.83,1046.54 L183.923,1040.29 L186.97,1034.79 M186.08,1052.4 L187.08,1052.4 L188.58,1052.4 L188.97,1052.4 L189.423,1052.4 C189.47,1052.4 189.627,1052.45 189.83,1052.45 C190.017,1052.45 190.173,1052.45 190.267,1052.5 C190.377,1052.54 190.47,1052.6 190.627,1052.65 C190.767,1052.7 190.877,1052.75 190.97,1052.85 C191.08,1052.95 191.22,1053 191.33,1053.1 C191.58,1053.35 191.83,1053.85 192.017,1054.5 C192.22,1055.1 192.423,1055.75 192.58,1056.5 C192.72,1057.25 192.877,1058 193.017,1058.85 C193.173,1059.7 193.377,1060.45 193.58,1061.15 C193.767,1061.85 194.08,1062.5 194.377,1063.04 C194.673,1063.6 195.017,1063.95 195.47,1064.15 C195.673,1064.25 195.923,1064.29 196.22,1064.29 C196.47,1064.29 196.783,1064.25 197.08,1064.15 C197.533,1064 197.877,1063.79 198.22,1063.6 C198.58,1063.4 198.83,1063.2 199.033,1062.95 C199.22,1062.7 199.377,1062.45 199.533,1062.15 C199.673,1061.85 199.783,1061.65 199.83,1061.4 C199.877,1061.2 199.877,1061 199.877,1060.75 L199.877,1060.5 C199.877,1060.15 199.877,1059.79 199.83,1059.54 C199.783,1059.29 199.673,1059 199.58,1058.6 C199.47,1058.2 199.377,1057.9 199.283,1057.65 C199.173,1057.4 199.127,1057.04 198.97,1056.6 C198.83,1056.15 198.673,1055.85 198.627,1055.65 C198.283,1054.65 197.673,1052.65 196.83,1049.7 C196.22,1047.54 195.72,1045.75 195.377,1044.35 C194.72,1041.79 194.173,1039.7 193.767,1038.04 C193.127,1035.29 192.627,1033.45 192.377,1032.5 C192.33,1032.29 192.267,1032 192.173,1031.59 C192.08,1031.2 192.017,1030.84 191.97,1030.54 C191.923,1030.25 191.767,1029.95 191.673,1029.54 C191.58,1029.15 191.47,1028.75 191.377,1028.45 C191.267,1028.15 191.08,1027.79 190.923,1027.45 C190.767,1027.09 190.58,1026.84 190.377,1026.59 C190.173,1026.34 190.017,1026.15 189.767,1025.95 C189.517,1025.75 189.267,1025.54 188.97,1025.5 C188.72,1025.45 188.47,1025.4 188.173,1025.4 L187.97,1025.4 C187.627,1025.45 187.22,1025.5 186.767,1025.65 C186.423,1025.79 186.017,1026 185.673,1026.25 C185.33,1026.5 184.97,1026.7 184.72,1026.95 C184.47,1027.2 184.22,1027.54 183.97,1027.95 C183.72,1028.34 183.47,1028.65 183.33,1028.95 C183.173,1029.25 182.97,1029.65 182.767,1030.15 C182.58,1030.65 182.377,1031.04 182.267,1031.34 C182.173,1031.65 182.08,1032.04 181.877,1032.54 C181.673,1033.04 181.517,1033.4 181.47,1033.65 C180.017,1037.29 178.58,1040.75 177.127,1044.1 C174.767,1049.45 173.377,1052.7 172.97,1053.9 C172.923,1054.1 172.72,1054.45 172.47,1055 C172.22,1055.54 171.923,1056.04 171.673,1056.54 C171.423,1057.04 171.173,1057.7 170.877,1058.35 C170.58,1059 170.33,1059.65 170.173,1060.2 C169.97,1060.75 169.877,1061.25 169.877,1061.7 C169.923,1062.15 170.017,1062.45 170.267,1062.7 C170.72,1063.04 171.22,1063.25 171.767,1063.25 L172.127,1063.25 C172.83,1063.15 173.517,1062.95 174.22,1062.54 C174.923,1062.15 175.423,1061.7 175.673,1061.25 C175.97,1060.7 176.267,1060.04 176.517,1059.25 C176.767,1058.45 177.017,1057.7 177.173,1057.04 C177.33,1056.4 177.517,1055.7 177.877,1054.95 C178.22,1054.2 178.627,1053.6 179.08,1053.1 L181.767,1052.25 C181.923,1052.2 182.127,1052.25 182.47,1052.25 L183.923,1052.25 C184.08,1052.25 184.83,1052.29 186.08,1052.4"/>
<path class="Harmony" d="M868.501,1034.79 C869.157,1035.65 869.61,1036.79 869.954,1038.25 C870.298,1039.7 870.548,1041.1 870.798,1042.54 C871.048,1044 871.204,1045.35 871.251,1046.54 L867.454,1046.15 L863.36,1046.54 L865.454,1040.29 L868.501,1034.79 M867.61,1052.4 L868.61,1052.4 L870.11,1052.4 L870.501,1052.4 L870.954,1052.4 C871.001,1052.4 871.157,1052.45 871.36,1052.45 C871.548,1052.45 871.704,1052.45 871.798,1052.5 C871.907,1052.54 872.001,1052.6 872.157,1052.65 C872.298,1052.7 872.407,1052.75 872.501,1052.85 C872.61,1052.95 872.751,1053 872.86,1053.1 C873.11,1053.35 873.36,1053.85 873.548,1054.5 C873.751,1055.1 873.954,1055.75 874.11,1056.5 C874.251,1057.25 874.407,1058 874.548,1058.85 C874.704,1059.7 874.907,1060.45 875.11,1061.15 C875.298,1061.85 875.61,1062.5 875.907,1063.04 C876.204,1063.6 876.548,1063.95 877.001,1064.15 C877.204,1064.25 877.454,1064.29 877.751,1064.29 C878.001,1064.29 878.314,1064.25 878.61,1064.15 C879.064,1064 879.407,1063.79 879.751,1063.6 C880.11,1063.4 880.36,1063.2 880.564,1062.95 C880.751,1062.7 880.907,1062.45 881.064,1062.15 C881.204,1061.85 881.314,1061.65 881.36,1061.4 C881.407,1061.2 881.407,1061 881.407,1060.75 L881.407,1060.5 C881.407,1060.15 881.407,1059.79 881.36,1059.54 C881.314,1059.29 881.204,1059 881.11,1058.6 C881.001,1058.2 880.907,1057.9 880.814,1057.65 C880.704,1057.4 880.657,1057.04 880.501,1056.6 C880.36,1056.15 880.204,1055.85 880.157,1055.65 C879.814,1054.65 879.204,1052.65 878.36,1049.7 C877.751,1047.54 877.251,1045.75 876.907,1044.35 C876.251,1041.79 875.704,1039.7 875.298,1038.04 C874.657,1035.29 874.157,1033.45 873.907,1032.5 C873.86,1032.29 873.798,1032 873.704,1031.59 C873.61,1031.2 873.548,1030.84 873.501,1030.54 C873.454,1030.25 873.298,1029.95 873.204,1029.54 C873.11,1029.15 873.001,1028.75 872.907,1028.45 C872.798,1028.15 872.61,1027.79 872.454,1027.45 C872.298,1027.09 872.11,1026.84 871.907,1026.59 C871.704,1026.34 871.548,1026.15 871.298,1025.95 C871.048,1025.75 870.798,1025.54 870.501,1025.5 C870.251,1025.45 870.001,1025.4 869.704,1025.4 L869.501,1025.4 C869.157,1025.45 868.751,1025.5 868.298,1025.65 C867.954,1025.79 867.548,1026 867.204,1026.25 C866.86,1026.5 866.501,1026.7 866.251,1026.95 C866.001,1027.2 865.751,1027.54 865.501,1027.95 C865.251,1028.34 865.001,1028.65 864.86,1028.95 C864.704,1029.25 864.501,1029.65 864.298,1030.15 C864.11,1030.65 863.907,1031.04 863.798,1031.34 C863.704,1031.65 863.61,1032.04 863.407,1032.54 C863.204,1033.04 863.048,1033.4 863.001,1033.65 C861.548,1037.29 860.11,1040.75 858.657,1044.1 C856.298,1049.45 854.907,1052.7 854.501,1053.9 C854.454,1054.1 854.251,1054.45 854.001,1055 C853.751,1055.54 853.454,1056.04 853.204,1056.54 C852.954,1057.04 852.704,1057.7 852.407,1058.35 C852.11,1059 851.86,1059.65 851.704,1060.2 C851.501,1060.75 851.407,1061.25 851.407,1061.7 C851.454,1062.15 851.548,1062.45 851.798,1062.7 C852.251,1063.04 852.751,1063.25 853.298,1063.25 L853.657,1063.25 C854.36,1063.15 855.048,1062.95 855.751,1062.54 C856.454,1062.15 856.954,1061.7 857.204,1061.25 C857.501,1060.7 857.798,1060.04 858.048,1059.25 C858.298,1058.45 858.548,1057.7 858.704,1057.04 C858.86,1056.4 859.048,1055.7 859.407,1054.95 C859.751,1054.2 860.157,1053.6 860.61,1053.1 L863.298,1052.25 C863.454,1052.2 863.657,1052.25 864.001,1052.25 L865.454,1052.25 C865.61,1052.25 866.36,1052.29 867.61,1052.4"/>
<path class="Harmony" d="M1569.31,1024.5 C1567.36,1024.75 1565.51,1025.2 1563.7,1025.84 C1561.9,1026.5 1560.26,1027.4 1558.65,1028.45 C1557.06,1029.5 1555.61,1030.7 1554.36,1032.04 C1553.11,1033.4 1552.06,1034.95 1551.15,1036.7 C1550.26,1038.45 1549.65,1040.29 1549.31,1042.25 C1549.06,1043.45 1548.95,1044.7 1548.95,1045.95 L1548.95,1046.29 C1548.95,1047.5 1549.01,1048.65 1549.15,1049.79 C1549.31,1051.04 1549.61,1052.29 1550.01,1053.45 C1550.45,1054.65 1550.95,1055.79 1551.51,1056.85 C1552.06,1057.9 1552.76,1058.85 1553.56,1059.7 C1554.36,1060.54 1555.36,1061.25 1556.36,1061.85 C1557.36,1062.45 1558.51,1062.9 1559.76,1063.15 C1560.61,1063.29 1561.45,1063.4 1562.31,1063.4 C1562.76,1063.4 1563.26,1063.4 1563.81,1063.35 C1565.36,1063.2 1566.81,1062.85 1568.15,1062.35 C1569.51,1061.85 1570.76,1061.25 1571.81,1060.54 C1572.86,1059.85 1573.9,1058.95 1574.86,1057.95 C1575.81,1056.95 1576.72,1055.85 1577.47,1054.75 C1578.22,1053.65 1578.9,1052.4 1579.65,1051 C1580.81,1048.7 1581.36,1046.75 1581.36,1045.2 C1581.36,1043.65 1580.81,1042.45 1579.65,1041.6 C1579.01,1041.04 1577.9,1040.7 1576.47,1040.45 C1575.4,1040.29 1574.36,1040.2 1573.31,1040.2 L1573.06,1040.2 L1571.95,1040.2 C1570.4,1040.25 1568.95,1040.5 1567.56,1040.95 C1566.15,1041.4 1565.2,1041.95 1564.7,1042.6 C1564.56,1042.85 1564.4,1043.04 1564.26,1043.25 C1563.9,1043.79 1563.7,1044.29 1563.7,1044.75 C1563.7,1045.4 1564.15,1045.85 1565.01,1046.1 C1565.7,1046.29 1567.06,1046.4 1569.01,1046.4 L1569.45,1046.4 C1570.11,1046.45 1570.61,1046.45 1570.95,1046.45 C1573.01,1046.45 1574.26,1046.7 1574.65,1047.25 C1574.81,1047.45 1574.97,1047.75 1574.97,1048.04 C1574.97,1048.35 1574.9,1048.65 1574.86,1048.95 C1574.81,1049.25 1574.65,1049.6 1574.51,1050 C1574.36,1050.4 1574.2,1050.7 1574.06,1050.95 C1573.9,1051.2 1573.76,1051.54 1573.56,1051.95 C1573.36,1052.35 1573.2,1052.54 1573.15,1052.65 C1572.9,1053.1 1572.76,1053.45 1572.61,1053.7 C1572.45,1053.95 1572.26,1054.2 1572.01,1054.54 C1571.76,1054.9 1571.45,1055.2 1571.2,1055.4 C1570.15,1056.2 1569.01,1056.75 1567.65,1057 L1565.95,1057.2 L1565.76,1057.2 C1565.11,1057.15 1564.4,1057.1 1563.76,1056.95 C1562.51,1056.7 1561.26,1056.25 1560.11,1055.54 C1558.95,1054.85 1557.95,1054 1557.2,1053 C1556.45,1051.95 1555.76,1050.7 1555.26,1049.29 C1554.76,1047.9 1554.45,1046.45 1554.36,1044.9 C1554.31,1044.35 1554.31,1043.85 1554.31,1043.29 C1554.31,1042.29 1554.36,1041.29 1554.51,1040.35 C1554.76,1038.9 1555.2,1037.5 1555.9,1036.2 C1556.61,1034.9 1557.51,1033.84 1558.61,1033.04 C1559.95,1032 1561.61,1031.25 1563.51,1030.75 C1564.56,1030.45 1565.61,1030.29 1566.61,1030.29 C1567.31,1030.29 1568.01,1030.4 1568.65,1030.54 C1569.2,1030.7 1569.76,1030.9 1570.4,1031.2 C1571.06,1031.5 1571.61,1031.79 1572.11,1032.09 C1572.61,1032.4 1573.15,1032.7 1573.7,1033 C1574.26,1033.29 1574.81,1033.54 1575.31,1033.65 C1575.81,1033.75 1576.31,1033.79 1576.81,1033.75 C1577.31,1033.7 1577.81,1033.45 1578.31,1033 C1578.81,1032.54 1579.26,1031.95 1579.72,1031.2 C1579.97,1030.75 1580.11,1030.29 1580.11,1029.84 C1580.11,1029.5 1580.01,1029.2 1579.86,1028.84 C1579.47,1028.09 1578.81,1027.45 1577.9,1026.9 C1577.01,1026.34 1576.06,1025.84 1574.97,1025.45 C1573.86,1025.04 1572.81,1024.79 1571.76,1024.65 C1571.01,1024.5 1570.4,1024.45 1569.9,1024.45 C1569.65,1024.45 1569.45,1024.45 1569.31,1024.5"/>
<path class="Harmony" d="M2263.81,1034.79 C2264.46,1035.65 2264.92,1036.79 2265.26,1038.25 C2265.6,1039.7 2265.85,1041.1 2266.1,1042.54 C2266.35,1044 2266.51,1045.35 2266.56,1046.54 L2262.76,1046.15 L2258.67,1046.54 L2260.76,1040.29 L2263.81,1034.79 M2262.92,1052.4 L2263.92,1052.4 L2265.42,1052.4 L2265.81,1052.4 L2266.26,1052.4 C2266.31,1052.4 2266.46,1052.45 2266.67,1052.45 C2266.85,1052.45 2267.01,1052.45 2267.1,1052.5 C2267.21,1052.54 2267.31,1052.6 2267.46,1052.65 C2267.6,1052.7 2267.71,1052.75 2267.81,1052.85 C2267.92,1052.95 2268.06,1053 2268.17,1053.1 C2268.42,1053.35 2268.67,1053.85 2268.85,1054.5 C2269.06,1055.1 2269.26,1055.75 2269.42,1056.5 C2269.56,1057.25 2269.71,1058 2269.85,1058.85 C2270.01,1059.7 2270.21,1060.45 2270.42,1061.15 C2270.6,1061.85 2270.92,1062.5 2271.21,1063.04 C2271.51,1063.6 2271.85,1063.95 2272.31,1064.15 C2272.51,1064.25 2272.76,1064.29 2273.06,1064.29 C2273.31,1064.29 2273.62,1064.25 2273.92,1064.15 C2274.37,1064 2274.71,1063.79 2275.06,1063.6 C2275.42,1063.4 2275.67,1063.2 2275.87,1062.95 C2276.06,1062.7 2276.21,1062.45 2276.37,1062.15 C2276.51,1061.85 2276.62,1061.65 2276.67,1061.4 C2276.71,1061.2 2276.71,1061 2276.71,1060.75 L2276.71,1060.5 C2276.71,1060.15 2276.71,1059.79 2276.67,1059.54 C2276.62,1059.29 2276.51,1059 2276.42,1058.6 C2276.31,1058.2 2276.21,1057.9 2276.12,1057.65 C2276.01,1057.4 2275.96,1057.04 2275.81,1056.6 C2275.67,1056.15 2275.51,1055.85 2275.46,1055.65 C2275.12,1054.65 2274.51,1052.65 2273.67,1049.7 C2273.06,1047.54 2272.56,1045.75 2272.21,1044.35 C2271.56,1041.79 2271.01,1039.7 2270.6,1038.04 C2269.96,1035.29 2269.46,1033.45 2269.21,1032.5 C2269.17,1032.29 2269.1,1032 2269.01,1031.59 C2268.92,1031.2 2268.85,1030.84 2268.81,1030.54 C2268.76,1030.25 2268.6,1029.95 2268.51,1029.54 C2268.42,1029.15 2268.31,1028.75 2268.21,1028.45 C2268.1,1028.15 2267.92,1027.79 2267.76,1027.45 C2267.6,1027.09 2267.42,1026.84 2267.21,1026.59 C2267.01,1026.34 2266.85,1026.15 2266.6,1025.95 C2266.35,1025.75 2266.1,1025.54 2265.81,1025.5 C2265.56,1025.45 2265.31,1025.4 2265.01,1025.4 L2264.81,1025.4 C2264.46,1025.45 2264.06,1025.5 2263.6,1025.65 C2263.26,1025.79 2262.85,1026 2262.51,1026.25 C2262.17,1026.5 2261.81,1026.7 2261.56,1026.95 C2261.31,1027.2 2261.06,1027.54 2260.81,1027.95 C2260.56,1028.34 2260.31,1028.65 2260.17,1028.95 C2260.01,1029.25 2259.81,1029.65 2259.6,1030.15 C2259.42,1030.65 2259.21,1031.04 2259.1,1031.34 C2259.01,1031.65 2258.92,1032.04 2258.71,1032.54 C2258.51,1033.04 2258.35,1033.4 2258.31,1033.65 C2256.85,1037.29 2255.42,1040.75 2253.96,1044.1 C2251.6,1049.45 2250.21,1052.7 2249.81,1053.9 C2249.76,1054.1 2249.56,1054.45 2249.31,1055 C2249.06,1055.54 2248.76,1056.04 2248.51,1056.54 C2248.26,1057.04 2248.01,1057.7 2247.71,1058.35 C2247.42,1059 2247.17,1059.65 2247.01,1060.2 C2246.81,1060.75 2246.71,1061.25 2246.71,1061.7 C2246.76,1062.15 2246.85,1062.45 2247.1,1062.7 C2247.56,1063.04 2248.06,1063.25 2248.6,1063.25 L2248.96,1063.25 C2249.67,1063.15 2250.35,1062.95 2251.06,1062.54 C2251.76,1062.15 2252.26,1061.7 2252.51,1061.25 C2252.81,1060.7 2253.1,1060.04 2253.35,1059.25 C2253.6,1058.45 2253.85,1057.7 2254.01,1057.04 C2254.17,1056.4 2254.35,1055.7 2254.71,1054.95 C2255.06,1054.2 2255.46,1053.6 2255.92,1053.1 L2258.6,1052.25 C2258.76,1052.2 2258.96,1052.25 2259.31,1052.25 L2260.76,1052.25 C2260.92,1052.25 2261.67,1052.29 2262.92,1052.4"/>
</svg>
