<?xml version="1.0" encoding="UTF-8" standalone="no"?>
<svg width="2976.38px" height="1417.32px" viewBox="0 0 2976.38 1417.32"
 xmlns="http://www.w3.org/2000/svg" xmlns:xlink="http://www.w3.org/1999/xlink" version="1.2" baseProfile="tiny">
<title>Le_Grand_Chain</title>
<desc>Generated by MuseScore 3.6.2</desc>
<polyline class="StaffLines" fill="none" stroke="#000000" stroke-width="2.73" stroke-linejoin="bevel" points="138.189,187.795 2933.86,187.795"/>
<polyline class="StaffLines" fill="none" stroke="#000000" stroke-width="2.73" stroke-linejoin="bevel" points="138.189,212.598 2933.86,212.598"/>
<polyline class="StaffLines" fill="none" stroke="#000000" stroke-width="2.73" stroke-linejoin="bevel" points="138.189,237.402 2933.86,237.402"/>
<polyline class="StaffLines" fill="none" stroke="#000000" stroke-width="2.73" stroke-linejoin="bevel" points="138.189,262.205 2933.86,262.205"/>
<polyline class="StaffLines" fill="none" stroke="#000000" stroke-width="2.73" stroke-linejoin="bevel" points="138.189,287.008 2933.86,287.008"/>
<polyline class="StaffLines" fill="none" stroke="#000000" stroke-width="2.73" stroke-linejoin="bevel" points="14.1732,497.835 2933.86,497.835"/>
<polyline class="StaffLines" fill="none" stroke="#000000" stroke-width="2.73" stroke-linejoin="bevel" points="14.1732,522.638 2933.86,522.638"/>
<polyline class="StaffLines" fill="none" stroke="#000000" stroke-width="2.73" stroke-linejoin="bevel" points="14.1732,547.441 2933.86,547.441"/>
<polyline class="StaffLines" fill="none" stroke="#000000" stroke-width="2.73" stroke-linejoin="bevel" points="14.1732,572.244 2933.86,572.244"/>
<polyline class="StaffLines" fill="none" stroke="#000000" stroke-width="2.73" stroke-linejoin="bevel" points="14.1732,597.047 2933.86,597.047"/>
<polyline class="StaffLines" fill="none" stroke="#000000" stroke-width="2.73" stroke-linejoin="bevel" points="14.1732,815.417 2933.86,815.417"/>
<polyline class="StaffLines" fill="none" stroke="#000000" stroke-width="2.73" stroke-linejoin="bevel" points="14.1732,840.22 2933.86,840.22"/>
<polyline class="StaffLines" fill="none" stroke="#000000" stroke-width="2.73" stroke-linejoin="bevel" points="14.1732,865.023 2933.86,865.023"/>
<polyline class="StaffLines" fill="none" stroke="#000000" stroke-width="2.73" stroke-linejoin="bevel" points="14.1732,889.826 2933.86,889.826"/>
<polyline class="StaffLines" fill="none" stroke="#000000" stroke-width="2.73" stroke-linejoin="bevel" points="14.1732,914.629 2933.86,914.629"/>
<polyline class="StaffLines" fill="none" stroke="#000000" stroke-width="2.73" stroke-linejoin="bevel" points="14.1732,1125.46 2933.86,1125.46"/>
<polyline class="StaffLines" fill="none" stroke="#000000" stroke-width="2.73" stroke-linejoin="bevel" points="14.1732,1150.26 2933.86,1150.26"/>
<polyline class="StaffLines" fill="none" stroke="#000000" stroke-width="2.73" stroke-linejoin="bevel" points="14.1732,1175.06 2933.86,1175.06"/>
<polyline class="StaffLines" fill="none" stroke="#000000" stroke-width="2.73" stroke-linejoin="bevel" points="14.1732,1199.87 2933.86,1199.87"/>
<polyline class="StaffLines" fill="none" stroke="#000000" stroke-width="2.73" stroke-linejoin="bevel" points="14.1732,1224.67 2933.86,1224.67"/>
<polyline class="BarLine" fill="none" stroke="#000000" stroke-width="4.46" stroke-linejoin="bevel" points="953.226,186.431 953.226,288.372"/>
<polyline class="BarLine" fill="none" stroke="#000000" stroke-width="4.46" stroke-linejoin="bevel" points="1612.69,186.431 1612.69,288.372"/>
<polyline class="BarLine" fill="none" stroke="#000000" stroke-width="4.46" stroke-linejoin="bevel" points="2272.16,186.431 2272.16,288.372"/>
<polyline class="BarLine" fill="none" stroke="#000000" stroke-width="4.46" stroke-linejoin="bevel" points="2931.63,186.431 2931.63,288.372"/>
<polyline class="BarLine" fill="none" stroke="#000000" stroke-width="4.46" stroke-linejoin="bevel" points="808.481,496.47 808.481,598.411"/>
<polyline class="BarLine" fill="none" stroke="#000000" stroke-width="4.46" stroke-linejoin="bevel" points="1502.1,496.47 1502.1,598.411"/>
<polyline class="BarLine" fill="none" stroke="#000000" stroke-width="4.46" stroke-linejoin="bevel" points="2195.73,496.47 2195.73,598.411"/>
<path class="BarLine" transform="matrix(0.992126,0,0,0.992126,2887.12,535.039)" d="M10.4063,0 C10.4063,-2.90625 8.09375,-5.29688 5.20313,-5.29688 C2.29688,-5.29688 0,-2.90625 0,0 C0,2.90625 2.29688,5.29688 5.20313,5.29688 C8.09375,5.29688 10.4063,2.90625 10.4063,0"/>
<path class="BarLine" transform="matrix(0.992126,0,0,0.992126,2887.12,559.843)" d="M10.4063,0 C10.4063,-2.90625 8.09375,-5.29688 5.20313,-5.29688 C2.29688,-5.29688 0,-2.90625 0,0 C0,2.90625 2.29688,5.29688 5.20313,5.29688 C8.09375,5.29688 10.4063,2.90625 10.4063,0"/>
<polyline class="BarLine" fill="none" stroke="#000000" stroke-width="4.46" stroke-linejoin="bevel" points="2909.64,496.47 2909.64,598.411"/>
<polyline class="BarLine" fill="none" stroke="#000000" stroke-width="13.64" stroke-linejoin="bevel" points="2927,496.47 2927,598.411"/>
<polyline class="BarLine" fill="none" stroke="#000000" stroke-width="4.46" stroke-linejoin="bevel" points="819.051,814.053 819.051,915.994"/>
<polyline class="BarLine" fill="none" stroke="#000000" stroke-width="4.46" stroke-linejoin="bevel" points="1523.24,814.053 1523.24,915.994"/>
<polyline class="BarLine" fill="none" stroke="#000000" stroke-width="4.46" stroke-linejoin="bevel" points="2227.44,814.053 2227.44,915.994"/>
<polyline class="BarLine" fill="none" stroke="#000000" stroke-width="4.46" stroke-linejoin="bevel" points="2931.63,814.053 2931.63,915.994"/>
<polyline class="BarLine" fill="none" stroke="#000000" stroke-width="4.46" stroke-linejoin="bevel" points="812.511,1124.09 812.511,1226.03"/>
<polyline class="BarLine" fill="none" stroke="#000000" stroke-width="4.46" stroke-linejoin="bevel" points="1494.04,1124.09 1494.04,1226.03"/>
<polyline class="BarLine" fill="none" stroke="#000000" stroke-width="4.46" stroke-linejoin="bevel" points="2191.69,1124.09 2191.69,1226.03"/>
<path class="BarLine" transform="matrix(0.992126,0,0,0.992126,2887.12,1162.66)" d="M10.4063,0 C10.4063,-2.90625 8.09375,-5.29688 5.20313,-5.29688 C2.29688,-5.29688 0,-2.90625 0,0 C0,2.90625 2.29688,5.29688 5.20313,5.29688 C8.09375,5.29688 10.4063,2.90625 10.4063,0"/>
<path class="BarLine" transform="matrix(0.992126,0,0,0.992126,2887.12,1187.46)" d="M10.4063,0 C10.4063,-2.90625 8.09375,-5.29688 5.20313,-5.29688 C2.29688,-5.29688 0,-2.90625 0,0 C0,2.90625 2.29688,5.29688 5.20313,5.29688 C8.09375,5.29688 10.4063,2.90625 10.4063,0"/>
<polyline class="BarLine" fill="none" stroke="#000000" stroke-width="4.46" stroke-linejoin="bevel" points="2909.64,1124.09 2909.64,1226.03"/>
<polyline class="BarLine" fill="none" stroke="#000000" stroke-width="13.64" stroke-linejoin="bevel" points="2927,1124.09 2927,1226.03"/>
<path class="Note" transform="matrix(0.992126,0,0,0.992126,338.405,237.402)" d="M43,-25 L0,25 L10,25 L53,-25 L43,-25 "/>
<path class="Note" transform="matrix(0.992126,0,0,0.992126,489.01,237.402)" d="M43,-25 L0,25 L10,25 L53,-25 L43,-25 "/>
<path class="Note" transform="matrix(0.992126,0,0,0.992126,639.615,237.402)" d="M43,-25 L0,25 L10,25 L53,-25 L43,-25 "/>
<path class="Note" transform="matrix(0.992126,0,0,0.992126,790.22,237.402)" d="M43,-25 L0,25 L10,25 L53,-25 L43,-25 "/>
<path class="Note" transform="matrix(0.992126,0,0,0.992126,997.872,237.402)" d="M43,-25 L0,25 L10,25 L53,-25 L43,-25 "/>
<path class="Note" transform="matrix(0.992126,0,0,0.992126,1148.48,237.402)" d="M43,-25 L0,25 L10,25 L53,-25 L43,-25 "/>
<path class="Note" transform="matrix(0.992126,0,0,0.992126,1299.08,237.402)" d="M43,-25 L0,25 L10,25 L53,-25 L43,-25 "/>
<path class="Note" transform="matrix(0.992126,0,0,0.992126,1449.69,237.402)" d="M43,-25 L0,25 L10,25 L53,-25 L43,-25 "/>
<path class="Note" transform="matrix(0.992126,0,0,0.992126,1657.34,237.402)" d="M43,-25 L0,25 L10,25 L53,-25 L43,-25 "/>
<path class="Note" transform="matrix(0.992126,0,0,0.992126,1807.94,237.402)" d="M43,-25 L0,25 L10,25 L53,-25 L43,-25 "/>
<path class="Note" transform="matrix(0.992126,0,0,0.992126,1958.55,237.402)" d="M43,-25 L0,25 L10,25 L53,-25 L43,-25 "/>
<path class="Note" transform="matrix(0.992126,0,0,0.992126,2109.15,237.402)" d="M43,-25 L0,25 L10,25 L53,-25 L43,-25 "/>
<path class="Note" transform="matrix(0.992126,0,0,0.992126,2316.81,237.402)" d="M43,-25 L0,25 L10,25 L53,-25 L43,-25 "/>
<path class="Note" transform="matrix(0.992126,0,0,0.992126,2467.41,237.402)" d="M43,-25 L0,25 L10,25 L53,-25 L43,-25 "/>
<path class="Note" transform="matrix(0.992126,0,0,0.992126,2618.02,237.402)" d="M43,-25 L0,25 L10,25 L53,-25 L43,-25 "/>
<path class="Note" transform="matrix(0.992126,0,0,0.992126,2768.62,237.402)" d="M43,-25 L0,25 L10,25 L53,-25 L43,-25 "/>
<path class="Note" transform="matrix(0.992126,0,0,0.992126,159.504,547.441)" d="M43,-25 L0,25 L10,25 L53,-25 L43,-25 "/>
<path class="Note" transform="matrix(0.992126,0,0,0.992126,318.648,547.441)" d="M43,-25 L0,25 L10,25 L53,-25 L43,-25 "/>
<path class="Note" transform="matrix(0.992126,0,0,0.992126,477.792,547.441)" d="M43,-25 L0,25 L10,25 L53,-25 L43,-25 "/>
<path class="Note" transform="matrix(0.992126,0,0,0.992126,636.935,547.441)" d="M43,-25 L0,25 L10,25 L53,-25 L43,-25 "/>
<path class="Note" transform="matrix(0.992126,0,0,0.992126,853.126,547.441)" d="M43,-25 L0,25 L10,25 L53,-25 L43,-25 "/>
<path class="Note" transform="matrix(0.992126,0,0,0.992126,1012.27,547.441)" d="M43,-25 L0,25 L10,25 L53,-25 L43,-25 "/>
<path class="Note" transform="matrix(0.992126,0,0,0.992126,1171.41,547.441)" d="M43,-25 L0,25 L10,25 L53,-25 L43,-25 "/>
<path class="Note" transform="matrix(0.992126,0,0,0.992126,1330.56,547.441)" d="M43,-25 L0,25 L10,25 L53,-25 L43,-25 "/>
<path class="Note" transform="matrix(0.992126,0,0,0.992126,1546.75,547.441)" d="M43,-25 L0,25 L10,25 L53,-25 L43,-25 "/>
<path class="Note" transform="matrix(0.992126,0,0,0.992126,1705.89,547.441)" d="M43,-25 L0,25 L10,25 L53,-25 L43,-25 "/>
<path class="Note" transform="matrix(0.992126,0,0,0.992126,1865.04,547.441)" d="M43,-25 L0,25 L10,25 L53,-25 L43,-25 "/>
<path class="Note" transform="matrix(0.992126,0,0,0.992126,2024.18,547.441)" d="M43,-25 L0,25 L10,25 L53,-25 L43,-25 "/>
<path class="Note" transform="matrix(0.992126,0,0,0.992126,2240.37,547.441)" d="M43,-25 L0,25 L10,25 L53,-25 L43,-25 "/>
<path class="Note" transform="matrix(0.992126,0,0,0.992126,2399.51,547.441)" d="M43,-25 L0,25 L10,25 L53,-25 L43,-25 "/>
<path class="Note" transform="matrix(0.992126,0,0,0.992126,2558.66,547.441)" d="M43,-25 L0,25 L10,25 L53,-25 L43,-25 "/>
<path class="Note" transform="matrix(0.992126,0,0,0.992126,2717.8,547.441)" d="M43,-25 L0,25 L10,25 L53,-25 L43,-25 "/>
<path class="Note" transform="matrix(0.992126,0,0,0.992126,159.504,865.023)" d="M43,-25 L0,25 L10,25 L53,-25 L43,-25 "/>
<path class="Note" transform="matrix(0.992126,0,0,0.992126,321.29,865.023)" d="M43,-25 L0,25 L10,25 L53,-25 L43,-25 "/>
<path class="Note" transform="matrix(0.992126,0,0,0.992126,483.077,865.023)" d="M43,-25 L0,25 L10,25 L53,-25 L43,-25 "/>
<path class="Note" transform="matrix(0.992126,0,0,0.992126,644.863,865.023)" d="M43,-25 L0,25 L10,25 L53,-25 L43,-25 "/>
<path class="Note" transform="matrix(0.992126,0,0,0.992126,863.696,865.023)" d="M43,-25 L0,25 L10,25 L53,-25 L43,-25 "/>
<path class="Note" transform="matrix(0.992126,0,0,0.992126,1025.48,865.023)" d="M43,-25 L0,25 L10,25 L53,-25 L43,-25 "/>
<path class="Note" transform="matrix(0.992126,0,0,0.992126,1187.27,865.023)" d="M43,-25 L0,25 L10,25 L53,-25 L43,-25 "/>
<path class="Note" transform="matrix(0.992126,0,0,0.992126,1349.06,865.023)" d="M43,-25 L0,25 L10,25 L53,-25 L43,-25 "/>
<path class="Note" transform="matrix(0.992126,0,0,0.992126,1567.89,865.023)" d="M43,-25 L0,25 L10,25 L53,-25 L43,-25 "/>
<path class="Note" transform="matrix(0.992126,0,0,0.992126,1729.67,865.023)" d="M43,-25 L0,25 L10,25 L53,-25 L43,-25 "/>
<path class="Note" transform="matrix(0.992126,0,0,0.992126,1891.46,865.023)" d="M43,-25 L0,25 L10,25 L53,-25 L43,-25 "/>
<path class="Note" transform="matrix(0.992126,0,0,0.992126,2053.25,865.023)" d="M43,-25 L0,25 L10,25 L53,-25 L43,-25 "/>
<path class="Note" transform="matrix(0.992126,0,0,0.992126,2272.08,865.023)" d="M43,-25 L0,25 L10,25 L53,-25 L43,-25 "/>
<path class="Note" transform="matrix(0.992126,0,0,0.992126,2433.87,865.023)" d="M43,-25 L0,25 L10,25 L53,-25 L43,-25 "/>
<path class="Note" transform="matrix(0.992126,0,0,0.992126,2595.65,865.023)" d="M43,-25 L0,25 L10,25 L53,-25 L43,-25 "/>
<path class="Note" transform="matrix(0.992126,0,0,0.992126,2757.44,865.023)" d="M43,-25 L0,25 L10,25 L53,-25 L43,-25 "/>
<path class="Note" transform="matrix(0.992126,0,0,0.992126,159.504,1175.06)" d="M43,-25 L0,25 L10,25 L53,-25 L43,-25 "/>
<path class="Note" transform="matrix(0.992126,0,0,0.992126,319.656,1175.06)" d="M43,-25 L0,25 L10,25 L53,-25 L43,-25 "/>
<path class="Note" transform="matrix(0.992126,0,0,0.992126,479.807,1175.06)" d="M43,-25 L0,25 L10,25 L53,-25 L43,-25 "/>
<path class="Note" transform="matrix(0.992126,0,0,0.992126,639.958,1175.06)" d="M43,-25 L0,25 L10,25 L53,-25 L43,-25 "/>
<path class="Note" transform="matrix(0.992126,0,0,0.992126,841.035,1175.06)" d="M43,-25 L0,25 L10,25 L53,-25 L43,-25 "/>
<path class="Note" transform="matrix(0.992126,0,0,0.992126,1001.19,1175.06)" d="M43,-25 L0,25 L10,25 L53,-25 L43,-25 "/>
<path class="Note" transform="matrix(0.992126,0,0,0.992126,1161.34,1175.06)" d="M43,-25 L0,25 L10,25 L53,-25 L43,-25 "/>
<path class="Note" transform="matrix(0.992126,0,0,0.992126,1321.49,1175.06)" d="M43,-25 L0,25 L10,25 L53,-25 L43,-25 "/>
<path class="Note" transform="matrix(0.992126,0,0,0.992126,1538.69,1175.06)" d="M43,-25 L0,25 L10,25 L53,-25 L43,-25 "/>
<path class="Note" transform="matrix(0.992126,0,0,0.992126,1698.84,1175.06)" d="M43,-25 L0,25 L10,25 L53,-25 L43,-25 "/>
<path class="Note" transform="matrix(0.992126,0,0,0.992126,1858.99,1175.06)" d="M43,-25 L0,25 L10,25 L53,-25 L43,-25 "/>
<path class="Note" transform="matrix(0.992126,0,0,0.992126,2019.14,1175.06)" d="M43,-25 L0,25 L10,25 L53,-25 L43,-25 "/>
<path class="Note" transform="matrix(0.992126,0,0,0.992126,2236.34,1175.06)" d="M43,-25 L0,25 L10,25 L53,-25 L43,-25 "/>
<path class="Note" transform="matrix(0.992126,0,0,0.992126,2396.49,1175.06)" d="M43,-25 L0,25 L10,25 L53,-25 L43,-25 "/>
<path class="Note" transform="matrix(0.992126,0,0,0.992126,2556.64,1175.06)" d="M43,-25 L0,25 L10,25 L53,-25 L43,-25 "/>
<path class="Note" transform="matrix(0.992126,0,0,0.992126,2716.79,1175.06)" d="M43,-25 L0,25 L10,25 L53,-25 L43,-25 "/>
<path class="Clef" transform="matrix(0.992126,0,0,0.992126,158.032,262.205)" d="M63.3594,-5.92188 C62.125,-11.3438 59.4844,-15.1719 58.7031,-16.2031 C55.5156,-20.4844 51.5,-23.3281 46.8125,-24.6875 C43.7031,-25.5625 40.7031,-25.6875 38.2813,-25.5 C37.2344,-31.5156 36.2344,-37.3906 35.3281,-42.8438 C40.7813,-49.0156 44.4063,-54.8125 46.6875,-59.1094 C50.1563,-65.6875 51.2969,-70.2656 51.3594,-70.4688 C53.0781,-75.6875 53.4375,-83.3906 52.3281,-91.5938 C51.3281,-99.1406 49.2344,-105.859 46.875,-109.109 C45.8594,-110.531 44.7969,-111.266 43.7656,-111.266 C42.5469,-111.266 40.0313,-110.031 37.1406,-107.25 C34.8438,-105.063 31.5781,-101.172 29.0156,-95.1563 C26.0156,-88.0938 25.7969,-78.6094 26.1563,-71.8906 C26.5313,-64.6094 27.6406,-58.9219 27.6563,-58.875 C27.6719,-58.7813 27.9375,-57.2813 28.375,-54.7188 C28.1563,-54.4844 27.9063,-54.2656 27.6563,-54.0156 C26.625,-53.0156 25.4375,-51.8906 24.0469,-50.5 C23.1875,-49.6406 22.2344,-48.7344 21.2344,-47.7656 C12.7969,-39.625 0,-27.2969 0,-8.14063 C0,-3.4375 0.90625,0.984375 2.6875,5 C4.26563,8.59375 6.5625,11.875 9.5,14.75 C17.2344,22.3125 27.8281,25.5156 34.875,25.3594 C37.8281,25.2813 40.4688,25.0469 42.8594,24.5938 C44.6875,34.2031 45.8281,41.2344 45.8594,46.5781 C45.9063,53.0938 44.25,57.0781 40.3594,59.8438 C37.9219,61.5781 35.1094,62.5313 32.0156,62.6719 C29.4219,62.7969 27.1563,62.3281 25.7344,61.9219 L25.7188,61.9219 C25.7188,61.9219 25.4375,61.8281 25.4219,61.6406 C25.4063,61.4531 25.7656,61.4063 25.7656,61.4063 L25.7969,61.4063 C27.7188,60.9688 31.2813,59.7344 33.6406,56.4375 C35.4375,53.9063 36.3125,49.2813 34.4688,45.3438 C33.3594,42.9531 30.8594,40 25.2344,39.5469 C22.7344,39.3438 20.4688,39.8594 18.4688,41.0625 C16.6563,42.1406 15.1563,43.7813 14.1094,45.7813 C11.6563,50.4844 12.1094,56.2188 15.2344,60.0625 C18.2031,63.6875 22.8125,66 28.25,66.5781 C29.1094,66.6719 29.9531,66.7031 30.7969,66.7031 C35.2344,66.7031 39.625,65.5 43.2031,63.2969 C46.8594,60.7188 48.9844,56.7344 49.6563,51.1094 C50.2188,46.4688 49.8281,40.5469 48.4375,32.4688 C48.0781,30.375 47.5313,27.3438 46.875,23.5938 C52.625,21.6719 56.7813,18.0938 60.5469,12.2344 C63.8438,6.5 64.7813,0.390625 63.3594,-5.92188 M29.1406,20.2969 C24.5,19.0781 20.0625,16.5781 16.3125,13.0625 C15,11.8438 13.125,9.67188 11.6563,6.28125 C10.2969,3.10938 9.625,-0.328125 9.6875,-3.90625 C9.75,-8.60938 11.0625,-13.4375 13.5625,-18.2188 C16.4844,-23.7969 21.0469,-29.3281 27.1094,-34.6563 C28.5625,-35.9375 29.9375,-37.2188 31.2188,-38.5 C31.9844,-34.2344 32.8125,-29.5469 33.6875,-24.6719 C29.8438,-23.4063 25.0938,-20.25 21.9844,-14.5938 C18.4375,-8.03125 18.5781,-2.5 19.3125,0.984375 C20.25,5.4375 22.7813,9.20313 26.2344,11.2969 C27.1719,11.8594 31.2969,13.9844 33.1406,13.4063 C33.5156,13.2969 33.7813,13.0625 33.9219,12.7344 C34.4375,11.5625 33.4063,10.9219 31.8594,9.96875 C31.25,9.59375 30.5781,9.17188 29.8594,8.64063 C26.5313,6.15625 25.0781,1.70313 26.1563,-2.6875 C26.7344,-5.07813 28.0156,-7.25 29.8594,-8.95313 C31.5156,-10.5 33.5625,-11.5938 35.9375,-12.2344 C37.9844,-0.984375 40.0469,10.1719 41.6875,18.5313 C41.8125,19.2188 41.9531,19.8906 42.0781,20.5625 C37.7031,21.5 33.3594,21.4063 29.1406,20.2969 M40.4688,-12.9063 C50.8125,-13.375 55.0781,-5.9375 55.9688,-1.10938 C56.4375,1.4375 56.4375,5.875 54.8906,10.0938 C53.7188,13.2656 51.2656,17.3438 46.125,19.4063 C46.0625,18.9844 45.9844,18.5469 45.9063,18.125 C44.3594,9.34375 42.4219,-1.65625 40.4688,-12.9063 M33.1406,-83.8594 C34.9219,-89.5938 37.6563,-92.8438 39.6563,-94.5781 C41.4063,-96.0938 43.0469,-96.8125 43.9688,-96.8125 C44.1094,-96.8125 44.2344,-96.7813 44.3281,-96.75 C44.7969,-96.6094 45.3281,-96.0469 45.7969,-95.1719 C48.1094,-90.8906 47.3594,-84.1719 46.0156,-79.7344 C44.3906,-74.3281 41.4688,-68.7188 32.6719,-59.1094 C32.5,-60.2188 32.3438,-61.2656 32.1875,-62.25 C30.9375,-70.5313 31.2656,-77.8125 33.1406,-83.8594"/>
<path class="Clef" transform="matrix(0.992126,0,0,0.992126,34.0158,572.244)" d="M63.3594,-5.92188 C62.125,-11.3438 59.4844,-15.1719 58.7031,-16.2031 C55.5156,-20.4844 51.5,-23.3281 46.8125,-24.6875 C43.7031,-25.5625 40.7031,-25.6875 38.2813,-25.5 C37.2344,-31.5156 36.2344,-37.3906 35.3281,-42.8438 C40.7813,-49.0156 44.4063,-54.8125 46.6875,-59.1094 C50.1563,-65.6875 51.2969,-70.2656 51.3594,-70.4688 C53.0781,-75.6875 53.4375,-83.3906 52.3281,-91.5938 C51.3281,-99.1406 49.2344,-105.859 46.875,-109.109 C45.8594,-110.531 44.7969,-111.266 43.7656,-111.266 C42.5469,-111.266 40.0313,-110.031 37.1406,-107.25 C34.8438,-105.063 31.5781,-101.172 29.0156,-95.1563 C26.0156,-88.0938 25.7969,-78.6094 26.1563,-71.8906 C26.5313,-64.6094 27.6406,-58.9219 27.6563,-58.875 C27.6719,-58.7813 27.9375,-57.2813 28.375,-54.7188 C28.1563,-54.4844 27.9063,-54.2656 27.6563,-54.0156 C26.625,-53.0156 25.4375,-51.8906 24.0469,-50.5 C23.1875,-49.6406 22.2344,-48.7344 21.2344,-47.7656 C12.7969,-39.625 0,-27.2969 0,-8.14063 C0,-3.4375 0.90625,0.984375 2.6875,5 C4.26563,8.59375 6.5625,11.875 9.5,14.75 C17.2344,22.3125 27.8281,25.5156 34.875,25.3594 C37.8281,25.2813 40.4688,25.0469 42.8594,24.5938 C44.6875,34.2031 45.8281,41.2344 45.8594,46.5781 C45.9063,53.0938 44.25,57.0781 40.3594,59.8438 C37.9219,61.5781 35.1094,62.5313 32.0156,62.6719 C29.4219,62.7969 27.1563,62.3281 25.7344,61.9219 L25.7188,61.9219 C25.7188,61.9219 25.4375,61.8281 25.4219,61.6406 C25.4063,61.4531 25.7656,61.4063 25.7656,61.4063 L25.7969,61.4063 C27.7188,60.9688 31.2813,59.7344 33.6406,56.4375 C35.4375,53.9063 36.3125,49.2813 34.4688,45.3438 C33.3594,42.9531 30.8594,40 25.2344,39.5469 C22.7344,39.3438 20.4688,39.8594 18.4688,41.0625 C16.6563,42.1406 15.1563,43.7813 14.1094,45.7813 C11.6563,50.4844 12.1094,56.2188 15.2344,60.0625 C18.2031,63.6875 22.8125,66 28.25,66.5781 C29.1094,66.6719 29.9531,66.7031 30.7969,66.7031 C35.2344,66.7031 39.625,65.5 43.2031,63.2969 C46.8594,60.7188 48.9844,56.7344 49.6563,51.1094 C50.2188,46.4688 49.8281,40.5469 48.4375,32.4688 C48.0781,30.375 47.5313,27.3438 46.875,23.5938 C52.625,21.6719 56.7813,18.0938 60.5469,12.2344 C63.8438,6.5 64.7813,0.390625 63.3594,-5.92188 M29.1406,20.2969 C24.5,19.0781 20.0625,16.5781 16.3125,13.0625 C15,11.8438 13.125,9.67188 11.6563,6.28125 C10.2969,3.10938 9.625,-0.328125 9.6875,-3.90625 C9.75,-8.60938 11.0625,-13.4375 13.5625,-18.2188 C16.4844,-23.7969 21.0469,-29.3281 27.1094,-34.6563 C28.5625,-35.9375 29.9375,-37.2188 31.2188,-38.5 C31.9844,-34.2344 32.8125,-29.5469 33.6875,-24.6719 C29.8438,-23.4063 25.0938,-20.25 21.9844,-14.5938 C18.4375,-8.03125 18.5781,-2.5 19.3125,0.984375 C20.25,5.4375 22.7813,9.20313 26.2344,11.2969 C27.1719,11.8594 31.2969,13.9844 33.1406,13.4063 C33.5156,13.2969 33.7813,13.0625 33.9219,12.7344 C34.4375,11.5625 33.4063,10.9219 31.8594,9.96875 C31.25,9.59375 30.5781,9.17188 29.8594,8.64063 C26.5313,6.15625 25.0781,1.70313 26.1563,-2.6875 C26.7344,-5.07813 28.0156,-7.25 29.8594,-8.95313 C31.5156,-10.5 33.5625,-11.5938 35.9375,-12.2344 C37.9844,-0.984375 40.0469,10.1719 41.6875,18.5313 C41.8125,19.2188 41.9531,19.8906 42.0781,20.5625 C37.7031,21.5 33.3594,21.4063 29.1406,20.2969 M40.4688,-12.9063 C50.8125,-13.375 55.0781,-5.9375 55.9688,-1.10938 C56.4375,1.4375 56.4375,5.875 54.8906,10.0938 C53.7188,13.2656 51.2656,17.3438 46.125,19.4063 C46.0625,18.9844 45.9844,18.5469 45.9063,18.125 C44.3594,9.34375 42.4219,-1.65625 40.4688,-12.9063 M33.1406,-83.8594 C34.9219,-89.5938 37.6563,-92.8438 39.6563,-94.5781 C41.4063,-96.0938 43.0469,-96.8125 43.9688,-96.8125 C44.1094,-96.8125 44.2344,-96.7813 44.3281,-96.75 C44.7969,-96.6094 45.3281,-96.0469 45.7969,-95.1719 C48.1094,-90.8906 47.3594,-84.1719 46.0156,-79.7344 C44.3906,-74.3281 41.4688,-68.7188 32.6719,-59.1094 C32.5,-60.2188 32.3438,-61.2656 32.1875,-62.25 C30.9375,-70.5313 31.2656,-77.8125 33.1406,-83.8594"/>
<path class="Clef" transform="matrix(0.992126,0,0,0.992126,34.0158,889.826)" d="M63.3594,-5.92188 C62.125,-11.3438 59.4844,-15.1719 58.7031,-16.2031 C55.5156,-20.4844 51.5,-23.3281 46.8125,-24.6875 C43.7031,-25.5625 40.7031,-25.6875 38.2813,-25.5 C37.2344,-31.5156 36.2344,-37.3906 35.3281,-42.8438 C40.7813,-49.0156 44.4063,-54.8125 46.6875,-59.1094 C50.1563,-65.6875 51.2969,-70.2656 51.3594,-70.4688 C53.0781,-75.6875 53.4375,-83.3906 52.3281,-91.5938 C51.3281,-99.1406 49.2344,-105.859 46.875,-109.109 C45.8594,-110.531 44.7969,-111.266 43.7656,-111.266 C42.5469,-111.266 40.0313,-110.031 37.1406,-107.25 C34.8438,-105.063 31.5781,-101.172 29.0156,-95.1563 C26.0156,-88.0938 25.7969,-78.6094 26.1563,-71.8906 C26.5313,-64.6094 27.6406,-58.9219 27.6563,-58.875 C27.6719,-58.7813 27.9375,-57.2813 28.375,-54.7188 C28.1563,-54.4844 27.9063,-54.2656 27.6563,-54.0156 C26.625,-53.0156 25.4375,-51.8906 24.0469,-50.5 C23.1875,-49.6406 22.2344,-48.7344 21.2344,-47.7656 C12.7969,-39.625 0,-27.2969 0,-8.14063 C0,-3.4375 0.90625,0.984375 2.6875,5 C4.26563,8.59375 6.5625,11.875 9.5,14.75 C17.2344,22.3125 27.8281,25.5156 34.875,25.3594 C37.8281,25.2813 40.4688,25.0469 42.8594,24.5938 C44.6875,34.2031 45.8281,41.2344 45.8594,46.5781 C45.9063,53.0938 44.25,57.0781 40.3594,59.8438 C37.9219,61.5781 35.1094,62.5313 32.0156,62.6719 C29.4219,62.7969 27.1563,62.3281 25.7344,61.9219 L25.7188,61.9219 C25.7188,61.9219 25.4375,61.8281 25.4219,61.6406 C25.4063,61.4531 25.7656,61.4063 25.7656,61.4063 L25.7969,61.4063 C27.7188,60.9688 31.2813,59.7344 33.6406,56.4375 C35.4375,53.9063 36.3125,49.2813 34.4688,45.3438 C33.3594,42.9531 30.8594,40 25.2344,39.5469 C22.7344,39.3438 20.4688,39.8594 18.4688,41.0625 C16.6563,42.1406 15.1563,43.7813 14.1094,45.7813 C11.6563,50.4844 12.1094,56.2188 15.2344,60.0625 C18.2031,63.6875 22.8125,66 28.25,66.5781 C29.1094,66.6719 29.9531,66.7031 30.7969,66.7031 C35.2344,66.7031 39.625,65.5 43.2031,63.2969 C46.8594,60.7188 48.9844,56.7344 49.6563,51.1094 C50.2188,46.4688 49.8281,40.5469 48.4375,32.4688 C48.0781,30.375 47.5313,27.3438 46.875,23.5938 C52.625,21.6719 56.7813,18.0938 60.5469,12.2344 C63.8438,6.5 64.7813,0.390625 63.3594,-5.92188 M29.1406,20.2969 C24.5,19.0781 20.0625,16.5781 16.3125,13.0625 C15,11.8438 13.125,9.67188 11.6563,6.28125 C10.2969,3.10938 9.625,-0.328125 9.6875,-3.90625 C9.75,-8.60938 11.0625,-13.4375 13.5625,-18.2188 C16.4844,-23.7969 21.0469,-29.3281 27.1094,-34.6563 C28.5625,-35.9375 29.9375,-37.2188 31.2188,-38.5 C31.9844,-34.2344 32.8125,-29.5469 33.6875,-24.6719 C29.8438,-23.4063 25.0938,-20.25 21.9844,-14.5938 C18.4375,-8.03125 18.5781,-2.5 19.3125,0.984375 C20.25,5.4375 22.7813,9.20313 26.2344,11.2969 C27.1719,11.8594 31.2969,13.9844 33.1406,13.4063 C33.5156,13.2969 33.7813,13.0625 33.9219,12.7344 C34.4375,11.5625 33.4063,10.9219 31.8594,9.96875 C31.25,9.59375 30.5781,9.17188 29.8594,8.64063 C26.5313,6.15625 25.0781,1.70313 26.1563,-2.6875 C26.7344,-5.07813 28.0156,-7.25 29.8594,-8.95313 C31.5156,-10.5 33.5625,-11.5938 35.9375,-12.2344 C37.9844,-0.984375 40.0469,10.1719 41.6875,18.5313 C41.8125,19.2188 41.9531,19.8906 42.0781,20.5625 C37.7031,21.5 33.3594,21.4063 29.1406,20.2969 M40.4688,-12.9063 C50.8125,-13.375 55.0781,-5.9375 55.9688,-1.10938 C56.4375,1.4375 56.4375,5.875 54.8906,10.0938 C53.7188,13.2656 51.2656,17.3438 46.125,19.4063 C46.0625,18.9844 45.9844,18.5469 45.9063,18.125 C44.3594,9.34375 42.4219,-1.65625 40.4688,-12.9063 M33.1406,-83.8594 C34.9219,-89.5938 37.6563,-92.8438 39.6563,-94.5781 C41.4063,-96.0938 43.0469,-96.8125 43.9688,-96.8125 C44.1094,-96.8125 44.2344,-96.7813 44.3281,-96.75 C44.7969,-96.6094 45.3281,-96.0469 45.7969,-95.1719 C48.1094,-90.8906 47.3594,-84.1719 46.0156,-79.7344 C44.3906,-74.3281 41.4688,-68.7188 32.6719,-59.1094 C32.5,-60.2188 32.3438,-61.2656 32.1875,-62.25 C30.9375,-70.5313 31.2656,-77.8125 33.1406,-83.8594"/>
<path class="Clef" transform="matrix(0.992126,0,0,0.992126,34.0158,1199.87)" d="M63.3594,-5.92188 C62.125,-11.3438 59.4844,-15.1719 58.7031,-16.2031 C55.5156,-20.4844 51.5,-23.3281 46.8125,-24.6875 C43.7031,-25.5625 40.7031,-25.6875 38.2813,-25.5 C37.2344,-31.5156 36.2344,-37.3906 35.3281,-42.8438 C40.7813,-49.0156 44.4063,-54.8125 46.6875,-59.1094 C50.1563,-65.6875 51.2969,-70.2656 51.3594,-70.4688 C53.0781,-75.6875 53.4375,-83.3906 52.3281,-91.5938 C51.3281,-99.1406 49.2344,-105.859 46.875,-109.109 C45.8594,-110.531 44.7969,-111.266 43.7656,-111.266 C42.5469,-111.266 40.0313,-110.031 37.1406,-107.25 C34.8438,-105.063 31.5781,-101.172 29.0156,-95.1563 C26.0156,-88.0938 25.7969,-78.6094 26.1563,-71.8906 C26.5313,-64.6094 27.6406,-58.9219 27.6563,-58.875 C27.6719,-58.7813 27.9375,-57.2813 28.375,-54.7188 C28.1563,-54.4844 27.9063,-54.2656 27.6563,-54.0156 C26.625,-53.0156 25.4375,-51.8906 24.0469,-50.5 C23.1875,-49.6406 22.2344,-48.7344 21.2344,-47.7656 C12.7969,-39.625 0,-27.2969 0,-8.14063 C0,-3.4375 0.90625,0.984375 2.6875,5 C4.26563,8.59375 6.5625,11.875 9.5,14.75 C17.2344,22.3125 27.8281,25.5156 34.875,25.3594 C37.8281,25.2813 40.4688,25.0469 42.8594,24.5938 C44.6875,34.2031 45.8281,41.2344 45.8594,46.5781 C45.9063,53.0938 44.25,57.0781 40.3594,59.8438 C37.9219,61.5781 35.1094,62.5313 32.0156,62.6719 C29.4219,62.7969 27.1563,62.3281 25.7344,61.9219 L25.7188,61.9219 C25.7188,61.9219 25.4375,61.8281 25.4219,61.6406 C25.4063,61.4531 25.7656,61.4063 25.7656,61.4063 L25.7969,61.4063 C27.7188,60.9688 31.2813,59.7344 33.6406,56.4375 C35.4375,53.9063 36.3125,49.2813 34.4688,45.3438 C33.3594,42.9531 30.8594,40 25.2344,39.5469 C22.7344,39.3438 20.4688,39.8594 18.4688,41.0625 C16.6563,42.1406 15.1563,43.7813 14.1094,45.7813 C11.6563,50.4844 12.1094,56.2188 15.2344,60.0625 C18.2031,63.6875 22.8125,66 28.25,66.5781 C29.1094,66.6719 29.9531,66.7031 30.7969,66.7031 C35.2344,66.7031 39.625,65.5 43.2031,63.2969 C46.8594,60.7188 48.9844,56.7344 49.6563,51.1094 C50.2188,46.4688 49.8281,40.5469 48.4375,32.4688 C48.0781,30.375 47.5313,27.3438 46.875,23.5938 C52.625,21.6719 56.7813,18.0938 60.5469,12.2344 C63.8438,6.5 64.7813,0.390625 63.3594,-5.92188 M29.1406,20.2969 C24.5,19.0781 20.0625,16.5781 16.3125,13.0625 C15,11.8438 13.125,9.67188 11.6563,6.28125 C10.2969,3.10938 9.625,-0.328125 9.6875,-3.90625 C9.75,-8.60938 11.0625,-13.4375 13.5625,-18.2188 C16.4844,-23.7969 21.0469,-29.3281 27.1094,-34.6563 C28.5625,-35.9375 29.9375,-37.2188 31.2188,-38.5 C31.9844,-34.2344 32.8125,-29.5469 33.6875,-24.6719 C29.8438,-23.4063 25.0938,-20.25 21.9844,-14.5938 C18.4375,-8.03125 18.5781,-2.5 19.3125,0.984375 C20.25,5.4375 22.7813,9.20313 26.2344,11.2969 C27.1719,11.8594 31.2969,13.9844 33.1406,13.4063 C33.5156,13.2969 33.7813,13.0625 33.9219,12.7344 C34.4375,11.5625 33.4063,10.9219 31.8594,9.96875 C31.25,9.59375 30.5781,9.17188 29.8594,8.64063 C26.5313,6.15625 25.0781,1.70313 26.1563,-2.6875 C26.7344,-5.07813 28.0156,-7.25 29.8594,-8.95313 C31.5156,-10.5 33.5625,-11.5938 35.9375,-12.2344 C37.9844,-0.984375 40.0469,10.1719 41.6875,18.5313 C41.8125,19.2188 41.9531,19.8906 42.0781,20.5625 C37.7031,21.5 33.3594,21.4063 29.1406,20.2969 M40.4688,-12.9063 C50.8125,-13.375 55.0781,-5.9375 55.9688,-1.10938 C56.4375,1.4375 56.4375,5.875 54.8906,10.0938 C53.7188,13.2656 51.2656,17.3438 46.125,19.4063 C46.0625,18.9844 45.9844,18.5469 45.9063,18.125 C44.3594,9.34375 42.4219,-1.65625 40.4688,-12.9063 M33.1406,-83.8594 C34.9219,-89.5938 37.6563,-92.8438 39.6563,-94.5781 C41.4063,-96.0938 43.0469,-96.8125 43.9688,-96.8125 C44.1094,-96.8125 44.2344,-96.7813 44.3281,-96.75 C44.7969,-96.6094 45.3281,-96.0469 45.7969,-95.1719 C48.1094,-90.8906 47.3594,-84.1719 46.0156,-79.7344 C44.3906,-74.3281 41.4688,-68.7188 32.6719,-59.1094 C32.5,-60.2188 32.3438,-61.2656 32.1875,-62.25 C30.9375,-70.5313 31.2656,-77.8125 33.1406,-83.8594"/>
<path class="TimeSig" transform="matrix(0.992126,0,0,0.992126,244.951,212.73)" d="M3.59375,12.625 L20.7656,12.625 L20.7656,20.0781 L12.5469,20.0781 C11.7656,20.0781 11.125,20.7031 11.125,21.4844 L11.125,23.3906 C11.125,24.1719 11.7656,24.7969 12.5469,24.7969 L42.7969,24.7969 C43.5781,24.7969 44.2031,24.1719 44.2031,23.3906 L44.2031,21.4844 C44.2031,20.7031 43.5781,20.0781 42.7969,20.0781 L33.8594,20.0781 L33.8594,12.625 L42.7969,12.625 C43.5781,12.625 44.2031,12 44.2031,11.2188 L44.2031,9.3125 C44.2031,8.53125 43.5781,7.90625 42.7969,7.90625 L33.8594,7.90625 L33.8594,-8.0625 C33.8594,-8.59375 33.5469,-9.07813 33.0781,-9.3125 L31.8594,-9.92188 C31.3281,-10.1719 30.7031,-10.0781 30.2656,-9.6875 L21.2188,-1.375 C20.9375,-1.09375 20.7656,-0.734375 20.7656,-0.328125 L20.7656,7.90625 L9.25,7.90625 C9.25,7.90625 20.375,-4.125 32.2188,-19.8906 C33.0781,-21.0469 32.5781,-22.0938 32.3906,-22.2813 L30.2188,-24.4844 C29.9531,-24.75 29.5938,-24.9063 29.2188,-24.9063 C28.625,-24.9063 15.0625,-24.875 14.3438,-24.9063 C13.625,-24.9219 13.0938,-24.2969 13.0156,-23.6875 C13.0156,-23.6875 12.4844,-16.3281 9.875,-8.1875 C7.28125,-0.078125 4.34375,4.90625 1.6875,8.53125 C1.6875,8.53125 1.14063,9.51563 1.5,10.2656 C1.84375,11.0156 2.48438,12.0938 2.48438,12.0938 C2.48438,12.0938 2.73438,12.625 3.59375,12.625"/>
<path class="TimeSig" transform="matrix(0.992126,0,0,0.992126,244.951,262.073)" d="M3.59375,12.625 L20.7656,12.625 L20.7656,20.0781 L12.5469,20.0781 C11.7656,20.0781 11.125,20.7031 11.125,21.4844 L11.125,23.3906 C11.125,24.1719 11.7656,24.7969 12.5469,24.7969 L42.7969,24.7969 C43.5781,24.7969 44.2031,24.1719 44.2031,23.3906 L44.2031,21.4844 C44.2031,20.7031 43.5781,20.0781 42.7969,20.0781 L33.8594,20.0781 L33.8594,12.625 L42.7969,12.625 C43.5781,12.625 44.2031,12 44.2031,11.2188 L44.2031,9.3125 C44.2031,8.53125 43.5781,7.90625 42.7969,7.90625 L33.8594,7.90625 L33.8594,-8.0625 C33.8594,-8.59375 33.5469,-9.07813 33.0781,-9.3125 L31.8594,-9.92188 C31.3281,-10.1719 30.7031,-10.0781 30.2656,-9.6875 L21.2188,-1.375 C20.9375,-1.09375 20.7656,-0.734375 20.7656,-0.328125 L20.7656,7.90625 L9.25,7.90625 C9.25,7.90625 20.375,-4.125 32.2188,-19.8906 C33.0781,-21.0469 32.5781,-22.0938 32.3906,-22.2813 L30.2188,-24.4844 C29.9531,-24.75 29.5938,-24.9063 29.2188,-24.9063 C28.625,-24.9063 15.0625,-24.875 14.3438,-24.9063 C13.625,-24.9219 13.0938,-24.2969 13.0156,-23.6875 C13.0156,-23.6875 12.4844,-16.3281 9.875,-8.1875 C7.28125,-0.078125 4.34375,4.90625 1.6875,8.53125 C1.6875,8.53125 1.14063,9.51563 1.5,10.2656 C1.84375,11.0156 2.48438,12.0938 2.48438,12.0938 C2.48438,12.0938 2.73438,12.625 3.59375,12.625"/>
<path class="RehearsalMark" fill="none" stroke="#000000" stroke-width="3.97" stroke-linecap="square" stroke-linejoin="miter" stroke-miterlimit="2" fill-rule="evenodd" d="M154.216,21.0729 L262.987,21.0729 L262.987,122.845 L154.216,122.845 L154.216,21.0729 "/>
<path class="RehearsalMark" d="M205.352,35.4899 L182.883,87.9587 C178.32,98.6618 174.664,102.521 168.82,103.115 L168.82,108.459 L197.43,108.459 L197.43,103.115 C190.398,102.724 187.633,100.834 187.633,96.2868 C187.633,94.5993 188.023,93.0212 189.117,90.6462 L190.695,86.8806 L215.352,86.8806 L219.117,96.5837 C220.195,99.3493 220.305,99.8493 220.305,100.631 C220.305,102.427 218.914,103.021 214.555,103.021 L212.867,103.115 L212.867,108.459 L247.617,108.459 L247.617,103.115 C241.977,102.912 240.398,101.927 238.32,96.8806 L212.867,35.4899 L205.352,35.4899 M203.273,56.5837 L212.867,80.2399 L193.273,80.2399 L203.273,56.5837 "/>
<path class="RehearsalMark" fill="none" stroke="#000000" stroke-width="3.97" stroke-linecap="square" stroke-linejoin="miter" stroke-miterlimit="2" fill-rule="evenodd" d="M32.3294,654.622 L133.101,654.622 L133.101,755.393 L32.3294,755.393 L32.3294,654.622 "/>
<path class="RehearsalMark" d="M47.4027,669.523 L47.4027,674.882 L48.8871,674.882 C54.2308,674.882 56.1058,675.273 56.9964,676.257 C57.6996,677.351 57.6996,677.648 57.6996,683.789 L57.6996,726.757 C57.6996,732.882 57.6996,733.179 56.9964,734.179 C56.1058,735.273 54.1371,735.664 48.8871,735.664 L47.4027,735.664 L47.4027,741.007 L87.4964,741.007 C97.7933,741.007 103.043,740.211 108.184,737.945 C114.418,735.164 118.575,728.929 118.575,722.195 C118.575,715.273 114.621,709.82 107.293,706.461 C103.934,704.867 101.059,704.086 95.8089,703.382 C100.653,702.601 103.434,701.898 106.2,700.617 C112.137,697.742 115.309,692.992 115.309,687.054 C115.309,681.414 112.34,676.164 107.496,673.492 C102.043,670.414 97.2933,669.523 85.6058,669.523 L47.4027,669.523 M75.5121,701.601 L75.5121,680.617 C75.3089,676.461 76.6996,675.07 81.0589,674.882 L84.0277,674.882 C92.7464,674.882 97.3871,679.226 97.3871,687.445 C97.3871,692.304 95.7152,696.164 92.5433,698.632 C89.8714,700.82 86.4964,701.601 80.3714,701.601 L75.5121,701.601 M75.5121,707.054 L82.3402,707.054 C88.5746,707.054 91.4496,707.648 94.2308,709.429 C97.6839,711.711 99.6683,716.054 99.6683,721.211 C99.6683,725.961 97.8871,730.32 95.0121,732.695 C92.5433,734.664 89.2777,735.664 84.5277,735.664 L81.5589,735.664 C75.9027,735.461 75.3089,734.867 75.5121,729.32 L75.5121,707.054 "/>
<path class="Harmony" d="M350.527,121.866 C350.496,121.881 350.449,121.881 350.386,121.881 C350.324,121.881 350.277,121.897 350.246,121.897 C350.199,121.912 350.152,121.912 350.09,121.928 C350.027,121.928 349.996,121.944 349.949,121.959 C349.902,121.975 349.871,122.006 349.824,122.022 C349.777,122.053 349.746,122.069 349.73,122.116 C349.683,122.147 349.668,122.178 349.636,122.225 C349.621,122.256 349.605,122.319 349.605,122.366 C349.605,122.397 349.605,122.428 349.605,122.475 L349.605,122.506 C349.605,122.537 349.605,122.584 349.605,122.647 C349.621,122.709 349.621,122.756 349.621,122.787 C349.621,123.366 349.636,123.928 349.652,124.475 C349.652,124.506 349.652,124.537 349.652,124.569 C349.652,124.678 349.652,124.819 349.636,124.975 C349.621,125.178 349.621,125.319 349.621,125.412 L349.621,125.444 L349.621,125.537 C349.621,125.553 349.621,125.584 349.636,125.616 C349.636,125.647 349.636,125.662 349.652,125.678 C349.668,125.694 349.683,125.709 349.715,125.725 C349.73,125.741 349.761,125.741 349.793,125.741 L349.808,125.741 C349.98,125.741 350.152,125.709 350.324,125.631 C350.511,125.569 350.668,125.491 350.824,125.381 C350.98,125.287 351.121,125.162 351.261,125.006 C351.402,124.866 351.527,124.709 351.621,124.553 C351.73,124.397 351.808,124.225 351.871,124.053 C351.949,123.881 351.98,123.709 351.98,123.537 C351.996,123.506 351.996,123.459 351.996,123.428 C351.996,123.334 351.98,123.241 351.965,123.131 C351.933,122.991 351.902,122.85 351.84,122.725 C351.793,122.6 351.715,122.475 351.621,122.366 C351.543,122.241 351.433,122.147 351.324,122.069 C351.215,121.991 351.09,121.928 350.949,121.897 C350.871,121.866 350.777,121.866 350.668,121.866 C350.621,121.866 350.574,121.866 350.527,121.866 M350.215,125.1 C350.215,124.959 350.215,124.741 350.215,124.475 C350.23,124.256 350.23,124.053 350.23,123.866 C350.23,123.819 350.23,123.787 350.23,123.741 C350.23,123.522 350.215,123.303 350.215,123.1 C350.215,123.069 350.199,123.037 350.199,122.959 C350.183,122.881 350.168,122.803 350.168,122.741 C350.152,122.709 350.152,122.678 350.152,122.647 C350.152,122.616 350.152,122.584 350.168,122.553 C350.168,122.491 350.199,122.444 350.23,122.412 C350.277,122.381 350.324,122.366 350.386,122.366 C350.402,122.366 350.402,122.366 350.418,122.366 C350.496,122.381 350.574,122.397 350.668,122.444 C350.746,122.491 350.824,122.553 350.902,122.616 C350.98,122.678 351.043,122.741 351.105,122.787 C351.168,122.85 351.199,122.897 351.23,122.944 C351.308,123.069 351.371,123.225 351.402,123.381 C351.418,123.475 351.418,123.553 351.418,123.647 C351.418,123.709 351.418,123.787 351.418,123.85 C351.386,124.006 351.34,124.147 351.277,124.303 C351.215,124.444 351.121,124.569 351.027,124.694 C350.918,124.803 350.793,124.897 350.668,124.959 C350.527,125.037 350.371,125.084 350.215,125.1"/>
<path class="Harmony" d="M387.433,35.3858 C383.73,35.8546 380.215,36.714 376.793,37.9483 C373.371,39.1827 370.23,40.8858 367.199,42.8858 C364.152,44.8858 361.402,47.1671 359.027,49.7296 C356.652,52.2921 354.652,55.2296 352.949,58.5577 C351.23,61.8858 350.09,65.4015 349.433,69.1046 C348.949,71.3858 348.761,73.7608 348.761,76.1358 L348.761,76.8077 C348.761,79.0733 348.855,81.2608 349.136,83.4483 C349.433,85.8233 349.996,88.1983 350.761,90.3858 C351.621,92.6671 352.558,94.8546 353.605,96.839 C354.652,98.839 355.98,100.651 357.511,102.261 C359.027,103.87 360.918,105.198 362.824,106.339 C364.73,107.48 366.902,108.339 369.277,108.823 C370.902,109.105 372.511,109.292 374.136,109.292 C374.98,109.292 375.933,109.292 376.98,109.198 C379.918,108.917 382.683,108.245 385.246,107.292 C387.808,106.339 390.183,105.198 392.183,103.87 C394.168,102.542 396.168,100.839 397.98,98.9327 C399.777,97.0421 401.496,94.9483 402.918,92.8546 C404.34,90.7608 405.668,88.3858 407.09,85.7296 C409.277,81.3546 410.324,77.6515 410.324,74.714 C410.324,71.7608 409.277,69.4796 407.09,67.8702 C405.855,66.8233 403.777,66.1671 401.011,65.6827 C399.027,65.4015 397.027,65.214 395.027,65.214 L394.558,65.214 L392.465,65.214 C389.527,65.3077 386.761,65.7765 384.105,66.6358 C381.449,67.4952 379.636,68.5421 378.683,69.7765 C378.402,70.2452 378.121,70.6202 377.84,71.0108 C377.168,72.0577 376.793,72.9952 376.793,73.8546 C376.793,75.089 377.652,75.9483 379.261,76.4171 C380.59,76.8077 383.152,76.9952 386.855,76.9952 L387.715,76.9952 C388.949,77.089 389.902,77.089 390.558,77.089 C394.465,77.089 396.84,77.5577 397.59,78.6046 C397.886,78.9796 398.168,79.5577 398.168,80.1202 C398.168,80.6983 398.074,81.2608 397.98,81.839 C397.886,82.4015 397.59,83.0733 397.308,83.8233 C397.027,84.589 396.746,85.1671 396.449,85.6358 C396.168,86.1046 395.886,86.7765 395.511,87.5421 C395.121,88.2921 394.84,88.6827 394.746,88.8702 C394.277,89.714 393.98,90.3858 393.699,90.8546 C393.418,91.339 393.027,91.8077 392.558,92.4796 C392.09,93.1358 391.511,93.714 391.043,94.089 C389.043,95.6046 386.855,96.6515 384.293,97.1358 L381.058,97.5108 L380.683,97.5108 C379.449,97.4171 378.121,97.3233 376.886,97.0421 C374.511,96.5577 372.136,95.6983 369.949,94.3702 C367.761,93.0421 365.871,91.4327 364.433,89.5265 C363.011,87.5421 361.683,85.1671 360.73,82.4952 C359.777,79.839 359.215,77.089 359.027,74.1358 C358.933,73.089 358.933,72.1515 358.933,71.1046 C358.933,69.1983 359.027,67.3077 359.308,65.4952 C359.777,62.7452 360.636,60.0733 361.965,57.6046 C363.293,55.1358 365.011,53.1515 367.105,51.6202 C369.668,49.6358 372.793,48.1983 376.402,47.2608 C378.402,46.6827 380.402,46.4015 382.293,46.4015 C383.636,46.4015 384.965,46.589 386.199,46.8702 C387.246,47.1671 388.277,47.5421 389.527,48.1046 C390.761,48.6827 391.793,49.2452 392.746,49.8233 C393.699,50.3858 394.746,50.964 395.793,51.5265 C396.84,52.1046 397.886,52.5733 398.824,52.7608 C399.777,52.9483 400.73,53.0577 401.683,52.9483 C402.636,52.8546 403.574,52.3858 404.527,51.5265 C405.48,50.6827 406.34,49.5421 407.183,48.1046 C407.668,47.2608 407.949,46.4015 407.949,45.5421 C407.949,44.8858 407.761,44.3077 407.48,43.6515 C406.715,42.214 405.48,40.9796 403.777,39.9327 C402.058,38.9015 400.261,37.9483 398.168,37.1827 C396.074,36.4171 394.074,35.9483 392.09,35.6671 C390.652,35.3858 389.527,35.2921 388.574,35.2921 C388.09,35.2921 387.715,35.2921 387.433,35.3858"/>
<path class="Harmony" d="M1042.96,51.5843 C1039.73,52.0687 1036.49,53.0218 1033.37,54.5374 C1030.23,56.053 1027.37,57.9593 1024.81,60.2405 C1022.24,62.5218 1019.87,65.0843 1017.68,68.0218 C1015.49,70.9749 1013.79,74.0062 1012.37,77.1468 C1010.95,80.2874 1009.99,83.5999 1009.42,87.1155 C1009.13,89.0218 1008.95,90.928 1008.95,92.7249 C1008.95,94.2405 1009.04,95.7718 1009.23,97.1937 C1009.71,100.131 1010.56,103.084 1011.88,105.834 C1013.23,108.6 1014.74,111.162 1016.63,113.537 C1018.54,115.912 1020.92,117.897 1023.48,119.709 C1026.04,121.506 1028.6,122.85 1031.37,123.787 C1033.93,124.647 1036.59,125.116 1039.54,125.116 L1039.82,125.116 L1040.1,125.116 C1043.24,125.022 1046.28,124.459 1049.23,123.319 C1050.09,123.037 1050.93,122.741 1051.79,122.366 C1052.65,121.991 1053.6,121.506 1054.84,120.85 C1056.07,120.178 1057.12,119.616 1058.15,118.944 C1059.2,118.287 1060.15,117.522 1061.1,116.662 C1062.06,115.819 1062.81,114.866 1063.29,114.006 C1063.76,113.147 1064.04,112.303 1064.04,111.256 C1063.95,110.209 1063.57,109.162 1062.9,108.116 C1062.62,107.647 1062.15,107.35 1061.67,107.162 C1061.2,106.975 1060.62,106.881 1060.15,106.975 C1059.68,107.069 1059.2,107.256 1058.63,107.553 C1058.06,107.834 1057.49,108.116 1057.01,108.303 C1056.54,108.491 1056.07,108.787 1055.49,109.162 C1054.93,109.537 1054.54,109.834 1054.26,109.928 C1050.93,111.725 1047.71,112.678 1044.38,112.678 C1041.34,112.678 1038.4,111.912 1035.45,110.397 C1032.7,108.975 1030.13,107.35 1027.85,105.459 C1025.57,103.553 1023.85,101.459 1022.62,99.0843 C1021.59,96.9124 1020.73,94.6312 1020.24,92.2562 C1019.78,90.0687 1019.59,87.9749 1019.59,85.7874 L1019.59,85.0374 C1019.59,82.6624 1019.96,80.2874 1020.73,77.9124 C1021.48,75.5374 1022.43,73.3499 1023.67,71.4437 C1024.9,69.553 1026.62,67.8343 1028.6,66.4124 C1030.6,64.9905 1032.88,64.0374 1035.45,63.5687 C1036.03,63.3655 1036.68,63.2718 1037.35,63.2718 C1037.82,63.3655 1038.31,63.3655 1038.78,63.4593 C1040.01,63.6624 1041.34,63.9437 1042.67,64.3187 C1043.99,64.5999 1045.34,65.0843 1046.67,65.7405 L1050.65,67.4593 C1051.98,68.0218 1053.31,68.4124 1054.54,68.8812 C1055.78,69.3499 1057.01,69.553 1058.24,69.6468 C1058.63,69.7405 1059.01,69.7405 1059.29,69.7405 C1060.06,69.6468 1060.82,69.553 1061.48,69.4593 C1062.43,69.2562 1063.29,68.6937 1064.13,67.8343 C1064.99,66.9749 1065.76,65.9437 1066.23,64.5062 C1066.42,63.8499 1066.51,63.2718 1066.51,62.7093 C1066.62,62.2249 1066.51,61.7562 1066.32,61.2874 C1066.13,60.803 1065.85,60.428 1065.57,60.053 C1065.28,59.5687 1064.9,59.2874 1064.43,58.9124 C1063.95,58.5218 1063.57,58.1468 1063.2,57.8655 C1062.81,57.5843 1062.24,57.1937 1061.76,56.9124 C1055.87,53.2093 1050.46,51.3968 1045.43,51.3968 C1044.57,51.3968 1043.81,51.4905 1042.96,51.5843"/>
<path class="Harmony" d="M1348.11,51.7874 C1344.41,52.2562 1340.89,53.1155 1337.47,54.3499 C1334.05,55.5843 1330.91,57.2874 1327.88,59.2874 C1324.83,61.2874 1322.08,63.5687 1319.7,66.1312 C1317.33,68.6937 1315.33,71.6312 1313.63,74.9593 C1311.91,78.2874 1310.77,81.803 1310.11,85.5062 C1309.63,87.7874 1309.44,90.1624 1309.44,92.5374 L1309.44,93.2093 C1309.44,95.4749 1309.53,97.6624 1309.81,99.8499 C1310.11,102.225 1310.67,104.6 1311.44,106.787 C1312.3,109.069 1313.24,111.256 1314.28,113.241 C1315.33,115.241 1316.66,117.053 1318.19,118.662 C1319.7,120.272 1321.59,121.6 1323.5,122.741 C1325.41,123.881 1327.58,124.741 1329.95,125.225 C1331.58,125.506 1333.19,125.694 1334.81,125.694 C1335.66,125.694 1336.61,125.694 1337.66,125.6 C1340.59,125.319 1343.36,124.647 1345.92,123.694 C1348.49,122.741 1350.86,121.6 1352.86,120.272 C1354.84,118.944 1356.84,117.241 1358.66,115.334 C1360.45,113.444 1362.17,111.35 1363.59,109.256 C1365.02,107.162 1366.34,104.787 1367.77,102.131 C1369.95,97.7562 1371,94.053 1371,91.1155 C1371,88.1624 1369.95,85.8812 1367.77,84.2718 C1366.53,83.2249 1364.45,82.5687 1361.69,82.0843 C1359.7,81.803 1357.7,81.6155 1355.7,81.6155 L1355.24,81.6155 L1353.14,81.6155 C1350.2,81.7093 1347.44,82.178 1344.78,83.0374 C1342.13,83.8968 1340.31,84.9437 1339.36,86.178 C1339.08,86.6468 1338.8,87.0218 1338.52,87.4124 C1337.84,88.4593 1337.47,89.3968 1337.47,90.2562 C1337.47,91.4905 1338.33,92.3499 1339.94,92.8187 C1341.27,93.2093 1343.83,93.3968 1347.53,93.3968 L1348.39,93.3968 C1349.63,93.4905 1350.58,93.4905 1351.24,93.4905 C1355.14,93.4905 1357.52,93.9593 1358.27,95.0062 C1358.56,95.3812 1358.84,95.9593 1358.84,96.5218 C1358.84,97.0999 1358.75,97.6624 1358.66,98.2405 C1358.56,98.803 1358.27,99.4749 1357.99,100.225 C1357.7,100.991 1357.42,101.569 1357.13,102.037 C1356.84,102.506 1356.56,103.178 1356.19,103.944 C1355.8,104.694 1355.52,105.084 1355.42,105.272 C1354.95,106.116 1354.66,106.787 1354.38,107.256 C1354.09,107.741 1353.7,108.209 1353.24,108.881 C1352.77,109.537 1352.19,110.116 1351.72,110.491 C1349.72,112.006 1347.53,113.053 1344.97,113.537 L1341.74,113.912 L1341.36,113.912 C1340.13,113.819 1338.8,113.725 1337.56,113.444 C1335.19,112.959 1332.81,112.1 1330.63,110.772 C1328.44,109.444 1326.55,107.834 1325.11,105.928 C1323.69,103.944 1322.36,101.569 1321.41,98.8968 C1320.45,96.2405 1319.89,93.4905 1319.7,90.5374 C1319.61,89.4905 1319.61,88.553 1319.61,87.5062 C1319.61,85.5999 1319.7,83.7093 1319.99,81.8968 C1320.45,79.1468 1321.31,76.4749 1322.64,74.0062 C1323.97,71.5374 1325.69,69.553 1327.78,68.0218 C1330.34,66.0374 1333.47,64.5999 1337.08,63.6624 C1339.08,63.0843 1341.08,62.803 1342.97,62.803 C1344.31,62.803 1345.64,62.9905 1346.88,63.2718 C1347.92,63.5687 1348.95,63.9437 1350.2,64.5062 C1351.44,65.0843 1352.47,65.6468 1353.42,66.2249 C1354.38,66.7874 1355.42,67.3655 1356.47,67.928 C1357.52,68.5062 1358.56,68.9749 1359.5,69.1624 C1360.45,69.3499 1361.41,69.4593 1362.36,69.3499 C1363.31,69.2562 1364.25,68.7874 1365.2,67.928 C1366.16,67.0843 1367.02,65.9437 1367.86,64.5062 C1368.34,63.6624 1368.63,62.803 1368.63,61.9437 C1368.63,61.2874 1368.44,60.7093 1368.16,60.053 C1367.39,58.6155 1366.16,57.3812 1364.45,56.3343 C1362.74,55.303 1360.94,54.3499 1358.84,53.5843 C1356.75,52.8187 1354.75,52.3499 1352.77,52.0687 C1351.33,51.7874 1350.2,51.6937 1349.25,51.6937 C1348.77,51.6937 1348.39,51.6937 1348.11,51.7874"/>
<path class="Harmony" d="M1706.37,51.7874 C1702.66,52.2562 1699.15,53.1155 1695.73,54.3499 C1692.31,55.5843 1689.16,57.2874 1686.13,59.2874 C1683.09,61.2874 1680.34,63.5687 1677.96,66.1312 C1675.59,68.6937 1673.59,71.6312 1671.88,74.9593 C1670.16,78.2874 1669.02,81.803 1668.37,85.5062 C1667.88,87.7874 1667.7,90.1624 1667.7,92.5374 L1667.7,93.2093 C1667.7,95.4749 1667.79,97.6624 1668.07,99.8499 C1668.37,102.225 1668.93,104.6 1669.7,106.787 C1670.56,109.069 1671.49,111.256 1672.54,113.241 C1673.59,115.241 1674.91,117.053 1676.45,118.662 C1677.96,120.272 1679.85,121.6 1681.76,122.741 C1683.66,123.881 1685.84,124.741 1688.21,125.225 C1689.84,125.506 1691.45,125.694 1693.07,125.694 C1693.91,125.694 1694.87,125.694 1695.91,125.6 C1698.85,125.319 1701.62,124.647 1704.18,123.694 C1706.74,122.741 1709.12,121.6 1711.12,120.272 C1713.1,118.944 1715.1,117.241 1716.91,115.334 C1718.71,113.444 1720.43,111.35 1721.85,109.256 C1723.27,107.162 1724.6,104.787 1726.02,102.131 C1728.21,97.7562 1729.26,94.053 1729.26,91.1155 C1729.26,88.1624 1728.21,85.8812 1726.02,84.2718 C1724.79,83.2249 1722.71,82.5687 1719.95,82.0843 C1717.96,81.803 1715.96,81.6155 1713.96,81.6155 L1713.49,81.6155 L1711.4,81.6155 C1708.46,81.7093 1705.7,82.178 1703.04,83.0374 C1700.38,83.8968 1698.57,84.9437 1697.62,86.178 C1697.34,86.6468 1697.06,87.0218 1696.77,87.4124 C1696.1,88.4593 1695.73,89.3968 1695.73,90.2562 C1695.73,91.4905 1696.59,92.3499 1698.2,92.8187 C1699.52,93.2093 1702.09,93.3968 1705.79,93.3968 L1706.65,93.3968 C1707.88,93.4905 1708.84,93.4905 1709.49,93.4905 C1713.4,93.4905 1715.77,93.9593 1716.52,95.0062 C1716.82,95.3812 1717.1,95.9593 1717.1,96.5218 C1717.1,97.0999 1717.01,97.6624 1716.91,98.2405 C1716.82,98.803 1716.52,99.4749 1716.24,100.225 C1715.96,100.991 1715.68,101.569 1715.38,102.037 C1715.1,102.506 1714.82,103.178 1714.45,103.944 C1714.06,104.694 1713.77,105.084 1713.68,105.272 C1713.21,106.116 1712.91,106.787 1712.63,107.256 C1712.35,107.741 1711.96,108.209 1711.49,108.881 C1711.02,109.537 1710.45,110.116 1709.98,110.491 C1707.98,112.006 1705.79,113.053 1703.23,113.537 L1699.99,113.912 L1699.62,113.912 C1698.38,113.819 1697.06,113.725 1695.82,113.444 C1693.45,112.959 1691.07,112.1 1688.88,110.772 C1686.7,109.444 1684.81,107.834 1683.37,105.928 C1681.95,103.944 1680.62,101.569 1679.66,98.8968 C1678.71,96.2405 1678.15,93.4905 1677.96,90.5374 C1677.87,89.4905 1677.87,88.553 1677.87,87.5062 C1677.87,85.5999 1677.96,83.7093 1678.24,81.8968 C1678.71,79.1468 1679.57,76.4749 1680.9,74.0062 C1682.23,71.5374 1683.95,69.553 1686.04,68.0218 C1688.6,66.0374 1691.73,64.5999 1695.34,63.6624 C1697.34,63.0843 1699.34,62.803 1701.23,62.803 C1702.57,62.803 1703.9,62.9905 1705.13,63.2718 C1706.18,63.5687 1707.21,63.9437 1708.46,64.5062 C1709.7,65.0843 1710.73,65.6468 1711.68,66.2249 C1712.63,66.7874 1713.68,67.3655 1714.73,67.928 C1715.77,68.5062 1716.82,68.9749 1717.76,69.1624 C1718.71,69.3499 1719.66,69.4593 1720.62,69.3499 C1721.57,69.2562 1722.51,68.7874 1723.46,67.928 C1724.41,67.0843 1725.27,65.9437 1726.12,64.5062 C1726.6,63.6624 1726.88,62.803 1726.88,61.9437 C1726.88,61.2874 1726.7,60.7093 1726.41,60.053 C1725.65,58.6155 1724.41,57.3812 1722.71,56.3343 C1720.99,55.303 1719.2,54.3499 1717.1,53.5843 C1715.01,52.8187 1713.01,52.3499 1711.02,52.0687 C1709.59,51.7874 1708.46,51.6937 1707.51,51.6937 C1707.02,51.6937 1706.65,51.6937 1706.37,51.7874"/>
<path class="Harmony" d="M2344.93,51.3968 C2344.46,51.4905 2343.69,51.5843 2342.46,51.6937 C2341.23,51.7874 2340.27,51.9749 2339.62,52.0687 C2338.94,52.1624 2337.99,52.2562 2336.85,52.4437 C2335.71,52.6312 2334.87,52.928 2334.1,53.2093 C2333.33,53.4905 2332.49,53.8655 2331.73,54.3499 C2330.96,54.8187 2330.3,55.303 2329.82,55.9593 C2329.16,56.6312 2328.68,57.3812 2328.3,58.1468 C2327.93,58.9124 2327.65,59.8499 2327.54,60.803 C2327.44,61.4749 2327.44,62.1312 2327.44,62.803 L2327.44,63.3655 C2327.54,64.0374 2327.54,64.9905 2327.65,66.1312 C2327.74,67.2718 2327.74,68.2093 2327.74,68.8812 C2327.74,79.7093 2328.02,90.3499 2328.49,100.897 C2328.58,101.459 2328.58,102.037 2328.58,102.709 C2328.49,104.694 2328.4,107.35 2328.21,110.491 C2327.93,114.194 2327.74,116.959 2327.74,118.756 L2327.74,119.334 L2327.74,120.944 C2327.74,121.412 2327.93,121.897 2328.02,122.459 C2328.12,123.037 2328.3,123.506 2328.58,123.787 C2328.88,124.084 2329.16,124.366 2329.63,124.647 C2330.02,124.834 2330.49,124.928 2331.05,124.928 L2331.35,124.928 C2334.66,124.834 2337.99,124.178 2341.32,122.944 C2344.65,121.709 2347.79,120.178 2350.73,118.194 C2353.68,116.194 2356.43,113.819 2359.08,111.069 C2361.74,108.303 2364.02,105.459 2365.93,102.412 C2367.82,99.3812 2369.44,96.2405 2370.68,92.9124 C2371.91,89.5843 2372.57,86.2718 2372.77,83.1312 C2372.87,82.4593 2372.87,81.7093 2372.87,81.0374 C2372.87,79.2405 2372.68,77.3343 2372.29,75.4437 C2371.82,72.7718 2371.05,70.1155 2370.01,67.6468 C2368.96,65.178 2367.63,62.8968 2365.93,60.7093 C2364.21,58.5218 2362.32,56.7249 2360.23,55.2093 C2358.13,53.678 2355.85,52.5374 2353.19,51.8812 C2351.49,51.3968 2349.68,51.2093 2347.88,51.2093 C2346.93,51.2093 2345.98,51.303 2344.93,51.3968 M2339.04,112.772 C2339.04,110.022 2339.13,106.022 2339.23,100.897 C2339.32,96.8187 2339.41,92.9124 2339.41,89.3968 C2339.41,88.553 2339.32,87.6937 2339.32,86.8343 C2339.32,82.6624 2339.23,78.5687 2339.04,74.7718 C2339.04,74.303 2338.94,73.4437 2338.76,72.0218 C2338.57,70.5843 2338.29,69.2562 2338.18,68.0218 C2338.08,67.4593 2338.08,66.8812 2338.08,66.3187 C2338.08,65.6468 2338.08,65.0843 2338.18,64.4124 C2338.38,63.178 2338.76,62.2249 2339.41,61.7562 C2340.27,61.0843 2341.23,60.803 2342.27,60.803 C2342.55,60.8968 2342.83,60.8968 2343.13,60.8968 C2344.55,61.0843 2346.07,61.5687 2347.68,62.428 C2349.3,63.2718 2350.82,64.4124 2352.24,65.553 C2353.68,66.6937 2355.01,67.8343 2356.05,68.9749 C2357.08,70.1155 2357.94,70.9749 2358.43,71.8343 C2359.94,74.303 2360.99,77.053 2361.55,80.0843 C2361.83,81.803 2362.04,83.5062 2362.04,85.2249 C2362.04,86.4593 2361.93,87.6937 2361.83,88.928 C2361.37,91.8655 2360.51,94.7249 2359.27,97.4749 C2358.04,100.225 2356.43,102.709 2354.52,104.881 C2352.54,107.069 2350.26,108.787 2347.58,110.209 C2344.93,111.631 2342.08,112.491 2339.04,112.772"/>
<path class="Harmony" d="M208.533,361.827 C204.83,362.296 201.314,363.155 197.892,364.389 C194.47,365.624 191.33,367.327 188.298,369.327 C185.252,371.327 182.502,373.608 180.127,376.171 C177.752,378.733 175.752,381.671 174.048,384.999 C172.33,388.327 171.189,391.842 170.533,395.546 C170.048,397.827 169.861,400.202 169.861,402.577 L169.861,403.249 C169.861,405.514 169.955,407.702 170.236,409.889 C170.533,412.264 171.095,414.639 171.861,416.827 C172.72,419.108 173.658,421.296 174.705,423.28 C175.752,425.28 177.08,427.092 178.611,428.702 C180.127,430.311 182.017,431.639 183.923,432.78 C185.83,433.921 188.002,434.78 190.377,435.264 C192.002,435.546 193.611,435.733 195.236,435.733 C196.08,435.733 197.033,435.733 198.08,435.639 C201.017,435.358 203.783,434.686 206.345,433.733 C208.908,432.78 211.283,431.639 213.283,430.311 C215.267,428.983 217.267,427.28 219.08,425.374 C220.877,423.483 222.595,421.389 224.017,419.296 C225.439,417.202 226.767,414.827 228.189,412.171 C230.377,407.796 231.423,404.092 231.423,401.155 C231.423,398.202 230.377,395.921 228.189,394.311 C226.955,393.264 224.877,392.608 222.111,392.124 C220.127,391.842 218.127,391.655 216.127,391.655 L215.658,391.655 L213.564,391.655 C210.627,391.749 207.861,392.217 205.205,393.077 C202.548,393.936 200.736,394.983 199.783,396.217 C199.502,396.686 199.22,397.061 198.939,397.452 C198.267,398.499 197.892,399.436 197.892,400.296 C197.892,401.53 198.752,402.389 200.361,402.858 C201.689,403.249 204.252,403.436 207.955,403.436 L208.814,403.436 C210.048,403.53 211.002,403.53 211.658,403.53 C215.564,403.53 217.939,403.999 218.689,405.046 C218.986,405.421 219.267,405.999 219.267,406.561 C219.267,407.139 219.173,407.702 219.08,408.28 C218.986,408.842 218.689,409.514 218.408,410.264 C218.127,411.03 217.845,411.608 217.548,412.077 C217.267,412.546 216.986,413.217 216.611,413.983 C216.22,414.733 215.939,415.124 215.845,415.311 C215.377,416.155 215.08,416.827 214.798,417.296 C214.517,417.78 214.127,418.249 213.658,418.921 C213.189,419.577 212.611,420.155 212.142,420.53 C210.142,422.046 207.955,423.092 205.392,423.577 L202.158,423.952 L201.783,423.952 C200.548,423.858 199.22,423.764 197.986,423.483 C195.611,422.999 193.236,422.139 191.048,420.811 C188.861,419.483 186.97,417.874 185.533,415.967 C184.111,413.983 182.783,411.608 181.83,408.936 C180.877,406.28 180.314,403.53 180.127,400.577 C180.033,399.53 180.033,398.592 180.033,397.546 C180.033,395.639 180.127,393.749 180.408,391.936 C180.877,389.186 181.736,386.514 183.064,384.046 C184.392,381.577 186.111,379.592 188.205,378.061 C190.767,376.077 193.892,374.639 197.502,373.702 C199.502,373.124 201.502,372.842 203.392,372.842 C204.736,372.842 206.064,373.03 207.298,373.311 C208.345,373.608 209.377,373.983 210.627,374.546 C211.861,375.124 212.892,375.686 213.845,376.264 C214.798,376.827 215.845,377.405 216.892,377.967 C217.939,378.546 218.986,379.014 219.923,379.202 C220.877,379.389 221.83,379.499 222.783,379.389 C223.736,379.296 224.673,378.827 225.627,377.967 C226.58,377.124 227.439,375.983 228.283,374.546 C228.767,373.702 229.048,372.842 229.048,371.983 C229.048,371.327 228.861,370.749 228.58,370.092 C227.814,368.655 226.58,367.421 224.877,366.374 C223.158,365.342 221.361,364.389 219.267,363.624 C217.173,362.858 215.173,362.389 213.189,362.108 C211.752,361.827 210.627,361.733 209.673,361.733 C209.189,361.733 208.814,361.733 208.533,361.827"/>
<path class="Harmony" d="M898.218,361.624 C894.983,362.108 891.749,363.061 888.624,364.577 C885.483,366.092 882.624,367.999 880.061,370.28 C877.499,372.561 875.124,375.124 872.936,378.061 C870.749,381.014 869.046,384.046 867.624,387.186 C866.202,390.327 865.249,393.639 864.671,397.155 C864.389,399.061 864.202,400.967 864.202,402.764 C864.202,404.28 864.296,405.811 864.483,407.233 C864.968,410.171 865.811,413.124 867.139,415.874 C868.483,418.639 869.999,421.202 871.889,423.577 C873.796,425.952 876.171,427.936 878.733,429.749 C881.296,431.546 883.858,432.889 886.624,433.827 C889.186,434.686 891.843,435.155 894.796,435.155 L895.077,435.155 L895.358,435.155 C898.499,435.061 901.53,434.499 904.483,433.358 C905.343,433.077 906.186,432.78 907.046,432.405 C907.905,432.03 908.858,431.546 910.093,430.889 C911.327,430.217 912.374,429.655 913.405,428.983 C914.452,428.327 915.405,427.561 916.358,426.702 C917.311,425.858 918.061,424.905 918.546,424.046 C919.014,423.186 919.296,422.342 919.296,421.296 C919.202,420.249 918.827,419.202 918.155,418.155 C917.874,417.686 917.405,417.389 916.921,417.202 C916.452,417.014 915.874,416.921 915.405,417.014 C914.936,417.108 914.452,417.296 913.889,417.592 C913.311,417.874 912.749,418.155 912.264,418.342 C911.796,418.53 911.327,418.827 910.749,419.202 C910.186,419.577 909.796,419.874 909.514,419.967 C906.186,421.764 902.968,422.717 899.639,422.717 C896.593,422.717 893.655,421.952 890.702,420.436 C887.952,419.014 885.389,417.389 883.108,415.499 C880.827,413.592 879.108,411.499 877.874,409.124 C876.843,406.952 875.983,404.671 875.499,402.296 C875.03,400.108 874.843,398.014 874.843,395.827 L874.843,395.077 C874.843,392.702 875.218,390.327 875.983,387.952 C876.733,385.577 877.686,383.389 878.921,381.483 C880.155,379.592 881.874,377.874 883.858,376.452 C885.858,375.03 888.139,374.077 890.702,373.608 C891.28,373.405 891.936,373.311 892.608,373.311 C893.077,373.405 893.561,373.405 894.03,373.499 C895.264,373.702 896.593,373.983 897.921,374.358 C899.249,374.639 900.593,375.124 901.921,375.78 L905.905,377.499 C907.233,378.061 908.561,378.452 909.796,378.921 C911.03,379.389 912.264,379.592 913.499,379.686 C913.889,379.78 914.264,379.78 914.546,379.78 C915.311,379.686 916.077,379.592 916.733,379.499 C917.686,379.296 918.546,378.733 919.389,377.874 C920.249,377.014 921.014,375.983 921.483,374.546 C921.671,373.889 921.764,373.311 921.764,372.749 C921.874,372.264 921.764,371.796 921.577,371.327 C921.389,370.842 921.108,370.467 920.827,370.092 C920.53,369.608 920.155,369.327 919.686,368.952 C919.202,368.561 918.827,368.186 918.452,367.905 C918.061,367.624 917.499,367.233 917.014,366.952 C911.124,363.249 905.718,361.436 900.686,361.436 C899.827,361.436 899.061,361.53 898.218,361.624"/>
<path class="Harmony" d="M1220.44,361.827 C1216.74,362.296 1213.22,363.155 1209.8,364.389 C1206.38,365.624 1203.24,367.327 1200.21,369.327 C1197.16,371.327 1194.41,373.608 1192.04,376.171 C1189.66,378.733 1187.66,381.671 1185.96,384.999 C1184.24,388.327 1183.1,391.842 1182.44,395.546 C1181.96,397.827 1181.77,400.202 1181.77,402.577 L1181.77,403.249 C1181.77,405.514 1181.86,407.702 1182.15,409.889 C1182.44,412.264 1183.01,414.639 1183.77,416.827 C1184.63,419.108 1185.57,421.296 1186.61,423.28 C1187.66,425.28 1188.99,427.092 1190.52,428.702 C1192.04,430.311 1193.93,431.639 1195.83,432.78 C1197.74,433.921 1199.91,434.78 1202.29,435.264 C1203.91,435.546 1205.52,435.733 1207.15,435.733 C1207.99,435.733 1208.94,435.733 1209.99,435.639 C1212.93,435.358 1215.69,434.686 1218.26,433.733 C1220.82,432.78 1223.19,431.639 1225.19,430.311 C1227.18,428.983 1229.18,427.28 1230.99,425.374 C1232.79,423.483 1234.51,421.389 1235.93,419.296 C1237.35,417.202 1238.68,414.827 1240.1,412.171 C1242.29,407.796 1243.33,404.092 1243.33,401.155 C1243.33,398.202 1242.29,395.921 1240.1,394.311 C1238.86,393.264 1236.79,392.608 1234.02,392.124 C1232.04,391.842 1230.04,391.655 1228.04,391.655 L1227.57,391.655 L1225.47,391.655 C1222.54,391.749 1219.77,392.217 1217.11,393.077 C1214.46,393.936 1212.65,394.983 1211.69,396.217 C1211.41,396.686 1211.13,397.061 1210.85,397.452 C1210.18,398.499 1209.8,399.436 1209.8,400.296 C1209.8,401.53 1210.66,402.389 1212.27,402.858 C1213.6,403.249 1216.16,403.436 1219.86,403.436 L1220.72,403.436 C1221.96,403.53 1222.91,403.53 1223.57,403.53 C1227.47,403.53 1229.85,403.999 1230.6,405.046 C1230.9,405.421 1231.18,405.999 1231.18,406.561 C1231.18,407.139 1231.08,407.702 1230.99,408.28 C1230.9,408.842 1230.6,409.514 1230.32,410.264 C1230.04,411.03 1229.76,411.608 1229.46,412.077 C1229.18,412.546 1228.9,413.217 1228.52,413.983 C1228.13,414.733 1227.85,415.124 1227.76,415.311 C1227.29,416.155 1226.99,416.827 1226.71,417.296 C1226.43,417.78 1226.04,418.249 1225.57,418.921 C1225.1,419.577 1224.52,420.155 1224.05,420.53 C1222.05,422.046 1219.86,423.092 1217.3,423.577 L1214.07,423.952 L1213.69,423.952 C1212.46,423.858 1211.13,423.764 1209.9,423.483 C1207.52,422.999 1205.15,422.139 1202.96,420.811 C1200.77,419.483 1198.88,417.874 1197.44,415.967 C1196.02,413.983 1194.69,411.608 1193.74,408.936 C1192.79,406.28 1192.22,403.53 1192.04,400.577 C1191.94,399.53 1191.94,398.592 1191.94,397.546 C1191.94,395.639 1192.04,393.749 1192.32,391.936 C1192.79,389.186 1193.65,386.514 1194.97,384.046 C1196.3,381.577 1198.02,379.592 1200.11,378.061 C1202.68,376.077 1205.8,374.639 1209.41,373.702 C1211.41,373.124 1213.41,372.842 1215.3,372.842 C1216.65,372.842 1217.97,373.03 1219.21,373.311 C1220.26,373.608 1221.29,373.983 1222.54,374.546 C1223.77,375.124 1224.8,375.686 1225.76,376.264 C1226.71,376.827 1227.76,377.405 1228.8,377.967 C1229.85,378.546 1230.9,379.014 1231.83,379.202 C1232.79,379.389 1233.74,379.499 1234.69,379.389 C1235.65,379.296 1236.58,378.827 1237.54,377.967 C1238.49,377.124 1239.35,375.983 1240.19,374.546 C1240.68,373.702 1240.96,372.842 1240.96,371.983 C1240.96,371.327 1240.77,370.749 1240.49,370.092 C1239.72,368.655 1238.49,367.421 1236.79,366.374 C1235.07,365.342 1233.27,364.389 1231.18,363.624 C1229.08,362.858 1227.08,362.389 1225.1,362.108 C1223.66,361.827 1222.54,361.733 1221.58,361.733 C1221.1,361.733 1220.72,361.733 1220.44,361.827"/>
<path class="Harmony" d="M1595.78,361.827 C1592.07,362.296 1588.56,363.155 1585.14,364.389 C1581.71,365.624 1578.57,367.327 1575.54,369.327 C1572.5,371.327 1569.75,373.608 1567.37,376.171 C1565,378.733 1563,381.671 1561.29,384.999 C1559.57,388.327 1558.43,391.842 1557.78,395.546 C1557.29,397.827 1557.11,400.202 1557.11,402.577 L1557.11,403.249 C1557.11,405.514 1557.2,407.702 1557.48,409.889 C1557.78,412.264 1558.34,414.639 1559.11,416.827 C1559.96,419.108 1560.9,421.296 1561.95,423.28 C1563,425.28 1564.32,427.092 1565.86,428.702 C1567.37,430.311 1569.26,431.639 1571.17,432.78 C1573.07,433.921 1575.25,434.78 1577.62,435.264 C1579.25,435.546 1580.86,435.733 1582.48,435.733 C1583.32,435.733 1584.28,435.733 1585.32,435.639 C1588.26,435.358 1591.03,434.686 1593.59,433.733 C1596.15,432.78 1598.53,431.639 1600.53,430.311 C1602.51,428.983 1604.51,427.28 1606.32,425.374 C1608.12,423.483 1609.84,421.389 1611.26,419.296 C1612.68,417.202 1614.01,414.827 1615.43,412.171 C1617.62,407.796 1618.67,404.092 1618.67,401.155 C1618.67,398.202 1617.62,395.921 1615.43,394.311 C1614.2,393.264 1612.12,392.608 1609.36,392.124 C1607.37,391.842 1605.37,391.655 1603.37,391.655 L1602.9,391.655 L1600.81,391.655 C1597.87,391.749 1595.11,392.217 1592.45,393.077 C1589.79,393.936 1587.98,394.983 1587.03,396.217 C1586.75,396.686 1586.46,397.061 1586.18,397.452 C1585.51,398.499 1585.14,399.436 1585.14,400.296 C1585.14,401.53 1586,402.389 1587.61,402.858 C1588.93,403.249 1591.5,403.436 1595.2,403.436 L1596.06,403.436 C1597.29,403.53 1598.25,403.53 1598.9,403.53 C1602.81,403.53 1605.18,403.999 1605.93,405.046 C1606.23,405.421 1606.51,405.999 1606.51,406.561 C1606.51,407.139 1606.42,407.702 1606.32,408.28 C1606.23,408.842 1605.93,409.514 1605.65,410.264 C1605.37,411.03 1605.09,411.608 1604.79,412.077 C1604.51,412.546 1604.23,413.217 1603.86,413.983 C1603.46,414.733 1603.18,415.124 1603.09,415.311 C1602.62,416.155 1602.32,416.827 1602.04,417.296 C1601.76,417.78 1601.37,418.249 1600.9,418.921 C1600.43,419.577 1599.86,420.155 1599.39,420.53 C1597.39,422.046 1595.2,423.092 1592.64,423.577 L1589.4,423.952 L1589.03,423.952 C1587.79,423.858 1586.46,423.764 1585.23,423.483 C1582.86,422.999 1580.48,422.139 1578.29,420.811 C1576.11,419.483 1574.21,417.874 1572.78,415.967 C1571.36,413.983 1570.03,411.608 1569.07,408.936 C1568.12,406.28 1567.56,403.53 1567.37,400.577 C1567.28,399.53 1567.28,398.592 1567.28,397.546 C1567.28,395.639 1567.37,393.749 1567.65,391.936 C1568.12,389.186 1568.98,386.514 1570.31,384.046 C1571.64,381.577 1573.36,379.592 1575.45,378.061 C1578.01,376.077 1581.14,374.639 1584.75,373.702 C1586.75,373.124 1588.75,372.842 1590.64,372.842 C1591.98,372.842 1593.31,373.03 1594.54,373.311 C1595.59,373.608 1596.62,373.983 1597.87,374.546 C1599.11,375.124 1600.14,375.686 1601.09,376.264 C1602.04,376.827 1603.09,377.405 1604.14,377.967 C1605.18,378.546 1606.23,379.014 1607.17,379.202 C1608.12,379.389 1609.07,379.499 1610.03,379.389 C1610.98,379.296 1611.92,378.827 1612.87,377.967 C1613.82,377.124 1614.68,375.983 1615.53,374.546 C1616.01,373.702 1616.29,372.842 1616.29,371.983 C1616.29,371.327 1616.11,370.749 1615.82,370.092 C1615.06,368.655 1613.82,367.421 1612.12,366.374 C1610.4,365.342 1608.61,364.389 1606.51,363.624 C1604.42,362.858 1602.42,362.389 1600.43,362.108 C1599,361.827 1597.87,361.733 1596.92,361.733 C1596.43,361.733 1596.06,361.733 1595.78,361.827"/>
<path class="Harmony" d="M2268.49,361.436 C2268.02,361.53 2267.26,361.624 2266.02,361.733 C2264.79,361.827 2263.84,362.014 2263.18,362.108 C2262.51,362.202 2261.56,362.296 2260.42,362.483 C2259.27,362.671 2258.43,362.967 2257.67,363.249 C2256.9,363.53 2256.06,363.905 2255.29,364.389 C2254.52,364.858 2253.87,365.342 2253.38,365.999 C2252.73,366.671 2252.24,367.421 2251.87,368.186 C2251.49,368.952 2251.21,369.889 2251.1,370.842 C2251.01,371.514 2251.01,372.171 2251.01,372.842 L2251.01,373.405 C2251.1,374.077 2251.1,375.03 2251.21,376.171 C2251.31,377.311 2251.31,378.249 2251.31,378.921 C2251.31,389.749 2251.59,400.389 2252.06,410.936 C2252.15,411.499 2252.15,412.077 2252.15,412.749 C2252.06,414.733 2251.96,417.389 2251.77,420.53 C2251.49,424.233 2251.31,426.999 2251.31,428.796 L2251.31,429.374 L2251.31,430.983 C2251.31,431.452 2251.49,431.936 2251.59,432.499 C2251.68,433.077 2251.87,433.546 2252.15,433.827 C2252.45,434.124 2252.73,434.405 2253.2,434.686 C2253.59,434.874 2254.06,434.967 2254.62,434.967 L2254.92,434.967 C2258.23,434.874 2261.56,434.217 2264.88,432.983 C2268.21,431.749 2271.35,430.217 2274.29,428.233 C2277.24,426.233 2279.99,423.858 2282.65,421.108 C2285.31,418.342 2287.59,415.499 2289.49,412.452 C2291.38,409.421 2293.01,406.28 2294.24,402.952 C2295.48,399.624 2296.13,396.311 2296.34,393.171 C2296.43,392.499 2296.43,391.749 2296.43,391.077 C2296.43,389.28 2296.24,387.374 2295.85,385.483 C2295.38,382.811 2294.62,380.155 2293.57,377.686 C2292.52,375.217 2291.2,372.936 2289.49,370.749 C2287.77,368.561 2285.88,366.764 2283.79,365.249 C2281.7,363.717 2279.42,362.577 2276.76,361.921 C2275.06,361.436 2273.24,361.249 2271.45,361.249 C2270.49,361.249 2269.54,361.342 2268.49,361.436 M2262.6,422.811 C2262.6,420.061 2262.7,416.061 2262.79,410.936 C2262.88,406.858 2262.98,402.952 2262.98,399.436 C2262.98,398.592 2262.88,397.733 2262.88,396.874 C2262.88,392.702 2262.79,388.608 2262.6,384.811 C2262.6,384.342 2262.51,383.483 2262.32,382.061 C2262.13,380.624 2261.85,379.296 2261.74,378.061 C2261.65,377.499 2261.65,376.921 2261.65,376.358 C2261.65,375.686 2261.65,375.124 2261.74,374.452 C2261.95,373.217 2262.32,372.264 2262.98,371.796 C2263.84,371.124 2264.79,370.842 2265.84,370.842 C2266.12,370.936 2266.4,370.936 2266.7,370.936 C2268.12,371.124 2269.63,371.608 2271.24,372.467 C2272.87,373.311 2274.38,374.452 2275.81,375.592 C2277.24,376.733 2278.57,377.874 2279.62,379.014 C2280.65,380.155 2281.51,381.014 2281.99,381.874 C2283.51,384.342 2284.56,387.092 2285.12,390.124 C2285.4,391.842 2285.6,393.546 2285.6,395.264 C2285.6,396.499 2285.49,397.733 2285.4,398.967 C2284.93,401.905 2284.07,404.764 2282.84,407.514 C2281.6,410.264 2279.99,412.749 2278.09,414.921 C2276.1,417.108 2273.82,418.827 2271.15,420.249 C2268.49,421.671 2265.65,422.53 2262.6,422.811"/>
<path class="Harmony" d="M2607.69,361.827 C2603.98,362.296 2600.47,363.155 2597.05,364.389 C2593.62,365.624 2590.48,367.327 2587.45,369.327 C2584.41,371.327 2581.66,373.608 2579.28,376.171 C2576.91,378.733 2574.91,381.671 2573.2,384.999 C2571.48,388.327 2570.34,391.842 2569.69,395.546 C2569.2,397.827 2569.02,400.202 2569.02,402.577 L2569.02,403.249 C2569.02,405.514 2569.11,407.702 2569.39,409.889 C2569.69,412.264 2570.25,414.639 2571.02,416.827 C2571.87,419.108 2572.81,421.296 2573.86,423.28 C2574.91,425.28 2576.23,427.092 2577.77,428.702 C2579.28,430.311 2581.17,431.639 2583.08,432.78 C2584.98,433.921 2587.16,434.78 2589.53,435.264 C2591.16,435.546 2592.77,435.733 2594.39,435.733 C2595.23,435.733 2596.19,435.733 2597.23,435.639 C2600.17,435.358 2602.94,434.686 2605.5,433.733 C2608.06,432.78 2610.44,431.639 2612.44,430.311 C2614.42,428.983 2616.42,427.28 2618.23,425.374 C2620.03,423.483 2621.75,421.389 2623.17,419.296 C2624.59,417.202 2625.92,414.827 2627.34,412.171 C2629.53,407.796 2630.58,404.092 2630.58,401.155 C2630.58,398.202 2629.53,395.921 2627.34,394.311 C2626.11,393.264 2624.03,392.608 2621.27,392.124 C2619.28,391.842 2617.28,391.655 2615.28,391.655 L2614.81,391.655 L2612.72,391.655 C2609.78,391.749 2607.02,392.217 2604.36,393.077 C2601.7,393.936 2599.89,394.983 2598.94,396.217 C2598.66,396.686 2598.37,397.061 2598.09,397.452 C2597.42,398.499 2597.05,399.436 2597.05,400.296 C2597.05,401.53 2597.91,402.389 2599.52,402.858 C2600.84,403.249 2603.41,403.436 2607.11,403.436 L2607.97,403.436 C2609.2,403.53 2610.16,403.53 2610.81,403.53 C2614.72,403.53 2617.09,403.999 2617.84,405.046 C2618.14,405.421 2618.42,405.999 2618.42,406.561 C2618.42,407.139 2618.33,407.702 2618.23,408.28 C2618.14,408.842 2617.84,409.514 2617.56,410.264 C2617.28,411.03 2617,411.608 2616.7,412.077 C2616.42,412.546 2616.14,413.217 2615.77,413.983 C2615.37,414.733 2615.09,415.124 2615,415.311 C2614.53,416.155 2614.23,416.827 2613.95,417.296 C2613.67,417.78 2613.28,418.249 2612.81,418.921 C2612.34,419.577 2611.77,420.155 2611.3,420.53 C2609.3,422.046 2607.11,423.092 2604.55,423.577 L2601.31,423.952 L2600.94,423.952 C2599.7,423.858 2598.37,423.764 2597.14,423.483 C2594.77,422.999 2592.39,422.139 2590.2,420.811 C2588.02,419.483 2586.12,417.874 2584.69,415.967 C2583.27,413.983 2581.94,411.608 2580.98,408.936 C2580.03,406.28 2579.47,403.53 2579.28,400.577 C2579.19,399.53 2579.19,398.592 2579.19,397.546 C2579.19,395.639 2579.28,393.749 2579.56,391.936 C2580.03,389.186 2580.89,386.514 2582.22,384.046 C2583.55,381.577 2585.27,379.592 2587.36,378.061 C2589.92,376.077 2593.05,374.639 2596.66,373.702 C2598.66,373.124 2600.66,372.842 2602.55,372.842 C2603.89,372.842 2605.22,373.03 2606.45,373.311 C2607.5,373.608 2608.53,373.983 2609.78,374.546 C2611.02,375.124 2612.05,375.686 2613,376.264 C2613.95,376.827 2615,377.405 2616.05,377.967 C2617.09,378.546 2618.14,379.014 2619.08,379.202 C2620.03,379.389 2620.98,379.499 2621.94,379.389 C2622.89,379.296 2623.83,378.827 2624.78,377.967 C2625.73,377.124 2626.59,375.983 2627.44,374.546 C2627.92,373.702 2628.2,372.842 2628.2,371.983 C2628.2,371.327 2628.02,370.749 2627.73,370.092 C2626.97,368.655 2625.73,367.421 2624.03,366.374 C2622.31,365.342 2620.52,364.389 2618.42,363.624 C2616.33,362.858 2614.33,362.389 2612.34,362.108 C2610.91,361.827 2609.78,361.733 2608.83,361.733 C2608.34,361.733 2607.97,361.733 2607.69,361.827"/>
<path class="Harmony" d="M204.595,679.206 C201.361,679.69 198.127,680.643 195.002,682.159 C191.861,683.675 189.002,685.581 186.439,687.862 C183.877,690.143 181.502,692.706 179.314,695.643 C177.127,698.596 175.423,701.628 174.002,704.768 C172.58,707.909 171.627,711.221 171.048,714.737 C170.767,716.643 170.58,718.55 170.58,720.346 C170.58,721.862 170.673,723.393 170.861,724.815 C171.345,727.753 172.189,730.706 173.517,733.456 C174.861,736.221 176.377,738.784 178.267,741.159 C180.173,743.534 182.548,745.518 185.111,747.331 C187.673,749.128 190.236,750.471 193.002,751.409 C195.564,752.268 198.22,752.737 201.173,752.737 L201.455,752.737 L201.736,752.737 C204.877,752.643 207.908,752.081 210.861,750.94 C211.72,750.659 212.564,750.362 213.423,749.987 C214.283,749.612 215.236,749.128 216.47,748.471 C217.705,747.8 218.752,747.237 219.783,746.565 C220.83,745.909 221.783,745.143 222.736,744.284 C223.689,743.44 224.439,742.487 224.923,741.628 C225.392,740.768 225.673,739.925 225.673,738.878 C225.58,737.831 225.205,736.784 224.533,735.737 C224.252,735.268 223.783,734.971 223.298,734.784 C222.83,734.596 222.252,734.503 221.783,734.596 C221.314,734.69 220.83,734.878 220.267,735.175 C219.689,735.456 219.127,735.737 218.642,735.925 C218.173,736.112 217.705,736.409 217.127,736.784 C216.564,737.159 216.173,737.456 215.892,737.55 C212.564,739.346 209.345,740.3 206.017,740.3 C202.97,740.3 200.033,739.534 197.08,738.018 C194.33,736.596 191.767,734.971 189.486,733.081 C187.205,731.175 185.486,729.081 184.252,726.706 C183.22,724.534 182.361,722.253 181.877,719.878 C181.408,717.69 181.22,715.596 181.22,713.409 L181.22,712.659 C181.22,710.284 181.595,707.909 182.361,705.534 C183.111,703.159 184.064,700.971 185.298,699.065 C186.533,697.175 188.252,695.456 190.236,694.034 C192.236,692.612 194.517,691.659 197.08,691.19 C197.658,690.987 198.314,690.893 198.986,690.893 C199.455,690.987 199.939,690.987 200.408,691.081 C201.642,691.284 202.97,691.565 204.298,691.94 C205.627,692.221 206.97,692.706 208.298,693.362 L212.283,695.081 C213.611,695.643 214.939,696.034 216.173,696.503 C217.408,696.971 218.642,697.175 219.877,697.268 C220.267,697.362 220.642,697.362 220.923,697.362 C221.689,697.268 222.455,697.175 223.111,697.081 C224.064,696.878 224.923,696.315 225.767,695.456 C226.627,694.596 227.392,693.565 227.861,692.128 C228.048,691.471 228.142,690.893 228.142,690.331 C228.252,689.846 228.142,689.378 227.955,688.909 C227.767,688.425 227.486,688.05 227.205,687.675 C226.908,687.19 226.533,686.909 226.064,686.534 C225.58,686.143 225.205,685.768 224.83,685.487 C224.439,685.206 223.877,684.815 223.392,684.534 C217.502,680.831 212.095,679.018 207.064,679.018 C206.205,679.018 205.439,679.112 204.595,679.206"/>
<path class="Harmony" d="M912.725,679.409 C909.022,679.878 905.506,680.737 902.084,681.971 C898.663,683.206 895.522,684.909 892.491,686.909 C889.444,688.909 886.694,691.19 884.319,693.753 C881.944,696.315 879.944,699.253 878.241,702.581 C876.522,705.909 875.381,709.425 874.725,713.128 C874.241,715.409 874.053,717.784 874.053,720.159 L874.053,720.831 C874.053,723.096 874.147,725.284 874.428,727.471 C874.725,729.846 875.288,732.221 876.053,734.409 C876.913,736.69 877.85,738.878 878.897,740.862 C879.944,742.862 881.272,744.675 882.803,746.284 C884.319,747.893 886.209,749.221 888.116,750.362 C890.022,751.503 892.194,752.362 894.569,752.846 C896.194,753.128 897.803,753.315 899.428,753.315 C900.272,753.315 901.225,753.315 902.272,753.221 C905.209,752.94 907.975,752.268 910.538,751.315 C913.1,750.362 915.475,749.221 917.475,747.893 C919.459,746.565 921.459,744.862 923.272,742.956 C925.069,741.065 926.788,738.971 928.209,736.878 C929.631,734.784 930.959,732.409 932.381,729.753 C934.569,725.378 935.616,721.675 935.616,718.737 C935.616,715.784 934.569,713.503 932.381,711.893 C931.147,710.846 929.069,710.19 926.303,709.706 C924.319,709.425 922.319,709.237 920.319,709.237 L919.85,709.237 L917.756,709.237 C914.819,709.331 912.053,709.8 909.397,710.659 C906.741,711.518 904.928,712.565 903.975,713.8 C903.694,714.268 903.413,714.643 903.131,715.034 C902.459,716.081 902.084,717.018 902.084,717.878 C902.084,719.112 902.944,719.971 904.553,720.44 C905.881,720.831 908.444,721.018 912.147,721.018 L913.006,721.018 C914.241,721.112 915.194,721.112 915.85,721.112 C919.756,721.112 922.131,721.581 922.881,722.628 C923.178,723.003 923.459,723.581 923.459,724.143 C923.459,724.721 923.366,725.284 923.272,725.862 C923.178,726.425 922.881,727.096 922.6,727.846 C922.319,728.612 922.038,729.19 921.741,729.659 C921.459,730.128 921.178,730.8 920.803,731.565 C920.413,732.315 920.131,732.706 920.038,732.893 C919.569,733.737 919.272,734.409 918.991,734.878 C918.709,735.362 918.319,735.831 917.85,736.503 C917.381,737.159 916.803,737.737 916.334,738.112 C914.334,739.628 912.147,740.675 909.584,741.159 L906.35,741.534 L905.975,741.534 C904.741,741.44 903.413,741.346 902.178,741.065 C899.803,740.581 897.428,739.721 895.241,738.393 C893.053,737.065 891.163,735.456 889.725,733.55 C888.303,731.565 886.975,729.19 886.022,726.518 C885.069,723.862 884.506,721.112 884.319,718.159 C884.225,717.112 884.225,716.175 884.225,715.128 C884.225,713.221 884.319,711.331 884.6,709.518 C885.069,706.768 885.928,704.096 887.256,701.628 C888.584,699.159 890.303,697.175 892.397,695.643 C894.959,693.659 898.084,692.221 901.694,691.284 C903.694,690.706 905.694,690.425 907.584,690.425 C908.928,690.425 910.256,690.612 911.491,690.893 C912.538,691.19 913.569,691.565 914.819,692.128 C916.053,692.706 917.084,693.268 918.038,693.846 C918.991,694.409 920.038,694.987 921.084,695.55 C922.131,696.128 923.178,696.596 924.116,696.784 C925.069,696.971 926.022,697.081 926.975,696.971 C927.928,696.878 928.866,696.409 929.819,695.55 C930.772,694.706 931.631,693.565 932.475,692.128 C932.959,691.284 933.241,690.425 933.241,689.565 C933.241,688.909 933.053,688.331 932.772,687.675 C932.006,686.237 930.772,685.003 929.069,683.956 C927.35,682.925 925.553,681.971 923.459,681.206 C921.366,680.44 919.366,679.971 917.381,679.69 C915.944,679.409 914.819,679.315 913.866,679.315 C913.381,679.315 913.006,679.315 912.725,679.409"/>
<path class="Harmony" d="M1612.98,679.206 C1609.75,679.69 1606.51,680.643 1603.39,682.159 C1600.25,683.675 1597.39,685.581 1594.82,687.862 C1592.26,690.143 1589.89,692.706 1587.7,695.643 C1585.51,698.596 1583.81,701.628 1582.39,704.768 C1580.96,707.909 1580.01,711.221 1579.43,714.737 C1579.15,716.643 1578.96,718.55 1578.96,720.346 C1578.96,721.862 1579.06,723.393 1579.25,724.815 C1579.73,727.753 1580.57,730.706 1581.9,733.456 C1583.25,736.221 1584.76,738.784 1586.65,741.159 C1588.56,743.534 1590.93,745.518 1593.5,747.331 C1596.06,749.128 1598.62,750.471 1601.39,751.409 C1603.95,752.268 1606.6,752.737 1609.56,752.737 L1609.84,752.737 L1610.12,752.737 C1613.26,752.643 1616.29,752.081 1619.25,750.94 C1620.1,750.659 1620.95,750.362 1621.81,749.987 C1622.67,749.612 1623.62,749.128 1624.85,748.471 C1626.09,747.8 1627.14,747.237 1628.17,746.565 C1629.21,745.909 1630.17,745.143 1631.12,744.284 C1632.07,743.44 1632.82,742.487 1633.31,741.628 C1633.78,740.768 1634.06,739.925 1634.06,738.878 C1633.96,737.831 1633.59,736.784 1632.92,735.737 C1632.64,735.268 1632.17,734.971 1631.68,734.784 C1631.21,734.596 1630.64,734.503 1630.17,734.596 C1629.7,734.69 1629.21,734.878 1628.65,735.175 C1628.07,735.456 1627.51,735.737 1627.03,735.925 C1626.56,736.112 1626.09,736.409 1625.51,736.784 C1624.95,737.159 1624.56,737.456 1624.28,737.55 C1620.95,739.346 1617.73,740.3 1614.4,740.3 C1611.35,740.3 1608.42,739.534 1605.46,738.018 C1602.71,736.596 1600.15,734.971 1597.87,733.081 C1595.59,731.175 1593.87,729.081 1592.64,726.706 C1591.6,724.534 1590.75,722.253 1590.26,719.878 C1589.79,717.69 1589.6,715.596 1589.6,713.409 L1589.6,712.659 C1589.6,710.284 1589.98,707.909 1590.75,705.534 C1591.5,703.159 1592.45,700.971 1593.68,699.065 C1594.92,697.175 1596.64,695.456 1598.62,694.034 C1600.62,692.612 1602.9,691.659 1605.46,691.19 C1606.04,690.987 1606.7,690.893 1607.37,690.893 C1607.84,690.987 1608.32,690.987 1608.79,691.081 C1610.03,691.284 1611.35,691.565 1612.68,691.94 C1614.01,692.221 1615.35,692.706 1616.68,693.362 L1620.67,695.081 C1622,695.643 1623.32,696.034 1624.56,696.503 C1625.79,696.971 1627.03,697.175 1628.26,697.268 C1628.65,697.362 1629.03,697.362 1629.31,697.362 C1630.07,697.268 1630.84,697.175 1631.5,697.081 C1632.45,696.878 1633.31,696.315 1634.15,695.456 C1635.01,694.596 1635.78,693.565 1636.25,692.128 C1636.43,691.471 1636.53,690.893 1636.53,690.331 C1636.64,689.846 1636.53,689.378 1636.34,688.909 C1636.15,688.425 1635.87,688.05 1635.59,687.675 C1635.29,687.19 1634.92,686.909 1634.45,686.534 C1633.96,686.143 1633.59,685.768 1633.21,685.487 C1632.82,685.206 1632.26,684.815 1631.78,684.534 C1625.89,680.831 1620.48,679.018 1615.45,679.018 C1614.59,679.018 1613.82,679.112 1612.98,679.206"/>
<path class="Harmony" d="M2300.2,679.018 C2299.73,679.112 2298.97,679.206 2297.73,679.315 C2296.5,679.409 2295.55,679.596 2294.89,679.69 C2294.22,679.784 2293.27,679.878 2292.13,680.065 C2290.98,680.253 2290.14,680.55 2289.38,680.831 C2288.61,681.112 2287.77,681.487 2287,681.971 C2286.23,682.44 2285.58,682.925 2285.09,683.581 C2284.44,684.253 2283.95,685.003 2283.58,685.768 C2283.2,686.534 2282.92,687.471 2282.81,688.425 C2282.72,689.096 2282.72,689.753 2282.72,690.425 L2282.72,690.987 C2282.81,691.659 2282.81,692.612 2282.92,693.753 C2283.02,694.893 2283.02,695.831 2283.02,696.503 C2283.02,707.331 2283.3,717.971 2283.77,728.518 C2283.86,729.081 2283.86,729.659 2283.86,730.331 C2283.77,732.315 2283.67,734.971 2283.48,738.112 C2283.2,741.815 2283.02,744.581 2283.02,746.378 L2283.02,746.956 L2283.02,748.565 C2283.02,749.034 2283.2,749.518 2283.3,750.081 C2283.39,750.659 2283.58,751.128 2283.86,751.409 C2284.16,751.706 2284.44,751.987 2284.91,752.268 C2285.3,752.456 2285.77,752.55 2286.33,752.55 L2286.63,752.55 C2289.94,752.456 2293.27,751.8 2296.59,750.565 C2299.92,749.331 2303.06,747.8 2306,745.815 C2308.95,743.815 2311.7,741.44 2314.36,738.69 C2317.02,735.925 2319.3,733.081 2321.2,730.034 C2323.09,727.003 2324.72,723.862 2325.95,720.534 C2327.19,717.206 2327.84,713.893 2328.05,710.753 C2328.14,710.081 2328.14,709.331 2328.14,708.659 C2328.14,706.862 2327.95,704.956 2327.56,703.065 C2327.09,700.393 2326.33,697.737 2325.28,695.268 C2324.23,692.8 2322.91,690.518 2321.2,688.331 C2319.48,686.143 2317.59,684.346 2315.5,682.831 C2313.41,681.3 2311.13,680.159 2308.47,679.503 C2306.77,679.018 2304.95,678.831 2303.16,678.831 C2302.2,678.831 2301.25,678.925 2300.2,679.018 M2294.31,740.393 C2294.31,737.643 2294.41,733.643 2294.5,728.518 C2294.59,724.44 2294.69,720.534 2294.69,717.018 C2294.69,716.175 2294.59,715.315 2294.59,714.456 C2294.59,710.284 2294.5,706.19 2294.31,702.393 C2294.31,701.925 2294.22,701.065 2294.03,699.643 C2293.84,698.206 2293.56,696.878 2293.45,695.643 C2293.36,695.081 2293.36,694.503 2293.36,693.94 C2293.36,693.268 2293.36,692.706 2293.45,692.034 C2293.66,690.8 2294.03,689.846 2294.69,689.378 C2295.55,688.706 2296.5,688.425 2297.55,688.425 C2297.83,688.518 2298.11,688.518 2298.41,688.518 C2299.83,688.706 2301.34,689.19 2302.95,690.05 C2304.58,690.893 2306.09,692.034 2307.52,693.175 C2308.95,694.315 2310.28,695.456 2311.33,696.596 C2312.36,697.737 2313.22,698.596 2313.7,699.456 C2315.22,701.925 2316.27,704.675 2316.83,707.706 C2317.11,709.425 2317.31,711.128 2317.31,712.846 C2317.31,714.081 2317.2,715.315 2317.11,716.55 C2316.64,719.487 2315.78,722.346 2314.55,725.096 C2313.31,727.846 2311.7,730.331 2309.8,732.503 C2307.81,734.69 2305.53,736.409 2302.86,737.831 C2300.2,739.253 2297.36,740.112 2294.31,740.393"/>
<path class="Harmony" d="M204.595,989.245 C201.361,989.73 198.127,990.683 195.002,992.198 C191.861,993.714 189.002,995.62 186.439,997.901 C183.877,1000.18 181.502,1002.75 179.314,1005.68 C177.127,1008.64 175.423,1011.67 174.002,1014.81 C172.58,1017.95 171.627,1021.26 171.048,1024.78 C170.767,1026.68 170.58,1028.59 170.58,1030.39 C170.58,1031.9 170.673,1033.43 170.861,1034.85 C171.345,1037.79 172.189,1040.75 173.517,1043.5 C174.861,1046.26 176.377,1048.82 178.267,1051.2 C180.173,1053.57 182.548,1055.56 185.111,1057.37 C187.673,1059.17 190.236,1060.51 193.002,1061.45 C195.564,1062.31 198.22,1062.78 201.173,1062.78 L201.455,1062.78 L201.736,1062.78 C204.877,1062.68 207.908,1062.12 210.861,1060.98 C211.72,1060.7 212.564,1060.4 213.423,1060.03 C214.283,1059.65 215.236,1059.17 216.47,1058.51 C217.705,1057.84 218.752,1057.28 219.783,1056.6 C220.83,1055.95 221.783,1055.18 222.736,1054.32 C223.689,1053.48 224.439,1052.53 224.923,1051.67 C225.392,1050.81 225.673,1049.96 225.673,1048.92 C225.58,1047.87 225.205,1046.82 224.533,1045.78 C224.252,1045.31 223.783,1045.01 223.298,1044.82 C222.83,1044.64 222.252,1044.54 221.783,1044.64 C221.314,1044.73 220.83,1044.92 220.267,1045.21 C219.689,1045.5 219.127,1045.78 218.642,1045.96 C218.173,1046.15 217.705,1046.45 217.127,1046.82 C216.564,1047.2 216.173,1047.5 215.892,1047.59 C212.564,1049.39 209.345,1050.34 206.017,1050.34 C202.97,1050.34 200.033,1049.57 197.08,1048.06 C194.33,1046.64 191.767,1045.01 189.486,1043.12 C187.205,1041.21 185.486,1039.12 184.252,1036.75 C183.22,1034.57 182.361,1032.29 181.877,1029.92 C181.408,1027.73 181.22,1025.64 181.22,1023.45 L181.22,1022.7 C181.22,1020.32 181.595,1017.95 182.361,1015.57 C183.111,1013.2 184.064,1011.01 185.298,1009.1 C186.533,1007.21 188.252,1005.5 190.236,1004.07 C192.236,1002.65 194.517,1001.7 197.08,1001.23 C197.658,1001.03 198.314,1000.93 198.986,1000.93 C199.455,1001.03 199.939,1001.03 200.408,1001.12 C201.642,1001.32 202.97,1001.6 204.298,1001.98 C205.627,1002.26 206.97,1002.75 208.298,1003.4 L212.283,1005.12 C213.611,1005.68 214.939,1006.07 216.173,1006.54 C217.408,1007.01 218.642,1007.21 219.877,1007.31 C220.267,1007.4 220.642,1007.4 220.923,1007.4 C221.689,1007.31 222.455,1007.21 223.111,1007.12 C224.064,1006.92 224.923,1006.35 225.767,1005.5 C226.627,1004.64 227.392,1003.6 227.861,1002.17 C228.048,1001.51 228.142,1000.93 228.142,1000.37 C228.252,999.886 228.142,999.417 227.955,998.948 C227.767,998.464 227.486,998.089 227.205,997.714 C226.908,997.23 226.533,996.948 226.064,996.573 C225.58,996.183 225.205,995.808 224.83,995.526 C224.439,995.245 223.877,994.855 223.392,994.573 C217.502,990.87 212.095,989.058 207.064,989.058 C206.205,989.058 205.439,989.151 204.595,989.245"/>
<path class="Harmony" d="M890.064,989.448 C886.36,989.917 882.845,990.776 879.423,992.011 C876.001,993.245 872.86,994.948 869.829,996.948 C866.782,998.948 864.032,1001.23 861.657,1003.79 C859.282,1006.35 857.282,1009.29 855.579,1012.62 C853.86,1015.95 852.72,1019.46 852.064,1023.17 C851.579,1025.45 851.392,1027.82 851.392,1030.2 L851.392,1030.87 C851.392,1033.14 851.485,1035.32 851.767,1037.51 C852.064,1039.89 852.626,1042.26 853.392,1044.45 C854.251,1046.73 855.189,1048.92 856.235,1050.9 C857.282,1052.9 858.61,1054.71 860.142,1056.32 C861.657,1057.93 863.548,1059.26 865.454,1060.4 C867.36,1061.54 869.532,1062.4 871.907,1062.89 C873.532,1063.17 875.142,1063.35 876.767,1063.35 C877.61,1063.35 878.564,1063.35 879.61,1063.26 C882.548,1062.98 885.314,1062.31 887.876,1061.35 C890.439,1060.4 892.814,1059.26 894.814,1057.93 C896.798,1056.6 898.798,1054.9 900.61,1053 C902.407,1051.1 904.126,1049.01 905.548,1046.92 C906.97,1044.82 908.298,1042.45 909.72,1039.79 C911.907,1035.42 912.954,1031.71 912.954,1028.78 C912.954,1025.82 911.907,1023.54 909.72,1021.93 C908.485,1020.89 906.407,1020.23 903.642,1019.75 C901.657,1019.46 899.657,1019.28 897.657,1019.28 L897.189,1019.28 L895.095,1019.28 C892.157,1019.37 889.392,1019.84 886.735,1020.7 C884.079,1021.56 882.267,1022.6 881.314,1023.84 C881.032,1024.31 880.751,1024.68 880.47,1025.07 C879.798,1026.12 879.423,1027.06 879.423,1027.92 C879.423,1029.15 880.282,1030.01 881.892,1030.48 C883.22,1030.87 885.782,1031.06 889.485,1031.06 L890.345,1031.06 C891.579,1031.15 892.532,1031.15 893.189,1031.15 C897.095,1031.15 899.47,1031.62 900.22,1032.67 C900.517,1033.04 900.798,1033.62 900.798,1034.18 C900.798,1034.76 900.704,1035.32 900.61,1035.9 C900.517,1036.46 900.22,1037.14 899.939,1037.89 C899.657,1038.65 899.376,1039.23 899.079,1039.7 C898.798,1040.17 898.517,1040.84 898.142,1041.6 C897.751,1042.35 897.47,1042.75 897.376,1042.93 C896.907,1043.78 896.61,1044.45 896.329,1044.92 C896.048,1045.4 895.657,1045.87 895.189,1046.54 C894.72,1047.2 894.142,1047.78 893.673,1048.15 C891.673,1049.67 889.485,1050.71 886.923,1051.2 L883.689,1051.57 L883.314,1051.57 C882.079,1051.48 880.751,1051.39 879.517,1051.1 C877.142,1050.62 874.767,1049.76 872.579,1048.43 C870.392,1047.1 868.501,1045.5 867.064,1043.59 C865.642,1041.6 864.314,1039.23 863.36,1036.56 C862.407,1033.9 861.845,1031.15 861.657,1028.2 C861.564,1027.15 861.564,1026.21 861.564,1025.17 C861.564,1023.26 861.657,1021.37 861.939,1019.56 C862.407,1016.81 863.267,1014.14 864.595,1011.67 C865.923,1009.2 867.642,1007.21 869.735,1005.68 C872.298,1003.7 875.423,1002.26 879.032,1001.32 C881.032,1000.75 883.032,1000.46 884.923,1000.46 C886.267,1000.46 887.595,1000.65 888.829,1000.93 C889.876,1001.23 890.907,1001.6 892.157,1002.17 C893.392,1002.75 894.423,1003.31 895.376,1003.89 C896.329,1004.45 897.376,1005.03 898.423,1005.59 C899.47,1006.17 900.517,1006.64 901.454,1006.82 C902.407,1007.01 903.36,1007.12 904.314,1007.01 C905.267,1006.92 906.204,1006.45 907.157,1005.59 C908.11,1004.75 908.97,1003.6 909.814,1002.17 C910.298,1001.32 910.579,1000.46 910.579,999.605 C910.579,998.948 910.392,998.37 910.11,997.714 C909.345,996.276 908.11,995.042 906.407,993.995 C904.689,992.964 902.892,992.011 900.798,991.245 C898.704,990.48 896.704,990.011 894.72,989.73 C893.282,989.448 892.157,989.355 891.204,989.355 C890.72,989.355 890.345,989.355 890.064,989.448"/>
<path class="Harmony" d="M1583.78,989.245 C1580.54,989.73 1577.31,990.683 1574.19,992.198 C1571.04,993.714 1568.19,995.62 1565.62,997.901 C1563.06,1000.18 1560.69,1002.75 1558.5,1005.68 C1556.31,1008.64 1554.61,1011.67 1553.19,1014.81 C1551.76,1017.95 1550.81,1021.26 1550.23,1024.78 C1549.95,1026.68 1549.76,1028.59 1549.76,1030.39 C1549.76,1031.9 1549.86,1033.43 1550.04,1034.85 C1550.53,1037.79 1551.37,1040.75 1552.7,1043.5 C1554.04,1046.26 1555.56,1048.82 1557.45,1051.2 C1559.36,1053.57 1561.73,1055.56 1564.29,1057.37 C1566.86,1059.17 1569.42,1060.51 1572.19,1061.45 C1574.75,1062.31 1577.4,1062.78 1580.36,1062.78 L1580.64,1062.78 L1580.92,1062.78 C1584.06,1062.68 1587.09,1062.12 1590.04,1060.98 C1590.9,1060.7 1591.75,1060.4 1592.61,1060.03 C1593.47,1059.65 1594.42,1059.17 1595.65,1058.51 C1596.89,1057.84 1597.94,1057.28 1598.97,1056.6 C1600.01,1055.95 1600.97,1055.18 1601.92,1054.32 C1602.87,1053.48 1603.62,1052.53 1604.11,1051.67 C1604.58,1050.81 1604.86,1049.96 1604.86,1048.92 C1604.76,1047.87 1604.39,1046.82 1603.72,1045.78 C1603.44,1045.31 1602.97,1045.01 1602.48,1044.82 C1602.01,1044.64 1601.44,1044.54 1600.97,1044.64 C1600.5,1044.73 1600.01,1044.92 1599.45,1045.21 C1598.87,1045.5 1598.31,1045.78 1597.83,1045.96 C1597.36,1046.15 1596.89,1046.45 1596.31,1046.82 C1595.75,1047.2 1595.36,1047.5 1595.08,1047.59 C1591.75,1049.39 1588.53,1050.34 1585.2,1050.34 C1582.15,1050.34 1579.22,1049.57 1576.26,1048.06 C1573.51,1046.64 1570.95,1045.01 1568.67,1043.12 C1566.39,1041.21 1564.67,1039.12 1563.44,1036.75 C1562.4,1034.57 1561.54,1032.29 1561.06,1029.92 C1560.59,1027.73 1560.4,1025.64 1560.4,1023.45 L1560.4,1022.7 C1560.4,1020.32 1560.78,1017.95 1561.54,1015.57 C1562.29,1013.2 1563.25,1011.01 1564.48,1009.1 C1565.72,1007.21 1567.44,1005.5 1569.42,1004.07 C1571.42,1002.65 1573.7,1001.7 1576.26,1001.23 C1576.84,1001.03 1577.5,1000.93 1578.17,1000.93 C1578.64,1001.03 1579.12,1001.03 1579.59,1001.12 C1580.83,1001.32 1582.15,1001.6 1583.48,1001.98 C1584.81,1002.26 1586.15,1002.75 1587.48,1003.4 L1591.47,1005.12 C1592.79,1005.68 1594.12,1006.07 1595.36,1006.54 C1596.59,1007.01 1597.83,1007.21 1599.06,1007.31 C1599.45,1007.4 1599.83,1007.4 1600.11,1007.4 C1600.87,1007.31 1601.64,1007.21 1602.29,1007.12 C1603.25,1006.92 1604.11,1006.35 1604.95,1005.5 C1605.81,1004.64 1606.58,1003.6 1607.04,1002.17 C1607.23,1001.51 1607.33,1000.93 1607.33,1000.37 C1607.44,999.886 1607.33,999.417 1607.14,998.948 C1606.95,998.464 1606.67,998.089 1606.39,997.714 C1606.09,997.23 1605.72,996.948 1605.25,996.573 C1604.76,996.183 1604.39,995.808 1604.01,995.526 C1603.62,995.245 1603.06,994.855 1602.58,994.573 C1596.69,990.87 1591.28,989.058 1586.25,989.058 C1585.39,989.058 1584.62,989.151 1583.78,989.245"/>
<path class="Harmony" d="M2264.46,989.058 C2263.99,989.151 2263.23,989.245 2261.99,989.355 C2260.76,989.448 2259.81,989.636 2259.15,989.73 C2258.48,989.823 2257.53,989.917 2256.38,990.105 C2255.24,990.292 2254.4,990.589 2253.63,990.87 C2252.87,991.151 2252.03,991.526 2251.26,992.011 C2250.49,992.48 2249.84,992.964 2249.35,993.62 C2248.7,994.292 2248.21,995.042 2247.84,995.808 C2247.46,996.573 2247.18,997.511 2247.07,998.464 C2246.98,999.136 2246.98,999.792 2246.98,1000.46 L2246.98,1001.03 C2247.07,1001.7 2247.07,1002.65 2247.18,1003.79 C2247.28,1004.93 2247.28,1005.87 2247.28,1006.54 C2247.28,1017.37 2247.56,1028.01 2248.03,1038.56 C2248.12,1039.12 2248.12,1039.7 2248.12,1040.37 C2248.03,1042.35 2247.93,1045.01 2247.74,1048.15 C2247.46,1051.85 2247.28,1054.62 2247.28,1056.42 L2247.28,1057 L2247.28,1058.6 C2247.28,1059.07 2247.46,1059.56 2247.56,1060.12 C2247.65,1060.7 2247.84,1061.17 2248.12,1061.45 C2248.42,1061.75 2248.7,1062.03 2249.17,1062.31 C2249.56,1062.5 2250.03,1062.59 2250.59,1062.59 L2250.88,1062.59 C2254.2,1062.5 2257.53,1061.84 2260.85,1060.6 C2264.18,1059.37 2267.32,1057.84 2270.26,1055.85 C2273.21,1053.85 2275.96,1051.48 2278.62,1048.73 C2281.28,1045.96 2283.56,1043.12 2285.46,1040.07 C2287.35,1037.04 2288.98,1033.9 2290.21,1030.57 C2291.45,1027.25 2292.1,1023.93 2292.31,1020.79 C2292.4,1020.12 2292.4,1019.37 2292.4,1018.7 C2292.4,1016.9 2292.21,1015 2291.82,1013.1 C2291.35,1010.43 2290.59,1007.78 2289.54,1005.31 C2288.49,1002.84 2287.17,1000.56 2285.46,998.37 C2283.74,996.183 2281.85,994.386 2279.76,992.87 C2277.67,991.339 2275.38,990.198 2272.73,989.542 C2271.03,989.058 2269.21,988.87 2267.42,988.87 C2266.46,988.87 2265.51,988.964 2264.46,989.058 M2258.57,1050.43 C2258.57,1047.68 2258.67,1043.68 2258.76,1038.56 C2258.85,1034.48 2258.95,1030.57 2258.95,1027.06 C2258.95,1026.21 2258.85,1025.35 2258.85,1024.5 C2258.85,1020.32 2258.76,1016.23 2258.57,1012.43 C2258.57,1011.96 2258.48,1011.1 2258.29,1009.68 C2258.1,1008.25 2257.82,1006.92 2257.71,1005.68 C2257.62,1005.12 2257.62,1004.54 2257.62,1003.98 C2257.62,1003.31 2257.62,1002.75 2257.71,1002.07 C2257.92,1000.84 2258.29,999.886 2258.95,999.417 C2259.81,998.745 2260.76,998.464 2261.81,998.464 C2262.09,998.558 2262.37,998.558 2262.67,998.558 C2264.09,998.745 2265.6,999.23 2267.21,1000.09 C2268.84,1000.93 2270.35,1002.07 2271.78,1003.21 C2273.21,1004.35 2274.54,1005.5 2275.59,1006.64 C2276.62,1007.78 2277.48,1008.64 2277.96,1009.5 C2279.48,1011.96 2280.53,1014.71 2281.09,1017.75 C2281.37,1019.46 2281.57,1021.17 2281.57,1022.89 C2281.57,1024.12 2281.46,1025.35 2281.37,1026.59 C2280.9,1029.53 2280.04,1032.39 2278.81,1035.14 C2277.57,1037.89 2275.96,1040.37 2274.06,1042.54 C2272.07,1044.73 2269.79,1046.45 2267.12,1047.87 C2264.46,1049.29 2261.62,1050.15 2258.57,1050.43"/>
<path class="Harmony" d="M2605.67,989.448 C2601.97,989.917 2598.45,990.776 2595.03,992.011 C2591.61,993.245 2588.47,994.948 2585.44,996.948 C2582.39,998.948 2579.64,1001.23 2577.27,1003.79 C2574.89,1006.35 2572.89,1009.29 2571.19,1012.62 C2569.47,1015.95 2568.33,1019.46 2567.67,1023.17 C2567.19,1025.45 2567,1027.82 2567,1030.2 L2567,1030.87 C2567,1033.14 2567.09,1035.32 2567.37,1037.51 C2567.67,1039.89 2568.23,1042.26 2569,1044.45 C2569.86,1046.73 2570.8,1048.92 2571.84,1050.9 C2572.89,1052.9 2574.22,1054.71 2575.75,1056.32 C2577.27,1057.93 2579.16,1059.26 2581.06,1060.4 C2582.97,1061.54 2585.14,1062.4 2587.52,1062.89 C2589.14,1063.17 2590.75,1063.35 2592.37,1063.35 C2593.22,1063.35 2594.17,1063.35 2595.22,1063.26 C2598.16,1062.98 2600.92,1062.31 2603.48,1061.35 C2606.05,1060.4 2608.42,1059.26 2610.42,1057.93 C2612.41,1056.6 2614.41,1054.9 2616.22,1053 C2618.02,1051.1 2619.73,1049.01 2621.16,1046.92 C2622.58,1044.82 2623.91,1042.45 2625.33,1039.79 C2627.52,1035.42 2628.56,1031.71 2628.56,1028.78 C2628.56,1025.82 2627.52,1023.54 2625.33,1021.93 C2624.09,1020.89 2622.02,1020.23 2619.25,1019.75 C2617.27,1019.46 2615.27,1019.28 2613.27,1019.28 L2612.8,1019.28 L2610.7,1019.28 C2607.77,1019.37 2605,1019.84 2602.34,1020.7 C2599.69,1021.56 2597.87,1022.6 2596.92,1023.84 C2596.64,1024.31 2596.36,1024.68 2596.08,1025.07 C2595.41,1026.12 2595.03,1027.06 2595.03,1027.92 C2595.03,1029.15 2595.89,1030.01 2597.5,1030.48 C2598.83,1030.87 2601.39,1031.06 2605.09,1031.06 L2605.95,1031.06 C2607.19,1031.15 2608.14,1031.15 2608.8,1031.15 C2612.7,1031.15 2615.08,1031.62 2615.83,1032.67 C2616.12,1033.04 2616.41,1033.62 2616.41,1034.18 C2616.41,1034.76 2616.31,1035.32 2616.22,1035.9 C2616.12,1036.46 2615.83,1037.14 2615.55,1037.89 C2615.27,1038.65 2614.98,1039.23 2614.69,1039.7 C2614.41,1040.17 2614.12,1040.84 2613.75,1041.6 C2613.36,1042.35 2613.08,1042.75 2612.98,1042.93 C2612.52,1043.78 2612.22,1044.45 2611.94,1044.92 C2611.66,1045.4 2611.27,1045.87 2610.8,1046.54 C2610.33,1047.2 2609.75,1047.78 2609.28,1048.15 C2607.28,1049.67 2605.09,1050.71 2602.53,1051.2 L2599.3,1051.57 L2598.92,1051.57 C2597.69,1051.48 2596.36,1051.39 2595.12,1051.1 C2592.75,1050.62 2590.37,1049.76 2588.19,1048.43 C2586,1047.1 2584.11,1045.5 2582.67,1043.59 C2581.25,1041.6 2579.92,1039.23 2578.97,1036.56 C2578.02,1033.9 2577.45,1031.15 2577.27,1028.2 C2577.17,1027.15 2577.17,1026.21 2577.17,1025.17 C2577.17,1023.26 2577.27,1021.37 2577.55,1019.56 C2578.02,1016.81 2578.87,1014.14 2580.2,1011.67 C2581.53,1009.2 2583.25,1007.21 2585.34,1005.68 C2587.91,1003.7 2591.03,1002.26 2594.64,1001.32 C2596.64,1000.75 2598.64,1000.46 2600.53,1000.46 C2601.87,1000.46 2603.2,1000.65 2604.44,1000.93 C2605.48,1001.23 2606.52,1001.6 2607.77,1002.17 C2609,1002.75 2610.03,1003.31 2610.98,1003.89 C2611.94,1004.45 2612.98,1005.03 2614.03,1005.59 C2615.08,1006.17 2616.12,1006.64 2617.06,1006.82 C2618.02,1007.01 2618.97,1007.12 2619.92,1007.01 C2620.87,1006.92 2621.81,1006.45 2622.77,1005.59 C2623.72,1004.75 2624.58,1003.6 2625.42,1002.17 C2625.91,1001.32 2626.19,1000.46 2626.19,999.605 C2626.19,998.948 2626,998.37 2625.72,997.714 C2624.95,996.276 2623.72,995.042 2622.02,993.995 C2620.3,992.964 2618.5,992.011 2616.41,991.245 C2614.31,990.48 2612.31,990.011 2610.33,989.73 C2608.89,989.448 2607.77,989.355 2606.81,989.355 C2606.33,989.355 2605.95,989.355 2605.67,989.448"/>
</svg>
