<?xml version="1.0" encoding="UTF-8" standalone="no"?>
<svg width="2976.38px" height="1062.99px" viewBox="0 0 2976.38 1062.99"
 xmlns="http://www.w3.org/2000/svg" xmlns:xlink="http://www.w3.org/1999/xlink" version="1.2" baseProfile="tiny">
<title>LouisvilleBreakdown</title>
<desc>Generated by MuseScore 3.6.2</desc>
<polyline class="StaffLines" fill="none" stroke="#000000" stroke-width="2.73" stroke-linejoin="bevel" points="138.189,409.492 2933.86,409.492"/>
<polyline class="StaffLines" fill="none" stroke="#000000" stroke-width="2.73" stroke-linejoin="bevel" points="138.189,434.295 2933.86,434.295"/>
<polyline class="StaffLines" fill="none" stroke="#000000" stroke-width="2.73" stroke-linejoin="bevel" points="138.189,459.098 2933.86,459.098"/>
<polyline class="StaffLines" fill="none" stroke="#000000" stroke-width="2.73" stroke-linejoin="bevel" points="138.189,483.902 2933.86,483.902"/>
<polyline class="StaffLines" fill="none" stroke="#000000" stroke-width="2.73" stroke-linejoin="bevel" points="138.189,508.705 2933.86,508.705"/>
<polyline class="StaffLines" fill="none" stroke="#000000" stroke-width="2.73" stroke-linejoin="bevel" points="14.1732,719.531 2933.86,719.531"/>
<polyline class="StaffLines" fill="none" stroke="#000000" stroke-width="2.73" stroke-linejoin="bevel" points="14.1732,744.335 2933.86,744.335"/>
<polyline class="StaffLines" fill="none" stroke="#000000" stroke-width="2.73" stroke-linejoin="bevel" points="14.1732,769.138 2933.86,769.138"/>
<polyline class="StaffLines" fill="none" stroke="#000000" stroke-width="2.73" stroke-linejoin="bevel" points="14.1732,793.941 2933.86,793.941"/>
<polyline class="StaffLines" fill="none" stroke="#000000" stroke-width="2.73" stroke-linejoin="bevel" points="14.1732,818.744 2933.86,818.744"/>
<path class="Text" d="M988.564,66.0326 L983.72,66.0326 C980.095,85.8295 975.142,90.6732 958.095,91.0014 L953.47,91.0014 C946.876,90.7826 945.22,89.6889 945.548,85.7201 L945.548,30.2826 C945.548,24.7826 945.548,24.4545 946.204,23.4701 C947.095,22.3607 949.189,22.0326 955.454,21.9232 L957.439,21.9232 L957.439,16.7514 L921.345,16.7514 L921.345,21.9232 L923.329,21.9232 C929.595,22.0326 931.689,22.3607 932.564,23.4701 C933.236,24.4545 933.236,24.6732 933.236,30.2826 L933.236,82.642 C933.236,88.2514 933.236,88.4701 932.564,89.4701 C931.689,90.5639 929.595,91.0014 923.329,91.0014 L921.345,91.0014 L921.345,96.1732 L986.251,96.1732 L988.564,66.0326 M1020.22,43.267 C1006.69,43.267 996.236,55.2514 996.236,70.6576 C996.236,85.7201 1006.8,97.8295 1020,97.8295 C1033.2,97.8295 1043.77,85.7201 1043.77,70.5482 C1043.77,55.4701 1033.2,43.267 1020.22,43.267 M1020.22,47.9857 C1027.92,47.9857 1032.2,56.017 1032.2,70.5482 C1032.2,85.1732 1027.92,93.0951 1020,93.0951 C1012.08,93.0951 1007.8,85.1732 1007.8,70.6576 C1007.8,55.6889 1011.97,47.9857 1020.22,47.9857 M1092.81,96.9389 L1112.85,96.1732 L1112.85,91.4389 L1110.1,91.4389 C1103.7,91.2201 1103.16,90.5639 1103.16,83.4076 L1103.16,44.9076 L1082.49,46.1264 L1082.49,50.8607 L1088.1,50.8607 C1092.27,50.9701 1092.81,51.6264 1092.81,56.3607 L1092.81,69.8764 C1092.81,76.1576 1092.16,79.892 1090.52,83.4076 C1088.2,88.3607 1083.8,91.1107 1078.41,91.1107 C1075,91.1107 1072.14,89.9076 1070.7,87.7045 C1069.28,85.6107 1069.06,84.517 1069.06,78.4701 L1069.06,44.9076 L1049.81,46.1264 L1049.81,50.8607 L1053.99,50.8607 C1058.17,50.9701 1058.72,51.6264 1058.72,56.3607 L1058.72,80.1107 C1058.72,85.7201 1059.16,88.2514 1060.81,90.7826 C1063.78,95.2982 1069.06,97.8295 1075.66,97.8295 C1082.92,97.8295 1087.99,94.8607 1092.81,87.8139 L1092.81,96.9389 M1137.16,44.9076 L1116.49,46.1264 L1116.49,50.8607 L1122.1,50.8607 C1126.27,50.9701 1126.81,51.6264 1126.81,56.3607 L1126.81,82.642 L1126.81,87.8139 C1126.7,89.4701 1126.6,90.1264 1126.16,90.6732 C1125.39,91.6576 1123.3,92.1107 1118.56,92.2201 L1117.8,92.2201 L1117.8,96.1732 L1146.3,96.1732 L1146.3,92.2201 L1145.52,92.2201 C1138.16,91.9857 1137.16,91.4389 1137.16,87.4857 L1137.16,82.642 L1137.16,44.9076 M1131.99,17.517 C1128.47,17.517 1125.61,20.3764 1125.61,23.9076 C1125.61,27.4232 1128.47,30.2826 1131.88,30.2826 C1135.52,30.2826 1138.38,27.4232 1138.38,23.9076 C1138.38,20.3764 1135.52,17.517 1131.99,17.517 M1192.41,43.7045 L1188.55,43.7045 L1185.36,47.6576 C1181.41,44.5795 1177.44,43.267 1171.94,43.267 C1162.27,43.267 1155.88,49.5326 1155.88,59.2201 C1155.88,63.5014 1157.31,67.1264 1159.74,69.3295 C1162.27,71.642 1164.8,72.7357 1171.39,74.2826 L1177.22,75.6107 C1185.91,77.6889 1188.99,79.892 1188.99,84.2982 C1188.99,89.4701 1184.49,93.0951 1178.1,93.0951 C1168.75,93.0951 1162.16,87.1576 1159.52,76.1576 L1155.11,76.1576 L1155.11,96.9389 L1158.95,96.9389 L1162.81,92.4389 C1167.31,96.0639 1172.27,97.8295 1177.88,97.8295 C1188.66,97.8295 1195.81,91.1107 1195.81,80.8764 C1195.81,76.0482 1194.27,72.2982 1191.19,69.767 C1188.55,67.4701 1186.35,66.5795 1179.64,65.1576 L1174.14,63.9389 C1168.1,62.6264 1168.1,62.6264 1166.11,61.517 C1163.69,60.4232 1162.27,58.1107 1162.27,55.6889 C1162.27,51.1889 1166.44,48.1107 1172.49,48.1107 C1176.67,48.1107 1180.08,49.5326 1183.16,52.5014 C1185.58,54.9232 1186.8,57.1264 1188.55,62.1889 L1192.41,62.1889 L1192.41,43.7045 M1231.95,82.8607 L1219.41,53.8295 C1219.08,52.9389 1218.86,52.0639 1218.86,51.4076 C1218.86,49.5326 1220.3,48.8764 1224.8,48.8764 L1226.35,48.8764 L1226.35,44.9076 L1200.38,44.9076 L1200.38,48.8764 L1201.27,48.8764 C1205.44,48.8764 1206.99,49.9701 1208.52,53.6107 L1227.44,97.8295 L1231.3,97.8295 L1246.91,59.2201 C1249.99,51.7357 1252.63,49.2045 1257.14,48.8764 L1257.58,48.8764 L1257.58,44.9076 L1235.58,44.9076 L1235.58,48.8764 L1237.13,48.8764 C1240.97,48.8764 1243.06,50.1889 1243.06,52.7201 C1243.06,54.0482 1242.74,55.6889 1242.06,57.3451 L1231.95,82.8607 M1283.16,44.9076 L1262.49,46.1264 L1262.49,50.8607 L1268.1,50.8607 C1272.27,50.9701 1272.81,51.6264 1272.81,56.3607 L1272.81,82.642 L1272.81,87.8139 C1272.7,89.4701 1272.6,90.1264 1272.16,90.6732 C1271.39,91.6576 1269.3,92.1107 1264.56,92.2201 L1263.8,92.2201 L1263.8,96.1732 L1292.3,96.1732 L1292.3,92.2201 L1291.52,92.2201 C1284.16,91.9857 1283.16,91.4389 1283.16,87.4857 L1283.16,82.642 L1283.16,44.9076 M1277.99,17.517 C1274.47,17.517 1271.61,20.3764 1271.61,23.9076 C1271.61,27.4232 1274.47,30.2826 1277.88,30.2826 C1281.52,30.2826 1284.38,27.4232 1284.38,23.9076 C1284.38,20.3764 1281.52,17.517 1277.99,17.517 M1317.94,15.0951 L1297.6,16.3139 L1297.6,21.0482 L1302.99,21.0482 C1307.05,21.1576 1307.6,21.8139 1307.6,26.5482 L1307.6,82.642 L1307.6,87.8139 C1307.49,89.4701 1307.38,90.1264 1306.94,90.6732 C1306.17,91.6576 1304.08,92.1107 1299.35,92.2201 L1298.58,92.2201 L1298.58,96.1732 L1327.06,96.1732 L1327.06,92.2201 L1326.3,92.2201 C1318.94,91.9857 1317.94,91.4389 1317.94,87.4857 L1317.94,82.642 L1317.94,15.0951 M1352.94,15.0951 L1332.6,16.3139 L1332.6,21.0482 L1337.99,21.0482 C1342.05,21.1576 1342.6,21.8139 1342.6,26.5482 L1342.6,82.642 L1342.6,87.8139 C1342.49,89.4701 1342.38,90.1264 1341.94,90.6732 C1341.17,91.6576 1339.08,92.1107 1334.35,92.2201 L1333.58,92.2201 L1333.58,96.1732 L1362.06,96.1732 L1362.06,92.2201 L1361.3,92.2201 C1353.94,91.9857 1352.94,91.4389 1352.94,87.4857 L1352.94,82.642 L1352.94,15.0951 M1416.66,71.4232 C1416.77,54.9232 1407.41,43.267 1393.99,43.267 C1379.91,43.267 1369.35,55.4701 1369.35,71.9701 C1369.35,87.4857 1379.36,97.8295 1394.2,97.8295 C1404.77,97.8295 1412.14,92.6576 1416.66,82.2045 L1412.8,80.1107 C1408.3,88.5795 1403.67,91.8764 1396.3,91.8764 C1390.69,91.8764 1386.63,89.5795 1383.77,84.6264 C1381.78,81.3295 1380.91,77.4701 1381.02,71.4232 L1416.66,71.4232 M1381.13,66.6889 C1381.13,63.2826 1381.56,60.8607 1382.66,57.7826 C1384.97,51.1889 1388.49,47.9857 1393.88,47.9857 C1400.49,47.9857 1404.88,53.8295 1404.88,62.7357 C1404.88,65.8139 1403.89,66.6889 1400.38,66.6889 L1381.13,66.6889 M1454.8,16.7514 L1454.8,21.9232 L1456.78,21.9232 C1463.05,22.0326 1465.14,22.3607 1466.02,23.4701 C1466.69,24.4545 1466.69,24.6732 1466.69,30.2826 L1466.69,82.642 C1466.69,88.2514 1466.69,88.4701 1466.02,89.4701 C1465.14,90.5639 1463.05,91.0014 1456.78,91.0014 L1454.8,91.0014 L1454.8,96.1732 L1494.74,96.1732 C1513.77,96.1732 1525.2,88.142 1525.2,74.6107 C1525.2,63.6107 1518.27,57.3451 1503.2,54.7045 C1508.49,53.6107 1510.91,52.6107 1513.77,50.517 C1518.27,47.1107 1521.02,41.7201 1521.02,36.2201 C1521.02,29.0795 1516.63,22.142 1510.24,19.392 C1506.28,17.6264 1500.78,16.7514 1494.3,16.7514 L1454.8,16.7514 M1479,52.5014 L1479,27.4232 C1479,23.1264 1480.44,22.0326 1486.27,21.9232 L1490.66,21.9232 C1495.72,21.9232 1499.91,22.7982 1502.2,24.2357 C1506.17,26.6576 1508.27,31.267 1508.27,37.4389 C1508.27,48.3295 1502.99,52.5014 1488.8,52.5014 L1479,52.5014 M1479,57.6732 L1488.69,57.6732 C1505.52,57.6732 1511.67,62.1889 1511.67,74.2826 C1511.67,81.3295 1509.25,86.3764 1504.95,88.4701 C1501.55,90.2357 1496.94,91.0014 1490,91.0014 L1485.38,91.0014 C1479.88,91.0014 1478.78,89.9076 1479,84.0795 L1479,57.6732 M1552.28,44.9076 L1532.81,46.1264 L1532.81,50.8607 L1537.31,50.8607 C1541.5,50.9701 1542.05,51.6264 1542.05,56.3607 L1542.05,82.642 L1542.05,87.8139 C1541.94,89.4701 1541.83,90.1264 1541.39,90.6732 C1540.63,91.6576 1538.42,92.1107 1533.69,92.2201 L1533.25,92.2201 L1533.25,96.1732 L1562.63,96.1732 L1562.63,92.2201 L1560.64,92.2201 C1553.27,91.9857 1552.28,91.4389 1552.28,87.4857 L1552.28,82.642 L1552.28,81.5482 C1552.39,63.0639 1558.99,48.9857 1567.56,48.5482 C1566.03,50.2982 1565.6,51.4076 1565.6,53.4857 C1565.6,57.017 1568.13,59.5482 1571.64,59.5482 C1575.7,59.5482 1578.35,56.5795 1578.35,52.1732 C1578.35,46.7826 1574.61,43.267 1568.78,43.267 C1561.85,43.267 1555.91,48.767 1552.28,58.5482 L1552.28,44.9076 M1629.66,71.4232 C1629.77,54.9232 1620.41,43.267 1606.99,43.267 C1592.91,43.267 1582.35,55.4701 1582.35,71.9701 C1582.35,87.4857 1592.36,97.8295 1607.2,97.8295 C1617.77,97.8295 1625.14,92.6576 1629.66,82.2045 L1625.8,80.1107 C1621.3,88.5795 1616.67,91.8764 1609.3,91.8764 C1603.69,91.8764 1599.63,89.5795 1596.77,84.6264 C1594.78,81.3295 1593.91,77.4701 1594.02,71.4232 L1629.66,71.4232 M1594.13,66.6889 C1594.13,63.2826 1594.56,60.8607 1595.66,57.7826 C1597.97,51.1889 1601.49,47.9857 1606.88,47.9857 C1613.49,47.9857 1617.88,53.8295 1617.88,62.7357 C1617.88,65.8139 1616.89,66.6889 1613.38,66.6889 L1594.13,66.6889 M1682.22,60.7514 C1682.22,53.8295 1681.02,50.2982 1677.81,47.6576 C1674.19,44.6889 1668.8,43.267 1661.77,43.267 C1649.33,43.267 1640.31,49.0951 1640.31,57.1264 C1640.31,61.1889 1642.85,63.8295 1646.69,63.8295 C1650.2,63.8295 1652.63,61.517 1652.63,58.2201 C1652.63,56.7982 1652.08,55.2514 1650.99,53.7201 C1650.31,52.9389 1650.2,52.7201 1650.2,52.1732 C1650.2,49.9701 1654.61,47.9857 1659.89,47.9857 C1663.41,47.9857 1667.27,49.0951 1669.02,50.7357 C1671.11,52.5014 1671.88,55.142 1671.88,60.0951 L1671.88,64.3764 C1660.44,66.3607 1656.81,67.2357 1651.42,69.3295 C1641.85,72.8607 1637.35,77.9076 1637.35,84.9545 C1637.35,92.8764 1643.5,97.8295 1653.3,97.8295 C1660.88,97.8295 1667.7,94.7357 1672.44,89.1264 C1674.19,94.7357 1676.94,96.9389 1682.11,96.9389 C1687.06,96.9389 1692.24,93.7514 1692.24,90.5639 C1692.24,89.7982 1691.8,89.2357 1691.13,89.2357 C1690.69,89.2357 1690.25,89.3607 1689.49,89.6889 C1687.94,90.3451 1687.28,90.4545 1686.41,90.4545 C1683.31,90.4545 1682.22,88.4701 1682.22,82.8607 L1682.22,60.7514 M1671.88,74.1732 C1671.88,80.767 1671.55,82.3139 1669.69,85.1732 C1666.94,89.2357 1661.99,91.9857 1657.14,91.9857 C1652.08,91.9857 1648.45,88.3607 1648.45,83.4076 C1648.45,78.7982 1650.77,75.4857 1655.6,73.1889 C1659.02,71.642 1663.3,70.5482 1671.88,69.1107 L1671.88,74.1732 M1715.39,69.5482 L1715.39,15.0951 L1695.05,16.3139 L1695.05,21.0482 L1700.31,21.0482 C1704.5,21.1576 1705.05,21.8139 1705.05,26.5482 L1705.05,82.642 L1705.05,87.9232 C1704.94,89.4701 1704.83,90.1264 1704.39,90.6732 C1703.63,91.6576 1701.53,92.1107 1696.8,92.2201 L1696.36,92.2201 L1696.36,96.1732 L1724.19,96.1732 L1724.19,92.2201 L1723.75,92.2201 C1716.38,91.9857 1715.39,91.4389 1715.39,87.4857 L1715.39,82.642 L1715.39,76.3764 L1722.1,69.9857 L1735.19,88.3607 C1735.74,89.2357 1735.95,89.7982 1735.95,90.2357 C1735.95,91.767 1734.75,92.2201 1731.13,92.2201 L1729.03,92.2201 L1729.03,96.1732 L1758.08,96.1732 L1758.08,92.2201 C1751.91,91.6576 1749.7,90.3451 1745.2,84.6264 L1729.58,63.2826 L1734.53,58.4389 C1741.02,52.1732 1745.64,49.7514 1753.13,48.8764 L1753.13,44.9076 L1724.19,44.9076 L1724.19,48.8764 L1727.6,48.8764 C1731.13,48.8764 1732.77,49.5326 1732.77,50.9701 C1732.77,52.1732 1732,53.4857 1730.24,55.2514 L1715.39,69.5482 M1798.3,96.9389 L1817.44,96.1732 L1817.44,91.4389 L1815.45,91.4389 C1809.19,91.1107 1808.64,90.4545 1808.64,83.4076 L1808.64,15.0951 L1787.08,16.3139 L1787.08,21.0482 L1793.56,21.0482 C1797.75,21.1576 1798.3,21.8139 1798.3,26.5482 L1798.3,51.4076 C1794.24,45.7982 1789.5,43.267 1783.13,43.267 C1770.69,43.267 1761.24,55.2514 1761.24,71.0951 C1761.24,86.7201 1770.36,97.8295 1783.13,97.8295 C1790.05,97.8295 1794.78,94.8607 1798.3,88.2514 L1798.3,96.9389 M1785.31,49.2045 C1789.83,49.2045 1794.13,52.5014 1796.1,57.5639 C1797.53,60.8607 1798.19,65.3764 1798.19,70.767 C1798.19,83.6264 1793.13,91.8764 1785.2,91.8764 C1777.41,91.8764 1772.78,84.6264 1772.78,72.4076 C1772.78,65.8139 1773.44,60.8607 1774.88,57.2357 C1776.74,52.2826 1780.81,49.2045 1785.31,49.2045 M1847.22,43.267 C1833.69,43.267 1823.24,55.2514 1823.24,70.6576 C1823.24,85.7201 1833.8,97.8295 1847,97.8295 C1860.2,97.8295 1870.77,85.7201 1870.77,70.5482 C1870.77,55.4701 1860.2,43.267 1847.22,43.267 M1847.22,47.9857 C1854.92,47.9857 1859.2,56.017 1859.2,70.5482 C1859.2,85.1732 1854.92,93.0951 1847,93.0951 C1839.08,93.0951 1834.8,85.1732 1834.8,70.6576 C1834.8,55.6889 1838.97,47.9857 1847.22,47.9857 M1931.67,81.9857 L1920.89,53.7201 C1920.56,52.9389 1920.45,52.2826 1920.45,51.4076 C1920.45,49.4232 1921.44,48.8764 1925.06,48.8764 L1927.7,48.8764 L1927.7,44.9076 L1903.06,44.9076 L1903.06,48.8764 L1904.94,48.8764 C1908.45,48.9857 1909.89,49.8607 1910.77,52.9389 L1911.66,55.7982 L1901.97,81.4389 L1891.3,53.8295 C1891.08,53.0482 1890.86,52.0639 1890.86,51.4076 C1890.86,49.5326 1892.06,48.8764 1895.38,48.8764 L1897.35,48.8764 L1897.35,44.9076 L1873.16,44.9076 L1873.16,48.8764 L1875.13,48.8764 C1878.2,48.9857 1879.64,50.2982 1880.85,54.267 L1897.35,97.8295 L1901.2,97.8295 L1914.3,63.0639 L1927.7,97.8295 L1931.13,97.8295 L1946.52,57.2357 C1948.94,50.7357 1950.6,48.9857 1954.66,48.8764 L1955.44,48.8764 L1955.44,44.9076 L1934.64,44.9076 L1934.64,48.8764 L1936.52,48.8764 C1940.36,48.8764 1941.91,49.9701 1941.91,52.9389 C1941.91,54.0482 1941.58,55.4701 1941.02,56.9076 L1931.67,81.9857 M1979.5,44.9076 L1960.47,46.1264 L1960.47,50.8607 L1964.44,50.8607 C1968.61,50.9701 1969.16,51.6264 1969.16,56.3607 L1969.16,82.642 L1969.16,85.2826 L1969.16,87.8139 C1969.05,89.4701 1968.94,90.1264 1968.5,90.6732 C1967.74,91.6576 1965.64,92.1107 1960.91,92.2201 L1960.47,92.2201 L1960.47,96.1732 L1988.3,96.1732 L1988.3,92.2201 L1987.86,92.2201 C1980.49,91.9857 1979.5,91.4389 1979.5,87.4857 L1979.5,82.642 L1979.5,71.2045 C1979.5,65.8139 1980.27,60.8607 1981.49,58.3295 C1983.8,53.3764 1988.74,49.9701 1993.47,49.9701 C1996.33,49.9701 1999.63,51.517 2001.28,53.8295 C2002.94,56.2357 2003.7,59.5482 2003.7,64.8295 L2003.7,82.642 L2003.7,87.8139 C2003.6,89.4701 2003.49,90.1264 2003.05,90.6732 C2002.27,91.6576 2000.06,92.1107 1995.35,92.2201 L1994.91,92.2201 L1994.91,96.1732 L2022.74,96.1732 L2022.74,92.2201 L2022.3,92.2201 C2015.03,91.9857 2014.05,91.4389 2014.05,87.4857 L2014.05,82.642 L2014.05,65.3764 C2014.05,57.4545 2013.7,55.4701 2011.74,51.7357 C2008.99,46.4545 2003.49,43.267 1996.88,43.267 C1989.74,43.267 1984.35,46.5639 1979.5,53.8295 L1979.5,44.9076 "/>
<path class="Text" d="M1326.5,192.204 L1326.5,162.283 C1326.5,156.673 1326.5,156.454 1327.27,155.47 C1328.05,154.361 1330.13,154.033 1336.41,153.923 L1338.49,153.923 L1338.49,148.751 L1302.3,148.751 L1302.3,153.923 L1304.28,153.923 C1310.55,154.033 1312.64,154.361 1313.52,155.47 C1314.19,156.454 1314.19,156.783 1314.19,162.283 L1314.19,214.642 C1314.19,220.142 1314.19,220.47 1313.52,221.47 C1312.64,222.564 1310.55,223.001 1304.28,223.001 L1302.3,223.001 L1302.3,228.173 L1338.49,228.173 L1338.49,223.001 L1336.41,223.001 C1330.13,222.892 1328.16,222.564 1327.27,221.47 C1326.5,220.47 1326.5,220.251 1326.5,214.642 L1326.5,200.673 L1339.27,187.798 L1358.41,215.861 C1360.16,218.486 1360.6,219.376 1360.6,220.47 C1360.6,222.345 1358.52,223.001 1353.13,223.001 L1349.7,223.001 L1349.7,228.173 L1387.33,228.173 L1387.33,223.001 L1385.24,223.001 C1378.97,222.892 1377.77,222.345 1374.45,217.501 L1347.85,179.111 L1364.24,162.72 C1369.52,157.111 1376.22,153.923 1382.83,153.923 L1382.83,148.751 L1348.94,148.751 L1348.94,153.923 L1351.69,153.923 C1356.75,153.923 1358.85,154.908 1358.85,157.22 C1358.85,158.767 1356.64,161.845 1353.45,165.142 L1326.5,192.204 M1437.16,203.423 C1437.27,186.923 1427.91,175.267 1414.49,175.267 C1400.41,175.267 1389.85,187.47 1389.85,203.97 C1389.85,219.486 1399.86,229.829 1414.7,229.829 C1425.27,229.829 1432.64,224.658 1437.16,214.204 L1433.3,212.111 C1428.8,220.579 1424.17,223.876 1416.8,223.876 C1411.19,223.876 1407.13,221.579 1404.27,216.626 C1402.28,213.329 1401.41,209.47 1401.52,203.423 L1437.16,203.423 M1401.63,198.689 C1401.63,195.283 1402.06,192.861 1403.16,189.783 C1405.47,183.189 1408.99,179.986 1414.38,179.986 C1420.99,179.986 1425.38,185.829 1425.38,194.736 C1425.38,197.814 1424.39,198.689 1420.88,198.689 L1401.63,198.689 M1471,214.204 L1458.91,185.939 C1458.45,184.829 1458.24,184.283 1458.24,183.736 C1458.24,181.642 1459.56,180.876 1463.3,180.876 L1465.61,180.876 L1465.61,176.908 L1439.44,176.908 L1439.44,180.876 L1440.64,180.876 C1444.38,180.986 1445.81,182.079 1448.13,186.814 L1466.05,227.408 L1464.19,231.251 C1460.22,239.611 1455.05,245.439 1451.53,245.439 C1450.55,245.439 1449.77,245.001 1449.77,244.345 C1449.77,244.126 1449.88,243.798 1449.99,243.361 C1450.31,242.361 1450.55,241.376 1450.55,240.486 C1450.55,237.626 1448.24,235.548 1444.94,235.548 C1441.08,235.548 1438.33,238.408 1438.33,242.361 C1438.33,247.314 1442.52,250.829 1448.35,250.829 C1454.17,250.829 1459.13,247.97 1463.52,242.033 C1466.94,237.517 1469.13,232.908 1473.97,220.908 L1486.52,189.783 C1489.05,183.408 1491.45,180.986 1495.75,180.876 L1496.41,180.876 L1496.41,176.908 L1474.41,176.908 L1474.41,180.876 L1476.17,180.876 C1480.35,180.876 1482.11,182.079 1482.11,184.939 C1482.11,186.158 1481.78,187.47 1481.02,189.345 L1471,214.204 M1511.39,215.97 C1507.55,215.97 1504.45,219.048 1504.45,222.783 C1504.45,226.626 1507.55,229.72 1511.28,229.72 C1515.13,229.72 1518.2,226.626 1518.2,222.783 C1518.2,219.048 1515.13,215.97 1511.39,215.97 M1511.39,176.142 C1507.55,176.142 1504.45,179.22 1504.45,183.079 C1504.45,186.814 1507.55,189.892 1511.28,189.892 C1515.13,189.892 1518.2,186.814 1518.2,182.97 C1518.2,179.22 1515.13,176.142 1511.39,176.142 M1628.5,147.986 L1624.33,147.986 L1620.03,154.579 C1612.88,148.97 1608.05,147.095 1600.02,147.095 C1591.31,147.095 1584.5,149.517 1577.56,155.126 C1566.69,163.939 1561.63,175.048 1561.63,189.892 C1561.63,201.111 1564.81,210.47 1571.3,217.611 C1578.13,225.314 1588.24,229.829 1598.8,229.829 C1608.05,229.829 1614.53,226.97 1621.69,219.814 L1625.75,229.72 L1630.38,229.72 L1630.38,205.517 C1630.38,199.908 1630.38,199.689 1631.03,198.689 C1632.02,197.486 1634,197.158 1640.27,197.158 L1641.92,197.158 L1641.92,191.986 L1606.94,191.986 L1606.94,197.158 L1609.03,197.158 C1618.27,197.158 1619.05,197.704 1619.05,203.861 C1619.05,208.595 1618.27,212.876 1616.85,215.517 C1614.1,220.908 1607.05,224.658 1599.91,224.658 C1592.75,224.658 1585.7,221.017 1581.97,215.517 C1577.91,209.361 1576.14,201.658 1576.14,189.892 C1576.14,165.361 1584.28,152.267 1599.56,152.267 C1612.11,152.267 1620.8,161.298 1625.31,178.892 L1630.05,178.892 L1628.5,147.986 "/>
<path class="MeasureNumber" d="M29.892,656.253 C29.2045,659.41 28.4857,661.331 27.3295,663.566 C25.3764,667.206 23.2982,668.847 20.4857,668.847 C19.3295,668.847 18.5795,668.363 18.5795,667.644 C18.5795,667.363 18.6576,667.253 18.9701,666.769 C19.3764,666.253 19.5795,665.769 19.5795,665.206 C19.5795,663.894 18.5326,662.894 17.1732,662.894 C15.5795,662.894 14.4545,664.081 14.4545,665.847 C14.4545,668.566 17.017,670.519 20.5795,670.519 C23.767,670.519 26.7357,669.128 29.1732,666.331 C32.6576,662.441 34.9232,656.644 34.9232,651.722 C34.9232,645.488 31.9232,641.769 26.9701,641.769 C24.017,641.769 21.2514,643.097 19.4076,645.363 C17.6107,647.566 16.5795,650.363 16.5795,652.972 C16.5795,656.769 19.4857,659.644 23.3764,659.644 C26.017,659.644 28.0482,658.566 29.892,656.253 M26.9389,643.456 C29.4857,643.456 31.1264,645.488 31.1264,648.691 C31.1264,653.644 28.4076,657.285 24.7357,657.285 C22.2045,657.285 20.8139,655.566 20.8139,652.566 C20.8139,650.206 21.3764,648.081 22.4545,646.285 C23.6576,644.363 25.0951,643.456 26.9389,643.456"/>
<polyline class="BarLine" fill="none" stroke="#000000" stroke-width="4.46" stroke-linejoin="bevel" points="602.215,408.128 602.215,510.069"/>
<polyline class="BarLine" fill="none" stroke="#000000" stroke-width="4.46" stroke-linejoin="bevel" points="928.948,408.128 928.948,510.069"/>
<polyline class="BarLine" fill="none" stroke="#000000" stroke-width="4.46" stroke-linejoin="bevel" points="1255.68,408.128 1255.68,510.069"/>
<polyline class="BarLine" fill="none" stroke="#000000" stroke-width="4.46" stroke-linejoin="bevel" points="1582.41,408.128 1582.41,510.069"/>
<polyline class="BarLine" fill="none" stroke="#000000" stroke-width="4.46" stroke-linejoin="bevel" points="1909.15,408.128 1909.15,510.069"/>
<polyline class="BarLine" fill="none" stroke="#000000" stroke-width="4.46" stroke-linejoin="bevel" points="2235.88,408.128 2235.88,510.069"/>
<polyline class="BarLine" fill="none" stroke="#000000" stroke-width="4.46" stroke-linejoin="bevel" points="2562.61,408.128 2562.61,510.069"/>
<path class="BarLine" transform="matrix(0.992126,0,0,0.992126,2887.11,446.697)" d="M10.4063,0 C10.4063,-2.90625 8.09375,-5.29688 5.20313,-5.29688 C2.29688,-5.29688 0,-2.90625 0,0 C0,2.90625 2.29688,5.29688 5.20313,5.29688 C8.09375,5.29688 10.4063,2.90625 10.4063,0"/>
<path class="BarLine" transform="matrix(0.992126,0,0,0.992126,2887.11,471.5)" d="M10.4063,0 C10.4063,-2.90625 8.09375,-5.29688 5.20313,-5.29688 C2.29688,-5.29688 0,-2.90625 0,0 C0,2.90625 2.29688,5.29688 5.20313,5.29688 C8.09375,5.29688 10.4063,2.90625 10.4063,0"/>
<polyline class="BarLine" fill="none" stroke="#000000" stroke-width="4.46" stroke-linejoin="bevel" points="2909.63,408.128 2909.63,510.069"/>
<polyline class="BarLine" fill="none" stroke="#000000" stroke-width="13.64" stroke-linejoin="bevel" points="2927,408.128 2927,510.069"/>
<polyline class="BarLine" fill="none" stroke="#000000" stroke-width="4.46" stroke-linejoin="bevel" points="493.701,718.167 493.701,820.108"/>
<polyline class="BarLine" fill="none" stroke="#000000" stroke-width="4.46" stroke-linejoin="bevel" points="835.936,718.167 835.936,820.108"/>
<polyline class="BarLine" fill="none" stroke="#000000" stroke-width="4.46" stroke-linejoin="bevel" points="1178.17,718.167 1178.17,820.108"/>
<polyline class="BarLine" fill="none" stroke="#000000" stroke-width="4.46" stroke-linejoin="bevel" points="1520.41,718.167 1520.41,820.108"/>
<polyline class="BarLine" fill="none" stroke="#000000" stroke-width="4.46" stroke-linejoin="bevel" points="1862.64,718.167 1862.64,820.108"/>
<polyline class="BarLine" fill="none" stroke="#000000" stroke-width="4.46" stroke-linejoin="bevel" points="2204.88,718.167 2204.88,820.108"/>
<polyline class="BarLine" fill="none" stroke="#000000" stroke-width="4.46" stroke-linejoin="bevel" points="2547.11,718.167 2547.11,820.108"/>
<path class="BarLine" transform="matrix(0.992126,0,0,0.992126,2887.11,756.736)" d="M10.4063,0 C10.4063,-2.90625 8.09375,-5.29688 5.20313,-5.29688 C2.29688,-5.29688 0,-2.90625 0,0 C0,2.90625 2.29688,5.29688 5.20313,5.29688 C8.09375,5.29688 10.4063,2.90625 10.4063,0"/>
<path class="BarLine" transform="matrix(0.992126,0,0,0.992126,2887.11,781.539)" d="M10.4063,0 C10.4063,-2.90625 8.09375,-5.29688 5.20313,-5.29688 C2.29688,-5.29688 0,-2.90625 0,0 C0,2.90625 2.29688,5.29688 5.20313,5.29688 C8.09375,5.29688 10.4063,2.90625 10.4063,0"/>
<polyline class="BarLine" fill="none" stroke="#000000" stroke-width="4.46" stroke-linejoin="bevel" points="2909.63,718.167 2909.63,820.108"/>
<polyline class="BarLine" fill="none" stroke="#000000" stroke-width="13.64" stroke-linejoin="bevel" points="2927,718.167 2927,820.108"/>
<path class="Note" transform="matrix(0.992126,0,0,0.992126,332.529,459.098)" d="M64.5,-22 L27.5,22 L12.5,22 L49.5,-22 L64.5,-22 M43,-25 L0,25 L35,25 L78,-25 L43,-25 "/>
<path class="Note" transform="matrix(0.992126,0,0,0.992126,454.971,459.098)" d="M64.5,-22 L27.5,22 L12.5,22 L49.5,-22 L64.5,-22 M43,-25 L0,25 L35,25 L78,-25 L43,-25 "/>
<path class="Note" transform="matrix(0.992126,0,0,0.992126,659.262,459.098)" d="M64.5,-22 L27.5,22 L12.5,22 L49.5,-22 L64.5,-22 M43,-25 L0,25 L35,25 L78,-25 L43,-25 "/>
<path class="Note" transform="matrix(0.992126,0,0,0.992126,781.704,459.098)" d="M64.5,-22 L27.5,22 L12.5,22 L49.5,-22 L64.5,-22 M43,-25 L0,25 L35,25 L78,-25 L43,-25 "/>
<path class="Note" transform="matrix(0.992126,0,0,0.992126,985.995,459.098)" d="M64.5,-22 L27.5,22 L12.5,22 L49.5,-22 L64.5,-22 M43,-25 L0,25 L35,25 L78,-25 L43,-25 "/>
<path class="Note" transform="matrix(0.992126,0,0,0.992126,1108.44,459.098)" d="M64.5,-22 L27.5,22 L12.5,22 L49.5,-22 L64.5,-22 M43,-25 L0,25 L35,25 L78,-25 L43,-25 "/>
<path class="Note" transform="matrix(0.992126,0,0,0.992126,1312.73,459.098)" d="M64.5,-22 L27.5,22 L12.5,22 L49.5,-22 L64.5,-22 M43,-25 L0,25 L35,25 L78,-25 L43,-25 "/>
<path class="Note" transform="matrix(0.992126,0,0,0.992126,1435.17,459.098)" d="M64.5,-22 L27.5,22 L12.5,22 L49.5,-22 L64.5,-22 M43,-25 L0,25 L35,25 L78,-25 L43,-25 "/>
<path class="Note" transform="matrix(0.992126,0,0,0.992126,1639.46,459.098)" d="M64.5,-22 L27.5,22 L12.5,22 L49.5,-22 L64.5,-22 M43,-25 L0,25 L35,25 L78,-25 L43,-25 "/>
<path class="Note" transform="matrix(0.992126,0,0,0.992126,1761.9,459.098)" d="M64.5,-22 L27.5,22 L12.5,22 L49.5,-22 L64.5,-22 M43,-25 L0,25 L35,25 L78,-25 L43,-25 "/>
<path class="Note" transform="matrix(0.992126,0,0,0.992126,1966.19,459.098)" d="M64.5,-22 L27.5,22 L12.5,22 L49.5,-22 L64.5,-22 M43,-25 L0,25 L35,25 L78,-25 L43,-25 "/>
<path class="Note" transform="matrix(0.992126,0,0,0.992126,2088.64,459.098)" d="M64.5,-22 L27.5,22 L12.5,22 L49.5,-22 L64.5,-22 M43,-25 L0,25 L35,25 L78,-25 L43,-25 "/>
<path class="Note" transform="matrix(0.992126,0,0,0.992126,2292.93,459.098)" d="M64.5,-22 L27.5,22 L12.5,22 L49.5,-22 L64.5,-22 M43,-25 L0,25 L35,25 L78,-25 L43,-25 "/>
<path class="Note" transform="matrix(0.992126,0,0,0.992126,2415.37,459.098)" d="M64.5,-22 L27.5,22 L12.5,22 L49.5,-22 L64.5,-22 M43,-25 L0,25 L35,25 L78,-25 L43,-25 "/>
<path class="Note" transform="matrix(0.992126,0,0,0.992126,2619.66,459.098)" d="M64.5,-22 L27.5,22 L12.5,22 L49.5,-22 L64.5,-22 M43,-25 L0,25 L35,25 L78,-25 L43,-25 "/>
<path class="Note" transform="matrix(0.992126,0,0,0.992126,2742.1,459.098)" d="M64.5,-22 L27.5,22 L12.5,22 L49.5,-22 L64.5,-22 M43,-25 L0,25 L35,25 L78,-25 L43,-25 "/>
<path class="Note" transform="matrix(0.992126,0,0,0.992126,208.514,769.138)" d="M64.5,-22 L27.5,22 L12.5,22 L49.5,-22 L64.5,-22 M43,-25 L0,25 L35,25 L78,-25 L43,-25 "/>
<path class="Note" transform="matrix(0.992126,0,0,0.992126,338.706,769.138)" d="M64.5,-22 L27.5,22 L12.5,22 L49.5,-22 L64.5,-22 M43,-25 L0,25 L35,25 L78,-25 L43,-25 "/>
<path class="Note" transform="matrix(0.992126,0,0,0.992126,550.749,769.138)" d="M64.5,-22 L27.5,22 L12.5,22 L49.5,-22 L64.5,-22 M43,-25 L0,25 L35,25 L78,-25 L43,-25 "/>
<path class="Note" transform="matrix(0.992126,0,0,0.992126,680.941,769.138)" d="M64.5,-22 L27.5,22 L12.5,22 L49.5,-22 L64.5,-22 M43,-25 L0,25 L35,25 L78,-25 L43,-25 "/>
<path class="Note" transform="matrix(0.992126,0,0,0.992126,892.984,769.138)" d="M64.5,-22 L27.5,22 L12.5,22 L49.5,-22 L64.5,-22 M43,-25 L0,25 L35,25 L78,-25 L43,-25 "/>
<path class="Note" transform="matrix(0.992126,0,0,0.992126,1023.18,769.138)" d="M64.5,-22 L27.5,22 L12.5,22 L49.5,-22 L64.5,-22 M43,-25 L0,25 L35,25 L78,-25 L43,-25 "/>
<path class="Note" transform="matrix(0.992126,0,0,0.992126,1235.22,769.138)" d="M64.5,-22 L27.5,22 L12.5,22 L49.5,-22 L64.5,-22 M43,-25 L0,25 L35,25 L78,-25 L43,-25 "/>
<path class="Note" transform="matrix(0.992126,0,0,0.992126,1365.41,769.138)" d="M64.5,-22 L27.5,22 L12.5,22 L49.5,-22 L64.5,-22 M43,-25 L0,25 L35,25 L78,-25 L43,-25 "/>
<path class="Note" transform="matrix(0.992126,0,0,0.992126,1577.45,769.138)" d="M64.5,-22 L27.5,22 L12.5,22 L49.5,-22 L64.5,-22 M43,-25 L0,25 L35,25 L78,-25 L43,-25 "/>
<path class="Note" transform="matrix(0.992126,0,0,0.992126,1707.65,769.138)" d="M64.5,-22 L27.5,22 L12.5,22 L49.5,-22 L64.5,-22 M43,-25 L0,25 L35,25 L78,-25 L43,-25 "/>
<path class="Note" transform="matrix(0.992126,0,0,0.992126,1919.69,769.138)" d="M64.5,-22 L27.5,22 L12.5,22 L49.5,-22 L64.5,-22 M43,-25 L0,25 L35,25 L78,-25 L43,-25 "/>
<path class="Note" transform="matrix(0.992126,0,0,0.992126,2049.88,769.138)" d="M64.5,-22 L27.5,22 L12.5,22 L49.5,-22 L64.5,-22 M43,-25 L0,25 L35,25 L78,-25 L43,-25 "/>
<path class="Note" transform="matrix(0.992126,0,0,0.992126,2261.92,769.138)" d="M64.5,-22 L27.5,22 L12.5,22 L49.5,-22 L64.5,-22 M43,-25 L0,25 L35,25 L78,-25 L43,-25 "/>
<path class="Note" transform="matrix(0.992126,0,0,0.992126,2392.12,769.138)" d="M64.5,-22 L27.5,22 L12.5,22 L49.5,-22 L64.5,-22 M43,-25 L0,25 L35,25 L78,-25 L43,-25 "/>
<path class="Note" transform="matrix(0.992126,0,0,0.992126,2604.16,769.138)" d="M64.5,-22 L27.5,22 L12.5,22 L49.5,-22 L64.5,-22 M43,-25 L0,25 L35,25 L78,-25 L43,-25 "/>
<path class="Note" transform="matrix(0.992126,0,0,0.992126,2734.35,769.138)" d="M64.5,-22 L27.5,22 L12.5,22 L49.5,-22 L64.5,-22 M43,-25 L0,25 L35,25 L78,-25 L43,-25 "/>
<path class="Clef" transform="matrix(0.992126,0,0,0.992126,158.031,483.902)" d="M63.3594,-5.92188 C62.125,-11.3438 59.4844,-15.1719 58.7031,-16.2031 C55.5156,-20.4844 51.5,-23.3281 46.8125,-24.6875 C43.7031,-25.5625 40.7031,-25.6875 38.2813,-25.5 C37.2344,-31.5156 36.2344,-37.3906 35.3281,-42.8438 C40.7813,-49.0156 44.4063,-54.8125 46.6875,-59.1094 C50.1563,-65.6875 51.2969,-70.2656 51.3594,-70.4688 C53.0781,-75.6875 53.4375,-83.3906 52.3281,-91.5938 C51.3281,-99.1406 49.2344,-105.859 46.875,-109.109 C45.8594,-110.531 44.7969,-111.266 43.7656,-111.266 C42.5469,-111.266 40.0313,-110.031 37.1406,-107.25 C34.8438,-105.063 31.5781,-101.172 29.0156,-95.1563 C26.0156,-88.0938 25.7969,-78.6094 26.1563,-71.8906 C26.5313,-64.6094 27.6406,-58.9219 27.6563,-58.875 C27.6719,-58.7813 27.9375,-57.2813 28.375,-54.7188 C28.1563,-54.4844 27.9063,-54.2656 27.6563,-54.0156 C26.625,-53.0156 25.4375,-51.8906 24.0469,-50.5 C23.1875,-49.6406 22.2344,-48.7344 21.2344,-47.7656 C12.7969,-39.625 0,-27.2969 0,-8.14063 C0,-3.4375 0.90625,0.984375 2.6875,5 C4.26563,8.59375 6.5625,11.875 9.5,14.75 C17.2344,22.3125 27.8281,25.5156 34.875,25.3594 C37.8281,25.2813 40.4688,25.0469 42.8594,24.5938 C44.6875,34.2031 45.8281,41.2344 45.8594,46.5781 C45.9063,53.0938 44.25,57.0781 40.3594,59.8438 C37.9219,61.5781 35.1094,62.5313 32.0156,62.6719 C29.4219,62.7969 27.1563,62.3281 25.7344,61.9219 L25.7188,61.9219 C25.7188,61.9219 25.4375,61.8281 25.4219,61.6406 C25.4063,61.4531 25.7656,61.4063 25.7656,61.4063 L25.7969,61.4063 C27.7188,60.9688 31.2813,59.7344 33.6406,56.4375 C35.4375,53.9063 36.3125,49.2813 34.4688,45.3438 C33.3594,42.9531 30.8594,40 25.2344,39.5469 C22.7344,39.3438 20.4688,39.8594 18.4688,41.0625 C16.6563,42.1406 15.1563,43.7813 14.1094,45.7813 C11.6563,50.4844 12.1094,56.2188 15.2344,60.0625 C18.2031,63.6875 22.8125,66 28.25,66.5781 C29.1094,66.6719 29.9531,66.7031 30.7969,66.7031 C35.2344,66.7031 39.625,65.5 43.2031,63.2969 C46.8594,60.7188 48.9844,56.7344 49.6563,51.1094 C50.2188,46.4688 49.8281,40.5469 48.4375,32.4688 C48.0781,30.375 47.5313,27.3438 46.875,23.5938 C52.625,21.6719 56.7813,18.0938 60.5469,12.2344 C63.8438,6.5 64.7813,0.390625 63.3594,-5.92188 M29.1406,20.2969 C24.5,19.0781 20.0625,16.5781 16.3125,13.0625 C15,11.8438 13.125,9.67188 11.6563,6.28125 C10.2969,3.10938 9.625,-0.328125 9.6875,-3.90625 C9.75,-8.60938 11.0625,-13.4375 13.5625,-18.2188 C16.4844,-23.7969 21.0469,-29.3281 27.1094,-34.6563 C28.5625,-35.9375 29.9375,-37.2188 31.2188,-38.5 C31.9844,-34.2344 32.8125,-29.5469 33.6875,-24.6719 C29.8438,-23.4063 25.0938,-20.25 21.9844,-14.5938 C18.4375,-8.03125 18.5781,-2.5 19.3125,0.984375 C20.25,5.4375 22.7813,9.20313 26.2344,11.2969 C27.1719,11.8594 31.2969,13.9844 33.1406,13.4063 C33.5156,13.2969 33.7813,13.0625 33.9219,12.7344 C34.4375,11.5625 33.4063,10.9219 31.8594,9.96875 C31.25,9.59375 30.5781,9.17188 29.8594,8.64063 C26.5313,6.15625 25.0781,1.70313 26.1563,-2.6875 C26.7344,-5.07813 28.0156,-7.25 29.8594,-8.95313 C31.5156,-10.5 33.5625,-11.5938 35.9375,-12.2344 C37.9844,-0.984375 40.0469,10.1719 41.6875,18.5313 C41.8125,19.2188 41.9531,19.8906 42.0781,20.5625 C37.7031,21.5 33.3594,21.4063 29.1406,20.2969 M40.4688,-12.9063 C50.8125,-13.375 55.0781,-5.9375 55.9688,-1.10938 C56.4375,1.4375 56.4375,5.875 54.8906,10.0938 C53.7188,13.2656 51.2656,17.3438 46.125,19.4063 C46.0625,18.9844 45.9844,18.5469 45.9063,18.125 C44.3594,9.34375 42.4219,-1.65625 40.4688,-12.9063 M33.1406,-83.8594 C34.9219,-89.5938 37.6563,-92.8438 39.6563,-94.5781 C41.4063,-96.0938 43.0469,-96.8125 43.9688,-96.8125 C44.1094,-96.8125 44.2344,-96.7813 44.3281,-96.75 C44.7969,-96.6094 45.3281,-96.0469 45.7969,-95.1719 C48.1094,-90.8906 47.3594,-84.1719 46.0156,-79.7344 C44.3906,-74.3281 41.4688,-68.7188 32.6719,-59.1094 C32.5,-60.2188 32.3438,-61.2656 32.1875,-62.25 C30.9375,-70.5313 31.2656,-77.8125 33.1406,-83.8594"/>
<path class="Clef" transform="matrix(0.992126,0,0,0.992126,34.0157,793.941)" d="M63.3594,-5.92188 C62.125,-11.3438 59.4844,-15.1719 58.7031,-16.2031 C55.5156,-20.4844 51.5,-23.3281 46.8125,-24.6875 C43.7031,-25.5625 40.7031,-25.6875 38.2813,-25.5 C37.2344,-31.5156 36.2344,-37.3906 35.3281,-42.8438 C40.7813,-49.0156 44.4063,-54.8125 46.6875,-59.1094 C50.1563,-65.6875 51.2969,-70.2656 51.3594,-70.4688 C53.0781,-75.6875 53.4375,-83.3906 52.3281,-91.5938 C51.3281,-99.1406 49.2344,-105.859 46.875,-109.109 C45.8594,-110.531 44.7969,-111.266 43.7656,-111.266 C42.5469,-111.266 40.0313,-110.031 37.1406,-107.25 C34.8438,-105.063 31.5781,-101.172 29.0156,-95.1563 C26.0156,-88.0938 25.7969,-78.6094 26.1563,-71.8906 C26.5313,-64.6094 27.6406,-58.9219 27.6563,-58.875 C27.6719,-58.7813 27.9375,-57.2813 28.375,-54.7188 C28.1563,-54.4844 27.9063,-54.2656 27.6563,-54.0156 C26.625,-53.0156 25.4375,-51.8906 24.0469,-50.5 C23.1875,-49.6406 22.2344,-48.7344 21.2344,-47.7656 C12.7969,-39.625 0,-27.2969 0,-8.14063 C0,-3.4375 0.90625,0.984375 2.6875,5 C4.26563,8.59375 6.5625,11.875 9.5,14.75 C17.2344,22.3125 27.8281,25.5156 34.875,25.3594 C37.8281,25.2813 40.4688,25.0469 42.8594,24.5938 C44.6875,34.2031 45.8281,41.2344 45.8594,46.5781 C45.9063,53.0938 44.25,57.0781 40.3594,59.8438 C37.9219,61.5781 35.1094,62.5313 32.0156,62.6719 C29.4219,62.7969 27.1563,62.3281 25.7344,61.9219 L25.7188,61.9219 C25.7188,61.9219 25.4375,61.8281 25.4219,61.6406 C25.4063,61.4531 25.7656,61.4063 25.7656,61.4063 L25.7969,61.4063 C27.7188,60.9688 31.2813,59.7344 33.6406,56.4375 C35.4375,53.9063 36.3125,49.2813 34.4688,45.3438 C33.3594,42.9531 30.8594,40 25.2344,39.5469 C22.7344,39.3438 20.4688,39.8594 18.4688,41.0625 C16.6563,42.1406 15.1563,43.7813 14.1094,45.7813 C11.6563,50.4844 12.1094,56.2188 15.2344,60.0625 C18.2031,63.6875 22.8125,66 28.25,66.5781 C29.1094,66.6719 29.9531,66.7031 30.7969,66.7031 C35.2344,66.7031 39.625,65.5 43.2031,63.2969 C46.8594,60.7188 48.9844,56.7344 49.6563,51.1094 C50.2188,46.4688 49.8281,40.5469 48.4375,32.4688 C48.0781,30.375 47.5313,27.3438 46.875,23.5938 C52.625,21.6719 56.7813,18.0938 60.5469,12.2344 C63.8438,6.5 64.7813,0.390625 63.3594,-5.92188 M29.1406,20.2969 C24.5,19.0781 20.0625,16.5781 16.3125,13.0625 C15,11.8438 13.125,9.67188 11.6563,6.28125 C10.2969,3.10938 9.625,-0.328125 9.6875,-3.90625 C9.75,-8.60938 11.0625,-13.4375 13.5625,-18.2188 C16.4844,-23.7969 21.0469,-29.3281 27.1094,-34.6563 C28.5625,-35.9375 29.9375,-37.2188 31.2188,-38.5 C31.9844,-34.2344 32.8125,-29.5469 33.6875,-24.6719 C29.8438,-23.4063 25.0938,-20.25 21.9844,-14.5938 C18.4375,-8.03125 18.5781,-2.5 19.3125,0.984375 C20.25,5.4375 22.7813,9.20313 26.2344,11.2969 C27.1719,11.8594 31.2969,13.9844 33.1406,13.4063 C33.5156,13.2969 33.7813,13.0625 33.9219,12.7344 C34.4375,11.5625 33.4063,10.9219 31.8594,9.96875 C31.25,9.59375 30.5781,9.17188 29.8594,8.64063 C26.5313,6.15625 25.0781,1.70313 26.1563,-2.6875 C26.7344,-5.07813 28.0156,-7.25 29.8594,-8.95313 C31.5156,-10.5 33.5625,-11.5938 35.9375,-12.2344 C37.9844,-0.984375 40.0469,10.1719 41.6875,18.5313 C41.8125,19.2188 41.9531,19.8906 42.0781,20.5625 C37.7031,21.5 33.3594,21.4063 29.1406,20.2969 M40.4688,-12.9063 C50.8125,-13.375 55.0781,-5.9375 55.9688,-1.10938 C56.4375,1.4375 56.4375,5.875 54.8906,10.0938 C53.7188,13.2656 51.2656,17.3438 46.125,19.4063 C46.0625,18.9844 45.9844,18.5469 45.9063,18.125 C44.3594,9.34375 42.4219,-1.65625 40.4688,-12.9063 M33.1406,-83.8594 C34.9219,-89.5938 37.6563,-92.8438 39.6563,-94.5781 C41.4063,-96.0938 43.0469,-96.8125 43.9688,-96.8125 C44.1094,-96.8125 44.2344,-96.7813 44.3281,-96.75 C44.7969,-96.6094 45.3281,-96.0469 45.7969,-95.1719 C48.1094,-90.8906 47.3594,-84.1719 46.0156,-79.7344 C44.3906,-74.3281 41.4688,-68.7188 32.6719,-59.1094 C32.5,-60.2188 32.3438,-61.2656 32.1875,-62.25 C30.9375,-70.5313 31.2656,-77.8125 33.1406,-83.8594"/>
<path class="KeySig" transform="matrix(0.992126,0,0,0.992126,246.315,409.492)" d="M23.2969,-10.5938 C23.9063,-10.7031 24.4063,-11.4063 24.4063,-12 L24.4063,-17.9063 C24.4063,-18.7031 23.7969,-19.2969 23,-19.2969 L22.7969,-19.2969 L19.5,-18.5938 L19.5,-33.5 L16.7031,-33.5 L16.7031,-18 L7.79688,-16.2031 L7.79688,-30.2969 L5,-30.2969 L5,-15.5938 L1.09375,-14.7969 C0.5,-14.7031 0,-14 0,-13.4063 L0,-13.2031 L0,-7.40625 L0,-7.59375 C0,-6.79688 0.59375,-6.20313 1.40625,-6.20313 L1.70313,-6.20313 L5,-6.90625 L5,9.59375 L1.09375,10.4063 C0.5,10.5 0,11.2031 0,11.7969 L0,17.5938 C0,18.4063 0.59375,19 1.40625,19 L1.70313,19 L5,18.2969 L5,33.2031 L7.79688,33.2031 L7.79688,17.7031 L16.7031,15.9063 L16.7031,30 L19.5,30 L19.5,15.2969 L23.2969,14.5938 C23.9063,14.5 24.4063,13.7969 24.4063,13.2031 L24.4063,7.29688 C24.4063,6.5 23.7969,5.90625 23,5.90625 L22.7969,5.90625 L19.5,6.59375 L19.5,-9.90625 L23.2969,-10.5938 M7.79688,9.09375 L7.79688,-7.5 L16.7031,-9.29688 L16.7031,7.20313 L7.79688,9.09375 "/>
<path class="KeySig" transform="matrix(0.992126,0,0,0.992126,122.299,719.531)" d="M23.2969,-10.5938 C23.9063,-10.7031 24.4063,-11.4063 24.4063,-12 L24.4063,-17.9063 C24.4063,-18.7031 23.7969,-19.2969 23,-19.2969 L22.7969,-19.2969 L19.5,-18.5938 L19.5,-33.5 L16.7031,-33.5 L16.7031,-18 L7.79688,-16.2031 L7.79688,-30.2969 L5,-30.2969 L5,-15.5938 L1.09375,-14.7969 C0.5,-14.7031 0,-14 0,-13.4063 L0,-13.2031 L0,-7.40625 L0,-7.59375 C0,-6.79688 0.59375,-6.20313 1.40625,-6.20313 L1.70313,-6.20313 L5,-6.90625 L5,9.59375 L1.09375,10.4063 C0.5,10.5 0,11.2031 0,11.7969 L0,17.5938 C0,18.4063 0.59375,19 1.40625,19 L1.70313,19 L5,18.2969 L5,33.2031 L7.79688,33.2031 L7.79688,17.7031 L16.7031,15.9063 L16.7031,30 L19.5,30 L19.5,15.2969 L23.2969,14.5938 C23.9063,14.5 24.4063,13.7969 24.4063,13.2031 L24.4063,7.29688 C24.4063,6.5 23.7969,5.90625 23,5.90625 L22.7969,5.90625 L19.5,6.59375 L19.5,-9.90625 L23.2969,-10.5938 M7.79688,9.09375 L7.79688,-7.5 L16.7031,-9.29688 L16.7031,7.20313 L7.79688,9.09375 "/>
<path class="RehearsalMark" fill="none" stroke="#000000" stroke-width="3.97" stroke-linecap="square" stroke-linejoin="miter" stroke-miterlimit="2" fill-rule="evenodd" d="M319.156,266.173 L425.928,266.173 L425.928,369.945 L319.156,369.945 L319.156,266.173 "/>
<path class="RehearsalMark" d="M401.729,280.997 L397.37,280.997 L391.526,285.95 C384.589,281.981 379.839,280.59 372.62,280.59 C361.229,280.59 351.526,284.653 344.104,292.575 C337.479,299.7 334.401,308.012 334.401,318.903 C334.401,340.387 348.464,355.043 368.948,355.043 C374.995,355.043 381.026,353.559 385.479,350.981 C387.964,349.497 389.542,348.215 392.511,345.247 L397.37,354.95 L402.62,354.95 L402.62,334.653 C402.62,328.418 402.62,328.012 403.308,327.122 C404.401,326.043 405.886,325.747 411.417,325.637 L411.417,320.293 L376.276,320.293 L376.276,325.637 L377.37,325.637 C386.183,325.747 386.276,325.84 386.37,333.168 L386.37,334.653 C386.37,343.856 380.542,349.903 371.729,349.903 C365.683,349.903 360.729,346.731 358.261,341.387 C355.589,335.637 354.198,327.622 354.198,318.309 C354.198,307.825 356.183,299.106 359.839,293.168 C362.714,288.512 367.964,285.747 373.808,285.747 C385.479,285.747 394.104,294.356 397.37,309.403 L402.62,309.403 L401.729,280.997 "/>
<path class="RehearsalMark" fill="none" stroke="#000000" stroke-width="3.97" stroke-linecap="square" stroke-linejoin="miter" stroke-miterlimit="2" fill-rule="evenodd" d="M1285.82,274.564 L1392.6,274.564 L1392.6,375.335 L1285.82,375.335 L1285.82,274.564 "/>
<path class="RehearsalMark" d="M1301.08,360.95 L1337.52,360.95 C1349.99,360.95 1357.91,359.168 1364.05,354.809 C1372.87,348.668 1377.71,337.981 1377.71,324.418 C1377.71,311.059 1372.87,300.95 1363.55,294.825 C1357.52,290.856 1350.29,289.465 1336.33,289.465 L1301.08,289.465 L1301.08,294.825 L1302.57,294.825 C1307.82,294.825 1309.8,295.215 1310.69,296.309 C1311.38,297.293 1311.38,297.59 1311.38,303.731 L1311.38,346.7 C1311.38,352.825 1311.38,353.121 1310.69,354.121 C1309.8,355.215 1307.82,355.606 1302.57,355.606 L1301.08,355.606 L1301.08,360.95 M1335.15,355.606 C1330.1,355.512 1329.21,354.512 1329.21,349.168 L1329.21,300.762 C1329.01,296.2 1330.19,295.012 1335.15,294.825 L1337.62,294.825 C1351.38,294.825 1358.02,304.418 1358.02,324.215 C1358.02,334.809 1355.93,344.418 1352.77,348.871 C1349.69,353.028 1343.87,355.606 1337.23,355.606 L1335.15,355.606 "/>
<path class="RehearsalMark" fill="none" stroke="#000000" stroke-width="3.97" stroke-linecap="square" stroke-linejoin="miter" stroke-miterlimit="2" fill-rule="evenodd" d="M1612.56,269.869 L1719.33,269.869 L1719.33,373.64 L1612.56,373.64 L1612.56,269.869 "/>
<path class="RehearsalMark" d="M1695.13,284.692 L1690.77,284.692 L1684.93,289.645 C1677.99,285.676 1673.24,284.286 1666.02,284.286 C1654.63,284.286 1644.93,288.348 1637.51,296.27 C1630.88,303.395 1627.8,311.707 1627.8,322.598 C1627.8,344.082 1641.86,358.739 1662.35,358.739 C1668.4,358.739 1674.43,357.254 1678.88,354.676 C1681.36,353.192 1682.94,351.911 1685.91,348.942 L1690.77,358.645 L1696.02,358.645 L1696.02,338.348 C1696.02,332.114 1696.02,331.707 1696.71,330.817 C1697.8,329.739 1699.29,329.442 1704.82,329.332 L1704.82,323.989 L1669.68,323.989 L1669.68,329.332 L1670.77,329.332 C1679.58,329.442 1679.68,329.536 1679.77,336.864 L1679.77,338.348 C1679.77,347.551 1673.94,353.598 1665.13,353.598 C1659.08,353.598 1654.13,350.426 1651.66,345.082 C1648.99,339.332 1647.6,331.317 1647.6,322.004 C1647.6,311.52 1649.58,302.801 1653.24,296.864 C1656.11,292.207 1661.36,289.442 1667.21,289.442 C1678.88,289.442 1687.51,298.051 1690.77,313.098 L1696.02,313.098 L1695.13,284.692 "/>
<path class="RehearsalMark" fill="none" stroke="#000000" stroke-width="3.97" stroke-linecap="square" stroke-linejoin="miter" stroke-miterlimit="2" fill-rule="evenodd" d="M2603.84,270.869 L2710.61,270.869 L2710.61,371.64 L2603.84,371.64 L2603.84,270.869 "/>
<path class="RehearsalMark" d="M2619.1,357.254 L2655.54,357.254 C2668.01,357.254 2675.93,355.473 2682.07,351.114 C2690.88,344.973 2695.73,334.286 2695.73,320.723 C2695.73,307.364 2690.88,297.254 2681.57,291.129 C2675.54,287.161 2668.31,285.77 2654.35,285.77 L2619.1,285.77 L2619.1,291.129 L2620.59,291.129 C2625.84,291.129 2627.82,291.52 2628.71,292.614 C2629.4,293.598 2629.4,293.895 2629.4,300.036 L2629.4,343.004 C2629.4,349.129 2629.4,349.426 2628.71,350.426 C2627.82,351.52 2625.84,351.911 2620.59,351.911 L2619.1,351.911 L2619.1,357.254 M2653.16,351.911 C2648.12,351.817 2647.23,350.817 2647.23,345.473 L2647.23,297.067 C2647.02,292.504 2648.21,291.317 2653.16,291.129 L2655.63,291.129 C2669.4,291.129 2676.04,300.723 2676.04,320.52 C2676.04,331.114 2673.95,340.723 2670.79,345.176 C2667.71,349.332 2661.88,351.911 2655.24,351.911 L2653.16,351.911 "/>
<path class="RehearsalMark" fill="none" stroke="#000000" stroke-width="3.97" stroke-linecap="square" stroke-linejoin="miter" stroke-miterlimit="2" fill-rule="evenodd" d="M2751.93,270.531 L2858.71,270.531 L2858.71,374.303 L2751.93,374.303 L2751.93,270.531 "/>
<path class="RehearsalMark" d="M2834.51,285.354 L2830.15,285.354 L2824.3,290.307 C2817.37,286.339 2812.62,284.948 2805.4,284.948 C2794.01,284.948 2784.3,289.01 2776.88,296.932 C2770.26,304.057 2767.18,312.37 2767.18,323.26 C2767.18,344.745 2781.24,359.401 2801.73,359.401 C2807.77,359.401 2813.8,357.917 2818.26,355.339 C2820.74,353.854 2822.32,352.573 2825.29,349.604 L2830.15,359.307 L2835.4,359.307 L2835.4,339.01 C2835.4,332.776 2835.4,332.37 2836.09,331.479 C2837.18,330.401 2838.66,330.104 2844.2,329.995 L2844.2,324.651 L2809.05,324.651 L2809.05,329.995 L2810.15,329.995 C2818.96,330.104 2819.05,330.198 2819.15,337.526 L2819.15,339.01 C2819.15,348.214 2813.32,354.26 2804.51,354.26 C2798.46,354.26 2793.51,351.089 2791.04,345.745 C2788.37,339.995 2786.98,331.979 2786.98,322.667 C2786.98,312.182 2788.96,303.464 2792.62,297.526 C2795.49,292.87 2800.74,290.104 2806.59,290.104 C2818.26,290.104 2826.88,298.714 2830.15,313.76 L2835.4,313.76 L2834.51,285.354 "/>
<path class="RehearsalMark" fill="none" stroke="#000000" stroke-width="3.97" stroke-linecap="square" stroke-linejoin="miter" stroke-miterlimit="2" fill-rule="evenodd" d="M200.283,572.517 L307.055,572.517 L307.055,676.289 L200.283,676.289 L200.283,572.517 "/>
<path class="RehearsalMark" d="M282.856,587.341 L278.497,587.341 L272.653,592.294 C265.716,588.325 260.966,586.934 253.747,586.934 C242.356,586.934 232.653,590.997 225.231,598.919 C218.606,606.044 215.528,614.356 215.528,625.247 C215.528,646.731 229.591,661.388 250.075,661.388 C256.122,661.388 262.153,659.903 266.606,657.325 C269.091,655.841 270.669,654.559 273.638,651.591 L278.497,661.294 L283.747,661.294 L283.747,640.997 C283.747,634.763 283.747,634.356 284.435,633.466 C285.528,632.388 287.013,632.091 292.544,631.981 L292.544,626.638 L257.403,626.638 L257.403,631.981 L258.497,631.981 C267.31,632.091 267.403,632.184 267.497,639.513 L267.497,640.997 C267.497,650.2 261.669,656.247 252.856,656.247 C246.81,656.247 241.856,653.075 239.388,647.731 C236.716,641.981 235.325,633.966 235.325,624.653 C235.325,614.169 237.31,605.45 240.966,599.513 C243.841,594.856 249.091,592.091 254.935,592.091 C266.606,592.091 275.231,600.7 278.497,615.747 L283.747,615.747 L282.856,587.341 "/>
<path class="RehearsalMark" fill="none" stroke="#000000" stroke-width="3.97" stroke-linecap="square" stroke-linejoin="miter" stroke-miterlimit="2" fill-rule="evenodd" d="M699.665,568.822 L803.436,568.822 L803.436,672.594 L699.665,672.594 L699.665,568.822 "/>
<path class="RehearsalMark" d="M783.144,583.645 L778.894,583.645 L773.55,588.489 C767.019,584.536 762.566,583.239 755.425,583.239 C744.347,583.239 735.144,587.005 728.004,594.63 C721.285,601.755 718.004,610.567 718.004,621.364 C718.004,631.661 720.988,639.77 727.41,646.802 C734.254,654.333 742.566,657.692 754.238,657.692 C771.769,657.692 781.769,649.27 785.629,631.458 L779.488,629.973 C776.816,643.739 768.894,651.552 757.504,651.552 C744.05,651.552 737.707,641.364 737.707,619.583 C737.707,598.989 744.05,588.395 756.222,588.395 C767.207,588.395 774.441,596.02 778.894,612.552 L784.144,611.958 L783.144,583.645 "/>
<path class="RehearsalMark" fill="none" stroke="#000000" stroke-width="3.97" stroke-linecap="square" stroke-linejoin="miter" stroke-miterlimit="2" fill-rule="evenodd" d="M873.47,566.484 L980.241,566.484 L980.241,670.256 L873.47,670.256 L873.47,566.484 "/>
<path class="RehearsalMark" d="M956.043,581.308 L951.684,581.308 L945.84,586.261 C938.902,582.292 934.152,580.901 926.934,580.901 C915.543,580.901 905.84,584.964 898.418,592.886 C891.793,600.011 888.715,608.323 888.715,619.214 C888.715,640.698 902.777,655.355 923.262,655.355 C929.309,655.355 935.34,653.87 939.793,651.292 C942.277,649.808 943.855,648.526 946.824,645.558 L951.684,655.261 L956.934,655.261 L956.934,634.964 C956.934,628.73 956.934,628.323 957.621,627.433 C958.715,626.355 960.199,626.058 965.73,625.948 L965.73,620.605 L930.59,620.605 L930.59,625.948 L931.684,625.948 C940.496,626.058 940.59,626.151 940.684,633.48 L940.684,634.964 C940.684,644.167 934.855,650.214 926.043,650.214 C919.996,650.214 915.043,647.042 912.574,641.698 C909.902,635.948 908.512,627.933 908.512,618.62 C908.512,608.136 910.496,599.417 914.152,593.48 C917.027,588.823 922.277,586.058 928.121,586.058 C939.793,586.058 948.418,594.667 951.684,609.714 L956.934,609.714 L956.043,581.308 "/>
<path class="RehearsalMark" fill="none" stroke="#000000" stroke-width="3.97" stroke-linecap="square" stroke-linejoin="miter" stroke-miterlimit="2" fill-rule="evenodd" d="M1353.07,573.517 L1459.84,573.517 L1459.84,674.289 L1353.07,674.289 L1353.07,573.517 "/>
<path class="RehearsalMark" d="M1368.33,659.903 L1404.77,659.903 C1417.24,659.903 1425.16,658.122 1431.3,653.763 C1440.11,647.622 1444.96,636.934 1444.96,623.372 C1444.96,610.013 1440.11,599.903 1430.8,593.778 C1424.77,589.809 1417.54,588.419 1403.58,588.419 L1368.33,588.419 L1368.33,593.778 L1369.82,593.778 C1375.07,593.778 1377.05,594.169 1377.94,595.263 C1378.63,596.247 1378.63,596.544 1378.63,602.684 L1378.63,645.653 C1378.63,651.778 1378.63,652.075 1377.94,653.075 C1377.05,654.169 1375.07,654.559 1369.82,654.559 L1368.33,654.559 L1368.33,659.903 M1402.4,654.559 C1397.35,654.466 1396.46,653.466 1396.46,648.122 L1396.46,599.716 C1396.25,595.153 1397.44,593.966 1402.4,593.778 L1404.86,593.778 C1418.63,593.778 1425.27,603.372 1425.27,623.169 C1425.27,633.763 1423.18,643.372 1420.02,647.825 C1416.94,651.981 1411.11,654.559 1404.47,654.559 L1402.4,654.559 "/>
<path class="RehearsalMark" fill="none" stroke="#000000" stroke-width="3.97" stroke-linecap="square" stroke-linejoin="miter" stroke-miterlimit="2" fill-rule="evenodd" d="M1554.24,573.351 L1661.02,573.351 L1661.02,677.123 L1554.24,677.123 L1554.24,573.351 "/>
<path class="RehearsalMark" d="M1636.82,588.175 L1632.46,588.175 L1626.61,593.128 C1619.68,589.159 1614.93,587.768 1607.71,587.768 C1596.32,587.768 1586.61,591.831 1579.19,599.753 C1572.57,606.878 1569.49,615.19 1569.49,626.081 C1569.49,647.565 1583.55,662.222 1604.04,662.222 C1610.08,662.222 1616.11,660.737 1620.57,658.159 C1623.05,656.675 1624.63,655.393 1627.6,652.425 L1632.46,662.128 L1637.71,662.128 L1637.71,641.831 C1637.71,635.597 1637.71,635.19 1638.4,634.3 C1639.49,633.222 1640.97,632.925 1646.51,632.815 L1646.51,627.472 L1611.36,627.472 L1611.36,632.815 L1612.46,632.815 C1621.27,632.925 1621.36,633.018 1621.46,640.347 L1621.46,641.831 C1621.46,651.034 1615.63,657.081 1606.82,657.081 C1600.77,657.081 1595.82,653.909 1593.35,648.565 C1590.68,642.815 1589.29,634.8 1589.29,625.487 C1589.29,615.003 1591.27,606.284 1594.93,600.347 C1597.8,595.69 1603.05,592.925 1608.9,592.925 C1620.57,592.925 1629.19,601.534 1632.46,616.581 L1637.71,616.581 L1636.82,588.175 "/>
<path class="RehearsalMark" fill="none" stroke="#000000" stroke-width="3.97" stroke-linecap="square" stroke-linejoin="miter" stroke-miterlimit="2" fill-rule="evenodd" d="M2039.04,576.213 L2142.81,576.213 L2142.81,679.984 L2039.04,679.984 L2039.04,576.213 "/>
<path class="RehearsalMark" d="M2122.52,591.036 L2118.27,591.036 L2112.93,595.88 C2106.4,591.927 2101.94,590.63 2094.8,590.63 C2083.72,590.63 2074.52,594.395 2067.38,602.02 C2060.66,609.145 2057.38,617.958 2057.38,628.755 C2057.38,639.052 2060.37,647.161 2066.79,654.192 C2073.63,661.723 2081.94,665.083 2093.62,665.083 C2111.15,665.083 2121.15,656.661 2125.01,638.848 L2118.87,637.364 C2116.19,651.13 2108.27,658.942 2096.88,658.942 C2083.43,658.942 2077.08,648.755 2077.08,626.973 C2077.08,606.38 2083.43,595.786 2095.6,595.786 C2106.58,595.786 2113.82,603.411 2118.27,619.942 L2123.52,619.348 L2122.52,591.036 "/>
<path class="RehearsalMark" fill="none" stroke="#000000" stroke-width="3.97" stroke-linecap="square" stroke-linejoin="miter" stroke-miterlimit="2" fill-rule="evenodd" d="M2257.19,574.047 L2363.96,574.047 L2363.96,677.818 L2257.19,677.818 L2257.19,574.047 "/>
<path class="RehearsalMark" d="M2339.76,588.87 L2335.4,588.87 L2329.56,593.823 C2322.62,589.854 2317.87,588.464 2310.65,588.464 C2299.26,588.464 2289.56,592.526 2282.14,600.448 C2275.51,607.573 2272.44,615.886 2272.44,626.776 C2272.44,648.261 2286.5,662.917 2306.98,662.917 C2313.03,662.917 2319.06,661.432 2323.51,658.854 C2326,657.37 2327.58,656.089 2330.55,653.12 L2335.4,662.823 L2340.65,662.823 L2340.65,642.526 C2340.65,636.292 2340.65,635.886 2341.34,634.995 C2342.44,633.917 2343.92,633.62 2349.45,633.511 L2349.45,628.167 L2314.31,628.167 L2314.31,633.511 L2315.4,633.511 C2324.22,633.62 2324.31,633.714 2324.4,641.042 L2324.4,642.526 C2324.4,651.729 2318.58,657.776 2309.76,657.776 C2303.72,657.776 2298.76,654.604 2296.3,649.261 C2293.62,643.511 2292.23,635.495 2292.23,626.182 C2292.23,615.698 2294.22,606.979 2297.87,601.042 C2300.75,596.386 2306,593.62 2311.84,593.62 C2323.51,593.62 2332.14,602.229 2335.4,617.276 L2340.65,617.276 L2339.76,588.87 "/>
<path class="RehearsalMark" fill="none" stroke="#000000" stroke-width="3.97" stroke-linecap="square" stroke-linejoin="miter" stroke-miterlimit="2" fill-rule="evenodd" d="M2573.56,569.822 L2680.33,569.822 L2680.33,670.594 L2573.56,670.594 L2573.56,569.822 "/>
<path class="RehearsalMark" d="M2588.82,656.208 L2625.26,656.208 C2637.73,656.208 2645.65,654.427 2651.79,650.067 C2660.6,643.927 2665.44,633.239 2665.44,619.677 C2665.44,606.317 2660.6,596.208 2651.29,590.083 C2645.26,586.114 2638.02,584.723 2624.07,584.723 L2588.82,584.723 L2588.82,590.083 L2590.3,590.083 C2595.55,590.083 2597.54,590.473 2598.43,591.567 C2599.12,592.552 2599.12,592.848 2599.12,598.989 L2599.12,641.958 C2599.12,648.083 2599.12,648.38 2598.43,649.38 C2597.54,650.473 2595.55,650.864 2590.3,650.864 L2588.82,650.864 L2588.82,656.208 M2622.88,650.864 C2617.83,650.77 2616.94,649.77 2616.94,644.427 L2616.94,596.02 C2616.74,591.458 2617.93,590.27 2622.88,590.083 L2625.35,590.083 C2639.12,590.083 2645.76,599.677 2645.76,619.473 C2645.76,630.067 2643.66,639.677 2640.51,644.13 C2637.43,648.286 2631.6,650.864 2624.96,650.864 L2622.88,650.864 "/>
<path class="RehearsalMark" fill="none" stroke="#000000" stroke-width="3.97" stroke-linecap="square" stroke-linejoin="miter" stroke-miterlimit="2" fill-rule="evenodd" d="M2747.88,571.351 L2854.65,571.351 L2854.65,675.123 L2747.88,675.123 L2747.88,571.351 "/>
<path class="RehearsalMark" d="M2830.45,586.175 L2826.09,586.175 L2820.25,591.128 C2813.31,587.159 2808.56,585.768 2801.34,585.768 C2789.95,585.768 2780.25,589.831 2772.83,597.753 C2766.2,604.878 2763.12,613.19 2763.12,624.081 C2763.12,645.565 2777.19,660.222 2797.67,660.222 C2803.72,660.222 2809.75,658.737 2814.2,656.159 C2816.69,654.675 2818.26,653.393 2821.23,650.425 L2826.09,660.128 L2831.34,660.128 L2831.34,639.831 C2831.34,633.597 2831.34,633.19 2832.03,632.3 C2833.12,631.222 2834.61,630.925 2840.14,630.815 L2840.14,625.472 L2805,625.472 L2805,630.815 L2806.09,630.815 C2814.91,630.925 2815,631.018 2815.09,638.347 L2815.09,639.831 C2815.09,649.034 2809.26,655.081 2800.45,655.081 C2794.41,655.081 2789.45,651.909 2786.98,646.565 C2784.31,640.815 2782.92,632.8 2782.92,623.487 C2782.92,613.003 2784.91,604.284 2788.56,598.347 C2791.44,593.69 2796.69,590.925 2802.53,590.925 C2814.2,590.925 2822.83,599.534 2826.09,614.581 L2831.34,614.581 L2830.45,586.175 "/>
</svg>
