<?xml version="1.0" encoding="UTF-8" standalone="no"?>
<svg width="2976.38px" height="836.22px" viewBox="0 0 2976.38 836.22"
 xmlns="http://www.w3.org/2000/svg" xmlns:xlink="http://www.w3.org/1999/xlink" version="1.2" baseProfile="tiny">
<title>LouisvilleBreakdown</title>
<desc>Generated by MuseScore 3.6.2</desc>
<polyline class="StaffLines" fill="none" stroke="#000000" stroke-width="2.73" stroke-linejoin="bevel" points="138.189,187.795 2933.86,187.795"/>
<polyline class="StaffLines" fill="none" stroke="#000000" stroke-width="2.73" stroke-linejoin="bevel" points="138.189,212.598 2933.86,212.598"/>
<polyline class="StaffLines" fill="none" stroke="#000000" stroke-width="2.73" stroke-linejoin="bevel" points="138.189,237.402 2933.86,237.402"/>
<polyline class="StaffLines" fill="none" stroke="#000000" stroke-width="2.73" stroke-linejoin="bevel" points="138.189,262.205 2933.86,262.205"/>
<polyline class="StaffLines" fill="none" stroke="#000000" stroke-width="2.73" stroke-linejoin="bevel" points="138.189,287.008 2933.86,287.008"/>
<polyline class="StaffLines" fill="none" stroke="#000000" stroke-width="2.73" stroke-linejoin="bevel" points="14.1732,497.835 2933.86,497.835"/>
<polyline class="StaffLines" fill="none" stroke="#000000" stroke-width="2.73" stroke-linejoin="bevel" points="14.1732,522.638 2933.86,522.638"/>
<polyline class="StaffLines" fill="none" stroke="#000000" stroke-width="2.73" stroke-linejoin="bevel" points="14.1732,547.441 2933.86,547.441"/>
<polyline class="StaffLines" fill="none" stroke="#000000" stroke-width="2.73" stroke-linejoin="bevel" points="14.1732,572.244 2933.86,572.244"/>
<polyline class="StaffLines" fill="none" stroke="#000000" stroke-width="2.73" stroke-linejoin="bevel" points="14.1732,597.047 2933.86,597.047"/>
<path class="MeasureNumber" d="M29.892,434.556 C29.2045,437.713 28.4857,439.635 27.3295,441.869 C25.3764,445.51 23.2982,447.15 20.4857,447.15 C19.3295,447.15 18.5795,446.666 18.5795,445.947 C18.5795,445.666 18.6576,445.556 18.9701,445.072 C19.3764,444.556 19.5795,444.072 19.5795,443.51 C19.5795,442.197 18.5326,441.197 17.1732,441.197 C15.5795,441.197 14.4545,442.385 14.4545,444.15 C14.4545,446.869 17.017,448.822 20.5795,448.822 C23.767,448.822 26.7357,447.431 29.1732,444.635 C32.6576,440.744 34.9232,434.947 34.9232,430.025 C34.9232,423.791 31.9232,420.072 26.9701,420.072 C24.017,420.072 21.2514,421.4 19.4076,423.666 C17.6107,425.869 16.5795,428.666 16.5795,431.275 C16.5795,435.072 19.4857,437.947 23.3764,437.947 C26.017,437.947 28.0482,436.869 29.892,434.556 M26.9389,421.76 C29.4857,421.76 31.1264,423.791 31.1264,426.994 C31.1264,431.947 28.4076,435.588 24.7357,435.588 C22.2045,435.588 20.8139,433.869 20.8139,430.869 C20.8139,428.51 21.3764,426.385 22.4545,424.588 C23.6576,422.666 25.0951,421.76 26.9389,421.76"/>
<polyline class="BarLine" fill="none" stroke="#000000" stroke-width="4.46" stroke-linejoin="bevel" points="602.215,186.431 602.215,288.372"/>
<polyline class="BarLine" fill="none" stroke="#000000" stroke-width="4.46" stroke-linejoin="bevel" points="928.948,186.431 928.948,288.372"/>
<polyline class="BarLine" fill="none" stroke="#000000" stroke-width="4.46" stroke-linejoin="bevel" points="1255.68,186.431 1255.68,288.372"/>
<polyline class="BarLine" fill="none" stroke="#000000" stroke-width="4.46" stroke-linejoin="bevel" points="1582.41,186.431 1582.41,288.372"/>
<polyline class="BarLine" fill="none" stroke="#000000" stroke-width="4.46" stroke-linejoin="bevel" points="1909.15,186.431 1909.15,288.372"/>
<polyline class="BarLine" fill="none" stroke="#000000" stroke-width="4.46" stroke-linejoin="bevel" points="2235.88,186.431 2235.88,288.372"/>
<polyline class="BarLine" fill="none" stroke="#000000" stroke-width="4.46" stroke-linejoin="bevel" points="2562.61,186.431 2562.61,288.372"/>
<path class="BarLine" transform="matrix(0.992126,0,0,0.992126,2887.11,225)" d="M10.4063,0 C10.4063,-2.90625 8.09375,-5.29688 5.20313,-5.29688 C2.29688,-5.29688 0,-2.90625 0,0 C0,2.90625 2.29688,5.29688 5.20313,5.29688 C8.09375,5.29688 10.4063,2.90625 10.4063,0"/>
<path class="BarLine" transform="matrix(0.992126,0,0,0.992126,2887.11,249.803)" d="M10.4063,0 C10.4063,-2.90625 8.09375,-5.29688 5.20313,-5.29688 C2.29688,-5.29688 0,-2.90625 0,0 C0,2.90625 2.29688,5.29688 5.20313,5.29688 C8.09375,5.29688 10.4063,2.90625 10.4063,0"/>
<polyline class="BarLine" fill="none" stroke="#000000" stroke-width="4.46" stroke-linejoin="bevel" points="2909.63,186.431 2909.63,288.372"/>
<polyline class="BarLine" fill="none" stroke="#000000" stroke-width="13.64" stroke-linejoin="bevel" points="2927,186.431 2927,288.372"/>
<polyline class="BarLine" fill="none" stroke="#000000" stroke-width="4.46" stroke-linejoin="bevel" points="493.701,496.47 493.701,598.411"/>
<polyline class="BarLine" fill="none" stroke="#000000" stroke-width="4.46" stroke-linejoin="bevel" points="835.936,496.47 835.936,598.411"/>
<polyline class="BarLine" fill="none" stroke="#000000" stroke-width="4.46" stroke-linejoin="bevel" points="1178.17,496.47 1178.17,598.411"/>
<polyline class="BarLine" fill="none" stroke="#000000" stroke-width="4.46" stroke-linejoin="bevel" points="1520.41,496.47 1520.41,598.411"/>
<polyline class="BarLine" fill="none" stroke="#000000" stroke-width="4.46" stroke-linejoin="bevel" points="1862.64,496.47 1862.64,598.411"/>
<polyline class="BarLine" fill="none" stroke="#000000" stroke-width="4.46" stroke-linejoin="bevel" points="2204.88,496.47 2204.88,598.411"/>
<polyline class="BarLine" fill="none" stroke="#000000" stroke-width="4.46" stroke-linejoin="bevel" points="2547.11,496.47 2547.11,598.411"/>
<path class="BarLine" transform="matrix(0.992126,0,0,0.992126,2887.11,535.039)" d="M10.4063,0 C10.4063,-2.90625 8.09375,-5.29688 5.20313,-5.29688 C2.29688,-5.29688 0,-2.90625 0,0 C0,2.90625 2.29688,5.29688 5.20313,5.29688 C8.09375,5.29688 10.4063,2.90625 10.4063,0"/>
<path class="BarLine" transform="matrix(0.992126,0,0,0.992126,2887.11,559.843)" d="M10.4063,0 C10.4063,-2.90625 8.09375,-5.29688 5.20313,-5.29688 C2.29688,-5.29688 0,-2.90625 0,0 C0,2.90625 2.29688,5.29688 5.20313,5.29688 C8.09375,5.29688 10.4063,2.90625 10.4063,0"/>
<polyline class="BarLine" fill="none" stroke="#000000" stroke-width="4.46" stroke-linejoin="bevel" points="2909.63,496.47 2909.63,598.411"/>
<polyline class="BarLine" fill="none" stroke="#000000" stroke-width="13.64" stroke-linejoin="bevel" points="2927,496.47 2927,598.411"/>
<path class="Note" transform="matrix(0.992126,0,0,0.992126,332.529,237.402)" d="M64.5,-22 L27.5,22 L12.5,22 L49.5,-22 L64.5,-22 M43,-25 L0,25 L35,25 L78,-25 L43,-25 "/>
<path class="Note" transform="matrix(0.992126,0,0,0.992126,454.971,237.402)" d="M64.5,-22 L27.5,22 L12.5,22 L49.5,-22 L64.5,-22 M43,-25 L0,25 L35,25 L78,-25 L43,-25 "/>
<path class="Note" transform="matrix(0.992126,0,0,0.992126,659.262,237.402)" d="M64.5,-22 L27.5,22 L12.5,22 L49.5,-22 L64.5,-22 M43,-25 L0,25 L35,25 L78,-25 L43,-25 "/>
<path class="Note" transform="matrix(0.992126,0,0,0.992126,781.704,237.402)" d="M64.5,-22 L27.5,22 L12.5,22 L49.5,-22 L64.5,-22 M43,-25 L0,25 L35,25 L78,-25 L43,-25 "/>
<path class="Note" transform="matrix(0.992126,0,0,0.992126,985.995,237.402)" d="M64.5,-22 L27.5,22 L12.5,22 L49.5,-22 L64.5,-22 M43,-25 L0,25 L35,25 L78,-25 L43,-25 "/>
<path class="Note" transform="matrix(0.992126,0,0,0.992126,1108.44,237.402)" d="M64.5,-22 L27.5,22 L12.5,22 L49.5,-22 L64.5,-22 M43,-25 L0,25 L35,25 L78,-25 L43,-25 "/>
<path class="Note" transform="matrix(0.992126,0,0,0.992126,1312.73,237.402)" d="M64.5,-22 L27.5,22 L12.5,22 L49.5,-22 L64.5,-22 M43,-25 L0,25 L35,25 L78,-25 L43,-25 "/>
<path class="Note" transform="matrix(0.992126,0,0,0.992126,1435.17,237.402)" d="M64.5,-22 L27.5,22 L12.5,22 L49.5,-22 L64.5,-22 M43,-25 L0,25 L35,25 L78,-25 L43,-25 "/>
<path class="Note" transform="matrix(0.992126,0,0,0.992126,1639.46,237.402)" d="M64.5,-22 L27.5,22 L12.5,22 L49.5,-22 L64.5,-22 M43,-25 L0,25 L35,25 L78,-25 L43,-25 "/>
<path class="Note" transform="matrix(0.992126,0,0,0.992126,1761.9,237.402)" d="M64.5,-22 L27.5,22 L12.5,22 L49.5,-22 L64.5,-22 M43,-25 L0,25 L35,25 L78,-25 L43,-25 "/>
<path class="Note" transform="matrix(0.992126,0,0,0.992126,1966.19,237.402)" d="M64.5,-22 L27.5,22 L12.5,22 L49.5,-22 L64.5,-22 M43,-25 L0,25 L35,25 L78,-25 L43,-25 "/>
<path class="Note" transform="matrix(0.992126,0,0,0.992126,2088.64,237.402)" d="M64.5,-22 L27.5,22 L12.5,22 L49.5,-22 L64.5,-22 M43,-25 L0,25 L35,25 L78,-25 L43,-25 "/>
<path class="Note" transform="matrix(0.992126,0,0,0.992126,2292.93,237.402)" d="M64.5,-22 L27.5,22 L12.5,22 L49.5,-22 L64.5,-22 M43,-25 L0,25 L35,25 L78,-25 L43,-25 "/>
<path class="Note" transform="matrix(0.992126,0,0,0.992126,2415.37,237.402)" d="M64.5,-22 L27.5,22 L12.5,22 L49.5,-22 L64.5,-22 M43,-25 L0,25 L35,25 L78,-25 L43,-25 "/>
<path class="Note" transform="matrix(0.992126,0,0,0.992126,2619.66,237.402)" d="M64.5,-22 L27.5,22 L12.5,22 L49.5,-22 L64.5,-22 M43,-25 L0,25 L35,25 L78,-25 L43,-25 "/>
<path class="Note" transform="matrix(0.992126,0,0,0.992126,2742.1,237.402)" d="M64.5,-22 L27.5,22 L12.5,22 L49.5,-22 L64.5,-22 M43,-25 L0,25 L35,25 L78,-25 L43,-25 "/>
<path class="Note" transform="matrix(0.992126,0,0,0.992126,208.514,547.441)" d="M64.5,-22 L27.5,22 L12.5,22 L49.5,-22 L64.5,-22 M43,-25 L0,25 L35,25 L78,-25 L43,-25 "/>
<path class="Note" transform="matrix(0.992126,0,0,0.992126,338.706,547.441)" d="M64.5,-22 L27.5,22 L12.5,22 L49.5,-22 L64.5,-22 M43,-25 L0,25 L35,25 L78,-25 L43,-25 "/>
<path class="Note" transform="matrix(0.992126,0,0,0.992126,550.749,547.441)" d="M64.5,-22 L27.5,22 L12.5,22 L49.5,-22 L64.5,-22 M43,-25 L0,25 L35,25 L78,-25 L43,-25 "/>
<path class="Note" transform="matrix(0.992126,0,0,0.992126,680.941,547.441)" d="M64.5,-22 L27.5,22 L12.5,22 L49.5,-22 L64.5,-22 M43,-25 L0,25 L35,25 L78,-25 L43,-25 "/>
<path class="Note" transform="matrix(0.992126,0,0,0.992126,892.984,547.441)" d="M64.5,-22 L27.5,22 L12.5,22 L49.5,-22 L64.5,-22 M43,-25 L0,25 L35,25 L78,-25 L43,-25 "/>
<path class="Note" transform="matrix(0.992126,0,0,0.992126,1023.18,547.441)" d="M64.5,-22 L27.5,22 L12.5,22 L49.5,-22 L64.5,-22 M43,-25 L0,25 L35,25 L78,-25 L43,-25 "/>
<path class="Note" transform="matrix(0.992126,0,0,0.992126,1235.22,547.441)" d="M64.5,-22 L27.5,22 L12.5,22 L49.5,-22 L64.5,-22 M43,-25 L0,25 L35,25 L78,-25 L43,-25 "/>
<path class="Note" transform="matrix(0.992126,0,0,0.992126,1365.41,547.441)" d="M64.5,-22 L27.5,22 L12.5,22 L49.5,-22 L64.5,-22 M43,-25 L0,25 L35,25 L78,-25 L43,-25 "/>
<path class="Note" transform="matrix(0.992126,0,0,0.992126,1577.45,547.441)" d="M64.5,-22 L27.5,22 L12.5,22 L49.5,-22 L64.5,-22 M43,-25 L0,25 L35,25 L78,-25 L43,-25 "/>
<path class="Note" transform="matrix(0.992126,0,0,0.992126,1707.65,547.441)" d="M64.5,-22 L27.5,22 L12.5,22 L49.5,-22 L64.5,-22 M43,-25 L0,25 L35,25 L78,-25 L43,-25 "/>
<path class="Note" transform="matrix(0.992126,0,0,0.992126,1919.69,547.441)" d="M64.5,-22 L27.5,22 L12.5,22 L49.5,-22 L64.5,-22 M43,-25 L0,25 L35,25 L78,-25 L43,-25 "/>
<path class="Note" transform="matrix(0.992126,0,0,0.992126,2049.88,547.441)" d="M64.5,-22 L27.5,22 L12.5,22 L49.5,-22 L64.5,-22 M43,-25 L0,25 L35,25 L78,-25 L43,-25 "/>
<path class="Note" transform="matrix(0.992126,0,0,0.992126,2261.92,547.441)" d="M64.5,-22 L27.5,22 L12.5,22 L49.5,-22 L64.5,-22 M43,-25 L0,25 L35,25 L78,-25 L43,-25 "/>
<path class="Note" transform="matrix(0.992126,0,0,0.992126,2392.12,547.441)" d="M64.5,-22 L27.5,22 L12.5,22 L49.5,-22 L64.5,-22 M43,-25 L0,25 L35,25 L78,-25 L43,-25 "/>
<path class="Note" transform="matrix(0.992126,0,0,0.992126,2604.16,547.441)" d="M64.5,-22 L27.5,22 L12.5,22 L49.5,-22 L64.5,-22 M43,-25 L0,25 L35,25 L78,-25 L43,-25 "/>
<path class="Note" transform="matrix(0.992126,0,0,0.992126,2734.35,547.441)" d="M64.5,-22 L27.5,22 L12.5,22 L49.5,-22 L64.5,-22 M43,-25 L0,25 L35,25 L78,-25 L43,-25 "/>
<path class="Clef" transform="matrix(0.992126,0,0,0.992126,158.031,262.205)" d="M63.3594,-5.92188 C62.125,-11.3438 59.4844,-15.1719 58.7031,-16.2031 C55.5156,-20.4844 51.5,-23.3281 46.8125,-24.6875 C43.7031,-25.5625 40.7031,-25.6875 38.2813,-25.5 C37.2344,-31.5156 36.2344,-37.3906 35.3281,-42.8438 C40.7813,-49.0156 44.4063,-54.8125 46.6875,-59.1094 C50.1563,-65.6875 51.2969,-70.2656 51.3594,-70.4688 C53.0781,-75.6875 53.4375,-83.3906 52.3281,-91.5938 C51.3281,-99.1406 49.2344,-105.859 46.875,-109.109 C45.8594,-110.531 44.7969,-111.266 43.7656,-111.266 C42.5469,-111.266 40.0313,-110.031 37.1406,-107.25 C34.8438,-105.063 31.5781,-101.172 29.0156,-95.1563 C26.0156,-88.0938 25.7969,-78.6094 26.1563,-71.8906 C26.5313,-64.6094 27.6406,-58.9219 27.6563,-58.875 C27.6719,-58.7813 27.9375,-57.2813 28.375,-54.7188 C28.1563,-54.4844 27.9063,-54.2656 27.6563,-54.0156 C26.625,-53.0156 25.4375,-51.8906 24.0469,-50.5 C23.1875,-49.6406 22.2344,-48.7344 21.2344,-47.7656 C12.7969,-39.625 0,-27.2969 0,-8.14063 C0,-3.4375 0.90625,0.984375 2.6875,5 C4.26563,8.59375 6.5625,11.875 9.5,14.75 C17.2344,22.3125 27.8281,25.5156 34.875,25.3594 C37.8281,25.2813 40.4688,25.0469 42.8594,24.5938 C44.6875,34.2031 45.8281,41.2344 45.8594,46.5781 C45.9063,53.0938 44.25,57.0781 40.3594,59.8438 C37.9219,61.5781 35.1094,62.5313 32.0156,62.6719 C29.4219,62.7969 27.1563,62.3281 25.7344,61.9219 L25.7188,61.9219 C25.7188,61.9219 25.4375,61.8281 25.4219,61.6406 C25.4063,61.4531 25.7656,61.4063 25.7656,61.4063 L25.7969,61.4063 C27.7188,60.9688 31.2813,59.7344 33.6406,56.4375 C35.4375,53.9063 36.3125,49.2813 34.4688,45.3438 C33.3594,42.9531 30.8594,40 25.2344,39.5469 C22.7344,39.3438 20.4688,39.8594 18.4688,41.0625 C16.6563,42.1406 15.1563,43.7813 14.1094,45.7813 C11.6563,50.4844 12.1094,56.2188 15.2344,60.0625 C18.2031,63.6875 22.8125,66 28.25,66.5781 C29.1094,66.6719 29.9531,66.7031 30.7969,66.7031 C35.2344,66.7031 39.625,65.5 43.2031,63.2969 C46.8594,60.7188 48.9844,56.7344 49.6563,51.1094 C50.2188,46.4688 49.8281,40.5469 48.4375,32.4688 C48.0781,30.375 47.5313,27.3438 46.875,23.5938 C52.625,21.6719 56.7813,18.0938 60.5469,12.2344 C63.8438,6.5 64.7813,0.390625 63.3594,-5.92188 M29.1406,20.2969 C24.5,19.0781 20.0625,16.5781 16.3125,13.0625 C15,11.8438 13.125,9.67188 11.6563,6.28125 C10.2969,3.10938 9.625,-0.328125 9.6875,-3.90625 C9.75,-8.60938 11.0625,-13.4375 13.5625,-18.2188 C16.4844,-23.7969 21.0469,-29.3281 27.1094,-34.6563 C28.5625,-35.9375 29.9375,-37.2188 31.2188,-38.5 C31.9844,-34.2344 32.8125,-29.5469 33.6875,-24.6719 C29.8438,-23.4063 25.0938,-20.25 21.9844,-14.5938 C18.4375,-8.03125 18.5781,-2.5 19.3125,0.984375 C20.25,5.4375 22.7813,9.20313 26.2344,11.2969 C27.1719,11.8594 31.2969,13.9844 33.1406,13.4063 C33.5156,13.2969 33.7813,13.0625 33.9219,12.7344 C34.4375,11.5625 33.4063,10.9219 31.8594,9.96875 C31.25,9.59375 30.5781,9.17188 29.8594,8.64063 C26.5313,6.15625 25.0781,1.70313 26.1563,-2.6875 C26.7344,-5.07813 28.0156,-7.25 29.8594,-8.95313 C31.5156,-10.5 33.5625,-11.5938 35.9375,-12.2344 C37.9844,-0.984375 40.0469,10.1719 41.6875,18.5313 C41.8125,19.2188 41.9531,19.8906 42.0781,20.5625 C37.7031,21.5 33.3594,21.4063 29.1406,20.2969 M40.4688,-12.9063 C50.8125,-13.375 55.0781,-5.9375 55.9688,-1.10938 C56.4375,1.4375 56.4375,5.875 54.8906,10.0938 C53.7188,13.2656 51.2656,17.3438 46.125,19.4063 C46.0625,18.9844 45.9844,18.5469 45.9063,18.125 C44.3594,9.34375 42.4219,-1.65625 40.4688,-12.9063 M33.1406,-83.8594 C34.9219,-89.5938 37.6563,-92.8438 39.6563,-94.5781 C41.4063,-96.0938 43.0469,-96.8125 43.9688,-96.8125 C44.1094,-96.8125 44.2344,-96.7813 44.3281,-96.75 C44.7969,-96.6094 45.3281,-96.0469 45.7969,-95.1719 C48.1094,-90.8906 47.3594,-84.1719 46.0156,-79.7344 C44.3906,-74.3281 41.4688,-68.7188 32.6719,-59.1094 C32.5,-60.2188 32.3438,-61.2656 32.1875,-62.25 C30.9375,-70.5313 31.2656,-77.8125 33.1406,-83.8594"/>
<path class="Clef" transform="matrix(0.992126,0,0,0.992126,34.0157,572.244)" d="M63.3594,-5.92188 C62.125,-11.3438 59.4844,-15.1719 58.7031,-16.2031 C55.5156,-20.4844 51.5,-23.3281 46.8125,-24.6875 C43.7031,-25.5625 40.7031,-25.6875 38.2813,-25.5 C37.2344,-31.5156 36.2344,-37.3906 35.3281,-42.8438 C40.7813,-49.0156 44.4063,-54.8125 46.6875,-59.1094 C50.1563,-65.6875 51.2969,-70.2656 51.3594,-70.4688 C53.0781,-75.6875 53.4375,-83.3906 52.3281,-91.5938 C51.3281,-99.1406 49.2344,-105.859 46.875,-109.109 C45.8594,-110.531 44.7969,-111.266 43.7656,-111.266 C42.5469,-111.266 40.0313,-110.031 37.1406,-107.25 C34.8438,-105.063 31.5781,-101.172 29.0156,-95.1563 C26.0156,-88.0938 25.7969,-78.6094 26.1563,-71.8906 C26.5313,-64.6094 27.6406,-58.9219 27.6563,-58.875 C27.6719,-58.7813 27.9375,-57.2813 28.375,-54.7188 C28.1563,-54.4844 27.9063,-54.2656 27.6563,-54.0156 C26.625,-53.0156 25.4375,-51.8906 24.0469,-50.5 C23.1875,-49.6406 22.2344,-48.7344 21.2344,-47.7656 C12.7969,-39.625 0,-27.2969 0,-8.14063 C0,-3.4375 0.90625,0.984375 2.6875,5 C4.26563,8.59375 6.5625,11.875 9.5,14.75 C17.2344,22.3125 27.8281,25.5156 34.875,25.3594 C37.8281,25.2813 40.4688,25.0469 42.8594,24.5938 C44.6875,34.2031 45.8281,41.2344 45.8594,46.5781 C45.9063,53.0938 44.25,57.0781 40.3594,59.8438 C37.9219,61.5781 35.1094,62.5313 32.0156,62.6719 C29.4219,62.7969 27.1563,62.3281 25.7344,61.9219 L25.7188,61.9219 C25.7188,61.9219 25.4375,61.8281 25.4219,61.6406 C25.4063,61.4531 25.7656,61.4063 25.7656,61.4063 L25.7969,61.4063 C27.7188,60.9688 31.2813,59.7344 33.6406,56.4375 C35.4375,53.9063 36.3125,49.2813 34.4688,45.3438 C33.3594,42.9531 30.8594,40 25.2344,39.5469 C22.7344,39.3438 20.4688,39.8594 18.4688,41.0625 C16.6563,42.1406 15.1563,43.7813 14.1094,45.7813 C11.6563,50.4844 12.1094,56.2188 15.2344,60.0625 C18.2031,63.6875 22.8125,66 28.25,66.5781 C29.1094,66.6719 29.9531,66.7031 30.7969,66.7031 C35.2344,66.7031 39.625,65.5 43.2031,63.2969 C46.8594,60.7188 48.9844,56.7344 49.6563,51.1094 C50.2188,46.4688 49.8281,40.5469 48.4375,32.4688 C48.0781,30.375 47.5313,27.3438 46.875,23.5938 C52.625,21.6719 56.7813,18.0938 60.5469,12.2344 C63.8438,6.5 64.7813,0.390625 63.3594,-5.92188 M29.1406,20.2969 C24.5,19.0781 20.0625,16.5781 16.3125,13.0625 C15,11.8438 13.125,9.67188 11.6563,6.28125 C10.2969,3.10938 9.625,-0.328125 9.6875,-3.90625 C9.75,-8.60938 11.0625,-13.4375 13.5625,-18.2188 C16.4844,-23.7969 21.0469,-29.3281 27.1094,-34.6563 C28.5625,-35.9375 29.9375,-37.2188 31.2188,-38.5 C31.9844,-34.2344 32.8125,-29.5469 33.6875,-24.6719 C29.8438,-23.4063 25.0938,-20.25 21.9844,-14.5938 C18.4375,-8.03125 18.5781,-2.5 19.3125,0.984375 C20.25,5.4375 22.7813,9.20313 26.2344,11.2969 C27.1719,11.8594 31.2969,13.9844 33.1406,13.4063 C33.5156,13.2969 33.7813,13.0625 33.9219,12.7344 C34.4375,11.5625 33.4063,10.9219 31.8594,9.96875 C31.25,9.59375 30.5781,9.17188 29.8594,8.64063 C26.5313,6.15625 25.0781,1.70313 26.1563,-2.6875 C26.7344,-5.07813 28.0156,-7.25 29.8594,-8.95313 C31.5156,-10.5 33.5625,-11.5938 35.9375,-12.2344 C37.9844,-0.984375 40.0469,10.1719 41.6875,18.5313 C41.8125,19.2188 41.9531,19.8906 42.0781,20.5625 C37.7031,21.5 33.3594,21.4063 29.1406,20.2969 M40.4688,-12.9063 C50.8125,-13.375 55.0781,-5.9375 55.9688,-1.10938 C56.4375,1.4375 56.4375,5.875 54.8906,10.0938 C53.7188,13.2656 51.2656,17.3438 46.125,19.4063 C46.0625,18.9844 45.9844,18.5469 45.9063,18.125 C44.3594,9.34375 42.4219,-1.65625 40.4688,-12.9063 M33.1406,-83.8594 C34.9219,-89.5938 37.6563,-92.8438 39.6563,-94.5781 C41.4063,-96.0938 43.0469,-96.8125 43.9688,-96.8125 C44.1094,-96.8125 44.2344,-96.7813 44.3281,-96.75 C44.7969,-96.6094 45.3281,-96.0469 45.7969,-95.1719 C48.1094,-90.8906 47.3594,-84.1719 46.0156,-79.7344 C44.3906,-74.3281 41.4688,-68.7188 32.6719,-59.1094 C32.5,-60.2188 32.3438,-61.2656 32.1875,-62.25 C30.9375,-70.5313 31.2656,-77.8125 33.1406,-83.8594"/>
<path class="KeySig" transform="matrix(0.992126,0,0,0.992126,246.315,187.795)" d="M23.2969,-10.5938 C23.9063,-10.7031 24.4063,-11.4063 24.4063,-12 L24.4063,-17.9063 C24.4063,-18.7031 23.7969,-19.2969 23,-19.2969 L22.7969,-19.2969 L19.5,-18.5938 L19.5,-33.5 L16.7031,-33.5 L16.7031,-18 L7.79688,-16.2031 L7.79688,-30.2969 L5,-30.2969 L5,-15.5938 L1.09375,-14.7969 C0.5,-14.7031 0,-14 0,-13.4063 L0,-13.2031 L0,-7.40625 L0,-7.59375 C0,-6.79688 0.59375,-6.20313 1.40625,-6.20313 L1.70313,-6.20313 L5,-6.90625 L5,9.59375 L1.09375,10.4063 C0.5,10.5 0,11.2031 0,11.7969 L0,17.5938 C0,18.4063 0.59375,19 1.40625,19 L1.70313,19 L5,18.2969 L5,33.2031 L7.79688,33.2031 L7.79688,17.7031 L16.7031,15.9063 L16.7031,30 L19.5,30 L19.5,15.2969 L23.2969,14.5938 C23.9063,14.5 24.4063,13.7969 24.4063,13.2031 L24.4063,7.29688 C24.4063,6.5 23.7969,5.90625 23,5.90625 L22.7969,5.90625 L19.5,6.59375 L19.5,-9.90625 L23.2969,-10.5938 M7.79688,9.09375 L7.79688,-7.5 L16.7031,-9.29688 L16.7031,7.20313 L7.79688,9.09375 "/>
<path class="KeySig" transform="matrix(0.992126,0,0,0.992126,122.299,497.835)" d="M23.2969,-10.5938 C23.9063,-10.7031 24.4063,-11.4063 24.4063,-12 L24.4063,-17.9063 C24.4063,-18.7031 23.7969,-19.2969 23,-19.2969 L22.7969,-19.2969 L19.5,-18.5938 L19.5,-33.5 L16.7031,-33.5 L16.7031,-18 L7.79688,-16.2031 L7.79688,-30.2969 L5,-30.2969 L5,-15.5938 L1.09375,-14.7969 C0.5,-14.7031 0,-14 0,-13.4063 L0,-13.2031 L0,-7.40625 L0,-7.59375 C0,-6.79688 0.59375,-6.20313 1.40625,-6.20313 L1.70313,-6.20313 L5,-6.90625 L5,9.59375 L1.09375,10.4063 C0.5,10.5 0,11.2031 0,11.7969 L0,17.5938 C0,18.4063 0.59375,19 1.40625,19 L1.70313,19 L5,18.2969 L5,33.2031 L7.79688,33.2031 L7.79688,17.7031 L16.7031,15.9063 L16.7031,30 L19.5,30 L19.5,15.2969 L23.2969,14.5938 C23.9063,14.5 24.4063,13.7969 24.4063,13.2031 L24.4063,7.29688 C24.4063,6.5 23.7969,5.90625 23,5.90625 L22.7969,5.90625 L19.5,6.59375 L19.5,-9.90625 L23.2969,-10.5938 M7.79688,9.09375 L7.79688,-7.5 L16.7031,-9.29688 L16.7031,7.20313 L7.79688,9.09375 "/>
<path class="RehearsalMark" fill="none" stroke="#000000" stroke-width="3.97" stroke-linecap="square" stroke-linejoin="miter" stroke-miterlimit="2" fill-rule="evenodd" d="M319.156,44.4764 L425.928,44.4764 L425.928,148.248 L319.156,148.248 L319.156,44.4764 "/>
<path class="RehearsalMark" d="M401.729,59.2997 L397.37,59.2997 L391.526,64.2528 C384.589,60.2841 379.839,58.8934 372.62,58.8934 C361.229,58.8934 351.526,62.9559 344.104,70.8778 C337.479,78.0028 334.401,86.3153 334.401,97.2059 C334.401,118.69 348.464,133.347 368.948,133.347 C374.995,133.347 381.026,131.862 385.479,129.284 C387.964,127.8 389.542,126.518 392.511,123.55 L397.37,133.253 L402.62,133.253 L402.62,112.956 C402.62,106.722 402.62,106.315 403.308,105.425 C404.401,104.347 405.886,104.05 411.417,103.94 L411.417,98.5966 L376.276,98.5966 L376.276,103.94 L377.37,103.94 C386.183,104.05 386.276,104.143 386.37,111.472 L386.37,112.956 C386.37,122.159 380.542,128.206 371.729,128.206 C365.683,128.206 360.729,125.034 358.261,119.69 C355.589,113.94 354.198,105.925 354.198,96.6122 C354.198,86.1278 356.183,77.4091 359.839,71.4716 C362.714,66.8153 367.964,64.0497 373.808,64.0497 C385.479,64.0497 394.104,72.6591 397.37,87.7059 L402.62,87.7059 L401.729,59.2997 "/>
<path class="RehearsalMark" fill="none" stroke="#000000" stroke-width="3.97" stroke-linecap="square" stroke-linejoin="miter" stroke-miterlimit="2" fill-rule="evenodd" d="M1285.82,52.867 L1392.6,52.867 L1392.6,153.639 L1285.82,153.639 L1285.82,52.867 "/>
<path class="RehearsalMark" d="M1301.08,139.253 L1337.52,139.253 C1349.99,139.253 1357.91,137.472 1364.05,133.112 C1372.87,126.972 1377.71,116.284 1377.71,102.722 C1377.71,89.3622 1372.87,79.2528 1363.55,73.1278 C1357.52,69.159 1350.29,67.7684 1336.33,67.7684 L1301.08,67.7684 L1301.08,73.1278 L1302.57,73.1278 C1307.82,73.1278 1309.8,73.5184 1310.69,74.6122 C1311.38,75.5965 1311.38,75.8934 1311.38,82.034 L1311.38,125.003 C1311.38,131.128 1311.38,131.425 1310.69,132.425 C1309.8,133.518 1307.82,133.909 1302.57,133.909 L1301.08,133.909 L1301.08,139.253 M1335.15,133.909 C1330.1,133.815 1329.21,132.815 1329.21,127.472 L1329.21,79.0653 C1329.01,74.5028 1330.19,73.3153 1335.15,73.1278 L1337.62,73.1278 C1351.38,73.1278 1358.02,82.7215 1358.02,102.518 C1358.02,113.112 1355.93,122.722 1352.77,127.175 C1349.69,131.331 1343.87,133.909 1337.23,133.909 L1335.15,133.909 "/>
<path class="RehearsalMark" fill="none" stroke="#000000" stroke-width="3.97" stroke-linecap="square" stroke-linejoin="miter" stroke-miterlimit="2" fill-rule="evenodd" d="M1612.56,48.1718 L1719.33,48.1718 L1719.33,151.943 L1612.56,151.943 L1612.56,48.1718 "/>
<path class="RehearsalMark" d="M1695.13,62.9951 L1690.77,62.9951 L1684.93,67.9482 C1677.99,63.9795 1673.24,62.5889 1666.02,62.5889 C1654.63,62.5889 1644.93,66.6514 1637.51,74.5732 C1630.88,81.6982 1627.8,90.0107 1627.8,100.901 C1627.8,122.386 1641.86,137.042 1662.35,137.042 C1668.4,137.042 1674.43,135.558 1678.88,132.979 C1681.36,131.495 1682.94,130.214 1685.91,127.245 L1690.77,136.948 L1696.02,136.948 L1696.02,116.651 C1696.02,110.417 1696.02,110.011 1696.71,109.12 C1697.8,108.042 1699.29,107.745 1704.82,107.636 L1704.82,102.292 L1669.68,102.292 L1669.68,107.636 L1670.77,107.636 C1679.58,107.745 1679.68,107.839 1679.77,115.167 L1679.77,116.651 C1679.77,125.854 1673.94,131.901 1665.13,131.901 C1659.08,131.901 1654.13,128.729 1651.66,123.386 C1648.99,117.636 1647.6,109.62 1647.6,100.308 C1647.6,89.8232 1649.58,81.1045 1653.24,75.167 C1656.11,70.5107 1661.36,67.7451 1667.21,67.7451 C1678.88,67.7451 1687.51,76.3545 1690.77,91.4014 L1696.02,91.4014 L1695.13,62.9951 "/>
<path class="RehearsalMark" fill="none" stroke="#000000" stroke-width="3.97" stroke-linecap="square" stroke-linejoin="miter" stroke-miterlimit="2" fill-rule="evenodd" d="M2603.84,49.1718 L2710.61,49.1718 L2710.61,149.943 L2603.84,149.943 L2603.84,49.1718 "/>
<path class="RehearsalMark" d="M2619.1,135.558 L2655.54,135.558 C2668.01,135.558 2675.93,133.776 2682.07,129.417 C2690.88,123.276 2695.73,112.589 2695.73,99.0264 C2695.73,85.667 2690.88,75.5576 2681.57,69.4326 C2675.54,65.4639 2668.31,64.0732 2654.35,64.0732 L2619.1,64.0732 L2619.1,69.4326 L2620.59,69.4326 C2625.84,69.4326 2627.82,69.8232 2628.71,70.917 C2629.4,71.9014 2629.4,72.1982 2629.4,78.3389 L2629.4,121.308 C2629.4,127.433 2629.4,127.729 2628.71,128.729 C2627.82,129.823 2625.84,130.214 2620.59,130.214 L2619.1,130.214 L2619.1,135.558 M2653.16,130.214 C2648.12,130.12 2647.23,129.12 2647.23,123.776 L2647.23,75.3701 C2647.02,70.8076 2648.21,69.6201 2653.16,69.4326 L2655.63,69.4326 C2669.4,69.4326 2676.04,79.0264 2676.04,98.8232 C2676.04,109.417 2673.95,119.026 2670.79,123.479 C2667.71,127.636 2661.88,130.214 2655.24,130.214 L2653.16,130.214 "/>
<path class="RehearsalMark" fill="none" stroke="#000000" stroke-width="3.97" stroke-linecap="square" stroke-linejoin="miter" stroke-miterlimit="2" fill-rule="evenodd" d="M2751.93,48.834 L2858.71,48.834 L2858.71,152.606 L2751.93,152.606 L2751.93,48.834 "/>
<path class="RehearsalMark" d="M2834.51,63.6574 L2830.15,63.6574 L2824.3,68.6105 C2817.37,64.6417 2812.62,63.2511 2805.4,63.2511 C2794.01,63.2511 2784.3,67.3136 2776.88,75.2355 C2770.26,82.3605 2767.18,90.673 2767.18,101.564 C2767.18,123.048 2781.24,137.704 2801.73,137.704 C2807.77,137.704 2813.8,136.22 2818.26,133.642 C2820.74,132.157 2822.32,130.876 2825.29,127.907 L2830.15,137.61 L2835.4,137.61 L2835.4,117.314 C2835.4,111.079 2835.4,110.673 2836.09,109.782 C2837.18,108.704 2838.66,108.407 2844.2,108.298 L2844.2,102.954 L2809.05,102.954 L2809.05,108.298 L2810.15,108.298 C2818.96,108.407 2819.05,108.501 2819.15,115.829 L2819.15,117.314 C2819.15,126.517 2813.32,132.564 2804.51,132.564 C2798.46,132.564 2793.51,129.392 2791.04,124.048 C2788.37,118.298 2786.98,110.282 2786.98,100.97 C2786.98,90.4855 2788.96,81.7667 2792.62,75.8292 C2795.49,71.173 2800.74,68.4074 2806.59,68.4074 C2818.26,68.4074 2826.88,77.0167 2830.15,92.0636 L2835.4,92.0636 L2834.51,63.6574 "/>
<path class="RehearsalMark" fill="none" stroke="#000000" stroke-width="3.97" stroke-linecap="square" stroke-linejoin="miter" stroke-miterlimit="2" fill-rule="evenodd" d="M200.283,350.821 L307.055,350.821 L307.055,454.592 L200.283,454.592 L200.283,350.821 "/>
<path class="RehearsalMark" d="M282.857,365.644 L278.497,365.644 L272.653,370.597 C265.716,366.628 260.966,365.238 253.747,365.238 C242.357,365.238 232.653,369.3 225.232,377.222 C218.607,384.347 215.528,392.66 215.528,403.55 C215.528,425.035 229.591,439.691 250.075,439.691 C256.122,439.691 262.153,438.206 266.607,435.628 C269.091,434.144 270.669,432.863 273.638,429.894 L278.497,439.597 L283.747,439.597 L283.747,419.3 C283.747,413.066 283.747,412.66 284.435,411.769 C285.528,410.691 287.013,410.394 292.544,410.285 L292.544,404.941 L257.403,404.941 L257.403,410.285 L258.497,410.285 C267.31,410.394 267.403,410.488 267.497,417.816 L267.497,419.3 C267.497,428.503 261.669,434.55 252.857,434.55 C246.81,434.55 241.857,431.378 239.388,426.035 C236.716,420.285 235.325,412.269 235.325,402.956 C235.325,392.472 237.31,383.753 240.966,377.816 C243.841,373.16 249.091,370.394 254.935,370.394 C266.607,370.394 275.232,379.003 278.497,394.05 L283.747,394.05 L282.857,365.644 "/>
<path class="RehearsalMark" fill="none" stroke="#000000" stroke-width="3.97" stroke-linecap="square" stroke-linejoin="miter" stroke-miterlimit="2" fill-rule="evenodd" d="M699.665,347.125 L803.436,347.125 L803.436,450.897 L699.665,450.897 L699.665,347.125 "/>
<path class="RehearsalMark" d="M783.144,361.948 L778.894,361.948 L773.55,366.792 C767.019,362.839 762.566,361.542 755.425,361.542 C744.347,361.542 735.144,365.308 728.004,372.933 C721.285,380.058 718.004,388.87 718.004,399.667 C718.004,409.964 720.988,418.073 727.41,425.105 C734.254,432.636 742.566,435.995 754.238,435.995 C771.769,435.995 781.769,427.573 785.629,409.761 L779.488,408.277 C776.816,422.042 768.894,429.855 757.504,429.855 C744.05,429.855 737.707,419.667 737.707,397.886 C737.707,377.292 744.05,366.698 756.222,366.698 C767.207,366.698 774.441,374.323 778.894,390.855 L784.144,390.261 L783.144,361.948 "/>
<path class="RehearsalMark" fill="none" stroke="#000000" stroke-width="3.97" stroke-linecap="square" stroke-linejoin="miter" stroke-miterlimit="2" fill-rule="evenodd" d="M873.47,344.788 L980.241,344.788 L980.241,448.559 L873.47,448.559 L873.47,344.788 "/>
<path class="RehearsalMark" d="M956.043,359.611 L951.684,359.611 L945.84,364.564 C938.902,360.595 934.152,359.205 926.934,359.205 C915.543,359.205 905.84,363.267 898.418,371.189 C891.793,378.314 888.715,386.627 888.715,397.517 C888.715,419.002 902.777,433.658 923.262,433.658 C929.309,433.658 935.34,432.174 939.793,429.595 C942.277,428.111 943.855,426.83 946.824,423.861 L951.684,433.564 L956.934,433.564 L956.934,413.267 C956.934,407.033 956.934,406.627 957.621,405.736 C958.715,404.658 960.199,404.361 965.73,404.252 L965.73,398.908 L930.59,398.908 L930.59,404.252 L931.684,404.252 C940.496,404.361 940.59,404.455 940.684,411.783 L940.684,413.267 C940.684,422.47 934.855,428.517 926.043,428.517 C919.996,428.517 915.043,425.345 912.574,420.002 C909.902,414.252 908.512,406.236 908.512,396.924 C908.512,386.439 910.496,377.72 914.152,371.783 C917.027,367.127 922.277,364.361 928.121,364.361 C939.793,364.361 948.418,372.97 951.684,388.017 L956.934,388.017 L956.043,359.611 "/>
<path class="RehearsalMark" fill="none" stroke="#000000" stroke-width="3.97" stroke-linecap="square" stroke-linejoin="miter" stroke-miterlimit="2" fill-rule="evenodd" d="M1212.65,366.602 L1319.42,366.602 L1319.42,467.373 L1212.65,467.373 L1212.65,366.602 "/>
<path class="RehearsalMark" d="M1227.91,452.988 L1264.35,452.988 C1276.82,452.988 1284.74,451.206 1290.88,446.847 C1299.69,440.706 1304.54,430.019 1304.54,416.456 C1304.54,403.097 1299.69,392.988 1290.38,386.863 C1284.35,382.894 1277.12,381.503 1263.16,381.503 L1227.91,381.503 L1227.91,386.863 L1229.4,386.863 C1234.65,386.863 1236.63,387.253 1237.52,388.347 C1238.21,389.331 1238.21,389.628 1238.21,395.769 L1238.21,438.738 C1238.21,444.863 1238.21,445.159 1237.52,446.159 C1236.63,447.253 1234.65,447.644 1229.4,447.644 L1227.91,447.644 L1227.91,452.988 M1261.97,447.644 C1256.93,447.55 1256.04,446.55 1256.04,441.206 L1256.04,392.8 C1255.83,388.238 1257.02,387.05 1261.97,386.863 L1264.44,386.863 C1278.21,386.863 1284.85,396.456 1284.85,416.253 C1284.85,426.847 1282.76,436.456 1279.6,440.909 C1276.52,445.066 1270.69,447.644 1264.05,447.644 L1261.97,447.644 "/>
<path class="RehearsalMark" fill="none" stroke="#000000" stroke-width="3.97" stroke-linecap="square" stroke-linejoin="miter" stroke-miterlimit="2" fill-rule="evenodd" d="M1554.24,351.655 L1661.02,351.655 L1661.02,455.426 L1554.24,455.426 L1554.24,351.655 "/>
<path class="RehearsalMark" d="M1636.82,366.478 L1632.46,366.478 L1626.61,371.431 C1619.68,367.462 1614.93,366.072 1607.71,366.072 C1596.32,366.072 1586.61,370.134 1579.19,378.056 C1572.57,385.181 1569.49,393.494 1569.49,404.384 C1569.49,425.869 1583.55,440.525 1604.04,440.525 C1610.08,440.525 1616.11,439.041 1620.57,436.462 C1623.05,434.978 1624.63,433.697 1627.6,430.728 L1632.46,440.431 L1637.71,440.431 L1637.71,420.134 C1637.71,413.9 1637.71,413.494 1638.4,412.603 C1639.49,411.525 1640.97,411.228 1646.5,411.119 L1646.5,405.775 L1611.36,405.775 L1611.36,411.119 L1612.46,411.119 C1621.27,411.228 1621.36,411.322 1621.46,418.65 L1621.46,420.134 C1621.46,429.337 1615.63,435.384 1606.82,435.384 C1600.77,435.384 1595.82,432.212 1593.35,426.869 C1590.68,421.119 1589.29,413.103 1589.29,403.791 C1589.29,393.306 1591.27,384.587 1594.93,378.65 C1597.8,373.994 1603.05,371.228 1608.9,371.228 C1620.57,371.228 1629.19,379.837 1632.46,394.884 L1637.71,394.884 L1636.82,366.478 "/>
<path class="RehearsalMark" fill="none" stroke="#000000" stroke-width="3.97" stroke-linecap="square" stroke-linejoin="miter" stroke-miterlimit="2" fill-rule="evenodd" d="M2039.04,354.516 L2142.81,354.516 L2142.81,458.287 L2039.04,458.287 L2039.04,354.516 "/>
<path class="RehearsalMark" d="M2122.52,369.339 L2118.27,369.339 L2112.93,374.183 C2106.4,370.23 2101.94,368.933 2094.8,368.933 C2083.72,368.933 2074.52,372.698 2067.38,380.323 C2060.66,387.448 2057.38,396.261 2057.38,407.058 C2057.38,417.355 2060.37,425.464 2066.79,432.495 C2073.63,440.027 2081.94,443.386 2093.62,443.386 C2111.15,443.386 2121.15,434.964 2125.01,417.152 L2118.87,415.667 C2116.19,429.433 2108.27,437.245 2096.88,437.245 C2083.43,437.245 2077.08,427.058 2077.08,405.277 C2077.08,384.683 2083.43,374.089 2095.6,374.089 C2106.58,374.089 2113.82,381.714 2118.27,398.245 L2123.52,397.652 L2122.52,369.339 "/>
<path class="RehearsalMark" fill="none" stroke="#000000" stroke-width="3.97" stroke-linecap="square" stroke-linejoin="miter" stroke-miterlimit="2" fill-rule="evenodd" d="M2257.19,352.35 L2363.96,352.35 L2363.96,456.122 L2257.19,456.122 L2257.19,352.35 "/>
<path class="RehearsalMark" d="M2339.76,367.173 L2335.4,367.173 L2329.56,372.126 C2322.62,368.158 2317.87,366.767 2310.65,366.767 C2299.26,366.767 2289.56,370.829 2282.14,378.751 C2275.51,385.876 2272.44,394.189 2272.44,405.079 C2272.44,426.564 2286.5,441.22 2306.98,441.22 C2313.03,441.22 2319.06,439.736 2323.51,437.158 C2326,435.673 2327.58,434.392 2330.55,431.423 L2335.4,441.126 L2340.65,441.126 L2340.65,420.829 C2340.65,414.595 2340.65,414.189 2341.34,413.298 C2342.44,412.22 2343.92,411.923 2349.45,411.814 L2349.45,406.47 L2314.31,406.47 L2314.31,411.814 L2315.4,411.814 C2324.22,411.923 2324.31,412.017 2324.4,419.345 L2324.4,420.829 C2324.4,430.033 2318.58,436.079 2309.76,436.079 C2303.72,436.079 2298.76,432.908 2296.3,427.564 C2293.62,421.814 2292.23,413.798 2292.23,404.486 C2292.23,394.001 2294.22,385.283 2297.87,379.345 C2300.75,374.689 2306,371.923 2311.84,371.923 C2323.51,371.923 2332.14,380.533 2335.4,395.579 L2340.65,395.579 L2339.76,367.173 "/>
<path class="RehearsalMark" fill="none" stroke="#000000" stroke-width="3.97" stroke-linecap="square" stroke-linejoin="miter" stroke-miterlimit="2" fill-rule="evenodd" d="M2573.56,348.125 L2680.33,348.125 L2680.33,448.897 L2573.56,448.897 L2573.56,348.125 "/>
<path class="RehearsalMark" d="M2588.82,434.511 L2625.26,434.511 C2637.73,434.511 2645.65,432.73 2651.79,428.37 C2660.6,422.23 2665.44,411.542 2665.44,397.98 C2665.44,384.62 2660.6,374.511 2651.29,368.386 C2645.26,364.417 2638.02,363.027 2624.07,363.027 L2588.82,363.027 L2588.82,368.386 L2590.3,368.386 C2595.55,368.386 2597.54,368.777 2598.43,369.87 C2599.12,370.855 2599.12,371.152 2599.12,377.292 L2599.12,420.261 C2599.12,426.386 2599.12,426.683 2598.43,427.683 C2597.54,428.777 2595.55,429.167 2590.3,429.167 L2588.82,429.167 L2588.82,434.511 M2622.88,429.167 C2617.83,429.073 2616.94,428.073 2616.94,422.73 L2616.94,374.323 C2616.74,369.761 2617.93,368.573 2622.88,368.386 L2625.35,368.386 C2639.12,368.386 2645.76,377.98 2645.76,397.777 C2645.76,408.37 2643.66,417.98 2640.51,422.433 C2637.43,426.589 2631.6,429.167 2624.96,429.167 L2622.88,429.167 "/>
<path class="RehearsalMark" fill="none" stroke="#000000" stroke-width="3.97" stroke-linecap="square" stroke-linejoin="miter" stroke-miterlimit="2" fill-rule="evenodd" d="M2747.88,349.655 L2854.65,349.655 L2854.65,453.426 L2747.88,453.426 L2747.88,349.655 "/>
<path class="RehearsalMark" d="M2830.45,364.478 L2826.09,364.478 L2820.25,369.431 C2813.31,365.462 2808.56,364.072 2801.34,364.072 C2789.95,364.072 2780.25,368.134 2772.83,376.056 C2766.2,383.181 2763.12,391.494 2763.12,402.384 C2763.12,423.869 2777.19,438.525 2797.67,438.525 C2803.72,438.525 2809.75,437.04 2814.2,434.462 C2816.69,432.978 2818.26,431.697 2821.23,428.728 L2826.09,438.431 L2831.34,438.431 L2831.34,418.134 C2831.34,411.9 2831.34,411.494 2832.03,410.603 C2833.12,409.525 2834.61,409.228 2840.14,409.119 L2840.14,403.775 L2805,403.775 L2805,409.119 L2806.09,409.119 C2814.91,409.228 2815,409.322 2815.09,416.65 L2815.09,418.134 C2815.09,427.337 2809.26,433.384 2800.45,433.384 C2794.41,433.384 2789.45,430.212 2786.98,424.869 C2784.31,419.119 2782.92,411.103 2782.92,401.79 C2782.92,391.306 2784.91,382.587 2788.56,376.65 C2791.44,371.994 2796.69,369.228 2802.53,369.228 C2814.2,369.228 2822.83,377.837 2826.09,392.884 L2831.34,392.884 L2830.45,364.478 "/>
</svg>
