<?xml version="1.0" encoding="UTF-8" standalone="no"?>
<svg width="2976.38px" height="1700.79px" viewBox="0 0 2976.38 1700.79"
 xmlns="http://www.w3.org/2000/svg" xmlns:xlink="http://www.w3.org/1999/xlink" version="1.2" baseProfile="tiny">
<title>MissMcLeodsReel_G</title>
<desc>Generated by MuseScore 3.6.2</desc>
<polyline class="StaffLines" fill="none" stroke="#000000" stroke-width="2.73" stroke-linejoin="bevel" points="138.189,187.795 2933.86,187.795"/>
<polyline class="StaffLines" fill="none" stroke="#000000" stroke-width="2.73" stroke-linejoin="bevel" points="138.189,212.598 2933.86,212.598"/>
<polyline class="StaffLines" fill="none" stroke="#000000" stroke-width="2.73" stroke-linejoin="bevel" points="138.189,237.402 2933.86,237.402"/>
<polyline class="StaffLines" fill="none" stroke="#000000" stroke-width="2.73" stroke-linejoin="bevel" points="138.189,262.205 2933.86,262.205"/>
<polyline class="StaffLines" fill="none" stroke="#000000" stroke-width="2.73" stroke-linejoin="bevel" points="138.189,287.008 2933.86,287.008"/>
<polyline class="StaffLines" fill="none" stroke="#000000" stroke-width="2.73" stroke-linejoin="bevel" points="14.1732,519.516 2933.86,519.516"/>
<polyline class="StaffLines" fill="none" stroke="#000000" stroke-width="2.73" stroke-linejoin="bevel" points="14.1732,544.319 2933.86,544.319"/>
<polyline class="StaffLines" fill="none" stroke="#000000" stroke-width="2.73" stroke-linejoin="bevel" points="14.1732,569.122 2933.86,569.122"/>
<polyline class="StaffLines" fill="none" stroke="#000000" stroke-width="2.73" stroke-linejoin="bevel" points="14.1732,593.925 2933.86,593.925"/>
<polyline class="StaffLines" fill="none" stroke="#000000" stroke-width="2.73" stroke-linejoin="bevel" points="14.1732,618.728 2933.86,618.728"/>
<polyline class="StaffLines" fill="none" stroke="#000000" stroke-width="2.73" stroke-linejoin="bevel" points="14.1732,851.236 2933.86,851.236"/>
<polyline class="StaffLines" fill="none" stroke="#000000" stroke-width="2.73" stroke-linejoin="bevel" points="14.1732,876.039 2933.86,876.039"/>
<polyline class="StaffLines" fill="none" stroke="#000000" stroke-width="2.73" stroke-linejoin="bevel" points="14.1732,900.843 2933.86,900.843"/>
<polyline class="StaffLines" fill="none" stroke="#000000" stroke-width="2.73" stroke-linejoin="bevel" points="14.1732,925.646 2933.86,925.646"/>
<polyline class="StaffLines" fill="none" stroke="#000000" stroke-width="2.73" stroke-linejoin="bevel" points="14.1732,950.449 2933.86,950.449"/>
<polyline class="StaffLines" fill="none" stroke="#000000" stroke-width="2.73" stroke-linejoin="bevel" points="14.1732,1182.96 2933.86,1182.96"/>
<polyline class="StaffLines" fill="none" stroke="#000000" stroke-width="2.73" stroke-linejoin="bevel" points="14.1732,1207.76 2933.86,1207.76"/>
<polyline class="StaffLines" fill="none" stroke="#000000" stroke-width="2.73" stroke-linejoin="bevel" points="14.1732,1232.56 2933.86,1232.56"/>
<polyline class="StaffLines" fill="none" stroke="#000000" stroke-width="2.73" stroke-linejoin="bevel" points="14.1732,1257.37 2933.86,1257.37"/>
<polyline class="StaffLines" fill="none" stroke="#000000" stroke-width="2.73" stroke-linejoin="bevel" points="14.1732,1282.17 2933.86,1282.17"/>
<polyline class="BarLine" fill="none" stroke="#000000" stroke-width="4.46" stroke-linejoin="bevel" points="953.226,186.431 953.226,288.372"/>
<polyline class="BarLine" fill="none" stroke="#000000" stroke-width="4.46" stroke-linejoin="bevel" points="1612.69,186.431 1612.69,288.372"/>
<polyline class="BarLine" fill="none" stroke="#000000" stroke-width="4.46" stroke-linejoin="bevel" points="2272.16,186.431 2272.16,288.372"/>
<polyline class="BarLine" fill="none" stroke="#000000" stroke-width="4.46" stroke-linejoin="bevel" points="2931.63,186.431 2931.63,288.372"/>
<polyline class="BarLine" fill="none" stroke="#000000" stroke-width="4.46" stroke-linejoin="bevel" points="808.48,518.152 808.48,620.093"/>
<polyline class="BarLine" fill="none" stroke="#000000" stroke-width="4.46" stroke-linejoin="bevel" points="1502.1,518.152 1502.1,620.093"/>
<polyline class="BarLine" fill="none" stroke="#000000" stroke-width="4.46" stroke-linejoin="bevel" points="2195.72,518.152 2195.72,620.093"/>
<path class="BarLine" transform="matrix(0.992126,0,0,0.992126,2887.11,556.72)" d="M10.4063,0 C10.4063,-2.90625 8.09375,-5.29688 5.20313,-5.29688 C2.29688,-5.29688 0,-2.90625 0,0 C0,2.90625 2.29688,5.29688 5.20313,5.29688 C8.09375,5.29688 10.4063,2.90625 10.4063,0"/>
<path class="BarLine" transform="matrix(0.992126,0,0,0.992126,2887.11,581.524)" d="M10.4063,0 C10.4063,-2.90625 8.09375,-5.29688 5.20313,-5.29688 C2.29688,-5.29688 0,-2.90625 0,0 C0,2.90625 2.29688,5.29688 5.20313,5.29688 C8.09375,5.29688 10.4063,2.90625 10.4063,0"/>
<polyline class="BarLine" fill="none" stroke="#000000" stroke-width="4.46" stroke-linejoin="bevel" points="2909.63,518.152 2909.63,620.093"/>
<polyline class="BarLine" fill="none" stroke="#000000" stroke-width="13.64" stroke-linejoin="bevel" points="2927,518.152 2927,620.093"/>
<polyline class="BarLine" fill="none" stroke="#000000" stroke-width="4.46" stroke-linejoin="bevel" points="819.05,849.872 819.05,951.813"/>
<polyline class="BarLine" fill="none" stroke="#000000" stroke-width="4.46" stroke-linejoin="bevel" points="1523.24,849.872 1523.24,951.813"/>
<polyline class="BarLine" fill="none" stroke="#000000" stroke-width="4.46" stroke-linejoin="bevel" points="2227.43,849.872 2227.43,951.813"/>
<polyline class="BarLine" fill="none" stroke="#000000" stroke-width="4.46" stroke-linejoin="bevel" points="2931.63,849.872 2931.63,951.813"/>
<polyline class="BarLine" fill="none" stroke="#000000" stroke-width="4.46" stroke-linejoin="bevel" points="672.98,1181.59 672.98,1283.53"/>
<polyline class="BarLine" fill="none" stroke="#000000" stroke-width="4.46" stroke-linejoin="bevel" points="1214.98,1181.59 1214.98,1283.53"/>
<polyline class="BarLine" fill="none" stroke="#000000" stroke-width="4.46" stroke-linejoin="bevel" points="1773.1,1181.59 1773.1,1283.53"/>
<polyline class="BarLine" fill="none" stroke="#000000" stroke-width="4.46" stroke-linejoin="bevel" points="2331.22,1181.59 2331.22,1283.53"/>
<path class="BarLine" transform="matrix(0.992126,0,0,0.992126,2887.11,1220.16)" d="M10.4063,0 C10.4063,-2.90625 8.09375,-5.29688 5.20313,-5.29688 C2.29688,-5.29688 0,-2.90625 0,0 C0,2.90625 2.29688,5.29688 5.20313,5.29688 C8.09375,5.29688 10.4063,2.90625 10.4063,0"/>
<path class="BarLine" transform="matrix(0.992126,0,0,0.992126,2887.11,1244.96)" d="M10.4063,0 C10.4063,-2.90625 8.09375,-5.29688 5.20313,-5.29688 C2.29688,-5.29688 0,-2.90625 0,0 C0,2.90625 2.29688,5.29688 5.20313,5.29688 C8.09375,5.29688 10.4063,2.90625 10.4063,0"/>
<polyline class="BarLine" fill="none" stroke="#000000" stroke-width="4.46" stroke-linejoin="bevel" points="2909.63,1181.59 2909.63,1283.53"/>
<polyline class="BarLine" fill="none" stroke="#000000" stroke-width="13.64" stroke-linejoin="bevel" points="2927,1181.59 2927,1283.53"/>
<path class="Note" transform="matrix(0.992126,0,0,0.992126,338.405,237.402)" d="M43,-25 L0,25 L10,25 L53,-25 L43,-25 "/>
<path class="Note" transform="matrix(0.992126,0,0,0.992126,489.01,237.402)" d="M43,-25 L0,25 L10,25 L53,-25 L43,-25 "/>
<path class="Note" transform="matrix(0.992126,0,0,0.992126,639.614,237.402)" d="M43,-25 L0,25 L10,25 L53,-25 L43,-25 "/>
<path class="Note" transform="matrix(0.992126,0,0,0.992126,790.219,237.402)" d="M43,-25 L0,25 L10,25 L53,-25 L43,-25 "/>
<path class="Note" transform="matrix(0.992126,0,0,0.992126,997.871,237.402)" d="M43,-25 L0,25 L10,25 L53,-25 L43,-25 "/>
<path class="Note" transform="matrix(0.992126,0,0,0.992126,1148.48,237.402)" d="M43,-25 L0,25 L10,25 L53,-25 L43,-25 "/>
<path class="Note" transform="matrix(0.992126,0,0,0.992126,1299.08,237.402)" d="M43,-25 L0,25 L10,25 L53,-25 L43,-25 "/>
<path class="Note" transform="matrix(0.992126,0,0,0.992126,1449.69,237.402)" d="M43,-25 L0,25 L10,25 L53,-25 L43,-25 "/>
<path class="Note" transform="matrix(0.992126,0,0,0.992126,1657.34,237.402)" d="M43,-25 L0,25 L10,25 L53,-25 L43,-25 "/>
<path class="Note" transform="matrix(0.992126,0,0,0.992126,1807.94,237.402)" d="M43,-25 L0,25 L10,25 L53,-25 L43,-25 "/>
<path class="Note" transform="matrix(0.992126,0,0,0.992126,1958.55,237.402)" d="M43,-25 L0,25 L10,25 L53,-25 L43,-25 "/>
<path class="Note" transform="matrix(0.992126,0,0,0.992126,2109.15,237.402)" d="M43,-25 L0,25 L10,25 L53,-25 L43,-25 "/>
<path class="Note" transform="matrix(0.992126,0,0,0.992126,2316.8,237.402)" d="M43,-25 L0,25 L10,25 L53,-25 L43,-25 "/>
<path class="Note" transform="matrix(0.992126,0,0,0.992126,2467.41,237.402)" d="M43,-25 L0,25 L10,25 L53,-25 L43,-25 "/>
<path class="Note" transform="matrix(0.992126,0,0,0.992126,2618.01,237.402)" d="M43,-25 L0,25 L10,25 L53,-25 L43,-25 "/>
<path class="Note" transform="matrix(0.992126,0,0,0.992126,2768.62,237.402)" d="M43,-25 L0,25 L10,25 L53,-25 L43,-25 "/>
<path class="Note" transform="matrix(0.992126,0,0,0.992126,159.504,569.122)" d="M43,-25 L0,25 L10,25 L53,-25 L43,-25 "/>
<path class="Note" transform="matrix(0.992126,0,0,0.992126,318.648,569.122)" d="M43,-25 L0,25 L10,25 L53,-25 L43,-25 "/>
<path class="Note" transform="matrix(0.992126,0,0,0.992126,477.792,569.122)" d="M43,-25 L0,25 L10,25 L53,-25 L43,-25 "/>
<path class="Note" transform="matrix(0.992126,0,0,0.992126,636.935,569.122)" d="M43,-25 L0,25 L10,25 L53,-25 L43,-25 "/>
<path class="Note" transform="matrix(0.992126,0,0,0.992126,853.126,569.122)" d="M43,-25 L0,25 L10,25 L53,-25 L43,-25 "/>
<path class="Note" transform="matrix(0.992126,0,0,0.992126,1012.27,569.122)" d="M43,-25 L0,25 L10,25 L53,-25 L43,-25 "/>
<path class="Note" transform="matrix(0.992126,0,0,0.992126,1171.41,569.122)" d="M43,-25 L0,25 L10,25 L53,-25 L43,-25 "/>
<path class="Note" transform="matrix(0.992126,0,0,0.992126,1330.56,569.122)" d="M43,-25 L0,25 L10,25 L53,-25 L43,-25 "/>
<path class="Note" transform="matrix(0.992126,0,0,0.992126,1546.75,569.122)" d="M43,-25 L0,25 L10,25 L53,-25 L43,-25 "/>
<path class="Note" transform="matrix(0.992126,0,0,0.992126,1705.89,569.122)" d="M43,-25 L0,25 L10,25 L53,-25 L43,-25 "/>
<path class="Note" transform="matrix(0.992126,0,0,0.992126,1865.04,569.122)" d="M43,-25 L0,25 L10,25 L53,-25 L43,-25 "/>
<path class="Note" transform="matrix(0.992126,0,0,0.992126,2024.18,569.122)" d="M43,-25 L0,25 L10,25 L53,-25 L43,-25 "/>
<path class="Note" transform="matrix(0.992126,0,0,0.992126,2240.37,569.122)" d="M43,-25 L0,25 L10,25 L53,-25 L43,-25 "/>
<path class="Note" transform="matrix(0.992126,0,0,0.992126,2399.51,569.122)" d="M43,-25 L0,25 L10,25 L53,-25 L43,-25 "/>
<path class="Note" transform="matrix(0.992126,0,0,0.992126,2558.66,569.122)" d="M43,-25 L0,25 L10,25 L53,-25 L43,-25 "/>
<path class="Note" transform="matrix(0.992126,0,0,0.992126,2717.8,569.122)" d="M43,-25 L0,25 L10,25 L53,-25 L43,-25 "/>
<path class="Note" transform="matrix(0.992126,0,0,0.992126,159.504,900.843)" d="M43,-25 L0,25 L10,25 L53,-25 L43,-25 "/>
<path class="Note" transform="matrix(0.992126,0,0,0.992126,321.29,900.843)" d="M43,-25 L0,25 L10,25 L53,-25 L43,-25 "/>
<path class="Note" transform="matrix(0.992126,0,0,0.992126,483.076,900.843)" d="M43,-25 L0,25 L10,25 L53,-25 L43,-25 "/>
<path class="Note" transform="matrix(0.992126,0,0,0.992126,644.863,900.843)" d="M43,-25 L0,25 L10,25 L53,-25 L43,-25 "/>
<path class="Note" transform="matrix(0.992126,0,0,0.992126,863.696,900.843)" d="M43,-25 L0,25 L10,25 L53,-25 L43,-25 "/>
<path class="Note" transform="matrix(0.992126,0,0,0.992126,1025.48,900.843)" d="M43,-25 L0,25 L10,25 L53,-25 L43,-25 "/>
<path class="Note" transform="matrix(0.992126,0,0,0.992126,1187.27,900.843)" d="M43,-25 L0,25 L10,25 L53,-25 L43,-25 "/>
<path class="Note" transform="matrix(0.992126,0,0,0.992126,1349.05,900.843)" d="M43,-25 L0,25 L10,25 L53,-25 L43,-25 "/>
<path class="Note" transform="matrix(0.992126,0,0,0.992126,1567.89,900.843)" d="M43,-25 L0,25 L10,25 L53,-25 L43,-25 "/>
<path class="Note" transform="matrix(0.992126,0,0,0.992126,1729.67,900.843)" d="M43,-25 L0,25 L10,25 L53,-25 L43,-25 "/>
<path class="Note" transform="matrix(0.992126,0,0,0.992126,1891.46,900.843)" d="M43,-25 L0,25 L10,25 L53,-25 L43,-25 "/>
<path class="Note" transform="matrix(0.992126,0,0,0.992126,2053.25,900.843)" d="M43,-25 L0,25 L10,25 L53,-25 L43,-25 "/>
<path class="Note" transform="matrix(0.992126,0,0,0.992126,2272.08,900.843)" d="M43,-25 L0,25 L10,25 L53,-25 L43,-25 "/>
<path class="Note" transform="matrix(0.992126,0,0,0.992126,2433.87,900.843)" d="M43,-25 L0,25 L10,25 L53,-25 L43,-25 "/>
<path class="Note" transform="matrix(0.992126,0,0,0.992126,2595.65,900.843)" d="M43,-25 L0,25 L10,25 L53,-25 L43,-25 "/>
<path class="Note" transform="matrix(0.992126,0,0,0.992126,2757.44,900.843)" d="M43,-25 L0,25 L10,25 L53,-25 L43,-25 "/>
<path class="Note" transform="matrix(0.992126,0,0,0.992126,159.504,1232.56)" d="M43,-25 L0,25 L10,25 L53,-25 L43,-25 "/>
<path class="Note" transform="matrix(0.992126,0,0,0.992126,284.773,1232.56)" d="M43,-25 L0,25 L10,25 L53,-25 L43,-25 "/>
<path class="Note" transform="matrix(0.992126,0,0,0.992126,410.042,1232.56)" d="M43,-25 L0,25 L10,25 L53,-25 L43,-25 "/>
<path class="Note" transform="matrix(0.992126,0,0,0.992126,535.31,1232.56)" d="M43,-25 L0,25 L10,25 L53,-25 L43,-25 "/>
<path class="Note" transform="matrix(0.992126,0,0,0.992126,701.504,1232.56)" d="M43,-25 L0,25 L10,25 L53,-25 L43,-25 "/>
<path class="Note" transform="matrix(0.992126,0,0,0.992126,826.773,1232.56)" d="M43,-25 L0,25 L10,25 L53,-25 L43,-25 "/>
<path class="Note" transform="matrix(0.992126,0,0,0.992126,952.041,1232.56)" d="M43,-25 L0,25 L10,25 L53,-25 L43,-25 "/>
<path class="Note" transform="matrix(0.992126,0,0,0.992126,1077.31,1232.56)" d="M43,-25 L0,25 L10,25 L53,-25 L43,-25 "/>
<path class="Note" transform="matrix(0.992126,0,0,0.992126,1259.63,1232.56)" d="M43,-25 L0,25 L10,25 L53,-25 L43,-25 "/>
<path class="Note" transform="matrix(0.992126,0,0,0.992126,1384.89,1232.56)" d="M43,-25 L0,25 L10,25 L53,-25 L43,-25 "/>
<path class="Note" transform="matrix(0.992126,0,0,0.992126,1510.16,1232.56)" d="M43,-25 L0,25 L10,25 L53,-25 L43,-25 "/>
<path class="Note" transform="matrix(0.992126,0,0,0.992126,1635.43,1232.56)" d="M43,-25 L0,25 L10,25 L53,-25 L43,-25 "/>
<path class="Note" transform="matrix(0.992126,0,0,0.992126,1817.75,1232.56)" d="M43,-25 L0,25 L10,25 L53,-25 L43,-25 "/>
<path class="Note" transform="matrix(0.992126,0,0,0.992126,1943.02,1232.56)" d="M43,-25 L0,25 L10,25 L53,-25 L43,-25 "/>
<path class="Note" transform="matrix(0.992126,0,0,0.992126,2068.29,1232.56)" d="M43,-25 L0,25 L10,25 L53,-25 L43,-25 "/>
<path class="Note" transform="matrix(0.992126,0,0,0.992126,2193.55,1232.56)" d="M43,-25 L0,25 L10,25 L53,-25 L43,-25 "/>
<path class="Note" transform="matrix(0.992126,0,0,0.992126,2375.87,1232.56)" d="M43,-25 L0,25 L10,25 L53,-25 L43,-25 "/>
<path class="Note" transform="matrix(0.992126,0,0,0.992126,2501.14,1232.56)" d="M43,-25 L0,25 L10,25 L53,-25 L43,-25 "/>
<path class="Note" transform="matrix(0.992126,0,0,0.992126,2626.41,1232.56)" d="M43,-25 L0,25 L10,25 L53,-25 L43,-25 "/>
<path class="Note" transform="matrix(0.992126,0,0,0.992126,2751.68,1232.56)" d="M43,-25 L0,25 L10,25 L53,-25 L43,-25 "/>
<path class="Clef" transform="matrix(0.992126,0,0,0.992126,158.031,262.205)" d="M63.3594,-5.92188 C62.125,-11.3438 59.4844,-15.1719 58.7031,-16.2031 C55.5156,-20.4844 51.5,-23.3281 46.8125,-24.6875 C43.7031,-25.5625 40.7031,-25.6875 38.2813,-25.5 C37.2344,-31.5156 36.2344,-37.3906 35.3281,-42.8438 C40.7813,-49.0156 44.4063,-54.8125 46.6875,-59.1094 C50.1563,-65.6875 51.2969,-70.2656 51.3594,-70.4688 C53.0781,-75.6875 53.4375,-83.3906 52.3281,-91.5938 C51.3281,-99.1406 49.2344,-105.859 46.875,-109.109 C45.8594,-110.531 44.7969,-111.266 43.7656,-111.266 C42.5469,-111.266 40.0313,-110.031 37.1406,-107.25 C34.8438,-105.063 31.5781,-101.172 29.0156,-95.1563 C26.0156,-88.0938 25.7969,-78.6094 26.1563,-71.8906 C26.5313,-64.6094 27.6406,-58.9219 27.6563,-58.875 C27.6719,-58.7813 27.9375,-57.2813 28.375,-54.7188 C28.1563,-54.4844 27.9063,-54.2656 27.6563,-54.0156 C26.625,-53.0156 25.4375,-51.8906 24.0469,-50.5 C23.1875,-49.6406 22.2344,-48.7344 21.2344,-47.7656 C12.7969,-39.625 0,-27.2969 0,-8.14063 C0,-3.4375 0.90625,0.984375 2.6875,5 C4.26563,8.59375 6.5625,11.875 9.5,14.75 C17.2344,22.3125 27.8281,25.5156 34.875,25.3594 C37.8281,25.2813 40.4688,25.0469 42.8594,24.5938 C44.6875,34.2031 45.8281,41.2344 45.8594,46.5781 C45.9063,53.0938 44.25,57.0781 40.3594,59.8438 C37.9219,61.5781 35.1094,62.5313 32.0156,62.6719 C29.4219,62.7969 27.1563,62.3281 25.7344,61.9219 L25.7188,61.9219 C25.7188,61.9219 25.4375,61.8281 25.4219,61.6406 C25.4063,61.4531 25.7656,61.4063 25.7656,61.4063 L25.7969,61.4063 C27.7188,60.9688 31.2813,59.7344 33.6406,56.4375 C35.4375,53.9063 36.3125,49.2813 34.4688,45.3438 C33.3594,42.9531 30.8594,40 25.2344,39.5469 C22.7344,39.3438 20.4688,39.8594 18.4688,41.0625 C16.6563,42.1406 15.1563,43.7813 14.1094,45.7813 C11.6563,50.4844 12.1094,56.2188 15.2344,60.0625 C18.2031,63.6875 22.8125,66 28.25,66.5781 C29.1094,66.6719 29.9531,66.7031 30.7969,66.7031 C35.2344,66.7031 39.625,65.5 43.2031,63.2969 C46.8594,60.7188 48.9844,56.7344 49.6563,51.1094 C50.2188,46.4688 49.8281,40.5469 48.4375,32.4688 C48.0781,30.375 47.5313,27.3438 46.875,23.5938 C52.625,21.6719 56.7813,18.0938 60.5469,12.2344 C63.8438,6.5 64.7813,0.390625 63.3594,-5.92188 M29.1406,20.2969 C24.5,19.0781 20.0625,16.5781 16.3125,13.0625 C15,11.8438 13.125,9.67188 11.6563,6.28125 C10.2969,3.10938 9.625,-0.328125 9.6875,-3.90625 C9.75,-8.60938 11.0625,-13.4375 13.5625,-18.2188 C16.4844,-23.7969 21.0469,-29.3281 27.1094,-34.6563 C28.5625,-35.9375 29.9375,-37.2188 31.2188,-38.5 C31.9844,-34.2344 32.8125,-29.5469 33.6875,-24.6719 C29.8438,-23.4063 25.0938,-20.25 21.9844,-14.5938 C18.4375,-8.03125 18.5781,-2.5 19.3125,0.984375 C20.25,5.4375 22.7813,9.20313 26.2344,11.2969 C27.1719,11.8594 31.2969,13.9844 33.1406,13.4063 C33.5156,13.2969 33.7813,13.0625 33.9219,12.7344 C34.4375,11.5625 33.4063,10.9219 31.8594,9.96875 C31.25,9.59375 30.5781,9.17188 29.8594,8.64063 C26.5313,6.15625 25.0781,1.70313 26.1563,-2.6875 C26.7344,-5.07813 28.0156,-7.25 29.8594,-8.95313 C31.5156,-10.5 33.5625,-11.5938 35.9375,-12.2344 C37.9844,-0.984375 40.0469,10.1719 41.6875,18.5313 C41.8125,19.2188 41.9531,19.8906 42.0781,20.5625 C37.7031,21.5 33.3594,21.4063 29.1406,20.2969 M40.4688,-12.9063 C50.8125,-13.375 55.0781,-5.9375 55.9688,-1.10938 C56.4375,1.4375 56.4375,5.875 54.8906,10.0938 C53.7188,13.2656 51.2656,17.3438 46.125,19.4063 C46.0625,18.9844 45.9844,18.5469 45.9063,18.125 C44.3594,9.34375 42.4219,-1.65625 40.4688,-12.9063 M33.1406,-83.8594 C34.9219,-89.5938 37.6563,-92.8438 39.6563,-94.5781 C41.4063,-96.0938 43.0469,-96.8125 43.9688,-96.8125 C44.1094,-96.8125 44.2344,-96.7813 44.3281,-96.75 C44.7969,-96.6094 45.3281,-96.0469 45.7969,-95.1719 C48.1094,-90.8906 47.3594,-84.1719 46.0156,-79.7344 C44.3906,-74.3281 41.4688,-68.7188 32.6719,-59.1094 C32.5,-60.2188 32.3438,-61.2656 32.1875,-62.25 C30.9375,-70.5313 31.2656,-77.8125 33.1406,-83.8594"/>
<path class="Clef" transform="matrix(0.992126,0,0,0.992126,34.0157,593.925)" d="M63.3594,-5.92188 C62.125,-11.3438 59.4844,-15.1719 58.7031,-16.2031 C55.5156,-20.4844 51.5,-23.3281 46.8125,-24.6875 C43.7031,-25.5625 40.7031,-25.6875 38.2813,-25.5 C37.2344,-31.5156 36.2344,-37.3906 35.3281,-42.8438 C40.7813,-49.0156 44.4063,-54.8125 46.6875,-59.1094 C50.1563,-65.6875 51.2969,-70.2656 51.3594,-70.4688 C53.0781,-75.6875 53.4375,-83.3906 52.3281,-91.5938 C51.3281,-99.1406 49.2344,-105.859 46.875,-109.109 C45.8594,-110.531 44.7969,-111.266 43.7656,-111.266 C42.5469,-111.266 40.0313,-110.031 37.1406,-107.25 C34.8438,-105.063 31.5781,-101.172 29.0156,-95.1563 C26.0156,-88.0938 25.7969,-78.6094 26.1563,-71.8906 C26.5313,-64.6094 27.6406,-58.9219 27.6563,-58.875 C27.6719,-58.7813 27.9375,-57.2813 28.375,-54.7188 C28.1563,-54.4844 27.9063,-54.2656 27.6563,-54.0156 C26.625,-53.0156 25.4375,-51.8906 24.0469,-50.5 C23.1875,-49.6406 22.2344,-48.7344 21.2344,-47.7656 C12.7969,-39.625 0,-27.2969 0,-8.14063 C0,-3.4375 0.90625,0.984375 2.6875,5 C4.26563,8.59375 6.5625,11.875 9.5,14.75 C17.2344,22.3125 27.8281,25.5156 34.875,25.3594 C37.8281,25.2813 40.4688,25.0469 42.8594,24.5938 C44.6875,34.2031 45.8281,41.2344 45.8594,46.5781 C45.9063,53.0938 44.25,57.0781 40.3594,59.8438 C37.9219,61.5781 35.1094,62.5313 32.0156,62.6719 C29.4219,62.7969 27.1563,62.3281 25.7344,61.9219 L25.7188,61.9219 C25.7188,61.9219 25.4375,61.8281 25.4219,61.6406 C25.4063,61.4531 25.7656,61.4063 25.7656,61.4063 L25.7969,61.4063 C27.7188,60.9688 31.2813,59.7344 33.6406,56.4375 C35.4375,53.9063 36.3125,49.2813 34.4688,45.3438 C33.3594,42.9531 30.8594,40 25.2344,39.5469 C22.7344,39.3438 20.4688,39.8594 18.4688,41.0625 C16.6563,42.1406 15.1563,43.7813 14.1094,45.7813 C11.6563,50.4844 12.1094,56.2188 15.2344,60.0625 C18.2031,63.6875 22.8125,66 28.25,66.5781 C29.1094,66.6719 29.9531,66.7031 30.7969,66.7031 C35.2344,66.7031 39.625,65.5 43.2031,63.2969 C46.8594,60.7188 48.9844,56.7344 49.6563,51.1094 C50.2188,46.4688 49.8281,40.5469 48.4375,32.4688 C48.0781,30.375 47.5313,27.3438 46.875,23.5938 C52.625,21.6719 56.7813,18.0938 60.5469,12.2344 C63.8438,6.5 64.7813,0.390625 63.3594,-5.92188 M29.1406,20.2969 C24.5,19.0781 20.0625,16.5781 16.3125,13.0625 C15,11.8438 13.125,9.67188 11.6563,6.28125 C10.2969,3.10938 9.625,-0.328125 9.6875,-3.90625 C9.75,-8.60938 11.0625,-13.4375 13.5625,-18.2188 C16.4844,-23.7969 21.0469,-29.3281 27.1094,-34.6563 C28.5625,-35.9375 29.9375,-37.2188 31.2188,-38.5 C31.9844,-34.2344 32.8125,-29.5469 33.6875,-24.6719 C29.8438,-23.4063 25.0938,-20.25 21.9844,-14.5938 C18.4375,-8.03125 18.5781,-2.5 19.3125,0.984375 C20.25,5.4375 22.7813,9.20313 26.2344,11.2969 C27.1719,11.8594 31.2969,13.9844 33.1406,13.4063 C33.5156,13.2969 33.7813,13.0625 33.9219,12.7344 C34.4375,11.5625 33.4063,10.9219 31.8594,9.96875 C31.25,9.59375 30.5781,9.17188 29.8594,8.64063 C26.5313,6.15625 25.0781,1.70313 26.1563,-2.6875 C26.7344,-5.07813 28.0156,-7.25 29.8594,-8.95313 C31.5156,-10.5 33.5625,-11.5938 35.9375,-12.2344 C37.9844,-0.984375 40.0469,10.1719 41.6875,18.5313 C41.8125,19.2188 41.9531,19.8906 42.0781,20.5625 C37.7031,21.5 33.3594,21.4063 29.1406,20.2969 M40.4688,-12.9063 C50.8125,-13.375 55.0781,-5.9375 55.9688,-1.10938 C56.4375,1.4375 56.4375,5.875 54.8906,10.0938 C53.7188,13.2656 51.2656,17.3438 46.125,19.4063 C46.0625,18.9844 45.9844,18.5469 45.9063,18.125 C44.3594,9.34375 42.4219,-1.65625 40.4688,-12.9063 M33.1406,-83.8594 C34.9219,-89.5938 37.6563,-92.8438 39.6563,-94.5781 C41.4063,-96.0938 43.0469,-96.8125 43.9688,-96.8125 C44.1094,-96.8125 44.2344,-96.7813 44.3281,-96.75 C44.7969,-96.6094 45.3281,-96.0469 45.7969,-95.1719 C48.1094,-90.8906 47.3594,-84.1719 46.0156,-79.7344 C44.3906,-74.3281 41.4688,-68.7188 32.6719,-59.1094 C32.5,-60.2188 32.3438,-61.2656 32.1875,-62.25 C30.9375,-70.5313 31.2656,-77.8125 33.1406,-83.8594"/>
<path class="Clef" transform="matrix(0.992126,0,0,0.992126,34.0157,925.646)" d="M63.3594,-5.92188 C62.125,-11.3438 59.4844,-15.1719 58.7031,-16.2031 C55.5156,-20.4844 51.5,-23.3281 46.8125,-24.6875 C43.7031,-25.5625 40.7031,-25.6875 38.2813,-25.5 C37.2344,-31.5156 36.2344,-37.3906 35.3281,-42.8438 C40.7813,-49.0156 44.4063,-54.8125 46.6875,-59.1094 C50.1563,-65.6875 51.2969,-70.2656 51.3594,-70.4688 C53.0781,-75.6875 53.4375,-83.3906 52.3281,-91.5938 C51.3281,-99.1406 49.2344,-105.859 46.875,-109.109 C45.8594,-110.531 44.7969,-111.266 43.7656,-111.266 C42.5469,-111.266 40.0313,-110.031 37.1406,-107.25 C34.8438,-105.063 31.5781,-101.172 29.0156,-95.1563 C26.0156,-88.0938 25.7969,-78.6094 26.1563,-71.8906 C26.5313,-64.6094 27.6406,-58.9219 27.6563,-58.875 C27.6719,-58.7813 27.9375,-57.2813 28.375,-54.7188 C28.1563,-54.4844 27.9063,-54.2656 27.6563,-54.0156 C26.625,-53.0156 25.4375,-51.8906 24.0469,-50.5 C23.1875,-49.6406 22.2344,-48.7344 21.2344,-47.7656 C12.7969,-39.625 0,-27.2969 0,-8.14063 C0,-3.4375 0.90625,0.984375 2.6875,5 C4.26563,8.59375 6.5625,11.875 9.5,14.75 C17.2344,22.3125 27.8281,25.5156 34.875,25.3594 C37.8281,25.2813 40.4688,25.0469 42.8594,24.5938 C44.6875,34.2031 45.8281,41.2344 45.8594,46.5781 C45.9063,53.0938 44.25,57.0781 40.3594,59.8438 C37.9219,61.5781 35.1094,62.5313 32.0156,62.6719 C29.4219,62.7969 27.1563,62.3281 25.7344,61.9219 L25.7188,61.9219 C25.7188,61.9219 25.4375,61.8281 25.4219,61.6406 C25.4063,61.4531 25.7656,61.4063 25.7656,61.4063 L25.7969,61.4063 C27.7188,60.9688 31.2813,59.7344 33.6406,56.4375 C35.4375,53.9063 36.3125,49.2813 34.4688,45.3438 C33.3594,42.9531 30.8594,40 25.2344,39.5469 C22.7344,39.3438 20.4688,39.8594 18.4688,41.0625 C16.6563,42.1406 15.1563,43.7813 14.1094,45.7813 C11.6563,50.4844 12.1094,56.2188 15.2344,60.0625 C18.2031,63.6875 22.8125,66 28.25,66.5781 C29.1094,66.6719 29.9531,66.7031 30.7969,66.7031 C35.2344,66.7031 39.625,65.5 43.2031,63.2969 C46.8594,60.7188 48.9844,56.7344 49.6563,51.1094 C50.2188,46.4688 49.8281,40.5469 48.4375,32.4688 C48.0781,30.375 47.5313,27.3438 46.875,23.5938 C52.625,21.6719 56.7813,18.0938 60.5469,12.2344 C63.8438,6.5 64.7813,0.390625 63.3594,-5.92188 M29.1406,20.2969 C24.5,19.0781 20.0625,16.5781 16.3125,13.0625 C15,11.8438 13.125,9.67188 11.6563,6.28125 C10.2969,3.10938 9.625,-0.328125 9.6875,-3.90625 C9.75,-8.60938 11.0625,-13.4375 13.5625,-18.2188 C16.4844,-23.7969 21.0469,-29.3281 27.1094,-34.6563 C28.5625,-35.9375 29.9375,-37.2188 31.2188,-38.5 C31.9844,-34.2344 32.8125,-29.5469 33.6875,-24.6719 C29.8438,-23.4063 25.0938,-20.25 21.9844,-14.5938 C18.4375,-8.03125 18.5781,-2.5 19.3125,0.984375 C20.25,5.4375 22.7813,9.20313 26.2344,11.2969 C27.1719,11.8594 31.2969,13.9844 33.1406,13.4063 C33.5156,13.2969 33.7813,13.0625 33.9219,12.7344 C34.4375,11.5625 33.4063,10.9219 31.8594,9.96875 C31.25,9.59375 30.5781,9.17188 29.8594,8.64063 C26.5313,6.15625 25.0781,1.70313 26.1563,-2.6875 C26.7344,-5.07813 28.0156,-7.25 29.8594,-8.95313 C31.5156,-10.5 33.5625,-11.5938 35.9375,-12.2344 C37.9844,-0.984375 40.0469,10.1719 41.6875,18.5313 C41.8125,19.2188 41.9531,19.8906 42.0781,20.5625 C37.7031,21.5 33.3594,21.4063 29.1406,20.2969 M40.4688,-12.9063 C50.8125,-13.375 55.0781,-5.9375 55.9688,-1.10938 C56.4375,1.4375 56.4375,5.875 54.8906,10.0938 C53.7188,13.2656 51.2656,17.3438 46.125,19.4063 C46.0625,18.9844 45.9844,18.5469 45.9063,18.125 C44.3594,9.34375 42.4219,-1.65625 40.4688,-12.9063 M33.1406,-83.8594 C34.9219,-89.5938 37.6563,-92.8438 39.6563,-94.5781 C41.4063,-96.0938 43.0469,-96.8125 43.9688,-96.8125 C44.1094,-96.8125 44.2344,-96.7813 44.3281,-96.75 C44.7969,-96.6094 45.3281,-96.0469 45.7969,-95.1719 C48.1094,-90.8906 47.3594,-84.1719 46.0156,-79.7344 C44.3906,-74.3281 41.4688,-68.7188 32.6719,-59.1094 C32.5,-60.2188 32.3438,-61.2656 32.1875,-62.25 C30.9375,-70.5313 31.2656,-77.8125 33.1406,-83.8594"/>
<path class="Clef" transform="matrix(0.992126,0,0,0.992126,34.0157,1257.37)" d="M63.3594,-5.92188 C62.125,-11.3438 59.4844,-15.1719 58.7031,-16.2031 C55.5156,-20.4844 51.5,-23.3281 46.8125,-24.6875 C43.7031,-25.5625 40.7031,-25.6875 38.2813,-25.5 C37.2344,-31.5156 36.2344,-37.3906 35.3281,-42.8438 C40.7813,-49.0156 44.4063,-54.8125 46.6875,-59.1094 C50.1563,-65.6875 51.2969,-70.2656 51.3594,-70.4688 C53.0781,-75.6875 53.4375,-83.3906 52.3281,-91.5938 C51.3281,-99.1406 49.2344,-105.859 46.875,-109.109 C45.8594,-110.531 44.7969,-111.266 43.7656,-111.266 C42.5469,-111.266 40.0313,-110.031 37.1406,-107.25 C34.8438,-105.063 31.5781,-101.172 29.0156,-95.1563 C26.0156,-88.0938 25.7969,-78.6094 26.1563,-71.8906 C26.5313,-64.6094 27.6406,-58.9219 27.6563,-58.875 C27.6719,-58.7813 27.9375,-57.2813 28.375,-54.7188 C28.1563,-54.4844 27.9063,-54.2656 27.6563,-54.0156 C26.625,-53.0156 25.4375,-51.8906 24.0469,-50.5 C23.1875,-49.6406 22.2344,-48.7344 21.2344,-47.7656 C12.7969,-39.625 0,-27.2969 0,-8.14063 C0,-3.4375 0.90625,0.984375 2.6875,5 C4.26563,8.59375 6.5625,11.875 9.5,14.75 C17.2344,22.3125 27.8281,25.5156 34.875,25.3594 C37.8281,25.2813 40.4688,25.0469 42.8594,24.5938 C44.6875,34.2031 45.8281,41.2344 45.8594,46.5781 C45.9063,53.0938 44.25,57.0781 40.3594,59.8438 C37.9219,61.5781 35.1094,62.5313 32.0156,62.6719 C29.4219,62.7969 27.1563,62.3281 25.7344,61.9219 L25.7188,61.9219 C25.7188,61.9219 25.4375,61.8281 25.4219,61.6406 C25.4063,61.4531 25.7656,61.4063 25.7656,61.4063 L25.7969,61.4063 C27.7188,60.9688 31.2813,59.7344 33.6406,56.4375 C35.4375,53.9063 36.3125,49.2813 34.4688,45.3438 C33.3594,42.9531 30.8594,40 25.2344,39.5469 C22.7344,39.3438 20.4688,39.8594 18.4688,41.0625 C16.6563,42.1406 15.1563,43.7813 14.1094,45.7813 C11.6563,50.4844 12.1094,56.2188 15.2344,60.0625 C18.2031,63.6875 22.8125,66 28.25,66.5781 C29.1094,66.6719 29.9531,66.7031 30.7969,66.7031 C35.2344,66.7031 39.625,65.5 43.2031,63.2969 C46.8594,60.7188 48.9844,56.7344 49.6563,51.1094 C50.2188,46.4688 49.8281,40.5469 48.4375,32.4688 C48.0781,30.375 47.5313,27.3438 46.875,23.5938 C52.625,21.6719 56.7813,18.0938 60.5469,12.2344 C63.8438,6.5 64.7813,0.390625 63.3594,-5.92188 M29.1406,20.2969 C24.5,19.0781 20.0625,16.5781 16.3125,13.0625 C15,11.8438 13.125,9.67188 11.6563,6.28125 C10.2969,3.10938 9.625,-0.328125 9.6875,-3.90625 C9.75,-8.60938 11.0625,-13.4375 13.5625,-18.2188 C16.4844,-23.7969 21.0469,-29.3281 27.1094,-34.6563 C28.5625,-35.9375 29.9375,-37.2188 31.2188,-38.5 C31.9844,-34.2344 32.8125,-29.5469 33.6875,-24.6719 C29.8438,-23.4063 25.0938,-20.25 21.9844,-14.5938 C18.4375,-8.03125 18.5781,-2.5 19.3125,0.984375 C20.25,5.4375 22.7813,9.20313 26.2344,11.2969 C27.1719,11.8594 31.2969,13.9844 33.1406,13.4063 C33.5156,13.2969 33.7813,13.0625 33.9219,12.7344 C34.4375,11.5625 33.4063,10.9219 31.8594,9.96875 C31.25,9.59375 30.5781,9.17188 29.8594,8.64063 C26.5313,6.15625 25.0781,1.70313 26.1563,-2.6875 C26.7344,-5.07813 28.0156,-7.25 29.8594,-8.95313 C31.5156,-10.5 33.5625,-11.5938 35.9375,-12.2344 C37.9844,-0.984375 40.0469,10.1719 41.6875,18.5313 C41.8125,19.2188 41.9531,19.8906 42.0781,20.5625 C37.7031,21.5 33.3594,21.4063 29.1406,20.2969 M40.4688,-12.9063 C50.8125,-13.375 55.0781,-5.9375 55.9688,-1.10938 C56.4375,1.4375 56.4375,5.875 54.8906,10.0938 C53.7188,13.2656 51.2656,17.3438 46.125,19.4063 C46.0625,18.9844 45.9844,18.5469 45.9063,18.125 C44.3594,9.34375 42.4219,-1.65625 40.4688,-12.9063 M33.1406,-83.8594 C34.9219,-89.5938 37.6563,-92.8438 39.6563,-94.5781 C41.4063,-96.0938 43.0469,-96.8125 43.9688,-96.8125 C44.1094,-96.8125 44.2344,-96.7813 44.3281,-96.75 C44.7969,-96.6094 45.3281,-96.0469 45.7969,-95.1719 C48.1094,-90.8906 47.3594,-84.1719 46.0156,-79.7344 C44.3906,-74.3281 41.4688,-68.7188 32.6719,-59.1094 C32.5,-60.2188 32.3438,-61.2656 32.1875,-62.25 C30.9375,-70.5313 31.2656,-77.8125 33.1406,-83.8594"/>
<path class="TimeSig" transform="matrix(0.992126,0,0,0.992126,244.951,212.73)" d="M3.59375,12.625 L20.7656,12.625 L20.7656,20.0781 L12.5469,20.0781 C11.7656,20.0781 11.125,20.7031 11.125,21.4844 L11.125,23.3906 C11.125,24.1719 11.7656,24.7969 12.5469,24.7969 L42.7969,24.7969 C43.5781,24.7969 44.2031,24.1719 44.2031,23.3906 L44.2031,21.4844 C44.2031,20.7031 43.5781,20.0781 42.7969,20.0781 L33.8594,20.0781 L33.8594,12.625 L42.7969,12.625 C43.5781,12.625 44.2031,12 44.2031,11.2188 L44.2031,9.3125 C44.2031,8.53125 43.5781,7.90625 42.7969,7.90625 L33.8594,7.90625 L33.8594,-8.0625 C33.8594,-8.59375 33.5469,-9.07813 33.0781,-9.3125 L31.8594,-9.92188 C31.3281,-10.1719 30.7031,-10.0781 30.2656,-9.6875 L21.2188,-1.375 C20.9375,-1.09375 20.7656,-0.734375 20.7656,-0.328125 L20.7656,7.90625 L9.25,7.90625 C9.25,7.90625 20.375,-4.125 32.2188,-19.8906 C33.0781,-21.0469 32.5781,-22.0938 32.3906,-22.2813 L30.2188,-24.4844 C29.9531,-24.75 29.5938,-24.9063 29.2188,-24.9063 C28.625,-24.9063 15.0625,-24.875 14.3438,-24.9063 C13.625,-24.9219 13.0938,-24.2969 13.0156,-23.6875 C13.0156,-23.6875 12.4844,-16.3281 9.875,-8.1875 C7.28125,-0.078125 4.34375,4.90625 1.6875,8.53125 C1.6875,8.53125 1.14063,9.51563 1.5,10.2656 C1.84375,11.0156 2.48438,12.0938 2.48438,12.0938 C2.48438,12.0938 2.73438,12.625 3.59375,12.625"/>
<path class="TimeSig" transform="matrix(0.992126,0,0,0.992126,244.951,262.073)" d="M3.59375,12.625 L20.7656,12.625 L20.7656,20.0781 L12.5469,20.0781 C11.7656,20.0781 11.125,20.7031 11.125,21.4844 L11.125,23.3906 C11.125,24.1719 11.7656,24.7969 12.5469,24.7969 L42.7969,24.7969 C43.5781,24.7969 44.2031,24.1719 44.2031,23.3906 L44.2031,21.4844 C44.2031,20.7031 43.5781,20.0781 42.7969,20.0781 L33.8594,20.0781 L33.8594,12.625 L42.7969,12.625 C43.5781,12.625 44.2031,12 44.2031,11.2188 L44.2031,9.3125 C44.2031,8.53125 43.5781,7.90625 42.7969,7.90625 L33.8594,7.90625 L33.8594,-8.0625 C33.8594,-8.59375 33.5469,-9.07813 33.0781,-9.3125 L31.8594,-9.92188 C31.3281,-10.1719 30.7031,-10.0781 30.2656,-9.6875 L21.2188,-1.375 C20.9375,-1.09375 20.7656,-0.734375 20.7656,-0.328125 L20.7656,7.90625 L9.25,7.90625 C9.25,7.90625 20.375,-4.125 32.2188,-19.8906 C33.0781,-21.0469 32.5781,-22.0938 32.3906,-22.2813 L30.2188,-24.4844 C29.9531,-24.75 29.5938,-24.9063 29.2188,-24.9063 C28.625,-24.9063 15.0625,-24.875 14.3438,-24.9063 C13.625,-24.9219 13.0938,-24.2969 13.0156,-23.6875 C13.0156,-23.6875 12.4844,-16.3281 9.875,-8.1875 C7.28125,-0.078125 4.34375,4.90625 1.6875,8.53125 C1.6875,8.53125 1.14063,9.51563 1.5,10.2656 C1.84375,11.0156 2.48438,12.0938 2.48438,12.0938 C2.48438,12.0938 2.73438,12.625 3.59375,12.625"/>
<path class="RehearsalMark" fill="none" stroke="#000000" stroke-width="3.97" stroke-linecap="square" stroke-linejoin="miter" stroke-miterlimit="2" fill-rule="evenodd" d="M154.216,21.0729 L262.987,21.0729 L262.987,122.845 L154.216,122.845 L154.216,21.0729 "/>
<path class="RehearsalMark" d="M205.352,35.4899 L182.883,87.9587 C178.32,98.6618 174.664,102.521 168.82,103.115 L168.82,108.459 L197.43,108.459 L197.43,103.115 C190.398,102.724 187.633,100.834 187.633,96.2868 C187.633,94.5993 188.023,93.0212 189.117,90.6462 L190.695,86.8806 L215.352,86.8806 L219.117,96.5837 C220.195,99.3493 220.305,99.8493 220.305,100.631 C220.305,102.427 218.914,103.021 214.555,103.021 L212.867,103.115 L212.867,108.459 L247.617,108.459 L247.617,103.115 C241.977,102.912 240.398,101.927 238.32,96.8806 L212.867,35.4899 L205.352,35.4899 M203.273,56.5837 L212.867,80.2399 L193.273,80.2399 L203.273,56.5837 "/>
<path class="RehearsalMark" fill="none" stroke="#000000" stroke-width="3.97" stroke-linecap="square" stroke-linejoin="miter" stroke-miterlimit="2" fill-rule="evenodd" d="M32.3293,690.441 L133.101,690.441 L133.101,791.213 L32.3293,791.213 L32.3293,690.441 "/>
<path class="RehearsalMark" d="M47.4027,705.342 L47.4027,710.702 L48.887,710.702 C54.2308,710.702 56.1058,711.092 56.9964,712.077 C57.6995,713.171 57.6995,713.467 57.6995,719.608 L57.6995,762.577 C57.6995,768.702 57.6995,768.999 56.9964,769.999 C56.1058,771.092 54.137,771.483 48.887,771.483 L47.4027,771.483 L47.4027,776.827 L87.4964,776.827 C97.7933,776.827 103.043,776.03 108.184,773.764 C114.418,770.983 118.575,764.749 118.575,758.014 C118.575,751.092 114.621,745.639 107.293,742.28 C103.934,740.686 101.059,739.905 95.8089,739.202 C100.653,738.421 103.434,737.717 106.2,736.436 C112.137,733.561 115.309,728.811 115.309,722.874 C115.309,717.233 112.34,711.983 107.496,709.311 C102.043,706.233 97.2933,705.342 85.6058,705.342 L47.4027,705.342 M75.512,737.421 L75.512,716.436 C75.3089,712.28 76.6995,710.889 81.0589,710.702 L84.0277,710.702 C92.7464,710.702 97.387,715.046 97.387,723.264 C97.387,728.124 95.7152,731.983 92.5433,734.452 C89.8714,736.639 86.4964,737.421 80.3714,737.421 L75.512,737.421 M75.512,742.874 L82.3402,742.874 C88.5745,742.874 91.4495,743.467 94.2308,745.249 C97.6839,747.53 99.6683,751.874 99.6683,757.03 C99.6683,761.78 97.887,766.139 95.012,768.514 C92.5433,770.483 89.2777,771.483 84.5277,771.483 L81.5589,771.483 C75.9027,771.28 75.3089,770.686 75.512,765.139 L75.512,742.874 "/>
<path class="Harmony" d="M350.527,121.866 C350.496,121.881 350.449,121.881 350.386,121.881 C350.324,121.881 350.277,121.897 350.246,121.897 C350.199,121.912 350.152,121.912 350.09,121.928 C350.027,121.928 349.996,121.944 349.949,121.959 C349.902,121.975 349.871,122.006 349.824,122.022 C349.777,122.053 349.746,122.069 349.73,122.116 C349.683,122.147 349.668,122.178 349.636,122.225 C349.621,122.256 349.605,122.319 349.605,122.366 C349.605,122.397 349.605,122.428 349.605,122.475 L349.605,122.506 C349.605,122.537 349.605,122.584 349.605,122.647 C349.621,122.709 349.621,122.756 349.621,122.787 C349.621,123.366 349.636,123.928 349.652,124.475 C349.652,124.506 349.652,124.537 349.652,124.569 C349.652,124.678 349.652,124.819 349.636,124.975 C349.621,125.178 349.621,125.319 349.621,125.412 L349.621,125.444 L349.621,125.537 C349.621,125.553 349.621,125.584 349.636,125.616 C349.636,125.647 349.636,125.662 349.652,125.678 C349.668,125.694 349.683,125.709 349.715,125.725 C349.73,125.741 349.761,125.741 349.793,125.741 L349.808,125.741 C349.98,125.741 350.152,125.709 350.324,125.631 C350.511,125.569 350.668,125.491 350.824,125.381 C350.98,125.287 351.121,125.162 351.261,125.006 C351.402,124.866 351.527,124.709 351.621,124.553 C351.73,124.397 351.808,124.225 351.871,124.053 C351.949,123.881 351.98,123.709 351.98,123.537 C351.996,123.506 351.996,123.459 351.996,123.428 C351.996,123.334 351.98,123.241 351.965,123.131 C351.933,122.991 351.902,122.85 351.84,122.725 C351.793,122.6 351.715,122.475 351.621,122.366 C351.543,122.241 351.433,122.147 351.324,122.069 C351.215,121.991 351.09,121.928 350.949,121.897 C350.871,121.866 350.777,121.866 350.668,121.866 C350.621,121.866 350.574,121.866 350.527,121.866 M350.215,125.1 C350.215,124.959 350.215,124.741 350.215,124.475 C350.23,124.256 350.23,124.053 350.23,123.866 C350.23,123.819 350.23,123.787 350.23,123.741 C350.23,123.522 350.215,123.303 350.215,123.1 C350.215,123.069 350.199,123.037 350.199,122.959 C350.183,122.881 350.168,122.803 350.168,122.741 C350.152,122.709 350.152,122.678 350.152,122.647 C350.152,122.616 350.152,122.584 350.168,122.553 C350.168,122.491 350.199,122.444 350.23,122.412 C350.277,122.381 350.324,122.366 350.386,122.366 C350.402,122.366 350.402,122.366 350.418,122.366 C350.496,122.381 350.574,122.397 350.668,122.444 C350.746,122.491 350.824,122.553 350.902,122.616 C350.98,122.678 351.043,122.741 351.105,122.787 C351.168,122.85 351.199,122.897 351.23,122.944 C351.308,123.069 351.371,123.225 351.402,123.381 C351.418,123.475 351.418,123.553 351.418,123.647 C351.418,123.709 351.418,123.787 351.418,123.85 C351.386,124.006 351.34,124.147 351.277,124.303 C351.215,124.444 351.121,124.569 351.027,124.694 C350.918,124.803 350.793,124.897 350.668,124.959 C350.527,125.037 350.371,125.084 350.215,125.1"/>
<path class="Harmony" d="M387.433,35.3858 C383.73,35.8546 380.215,36.714 376.793,37.9483 C373.371,39.1827 370.23,40.8858 367.199,42.8858 C364.152,44.8858 361.402,47.1671 359.027,49.7296 C356.652,52.2921 354.652,55.2296 352.949,58.5577 C351.23,61.8858 350.09,65.4015 349.433,69.1046 C348.949,71.3858 348.761,73.7608 348.761,76.1358 L348.761,76.8077 C348.761,79.0733 348.855,81.2608 349.136,83.4483 C349.433,85.8233 349.996,88.1983 350.761,90.3858 C351.621,92.6671 352.558,94.8546 353.605,96.839 C354.652,98.839 355.98,100.651 357.511,102.261 C359.027,103.87 360.918,105.198 362.824,106.339 C364.73,107.48 366.902,108.339 369.277,108.823 C370.902,109.105 372.511,109.292 374.136,109.292 C374.98,109.292 375.933,109.292 376.98,109.198 C379.918,108.917 382.683,108.245 385.246,107.292 C387.808,106.339 390.183,105.198 392.183,103.87 C394.168,102.542 396.168,100.839 397.98,98.9327 C399.777,97.0421 401.496,94.9483 402.918,92.8546 C404.34,90.7608 405.668,88.3858 407.09,85.7296 C409.277,81.3546 410.324,77.6515 410.324,74.714 C410.324,71.7608 409.277,69.4796 407.09,67.8702 C405.855,66.8233 403.777,66.1671 401.011,65.6827 C399.027,65.4015 397.027,65.214 395.027,65.214 L394.558,65.214 L392.465,65.214 C389.527,65.3077 386.761,65.7765 384.105,66.6358 C381.449,67.4952 379.636,68.5421 378.683,69.7765 C378.402,70.2452 378.121,70.6202 377.84,71.0108 C377.168,72.0577 376.793,72.9952 376.793,73.8546 C376.793,75.089 377.652,75.9483 379.261,76.4171 C380.59,76.8077 383.152,76.9952 386.855,76.9952 L387.715,76.9952 C388.949,77.089 389.902,77.089 390.558,77.089 C394.465,77.089 396.84,77.5577 397.59,78.6046 C397.886,78.9796 398.168,79.5577 398.168,80.1202 C398.168,80.6983 398.074,81.2608 397.98,81.839 C397.886,82.4015 397.59,83.0733 397.308,83.8233 C397.027,84.589 396.746,85.1671 396.449,85.6358 C396.168,86.1046 395.886,86.7765 395.511,87.5421 C395.121,88.2921 394.84,88.6827 394.746,88.8702 C394.277,89.714 393.98,90.3858 393.699,90.8546 C393.418,91.339 393.027,91.8077 392.558,92.4796 C392.09,93.1358 391.511,93.714 391.043,94.089 C389.043,95.6046 386.855,96.6515 384.293,97.1358 L381.058,97.5108 L380.683,97.5108 C379.449,97.4171 378.121,97.3233 376.886,97.0421 C374.511,96.5577 372.136,95.6983 369.949,94.3702 C367.761,93.0421 365.871,91.4327 364.433,89.5265 C363.011,87.5421 361.683,85.1671 360.73,82.4952 C359.777,79.839 359.215,77.089 359.027,74.1358 C358.933,73.089 358.933,72.1515 358.933,71.1046 C358.933,69.1983 359.027,67.3077 359.308,65.4952 C359.777,62.7452 360.636,60.0733 361.965,57.6046 C363.293,55.1358 365.011,53.1515 367.105,51.6202 C369.668,49.6358 372.793,48.1983 376.402,47.2608 C378.402,46.6827 380.402,46.4015 382.293,46.4015 C383.636,46.4015 384.965,46.589 386.199,46.8702 C387.246,47.1671 388.277,47.5421 389.527,48.1046 C390.761,48.6827 391.793,49.2452 392.746,49.8233 C393.699,50.3858 394.746,50.964 395.793,51.5265 C396.84,52.1046 397.886,52.5733 398.824,52.7608 C399.777,52.9483 400.73,53.0577 401.683,52.9483 C402.636,52.8546 403.574,52.3858 404.527,51.5265 C405.48,50.6827 406.34,49.5421 407.183,48.1046 C407.668,47.2608 407.949,46.4015 407.949,45.5421 C407.949,44.8858 407.761,44.3077 407.48,43.6515 C406.715,42.214 405.48,40.9796 403.777,39.9327 C402.058,38.9015 400.261,37.9483 398.168,37.1827 C396.074,36.4171 394.074,35.9483 392.09,35.6671 C390.652,35.3858 389.527,35.2921 388.574,35.2921 C388.09,35.2921 387.715,35.2921 387.433,35.3858"/>
<path class="Harmony" d="M1046.9,51.7874 C1043.2,52.2562 1039.68,53.1155 1036.26,54.3499 C1032.84,55.5843 1029.7,57.2874 1026.67,59.2874 C1023.62,61.2874 1020.87,63.5687 1018.49,66.1312 C1016.12,68.6937 1014.12,71.6312 1012.42,74.9593 C1010.7,78.2874 1009.56,81.803 1008.9,85.5062 C1008.42,87.7874 1008.23,90.1624 1008.23,92.5374 L1008.23,93.2093 C1008.23,95.4749 1008.32,97.6624 1008.6,99.8499 C1008.9,102.225 1009.46,104.6 1010.23,106.787 C1011.09,109.069 1012.03,111.256 1013.07,113.241 C1014.12,115.241 1015.45,117.053 1016.98,118.662 C1018.49,120.272 1020.38,121.6 1022.29,122.741 C1024.2,123.881 1026.37,124.741 1028.74,125.225 C1030.37,125.506 1031.98,125.694 1033.6,125.694 C1034.45,125.694 1035.4,125.694 1036.45,125.6 C1039.38,125.319 1042.15,124.647 1044.71,123.694 C1047.28,122.741 1049.65,121.6 1051.65,120.272 C1053.63,118.944 1055.63,117.241 1057.45,115.334 C1059.24,113.444 1060.96,111.35 1062.38,109.256 C1063.81,107.162 1065.13,104.787 1066.56,102.131 C1068.74,97.7562 1069.79,94.053 1069.79,91.1155 C1069.79,88.1624 1068.74,85.8812 1066.56,84.2718 C1065.32,83.2249 1063.24,82.5687 1060.48,82.0843 C1058.49,81.803 1056.49,81.6155 1054.49,81.6155 L1054.03,81.6155 L1051.93,81.6155 C1048.99,81.7093 1046.23,82.178 1043.57,83.0374 C1040.92,83.8968 1039.1,84.9437 1038.15,86.178 C1037.87,86.6468 1037.59,87.0218 1037.31,87.4124 C1036.63,88.4593 1036.26,89.3968 1036.26,90.2562 C1036.26,91.4905 1037.12,92.3499 1038.73,92.8187 C1040.06,93.2093 1042.62,93.3968 1046.32,93.3968 L1047.18,93.3968 C1048.42,93.4905 1049.37,93.4905 1050.03,93.4905 C1053.93,93.4905 1056.31,93.9593 1057.06,95.0062 C1057.35,95.3812 1057.63,95.9593 1057.63,96.5218 C1057.63,97.0999 1057.54,97.6624 1057.45,98.2405 C1057.35,98.803 1057.06,99.4749 1056.78,100.225 C1056.49,100.991 1056.21,101.569 1055.92,102.037 C1055.63,102.506 1055.35,103.178 1054.98,103.944 C1054.59,104.694 1054.31,105.084 1054.21,105.272 C1053.74,106.116 1053.45,106.787 1053.17,107.256 C1052.88,107.741 1052.49,108.209 1052.03,108.881 C1051.56,109.537 1050.98,110.116 1050.51,110.491 C1048.51,112.006 1046.32,113.053 1043.76,113.537 L1040.53,113.912 L1040.15,113.912 C1038.92,113.819 1037.59,113.725 1036.35,113.444 C1033.98,112.959 1031.6,112.1 1029.42,110.772 C1027.23,109.444 1025.34,107.834 1023.9,105.928 C1022.48,103.944 1021.15,101.569 1020.2,98.8968 C1019.24,96.2405 1018.68,93.4905 1018.49,90.5374 C1018.4,89.4905 1018.4,88.553 1018.4,87.5062 C1018.4,85.5999 1018.49,83.7093 1018.78,81.8968 C1019.24,79.1468 1020.1,76.4749 1021.43,74.0062 C1022.76,71.5374 1024.48,69.553 1026.57,68.0218 C1029.13,66.0374 1032.26,64.5999 1035.87,63.6624 C1037.87,63.0843 1039.87,62.803 1041.76,62.803 C1043.1,62.803 1044.43,62.9905 1045.67,63.2718 C1046.71,63.5687 1047.74,63.9437 1048.99,64.5062 C1050.23,65.0843 1051.26,65.6468 1052.21,66.2249 C1053.17,66.7874 1054.21,67.3655 1055.26,67.928 C1056.31,68.5062 1057.35,68.9749 1058.29,69.1624 C1059.24,69.3499 1060.2,69.4593 1061.15,69.3499 C1062.1,69.2562 1063.04,68.7874 1063.99,67.928 C1064.95,67.0843 1065.81,65.9437 1066.65,64.5062 C1067.13,63.6624 1067.42,62.803 1067.42,61.9437 C1067.42,61.2874 1067.23,60.7093 1066.95,60.053 C1066.18,58.6155 1064.95,57.3812 1063.24,56.3343 C1061.53,55.303 1059.73,54.3499 1057.63,53.5843 C1055.54,52.8187 1053.54,52.3499 1051.56,52.0687 C1050.12,51.7874 1048.99,51.6937 1048.04,51.6937 C1047.56,51.6937 1047.18,51.6937 1046.9,51.7874"/>
<path class="Harmony" d="M1706.37,51.7874 C1702.66,52.2562 1699.15,53.1155 1695.73,54.3499 C1692.3,55.5843 1689.16,57.2874 1686.13,59.2874 C1683.09,61.2874 1680.34,63.5687 1677.96,66.1312 C1675.59,68.6937 1673.59,71.6312 1671.88,74.9593 C1670.16,78.2874 1669.02,81.803 1668.37,85.5062 C1667.88,87.7874 1667.69,90.1624 1667.69,92.5374 L1667.69,93.2093 C1667.69,95.4749 1667.79,97.6624 1668.07,99.8499 C1668.37,102.225 1668.93,104.6 1669.69,106.787 C1670.55,109.069 1671.49,111.256 1672.54,113.241 C1673.59,115.241 1674.91,117.053 1676.44,118.662 C1677.96,120.272 1679.85,121.6 1681.76,122.741 C1683.66,123.881 1685.84,124.741 1688.21,125.225 C1689.84,125.506 1691.44,125.694 1693.07,125.694 C1693.91,125.694 1694.87,125.694 1695.91,125.6 C1698.85,125.319 1701.62,124.647 1704.18,123.694 C1706.74,122.741 1709.12,121.6 1711.12,120.272 C1713.1,118.944 1715.1,117.241 1716.91,115.334 C1718.71,113.444 1720.43,111.35 1721.85,109.256 C1723.27,107.162 1724.6,104.787 1726.02,102.131 C1728.21,97.7562 1729.26,94.053 1729.26,91.1155 C1729.26,88.1624 1728.21,85.8812 1726.02,84.2718 C1724.79,83.2249 1722.71,82.5687 1719.94,82.0843 C1717.96,81.803 1715.96,81.6155 1713.96,81.6155 L1713.49,81.6155 L1711.4,81.6155 C1708.46,81.7093 1705.69,82.178 1703.04,83.0374 C1700.38,83.8968 1698.57,84.9437 1697.62,86.178 C1697.34,86.6468 1697.05,87.0218 1696.77,87.4124 C1696.1,88.4593 1695.73,89.3968 1695.73,90.2562 C1695.73,91.4905 1696.59,92.3499 1698.19,92.8187 C1699.52,93.2093 1702.09,93.3968 1705.79,93.3968 L1706.65,93.3968 C1707.88,93.4905 1708.84,93.4905 1709.49,93.4905 C1713.4,93.4905 1715.77,93.9593 1716.52,95.0062 C1716.82,95.3812 1717.1,95.9593 1717.1,96.5218 C1717.1,97.0999 1717.01,97.6624 1716.91,98.2405 C1716.82,98.803 1716.52,99.4749 1716.24,100.225 C1715.96,100.991 1715.68,101.569 1715.38,102.037 C1715.1,102.506 1714.82,103.178 1714.44,103.944 C1714.05,104.694 1713.77,105.084 1713.68,105.272 C1713.21,106.116 1712.91,106.787 1712.63,107.256 C1712.35,107.741 1711.96,108.209 1711.49,108.881 C1711.02,109.537 1710.44,110.116 1709.98,110.491 C1707.98,112.006 1705.79,113.053 1703.23,113.537 L1699.99,113.912 L1699.62,113.912 C1698.38,113.819 1697.05,113.725 1695.82,113.444 C1693.44,112.959 1691.07,112.1 1688.88,110.772 C1686.69,109.444 1684.8,107.834 1683.37,105.928 C1681.94,103.944 1680.62,101.569 1679.66,98.8968 C1678.71,96.2405 1678.15,93.4905 1677.96,90.5374 C1677.87,89.4905 1677.87,88.553 1677.87,87.5062 C1677.87,85.5999 1677.96,83.7093 1678.24,81.8968 C1678.71,79.1468 1679.57,76.4749 1680.9,74.0062 C1682.23,71.5374 1683.94,69.553 1686.04,68.0218 C1688.6,66.0374 1691.73,64.5999 1695.34,63.6624 C1697.34,63.0843 1699.34,62.803 1701.23,62.803 C1702.57,62.803 1703.9,62.9905 1705.13,63.2718 C1706.18,63.5687 1707.21,63.9437 1708.46,64.5062 C1709.69,65.0843 1710.73,65.6468 1711.68,66.2249 C1712.63,66.7874 1713.68,67.3655 1714.73,67.928 C1715.77,68.5062 1716.82,68.9749 1717.76,69.1624 C1718.71,69.3499 1719.66,69.4593 1720.62,69.3499 C1721.57,69.2562 1722.51,68.7874 1723.46,67.928 C1724.41,67.0843 1725.27,65.9437 1726.12,64.5062 C1726.6,63.6624 1726.88,62.803 1726.88,61.9437 C1726.88,61.2874 1726.69,60.7093 1726.41,60.053 C1725.65,58.6155 1724.41,57.3812 1722.71,56.3343 C1720.99,55.303 1719.19,54.3499 1717.1,53.5843 C1715.01,52.8187 1713.01,52.3499 1711.02,52.0687 C1709.59,51.7874 1708.46,51.6937 1707.51,51.6937 C1707.02,51.6937 1706.65,51.6937 1706.37,51.7874"/>
<path class="Harmony" d="M2344.93,51.3968 C2344.46,51.4905 2343.69,51.5843 2342.46,51.6937 C2341.22,51.7874 2340.27,51.9749 2339.61,52.0687 C2338.94,52.1624 2337.99,52.2562 2336.85,52.4437 C2335.71,52.6312 2334.86,52.928 2334.1,53.2093 C2333.33,53.4905 2332.49,53.8655 2331.72,54.3499 C2330.96,54.8187 2330.3,55.303 2329.82,55.9593 C2329.16,56.6312 2328.68,57.3812 2328.3,58.1468 C2327.93,58.9124 2327.65,59.8499 2327.54,60.803 C2327.44,61.4749 2327.44,62.1312 2327.44,62.803 L2327.44,63.3655 C2327.54,64.0374 2327.54,64.9905 2327.65,66.1312 C2327.74,67.2718 2327.74,68.2093 2327.74,68.8812 C2327.74,79.7093 2328.02,90.3499 2328.49,100.897 C2328.58,101.459 2328.58,102.037 2328.58,102.709 C2328.49,104.694 2328.4,107.35 2328.21,110.491 C2327.93,114.194 2327.74,116.959 2327.74,118.756 L2327.74,119.334 L2327.74,120.944 C2327.74,121.412 2327.93,121.897 2328.02,122.459 C2328.11,123.037 2328.3,123.506 2328.58,123.787 C2328.88,124.084 2329.16,124.366 2329.63,124.647 C2330.02,124.834 2330.49,124.928 2331.05,124.928 L2331.35,124.928 C2334.66,124.834 2337.99,124.178 2341.32,122.944 C2344.65,121.709 2347.79,120.178 2350.72,118.194 C2353.68,116.194 2356.43,113.819 2359.08,111.069 C2361.74,108.303 2364.02,105.459 2365.93,102.412 C2367.82,99.3812 2369.44,96.2405 2370.68,92.9124 C2371.91,89.5843 2372.57,86.2718 2372.77,83.1312 C2372.86,82.4593 2372.86,81.7093 2372.86,81.0374 C2372.86,79.2405 2372.68,77.3343 2372.29,75.4437 C2371.82,72.7718 2371.05,70.1155 2370.01,67.6468 C2368.96,65.178 2367.63,62.8968 2365.93,60.7093 C2364.21,58.5218 2362.32,56.7249 2360.22,55.2093 C2358.13,53.678 2355.85,52.5374 2353.19,51.8812 C2351.49,51.3968 2349.68,51.2093 2347.88,51.2093 C2346.93,51.2093 2345.97,51.303 2344.93,51.3968 M2339.04,112.772 C2339.04,110.022 2339.13,106.022 2339.22,100.897 C2339.32,96.8187 2339.41,92.9124 2339.41,89.3968 C2339.41,88.553 2339.32,87.6937 2339.32,86.8343 C2339.32,82.6624 2339.22,78.5687 2339.04,74.7718 C2339.04,74.303 2338.94,73.4437 2338.76,72.0218 C2338.57,70.5843 2338.29,69.2562 2338.18,68.0218 C2338.08,67.4593 2338.08,66.8812 2338.08,66.3187 C2338.08,65.6468 2338.08,65.0843 2338.18,64.4124 C2338.38,63.178 2338.76,62.2249 2339.41,61.7562 C2340.27,61.0843 2341.22,60.803 2342.27,60.803 C2342.55,60.8968 2342.83,60.8968 2343.13,60.8968 C2344.55,61.0843 2346.07,61.5687 2347.68,62.428 C2349.3,63.2718 2350.82,64.4124 2352.24,65.553 C2353.68,66.6937 2355.01,67.8343 2356.05,68.9749 C2357.08,70.1155 2357.94,70.9749 2358.43,71.8343 C2359.94,74.303 2360.99,77.053 2361.55,80.0843 C2361.83,81.803 2362.04,83.5062 2362.04,85.2249 C2362.04,86.4593 2361.93,87.6937 2361.83,88.928 C2361.36,91.8655 2360.51,94.7249 2359.27,97.4749 C2358.04,100.225 2356.43,102.709 2354.52,104.881 C2352.54,107.069 2350.26,108.787 2347.58,110.209 C2344.93,111.631 2342.08,112.491 2339.04,112.772"/>
<path class="Harmony" d="M208.533,383.508 C204.83,383.977 201.314,384.836 197.892,386.07 C194.47,387.305 191.33,389.008 188.298,391.008 C185.252,393.008 182.502,395.289 180.127,397.852 C177.752,400.414 175.752,403.352 174.048,406.68 C172.33,410.008 171.189,413.523 170.533,417.227 C170.048,419.508 169.861,421.883 169.861,424.258 L169.861,424.93 C169.861,427.195 169.955,429.383 170.236,431.57 C170.533,433.945 171.095,436.32 171.861,438.508 C172.72,440.789 173.658,442.977 174.705,444.961 C175.752,446.961 177.08,448.773 178.611,450.383 C180.127,451.992 182.017,453.32 183.923,454.461 C185.83,455.602 188.002,456.461 190.377,456.945 C192.002,457.227 193.611,457.414 195.236,457.414 C196.08,457.414 197.033,457.414 198.08,457.32 C201.017,457.039 203.783,456.367 206.345,455.414 C208.908,454.461 211.283,453.32 213.283,451.992 C215.267,450.664 217.267,448.961 219.08,447.055 C220.877,445.164 222.595,443.07 224.017,440.977 C225.439,438.883 226.767,436.508 228.189,433.852 C230.377,429.477 231.423,425.773 231.423,422.836 C231.423,419.883 230.377,417.602 228.189,415.992 C226.955,414.945 224.877,414.289 222.111,413.805 C220.127,413.523 218.127,413.336 216.127,413.336 L215.658,413.336 L213.564,413.336 C210.627,413.43 207.861,413.898 205.205,414.758 C202.548,415.617 200.736,416.664 199.783,417.898 C199.502,418.367 199.22,418.742 198.939,419.133 C198.267,420.18 197.892,421.117 197.892,421.977 C197.892,423.211 198.752,424.07 200.361,424.539 C201.689,424.93 204.252,425.117 207.955,425.117 L208.814,425.117 C210.048,425.211 211.002,425.211 211.658,425.211 C215.564,425.211 217.939,425.68 218.689,426.727 C218.986,427.102 219.267,427.68 219.267,428.242 C219.267,428.82 219.173,429.383 219.08,429.961 C218.986,430.523 218.689,431.195 218.408,431.945 C218.127,432.711 217.845,433.289 217.548,433.758 C217.267,434.227 216.986,434.898 216.611,435.664 C216.22,436.414 215.939,436.805 215.845,436.992 C215.377,437.836 215.08,438.508 214.798,438.977 C214.517,439.461 214.127,439.93 213.658,440.602 C213.189,441.258 212.611,441.836 212.142,442.211 C210.142,443.727 207.955,444.773 205.392,445.258 L202.158,445.633 L201.783,445.633 C200.548,445.539 199.22,445.445 197.986,445.164 C195.611,444.68 193.236,443.82 191.048,442.492 C188.861,441.164 186.97,439.555 185.533,437.648 C184.111,435.664 182.783,433.289 181.83,430.617 C180.877,427.961 180.314,425.211 180.127,422.258 C180.033,421.211 180.033,420.273 180.033,419.227 C180.033,417.32 180.127,415.43 180.408,413.617 C180.877,410.867 181.736,408.195 183.064,405.727 C184.392,403.258 186.111,401.273 188.205,399.742 C190.767,397.758 193.892,396.32 197.502,395.383 C199.502,394.805 201.502,394.523 203.392,394.523 C204.736,394.523 206.064,394.711 207.298,394.992 C208.345,395.289 209.377,395.664 210.627,396.227 C211.861,396.805 212.892,397.367 213.845,397.945 C214.798,398.508 215.845,399.086 216.892,399.648 C217.939,400.227 218.986,400.695 219.923,400.883 C220.877,401.07 221.83,401.18 222.783,401.07 C223.736,400.977 224.673,400.508 225.627,399.648 C226.58,398.805 227.439,397.664 228.283,396.227 C228.767,395.383 229.048,394.523 229.048,393.664 C229.048,393.008 228.861,392.43 228.58,391.773 C227.814,390.336 226.58,389.102 224.877,388.055 C223.158,387.023 221.361,386.07 219.267,385.305 C217.173,384.539 215.173,384.07 213.189,383.789 C211.752,383.508 210.627,383.414 209.673,383.414 C209.189,383.414 208.814,383.414 208.533,383.508"/>
<path class="Harmony" d="M902.155,383.508 C898.452,383.977 894.936,384.836 891.514,386.07 C888.092,387.305 884.952,389.008 881.92,391.008 C878.873,393.008 876.123,395.289 873.748,397.852 C871.373,400.414 869.373,403.352 867.67,406.68 C865.952,410.008 864.811,413.523 864.155,417.227 C863.67,419.508 863.483,421.883 863.483,424.258 L863.483,424.93 C863.483,427.195 863.577,429.383 863.858,431.57 C864.155,433.945 864.717,436.32 865.483,438.508 C866.342,440.789 867.28,442.977 868.327,444.961 C869.373,446.961 870.702,448.773 872.233,450.383 C873.748,451.992 875.639,453.32 877.545,454.461 C879.452,455.602 881.623,456.461 883.998,456.945 C885.623,457.227 887.233,457.414 888.858,457.414 C889.702,457.414 890.655,457.414 891.702,457.32 C894.639,457.039 897.405,456.367 899.967,455.414 C902.53,454.461 904.905,453.32 906.905,451.992 C908.889,450.664 910.889,448.961 912.702,447.055 C914.498,445.164 916.217,443.07 917.639,440.977 C919.061,438.883 920.389,436.508 921.811,433.852 C923.998,429.477 925.045,425.773 925.045,422.836 C925.045,419.883 923.998,417.602 921.811,415.992 C920.577,414.945 918.498,414.289 915.733,413.805 C913.748,413.523 911.748,413.336 909.748,413.336 L909.28,413.336 L907.186,413.336 C904.248,413.43 901.483,413.898 898.827,414.758 C896.17,415.617 894.358,416.664 893.405,417.898 C893.123,418.367 892.842,418.742 892.561,419.133 C891.889,420.18 891.514,421.117 891.514,421.977 C891.514,423.211 892.373,424.07 893.983,424.539 C895.311,424.93 897.873,425.117 901.577,425.117 L902.436,425.117 C903.67,425.211 904.623,425.211 905.28,425.211 C909.186,425.211 911.561,425.68 912.311,426.727 C912.608,427.102 912.889,427.68 912.889,428.242 C912.889,428.82 912.795,429.383 912.702,429.961 C912.608,430.523 912.311,431.195 912.03,431.945 C911.748,432.711 911.467,433.289 911.17,433.758 C910.889,434.227 910.608,434.898 910.233,435.664 C909.842,436.414 909.561,436.805 909.467,436.992 C908.998,437.836 908.702,438.508 908.42,438.977 C908.139,439.461 907.748,439.93 907.28,440.602 C906.811,441.258 906.233,441.836 905.764,442.211 C903.764,443.727 901.577,444.773 899.014,445.258 L895.78,445.633 L895.405,445.633 C894.17,445.539 892.842,445.445 891.608,445.164 C889.233,444.68 886.858,443.82 884.67,442.492 C882.483,441.164 880.592,439.555 879.155,437.648 C877.733,435.664 876.405,433.289 875.452,430.617 C874.498,427.961 873.936,425.211 873.748,422.258 C873.655,421.211 873.655,420.273 873.655,419.227 C873.655,417.32 873.748,415.43 874.03,413.617 C874.498,410.867 875.358,408.195 876.686,405.727 C878.014,403.258 879.733,401.273 881.827,399.742 C884.389,397.758 887.514,396.32 891.123,395.383 C893.123,394.805 895.123,394.523 897.014,394.523 C898.358,394.523 899.686,394.711 900.92,394.992 C901.967,395.289 902.998,395.664 904.248,396.227 C905.483,396.805 906.514,397.367 907.467,397.945 C908.42,398.508 909.467,399.086 910.514,399.648 C911.561,400.227 912.608,400.695 913.545,400.883 C914.498,401.07 915.452,401.18 916.405,401.07 C917.358,400.977 918.295,400.508 919.248,399.648 C920.202,398.805 921.061,397.664 921.905,396.227 C922.389,395.383 922.67,394.523 922.67,393.664 C922.67,393.008 922.483,392.43 922.202,391.773 C921.436,390.336 920.202,389.102 918.498,388.055 C916.78,387.023 914.983,386.07 912.889,385.305 C910.795,384.539 908.795,384.07 906.811,383.789 C905.373,383.508 904.248,383.414 903.295,383.414 C902.811,383.414 902.436,383.414 902.155,383.508"/>
<path class="Harmony" d="M1591.84,383.305 C1588.6,383.789 1585.37,384.742 1582.25,386.258 C1579.1,387.773 1576.25,389.68 1573.68,391.961 C1571.12,394.242 1568.75,396.805 1566.56,399.742 C1564.37,402.695 1562.67,405.727 1561.25,408.867 C1559.82,412.008 1558.87,415.32 1558.29,418.836 C1558.01,420.742 1557.82,422.648 1557.82,424.445 C1557.82,425.961 1557.92,427.492 1558.1,428.914 C1558.59,431.852 1559.43,434.805 1560.76,437.555 C1562.1,440.32 1563.62,442.883 1565.51,445.258 C1567.42,447.633 1569.79,449.617 1572.35,451.43 C1574.92,453.227 1577.48,454.57 1580.25,455.508 C1582.81,456.367 1585.46,456.836 1588.42,456.836 L1588.7,456.836 L1588.98,456.836 C1592.12,456.742 1595.15,456.18 1598.1,455.039 C1598.96,454.758 1599.81,454.461 1600.67,454.086 C1601.53,453.711 1602.48,453.227 1603.71,452.57 C1604.95,451.898 1606,451.336 1607.03,450.664 C1608.07,450.008 1609.03,449.242 1609.98,448.383 C1610.93,447.539 1611.68,446.586 1612.17,445.727 C1612.64,444.867 1612.92,444.023 1612.92,442.977 C1612.82,441.93 1612.45,440.883 1611.78,439.836 C1611.5,439.367 1611.03,439.07 1610.54,438.883 C1610.07,438.695 1609.5,438.602 1609.03,438.695 C1608.56,438.789 1608.07,438.977 1607.51,439.273 C1606.93,439.555 1606.37,439.836 1605.89,440.023 C1605.42,440.211 1604.95,440.508 1604.37,440.883 C1603.81,441.258 1603.42,441.555 1603.14,441.648 C1599.81,443.445 1596.59,444.398 1593.26,444.398 C1590.21,444.398 1587.28,443.633 1584.32,442.117 C1581.57,440.695 1579.01,439.07 1576.73,437.18 C1574.45,435.273 1572.73,433.18 1571.5,430.805 C1570.46,428.633 1569.6,426.352 1569.12,423.977 C1568.65,421.789 1568.46,419.695 1568.46,417.508 L1568.46,416.758 C1568.46,414.383 1568.84,412.008 1569.6,409.633 C1570.35,407.258 1571.31,405.07 1572.54,403.164 C1573.78,401.273 1575.5,399.555 1577.48,398.133 C1579.48,396.711 1581.76,395.758 1584.32,395.289 C1584.9,395.086 1585.56,394.992 1586.23,394.992 C1586.7,395.086 1587.18,395.086 1587.65,395.18 C1588.89,395.383 1590.21,395.664 1591.54,396.039 C1592.87,396.32 1594.21,396.805 1595.54,397.461 L1599.53,399.18 C1600.85,399.742 1602.18,400.133 1603.42,400.602 C1604.65,401.07 1605.89,401.273 1607.12,401.367 C1607.51,401.461 1607.89,401.461 1608.17,401.461 C1608.93,401.367 1609.7,401.273 1610.35,401.18 C1611.31,400.977 1612.17,400.414 1613.01,399.555 C1613.87,398.695 1614.64,397.664 1615.1,396.227 C1615.29,395.57 1615.39,394.992 1615.39,394.43 C1615.5,393.945 1615.39,393.477 1615.2,393.008 C1615.01,392.523 1614.73,392.148 1614.45,391.773 C1614.15,391.289 1613.78,391.008 1613.31,390.633 C1612.82,390.242 1612.45,389.867 1612.07,389.586 C1611.68,389.305 1611.12,388.914 1610.64,388.633 C1604.75,384.93 1599.34,383.117 1594.31,383.117 C1593.45,383.117 1592.68,383.211 1591.84,383.305"/>
<path class="Harmony" d="M2268.49,383.117 C2268.02,383.211 2267.26,383.305 2266.02,383.414 C2264.79,383.508 2263.84,383.695 2263.18,383.789 C2262.51,383.883 2261.55,383.977 2260.41,384.164 C2259.27,384.352 2258.43,384.648 2257.66,384.93 C2256.9,385.211 2256.05,385.586 2255.29,386.07 C2254.52,386.539 2253.87,387.023 2253.38,387.68 C2252.73,388.352 2252.24,389.102 2251.87,389.867 C2251.49,390.633 2251.21,391.57 2251.1,392.523 C2251.01,393.195 2251.01,393.852 2251.01,394.523 L2251.01,395.086 C2251.1,395.758 2251.1,396.711 2251.21,397.852 C2251.3,398.992 2251.3,399.93 2251.3,400.602 C2251.3,411.43 2251.59,422.07 2252.05,432.617 C2252.15,433.18 2252.15,433.758 2252.15,434.43 C2252.05,436.414 2251.96,439.07 2251.77,442.211 C2251.49,445.914 2251.3,448.68 2251.3,450.477 L2251.3,451.055 L2251.3,452.664 C2251.3,453.133 2251.49,453.617 2251.59,454.18 C2251.68,454.758 2251.87,455.227 2252.15,455.508 C2252.45,455.805 2252.73,456.086 2253.2,456.367 C2253.59,456.555 2254.05,456.648 2254.62,456.648 L2254.91,456.648 C2258.23,456.555 2261.55,455.898 2264.88,454.664 C2268.21,453.43 2271.35,451.898 2274.29,449.914 C2277.24,447.914 2279.99,445.539 2282.65,442.789 C2285.3,440.023 2287.59,437.18 2289.49,434.133 C2291.38,431.102 2293.01,427.961 2294.24,424.633 C2295.48,421.305 2296.13,417.992 2296.34,414.852 C2296.43,414.18 2296.43,413.43 2296.43,412.758 C2296.43,410.961 2296.24,409.055 2295.85,407.164 C2295.38,404.492 2294.62,401.836 2293.57,399.367 C2292.52,396.898 2291.2,394.617 2289.49,392.43 C2287.77,390.242 2285.88,388.445 2283.79,386.93 C2281.7,385.398 2279.41,384.258 2276.76,383.602 C2275.05,383.117 2273.24,382.93 2271.45,382.93 C2270.49,382.93 2269.54,383.023 2268.49,383.117 M2262.6,444.492 C2262.6,441.742 2262.7,437.742 2262.79,432.617 C2262.88,428.539 2262.98,424.633 2262.98,421.117 C2262.98,420.273 2262.88,419.414 2262.88,418.555 C2262.88,414.383 2262.79,410.289 2262.6,406.492 C2262.6,406.023 2262.51,405.164 2262.32,403.742 C2262.13,402.305 2261.85,400.977 2261.74,399.742 C2261.65,399.18 2261.65,398.602 2261.65,398.039 C2261.65,397.367 2261.65,396.805 2261.74,396.133 C2261.95,394.898 2262.32,393.945 2262.98,393.477 C2263.84,392.805 2264.79,392.523 2265.84,392.523 C2266.12,392.617 2266.4,392.617 2266.7,392.617 C2268.12,392.805 2269.63,393.289 2271.24,394.148 C2272.87,394.992 2274.38,396.133 2275.8,397.273 C2277.24,398.414 2278.57,399.555 2279.62,400.695 C2280.65,401.836 2281.51,402.695 2281.99,403.555 C2283.51,406.023 2284.55,408.773 2285.12,411.805 C2285.4,413.523 2285.6,415.227 2285.6,416.945 C2285.6,418.18 2285.49,419.414 2285.4,420.648 C2284.93,423.586 2284.07,426.445 2282.84,429.195 C2281.6,431.945 2279.99,434.43 2278.09,436.602 C2276.1,438.789 2273.82,440.508 2271.15,441.93 C2268.49,443.352 2265.65,444.211 2262.6,444.492"/>
<path class="Harmony" d="M208.533,715.228 C204.83,715.697 201.314,716.556 197.892,717.791 C194.47,719.025 191.33,720.728 188.298,722.728 C185.252,724.728 182.502,727.01 180.127,729.572 C177.752,732.135 175.752,735.072 174.048,738.4 C172.33,741.728 171.189,745.244 170.533,748.947 C170.048,751.228 169.861,753.603 169.861,755.978 L169.861,756.65 C169.861,758.916 169.955,761.103 170.236,763.291 C170.533,765.666 171.095,768.041 171.861,770.228 C172.72,772.51 173.658,774.697 174.705,776.681 C175.752,778.681 177.08,780.494 178.611,782.103 C180.127,783.713 182.017,785.041 183.923,786.181 C185.83,787.322 188.002,788.181 190.377,788.666 C192.002,788.947 193.611,789.135 195.236,789.135 C196.08,789.135 197.033,789.135 198.08,789.041 C201.017,788.76 203.783,788.088 206.345,787.135 C208.908,786.181 211.283,785.041 213.283,783.713 C215.267,782.385 217.267,780.681 219.08,778.775 C220.877,776.885 222.595,774.791 224.017,772.697 C225.439,770.603 226.767,768.228 228.189,765.572 C230.377,761.197 231.423,757.494 231.423,754.556 C231.423,751.603 230.377,749.322 228.189,747.713 C226.955,746.666 224.877,746.01 222.111,745.525 C220.127,745.244 218.127,745.056 216.127,745.056 L215.658,745.056 L213.564,745.056 C210.627,745.15 207.861,745.619 205.205,746.478 C202.548,747.338 200.736,748.385 199.783,749.619 C199.502,750.088 199.22,750.463 198.939,750.853 C198.267,751.9 197.892,752.838 197.892,753.697 C197.892,754.931 198.752,755.791 200.361,756.26 C201.689,756.65 204.252,756.838 207.955,756.838 L208.814,756.838 C210.048,756.931 211.002,756.931 211.658,756.931 C215.564,756.931 217.939,757.4 218.689,758.447 C218.986,758.822 219.267,759.4 219.267,759.963 C219.267,760.541 219.173,761.103 219.08,761.681 C218.986,762.244 218.689,762.916 218.408,763.666 C218.127,764.431 217.845,765.01 217.548,765.478 C217.267,765.947 216.986,766.619 216.611,767.385 C216.22,768.135 215.939,768.525 215.845,768.713 C215.377,769.556 215.08,770.228 214.798,770.697 C214.517,771.181 214.127,771.65 213.658,772.322 C213.189,772.978 212.611,773.556 212.142,773.931 C210.142,775.447 207.955,776.494 205.392,776.978 L202.158,777.353 L201.783,777.353 C200.548,777.26 199.22,777.166 197.986,776.885 C195.611,776.4 193.236,775.541 191.048,774.213 C188.861,772.885 186.97,771.275 185.533,769.369 C184.111,767.385 182.783,765.01 181.83,762.338 C180.877,759.681 180.314,756.931 180.127,753.978 C180.033,752.931 180.033,751.994 180.033,750.947 C180.033,749.041 180.127,747.15 180.408,745.338 C180.877,742.588 181.736,739.916 183.064,737.447 C184.392,734.978 186.111,732.994 188.205,731.463 C190.767,729.478 193.892,728.041 197.502,727.103 C199.502,726.525 201.502,726.244 203.392,726.244 C204.736,726.244 206.064,726.431 207.298,726.713 C208.345,727.01 209.377,727.385 210.627,727.947 C211.861,728.525 212.892,729.088 213.845,729.666 C214.798,730.228 215.845,730.806 216.892,731.369 C217.939,731.947 218.986,732.416 219.923,732.603 C220.877,732.791 221.83,732.9 222.783,732.791 C223.736,732.697 224.673,732.228 225.627,731.369 C226.58,730.525 227.439,729.385 228.283,727.947 C228.767,727.103 229.048,726.244 229.048,725.385 C229.048,724.728 228.861,724.15 228.58,723.494 C227.814,722.056 226.58,720.822 224.877,719.775 C223.158,718.744 221.361,717.791 219.267,717.025 C217.173,716.26 215.173,715.791 213.189,715.51 C211.752,715.228 210.627,715.135 209.673,715.135 C209.189,715.135 208.814,715.135 208.533,715.228"/>
<path class="Harmony" d="M912.725,715.228 C909.022,715.697 905.506,716.556 902.084,717.791 C898.662,719.025 895.522,720.728 892.49,722.728 C889.443,724.728 886.693,727.01 884.318,729.572 C881.943,732.135 879.943,735.072 878.24,738.4 C876.522,741.728 875.381,745.244 874.725,748.947 C874.24,751.228 874.053,753.603 874.053,755.978 L874.053,756.65 C874.053,758.916 874.147,761.103 874.428,763.291 C874.725,765.666 875.287,768.041 876.053,770.228 C876.912,772.51 877.85,774.697 878.897,776.681 C879.943,778.681 881.272,780.494 882.803,782.103 C884.318,783.713 886.209,785.041 888.115,786.181 C890.022,787.322 892.193,788.181 894.568,788.666 C896.193,788.947 897.803,789.135 899.428,789.135 C900.272,789.135 901.225,789.135 902.272,789.041 C905.209,788.76 907.975,788.088 910.537,787.135 C913.1,786.181 915.475,785.041 917.475,783.713 C919.459,782.385 921.459,780.681 923.272,778.775 C925.068,776.885 926.787,774.791 928.209,772.697 C929.631,770.603 930.959,768.228 932.381,765.572 C934.568,761.197 935.615,757.494 935.615,754.556 C935.615,751.603 934.568,749.322 932.381,747.713 C931.147,746.666 929.068,746.01 926.303,745.525 C924.318,745.244 922.318,745.056 920.318,745.056 L919.85,745.056 L917.756,745.056 C914.818,745.15 912.053,745.619 909.397,746.478 C906.74,747.338 904.928,748.385 903.975,749.619 C903.693,750.088 903.412,750.463 903.131,750.853 C902.459,751.9 902.084,752.838 902.084,753.697 C902.084,754.931 902.943,755.791 904.553,756.26 C905.881,756.65 908.443,756.838 912.147,756.838 L913.006,756.838 C914.24,756.931 915.193,756.931 915.85,756.931 C919.756,756.931 922.131,757.4 922.881,758.447 C923.178,758.822 923.459,759.4 923.459,759.963 C923.459,760.541 923.365,761.103 923.272,761.681 C923.178,762.244 922.881,762.916 922.6,763.666 C922.318,764.431 922.037,765.01 921.74,765.478 C921.459,765.947 921.178,766.619 920.803,767.385 C920.412,768.135 920.131,768.525 920.037,768.713 C919.568,769.556 919.272,770.228 918.99,770.697 C918.709,771.181 918.318,771.65 917.85,772.322 C917.381,772.978 916.803,773.556 916.334,773.931 C914.334,775.447 912.147,776.494 909.584,776.978 L906.35,777.353 L905.975,777.353 C904.74,777.26 903.412,777.166 902.178,776.885 C899.803,776.4 897.428,775.541 895.24,774.213 C893.053,772.885 891.162,771.275 889.725,769.369 C888.303,767.385 886.975,765.01 886.022,762.338 C885.068,759.681 884.506,756.931 884.318,753.978 C884.225,752.931 884.225,751.994 884.225,750.947 C884.225,749.041 884.318,747.15 884.6,745.338 C885.068,742.588 885.928,739.916 887.256,737.447 C888.584,734.978 890.303,732.994 892.397,731.463 C894.959,729.478 898.084,728.041 901.693,727.103 C903.693,726.525 905.693,726.244 907.584,726.244 C908.928,726.244 910.256,726.431 911.49,726.713 C912.537,727.01 913.568,727.385 914.818,727.947 C916.053,728.525 917.084,729.088 918.037,729.666 C918.99,730.228 920.037,730.806 921.084,731.369 C922.131,731.947 923.178,732.416 924.115,732.603 C925.068,732.791 926.022,732.9 926.975,732.791 C927.928,732.697 928.865,732.228 929.818,731.369 C930.772,730.525 931.631,729.385 932.475,727.947 C932.959,727.103 933.24,726.244 933.24,725.385 C933.24,724.728 933.053,724.15 932.772,723.494 C932.006,722.056 930.772,720.822 929.068,719.775 C927.35,718.744 925.553,717.791 923.459,717.025 C921.365,716.26 919.365,715.791 917.381,715.51 C915.943,715.228 914.818,715.135 913.865,715.135 C913.381,715.135 913.006,715.135 912.725,715.228"/>
<path class="Harmony" d="M1616.92,715.228 C1613.21,715.697 1609.7,716.556 1606.28,717.791 C1602.85,719.025 1599.71,720.728 1596.68,722.728 C1593.64,724.728 1590.89,727.01 1588.51,729.572 C1586.14,732.135 1584.14,735.072 1582.43,738.4 C1580.71,741.728 1579.57,745.244 1578.92,748.947 C1578.43,751.228 1578.24,753.603 1578.24,755.978 L1578.24,756.65 C1578.24,758.916 1578.34,761.103 1578.62,763.291 C1578.92,765.666 1579.48,768.041 1580.24,770.228 C1581.1,772.51 1582.04,774.697 1583.09,776.681 C1584.14,778.681 1585.46,780.494 1586.99,782.103 C1588.51,783.713 1590.4,785.041 1592.31,786.181 C1594.21,787.322 1596.39,788.181 1598.76,788.666 C1600.39,788.947 1601.99,789.135 1603.62,789.135 C1604.46,789.135 1605.42,789.135 1606.46,789.041 C1609.4,788.76 1612.17,788.088 1614.73,787.135 C1617.29,786.181 1619.67,785.041 1621.67,783.713 C1623.65,782.385 1625.65,780.681 1627.46,778.775 C1629.26,776.885 1630.98,774.791 1632.4,772.697 C1633.82,770.603 1635.15,768.228 1636.57,765.572 C1638.76,761.197 1639.81,757.494 1639.81,754.556 C1639.81,751.603 1638.76,749.322 1636.57,747.713 C1635.34,746.666 1633.26,746.01 1630.49,745.525 C1628.51,745.244 1626.51,745.056 1624.51,745.056 L1624.04,745.056 L1621.95,745.056 C1619.01,745.15 1616.24,745.619 1613.59,746.478 C1610.93,747.338 1609.12,748.385 1608.17,749.619 C1607.89,750.088 1607.6,750.463 1607.32,750.853 C1606.65,751.9 1606.28,752.838 1606.28,753.697 C1606.28,754.931 1607.14,755.791 1608.74,756.26 C1610.07,756.65 1612.64,756.838 1616.34,756.838 L1617.2,756.838 C1618.43,756.931 1619.39,756.931 1620.04,756.931 C1623.95,756.931 1626.32,757.4 1627.07,758.447 C1627.37,758.822 1627.65,759.4 1627.65,759.963 C1627.65,760.541 1627.56,761.103 1627.46,761.681 C1627.37,762.244 1627.07,762.916 1626.79,763.666 C1626.51,764.431 1626.23,765.01 1625.93,765.478 C1625.65,765.947 1625.37,766.619 1624.99,767.385 C1624.6,768.135 1624.32,768.525 1624.23,768.713 C1623.76,769.556 1623.46,770.228 1623.18,770.697 C1622.9,771.181 1622.51,771.65 1622.04,772.322 C1621.57,772.978 1620.99,773.556 1620.53,773.931 C1618.53,775.447 1616.34,776.494 1613.78,776.978 L1610.54,777.353 L1610.17,777.353 C1608.93,777.26 1607.6,777.166 1606.37,776.885 C1603.99,776.4 1601.62,775.541 1599.43,774.213 C1597.24,772.885 1595.35,771.275 1593.92,769.369 C1592.49,767.385 1591.17,765.01 1590.21,762.338 C1589.26,759.681 1588.7,756.931 1588.51,753.978 C1588.42,752.931 1588.42,751.994 1588.42,750.947 C1588.42,749.041 1588.51,747.15 1588.79,745.338 C1589.26,742.588 1590.12,739.916 1591.45,737.447 C1592.78,734.978 1594.49,732.994 1596.59,731.463 C1599.15,729.478 1602.28,728.041 1605.89,727.103 C1607.89,726.525 1609.89,726.244 1611.78,726.244 C1613.12,726.244 1614.45,726.431 1615.68,726.713 C1616.73,727.01 1617.76,727.385 1619.01,727.947 C1620.24,728.525 1621.28,729.088 1622.23,729.666 C1623.18,730.228 1624.23,730.806 1625.28,731.369 C1626.32,731.947 1627.37,732.416 1628.31,732.603 C1629.26,732.791 1630.21,732.9 1631.17,732.791 C1632.12,732.697 1633.06,732.228 1634.01,731.369 C1634.96,730.525 1635.82,729.385 1636.67,727.947 C1637.15,727.103 1637.43,726.244 1637.43,725.385 C1637.43,724.728 1637.24,724.15 1636.96,723.494 C1636.2,722.056 1634.96,720.822 1633.26,719.775 C1631.54,718.744 1629.74,717.791 1627.65,717.025 C1625.56,716.26 1623.56,715.791 1621.57,715.51 C1620.14,715.228 1619.01,715.135 1618.06,715.135 C1617.57,715.135 1617.2,715.135 1616.92,715.228"/>
<path class="Harmony" d="M2300.2,714.838 C2299.73,714.931 2298.97,715.025 2297.73,715.135 C2296.5,715.228 2295.55,715.416 2294.89,715.51 C2294.22,715.603 2293.26,715.697 2292.12,715.885 C2290.98,716.072 2290.14,716.369 2289.37,716.65 C2288.61,716.931 2287.76,717.306 2287,717.791 C2286.23,718.26 2285.58,718.744 2285.09,719.4 C2284.44,720.072 2283.95,720.822 2283.58,721.588 C2283.2,722.353 2282.92,723.291 2282.81,724.244 C2282.72,724.916 2282.72,725.572 2282.72,726.244 L2282.72,726.806 C2282.81,727.478 2282.81,728.431 2282.92,729.572 C2283.01,730.713 2283.01,731.65 2283.01,732.322 C2283.01,743.15 2283.3,753.791 2283.76,764.338 C2283.86,764.9 2283.86,765.478 2283.86,766.15 C2283.76,768.135 2283.67,770.791 2283.48,773.931 C2283.2,777.635 2283.01,780.4 2283.01,782.197 L2283.01,782.775 L2283.01,784.385 C2283.01,784.853 2283.2,785.338 2283.3,785.9 C2283.39,786.478 2283.58,786.947 2283.86,787.228 C2284.16,787.525 2284.44,787.806 2284.91,788.088 C2285.3,788.275 2285.76,788.369 2286.33,788.369 L2286.62,788.369 C2289.94,788.275 2293.26,787.619 2296.59,786.385 C2299.92,785.15 2303.06,783.619 2306,781.635 C2308.95,779.635 2311.7,777.26 2314.36,774.51 C2317.01,771.744 2319.3,768.9 2321.2,765.853 C2323.09,762.822 2324.72,759.681 2325.95,756.353 C2327.19,753.025 2327.84,749.713 2328.05,746.572 C2328.14,745.9 2328.14,745.15 2328.14,744.478 C2328.14,742.681 2327.95,740.775 2327.56,738.885 C2327.09,736.213 2326.33,733.556 2325.28,731.088 C2324.23,728.619 2322.91,726.338 2321.2,724.15 C2319.48,721.963 2317.59,720.166 2315.5,718.65 C2313.41,717.119 2311.12,715.978 2308.47,715.322 C2306.76,714.838 2304.95,714.65 2303.16,714.65 C2302.2,714.65 2301.25,714.744 2300.2,714.838 M2294.31,776.213 C2294.31,773.463 2294.41,769.463 2294.5,764.338 C2294.59,760.26 2294.69,756.353 2294.69,752.838 C2294.69,751.994 2294.59,751.135 2294.59,750.275 C2294.59,746.103 2294.5,742.01 2294.31,738.213 C2294.31,737.744 2294.22,736.885 2294.03,735.463 C2293.84,734.025 2293.56,732.697 2293.45,731.463 C2293.36,730.9 2293.36,730.322 2293.36,729.76 C2293.36,729.088 2293.36,728.525 2293.45,727.853 C2293.66,726.619 2294.03,725.666 2294.69,725.197 C2295.55,724.525 2296.5,724.244 2297.55,724.244 C2297.83,724.338 2298.11,724.338 2298.41,724.338 C2299.83,724.525 2301.34,725.01 2302.95,725.869 C2304.58,726.713 2306.09,727.853 2307.51,728.994 C2308.95,730.135 2310.28,731.275 2311.33,732.416 C2312.36,733.556 2313.22,734.416 2313.7,735.275 C2315.22,737.744 2316.26,740.494 2316.83,743.525 C2317.11,745.244 2317.31,746.947 2317.31,748.666 C2317.31,749.9 2317.2,751.135 2317.11,752.369 C2316.64,755.306 2315.78,758.166 2314.55,760.916 C2313.31,763.666 2311.7,766.15 2309.8,768.322 C2307.81,770.51 2305.53,772.228 2302.86,773.65 C2300.2,775.072 2297.36,775.931 2294.31,776.213"/>
<path class="Harmony" d="M208.533,1046.95 C204.83,1047.42 201.314,1048.28 197.892,1049.51 C194.47,1050.75 191.33,1052.45 188.298,1054.45 C185.252,1056.45 182.502,1058.73 180.127,1061.29 C177.752,1063.86 175.752,1066.79 174.048,1070.12 C172.33,1073.45 171.189,1076.96 170.533,1080.67 C170.048,1082.95 169.861,1085.32 169.861,1087.7 L169.861,1088.37 C169.861,1090.64 169.955,1092.82 170.236,1095.01 C170.533,1097.39 171.095,1099.76 171.861,1101.95 C172.72,1104.23 173.658,1106.42 174.705,1108.4 C175.752,1110.4 177.08,1112.21 178.611,1113.82 C180.127,1115.43 182.017,1116.76 183.923,1117.9 C185.83,1119.04 188.002,1119.9 190.377,1120.39 C192.002,1120.67 193.611,1120.86 195.236,1120.86 C196.08,1120.86 197.033,1120.86 198.08,1120.76 C201.017,1120.48 203.783,1119.81 206.345,1118.86 C208.908,1117.9 211.283,1116.76 213.283,1115.43 C215.267,1114.11 217.267,1112.4 219.08,1110.5 C220.877,1108.61 222.595,1106.51 224.017,1104.42 C225.439,1102.32 226.767,1099.95 228.189,1097.29 C230.377,1092.92 231.423,1089.21 231.423,1086.28 C231.423,1083.32 230.377,1081.04 228.189,1079.43 C226.955,1078.39 224.877,1077.73 222.111,1077.25 C220.127,1076.96 218.127,1076.78 216.127,1076.78 L215.658,1076.78 L213.564,1076.78 C210.627,1076.87 207.861,1077.34 205.205,1078.2 C202.548,1079.06 200.736,1080.11 199.783,1081.34 C199.502,1081.81 199.22,1082.18 198.939,1082.57 C198.267,1083.62 197.892,1084.56 197.892,1085.42 C197.892,1086.65 198.752,1087.51 200.361,1087.98 C201.689,1088.37 204.252,1088.56 207.955,1088.56 L208.814,1088.56 C210.048,1088.65 211.002,1088.65 211.658,1088.65 C215.564,1088.65 217.939,1089.12 218.689,1090.17 C218.986,1090.54 219.267,1091.12 219.267,1091.68 C219.267,1092.26 219.173,1092.82 219.08,1093.4 C218.986,1093.96 218.689,1094.64 218.408,1095.39 C218.127,1096.15 217.845,1096.73 217.548,1097.2 C217.267,1097.67 216.986,1098.34 216.611,1099.11 C216.22,1099.86 215.939,1100.25 215.845,1100.43 C215.377,1101.28 215.08,1101.95 214.798,1102.42 C214.517,1102.9 214.127,1103.37 213.658,1104.04 C213.189,1104.7 212.611,1105.28 212.142,1105.65 C210.142,1107.17 207.955,1108.21 205.392,1108.7 L202.158,1109.07 L201.783,1109.07 C200.548,1108.98 199.22,1108.89 197.986,1108.61 C195.611,1108.12 193.236,1107.26 191.048,1105.93 C188.861,1104.61 186.97,1103 185.533,1101.09 C184.111,1099.11 182.783,1096.73 181.83,1094.06 C180.877,1091.4 180.314,1088.65 180.127,1085.7 C180.033,1084.65 180.033,1083.71 180.033,1082.67 C180.033,1080.76 180.127,1078.87 180.408,1077.06 C180.877,1074.31 181.736,1071.64 183.064,1069.17 C184.392,1066.7 186.111,1064.71 188.205,1063.18 C190.767,1061.2 193.892,1059.76 197.502,1058.82 C199.502,1058.25 201.502,1057.96 203.392,1057.96 C204.736,1057.96 206.064,1058.15 207.298,1058.43 C208.345,1058.73 209.377,1059.11 210.627,1059.67 C211.861,1060.25 212.892,1060.81 213.845,1061.39 C214.798,1061.95 215.845,1062.53 216.892,1063.09 C217.939,1063.67 218.986,1064.14 219.923,1064.32 C220.877,1064.51 221.83,1064.62 222.783,1064.51 C223.736,1064.42 224.673,1063.95 225.627,1063.09 C226.58,1062.25 227.439,1061.11 228.283,1059.67 C228.767,1058.82 229.048,1057.96 229.048,1057.11 C229.048,1056.45 228.861,1055.87 228.58,1055.21 C227.814,1053.78 226.58,1052.54 224.877,1051.5 C223.158,1050.46 221.361,1049.51 219.267,1048.75 C217.173,1047.98 215.173,1047.51 213.189,1047.23 C211.752,1046.95 210.627,1046.86 209.673,1046.86 C209.189,1046.86 208.814,1046.86 208.533,1046.95"/>
<path class="Harmony" d="M750.533,1046.95 C746.83,1047.42 743.314,1048.28 739.892,1049.51 C736.47,1050.75 733.33,1052.45 730.298,1054.45 C727.251,1056.45 724.501,1058.73 722.126,1061.29 C719.751,1063.86 717.751,1066.79 716.048,1070.12 C714.33,1073.45 713.189,1076.96 712.533,1080.67 C712.048,1082.95 711.861,1085.32 711.861,1087.7 L711.861,1088.37 C711.861,1090.64 711.955,1092.82 712.236,1095.01 C712.533,1097.39 713.095,1099.76 713.861,1101.95 C714.72,1104.23 715.658,1106.42 716.705,1108.4 C717.751,1110.4 719.08,1112.21 720.611,1113.82 C722.126,1115.43 724.017,1116.76 725.923,1117.9 C727.83,1119.04 730.001,1119.9 732.376,1120.39 C734.001,1120.67 735.611,1120.86 737.236,1120.86 C738.08,1120.86 739.033,1120.86 740.08,1120.76 C743.017,1120.48 745.783,1119.81 748.345,1118.86 C750.908,1117.9 753.283,1116.76 755.283,1115.43 C757.267,1114.11 759.267,1112.4 761.08,1110.5 C762.876,1108.61 764.595,1106.51 766.017,1104.42 C767.439,1102.32 768.767,1099.95 770.189,1097.29 C772.376,1092.92 773.423,1089.21 773.423,1086.28 C773.423,1083.32 772.376,1081.04 770.189,1079.43 C768.955,1078.39 766.876,1077.73 764.111,1077.25 C762.126,1076.96 760.126,1076.78 758.126,1076.78 L757.658,1076.78 L755.564,1076.78 C752.626,1076.87 749.861,1077.34 747.205,1078.2 C744.548,1079.06 742.736,1080.11 741.783,1081.34 C741.501,1081.81 741.22,1082.18 740.939,1082.57 C740.267,1083.62 739.892,1084.56 739.892,1085.42 C739.892,1086.65 740.751,1087.51 742.361,1087.98 C743.689,1088.37 746.251,1088.56 749.955,1088.56 L750.814,1088.56 C752.048,1088.65 753.001,1088.65 753.658,1088.65 C757.564,1088.65 759.939,1089.12 760.689,1090.17 C760.986,1090.54 761.267,1091.12 761.267,1091.68 C761.267,1092.26 761.173,1092.82 761.08,1093.4 C760.986,1093.96 760.689,1094.64 760.408,1095.39 C760.126,1096.15 759.845,1096.73 759.548,1097.2 C759.267,1097.67 758.986,1098.34 758.611,1099.11 C758.22,1099.86 757.939,1100.25 757.845,1100.43 C757.376,1101.28 757.08,1101.95 756.798,1102.42 C756.517,1102.9 756.126,1103.37 755.658,1104.04 C755.189,1104.7 754.611,1105.28 754.142,1105.65 C752.142,1107.17 749.955,1108.21 747.392,1108.7 L744.158,1109.07 L743.783,1109.07 C742.548,1108.98 741.22,1108.89 739.986,1108.61 C737.611,1108.12 735.236,1107.26 733.048,1105.93 C730.861,1104.61 728.97,1103 727.533,1101.09 C726.111,1099.11 724.783,1096.73 723.83,1094.06 C722.876,1091.4 722.314,1088.65 722.126,1085.7 C722.033,1084.65 722.033,1083.71 722.033,1082.67 C722.033,1080.76 722.126,1078.87 722.408,1077.06 C722.876,1074.31 723.736,1071.64 725.064,1069.17 C726.392,1066.7 728.111,1064.71 730.205,1063.18 C732.767,1061.2 735.892,1059.76 739.501,1058.82 C741.501,1058.25 743.501,1057.96 745.392,1057.96 C746.736,1057.96 748.064,1058.15 749.298,1058.43 C750.345,1058.73 751.376,1059.11 752.626,1059.67 C753.861,1060.25 754.892,1060.81 755.845,1061.39 C756.798,1061.95 757.845,1062.53 758.892,1063.09 C759.939,1063.67 760.986,1064.14 761.923,1064.32 C762.876,1064.51 763.83,1064.62 764.783,1064.51 C765.736,1064.42 766.673,1063.95 767.626,1063.09 C768.58,1062.25 769.439,1061.11 770.283,1059.67 C770.767,1058.82 771.048,1057.96 771.048,1057.11 C771.048,1056.45 770.861,1055.87 770.58,1055.21 C769.814,1053.78 768.58,1052.54 766.876,1051.5 C765.158,1050.46 763.361,1049.51 761.267,1048.75 C759.173,1047.98 757.173,1047.51 755.189,1047.23 C753.751,1046.95 752.626,1046.86 751.673,1046.86 C751.189,1046.86 750.814,1046.86 750.533,1046.95"/>
<path class="Harmony" d="M1304.72,1046.75 C1301.48,1047.23 1298.25,1048.18 1295.12,1049.7 C1291.98,1051.21 1289.12,1053.12 1286.56,1055.4 C1284,1057.68 1281.62,1060.25 1279.44,1063.18 C1277.25,1066.14 1275.55,1069.17 1274.12,1072.31 C1272.7,1075.45 1271.75,1078.76 1271.17,1082.28 C1270.89,1084.18 1270.7,1086.09 1270.7,1087.89 C1270.7,1089.4 1270.8,1090.93 1270.98,1092.36 C1271.47,1095.29 1272.31,1098.25 1273.64,1101 C1274.98,1103.76 1276.5,1106.32 1278.39,1108.7 C1280.3,1111.07 1282.67,1113.06 1285.23,1114.87 C1287.8,1116.67 1290.36,1118.01 1293.12,1118.95 C1295.69,1119.81 1298.34,1120.28 1301.3,1120.28 L1301.58,1120.28 L1301.86,1120.28 C1305,1120.18 1308.03,1119.62 1310.98,1118.48 C1311.84,1118.2 1312.69,1117.9 1313.55,1117.53 C1314.4,1117.15 1315.36,1116.67 1316.59,1116.01 C1317.83,1115.34 1318.87,1114.78 1319.9,1114.11 C1320.95,1113.45 1321.9,1112.68 1322.86,1111.82 C1323.81,1110.98 1324.56,1110.03 1325.05,1109.17 C1325.51,1108.31 1325.8,1107.46 1325.8,1106.42 C1325.7,1105.37 1325.33,1104.32 1324.65,1103.28 C1324.37,1102.81 1323.9,1102.51 1323.42,1102.32 C1322.95,1102.14 1322.37,1102.04 1321.9,1102.14 C1321.44,1102.23 1320.95,1102.42 1320.39,1102.71 C1319.81,1103 1319.25,1103.28 1318.76,1103.46 C1318.3,1103.65 1317.83,1103.95 1317.25,1104.32 C1316.69,1104.7 1316.3,1105 1316.01,1105.09 C1312.69,1106.89 1309.47,1107.84 1306.14,1107.84 C1303.09,1107.84 1300.15,1107.07 1297.2,1105.56 C1294.45,1104.14 1291.89,1102.51 1289.61,1100.62 C1287.33,1098.71 1285.61,1096.62 1284.37,1094.25 C1283.34,1092.07 1282.48,1089.79 1282,1087.42 C1281.53,1085.23 1281.34,1083.14 1281.34,1080.95 L1281.34,1080.2 C1281.34,1077.82 1281.72,1075.45 1282.48,1073.07 C1283.23,1070.7 1284.19,1068.51 1285.42,1066.61 C1286.65,1064.71 1288.37,1063 1290.36,1061.57 C1292.36,1060.15 1294.64,1059.2 1297.2,1058.73 C1297.78,1058.53 1298.44,1058.43 1299.11,1058.43 C1299.58,1058.53 1300.06,1058.53 1300.53,1058.62 C1301.76,1058.82 1303.09,1059.11 1304.42,1059.48 C1305.75,1059.76 1307.09,1060.25 1308.42,1060.9 L1312.4,1062.62 C1313.73,1063.18 1315.06,1063.57 1316.3,1064.04 C1317.53,1064.51 1318.76,1064.71 1320,1064.81 C1320.39,1064.9 1320.76,1064.9 1321.05,1064.9 C1321.81,1064.81 1322.58,1064.71 1323.23,1064.62 C1324.19,1064.42 1325.05,1063.86 1325.89,1063 C1326.75,1062.14 1327.51,1061.11 1327.98,1059.67 C1328.17,1059.01 1328.26,1058.43 1328.26,1057.87 C1328.37,1057.39 1328.26,1056.92 1328.08,1056.45 C1327.89,1055.96 1327.61,1055.59 1327.33,1055.21 C1327.03,1054.73 1326.65,1054.45 1326.19,1054.07 C1325.7,1053.68 1325.33,1053.31 1324.95,1053.03 C1324.56,1052.75 1324,1052.36 1323.51,1052.07 C1317.62,1048.37 1312.22,1046.56 1307.19,1046.56 C1306.33,1046.56 1305.56,1046.65 1304.72,1046.75"/>
<path class="Harmony" d="M1845.87,1046.56 C1845.4,1046.65 1844.64,1046.75 1843.4,1046.86 C1842.17,1046.95 1841.21,1047.14 1840.56,1047.23 C1839.89,1047.32 1838.93,1047.42 1837.79,1047.61 C1836.65,1047.79 1835.81,1048.09 1835.04,1048.37 C1834.28,1048.65 1833.43,1049.03 1832.67,1049.51 C1831.9,1049.98 1831.25,1050.46 1830.76,1051.12 C1830.1,1051.79 1829.62,1052.54 1829.25,1053.31 C1828.87,1054.07 1828.59,1055.01 1828.48,1055.96 C1828.39,1056.64 1828.39,1057.29 1828.39,1057.96 L1828.39,1058.53 C1828.48,1059.2 1828.48,1060.15 1828.59,1061.29 C1828.68,1062.43 1828.68,1063.37 1828.68,1064.04 C1828.68,1074.87 1828.96,1085.51 1829.43,1096.06 C1829.53,1096.62 1829.53,1097.2 1829.53,1097.87 C1829.43,1099.86 1829.34,1102.51 1829.15,1105.65 C1828.87,1109.36 1828.68,1112.12 1828.68,1113.92 L1828.68,1114.5 L1828.68,1116.11 C1828.68,1116.57 1828.87,1117.06 1828.96,1117.62 C1829.06,1118.2 1829.25,1118.67 1829.53,1118.95 C1829.82,1119.25 1830.1,1119.53 1830.57,1119.81 C1830.96,1120 1831.43,1120.09 1832,1120.09 L1832.29,1120.09 C1835.6,1120 1838.93,1119.34 1842.26,1118.11 C1845.59,1116.87 1848.73,1115.34 1851.67,1113.36 C1854.62,1111.36 1857.37,1108.98 1860.03,1106.23 C1862.68,1103.46 1864.96,1100.62 1866.87,1097.57 C1868.76,1094.54 1870.39,1091.4 1871.62,1088.07 C1872.85,1084.75 1873.51,1081.43 1873.71,1078.29 C1873.81,1077.62 1873.81,1076.87 1873.81,1076.2 C1873.81,1074.4 1873.62,1072.5 1873.23,1070.61 C1872.76,1067.93 1872,1065.28 1870.95,1062.81 C1869.9,1060.34 1868.57,1058.06 1866.87,1055.87 C1865.15,1053.68 1863.26,1051.89 1861.17,1050.37 C1859.07,1048.84 1856.79,1047.7 1854.14,1047.04 C1852.43,1046.56 1850.62,1046.37 1848.82,1046.37 C1847.87,1046.37 1846.92,1046.46 1845.87,1046.56 M1839.98,1107.93 C1839.98,1105.18 1840.07,1101.18 1840.17,1096.06 C1840.26,1091.98 1840.35,1088.07 1840.35,1084.56 C1840.35,1083.71 1840.26,1082.86 1840.26,1082 C1840.26,1077.82 1840.17,1073.73 1839.98,1069.93 C1839.98,1069.46 1839.89,1068.61 1839.7,1067.18 C1839.51,1065.75 1839.23,1064.42 1839.12,1063.18 C1839.03,1062.62 1839.03,1062.04 1839.03,1061.48 C1839.03,1060.81 1839.03,1060.25 1839.12,1059.57 C1839.32,1058.34 1839.7,1057.39 1840.35,1056.92 C1841.21,1056.25 1842.17,1055.96 1843.21,1055.96 C1843.5,1056.06 1843.78,1056.06 1844.07,1056.06 C1845.5,1056.25 1847.01,1056.73 1848.62,1057.59 C1850.25,1058.43 1851.76,1059.57 1853.18,1060.71 C1854.62,1061.86 1855.95,1063 1857,1064.14 C1858.03,1065.28 1858.89,1066.14 1859.37,1067 C1860.89,1069.46 1861.93,1072.21 1862.5,1075.25 C1862.78,1076.96 1862.98,1078.67 1862.98,1080.39 C1862.98,1081.62 1862.87,1082.86 1862.78,1084.09 C1862.31,1087.03 1861.45,1089.89 1860.21,1092.64 C1858.98,1095.39 1857.37,1097.87 1855.46,1100.04 C1853.48,1102.23 1851.2,1103.95 1848.53,1105.37 C1845.87,1106.79 1843.03,1107.65 1839.98,1107.93"/>
<path class="Harmony" d="M2403.99,1046.56 C2403.52,1046.65 2402.76,1046.75 2401.52,1046.86 C2400.29,1046.95 2399.34,1047.14 2398.68,1047.23 C2398.01,1047.32 2397.05,1047.42 2395.91,1047.61 C2394.77,1047.79 2393.93,1048.09 2393.16,1048.37 C2392.4,1048.65 2391.55,1049.03 2390.79,1049.51 C2390.02,1049.98 2389.37,1050.46 2388.88,1051.12 C2388.23,1051.79 2387.74,1052.54 2387.37,1053.31 C2386.99,1054.07 2386.71,1055.01 2386.6,1055.96 C2386.51,1056.64 2386.51,1057.29 2386.51,1057.96 L2386.51,1058.53 C2386.6,1059.2 2386.6,1060.15 2386.71,1061.29 C2386.8,1062.43 2386.8,1063.37 2386.8,1064.04 C2386.8,1074.87 2387.09,1085.51 2387.55,1096.06 C2387.65,1096.62 2387.65,1097.2 2387.65,1097.87 C2387.55,1099.86 2387.46,1102.51 2387.27,1105.65 C2386.99,1109.36 2386.8,1112.12 2386.8,1113.92 L2386.8,1114.5 L2386.8,1116.11 C2386.8,1116.57 2386.99,1117.06 2387.09,1117.62 C2387.18,1118.2 2387.37,1118.67 2387.65,1118.95 C2387.95,1119.25 2388.23,1119.53 2388.7,1119.81 C2389.09,1120 2389.55,1120.09 2390.12,1120.09 L2390.41,1120.09 C2393.73,1120 2397.05,1119.34 2400.38,1118.11 C2403.71,1116.87 2406.85,1115.34 2409.79,1113.36 C2412.74,1111.36 2415.49,1108.98 2418.15,1106.23 C2420.8,1103.46 2423.09,1100.62 2424.99,1097.57 C2426.88,1094.54 2428.51,1091.4 2429.74,1088.07 C2430.98,1084.75 2431.63,1081.43 2431.84,1078.29 C2431.93,1077.62 2431.93,1076.87 2431.93,1076.2 C2431.93,1074.4 2431.74,1072.5 2431.35,1070.61 C2430.88,1067.93 2430.12,1065.28 2429.07,1062.81 C2428.02,1060.34 2426.7,1058.06 2424.99,1055.87 C2423.27,1053.68 2421.38,1051.89 2419.29,1050.37 C2417.2,1048.84 2414.91,1047.7 2412.26,1047.04 C2410.55,1046.56 2408.74,1046.37 2406.95,1046.37 C2405.99,1046.37 2405.04,1046.46 2403.99,1046.56 M2398.1,1107.93 C2398.1,1105.18 2398.2,1101.18 2398.29,1096.06 C2398.38,1091.98 2398.48,1088.07 2398.48,1084.56 C2398.48,1083.71 2398.38,1082.86 2398.38,1082 C2398.38,1077.82 2398.29,1073.73 2398.1,1069.93 C2398.1,1069.46 2398.01,1068.61 2397.82,1067.18 C2397.63,1065.75 2397.35,1064.42 2397.24,1063.18 C2397.15,1062.62 2397.15,1062.04 2397.15,1061.48 C2397.15,1060.81 2397.15,1060.25 2397.24,1059.57 C2397.45,1058.34 2397.82,1057.39 2398.48,1056.92 C2399.34,1056.25 2400.29,1055.96 2401.34,1055.96 C2401.62,1056.06 2401.9,1056.06 2402.2,1056.06 C2403.62,1056.25 2405.13,1056.73 2406.74,1057.59 C2408.37,1058.43 2409.88,1059.57 2411.3,1060.71 C2412.74,1061.86 2414.07,1063 2415.12,1064.14 C2416.15,1065.28 2417.01,1066.14 2417.49,1067 C2419.01,1069.46 2420.05,1072.21 2420.62,1075.25 C2420.9,1076.96 2421.1,1078.67 2421.1,1080.39 C2421.1,1081.62 2420.99,1082.86 2420.9,1084.09 C2420.43,1087.03 2419.57,1089.89 2418.34,1092.64 C2417.1,1095.39 2415.49,1097.87 2413.59,1100.04 C2411.6,1102.23 2409.32,1103.95 2406.65,1105.37 C2403.99,1106.79 2401.15,1107.65 2398.1,1107.93"/>
<path class="Harmony" d="M2675.44,1046.95 C2671.73,1047.42 2668.22,1048.28 2664.8,1049.51 C2661.37,1050.75 2658.23,1052.45 2655.2,1054.45 C2652.15,1056.45 2649.4,1058.73 2647.03,1061.29 C2644.65,1063.86 2642.65,1066.79 2640.95,1070.12 C2639.23,1073.45 2638.09,1076.96 2637.44,1080.67 C2636.95,1082.95 2636.76,1085.32 2636.76,1087.7 L2636.76,1088.37 C2636.76,1090.64 2636.86,1092.82 2637.14,1095.01 C2637.44,1097.39 2638,1099.76 2638.76,1101.95 C2639.62,1104.23 2640.56,1106.42 2641.61,1108.4 C2642.65,1110.4 2643.98,1112.21 2645.51,1113.82 C2647.03,1115.43 2648.92,1116.76 2650.83,1117.9 C2652.73,1119.04 2654.9,1119.9 2657.28,1120.39 C2658.9,1120.67 2660.51,1120.86 2662.14,1120.86 C2662.98,1120.86 2663.94,1120.86 2664.98,1120.76 C2667.92,1120.48 2670.69,1119.81 2673.25,1118.86 C2675.81,1117.9 2678.19,1116.76 2680.19,1115.43 C2682.17,1114.11 2684.17,1112.4 2685.98,1110.5 C2687.78,1108.61 2689.5,1106.51 2690.92,1104.42 C2692.34,1102.32 2693.67,1099.95 2695.09,1097.29 C2697.28,1092.92 2698.33,1089.21 2698.33,1086.28 C2698.33,1083.32 2697.28,1081.04 2695.09,1079.43 C2693.86,1078.39 2691.78,1077.73 2689.01,1077.25 C2687.03,1076.96 2685.03,1076.78 2683.03,1076.78 L2682.56,1076.78 L2680.47,1076.78 C2677.53,1076.87 2674.76,1077.34 2672.11,1078.2 C2669.45,1079.06 2667.64,1080.11 2666.69,1081.34 C2666.4,1081.81 2666.12,1082.18 2665.84,1082.57 C2665.17,1083.62 2664.8,1084.56 2664.8,1085.42 C2664.8,1086.65 2665.65,1087.51 2667.26,1087.98 C2668.59,1088.37 2671.15,1088.56 2674.86,1088.56 L2675.72,1088.56 C2676.95,1088.65 2677.9,1088.65 2678.56,1088.65 C2682.47,1088.65 2684.84,1089.12 2685.59,1090.17 C2685.89,1090.54 2686.17,1091.12 2686.17,1091.68 C2686.17,1092.26 2686.08,1092.82 2685.98,1093.4 C2685.89,1093.96 2685.59,1094.64 2685.31,1095.39 C2685.03,1096.15 2684.75,1096.73 2684.45,1097.2 C2684.17,1097.67 2683.89,1098.34 2683.51,1099.11 C2683.12,1099.86 2682.84,1100.25 2682.75,1100.43 C2682.28,1101.28 2681.98,1101.95 2681.7,1102.42 C2681.42,1102.9 2681.03,1103.37 2680.56,1104.04 C2680.09,1104.7 2679.51,1105.28 2679.05,1105.65 C2677.05,1107.17 2674.86,1108.21 2672.3,1108.7 L2669.06,1109.07 L2668.69,1109.07 C2667.45,1108.98 2666.12,1108.89 2664.89,1108.61 C2662.51,1108.12 2660.14,1107.26 2657.95,1105.93 C2655.76,1104.61 2653.87,1103 2652.44,1101.09 C2651.01,1099.11 2649.69,1096.73 2648.73,1094.06 C2647.78,1091.4 2647.22,1088.65 2647.03,1085.7 C2646.94,1084.65 2646.94,1083.71 2646.94,1082.67 C2646.94,1080.76 2647.03,1078.87 2647.31,1077.06 C2647.78,1074.31 2648.64,1071.64 2649.97,1069.17 C2651.3,1066.7 2653.01,1064.71 2655.11,1063.18 C2657.67,1061.2 2660.8,1059.76 2664.4,1058.82 C2666.4,1058.25 2668.4,1057.96 2670.3,1057.96 C2671.64,1057.96 2672.97,1058.15 2674.2,1058.43 C2675.25,1058.73 2676.28,1059.11 2677.53,1059.67 C2678.76,1060.25 2679.8,1060.81 2680.75,1061.39 C2681.7,1061.95 2682.75,1062.53 2683.8,1063.09 C2684.84,1063.67 2685.89,1064.14 2686.83,1064.32 C2687.78,1064.51 2688.73,1064.62 2689.69,1064.51 C2690.64,1064.42 2691.58,1063.95 2692.53,1063.09 C2693.48,1062.25 2694.34,1061.11 2695.19,1059.67 C2695.67,1058.82 2695.95,1057.96 2695.95,1057.11 C2695.95,1056.45 2695.76,1055.87 2695.48,1055.21 C2694.72,1053.78 2693.48,1052.54 2691.78,1051.5 C2690.06,1050.46 2688.26,1049.51 2686.17,1048.75 C2684.08,1047.98 2682.08,1047.51 2680.09,1047.23 C2678.65,1046.95 2677.53,1046.86 2676.58,1046.86 C2676.09,1046.86 2675.72,1046.86 2675.44,1046.95"/>
<path class="VoltaSegment" d="M1806.62,981.208 L1804.7,981.208 C1801.23,983.802 1797.33,984.896 1790.78,985.005 L1790.78,988.083 L1793.09,988.083 C1797.98,988.083 1798.04,988.193 1797.98,992.708 L1797.98,1012.22 C1797.98,1015.63 1797.98,1015.8 1797.61,1016.35 C1797.11,1016.96 1796,1017.18 1793.03,1017.18 L1791.28,1017.18 L1791.28,1020.15 L1813.22,1020.15 L1813.22,1017.18 L1811.45,1017.18 C1808.54,1017.18 1807.5,1016.96 1807,1016.35 C1806.62,1015.8 1806.62,1015.58 1806.62,1012.22 L1806.62,981.208 M1825.86,1010.63 C1823,1010.63 1820.69,1012.94 1820.69,1015.8 C1820.69,1018.6 1823,1020.97 1825.81,1020.97 C1828.72,1020.97 1831.03,1018.66 1831.03,1015.8 C1831.03,1012.94 1828.72,1010.63 1825.86,1010.63"/>
<polyline class="VoltaSegment" fill="none" stroke="#000000" stroke-width="2.73" stroke-linecap="square" stroke-linejoin="bevel" points="1775.33,1020.15 1775.33,965.579"/>
<polyline class="VoltaSegment" fill="none" stroke="#000000" stroke-width="2.73" stroke-linecap="square" stroke-linejoin="bevel" points="1775.33,965.579 2331.22,965.579"/>
<polyline class="VoltaSegment" fill="none" stroke="#000000" stroke-width="2.73" stroke-linecap="square" stroke-linejoin="bevel" points="2331.22,965.579 2331.22,1020.15"/>
<path class="VoltaSegment" d="M2373.57,1005.52 L2372.96,1008.27 C2372.46,1010.47 2372.14,1011.18 2371.7,1011.46 C2371.15,1011.85 2371.04,1011.85 2367.57,1011.9 L2356.96,1011.9 C2358.89,1010.24 2360.32,1009.21 2362.46,1007.77 C2370.21,1002.77 2371.81,1001.55 2373.4,999.521 C2375.28,997.052 2376.37,994.13 2376.37,991.552 C2376.37,985.661 2370.6,981.208 2362.85,981.208 C2355.37,981.208 2349.59,986.052 2349.59,992.318 C2349.59,996.161 2351.74,998.646 2355.04,998.646 C2357.9,998.646 2359.71,996.833 2359.71,993.974 C2359.71,991.599 2358.67,990.224 2356.14,989.021 C2355.53,988.739 2355.26,988.411 2355.26,987.974 C2355.26,986.208 2358.23,984.349 2360.98,984.349 C2364.82,984.349 2367.03,986.708 2367.03,990.786 C2367.03,995.349 2365.26,998.583 2359.43,1004.8 C2353.28,1011.35 2351.14,1013.82 2348.39,1017.79 L2348.39,1020.36 C2349.81,1020.21 2350.42,1020.15 2351.24,1020.15 L2371.92,1020.15 C2372.96,1020.15 2373.62,1020.21 2375.28,1020.36 L2376.54,1005.52 L2373.57,1005.52 M2386.98,1010.63 C2384.12,1010.63 2381.81,1012.94 2381.81,1015.8 C2381.81,1018.6 2384.12,1020.97 2386.93,1020.97 C2389.84,1020.97 2392.15,1018.66 2392.15,1015.8 C2392.15,1012.94 2389.84,1010.63 2386.98,1010.63"/>
<polyline class="VoltaSegment" fill="none" stroke="#000000" stroke-width="2.73" stroke-linecap="square" stroke-linejoin="bevel" points="2333.46,1020.15 2333.46,965.579"/>
<polyline class="VoltaSegment" fill="none" stroke="#000000" stroke-width="2.73" stroke-linecap="square" stroke-linejoin="bevel" points="2333.46,965.579 2917.02,965.579"/>
<polyline class="VoltaSegment" fill="none" stroke="#000000" stroke-width="2.73" stroke-linecap="square" stroke-linejoin="bevel" points="2917.02,965.579 2917.02,1020.15"/>
</svg>
