<?xml version="1.0" encoding="UTF-8" standalone="no"?>
<svg width="2976.38px" height="1417.32px" viewBox="0 0 2976.38 1417.32"
 xmlns="http://www.w3.org/2000/svg" xmlns:xlink="http://www.w3.org/1999/xlink" version="1.2" baseProfile="tiny">
<title>Nail_That_Catfish_To_A_Tree</title>
<desc>Generated by MuseScore 3.6.2</desc>
<polyline class="StaffLines" fill="none" stroke="#000000" stroke-width="2.73" stroke-linejoin="bevel" points="138.189,187.795 2933.86,187.795"/>
<polyline class="StaffLines" fill="none" stroke="#000000" stroke-width="2.73" stroke-linejoin="bevel" points="138.189,212.598 2933.86,212.598"/>
<polyline class="StaffLines" fill="none" stroke="#000000" stroke-width="2.73" stroke-linejoin="bevel" points="138.189,237.402 2933.86,237.402"/>
<polyline class="StaffLines" fill="none" stroke="#000000" stroke-width="2.73" stroke-linejoin="bevel" points="138.189,262.205 2933.86,262.205"/>
<polyline class="StaffLines" fill="none" stroke="#000000" stroke-width="2.73" stroke-linejoin="bevel" points="138.189,287.008 2933.86,287.008"/>
<polyline class="StaffLines" fill="none" stroke="#000000" stroke-width="2.73" stroke-linejoin="bevel" points="14.1732,497.835 2933.86,497.835"/>
<polyline class="StaffLines" fill="none" stroke="#000000" stroke-width="2.73" stroke-linejoin="bevel" points="14.1732,522.638 2933.86,522.638"/>
<polyline class="StaffLines" fill="none" stroke="#000000" stroke-width="2.73" stroke-linejoin="bevel" points="14.1732,547.441 2933.86,547.441"/>
<polyline class="StaffLines" fill="none" stroke="#000000" stroke-width="2.73" stroke-linejoin="bevel" points="14.1732,572.244 2933.86,572.244"/>
<polyline class="StaffLines" fill="none" stroke="#000000" stroke-width="2.73" stroke-linejoin="bevel" points="14.1732,597.047 2933.86,597.047"/>
<polyline class="StaffLines" fill="none" stroke="#000000" stroke-width="2.73" stroke-linejoin="bevel" points="14.1732,815.417 2933.86,815.417"/>
<polyline class="StaffLines" fill="none" stroke="#000000" stroke-width="2.73" stroke-linejoin="bevel" points="14.1732,840.22 2933.86,840.22"/>
<polyline class="StaffLines" fill="none" stroke="#000000" stroke-width="2.73" stroke-linejoin="bevel" points="14.1732,865.023 2933.86,865.023"/>
<polyline class="StaffLines" fill="none" stroke="#000000" stroke-width="2.73" stroke-linejoin="bevel" points="14.1732,889.826 2933.86,889.826"/>
<polyline class="StaffLines" fill="none" stroke="#000000" stroke-width="2.73" stroke-linejoin="bevel" points="14.1732,914.629 2933.86,914.629"/>
<polyline class="StaffLines" fill="none" stroke="#000000" stroke-width="2.73" stroke-linejoin="bevel" points="14.1732,1125.46 2933.86,1125.46"/>
<polyline class="StaffLines" fill="none" stroke="#000000" stroke-width="2.73" stroke-linejoin="bevel" points="14.1732,1150.26 2933.86,1150.26"/>
<polyline class="StaffLines" fill="none" stroke="#000000" stroke-width="2.73" stroke-linejoin="bevel" points="14.1732,1175.06 2933.86,1175.06"/>
<polyline class="StaffLines" fill="none" stroke="#000000" stroke-width="2.73" stroke-linejoin="bevel" points="14.1732,1199.87 2933.86,1199.87"/>
<polyline class="StaffLines" fill="none" stroke="#000000" stroke-width="2.73" stroke-linejoin="bevel" points="14.1732,1224.67 2933.86,1224.67"/>
<polyline class="BarLine" fill="none" stroke="#000000" stroke-width="4.46" stroke-linejoin="bevel" points="953.226,186.431 953.226,288.372"/>
<polyline class="BarLine" fill="none" stroke="#000000" stroke-width="4.46" stroke-linejoin="bevel" points="1612.69,186.431 1612.69,288.372"/>
<polyline class="BarLine" fill="none" stroke="#000000" stroke-width="4.46" stroke-linejoin="bevel" points="2272.16,186.431 2272.16,288.372"/>
<polyline class="BarLine" fill="none" stroke="#000000" stroke-width="4.46" stroke-linejoin="bevel" points="2931.63,186.431 2931.63,288.372"/>
<polyline class="BarLine" fill="none" stroke="#000000" stroke-width="4.46" stroke-linejoin="bevel" points="808.481,496.47 808.481,598.411"/>
<polyline class="BarLine" fill="none" stroke="#000000" stroke-width="4.46" stroke-linejoin="bevel" points="1502.1,496.47 1502.1,598.411"/>
<polyline class="BarLine" fill="none" stroke="#000000" stroke-width="4.46" stroke-linejoin="bevel" points="2195.73,496.47 2195.73,598.411"/>
<path class="BarLine" transform="matrix(0.992126,0,0,0.992126,2887.12,535.039)" d="M10.4063,0 C10.4063,-2.90625 8.09375,-5.29688 5.20313,-5.29688 C2.29688,-5.29688 0,-2.90625 0,0 C0,2.90625 2.29688,5.29688 5.20313,5.29688 C8.09375,5.29688 10.4063,2.90625 10.4063,0"/>
<path class="BarLine" transform="matrix(0.992126,0,0,0.992126,2887.12,559.843)" d="M10.4063,0 C10.4063,-2.90625 8.09375,-5.29688 5.20313,-5.29688 C2.29688,-5.29688 0,-2.90625 0,0 C0,2.90625 2.29688,5.29688 5.20313,5.29688 C8.09375,5.29688 10.4063,2.90625 10.4063,0"/>
<polyline class="BarLine" fill="none" stroke="#000000" stroke-width="4.46" stroke-linejoin="bevel" points="2909.64,496.47 2909.64,598.411"/>
<polyline class="BarLine" fill="none" stroke="#000000" stroke-width="13.64" stroke-linejoin="bevel" points="2927,496.47 2927,598.411"/>
<polyline class="BarLine" fill="none" stroke="#000000" stroke-width="4.46" stroke-linejoin="bevel" points="819.051,814.053 819.051,915.994"/>
<polyline class="BarLine" fill="none" stroke="#000000" stroke-width="4.46" stroke-linejoin="bevel" points="1523.24,814.053 1523.24,915.994"/>
<polyline class="BarLine" fill="none" stroke="#000000" stroke-width="4.46" stroke-linejoin="bevel" points="2227.44,814.053 2227.44,915.994"/>
<polyline class="BarLine" fill="none" stroke="#000000" stroke-width="4.46" stroke-linejoin="bevel" points="2931.63,814.053 2931.63,915.994"/>
<polyline class="BarLine" fill="none" stroke="#000000" stroke-width="4.46" stroke-linejoin="bevel" points="812.511,1124.09 812.511,1226.03"/>
<polyline class="BarLine" fill="none" stroke="#000000" stroke-width="4.46" stroke-linejoin="bevel" points="1494.04,1124.09 1494.04,1226.03"/>
<polyline class="BarLine" fill="none" stroke="#000000" stroke-width="4.46" stroke-linejoin="bevel" points="2191.69,1124.09 2191.69,1226.03"/>
<path class="BarLine" transform="matrix(0.992126,0,0,0.992126,2887.12,1162.66)" d="M10.4063,0 C10.4063,-2.90625 8.09375,-5.29688 5.20313,-5.29688 C2.29688,-5.29688 0,-2.90625 0,0 C0,2.90625 2.29688,5.29688 5.20313,5.29688 C8.09375,5.29688 10.4063,2.90625 10.4063,0"/>
<path class="BarLine" transform="matrix(0.992126,0,0,0.992126,2887.12,1187.46)" d="M10.4063,0 C10.4063,-2.90625 8.09375,-5.29688 5.20313,-5.29688 C2.29688,-5.29688 0,-2.90625 0,0 C0,2.90625 2.29688,5.29688 5.20313,5.29688 C8.09375,5.29688 10.4063,2.90625 10.4063,0"/>
<polyline class="BarLine" fill="none" stroke="#000000" stroke-width="4.46" stroke-linejoin="bevel" points="2909.64,1124.09 2909.64,1226.03"/>
<polyline class="BarLine" fill="none" stroke="#000000" stroke-width="13.64" stroke-linejoin="bevel" points="2927,1124.09 2927,1226.03"/>
<path class="Note" transform="matrix(0.992126,0,0,0.992126,338.405,237.402)" d="M43,-25 L0,25 L10,25 L53,-25 L43,-25 "/>
<path class="Note" transform="matrix(0.992126,0,0,0.992126,489.01,237.402)" d="M43,-25 L0,25 L10,25 L53,-25 L43,-25 "/>
<path class="Note" transform="matrix(0.992126,0,0,0.992126,639.615,237.402)" d="M43,-25 L0,25 L10,25 L53,-25 L43,-25 "/>
<path class="Note" transform="matrix(0.992126,0,0,0.992126,790.22,237.402)" d="M43,-25 L0,25 L10,25 L53,-25 L43,-25 "/>
<path class="Note" transform="matrix(0.992126,0,0,0.992126,997.872,237.402)" d="M43,-25 L0,25 L10,25 L53,-25 L43,-25 "/>
<path class="Note" transform="matrix(0.992126,0,0,0.992126,1148.48,237.402)" d="M43,-25 L0,25 L10,25 L53,-25 L43,-25 "/>
<path class="Note" transform="matrix(0.992126,0,0,0.992126,1299.08,237.402)" d="M43,-25 L0,25 L10,25 L53,-25 L43,-25 "/>
<path class="Note" transform="matrix(0.992126,0,0,0.992126,1449.69,237.402)" d="M43,-25 L0,25 L10,25 L53,-25 L43,-25 "/>
<path class="Note" transform="matrix(0.992126,0,0,0.992126,1657.34,237.402)" d="M43,-25 L0,25 L10,25 L53,-25 L43,-25 "/>
<path class="Note" transform="matrix(0.992126,0,0,0.992126,1807.94,237.402)" d="M43,-25 L0,25 L10,25 L53,-25 L43,-25 "/>
<path class="Note" transform="matrix(0.992126,0,0,0.992126,1958.55,237.402)" d="M43,-25 L0,25 L10,25 L53,-25 L43,-25 "/>
<path class="Note" transform="matrix(0.992126,0,0,0.992126,2109.15,237.402)" d="M43,-25 L0,25 L10,25 L53,-25 L43,-25 "/>
<path class="Note" transform="matrix(0.992126,0,0,0.992126,2316.81,237.402)" d="M43,-25 L0,25 L10,25 L53,-25 L43,-25 "/>
<path class="Note" transform="matrix(0.992126,0,0,0.992126,2467.41,237.402)" d="M43,-25 L0,25 L10,25 L53,-25 L43,-25 "/>
<path class="Note" transform="matrix(0.992126,0,0,0.992126,2618.02,237.402)" d="M43,-25 L0,25 L10,25 L53,-25 L43,-25 "/>
<path class="Note" transform="matrix(0.992126,0,0,0.992126,2768.62,237.402)" d="M43,-25 L0,25 L10,25 L53,-25 L43,-25 "/>
<path class="Note" transform="matrix(0.992126,0,0,0.992126,159.504,547.441)" d="M43,-25 L0,25 L10,25 L53,-25 L43,-25 "/>
<path class="Note" transform="matrix(0.992126,0,0,0.992126,318.648,547.441)" d="M43,-25 L0,25 L10,25 L53,-25 L43,-25 "/>
<path class="Note" transform="matrix(0.992126,0,0,0.992126,477.792,547.441)" d="M43,-25 L0,25 L10,25 L53,-25 L43,-25 "/>
<path class="Note" transform="matrix(0.992126,0,0,0.992126,636.935,547.441)" d="M43,-25 L0,25 L10,25 L53,-25 L43,-25 "/>
<path class="Note" transform="matrix(0.992126,0,0,0.992126,853.126,547.441)" d="M43,-25 L0,25 L10,25 L53,-25 L43,-25 "/>
<path class="Note" transform="matrix(0.992126,0,0,0.992126,1012.27,547.441)" d="M43,-25 L0,25 L10,25 L53,-25 L43,-25 "/>
<path class="Note" transform="matrix(0.992126,0,0,0.992126,1171.41,547.441)" d="M43,-25 L0,25 L10,25 L53,-25 L43,-25 "/>
<path class="Note" transform="matrix(0.992126,0,0,0.992126,1330.56,547.441)" d="M43,-25 L0,25 L10,25 L53,-25 L43,-25 "/>
<path class="Note" transform="matrix(0.992126,0,0,0.992126,1546.75,547.441)" d="M43,-25 L0,25 L10,25 L53,-25 L43,-25 "/>
<path class="Note" transform="matrix(0.992126,0,0,0.992126,1705.89,547.441)" d="M43,-25 L0,25 L10,25 L53,-25 L43,-25 "/>
<path class="Note" transform="matrix(0.992126,0,0,0.992126,1865.04,547.441)" d="M43,-25 L0,25 L10,25 L53,-25 L43,-25 "/>
<path class="Note" transform="matrix(0.992126,0,0,0.992126,2024.18,547.441)" d="M43,-25 L0,25 L10,25 L53,-25 L43,-25 "/>
<path class="Note" transform="matrix(0.992126,0,0,0.992126,2240.37,547.441)" d="M43,-25 L0,25 L10,25 L53,-25 L43,-25 "/>
<path class="Note" transform="matrix(0.992126,0,0,0.992126,2399.51,547.441)" d="M43,-25 L0,25 L10,25 L53,-25 L43,-25 "/>
<path class="Note" transform="matrix(0.992126,0,0,0.992126,2558.66,547.441)" d="M43,-25 L0,25 L10,25 L53,-25 L43,-25 "/>
<path class="Note" transform="matrix(0.992126,0,0,0.992126,2717.8,547.441)" d="M43,-25 L0,25 L10,25 L53,-25 L43,-25 "/>
<path class="Note" transform="matrix(0.992126,0,0,0.992126,159.504,865.023)" d="M43,-25 L0,25 L10,25 L53,-25 L43,-25 "/>
<path class="Note" transform="matrix(0.992126,0,0,0.992126,321.29,865.023)" d="M43,-25 L0,25 L10,25 L53,-25 L43,-25 "/>
<path class="Note" transform="matrix(0.992126,0,0,0.992126,483.077,865.023)" d="M43,-25 L0,25 L10,25 L53,-25 L43,-25 "/>
<path class="Note" transform="matrix(0.992126,0,0,0.992126,644.863,865.023)" d="M43,-25 L0,25 L10,25 L53,-25 L43,-25 "/>
<path class="Note" transform="matrix(0.992126,0,0,0.992126,863.696,865.023)" d="M43,-25 L0,25 L10,25 L53,-25 L43,-25 "/>
<path class="Note" transform="matrix(0.992126,0,0,0.992126,1025.48,865.023)" d="M43,-25 L0,25 L10,25 L53,-25 L43,-25 "/>
<path class="Note" transform="matrix(0.992126,0,0,0.992126,1187.27,865.023)" d="M43,-25 L0,25 L10,25 L53,-25 L43,-25 "/>
<path class="Note" transform="matrix(0.992126,0,0,0.992126,1349.06,865.023)" d="M43,-25 L0,25 L10,25 L53,-25 L43,-25 "/>
<path class="Note" transform="matrix(0.992126,0,0,0.992126,1567.89,865.023)" d="M43,-25 L0,25 L10,25 L53,-25 L43,-25 "/>
<path class="Note" transform="matrix(0.992126,0,0,0.992126,1729.67,865.023)" d="M43,-25 L0,25 L10,25 L53,-25 L43,-25 "/>
<path class="Note" transform="matrix(0.992126,0,0,0.992126,1891.46,865.023)" d="M43,-25 L0,25 L10,25 L53,-25 L43,-25 "/>
<path class="Note" transform="matrix(0.992126,0,0,0.992126,2053.25,865.023)" d="M43,-25 L0,25 L10,25 L53,-25 L43,-25 "/>
<path class="Note" transform="matrix(0.992126,0,0,0.992126,2272.08,865.023)" d="M43,-25 L0,25 L10,25 L53,-25 L43,-25 "/>
<path class="Note" transform="matrix(0.992126,0,0,0.992126,2433.87,865.023)" d="M43,-25 L0,25 L10,25 L53,-25 L43,-25 "/>
<path class="Note" transform="matrix(0.992126,0,0,0.992126,2595.65,865.023)" d="M43,-25 L0,25 L10,25 L53,-25 L43,-25 "/>
<path class="Note" transform="matrix(0.992126,0,0,0.992126,2757.44,865.023)" d="M43,-25 L0,25 L10,25 L53,-25 L43,-25 "/>
<path class="Note" transform="matrix(0.992126,0,0,0.992126,159.504,1175.06)" d="M43,-25 L0,25 L10,25 L53,-25 L43,-25 "/>
<path class="Note" transform="matrix(0.992126,0,0,0.992126,319.656,1175.06)" d="M43,-25 L0,25 L10,25 L53,-25 L43,-25 "/>
<path class="Note" transform="matrix(0.992126,0,0,0.992126,479.807,1175.06)" d="M43,-25 L0,25 L10,25 L53,-25 L43,-25 "/>
<path class="Note" transform="matrix(0.992126,0,0,0.992126,639.958,1175.06)" d="M43,-25 L0,25 L10,25 L53,-25 L43,-25 "/>
<path class="Note" transform="matrix(0.992126,0,0,0.992126,841.035,1175.06)" d="M43,-25 L0,25 L10,25 L53,-25 L43,-25 "/>
<path class="Note" transform="matrix(0.992126,0,0,0.992126,1001.19,1175.06)" d="M43,-25 L0,25 L10,25 L53,-25 L43,-25 "/>
<path class="Note" transform="matrix(0.992126,0,0,0.992126,1161.34,1175.06)" d="M43,-25 L0,25 L10,25 L53,-25 L43,-25 "/>
<path class="Note" transform="matrix(0.992126,0,0,0.992126,1321.49,1175.06)" d="M43,-25 L0,25 L10,25 L53,-25 L43,-25 "/>
<path class="Note" transform="matrix(0.992126,0,0,0.992126,1538.69,1175.06)" d="M43,-25 L0,25 L10,25 L53,-25 L43,-25 "/>
<path class="Note" transform="matrix(0.992126,0,0,0.992126,1698.84,1175.06)" d="M43,-25 L0,25 L10,25 L53,-25 L43,-25 "/>
<path class="Note" transform="matrix(0.992126,0,0,0.992126,1858.99,1175.06)" d="M43,-25 L0,25 L10,25 L53,-25 L43,-25 "/>
<path class="Note" transform="matrix(0.992126,0,0,0.992126,2019.14,1175.06)" d="M43,-25 L0,25 L10,25 L53,-25 L43,-25 "/>
<path class="Note" transform="matrix(0.992126,0,0,0.992126,2236.34,1175.06)" d="M43,-25 L0,25 L10,25 L53,-25 L43,-25 "/>
<path class="Note" transform="matrix(0.992126,0,0,0.992126,2396.49,1175.06)" d="M43,-25 L0,25 L10,25 L53,-25 L43,-25 "/>
<path class="Note" transform="matrix(0.992126,0,0,0.992126,2556.64,1175.06)" d="M43,-25 L0,25 L10,25 L53,-25 L43,-25 "/>
<path class="Note" transform="matrix(0.992126,0,0,0.992126,2716.79,1175.06)" d="M43,-25 L0,25 L10,25 L53,-25 L43,-25 "/>
<path class="Clef" transform="matrix(0.992126,0,0,0.992126,158.032,262.205)" d="M63.3594,-5.92188 C62.125,-11.3438 59.4844,-15.1719 58.7031,-16.2031 C55.5156,-20.4844 51.5,-23.3281 46.8125,-24.6875 C43.7031,-25.5625 40.7031,-25.6875 38.2813,-25.5 C37.2344,-31.5156 36.2344,-37.3906 35.3281,-42.8438 C40.7813,-49.0156 44.4063,-54.8125 46.6875,-59.1094 C50.1563,-65.6875 51.2969,-70.2656 51.3594,-70.4688 C53.0781,-75.6875 53.4375,-83.3906 52.3281,-91.5938 C51.3281,-99.1406 49.2344,-105.859 46.875,-109.109 C45.8594,-110.531 44.7969,-111.266 43.7656,-111.266 C42.5469,-111.266 40.0313,-110.031 37.1406,-107.25 C34.8438,-105.063 31.5781,-101.172 29.0156,-95.1563 C26.0156,-88.0938 25.7969,-78.6094 26.1563,-71.8906 C26.5313,-64.6094 27.6406,-58.9219 27.6563,-58.875 C27.6719,-58.7813 27.9375,-57.2813 28.375,-54.7188 C28.1563,-54.4844 27.9063,-54.2656 27.6563,-54.0156 C26.625,-53.0156 25.4375,-51.8906 24.0469,-50.5 C23.1875,-49.6406 22.2344,-48.7344 21.2344,-47.7656 C12.7969,-39.625 0,-27.2969 0,-8.14063 C0,-3.4375 0.90625,0.984375 2.6875,5 C4.26563,8.59375 6.5625,11.875 9.5,14.75 C17.2344,22.3125 27.8281,25.5156 34.875,25.3594 C37.8281,25.2813 40.4688,25.0469 42.8594,24.5938 C44.6875,34.2031 45.8281,41.2344 45.8594,46.5781 C45.9063,53.0938 44.25,57.0781 40.3594,59.8438 C37.9219,61.5781 35.1094,62.5313 32.0156,62.6719 C29.4219,62.7969 27.1563,62.3281 25.7344,61.9219 L25.7188,61.9219 C25.7188,61.9219 25.4375,61.8281 25.4219,61.6406 C25.4063,61.4531 25.7656,61.4063 25.7656,61.4063 L25.7969,61.4063 C27.7188,60.9688 31.2813,59.7344 33.6406,56.4375 C35.4375,53.9063 36.3125,49.2813 34.4688,45.3438 C33.3594,42.9531 30.8594,40 25.2344,39.5469 C22.7344,39.3438 20.4688,39.8594 18.4688,41.0625 C16.6563,42.1406 15.1563,43.7813 14.1094,45.7813 C11.6563,50.4844 12.1094,56.2188 15.2344,60.0625 C18.2031,63.6875 22.8125,66 28.25,66.5781 C29.1094,66.6719 29.9531,66.7031 30.7969,66.7031 C35.2344,66.7031 39.625,65.5 43.2031,63.2969 C46.8594,60.7188 48.9844,56.7344 49.6563,51.1094 C50.2188,46.4688 49.8281,40.5469 48.4375,32.4688 C48.0781,30.375 47.5313,27.3438 46.875,23.5938 C52.625,21.6719 56.7813,18.0938 60.5469,12.2344 C63.8438,6.5 64.7813,0.390625 63.3594,-5.92188 M29.1406,20.2969 C24.5,19.0781 20.0625,16.5781 16.3125,13.0625 C15,11.8438 13.125,9.67188 11.6563,6.28125 C10.2969,3.10938 9.625,-0.328125 9.6875,-3.90625 C9.75,-8.60938 11.0625,-13.4375 13.5625,-18.2188 C16.4844,-23.7969 21.0469,-29.3281 27.1094,-34.6563 C28.5625,-35.9375 29.9375,-37.2188 31.2188,-38.5 C31.9844,-34.2344 32.8125,-29.5469 33.6875,-24.6719 C29.8438,-23.4063 25.0938,-20.25 21.9844,-14.5938 C18.4375,-8.03125 18.5781,-2.5 19.3125,0.984375 C20.25,5.4375 22.7813,9.20313 26.2344,11.2969 C27.1719,11.8594 31.2969,13.9844 33.1406,13.4063 C33.5156,13.2969 33.7813,13.0625 33.9219,12.7344 C34.4375,11.5625 33.4063,10.9219 31.8594,9.96875 C31.25,9.59375 30.5781,9.17188 29.8594,8.64063 C26.5313,6.15625 25.0781,1.70313 26.1563,-2.6875 C26.7344,-5.07813 28.0156,-7.25 29.8594,-8.95313 C31.5156,-10.5 33.5625,-11.5938 35.9375,-12.2344 C37.9844,-0.984375 40.0469,10.1719 41.6875,18.5313 C41.8125,19.2188 41.9531,19.8906 42.0781,20.5625 C37.7031,21.5 33.3594,21.4063 29.1406,20.2969 M40.4688,-12.9063 C50.8125,-13.375 55.0781,-5.9375 55.9688,-1.10938 C56.4375,1.4375 56.4375,5.875 54.8906,10.0938 C53.7188,13.2656 51.2656,17.3438 46.125,19.4063 C46.0625,18.9844 45.9844,18.5469 45.9063,18.125 C44.3594,9.34375 42.4219,-1.65625 40.4688,-12.9063 M33.1406,-83.8594 C34.9219,-89.5938 37.6563,-92.8438 39.6563,-94.5781 C41.4063,-96.0938 43.0469,-96.8125 43.9688,-96.8125 C44.1094,-96.8125 44.2344,-96.7813 44.3281,-96.75 C44.7969,-96.6094 45.3281,-96.0469 45.7969,-95.1719 C48.1094,-90.8906 47.3594,-84.1719 46.0156,-79.7344 C44.3906,-74.3281 41.4688,-68.7188 32.6719,-59.1094 C32.5,-60.2188 32.3438,-61.2656 32.1875,-62.25 C30.9375,-70.5313 31.2656,-77.8125 33.1406,-83.8594"/>
<path class="Clef" transform="matrix(0.992126,0,0,0.992126,34.0158,572.244)" d="M63.3594,-5.92188 C62.125,-11.3438 59.4844,-15.1719 58.7031,-16.2031 C55.5156,-20.4844 51.5,-23.3281 46.8125,-24.6875 C43.7031,-25.5625 40.7031,-25.6875 38.2813,-25.5 C37.2344,-31.5156 36.2344,-37.3906 35.3281,-42.8438 C40.7813,-49.0156 44.4063,-54.8125 46.6875,-59.1094 C50.1563,-65.6875 51.2969,-70.2656 51.3594,-70.4688 C53.0781,-75.6875 53.4375,-83.3906 52.3281,-91.5938 C51.3281,-99.1406 49.2344,-105.859 46.875,-109.109 C45.8594,-110.531 44.7969,-111.266 43.7656,-111.266 C42.5469,-111.266 40.0313,-110.031 37.1406,-107.25 C34.8438,-105.063 31.5781,-101.172 29.0156,-95.1563 C26.0156,-88.0938 25.7969,-78.6094 26.1563,-71.8906 C26.5313,-64.6094 27.6406,-58.9219 27.6563,-58.875 C27.6719,-58.7813 27.9375,-57.2813 28.375,-54.7188 C28.1563,-54.4844 27.9063,-54.2656 27.6563,-54.0156 C26.625,-53.0156 25.4375,-51.8906 24.0469,-50.5 C23.1875,-49.6406 22.2344,-48.7344 21.2344,-47.7656 C12.7969,-39.625 0,-27.2969 0,-8.14063 C0,-3.4375 0.90625,0.984375 2.6875,5 C4.26563,8.59375 6.5625,11.875 9.5,14.75 C17.2344,22.3125 27.8281,25.5156 34.875,25.3594 C37.8281,25.2813 40.4688,25.0469 42.8594,24.5938 C44.6875,34.2031 45.8281,41.2344 45.8594,46.5781 C45.9063,53.0938 44.25,57.0781 40.3594,59.8438 C37.9219,61.5781 35.1094,62.5313 32.0156,62.6719 C29.4219,62.7969 27.1563,62.3281 25.7344,61.9219 L25.7188,61.9219 C25.7188,61.9219 25.4375,61.8281 25.4219,61.6406 C25.4063,61.4531 25.7656,61.4063 25.7656,61.4063 L25.7969,61.4063 C27.7188,60.9688 31.2813,59.7344 33.6406,56.4375 C35.4375,53.9063 36.3125,49.2813 34.4688,45.3438 C33.3594,42.9531 30.8594,40 25.2344,39.5469 C22.7344,39.3438 20.4688,39.8594 18.4688,41.0625 C16.6563,42.1406 15.1563,43.7813 14.1094,45.7813 C11.6563,50.4844 12.1094,56.2188 15.2344,60.0625 C18.2031,63.6875 22.8125,66 28.25,66.5781 C29.1094,66.6719 29.9531,66.7031 30.7969,66.7031 C35.2344,66.7031 39.625,65.5 43.2031,63.2969 C46.8594,60.7188 48.9844,56.7344 49.6563,51.1094 C50.2188,46.4688 49.8281,40.5469 48.4375,32.4688 C48.0781,30.375 47.5313,27.3438 46.875,23.5938 C52.625,21.6719 56.7813,18.0938 60.5469,12.2344 C63.8438,6.5 64.7813,0.390625 63.3594,-5.92188 M29.1406,20.2969 C24.5,19.0781 20.0625,16.5781 16.3125,13.0625 C15,11.8438 13.125,9.67188 11.6563,6.28125 C10.2969,3.10938 9.625,-0.328125 9.6875,-3.90625 C9.75,-8.60938 11.0625,-13.4375 13.5625,-18.2188 C16.4844,-23.7969 21.0469,-29.3281 27.1094,-34.6563 C28.5625,-35.9375 29.9375,-37.2188 31.2188,-38.5 C31.9844,-34.2344 32.8125,-29.5469 33.6875,-24.6719 C29.8438,-23.4063 25.0938,-20.25 21.9844,-14.5938 C18.4375,-8.03125 18.5781,-2.5 19.3125,0.984375 C20.25,5.4375 22.7813,9.20313 26.2344,11.2969 C27.1719,11.8594 31.2969,13.9844 33.1406,13.4063 C33.5156,13.2969 33.7813,13.0625 33.9219,12.7344 C34.4375,11.5625 33.4063,10.9219 31.8594,9.96875 C31.25,9.59375 30.5781,9.17188 29.8594,8.64063 C26.5313,6.15625 25.0781,1.70313 26.1563,-2.6875 C26.7344,-5.07813 28.0156,-7.25 29.8594,-8.95313 C31.5156,-10.5 33.5625,-11.5938 35.9375,-12.2344 C37.9844,-0.984375 40.0469,10.1719 41.6875,18.5313 C41.8125,19.2188 41.9531,19.8906 42.0781,20.5625 C37.7031,21.5 33.3594,21.4063 29.1406,20.2969 M40.4688,-12.9063 C50.8125,-13.375 55.0781,-5.9375 55.9688,-1.10938 C56.4375,1.4375 56.4375,5.875 54.8906,10.0938 C53.7188,13.2656 51.2656,17.3438 46.125,19.4063 C46.0625,18.9844 45.9844,18.5469 45.9063,18.125 C44.3594,9.34375 42.4219,-1.65625 40.4688,-12.9063 M33.1406,-83.8594 C34.9219,-89.5938 37.6563,-92.8438 39.6563,-94.5781 C41.4063,-96.0938 43.0469,-96.8125 43.9688,-96.8125 C44.1094,-96.8125 44.2344,-96.7813 44.3281,-96.75 C44.7969,-96.6094 45.3281,-96.0469 45.7969,-95.1719 C48.1094,-90.8906 47.3594,-84.1719 46.0156,-79.7344 C44.3906,-74.3281 41.4688,-68.7188 32.6719,-59.1094 C32.5,-60.2188 32.3438,-61.2656 32.1875,-62.25 C30.9375,-70.5313 31.2656,-77.8125 33.1406,-83.8594"/>
<path class="Clef" transform="matrix(0.992126,0,0,0.992126,34.0158,889.826)" d="M63.3594,-5.92188 C62.125,-11.3438 59.4844,-15.1719 58.7031,-16.2031 C55.5156,-20.4844 51.5,-23.3281 46.8125,-24.6875 C43.7031,-25.5625 40.7031,-25.6875 38.2813,-25.5 C37.2344,-31.5156 36.2344,-37.3906 35.3281,-42.8438 C40.7813,-49.0156 44.4063,-54.8125 46.6875,-59.1094 C50.1563,-65.6875 51.2969,-70.2656 51.3594,-70.4688 C53.0781,-75.6875 53.4375,-83.3906 52.3281,-91.5938 C51.3281,-99.1406 49.2344,-105.859 46.875,-109.109 C45.8594,-110.531 44.7969,-111.266 43.7656,-111.266 C42.5469,-111.266 40.0313,-110.031 37.1406,-107.25 C34.8438,-105.063 31.5781,-101.172 29.0156,-95.1563 C26.0156,-88.0938 25.7969,-78.6094 26.1563,-71.8906 C26.5313,-64.6094 27.6406,-58.9219 27.6563,-58.875 C27.6719,-58.7813 27.9375,-57.2813 28.375,-54.7188 C28.1563,-54.4844 27.9063,-54.2656 27.6563,-54.0156 C26.625,-53.0156 25.4375,-51.8906 24.0469,-50.5 C23.1875,-49.6406 22.2344,-48.7344 21.2344,-47.7656 C12.7969,-39.625 0,-27.2969 0,-8.14063 C0,-3.4375 0.90625,0.984375 2.6875,5 C4.26563,8.59375 6.5625,11.875 9.5,14.75 C17.2344,22.3125 27.8281,25.5156 34.875,25.3594 C37.8281,25.2813 40.4688,25.0469 42.8594,24.5938 C44.6875,34.2031 45.8281,41.2344 45.8594,46.5781 C45.9063,53.0938 44.25,57.0781 40.3594,59.8438 C37.9219,61.5781 35.1094,62.5313 32.0156,62.6719 C29.4219,62.7969 27.1563,62.3281 25.7344,61.9219 L25.7188,61.9219 C25.7188,61.9219 25.4375,61.8281 25.4219,61.6406 C25.4063,61.4531 25.7656,61.4063 25.7656,61.4063 L25.7969,61.4063 C27.7188,60.9688 31.2813,59.7344 33.6406,56.4375 C35.4375,53.9063 36.3125,49.2813 34.4688,45.3438 C33.3594,42.9531 30.8594,40 25.2344,39.5469 C22.7344,39.3438 20.4688,39.8594 18.4688,41.0625 C16.6563,42.1406 15.1563,43.7813 14.1094,45.7813 C11.6563,50.4844 12.1094,56.2188 15.2344,60.0625 C18.2031,63.6875 22.8125,66 28.25,66.5781 C29.1094,66.6719 29.9531,66.7031 30.7969,66.7031 C35.2344,66.7031 39.625,65.5 43.2031,63.2969 C46.8594,60.7188 48.9844,56.7344 49.6563,51.1094 C50.2188,46.4688 49.8281,40.5469 48.4375,32.4688 C48.0781,30.375 47.5313,27.3438 46.875,23.5938 C52.625,21.6719 56.7813,18.0938 60.5469,12.2344 C63.8438,6.5 64.7813,0.390625 63.3594,-5.92188 M29.1406,20.2969 C24.5,19.0781 20.0625,16.5781 16.3125,13.0625 C15,11.8438 13.125,9.67188 11.6563,6.28125 C10.2969,3.10938 9.625,-0.328125 9.6875,-3.90625 C9.75,-8.60938 11.0625,-13.4375 13.5625,-18.2188 C16.4844,-23.7969 21.0469,-29.3281 27.1094,-34.6563 C28.5625,-35.9375 29.9375,-37.2188 31.2188,-38.5 C31.9844,-34.2344 32.8125,-29.5469 33.6875,-24.6719 C29.8438,-23.4063 25.0938,-20.25 21.9844,-14.5938 C18.4375,-8.03125 18.5781,-2.5 19.3125,0.984375 C20.25,5.4375 22.7813,9.20313 26.2344,11.2969 C27.1719,11.8594 31.2969,13.9844 33.1406,13.4063 C33.5156,13.2969 33.7813,13.0625 33.9219,12.7344 C34.4375,11.5625 33.4063,10.9219 31.8594,9.96875 C31.25,9.59375 30.5781,9.17188 29.8594,8.64063 C26.5313,6.15625 25.0781,1.70313 26.1563,-2.6875 C26.7344,-5.07813 28.0156,-7.25 29.8594,-8.95313 C31.5156,-10.5 33.5625,-11.5938 35.9375,-12.2344 C37.9844,-0.984375 40.0469,10.1719 41.6875,18.5313 C41.8125,19.2188 41.9531,19.8906 42.0781,20.5625 C37.7031,21.5 33.3594,21.4063 29.1406,20.2969 M40.4688,-12.9063 C50.8125,-13.375 55.0781,-5.9375 55.9688,-1.10938 C56.4375,1.4375 56.4375,5.875 54.8906,10.0938 C53.7188,13.2656 51.2656,17.3438 46.125,19.4063 C46.0625,18.9844 45.9844,18.5469 45.9063,18.125 C44.3594,9.34375 42.4219,-1.65625 40.4688,-12.9063 M33.1406,-83.8594 C34.9219,-89.5938 37.6563,-92.8438 39.6563,-94.5781 C41.4063,-96.0938 43.0469,-96.8125 43.9688,-96.8125 C44.1094,-96.8125 44.2344,-96.7813 44.3281,-96.75 C44.7969,-96.6094 45.3281,-96.0469 45.7969,-95.1719 C48.1094,-90.8906 47.3594,-84.1719 46.0156,-79.7344 C44.3906,-74.3281 41.4688,-68.7188 32.6719,-59.1094 C32.5,-60.2188 32.3438,-61.2656 32.1875,-62.25 C30.9375,-70.5313 31.2656,-77.8125 33.1406,-83.8594"/>
<path class="Clef" transform="matrix(0.992126,0,0,0.992126,34.0158,1199.87)" d="M63.3594,-5.92188 C62.125,-11.3438 59.4844,-15.1719 58.7031,-16.2031 C55.5156,-20.4844 51.5,-23.3281 46.8125,-24.6875 C43.7031,-25.5625 40.7031,-25.6875 38.2813,-25.5 C37.2344,-31.5156 36.2344,-37.3906 35.3281,-42.8438 C40.7813,-49.0156 44.4063,-54.8125 46.6875,-59.1094 C50.1563,-65.6875 51.2969,-70.2656 51.3594,-70.4688 C53.0781,-75.6875 53.4375,-83.3906 52.3281,-91.5938 C51.3281,-99.1406 49.2344,-105.859 46.875,-109.109 C45.8594,-110.531 44.7969,-111.266 43.7656,-111.266 C42.5469,-111.266 40.0313,-110.031 37.1406,-107.25 C34.8438,-105.063 31.5781,-101.172 29.0156,-95.1563 C26.0156,-88.0938 25.7969,-78.6094 26.1563,-71.8906 C26.5313,-64.6094 27.6406,-58.9219 27.6563,-58.875 C27.6719,-58.7813 27.9375,-57.2813 28.375,-54.7188 C28.1563,-54.4844 27.9063,-54.2656 27.6563,-54.0156 C26.625,-53.0156 25.4375,-51.8906 24.0469,-50.5 C23.1875,-49.6406 22.2344,-48.7344 21.2344,-47.7656 C12.7969,-39.625 0,-27.2969 0,-8.14063 C0,-3.4375 0.90625,0.984375 2.6875,5 C4.26563,8.59375 6.5625,11.875 9.5,14.75 C17.2344,22.3125 27.8281,25.5156 34.875,25.3594 C37.8281,25.2813 40.4688,25.0469 42.8594,24.5938 C44.6875,34.2031 45.8281,41.2344 45.8594,46.5781 C45.9063,53.0938 44.25,57.0781 40.3594,59.8438 C37.9219,61.5781 35.1094,62.5313 32.0156,62.6719 C29.4219,62.7969 27.1563,62.3281 25.7344,61.9219 L25.7188,61.9219 C25.7188,61.9219 25.4375,61.8281 25.4219,61.6406 C25.4063,61.4531 25.7656,61.4063 25.7656,61.4063 L25.7969,61.4063 C27.7188,60.9688 31.2813,59.7344 33.6406,56.4375 C35.4375,53.9063 36.3125,49.2813 34.4688,45.3438 C33.3594,42.9531 30.8594,40 25.2344,39.5469 C22.7344,39.3438 20.4688,39.8594 18.4688,41.0625 C16.6563,42.1406 15.1563,43.7813 14.1094,45.7813 C11.6563,50.4844 12.1094,56.2188 15.2344,60.0625 C18.2031,63.6875 22.8125,66 28.25,66.5781 C29.1094,66.6719 29.9531,66.7031 30.7969,66.7031 C35.2344,66.7031 39.625,65.5 43.2031,63.2969 C46.8594,60.7188 48.9844,56.7344 49.6563,51.1094 C50.2188,46.4688 49.8281,40.5469 48.4375,32.4688 C48.0781,30.375 47.5313,27.3438 46.875,23.5938 C52.625,21.6719 56.7813,18.0938 60.5469,12.2344 C63.8438,6.5 64.7813,0.390625 63.3594,-5.92188 M29.1406,20.2969 C24.5,19.0781 20.0625,16.5781 16.3125,13.0625 C15,11.8438 13.125,9.67188 11.6563,6.28125 C10.2969,3.10938 9.625,-0.328125 9.6875,-3.90625 C9.75,-8.60938 11.0625,-13.4375 13.5625,-18.2188 C16.4844,-23.7969 21.0469,-29.3281 27.1094,-34.6563 C28.5625,-35.9375 29.9375,-37.2188 31.2188,-38.5 C31.9844,-34.2344 32.8125,-29.5469 33.6875,-24.6719 C29.8438,-23.4063 25.0938,-20.25 21.9844,-14.5938 C18.4375,-8.03125 18.5781,-2.5 19.3125,0.984375 C20.25,5.4375 22.7813,9.20313 26.2344,11.2969 C27.1719,11.8594 31.2969,13.9844 33.1406,13.4063 C33.5156,13.2969 33.7813,13.0625 33.9219,12.7344 C34.4375,11.5625 33.4063,10.9219 31.8594,9.96875 C31.25,9.59375 30.5781,9.17188 29.8594,8.64063 C26.5313,6.15625 25.0781,1.70313 26.1563,-2.6875 C26.7344,-5.07813 28.0156,-7.25 29.8594,-8.95313 C31.5156,-10.5 33.5625,-11.5938 35.9375,-12.2344 C37.9844,-0.984375 40.0469,10.1719 41.6875,18.5313 C41.8125,19.2188 41.9531,19.8906 42.0781,20.5625 C37.7031,21.5 33.3594,21.4063 29.1406,20.2969 M40.4688,-12.9063 C50.8125,-13.375 55.0781,-5.9375 55.9688,-1.10938 C56.4375,1.4375 56.4375,5.875 54.8906,10.0938 C53.7188,13.2656 51.2656,17.3438 46.125,19.4063 C46.0625,18.9844 45.9844,18.5469 45.9063,18.125 C44.3594,9.34375 42.4219,-1.65625 40.4688,-12.9063 M33.1406,-83.8594 C34.9219,-89.5938 37.6563,-92.8438 39.6563,-94.5781 C41.4063,-96.0938 43.0469,-96.8125 43.9688,-96.8125 C44.1094,-96.8125 44.2344,-96.7813 44.3281,-96.75 C44.7969,-96.6094 45.3281,-96.0469 45.7969,-95.1719 C48.1094,-90.8906 47.3594,-84.1719 46.0156,-79.7344 C44.3906,-74.3281 41.4688,-68.7188 32.6719,-59.1094 C32.5,-60.2188 32.3438,-61.2656 32.1875,-62.25 C30.9375,-70.5313 31.2656,-77.8125 33.1406,-83.8594"/>
<path class="TimeSig" transform="matrix(0.992126,0,0,0.992126,244.951,212.73)" d="M3.59375,12.625 L20.7656,12.625 L20.7656,20.0781 L12.5469,20.0781 C11.7656,20.0781 11.125,20.7031 11.125,21.4844 L11.125,23.3906 C11.125,24.1719 11.7656,24.7969 12.5469,24.7969 L42.7969,24.7969 C43.5781,24.7969 44.2031,24.1719 44.2031,23.3906 L44.2031,21.4844 C44.2031,20.7031 43.5781,20.0781 42.7969,20.0781 L33.8594,20.0781 L33.8594,12.625 L42.7969,12.625 C43.5781,12.625 44.2031,12 44.2031,11.2188 L44.2031,9.3125 C44.2031,8.53125 43.5781,7.90625 42.7969,7.90625 L33.8594,7.90625 L33.8594,-8.0625 C33.8594,-8.59375 33.5469,-9.07813 33.0781,-9.3125 L31.8594,-9.92188 C31.3281,-10.1719 30.7031,-10.0781 30.2656,-9.6875 L21.2188,-1.375 C20.9375,-1.09375 20.7656,-0.734375 20.7656,-0.328125 L20.7656,7.90625 L9.25,7.90625 C9.25,7.90625 20.375,-4.125 32.2188,-19.8906 C33.0781,-21.0469 32.5781,-22.0938 32.3906,-22.2813 L30.2188,-24.4844 C29.9531,-24.75 29.5938,-24.9063 29.2188,-24.9063 C28.625,-24.9063 15.0625,-24.875 14.3438,-24.9063 C13.625,-24.9219 13.0938,-24.2969 13.0156,-23.6875 C13.0156,-23.6875 12.4844,-16.3281 9.875,-8.1875 C7.28125,-0.078125 4.34375,4.90625 1.6875,8.53125 C1.6875,8.53125 1.14063,9.51563 1.5,10.2656 C1.84375,11.0156 2.48438,12.0938 2.48438,12.0938 C2.48438,12.0938 2.73438,12.625 3.59375,12.625"/>
<path class="TimeSig" transform="matrix(0.992126,0,0,0.992126,244.951,262.073)" d="M3.59375,12.625 L20.7656,12.625 L20.7656,20.0781 L12.5469,20.0781 C11.7656,20.0781 11.125,20.7031 11.125,21.4844 L11.125,23.3906 C11.125,24.1719 11.7656,24.7969 12.5469,24.7969 L42.7969,24.7969 C43.5781,24.7969 44.2031,24.1719 44.2031,23.3906 L44.2031,21.4844 C44.2031,20.7031 43.5781,20.0781 42.7969,20.0781 L33.8594,20.0781 L33.8594,12.625 L42.7969,12.625 C43.5781,12.625 44.2031,12 44.2031,11.2188 L44.2031,9.3125 C44.2031,8.53125 43.5781,7.90625 42.7969,7.90625 L33.8594,7.90625 L33.8594,-8.0625 C33.8594,-8.59375 33.5469,-9.07813 33.0781,-9.3125 L31.8594,-9.92188 C31.3281,-10.1719 30.7031,-10.0781 30.2656,-9.6875 L21.2188,-1.375 C20.9375,-1.09375 20.7656,-0.734375 20.7656,-0.328125 L20.7656,7.90625 L9.25,7.90625 C9.25,7.90625 20.375,-4.125 32.2188,-19.8906 C33.0781,-21.0469 32.5781,-22.0938 32.3906,-22.2813 L30.2188,-24.4844 C29.9531,-24.75 29.5938,-24.9063 29.2188,-24.9063 C28.625,-24.9063 15.0625,-24.875 14.3438,-24.9063 C13.625,-24.9219 13.0938,-24.2969 13.0156,-23.6875 C13.0156,-23.6875 12.4844,-16.3281 9.875,-8.1875 C7.28125,-0.078125 4.34375,4.90625 1.6875,8.53125 C1.6875,8.53125 1.14063,9.51563 1.5,10.2656 C1.84375,11.0156 2.48438,12.0938 2.48438,12.0938 C2.48438,12.0938 2.73438,12.625 3.59375,12.625"/>
<path class="RehearsalMark" fill="none" stroke="#000000" stroke-width="3.97" stroke-linecap="square" stroke-linejoin="miter" stroke-miterlimit="2" fill-rule="evenodd" d="M154.216,21.0729 L262.987,21.0729 L262.987,122.845 L154.216,122.845 L154.216,21.0729 "/>
<path class="RehearsalMark" d="M205.352,35.4899 L182.883,87.9587 C178.32,98.6618 174.664,102.521 168.82,103.115 L168.82,108.459 L197.43,108.459 L197.43,103.115 C190.398,102.724 187.633,100.834 187.633,96.2868 C187.633,94.5993 188.023,93.0212 189.117,90.6462 L190.695,86.8806 L215.352,86.8806 L219.117,96.5837 C220.195,99.3493 220.305,99.8493 220.305,100.631 C220.305,102.427 218.914,103.021 214.555,103.021 L212.867,103.115 L212.867,108.459 L247.617,108.459 L247.617,103.115 C241.977,102.912 240.398,101.927 238.32,96.8806 L212.867,35.4899 L205.352,35.4899 M203.273,56.5837 L212.867,80.2399 L193.273,80.2399 L203.273,56.5837 "/>
<path class="RehearsalMark" fill="none" stroke="#000000" stroke-width="3.97" stroke-linecap="square" stroke-linejoin="miter" stroke-miterlimit="2" fill-rule="evenodd" d="M32.3294,654.622 L133.101,654.622 L133.101,755.393 L32.3294,755.393 L32.3294,654.622 "/>
<path class="RehearsalMark" d="M47.4027,669.523 L47.4027,674.882 L48.8871,674.882 C54.2308,674.882 56.1058,675.273 56.9964,676.257 C57.6996,677.351 57.6996,677.648 57.6996,683.789 L57.6996,726.757 C57.6996,732.882 57.6996,733.179 56.9964,734.179 C56.1058,735.273 54.1371,735.664 48.8871,735.664 L47.4027,735.664 L47.4027,741.007 L87.4964,741.007 C97.7933,741.007 103.043,740.211 108.184,737.945 C114.418,735.164 118.575,728.929 118.575,722.195 C118.575,715.273 114.621,709.82 107.293,706.461 C103.934,704.867 101.059,704.086 95.8089,703.382 C100.653,702.601 103.434,701.898 106.2,700.617 C112.137,697.742 115.309,692.992 115.309,687.054 C115.309,681.414 112.34,676.164 107.496,673.492 C102.043,670.414 97.2933,669.523 85.6058,669.523 L47.4027,669.523 M75.5121,701.601 L75.5121,680.617 C75.3089,676.461 76.6996,675.07 81.0589,674.882 L84.0277,674.882 C92.7464,674.882 97.3871,679.226 97.3871,687.445 C97.3871,692.304 95.7152,696.164 92.5433,698.632 C89.8714,700.82 86.4964,701.601 80.3714,701.601 L75.5121,701.601 M75.5121,707.054 L82.3402,707.054 C88.5746,707.054 91.4496,707.648 94.2308,709.429 C97.6839,711.711 99.6683,716.054 99.6683,721.211 C99.6683,725.961 97.8871,730.32 95.0121,732.695 C92.5433,734.664 89.2777,735.664 84.5277,735.664 L81.5589,735.664 C75.9027,735.461 75.3089,734.867 75.5121,729.32 L75.5121,707.054 "/>
<path class="Harmony" d="M350.527,121.866 C350.496,121.881 350.449,121.881 350.386,121.881 C350.324,121.881 350.277,121.897 350.246,121.897 C350.199,121.912 350.152,121.912 350.09,121.928 C350.027,121.928 349.996,121.944 349.949,121.959 C349.902,121.975 349.871,122.006 349.824,122.022 C349.777,122.053 349.746,122.069 349.73,122.116 C349.683,122.147 349.668,122.178 349.636,122.225 C349.621,122.256 349.605,122.319 349.605,122.366 C349.605,122.397 349.605,122.428 349.605,122.475 L349.605,122.506 C349.605,122.537 349.605,122.584 349.605,122.647 C349.621,122.709 349.621,122.756 349.621,122.787 C349.621,123.366 349.636,123.928 349.652,124.475 C349.652,124.506 349.652,124.537 349.652,124.569 C349.652,124.678 349.652,124.819 349.636,124.975 C349.621,125.178 349.621,125.319 349.621,125.412 L349.621,125.444 L349.621,125.537 C349.621,125.553 349.621,125.584 349.636,125.616 C349.636,125.647 349.636,125.662 349.652,125.678 C349.668,125.694 349.683,125.709 349.715,125.725 C349.73,125.741 349.761,125.741 349.793,125.741 L349.808,125.741 C349.98,125.741 350.152,125.709 350.324,125.631 C350.511,125.569 350.668,125.491 350.824,125.381 C350.98,125.287 351.121,125.162 351.261,125.006 C351.402,124.866 351.527,124.709 351.621,124.553 C351.73,124.397 351.808,124.225 351.871,124.053 C351.949,123.881 351.98,123.709 351.98,123.537 C351.996,123.506 351.996,123.459 351.996,123.428 C351.996,123.334 351.98,123.241 351.965,123.131 C351.933,122.991 351.902,122.85 351.84,122.725 C351.793,122.6 351.715,122.475 351.621,122.366 C351.543,122.241 351.433,122.147 351.324,122.069 C351.215,121.991 351.09,121.928 350.949,121.897 C350.871,121.866 350.777,121.866 350.668,121.866 C350.621,121.866 350.574,121.866 350.527,121.866 M350.215,125.1 C350.215,124.959 350.215,124.741 350.215,124.475 C350.23,124.256 350.23,124.053 350.23,123.866 C350.23,123.819 350.23,123.787 350.23,123.741 C350.23,123.522 350.215,123.303 350.215,123.1 C350.215,123.069 350.199,123.037 350.199,122.959 C350.183,122.881 350.168,122.803 350.168,122.741 C350.152,122.709 350.152,122.678 350.152,122.647 C350.152,122.616 350.152,122.584 350.168,122.553 C350.168,122.491 350.199,122.444 350.23,122.412 C350.277,122.381 350.324,122.366 350.386,122.366 C350.402,122.366 350.402,122.366 350.418,122.366 C350.496,122.381 350.574,122.397 350.668,122.444 C350.746,122.491 350.824,122.553 350.902,122.616 C350.98,122.678 351.043,122.741 351.105,122.787 C351.168,122.85 351.199,122.897 351.23,122.944 C351.308,123.069 351.371,123.225 351.402,123.381 C351.418,123.475 351.418,123.553 351.418,123.647 C351.418,123.709 351.418,123.787 351.418,123.85 C351.386,124.006 351.34,124.147 351.277,124.303 C351.215,124.444 351.121,124.569 351.027,124.694 C350.918,124.803 350.793,124.897 350.668,124.959 C350.527,125.037 350.371,125.084 350.215,125.1"/>
<path class="Harmony" d="M387.433,35.3858 C383.73,35.8546 380.215,36.714 376.793,37.9483 C373.371,39.1827 370.23,40.8858 367.199,42.8858 C364.152,44.8858 361.402,47.1671 359.027,49.7296 C356.652,52.2921 354.652,55.2296 352.949,58.5577 C351.23,61.8858 350.09,65.4015 349.433,69.1046 C348.949,71.3858 348.761,73.7608 348.761,76.1358 L348.761,76.8077 C348.761,79.0733 348.855,81.2608 349.136,83.4483 C349.433,85.8233 349.996,88.1983 350.761,90.3858 C351.621,92.6671 352.558,94.8546 353.605,96.839 C354.652,98.839 355.98,100.651 357.511,102.261 C359.027,103.87 360.918,105.198 362.824,106.339 C364.73,107.48 366.902,108.339 369.277,108.823 C370.902,109.105 372.511,109.292 374.136,109.292 C374.98,109.292 375.933,109.292 376.98,109.198 C379.918,108.917 382.683,108.245 385.246,107.292 C387.808,106.339 390.183,105.198 392.183,103.87 C394.168,102.542 396.168,100.839 397.98,98.9327 C399.777,97.0421 401.496,94.9483 402.918,92.8546 C404.34,90.7608 405.668,88.3858 407.09,85.7296 C409.277,81.3546 410.324,77.6515 410.324,74.714 C410.324,71.7608 409.277,69.4796 407.09,67.8702 C405.855,66.8233 403.777,66.1671 401.011,65.6827 C399.027,65.4015 397.027,65.214 395.027,65.214 L394.558,65.214 L392.465,65.214 C389.527,65.3077 386.761,65.7765 384.105,66.6358 C381.449,67.4952 379.636,68.5421 378.683,69.7765 C378.402,70.2452 378.121,70.6202 377.84,71.0108 C377.168,72.0577 376.793,72.9952 376.793,73.8546 C376.793,75.089 377.652,75.9483 379.261,76.4171 C380.59,76.8077 383.152,76.9952 386.855,76.9952 L387.715,76.9952 C388.949,77.089 389.902,77.089 390.558,77.089 C394.465,77.089 396.84,77.5577 397.59,78.6046 C397.886,78.9796 398.168,79.5577 398.168,80.1202 C398.168,80.6983 398.074,81.2608 397.98,81.839 C397.886,82.4015 397.59,83.0733 397.308,83.8233 C397.027,84.589 396.746,85.1671 396.449,85.6358 C396.168,86.1046 395.886,86.7765 395.511,87.5421 C395.121,88.2921 394.84,88.6827 394.746,88.8702 C394.277,89.714 393.98,90.3858 393.699,90.8546 C393.418,91.339 393.027,91.8077 392.558,92.4796 C392.09,93.1358 391.511,93.714 391.043,94.089 C389.043,95.6046 386.855,96.6515 384.293,97.1358 L381.058,97.5108 L380.683,97.5108 C379.449,97.4171 378.121,97.3233 376.886,97.0421 C374.511,96.5577 372.136,95.6983 369.949,94.3702 C367.761,93.0421 365.871,91.4327 364.433,89.5265 C363.011,87.5421 361.683,85.1671 360.73,82.4952 C359.777,79.839 359.215,77.089 359.027,74.1358 C358.933,73.089 358.933,72.1515 358.933,71.1046 C358.933,69.1983 359.027,67.3077 359.308,65.4952 C359.777,62.7452 360.636,60.0733 361.965,57.6046 C363.293,55.1358 365.011,53.1515 367.105,51.6202 C369.668,49.6358 372.793,48.1983 376.402,47.2608 C378.402,46.6827 380.402,46.4015 382.293,46.4015 C383.636,46.4015 384.965,46.589 386.199,46.8702 C387.246,47.1671 388.277,47.5421 389.527,48.1046 C390.761,48.6827 391.793,49.2452 392.746,49.8233 C393.699,50.3858 394.746,50.964 395.793,51.5265 C396.84,52.1046 397.886,52.5733 398.824,52.7608 C399.777,52.9483 400.73,53.0577 401.683,52.9483 C402.636,52.8546 403.574,52.3858 404.527,51.5265 C405.48,50.6827 406.34,49.5421 407.183,48.1046 C407.668,47.2608 407.949,46.4015 407.949,45.5421 C407.949,44.8858 407.761,44.3077 407.48,43.6515 C406.715,42.214 405.48,40.9796 403.777,39.9327 C402.058,38.9015 400.261,37.9483 398.168,37.1827 C396.074,36.4171 394.074,35.9483 392.09,35.6671 C390.652,35.3858 389.527,35.2921 388.574,35.2921 C388.09,35.2921 387.715,35.2921 387.433,35.3858"/>
<path class="Harmony" d="M1046.9,51.7874 C1043.2,52.2562 1039.68,53.1155 1036.26,54.3499 C1032.84,55.5843 1029.7,57.2874 1026.67,59.2874 C1023.62,61.2874 1020.87,63.5687 1018.49,66.1312 C1016.12,68.6937 1014.12,71.6312 1012.42,74.9593 C1010.7,78.2874 1009.56,81.803 1008.9,85.5062 C1008.42,87.7874 1008.23,90.1624 1008.23,92.5374 L1008.23,93.2093 C1008.23,95.4749 1008.32,97.6624 1008.6,99.8499 C1008.9,102.225 1009.46,104.6 1010.23,106.787 C1011.09,109.069 1012.03,111.256 1013.07,113.241 C1014.12,115.241 1015.45,117.053 1016.98,118.662 C1018.49,120.272 1020.38,121.6 1022.29,122.741 C1024.2,123.881 1026.37,124.741 1028.74,125.225 C1030.37,125.506 1031.98,125.694 1033.6,125.694 C1034.45,125.694 1035.4,125.694 1036.45,125.6 C1039.38,125.319 1042.15,124.647 1044.71,123.694 C1047.28,122.741 1049.65,121.6 1051.65,120.272 C1053.63,118.944 1055.63,117.241 1057.45,115.334 C1059.24,113.444 1060.96,111.35 1062.38,109.256 C1063.81,107.162 1065.13,104.787 1066.56,102.131 C1068.74,97.7562 1069.79,94.053 1069.79,91.1155 C1069.79,88.1624 1068.74,85.8812 1066.56,84.2718 C1065.32,83.2249 1063.24,82.5687 1060.48,82.0843 C1058.49,81.803 1056.49,81.6155 1054.49,81.6155 L1054.03,81.6155 L1051.93,81.6155 C1048.99,81.7093 1046.23,82.178 1043.57,83.0374 C1040.92,83.8968 1039.1,84.9437 1038.15,86.178 C1037.87,86.6468 1037.59,87.0218 1037.31,87.4124 C1036.63,88.4593 1036.26,89.3968 1036.26,90.2562 C1036.26,91.4905 1037.12,92.3499 1038.73,92.8187 C1040.06,93.2093 1042.62,93.3968 1046.32,93.3968 L1047.18,93.3968 C1048.42,93.4905 1049.37,93.4905 1050.03,93.4905 C1053.93,93.4905 1056.31,93.9593 1057.06,95.0062 C1057.35,95.3812 1057.63,95.9593 1057.63,96.5218 C1057.63,97.0999 1057.54,97.6624 1057.45,98.2405 C1057.35,98.803 1057.06,99.4749 1056.78,100.225 C1056.49,100.991 1056.21,101.569 1055.92,102.037 C1055.63,102.506 1055.35,103.178 1054.98,103.944 C1054.59,104.694 1054.31,105.084 1054.21,105.272 C1053.74,106.116 1053.45,106.787 1053.17,107.256 C1052.88,107.741 1052.49,108.209 1052.03,108.881 C1051.56,109.537 1050.98,110.116 1050.51,110.491 C1048.51,112.006 1046.32,113.053 1043.76,113.537 L1040.53,113.912 L1040.15,113.912 C1038.92,113.819 1037.59,113.725 1036.35,113.444 C1033.98,112.959 1031.6,112.1 1029.42,110.772 C1027.23,109.444 1025.34,107.834 1023.9,105.928 C1022.48,103.944 1021.15,101.569 1020.2,98.8968 C1019.24,96.2405 1018.68,93.4905 1018.49,90.5374 C1018.4,89.4905 1018.4,88.553 1018.4,87.5062 C1018.4,85.5999 1018.49,83.7093 1018.78,81.8968 C1019.24,79.1468 1020.1,76.4749 1021.43,74.0062 C1022.76,71.5374 1024.48,69.553 1026.57,68.0218 C1029.13,66.0374 1032.26,64.5999 1035.87,63.6624 C1037.87,63.0843 1039.87,62.803 1041.76,62.803 C1043.1,62.803 1044.43,62.9905 1045.67,63.2718 C1046.71,63.5687 1047.74,63.9437 1048.99,64.5062 C1050.23,65.0843 1051.26,65.6468 1052.21,66.2249 C1053.17,66.7874 1054.21,67.3655 1055.26,67.928 C1056.31,68.5062 1057.35,68.9749 1058.29,69.1624 C1059.24,69.3499 1060.2,69.4593 1061.15,69.3499 C1062.1,69.2562 1063.04,68.7874 1063.99,67.928 C1064.95,67.0843 1065.81,65.9437 1066.65,64.5062 C1067.13,63.6624 1067.42,62.803 1067.42,61.9437 C1067.42,61.2874 1067.23,60.7093 1066.95,60.053 C1066.18,58.6155 1064.95,57.3812 1063.24,56.3343 C1061.53,55.303 1059.73,54.3499 1057.63,53.5843 C1055.54,52.8187 1053.54,52.3499 1051.56,52.0687 C1050.12,51.7874 1048.99,51.6937 1048.04,51.6937 C1047.56,51.6937 1047.18,51.6937 1046.9,51.7874"/>
<path class="Harmony" d="M1685.46,51.3968 C1684.99,51.4905 1684.23,51.5843 1682.99,51.6937 C1681.76,51.7874 1680.81,51.9749 1680.15,52.0687 C1679.48,52.1624 1678.52,52.2562 1677.38,52.4437 C1676.24,52.6312 1675.4,52.928 1674.63,53.2093 C1673.87,53.4905 1673.02,53.8655 1672.26,54.3499 C1671.49,54.8187 1670.84,55.303 1670.35,55.9593 C1669.7,56.6312 1669.21,57.3812 1668.84,58.1468 C1668.46,58.9124 1668.18,59.8499 1668.07,60.803 C1667.98,61.4749 1667.98,62.1312 1667.98,62.803 L1667.98,63.3655 C1668.07,64.0374 1668.07,64.9905 1668.18,66.1312 C1668.27,67.2718 1668.27,68.2093 1668.27,68.8812 C1668.27,79.7093 1668.56,90.3499 1669.02,100.897 C1669.12,101.459 1669.12,102.037 1669.12,102.709 C1669.02,104.694 1668.93,107.35 1668.74,110.491 C1668.46,114.194 1668.27,116.959 1668.27,118.756 L1668.27,119.334 L1668.27,120.944 C1668.27,121.412 1668.46,121.897 1668.56,122.459 C1668.65,123.037 1668.84,123.506 1669.12,123.787 C1669.41,124.084 1669.7,124.366 1670.16,124.647 C1670.56,124.834 1671.02,124.928 1671.59,124.928 L1671.88,124.928 C1675.2,124.834 1678.52,124.178 1681.85,122.944 C1685.18,121.709 1688.32,120.178 1691.26,118.194 C1694.21,116.194 1696.96,113.819 1699.62,111.069 C1702.27,108.303 1704.56,105.459 1706.46,102.412 C1708.35,99.3812 1709.98,96.2405 1711.21,92.9124 C1712.45,89.5843 1713.1,86.2718 1713.31,83.1312 C1713.4,82.4593 1713.4,81.7093 1713.4,81.0374 C1713.4,79.2405 1713.21,77.3343 1712.82,75.4437 C1712.35,72.7718 1711.59,70.1155 1710.54,67.6468 C1709.49,65.178 1708.16,62.8968 1706.46,60.7093 C1704.74,58.5218 1702.85,56.7249 1700.76,55.2093 C1698.66,53.678 1696.38,52.5374 1693.73,51.8812 C1692.02,51.3968 1690.21,51.2093 1688.41,51.2093 C1687.46,51.2093 1686.51,51.303 1685.46,51.3968 M1679.57,112.772 C1679.57,110.022 1679.66,106.022 1679.76,100.897 C1679.85,96.8187 1679.95,92.9124 1679.95,89.3968 C1679.95,88.553 1679.85,87.6937 1679.85,86.8343 C1679.85,82.6624 1679.76,78.5687 1679.57,74.7718 C1679.57,74.303 1679.48,73.4437 1679.29,72.0218 C1679.1,70.5843 1678.82,69.2562 1678.71,68.0218 C1678.62,67.4593 1678.62,66.8812 1678.62,66.3187 C1678.62,65.6468 1678.62,65.0843 1678.71,64.4124 C1678.91,63.178 1679.29,62.2249 1679.95,61.7562 C1680.81,61.0843 1681.76,60.803 1682.81,60.803 C1683.09,60.8968 1683.37,60.8968 1683.66,60.8968 C1685.09,61.0843 1686.6,61.5687 1688.21,62.428 C1689.84,63.2718 1691.35,64.4124 1692.77,65.553 C1694.21,66.6937 1695.54,67.8343 1696.59,68.9749 C1697.62,70.1155 1698.48,70.9749 1698.96,71.8343 C1700.48,74.303 1701.52,77.053 1702.09,80.0843 C1702.37,81.803 1702.57,83.5062 1702.57,85.2249 C1702.57,86.4593 1702.46,87.6937 1702.37,88.928 C1701.9,91.8655 1701.04,94.7249 1699.81,97.4749 C1698.57,100.225 1696.96,102.709 1695.06,104.881 C1693.07,107.069 1690.79,108.787 1688.12,110.209 C1685.46,111.631 1682.62,112.491 1679.57,112.772"/>
<path class="Harmony" d="M2344.93,51.3968 C2344.46,51.4905 2343.69,51.5843 2342.46,51.6937 C2341.23,51.7874 2340.27,51.9749 2339.62,52.0687 C2338.94,52.1624 2337.99,52.2562 2336.85,52.4437 C2335.71,52.6312 2334.87,52.928 2334.1,53.2093 C2333.33,53.4905 2332.49,53.8655 2331.73,54.3499 C2330.96,54.8187 2330.3,55.303 2329.82,55.9593 C2329.16,56.6312 2328.68,57.3812 2328.3,58.1468 C2327.93,58.9124 2327.65,59.8499 2327.54,60.803 C2327.44,61.4749 2327.44,62.1312 2327.44,62.803 L2327.44,63.3655 C2327.54,64.0374 2327.54,64.9905 2327.65,66.1312 C2327.74,67.2718 2327.74,68.2093 2327.74,68.8812 C2327.74,79.7093 2328.02,90.3499 2328.49,100.897 C2328.58,101.459 2328.58,102.037 2328.58,102.709 C2328.49,104.694 2328.4,107.35 2328.21,110.491 C2327.93,114.194 2327.74,116.959 2327.74,118.756 L2327.74,119.334 L2327.74,120.944 C2327.74,121.412 2327.93,121.897 2328.02,122.459 C2328.12,123.037 2328.3,123.506 2328.58,123.787 C2328.88,124.084 2329.16,124.366 2329.63,124.647 C2330.02,124.834 2330.49,124.928 2331.05,124.928 L2331.35,124.928 C2334.66,124.834 2337.99,124.178 2341.32,122.944 C2344.65,121.709 2347.79,120.178 2350.73,118.194 C2353.68,116.194 2356.43,113.819 2359.08,111.069 C2361.74,108.303 2364.02,105.459 2365.93,102.412 C2367.82,99.3812 2369.44,96.2405 2370.68,92.9124 C2371.91,89.5843 2372.57,86.2718 2372.77,83.1312 C2372.87,82.4593 2372.87,81.7093 2372.87,81.0374 C2372.87,79.2405 2372.68,77.3343 2372.29,75.4437 C2371.82,72.7718 2371.05,70.1155 2370.01,67.6468 C2368.96,65.178 2367.63,62.8968 2365.93,60.7093 C2364.21,58.5218 2362.32,56.7249 2360.23,55.2093 C2358.13,53.678 2355.85,52.5374 2353.19,51.8812 C2351.49,51.3968 2349.68,51.2093 2347.88,51.2093 C2346.93,51.2093 2345.98,51.303 2344.93,51.3968 M2339.04,112.772 C2339.04,110.022 2339.13,106.022 2339.23,100.897 C2339.32,96.8187 2339.41,92.9124 2339.41,89.3968 C2339.41,88.553 2339.32,87.6937 2339.32,86.8343 C2339.32,82.6624 2339.23,78.5687 2339.04,74.7718 C2339.04,74.303 2338.94,73.4437 2338.76,72.0218 C2338.57,70.5843 2338.29,69.2562 2338.18,68.0218 C2338.08,67.4593 2338.08,66.8812 2338.08,66.3187 C2338.08,65.6468 2338.08,65.0843 2338.18,64.4124 C2338.38,63.178 2338.76,62.2249 2339.41,61.7562 C2340.27,61.0843 2341.23,60.803 2342.27,60.803 C2342.55,60.8968 2342.83,60.8968 2343.13,60.8968 C2344.55,61.0843 2346.07,61.5687 2347.68,62.428 C2349.3,63.2718 2350.82,64.4124 2352.24,65.553 C2353.68,66.6937 2355.01,67.8343 2356.05,68.9749 C2357.08,70.1155 2357.94,70.9749 2358.43,71.8343 C2359.94,74.303 2360.99,77.053 2361.55,80.0843 C2361.83,81.803 2362.04,83.5062 2362.04,85.2249 C2362.04,86.4593 2361.93,87.6937 2361.83,88.928 C2361.37,91.8655 2360.51,94.7249 2359.27,97.4749 C2358.04,100.225 2356.43,102.709 2354.52,104.881 C2352.54,107.069 2350.26,108.787 2347.58,110.209 C2344.93,111.631 2342.08,112.491 2339.04,112.772"/>
<path class="Harmony" d="M208.533,361.827 C204.83,362.296 201.314,363.155 197.892,364.389 C194.47,365.624 191.33,367.327 188.298,369.327 C185.252,371.327 182.502,373.608 180.127,376.171 C177.752,378.733 175.752,381.671 174.048,384.999 C172.33,388.327 171.189,391.842 170.533,395.546 C170.048,397.827 169.861,400.202 169.861,402.577 L169.861,403.249 C169.861,405.514 169.955,407.702 170.236,409.889 C170.533,412.264 171.095,414.639 171.861,416.827 C172.72,419.108 173.658,421.296 174.705,423.28 C175.752,425.28 177.08,427.092 178.611,428.702 C180.127,430.311 182.017,431.639 183.923,432.78 C185.83,433.921 188.002,434.78 190.377,435.264 C192.002,435.546 193.611,435.733 195.236,435.733 C196.08,435.733 197.033,435.733 198.08,435.639 C201.017,435.358 203.783,434.686 206.345,433.733 C208.908,432.78 211.283,431.639 213.283,430.311 C215.267,428.983 217.267,427.28 219.08,425.374 C220.877,423.483 222.595,421.389 224.017,419.296 C225.439,417.202 226.767,414.827 228.189,412.171 C230.377,407.796 231.423,404.092 231.423,401.155 C231.423,398.202 230.377,395.921 228.189,394.311 C226.955,393.264 224.877,392.608 222.111,392.124 C220.127,391.842 218.127,391.655 216.127,391.655 L215.658,391.655 L213.564,391.655 C210.627,391.749 207.861,392.217 205.205,393.077 C202.548,393.936 200.736,394.983 199.783,396.217 C199.502,396.686 199.22,397.061 198.939,397.452 C198.267,398.499 197.892,399.436 197.892,400.296 C197.892,401.53 198.752,402.389 200.361,402.858 C201.689,403.249 204.252,403.436 207.955,403.436 L208.814,403.436 C210.048,403.53 211.002,403.53 211.658,403.53 C215.564,403.53 217.939,403.999 218.689,405.046 C218.986,405.421 219.267,405.999 219.267,406.561 C219.267,407.139 219.173,407.702 219.08,408.28 C218.986,408.842 218.689,409.514 218.408,410.264 C218.127,411.03 217.845,411.608 217.548,412.077 C217.267,412.546 216.986,413.217 216.611,413.983 C216.22,414.733 215.939,415.124 215.845,415.311 C215.377,416.155 215.08,416.827 214.798,417.296 C214.517,417.78 214.127,418.249 213.658,418.921 C213.189,419.577 212.611,420.155 212.142,420.53 C210.142,422.046 207.955,423.092 205.392,423.577 L202.158,423.952 L201.783,423.952 C200.548,423.858 199.22,423.764 197.986,423.483 C195.611,422.999 193.236,422.139 191.048,420.811 C188.861,419.483 186.97,417.874 185.533,415.967 C184.111,413.983 182.783,411.608 181.83,408.936 C180.877,406.28 180.314,403.53 180.127,400.577 C180.033,399.53 180.033,398.592 180.033,397.546 C180.033,395.639 180.127,393.749 180.408,391.936 C180.877,389.186 181.736,386.514 183.064,384.046 C184.392,381.577 186.111,379.592 188.205,378.061 C190.767,376.077 193.892,374.639 197.502,373.702 C199.502,373.124 201.502,372.842 203.392,372.842 C204.736,372.842 206.064,373.03 207.298,373.311 C208.345,373.608 209.377,373.983 210.627,374.546 C211.861,375.124 212.892,375.686 213.845,376.264 C214.798,376.827 215.845,377.405 216.892,377.967 C217.939,378.546 218.986,379.014 219.923,379.202 C220.877,379.389 221.83,379.499 222.783,379.389 C223.736,379.296 224.673,378.827 225.627,377.967 C226.58,377.124 227.439,375.983 228.283,374.546 C228.767,373.702 229.048,372.842 229.048,371.983 C229.048,371.327 228.861,370.749 228.58,370.092 C227.814,368.655 226.58,367.421 224.877,366.374 C223.158,365.342 221.361,364.389 219.267,363.624 C217.173,362.858 215.173,362.389 213.189,362.108 C211.752,361.827 210.627,361.733 209.673,361.733 C209.189,361.733 208.814,361.733 208.533,361.827"/>
<path class="Harmony" d="M902.155,361.827 C898.452,362.296 894.936,363.155 891.514,364.389 C888.093,365.624 884.952,367.327 881.921,369.327 C878.874,371.327 876.124,373.608 873.749,376.171 C871.374,378.733 869.374,381.671 867.671,384.999 C865.952,388.327 864.811,391.842 864.155,395.546 C863.671,397.827 863.483,400.202 863.483,402.577 L863.483,403.249 C863.483,405.514 863.577,407.702 863.858,409.889 C864.155,412.264 864.718,414.639 865.483,416.827 C866.343,419.108 867.28,421.296 868.327,423.28 C869.374,425.28 870.702,427.092 872.233,428.702 C873.749,430.311 875.639,431.639 877.546,432.78 C879.452,433.921 881.624,434.78 883.999,435.264 C885.624,435.546 887.233,435.733 888.858,435.733 C889.702,435.733 890.655,435.733 891.702,435.639 C894.639,435.358 897.405,434.686 899.968,433.733 C902.53,432.78 904.905,431.639 906.905,430.311 C908.889,428.983 910.889,427.28 912.702,425.374 C914.499,423.483 916.218,421.389 917.639,419.296 C919.061,417.202 920.389,414.827 921.811,412.171 C923.999,407.796 925.046,404.092 925.046,401.155 C925.046,398.202 923.999,395.921 921.811,394.311 C920.577,393.264 918.499,392.608 915.733,392.124 C913.749,391.842 911.749,391.655 909.749,391.655 L909.28,391.655 L907.186,391.655 C904.249,391.749 901.483,392.217 898.827,393.077 C896.171,393.936 894.358,394.983 893.405,396.217 C893.124,396.686 892.843,397.061 892.561,397.452 C891.889,398.499 891.514,399.436 891.514,400.296 C891.514,401.53 892.374,402.389 893.983,402.858 C895.311,403.249 897.874,403.436 901.577,403.436 L902.436,403.436 C903.671,403.53 904.624,403.53 905.28,403.53 C909.186,403.53 911.561,403.999 912.311,405.046 C912.608,405.421 912.889,405.999 912.889,406.561 C912.889,407.139 912.796,407.702 912.702,408.28 C912.608,408.842 912.311,409.514 912.03,410.264 C911.749,411.03 911.468,411.608 911.171,412.077 C910.889,412.546 910.608,413.217 910.233,413.983 C909.843,414.733 909.561,415.124 909.468,415.311 C908.999,416.155 908.702,416.827 908.421,417.296 C908.139,417.78 907.749,418.249 907.28,418.921 C906.811,419.577 906.233,420.155 905.764,420.53 C903.764,422.046 901.577,423.092 899.014,423.577 L895.78,423.952 L895.405,423.952 C894.171,423.858 892.843,423.764 891.608,423.483 C889.233,422.999 886.858,422.139 884.671,420.811 C882.483,419.483 880.593,417.874 879.155,415.967 C877.733,413.983 876.405,411.608 875.452,408.936 C874.499,406.28 873.936,403.53 873.749,400.577 C873.655,399.53 873.655,398.592 873.655,397.546 C873.655,395.639 873.749,393.749 874.03,391.936 C874.499,389.186 875.358,386.514 876.686,384.046 C878.014,381.577 879.733,379.592 881.827,378.061 C884.389,376.077 887.514,374.639 891.124,373.702 C893.124,373.124 895.124,372.842 897.014,372.842 C898.358,372.842 899.686,373.03 900.921,373.311 C901.968,373.608 902.999,373.983 904.249,374.546 C905.483,375.124 906.514,375.686 907.468,376.264 C908.421,376.827 909.468,377.405 910.514,377.967 C911.561,378.546 912.608,379.014 913.546,379.202 C914.499,379.389 915.452,379.499 916.405,379.389 C917.358,379.296 918.296,378.827 919.249,377.967 C920.202,377.124 921.061,375.983 921.905,374.546 C922.389,373.702 922.671,372.842 922.671,371.983 C922.671,371.327 922.483,370.749 922.202,370.092 C921.436,368.655 920.202,367.421 918.499,366.374 C916.78,365.342 914.983,364.389 912.889,363.624 C910.796,362.858 908.796,362.389 906.811,362.108 C905.374,361.827 904.249,361.733 903.296,361.733 C902.811,361.733 902.436,361.733 902.155,361.827"/>
<path class="Harmony" d="M1574.87,361.436 C1574.4,361.53 1573.64,361.624 1572.4,361.733 C1571.17,361.827 1570.21,362.014 1569.56,362.108 C1568.89,362.202 1567.93,362.296 1566.79,362.483 C1565.65,362.671 1564.81,362.967 1564.04,363.249 C1563.28,363.53 1562.43,363.905 1561.67,364.389 C1560.9,364.858 1560.25,365.342 1559.76,365.999 C1559.11,366.671 1558.62,367.421 1558.25,368.186 C1557.87,368.952 1557.59,369.889 1557.48,370.842 C1557.39,371.514 1557.39,372.171 1557.39,372.842 L1557.39,373.405 C1557.48,374.077 1557.48,375.03 1557.59,376.171 C1557.68,377.311 1557.68,378.249 1557.68,378.921 C1557.68,389.749 1557.96,400.389 1558.43,410.936 C1558.53,411.499 1558.53,412.077 1558.53,412.749 C1558.43,414.733 1558.34,417.389 1558.15,420.53 C1557.87,424.233 1557.68,426.999 1557.68,428.796 L1557.68,429.374 L1557.68,430.983 C1557.68,431.452 1557.87,431.936 1557.96,432.499 C1558.06,433.077 1558.25,433.546 1558.53,433.827 C1558.82,434.124 1559.11,434.405 1559.57,434.686 C1559.96,434.874 1560.43,434.967 1561,434.967 L1561.29,434.967 C1564.61,434.874 1567.93,434.217 1571.26,432.983 C1574.59,431.749 1577.73,430.217 1580.67,428.233 C1583.62,426.233 1586.37,423.858 1589.03,421.108 C1591.68,418.342 1593.96,415.499 1595.87,412.452 C1597.76,409.421 1599.39,406.28 1600.62,402.952 C1601.86,399.624 1602.51,396.311 1602.71,393.171 C1602.81,392.499 1602.81,391.749 1602.81,391.077 C1602.81,389.28 1602.62,387.374 1602.23,385.483 C1601.76,382.811 1601,380.155 1599.95,377.686 C1598.9,375.217 1597.57,372.936 1595.87,370.749 C1594.15,368.561 1592.26,366.764 1590.17,365.249 C1588.07,363.717 1585.79,362.577 1583.14,361.921 C1581.43,361.436 1579.62,361.249 1577.82,361.249 C1576.87,361.249 1575.92,361.342 1574.87,361.436 M1568.98,422.811 C1568.98,420.061 1569.07,416.061 1569.17,410.936 C1569.26,406.858 1569.36,402.952 1569.36,399.436 C1569.36,398.592 1569.26,397.733 1569.26,396.874 C1569.26,392.702 1569.17,388.608 1568.98,384.811 C1568.98,384.342 1568.89,383.483 1568.7,382.061 C1568.51,380.624 1568.23,379.296 1568.12,378.061 C1568.03,377.499 1568.03,376.921 1568.03,376.358 C1568.03,375.686 1568.03,375.124 1568.12,374.452 C1568.32,373.217 1568.7,372.264 1569.36,371.796 C1570.21,371.124 1571.17,370.842 1572.21,370.842 C1572.5,370.936 1572.78,370.936 1573.07,370.936 C1574.5,371.124 1576.01,371.608 1577.62,372.467 C1579.25,373.311 1580.76,374.452 1582.18,375.592 C1583.62,376.733 1584.95,377.874 1586,379.014 C1587.03,380.155 1587.89,381.014 1588.37,381.874 C1589.89,384.342 1590.93,387.092 1591.5,390.124 C1591.78,391.842 1591.98,393.546 1591.98,395.264 C1591.98,396.499 1591.87,397.733 1591.78,398.967 C1591.31,401.905 1590.45,404.764 1589.21,407.514 C1587.98,410.264 1586.37,412.749 1584.46,414.921 C1582.48,417.108 1580.2,418.827 1577.53,420.249 C1574.87,421.671 1572.03,422.53 1568.98,422.811"/>
<path class="Harmony" d="M2289.4,361.827 C2285.7,362.296 2282.18,363.155 2278.76,364.389 C2275.34,365.624 2272.2,367.327 2269.17,369.327 C2266.12,371.327 2263.37,373.608 2260.99,376.171 C2258.62,378.733 2256.62,381.671 2254.92,384.999 C2253.2,388.327 2252.06,391.842 2251.4,395.546 C2250.92,397.827 2250.73,400.202 2250.73,402.577 L2250.73,403.249 C2250.73,405.514 2250.82,407.702 2251.1,409.889 C2251.4,412.264 2251.96,414.639 2252.73,416.827 C2253.59,419.108 2254.52,421.296 2255.57,423.28 C2256.62,425.28 2257.95,427.092 2259.48,428.702 C2260.99,430.311 2262.88,431.639 2264.79,432.78 C2266.7,433.921 2268.87,434.78 2271.24,435.264 C2272.87,435.546 2274.48,435.733 2276.1,435.733 C2276.95,435.733 2277.9,435.733 2278.95,435.639 C2281.88,435.358 2284.65,434.686 2287.21,433.733 C2289.77,432.78 2292.15,431.639 2294.15,430.311 C2296.13,428.983 2298.13,427.28 2299.95,425.374 C2301.74,423.483 2303.46,421.389 2304.88,419.296 C2306.31,417.202 2307.63,414.827 2309.06,412.171 C2311.24,407.796 2312.29,404.092 2312.29,401.155 C2312.29,398.202 2311.24,395.921 2309.06,394.311 C2307.82,393.264 2305.74,392.608 2302.98,392.124 C2300.99,391.842 2298.99,391.655 2296.99,391.655 L2296.52,391.655 L2294.43,391.655 C2291.49,391.749 2288.73,392.217 2286.07,393.077 C2283.42,393.936 2281.6,394.983 2280.65,396.217 C2280.37,396.686 2280.09,397.061 2279.81,397.452 C2279.13,398.499 2278.76,399.436 2278.76,400.296 C2278.76,401.53 2279.62,402.389 2281.23,402.858 C2282.56,403.249 2285.12,403.436 2288.82,403.436 L2289.68,403.436 C2290.92,403.53 2291.87,403.53 2292.52,403.53 C2296.43,403.53 2298.81,403.999 2299.56,405.046 C2299.85,405.421 2300.13,405.999 2300.13,406.561 C2300.13,407.139 2300.04,407.702 2299.95,408.28 C2299.85,408.842 2299.56,409.514 2299.27,410.264 C2298.99,411.03 2298.71,411.608 2298.42,412.077 C2298.13,412.546 2297.85,413.217 2297.48,413.983 C2297.09,414.733 2296.81,415.124 2296.71,415.311 C2296.24,416.155 2295.95,416.827 2295.67,417.296 C2295.38,417.78 2294.99,418.249 2294.52,418.921 C2294.06,419.577 2293.48,420.155 2293.01,420.53 C2291.01,422.046 2288.82,423.092 2286.26,423.577 L2283.02,423.952 L2282.65,423.952 C2281.42,423.858 2280.09,423.764 2278.85,423.483 C2276.48,422.999 2274.1,422.139 2271.92,420.811 C2269.73,419.483 2267.84,417.874 2266.4,415.967 C2264.98,413.983 2263.65,411.608 2262.7,408.936 C2261.74,406.28 2261.18,403.53 2260.99,400.577 C2260.9,399.53 2260.9,398.592 2260.9,397.546 C2260.9,395.639 2260.99,393.749 2261.27,391.936 C2261.74,389.186 2262.6,386.514 2263.93,384.046 C2265.26,381.577 2266.98,379.592 2269.07,378.061 C2271.63,376.077 2274.76,374.639 2278.37,373.702 C2280.37,373.124 2282.37,372.842 2284.26,372.842 C2285.6,372.842 2286.93,373.03 2288.17,373.311 C2289.21,373.608 2290.24,373.983 2291.49,374.546 C2292.73,375.124 2293.76,375.686 2294.71,376.264 C2295.67,376.827 2296.71,377.405 2297.76,377.967 C2298.81,378.546 2299.85,379.014 2300.79,379.202 C2301.74,379.389 2302.7,379.499 2303.65,379.389 C2304.6,379.296 2305.54,378.827 2306.49,377.967 C2307.45,377.124 2308.31,375.983 2309.15,374.546 C2309.63,373.702 2309.92,372.842 2309.92,371.983 C2309.92,371.327 2309.73,370.749 2309.45,370.092 C2308.68,368.655 2307.45,367.421 2305.74,366.374 C2304.02,365.342 2302.23,364.389 2300.13,363.624 C2298.04,362.858 2296.04,362.389 2294.06,362.108 C2292.62,361.827 2291.49,361.733 2290.54,361.733 C2290.06,361.733 2289.68,361.733 2289.4,361.827"/>
<path class="Harmony" d="M204.595,679.206 C201.361,679.69 198.127,680.643 195.002,682.159 C191.861,683.675 189.002,685.581 186.439,687.862 C183.877,690.143 181.502,692.706 179.314,695.643 C177.127,698.596 175.423,701.628 174.002,704.768 C172.58,707.909 171.627,711.221 171.048,714.737 C170.767,716.643 170.58,718.55 170.58,720.346 C170.58,721.862 170.673,723.393 170.861,724.815 C171.345,727.753 172.189,730.706 173.517,733.456 C174.861,736.221 176.377,738.784 178.267,741.159 C180.173,743.534 182.548,745.518 185.111,747.331 C187.673,749.128 190.236,750.471 193.002,751.409 C195.564,752.268 198.22,752.737 201.173,752.737 L201.455,752.737 L201.736,752.737 C204.877,752.643 207.908,752.081 210.861,750.94 C211.72,750.659 212.564,750.362 213.423,749.987 C214.283,749.612 215.236,749.128 216.47,748.471 C217.705,747.8 218.752,747.237 219.783,746.565 C220.83,745.909 221.783,745.143 222.736,744.284 C223.689,743.44 224.439,742.487 224.923,741.628 C225.392,740.768 225.673,739.925 225.673,738.878 C225.58,737.831 225.205,736.784 224.533,735.737 C224.252,735.268 223.783,734.971 223.298,734.784 C222.83,734.596 222.252,734.503 221.783,734.596 C221.314,734.69 220.83,734.878 220.267,735.175 C219.689,735.456 219.127,735.737 218.642,735.925 C218.173,736.112 217.705,736.409 217.127,736.784 C216.564,737.159 216.173,737.456 215.892,737.55 C212.564,739.346 209.345,740.3 206.017,740.3 C202.97,740.3 200.033,739.534 197.08,738.018 C194.33,736.596 191.767,734.971 189.486,733.081 C187.205,731.175 185.486,729.081 184.252,726.706 C183.22,724.534 182.361,722.253 181.877,719.878 C181.408,717.69 181.22,715.596 181.22,713.409 L181.22,712.659 C181.22,710.284 181.595,707.909 182.361,705.534 C183.111,703.159 184.064,700.971 185.298,699.065 C186.533,697.175 188.252,695.456 190.236,694.034 C192.236,692.612 194.517,691.659 197.08,691.19 C197.658,690.987 198.314,690.893 198.986,690.893 C199.455,690.987 199.939,690.987 200.408,691.081 C201.642,691.284 202.97,691.565 204.298,691.94 C205.627,692.221 206.97,692.706 208.298,693.362 L212.283,695.081 C213.611,695.643 214.939,696.034 216.173,696.503 C217.408,696.971 218.642,697.175 219.877,697.268 C220.267,697.362 220.642,697.362 220.923,697.362 C221.689,697.268 222.455,697.175 223.111,697.081 C224.064,696.878 224.923,696.315 225.767,695.456 C226.627,694.596 227.392,693.565 227.861,692.128 C228.048,691.471 228.142,690.893 228.142,690.331 C228.252,689.846 228.142,689.378 227.955,688.909 C227.767,688.425 227.486,688.05 227.205,687.675 C226.908,687.19 226.533,686.909 226.064,686.534 C225.58,686.143 225.205,685.768 224.83,685.487 C224.439,685.206 223.877,684.815 223.392,684.534 C217.502,680.831 212.095,679.018 207.064,679.018 C206.205,679.018 205.439,679.112 204.595,679.206"/>
<path class="Harmony" d="M908.788,679.206 C905.553,679.69 902.319,680.643 899.194,682.159 C896.053,683.675 893.194,685.581 890.631,687.862 C888.069,690.143 885.694,692.706 883.506,695.643 C881.319,698.596 879.616,701.628 878.194,704.768 C876.772,707.909 875.819,711.221 875.241,714.737 C874.959,716.643 874.772,718.55 874.772,720.346 C874.772,721.862 874.866,723.393 875.053,724.815 C875.538,727.753 876.381,730.706 877.709,733.456 C879.053,736.221 880.569,738.784 882.459,741.159 C884.366,743.534 886.741,745.518 889.303,747.331 C891.866,749.128 894.428,750.471 897.194,751.409 C899.756,752.268 902.413,752.737 905.366,752.737 L905.647,752.737 L905.928,752.737 C909.069,752.643 912.1,752.081 915.053,750.94 C915.913,750.659 916.756,750.362 917.616,749.987 C918.475,749.612 919.428,749.128 920.663,748.471 C921.897,747.8 922.944,747.237 923.975,746.565 C925.022,745.909 925.975,745.143 926.928,744.284 C927.881,743.44 928.631,742.487 929.116,741.628 C929.584,740.768 929.866,739.925 929.866,738.878 C929.772,737.831 929.397,736.784 928.725,735.737 C928.444,735.268 927.975,734.971 927.491,734.784 C927.022,734.596 926.444,734.503 925.975,734.596 C925.506,734.69 925.022,734.878 924.459,735.175 C923.881,735.456 923.319,735.737 922.834,735.925 C922.366,736.112 921.897,736.409 921.319,736.784 C920.756,737.159 920.366,737.456 920.084,737.55 C916.756,739.346 913.538,740.3 910.209,740.3 C907.163,740.3 904.225,739.534 901.272,738.018 C898.522,736.596 895.959,734.971 893.678,733.081 C891.397,731.175 889.678,729.081 888.444,726.706 C887.413,724.534 886.553,722.253 886.069,719.878 C885.6,717.69 885.413,715.596 885.413,713.409 L885.413,712.659 C885.413,710.284 885.788,707.909 886.553,705.534 C887.303,703.159 888.256,700.971 889.491,699.065 C890.725,697.175 892.444,695.456 894.428,694.034 C896.428,692.612 898.709,691.659 901.272,691.19 C901.85,690.987 902.506,690.893 903.178,690.893 C903.647,690.987 904.131,690.987 904.6,691.081 C905.834,691.284 907.163,691.565 908.491,691.94 C909.819,692.221 911.163,692.706 912.491,693.362 L916.475,695.081 C917.803,695.643 919.131,696.034 920.366,696.503 C921.6,696.971 922.834,697.175 924.069,697.268 C924.459,697.362 924.834,697.362 925.116,697.362 C925.881,697.268 926.647,697.175 927.303,697.081 C928.256,696.878 929.116,696.315 929.959,695.456 C930.819,694.596 931.584,693.565 932.053,692.128 C932.241,691.471 932.334,690.893 932.334,690.331 C932.444,689.846 932.334,689.378 932.147,688.909 C931.959,688.425 931.678,688.05 931.397,687.675 C931.1,687.19 930.725,686.909 930.256,686.534 C929.772,686.143 929.397,685.768 929.022,685.487 C928.631,685.206 928.069,684.815 927.584,684.534 C921.694,680.831 916.288,679.018 911.256,679.018 C910.397,679.018 909.631,679.112 908.788,679.206"/>
<path class="Harmony" d="M1596.01,679.018 C1595.54,679.112 1594.78,679.206 1593.54,679.315 C1592.31,679.409 1591.35,679.596 1590.7,679.69 C1590.03,679.784 1589.07,679.878 1587.93,680.065 C1586.79,680.253 1585.95,680.55 1585.18,680.831 C1584.42,681.112 1583.57,681.487 1582.81,681.971 C1582.04,682.44 1581.39,682.925 1580.9,683.581 C1580.25,684.253 1579.76,685.003 1579.39,685.768 C1579.01,686.534 1578.73,687.471 1578.62,688.425 C1578.53,689.096 1578.53,689.753 1578.53,690.425 L1578.53,690.987 C1578.62,691.659 1578.62,692.612 1578.73,693.753 C1578.82,694.893 1578.82,695.831 1578.82,696.503 C1578.82,707.331 1579.1,717.971 1579.57,728.518 C1579.67,729.081 1579.67,729.659 1579.67,730.331 C1579.57,732.315 1579.48,734.971 1579.29,738.112 C1579.01,741.815 1578.82,744.581 1578.82,746.378 L1578.82,746.956 L1578.82,748.565 C1578.82,749.034 1579.01,749.518 1579.1,750.081 C1579.2,750.659 1579.39,751.128 1579.67,751.409 C1579.96,751.706 1580.25,751.987 1580.71,752.268 C1581.1,752.456 1581.57,752.55 1582.14,752.55 L1582.43,752.55 C1585.75,752.456 1589.07,751.8 1592.4,750.565 C1595.73,749.331 1598.87,747.8 1601.81,745.815 C1604.76,743.815 1607.51,741.44 1610.17,738.69 C1612.82,735.925 1615.1,733.081 1617.01,730.034 C1618.9,727.003 1620.53,723.862 1621.76,720.534 C1623,717.206 1623.65,713.893 1623.85,710.753 C1623.95,710.081 1623.95,709.331 1623.95,708.659 C1623.95,706.862 1623.76,704.956 1623.37,703.065 C1622.9,700.393 1622.14,697.737 1621.09,695.268 C1620.04,692.8 1618.71,690.518 1617.01,688.331 C1615.29,686.143 1613.4,684.346 1611.31,682.831 C1609.21,681.3 1606.93,680.159 1604.28,679.503 C1602.57,679.018 1600.76,678.831 1598.96,678.831 C1598.01,678.831 1597.06,678.925 1596.01,679.018 M1590.12,740.393 C1590.12,737.643 1590.21,733.643 1590.31,728.518 C1590.4,724.44 1590.5,720.534 1590.5,717.018 C1590.5,716.175 1590.4,715.315 1590.4,714.456 C1590.4,710.284 1590.31,706.19 1590.12,702.393 C1590.12,701.925 1590.03,701.065 1589.84,699.643 C1589.65,698.206 1589.37,696.878 1589.26,695.643 C1589.17,695.081 1589.17,694.503 1589.17,693.94 C1589.17,693.268 1589.17,692.706 1589.26,692.034 C1589.46,690.8 1589.84,689.846 1590.5,689.378 C1591.35,688.706 1592.31,688.425 1593.35,688.425 C1593.64,688.518 1593.92,688.518 1594.21,688.518 C1595.64,688.706 1597.15,689.19 1598.76,690.05 C1600.39,690.893 1601.9,692.034 1603.32,693.175 C1604.76,694.315 1606.09,695.456 1607.14,696.596 C1608.17,697.737 1609.03,698.596 1609.51,699.456 C1611.03,701.925 1612.07,704.675 1612.64,707.706 C1612.92,709.425 1613.12,711.128 1613.12,712.846 C1613.12,714.081 1613.01,715.315 1612.92,716.55 C1612.45,719.487 1611.59,722.346 1610.35,725.096 C1609.12,727.846 1607.51,730.331 1605.6,732.503 C1603.62,734.69 1601.34,736.409 1598.67,737.831 C1596.01,739.253 1593.17,740.112 1590.12,740.393"/>
<path class="Harmony" d="M2300.2,679.018 C2299.73,679.112 2298.97,679.206 2297.73,679.315 C2296.5,679.409 2295.55,679.596 2294.89,679.69 C2294.22,679.784 2293.27,679.878 2292.13,680.065 C2290.98,680.253 2290.14,680.55 2289.38,680.831 C2288.61,681.112 2287.77,681.487 2287,681.971 C2286.23,682.44 2285.58,682.925 2285.09,683.581 C2284.44,684.253 2283.95,685.003 2283.58,685.768 C2283.2,686.534 2282.92,687.471 2282.81,688.425 C2282.72,689.096 2282.72,689.753 2282.72,690.425 L2282.72,690.987 C2282.81,691.659 2282.81,692.612 2282.92,693.753 C2283.02,694.893 2283.02,695.831 2283.02,696.503 C2283.02,707.331 2283.3,717.971 2283.77,728.518 C2283.86,729.081 2283.86,729.659 2283.86,730.331 C2283.77,732.315 2283.67,734.971 2283.48,738.112 C2283.2,741.815 2283.02,744.581 2283.02,746.378 L2283.02,746.956 L2283.02,748.565 C2283.02,749.034 2283.2,749.518 2283.3,750.081 C2283.39,750.659 2283.58,751.128 2283.86,751.409 C2284.16,751.706 2284.44,751.987 2284.91,752.268 C2285.3,752.456 2285.77,752.55 2286.33,752.55 L2286.63,752.55 C2289.94,752.456 2293.27,751.8 2296.59,750.565 C2299.92,749.331 2303.06,747.8 2306,745.815 C2308.95,743.815 2311.7,741.44 2314.36,738.69 C2317.02,735.925 2319.3,733.081 2321.2,730.034 C2323.09,727.003 2324.72,723.862 2325.95,720.534 C2327.19,717.206 2327.84,713.893 2328.05,710.753 C2328.14,710.081 2328.14,709.331 2328.14,708.659 C2328.14,706.862 2327.95,704.956 2327.56,703.065 C2327.09,700.393 2326.33,697.737 2325.28,695.268 C2324.23,692.8 2322.91,690.518 2321.2,688.331 C2319.48,686.143 2317.59,684.346 2315.5,682.831 C2313.41,681.3 2311.13,680.159 2308.47,679.503 C2306.77,679.018 2304.95,678.831 2303.16,678.831 C2302.2,678.831 2301.25,678.925 2300.2,679.018 M2294.31,740.393 C2294.31,737.643 2294.41,733.643 2294.5,728.518 C2294.59,724.44 2294.69,720.534 2294.69,717.018 C2294.69,716.175 2294.59,715.315 2294.59,714.456 C2294.59,710.284 2294.5,706.19 2294.31,702.393 C2294.31,701.925 2294.22,701.065 2294.03,699.643 C2293.84,698.206 2293.56,696.878 2293.45,695.643 C2293.36,695.081 2293.36,694.503 2293.36,693.94 C2293.36,693.268 2293.36,692.706 2293.45,692.034 C2293.66,690.8 2294.03,689.846 2294.69,689.378 C2295.55,688.706 2296.5,688.425 2297.55,688.425 C2297.83,688.518 2298.11,688.518 2298.41,688.518 C2299.83,688.706 2301.34,689.19 2302.95,690.05 C2304.58,690.893 2306.09,692.034 2307.52,693.175 C2308.95,694.315 2310.28,695.456 2311.33,696.596 C2312.36,697.737 2313.22,698.596 2313.7,699.456 C2315.22,701.925 2316.27,704.675 2316.83,707.706 C2317.11,709.425 2317.31,711.128 2317.31,712.846 C2317.31,714.081 2317.2,715.315 2317.11,716.55 C2316.64,719.487 2315.78,722.346 2314.55,725.096 C2313.31,727.846 2311.7,730.331 2309.8,732.503 C2307.81,734.69 2305.53,736.409 2302.86,737.831 C2300.2,739.253 2297.36,740.112 2294.31,740.393"/>
<path class="Harmony" d="M204.595,989.245 C201.361,989.73 198.127,990.683 195.002,992.198 C191.861,993.714 189.002,995.62 186.439,997.901 C183.877,1000.18 181.502,1002.75 179.314,1005.68 C177.127,1008.64 175.423,1011.67 174.002,1014.81 C172.58,1017.95 171.627,1021.26 171.048,1024.78 C170.767,1026.68 170.58,1028.59 170.58,1030.39 C170.58,1031.9 170.673,1033.43 170.861,1034.85 C171.345,1037.79 172.189,1040.75 173.517,1043.5 C174.861,1046.26 176.377,1048.82 178.267,1051.2 C180.173,1053.57 182.548,1055.56 185.111,1057.37 C187.673,1059.17 190.236,1060.51 193.002,1061.45 C195.564,1062.31 198.22,1062.78 201.173,1062.78 L201.455,1062.78 L201.736,1062.78 C204.877,1062.68 207.908,1062.12 210.861,1060.98 C211.72,1060.7 212.564,1060.4 213.423,1060.03 C214.283,1059.65 215.236,1059.17 216.47,1058.51 C217.705,1057.84 218.752,1057.28 219.783,1056.6 C220.83,1055.95 221.783,1055.18 222.736,1054.32 C223.689,1053.48 224.439,1052.53 224.923,1051.67 C225.392,1050.81 225.673,1049.96 225.673,1048.92 C225.58,1047.87 225.205,1046.82 224.533,1045.78 C224.252,1045.31 223.783,1045.01 223.298,1044.82 C222.83,1044.64 222.252,1044.54 221.783,1044.64 C221.314,1044.73 220.83,1044.92 220.267,1045.21 C219.689,1045.5 219.127,1045.78 218.642,1045.96 C218.173,1046.15 217.705,1046.45 217.127,1046.82 C216.564,1047.2 216.173,1047.5 215.892,1047.59 C212.564,1049.39 209.345,1050.34 206.017,1050.34 C202.97,1050.34 200.033,1049.57 197.08,1048.06 C194.33,1046.64 191.767,1045.01 189.486,1043.12 C187.205,1041.21 185.486,1039.12 184.252,1036.75 C183.22,1034.57 182.361,1032.29 181.877,1029.92 C181.408,1027.73 181.22,1025.64 181.22,1023.45 L181.22,1022.7 C181.22,1020.32 181.595,1017.95 182.361,1015.57 C183.111,1013.2 184.064,1011.01 185.298,1009.1 C186.533,1007.21 188.252,1005.5 190.236,1004.07 C192.236,1002.65 194.517,1001.7 197.08,1001.23 C197.658,1001.03 198.314,1000.93 198.986,1000.93 C199.455,1001.03 199.939,1001.03 200.408,1001.12 C201.642,1001.32 202.97,1001.6 204.298,1001.98 C205.627,1002.26 206.97,1002.75 208.298,1003.4 L212.283,1005.12 C213.611,1005.68 214.939,1006.07 216.173,1006.54 C217.408,1007.01 218.642,1007.21 219.877,1007.31 C220.267,1007.4 220.642,1007.4 220.923,1007.4 C221.689,1007.31 222.455,1007.21 223.111,1007.12 C224.064,1006.92 224.923,1006.35 225.767,1005.5 C226.627,1004.64 227.392,1003.6 227.861,1002.17 C228.048,1001.51 228.142,1000.93 228.142,1000.37 C228.252,999.886 228.142,999.417 227.955,998.948 C227.767,998.464 227.486,998.089 227.205,997.714 C226.908,997.23 226.533,996.948 226.064,996.573 C225.58,996.183 225.205,995.808 224.83,995.526 C224.439,995.245 223.877,994.855 223.392,994.573 C217.502,990.87 212.095,989.058 207.064,989.058 C206.205,989.058 205.439,989.151 204.595,989.245"/>
<path class="Harmony" d="M886.126,989.245 C882.892,989.73 879.657,990.683 876.532,992.198 C873.392,993.714 870.532,995.62 867.97,997.901 C865.407,1000.18 863.032,1002.75 860.845,1005.68 C858.657,1008.64 856.954,1011.67 855.532,1014.81 C854.11,1017.95 853.157,1021.26 852.579,1024.78 C852.298,1026.68 852.11,1028.59 852.11,1030.39 C852.11,1031.9 852.204,1033.43 852.392,1034.85 C852.876,1037.79 853.72,1040.75 855.048,1043.5 C856.392,1046.26 857.907,1048.82 859.798,1051.2 C861.704,1053.57 864.079,1055.56 866.642,1057.37 C869.204,1059.17 871.767,1060.51 874.532,1061.45 C877.095,1062.31 879.751,1062.78 882.704,1062.78 L882.985,1062.78 L883.267,1062.78 C886.407,1062.68 889.439,1062.12 892.392,1060.98 C893.251,1060.7 894.095,1060.4 894.954,1060.03 C895.814,1059.65 896.767,1059.17 898.001,1058.51 C899.235,1057.84 900.282,1057.28 901.314,1056.6 C902.36,1055.95 903.314,1055.18 904.267,1054.32 C905.22,1053.48 905.97,1052.53 906.454,1051.67 C906.923,1050.81 907.204,1049.96 907.204,1048.92 C907.11,1047.87 906.735,1046.82 906.064,1045.78 C905.782,1045.31 905.314,1045.01 904.829,1044.82 C904.36,1044.64 903.782,1044.54 903.314,1044.64 C902.845,1044.73 902.36,1044.92 901.798,1045.21 C901.22,1045.5 900.657,1045.78 900.173,1045.96 C899.704,1046.15 899.235,1046.45 898.657,1046.82 C898.095,1047.2 897.704,1047.5 897.423,1047.59 C894.095,1049.39 890.876,1050.34 887.548,1050.34 C884.501,1050.34 881.564,1049.57 878.61,1048.06 C875.86,1046.64 873.298,1045.01 871.017,1043.12 C868.735,1041.21 867.017,1039.12 865.782,1036.75 C864.751,1034.57 863.892,1032.29 863.407,1029.92 C862.939,1027.73 862.751,1025.64 862.751,1023.45 L862.751,1022.7 C862.751,1020.32 863.126,1017.95 863.892,1015.57 C864.642,1013.2 865.595,1011.01 866.829,1009.1 C868.064,1007.21 869.782,1005.5 871.767,1004.07 C873.767,1002.65 876.048,1001.7 878.61,1001.23 C879.189,1001.03 879.845,1000.93 880.517,1000.93 C880.985,1001.03 881.47,1001.03 881.939,1001.12 C883.173,1001.32 884.501,1001.6 885.829,1001.98 C887.157,1002.26 888.501,1002.75 889.829,1003.4 L893.814,1005.12 C895.142,1005.68 896.47,1006.07 897.704,1006.54 C898.939,1007.01 900.173,1007.21 901.407,1007.31 C901.798,1007.4 902.173,1007.4 902.454,1007.4 C903.22,1007.31 903.985,1007.21 904.642,1007.12 C905.595,1006.92 906.454,1006.35 907.298,1005.5 C908.157,1004.64 908.923,1003.6 909.392,1002.17 C909.579,1001.51 909.673,1000.93 909.673,1000.37 C909.782,999.886 909.673,999.417 909.485,998.948 C909.298,998.464 909.017,998.089 908.735,997.714 C908.439,997.23 908.064,996.948 907.595,996.573 C907.11,996.183 906.735,995.808 906.36,995.526 C905.97,995.245 905.407,994.855 904.923,994.573 C899.032,990.87 893.626,989.058 888.595,989.058 C887.735,989.058 886.97,989.151 886.126,989.245"/>
<path class="Harmony" d="M1566.81,989.058 C1566.34,989.151 1565.58,989.245 1564.34,989.355 C1563.11,989.448 1562.15,989.636 1561.5,989.73 C1560.83,989.823 1559.87,989.917 1558.73,990.105 C1557.59,990.292 1556.75,990.589 1555.98,990.87 C1555.22,991.151 1554.37,991.526 1553.61,992.011 C1552.84,992.48 1552.19,992.964 1551.7,993.62 C1551.04,994.292 1550.56,995.042 1550.19,995.808 C1549.81,996.573 1549.53,997.511 1549.42,998.464 C1549.33,999.136 1549.33,999.792 1549.33,1000.46 L1549.33,1001.03 C1549.42,1001.7 1549.42,1002.65 1549.53,1003.79 C1549.62,1004.93 1549.62,1005.87 1549.62,1006.54 C1549.62,1017.37 1549.9,1028.01 1550.37,1038.56 C1550.47,1039.12 1550.47,1039.7 1550.47,1040.37 C1550.37,1042.35 1550.28,1045.01 1550.09,1048.15 C1549.81,1051.85 1549.62,1054.62 1549.62,1056.42 L1549.62,1057 L1549.62,1058.6 C1549.62,1059.07 1549.81,1059.56 1549.9,1060.12 C1550,1060.7 1550.19,1061.17 1550.47,1061.45 C1550.76,1061.75 1551.04,1062.03 1551.51,1062.31 C1551.9,1062.5 1552.37,1062.59 1552.94,1062.59 L1553.23,1062.59 C1556.54,1062.5 1559.87,1061.84 1563.2,1060.6 C1566.53,1059.37 1569.67,1057.84 1572.61,1055.85 C1575.56,1053.85 1578.31,1051.48 1580.97,1048.73 C1583.62,1045.96 1585.9,1043.12 1587.81,1040.07 C1589.7,1037.04 1591.33,1033.9 1592.56,1030.57 C1593.79,1027.25 1594.45,1023.93 1594.65,1020.79 C1594.75,1020.12 1594.75,1019.37 1594.75,1018.7 C1594.75,1016.9 1594.56,1015 1594.17,1013.1 C1593.7,1010.43 1592.94,1007.78 1591.89,1005.31 C1590.84,1002.84 1589.51,1000.56 1587.81,998.37 C1586.09,996.183 1584.2,994.386 1582.11,992.87 C1580.01,991.339 1577.73,990.198 1575.08,989.542 C1573.37,989.058 1571.56,988.87 1569.76,988.87 C1568.81,988.87 1567.86,988.964 1566.81,989.058 M1560.92,1050.43 C1560.92,1047.68 1561.01,1043.68 1561.11,1038.56 C1561.2,1034.48 1561.29,1030.57 1561.29,1027.06 C1561.29,1026.21 1561.2,1025.35 1561.2,1024.5 C1561.2,1020.32 1561.11,1016.23 1560.92,1012.43 C1560.92,1011.96 1560.83,1011.1 1560.64,1009.68 C1560.45,1008.25 1560.17,1006.92 1560.06,1005.68 C1559.97,1005.12 1559.97,1004.54 1559.97,1003.98 C1559.97,1003.31 1559.97,1002.75 1560.06,1002.07 C1560.26,1000.84 1560.64,999.886 1561.29,999.417 C1562.15,998.745 1563.11,998.464 1564.15,998.464 C1564.44,998.558 1564.72,998.558 1565.01,998.558 C1566.44,998.745 1567.95,999.23 1569.56,1000.09 C1571.19,1000.93 1572.7,1002.07 1574.12,1003.21 C1575.56,1004.35 1576.89,1005.5 1577.94,1006.64 C1578.97,1007.78 1579.83,1008.64 1580.31,1009.5 C1581.83,1011.96 1582.87,1014.71 1583.44,1017.75 C1583.72,1019.46 1583.92,1021.17 1583.92,1022.89 C1583.92,1024.12 1583.81,1025.35 1583.72,1026.59 C1583.25,1029.53 1582.39,1032.39 1581.15,1035.14 C1579.92,1037.89 1578.31,1040.37 1576.4,1042.54 C1574.42,1044.73 1572.14,1046.45 1569.47,1047.87 C1566.81,1049.29 1563.97,1050.15 1560.92,1050.43"/>
<path class="Harmony" d="M2285.37,989.448 C2281.67,989.917 2278.15,990.776 2274.73,992.011 C2271.31,993.245 2268.17,994.948 2265.13,996.948 C2262.09,998.948 2259.34,1001.23 2256.96,1003.79 C2254.59,1006.35 2252.59,1009.29 2250.88,1012.62 C2249.17,1015.95 2248.03,1019.46 2247.37,1023.17 C2246.88,1025.45 2246.7,1027.82 2246.7,1030.2 L2246.7,1030.87 C2246.7,1033.14 2246.79,1035.32 2247.07,1037.51 C2247.37,1039.89 2247.93,1042.26 2248.7,1044.45 C2249.56,1046.73 2250.49,1048.92 2251.54,1050.9 C2252.59,1052.9 2253.92,1054.71 2255.45,1056.32 C2256.96,1057.93 2258.85,1059.26 2260.76,1060.4 C2262.67,1061.54 2264.84,1062.4 2267.21,1062.89 C2268.84,1063.17 2270.45,1063.35 2272.07,1063.35 C2272.92,1063.35 2273.87,1063.35 2274.92,1063.26 C2277.85,1062.98 2280.62,1062.31 2283.18,1061.35 C2285.74,1060.4 2288.12,1059.26 2290.12,1057.93 C2292.1,1056.6 2294.1,1054.9 2295.92,1053 C2297.71,1051.1 2299.43,1049.01 2300.85,1046.92 C2302.28,1044.82 2303.6,1042.45 2305.03,1039.79 C2307.21,1035.42 2308.26,1031.71 2308.26,1028.78 C2308.26,1025.82 2307.21,1023.54 2305.03,1021.93 C2303.79,1020.89 2301.71,1020.23 2298.95,1019.75 C2296.96,1019.46 2294.96,1019.28 2292.96,1019.28 L2292.49,1019.28 L2290.4,1019.28 C2287.46,1019.37 2284.7,1019.84 2282.04,1020.7 C2279.38,1021.56 2277.57,1022.6 2276.62,1023.84 C2276.34,1024.31 2276.06,1024.68 2275.78,1025.07 C2275.1,1026.12 2274.73,1027.06 2274.73,1027.92 C2274.73,1029.15 2275.59,1030.01 2277.2,1030.48 C2278.53,1030.87 2281.09,1031.06 2284.79,1031.06 L2285.65,1031.06 C2286.88,1031.15 2287.84,1031.15 2288.49,1031.15 C2292.4,1031.15 2294.78,1031.62 2295.53,1032.67 C2295.82,1033.04 2296.1,1033.62 2296.1,1034.18 C2296.1,1034.76 2296.01,1035.32 2295.92,1035.9 C2295.82,1036.46 2295.53,1037.14 2295.24,1037.89 C2294.96,1038.65 2294.68,1039.23 2294.38,1039.7 C2294.1,1040.17 2293.82,1040.84 2293.45,1041.6 C2293.06,1042.35 2292.78,1042.75 2292.68,1042.93 C2292.21,1043.78 2291.92,1044.45 2291.63,1044.92 C2291.35,1045.4 2290.96,1045.87 2290.49,1046.54 C2290.03,1047.2 2289.45,1047.78 2288.98,1048.15 C2286.98,1049.67 2284.79,1050.71 2282.23,1051.2 L2278.99,1051.57 L2278.62,1051.57 C2277.38,1051.48 2276.06,1051.39 2274.82,1051.1 C2272.45,1050.62 2270.07,1049.76 2267.88,1048.43 C2265.7,1047.1 2263.81,1045.5 2262.37,1043.59 C2260.95,1041.6 2259.62,1039.23 2258.67,1036.56 C2257.71,1033.9 2257.15,1031.15 2256.96,1028.2 C2256.87,1027.15 2256.87,1026.21 2256.87,1025.17 C2256.87,1023.26 2256.96,1021.37 2257.24,1019.56 C2257.71,1016.81 2258.57,1014.14 2259.9,1011.67 C2261.23,1009.2 2262.95,1007.21 2265.04,1005.68 C2267.6,1003.7 2270.73,1002.26 2274.34,1001.32 C2276.34,1000.75 2278.34,1000.46 2280.23,1000.46 C2281.57,1000.46 2282.9,1000.65 2284.13,1000.93 C2285.18,1001.23 2286.21,1001.6 2287.46,1002.17 C2288.7,1002.75 2289.73,1003.31 2290.68,1003.89 C2291.63,1004.45 2292.68,1005.03 2293.73,1005.59 C2294.78,1006.17 2295.82,1006.64 2296.76,1006.82 C2297.71,1007.01 2298.67,1007.12 2299.62,1007.01 C2300.57,1006.92 2301.51,1006.45 2302.46,1005.59 C2303.42,1004.75 2304.28,1003.6 2305.12,1002.17 C2305.6,1001.32 2305.88,1000.46 2305.88,999.605 C2305.88,998.948 2305.7,998.37 2305.42,997.714 C2304.65,996.276 2303.42,995.042 2301.71,993.995 C2299.99,992.964 2298.2,992.011 2296.1,991.245 C2294.01,990.48 2292.01,990.011 2290.03,989.73 C2288.59,989.448 2287.46,989.355 2286.51,989.355 C2286.03,989.355 2285.65,989.355 2285.37,989.448"/>
</svg>
