<?xml version="1.0" encoding="UTF-8" standalone="no"?>
<svg width="2976.38px" height="1417.32px" viewBox="0 0 2976.38 1417.32"
 xmlns="http://www.w3.org/2000/svg" xmlns:xlink="http://www.w3.org/1999/xlink" version="1.2" baseProfile="tiny">
<title>NorthCarolinaBreakDown_G</title>
<desc>Generated by MuseScore 3.6.2</desc>
<polyline class="StaffLines" fill="none" stroke="#000000" stroke-width="2.73" stroke-linejoin="bevel" points="138.189,187.795 2933.86,187.795"/>
<polyline class="StaffLines" fill="none" stroke="#000000" stroke-width="2.73" stroke-linejoin="bevel" points="138.189,212.598 2933.86,212.598"/>
<polyline class="StaffLines" fill="none" stroke="#000000" stroke-width="2.73" stroke-linejoin="bevel" points="138.189,237.402 2933.86,237.402"/>
<polyline class="StaffLines" fill="none" stroke="#000000" stroke-width="2.73" stroke-linejoin="bevel" points="138.189,262.205 2933.86,262.205"/>
<polyline class="StaffLines" fill="none" stroke="#000000" stroke-width="2.73" stroke-linejoin="bevel" points="138.189,287.008 2933.86,287.008"/>
<polyline class="StaffLines" fill="none" stroke="#000000" stroke-width="2.73" stroke-linejoin="bevel" points="14.1732,497.835 2933.86,497.835"/>
<polyline class="StaffLines" fill="none" stroke="#000000" stroke-width="2.73" stroke-linejoin="bevel" points="14.1732,522.638 2933.86,522.638"/>
<polyline class="StaffLines" fill="none" stroke="#000000" stroke-width="2.73" stroke-linejoin="bevel" points="14.1732,547.441 2933.86,547.441"/>
<polyline class="StaffLines" fill="none" stroke="#000000" stroke-width="2.73" stroke-linejoin="bevel" points="14.1732,572.244 2933.86,572.244"/>
<polyline class="StaffLines" fill="none" stroke="#000000" stroke-width="2.73" stroke-linejoin="bevel" points="14.1732,597.047 2933.86,597.047"/>
<polyline class="StaffLines" fill="none" stroke="#000000" stroke-width="2.73" stroke-linejoin="bevel" points="14.1732,815.417 2933.86,815.417"/>
<polyline class="StaffLines" fill="none" stroke="#000000" stroke-width="2.73" stroke-linejoin="bevel" points="14.1732,840.22 2933.86,840.22"/>
<polyline class="StaffLines" fill="none" stroke="#000000" stroke-width="2.73" stroke-linejoin="bevel" points="14.1732,865.023 2933.86,865.023"/>
<polyline class="StaffLines" fill="none" stroke="#000000" stroke-width="2.73" stroke-linejoin="bevel" points="14.1732,889.826 2933.86,889.826"/>
<polyline class="StaffLines" fill="none" stroke="#000000" stroke-width="2.73" stroke-linejoin="bevel" points="14.1732,914.629 2933.86,914.629"/>
<polyline class="StaffLines" fill="none" stroke="#000000" stroke-width="2.73" stroke-linejoin="bevel" points="14.1732,1125.46 2933.86,1125.46"/>
<polyline class="StaffLines" fill="none" stroke="#000000" stroke-width="2.73" stroke-linejoin="bevel" points="14.1732,1150.26 2933.86,1150.26"/>
<polyline class="StaffLines" fill="none" stroke="#000000" stroke-width="2.73" stroke-linejoin="bevel" points="14.1732,1175.06 2933.86,1175.06"/>
<polyline class="StaffLines" fill="none" stroke="#000000" stroke-width="2.73" stroke-linejoin="bevel" points="14.1732,1199.87 2933.86,1199.87"/>
<polyline class="StaffLines" fill="none" stroke="#000000" stroke-width="2.73" stroke-linejoin="bevel" points="14.1732,1224.67 2933.86,1224.67"/>
<polyline class="BarLine" fill="none" stroke="#000000" stroke-width="4.46" stroke-linejoin="bevel" points="953.226,186.431 953.226,288.372"/>
<polyline class="BarLine" fill="none" stroke="#000000" stroke-width="4.46" stroke-linejoin="bevel" points="1612.69,186.431 1612.69,288.372"/>
<polyline class="BarLine" fill="none" stroke="#000000" stroke-width="4.46" stroke-linejoin="bevel" points="2272.16,186.431 2272.16,288.372"/>
<polyline class="BarLine" fill="none" stroke="#000000" stroke-width="4.46" stroke-linejoin="bevel" points="2931.63,186.431 2931.63,288.372"/>
<polyline class="BarLine" fill="none" stroke="#000000" stroke-width="4.46" stroke-linejoin="bevel" points="808.481,496.47 808.481,598.411"/>
<polyline class="BarLine" fill="none" stroke="#000000" stroke-width="4.46" stroke-linejoin="bevel" points="1502.1,496.47 1502.1,598.411"/>
<polyline class="BarLine" fill="none" stroke="#000000" stroke-width="4.46" stroke-linejoin="bevel" points="2195.73,496.47 2195.73,598.411"/>
<path class="BarLine" transform="matrix(0.992126,0,0,0.992126,2887.12,535.039)" d="M10.4063,0 C10.4063,-2.90625 8.09375,-5.29688 5.20313,-5.29688 C2.29688,-5.29688 0,-2.90625 0,0 C0,2.90625 2.29688,5.29688 5.20313,5.29688 C8.09375,5.29688 10.4063,2.90625 10.4063,0"/>
<path class="BarLine" transform="matrix(0.992126,0,0,0.992126,2887.12,559.843)" d="M10.4063,0 C10.4063,-2.90625 8.09375,-5.29688 5.20313,-5.29688 C2.29688,-5.29688 0,-2.90625 0,0 C0,2.90625 2.29688,5.29688 5.20313,5.29688 C8.09375,5.29688 10.4063,2.90625 10.4063,0"/>
<polyline class="BarLine" fill="none" stroke="#000000" stroke-width="4.46" stroke-linejoin="bevel" points="2909.64,496.47 2909.64,598.411"/>
<polyline class="BarLine" fill="none" stroke="#000000" stroke-width="13.64" stroke-linejoin="bevel" points="2927,496.47 2927,598.411"/>
<polyline class="BarLine" fill="none" stroke="#000000" stroke-width="4.46" stroke-linejoin="bevel" points="819.051,814.053 819.051,915.994"/>
<polyline class="BarLine" fill="none" stroke="#000000" stroke-width="4.46" stroke-linejoin="bevel" points="1523.24,814.053 1523.24,915.994"/>
<polyline class="BarLine" fill="none" stroke="#000000" stroke-width="4.46" stroke-linejoin="bevel" points="2227.44,814.053 2227.44,915.994"/>
<polyline class="BarLine" fill="none" stroke="#000000" stroke-width="4.46" stroke-linejoin="bevel" points="2931.63,814.053 2931.63,915.994"/>
<polyline class="BarLine" fill="none" stroke="#000000" stroke-width="4.46" stroke-linejoin="bevel" points="812.511,1124.09 812.511,1226.03"/>
<polyline class="BarLine" fill="none" stroke="#000000" stroke-width="4.46" stroke-linejoin="bevel" points="1494.04,1124.09 1494.04,1226.03"/>
<polyline class="BarLine" fill="none" stroke="#000000" stroke-width="4.46" stroke-linejoin="bevel" points="2191.69,1124.09 2191.69,1226.03"/>
<path class="BarLine" transform="matrix(0.992126,0,0,0.992126,2887.12,1162.66)" d="M10.4063,0 C10.4063,-2.90625 8.09375,-5.29688 5.20313,-5.29688 C2.29688,-5.29688 0,-2.90625 0,0 C0,2.90625 2.29688,5.29688 5.20313,5.29688 C8.09375,5.29688 10.4063,2.90625 10.4063,0"/>
<path class="BarLine" transform="matrix(0.992126,0,0,0.992126,2887.12,1187.46)" d="M10.4063,0 C10.4063,-2.90625 8.09375,-5.29688 5.20313,-5.29688 C2.29688,-5.29688 0,-2.90625 0,0 C0,2.90625 2.29688,5.29688 5.20313,5.29688 C8.09375,5.29688 10.4063,2.90625 10.4063,0"/>
<polyline class="BarLine" fill="none" stroke="#000000" stroke-width="4.46" stroke-linejoin="bevel" points="2909.64,1124.09 2909.64,1226.03"/>
<polyline class="BarLine" fill="none" stroke="#000000" stroke-width="13.64" stroke-linejoin="bevel" points="2927,1124.09 2927,1226.03"/>
<path class="Note" transform="matrix(0.992126,0,0,0.992126,338.405,237.402)" d="M43,-25 L0,25 L10,25 L53,-25 L43,-25 "/>
<path class="Note" transform="matrix(0.992126,0,0,0.992126,489.01,237.402)" d="M43,-25 L0,25 L10,25 L53,-25 L43,-25 "/>
<path class="Note" transform="matrix(0.992126,0,0,0.992126,639.615,237.402)" d="M43,-25 L0,25 L10,25 L53,-25 L43,-25 "/>
<path class="Note" transform="matrix(0.992126,0,0,0.992126,790.22,237.402)" d="M43,-25 L0,25 L10,25 L53,-25 L43,-25 "/>
<path class="Note" transform="matrix(0.992126,0,0,0.992126,997.872,237.402)" d="M43,-25 L0,25 L10,25 L53,-25 L43,-25 "/>
<path class="Note" transform="matrix(0.992126,0,0,0.992126,1148.48,237.402)" d="M43,-25 L0,25 L10,25 L53,-25 L43,-25 "/>
<path class="Note" transform="matrix(0.992126,0,0,0.992126,1299.08,237.402)" d="M43,-25 L0,25 L10,25 L53,-25 L43,-25 "/>
<path class="Note" transform="matrix(0.992126,0,0,0.992126,1449.69,237.402)" d="M43,-25 L0,25 L10,25 L53,-25 L43,-25 "/>
<path class="Note" transform="matrix(0.992126,0,0,0.992126,1657.34,237.402)" d="M43,-25 L0,25 L10,25 L53,-25 L43,-25 "/>
<path class="Note" transform="matrix(0.992126,0,0,0.992126,1807.94,237.402)" d="M43,-25 L0,25 L10,25 L53,-25 L43,-25 "/>
<path class="Note" transform="matrix(0.992126,0,0,0.992126,1958.55,237.402)" d="M43,-25 L0,25 L10,25 L53,-25 L43,-25 "/>
<path class="Note" transform="matrix(0.992126,0,0,0.992126,2109.15,237.402)" d="M43,-25 L0,25 L10,25 L53,-25 L43,-25 "/>
<path class="Note" transform="matrix(0.992126,0,0,0.992126,2316.81,237.402)" d="M43,-25 L0,25 L10,25 L53,-25 L43,-25 "/>
<path class="Note" transform="matrix(0.992126,0,0,0.992126,2467.41,237.402)" d="M43,-25 L0,25 L10,25 L53,-25 L43,-25 "/>
<path class="Note" transform="matrix(0.992126,0,0,0.992126,2618.02,237.402)" d="M43,-25 L0,25 L10,25 L53,-25 L43,-25 "/>
<path class="Note" transform="matrix(0.992126,0,0,0.992126,2768.62,237.402)" d="M43,-25 L0,25 L10,25 L53,-25 L43,-25 "/>
<path class="Note" transform="matrix(0.992126,0,0,0.992126,159.504,547.441)" d="M43,-25 L0,25 L10,25 L53,-25 L43,-25 "/>
<path class="Note" transform="matrix(0.992126,0,0,0.992126,318.648,547.441)" d="M43,-25 L0,25 L10,25 L53,-25 L43,-25 "/>
<path class="Note" transform="matrix(0.992126,0,0,0.992126,477.792,547.441)" d="M43,-25 L0,25 L10,25 L53,-25 L43,-25 "/>
<path class="Note" transform="matrix(0.992126,0,0,0.992126,636.935,547.441)" d="M43,-25 L0,25 L10,25 L53,-25 L43,-25 "/>
<path class="Note" transform="matrix(0.992126,0,0,0.992126,853.126,547.441)" d="M43,-25 L0,25 L10,25 L53,-25 L43,-25 "/>
<path class="Note" transform="matrix(0.992126,0,0,0.992126,1012.27,547.441)" d="M43,-25 L0,25 L10,25 L53,-25 L43,-25 "/>
<path class="Note" transform="matrix(0.992126,0,0,0.992126,1171.41,547.441)" d="M43,-25 L0,25 L10,25 L53,-25 L43,-25 "/>
<path class="Note" transform="matrix(0.992126,0,0,0.992126,1330.56,547.441)" d="M43,-25 L0,25 L10,25 L53,-25 L43,-25 "/>
<path class="Note" transform="matrix(0.992126,0,0,0.992126,1546.75,547.441)" d="M43,-25 L0,25 L10,25 L53,-25 L43,-25 "/>
<path class="Note" transform="matrix(0.992126,0,0,0.992126,1705.89,547.441)" d="M43,-25 L0,25 L10,25 L53,-25 L43,-25 "/>
<path class="Note" transform="matrix(0.992126,0,0,0.992126,1865.04,547.441)" d="M43,-25 L0,25 L10,25 L53,-25 L43,-25 "/>
<path class="Note" transform="matrix(0.992126,0,0,0.992126,2024.18,547.441)" d="M43,-25 L0,25 L10,25 L53,-25 L43,-25 "/>
<path class="Note" transform="matrix(0.992126,0,0,0.992126,2240.37,547.441)" d="M43,-25 L0,25 L10,25 L53,-25 L43,-25 "/>
<path class="Note" transform="matrix(0.992126,0,0,0.992126,2399.51,547.441)" d="M43,-25 L0,25 L10,25 L53,-25 L43,-25 "/>
<path class="Note" transform="matrix(0.992126,0,0,0.992126,2558.66,547.441)" d="M43,-25 L0,25 L10,25 L53,-25 L43,-25 "/>
<path class="Note" transform="matrix(0.992126,0,0,0.992126,2717.8,547.441)" d="M43,-25 L0,25 L10,25 L53,-25 L43,-25 "/>
<path class="Note" transform="matrix(0.992126,0,0,0.992126,159.504,865.023)" d="M43,-25 L0,25 L10,25 L53,-25 L43,-25 "/>
<path class="Note" transform="matrix(0.992126,0,0,0.992126,321.29,865.023)" d="M43,-25 L0,25 L10,25 L53,-25 L43,-25 "/>
<path class="Note" transform="matrix(0.992126,0,0,0.992126,483.077,865.023)" d="M43,-25 L0,25 L10,25 L53,-25 L43,-25 "/>
<path class="Note" transform="matrix(0.992126,0,0,0.992126,644.863,865.023)" d="M43,-25 L0,25 L10,25 L53,-25 L43,-25 "/>
<path class="Note" transform="matrix(0.992126,0,0,0.992126,863.696,865.023)" d="M43,-25 L0,25 L10,25 L53,-25 L43,-25 "/>
<path class="Note" transform="matrix(0.992126,0,0,0.992126,1025.48,865.023)" d="M43,-25 L0,25 L10,25 L53,-25 L43,-25 "/>
<path class="Note" transform="matrix(0.992126,0,0,0.992126,1187.27,865.023)" d="M43,-25 L0,25 L10,25 L53,-25 L43,-25 "/>
<path class="Note" transform="matrix(0.992126,0,0,0.992126,1349.06,865.023)" d="M43,-25 L0,25 L10,25 L53,-25 L43,-25 "/>
<path class="Note" transform="matrix(0.992126,0,0,0.992126,1567.89,865.023)" d="M43,-25 L0,25 L10,25 L53,-25 L43,-25 "/>
<path class="Note" transform="matrix(0.992126,0,0,0.992126,1729.67,865.023)" d="M43,-25 L0,25 L10,25 L53,-25 L43,-25 "/>
<path class="Note" transform="matrix(0.992126,0,0,0.992126,1891.46,865.023)" d="M43,-25 L0,25 L10,25 L53,-25 L43,-25 "/>
<path class="Note" transform="matrix(0.992126,0,0,0.992126,2053.25,865.023)" d="M43,-25 L0,25 L10,25 L53,-25 L43,-25 "/>
<path class="Note" transform="matrix(0.992126,0,0,0.992126,2272.08,865.023)" d="M43,-25 L0,25 L10,25 L53,-25 L43,-25 "/>
<path class="Note" transform="matrix(0.992126,0,0,0.992126,2433.87,865.023)" d="M43,-25 L0,25 L10,25 L53,-25 L43,-25 "/>
<path class="Note" transform="matrix(0.992126,0,0,0.992126,2595.65,865.023)" d="M43,-25 L0,25 L10,25 L53,-25 L43,-25 "/>
<path class="Note" transform="matrix(0.992126,0,0,0.992126,2757.44,865.023)" d="M43,-25 L0,25 L10,25 L53,-25 L43,-25 "/>
<path class="Note" transform="matrix(0.992126,0,0,0.992126,159.504,1175.06)" d="M43,-25 L0,25 L10,25 L53,-25 L43,-25 "/>
<path class="Note" transform="matrix(0.992126,0,0,0.992126,319.656,1175.06)" d="M43,-25 L0,25 L10,25 L53,-25 L43,-25 "/>
<path class="Note" transform="matrix(0.992126,0,0,0.992126,479.807,1175.06)" d="M43,-25 L0,25 L10,25 L53,-25 L43,-25 "/>
<path class="Note" transform="matrix(0.992126,0,0,0.992126,639.958,1175.06)" d="M43,-25 L0,25 L10,25 L53,-25 L43,-25 "/>
<path class="Note" transform="matrix(0.992126,0,0,0.992126,841.035,1175.06)" d="M43,-25 L0,25 L10,25 L53,-25 L43,-25 "/>
<path class="Note" transform="matrix(0.992126,0,0,0.992126,1001.19,1175.06)" d="M43,-25 L0,25 L10,25 L53,-25 L43,-25 "/>
<path class="Note" transform="matrix(0.992126,0,0,0.992126,1161.34,1175.06)" d="M43,-25 L0,25 L10,25 L53,-25 L43,-25 "/>
<path class="Note" transform="matrix(0.992126,0,0,0.992126,1321.49,1175.06)" d="M43,-25 L0,25 L10,25 L53,-25 L43,-25 "/>
<path class="Note" transform="matrix(0.992126,0,0,0.992126,1538.69,1175.06)" d="M43,-25 L0,25 L10,25 L53,-25 L43,-25 "/>
<path class="Note" transform="matrix(0.992126,0,0,0.992126,1698.84,1175.06)" d="M43,-25 L0,25 L10,25 L53,-25 L43,-25 "/>
<path class="Note" transform="matrix(0.992126,0,0,0.992126,1858.99,1175.06)" d="M43,-25 L0,25 L10,25 L53,-25 L43,-25 "/>
<path class="Note" transform="matrix(0.992126,0,0,0.992126,2019.14,1175.06)" d="M43,-25 L0,25 L10,25 L53,-25 L43,-25 "/>
<path class="Note" transform="matrix(0.992126,0,0,0.992126,2236.34,1175.06)" d="M43,-25 L0,25 L10,25 L53,-25 L43,-25 "/>
<path class="Note" transform="matrix(0.992126,0,0,0.992126,2396.49,1175.06)" d="M43,-25 L0,25 L10,25 L53,-25 L43,-25 "/>
<path class="Note" transform="matrix(0.992126,0,0,0.992126,2556.64,1175.06)" d="M43,-25 L0,25 L10,25 L53,-25 L43,-25 "/>
<path class="Note" transform="matrix(0.992126,0,0,0.992126,2716.79,1175.06)" d="M43,-25 L0,25 L10,25 L53,-25 L43,-25 "/>
<path class="Clef" transform="matrix(0.992126,0,0,0.992126,158.032,262.205)" d="M63.3594,-5.92188 C62.125,-11.3438 59.4844,-15.1719 58.7031,-16.2031 C55.5156,-20.4844 51.5,-23.3281 46.8125,-24.6875 C43.7031,-25.5625 40.7031,-25.6875 38.2813,-25.5 C37.2344,-31.5156 36.2344,-37.3906 35.3281,-42.8438 C40.7813,-49.0156 44.4063,-54.8125 46.6875,-59.1094 C50.1563,-65.6875 51.2969,-70.2656 51.3594,-70.4688 C53.0781,-75.6875 53.4375,-83.3906 52.3281,-91.5938 C51.3281,-99.1406 49.2344,-105.859 46.875,-109.109 C45.8594,-110.531 44.7969,-111.266 43.7656,-111.266 C42.5469,-111.266 40.0313,-110.031 37.1406,-107.25 C34.8438,-105.063 31.5781,-101.172 29.0156,-95.1563 C26.0156,-88.0938 25.7969,-78.6094 26.1563,-71.8906 C26.5313,-64.6094 27.6406,-58.9219 27.6563,-58.875 C27.6719,-58.7813 27.9375,-57.2813 28.375,-54.7188 C28.1563,-54.4844 27.9063,-54.2656 27.6563,-54.0156 C26.625,-53.0156 25.4375,-51.8906 24.0469,-50.5 C23.1875,-49.6406 22.2344,-48.7344 21.2344,-47.7656 C12.7969,-39.625 0,-27.2969 0,-8.14063 C0,-3.4375 0.90625,0.984375 2.6875,5 C4.26563,8.59375 6.5625,11.875 9.5,14.75 C17.2344,22.3125 27.8281,25.5156 34.875,25.3594 C37.8281,25.2813 40.4688,25.0469 42.8594,24.5938 C44.6875,34.2031 45.8281,41.2344 45.8594,46.5781 C45.9063,53.0938 44.25,57.0781 40.3594,59.8438 C37.9219,61.5781 35.1094,62.5313 32.0156,62.6719 C29.4219,62.7969 27.1563,62.3281 25.7344,61.9219 L25.7188,61.9219 C25.7188,61.9219 25.4375,61.8281 25.4219,61.6406 C25.4063,61.4531 25.7656,61.4063 25.7656,61.4063 L25.7969,61.4063 C27.7188,60.9688 31.2813,59.7344 33.6406,56.4375 C35.4375,53.9063 36.3125,49.2813 34.4688,45.3438 C33.3594,42.9531 30.8594,40 25.2344,39.5469 C22.7344,39.3438 20.4688,39.8594 18.4688,41.0625 C16.6563,42.1406 15.1563,43.7813 14.1094,45.7813 C11.6563,50.4844 12.1094,56.2188 15.2344,60.0625 C18.2031,63.6875 22.8125,66 28.25,66.5781 C29.1094,66.6719 29.9531,66.7031 30.7969,66.7031 C35.2344,66.7031 39.625,65.5 43.2031,63.2969 C46.8594,60.7188 48.9844,56.7344 49.6563,51.1094 C50.2188,46.4688 49.8281,40.5469 48.4375,32.4688 C48.0781,30.375 47.5313,27.3438 46.875,23.5938 C52.625,21.6719 56.7813,18.0938 60.5469,12.2344 C63.8438,6.5 64.7813,0.390625 63.3594,-5.92188 M29.1406,20.2969 C24.5,19.0781 20.0625,16.5781 16.3125,13.0625 C15,11.8438 13.125,9.67188 11.6563,6.28125 C10.2969,3.10938 9.625,-0.328125 9.6875,-3.90625 C9.75,-8.60938 11.0625,-13.4375 13.5625,-18.2188 C16.4844,-23.7969 21.0469,-29.3281 27.1094,-34.6563 C28.5625,-35.9375 29.9375,-37.2188 31.2188,-38.5 C31.9844,-34.2344 32.8125,-29.5469 33.6875,-24.6719 C29.8438,-23.4063 25.0938,-20.25 21.9844,-14.5938 C18.4375,-8.03125 18.5781,-2.5 19.3125,0.984375 C20.25,5.4375 22.7813,9.20313 26.2344,11.2969 C27.1719,11.8594 31.2969,13.9844 33.1406,13.4063 C33.5156,13.2969 33.7813,13.0625 33.9219,12.7344 C34.4375,11.5625 33.4063,10.9219 31.8594,9.96875 C31.25,9.59375 30.5781,9.17188 29.8594,8.64063 C26.5313,6.15625 25.0781,1.70313 26.1563,-2.6875 C26.7344,-5.07813 28.0156,-7.25 29.8594,-8.95313 C31.5156,-10.5 33.5625,-11.5938 35.9375,-12.2344 C37.9844,-0.984375 40.0469,10.1719 41.6875,18.5313 C41.8125,19.2188 41.9531,19.8906 42.0781,20.5625 C37.7031,21.5 33.3594,21.4063 29.1406,20.2969 M40.4688,-12.9063 C50.8125,-13.375 55.0781,-5.9375 55.9688,-1.10938 C56.4375,1.4375 56.4375,5.875 54.8906,10.0938 C53.7188,13.2656 51.2656,17.3438 46.125,19.4063 C46.0625,18.9844 45.9844,18.5469 45.9063,18.125 C44.3594,9.34375 42.4219,-1.65625 40.4688,-12.9063 M33.1406,-83.8594 C34.9219,-89.5938 37.6563,-92.8438 39.6563,-94.5781 C41.4063,-96.0938 43.0469,-96.8125 43.9688,-96.8125 C44.1094,-96.8125 44.2344,-96.7813 44.3281,-96.75 C44.7969,-96.6094 45.3281,-96.0469 45.7969,-95.1719 C48.1094,-90.8906 47.3594,-84.1719 46.0156,-79.7344 C44.3906,-74.3281 41.4688,-68.7188 32.6719,-59.1094 C32.5,-60.2188 32.3438,-61.2656 32.1875,-62.25 C30.9375,-70.5313 31.2656,-77.8125 33.1406,-83.8594"/>
<path class="Clef" transform="matrix(0.992126,0,0,0.992126,34.0158,572.244)" d="M63.3594,-5.92188 C62.125,-11.3438 59.4844,-15.1719 58.7031,-16.2031 C55.5156,-20.4844 51.5,-23.3281 46.8125,-24.6875 C43.7031,-25.5625 40.7031,-25.6875 38.2813,-25.5 C37.2344,-31.5156 36.2344,-37.3906 35.3281,-42.8438 C40.7813,-49.0156 44.4063,-54.8125 46.6875,-59.1094 C50.1563,-65.6875 51.2969,-70.2656 51.3594,-70.4688 C53.0781,-75.6875 53.4375,-83.3906 52.3281,-91.5938 C51.3281,-99.1406 49.2344,-105.859 46.875,-109.109 C45.8594,-110.531 44.7969,-111.266 43.7656,-111.266 C42.5469,-111.266 40.0313,-110.031 37.1406,-107.25 C34.8438,-105.063 31.5781,-101.172 29.0156,-95.1563 C26.0156,-88.0938 25.7969,-78.6094 26.1563,-71.8906 C26.5313,-64.6094 27.6406,-58.9219 27.6563,-58.875 C27.6719,-58.7813 27.9375,-57.2813 28.375,-54.7188 C28.1563,-54.4844 27.9063,-54.2656 27.6563,-54.0156 C26.625,-53.0156 25.4375,-51.8906 24.0469,-50.5 C23.1875,-49.6406 22.2344,-48.7344 21.2344,-47.7656 C12.7969,-39.625 0,-27.2969 0,-8.14063 C0,-3.4375 0.90625,0.984375 2.6875,5 C4.26563,8.59375 6.5625,11.875 9.5,14.75 C17.2344,22.3125 27.8281,25.5156 34.875,25.3594 C37.8281,25.2813 40.4688,25.0469 42.8594,24.5938 C44.6875,34.2031 45.8281,41.2344 45.8594,46.5781 C45.9063,53.0938 44.25,57.0781 40.3594,59.8438 C37.9219,61.5781 35.1094,62.5313 32.0156,62.6719 C29.4219,62.7969 27.1563,62.3281 25.7344,61.9219 L25.7188,61.9219 C25.7188,61.9219 25.4375,61.8281 25.4219,61.6406 C25.4063,61.4531 25.7656,61.4063 25.7656,61.4063 L25.7969,61.4063 C27.7188,60.9688 31.2813,59.7344 33.6406,56.4375 C35.4375,53.9063 36.3125,49.2813 34.4688,45.3438 C33.3594,42.9531 30.8594,40 25.2344,39.5469 C22.7344,39.3438 20.4688,39.8594 18.4688,41.0625 C16.6563,42.1406 15.1563,43.7813 14.1094,45.7813 C11.6563,50.4844 12.1094,56.2188 15.2344,60.0625 C18.2031,63.6875 22.8125,66 28.25,66.5781 C29.1094,66.6719 29.9531,66.7031 30.7969,66.7031 C35.2344,66.7031 39.625,65.5 43.2031,63.2969 C46.8594,60.7188 48.9844,56.7344 49.6563,51.1094 C50.2188,46.4688 49.8281,40.5469 48.4375,32.4688 C48.0781,30.375 47.5313,27.3438 46.875,23.5938 C52.625,21.6719 56.7813,18.0938 60.5469,12.2344 C63.8438,6.5 64.7813,0.390625 63.3594,-5.92188 M29.1406,20.2969 C24.5,19.0781 20.0625,16.5781 16.3125,13.0625 C15,11.8438 13.125,9.67188 11.6563,6.28125 C10.2969,3.10938 9.625,-0.328125 9.6875,-3.90625 C9.75,-8.60938 11.0625,-13.4375 13.5625,-18.2188 C16.4844,-23.7969 21.0469,-29.3281 27.1094,-34.6563 C28.5625,-35.9375 29.9375,-37.2188 31.2188,-38.5 C31.9844,-34.2344 32.8125,-29.5469 33.6875,-24.6719 C29.8438,-23.4063 25.0938,-20.25 21.9844,-14.5938 C18.4375,-8.03125 18.5781,-2.5 19.3125,0.984375 C20.25,5.4375 22.7813,9.20313 26.2344,11.2969 C27.1719,11.8594 31.2969,13.9844 33.1406,13.4063 C33.5156,13.2969 33.7813,13.0625 33.9219,12.7344 C34.4375,11.5625 33.4063,10.9219 31.8594,9.96875 C31.25,9.59375 30.5781,9.17188 29.8594,8.64063 C26.5313,6.15625 25.0781,1.70313 26.1563,-2.6875 C26.7344,-5.07813 28.0156,-7.25 29.8594,-8.95313 C31.5156,-10.5 33.5625,-11.5938 35.9375,-12.2344 C37.9844,-0.984375 40.0469,10.1719 41.6875,18.5313 C41.8125,19.2188 41.9531,19.8906 42.0781,20.5625 C37.7031,21.5 33.3594,21.4063 29.1406,20.2969 M40.4688,-12.9063 C50.8125,-13.375 55.0781,-5.9375 55.9688,-1.10938 C56.4375,1.4375 56.4375,5.875 54.8906,10.0938 C53.7188,13.2656 51.2656,17.3438 46.125,19.4063 C46.0625,18.9844 45.9844,18.5469 45.9063,18.125 C44.3594,9.34375 42.4219,-1.65625 40.4688,-12.9063 M33.1406,-83.8594 C34.9219,-89.5938 37.6563,-92.8438 39.6563,-94.5781 C41.4063,-96.0938 43.0469,-96.8125 43.9688,-96.8125 C44.1094,-96.8125 44.2344,-96.7813 44.3281,-96.75 C44.7969,-96.6094 45.3281,-96.0469 45.7969,-95.1719 C48.1094,-90.8906 47.3594,-84.1719 46.0156,-79.7344 C44.3906,-74.3281 41.4688,-68.7188 32.6719,-59.1094 C32.5,-60.2188 32.3438,-61.2656 32.1875,-62.25 C30.9375,-70.5313 31.2656,-77.8125 33.1406,-83.8594"/>
<path class="Clef" transform="matrix(0.992126,0,0,0.992126,34.0158,889.826)" d="M63.3594,-5.92188 C62.125,-11.3438 59.4844,-15.1719 58.7031,-16.2031 C55.5156,-20.4844 51.5,-23.3281 46.8125,-24.6875 C43.7031,-25.5625 40.7031,-25.6875 38.2813,-25.5 C37.2344,-31.5156 36.2344,-37.3906 35.3281,-42.8438 C40.7813,-49.0156 44.4063,-54.8125 46.6875,-59.1094 C50.1563,-65.6875 51.2969,-70.2656 51.3594,-70.4688 C53.0781,-75.6875 53.4375,-83.3906 52.3281,-91.5938 C51.3281,-99.1406 49.2344,-105.859 46.875,-109.109 C45.8594,-110.531 44.7969,-111.266 43.7656,-111.266 C42.5469,-111.266 40.0313,-110.031 37.1406,-107.25 C34.8438,-105.063 31.5781,-101.172 29.0156,-95.1563 C26.0156,-88.0938 25.7969,-78.6094 26.1563,-71.8906 C26.5313,-64.6094 27.6406,-58.9219 27.6563,-58.875 C27.6719,-58.7813 27.9375,-57.2813 28.375,-54.7188 C28.1563,-54.4844 27.9063,-54.2656 27.6563,-54.0156 C26.625,-53.0156 25.4375,-51.8906 24.0469,-50.5 C23.1875,-49.6406 22.2344,-48.7344 21.2344,-47.7656 C12.7969,-39.625 0,-27.2969 0,-8.14063 C0,-3.4375 0.90625,0.984375 2.6875,5 C4.26563,8.59375 6.5625,11.875 9.5,14.75 C17.2344,22.3125 27.8281,25.5156 34.875,25.3594 C37.8281,25.2813 40.4688,25.0469 42.8594,24.5938 C44.6875,34.2031 45.8281,41.2344 45.8594,46.5781 C45.9063,53.0938 44.25,57.0781 40.3594,59.8438 C37.9219,61.5781 35.1094,62.5313 32.0156,62.6719 C29.4219,62.7969 27.1563,62.3281 25.7344,61.9219 L25.7188,61.9219 C25.7188,61.9219 25.4375,61.8281 25.4219,61.6406 C25.4063,61.4531 25.7656,61.4063 25.7656,61.4063 L25.7969,61.4063 C27.7188,60.9688 31.2813,59.7344 33.6406,56.4375 C35.4375,53.9063 36.3125,49.2813 34.4688,45.3438 C33.3594,42.9531 30.8594,40 25.2344,39.5469 C22.7344,39.3438 20.4688,39.8594 18.4688,41.0625 C16.6563,42.1406 15.1563,43.7813 14.1094,45.7813 C11.6563,50.4844 12.1094,56.2188 15.2344,60.0625 C18.2031,63.6875 22.8125,66 28.25,66.5781 C29.1094,66.6719 29.9531,66.7031 30.7969,66.7031 C35.2344,66.7031 39.625,65.5 43.2031,63.2969 C46.8594,60.7188 48.9844,56.7344 49.6563,51.1094 C50.2188,46.4688 49.8281,40.5469 48.4375,32.4688 C48.0781,30.375 47.5313,27.3438 46.875,23.5938 C52.625,21.6719 56.7813,18.0938 60.5469,12.2344 C63.8438,6.5 64.7813,0.390625 63.3594,-5.92188 M29.1406,20.2969 C24.5,19.0781 20.0625,16.5781 16.3125,13.0625 C15,11.8438 13.125,9.67188 11.6563,6.28125 C10.2969,3.10938 9.625,-0.328125 9.6875,-3.90625 C9.75,-8.60938 11.0625,-13.4375 13.5625,-18.2188 C16.4844,-23.7969 21.0469,-29.3281 27.1094,-34.6563 C28.5625,-35.9375 29.9375,-37.2188 31.2188,-38.5 C31.9844,-34.2344 32.8125,-29.5469 33.6875,-24.6719 C29.8438,-23.4063 25.0938,-20.25 21.9844,-14.5938 C18.4375,-8.03125 18.5781,-2.5 19.3125,0.984375 C20.25,5.4375 22.7813,9.20313 26.2344,11.2969 C27.1719,11.8594 31.2969,13.9844 33.1406,13.4063 C33.5156,13.2969 33.7813,13.0625 33.9219,12.7344 C34.4375,11.5625 33.4063,10.9219 31.8594,9.96875 C31.25,9.59375 30.5781,9.17188 29.8594,8.64063 C26.5313,6.15625 25.0781,1.70313 26.1563,-2.6875 C26.7344,-5.07813 28.0156,-7.25 29.8594,-8.95313 C31.5156,-10.5 33.5625,-11.5938 35.9375,-12.2344 C37.9844,-0.984375 40.0469,10.1719 41.6875,18.5313 C41.8125,19.2188 41.9531,19.8906 42.0781,20.5625 C37.7031,21.5 33.3594,21.4063 29.1406,20.2969 M40.4688,-12.9063 C50.8125,-13.375 55.0781,-5.9375 55.9688,-1.10938 C56.4375,1.4375 56.4375,5.875 54.8906,10.0938 C53.7188,13.2656 51.2656,17.3438 46.125,19.4063 C46.0625,18.9844 45.9844,18.5469 45.9063,18.125 C44.3594,9.34375 42.4219,-1.65625 40.4688,-12.9063 M33.1406,-83.8594 C34.9219,-89.5938 37.6563,-92.8438 39.6563,-94.5781 C41.4063,-96.0938 43.0469,-96.8125 43.9688,-96.8125 C44.1094,-96.8125 44.2344,-96.7813 44.3281,-96.75 C44.7969,-96.6094 45.3281,-96.0469 45.7969,-95.1719 C48.1094,-90.8906 47.3594,-84.1719 46.0156,-79.7344 C44.3906,-74.3281 41.4688,-68.7188 32.6719,-59.1094 C32.5,-60.2188 32.3438,-61.2656 32.1875,-62.25 C30.9375,-70.5313 31.2656,-77.8125 33.1406,-83.8594"/>
<path class="Clef" transform="matrix(0.992126,0,0,0.992126,34.0158,1199.87)" d="M63.3594,-5.92188 C62.125,-11.3438 59.4844,-15.1719 58.7031,-16.2031 C55.5156,-20.4844 51.5,-23.3281 46.8125,-24.6875 C43.7031,-25.5625 40.7031,-25.6875 38.2813,-25.5 C37.2344,-31.5156 36.2344,-37.3906 35.3281,-42.8438 C40.7813,-49.0156 44.4063,-54.8125 46.6875,-59.1094 C50.1563,-65.6875 51.2969,-70.2656 51.3594,-70.4688 C53.0781,-75.6875 53.4375,-83.3906 52.3281,-91.5938 C51.3281,-99.1406 49.2344,-105.859 46.875,-109.109 C45.8594,-110.531 44.7969,-111.266 43.7656,-111.266 C42.5469,-111.266 40.0313,-110.031 37.1406,-107.25 C34.8438,-105.063 31.5781,-101.172 29.0156,-95.1563 C26.0156,-88.0938 25.7969,-78.6094 26.1563,-71.8906 C26.5313,-64.6094 27.6406,-58.9219 27.6563,-58.875 C27.6719,-58.7813 27.9375,-57.2813 28.375,-54.7188 C28.1563,-54.4844 27.9063,-54.2656 27.6563,-54.0156 C26.625,-53.0156 25.4375,-51.8906 24.0469,-50.5 C23.1875,-49.6406 22.2344,-48.7344 21.2344,-47.7656 C12.7969,-39.625 0,-27.2969 0,-8.14063 C0,-3.4375 0.90625,0.984375 2.6875,5 C4.26563,8.59375 6.5625,11.875 9.5,14.75 C17.2344,22.3125 27.8281,25.5156 34.875,25.3594 C37.8281,25.2813 40.4688,25.0469 42.8594,24.5938 C44.6875,34.2031 45.8281,41.2344 45.8594,46.5781 C45.9063,53.0938 44.25,57.0781 40.3594,59.8438 C37.9219,61.5781 35.1094,62.5313 32.0156,62.6719 C29.4219,62.7969 27.1563,62.3281 25.7344,61.9219 L25.7188,61.9219 C25.7188,61.9219 25.4375,61.8281 25.4219,61.6406 C25.4063,61.4531 25.7656,61.4063 25.7656,61.4063 L25.7969,61.4063 C27.7188,60.9688 31.2813,59.7344 33.6406,56.4375 C35.4375,53.9063 36.3125,49.2813 34.4688,45.3438 C33.3594,42.9531 30.8594,40 25.2344,39.5469 C22.7344,39.3438 20.4688,39.8594 18.4688,41.0625 C16.6563,42.1406 15.1563,43.7813 14.1094,45.7813 C11.6563,50.4844 12.1094,56.2188 15.2344,60.0625 C18.2031,63.6875 22.8125,66 28.25,66.5781 C29.1094,66.6719 29.9531,66.7031 30.7969,66.7031 C35.2344,66.7031 39.625,65.5 43.2031,63.2969 C46.8594,60.7188 48.9844,56.7344 49.6563,51.1094 C50.2188,46.4688 49.8281,40.5469 48.4375,32.4688 C48.0781,30.375 47.5313,27.3438 46.875,23.5938 C52.625,21.6719 56.7813,18.0938 60.5469,12.2344 C63.8438,6.5 64.7813,0.390625 63.3594,-5.92188 M29.1406,20.2969 C24.5,19.0781 20.0625,16.5781 16.3125,13.0625 C15,11.8438 13.125,9.67188 11.6563,6.28125 C10.2969,3.10938 9.625,-0.328125 9.6875,-3.90625 C9.75,-8.60938 11.0625,-13.4375 13.5625,-18.2188 C16.4844,-23.7969 21.0469,-29.3281 27.1094,-34.6563 C28.5625,-35.9375 29.9375,-37.2188 31.2188,-38.5 C31.9844,-34.2344 32.8125,-29.5469 33.6875,-24.6719 C29.8438,-23.4063 25.0938,-20.25 21.9844,-14.5938 C18.4375,-8.03125 18.5781,-2.5 19.3125,0.984375 C20.25,5.4375 22.7813,9.20313 26.2344,11.2969 C27.1719,11.8594 31.2969,13.9844 33.1406,13.4063 C33.5156,13.2969 33.7813,13.0625 33.9219,12.7344 C34.4375,11.5625 33.4063,10.9219 31.8594,9.96875 C31.25,9.59375 30.5781,9.17188 29.8594,8.64063 C26.5313,6.15625 25.0781,1.70313 26.1563,-2.6875 C26.7344,-5.07813 28.0156,-7.25 29.8594,-8.95313 C31.5156,-10.5 33.5625,-11.5938 35.9375,-12.2344 C37.9844,-0.984375 40.0469,10.1719 41.6875,18.5313 C41.8125,19.2188 41.9531,19.8906 42.0781,20.5625 C37.7031,21.5 33.3594,21.4063 29.1406,20.2969 M40.4688,-12.9063 C50.8125,-13.375 55.0781,-5.9375 55.9688,-1.10938 C56.4375,1.4375 56.4375,5.875 54.8906,10.0938 C53.7188,13.2656 51.2656,17.3438 46.125,19.4063 C46.0625,18.9844 45.9844,18.5469 45.9063,18.125 C44.3594,9.34375 42.4219,-1.65625 40.4688,-12.9063 M33.1406,-83.8594 C34.9219,-89.5938 37.6563,-92.8438 39.6563,-94.5781 C41.4063,-96.0938 43.0469,-96.8125 43.9688,-96.8125 C44.1094,-96.8125 44.2344,-96.7813 44.3281,-96.75 C44.7969,-96.6094 45.3281,-96.0469 45.7969,-95.1719 C48.1094,-90.8906 47.3594,-84.1719 46.0156,-79.7344 C44.3906,-74.3281 41.4688,-68.7188 32.6719,-59.1094 C32.5,-60.2188 32.3438,-61.2656 32.1875,-62.25 C30.9375,-70.5313 31.2656,-77.8125 33.1406,-83.8594"/>
<path class="TimeSig" transform="matrix(0.992126,0,0,0.992126,244.951,212.73)" d="M3.59375,12.625 L20.7656,12.625 L20.7656,20.0781 L12.5469,20.0781 C11.7656,20.0781 11.125,20.7031 11.125,21.4844 L11.125,23.3906 C11.125,24.1719 11.7656,24.7969 12.5469,24.7969 L42.7969,24.7969 C43.5781,24.7969 44.2031,24.1719 44.2031,23.3906 L44.2031,21.4844 C44.2031,20.7031 43.5781,20.0781 42.7969,20.0781 L33.8594,20.0781 L33.8594,12.625 L42.7969,12.625 C43.5781,12.625 44.2031,12 44.2031,11.2188 L44.2031,9.3125 C44.2031,8.53125 43.5781,7.90625 42.7969,7.90625 L33.8594,7.90625 L33.8594,-8.0625 C33.8594,-8.59375 33.5469,-9.07813 33.0781,-9.3125 L31.8594,-9.92188 C31.3281,-10.1719 30.7031,-10.0781 30.2656,-9.6875 L21.2188,-1.375 C20.9375,-1.09375 20.7656,-0.734375 20.7656,-0.328125 L20.7656,7.90625 L9.25,7.90625 C9.25,7.90625 20.375,-4.125 32.2188,-19.8906 C33.0781,-21.0469 32.5781,-22.0938 32.3906,-22.2813 L30.2188,-24.4844 C29.9531,-24.75 29.5938,-24.9063 29.2188,-24.9063 C28.625,-24.9063 15.0625,-24.875 14.3438,-24.9063 C13.625,-24.9219 13.0938,-24.2969 13.0156,-23.6875 C13.0156,-23.6875 12.4844,-16.3281 9.875,-8.1875 C7.28125,-0.078125 4.34375,4.90625 1.6875,8.53125 C1.6875,8.53125 1.14063,9.51563 1.5,10.2656 C1.84375,11.0156 2.48438,12.0938 2.48438,12.0938 C2.48438,12.0938 2.73438,12.625 3.59375,12.625"/>
<path class="TimeSig" transform="matrix(0.992126,0,0,0.992126,244.951,262.073)" d="M3.59375,12.625 L20.7656,12.625 L20.7656,20.0781 L12.5469,20.0781 C11.7656,20.0781 11.125,20.7031 11.125,21.4844 L11.125,23.3906 C11.125,24.1719 11.7656,24.7969 12.5469,24.7969 L42.7969,24.7969 C43.5781,24.7969 44.2031,24.1719 44.2031,23.3906 L44.2031,21.4844 C44.2031,20.7031 43.5781,20.0781 42.7969,20.0781 L33.8594,20.0781 L33.8594,12.625 L42.7969,12.625 C43.5781,12.625 44.2031,12 44.2031,11.2188 L44.2031,9.3125 C44.2031,8.53125 43.5781,7.90625 42.7969,7.90625 L33.8594,7.90625 L33.8594,-8.0625 C33.8594,-8.59375 33.5469,-9.07813 33.0781,-9.3125 L31.8594,-9.92188 C31.3281,-10.1719 30.7031,-10.0781 30.2656,-9.6875 L21.2188,-1.375 C20.9375,-1.09375 20.7656,-0.734375 20.7656,-0.328125 L20.7656,7.90625 L9.25,7.90625 C9.25,7.90625 20.375,-4.125 32.2188,-19.8906 C33.0781,-21.0469 32.5781,-22.0938 32.3906,-22.2813 L30.2188,-24.4844 C29.9531,-24.75 29.5938,-24.9063 29.2188,-24.9063 C28.625,-24.9063 15.0625,-24.875 14.3438,-24.9063 C13.625,-24.9219 13.0938,-24.2969 13.0156,-23.6875 C13.0156,-23.6875 12.4844,-16.3281 9.875,-8.1875 C7.28125,-0.078125 4.34375,4.90625 1.6875,8.53125 C1.6875,8.53125 1.14063,9.51563 1.5,10.2656 C1.84375,11.0156 2.48438,12.0938 2.48438,12.0938 C2.48438,12.0938 2.73438,12.625 3.59375,12.625"/>
<path class="RehearsalMark" fill="none" stroke="#000000" stroke-width="3.97" stroke-linecap="square" stroke-linejoin="miter" stroke-miterlimit="2" fill-rule="evenodd" d="M154.216,21.0729 L262.987,21.0729 L262.987,122.845 L154.216,122.845 L154.216,21.0729 "/>
<path class="RehearsalMark" d="M205.352,35.4899 L182.883,87.9587 C178.32,98.6618 174.664,102.521 168.82,103.115 L168.82,108.459 L197.43,108.459 L197.43,103.115 C190.398,102.724 187.633,100.834 187.633,96.2868 C187.633,94.5993 188.023,93.0212 189.117,90.6462 L190.695,86.8806 L215.352,86.8806 L219.117,96.5837 C220.195,99.3493 220.305,99.8493 220.305,100.631 C220.305,102.427 218.914,103.021 214.555,103.021 L212.867,103.115 L212.867,108.459 L247.617,108.459 L247.617,103.115 C241.977,102.912 240.398,101.927 238.32,96.8806 L212.867,35.4899 L205.352,35.4899 M203.273,56.5837 L212.867,80.2399 L193.273,80.2399 L203.273,56.5837 "/>
<path class="RehearsalMark" fill="none" stroke="#000000" stroke-width="3.97" stroke-linecap="square" stroke-linejoin="miter" stroke-miterlimit="2" fill-rule="evenodd" d="M32.3294,654.622 L133.101,654.622 L133.101,755.393 L32.3294,755.393 L32.3294,654.622 "/>
<path class="RehearsalMark" d="M47.4027,669.523 L47.4027,674.882 L48.8871,674.882 C54.2308,674.882 56.1058,675.273 56.9964,676.257 C57.6996,677.351 57.6996,677.648 57.6996,683.789 L57.6996,726.757 C57.6996,732.882 57.6996,733.179 56.9964,734.179 C56.1058,735.273 54.1371,735.664 48.8871,735.664 L47.4027,735.664 L47.4027,741.007 L87.4964,741.007 C97.7933,741.007 103.043,740.211 108.184,737.945 C114.418,735.164 118.575,728.929 118.575,722.195 C118.575,715.273 114.621,709.82 107.293,706.461 C103.934,704.867 101.059,704.086 95.8089,703.382 C100.653,702.601 103.434,701.898 106.2,700.617 C112.137,697.742 115.309,692.992 115.309,687.054 C115.309,681.414 112.34,676.164 107.496,673.492 C102.043,670.414 97.2933,669.523 85.6058,669.523 L47.4027,669.523 M75.5121,701.601 L75.5121,680.617 C75.3089,676.461 76.6996,675.07 81.0589,674.882 L84.0277,674.882 C92.7464,674.882 97.3871,679.226 97.3871,687.445 C97.3871,692.304 95.7152,696.164 92.5433,698.632 C89.8714,700.82 86.4964,701.601 80.3714,701.601 L75.5121,701.601 M75.5121,707.054 L82.3402,707.054 C88.5746,707.054 91.4496,707.648 94.2308,709.429 C97.6839,711.711 99.6683,716.054 99.6683,721.211 C99.6683,725.961 97.8871,730.32 95.0121,732.695 C92.5433,734.664 89.2777,735.664 84.5277,735.664 L81.5589,735.664 C75.9027,735.461 75.3089,734.867 75.5121,729.32 L75.5121,707.054 "/>
<path class="Harmony" d="M350.527,121.866 C350.496,121.881 350.449,121.881 350.386,121.881 C350.324,121.881 350.277,121.897 350.246,121.897 C350.199,121.912 350.152,121.912 350.09,121.928 C350.027,121.928 349.996,121.944 349.949,121.959 C349.902,121.975 349.871,122.006 349.824,122.022 C349.777,122.053 349.746,122.069 349.73,122.116 C349.683,122.147 349.668,122.178 349.636,122.225 C349.621,122.256 349.605,122.319 349.605,122.366 C349.605,122.397 349.605,122.428 349.605,122.475 L349.605,122.506 C349.605,122.537 349.605,122.584 349.605,122.647 C349.621,122.709 349.621,122.756 349.621,122.787 C349.621,123.366 349.636,123.928 349.652,124.475 C349.652,124.506 349.652,124.537 349.652,124.569 C349.652,124.678 349.652,124.819 349.636,124.975 C349.621,125.178 349.621,125.319 349.621,125.412 L349.621,125.444 L349.621,125.537 C349.621,125.553 349.621,125.584 349.636,125.616 C349.636,125.647 349.636,125.662 349.652,125.678 C349.668,125.694 349.683,125.709 349.715,125.725 C349.73,125.741 349.761,125.741 349.793,125.741 L349.808,125.741 C349.98,125.741 350.152,125.709 350.324,125.631 C350.511,125.569 350.668,125.491 350.824,125.381 C350.98,125.287 351.121,125.162 351.261,125.006 C351.402,124.866 351.527,124.709 351.621,124.553 C351.73,124.397 351.808,124.225 351.871,124.053 C351.949,123.881 351.98,123.709 351.98,123.537 C351.996,123.506 351.996,123.459 351.996,123.428 C351.996,123.334 351.98,123.241 351.965,123.131 C351.933,122.991 351.902,122.85 351.84,122.725 C351.793,122.6 351.715,122.475 351.621,122.366 C351.543,122.241 351.433,122.147 351.324,122.069 C351.215,121.991 351.09,121.928 350.949,121.897 C350.871,121.866 350.777,121.866 350.668,121.866 C350.621,121.866 350.574,121.866 350.527,121.866 M350.215,125.1 C350.215,124.959 350.215,124.741 350.215,124.475 C350.23,124.256 350.23,124.053 350.23,123.866 C350.23,123.819 350.23,123.787 350.23,123.741 C350.23,123.522 350.215,123.303 350.215,123.1 C350.215,123.069 350.199,123.037 350.199,122.959 C350.183,122.881 350.168,122.803 350.168,122.741 C350.152,122.709 350.152,122.678 350.152,122.647 C350.152,122.616 350.152,122.584 350.168,122.553 C350.168,122.491 350.199,122.444 350.23,122.412 C350.277,122.381 350.324,122.366 350.386,122.366 C350.402,122.366 350.402,122.366 350.418,122.366 C350.496,122.381 350.574,122.397 350.668,122.444 C350.746,122.491 350.824,122.553 350.902,122.616 C350.98,122.678 351.043,122.741 351.105,122.787 C351.168,122.85 351.199,122.897 351.23,122.944 C351.308,123.069 351.371,123.225 351.402,123.381 C351.418,123.475 351.418,123.553 351.418,123.647 C351.418,123.709 351.418,123.787 351.418,123.85 C351.386,124.006 351.34,124.147 351.277,124.303 C351.215,124.444 351.121,124.569 351.027,124.694 C350.918,124.803 350.793,124.897 350.668,124.959 C350.527,125.037 350.371,125.084 350.215,125.1"/>
<path class="Harmony" d="M369.027,70.4327 C367.074,70.6827 365.23,71.1358 363.418,71.7765 C361.621,72.4327 359.98,73.339 358.371,74.3858 C356.777,75.4327 355.324,76.6358 354.074,77.9796 C352.824,79.339 351.777,80.8858 350.871,82.6358 C349.98,84.3858 349.371,86.2296 349.027,88.1827 C348.777,89.3858 348.668,90.6358 348.668,91.8858 L348.668,92.2296 C348.668,93.4327 348.73,94.589 348.871,95.7296 C349.027,96.9796 349.324,98.2296 349.73,99.3858 C350.168,100.589 350.668,101.73 351.23,102.792 C351.777,103.839 352.48,104.792 353.277,105.636 C354.074,106.48 355.074,107.183 356.074,107.792 C357.074,108.386 358.23,108.839 359.48,109.089 C360.324,109.23 361.168,109.339 362.027,109.339 C362.48,109.339 362.98,109.339 363.527,109.292 C365.074,109.136 366.527,108.792 367.871,108.292 C369.23,107.792 370.48,107.183 371.527,106.48 C372.574,105.792 373.621,104.886 374.574,103.886 C375.527,102.886 376.433,101.792 377.183,100.683 C377.933,99.589 378.621,98.339 379.371,96.9327 C380.527,94.6358 381.074,92.6827 381.074,91.1358 C381.074,89.589 380.527,88.3858 379.371,87.5421 C378.73,86.9796 377.621,86.6358 376.183,86.3858 C375.121,86.2296 374.074,86.1358 373.027,86.1358 L372.777,86.1358 L371.668,86.1358 C370.121,86.1827 368.668,86.4327 367.277,86.8858 C365.871,87.339 364.918,87.8858 364.418,88.5421 C364.277,88.7921 364.121,88.9796 363.98,89.1827 C363.621,89.7296 363.418,90.2296 363.418,90.6827 C363.418,91.339 363.871,91.7921 364.73,92.0421 C365.418,92.2296 366.777,92.339 368.73,92.339 L369.168,92.339 C369.824,92.3858 370.324,92.3858 370.668,92.3858 C372.73,92.3858 373.98,92.6358 374.371,93.1827 C374.527,93.3858 374.683,93.6827 374.683,93.9796 C374.683,94.2921 374.621,94.589 374.574,94.8858 C374.527,95.1827 374.371,95.5421 374.23,95.9327 C374.074,96.339 373.918,96.6358 373.777,96.8858 C373.621,97.1358 373.48,97.4796 373.277,97.8858 C373.074,98.2921 372.918,98.4796 372.871,98.589 C372.621,99.0421 372.48,99.3858 372.324,99.6358 C372.168,99.8858 371.98,100.136 371.73,100.48 C371.48,100.839 371.168,101.136 370.918,101.339 C369.871,102.136 368.73,102.683 367.371,102.933 L365.668,103.136 L365.48,103.136 C364.824,103.089 364.121,103.042 363.48,102.886 C362.23,102.636 360.98,102.183 359.824,101.48 C358.668,100.792 357.668,99.9327 356.918,98.9327 C356.168,97.8858 355.48,96.6358 354.98,95.2296 C354.48,93.839 354.168,92.3858 354.074,90.839 C354.027,90.2921 354.027,89.7921 354.027,89.2296 C354.027,88.2296 354.074,87.2296 354.23,86.2921 C354.48,84.839 354.918,83.4327 355.621,82.1358 C356.324,80.839 357.23,79.7765 358.324,78.9796 C359.668,77.9327 361.324,77.1827 363.23,76.6827 C364.277,76.3858 365.324,76.2296 366.324,76.2296 C367.027,76.2296 367.73,76.339 368.371,76.4796 C368.918,76.6358 369.48,76.839 370.121,77.1358 C370.777,77.4327 371.324,77.7296 371.824,78.0265 C372.324,78.339 372.871,78.6358 373.418,78.9327 C373.98,79.2296 374.527,79.4796 375.027,79.589 C375.527,79.6827 376.027,79.7296 376.527,79.6827 C377.027,79.6358 377.527,79.3858 378.027,78.9327 C378.527,78.4796 378.98,77.8858 379.433,77.1358 C379.683,76.6827 379.824,76.2296 379.824,75.7765 C379.824,75.4327 379.73,75.1358 379.574,74.7765 C379.183,74.0265 378.527,73.3858 377.621,72.839 C376.73,72.2765 375.777,71.7765 374.683,71.3858 C373.574,70.9796 372.527,70.7296 371.48,70.589 C370.73,70.4327 370.121,70.3858 369.621,70.3858 C369.371,70.3858 369.168,70.3858 369.027,70.4327"/>
<path class="Harmony" d="M1028.49,86.8343 C1026.54,87.0843 1024.7,87.5374 1022.88,88.178 C1021.09,88.8343 1019.45,89.7405 1017.84,90.7874 C1016.24,91.8343 1014.79,93.0374 1013.54,94.3812 C1012.29,95.7405 1011.24,97.2874 1010.34,99.0374 C1009.45,100.787 1008.84,102.631 1008.49,104.584 C1008.24,105.787 1008.13,107.037 1008.13,108.287 L1008.13,108.631 C1008.13,109.834 1008.2,110.991 1008.34,112.131 C1008.49,113.381 1008.79,114.631 1009.2,115.787 C1009.63,116.991 1010.13,118.131 1010.7,119.194 C1011.24,120.241 1011.95,121.194 1012.74,122.037 C1013.54,122.881 1014.54,123.584 1015.54,124.194 C1016.54,124.787 1017.7,125.241 1018.95,125.491 C1019.79,125.631 1020.63,125.741 1021.49,125.741 C1021.95,125.741 1022.45,125.741 1022.99,125.694 C1024.54,125.537 1025.99,125.194 1027.34,124.694 C1028.7,124.194 1029.95,123.584 1030.99,122.881 C1032.04,122.194 1033.09,121.287 1034.04,120.287 C1034.99,119.287 1035.9,118.194 1036.65,117.084 C1037.4,115.991 1038.09,114.741 1038.84,113.334 C1039.99,111.037 1040.54,109.084 1040.54,107.537 C1040.54,105.991 1039.99,104.787 1038.84,103.944 C1038.2,103.381 1037.09,103.037 1035.65,102.787 C1034.59,102.631 1033.54,102.537 1032.49,102.537 L1032.24,102.537 L1031.13,102.537 C1029.59,102.584 1028.13,102.834 1026.74,103.287 C1025.34,103.741 1024.38,104.287 1023.88,104.944 C1023.74,105.194 1023.59,105.381 1023.45,105.584 C1023.09,106.131 1022.88,106.631 1022.88,107.084 C1022.88,107.741 1023.34,108.194 1024.2,108.444 C1024.88,108.631 1026.24,108.741 1028.2,108.741 L1028.63,108.741 C1029.29,108.787 1029.79,108.787 1030.13,108.787 C1032.2,108.787 1033.45,109.037 1033.84,109.584 C1033.99,109.787 1034.15,110.084 1034.15,110.381 C1034.15,110.694 1034.09,110.991 1034.04,111.287 C1033.99,111.584 1033.84,111.944 1033.7,112.334 C1033.54,112.741 1033.38,113.037 1033.24,113.287 C1033.09,113.537 1032.95,113.881 1032.74,114.287 C1032.54,114.694 1032.38,114.881 1032.34,114.991 C1032.09,115.444 1031.95,115.787 1031.79,116.037 C1031.63,116.287 1031.45,116.537 1031.2,116.881 C1030.95,117.241 1030.63,117.537 1030.38,117.741 C1029.34,118.537 1028.2,119.084 1026.84,119.334 L1025.13,119.537 L1024.95,119.537 C1024.29,119.491 1023.59,119.444 1022.95,119.287 C1021.7,119.037 1020.45,118.584 1019.29,117.881 C1018.13,117.194 1017.13,116.334 1016.38,115.334 C1015.63,114.287 1014.95,113.037 1014.45,111.631 C1013.95,110.241 1013.63,108.787 1013.54,107.241 C1013.49,106.694 1013.49,106.194 1013.49,105.631 C1013.49,104.631 1013.54,103.631 1013.7,102.694 C1013.95,101.241 1014.38,99.8343 1015.09,98.5374 C1015.79,97.2405 1016.7,96.178 1017.79,95.3812 C1019.13,94.3343 1020.79,93.5843 1022.7,93.0843 C1023.74,92.7874 1024.79,92.6312 1025.79,92.6312 C1026.49,92.6312 1027.2,92.7405 1027.84,92.8812 C1028.38,93.0374 1028.95,93.2405 1029.59,93.5374 C1030.24,93.8343 1030.79,94.1312 1031.29,94.428 C1031.79,94.7405 1032.34,95.0374 1032.88,95.3343 C1033.45,95.6312 1033.99,95.8812 1034.49,95.9905 C1034.99,96.0843 1035.49,96.1312 1035.99,96.0843 C1036.49,96.0374 1036.99,95.7874 1037.49,95.3343 C1037.99,94.8812 1038.45,94.2874 1038.9,93.5374 C1039.15,93.0843 1039.29,92.6312 1039.29,92.178 C1039.29,91.8343 1039.2,91.5374 1039.04,91.178 C1038.65,90.428 1037.99,89.7874 1037.09,89.2405 C1036.2,88.678 1035.24,88.178 1034.15,87.7874 C1033.04,87.3812 1031.99,87.1312 1030.95,86.9905 C1030.2,86.8343 1029.59,86.7874 1029.09,86.7874 C1028.84,86.7874 1028.63,86.7874 1028.49,86.8343"/>
<path class="Harmony" d="M1686.35,86.7405 C1684.66,86.9905 1682.96,87.4905 1681.31,88.2874 C1679.66,89.0843 1678.16,90.0843 1676.81,91.2874 C1675.46,92.4905 1674.21,93.8343 1673.06,95.3812 C1671.91,96.928 1671.01,98.5374 1670.26,100.178 C1669.51,101.834 1669.01,103.584 1668.71,105.444 C1668.56,106.444 1668.46,107.444 1668.46,108.381 C1668.46,109.194 1668.51,109.991 1668.6,110.741 C1668.85,112.287 1669.31,113.834 1670.01,115.287 C1670.71,116.741 1671.51,118.084 1672.51,119.334 C1673.51,120.584 1674.76,121.631 1676.1,122.584 C1677.46,123.537 1678.81,124.241 1680.26,124.741 C1681.6,125.194 1683.01,125.444 1684.56,125.444 L1684.71,125.444 L1684.85,125.444 C1686.51,125.381 1688.1,125.084 1689.66,124.491 C1690.1,124.334 1690.56,124.194 1691.01,123.991 C1691.46,123.787 1691.96,123.537 1692.6,123.194 C1693.26,122.834 1693.81,122.537 1694.37,122.194 C1694.91,121.834 1695.41,121.444 1695.91,120.991 C1696.41,120.537 1696.81,120.037 1697.06,119.584 C1697.31,119.131 1697.46,118.694 1697.46,118.131 C1697.41,117.584 1697.21,117.037 1696.87,116.491 C1696.71,116.241 1696.46,116.084 1696.21,115.991 C1695.96,115.881 1695.66,115.834 1695.41,115.881 C1695.16,115.944 1694.91,116.037 1694.62,116.194 C1694.31,116.334 1694.01,116.491 1693.76,116.584 C1693.51,116.694 1693.26,116.834 1692.96,117.037 C1692.66,117.241 1692.46,117.381 1692.31,117.444 C1690.56,118.381 1688.85,118.881 1687.1,118.881 C1685.51,118.881 1683.96,118.491 1682.41,117.694 C1680.96,116.944 1679.6,116.084 1678.41,115.084 C1677.21,114.084 1676.31,112.991 1675.66,111.741 C1675.1,110.584 1674.66,109.381 1674.41,108.131 C1674.16,106.991 1674.06,105.881 1674.06,104.741 L1674.06,104.334 C1674.06,103.084 1674.26,101.834 1674.66,100.584 C1675.06,99.3343 1675.56,98.178 1676.21,97.178 C1676.85,96.178 1677.76,95.2874 1678.81,94.5374 C1679.85,93.7874 1681.06,93.2874 1682.41,93.0374 C1682.71,92.928 1683.06,92.8812 1683.41,92.8812 C1683.66,92.928 1683.91,92.928 1684.16,92.9905 C1684.81,93.0843 1685.51,93.2405 1686.21,93.428 C1686.91,93.5843 1687.6,93.8343 1688.31,94.178 L1690.41,95.0843 C1691.1,95.3812 1691.81,95.5843 1692.46,95.8343 C1693.1,96.0843 1693.76,96.178 1694.41,96.2405 C1694.62,96.2874 1694.81,96.2874 1694.96,96.2874 C1695.37,96.2405 1695.76,96.178 1696.12,96.1312 C1696.62,96.0374 1697.06,95.7405 1697.51,95.2874 C1697.96,94.8343 1698.37,94.2874 1698.62,93.5374 C1698.71,93.178 1698.76,92.8812 1698.76,92.5843 C1698.81,92.3343 1698.76,92.0843 1698.66,91.8343 C1698.56,91.5843 1698.41,91.3812 1698.26,91.178 C1698.12,90.928 1697.91,90.7874 1697.66,90.5843 C1697.41,90.3812 1697.21,90.178 1697.01,90.0374 C1696.81,89.8812 1696.51,89.678 1696.26,89.5374 C1693.16,87.5843 1690.31,86.6312 1687.66,86.6312 C1687.21,86.6312 1686.81,86.678 1686.35,86.7405"/>
<path class="Harmony" d="M2336.43,86.6312 C2336.18,86.678 2335.77,86.7405 2335.13,86.7874 C2334.48,86.8343 2333.98,86.928 2333.63,86.9905 C2333.27,87.0374 2332.77,87.0843 2332.18,87.178 C2331.57,87.2874 2331.13,87.428 2330.73,87.5843 C2330.32,87.7405 2329.88,87.928 2329.48,88.178 C2329.07,88.428 2328.73,88.678 2328.48,89.0374 C2328.13,89.3812 2327.88,89.7874 2327.68,90.178 C2327.48,90.5843 2327.32,91.0843 2327.27,91.5843 C2327.23,91.928 2327.23,92.2874 2327.23,92.6312 L2327.23,92.928 C2327.27,93.2874 2327.27,93.7874 2327.32,94.3812 C2327.38,94.9905 2327.38,95.4905 2327.38,95.8343 C2327.38,101.537 2327.52,107.131 2327.77,112.694 C2327.82,112.991 2327.82,113.287 2327.82,113.631 C2327.77,114.694 2327.73,116.084 2327.63,117.741 C2327.48,119.694 2327.38,121.131 2327.38,122.084 L2327.38,122.381 L2327.38,123.241 C2327.38,123.491 2327.48,123.741 2327.52,124.037 C2327.57,124.334 2327.68,124.584 2327.82,124.741 C2327.98,124.881 2328.13,125.037 2328.38,125.194 C2328.57,125.287 2328.82,125.334 2329.13,125.334 L2329.27,125.334 C2331.02,125.287 2332.77,124.944 2334.52,124.287 C2336.27,123.631 2337.93,122.834 2339.48,121.787 C2341.02,120.741 2342.48,119.491 2343.88,118.037 C2345.27,116.584 2346.48,115.084 2347.48,113.491 C2348.48,111.881 2349.32,110.241 2349.98,108.491 C2350.63,106.741 2350.98,104.991 2351.07,103.334 C2351.13,102.991 2351.13,102.584 2351.13,102.241 C2351.13,101.287 2351.02,100.287 2350.82,99.2874 C2350.57,97.8812 2350.18,96.4905 2349.63,95.178 C2349.07,93.8812 2348.38,92.678 2347.48,91.5374 C2346.57,90.3812 2345.57,89.428 2344.48,88.6312 C2343.38,87.8343 2342.18,87.2405 2340.77,86.8812 C2339.88,86.6312 2338.93,86.5374 2337.98,86.5374 C2337.48,86.5374 2336.98,86.5843 2336.43,86.6312 M2333.32,118.944 C2333.32,117.491 2333.38,115.381 2333.43,112.694 C2333.48,110.537 2333.52,108.491 2333.52,106.631 C2333.52,106.194 2333.48,105.741 2333.48,105.287 C2333.48,103.084 2333.43,100.944 2333.32,98.928 C2333.32,98.678 2333.27,98.2405 2333.18,97.4905 C2333.07,96.7405 2332.93,96.0374 2332.88,95.3812 C2332.82,95.0843 2332.82,94.7874 2332.82,94.4905 C2332.82,94.1312 2332.82,93.8343 2332.88,93.4905 C2332.98,92.8343 2333.18,92.3343 2333.52,92.0843 C2333.98,91.7405 2334.48,91.5843 2335.02,91.5843 C2335.18,91.6312 2335.32,91.6312 2335.48,91.6312 C2336.23,91.7405 2337.02,91.9905 2337.88,92.428 C2338.73,92.8812 2339.52,93.4905 2340.27,94.0843 C2341.02,94.678 2341.73,95.2874 2342.27,95.8812 C2342.82,96.4905 2343.27,96.928 2343.52,97.3812 C2344.32,98.678 2344.88,100.131 2345.18,101.741 C2345.32,102.631 2345.43,103.537 2345.43,104.444 C2345.43,105.084 2345.38,105.741 2345.32,106.381 C2345.07,107.944 2344.63,109.444 2343.98,110.881 C2343.32,112.334 2342.48,113.631 2341.48,114.787 C2340.43,115.944 2339.23,116.834 2337.82,117.584 C2336.43,118.334 2334.93,118.787 2333.32,118.944"/>
<path class="Harmony" d="M190.127,396.874 C188.173,397.124 186.33,397.577 184.517,398.217 C182.72,398.874 181.08,399.78 179.47,400.827 C177.877,401.874 176.423,403.077 175.173,404.421 C173.923,405.78 172.877,407.327 171.97,409.077 C171.08,410.827 170.47,412.671 170.127,414.624 C169.877,415.827 169.767,417.077 169.767,418.327 L169.767,418.671 C169.767,419.874 169.83,421.03 169.97,422.171 C170.127,423.421 170.423,424.671 170.83,425.827 C171.267,427.03 171.767,428.171 172.33,429.233 C172.877,430.28 173.58,431.233 174.377,432.077 C175.173,432.921 176.173,433.624 177.173,434.233 C178.173,434.827 179.33,435.28 180.58,435.53 C181.423,435.671 182.267,435.78 183.127,435.78 C183.58,435.78 184.08,435.78 184.627,435.733 C186.173,435.577 187.627,435.233 188.97,434.733 C190.33,434.233 191.58,433.624 192.627,432.921 C193.673,432.233 194.72,431.327 195.673,430.327 C196.627,429.327 197.533,428.233 198.283,427.124 C199.033,426.03 199.72,424.78 200.47,423.374 C201.627,421.077 202.173,419.124 202.173,417.577 C202.173,416.03 201.627,414.827 200.47,413.983 C199.83,413.421 198.72,413.077 197.283,412.827 C196.22,412.671 195.173,412.577 194.127,412.577 L193.877,412.577 L192.767,412.577 C191.22,412.624 189.767,412.874 188.377,413.327 C186.97,413.78 186.017,414.327 185.517,414.983 C185.377,415.233 185.22,415.421 185.08,415.624 C184.72,416.171 184.517,416.671 184.517,417.124 C184.517,417.78 184.97,418.233 185.83,418.483 C186.517,418.671 187.877,418.78 189.83,418.78 L190.267,418.78 C190.923,418.827 191.423,418.827 191.767,418.827 C193.83,418.827 195.08,419.077 195.47,419.624 C195.627,419.827 195.783,420.124 195.783,420.421 C195.783,420.733 195.72,421.03 195.673,421.327 C195.627,421.624 195.47,421.983 195.33,422.374 C195.173,422.78 195.017,423.077 194.877,423.327 C194.72,423.577 194.58,423.921 194.377,424.327 C194.173,424.733 194.017,424.921 193.97,425.03 C193.72,425.483 193.58,425.827 193.423,426.077 C193.267,426.327 193.08,426.577 192.83,426.921 C192.58,427.28 192.267,427.577 192.017,427.78 C190.97,428.577 189.83,429.124 188.47,429.374 L186.767,429.577 L186.58,429.577 C185.923,429.53 185.22,429.483 184.58,429.327 C183.33,429.077 182.08,428.624 180.923,427.921 C179.767,427.233 178.767,426.374 178.017,425.374 C177.267,424.327 176.58,423.077 176.08,421.671 C175.58,420.28 175.267,418.827 175.173,417.28 C175.127,416.733 175.127,416.233 175.127,415.671 C175.127,414.671 175.173,413.671 175.33,412.733 C175.58,411.28 176.017,409.874 176.72,408.577 C177.423,407.28 178.33,406.217 179.423,405.421 C180.767,404.374 182.423,403.624 184.33,403.124 C185.377,402.827 186.423,402.671 187.423,402.671 C188.127,402.671 188.83,402.78 189.47,402.921 C190.017,403.077 190.58,403.28 191.22,403.577 C191.877,403.874 192.423,404.171 192.923,404.467 C193.423,404.78 193.97,405.077 194.517,405.374 C195.08,405.671 195.627,405.921 196.127,406.03 C196.627,406.124 197.127,406.171 197.627,406.124 C198.127,406.077 198.627,405.827 199.127,405.374 C199.627,404.921 200.08,404.327 200.533,403.577 C200.783,403.124 200.923,402.671 200.923,402.217 C200.923,401.874 200.83,401.577 200.673,401.217 C200.283,400.467 199.627,399.827 198.72,399.28 C197.83,398.717 196.877,398.217 195.783,397.827 C194.673,397.421 193.627,397.171 192.58,397.03 C191.83,396.874 191.22,396.827 190.72,396.827 C190.47,396.827 190.267,396.827 190.127,396.874"/>
<path class="Harmony" d="M883.749,396.874 C881.796,397.124 879.952,397.577 878.139,398.217 C876.343,398.874 874.702,399.78 873.093,400.827 C871.499,401.874 870.046,403.077 868.796,404.421 C867.546,405.78 866.499,407.327 865.593,409.077 C864.702,410.827 864.093,412.671 863.749,414.624 C863.499,415.827 863.389,417.077 863.389,418.327 L863.389,418.671 C863.389,419.874 863.452,421.03 863.593,422.171 C863.749,423.421 864.046,424.671 864.452,425.827 C864.889,427.03 865.389,428.171 865.952,429.233 C866.499,430.28 867.202,431.233 867.999,432.077 C868.796,432.921 869.796,433.624 870.796,434.233 C871.796,434.827 872.952,435.28 874.202,435.53 C875.046,435.671 875.889,435.78 876.749,435.78 C877.202,435.78 877.702,435.78 878.249,435.733 C879.796,435.577 881.249,435.233 882.593,434.733 C883.952,434.233 885.202,433.624 886.249,432.921 C887.296,432.233 888.343,431.327 889.296,430.327 C890.249,429.327 891.155,428.233 891.905,427.124 C892.655,426.03 893.343,424.78 894.093,423.374 C895.249,421.077 895.796,419.124 895.796,417.577 C895.796,416.03 895.249,414.827 894.093,413.983 C893.452,413.421 892.343,413.077 890.905,412.827 C889.843,412.671 888.796,412.577 887.749,412.577 L887.499,412.577 L886.389,412.577 C884.843,412.624 883.389,412.874 881.999,413.327 C880.593,413.78 879.639,414.327 879.139,414.983 C878.999,415.233 878.843,415.421 878.702,415.624 C878.343,416.171 878.139,416.671 878.139,417.124 C878.139,417.78 878.593,418.233 879.452,418.483 C880.139,418.671 881.499,418.78 883.452,418.78 L883.889,418.78 C884.546,418.827 885.046,418.827 885.389,418.827 C887.452,418.827 888.702,419.077 889.093,419.624 C889.249,419.827 889.405,420.124 889.405,420.421 C889.405,420.733 889.343,421.03 889.296,421.327 C889.249,421.624 889.093,421.983 888.952,422.374 C888.796,422.78 888.639,423.077 888.499,423.327 C888.343,423.577 888.202,423.921 887.999,424.327 C887.796,424.733 887.639,424.921 887.593,425.03 C887.343,425.483 887.202,425.827 887.046,426.077 C886.889,426.327 886.702,426.577 886.452,426.921 C886.202,427.28 885.889,427.577 885.639,427.78 C884.593,428.577 883.452,429.124 882.093,429.374 L880.389,429.577 L880.202,429.577 C879.546,429.53 878.843,429.483 878.202,429.327 C876.952,429.077 875.702,428.624 874.546,427.921 C873.389,427.233 872.389,426.374 871.639,425.374 C870.889,424.327 870.202,423.077 869.702,421.671 C869.202,420.28 868.889,418.827 868.796,417.28 C868.749,416.733 868.749,416.233 868.749,415.671 C868.749,414.671 868.796,413.671 868.952,412.733 C869.202,411.28 869.639,409.874 870.343,408.577 C871.046,407.28 871.952,406.217 873.046,405.421 C874.389,404.374 876.046,403.624 877.952,403.124 C878.999,402.827 880.046,402.671 881.046,402.671 C881.749,402.671 882.452,402.78 883.093,402.921 C883.639,403.077 884.202,403.28 884.843,403.577 C885.499,403.874 886.046,404.171 886.546,404.467 C887.046,404.78 887.593,405.077 888.139,405.374 C888.702,405.671 889.249,405.921 889.749,406.03 C890.249,406.124 890.749,406.171 891.249,406.124 C891.749,406.077 892.249,405.827 892.749,405.374 C893.249,404.921 893.702,404.327 894.155,403.577 C894.405,403.124 894.546,402.671 894.546,402.217 C894.546,401.874 894.452,401.577 894.296,401.217 C893.905,400.467 893.249,399.827 892.343,399.28 C891.452,398.717 890.499,398.217 889.405,397.827 C888.296,397.421 887.249,397.171 886.202,397.03 C885.452,396.874 884.843,396.827 884.343,396.827 C884.093,396.827 883.889,396.827 883.749,396.874"/>
<path class="Harmony" d="M1575.76,396.78 C1574.07,397.03 1572.37,397.53 1570.71,398.327 C1569.07,399.124 1567.57,400.124 1566.21,401.327 C1564.87,402.53 1563.62,403.874 1562.46,405.421 C1561.32,406.967 1560.42,408.577 1559.67,410.217 C1558.92,411.874 1558.42,413.624 1558.12,415.483 C1557.96,416.483 1557.87,417.483 1557.87,418.421 C1557.87,419.233 1557.92,420.03 1558.01,420.78 C1558.26,422.327 1558.71,423.874 1559.42,425.327 C1560.12,426.78 1560.92,428.124 1561.92,429.374 C1562.92,430.624 1564.17,431.671 1565.51,432.624 C1566.87,433.577 1568.21,434.28 1569.67,434.78 C1571.01,435.233 1572.42,435.483 1573.96,435.483 L1574.12,435.483 L1574.26,435.483 C1575.92,435.421 1577.51,435.124 1579.07,434.53 C1579.51,434.374 1579.96,434.233 1580.42,434.03 C1580.87,433.827 1581.37,433.577 1582.01,433.233 C1582.67,432.874 1583.21,432.577 1583.78,432.233 C1584.32,431.874 1584.82,431.483 1585.32,431.03 C1585.82,430.577 1586.21,430.077 1586.46,429.624 C1586.71,429.171 1586.87,428.733 1586.87,428.171 C1586.82,427.624 1586.62,427.077 1586.28,426.53 C1586.12,426.28 1585.87,426.124 1585.62,426.03 C1585.37,425.921 1585.07,425.874 1584.82,425.921 C1584.57,425.983 1584.32,426.077 1584.03,426.233 C1583.71,426.374 1583.42,426.53 1583.17,426.624 C1582.92,426.733 1582.67,426.874 1582.37,427.077 C1582.07,427.28 1581.87,427.421 1581.71,427.483 C1579.96,428.421 1578.26,428.921 1576.51,428.921 C1574.92,428.921 1573.37,428.53 1571.82,427.733 C1570.37,426.983 1569.01,426.124 1567.82,425.124 C1566.62,424.124 1565.71,423.03 1565.07,421.78 C1564.51,420.624 1564.07,419.421 1563.82,418.171 C1563.57,417.03 1563.46,415.921 1563.46,414.78 L1563.46,414.374 C1563.46,413.124 1563.67,411.874 1564.07,410.624 C1564.46,409.374 1564.96,408.217 1565.62,407.217 C1566.26,406.217 1567.17,405.327 1568.21,404.577 C1569.26,403.827 1570.46,403.327 1571.82,403.077 C1572.12,402.967 1572.46,402.921 1572.82,402.921 C1573.07,402.967 1573.32,402.967 1573.57,403.03 C1574.21,403.124 1574.92,403.28 1575.62,403.467 C1576.32,403.624 1577.01,403.874 1577.71,404.217 L1579.82,405.124 C1580.51,405.421 1581.21,405.624 1581.87,405.874 C1582.51,406.124 1583.17,406.217 1583.82,406.28 C1584.03,406.327 1584.21,406.327 1584.37,406.327 C1584.78,406.28 1585.17,406.217 1585.53,406.171 C1586.03,406.077 1586.46,405.78 1586.92,405.327 C1587.37,404.874 1587.78,404.327 1588.03,403.577 C1588.12,403.217 1588.17,402.921 1588.17,402.624 C1588.21,402.374 1588.17,402.124 1588.07,401.874 C1587.96,401.624 1587.82,401.421 1587.67,401.217 C1587.53,400.967 1587.32,400.827 1587.07,400.624 C1586.82,400.421 1586.62,400.217 1586.42,400.077 C1586.21,399.921 1585.92,399.717 1585.67,399.577 C1582.57,397.624 1579.71,396.671 1577.07,396.671 C1576.62,396.671 1576.21,396.717 1575.76,396.78"/>
<path class="Harmony" d="M2259.99,396.671 C2259.74,396.717 2259.34,396.78 2258.7,396.827 C2258.04,396.874 2257.54,396.967 2257.2,397.03 C2256.84,397.077 2256.34,397.124 2255.74,397.217 C2255.13,397.327 2254.7,397.467 2254.29,397.624 C2253.88,397.78 2253.45,397.967 2253.04,398.217 C2252.63,398.467 2252.29,398.717 2252.04,399.077 C2251.7,399.421 2251.45,399.827 2251.24,400.217 C2251.04,400.624 2250.88,401.124 2250.84,401.624 C2250.79,401.967 2250.79,402.327 2250.79,402.671 L2250.79,402.967 C2250.84,403.327 2250.84,403.827 2250.88,404.421 C2250.95,405.03 2250.95,405.53 2250.95,405.874 C2250.95,411.577 2251.09,417.171 2251.34,422.733 C2251.38,423.03 2251.38,423.327 2251.38,423.671 C2251.34,424.733 2251.29,426.124 2251.2,427.78 C2251.04,429.733 2250.95,431.171 2250.95,432.124 L2250.95,432.421 L2250.95,433.28 C2250.95,433.53 2251.04,433.78 2251.09,434.077 C2251.13,434.374 2251.24,434.624 2251.38,434.78 C2251.54,434.921 2251.7,435.077 2251.95,435.233 C2252.13,435.327 2252.38,435.374 2252.7,435.374 L2252.84,435.374 C2254.59,435.327 2256.34,434.983 2258.09,434.327 C2259.84,433.671 2261.49,432.874 2263.04,431.827 C2264.59,430.78 2266.04,429.53 2267.45,428.077 C2268.84,426.624 2270.04,425.124 2271.04,423.53 C2272.04,421.921 2272.88,420.28 2273.54,418.53 C2274.2,416.78 2274.54,415.03 2274.63,413.374 C2274.7,413.03 2274.7,412.624 2274.7,412.28 C2274.7,411.327 2274.59,410.327 2274.38,409.327 C2274.13,407.921 2273.74,406.53 2273.2,405.217 C2272.63,403.921 2271.95,402.717 2271.04,401.577 C2270.13,400.421 2269.13,399.467 2268.04,398.671 C2266.95,397.874 2265.74,397.28 2264.34,396.921 C2263.45,396.671 2262.49,396.577 2261.54,396.577 C2261.04,396.577 2260.54,396.624 2259.99,396.671 M2256.88,428.983 C2256.88,427.53 2256.95,425.421 2256.99,422.733 C2257.04,420.577 2257.09,418.53 2257.09,416.671 C2257.09,416.233 2257.04,415.78 2257.04,415.327 C2257.04,413.124 2256.99,410.983 2256.88,408.967 C2256.88,408.717 2256.84,408.28 2256.74,407.53 C2256.63,406.78 2256.49,406.077 2256.45,405.421 C2256.38,405.124 2256.38,404.827 2256.38,404.53 C2256.38,404.171 2256.38,403.874 2256.45,403.53 C2256.54,402.874 2256.74,402.374 2257.09,402.124 C2257.54,401.78 2258.04,401.624 2258.59,401.624 C2258.74,401.671 2258.88,401.671 2259.04,401.671 C2259.79,401.78 2260.59,402.03 2261.45,402.467 C2262.29,402.921 2263.09,403.53 2263.84,404.124 C2264.59,404.717 2265.29,405.327 2265.84,405.921 C2266.38,406.53 2266.84,406.967 2267.09,407.421 C2267.88,408.717 2268.45,410.171 2268.74,411.78 C2268.88,412.671 2268.99,413.577 2268.99,414.483 C2268.99,415.124 2268.95,415.78 2268.88,416.421 C2268.63,417.983 2268.2,419.483 2267.54,420.921 C2266.88,422.374 2266.04,423.671 2265.04,424.827 C2263.99,425.983 2262.79,426.874 2261.38,427.624 C2259.99,428.374 2258.49,428.827 2256.88,428.983"/>
<path class="Harmony" d="M2589.28,396.874 C2587.33,397.124 2585.48,397.577 2583.67,398.217 C2581.87,398.874 2580.23,399.78 2578.62,400.827 C2577.03,401.874 2575.58,403.077 2574.33,404.421 C2573.08,405.78 2572.03,407.327 2571.12,409.077 C2570.23,410.827 2569.62,412.671 2569.28,414.624 C2569.03,415.827 2568.92,417.077 2568.92,418.327 L2568.92,418.671 C2568.92,419.874 2568.98,421.03 2569.12,422.171 C2569.28,423.421 2569.58,424.671 2569.98,425.827 C2570.42,427.03 2570.92,428.171 2571.48,429.233 C2572.03,430.28 2572.73,431.233 2573.53,432.077 C2574.33,432.921 2575.33,433.624 2576.33,434.233 C2577.33,434.827 2578.48,435.28 2579.73,435.53 C2580.58,435.671 2581.42,435.78 2582.28,435.78 C2582.73,435.78 2583.23,435.78 2583.78,435.733 C2585.33,435.577 2586.78,435.233 2588.12,434.733 C2589.48,434.233 2590.73,433.624 2591.78,432.921 C2592.83,432.233 2593.87,431.327 2594.83,430.327 C2595.78,429.327 2596.69,428.233 2597.44,427.124 C2598.19,426.03 2598.87,424.78 2599.62,423.374 C2600.78,421.077 2601.33,419.124 2601.33,417.577 C2601.33,416.03 2600.78,414.827 2599.62,413.983 C2598.98,413.421 2597.87,413.077 2596.44,412.827 C2595.37,412.671 2594.33,412.577 2593.28,412.577 L2593.03,412.577 L2591.92,412.577 C2590.37,412.624 2588.92,412.874 2587.53,413.327 C2586.12,413.78 2585.17,414.327 2584.67,414.983 C2584.53,415.233 2584.37,415.421 2584.23,415.624 C2583.87,416.171 2583.67,416.671 2583.67,417.124 C2583.67,417.78 2584.12,418.233 2584.98,418.483 C2585.67,418.671 2587.03,418.78 2588.98,418.78 L2589.42,418.78 C2590.08,418.827 2590.58,418.827 2590.92,418.827 C2592.98,418.827 2594.23,419.077 2594.62,419.624 C2594.78,419.827 2594.94,420.124 2594.94,420.421 C2594.94,420.733 2594.87,421.03 2594.83,421.327 C2594.78,421.624 2594.62,421.983 2594.48,422.374 C2594.33,422.78 2594.17,423.077 2594.03,423.327 C2593.87,423.577 2593.73,423.921 2593.53,424.327 C2593.33,424.733 2593.17,424.921 2593.12,425.03 C2592.87,425.483 2592.73,425.827 2592.58,426.077 C2592.42,426.327 2592.23,426.577 2591.98,426.921 C2591.73,427.28 2591.42,427.577 2591.17,427.78 C2590.12,428.577 2588.98,429.124 2587.62,429.374 L2585.92,429.577 L2585.73,429.577 C2585.08,429.53 2584.37,429.483 2583.73,429.327 C2582.48,429.077 2581.23,428.624 2580.08,427.921 C2578.92,427.233 2577.92,426.374 2577.17,425.374 C2576.42,424.327 2575.73,423.077 2575.23,421.671 C2574.73,420.28 2574.42,418.827 2574.33,417.28 C2574.28,416.733 2574.28,416.233 2574.28,415.671 C2574.28,414.671 2574.33,413.671 2574.48,412.733 C2574.73,411.28 2575.17,409.874 2575.87,408.577 C2576.58,407.28 2577.48,406.217 2578.58,405.421 C2579.92,404.374 2581.58,403.624 2583.48,403.124 C2584.53,402.827 2585.58,402.671 2586.58,402.671 C2587.28,402.671 2587.98,402.78 2588.62,402.921 C2589.17,403.077 2589.73,403.28 2590.37,403.577 C2591.03,403.874 2591.58,404.171 2592.08,404.467 C2592.58,404.78 2593.12,405.077 2593.67,405.374 C2594.23,405.671 2594.78,405.921 2595.28,406.03 C2595.78,406.124 2596.28,406.171 2596.78,406.124 C2597.28,406.077 2597.78,405.827 2598.28,405.374 C2598.78,404.921 2599.23,404.327 2599.69,403.577 C2599.94,403.124 2600.08,402.671 2600.08,402.217 C2600.08,401.874 2599.98,401.577 2599.83,401.217 C2599.44,400.467 2598.78,399.827 2597.87,399.28 C2596.98,398.717 2596.03,398.217 2594.94,397.827 C2593.83,397.421 2592.78,397.171 2591.73,397.03 C2590.98,396.874 2590.37,396.827 2589.87,396.827 C2589.62,396.827 2589.42,396.827 2589.28,396.874"/>
<path class="Harmony" d="M188.517,714.362 C186.83,714.612 185.127,715.112 183.47,715.909 C181.83,716.706 180.33,717.706 178.97,718.909 C177.627,720.112 176.377,721.456 175.22,723.003 C174.08,724.55 173.173,726.159 172.423,727.8 C171.673,729.456 171.173,731.206 170.877,733.065 C170.72,734.065 170.627,735.065 170.627,736.003 C170.627,736.815 170.673,737.612 170.767,738.362 C171.017,739.909 171.47,741.456 172.173,742.909 C172.877,744.362 173.673,745.706 174.673,746.956 C175.673,748.206 176.923,749.253 178.267,750.206 C179.627,751.159 180.97,751.862 182.423,752.362 C183.767,752.815 185.173,753.065 186.72,753.065 L186.877,753.065 L187.017,753.065 C188.673,753.003 190.267,752.706 191.83,752.112 C192.267,751.956 192.72,751.815 193.173,751.612 C193.627,751.409 194.127,751.159 194.767,750.815 C195.423,750.456 195.97,750.159 196.533,749.815 C197.08,749.456 197.58,749.065 198.08,748.612 C198.58,748.159 198.97,747.659 199.22,747.206 C199.47,746.753 199.627,746.315 199.627,745.753 C199.58,745.206 199.377,744.659 199.033,744.112 C198.877,743.862 198.627,743.706 198.377,743.612 C198.127,743.503 197.83,743.456 197.58,743.503 C197.33,743.565 197.08,743.659 196.783,743.815 C196.47,743.956 196.173,744.112 195.923,744.206 C195.673,744.315 195.423,744.456 195.127,744.659 C194.83,744.862 194.627,745.003 194.47,745.065 C192.72,746.003 191.017,746.503 189.267,746.503 C187.673,746.503 186.127,746.112 184.58,745.315 C183.127,744.565 181.767,743.706 180.58,742.706 C179.377,741.706 178.47,740.612 177.83,739.362 C177.267,738.206 176.83,737.003 176.58,735.753 C176.33,734.612 176.22,733.503 176.22,732.362 L176.22,731.956 C176.22,730.706 176.423,729.456 176.83,728.206 C177.22,726.956 177.72,725.8 178.377,724.8 C179.017,723.8 179.923,722.909 180.97,722.159 C182.017,721.409 183.22,720.909 184.58,720.659 C184.877,720.55 185.22,720.503 185.58,720.503 C185.83,720.55 186.08,720.55 186.33,720.612 C186.97,720.706 187.673,720.862 188.377,721.05 C189.08,721.206 189.767,721.456 190.47,721.8 L192.58,722.706 C193.267,723.003 193.97,723.206 194.627,723.456 C195.267,723.706 195.923,723.8 196.58,723.862 C196.783,723.909 196.97,723.909 197.127,723.909 C197.533,723.862 197.923,723.8 198.283,723.753 C198.783,723.659 199.22,723.362 199.673,722.909 C200.127,722.456 200.533,721.909 200.783,721.159 C200.877,720.8 200.923,720.503 200.923,720.206 C200.97,719.956 200.923,719.706 200.83,719.456 C200.72,719.206 200.58,719.003 200.423,718.8 C200.283,718.55 200.08,718.409 199.83,718.206 C199.58,718.003 199.377,717.8 199.173,717.659 C198.97,717.503 198.673,717.3 198.423,717.159 C195.33,715.206 192.47,714.253 189.83,714.253 C189.377,714.253 188.97,714.3 188.517,714.362"/>
<path class="Harmony" d="M892.709,714.362 C891.022,714.612 889.319,715.112 887.663,715.909 C886.022,716.706 884.522,717.706 883.163,718.909 C881.819,720.112 880.569,721.456 879.413,723.003 C878.272,724.55 877.366,726.159 876.616,727.8 C875.866,729.456 875.366,731.206 875.069,733.065 C874.913,734.065 874.819,735.065 874.819,736.003 C874.819,736.815 874.866,737.612 874.959,738.362 C875.209,739.909 875.663,741.456 876.366,742.909 C877.069,744.362 877.866,745.706 878.866,746.956 C879.866,748.206 881.116,749.253 882.459,750.206 C883.819,751.159 885.163,751.862 886.616,752.362 C887.959,752.815 889.366,753.065 890.913,753.065 L891.069,753.065 L891.209,753.065 C892.866,753.003 894.459,752.706 896.022,752.112 C896.459,751.956 896.913,751.815 897.366,751.612 C897.819,751.409 898.319,751.159 898.959,750.815 C899.616,750.456 900.163,750.159 900.725,749.815 C901.272,749.456 901.772,749.065 902.272,748.612 C902.772,748.159 903.163,747.659 903.413,747.206 C903.663,746.753 903.819,746.315 903.819,745.753 C903.772,745.206 903.569,744.659 903.225,744.112 C903.069,743.862 902.819,743.706 902.569,743.612 C902.319,743.503 902.022,743.456 901.772,743.503 C901.522,743.565 901.272,743.659 900.975,743.815 C900.663,743.956 900.366,744.112 900.116,744.206 C899.866,744.315 899.616,744.456 899.319,744.659 C899.022,744.862 898.819,745.003 898.663,745.065 C896.913,746.003 895.209,746.503 893.459,746.503 C891.866,746.503 890.319,746.112 888.772,745.315 C887.319,744.565 885.959,743.706 884.772,742.706 C883.569,741.706 882.663,740.612 882.022,739.362 C881.459,738.206 881.022,737.003 880.772,735.753 C880.522,734.612 880.413,733.503 880.413,732.362 L880.413,731.956 C880.413,730.706 880.616,729.456 881.022,728.206 C881.413,726.956 881.913,725.8 882.569,724.8 C883.209,723.8 884.116,722.909 885.163,722.159 C886.209,721.409 887.413,720.909 888.772,720.659 C889.069,720.55 889.413,720.503 889.772,720.503 C890.022,720.55 890.272,720.55 890.522,720.612 C891.163,720.706 891.866,720.862 892.569,721.05 C893.272,721.206 893.959,721.456 894.663,721.8 L896.772,722.706 C897.459,723.003 898.163,723.206 898.819,723.456 C899.459,723.706 900.116,723.8 900.772,723.862 C900.975,723.909 901.163,723.909 901.319,723.909 C901.725,723.862 902.116,723.8 902.475,723.753 C902.975,723.659 903.413,723.362 903.866,722.909 C904.319,722.456 904.725,721.909 904.975,721.159 C905.069,720.8 905.116,720.503 905.116,720.206 C905.163,719.956 905.116,719.706 905.022,719.456 C904.913,719.206 904.772,719.003 904.616,718.8 C904.475,718.55 904.272,718.409 904.022,718.206 C903.772,718.003 903.569,717.8 903.366,717.659 C903.163,717.503 902.866,717.3 902.616,717.159 C899.522,715.206 896.663,714.253 894.022,714.253 C893.569,714.253 893.163,714.3 892.709,714.362"/>
<path class="Harmony" d="M1598.51,714.456 C1596.56,714.706 1594.71,715.159 1592.9,715.8 C1591.1,716.456 1589.46,717.362 1587.85,718.409 C1586.26,719.456 1584.81,720.659 1583.56,722.003 C1582.31,723.362 1581.26,724.909 1580.35,726.659 C1579.46,728.409 1578.85,730.253 1578.51,732.206 C1578.26,733.409 1578.15,734.659 1578.15,735.909 L1578.15,736.253 C1578.15,737.456 1578.21,738.612 1578.35,739.753 C1578.51,741.003 1578.81,742.253 1579.21,743.409 C1579.65,744.612 1580.15,745.753 1580.71,746.815 C1581.26,747.862 1581.96,748.815 1582.76,749.659 C1583.56,750.503 1584.56,751.206 1585.56,751.815 C1586.56,752.409 1587.71,752.862 1588.96,753.112 C1589.81,753.253 1590.65,753.362 1591.51,753.362 C1591.96,753.362 1592.46,753.362 1593.01,753.315 C1594.56,753.159 1596.01,752.815 1597.35,752.315 C1598.71,751.815 1599.96,751.206 1601.01,750.503 C1602.06,749.815 1603.1,748.909 1604.06,747.909 C1605.01,746.909 1605.92,745.815 1606.67,744.706 C1607.42,743.612 1608.1,742.362 1608.85,740.956 C1610.01,738.659 1610.56,736.706 1610.56,735.159 C1610.56,733.612 1610.01,732.409 1608.85,731.565 C1608.21,731.003 1607.1,730.659 1605.67,730.409 C1604.6,730.253 1603.56,730.159 1602.51,730.159 L1602.26,730.159 L1601.15,730.159 C1599.6,730.206 1598.15,730.456 1596.76,730.909 C1595.35,731.362 1594.4,731.909 1593.9,732.565 C1593.76,732.815 1593.6,733.003 1593.46,733.206 C1593.1,733.753 1592.9,734.253 1592.9,734.706 C1592.9,735.362 1593.35,735.815 1594.21,736.065 C1594.9,736.253 1596.26,736.362 1598.21,736.362 L1598.65,736.362 C1599.31,736.409 1599.81,736.409 1600.15,736.409 C1602.21,736.409 1603.46,736.659 1603.85,737.206 C1604.01,737.409 1604.17,737.706 1604.17,738.003 C1604.17,738.315 1604.1,738.612 1604.06,738.909 C1604.01,739.206 1603.85,739.565 1603.71,739.956 C1603.56,740.362 1603.4,740.659 1603.26,740.909 C1603.1,741.159 1602.96,741.503 1602.76,741.909 C1602.56,742.315 1602.4,742.503 1602.35,742.612 C1602.1,743.065 1601.96,743.409 1601.81,743.659 C1601.65,743.909 1601.46,744.159 1601.21,744.503 C1600.96,744.862 1600.65,745.159 1600.4,745.362 C1599.35,746.159 1598.21,746.706 1596.85,746.956 L1595.15,747.159 L1594.96,747.159 C1594.31,747.112 1593.6,747.065 1592.96,746.909 C1591.71,746.659 1590.46,746.206 1589.31,745.503 C1588.15,744.815 1587.15,743.956 1586.4,742.956 C1585.65,741.909 1584.96,740.659 1584.46,739.253 C1583.96,737.862 1583.65,736.409 1583.56,734.862 C1583.51,734.315 1583.51,733.815 1583.51,733.253 C1583.51,732.253 1583.56,731.253 1583.71,730.315 C1583.96,728.862 1584.4,727.456 1585.1,726.159 C1585.81,724.862 1586.71,723.8 1587.81,723.003 C1589.15,721.956 1590.81,721.206 1592.71,720.706 C1593.76,720.409 1594.81,720.253 1595.81,720.253 C1596.51,720.253 1597.21,720.362 1597.85,720.503 C1598.4,720.659 1598.96,720.862 1599.6,721.159 C1600.26,721.456 1600.81,721.753 1601.31,722.05 C1601.81,722.362 1602.35,722.659 1602.9,722.956 C1603.46,723.253 1604.01,723.503 1604.51,723.612 C1605.01,723.706 1605.51,723.753 1606.01,723.706 C1606.51,723.659 1607.01,723.409 1607.51,722.956 C1608.01,722.503 1608.46,721.909 1608.92,721.159 C1609.17,720.706 1609.31,720.253 1609.31,719.8 C1609.31,719.456 1609.21,719.159 1609.06,718.8 C1608.67,718.05 1608.01,717.409 1607.1,716.862 C1606.21,716.3 1605.26,715.8 1604.17,715.409 C1603.06,715.003 1602.01,714.753 1600.96,714.612 C1600.21,714.456 1599.6,714.409 1599.1,714.409 C1598.85,714.409 1598.65,714.409 1598.51,714.456"/>
<path class="Harmony" d="M2291.7,714.253 C2291.45,714.3 2291.05,714.362 2290.41,714.409 C2289.75,714.456 2289.25,714.55 2288.91,714.612 C2288.55,714.659 2288.05,714.706 2287.45,714.8 C2286.84,714.909 2286.41,715.05 2286,715.206 C2285.59,715.362 2285.16,715.55 2284.75,715.8 C2284.34,716.05 2284,716.3 2283.75,716.659 C2283.41,717.003 2283.16,717.409 2282.95,717.8 C2282.75,718.206 2282.59,718.706 2282.55,719.206 C2282.5,719.55 2282.5,719.909 2282.5,720.253 L2282.5,720.55 C2282.55,720.909 2282.55,721.409 2282.59,722.003 C2282.66,722.612 2282.66,723.112 2282.66,723.456 C2282.66,729.159 2282.8,734.753 2283.05,740.315 C2283.09,740.612 2283.09,740.909 2283.09,741.253 C2283.05,742.315 2283,743.706 2282.91,745.362 C2282.75,747.315 2282.66,748.753 2282.66,749.706 L2282.66,750.003 L2282.66,750.862 C2282.66,751.112 2282.75,751.362 2282.8,751.659 C2282.84,751.956 2282.95,752.206 2283.09,752.362 C2283.25,752.503 2283.41,752.659 2283.66,752.815 C2283.84,752.909 2284.09,752.956 2284.41,752.956 L2284.55,752.956 C2286.3,752.909 2288.05,752.565 2289.8,751.909 C2291.55,751.253 2293.2,750.456 2294.75,749.409 C2296.3,748.362 2297.75,747.112 2299.16,745.659 C2300.55,744.206 2301.75,742.706 2302.75,741.112 C2303.75,739.503 2304.59,737.862 2305.25,736.112 C2305.91,734.362 2306.25,732.612 2306.34,730.956 C2306.41,730.612 2306.41,730.206 2306.41,729.862 C2306.41,728.909 2306.3,727.909 2306.09,726.909 C2305.84,725.503 2305.45,724.112 2304.91,722.8 C2304.34,721.503 2303.66,720.3 2302.75,719.159 C2301.84,718.003 2300.84,717.05 2299.75,716.253 C2298.66,715.456 2297.45,714.862 2296.05,714.503 C2295.16,714.253 2294.2,714.159 2293.25,714.159 C2292.75,714.159 2292.25,714.206 2291.7,714.253 M2288.59,746.565 C2288.59,745.112 2288.66,743.003 2288.7,740.315 C2288.75,738.159 2288.8,736.112 2288.8,734.253 C2288.8,733.815 2288.75,733.362 2288.75,732.909 C2288.75,730.706 2288.7,728.565 2288.59,726.55 C2288.59,726.3 2288.55,725.862 2288.45,725.112 C2288.34,724.362 2288.2,723.659 2288.16,723.003 C2288.09,722.706 2288.09,722.409 2288.09,722.112 C2288.09,721.753 2288.09,721.456 2288.16,721.112 C2288.25,720.456 2288.45,719.956 2288.8,719.706 C2289.25,719.362 2289.75,719.206 2290.3,719.206 C2290.45,719.253 2290.59,719.253 2290.75,719.253 C2291.5,719.362 2292.3,719.612 2293.16,720.05 C2294,720.503 2294.8,721.112 2295.55,721.706 C2296.3,722.3 2297,722.909 2297.55,723.503 C2298.09,724.112 2298.55,724.55 2298.8,725.003 C2299.59,726.3 2300.16,727.753 2300.45,729.362 C2300.59,730.253 2300.7,731.159 2300.7,732.065 C2300.7,732.706 2300.66,733.362 2300.59,734.003 C2300.34,735.565 2299.91,737.065 2299.25,738.503 C2298.59,739.956 2297.75,741.253 2296.75,742.409 C2295.7,743.565 2294.5,744.456 2293.09,745.206 C2291.7,745.956 2290.2,746.409 2288.59,746.565"/>
<path class="Harmony" d="M188.517,1024.4 C186.83,1024.65 185.127,1025.15 183.47,1025.95 C181.83,1026.75 180.33,1027.75 178.97,1028.95 C177.627,1030.15 176.377,1031.5 175.22,1033.04 C174.08,1034.59 173.173,1036.2 172.423,1037.84 C171.673,1039.5 171.173,1041.25 170.877,1043.1 C170.72,1044.1 170.627,1045.1 170.627,1046.04 C170.627,1046.85 170.673,1047.65 170.767,1048.4 C171.017,1049.95 171.47,1051.5 172.173,1052.95 C172.877,1054.4 173.673,1055.75 174.673,1057 C175.673,1058.25 176.923,1059.29 178.267,1060.25 C179.627,1061.2 180.97,1061.9 182.423,1062.4 C183.767,1062.85 185.173,1063.1 186.72,1063.1 L186.877,1063.1 L187.017,1063.1 C188.673,1063.04 190.267,1062.75 191.83,1062.15 C192.267,1062 192.72,1061.85 193.173,1061.65 C193.627,1061.45 194.127,1061.2 194.767,1060.85 C195.423,1060.5 195.97,1060.2 196.533,1059.85 C197.08,1059.5 197.58,1059.1 198.08,1058.65 C198.58,1058.2 198.97,1057.7 199.22,1057.25 C199.47,1056.79 199.627,1056.35 199.627,1055.79 C199.58,1055.25 199.377,1054.7 199.033,1054.15 C198.877,1053.9 198.627,1053.75 198.377,1053.65 C198.127,1053.54 197.83,1053.5 197.58,1053.54 C197.33,1053.6 197.08,1053.7 196.783,1053.85 C196.47,1054 196.173,1054.15 195.923,1054.25 C195.673,1054.35 195.423,1054.5 195.127,1054.7 C194.83,1054.9 194.627,1055.04 194.47,1055.1 C192.72,1056.04 191.017,1056.54 189.267,1056.54 C187.673,1056.54 186.127,1056.15 184.58,1055.35 C183.127,1054.6 181.767,1053.75 180.58,1052.75 C179.377,1051.75 178.47,1050.65 177.83,1049.4 C177.267,1048.25 176.83,1047.04 176.58,1045.79 C176.33,1044.65 176.22,1043.54 176.22,1042.4 L176.22,1042 C176.22,1040.75 176.423,1039.5 176.83,1038.25 C177.22,1037 177.72,1035.84 178.377,1034.84 C179.017,1033.84 179.923,1032.95 180.97,1032.2 C182.017,1031.45 183.22,1030.95 184.58,1030.7 C184.877,1030.59 185.22,1030.54 185.58,1030.54 C185.83,1030.59 186.08,1030.59 186.33,1030.65 C186.97,1030.75 187.673,1030.9 188.377,1031.09 C189.08,1031.25 189.767,1031.5 190.47,1031.84 L192.58,1032.75 C193.267,1033.04 193.97,1033.25 194.627,1033.5 C195.267,1033.75 195.923,1033.84 196.58,1033.9 C196.783,1033.95 196.97,1033.95 197.127,1033.95 C197.533,1033.9 197.923,1033.84 198.283,1033.79 C198.783,1033.7 199.22,1033.4 199.673,1032.95 C200.127,1032.5 200.533,1031.95 200.783,1031.2 C200.877,1030.84 200.923,1030.54 200.923,1030.25 C200.97,1030 200.923,1029.75 200.83,1029.5 C200.72,1029.25 200.58,1029.04 200.423,1028.84 C200.283,1028.59 200.08,1028.45 199.83,1028.25 C199.58,1028.04 199.377,1027.84 199.173,1027.7 C198.97,1027.54 198.673,1027.34 198.423,1027.2 C195.33,1025.25 192.47,1024.29 189.83,1024.29 C189.377,1024.29 188.97,1024.34 188.517,1024.4"/>
<path class="Harmony" d="M871.657,1024.5 C869.704,1024.75 867.86,1025.2 866.048,1025.84 C864.251,1026.5 862.61,1027.4 861.001,1028.45 C859.407,1029.5 857.954,1030.7 856.704,1032.04 C855.454,1033.4 854.407,1034.95 853.501,1036.7 C852.61,1038.45 852.001,1040.29 851.657,1042.25 C851.407,1043.45 851.298,1044.7 851.298,1045.95 L851.298,1046.29 C851.298,1047.5 851.36,1048.65 851.501,1049.79 C851.657,1051.04 851.954,1052.29 852.36,1053.45 C852.798,1054.65 853.298,1055.79 853.86,1056.85 C854.407,1057.9 855.11,1058.85 855.907,1059.7 C856.704,1060.54 857.704,1061.25 858.704,1061.85 C859.704,1062.45 860.86,1062.9 862.11,1063.15 C862.954,1063.29 863.798,1063.4 864.657,1063.4 C865.11,1063.4 865.61,1063.4 866.157,1063.35 C867.704,1063.2 869.157,1062.85 870.501,1062.35 C871.86,1061.85 873.11,1061.25 874.157,1060.54 C875.204,1059.85 876.251,1058.95 877.204,1057.95 C878.157,1056.95 879.064,1055.85 879.814,1054.75 C880.564,1053.65 881.251,1052.4 882.001,1051 C883.157,1048.7 883.704,1046.75 883.704,1045.2 C883.704,1043.65 883.157,1042.45 882.001,1041.6 C881.36,1041.04 880.251,1040.7 878.814,1040.45 C877.751,1040.29 876.704,1040.2 875.657,1040.2 L875.407,1040.2 L874.298,1040.2 C872.751,1040.25 871.298,1040.5 869.907,1040.95 C868.501,1041.4 867.548,1041.95 867.048,1042.6 C866.907,1042.85 866.751,1043.04 866.61,1043.25 C866.251,1043.79 866.048,1044.29 866.048,1044.75 C866.048,1045.4 866.501,1045.85 867.36,1046.1 C868.048,1046.29 869.407,1046.4 871.36,1046.4 L871.798,1046.4 C872.454,1046.45 872.954,1046.45 873.298,1046.45 C875.36,1046.45 876.61,1046.7 877.001,1047.25 C877.157,1047.45 877.314,1047.75 877.314,1048.04 C877.314,1048.35 877.251,1048.65 877.204,1048.95 C877.157,1049.25 877.001,1049.6 876.86,1050 C876.704,1050.4 876.548,1050.7 876.407,1050.95 C876.251,1051.2 876.11,1051.54 875.907,1051.95 C875.704,1052.35 875.548,1052.54 875.501,1052.65 C875.251,1053.1 875.11,1053.45 874.954,1053.7 C874.798,1053.95 874.61,1054.2 874.36,1054.54 C874.11,1054.9 873.798,1055.2 873.548,1055.4 C872.501,1056.2 871.36,1056.75 870.001,1057 L868.298,1057.2 L868.11,1057.2 C867.454,1057.15 866.751,1057.1 866.11,1056.95 C864.86,1056.7 863.61,1056.25 862.454,1055.54 C861.298,1054.85 860.298,1054 859.548,1053 C858.798,1051.95 858.11,1050.7 857.61,1049.29 C857.11,1047.9 856.798,1046.45 856.704,1044.9 C856.657,1044.35 856.657,1043.85 856.657,1043.29 C856.657,1042.29 856.704,1041.29 856.86,1040.35 C857.11,1038.9 857.548,1037.5 858.251,1036.2 C858.954,1034.9 859.86,1033.84 860.954,1033.04 C862.298,1032 863.954,1031.25 865.86,1030.75 C866.907,1030.45 867.954,1030.29 868.954,1030.29 C869.657,1030.29 870.36,1030.4 871.001,1030.54 C871.548,1030.7 872.11,1030.9 872.751,1031.2 C873.407,1031.5 873.954,1031.79 874.454,1032.09 C874.954,1032.4 875.501,1032.7 876.048,1033 C876.61,1033.29 877.157,1033.54 877.657,1033.65 C878.157,1033.75 878.657,1033.79 879.157,1033.75 C879.657,1033.7 880.157,1033.45 880.657,1033 C881.157,1032.54 881.61,1031.95 882.064,1031.2 C882.314,1030.75 882.454,1030.29 882.454,1029.84 C882.454,1029.5 882.36,1029.2 882.204,1028.84 C881.814,1028.09 881.157,1027.45 880.251,1026.9 C879.36,1026.34 878.407,1025.84 877.314,1025.45 C876.204,1025.04 875.157,1024.79 874.11,1024.65 C873.36,1024.5 872.751,1024.45 872.251,1024.45 C872.001,1024.45 871.798,1024.45 871.657,1024.5"/>
<path class="Harmony" d="M1569.31,1024.5 C1567.36,1024.75 1565.51,1025.2 1563.7,1025.84 C1561.9,1026.5 1560.26,1027.4 1558.65,1028.45 C1557.06,1029.5 1555.61,1030.7 1554.36,1032.04 C1553.11,1033.4 1552.06,1034.95 1551.15,1036.7 C1550.26,1038.45 1549.65,1040.29 1549.31,1042.25 C1549.06,1043.45 1548.95,1044.7 1548.95,1045.95 L1548.95,1046.29 C1548.95,1047.5 1549.01,1048.65 1549.15,1049.79 C1549.31,1051.04 1549.61,1052.29 1550.01,1053.45 C1550.45,1054.65 1550.95,1055.79 1551.51,1056.85 C1552.06,1057.9 1552.76,1058.85 1553.56,1059.7 C1554.36,1060.54 1555.36,1061.25 1556.36,1061.85 C1557.36,1062.45 1558.51,1062.9 1559.76,1063.15 C1560.61,1063.29 1561.45,1063.4 1562.31,1063.4 C1562.76,1063.4 1563.26,1063.4 1563.81,1063.35 C1565.36,1063.2 1566.81,1062.85 1568.15,1062.35 C1569.51,1061.85 1570.76,1061.25 1571.81,1060.54 C1572.86,1059.85 1573.9,1058.95 1574.86,1057.95 C1575.81,1056.95 1576.72,1055.85 1577.47,1054.75 C1578.22,1053.65 1578.9,1052.4 1579.65,1051 C1580.81,1048.7 1581.36,1046.75 1581.36,1045.2 C1581.36,1043.65 1580.81,1042.45 1579.65,1041.6 C1579.01,1041.04 1577.9,1040.7 1576.47,1040.45 C1575.4,1040.29 1574.36,1040.2 1573.31,1040.2 L1573.06,1040.2 L1571.95,1040.2 C1570.4,1040.25 1568.95,1040.5 1567.56,1040.95 C1566.15,1041.4 1565.2,1041.95 1564.7,1042.6 C1564.56,1042.85 1564.4,1043.04 1564.26,1043.25 C1563.9,1043.79 1563.7,1044.29 1563.7,1044.75 C1563.7,1045.4 1564.15,1045.85 1565.01,1046.1 C1565.7,1046.29 1567.06,1046.4 1569.01,1046.4 L1569.45,1046.4 C1570.11,1046.45 1570.61,1046.45 1570.95,1046.45 C1573.01,1046.45 1574.26,1046.7 1574.65,1047.25 C1574.81,1047.45 1574.97,1047.75 1574.97,1048.04 C1574.97,1048.35 1574.9,1048.65 1574.86,1048.95 C1574.81,1049.25 1574.65,1049.6 1574.51,1050 C1574.36,1050.4 1574.2,1050.7 1574.06,1050.95 C1573.9,1051.2 1573.76,1051.54 1573.56,1051.95 C1573.36,1052.35 1573.2,1052.54 1573.15,1052.65 C1572.9,1053.1 1572.76,1053.45 1572.61,1053.7 C1572.45,1053.95 1572.26,1054.2 1572.01,1054.54 C1571.76,1054.9 1571.45,1055.2 1571.2,1055.4 C1570.15,1056.2 1569.01,1056.75 1567.65,1057 L1565.95,1057.2 L1565.76,1057.2 C1565.11,1057.15 1564.4,1057.1 1563.76,1056.95 C1562.51,1056.7 1561.26,1056.25 1560.11,1055.54 C1558.95,1054.85 1557.95,1054 1557.2,1053 C1556.45,1051.95 1555.76,1050.7 1555.26,1049.29 C1554.76,1047.9 1554.45,1046.45 1554.36,1044.9 C1554.31,1044.35 1554.31,1043.85 1554.31,1043.29 C1554.31,1042.29 1554.36,1041.29 1554.51,1040.35 C1554.76,1038.9 1555.2,1037.5 1555.9,1036.2 C1556.61,1034.9 1557.51,1033.84 1558.61,1033.04 C1559.95,1032 1561.61,1031.25 1563.51,1030.75 C1564.56,1030.45 1565.61,1030.29 1566.61,1030.29 C1567.31,1030.29 1568.01,1030.4 1568.65,1030.54 C1569.2,1030.7 1569.76,1030.9 1570.4,1031.2 C1571.06,1031.5 1571.61,1031.79 1572.11,1032.09 C1572.61,1032.4 1573.15,1032.7 1573.7,1033 C1574.26,1033.29 1574.81,1033.54 1575.31,1033.65 C1575.81,1033.75 1576.31,1033.79 1576.81,1033.75 C1577.31,1033.7 1577.81,1033.45 1578.31,1033 C1578.81,1032.54 1579.26,1031.95 1579.72,1031.2 C1579.97,1030.75 1580.11,1030.29 1580.11,1029.84 C1580.11,1029.5 1580.01,1029.2 1579.86,1028.84 C1579.47,1028.09 1578.81,1027.45 1577.9,1026.9 C1577.01,1026.34 1576.06,1025.84 1574.97,1025.45 C1573.86,1025.04 1572.81,1024.79 1571.76,1024.65 C1571.01,1024.5 1570.4,1024.45 1569.9,1024.45 C1569.65,1024.45 1569.45,1024.45 1569.31,1024.5"/>
<path class="Harmony" d="M2255.96,1024.29 C2255.71,1024.34 2255.31,1024.4 2254.67,1024.45 C2254.01,1024.5 2253.51,1024.59 2253.17,1024.65 C2252.81,1024.7 2252.31,1024.75 2251.71,1024.84 C2251.1,1024.95 2250.67,1025.09 2250.26,1025.25 C2249.85,1025.4 2249.42,1025.59 2249.01,1025.84 C2248.6,1026.09 2248.26,1026.34 2248.01,1026.7 C2247.67,1027.04 2247.42,1027.45 2247.21,1027.84 C2247.01,1028.25 2246.85,1028.75 2246.81,1029.25 C2246.76,1029.59 2246.76,1029.95 2246.76,1030.29 L2246.76,1030.59 C2246.81,1030.95 2246.81,1031.45 2246.85,1032.04 C2246.92,1032.65 2246.92,1033.15 2246.92,1033.5 C2246.92,1039.2 2247.06,1044.79 2247.31,1050.35 C2247.35,1050.65 2247.35,1050.95 2247.35,1051.29 C2247.31,1052.35 2247.26,1053.75 2247.17,1055.4 C2247.01,1057.35 2246.92,1058.79 2246.92,1059.75 L2246.92,1060.04 L2246.92,1060.9 C2246.92,1061.15 2247.01,1061.4 2247.06,1061.7 C2247.1,1062 2247.21,1062.25 2247.35,1062.4 C2247.51,1062.54 2247.67,1062.7 2247.92,1062.85 C2248.1,1062.95 2248.35,1063 2248.67,1063 L2248.81,1063 C2250.56,1062.95 2252.31,1062.6 2254.06,1061.95 C2255.81,1061.29 2257.46,1060.5 2259.01,1059.45 C2260.56,1058.4 2262.01,1057.15 2263.42,1055.7 C2264.81,1054.25 2266.01,1052.75 2267.01,1051.15 C2268.01,1049.54 2268.85,1047.9 2269.51,1046.15 C2270.17,1044.4 2270.51,1042.65 2270.6,1041 C2270.67,1040.65 2270.67,1040.25 2270.67,1039.9 C2270.67,1038.95 2270.56,1037.95 2270.35,1036.95 C2270.1,1035.54 2269.71,1034.15 2269.17,1032.84 C2268.6,1031.54 2267.92,1030.34 2267.01,1029.2 C2266.1,1028.04 2265.1,1027.09 2264.01,1026.29 C2262.92,1025.5 2261.71,1024.9 2260.31,1024.54 C2259.42,1024.29 2258.46,1024.2 2257.51,1024.2 C2257.01,1024.2 2256.51,1024.25 2255.96,1024.29 M2252.85,1056.6 C2252.85,1055.15 2252.92,1053.04 2252.96,1050.35 C2253.01,1048.2 2253.06,1046.15 2253.06,1044.29 C2253.06,1043.85 2253.01,1043.4 2253.01,1042.95 C2253.01,1040.75 2252.96,1038.6 2252.85,1036.59 C2252.85,1036.34 2252.81,1035.9 2252.71,1035.15 C2252.6,1034.4 2252.46,1033.7 2252.42,1033.04 C2252.35,1032.75 2252.35,1032.45 2252.35,1032.15 C2252.35,1031.79 2252.35,1031.5 2252.42,1031.15 C2252.51,1030.5 2252.71,1030 2253.06,1029.75 C2253.51,1029.4 2254.01,1029.25 2254.56,1029.25 C2254.71,1029.29 2254.85,1029.29 2255.01,1029.29 C2255.76,1029.4 2256.56,1029.65 2257.42,1030.09 C2258.26,1030.54 2259.06,1031.15 2259.81,1031.75 C2260.56,1032.34 2261.26,1032.95 2261.81,1033.54 C2262.35,1034.15 2262.81,1034.59 2263.06,1035.04 C2263.85,1036.34 2264.42,1037.79 2264.71,1039.4 C2264.85,1040.29 2264.96,1041.2 2264.96,1042.1 C2264.96,1042.75 2264.92,1043.4 2264.85,1044.04 C2264.6,1045.6 2264.17,1047.1 2263.51,1048.54 C2262.85,1050 2262.01,1051.29 2261.01,1052.45 C2259.96,1053.6 2258.76,1054.5 2257.35,1055.25 C2255.96,1056 2254.46,1056.45 2252.85,1056.6"/>
<path class="Harmony" d="M2587.27,1024.5 C2585.31,1024.75 2583.47,1025.2 2581.66,1025.84 C2579.86,1026.5 2578.22,1027.4 2576.61,1028.45 C2575.02,1029.5 2573.56,1030.7 2572.31,1032.04 C2571.06,1033.4 2570.02,1034.95 2569.11,1036.7 C2568.22,1038.45 2567.61,1040.29 2567.27,1042.25 C2567.02,1043.45 2566.91,1044.7 2566.91,1045.95 L2566.91,1046.29 C2566.91,1047.5 2566.97,1048.65 2567.11,1049.79 C2567.27,1051.04 2567.56,1052.29 2567.97,1053.45 C2568.41,1054.65 2568.91,1055.79 2569.47,1056.85 C2570.02,1057.9 2570.72,1058.85 2571.52,1059.7 C2572.31,1060.54 2573.31,1061.25 2574.31,1061.85 C2575.31,1062.45 2576.47,1062.9 2577.72,1063.15 C2578.56,1063.29 2579.41,1063.4 2580.27,1063.4 C2580.72,1063.4 2581.22,1063.4 2581.77,1063.35 C2583.31,1063.2 2584.77,1062.85 2586.11,1062.35 C2587.47,1061.85 2588.72,1061.25 2589.77,1060.54 C2590.81,1059.85 2591.86,1058.95 2592.81,1057.95 C2593.77,1056.95 2594.67,1055.85 2595.42,1054.75 C2596.17,1053.65 2596.86,1052.4 2597.61,1051 C2598.77,1048.7 2599.31,1046.75 2599.31,1045.2 C2599.31,1043.65 2598.77,1042.45 2597.61,1041.6 C2596.97,1041.04 2595.86,1040.7 2594.42,1040.45 C2593.36,1040.29 2592.31,1040.2 2591.27,1040.2 L2591.02,1040.2 L2589.91,1040.2 C2588.36,1040.25 2586.91,1040.5 2585.52,1040.95 C2584.11,1041.4 2583.16,1041.95 2582.66,1042.6 C2582.52,1042.85 2582.36,1043.04 2582.22,1043.25 C2581.86,1043.79 2581.66,1044.29 2581.66,1044.75 C2581.66,1045.4 2582.11,1045.85 2582.97,1046.1 C2583.66,1046.29 2585.02,1046.4 2586.97,1046.4 L2587.41,1046.4 C2588.06,1046.45 2588.56,1046.45 2588.91,1046.45 C2590.97,1046.45 2592.22,1046.7 2592.61,1047.25 C2592.77,1047.45 2592.92,1047.75 2592.92,1048.04 C2592.92,1048.35 2592.86,1048.65 2592.81,1048.95 C2592.77,1049.25 2592.61,1049.6 2592.47,1050 C2592.31,1050.4 2592.16,1050.7 2592.02,1050.95 C2591.86,1051.2 2591.72,1051.54 2591.52,1051.95 C2591.31,1052.35 2591.16,1052.54 2591.11,1052.65 C2590.86,1053.1 2590.72,1053.45 2590.56,1053.7 C2590.41,1053.95 2590.22,1054.2 2589.97,1054.54 C2589.72,1054.9 2589.41,1055.2 2589.16,1055.4 C2588.11,1056.2 2586.97,1056.75 2585.61,1057 L2583.91,1057.2 L2583.72,1057.2 C2583.06,1057.15 2582.36,1057.1 2581.72,1056.95 C2580.47,1056.7 2579.22,1056.25 2578.06,1055.54 C2576.91,1054.85 2575.91,1054 2575.16,1053 C2574.41,1051.95 2573.72,1050.7 2573.22,1049.29 C2572.72,1047.9 2572.41,1046.45 2572.31,1044.9 C2572.27,1044.35 2572.27,1043.85 2572.27,1043.29 C2572.27,1042.29 2572.31,1041.29 2572.47,1040.35 C2572.72,1038.9 2573.16,1037.5 2573.86,1036.2 C2574.56,1034.9 2575.47,1033.84 2576.56,1033.04 C2577.91,1032 2579.56,1031.25 2581.47,1030.75 C2582.52,1030.45 2583.56,1030.29 2584.56,1030.29 C2585.27,1030.29 2585.97,1030.4 2586.61,1030.54 C2587.16,1030.7 2587.72,1030.9 2588.36,1031.2 C2589.02,1031.5 2589.56,1031.79 2590.06,1032.09 C2590.56,1032.4 2591.11,1032.7 2591.66,1033 C2592.22,1033.29 2592.77,1033.54 2593.27,1033.65 C2593.77,1033.75 2594.27,1033.79 2594.77,1033.75 C2595.27,1033.7 2595.77,1033.45 2596.27,1033 C2596.77,1032.54 2597.22,1031.95 2597.67,1031.2 C2597.92,1030.75 2598.06,1030.29 2598.06,1029.84 C2598.06,1029.5 2597.97,1029.2 2597.81,1028.84 C2597.42,1028.09 2596.77,1027.45 2595.86,1026.9 C2594.97,1026.34 2594.02,1025.84 2592.92,1025.45 C2591.81,1025.04 2590.77,1024.79 2589.72,1024.65 C2588.97,1024.5 2588.36,1024.45 2587.86,1024.45 C2587.61,1024.45 2587.41,1024.45 2587.27,1024.5"/>
</svg>
