<?xml version="1.0" encoding="UTF-8" standalone="no"?>
<svg width="2976.38px" height="1417.32px" viewBox="0 0 2976.38 1417.32"
 xmlns="http://www.w3.org/2000/svg" xmlns:xlink="http://www.w3.org/1999/xlink" version="1.2" baseProfile="tiny">
<title>Redwing_G</title>
<desc>Generated by MuseScore 3.6.2</desc>
<polyline class="StaffLines" fill="none" stroke="#000000" stroke-width="2.73" stroke-linejoin="bevel" points="138.189,187.795 2933.86,187.795"/>
<polyline class="StaffLines" fill="none" stroke="#000000" stroke-width="2.73" stroke-linejoin="bevel" points="138.189,212.598 2933.86,212.598"/>
<polyline class="StaffLines" fill="none" stroke="#000000" stroke-width="2.73" stroke-linejoin="bevel" points="138.189,237.402 2933.86,237.402"/>
<polyline class="StaffLines" fill="none" stroke="#000000" stroke-width="2.73" stroke-linejoin="bevel" points="138.189,262.205 2933.86,262.205"/>
<polyline class="StaffLines" fill="none" stroke="#000000" stroke-width="2.73" stroke-linejoin="bevel" points="138.189,287.008 2933.86,287.008"/>
<polyline class="StaffLines" fill="none" stroke="#000000" stroke-width="2.73" stroke-linejoin="bevel" points="14.1732,497.835 2933.86,497.835"/>
<polyline class="StaffLines" fill="none" stroke="#000000" stroke-width="2.73" stroke-linejoin="bevel" points="14.1732,522.638 2933.86,522.638"/>
<polyline class="StaffLines" fill="none" stroke="#000000" stroke-width="2.73" stroke-linejoin="bevel" points="14.1732,547.441 2933.86,547.441"/>
<polyline class="StaffLines" fill="none" stroke="#000000" stroke-width="2.73" stroke-linejoin="bevel" points="14.1732,572.244 2933.86,572.244"/>
<polyline class="StaffLines" fill="none" stroke="#000000" stroke-width="2.73" stroke-linejoin="bevel" points="14.1732,597.047 2933.86,597.047"/>
<polyline class="StaffLines" fill="none" stroke="#000000" stroke-width="2.73" stroke-linejoin="bevel" points="14.1732,815.417 2933.86,815.417"/>
<polyline class="StaffLines" fill="none" stroke="#000000" stroke-width="2.73" stroke-linejoin="bevel" points="14.1732,840.22 2933.86,840.22"/>
<polyline class="StaffLines" fill="none" stroke="#000000" stroke-width="2.73" stroke-linejoin="bevel" points="14.1732,865.023 2933.86,865.023"/>
<polyline class="StaffLines" fill="none" stroke="#000000" stroke-width="2.73" stroke-linejoin="bevel" points="14.1732,889.826 2933.86,889.826"/>
<polyline class="StaffLines" fill="none" stroke="#000000" stroke-width="2.73" stroke-linejoin="bevel" points="14.1732,914.629 2933.86,914.629"/>
<polyline class="StaffLines" fill="none" stroke="#000000" stroke-width="2.73" stroke-linejoin="bevel" points="14.1732,1125.46 2933.86,1125.46"/>
<polyline class="StaffLines" fill="none" stroke="#000000" stroke-width="2.73" stroke-linejoin="bevel" points="14.1732,1150.26 2933.86,1150.26"/>
<polyline class="StaffLines" fill="none" stroke="#000000" stroke-width="2.73" stroke-linejoin="bevel" points="14.1732,1175.06 2933.86,1175.06"/>
<polyline class="StaffLines" fill="none" stroke="#000000" stroke-width="2.73" stroke-linejoin="bevel" points="14.1732,1199.87 2933.86,1199.87"/>
<polyline class="StaffLines" fill="none" stroke="#000000" stroke-width="2.73" stroke-linejoin="bevel" points="14.1732,1224.67 2933.86,1224.67"/>
<polyline class="BarLine" fill="none" stroke="#000000" stroke-width="4.46" stroke-linejoin="bevel" points="953.226,186.431 953.226,288.372"/>
<polyline class="BarLine" fill="none" stroke="#000000" stroke-width="4.46" stroke-linejoin="bevel" points="1612.69,186.431 1612.69,288.372"/>
<polyline class="BarLine" fill="none" stroke="#000000" stroke-width="4.46" stroke-linejoin="bevel" points="2272.16,186.431 2272.16,288.372"/>
<polyline class="BarLine" fill="none" stroke="#000000" stroke-width="4.46" stroke-linejoin="bevel" points="2931.63,186.431 2931.63,288.372"/>
<polyline class="BarLine" fill="none" stroke="#000000" stroke-width="4.46" stroke-linejoin="bevel" points="753.809,496.47 753.809,598.411"/>
<polyline class="BarLine" fill="none" stroke="#000000" stroke-width="4.46" stroke-linejoin="bevel" points="1392.76,496.47 1392.76,598.411"/>
<polyline class="BarLine" fill="none" stroke="#000000" stroke-width="4.46" stroke-linejoin="bevel" points="1902.4,496.47 1902.4,598.411"/>
<polyline class="BarLine" fill="none" stroke="#000000" stroke-width="4.46" stroke-linejoin="bevel" points="2444.36,496.47 2444.36,598.411"/>
<path class="BarLine" transform="matrix(0.992126,0,0,0.992126,2887.12,535.039)" d="M10.4063,0 C10.4063,-2.90625 8.09375,-5.29688 5.20313,-5.29688 C2.29688,-5.29688 0,-2.90625 0,0 C0,2.90625 2.29688,5.29688 5.20313,5.29688 C8.09375,5.29688 10.4063,2.90625 10.4063,0"/>
<path class="BarLine" transform="matrix(0.992126,0,0,0.992126,2887.12,559.843)" d="M10.4063,0 C10.4063,-2.90625 8.09375,-5.29688 5.20313,-5.29688 C2.29688,-5.29688 0,-2.90625 0,0 C0,2.90625 2.29688,5.29688 5.20313,5.29688 C8.09375,5.29688 10.4063,2.90625 10.4063,0"/>
<polyline class="BarLine" fill="none" stroke="#000000" stroke-width="4.46" stroke-linejoin="bevel" points="2909.64,496.47 2909.64,598.411"/>
<polyline class="BarLine" fill="none" stroke="#000000" stroke-width="13.64" stroke-linejoin="bevel" points="2927,496.47 2927,598.411"/>
<polyline class="BarLine" fill="none" stroke="#000000" stroke-width="4.46" stroke-linejoin="bevel" points="819.051,814.053 819.051,915.994"/>
<polyline class="BarLine" fill="none" stroke="#000000" stroke-width="4.46" stroke-linejoin="bevel" points="1523.24,814.053 1523.24,915.994"/>
<polyline class="BarLine" fill="none" stroke="#000000" stroke-width="4.46" stroke-linejoin="bevel" points="2227.44,814.053 2227.44,915.994"/>
<polyline class="BarLine" fill="none" stroke="#000000" stroke-width="4.46" stroke-linejoin="bevel" points="2931.63,814.053 2931.63,915.994"/>
<polyline class="BarLine" fill="none" stroke="#000000" stroke-width="4.46" stroke-linejoin="bevel" points="812.511,1124.09 812.511,1226.03"/>
<polyline class="BarLine" fill="none" stroke="#000000" stroke-width="4.46" stroke-linejoin="bevel" points="1494.04,1124.09 1494.04,1226.03"/>
<polyline class="BarLine" fill="none" stroke="#000000" stroke-width="4.46" stroke-linejoin="bevel" points="2191.69,1124.09 2191.69,1226.03"/>
<path class="BarLine" transform="matrix(0.992126,0,0,0.992126,2887.12,1162.66)" d="M10.4063,0 C10.4063,-2.90625 8.09375,-5.29688 5.20313,-5.29688 C2.29688,-5.29688 0,-2.90625 0,0 C0,2.90625 2.29688,5.29688 5.20313,5.29688 C8.09375,5.29688 10.4063,2.90625 10.4063,0"/>
<path class="BarLine" transform="matrix(0.992126,0,0,0.992126,2887.12,1187.46)" d="M10.4063,0 C10.4063,-2.90625 8.09375,-5.29688 5.20313,-5.29688 C2.29688,-5.29688 0,-2.90625 0,0 C0,2.90625 2.29688,5.29688 5.20313,5.29688 C8.09375,5.29688 10.4063,2.90625 10.4063,0"/>
<polyline class="BarLine" fill="none" stroke="#000000" stroke-width="4.46" stroke-linejoin="bevel" points="2909.64,1124.09 2909.64,1226.03"/>
<polyline class="BarLine" fill="none" stroke="#000000" stroke-width="13.64" stroke-linejoin="bevel" points="2927,1124.09 2927,1226.03"/>
<path class="Note" transform="matrix(0.992126,0,0,0.992126,338.405,237.402)" d="M43,-25 L0,25 L10,25 L53,-25 L43,-25 "/>
<path class="Note" transform="matrix(0.992126,0,0,0.992126,489.01,237.402)" d="M43,-25 L0,25 L10,25 L53,-25 L43,-25 "/>
<path class="Note" transform="matrix(0.992126,0,0,0.992126,639.615,237.402)" d="M43,-25 L0,25 L10,25 L53,-25 L43,-25 "/>
<path class="Note" transform="matrix(0.992126,0,0,0.992126,790.22,237.402)" d="M43,-25 L0,25 L10,25 L53,-25 L43,-25 "/>
<path class="Note" transform="matrix(0.992126,0,0,0.992126,997.872,237.402)" d="M43,-25 L0,25 L10,25 L53,-25 L43,-25 "/>
<path class="Note" transform="matrix(0.992126,0,0,0.992126,1148.48,237.402)" d="M43,-25 L0,25 L10,25 L53,-25 L43,-25 "/>
<path class="Note" transform="matrix(0.992126,0,0,0.992126,1299.08,237.402)" d="M43,-25 L0,25 L10,25 L53,-25 L43,-25 "/>
<path class="Note" transform="matrix(0.992126,0,0,0.992126,1449.69,237.402)" d="M43,-25 L0,25 L10,25 L53,-25 L43,-25 "/>
<path class="Note" transform="matrix(0.992126,0,0,0.992126,1657.34,237.402)" d="M43,-25 L0,25 L10,25 L53,-25 L43,-25 "/>
<path class="Note" transform="matrix(0.992126,0,0,0.992126,1807.94,237.402)" d="M43,-25 L0,25 L10,25 L53,-25 L43,-25 "/>
<path class="Note" transform="matrix(0.992126,0,0,0.992126,1958.55,237.402)" d="M43,-25 L0,25 L10,25 L53,-25 L43,-25 "/>
<path class="Note" transform="matrix(0.992126,0,0,0.992126,2109.15,237.402)" d="M43,-25 L0,25 L10,25 L53,-25 L43,-25 "/>
<path class="Note" transform="matrix(0.992126,0,0,0.992126,2316.81,237.402)" d="M43,-25 L0,25 L10,25 L53,-25 L43,-25 "/>
<path class="Note" transform="matrix(0.992126,0,0,0.992126,2467.41,237.402)" d="M43,-25 L0,25 L10,25 L53,-25 L43,-25 "/>
<path class="Note" transform="matrix(0.992126,0,0,0.992126,2618.02,237.402)" d="M43,-25 L0,25 L10,25 L53,-25 L43,-25 "/>
<path class="Note" transform="matrix(0.992126,0,0,0.992126,2768.62,237.402)" d="M43,-25 L0,25 L10,25 L53,-25 L43,-25 "/>
<path class="Note" transform="matrix(0.992126,0,0,0.992126,159.504,547.441)" d="M43,-25 L0,25 L10,25 L53,-25 L43,-25 "/>
<path class="Note" transform="matrix(0.992126,0,0,0.992126,304.98,547.441)" d="M43,-25 L0,25 L10,25 L53,-25 L43,-25 "/>
<path class="Note" transform="matrix(0.992126,0,0,0.992126,450.456,547.441)" d="M43,-25 L0,25 L10,25 L53,-25 L43,-25 "/>
<path class="Note" transform="matrix(0.992126,0,0,0.992126,595.932,547.441)" d="M43,-25 L0,25 L10,25 L53,-25 L43,-25 "/>
<path class="Note" transform="matrix(0.992126,0,0,0.992126,798.455,547.441)" d="M43,-25 L0,25 L10,25 L53,-25 L43,-25 "/>
<path class="Note" transform="matrix(0.992126,0,0,0.992126,943.93,547.441)" d="M43,-25 L0,25 L10,25 L53,-25 L43,-25 "/>
<path class="Note" transform="matrix(0.992126,0,0,0.992126,1089.41,547.441)" d="M43,-25 L0,25 L10,25 L53,-25 L43,-25 "/>
<path class="Note" transform="matrix(0.992126,0,0,0.992126,1234.88,547.441)" d="M43,-25 L0,25 L10,25 L53,-25 L43,-25 "/>
<path class="Note" transform="matrix(0.992126,0,0,0.992126,1437.41,547.441)" d="M43,-25 L0,25 L10,25 L53,-25 L43,-25 "/>
<path class="Note" transform="matrix(0.992126,0,0,0.992126,1550.55,547.441)" d="M43,-25 L0,25 L10,25 L53,-25 L43,-25 "/>
<path class="Note" transform="matrix(0.992126,0,0,0.992126,1663.7,547.441)" d="M43,-25 L0,25 L10,25 L53,-25 L43,-25 "/>
<path class="Note" transform="matrix(0.992126,0,0,0.992126,1776.85,547.441)" d="M43,-25 L0,25 L10,25 L53,-25 L43,-25 "/>
<path class="Note" transform="matrix(0.992126,0,0,0.992126,1947.04,547.441)" d="M43,-25 L0,25 L10,25 L53,-25 L43,-25 "/>
<path class="Note" transform="matrix(0.992126,0,0,0.992126,2068.27,547.441)" d="M43,-25 L0,25 L10,25 L53,-25 L43,-25 "/>
<path class="Note" transform="matrix(0.992126,0,0,0.992126,2189.5,547.441)" d="M43,-25 L0,25 L10,25 L53,-25 L43,-25 "/>
<path class="Note" transform="matrix(0.992126,0,0,0.992126,2310.73,547.441)" d="M43,-25 L0,25 L10,25 L53,-25 L43,-25 "/>
<path class="Note" transform="matrix(0.992126,0,0,0.992126,2489.01,547.441)" d="M43,-25 L0,25 L10,25 L53,-25 L43,-25 "/>
<path class="Note" transform="matrix(0.992126,0,0,0.992126,2585.99,547.441)" d="M43,-25 L0,25 L10,25 L53,-25 L43,-25 "/>
<path class="Note" transform="matrix(0.992126,0,0,0.992126,2682.98,547.441)" d="M43,-25 L0,25 L10,25 L53,-25 L43,-25 "/>
<path class="Note" transform="matrix(0.992126,0,0,0.992126,2779.96,547.441)" d="M43,-25 L0,25 L10,25 L53,-25 L43,-25 "/>
<path class="Note" transform="matrix(0.992126,0,0,0.992126,159.504,865.023)" d="M43,-25 L0,25 L10,25 L53,-25 L43,-25 "/>
<path class="Note" transform="matrix(0.992126,0,0,0.992126,321.29,865.023)" d="M43,-25 L0,25 L10,25 L53,-25 L43,-25 "/>
<path class="Note" transform="matrix(0.992126,0,0,0.992126,483.077,865.023)" d="M43,-25 L0,25 L10,25 L53,-25 L43,-25 "/>
<path class="Note" transform="matrix(0.992126,0,0,0.992126,644.863,865.023)" d="M43,-25 L0,25 L10,25 L53,-25 L43,-25 "/>
<path class="Note" transform="matrix(0.992126,0,0,0.992126,863.696,865.023)" d="M43,-25 L0,25 L10,25 L53,-25 L43,-25 "/>
<path class="Note" transform="matrix(0.992126,0,0,0.992126,1025.48,865.023)" d="M43,-25 L0,25 L10,25 L53,-25 L43,-25 "/>
<path class="Note" transform="matrix(0.992126,0,0,0.992126,1187.27,865.023)" d="M43,-25 L0,25 L10,25 L53,-25 L43,-25 "/>
<path class="Note" transform="matrix(0.992126,0,0,0.992126,1349.06,865.023)" d="M43,-25 L0,25 L10,25 L53,-25 L43,-25 "/>
<path class="Note" transform="matrix(0.992126,0,0,0.992126,1567.89,865.023)" d="M43,-25 L0,25 L10,25 L53,-25 L43,-25 "/>
<path class="Note" transform="matrix(0.992126,0,0,0.992126,1729.67,865.023)" d="M43,-25 L0,25 L10,25 L53,-25 L43,-25 "/>
<path class="Note" transform="matrix(0.992126,0,0,0.992126,1891.46,865.023)" d="M43,-25 L0,25 L10,25 L53,-25 L43,-25 "/>
<path class="Note" transform="matrix(0.992126,0,0,0.992126,2053.25,865.023)" d="M43,-25 L0,25 L10,25 L53,-25 L43,-25 "/>
<path class="Note" transform="matrix(0.992126,0,0,0.992126,2272.08,865.023)" d="M43,-25 L0,25 L10,25 L53,-25 L43,-25 "/>
<path class="Note" transform="matrix(0.992126,0,0,0.992126,2433.87,865.023)" d="M43,-25 L0,25 L10,25 L53,-25 L43,-25 "/>
<path class="Note" transform="matrix(0.992126,0,0,0.992126,2595.65,865.023)" d="M43,-25 L0,25 L10,25 L53,-25 L43,-25 "/>
<path class="Note" transform="matrix(0.992126,0,0,0.992126,2757.44,865.023)" d="M43,-25 L0,25 L10,25 L53,-25 L43,-25 "/>
<path class="Note" transform="matrix(0.992126,0,0,0.992126,159.504,1175.06)" d="M43,-25 L0,25 L10,25 L53,-25 L43,-25 "/>
<path class="Note" transform="matrix(0.992126,0,0,0.992126,319.656,1175.06)" d="M43,-25 L0,25 L10,25 L53,-25 L43,-25 "/>
<path class="Note" transform="matrix(0.992126,0,0,0.992126,479.807,1175.06)" d="M43,-25 L0,25 L10,25 L53,-25 L43,-25 "/>
<path class="Note" transform="matrix(0.992126,0,0,0.992126,639.958,1175.06)" d="M43,-25 L0,25 L10,25 L53,-25 L43,-25 "/>
<path class="Note" transform="matrix(0.992126,0,0,0.992126,841.035,1175.06)" d="M43,-25 L0,25 L10,25 L53,-25 L43,-25 "/>
<path class="Note" transform="matrix(0.992126,0,0,0.992126,1001.19,1175.06)" d="M43,-25 L0,25 L10,25 L53,-25 L43,-25 "/>
<path class="Note" transform="matrix(0.992126,0,0,0.992126,1161.34,1175.06)" d="M43,-25 L0,25 L10,25 L53,-25 L43,-25 "/>
<path class="Note" transform="matrix(0.992126,0,0,0.992126,1321.49,1175.06)" d="M43,-25 L0,25 L10,25 L53,-25 L43,-25 "/>
<path class="Note" transform="matrix(0.992126,0,0,0.992126,1538.69,1175.06)" d="M43,-25 L0,25 L10,25 L53,-25 L43,-25 "/>
<path class="Note" transform="matrix(0.992126,0,0,0.992126,1698.84,1175.06)" d="M43,-25 L0,25 L10,25 L53,-25 L43,-25 "/>
<path class="Note" transform="matrix(0.992126,0,0,0.992126,1858.99,1175.06)" d="M43,-25 L0,25 L10,25 L53,-25 L43,-25 "/>
<path class="Note" transform="matrix(0.992126,0,0,0.992126,2019.14,1175.06)" d="M43,-25 L0,25 L10,25 L53,-25 L43,-25 "/>
<path class="Note" transform="matrix(0.992126,0,0,0.992126,2236.34,1175.06)" d="M43,-25 L0,25 L10,25 L53,-25 L43,-25 "/>
<path class="Note" transform="matrix(0.992126,0,0,0.992126,2396.49,1175.06)" d="M43,-25 L0,25 L10,25 L53,-25 L43,-25 "/>
<path class="Note" transform="matrix(0.992126,0,0,0.992126,2556.64,1175.06)" d="M43,-25 L0,25 L10,25 L53,-25 L43,-25 "/>
<path class="Note" transform="matrix(0.992126,0,0,0.992126,2716.79,1175.06)" d="M43,-25 L0,25 L10,25 L53,-25 L43,-25 "/>
<path class="Clef" transform="matrix(0.992126,0,0,0.992126,158.032,262.205)" d="M63.3594,-5.92188 C62.125,-11.3438 59.4844,-15.1719 58.7031,-16.2031 C55.5156,-20.4844 51.5,-23.3281 46.8125,-24.6875 C43.7031,-25.5625 40.7031,-25.6875 38.2813,-25.5 C37.2344,-31.5156 36.2344,-37.3906 35.3281,-42.8438 C40.7813,-49.0156 44.4063,-54.8125 46.6875,-59.1094 C50.1563,-65.6875 51.2969,-70.2656 51.3594,-70.4688 C53.0781,-75.6875 53.4375,-83.3906 52.3281,-91.5938 C51.3281,-99.1406 49.2344,-105.859 46.875,-109.109 C45.8594,-110.531 44.7969,-111.266 43.7656,-111.266 C42.5469,-111.266 40.0313,-110.031 37.1406,-107.25 C34.8438,-105.063 31.5781,-101.172 29.0156,-95.1563 C26.0156,-88.0938 25.7969,-78.6094 26.1563,-71.8906 C26.5313,-64.6094 27.6406,-58.9219 27.6563,-58.875 C27.6719,-58.7813 27.9375,-57.2813 28.375,-54.7188 C28.1563,-54.4844 27.9063,-54.2656 27.6563,-54.0156 C26.625,-53.0156 25.4375,-51.8906 24.0469,-50.5 C23.1875,-49.6406 22.2344,-48.7344 21.2344,-47.7656 C12.7969,-39.625 0,-27.2969 0,-8.14063 C0,-3.4375 0.90625,0.984375 2.6875,5 C4.26563,8.59375 6.5625,11.875 9.5,14.75 C17.2344,22.3125 27.8281,25.5156 34.875,25.3594 C37.8281,25.2813 40.4688,25.0469 42.8594,24.5938 C44.6875,34.2031 45.8281,41.2344 45.8594,46.5781 C45.9063,53.0938 44.25,57.0781 40.3594,59.8438 C37.9219,61.5781 35.1094,62.5313 32.0156,62.6719 C29.4219,62.7969 27.1563,62.3281 25.7344,61.9219 L25.7188,61.9219 C25.7188,61.9219 25.4375,61.8281 25.4219,61.6406 C25.4063,61.4531 25.7656,61.4063 25.7656,61.4063 L25.7969,61.4063 C27.7188,60.9688 31.2813,59.7344 33.6406,56.4375 C35.4375,53.9063 36.3125,49.2813 34.4688,45.3438 C33.3594,42.9531 30.8594,40 25.2344,39.5469 C22.7344,39.3438 20.4688,39.8594 18.4688,41.0625 C16.6563,42.1406 15.1563,43.7813 14.1094,45.7813 C11.6563,50.4844 12.1094,56.2188 15.2344,60.0625 C18.2031,63.6875 22.8125,66 28.25,66.5781 C29.1094,66.6719 29.9531,66.7031 30.7969,66.7031 C35.2344,66.7031 39.625,65.5 43.2031,63.2969 C46.8594,60.7188 48.9844,56.7344 49.6563,51.1094 C50.2188,46.4688 49.8281,40.5469 48.4375,32.4688 C48.0781,30.375 47.5313,27.3438 46.875,23.5938 C52.625,21.6719 56.7813,18.0938 60.5469,12.2344 C63.8438,6.5 64.7813,0.390625 63.3594,-5.92188 M29.1406,20.2969 C24.5,19.0781 20.0625,16.5781 16.3125,13.0625 C15,11.8438 13.125,9.67188 11.6563,6.28125 C10.2969,3.10938 9.625,-0.328125 9.6875,-3.90625 C9.75,-8.60938 11.0625,-13.4375 13.5625,-18.2188 C16.4844,-23.7969 21.0469,-29.3281 27.1094,-34.6563 C28.5625,-35.9375 29.9375,-37.2188 31.2188,-38.5 C31.9844,-34.2344 32.8125,-29.5469 33.6875,-24.6719 C29.8438,-23.4063 25.0938,-20.25 21.9844,-14.5938 C18.4375,-8.03125 18.5781,-2.5 19.3125,0.984375 C20.25,5.4375 22.7813,9.20313 26.2344,11.2969 C27.1719,11.8594 31.2969,13.9844 33.1406,13.4063 C33.5156,13.2969 33.7813,13.0625 33.9219,12.7344 C34.4375,11.5625 33.4063,10.9219 31.8594,9.96875 C31.25,9.59375 30.5781,9.17188 29.8594,8.64063 C26.5313,6.15625 25.0781,1.70313 26.1563,-2.6875 C26.7344,-5.07813 28.0156,-7.25 29.8594,-8.95313 C31.5156,-10.5 33.5625,-11.5938 35.9375,-12.2344 C37.9844,-0.984375 40.0469,10.1719 41.6875,18.5313 C41.8125,19.2188 41.9531,19.8906 42.0781,20.5625 C37.7031,21.5 33.3594,21.4063 29.1406,20.2969 M40.4688,-12.9063 C50.8125,-13.375 55.0781,-5.9375 55.9688,-1.10938 C56.4375,1.4375 56.4375,5.875 54.8906,10.0938 C53.7188,13.2656 51.2656,17.3438 46.125,19.4063 C46.0625,18.9844 45.9844,18.5469 45.9063,18.125 C44.3594,9.34375 42.4219,-1.65625 40.4688,-12.9063 M33.1406,-83.8594 C34.9219,-89.5938 37.6563,-92.8438 39.6563,-94.5781 C41.4063,-96.0938 43.0469,-96.8125 43.9688,-96.8125 C44.1094,-96.8125 44.2344,-96.7813 44.3281,-96.75 C44.7969,-96.6094 45.3281,-96.0469 45.7969,-95.1719 C48.1094,-90.8906 47.3594,-84.1719 46.0156,-79.7344 C44.3906,-74.3281 41.4688,-68.7188 32.6719,-59.1094 C32.5,-60.2188 32.3438,-61.2656 32.1875,-62.25 C30.9375,-70.5313 31.2656,-77.8125 33.1406,-83.8594"/>
<path class="Clef" transform="matrix(0.992126,0,0,0.992126,34.0158,572.244)" d="M63.3594,-5.92188 C62.125,-11.3438 59.4844,-15.1719 58.7031,-16.2031 C55.5156,-20.4844 51.5,-23.3281 46.8125,-24.6875 C43.7031,-25.5625 40.7031,-25.6875 38.2813,-25.5 C37.2344,-31.5156 36.2344,-37.3906 35.3281,-42.8438 C40.7813,-49.0156 44.4063,-54.8125 46.6875,-59.1094 C50.1563,-65.6875 51.2969,-70.2656 51.3594,-70.4688 C53.0781,-75.6875 53.4375,-83.3906 52.3281,-91.5938 C51.3281,-99.1406 49.2344,-105.859 46.875,-109.109 C45.8594,-110.531 44.7969,-111.266 43.7656,-111.266 C42.5469,-111.266 40.0313,-110.031 37.1406,-107.25 C34.8438,-105.063 31.5781,-101.172 29.0156,-95.1563 C26.0156,-88.0938 25.7969,-78.6094 26.1563,-71.8906 C26.5313,-64.6094 27.6406,-58.9219 27.6563,-58.875 C27.6719,-58.7813 27.9375,-57.2813 28.375,-54.7188 C28.1563,-54.4844 27.9063,-54.2656 27.6563,-54.0156 C26.625,-53.0156 25.4375,-51.8906 24.0469,-50.5 C23.1875,-49.6406 22.2344,-48.7344 21.2344,-47.7656 C12.7969,-39.625 0,-27.2969 0,-8.14063 C0,-3.4375 0.90625,0.984375 2.6875,5 C4.26563,8.59375 6.5625,11.875 9.5,14.75 C17.2344,22.3125 27.8281,25.5156 34.875,25.3594 C37.8281,25.2813 40.4688,25.0469 42.8594,24.5938 C44.6875,34.2031 45.8281,41.2344 45.8594,46.5781 C45.9063,53.0938 44.25,57.0781 40.3594,59.8438 C37.9219,61.5781 35.1094,62.5313 32.0156,62.6719 C29.4219,62.7969 27.1563,62.3281 25.7344,61.9219 L25.7188,61.9219 C25.7188,61.9219 25.4375,61.8281 25.4219,61.6406 C25.4063,61.4531 25.7656,61.4063 25.7656,61.4063 L25.7969,61.4063 C27.7188,60.9688 31.2813,59.7344 33.6406,56.4375 C35.4375,53.9063 36.3125,49.2813 34.4688,45.3438 C33.3594,42.9531 30.8594,40 25.2344,39.5469 C22.7344,39.3438 20.4688,39.8594 18.4688,41.0625 C16.6563,42.1406 15.1563,43.7813 14.1094,45.7813 C11.6563,50.4844 12.1094,56.2188 15.2344,60.0625 C18.2031,63.6875 22.8125,66 28.25,66.5781 C29.1094,66.6719 29.9531,66.7031 30.7969,66.7031 C35.2344,66.7031 39.625,65.5 43.2031,63.2969 C46.8594,60.7188 48.9844,56.7344 49.6563,51.1094 C50.2188,46.4688 49.8281,40.5469 48.4375,32.4688 C48.0781,30.375 47.5313,27.3438 46.875,23.5938 C52.625,21.6719 56.7813,18.0938 60.5469,12.2344 C63.8438,6.5 64.7813,0.390625 63.3594,-5.92188 M29.1406,20.2969 C24.5,19.0781 20.0625,16.5781 16.3125,13.0625 C15,11.8438 13.125,9.67188 11.6563,6.28125 C10.2969,3.10938 9.625,-0.328125 9.6875,-3.90625 C9.75,-8.60938 11.0625,-13.4375 13.5625,-18.2188 C16.4844,-23.7969 21.0469,-29.3281 27.1094,-34.6563 C28.5625,-35.9375 29.9375,-37.2188 31.2188,-38.5 C31.9844,-34.2344 32.8125,-29.5469 33.6875,-24.6719 C29.8438,-23.4063 25.0938,-20.25 21.9844,-14.5938 C18.4375,-8.03125 18.5781,-2.5 19.3125,0.984375 C20.25,5.4375 22.7813,9.20313 26.2344,11.2969 C27.1719,11.8594 31.2969,13.9844 33.1406,13.4063 C33.5156,13.2969 33.7813,13.0625 33.9219,12.7344 C34.4375,11.5625 33.4063,10.9219 31.8594,9.96875 C31.25,9.59375 30.5781,9.17188 29.8594,8.64063 C26.5313,6.15625 25.0781,1.70313 26.1563,-2.6875 C26.7344,-5.07813 28.0156,-7.25 29.8594,-8.95313 C31.5156,-10.5 33.5625,-11.5938 35.9375,-12.2344 C37.9844,-0.984375 40.0469,10.1719 41.6875,18.5313 C41.8125,19.2188 41.9531,19.8906 42.0781,20.5625 C37.7031,21.5 33.3594,21.4063 29.1406,20.2969 M40.4688,-12.9063 C50.8125,-13.375 55.0781,-5.9375 55.9688,-1.10938 C56.4375,1.4375 56.4375,5.875 54.8906,10.0938 C53.7188,13.2656 51.2656,17.3438 46.125,19.4063 C46.0625,18.9844 45.9844,18.5469 45.9063,18.125 C44.3594,9.34375 42.4219,-1.65625 40.4688,-12.9063 M33.1406,-83.8594 C34.9219,-89.5938 37.6563,-92.8438 39.6563,-94.5781 C41.4063,-96.0938 43.0469,-96.8125 43.9688,-96.8125 C44.1094,-96.8125 44.2344,-96.7813 44.3281,-96.75 C44.7969,-96.6094 45.3281,-96.0469 45.7969,-95.1719 C48.1094,-90.8906 47.3594,-84.1719 46.0156,-79.7344 C44.3906,-74.3281 41.4688,-68.7188 32.6719,-59.1094 C32.5,-60.2188 32.3438,-61.2656 32.1875,-62.25 C30.9375,-70.5313 31.2656,-77.8125 33.1406,-83.8594"/>
<path class="Clef" transform="matrix(0.992126,0,0,0.992126,34.0158,889.826)" d="M63.3594,-5.92188 C62.125,-11.3438 59.4844,-15.1719 58.7031,-16.2031 C55.5156,-20.4844 51.5,-23.3281 46.8125,-24.6875 C43.7031,-25.5625 40.7031,-25.6875 38.2813,-25.5 C37.2344,-31.5156 36.2344,-37.3906 35.3281,-42.8438 C40.7813,-49.0156 44.4063,-54.8125 46.6875,-59.1094 C50.1563,-65.6875 51.2969,-70.2656 51.3594,-70.4688 C53.0781,-75.6875 53.4375,-83.3906 52.3281,-91.5938 C51.3281,-99.1406 49.2344,-105.859 46.875,-109.109 C45.8594,-110.531 44.7969,-111.266 43.7656,-111.266 C42.5469,-111.266 40.0313,-110.031 37.1406,-107.25 C34.8438,-105.063 31.5781,-101.172 29.0156,-95.1563 C26.0156,-88.0938 25.7969,-78.6094 26.1563,-71.8906 C26.5313,-64.6094 27.6406,-58.9219 27.6563,-58.875 C27.6719,-58.7813 27.9375,-57.2813 28.375,-54.7188 C28.1563,-54.4844 27.9063,-54.2656 27.6563,-54.0156 C26.625,-53.0156 25.4375,-51.8906 24.0469,-50.5 C23.1875,-49.6406 22.2344,-48.7344 21.2344,-47.7656 C12.7969,-39.625 0,-27.2969 0,-8.14063 C0,-3.4375 0.90625,0.984375 2.6875,5 C4.26563,8.59375 6.5625,11.875 9.5,14.75 C17.2344,22.3125 27.8281,25.5156 34.875,25.3594 C37.8281,25.2813 40.4688,25.0469 42.8594,24.5938 C44.6875,34.2031 45.8281,41.2344 45.8594,46.5781 C45.9063,53.0938 44.25,57.0781 40.3594,59.8438 C37.9219,61.5781 35.1094,62.5313 32.0156,62.6719 C29.4219,62.7969 27.1563,62.3281 25.7344,61.9219 L25.7188,61.9219 C25.7188,61.9219 25.4375,61.8281 25.4219,61.6406 C25.4063,61.4531 25.7656,61.4063 25.7656,61.4063 L25.7969,61.4063 C27.7188,60.9688 31.2813,59.7344 33.6406,56.4375 C35.4375,53.9063 36.3125,49.2813 34.4688,45.3438 C33.3594,42.9531 30.8594,40 25.2344,39.5469 C22.7344,39.3438 20.4688,39.8594 18.4688,41.0625 C16.6563,42.1406 15.1563,43.7813 14.1094,45.7813 C11.6563,50.4844 12.1094,56.2188 15.2344,60.0625 C18.2031,63.6875 22.8125,66 28.25,66.5781 C29.1094,66.6719 29.9531,66.7031 30.7969,66.7031 C35.2344,66.7031 39.625,65.5 43.2031,63.2969 C46.8594,60.7188 48.9844,56.7344 49.6563,51.1094 C50.2188,46.4688 49.8281,40.5469 48.4375,32.4688 C48.0781,30.375 47.5313,27.3438 46.875,23.5938 C52.625,21.6719 56.7813,18.0938 60.5469,12.2344 C63.8438,6.5 64.7813,0.390625 63.3594,-5.92188 M29.1406,20.2969 C24.5,19.0781 20.0625,16.5781 16.3125,13.0625 C15,11.8438 13.125,9.67188 11.6563,6.28125 C10.2969,3.10938 9.625,-0.328125 9.6875,-3.90625 C9.75,-8.60938 11.0625,-13.4375 13.5625,-18.2188 C16.4844,-23.7969 21.0469,-29.3281 27.1094,-34.6563 C28.5625,-35.9375 29.9375,-37.2188 31.2188,-38.5 C31.9844,-34.2344 32.8125,-29.5469 33.6875,-24.6719 C29.8438,-23.4063 25.0938,-20.25 21.9844,-14.5938 C18.4375,-8.03125 18.5781,-2.5 19.3125,0.984375 C20.25,5.4375 22.7813,9.20313 26.2344,11.2969 C27.1719,11.8594 31.2969,13.9844 33.1406,13.4063 C33.5156,13.2969 33.7813,13.0625 33.9219,12.7344 C34.4375,11.5625 33.4063,10.9219 31.8594,9.96875 C31.25,9.59375 30.5781,9.17188 29.8594,8.64063 C26.5313,6.15625 25.0781,1.70313 26.1563,-2.6875 C26.7344,-5.07813 28.0156,-7.25 29.8594,-8.95313 C31.5156,-10.5 33.5625,-11.5938 35.9375,-12.2344 C37.9844,-0.984375 40.0469,10.1719 41.6875,18.5313 C41.8125,19.2188 41.9531,19.8906 42.0781,20.5625 C37.7031,21.5 33.3594,21.4063 29.1406,20.2969 M40.4688,-12.9063 C50.8125,-13.375 55.0781,-5.9375 55.9688,-1.10938 C56.4375,1.4375 56.4375,5.875 54.8906,10.0938 C53.7188,13.2656 51.2656,17.3438 46.125,19.4063 C46.0625,18.9844 45.9844,18.5469 45.9063,18.125 C44.3594,9.34375 42.4219,-1.65625 40.4688,-12.9063 M33.1406,-83.8594 C34.9219,-89.5938 37.6563,-92.8438 39.6563,-94.5781 C41.4063,-96.0938 43.0469,-96.8125 43.9688,-96.8125 C44.1094,-96.8125 44.2344,-96.7813 44.3281,-96.75 C44.7969,-96.6094 45.3281,-96.0469 45.7969,-95.1719 C48.1094,-90.8906 47.3594,-84.1719 46.0156,-79.7344 C44.3906,-74.3281 41.4688,-68.7188 32.6719,-59.1094 C32.5,-60.2188 32.3438,-61.2656 32.1875,-62.25 C30.9375,-70.5313 31.2656,-77.8125 33.1406,-83.8594"/>
<path class="Clef" transform="matrix(0.992126,0,0,0.992126,34.0158,1199.87)" d="M63.3594,-5.92188 C62.125,-11.3438 59.4844,-15.1719 58.7031,-16.2031 C55.5156,-20.4844 51.5,-23.3281 46.8125,-24.6875 C43.7031,-25.5625 40.7031,-25.6875 38.2813,-25.5 C37.2344,-31.5156 36.2344,-37.3906 35.3281,-42.8438 C40.7813,-49.0156 44.4063,-54.8125 46.6875,-59.1094 C50.1563,-65.6875 51.2969,-70.2656 51.3594,-70.4688 C53.0781,-75.6875 53.4375,-83.3906 52.3281,-91.5938 C51.3281,-99.1406 49.2344,-105.859 46.875,-109.109 C45.8594,-110.531 44.7969,-111.266 43.7656,-111.266 C42.5469,-111.266 40.0313,-110.031 37.1406,-107.25 C34.8438,-105.063 31.5781,-101.172 29.0156,-95.1563 C26.0156,-88.0938 25.7969,-78.6094 26.1563,-71.8906 C26.5313,-64.6094 27.6406,-58.9219 27.6563,-58.875 C27.6719,-58.7813 27.9375,-57.2813 28.375,-54.7188 C28.1563,-54.4844 27.9063,-54.2656 27.6563,-54.0156 C26.625,-53.0156 25.4375,-51.8906 24.0469,-50.5 C23.1875,-49.6406 22.2344,-48.7344 21.2344,-47.7656 C12.7969,-39.625 0,-27.2969 0,-8.14063 C0,-3.4375 0.90625,0.984375 2.6875,5 C4.26563,8.59375 6.5625,11.875 9.5,14.75 C17.2344,22.3125 27.8281,25.5156 34.875,25.3594 C37.8281,25.2813 40.4688,25.0469 42.8594,24.5938 C44.6875,34.2031 45.8281,41.2344 45.8594,46.5781 C45.9063,53.0938 44.25,57.0781 40.3594,59.8438 C37.9219,61.5781 35.1094,62.5313 32.0156,62.6719 C29.4219,62.7969 27.1563,62.3281 25.7344,61.9219 L25.7188,61.9219 C25.7188,61.9219 25.4375,61.8281 25.4219,61.6406 C25.4063,61.4531 25.7656,61.4063 25.7656,61.4063 L25.7969,61.4063 C27.7188,60.9688 31.2813,59.7344 33.6406,56.4375 C35.4375,53.9063 36.3125,49.2813 34.4688,45.3438 C33.3594,42.9531 30.8594,40 25.2344,39.5469 C22.7344,39.3438 20.4688,39.8594 18.4688,41.0625 C16.6563,42.1406 15.1563,43.7813 14.1094,45.7813 C11.6563,50.4844 12.1094,56.2188 15.2344,60.0625 C18.2031,63.6875 22.8125,66 28.25,66.5781 C29.1094,66.6719 29.9531,66.7031 30.7969,66.7031 C35.2344,66.7031 39.625,65.5 43.2031,63.2969 C46.8594,60.7188 48.9844,56.7344 49.6563,51.1094 C50.2188,46.4688 49.8281,40.5469 48.4375,32.4688 C48.0781,30.375 47.5313,27.3438 46.875,23.5938 C52.625,21.6719 56.7813,18.0938 60.5469,12.2344 C63.8438,6.5 64.7813,0.390625 63.3594,-5.92188 M29.1406,20.2969 C24.5,19.0781 20.0625,16.5781 16.3125,13.0625 C15,11.8438 13.125,9.67188 11.6563,6.28125 C10.2969,3.10938 9.625,-0.328125 9.6875,-3.90625 C9.75,-8.60938 11.0625,-13.4375 13.5625,-18.2188 C16.4844,-23.7969 21.0469,-29.3281 27.1094,-34.6563 C28.5625,-35.9375 29.9375,-37.2188 31.2188,-38.5 C31.9844,-34.2344 32.8125,-29.5469 33.6875,-24.6719 C29.8438,-23.4063 25.0938,-20.25 21.9844,-14.5938 C18.4375,-8.03125 18.5781,-2.5 19.3125,0.984375 C20.25,5.4375 22.7813,9.20313 26.2344,11.2969 C27.1719,11.8594 31.2969,13.9844 33.1406,13.4063 C33.5156,13.2969 33.7813,13.0625 33.9219,12.7344 C34.4375,11.5625 33.4063,10.9219 31.8594,9.96875 C31.25,9.59375 30.5781,9.17188 29.8594,8.64063 C26.5313,6.15625 25.0781,1.70313 26.1563,-2.6875 C26.7344,-5.07813 28.0156,-7.25 29.8594,-8.95313 C31.5156,-10.5 33.5625,-11.5938 35.9375,-12.2344 C37.9844,-0.984375 40.0469,10.1719 41.6875,18.5313 C41.8125,19.2188 41.9531,19.8906 42.0781,20.5625 C37.7031,21.5 33.3594,21.4063 29.1406,20.2969 M40.4688,-12.9063 C50.8125,-13.375 55.0781,-5.9375 55.9688,-1.10938 C56.4375,1.4375 56.4375,5.875 54.8906,10.0938 C53.7188,13.2656 51.2656,17.3438 46.125,19.4063 C46.0625,18.9844 45.9844,18.5469 45.9063,18.125 C44.3594,9.34375 42.4219,-1.65625 40.4688,-12.9063 M33.1406,-83.8594 C34.9219,-89.5938 37.6563,-92.8438 39.6563,-94.5781 C41.4063,-96.0938 43.0469,-96.8125 43.9688,-96.8125 C44.1094,-96.8125 44.2344,-96.7813 44.3281,-96.75 C44.7969,-96.6094 45.3281,-96.0469 45.7969,-95.1719 C48.1094,-90.8906 47.3594,-84.1719 46.0156,-79.7344 C44.3906,-74.3281 41.4688,-68.7188 32.6719,-59.1094 C32.5,-60.2188 32.3438,-61.2656 32.1875,-62.25 C30.9375,-70.5313 31.2656,-77.8125 33.1406,-83.8594"/>
<path class="TimeSig" transform="matrix(0.992126,0,0,0.992126,244.951,212.73)" d="M3.59375,12.625 L20.7656,12.625 L20.7656,20.0781 L12.5469,20.0781 C11.7656,20.0781 11.125,20.7031 11.125,21.4844 L11.125,23.3906 C11.125,24.1719 11.7656,24.7969 12.5469,24.7969 L42.7969,24.7969 C43.5781,24.7969 44.2031,24.1719 44.2031,23.3906 L44.2031,21.4844 C44.2031,20.7031 43.5781,20.0781 42.7969,20.0781 L33.8594,20.0781 L33.8594,12.625 L42.7969,12.625 C43.5781,12.625 44.2031,12 44.2031,11.2188 L44.2031,9.3125 C44.2031,8.53125 43.5781,7.90625 42.7969,7.90625 L33.8594,7.90625 L33.8594,-8.0625 C33.8594,-8.59375 33.5469,-9.07813 33.0781,-9.3125 L31.8594,-9.92188 C31.3281,-10.1719 30.7031,-10.0781 30.2656,-9.6875 L21.2188,-1.375 C20.9375,-1.09375 20.7656,-0.734375 20.7656,-0.328125 L20.7656,7.90625 L9.25,7.90625 C9.25,7.90625 20.375,-4.125 32.2188,-19.8906 C33.0781,-21.0469 32.5781,-22.0938 32.3906,-22.2813 L30.2188,-24.4844 C29.9531,-24.75 29.5938,-24.9063 29.2188,-24.9063 C28.625,-24.9063 15.0625,-24.875 14.3438,-24.9063 C13.625,-24.9219 13.0938,-24.2969 13.0156,-23.6875 C13.0156,-23.6875 12.4844,-16.3281 9.875,-8.1875 C7.28125,-0.078125 4.34375,4.90625 1.6875,8.53125 C1.6875,8.53125 1.14063,9.51563 1.5,10.2656 C1.84375,11.0156 2.48438,12.0938 2.48438,12.0938 C2.48438,12.0938 2.73438,12.625 3.59375,12.625"/>
<path class="TimeSig" transform="matrix(0.992126,0,0,0.992126,244.951,262.073)" d="M3.59375,12.625 L20.7656,12.625 L20.7656,20.0781 L12.5469,20.0781 C11.7656,20.0781 11.125,20.7031 11.125,21.4844 L11.125,23.3906 C11.125,24.1719 11.7656,24.7969 12.5469,24.7969 L42.7969,24.7969 C43.5781,24.7969 44.2031,24.1719 44.2031,23.3906 L44.2031,21.4844 C44.2031,20.7031 43.5781,20.0781 42.7969,20.0781 L33.8594,20.0781 L33.8594,12.625 L42.7969,12.625 C43.5781,12.625 44.2031,12 44.2031,11.2188 L44.2031,9.3125 C44.2031,8.53125 43.5781,7.90625 42.7969,7.90625 L33.8594,7.90625 L33.8594,-8.0625 C33.8594,-8.59375 33.5469,-9.07813 33.0781,-9.3125 L31.8594,-9.92188 C31.3281,-10.1719 30.7031,-10.0781 30.2656,-9.6875 L21.2188,-1.375 C20.9375,-1.09375 20.7656,-0.734375 20.7656,-0.328125 L20.7656,7.90625 L9.25,7.90625 C9.25,7.90625 20.375,-4.125 32.2188,-19.8906 C33.0781,-21.0469 32.5781,-22.0938 32.3906,-22.2813 L30.2188,-24.4844 C29.9531,-24.75 29.5938,-24.9063 29.2188,-24.9063 C28.625,-24.9063 15.0625,-24.875 14.3438,-24.9063 C13.625,-24.9219 13.0938,-24.2969 13.0156,-23.6875 C13.0156,-23.6875 12.4844,-16.3281 9.875,-8.1875 C7.28125,-0.078125 4.34375,4.90625 1.6875,8.53125 C1.6875,8.53125 1.14063,9.51563 1.5,10.2656 C1.84375,11.0156 2.48438,12.0938 2.48438,12.0938 C2.48438,12.0938 2.73438,12.625 3.59375,12.625"/>
<path class="RehearsalMark" fill="none" stroke="#000000" stroke-width="3.97" stroke-linecap="square" stroke-linejoin="miter" stroke-miterlimit="2" fill-rule="evenodd" d="M154.216,21.0729 L262.987,21.0729 L262.987,122.845 L154.216,122.845 L154.216,21.0729 "/>
<path class="RehearsalMark" d="M205.352,35.4899 L182.883,87.9587 C178.32,98.6618 174.664,102.521 168.82,103.115 L168.82,108.459 L197.43,108.459 L197.43,103.115 C190.398,102.724 187.633,100.834 187.633,96.2868 C187.633,94.5993 188.023,93.0212 189.117,90.6462 L190.695,86.8806 L215.352,86.8806 L219.117,96.5837 C220.195,99.3493 220.305,99.8493 220.305,100.631 C220.305,102.427 218.914,103.021 214.555,103.021 L212.867,103.115 L212.867,108.459 L247.617,108.459 L247.617,103.115 C241.977,102.912 240.398,101.927 238.32,96.8806 L212.867,35.4899 L205.352,35.4899 M203.273,56.5837 L212.867,80.2399 L193.273,80.2399 L203.273,56.5837 "/>
<path class="RehearsalMark" fill="none" stroke="#000000" stroke-width="3.97" stroke-linecap="square" stroke-linejoin="miter" stroke-miterlimit="2" fill-rule="evenodd" d="M32.3294,654.622 L133.101,654.622 L133.101,755.393 L32.3294,755.393 L32.3294,654.622 "/>
<path class="RehearsalMark" d="M47.4027,669.523 L47.4027,674.882 L48.8871,674.882 C54.2308,674.882 56.1058,675.273 56.9964,676.257 C57.6996,677.351 57.6996,677.648 57.6996,683.789 L57.6996,726.757 C57.6996,732.882 57.6996,733.179 56.9964,734.179 C56.1058,735.273 54.1371,735.664 48.8871,735.664 L47.4027,735.664 L47.4027,741.007 L87.4964,741.007 C97.7933,741.007 103.043,740.211 108.184,737.945 C114.418,735.164 118.575,728.929 118.575,722.195 C118.575,715.273 114.621,709.82 107.293,706.461 C103.934,704.867 101.059,704.086 95.8089,703.382 C100.653,702.601 103.434,701.898 106.2,700.617 C112.137,697.742 115.309,692.992 115.309,687.054 C115.309,681.414 112.34,676.164 107.496,673.492 C102.043,670.414 97.2933,669.523 85.6058,669.523 L47.4027,669.523 M75.5121,701.601 L75.5121,680.617 C75.3089,676.461 76.6996,675.07 81.0589,674.882 L84.0277,674.882 C92.7464,674.882 97.3871,679.226 97.3871,687.445 C97.3871,692.304 95.7152,696.164 92.5433,698.632 C89.8714,700.82 86.4964,701.601 80.3714,701.601 L75.5121,701.601 M75.5121,707.054 L82.3402,707.054 C88.5746,707.054 91.4496,707.648 94.2308,709.429 C97.6839,711.711 99.6683,716.054 99.6683,721.211 C99.6683,725.961 97.8871,730.32 95.0121,732.695 C92.5433,734.664 89.2777,735.664 84.5277,735.664 L81.5589,735.664 C75.9027,735.461 75.3089,734.867 75.5121,729.32 L75.5121,707.054 "/>
<path class="Harmony" d="M350.527,121.866 C350.496,121.881 350.449,121.881 350.386,121.881 C350.324,121.881 350.277,121.897 350.246,121.897 C350.199,121.912 350.152,121.912 350.09,121.928 C350.027,121.928 349.996,121.944 349.949,121.959 C349.902,121.975 349.871,122.006 349.824,122.022 C349.777,122.053 349.746,122.069 349.73,122.116 C349.683,122.147 349.668,122.178 349.636,122.225 C349.621,122.256 349.605,122.319 349.605,122.366 C349.605,122.397 349.605,122.428 349.605,122.475 L349.605,122.506 C349.605,122.537 349.605,122.584 349.605,122.647 C349.621,122.709 349.621,122.756 349.621,122.787 C349.621,123.366 349.636,123.928 349.652,124.475 C349.652,124.506 349.652,124.537 349.652,124.569 C349.652,124.678 349.652,124.819 349.636,124.975 C349.621,125.178 349.621,125.319 349.621,125.412 L349.621,125.444 L349.621,125.537 C349.621,125.553 349.621,125.584 349.636,125.616 C349.636,125.647 349.636,125.662 349.652,125.678 C349.668,125.694 349.683,125.709 349.715,125.725 C349.73,125.741 349.761,125.741 349.793,125.741 L349.808,125.741 C349.98,125.741 350.152,125.709 350.324,125.631 C350.511,125.569 350.668,125.491 350.824,125.381 C350.98,125.287 351.121,125.162 351.261,125.006 C351.402,124.866 351.527,124.709 351.621,124.553 C351.73,124.397 351.808,124.225 351.871,124.053 C351.949,123.881 351.98,123.709 351.98,123.537 C351.996,123.506 351.996,123.459 351.996,123.428 C351.996,123.334 351.98,123.241 351.965,123.131 C351.933,122.991 351.902,122.85 351.84,122.725 C351.793,122.6 351.715,122.475 351.621,122.366 C351.543,122.241 351.433,122.147 351.324,122.069 C351.215,121.991 351.09,121.928 350.949,121.897 C350.871,121.866 350.777,121.866 350.668,121.866 C350.621,121.866 350.574,121.866 350.527,121.866 M350.215,125.1 C350.215,124.959 350.215,124.741 350.215,124.475 C350.23,124.256 350.23,124.053 350.23,123.866 C350.23,123.819 350.23,123.787 350.23,123.741 C350.23,123.522 350.215,123.303 350.215,123.1 C350.215,123.069 350.199,123.037 350.199,122.959 C350.183,122.881 350.168,122.803 350.168,122.741 C350.152,122.709 350.152,122.678 350.152,122.647 C350.152,122.616 350.152,122.584 350.168,122.553 C350.168,122.491 350.199,122.444 350.23,122.412 C350.277,122.381 350.324,122.366 350.386,122.366 C350.402,122.366 350.402,122.366 350.418,122.366 C350.496,122.381 350.574,122.397 350.668,122.444 C350.746,122.491 350.824,122.553 350.902,122.616 C350.98,122.678 351.043,122.741 351.105,122.787 C351.168,122.85 351.199,122.897 351.23,122.944 C351.308,123.069 351.371,123.225 351.402,123.381 C351.418,123.475 351.418,123.553 351.418,123.647 C351.418,123.709 351.418,123.787 351.418,123.85 C351.386,124.006 351.34,124.147 351.277,124.303 C351.215,124.444 351.121,124.569 351.027,124.694 C350.918,124.803 350.793,124.897 350.668,124.959 C350.527,125.037 350.371,125.084 350.215,125.1"/>
<path class="Harmony" d="M369.027,70.4327 C367.074,70.6827 365.23,71.1358 363.418,71.7765 C361.621,72.4327 359.98,73.339 358.371,74.3858 C356.777,75.4327 355.324,76.6358 354.074,77.9796 C352.824,79.339 351.777,80.8858 350.871,82.6358 C349.98,84.3858 349.371,86.2296 349.027,88.1827 C348.777,89.3858 348.668,90.6358 348.668,91.8858 L348.668,92.2296 C348.668,93.4327 348.73,94.589 348.871,95.7296 C349.027,96.9796 349.324,98.2296 349.73,99.3858 C350.168,100.589 350.668,101.73 351.23,102.792 C351.777,103.839 352.48,104.792 353.277,105.636 C354.074,106.48 355.074,107.183 356.074,107.792 C357.074,108.386 358.23,108.839 359.48,109.089 C360.324,109.23 361.168,109.339 362.027,109.339 C362.48,109.339 362.98,109.339 363.527,109.292 C365.074,109.136 366.527,108.792 367.871,108.292 C369.23,107.792 370.48,107.183 371.527,106.48 C372.574,105.792 373.621,104.886 374.574,103.886 C375.527,102.886 376.433,101.792 377.183,100.683 C377.933,99.589 378.621,98.339 379.371,96.9327 C380.527,94.6358 381.074,92.6827 381.074,91.1358 C381.074,89.589 380.527,88.3858 379.371,87.5421 C378.73,86.9796 377.621,86.6358 376.183,86.3858 C375.121,86.2296 374.074,86.1358 373.027,86.1358 L372.777,86.1358 L371.668,86.1358 C370.121,86.1827 368.668,86.4327 367.277,86.8858 C365.871,87.339 364.918,87.8858 364.418,88.5421 C364.277,88.7921 364.121,88.9796 363.98,89.1827 C363.621,89.7296 363.418,90.2296 363.418,90.6827 C363.418,91.339 363.871,91.7921 364.73,92.0421 C365.418,92.2296 366.777,92.339 368.73,92.339 L369.168,92.339 C369.824,92.3858 370.324,92.3858 370.668,92.3858 C372.73,92.3858 373.98,92.6358 374.371,93.1827 C374.527,93.3858 374.683,93.6827 374.683,93.9796 C374.683,94.2921 374.621,94.589 374.574,94.8858 C374.527,95.1827 374.371,95.5421 374.23,95.9327 C374.074,96.339 373.918,96.6358 373.777,96.8858 C373.621,97.1358 373.48,97.4796 373.277,97.8858 C373.074,98.2921 372.918,98.4796 372.871,98.589 C372.621,99.0421 372.48,99.3858 372.324,99.6358 C372.168,99.8858 371.98,100.136 371.73,100.48 C371.48,100.839 371.168,101.136 370.918,101.339 C369.871,102.136 368.73,102.683 367.371,102.933 L365.668,103.136 L365.48,103.136 C364.824,103.089 364.121,103.042 363.48,102.886 C362.23,102.636 360.98,102.183 359.824,101.48 C358.668,100.792 357.668,99.9327 356.918,98.9327 C356.168,97.8858 355.48,96.6358 354.98,95.2296 C354.48,93.839 354.168,92.3858 354.074,90.839 C354.027,90.2921 354.027,89.7921 354.027,89.2296 C354.027,88.2296 354.074,87.2296 354.23,86.2921 C354.48,84.839 354.918,83.4327 355.621,82.1358 C356.324,80.839 357.23,79.7765 358.324,78.9796 C359.668,77.9327 361.324,77.1827 363.23,76.6827 C364.277,76.3858 365.324,76.2296 366.324,76.2296 C367.027,76.2296 367.73,76.339 368.371,76.4796 C368.918,76.6358 369.48,76.839 370.121,77.1358 C370.777,77.4327 371.324,77.7296 371.824,78.0265 C372.324,78.339 372.871,78.6358 373.418,78.9327 C373.98,79.2296 374.527,79.4796 375.027,79.589 C375.527,79.6827 376.027,79.7296 376.527,79.6827 C377.027,79.6358 377.527,79.3858 378.027,78.9327 C378.527,78.4796 378.98,77.8858 379.433,77.1358 C379.683,76.6827 379.824,76.2296 379.824,75.7765 C379.824,75.4327 379.73,75.1358 379.574,74.7765 C379.183,74.0265 378.527,73.3858 377.621,72.839 C376.73,72.2765 375.777,71.7765 374.683,71.3858 C373.574,70.9796 372.527,70.7296 371.48,70.589 C370.73,70.4327 370.121,70.3858 369.621,70.3858 C369.371,70.3858 369.168,70.3858 369.027,70.4327"/>
<path class="Harmony" d="M1028.49,86.8343 C1026.54,87.0843 1024.7,87.5374 1022.88,88.178 C1021.09,88.8343 1019.45,89.7405 1017.84,90.7874 C1016.24,91.8343 1014.79,93.0374 1013.54,94.3812 C1012.29,95.7405 1011.24,97.2874 1010.34,99.0374 C1009.45,100.787 1008.84,102.631 1008.49,104.584 C1008.24,105.787 1008.13,107.037 1008.13,108.287 L1008.13,108.631 C1008.13,109.834 1008.2,110.991 1008.34,112.131 C1008.49,113.381 1008.79,114.631 1009.2,115.787 C1009.63,116.991 1010.13,118.131 1010.7,119.194 C1011.24,120.241 1011.95,121.194 1012.74,122.037 C1013.54,122.881 1014.54,123.584 1015.54,124.194 C1016.54,124.787 1017.7,125.241 1018.95,125.491 C1019.79,125.631 1020.63,125.741 1021.49,125.741 C1021.95,125.741 1022.45,125.741 1022.99,125.694 C1024.54,125.537 1025.99,125.194 1027.34,124.694 C1028.7,124.194 1029.95,123.584 1030.99,122.881 C1032.04,122.194 1033.09,121.287 1034.04,120.287 C1034.99,119.287 1035.9,118.194 1036.65,117.084 C1037.4,115.991 1038.09,114.741 1038.84,113.334 C1039.99,111.037 1040.54,109.084 1040.54,107.537 C1040.54,105.991 1039.99,104.787 1038.84,103.944 C1038.2,103.381 1037.09,103.037 1035.65,102.787 C1034.59,102.631 1033.54,102.537 1032.49,102.537 L1032.24,102.537 L1031.13,102.537 C1029.59,102.584 1028.13,102.834 1026.74,103.287 C1025.34,103.741 1024.38,104.287 1023.88,104.944 C1023.74,105.194 1023.59,105.381 1023.45,105.584 C1023.09,106.131 1022.88,106.631 1022.88,107.084 C1022.88,107.741 1023.34,108.194 1024.2,108.444 C1024.88,108.631 1026.24,108.741 1028.2,108.741 L1028.63,108.741 C1029.29,108.787 1029.79,108.787 1030.13,108.787 C1032.2,108.787 1033.45,109.037 1033.84,109.584 C1033.99,109.787 1034.15,110.084 1034.15,110.381 C1034.15,110.694 1034.09,110.991 1034.04,111.287 C1033.99,111.584 1033.84,111.944 1033.7,112.334 C1033.54,112.741 1033.38,113.037 1033.24,113.287 C1033.09,113.537 1032.95,113.881 1032.74,114.287 C1032.54,114.694 1032.38,114.881 1032.34,114.991 C1032.09,115.444 1031.95,115.787 1031.79,116.037 C1031.63,116.287 1031.45,116.537 1031.2,116.881 C1030.95,117.241 1030.63,117.537 1030.38,117.741 C1029.34,118.537 1028.2,119.084 1026.84,119.334 L1025.13,119.537 L1024.95,119.537 C1024.29,119.491 1023.59,119.444 1022.95,119.287 C1021.7,119.037 1020.45,118.584 1019.29,117.881 C1018.13,117.194 1017.13,116.334 1016.38,115.334 C1015.63,114.287 1014.95,113.037 1014.45,111.631 C1013.95,110.241 1013.63,108.787 1013.54,107.241 C1013.49,106.694 1013.49,106.194 1013.49,105.631 C1013.49,104.631 1013.54,103.631 1013.7,102.694 C1013.95,101.241 1014.38,99.8343 1015.09,98.5374 C1015.79,97.2405 1016.7,96.178 1017.79,95.3812 C1019.13,94.3343 1020.79,93.5843 1022.7,93.0843 C1023.74,92.7874 1024.79,92.6312 1025.79,92.6312 C1026.49,92.6312 1027.2,92.7405 1027.84,92.8812 C1028.38,93.0374 1028.95,93.2405 1029.59,93.5374 C1030.24,93.8343 1030.79,94.1312 1031.29,94.428 C1031.79,94.7405 1032.34,95.0374 1032.88,95.3343 C1033.45,95.6312 1033.99,95.8812 1034.49,95.9905 C1034.99,96.0843 1035.49,96.1312 1035.99,96.0843 C1036.49,96.0374 1036.99,95.7874 1037.49,95.3343 C1037.99,94.8812 1038.45,94.2874 1038.9,93.5374 C1039.15,93.0843 1039.29,92.6312 1039.29,92.178 C1039.29,91.8343 1039.2,91.5374 1039.04,91.178 C1038.65,90.428 1037.99,89.7874 1037.09,89.2405 C1036.2,88.678 1035.24,88.178 1034.15,87.7874 C1033.04,87.3812 1031.99,87.1312 1030.95,86.9905 C1030.2,86.8343 1029.59,86.7874 1029.09,86.7874 C1028.84,86.7874 1028.63,86.7874 1028.49,86.8343"/>
<path class="Harmony" d="M1686.35,86.7405 C1684.66,86.9905 1682.96,87.4905 1681.31,88.2874 C1679.66,89.0843 1678.16,90.0843 1676.81,91.2874 C1675.46,92.4905 1674.21,93.8343 1673.06,95.3812 C1671.91,96.928 1671.01,98.5374 1670.26,100.178 C1669.51,101.834 1669.01,103.584 1668.71,105.444 C1668.56,106.444 1668.46,107.444 1668.46,108.381 C1668.46,109.194 1668.51,109.991 1668.6,110.741 C1668.85,112.287 1669.31,113.834 1670.01,115.287 C1670.71,116.741 1671.51,118.084 1672.51,119.334 C1673.51,120.584 1674.76,121.631 1676.1,122.584 C1677.46,123.537 1678.81,124.241 1680.26,124.741 C1681.6,125.194 1683.01,125.444 1684.56,125.444 L1684.71,125.444 L1684.85,125.444 C1686.51,125.381 1688.1,125.084 1689.66,124.491 C1690.1,124.334 1690.56,124.194 1691.01,123.991 C1691.46,123.787 1691.96,123.537 1692.6,123.194 C1693.26,122.834 1693.81,122.537 1694.37,122.194 C1694.91,121.834 1695.41,121.444 1695.91,120.991 C1696.41,120.537 1696.81,120.037 1697.06,119.584 C1697.31,119.131 1697.46,118.694 1697.46,118.131 C1697.41,117.584 1697.21,117.037 1696.87,116.491 C1696.71,116.241 1696.46,116.084 1696.21,115.991 C1695.96,115.881 1695.66,115.834 1695.41,115.881 C1695.16,115.944 1694.91,116.037 1694.62,116.194 C1694.31,116.334 1694.01,116.491 1693.76,116.584 C1693.51,116.694 1693.26,116.834 1692.96,117.037 C1692.66,117.241 1692.46,117.381 1692.31,117.444 C1690.56,118.381 1688.85,118.881 1687.1,118.881 C1685.51,118.881 1683.96,118.491 1682.41,117.694 C1680.96,116.944 1679.6,116.084 1678.41,115.084 C1677.21,114.084 1676.31,112.991 1675.66,111.741 C1675.1,110.584 1674.66,109.381 1674.41,108.131 C1674.16,106.991 1674.06,105.881 1674.06,104.741 L1674.06,104.334 C1674.06,103.084 1674.26,101.834 1674.66,100.584 C1675.06,99.3343 1675.56,98.178 1676.21,97.178 C1676.85,96.178 1677.76,95.2874 1678.81,94.5374 C1679.85,93.7874 1681.06,93.2874 1682.41,93.0374 C1682.71,92.928 1683.06,92.8812 1683.41,92.8812 C1683.66,92.928 1683.91,92.928 1684.16,92.9905 C1684.81,93.0843 1685.51,93.2405 1686.21,93.428 C1686.91,93.5843 1687.6,93.8343 1688.31,94.178 L1690.41,95.0843 C1691.1,95.3812 1691.81,95.5843 1692.46,95.8343 C1693.1,96.0843 1693.76,96.178 1694.41,96.2405 C1694.62,96.2874 1694.81,96.2874 1694.96,96.2874 C1695.37,96.2405 1695.76,96.178 1696.12,96.1312 C1696.62,96.0374 1697.06,95.7405 1697.51,95.2874 C1697.96,94.8343 1698.37,94.2874 1698.62,93.5374 C1698.71,93.178 1698.76,92.8812 1698.76,92.5843 C1698.81,92.3343 1698.76,92.0843 1698.66,91.8343 C1698.56,91.5843 1698.41,91.3812 1698.26,91.178 C1698.12,90.928 1697.91,90.7874 1697.66,90.5843 C1697.41,90.3812 1697.21,90.178 1697.01,90.0374 C1696.81,89.8812 1696.51,89.678 1696.26,89.5374 C1693.16,87.5843 1690.31,86.6312 1687.66,86.6312 C1687.21,86.6312 1686.81,86.678 1686.35,86.7405"/>
<path class="Harmony" d="M2347.43,86.8343 C2345.48,87.0843 2343.63,87.5374 2341.82,88.178 C2340.02,88.8343 2338.38,89.7405 2336.77,90.7874 C2335.18,91.8343 2333.73,93.0374 2332.48,94.3812 C2331.23,95.7405 2330.18,97.2874 2329.27,99.0374 C2328.38,100.787 2327.77,102.631 2327.43,104.584 C2327.18,105.787 2327.07,107.037 2327.07,108.287 L2327.07,108.631 C2327.07,109.834 2327.13,110.991 2327.27,112.131 C2327.43,113.381 2327.73,114.631 2328.13,115.787 C2328.57,116.991 2329.07,118.131 2329.63,119.194 C2330.18,120.241 2330.88,121.194 2331.68,122.037 C2332.48,122.881 2333.48,123.584 2334.48,124.194 C2335.48,124.787 2336.63,125.241 2337.88,125.491 C2338.73,125.631 2339.57,125.741 2340.43,125.741 C2340.88,125.741 2341.38,125.741 2341.93,125.694 C2343.48,125.537 2344.93,125.194 2346.27,124.694 C2347.63,124.194 2348.88,123.584 2349.93,122.881 C2350.98,122.194 2352.02,121.287 2352.98,120.287 C2353.93,119.287 2354.83,118.194 2355.58,117.084 C2356.33,115.991 2357.02,114.741 2357.77,113.334 C2358.93,111.037 2359.48,109.084 2359.48,107.537 C2359.48,105.991 2358.93,104.787 2357.77,103.944 C2357.13,103.381 2356.02,103.037 2354.58,102.787 C2353.52,102.631 2352.48,102.537 2351.43,102.537 L2351.18,102.537 L2350.07,102.537 C2348.52,102.584 2347.07,102.834 2345.68,103.287 C2344.27,103.741 2343.32,104.287 2342.82,104.944 C2342.68,105.194 2342.52,105.381 2342.38,105.584 C2342.02,106.131 2341.82,106.631 2341.82,107.084 C2341.82,107.741 2342.27,108.194 2343.13,108.444 C2343.82,108.631 2345.18,108.741 2347.13,108.741 L2347.57,108.741 C2348.23,108.787 2348.73,108.787 2349.07,108.787 C2351.13,108.787 2352.38,109.037 2352.77,109.584 C2352.93,109.787 2353.08,110.084 2353.08,110.381 C2353.08,110.694 2353.02,110.991 2352.98,111.287 C2352.93,111.584 2352.77,111.944 2352.63,112.334 C2352.48,112.741 2352.32,113.037 2352.18,113.287 C2352.02,113.537 2351.88,113.881 2351.68,114.287 C2351.48,114.694 2351.32,114.881 2351.27,114.991 C2351.02,115.444 2350.88,115.787 2350.73,116.037 C2350.57,116.287 2350.38,116.537 2350.13,116.881 C2349.88,117.241 2349.57,117.537 2349.32,117.741 C2348.27,118.537 2347.13,119.084 2345.77,119.334 L2344.07,119.537 L2343.88,119.537 C2343.23,119.491 2342.52,119.444 2341.88,119.287 C2340.63,119.037 2339.38,118.584 2338.23,117.881 C2337.07,117.194 2336.07,116.334 2335.32,115.334 C2334.57,114.287 2333.88,113.037 2333.38,111.631 C2332.88,110.241 2332.57,108.787 2332.48,107.241 C2332.43,106.694 2332.43,106.194 2332.43,105.631 C2332.43,104.631 2332.48,103.631 2332.63,102.694 C2332.88,101.241 2333.32,99.8343 2334.02,98.5374 C2334.73,97.2405 2335.63,96.178 2336.73,95.3812 C2338.07,94.3343 2339.73,93.5843 2341.63,93.0843 C2342.68,92.7874 2343.73,92.6312 2344.73,92.6312 C2345.43,92.6312 2346.13,92.7405 2346.77,92.8812 C2347.32,93.0374 2347.88,93.2405 2348.52,93.5374 C2349.18,93.8343 2349.73,94.1312 2350.23,94.428 C2350.73,94.7405 2351.27,95.0374 2351.82,95.3343 C2352.38,95.6312 2352.93,95.8812 2353.43,95.9905 C2353.93,96.0843 2354.43,96.1312 2354.93,96.0843 C2355.43,96.0374 2355.93,95.7874 2356.43,95.3343 C2356.93,94.8812 2357.38,94.2874 2357.83,93.5374 C2358.08,93.0843 2358.23,92.6312 2358.23,92.178 C2358.23,91.8343 2358.13,91.5374 2357.98,91.178 C2357.58,90.428 2356.93,89.7874 2356.02,89.2405 C2355.13,88.678 2354.18,88.178 2353.08,87.7874 C2351.98,87.3812 2350.93,87.1312 2349.88,86.9905 C2349.13,86.8343 2348.52,86.7874 2348.02,86.7874 C2347.77,86.7874 2347.57,86.7874 2347.43,86.8343"/>
<path class="Harmony" d="M179.127,396.671 C178.877,396.717 178.47,396.78 177.83,396.827 C177.173,396.874 176.673,396.967 176.33,397.03 C175.97,397.077 175.47,397.124 174.877,397.217 C174.267,397.327 173.83,397.467 173.423,397.624 C173.017,397.78 172.58,397.967 172.173,398.217 C171.767,398.467 171.423,398.717 171.173,399.077 C170.83,399.421 170.58,399.827 170.377,400.217 C170.173,400.624 170.017,401.124 169.97,401.624 C169.923,401.967 169.923,402.327 169.923,402.671 L169.923,402.967 C169.97,403.327 169.97,403.827 170.017,404.421 C170.08,405.03 170.08,405.53 170.08,405.874 C170.08,411.577 170.22,417.171 170.47,422.733 C170.517,423.03 170.517,423.327 170.517,423.671 C170.47,424.733 170.423,426.124 170.33,427.78 C170.173,429.733 170.08,431.171 170.08,432.124 L170.08,432.421 L170.08,433.28 C170.08,433.53 170.173,433.78 170.22,434.077 C170.267,434.374 170.377,434.624 170.517,434.78 C170.673,434.921 170.83,435.077 171.08,435.233 C171.267,435.327 171.517,435.374 171.83,435.374 L171.97,435.374 C173.72,435.327 175.47,434.983 177.22,434.327 C178.97,433.671 180.627,432.874 182.173,431.827 C183.72,430.78 185.173,429.53 186.58,428.077 C187.97,426.624 189.173,425.124 190.173,423.53 C191.173,421.921 192.017,420.28 192.673,418.53 C193.33,416.78 193.673,415.03 193.767,413.374 C193.83,413.03 193.83,412.624 193.83,412.28 C193.83,411.327 193.72,410.327 193.517,409.327 C193.267,407.921 192.877,406.53 192.33,405.217 C191.767,403.921 191.08,402.717 190.173,401.577 C189.267,400.421 188.267,399.467 187.173,398.671 C186.08,397.874 184.877,397.28 183.47,396.921 C182.58,396.671 181.627,396.577 180.673,396.577 C180.173,396.577 179.673,396.624 179.127,396.671 M176.017,428.983 C176.017,427.53 176.08,425.421 176.127,422.733 C176.173,420.577 176.22,418.53 176.22,416.671 C176.22,416.233 176.173,415.78 176.173,415.327 C176.173,413.124 176.127,410.983 176.017,408.967 C176.017,408.717 175.97,408.28 175.877,407.53 C175.767,406.78 175.627,406.077 175.58,405.421 C175.517,405.124 175.517,404.827 175.517,404.53 C175.517,404.171 175.517,403.874 175.58,403.53 C175.673,402.874 175.877,402.374 176.22,402.124 C176.673,401.78 177.173,401.624 177.72,401.624 C177.877,401.671 178.017,401.671 178.173,401.671 C178.923,401.78 179.72,402.03 180.58,402.467 C181.423,402.921 182.22,403.53 182.97,404.124 C183.72,404.717 184.423,405.327 184.97,405.921 C185.517,406.53 185.97,406.967 186.22,407.421 C187.017,408.717 187.58,410.171 187.877,411.78 C188.017,412.671 188.127,413.577 188.127,414.483 C188.127,415.124 188.08,415.78 188.017,416.421 C187.767,417.983 187.33,419.483 186.673,420.921 C186.017,422.374 185.173,423.671 184.173,424.827 C183.127,425.983 181.923,426.874 180.517,427.624 C179.127,428.374 177.627,428.827 176.017,428.983"/>
<path class="Harmony" d="M829.077,396.874 C827.124,397.124 825.28,397.577 823.468,398.217 C821.671,398.874 820.03,399.78 818.421,400.827 C816.827,401.874 815.374,403.077 814.124,404.421 C812.874,405.78 811.827,407.327 810.921,409.077 C810.03,410.827 809.421,412.671 809.077,414.624 C808.827,415.827 808.718,417.077 808.718,418.327 L808.718,418.671 C808.718,419.874 808.78,421.03 808.921,422.171 C809.077,423.421 809.374,424.671 809.78,425.827 C810.218,427.03 810.718,428.171 811.28,429.233 C811.827,430.28 812.53,431.233 813.327,432.077 C814.124,432.921 815.124,433.624 816.124,434.233 C817.124,434.827 818.28,435.28 819.53,435.53 C820.374,435.671 821.218,435.78 822.077,435.78 C822.53,435.78 823.03,435.78 823.577,435.733 C825.124,435.577 826.577,435.233 827.921,434.733 C829.28,434.233 830.53,433.624 831.577,432.921 C832.624,432.233 833.671,431.327 834.624,430.327 C835.577,429.327 836.483,428.233 837.233,427.124 C837.983,426.03 838.671,424.78 839.421,423.374 C840.577,421.077 841.124,419.124 841.124,417.577 C841.124,416.03 840.577,414.827 839.421,413.983 C838.78,413.421 837.671,413.077 836.233,412.827 C835.171,412.671 834.124,412.577 833.077,412.577 L832.827,412.577 L831.718,412.577 C830.171,412.624 828.718,412.874 827.327,413.327 C825.921,413.78 824.968,414.327 824.468,414.983 C824.327,415.233 824.171,415.421 824.03,415.624 C823.671,416.171 823.468,416.671 823.468,417.124 C823.468,417.78 823.921,418.233 824.78,418.483 C825.468,418.671 826.827,418.78 828.78,418.78 L829.218,418.78 C829.874,418.827 830.374,418.827 830.718,418.827 C832.78,418.827 834.03,419.077 834.421,419.624 C834.577,419.827 834.733,420.124 834.733,420.421 C834.733,420.733 834.671,421.03 834.624,421.327 C834.577,421.624 834.421,421.983 834.28,422.374 C834.124,422.78 833.968,423.077 833.827,423.327 C833.671,423.577 833.53,423.921 833.327,424.327 C833.124,424.733 832.968,424.921 832.921,425.03 C832.671,425.483 832.53,425.827 832.374,426.077 C832.218,426.327 832.03,426.577 831.78,426.921 C831.53,427.28 831.218,427.577 830.968,427.78 C829.921,428.577 828.78,429.124 827.421,429.374 L825.718,429.577 L825.53,429.577 C824.874,429.53 824.171,429.483 823.53,429.327 C822.28,429.077 821.03,428.624 819.874,427.921 C818.718,427.233 817.718,426.374 816.968,425.374 C816.218,424.327 815.53,423.077 815.03,421.671 C814.53,420.28 814.218,418.827 814.124,417.28 C814.077,416.733 814.077,416.233 814.077,415.671 C814.077,414.671 814.124,413.671 814.28,412.733 C814.53,411.28 814.968,409.874 815.671,408.577 C816.374,407.28 817.28,406.217 818.374,405.421 C819.718,404.374 821.374,403.624 823.28,403.124 C824.327,402.827 825.374,402.671 826.374,402.671 C827.077,402.671 827.78,402.78 828.421,402.921 C828.968,403.077 829.53,403.28 830.171,403.577 C830.827,403.874 831.374,404.171 831.874,404.467 C832.374,404.78 832.921,405.077 833.468,405.374 C834.03,405.671 834.577,405.921 835.077,406.03 C835.577,406.124 836.077,406.171 836.577,406.124 C837.077,406.077 837.577,405.827 838.077,405.374 C838.577,404.921 839.03,404.327 839.483,403.577 C839.733,403.124 839.874,402.671 839.874,402.217 C839.874,401.874 839.78,401.577 839.624,401.217 C839.233,400.467 838.577,399.827 837.671,399.28 C836.78,398.717 835.827,398.217 834.733,397.827 C833.624,397.421 832.577,397.171 831.53,397.03 C830.78,396.874 830.171,396.827 829.671,396.827 C829.421,396.827 829.218,396.827 829.077,396.874"/>
<path class="Harmony" d="M1464.87,407.171 C1465.53,408.03 1465.98,409.171 1466.32,410.624 C1466.67,412.077 1466.92,413.483 1467.17,414.921 C1467.42,416.374 1467.57,417.733 1467.62,418.921 L1463.82,418.53 L1459.73,418.921 L1461.82,412.671 L1464.87,407.171 M1463.98,424.78 L1464.98,424.78 L1466.48,424.78 L1466.87,424.78 L1467.32,424.78 C1467.37,424.78 1467.53,424.827 1467.73,424.827 C1467.92,424.827 1468.07,424.827 1468.17,424.874 C1468.28,424.921 1468.37,424.983 1468.53,425.03 C1468.67,425.077 1468.78,425.124 1468.87,425.233 C1468.98,425.327 1469.12,425.374 1469.23,425.483 C1469.48,425.733 1469.73,426.233 1469.92,426.874 C1470.12,427.483 1470.32,428.124 1470.48,428.874 C1470.62,429.624 1470.78,430.374 1470.92,431.233 C1471.07,432.077 1471.28,432.827 1471.48,433.53 C1471.67,434.233 1471.98,434.874 1472.28,435.421 C1472.57,435.983 1472.92,436.327 1473.37,436.53 C1473.57,436.624 1473.82,436.671 1474.12,436.671 C1474.37,436.671 1474.68,436.624 1474.98,436.53 C1475.43,436.374 1475.78,436.171 1476.12,435.983 C1476.48,435.78 1476.73,435.577 1476.93,435.327 C1477.12,435.077 1477.28,434.827 1477.43,434.53 C1477.57,434.233 1477.68,434.03 1477.73,433.78 C1477.78,433.577 1477.78,433.374 1477.78,433.124 L1477.78,432.874 C1477.78,432.53 1477.78,432.171 1477.73,431.921 C1477.68,431.671 1477.57,431.374 1477.48,430.983 C1477.37,430.577 1477.28,430.28 1477.18,430.03 C1477.07,429.78 1477.03,429.421 1476.87,428.983 C1476.73,428.53 1476.57,428.233 1476.53,428.03 C1476.18,427.03 1475.57,425.03 1474.73,422.077 C1474.12,419.921 1473.62,418.124 1473.28,416.733 C1472.62,414.171 1472.07,412.077 1471.67,410.421 C1471.03,407.671 1470.53,405.827 1470.28,404.874 C1470.23,404.671 1470.17,404.374 1470.07,403.967 C1469.98,403.577 1469.92,403.217 1469.87,402.921 C1469.82,402.624 1469.67,402.327 1469.57,401.921 C1469.48,401.53 1469.37,401.124 1469.28,400.827 C1469.17,400.53 1468.98,400.171 1468.82,399.827 C1468.67,399.467 1468.48,399.217 1468.28,398.967 C1468.07,398.717 1467.92,398.53 1467.67,398.327 C1467.42,398.124 1467.17,397.921 1466.87,397.874 C1466.62,397.827 1466.37,397.78 1466.07,397.78 L1465.87,397.78 C1465.53,397.827 1465.12,397.874 1464.67,398.03 C1464.32,398.171 1463.92,398.374 1463.57,398.624 C1463.23,398.874 1462.87,399.077 1462.62,399.327 C1462.37,399.577 1462.12,399.921 1461.87,400.327 C1461.62,400.717 1461.37,401.03 1461.23,401.327 C1461.07,401.624 1460.87,402.03 1460.67,402.53 C1460.48,403.03 1460.28,403.421 1460.17,403.717 C1460.07,404.03 1459.98,404.421 1459.78,404.921 C1459.57,405.421 1459.42,405.78 1459.37,406.03 C1457.92,409.671 1456.48,413.124 1455.03,416.483 C1452.67,421.827 1451.28,425.077 1450.87,426.28 C1450.82,426.483 1450.62,426.827 1450.37,427.374 C1450.12,427.921 1449.82,428.421 1449.57,428.921 C1449.32,429.421 1449.07,430.077 1448.78,430.733 C1448.48,431.374 1448.23,432.03 1448.07,432.577 C1447.87,433.124 1447.78,433.624 1447.78,434.077 C1447.82,434.53 1447.92,434.827 1448.17,435.077 C1448.62,435.421 1449.12,435.624 1449.67,435.624 L1450.03,435.624 C1450.73,435.53 1451.42,435.327 1452.12,434.921 C1452.82,434.53 1453.32,434.077 1453.57,433.624 C1453.87,433.077 1454.17,432.421 1454.42,431.624 C1454.67,430.827 1454.92,430.077 1455.07,429.421 C1455.23,428.78 1455.42,428.077 1455.78,427.327 C1456.12,426.577 1456.53,425.983 1456.98,425.483 L1459.67,424.624 C1459.82,424.577 1460.03,424.624 1460.37,424.624 L1461.82,424.624 C1461.98,424.624 1462.73,424.671 1463.98,424.78"/>
<path class="Harmony" d="M1966.67,396.671 C1966.42,396.717 1966.01,396.78 1965.37,396.827 C1964.71,396.874 1964.21,396.967 1963.87,397.03 C1963.51,397.077 1963.01,397.124 1962.42,397.217 C1961.81,397.327 1961.37,397.467 1960.96,397.624 C1960.56,397.78 1960.12,397.967 1959.71,398.217 C1959.31,398.467 1958.96,398.717 1958.71,399.077 C1958.37,399.421 1958.12,399.827 1957.92,400.217 C1957.71,400.624 1957.56,401.124 1957.51,401.624 C1957.46,401.967 1957.46,402.327 1957.46,402.671 L1957.46,402.967 C1957.51,403.327 1957.51,403.827 1957.56,404.421 C1957.62,405.03 1957.62,405.53 1957.62,405.874 C1957.62,411.577 1957.76,417.171 1958.01,422.733 C1958.06,423.03 1958.06,423.327 1958.06,423.671 C1958.01,424.733 1957.96,426.124 1957.87,427.78 C1957.71,429.733 1957.62,431.171 1957.62,432.124 L1957.62,432.421 L1957.62,433.28 C1957.62,433.53 1957.71,433.78 1957.76,434.077 C1957.81,434.374 1957.92,434.624 1958.06,434.78 C1958.21,434.921 1958.37,435.077 1958.62,435.233 C1958.81,435.327 1959.06,435.374 1959.37,435.374 L1959.51,435.374 C1961.26,435.327 1963.01,434.983 1964.76,434.327 C1966.51,433.671 1968.17,432.874 1969.71,431.827 C1971.26,430.78 1972.71,429.53 1974.12,428.077 C1975.51,426.624 1976.71,425.124 1977.71,423.53 C1978.71,421.921 1979.56,420.28 1980.21,418.53 C1980.87,416.78 1981.21,415.03 1981.31,413.374 C1981.37,413.03 1981.37,412.624 1981.37,412.28 C1981.37,411.327 1981.26,410.327 1981.06,409.327 C1980.81,407.921 1980.42,406.53 1979.87,405.217 C1979.31,403.921 1978.62,402.717 1977.71,401.577 C1976.81,400.421 1975.81,399.467 1974.71,398.671 C1973.62,397.874 1972.42,397.28 1971.01,396.921 C1970.12,396.671 1969.17,396.577 1968.21,396.577 C1967.71,396.577 1967.21,396.624 1966.67,396.671 M1963.56,428.983 C1963.56,427.53 1963.62,425.421 1963.67,422.733 C1963.71,420.577 1963.76,418.53 1963.76,416.671 C1963.76,416.233 1963.71,415.78 1963.71,415.327 C1963.71,413.124 1963.67,410.983 1963.56,408.967 C1963.56,408.717 1963.51,408.28 1963.42,407.53 C1963.31,406.78 1963.17,406.077 1963.12,405.421 C1963.06,405.124 1963.06,404.827 1963.06,404.53 C1963.06,404.171 1963.06,403.874 1963.12,403.53 C1963.21,402.874 1963.42,402.374 1963.76,402.124 C1964.21,401.78 1964.71,401.624 1965.26,401.624 C1965.42,401.671 1965.56,401.671 1965.71,401.671 C1966.46,401.78 1967.26,402.03 1968.12,402.467 C1968.96,402.921 1969.76,403.53 1970.51,404.124 C1971.26,404.717 1971.96,405.327 1972.51,405.921 C1973.06,406.53 1973.51,406.967 1973.76,407.421 C1974.56,408.717 1975.12,410.171 1975.42,411.78 C1975.56,412.671 1975.67,413.577 1975.67,414.483 C1975.67,415.124 1975.62,415.78 1975.56,416.421 C1975.31,417.983 1974.87,419.483 1974.21,420.921 C1973.56,422.374 1972.71,423.671 1971.71,424.827 C1970.67,425.983 1969.46,426.874 1968.06,427.624 C1966.67,428.374 1965.17,428.827 1963.56,428.983"/>
<path class="Harmony" d="M2508.63,396.671 C2508.38,396.717 2507.98,396.78 2507.34,396.827 C2506.68,396.874 2506.18,396.967 2505.84,397.03 C2505.48,397.077 2504.98,397.124 2504.38,397.217 C2503.77,397.327 2503.34,397.467 2502.93,397.624 C2502.52,397.78 2502.09,397.967 2501.68,398.217 C2501.27,398.467 2500.93,398.717 2500.68,399.077 C2500.34,399.421 2500.09,399.827 2499.88,400.217 C2499.68,400.624 2499.52,401.124 2499.48,401.624 C2499.43,401.967 2499.43,402.327 2499.43,402.671 L2499.43,402.967 C2499.48,403.327 2499.48,403.827 2499.52,404.421 C2499.59,405.03 2499.59,405.53 2499.59,405.874 C2499.59,411.577 2499.73,417.171 2499.98,422.733 C2500.02,423.03 2500.02,423.327 2500.02,423.671 C2499.98,424.733 2499.93,426.124 2499.84,427.78 C2499.68,429.733 2499.59,431.171 2499.59,432.124 L2499.59,432.421 L2499.59,433.28 C2499.59,433.53 2499.68,433.78 2499.73,434.077 C2499.77,434.374 2499.88,434.624 2500.02,434.78 C2500.18,434.921 2500.34,435.077 2500.59,435.233 C2500.77,435.327 2501.02,435.374 2501.34,435.374 L2501.48,435.374 C2503.23,435.327 2504.98,434.983 2506.73,434.327 C2508.48,433.671 2510.13,432.874 2511.68,431.827 C2513.23,430.78 2514.68,429.53 2516.09,428.077 C2517.48,426.624 2518.68,425.124 2519.68,423.53 C2520.68,421.921 2521.52,420.28 2522.18,418.53 C2522.84,416.78 2523.18,415.03 2523.27,413.374 C2523.34,413.03 2523.34,412.624 2523.34,412.28 C2523.34,411.327 2523.23,410.327 2523.02,409.327 C2522.77,407.921 2522.38,406.53 2521.84,405.217 C2521.27,403.921 2520.59,402.717 2519.68,401.577 C2518.77,400.421 2517.77,399.467 2516.68,398.671 C2515.59,397.874 2514.38,397.28 2512.98,396.921 C2512.09,396.671 2511.13,396.577 2510.18,396.577 C2509.68,396.577 2509.18,396.624 2508.63,396.671 M2505.52,428.983 C2505.52,427.53 2505.59,425.421 2505.63,422.733 C2505.68,420.577 2505.73,418.53 2505.73,416.671 C2505.73,416.233 2505.68,415.78 2505.68,415.327 C2505.68,413.124 2505.63,410.983 2505.52,408.967 C2505.52,408.717 2505.48,408.28 2505.38,407.53 C2505.27,406.78 2505.13,406.077 2505.09,405.421 C2505.02,405.124 2505.02,404.827 2505.02,404.53 C2505.02,404.171 2505.02,403.874 2505.09,403.53 C2505.18,402.874 2505.38,402.374 2505.73,402.124 C2506.18,401.78 2506.68,401.624 2507.23,401.624 C2507.38,401.671 2507.52,401.671 2507.68,401.671 C2508.43,401.78 2509.23,402.03 2510.09,402.467 C2510.93,402.921 2511.73,403.53 2512.48,404.124 C2513.23,404.717 2513.93,405.327 2514.48,405.921 C2515.02,406.53 2515.48,406.967 2515.73,407.421 C2516.52,408.717 2517.09,410.171 2517.38,411.78 C2517.52,412.671 2517.63,413.577 2517.63,414.483 C2517.63,415.124 2517.59,415.78 2517.52,416.421 C2517.27,417.983 2516.84,419.483 2516.18,420.921 C2515.52,422.374 2514.68,423.671 2513.68,424.827 C2512.63,425.983 2511.43,426.874 2510.02,427.624 C2508.63,428.374 2507.13,428.827 2505.52,428.983"/>
<path class="Harmony" d="M2713.6,396.874 C2711.65,397.124 2709.8,397.577 2707.99,398.217 C2706.19,398.874 2704.55,399.78 2702.94,400.827 C2701.35,401.874 2699.9,403.077 2698.65,404.421 C2697.4,405.78 2696.35,407.327 2695.44,409.077 C2694.55,410.827 2693.94,412.671 2693.6,414.624 C2693.35,415.827 2693.24,417.077 2693.24,418.327 L2693.24,418.671 C2693.24,419.874 2693.3,421.03 2693.44,422.171 C2693.6,423.421 2693.9,424.671 2694.3,425.827 C2694.74,427.03 2695.24,428.171 2695.8,429.233 C2696.35,430.28 2697.05,431.233 2697.85,432.077 C2698.65,432.921 2699.65,433.624 2700.65,434.233 C2701.65,434.827 2702.8,435.28 2704.05,435.53 C2704.9,435.671 2705.74,435.78 2706.6,435.78 C2707.05,435.78 2707.55,435.78 2708.1,435.733 C2709.65,435.577 2711.1,435.233 2712.44,434.733 C2713.8,434.233 2715.05,433.624 2716.1,432.921 C2717.15,432.233 2718.19,431.327 2719.15,430.327 C2720.1,429.327 2721.01,428.233 2721.76,427.124 C2722.51,426.03 2723.19,424.78 2723.94,423.374 C2725.1,421.077 2725.65,419.124 2725.65,417.577 C2725.65,416.03 2725.1,414.827 2723.94,413.983 C2723.3,413.421 2722.19,413.077 2720.76,412.827 C2719.69,412.671 2718.65,412.577 2717.6,412.577 L2717.35,412.577 L2716.24,412.577 C2714.69,412.624 2713.24,412.874 2711.85,413.327 C2710.44,413.78 2709.49,414.327 2708.99,414.983 C2708.85,415.233 2708.69,415.421 2708.55,415.624 C2708.19,416.171 2707.99,416.671 2707.99,417.124 C2707.99,417.78 2708.44,418.233 2709.3,418.483 C2709.99,418.671 2711.35,418.78 2713.3,418.78 L2713.74,418.78 C2714.4,418.827 2714.9,418.827 2715.24,418.827 C2717.3,418.827 2718.55,419.077 2718.94,419.624 C2719.1,419.827 2719.26,420.124 2719.26,420.421 C2719.26,420.733 2719.19,421.03 2719.15,421.327 C2719.1,421.624 2718.94,421.983 2718.8,422.374 C2718.65,422.78 2718.49,423.077 2718.35,423.327 C2718.19,423.577 2718.05,423.921 2717.85,424.327 C2717.65,424.733 2717.49,424.921 2717.44,425.03 C2717.19,425.483 2717.05,425.827 2716.9,426.077 C2716.74,426.327 2716.55,426.577 2716.3,426.921 C2716.05,427.28 2715.74,427.577 2715.49,427.78 C2714.44,428.577 2713.3,429.124 2711.94,429.374 L2710.24,429.577 L2710.05,429.577 C2709.4,429.53 2708.69,429.483 2708.05,429.327 C2706.8,429.077 2705.55,428.624 2704.4,427.921 C2703.24,427.233 2702.24,426.374 2701.49,425.374 C2700.74,424.327 2700.05,423.077 2699.55,421.671 C2699.05,420.28 2698.74,418.827 2698.65,417.28 C2698.6,416.733 2698.6,416.233 2698.6,415.671 C2698.6,414.671 2698.65,413.671 2698.8,412.733 C2699.05,411.28 2699.49,409.874 2700.19,408.577 C2700.9,407.28 2701.8,406.217 2702.9,405.421 C2704.24,404.374 2705.9,403.624 2707.8,403.124 C2708.85,402.827 2709.9,402.671 2710.9,402.671 C2711.6,402.671 2712.3,402.78 2712.94,402.921 C2713.49,403.077 2714.05,403.28 2714.69,403.577 C2715.35,403.874 2715.9,404.171 2716.4,404.467 C2716.9,404.78 2717.44,405.077 2717.99,405.374 C2718.55,405.671 2719.1,405.921 2719.6,406.03 C2720.1,406.124 2720.6,406.171 2721.1,406.124 C2721.6,406.077 2722.1,405.827 2722.6,405.374 C2723.1,404.921 2723.55,404.327 2724.01,403.577 C2724.26,403.124 2724.4,402.671 2724.4,402.217 C2724.4,401.874 2724.3,401.577 2724.15,401.217 C2723.76,400.467 2723.1,399.827 2722.19,399.28 C2721.3,398.717 2720.35,398.217 2719.26,397.827 C2718.15,397.421 2717.1,397.171 2716.05,397.03 C2715.3,396.874 2714.69,396.827 2714.19,396.827 C2713.94,396.827 2713.74,396.827 2713.6,396.874"/>
<path class="Harmony" d="M188.517,714.362 C186.83,714.612 185.127,715.112 183.47,715.909 C181.83,716.706 180.33,717.706 178.97,718.909 C177.627,720.112 176.377,721.456 175.22,723.003 C174.08,724.55 173.173,726.159 172.423,727.8 C171.673,729.456 171.173,731.206 170.877,733.065 C170.72,734.065 170.627,735.065 170.627,736.003 C170.627,736.815 170.673,737.612 170.767,738.362 C171.017,739.909 171.47,741.456 172.173,742.909 C172.877,744.362 173.673,745.706 174.673,746.956 C175.673,748.206 176.923,749.253 178.267,750.206 C179.627,751.159 180.97,751.862 182.423,752.362 C183.767,752.815 185.173,753.065 186.72,753.065 L186.877,753.065 L187.017,753.065 C188.673,753.003 190.267,752.706 191.83,752.112 C192.267,751.956 192.72,751.815 193.173,751.612 C193.627,751.409 194.127,751.159 194.767,750.815 C195.423,750.456 195.97,750.159 196.533,749.815 C197.08,749.456 197.58,749.065 198.08,748.612 C198.58,748.159 198.97,747.659 199.22,747.206 C199.47,746.753 199.627,746.315 199.627,745.753 C199.58,745.206 199.377,744.659 199.033,744.112 C198.877,743.862 198.627,743.706 198.377,743.612 C198.127,743.503 197.83,743.456 197.58,743.503 C197.33,743.565 197.08,743.659 196.783,743.815 C196.47,743.956 196.173,744.112 195.923,744.206 C195.673,744.315 195.423,744.456 195.127,744.659 C194.83,744.862 194.627,745.003 194.47,745.065 C192.72,746.003 191.017,746.503 189.267,746.503 C187.673,746.503 186.127,746.112 184.58,745.315 C183.127,744.565 181.767,743.706 180.58,742.706 C179.377,741.706 178.47,740.612 177.83,739.362 C177.267,738.206 176.83,737.003 176.58,735.753 C176.33,734.612 176.22,733.503 176.22,732.362 L176.22,731.956 C176.22,730.706 176.423,729.456 176.83,728.206 C177.22,726.956 177.72,725.8 178.377,724.8 C179.017,723.8 179.923,722.909 180.97,722.159 C182.017,721.409 183.22,720.909 184.58,720.659 C184.877,720.55 185.22,720.503 185.58,720.503 C185.83,720.55 186.08,720.55 186.33,720.612 C186.97,720.706 187.673,720.862 188.377,721.05 C189.08,721.206 189.767,721.456 190.47,721.8 L192.58,722.706 C193.267,723.003 193.97,723.206 194.627,723.456 C195.267,723.706 195.923,723.8 196.58,723.862 C196.783,723.909 196.97,723.909 197.127,723.909 C197.533,723.862 197.923,723.8 198.283,723.753 C198.783,723.659 199.22,723.362 199.673,722.909 C200.127,722.456 200.533,721.909 200.783,721.159 C200.877,720.8 200.923,720.503 200.923,720.206 C200.97,719.956 200.923,719.706 200.83,719.456 C200.72,719.206 200.58,719.003 200.423,718.8 C200.283,718.55 200.08,718.409 199.83,718.206 C199.58,718.003 199.377,717.8 199.173,717.659 C198.97,717.503 198.673,717.3 198.423,717.159 C195.33,715.206 192.47,714.253 189.83,714.253 C189.377,714.253 188.97,714.3 188.517,714.362"/>
<path class="Harmony" d="M892.709,714.362 C891.022,714.612 889.319,715.112 887.663,715.909 C886.022,716.706 884.522,717.706 883.163,718.909 C881.819,720.112 880.569,721.456 879.413,723.003 C878.272,724.55 877.366,726.159 876.616,727.8 C875.866,729.456 875.366,731.206 875.069,733.065 C874.913,734.065 874.819,735.065 874.819,736.003 C874.819,736.815 874.866,737.612 874.959,738.362 C875.209,739.909 875.663,741.456 876.366,742.909 C877.069,744.362 877.866,745.706 878.866,746.956 C879.866,748.206 881.116,749.253 882.459,750.206 C883.819,751.159 885.163,751.862 886.616,752.362 C887.959,752.815 889.366,753.065 890.913,753.065 L891.069,753.065 L891.209,753.065 C892.866,753.003 894.459,752.706 896.022,752.112 C896.459,751.956 896.913,751.815 897.366,751.612 C897.819,751.409 898.319,751.159 898.959,750.815 C899.616,750.456 900.163,750.159 900.725,749.815 C901.272,749.456 901.772,749.065 902.272,748.612 C902.772,748.159 903.163,747.659 903.413,747.206 C903.663,746.753 903.819,746.315 903.819,745.753 C903.772,745.206 903.569,744.659 903.225,744.112 C903.069,743.862 902.819,743.706 902.569,743.612 C902.319,743.503 902.022,743.456 901.772,743.503 C901.522,743.565 901.272,743.659 900.975,743.815 C900.663,743.956 900.366,744.112 900.116,744.206 C899.866,744.315 899.616,744.456 899.319,744.659 C899.022,744.862 898.819,745.003 898.663,745.065 C896.913,746.003 895.209,746.503 893.459,746.503 C891.866,746.503 890.319,746.112 888.772,745.315 C887.319,744.565 885.959,743.706 884.772,742.706 C883.569,741.706 882.663,740.612 882.022,739.362 C881.459,738.206 881.022,737.003 880.772,735.753 C880.522,734.612 880.413,733.503 880.413,732.362 L880.413,731.956 C880.413,730.706 880.616,729.456 881.022,728.206 C881.413,726.956 881.913,725.8 882.569,724.8 C883.209,723.8 884.116,722.909 885.163,722.159 C886.209,721.409 887.413,720.909 888.772,720.659 C889.069,720.55 889.413,720.503 889.772,720.503 C890.022,720.55 890.272,720.55 890.522,720.612 C891.163,720.706 891.866,720.862 892.569,721.05 C893.272,721.206 893.959,721.456 894.663,721.8 L896.772,722.706 C897.459,723.003 898.163,723.206 898.819,723.456 C899.459,723.706 900.116,723.8 900.772,723.862 C900.975,723.909 901.163,723.909 901.319,723.909 C901.725,723.862 902.116,723.8 902.475,723.753 C902.975,723.659 903.413,723.362 903.866,722.909 C904.319,722.456 904.725,721.909 904.975,721.159 C905.069,720.8 905.116,720.503 905.116,720.206 C905.163,719.956 905.116,719.706 905.022,719.456 C904.913,719.206 904.772,719.003 904.616,718.8 C904.475,718.55 904.272,718.409 904.022,718.206 C903.772,718.003 903.569,717.8 903.366,717.659 C903.163,717.503 902.866,717.3 902.616,717.159 C899.522,715.206 896.663,714.253 894.022,714.253 C893.569,714.253 893.163,714.3 892.709,714.362"/>
<path class="Harmony" d="M1598.51,714.456 C1596.56,714.706 1594.71,715.159 1592.9,715.8 C1591.1,716.456 1589.46,717.362 1587.85,718.409 C1586.26,719.456 1584.81,720.659 1583.56,722.003 C1582.31,723.362 1581.26,724.909 1580.35,726.659 C1579.46,728.409 1578.85,730.253 1578.51,732.206 C1578.26,733.409 1578.15,734.659 1578.15,735.909 L1578.15,736.253 C1578.15,737.456 1578.21,738.612 1578.35,739.753 C1578.51,741.003 1578.81,742.253 1579.21,743.409 C1579.65,744.612 1580.15,745.753 1580.71,746.815 C1581.26,747.862 1581.96,748.815 1582.76,749.659 C1583.56,750.503 1584.56,751.206 1585.56,751.815 C1586.56,752.409 1587.71,752.862 1588.96,753.112 C1589.81,753.253 1590.65,753.362 1591.51,753.362 C1591.96,753.362 1592.46,753.362 1593.01,753.315 C1594.56,753.159 1596.01,752.815 1597.35,752.315 C1598.71,751.815 1599.96,751.206 1601.01,750.503 C1602.06,749.815 1603.1,748.909 1604.06,747.909 C1605.01,746.909 1605.92,745.815 1606.67,744.706 C1607.42,743.612 1608.1,742.362 1608.85,740.956 C1610.01,738.659 1610.56,736.706 1610.56,735.159 C1610.56,733.612 1610.01,732.409 1608.85,731.565 C1608.21,731.003 1607.1,730.659 1605.67,730.409 C1604.6,730.253 1603.56,730.159 1602.51,730.159 L1602.26,730.159 L1601.15,730.159 C1599.6,730.206 1598.15,730.456 1596.76,730.909 C1595.35,731.362 1594.4,731.909 1593.9,732.565 C1593.76,732.815 1593.6,733.003 1593.46,733.206 C1593.1,733.753 1592.9,734.253 1592.9,734.706 C1592.9,735.362 1593.35,735.815 1594.21,736.065 C1594.9,736.253 1596.26,736.362 1598.21,736.362 L1598.65,736.362 C1599.31,736.409 1599.81,736.409 1600.15,736.409 C1602.21,736.409 1603.46,736.659 1603.85,737.206 C1604.01,737.409 1604.17,737.706 1604.17,738.003 C1604.17,738.315 1604.1,738.612 1604.06,738.909 C1604.01,739.206 1603.85,739.565 1603.71,739.956 C1603.56,740.362 1603.4,740.659 1603.26,740.909 C1603.1,741.159 1602.96,741.503 1602.76,741.909 C1602.56,742.315 1602.4,742.503 1602.35,742.612 C1602.1,743.065 1601.96,743.409 1601.81,743.659 C1601.65,743.909 1601.46,744.159 1601.21,744.503 C1600.96,744.862 1600.65,745.159 1600.4,745.362 C1599.35,746.159 1598.21,746.706 1596.85,746.956 L1595.15,747.159 L1594.96,747.159 C1594.31,747.112 1593.6,747.065 1592.96,746.909 C1591.71,746.659 1590.46,746.206 1589.31,745.503 C1588.15,744.815 1587.15,743.956 1586.4,742.956 C1585.65,741.909 1584.96,740.659 1584.46,739.253 C1583.96,737.862 1583.65,736.409 1583.56,734.862 C1583.51,734.315 1583.51,733.815 1583.51,733.253 C1583.51,732.253 1583.56,731.253 1583.71,730.315 C1583.96,728.862 1584.4,727.456 1585.1,726.159 C1585.81,724.862 1586.71,723.8 1587.81,723.003 C1589.15,721.956 1590.81,721.206 1592.71,720.706 C1593.76,720.409 1594.81,720.253 1595.81,720.253 C1596.51,720.253 1597.21,720.362 1597.85,720.503 C1598.4,720.659 1598.96,720.862 1599.6,721.159 C1600.26,721.456 1600.81,721.753 1601.31,722.05 C1601.81,722.362 1602.35,722.659 1602.9,722.956 C1603.46,723.253 1604.01,723.503 1604.51,723.612 C1605.01,723.706 1605.51,723.753 1606.01,723.706 C1606.51,723.659 1607.01,723.409 1607.51,722.956 C1608.01,722.503 1608.46,721.909 1608.92,721.159 C1609.17,720.706 1609.31,720.253 1609.31,719.8 C1609.31,719.456 1609.21,719.159 1609.06,718.8 C1608.67,718.05 1608.01,717.409 1607.1,716.862 C1606.21,716.3 1605.26,715.8 1604.17,715.409 C1603.06,715.003 1602.01,714.753 1600.96,714.612 C1600.21,714.456 1599.6,714.409 1599.1,714.409 C1598.85,714.409 1598.65,714.409 1598.51,714.456"/>
<path class="Harmony" d="M2302.7,714.456 C2300.75,714.706 2298.91,715.159 2297.09,715.8 C2295.3,716.456 2293.66,717.362 2292.05,718.409 C2290.45,719.456 2289,720.659 2287.75,722.003 C2286.5,723.362 2285.45,724.909 2284.55,726.659 C2283.66,728.409 2283.05,730.253 2282.7,732.206 C2282.45,733.409 2282.34,734.659 2282.34,735.909 L2282.34,736.253 C2282.34,737.456 2282.41,738.612 2282.55,739.753 C2282.7,741.003 2283,742.253 2283.41,743.409 C2283.84,744.612 2284.34,745.753 2284.91,746.815 C2285.45,747.862 2286.16,748.815 2286.95,749.659 C2287.75,750.503 2288.75,751.206 2289.75,751.815 C2290.75,752.409 2291.91,752.862 2293.16,753.112 C2294,753.253 2294.84,753.362 2295.7,753.362 C2296.16,753.362 2296.66,753.362 2297.2,753.315 C2298.75,753.159 2300.2,752.815 2301.55,752.315 C2302.91,751.815 2304.16,751.206 2305.2,750.503 C2306.25,749.815 2307.3,748.909 2308.25,747.909 C2309.2,746.909 2310.11,745.815 2310.86,744.706 C2311.61,743.612 2312.3,742.362 2313.05,740.956 C2314.2,738.659 2314.75,736.706 2314.75,735.159 C2314.75,733.612 2314.2,732.409 2313.05,731.565 C2312.41,731.003 2311.3,730.659 2309.86,730.409 C2308.8,730.253 2307.75,730.159 2306.7,730.159 L2306.45,730.159 L2305.34,730.159 C2303.8,730.206 2302.34,730.456 2300.95,730.909 C2299.55,731.362 2298.59,731.909 2298.09,732.565 C2297.95,732.815 2297.8,733.003 2297.66,733.206 C2297.3,733.753 2297.09,734.253 2297.09,734.706 C2297.09,735.362 2297.55,735.815 2298.41,736.065 C2299.09,736.253 2300.45,736.362 2302.41,736.362 L2302.84,736.362 C2303.5,736.409 2304,736.409 2304.34,736.409 C2306.41,736.409 2307.66,736.659 2308.05,737.206 C2308.2,737.409 2308.36,737.706 2308.36,738.003 C2308.36,738.315 2308.3,738.612 2308.25,738.909 C2308.2,739.206 2308.05,739.565 2307.91,739.956 C2307.75,740.362 2307.59,740.659 2307.45,740.909 C2307.3,741.159 2307.16,741.503 2306.95,741.909 C2306.75,742.315 2306.59,742.503 2306.55,742.612 C2306.3,743.065 2306.16,743.409 2306,743.659 C2305.84,743.909 2305.66,744.159 2305.41,744.503 C2305.16,744.862 2304.84,745.159 2304.59,745.362 C2303.55,746.159 2302.41,746.706 2301.05,746.956 L2299.34,747.159 L2299.16,747.159 C2298.5,747.112 2297.8,747.065 2297.16,746.909 C2295.91,746.659 2294.66,746.206 2293.5,745.503 C2292.34,744.815 2291.34,743.956 2290.59,742.956 C2289.84,741.909 2289.16,740.659 2288.66,739.253 C2288.16,737.862 2287.84,736.409 2287.75,734.862 C2287.7,734.315 2287.7,733.815 2287.7,733.253 C2287.7,732.253 2287.75,731.253 2287.91,730.315 C2288.16,728.862 2288.59,727.456 2289.3,726.159 C2290,724.862 2290.91,723.8 2292,723.003 C2293.34,721.956 2295,721.206 2296.91,720.706 C2297.95,720.409 2299,720.253 2300,720.253 C2300.7,720.253 2301.41,720.362 2302.05,720.503 C2302.59,720.659 2303.16,720.862 2303.8,721.159 C2304.45,721.456 2305,721.753 2305.5,722.05 C2306,722.362 2306.55,722.659 2307.09,722.956 C2307.66,723.253 2308.2,723.503 2308.7,723.612 C2309.2,723.706 2309.7,723.753 2310.2,723.706 C2310.7,723.659 2311.2,723.409 2311.7,722.956 C2312.2,722.503 2312.66,721.909 2313.11,721.159 C2313.36,720.706 2313.5,720.253 2313.5,719.8 C2313.5,719.456 2313.41,719.159 2313.25,718.8 C2312.86,718.05 2312.2,717.409 2311.3,716.862 C2310.41,716.3 2309.45,715.8 2308.36,715.409 C2307.25,715.003 2306.2,714.753 2305.16,714.612 C2304.41,714.456 2303.8,714.409 2303.3,714.409 C2303.05,714.409 2302.84,714.409 2302.7,714.456"/>
<path class="Harmony" d="M179.127,1024.29 C178.877,1024.34 178.47,1024.4 177.83,1024.45 C177.173,1024.5 176.673,1024.59 176.33,1024.65 C175.97,1024.7 175.47,1024.75 174.877,1024.84 C174.267,1024.95 173.83,1025.09 173.423,1025.25 C173.017,1025.4 172.58,1025.59 172.173,1025.84 C171.767,1026.09 171.423,1026.34 171.173,1026.7 C170.83,1027.04 170.58,1027.45 170.377,1027.84 C170.173,1028.25 170.017,1028.75 169.97,1029.25 C169.923,1029.59 169.923,1029.95 169.923,1030.29 L169.923,1030.59 C169.97,1030.95 169.97,1031.45 170.017,1032.04 C170.08,1032.65 170.08,1033.15 170.08,1033.5 C170.08,1039.2 170.22,1044.79 170.47,1050.35 C170.517,1050.65 170.517,1050.95 170.517,1051.29 C170.47,1052.35 170.423,1053.75 170.33,1055.4 C170.173,1057.35 170.08,1058.79 170.08,1059.75 L170.08,1060.04 L170.08,1060.9 C170.08,1061.15 170.173,1061.4 170.22,1061.7 C170.267,1062 170.377,1062.25 170.517,1062.4 C170.673,1062.54 170.83,1062.7 171.08,1062.85 C171.267,1062.95 171.517,1063 171.83,1063 L171.97,1063 C173.72,1062.95 175.47,1062.6 177.22,1061.95 C178.97,1061.29 180.627,1060.5 182.173,1059.45 C183.72,1058.4 185.173,1057.15 186.58,1055.7 C187.97,1054.25 189.173,1052.75 190.173,1051.15 C191.173,1049.54 192.017,1047.9 192.673,1046.15 C193.33,1044.4 193.673,1042.65 193.767,1041 C193.83,1040.65 193.83,1040.25 193.83,1039.9 C193.83,1038.95 193.72,1037.95 193.517,1036.95 C193.267,1035.54 192.877,1034.15 192.33,1032.84 C191.767,1031.54 191.08,1030.34 190.173,1029.2 C189.267,1028.04 188.267,1027.09 187.173,1026.29 C186.08,1025.5 184.877,1024.9 183.47,1024.54 C182.58,1024.29 181.627,1024.2 180.673,1024.2 C180.173,1024.2 179.673,1024.25 179.127,1024.29 M176.017,1056.6 C176.017,1055.15 176.08,1053.04 176.127,1050.35 C176.173,1048.2 176.22,1046.15 176.22,1044.29 C176.22,1043.85 176.173,1043.4 176.173,1042.95 C176.173,1040.75 176.127,1038.6 176.017,1036.59 C176.017,1036.34 175.97,1035.9 175.877,1035.15 C175.767,1034.4 175.627,1033.7 175.58,1033.04 C175.517,1032.75 175.517,1032.45 175.517,1032.15 C175.517,1031.79 175.517,1031.5 175.58,1031.15 C175.673,1030.5 175.877,1030 176.22,1029.75 C176.673,1029.4 177.173,1029.25 177.72,1029.25 C177.877,1029.29 178.017,1029.29 178.173,1029.29 C178.923,1029.4 179.72,1029.65 180.58,1030.09 C181.423,1030.54 182.22,1031.15 182.97,1031.75 C183.72,1032.34 184.423,1032.95 184.97,1033.54 C185.517,1034.15 185.97,1034.59 186.22,1035.04 C187.017,1036.34 187.58,1037.79 187.877,1039.4 C188.017,1040.29 188.127,1041.2 188.127,1042.1 C188.127,1042.75 188.08,1043.4 188.017,1044.04 C187.767,1045.6 187.33,1047.1 186.673,1048.54 C186.017,1050 185.173,1051.29 184.173,1052.45 C183.127,1053.6 181.923,1054.5 180.517,1055.25 C179.127,1056 177.627,1056.45 176.017,1056.6"/>
<path class="Harmony" d="M860.657,1024.29 C860.407,1024.34 860.001,1024.4 859.36,1024.45 C858.704,1024.5 858.204,1024.59 857.86,1024.65 C857.501,1024.7 857.001,1024.75 856.407,1024.84 C855.798,1024.95 855.36,1025.09 854.954,1025.25 C854.548,1025.4 854.11,1025.59 853.704,1025.84 C853.298,1026.09 852.954,1026.34 852.704,1026.7 C852.36,1027.04 852.11,1027.45 851.907,1027.84 C851.704,1028.25 851.548,1028.75 851.501,1029.25 C851.454,1029.59 851.454,1029.95 851.454,1030.29 L851.454,1030.59 C851.501,1030.95 851.501,1031.45 851.548,1032.04 C851.61,1032.65 851.61,1033.15 851.61,1033.5 C851.61,1039.2 851.751,1044.79 852.001,1050.35 C852.048,1050.65 852.048,1050.95 852.048,1051.29 C852.001,1052.35 851.954,1053.75 851.86,1055.4 C851.704,1057.35 851.61,1058.79 851.61,1059.75 L851.61,1060.04 L851.61,1060.9 C851.61,1061.15 851.704,1061.4 851.751,1061.7 C851.798,1062 851.907,1062.25 852.048,1062.4 C852.204,1062.54 852.36,1062.7 852.61,1062.85 C852.798,1062.95 853.048,1063 853.36,1063 L853.501,1063 C855.251,1062.95 857.001,1062.6 858.751,1061.95 C860.501,1061.29 862.157,1060.5 863.704,1059.45 C865.251,1058.4 866.704,1057.15 868.11,1055.7 C869.501,1054.25 870.704,1052.75 871.704,1051.15 C872.704,1049.54 873.548,1047.9 874.204,1046.15 C874.86,1044.4 875.204,1042.65 875.298,1041 C875.36,1040.65 875.36,1040.25 875.36,1039.9 C875.36,1038.95 875.251,1037.95 875.048,1036.95 C874.798,1035.54 874.407,1034.15 873.86,1032.84 C873.298,1031.54 872.61,1030.34 871.704,1029.2 C870.798,1028.04 869.798,1027.09 868.704,1026.29 C867.61,1025.5 866.407,1024.9 865.001,1024.54 C864.11,1024.29 863.157,1024.2 862.204,1024.2 C861.704,1024.2 861.204,1024.25 860.657,1024.29 M857.548,1056.6 C857.548,1055.15 857.61,1053.04 857.657,1050.35 C857.704,1048.2 857.751,1046.15 857.751,1044.29 C857.751,1043.85 857.704,1043.4 857.704,1042.95 C857.704,1040.75 857.657,1038.6 857.548,1036.59 C857.548,1036.34 857.501,1035.9 857.407,1035.15 C857.298,1034.4 857.157,1033.7 857.11,1033.04 C857.048,1032.75 857.048,1032.45 857.048,1032.15 C857.048,1031.79 857.048,1031.5 857.11,1031.15 C857.204,1030.5 857.407,1030 857.751,1029.75 C858.204,1029.4 858.704,1029.25 859.251,1029.25 C859.407,1029.29 859.548,1029.29 859.704,1029.29 C860.454,1029.4 861.251,1029.65 862.11,1030.09 C862.954,1030.54 863.751,1031.15 864.501,1031.75 C865.251,1032.34 865.954,1032.95 866.501,1033.54 C867.048,1034.15 867.501,1034.59 867.751,1035.04 C868.548,1036.34 869.11,1037.79 869.407,1039.4 C869.548,1040.29 869.657,1041.2 869.657,1042.1 C869.657,1042.75 869.61,1043.4 869.548,1044.04 C869.298,1045.6 868.86,1047.1 868.204,1048.54 C867.548,1050 866.704,1051.29 865.704,1052.45 C864.657,1053.6 863.454,1054.5 862.048,1055.25 C860.657,1056 859.157,1056.45 857.548,1056.6"/>
<path class="Harmony" d="M1569.31,1024.5 C1567.36,1024.75 1565.51,1025.2 1563.7,1025.84 C1561.9,1026.5 1560.26,1027.4 1558.65,1028.45 C1557.06,1029.5 1555.61,1030.7 1554.36,1032.04 C1553.11,1033.4 1552.06,1034.95 1551.15,1036.7 C1550.26,1038.45 1549.65,1040.29 1549.31,1042.25 C1549.06,1043.45 1548.95,1044.7 1548.95,1045.95 L1548.95,1046.29 C1548.95,1047.5 1549.01,1048.65 1549.15,1049.79 C1549.31,1051.04 1549.61,1052.29 1550.01,1053.45 C1550.45,1054.65 1550.95,1055.79 1551.51,1056.85 C1552.06,1057.9 1552.76,1058.85 1553.56,1059.7 C1554.36,1060.54 1555.36,1061.25 1556.36,1061.85 C1557.36,1062.45 1558.51,1062.9 1559.76,1063.15 C1560.61,1063.29 1561.45,1063.4 1562.31,1063.4 C1562.76,1063.4 1563.26,1063.4 1563.81,1063.35 C1565.36,1063.2 1566.81,1062.85 1568.15,1062.35 C1569.51,1061.85 1570.76,1061.25 1571.81,1060.54 C1572.86,1059.85 1573.9,1058.95 1574.86,1057.95 C1575.81,1056.95 1576.72,1055.85 1577.47,1054.75 C1578.22,1053.65 1578.9,1052.4 1579.65,1051 C1580.81,1048.7 1581.36,1046.75 1581.36,1045.2 C1581.36,1043.65 1580.81,1042.45 1579.65,1041.6 C1579.01,1041.04 1577.9,1040.7 1576.47,1040.45 C1575.4,1040.29 1574.36,1040.2 1573.31,1040.2 L1573.06,1040.2 L1571.95,1040.2 C1570.4,1040.25 1568.95,1040.5 1567.56,1040.95 C1566.15,1041.4 1565.2,1041.95 1564.7,1042.6 C1564.56,1042.85 1564.4,1043.04 1564.26,1043.25 C1563.9,1043.79 1563.7,1044.29 1563.7,1044.75 C1563.7,1045.4 1564.15,1045.85 1565.01,1046.1 C1565.7,1046.29 1567.06,1046.4 1569.01,1046.4 L1569.45,1046.4 C1570.11,1046.45 1570.61,1046.45 1570.95,1046.45 C1573.01,1046.45 1574.26,1046.7 1574.65,1047.25 C1574.81,1047.45 1574.97,1047.75 1574.97,1048.04 C1574.97,1048.35 1574.9,1048.65 1574.86,1048.95 C1574.81,1049.25 1574.65,1049.6 1574.51,1050 C1574.36,1050.4 1574.2,1050.7 1574.06,1050.95 C1573.9,1051.2 1573.76,1051.54 1573.56,1051.95 C1573.36,1052.35 1573.2,1052.54 1573.15,1052.65 C1572.9,1053.1 1572.76,1053.45 1572.61,1053.7 C1572.45,1053.95 1572.26,1054.2 1572.01,1054.54 C1571.76,1054.9 1571.45,1055.2 1571.2,1055.4 C1570.15,1056.2 1569.01,1056.75 1567.65,1057 L1565.95,1057.2 L1565.76,1057.2 C1565.11,1057.15 1564.4,1057.1 1563.76,1056.95 C1562.51,1056.7 1561.26,1056.25 1560.11,1055.54 C1558.95,1054.85 1557.95,1054 1557.2,1053 C1556.45,1051.95 1555.76,1050.7 1555.26,1049.29 C1554.76,1047.9 1554.45,1046.45 1554.36,1044.9 C1554.31,1044.35 1554.31,1043.85 1554.31,1043.29 C1554.31,1042.29 1554.36,1041.29 1554.51,1040.35 C1554.76,1038.9 1555.2,1037.5 1555.9,1036.2 C1556.61,1034.9 1557.51,1033.84 1558.61,1033.04 C1559.95,1032 1561.61,1031.25 1563.51,1030.75 C1564.56,1030.45 1565.61,1030.29 1566.61,1030.29 C1567.31,1030.29 1568.01,1030.4 1568.65,1030.54 C1569.2,1030.7 1569.76,1030.9 1570.4,1031.2 C1571.06,1031.5 1571.61,1031.79 1572.11,1032.09 C1572.61,1032.4 1573.15,1032.7 1573.7,1033 C1574.26,1033.29 1574.81,1033.54 1575.31,1033.65 C1575.81,1033.75 1576.31,1033.79 1576.81,1033.75 C1577.31,1033.7 1577.81,1033.45 1578.31,1033 C1578.81,1032.54 1579.26,1031.95 1579.72,1031.2 C1579.97,1030.75 1580.11,1030.29 1580.11,1029.84 C1580.11,1029.5 1580.01,1029.2 1579.86,1028.84 C1579.47,1028.09 1578.81,1027.45 1577.9,1026.9 C1577.01,1026.34 1576.06,1025.84 1574.97,1025.45 C1573.86,1025.04 1572.81,1024.79 1571.76,1024.65 C1571.01,1024.5 1570.4,1024.45 1569.9,1024.45 C1569.65,1024.45 1569.45,1024.45 1569.31,1024.5"/>
<path class="Harmony" d="M2266.96,1024.5 C2265.01,1024.75 2263.17,1025.2 2261.35,1025.84 C2259.56,1026.5 2257.92,1027.4 2256.31,1028.45 C2254.71,1029.5 2253.26,1030.7 2252.01,1032.04 C2250.76,1033.4 2249.71,1034.95 2248.81,1036.7 C2247.92,1038.45 2247.31,1040.29 2246.96,1042.25 C2246.71,1043.45 2246.6,1044.7 2246.6,1045.95 L2246.6,1046.29 C2246.6,1047.5 2246.67,1048.65 2246.81,1049.79 C2246.96,1051.04 2247.26,1052.29 2247.67,1053.45 C2248.1,1054.65 2248.6,1055.79 2249.17,1056.85 C2249.71,1057.9 2250.42,1058.85 2251.21,1059.7 C2252.01,1060.54 2253.01,1061.25 2254.01,1061.85 C2255.01,1062.45 2256.17,1062.9 2257.42,1063.15 C2258.26,1063.29 2259.1,1063.4 2259.96,1063.4 C2260.42,1063.4 2260.92,1063.4 2261.46,1063.35 C2263.01,1063.2 2264.46,1062.85 2265.81,1062.35 C2267.17,1061.85 2268.42,1061.25 2269.46,1060.54 C2270.51,1059.85 2271.56,1058.95 2272.51,1057.95 C2273.46,1056.95 2274.37,1055.85 2275.12,1054.75 C2275.87,1053.65 2276.56,1052.4 2277.31,1051 C2278.46,1048.7 2279.01,1046.75 2279.01,1045.2 C2279.01,1043.65 2278.46,1042.45 2277.31,1041.6 C2276.67,1041.04 2275.56,1040.7 2274.12,1040.45 C2273.06,1040.29 2272.01,1040.2 2270.96,1040.2 L2270.71,1040.2 L2269.6,1040.2 C2268.06,1040.25 2266.6,1040.5 2265.21,1040.95 C2263.81,1041.4 2262.85,1041.95 2262.35,1042.6 C2262.21,1042.85 2262.06,1043.04 2261.92,1043.25 C2261.56,1043.79 2261.35,1044.29 2261.35,1044.75 C2261.35,1045.4 2261.81,1045.85 2262.67,1046.1 C2263.35,1046.29 2264.71,1046.4 2266.67,1046.4 L2267.1,1046.4 C2267.76,1046.45 2268.26,1046.45 2268.6,1046.45 C2270.67,1046.45 2271.92,1046.7 2272.31,1047.25 C2272.46,1047.45 2272.62,1047.75 2272.62,1048.04 C2272.62,1048.35 2272.56,1048.65 2272.51,1048.95 C2272.46,1049.25 2272.31,1049.6 2272.17,1050 C2272.01,1050.4 2271.85,1050.7 2271.71,1050.95 C2271.56,1051.2 2271.42,1051.54 2271.21,1051.95 C2271.01,1052.35 2270.85,1052.54 2270.81,1052.65 C2270.56,1053.1 2270.42,1053.45 2270.26,1053.7 C2270.1,1053.95 2269.92,1054.2 2269.67,1054.54 C2269.42,1054.9 2269.1,1055.2 2268.85,1055.4 C2267.81,1056.2 2266.67,1056.75 2265.31,1057 L2263.6,1057.2 L2263.42,1057.2 C2262.76,1057.15 2262.06,1057.1 2261.42,1056.95 C2260.17,1056.7 2258.92,1056.25 2257.76,1055.54 C2256.6,1054.85 2255.6,1054 2254.85,1053 C2254.1,1051.95 2253.42,1050.7 2252.92,1049.29 C2252.42,1047.9 2252.1,1046.45 2252.01,1044.9 C2251.96,1044.35 2251.96,1043.85 2251.96,1043.29 C2251.96,1042.29 2252.01,1041.29 2252.17,1040.35 C2252.42,1038.9 2252.85,1037.5 2253.56,1036.2 C2254.26,1034.9 2255.17,1033.84 2256.26,1033.04 C2257.6,1032 2259.26,1031.25 2261.17,1030.75 C2262.21,1030.45 2263.26,1030.29 2264.26,1030.29 C2264.96,1030.29 2265.67,1030.4 2266.31,1030.54 C2266.85,1030.7 2267.42,1030.9 2268.06,1031.2 C2268.71,1031.5 2269.26,1031.79 2269.76,1032.09 C2270.26,1032.4 2270.81,1032.7 2271.35,1033 C2271.92,1033.29 2272.46,1033.54 2272.96,1033.65 C2273.46,1033.75 2273.96,1033.79 2274.46,1033.75 C2274.96,1033.7 2275.46,1033.45 2275.96,1033 C2276.46,1032.54 2276.92,1031.95 2277.37,1031.2 C2277.62,1030.75 2277.76,1030.29 2277.76,1029.84 C2277.76,1029.5 2277.67,1029.2 2277.51,1028.84 C2277.12,1028.09 2276.46,1027.45 2275.56,1026.9 C2274.67,1026.34 2273.71,1025.84 2272.62,1025.45 C2271.51,1025.04 2270.46,1024.79 2269.42,1024.65 C2268.67,1024.5 2268.06,1024.45 2267.56,1024.45 C2267.31,1024.45 2267.1,1024.45 2266.96,1024.5"/>
<path class="VoltaSegment" d="M1935.92,331.086 L1934,331.086 C1930.53,333.68 1926.62,334.774 1920.07,334.883 L1920.07,337.961 L1922.39,337.961 C1927.28,337.961 1927.34,338.071 1927.28,342.586 L1927.28,362.102 C1927.28,365.508 1927.28,365.68 1926.9,366.227 C1926.4,366.836 1925.29,367.055 1922.32,367.055 L1920.57,367.055 L1920.57,370.024 L1942.51,370.024 L1942.51,367.055 L1940.75,367.055 C1937.84,367.055 1936.79,366.836 1936.29,366.227 C1935.92,365.68 1935.92,365.461 1935.92,362.102 L1935.92,331.086 M1955.15,360.508 C1952.29,360.508 1949.98,362.821 1949.98,365.68 C1949.98,368.477 1952.29,370.852 1955.11,370.852 C1958.01,370.852 1960.32,368.539 1960.32,365.68 C1960.32,362.821 1958.01,360.508 1955.15,360.508"/>
<polyline class="VoltaSegment" fill="none" stroke="#000000" stroke-width="2.73" stroke-linecap="square" stroke-linejoin="bevel" points="1904.63,370.024 1904.63,315.457"/>
<polyline class="VoltaSegment" fill="none" stroke="#000000" stroke-width="2.73" stroke-linecap="square" stroke-linejoin="bevel" points="1904.63,315.457 2444.36,315.457"/>
<polyline class="VoltaSegment" fill="none" stroke="#000000" stroke-width="2.73" stroke-linecap="square" stroke-linejoin="bevel" points="2444.36,315.457 2444.36,370.024"/>
<path class="VoltaSegment" d="M2486.71,355.399 L2486.1,358.149 C2485.6,360.352 2485.28,361.055 2484.84,361.336 C2484.29,361.727 2484.18,361.727 2480.71,361.774 L2470.1,361.774 C2472.03,360.117 2473.46,359.086 2475.6,357.649 C2483.35,352.649 2484.95,351.43 2486.54,349.399 C2488.42,346.93 2489.51,344.008 2489.51,341.43 C2489.51,335.539 2483.74,331.086 2475.99,331.086 C2468.51,331.086 2462.73,335.93 2462.73,342.196 C2462.73,346.039 2464.89,348.524 2468.18,348.524 C2471.04,348.524 2472.85,346.711 2472.85,343.852 C2472.85,341.477 2471.81,340.102 2469.28,338.899 C2468.67,338.617 2468.4,338.289 2468.4,337.852 C2468.4,336.086 2471.37,334.227 2474.12,334.227 C2477.96,334.227 2480.17,336.586 2480.17,340.664 C2480.17,345.227 2478.4,348.461 2472.57,354.68 C2466.42,361.227 2464.28,363.696 2461.53,367.664 L2461.53,370.242 C2462.95,370.086 2463.56,370.024 2464.39,370.024 L2485.06,370.024 C2486.1,370.024 2486.76,370.086 2488.42,370.242 L2489.68,355.399 L2486.71,355.399 M2500.12,360.508 C2497.26,360.508 2494.95,362.821 2494.95,365.68 C2494.95,368.477 2497.26,370.852 2500.07,370.852 C2502.98,370.852 2505.29,368.539 2505.29,365.68 C2505.29,362.821 2502.98,360.508 2500.12,360.508"/>
<polyline class="VoltaSegment" fill="none" stroke="#000000" stroke-width="2.73" stroke-linecap="square" stroke-linejoin="bevel" points="2446.6,370.024 2446.6,315.457"/>
<polyline class="VoltaSegment" fill="none" stroke="#000000" stroke-width="2.73" stroke-linecap="square" stroke-linejoin="bevel" points="2446.6,315.457 2917.03,315.457"/>
<polyline class="VoltaSegment" fill="none" stroke="#000000" stroke-width="2.73" stroke-linecap="square" stroke-linejoin="bevel" points="2917.03,315.457 2917.03,370.024"/>
</svg>
