<?xml version="1.0" encoding="UTF-8" standalone="no"?>
<svg width="2976.38px" height="1559.06px" viewBox="0 0 2976.38 1559.06"
 xmlns="http://www.w3.org/2000/svg" xmlns:xlink="http://www.w3.org/1999/xlink" version="1.2" baseProfile="tiny">
<title>Redwing_G</title>
<desc>Generated by MuseScore 3.6.2</desc>
<polyline class="StaffLines" fill="none" stroke="#000000" stroke-width="2.73" stroke-linejoin="bevel" points="138.189,187.795 2933.86,187.795"/>
<polyline class="StaffLines" fill="none" stroke="#000000" stroke-width="2.73" stroke-linejoin="bevel" points="138.189,212.598 2933.86,212.598"/>
<polyline class="StaffLines" fill="none" stroke="#000000" stroke-width="2.73" stroke-linejoin="bevel" points="138.189,237.402 2933.86,237.402"/>
<polyline class="StaffLines" fill="none" stroke="#000000" stroke-width="2.73" stroke-linejoin="bevel" points="138.189,262.205 2933.86,262.205"/>
<polyline class="StaffLines" fill="none" stroke="#000000" stroke-width="2.73" stroke-linejoin="bevel" points="138.189,287.008 2933.86,287.008"/>
<polyline class="StaffLines" fill="none" stroke="#000000" stroke-width="2.73" stroke-linejoin="bevel" points="14.1732,519.516 2933.86,519.516"/>
<polyline class="StaffLines" fill="none" stroke="#000000" stroke-width="2.73" stroke-linejoin="bevel" points="14.1732,544.319 2933.86,544.319"/>
<polyline class="StaffLines" fill="none" stroke="#000000" stroke-width="2.73" stroke-linejoin="bevel" points="14.1732,569.122 2933.86,569.122"/>
<polyline class="StaffLines" fill="none" stroke="#000000" stroke-width="2.73" stroke-linejoin="bevel" points="14.1732,593.925 2933.86,593.925"/>
<polyline class="StaffLines" fill="none" stroke="#000000" stroke-width="2.73" stroke-linejoin="bevel" points="14.1732,618.728 2933.86,618.728"/>
<polyline class="StaffLines" fill="none" stroke="#000000" stroke-width="2.73" stroke-linejoin="bevel" points="14.1732,851.236 2933.86,851.236"/>
<polyline class="StaffLines" fill="none" stroke="#000000" stroke-width="2.73" stroke-linejoin="bevel" points="14.1732,876.039 2933.86,876.039"/>
<polyline class="StaffLines" fill="none" stroke="#000000" stroke-width="2.73" stroke-linejoin="bevel" points="14.1732,900.843 2933.86,900.843"/>
<polyline class="StaffLines" fill="none" stroke="#000000" stroke-width="2.73" stroke-linejoin="bevel" points="14.1732,925.646 2933.86,925.646"/>
<polyline class="StaffLines" fill="none" stroke="#000000" stroke-width="2.73" stroke-linejoin="bevel" points="14.1732,950.449 2933.86,950.449"/>
<polyline class="StaffLines" fill="none" stroke="#000000" stroke-width="2.73" stroke-linejoin="bevel" points="14.1732,1182.96 2933.86,1182.96"/>
<polyline class="StaffLines" fill="none" stroke="#000000" stroke-width="2.73" stroke-linejoin="bevel" points="14.1732,1207.76 2933.86,1207.76"/>
<polyline class="StaffLines" fill="none" stroke="#000000" stroke-width="2.73" stroke-linejoin="bevel" points="14.1732,1232.56 2933.86,1232.56"/>
<polyline class="StaffLines" fill="none" stroke="#000000" stroke-width="2.73" stroke-linejoin="bevel" points="14.1732,1257.37 2933.86,1257.37"/>
<polyline class="StaffLines" fill="none" stroke="#000000" stroke-width="2.73" stroke-linejoin="bevel" points="14.1732,1282.17 2933.86,1282.17"/>
<polyline class="BarLine" fill="none" stroke="#000000" stroke-width="4.46" stroke-linejoin="bevel" points="953.226,186.431 953.226,288.372"/>
<polyline class="BarLine" fill="none" stroke="#000000" stroke-width="4.46" stroke-linejoin="bevel" points="1612.69,186.431 1612.69,288.372"/>
<polyline class="BarLine" fill="none" stroke="#000000" stroke-width="4.46" stroke-linejoin="bevel" points="2272.16,186.431 2272.16,288.372"/>
<polyline class="BarLine" fill="none" stroke="#000000" stroke-width="4.46" stroke-linejoin="bevel" points="2931.63,186.431 2931.63,288.372"/>
<polyline class="BarLine" fill="none" stroke="#000000" stroke-width="4.46" stroke-linejoin="bevel" points="753.809,518.152 753.809,620.093"/>
<polyline class="BarLine" fill="none" stroke="#000000" stroke-width="4.46" stroke-linejoin="bevel" points="1392.76,518.152 1392.76,620.093"/>
<polyline class="BarLine" fill="none" stroke="#000000" stroke-width="4.46" stroke-linejoin="bevel" points="1902.4,518.152 1902.4,620.093"/>
<polyline class="BarLine" fill="none" stroke="#000000" stroke-width="4.46" stroke-linejoin="bevel" points="2444.36,518.152 2444.36,620.093"/>
<path class="BarLine" transform="matrix(0.992126,0,0,0.992126,2887.12,556.72)" d="M10.4063,0 C10.4063,-2.90625 8.09375,-5.29688 5.20313,-5.29688 C2.29688,-5.29688 0,-2.90625 0,0 C0,2.90625 2.29688,5.29688 5.20313,5.29688 C8.09375,5.29688 10.4063,2.90625 10.4063,0"/>
<path class="BarLine" transform="matrix(0.992126,0,0,0.992126,2887.12,581.524)" d="M10.4063,0 C10.4063,-2.90625 8.09375,-5.29688 5.20313,-5.29688 C2.29688,-5.29688 0,-2.90625 0,0 C0,2.90625 2.29688,5.29688 5.20313,5.29688 C8.09375,5.29688 10.4063,2.90625 10.4063,0"/>
<polyline class="BarLine" fill="none" stroke="#000000" stroke-width="4.46" stroke-linejoin="bevel" points="2909.64,518.152 2909.64,620.093"/>
<polyline class="BarLine" fill="none" stroke="#000000" stroke-width="13.64" stroke-linejoin="bevel" points="2927,518.152 2927,620.093"/>
<polyline class="BarLine" fill="none" stroke="#000000" stroke-width="4.46" stroke-linejoin="bevel" points="819.051,849.872 819.051,951.813"/>
<polyline class="BarLine" fill="none" stroke="#000000" stroke-width="4.46" stroke-linejoin="bevel" points="1523.24,849.872 1523.24,951.813"/>
<polyline class="BarLine" fill="none" stroke="#000000" stroke-width="4.46" stroke-linejoin="bevel" points="2227.44,849.872 2227.44,951.813"/>
<polyline class="BarLine" fill="none" stroke="#000000" stroke-width="4.46" stroke-linejoin="bevel" points="2931.63,849.872 2931.63,951.813"/>
<polyline class="BarLine" fill="none" stroke="#000000" stroke-width="4.46" stroke-linejoin="bevel" points="812.511,1181.59 812.511,1283.53"/>
<polyline class="BarLine" fill="none" stroke="#000000" stroke-width="4.46" stroke-linejoin="bevel" points="1494.04,1181.59 1494.04,1283.53"/>
<polyline class="BarLine" fill="none" stroke="#000000" stroke-width="4.46" stroke-linejoin="bevel" points="2191.69,1181.59 2191.69,1283.53"/>
<path class="BarLine" transform="matrix(0.992126,0,0,0.992126,2887.12,1220.16)" d="M10.4063,0 C10.4063,-2.90625 8.09375,-5.29688 5.20313,-5.29688 C2.29688,-5.29688 0,-2.90625 0,0 C0,2.90625 2.29688,5.29688 5.20313,5.29688 C8.09375,5.29688 10.4063,2.90625 10.4063,0"/>
<path class="BarLine" transform="matrix(0.992126,0,0,0.992126,2887.12,1244.96)" d="M10.4063,0 C10.4063,-2.90625 8.09375,-5.29688 5.20313,-5.29688 C2.29688,-5.29688 0,-2.90625 0,0 C0,2.90625 2.29688,5.29688 5.20313,5.29688 C8.09375,5.29688 10.4063,2.90625 10.4063,0"/>
<polyline class="BarLine" fill="none" stroke="#000000" stroke-width="4.46" stroke-linejoin="bevel" points="2909.64,1181.59 2909.64,1283.53"/>
<polyline class="BarLine" fill="none" stroke="#000000" stroke-width="13.64" stroke-linejoin="bevel" points="2927,1181.59 2927,1283.53"/>
<path class="Note" transform="matrix(0.992126,0,0,0.992126,338.405,237.402)" d="M43,-25 L0,25 L10,25 L53,-25 L43,-25 "/>
<path class="Note" transform="matrix(0.992126,0,0,0.992126,489.01,237.402)" d="M43,-25 L0,25 L10,25 L53,-25 L43,-25 "/>
<path class="Note" transform="matrix(0.992126,0,0,0.992126,639.615,237.402)" d="M43,-25 L0,25 L10,25 L53,-25 L43,-25 "/>
<path class="Note" transform="matrix(0.992126,0,0,0.992126,790.22,237.402)" d="M43,-25 L0,25 L10,25 L53,-25 L43,-25 "/>
<path class="Note" transform="matrix(0.992126,0,0,0.992126,997.872,237.402)" d="M43,-25 L0,25 L10,25 L53,-25 L43,-25 "/>
<path class="Note" transform="matrix(0.992126,0,0,0.992126,1148.48,237.402)" d="M43,-25 L0,25 L10,25 L53,-25 L43,-25 "/>
<path class="Note" transform="matrix(0.992126,0,0,0.992126,1299.08,237.402)" d="M43,-25 L0,25 L10,25 L53,-25 L43,-25 "/>
<path class="Note" transform="matrix(0.992126,0,0,0.992126,1449.69,237.402)" d="M43,-25 L0,25 L10,25 L53,-25 L43,-25 "/>
<path class="Note" transform="matrix(0.992126,0,0,0.992126,1657.34,237.402)" d="M43,-25 L0,25 L10,25 L53,-25 L43,-25 "/>
<path class="Note" transform="matrix(0.992126,0,0,0.992126,1807.94,237.402)" d="M43,-25 L0,25 L10,25 L53,-25 L43,-25 "/>
<path class="Note" transform="matrix(0.992126,0,0,0.992126,1958.55,237.402)" d="M43,-25 L0,25 L10,25 L53,-25 L43,-25 "/>
<path class="Note" transform="matrix(0.992126,0,0,0.992126,2109.15,237.402)" d="M43,-25 L0,25 L10,25 L53,-25 L43,-25 "/>
<path class="Note" transform="matrix(0.992126,0,0,0.992126,2316.81,237.402)" d="M43,-25 L0,25 L10,25 L53,-25 L43,-25 "/>
<path class="Note" transform="matrix(0.992126,0,0,0.992126,2467.41,237.402)" d="M43,-25 L0,25 L10,25 L53,-25 L43,-25 "/>
<path class="Note" transform="matrix(0.992126,0,0,0.992126,2618.02,237.402)" d="M43,-25 L0,25 L10,25 L53,-25 L43,-25 "/>
<path class="Note" transform="matrix(0.992126,0,0,0.992126,2768.62,237.402)" d="M43,-25 L0,25 L10,25 L53,-25 L43,-25 "/>
<path class="Note" transform="matrix(0.992126,0,0,0.992126,159.504,569.122)" d="M43,-25 L0,25 L10,25 L53,-25 L43,-25 "/>
<path class="Note" transform="matrix(0.992126,0,0,0.992126,304.98,569.122)" d="M43,-25 L0,25 L10,25 L53,-25 L43,-25 "/>
<path class="Note" transform="matrix(0.992126,0,0,0.992126,450.456,569.122)" d="M43,-25 L0,25 L10,25 L53,-25 L43,-25 "/>
<path class="Note" transform="matrix(0.992126,0,0,0.992126,595.932,569.122)" d="M43,-25 L0,25 L10,25 L53,-25 L43,-25 "/>
<path class="Note" transform="matrix(0.992126,0,0,0.992126,798.455,569.122)" d="M43,-25 L0,25 L10,25 L53,-25 L43,-25 "/>
<path class="Note" transform="matrix(0.992126,0,0,0.992126,943.93,569.122)" d="M43,-25 L0,25 L10,25 L53,-25 L43,-25 "/>
<path class="Note" transform="matrix(0.992126,0,0,0.992126,1089.41,569.122)" d="M43,-25 L0,25 L10,25 L53,-25 L43,-25 "/>
<path class="Note" transform="matrix(0.992126,0,0,0.992126,1234.88,569.122)" d="M43,-25 L0,25 L10,25 L53,-25 L43,-25 "/>
<path class="Note" transform="matrix(0.992126,0,0,0.992126,1437.41,569.122)" d="M43,-25 L0,25 L10,25 L53,-25 L43,-25 "/>
<path class="Note" transform="matrix(0.992126,0,0,0.992126,1550.55,569.122)" d="M43,-25 L0,25 L10,25 L53,-25 L43,-25 "/>
<path class="Note" transform="matrix(0.992126,0,0,0.992126,1663.7,569.122)" d="M43,-25 L0,25 L10,25 L53,-25 L43,-25 "/>
<path class="Note" transform="matrix(0.992126,0,0,0.992126,1776.85,569.122)" d="M43,-25 L0,25 L10,25 L53,-25 L43,-25 "/>
<path class="Note" transform="matrix(0.992126,0,0,0.992126,1947.04,569.122)" d="M43,-25 L0,25 L10,25 L53,-25 L43,-25 "/>
<path class="Note" transform="matrix(0.992126,0,0,0.992126,2068.27,569.122)" d="M43,-25 L0,25 L10,25 L53,-25 L43,-25 "/>
<path class="Note" transform="matrix(0.992126,0,0,0.992126,2189.5,569.122)" d="M43,-25 L0,25 L10,25 L53,-25 L43,-25 "/>
<path class="Note" transform="matrix(0.992126,0,0,0.992126,2310.73,569.122)" d="M43,-25 L0,25 L10,25 L53,-25 L43,-25 "/>
<path class="Note" transform="matrix(0.992126,0,0,0.992126,2489.01,569.122)" d="M43,-25 L0,25 L10,25 L53,-25 L43,-25 "/>
<path class="Note" transform="matrix(0.992126,0,0,0.992126,2585.99,569.122)" d="M43,-25 L0,25 L10,25 L53,-25 L43,-25 "/>
<path class="Note" transform="matrix(0.992126,0,0,0.992126,2682.98,569.122)" d="M43,-25 L0,25 L10,25 L53,-25 L43,-25 "/>
<path class="Note" transform="matrix(0.992126,0,0,0.992126,2779.96,569.122)" d="M43,-25 L0,25 L10,25 L53,-25 L43,-25 "/>
<path class="Note" transform="matrix(0.992126,0,0,0.992126,159.504,900.843)" d="M43,-25 L0,25 L10,25 L53,-25 L43,-25 "/>
<path class="Note" transform="matrix(0.992126,0,0,0.992126,321.29,900.843)" d="M43,-25 L0,25 L10,25 L53,-25 L43,-25 "/>
<path class="Note" transform="matrix(0.992126,0,0,0.992126,483.077,900.843)" d="M43,-25 L0,25 L10,25 L53,-25 L43,-25 "/>
<path class="Note" transform="matrix(0.992126,0,0,0.992126,644.863,900.843)" d="M43,-25 L0,25 L10,25 L53,-25 L43,-25 "/>
<path class="Note" transform="matrix(0.992126,0,0,0.992126,863.696,900.843)" d="M43,-25 L0,25 L10,25 L53,-25 L43,-25 "/>
<path class="Note" transform="matrix(0.992126,0,0,0.992126,1025.48,900.843)" d="M43,-25 L0,25 L10,25 L53,-25 L43,-25 "/>
<path class="Note" transform="matrix(0.992126,0,0,0.992126,1187.27,900.843)" d="M43,-25 L0,25 L10,25 L53,-25 L43,-25 "/>
<path class="Note" transform="matrix(0.992126,0,0,0.992126,1349.06,900.843)" d="M43,-25 L0,25 L10,25 L53,-25 L43,-25 "/>
<path class="Note" transform="matrix(0.992126,0,0,0.992126,1567.89,900.843)" d="M43,-25 L0,25 L10,25 L53,-25 L43,-25 "/>
<path class="Note" transform="matrix(0.992126,0,0,0.992126,1729.67,900.843)" d="M43,-25 L0,25 L10,25 L53,-25 L43,-25 "/>
<path class="Note" transform="matrix(0.992126,0,0,0.992126,1891.46,900.843)" d="M43,-25 L0,25 L10,25 L53,-25 L43,-25 "/>
<path class="Note" transform="matrix(0.992126,0,0,0.992126,2053.25,900.843)" d="M43,-25 L0,25 L10,25 L53,-25 L43,-25 "/>
<path class="Note" transform="matrix(0.992126,0,0,0.992126,2272.08,900.843)" d="M43,-25 L0,25 L10,25 L53,-25 L43,-25 "/>
<path class="Note" transform="matrix(0.992126,0,0,0.992126,2433.87,900.843)" d="M43,-25 L0,25 L10,25 L53,-25 L43,-25 "/>
<path class="Note" transform="matrix(0.992126,0,0,0.992126,2595.65,900.843)" d="M43,-25 L0,25 L10,25 L53,-25 L43,-25 "/>
<path class="Note" transform="matrix(0.992126,0,0,0.992126,2757.44,900.843)" d="M43,-25 L0,25 L10,25 L53,-25 L43,-25 "/>
<path class="Note" transform="matrix(0.992126,0,0,0.992126,159.504,1232.56)" d="M43,-25 L0,25 L10,25 L53,-25 L43,-25 "/>
<path class="Note" transform="matrix(0.992126,0,0,0.992126,319.656,1232.56)" d="M43,-25 L0,25 L10,25 L53,-25 L43,-25 "/>
<path class="Note" transform="matrix(0.992126,0,0,0.992126,479.807,1232.56)" d="M43,-25 L0,25 L10,25 L53,-25 L43,-25 "/>
<path class="Note" transform="matrix(0.992126,0,0,0.992126,639.958,1232.56)" d="M43,-25 L0,25 L10,25 L53,-25 L43,-25 "/>
<path class="Note" transform="matrix(0.992126,0,0,0.992126,841.035,1232.56)" d="M43,-25 L0,25 L10,25 L53,-25 L43,-25 "/>
<path class="Note" transform="matrix(0.992126,0,0,0.992126,1001.19,1232.56)" d="M43,-25 L0,25 L10,25 L53,-25 L43,-25 "/>
<path class="Note" transform="matrix(0.992126,0,0,0.992126,1161.34,1232.56)" d="M43,-25 L0,25 L10,25 L53,-25 L43,-25 "/>
<path class="Note" transform="matrix(0.992126,0,0,0.992126,1321.49,1232.56)" d="M43,-25 L0,25 L10,25 L53,-25 L43,-25 "/>
<path class="Note" transform="matrix(0.992126,0,0,0.992126,1538.69,1232.56)" d="M43,-25 L0,25 L10,25 L53,-25 L43,-25 "/>
<path class="Note" transform="matrix(0.992126,0,0,0.992126,1698.84,1232.56)" d="M43,-25 L0,25 L10,25 L53,-25 L43,-25 "/>
<path class="Note" transform="matrix(0.992126,0,0,0.992126,1858.99,1232.56)" d="M43,-25 L0,25 L10,25 L53,-25 L43,-25 "/>
<path class="Note" transform="matrix(0.992126,0,0,0.992126,2019.14,1232.56)" d="M43,-25 L0,25 L10,25 L53,-25 L43,-25 "/>
<path class="Note" transform="matrix(0.992126,0,0,0.992126,2236.34,1232.56)" d="M43,-25 L0,25 L10,25 L53,-25 L43,-25 "/>
<path class="Note" transform="matrix(0.992126,0,0,0.992126,2396.49,1232.56)" d="M43,-25 L0,25 L10,25 L53,-25 L43,-25 "/>
<path class="Note" transform="matrix(0.992126,0,0,0.992126,2556.64,1232.56)" d="M43,-25 L0,25 L10,25 L53,-25 L43,-25 "/>
<path class="Note" transform="matrix(0.992126,0,0,0.992126,2716.79,1232.56)" d="M43,-25 L0,25 L10,25 L53,-25 L43,-25 "/>
<path class="Clef" transform="matrix(0.992126,0,0,0.992126,158.032,262.205)" d="M63.3594,-5.92188 C62.125,-11.3438 59.4844,-15.1719 58.7031,-16.2031 C55.5156,-20.4844 51.5,-23.3281 46.8125,-24.6875 C43.7031,-25.5625 40.7031,-25.6875 38.2813,-25.5 C37.2344,-31.5156 36.2344,-37.3906 35.3281,-42.8438 C40.7813,-49.0156 44.4063,-54.8125 46.6875,-59.1094 C50.1563,-65.6875 51.2969,-70.2656 51.3594,-70.4688 C53.0781,-75.6875 53.4375,-83.3906 52.3281,-91.5938 C51.3281,-99.1406 49.2344,-105.859 46.875,-109.109 C45.8594,-110.531 44.7969,-111.266 43.7656,-111.266 C42.5469,-111.266 40.0313,-110.031 37.1406,-107.25 C34.8438,-105.063 31.5781,-101.172 29.0156,-95.1563 C26.0156,-88.0938 25.7969,-78.6094 26.1563,-71.8906 C26.5313,-64.6094 27.6406,-58.9219 27.6563,-58.875 C27.6719,-58.7813 27.9375,-57.2813 28.375,-54.7188 C28.1563,-54.4844 27.9063,-54.2656 27.6563,-54.0156 C26.625,-53.0156 25.4375,-51.8906 24.0469,-50.5 C23.1875,-49.6406 22.2344,-48.7344 21.2344,-47.7656 C12.7969,-39.625 0,-27.2969 0,-8.14063 C0,-3.4375 0.90625,0.984375 2.6875,5 C4.26563,8.59375 6.5625,11.875 9.5,14.75 C17.2344,22.3125 27.8281,25.5156 34.875,25.3594 C37.8281,25.2813 40.4688,25.0469 42.8594,24.5938 C44.6875,34.2031 45.8281,41.2344 45.8594,46.5781 C45.9063,53.0938 44.25,57.0781 40.3594,59.8438 C37.9219,61.5781 35.1094,62.5313 32.0156,62.6719 C29.4219,62.7969 27.1563,62.3281 25.7344,61.9219 L25.7188,61.9219 C25.7188,61.9219 25.4375,61.8281 25.4219,61.6406 C25.4063,61.4531 25.7656,61.4063 25.7656,61.4063 L25.7969,61.4063 C27.7188,60.9688 31.2813,59.7344 33.6406,56.4375 C35.4375,53.9063 36.3125,49.2813 34.4688,45.3438 C33.3594,42.9531 30.8594,40 25.2344,39.5469 C22.7344,39.3438 20.4688,39.8594 18.4688,41.0625 C16.6563,42.1406 15.1563,43.7813 14.1094,45.7813 C11.6563,50.4844 12.1094,56.2188 15.2344,60.0625 C18.2031,63.6875 22.8125,66 28.25,66.5781 C29.1094,66.6719 29.9531,66.7031 30.7969,66.7031 C35.2344,66.7031 39.625,65.5 43.2031,63.2969 C46.8594,60.7188 48.9844,56.7344 49.6563,51.1094 C50.2188,46.4688 49.8281,40.5469 48.4375,32.4688 C48.0781,30.375 47.5313,27.3438 46.875,23.5938 C52.625,21.6719 56.7813,18.0938 60.5469,12.2344 C63.8438,6.5 64.7813,0.390625 63.3594,-5.92188 M29.1406,20.2969 C24.5,19.0781 20.0625,16.5781 16.3125,13.0625 C15,11.8438 13.125,9.67188 11.6563,6.28125 C10.2969,3.10938 9.625,-0.328125 9.6875,-3.90625 C9.75,-8.60938 11.0625,-13.4375 13.5625,-18.2188 C16.4844,-23.7969 21.0469,-29.3281 27.1094,-34.6563 C28.5625,-35.9375 29.9375,-37.2188 31.2188,-38.5 C31.9844,-34.2344 32.8125,-29.5469 33.6875,-24.6719 C29.8438,-23.4063 25.0938,-20.25 21.9844,-14.5938 C18.4375,-8.03125 18.5781,-2.5 19.3125,0.984375 C20.25,5.4375 22.7813,9.20313 26.2344,11.2969 C27.1719,11.8594 31.2969,13.9844 33.1406,13.4063 C33.5156,13.2969 33.7813,13.0625 33.9219,12.7344 C34.4375,11.5625 33.4063,10.9219 31.8594,9.96875 C31.25,9.59375 30.5781,9.17188 29.8594,8.64063 C26.5313,6.15625 25.0781,1.70313 26.1563,-2.6875 C26.7344,-5.07813 28.0156,-7.25 29.8594,-8.95313 C31.5156,-10.5 33.5625,-11.5938 35.9375,-12.2344 C37.9844,-0.984375 40.0469,10.1719 41.6875,18.5313 C41.8125,19.2188 41.9531,19.8906 42.0781,20.5625 C37.7031,21.5 33.3594,21.4063 29.1406,20.2969 M40.4688,-12.9063 C50.8125,-13.375 55.0781,-5.9375 55.9688,-1.10938 C56.4375,1.4375 56.4375,5.875 54.8906,10.0938 C53.7188,13.2656 51.2656,17.3438 46.125,19.4063 C46.0625,18.9844 45.9844,18.5469 45.9063,18.125 C44.3594,9.34375 42.4219,-1.65625 40.4688,-12.9063 M33.1406,-83.8594 C34.9219,-89.5938 37.6563,-92.8438 39.6563,-94.5781 C41.4063,-96.0938 43.0469,-96.8125 43.9688,-96.8125 C44.1094,-96.8125 44.2344,-96.7813 44.3281,-96.75 C44.7969,-96.6094 45.3281,-96.0469 45.7969,-95.1719 C48.1094,-90.8906 47.3594,-84.1719 46.0156,-79.7344 C44.3906,-74.3281 41.4688,-68.7188 32.6719,-59.1094 C32.5,-60.2188 32.3438,-61.2656 32.1875,-62.25 C30.9375,-70.5313 31.2656,-77.8125 33.1406,-83.8594"/>
<path class="Clef" transform="matrix(0.992126,0,0,0.992126,34.0158,593.925)" d="M63.3594,-5.92188 C62.125,-11.3438 59.4844,-15.1719 58.7031,-16.2031 C55.5156,-20.4844 51.5,-23.3281 46.8125,-24.6875 C43.7031,-25.5625 40.7031,-25.6875 38.2813,-25.5 C37.2344,-31.5156 36.2344,-37.3906 35.3281,-42.8438 C40.7813,-49.0156 44.4063,-54.8125 46.6875,-59.1094 C50.1563,-65.6875 51.2969,-70.2656 51.3594,-70.4688 C53.0781,-75.6875 53.4375,-83.3906 52.3281,-91.5938 C51.3281,-99.1406 49.2344,-105.859 46.875,-109.109 C45.8594,-110.531 44.7969,-111.266 43.7656,-111.266 C42.5469,-111.266 40.0313,-110.031 37.1406,-107.25 C34.8438,-105.063 31.5781,-101.172 29.0156,-95.1563 C26.0156,-88.0938 25.7969,-78.6094 26.1563,-71.8906 C26.5313,-64.6094 27.6406,-58.9219 27.6563,-58.875 C27.6719,-58.7813 27.9375,-57.2813 28.375,-54.7188 C28.1563,-54.4844 27.9063,-54.2656 27.6563,-54.0156 C26.625,-53.0156 25.4375,-51.8906 24.0469,-50.5 C23.1875,-49.6406 22.2344,-48.7344 21.2344,-47.7656 C12.7969,-39.625 0,-27.2969 0,-8.14063 C0,-3.4375 0.90625,0.984375 2.6875,5 C4.26563,8.59375 6.5625,11.875 9.5,14.75 C17.2344,22.3125 27.8281,25.5156 34.875,25.3594 C37.8281,25.2813 40.4688,25.0469 42.8594,24.5938 C44.6875,34.2031 45.8281,41.2344 45.8594,46.5781 C45.9063,53.0938 44.25,57.0781 40.3594,59.8438 C37.9219,61.5781 35.1094,62.5313 32.0156,62.6719 C29.4219,62.7969 27.1563,62.3281 25.7344,61.9219 L25.7188,61.9219 C25.7188,61.9219 25.4375,61.8281 25.4219,61.6406 C25.4063,61.4531 25.7656,61.4063 25.7656,61.4063 L25.7969,61.4063 C27.7188,60.9688 31.2813,59.7344 33.6406,56.4375 C35.4375,53.9063 36.3125,49.2813 34.4688,45.3438 C33.3594,42.9531 30.8594,40 25.2344,39.5469 C22.7344,39.3438 20.4688,39.8594 18.4688,41.0625 C16.6563,42.1406 15.1563,43.7813 14.1094,45.7813 C11.6563,50.4844 12.1094,56.2188 15.2344,60.0625 C18.2031,63.6875 22.8125,66 28.25,66.5781 C29.1094,66.6719 29.9531,66.7031 30.7969,66.7031 C35.2344,66.7031 39.625,65.5 43.2031,63.2969 C46.8594,60.7188 48.9844,56.7344 49.6563,51.1094 C50.2188,46.4688 49.8281,40.5469 48.4375,32.4688 C48.0781,30.375 47.5313,27.3438 46.875,23.5938 C52.625,21.6719 56.7813,18.0938 60.5469,12.2344 C63.8438,6.5 64.7813,0.390625 63.3594,-5.92188 M29.1406,20.2969 C24.5,19.0781 20.0625,16.5781 16.3125,13.0625 C15,11.8438 13.125,9.67188 11.6563,6.28125 C10.2969,3.10938 9.625,-0.328125 9.6875,-3.90625 C9.75,-8.60938 11.0625,-13.4375 13.5625,-18.2188 C16.4844,-23.7969 21.0469,-29.3281 27.1094,-34.6563 C28.5625,-35.9375 29.9375,-37.2188 31.2188,-38.5 C31.9844,-34.2344 32.8125,-29.5469 33.6875,-24.6719 C29.8438,-23.4063 25.0938,-20.25 21.9844,-14.5938 C18.4375,-8.03125 18.5781,-2.5 19.3125,0.984375 C20.25,5.4375 22.7813,9.20313 26.2344,11.2969 C27.1719,11.8594 31.2969,13.9844 33.1406,13.4063 C33.5156,13.2969 33.7813,13.0625 33.9219,12.7344 C34.4375,11.5625 33.4063,10.9219 31.8594,9.96875 C31.25,9.59375 30.5781,9.17188 29.8594,8.64063 C26.5313,6.15625 25.0781,1.70313 26.1563,-2.6875 C26.7344,-5.07813 28.0156,-7.25 29.8594,-8.95313 C31.5156,-10.5 33.5625,-11.5938 35.9375,-12.2344 C37.9844,-0.984375 40.0469,10.1719 41.6875,18.5313 C41.8125,19.2188 41.9531,19.8906 42.0781,20.5625 C37.7031,21.5 33.3594,21.4063 29.1406,20.2969 M40.4688,-12.9063 C50.8125,-13.375 55.0781,-5.9375 55.9688,-1.10938 C56.4375,1.4375 56.4375,5.875 54.8906,10.0938 C53.7188,13.2656 51.2656,17.3438 46.125,19.4063 C46.0625,18.9844 45.9844,18.5469 45.9063,18.125 C44.3594,9.34375 42.4219,-1.65625 40.4688,-12.9063 M33.1406,-83.8594 C34.9219,-89.5938 37.6563,-92.8438 39.6563,-94.5781 C41.4063,-96.0938 43.0469,-96.8125 43.9688,-96.8125 C44.1094,-96.8125 44.2344,-96.7813 44.3281,-96.75 C44.7969,-96.6094 45.3281,-96.0469 45.7969,-95.1719 C48.1094,-90.8906 47.3594,-84.1719 46.0156,-79.7344 C44.3906,-74.3281 41.4688,-68.7188 32.6719,-59.1094 C32.5,-60.2188 32.3438,-61.2656 32.1875,-62.25 C30.9375,-70.5313 31.2656,-77.8125 33.1406,-83.8594"/>
<path class="Clef" transform="matrix(0.992126,0,0,0.992126,34.0158,925.646)" d="M63.3594,-5.92188 C62.125,-11.3438 59.4844,-15.1719 58.7031,-16.2031 C55.5156,-20.4844 51.5,-23.3281 46.8125,-24.6875 C43.7031,-25.5625 40.7031,-25.6875 38.2813,-25.5 C37.2344,-31.5156 36.2344,-37.3906 35.3281,-42.8438 C40.7813,-49.0156 44.4063,-54.8125 46.6875,-59.1094 C50.1563,-65.6875 51.2969,-70.2656 51.3594,-70.4688 C53.0781,-75.6875 53.4375,-83.3906 52.3281,-91.5938 C51.3281,-99.1406 49.2344,-105.859 46.875,-109.109 C45.8594,-110.531 44.7969,-111.266 43.7656,-111.266 C42.5469,-111.266 40.0313,-110.031 37.1406,-107.25 C34.8438,-105.063 31.5781,-101.172 29.0156,-95.1563 C26.0156,-88.0938 25.7969,-78.6094 26.1563,-71.8906 C26.5313,-64.6094 27.6406,-58.9219 27.6563,-58.875 C27.6719,-58.7813 27.9375,-57.2813 28.375,-54.7188 C28.1563,-54.4844 27.9063,-54.2656 27.6563,-54.0156 C26.625,-53.0156 25.4375,-51.8906 24.0469,-50.5 C23.1875,-49.6406 22.2344,-48.7344 21.2344,-47.7656 C12.7969,-39.625 0,-27.2969 0,-8.14063 C0,-3.4375 0.90625,0.984375 2.6875,5 C4.26563,8.59375 6.5625,11.875 9.5,14.75 C17.2344,22.3125 27.8281,25.5156 34.875,25.3594 C37.8281,25.2813 40.4688,25.0469 42.8594,24.5938 C44.6875,34.2031 45.8281,41.2344 45.8594,46.5781 C45.9063,53.0938 44.25,57.0781 40.3594,59.8438 C37.9219,61.5781 35.1094,62.5313 32.0156,62.6719 C29.4219,62.7969 27.1563,62.3281 25.7344,61.9219 L25.7188,61.9219 C25.7188,61.9219 25.4375,61.8281 25.4219,61.6406 C25.4063,61.4531 25.7656,61.4063 25.7656,61.4063 L25.7969,61.4063 C27.7188,60.9688 31.2813,59.7344 33.6406,56.4375 C35.4375,53.9063 36.3125,49.2813 34.4688,45.3438 C33.3594,42.9531 30.8594,40 25.2344,39.5469 C22.7344,39.3438 20.4688,39.8594 18.4688,41.0625 C16.6563,42.1406 15.1563,43.7813 14.1094,45.7813 C11.6563,50.4844 12.1094,56.2188 15.2344,60.0625 C18.2031,63.6875 22.8125,66 28.25,66.5781 C29.1094,66.6719 29.9531,66.7031 30.7969,66.7031 C35.2344,66.7031 39.625,65.5 43.2031,63.2969 C46.8594,60.7188 48.9844,56.7344 49.6563,51.1094 C50.2188,46.4688 49.8281,40.5469 48.4375,32.4688 C48.0781,30.375 47.5313,27.3438 46.875,23.5938 C52.625,21.6719 56.7813,18.0938 60.5469,12.2344 C63.8438,6.5 64.7813,0.390625 63.3594,-5.92188 M29.1406,20.2969 C24.5,19.0781 20.0625,16.5781 16.3125,13.0625 C15,11.8438 13.125,9.67188 11.6563,6.28125 C10.2969,3.10938 9.625,-0.328125 9.6875,-3.90625 C9.75,-8.60938 11.0625,-13.4375 13.5625,-18.2188 C16.4844,-23.7969 21.0469,-29.3281 27.1094,-34.6563 C28.5625,-35.9375 29.9375,-37.2188 31.2188,-38.5 C31.9844,-34.2344 32.8125,-29.5469 33.6875,-24.6719 C29.8438,-23.4063 25.0938,-20.25 21.9844,-14.5938 C18.4375,-8.03125 18.5781,-2.5 19.3125,0.984375 C20.25,5.4375 22.7813,9.20313 26.2344,11.2969 C27.1719,11.8594 31.2969,13.9844 33.1406,13.4063 C33.5156,13.2969 33.7813,13.0625 33.9219,12.7344 C34.4375,11.5625 33.4063,10.9219 31.8594,9.96875 C31.25,9.59375 30.5781,9.17188 29.8594,8.64063 C26.5313,6.15625 25.0781,1.70313 26.1563,-2.6875 C26.7344,-5.07813 28.0156,-7.25 29.8594,-8.95313 C31.5156,-10.5 33.5625,-11.5938 35.9375,-12.2344 C37.9844,-0.984375 40.0469,10.1719 41.6875,18.5313 C41.8125,19.2188 41.9531,19.8906 42.0781,20.5625 C37.7031,21.5 33.3594,21.4063 29.1406,20.2969 M40.4688,-12.9063 C50.8125,-13.375 55.0781,-5.9375 55.9688,-1.10938 C56.4375,1.4375 56.4375,5.875 54.8906,10.0938 C53.7188,13.2656 51.2656,17.3438 46.125,19.4063 C46.0625,18.9844 45.9844,18.5469 45.9063,18.125 C44.3594,9.34375 42.4219,-1.65625 40.4688,-12.9063 M33.1406,-83.8594 C34.9219,-89.5938 37.6563,-92.8438 39.6563,-94.5781 C41.4063,-96.0938 43.0469,-96.8125 43.9688,-96.8125 C44.1094,-96.8125 44.2344,-96.7813 44.3281,-96.75 C44.7969,-96.6094 45.3281,-96.0469 45.7969,-95.1719 C48.1094,-90.8906 47.3594,-84.1719 46.0156,-79.7344 C44.3906,-74.3281 41.4688,-68.7188 32.6719,-59.1094 C32.5,-60.2188 32.3438,-61.2656 32.1875,-62.25 C30.9375,-70.5313 31.2656,-77.8125 33.1406,-83.8594"/>
<path class="Clef" transform="matrix(0.992126,0,0,0.992126,34.0158,1257.37)" d="M63.3594,-5.92188 C62.125,-11.3438 59.4844,-15.1719 58.7031,-16.2031 C55.5156,-20.4844 51.5,-23.3281 46.8125,-24.6875 C43.7031,-25.5625 40.7031,-25.6875 38.2813,-25.5 C37.2344,-31.5156 36.2344,-37.3906 35.3281,-42.8438 C40.7813,-49.0156 44.4063,-54.8125 46.6875,-59.1094 C50.1563,-65.6875 51.2969,-70.2656 51.3594,-70.4688 C53.0781,-75.6875 53.4375,-83.3906 52.3281,-91.5938 C51.3281,-99.1406 49.2344,-105.859 46.875,-109.109 C45.8594,-110.531 44.7969,-111.266 43.7656,-111.266 C42.5469,-111.266 40.0313,-110.031 37.1406,-107.25 C34.8438,-105.063 31.5781,-101.172 29.0156,-95.1563 C26.0156,-88.0938 25.7969,-78.6094 26.1563,-71.8906 C26.5313,-64.6094 27.6406,-58.9219 27.6563,-58.875 C27.6719,-58.7813 27.9375,-57.2813 28.375,-54.7188 C28.1563,-54.4844 27.9063,-54.2656 27.6563,-54.0156 C26.625,-53.0156 25.4375,-51.8906 24.0469,-50.5 C23.1875,-49.6406 22.2344,-48.7344 21.2344,-47.7656 C12.7969,-39.625 0,-27.2969 0,-8.14063 C0,-3.4375 0.90625,0.984375 2.6875,5 C4.26563,8.59375 6.5625,11.875 9.5,14.75 C17.2344,22.3125 27.8281,25.5156 34.875,25.3594 C37.8281,25.2813 40.4688,25.0469 42.8594,24.5938 C44.6875,34.2031 45.8281,41.2344 45.8594,46.5781 C45.9063,53.0938 44.25,57.0781 40.3594,59.8438 C37.9219,61.5781 35.1094,62.5313 32.0156,62.6719 C29.4219,62.7969 27.1563,62.3281 25.7344,61.9219 L25.7188,61.9219 C25.7188,61.9219 25.4375,61.8281 25.4219,61.6406 C25.4063,61.4531 25.7656,61.4063 25.7656,61.4063 L25.7969,61.4063 C27.7188,60.9688 31.2813,59.7344 33.6406,56.4375 C35.4375,53.9063 36.3125,49.2813 34.4688,45.3438 C33.3594,42.9531 30.8594,40 25.2344,39.5469 C22.7344,39.3438 20.4688,39.8594 18.4688,41.0625 C16.6563,42.1406 15.1563,43.7813 14.1094,45.7813 C11.6563,50.4844 12.1094,56.2188 15.2344,60.0625 C18.2031,63.6875 22.8125,66 28.25,66.5781 C29.1094,66.6719 29.9531,66.7031 30.7969,66.7031 C35.2344,66.7031 39.625,65.5 43.2031,63.2969 C46.8594,60.7188 48.9844,56.7344 49.6563,51.1094 C50.2188,46.4688 49.8281,40.5469 48.4375,32.4688 C48.0781,30.375 47.5313,27.3438 46.875,23.5938 C52.625,21.6719 56.7813,18.0938 60.5469,12.2344 C63.8438,6.5 64.7813,0.390625 63.3594,-5.92188 M29.1406,20.2969 C24.5,19.0781 20.0625,16.5781 16.3125,13.0625 C15,11.8438 13.125,9.67188 11.6563,6.28125 C10.2969,3.10938 9.625,-0.328125 9.6875,-3.90625 C9.75,-8.60938 11.0625,-13.4375 13.5625,-18.2188 C16.4844,-23.7969 21.0469,-29.3281 27.1094,-34.6563 C28.5625,-35.9375 29.9375,-37.2188 31.2188,-38.5 C31.9844,-34.2344 32.8125,-29.5469 33.6875,-24.6719 C29.8438,-23.4063 25.0938,-20.25 21.9844,-14.5938 C18.4375,-8.03125 18.5781,-2.5 19.3125,0.984375 C20.25,5.4375 22.7813,9.20313 26.2344,11.2969 C27.1719,11.8594 31.2969,13.9844 33.1406,13.4063 C33.5156,13.2969 33.7813,13.0625 33.9219,12.7344 C34.4375,11.5625 33.4063,10.9219 31.8594,9.96875 C31.25,9.59375 30.5781,9.17188 29.8594,8.64063 C26.5313,6.15625 25.0781,1.70313 26.1563,-2.6875 C26.7344,-5.07813 28.0156,-7.25 29.8594,-8.95313 C31.5156,-10.5 33.5625,-11.5938 35.9375,-12.2344 C37.9844,-0.984375 40.0469,10.1719 41.6875,18.5313 C41.8125,19.2188 41.9531,19.8906 42.0781,20.5625 C37.7031,21.5 33.3594,21.4063 29.1406,20.2969 M40.4688,-12.9063 C50.8125,-13.375 55.0781,-5.9375 55.9688,-1.10938 C56.4375,1.4375 56.4375,5.875 54.8906,10.0938 C53.7188,13.2656 51.2656,17.3438 46.125,19.4063 C46.0625,18.9844 45.9844,18.5469 45.9063,18.125 C44.3594,9.34375 42.4219,-1.65625 40.4688,-12.9063 M33.1406,-83.8594 C34.9219,-89.5938 37.6563,-92.8438 39.6563,-94.5781 C41.4063,-96.0938 43.0469,-96.8125 43.9688,-96.8125 C44.1094,-96.8125 44.2344,-96.7813 44.3281,-96.75 C44.7969,-96.6094 45.3281,-96.0469 45.7969,-95.1719 C48.1094,-90.8906 47.3594,-84.1719 46.0156,-79.7344 C44.3906,-74.3281 41.4688,-68.7188 32.6719,-59.1094 C32.5,-60.2188 32.3438,-61.2656 32.1875,-62.25 C30.9375,-70.5313 31.2656,-77.8125 33.1406,-83.8594"/>
<path class="TimeSig" transform="matrix(0.992126,0,0,0.992126,244.951,212.73)" d="M3.59375,12.625 L20.7656,12.625 L20.7656,20.0781 L12.5469,20.0781 C11.7656,20.0781 11.125,20.7031 11.125,21.4844 L11.125,23.3906 C11.125,24.1719 11.7656,24.7969 12.5469,24.7969 L42.7969,24.7969 C43.5781,24.7969 44.2031,24.1719 44.2031,23.3906 L44.2031,21.4844 C44.2031,20.7031 43.5781,20.0781 42.7969,20.0781 L33.8594,20.0781 L33.8594,12.625 L42.7969,12.625 C43.5781,12.625 44.2031,12 44.2031,11.2188 L44.2031,9.3125 C44.2031,8.53125 43.5781,7.90625 42.7969,7.90625 L33.8594,7.90625 L33.8594,-8.0625 C33.8594,-8.59375 33.5469,-9.07813 33.0781,-9.3125 L31.8594,-9.92188 C31.3281,-10.1719 30.7031,-10.0781 30.2656,-9.6875 L21.2188,-1.375 C20.9375,-1.09375 20.7656,-0.734375 20.7656,-0.328125 L20.7656,7.90625 L9.25,7.90625 C9.25,7.90625 20.375,-4.125 32.2188,-19.8906 C33.0781,-21.0469 32.5781,-22.0938 32.3906,-22.2813 L30.2188,-24.4844 C29.9531,-24.75 29.5938,-24.9063 29.2188,-24.9063 C28.625,-24.9063 15.0625,-24.875 14.3438,-24.9063 C13.625,-24.9219 13.0938,-24.2969 13.0156,-23.6875 C13.0156,-23.6875 12.4844,-16.3281 9.875,-8.1875 C7.28125,-0.078125 4.34375,4.90625 1.6875,8.53125 C1.6875,8.53125 1.14063,9.51563 1.5,10.2656 C1.84375,11.0156 2.48438,12.0938 2.48438,12.0938 C2.48438,12.0938 2.73438,12.625 3.59375,12.625"/>
<path class="TimeSig" transform="matrix(0.992126,0,0,0.992126,244.951,262.073)" d="M3.59375,12.625 L20.7656,12.625 L20.7656,20.0781 L12.5469,20.0781 C11.7656,20.0781 11.125,20.7031 11.125,21.4844 L11.125,23.3906 C11.125,24.1719 11.7656,24.7969 12.5469,24.7969 L42.7969,24.7969 C43.5781,24.7969 44.2031,24.1719 44.2031,23.3906 L44.2031,21.4844 C44.2031,20.7031 43.5781,20.0781 42.7969,20.0781 L33.8594,20.0781 L33.8594,12.625 L42.7969,12.625 C43.5781,12.625 44.2031,12 44.2031,11.2188 L44.2031,9.3125 C44.2031,8.53125 43.5781,7.90625 42.7969,7.90625 L33.8594,7.90625 L33.8594,-8.0625 C33.8594,-8.59375 33.5469,-9.07813 33.0781,-9.3125 L31.8594,-9.92188 C31.3281,-10.1719 30.7031,-10.0781 30.2656,-9.6875 L21.2188,-1.375 C20.9375,-1.09375 20.7656,-0.734375 20.7656,-0.328125 L20.7656,7.90625 L9.25,7.90625 C9.25,7.90625 20.375,-4.125 32.2188,-19.8906 C33.0781,-21.0469 32.5781,-22.0938 32.3906,-22.2813 L30.2188,-24.4844 C29.9531,-24.75 29.5938,-24.9063 29.2188,-24.9063 C28.625,-24.9063 15.0625,-24.875 14.3438,-24.9063 C13.625,-24.9219 13.0938,-24.2969 13.0156,-23.6875 C13.0156,-23.6875 12.4844,-16.3281 9.875,-8.1875 C7.28125,-0.078125 4.34375,4.90625 1.6875,8.53125 C1.6875,8.53125 1.14063,9.51563 1.5,10.2656 C1.84375,11.0156 2.48438,12.0938 2.48438,12.0938 C2.48438,12.0938 2.73438,12.625 3.59375,12.625"/>
<path class="RehearsalMark" fill="none" stroke="#000000" stroke-width="3.97" stroke-linecap="square" stroke-linejoin="miter" stroke-miterlimit="2" fill-rule="evenodd" d="M154.216,21.0729 L262.987,21.0729 L262.987,122.845 L154.216,122.845 L154.216,21.0729 "/>
<path class="RehearsalMark" d="M205.352,35.4899 L182.883,87.9587 C178.32,98.6618 174.664,102.521 168.82,103.115 L168.82,108.459 L197.43,108.459 L197.43,103.115 C190.398,102.724 187.633,100.834 187.633,96.2868 C187.633,94.5993 188.023,93.0212 189.117,90.6462 L190.695,86.8806 L215.352,86.8806 L219.117,96.5837 C220.195,99.3493 220.305,99.8493 220.305,100.631 C220.305,102.427 218.914,103.021 214.555,103.021 L212.867,103.115 L212.867,108.459 L247.617,108.459 L247.617,103.115 C241.977,102.912 240.398,101.927 238.32,96.8806 L212.867,35.4899 L205.352,35.4899 M203.273,56.5837 L212.867,80.2399 L193.273,80.2399 L203.273,56.5837 "/>
<path class="RehearsalMark" fill="none" stroke="#000000" stroke-width="3.97" stroke-linecap="square" stroke-linejoin="miter" stroke-miterlimit="2" fill-rule="evenodd" d="M32.3294,690.441 L133.101,690.441 L133.101,791.213 L32.3294,791.213 L32.3294,690.441 "/>
<path class="RehearsalMark" d="M47.4027,705.342 L47.4027,710.702 L48.8871,710.702 C54.2308,710.702 56.1058,711.092 56.9964,712.077 C57.6996,713.171 57.6996,713.467 57.6996,719.608 L57.6996,762.577 C57.6996,768.702 57.6996,768.999 56.9964,769.999 C56.1058,771.092 54.1371,771.483 48.8871,771.483 L47.4027,771.483 L47.4027,776.827 L87.4964,776.827 C97.7933,776.827 103.043,776.03 108.184,773.764 C114.418,770.983 118.575,764.749 118.575,758.014 C118.575,751.092 114.621,745.639 107.293,742.28 C103.934,740.686 101.059,739.905 95.8089,739.202 C100.653,738.421 103.434,737.717 106.2,736.436 C112.137,733.561 115.309,728.811 115.309,722.874 C115.309,717.233 112.34,711.983 107.496,709.311 C102.043,706.233 97.2933,705.342 85.6058,705.342 L47.4027,705.342 M75.5121,737.421 L75.5121,716.436 C75.3089,712.28 76.6996,710.889 81.0589,710.702 L84.0277,710.702 C92.7464,710.702 97.3871,715.046 97.3871,723.264 C97.3871,728.124 95.7152,731.983 92.5433,734.452 C89.8714,736.639 86.4964,737.421 80.3714,737.421 L75.5121,737.421 M75.5121,742.874 L82.3402,742.874 C88.5746,742.874 91.4496,743.467 94.2308,745.249 C97.6839,747.53 99.6683,751.874 99.6683,757.03 C99.6683,761.78 97.8871,766.139 95.0121,768.514 C92.5433,770.483 89.2777,771.483 84.5277,771.483 L81.5589,771.483 C75.9027,771.28 75.3089,770.686 75.5121,765.139 L75.5121,742.874 "/>
<path class="Harmony" d="M350.527,121.866 C350.496,121.881 350.449,121.881 350.386,121.881 C350.324,121.881 350.277,121.897 350.246,121.897 C350.199,121.912 350.152,121.912 350.09,121.928 C350.027,121.928 349.996,121.944 349.949,121.959 C349.902,121.975 349.871,122.006 349.824,122.022 C349.777,122.053 349.746,122.069 349.73,122.116 C349.683,122.147 349.668,122.178 349.636,122.225 C349.621,122.256 349.605,122.319 349.605,122.366 C349.605,122.397 349.605,122.428 349.605,122.475 L349.605,122.506 C349.605,122.537 349.605,122.584 349.605,122.647 C349.621,122.709 349.621,122.756 349.621,122.787 C349.621,123.366 349.636,123.928 349.652,124.475 C349.652,124.506 349.652,124.537 349.652,124.569 C349.652,124.678 349.652,124.819 349.636,124.975 C349.621,125.178 349.621,125.319 349.621,125.412 L349.621,125.444 L349.621,125.537 C349.621,125.553 349.621,125.584 349.636,125.616 C349.636,125.647 349.636,125.662 349.652,125.678 C349.668,125.694 349.683,125.709 349.715,125.725 C349.73,125.741 349.761,125.741 349.793,125.741 L349.808,125.741 C349.98,125.741 350.152,125.709 350.324,125.631 C350.511,125.569 350.668,125.491 350.824,125.381 C350.98,125.287 351.121,125.162 351.261,125.006 C351.402,124.866 351.527,124.709 351.621,124.553 C351.73,124.397 351.808,124.225 351.871,124.053 C351.949,123.881 351.98,123.709 351.98,123.537 C351.996,123.506 351.996,123.459 351.996,123.428 C351.996,123.334 351.98,123.241 351.965,123.131 C351.933,122.991 351.902,122.85 351.84,122.725 C351.793,122.6 351.715,122.475 351.621,122.366 C351.543,122.241 351.433,122.147 351.324,122.069 C351.215,121.991 351.09,121.928 350.949,121.897 C350.871,121.866 350.777,121.866 350.668,121.866 C350.621,121.866 350.574,121.866 350.527,121.866 M350.215,125.1 C350.215,124.959 350.215,124.741 350.215,124.475 C350.23,124.256 350.23,124.053 350.23,123.866 C350.23,123.819 350.23,123.787 350.23,123.741 C350.23,123.522 350.215,123.303 350.215,123.1 C350.215,123.069 350.199,123.037 350.199,122.959 C350.183,122.881 350.168,122.803 350.168,122.741 C350.152,122.709 350.152,122.678 350.152,122.647 C350.152,122.616 350.152,122.584 350.168,122.553 C350.168,122.491 350.199,122.444 350.23,122.412 C350.277,122.381 350.324,122.366 350.386,122.366 C350.402,122.366 350.402,122.366 350.418,122.366 C350.496,122.381 350.574,122.397 350.668,122.444 C350.746,122.491 350.824,122.553 350.902,122.616 C350.98,122.678 351.043,122.741 351.105,122.787 C351.168,122.85 351.199,122.897 351.23,122.944 C351.308,123.069 351.371,123.225 351.402,123.381 C351.418,123.475 351.418,123.553 351.418,123.647 C351.418,123.709 351.418,123.787 351.418,123.85 C351.386,124.006 351.34,124.147 351.277,124.303 C351.215,124.444 351.121,124.569 351.027,124.694 C350.918,124.803 350.793,124.897 350.668,124.959 C350.527,125.037 350.371,125.084 350.215,125.1"/>
<path class="Harmony" d="M387.433,35.3858 C383.73,35.8546 380.215,36.714 376.793,37.9483 C373.371,39.1827 370.23,40.8858 367.199,42.8858 C364.152,44.8858 361.402,47.1671 359.027,49.7296 C356.652,52.2921 354.652,55.2296 352.949,58.5577 C351.23,61.8858 350.09,65.4015 349.433,69.1046 C348.949,71.3858 348.761,73.7608 348.761,76.1358 L348.761,76.8077 C348.761,79.0733 348.855,81.2608 349.136,83.4483 C349.433,85.8233 349.996,88.1983 350.761,90.3858 C351.621,92.6671 352.558,94.8546 353.605,96.839 C354.652,98.839 355.98,100.651 357.511,102.261 C359.027,103.87 360.918,105.198 362.824,106.339 C364.73,107.48 366.902,108.339 369.277,108.823 C370.902,109.105 372.511,109.292 374.136,109.292 C374.98,109.292 375.933,109.292 376.98,109.198 C379.918,108.917 382.683,108.245 385.246,107.292 C387.808,106.339 390.183,105.198 392.183,103.87 C394.168,102.542 396.168,100.839 397.98,98.9327 C399.777,97.0421 401.496,94.9483 402.918,92.8546 C404.34,90.7608 405.668,88.3858 407.09,85.7296 C409.277,81.3546 410.324,77.6515 410.324,74.714 C410.324,71.7608 409.277,69.4796 407.09,67.8702 C405.855,66.8233 403.777,66.1671 401.011,65.6827 C399.027,65.4015 397.027,65.214 395.027,65.214 L394.558,65.214 L392.465,65.214 C389.527,65.3077 386.761,65.7765 384.105,66.6358 C381.449,67.4952 379.636,68.5421 378.683,69.7765 C378.402,70.2452 378.121,70.6202 377.84,71.0108 C377.168,72.0577 376.793,72.9952 376.793,73.8546 C376.793,75.089 377.652,75.9483 379.261,76.4171 C380.59,76.8077 383.152,76.9952 386.855,76.9952 L387.715,76.9952 C388.949,77.089 389.902,77.089 390.558,77.089 C394.465,77.089 396.84,77.5577 397.59,78.6046 C397.886,78.9796 398.168,79.5577 398.168,80.1202 C398.168,80.6983 398.074,81.2608 397.98,81.839 C397.886,82.4015 397.59,83.0733 397.308,83.8233 C397.027,84.589 396.746,85.1671 396.449,85.6358 C396.168,86.1046 395.886,86.7765 395.511,87.5421 C395.121,88.2921 394.84,88.6827 394.746,88.8702 C394.277,89.714 393.98,90.3858 393.699,90.8546 C393.418,91.339 393.027,91.8077 392.558,92.4796 C392.09,93.1358 391.511,93.714 391.043,94.089 C389.043,95.6046 386.855,96.6515 384.293,97.1358 L381.058,97.5108 L380.683,97.5108 C379.449,97.4171 378.121,97.3233 376.886,97.0421 C374.511,96.5577 372.136,95.6983 369.949,94.3702 C367.761,93.0421 365.871,91.4327 364.433,89.5265 C363.011,87.5421 361.683,85.1671 360.73,82.4952 C359.777,79.839 359.215,77.089 359.027,74.1358 C358.933,73.089 358.933,72.1515 358.933,71.1046 C358.933,69.1983 359.027,67.3077 359.308,65.4952 C359.777,62.7452 360.636,60.0733 361.965,57.6046 C363.293,55.1358 365.011,53.1515 367.105,51.6202 C369.668,49.6358 372.793,48.1983 376.402,47.2608 C378.402,46.6827 380.402,46.4015 382.293,46.4015 C383.636,46.4015 384.965,46.589 386.199,46.8702 C387.246,47.1671 388.277,47.5421 389.527,48.1046 C390.761,48.6827 391.793,49.2452 392.746,49.8233 C393.699,50.3858 394.746,50.964 395.793,51.5265 C396.84,52.1046 397.886,52.5733 398.824,52.7608 C399.777,52.9483 400.73,53.0577 401.683,52.9483 C402.636,52.8546 403.574,52.3858 404.527,51.5265 C405.48,50.6827 406.34,49.5421 407.183,48.1046 C407.668,47.2608 407.949,46.4015 407.949,45.5421 C407.949,44.8858 407.761,44.3077 407.48,43.6515 C406.715,42.214 405.48,40.9796 403.777,39.9327 C402.058,38.9015 400.261,37.9483 398.168,37.1827 C396.074,36.4171 394.074,35.9483 392.09,35.6671 C390.652,35.3858 389.527,35.2921 388.574,35.2921 C388.09,35.2921 387.715,35.2921 387.433,35.3858"/>
<path class="Harmony" d="M1046.9,51.7874 C1043.2,52.2562 1039.68,53.1155 1036.26,54.3499 C1032.84,55.5843 1029.7,57.2874 1026.67,59.2874 C1023.62,61.2874 1020.87,63.5687 1018.49,66.1312 C1016.12,68.6937 1014.12,71.6312 1012.42,74.9593 C1010.7,78.2874 1009.56,81.803 1008.9,85.5062 C1008.42,87.7874 1008.23,90.1624 1008.23,92.5374 L1008.23,93.2093 C1008.23,95.4749 1008.32,97.6624 1008.6,99.8499 C1008.9,102.225 1009.46,104.6 1010.23,106.787 C1011.09,109.069 1012.03,111.256 1013.07,113.241 C1014.12,115.241 1015.45,117.053 1016.98,118.662 C1018.49,120.272 1020.38,121.6 1022.29,122.741 C1024.2,123.881 1026.37,124.741 1028.74,125.225 C1030.37,125.506 1031.98,125.694 1033.6,125.694 C1034.45,125.694 1035.4,125.694 1036.45,125.6 C1039.38,125.319 1042.15,124.647 1044.71,123.694 C1047.28,122.741 1049.65,121.6 1051.65,120.272 C1053.63,118.944 1055.63,117.241 1057.45,115.334 C1059.24,113.444 1060.96,111.35 1062.38,109.256 C1063.81,107.162 1065.13,104.787 1066.56,102.131 C1068.74,97.7562 1069.79,94.053 1069.79,91.1155 C1069.79,88.1624 1068.74,85.8812 1066.56,84.2718 C1065.32,83.2249 1063.24,82.5687 1060.48,82.0843 C1058.49,81.803 1056.49,81.6155 1054.49,81.6155 L1054.03,81.6155 L1051.93,81.6155 C1048.99,81.7093 1046.23,82.178 1043.57,83.0374 C1040.92,83.8968 1039.1,84.9437 1038.15,86.178 C1037.87,86.6468 1037.59,87.0218 1037.31,87.4124 C1036.63,88.4593 1036.26,89.3968 1036.26,90.2562 C1036.26,91.4905 1037.12,92.3499 1038.73,92.8187 C1040.06,93.2093 1042.62,93.3968 1046.32,93.3968 L1047.18,93.3968 C1048.42,93.4905 1049.37,93.4905 1050.03,93.4905 C1053.93,93.4905 1056.31,93.9593 1057.06,95.0062 C1057.35,95.3812 1057.63,95.9593 1057.63,96.5218 C1057.63,97.0999 1057.54,97.6624 1057.45,98.2405 C1057.35,98.803 1057.06,99.4749 1056.78,100.225 C1056.49,100.991 1056.21,101.569 1055.92,102.037 C1055.63,102.506 1055.35,103.178 1054.98,103.944 C1054.59,104.694 1054.31,105.084 1054.21,105.272 C1053.74,106.116 1053.45,106.787 1053.17,107.256 C1052.88,107.741 1052.49,108.209 1052.03,108.881 C1051.56,109.537 1050.98,110.116 1050.51,110.491 C1048.51,112.006 1046.32,113.053 1043.76,113.537 L1040.53,113.912 L1040.15,113.912 C1038.92,113.819 1037.59,113.725 1036.35,113.444 C1033.98,112.959 1031.6,112.1 1029.42,110.772 C1027.23,109.444 1025.34,107.834 1023.9,105.928 C1022.48,103.944 1021.15,101.569 1020.2,98.8968 C1019.24,96.2405 1018.68,93.4905 1018.49,90.5374 C1018.4,89.4905 1018.4,88.553 1018.4,87.5062 C1018.4,85.5999 1018.49,83.7093 1018.78,81.8968 C1019.24,79.1468 1020.1,76.4749 1021.43,74.0062 C1022.76,71.5374 1024.48,69.553 1026.57,68.0218 C1029.13,66.0374 1032.26,64.5999 1035.87,63.6624 C1037.87,63.0843 1039.87,62.803 1041.76,62.803 C1043.1,62.803 1044.43,62.9905 1045.67,63.2718 C1046.71,63.5687 1047.74,63.9437 1048.99,64.5062 C1050.23,65.0843 1051.26,65.6468 1052.21,66.2249 C1053.17,66.7874 1054.21,67.3655 1055.26,67.928 C1056.31,68.5062 1057.35,68.9749 1058.29,69.1624 C1059.24,69.3499 1060.2,69.4593 1061.15,69.3499 C1062.1,69.2562 1063.04,68.7874 1063.99,67.928 C1064.95,67.0843 1065.81,65.9437 1066.65,64.5062 C1067.13,63.6624 1067.42,62.803 1067.42,61.9437 C1067.42,61.2874 1067.23,60.7093 1066.95,60.053 C1066.18,58.6155 1064.95,57.3812 1063.24,56.3343 C1061.53,55.303 1059.73,54.3499 1057.63,53.5843 C1055.54,52.8187 1053.54,52.3499 1051.56,52.0687 C1050.12,51.7874 1048.99,51.6937 1048.04,51.6937 C1047.56,51.6937 1047.18,51.6937 1046.9,51.7874"/>
<path class="Harmony" d="M1702.43,51.5843 C1699.2,52.0687 1695.96,53.0218 1692.84,54.5374 C1689.7,56.053 1686.84,57.9593 1684.27,60.2405 C1681.71,62.5218 1679.34,65.0843 1677.15,68.0218 C1674.96,70.9749 1673.26,74.0062 1671.84,77.1468 C1670.41,80.2874 1669.46,83.5999 1668.88,87.1155 C1668.6,89.0218 1668.41,90.928 1668.41,92.7249 C1668.41,94.2405 1668.51,95.7718 1668.7,97.1937 C1669.18,100.131 1670.02,103.084 1671.35,105.834 C1672.7,108.6 1674.21,111.162 1676.1,113.537 C1678.01,115.912 1680.38,117.897 1682.95,119.709 C1685.51,121.506 1688.07,122.85 1690.84,123.787 C1693.4,124.647 1696.06,125.116 1699.01,125.116 L1699.29,125.116 L1699.57,125.116 C1702.71,125.022 1705.74,124.459 1708.7,123.319 C1709.56,123.037 1710.4,122.741 1711.26,122.366 C1712.12,121.991 1713.07,121.506 1714.31,120.85 C1715.54,120.178 1716.59,119.616 1717.62,118.944 C1718.66,118.287 1719.62,117.522 1720.57,116.662 C1721.52,115.819 1722.27,114.866 1722.76,114.006 C1723.23,113.147 1723.51,112.303 1723.51,111.256 C1723.41,110.209 1723.04,109.162 1722.37,108.116 C1722.09,107.647 1721.62,107.35 1721.13,107.162 C1720.66,106.975 1720.09,106.881 1719.62,106.975 C1719.15,107.069 1718.66,107.256 1718.1,107.553 C1717.52,107.834 1716.96,108.116 1716.48,108.303 C1716.01,108.491 1715.54,108.787 1714.96,109.162 C1714.4,109.537 1714.01,109.834 1713.73,109.928 C1710.4,111.725 1707.18,112.678 1703.85,112.678 C1700.81,112.678 1697.87,111.912 1694.91,110.397 C1692.16,108.975 1689.6,107.35 1687.32,105.459 C1685.04,103.553 1683.32,101.459 1682.09,99.0843 C1681.06,96.9124 1680.2,94.6312 1679.71,92.2562 C1679.24,90.0687 1679.06,87.9749 1679.06,85.7874 L1679.06,85.0374 C1679.06,82.6624 1679.43,80.2874 1680.2,77.9124 C1680.95,75.5374 1681.9,73.3499 1683.13,71.4437 C1684.37,69.553 1686.09,67.8343 1688.07,66.4124 C1690.07,64.9905 1692.35,64.0374 1694.91,63.5687 C1695.49,63.3655 1696.15,63.2718 1696.82,63.2718 C1697.29,63.3655 1697.77,63.3655 1698.24,63.4593 C1699.48,63.6624 1700.81,63.9437 1702.13,64.3187 C1703.46,64.5999 1704.81,65.0843 1706.13,65.7405 L1710.12,67.4593 C1711.45,68.0218 1712.77,68.4124 1714.01,68.8812 C1715.24,69.3499 1716.48,69.553 1717.71,69.6468 C1718.1,69.7405 1718.48,69.7405 1718.76,69.7405 C1719.52,69.6468 1720.29,69.553 1720.95,69.4593 C1721.9,69.2562 1722.76,68.6937 1723.6,67.8343 C1724.46,66.9749 1725.23,65.9437 1725.7,64.5062 C1725.88,63.8499 1725.98,63.2718 1725.98,62.7093 C1726.09,62.2249 1725.98,61.7562 1725.79,61.2874 C1725.6,60.803 1725.32,60.428 1725.04,60.053 C1724.74,59.5687 1724.37,59.2874 1723.9,58.9124 C1723.41,58.5218 1723.04,58.1468 1722.66,57.8655 C1722.27,57.5843 1721.71,57.1937 1721.23,56.9124 C1715.34,53.2093 1709.93,51.3968 1704.9,51.3968 C1704.04,51.3968 1703.27,51.4905 1702.43,51.5843"/>
<path class="Harmony" d="M2365.83,51.7874 C2362.13,52.2562 2358.62,53.1155 2355.19,54.3499 C2351.77,55.5843 2348.63,57.2874 2345.6,59.2874 C2342.55,61.2874 2339.8,63.5687 2337.43,66.1312 C2335.05,68.6937 2333.05,71.6312 2331.35,74.9593 C2329.63,78.2874 2328.49,81.803 2327.83,85.5062 C2327.35,87.7874 2327.16,90.1624 2327.16,92.5374 L2327.16,93.2093 C2327.16,95.4749 2327.26,97.6624 2327.54,99.8499 C2327.83,102.225 2328.4,104.6 2329.16,106.787 C2330.02,109.069 2330.96,111.256 2332.01,113.241 C2333.05,115.241 2334.38,117.053 2335.91,118.662 C2337.43,120.272 2339.32,121.6 2341.23,122.741 C2343.13,123.881 2345.3,124.741 2347.68,125.225 C2349.3,125.506 2350.91,125.694 2352.54,125.694 C2353.38,125.694 2354.33,125.694 2355.38,125.6 C2358.32,125.319 2361.08,124.647 2363.65,123.694 C2366.21,122.741 2368.58,121.6 2370.58,120.272 C2372.57,118.944 2374.57,117.241 2376.38,115.334 C2378.18,113.444 2379.9,111.35 2381.32,109.256 C2382.74,107.162 2384.07,104.787 2385.49,102.131 C2387.68,97.7562 2388.73,94.053 2388.73,91.1155 C2388.73,88.1624 2387.68,85.8812 2385.49,84.2718 C2384.26,83.2249 2382.18,82.5687 2379.41,82.0843 C2377.43,81.803 2375.43,81.6155 2373.43,81.6155 L2372.96,81.6155 L2370.87,81.6155 C2367.93,81.7093 2365.16,82.178 2362.51,83.0374 C2359.85,83.8968 2358.04,84.9437 2357.08,86.178 C2356.8,86.6468 2356.52,87.0218 2356.24,87.4124 C2355.57,88.4593 2355.19,89.3968 2355.19,90.2562 C2355.19,91.4905 2356.05,92.3499 2357.66,92.8187 C2358.99,93.2093 2361.55,93.3968 2365.26,93.3968 L2366.12,93.3968 C2367.35,93.4905 2368.3,93.4905 2368.96,93.4905 C2372.87,93.4905 2375.24,93.9593 2375.99,95.0062 C2376.29,95.3812 2376.57,95.9593 2376.57,96.5218 C2376.57,97.0999 2376.48,97.6624 2376.38,98.2405 C2376.29,98.803 2375.99,99.4749 2375.71,100.225 C2375.43,100.991 2375.15,101.569 2374.85,102.037 C2374.57,102.506 2374.29,103.178 2373.91,103.944 C2373.52,104.694 2373.24,105.084 2373.15,105.272 C2372.68,106.116 2372.38,106.787 2372.1,107.256 C2371.82,107.741 2371.43,108.209 2370.96,108.881 C2370.49,109.537 2369.91,110.116 2369.44,110.491 C2367.44,112.006 2365.26,113.053 2362.69,113.537 L2359.46,113.912 L2359.08,113.912 C2357.85,113.819 2356.52,113.725 2355.29,113.444 C2352.91,112.959 2350.54,112.1 2348.35,110.772 C2346.16,109.444 2344.27,107.834 2342.83,105.928 C2341.41,103.944 2340.08,101.569 2339.13,98.8968 C2338.18,96.2405 2337.62,93.4905 2337.43,90.5374 C2337.33,89.4905 2337.33,88.553 2337.33,87.5062 C2337.33,85.5999 2337.43,83.7093 2337.71,81.8968 C2338.18,79.1468 2339.04,76.4749 2340.37,74.0062 C2341.69,71.5374 2343.41,69.553 2345.51,68.0218 C2348.07,66.0374 2351.19,64.5999 2354.8,63.6624 C2356.8,63.0843 2358.8,62.803 2360.69,62.803 C2362.04,62.803 2363.37,62.9905 2364.6,63.2718 C2365.65,63.5687 2366.68,63.9437 2367.93,64.5062 C2369.16,65.0843 2370.19,65.6468 2371.15,66.2249 C2372.1,66.7874 2373.15,67.3655 2374.19,67.928 C2375.24,68.5062 2376.29,68.9749 2377.23,69.1624 C2378.18,69.3499 2379.13,69.4593 2380.08,69.3499 C2381.04,69.2562 2381.98,68.7874 2382.93,67.928 C2383.88,67.0843 2384.74,65.9437 2385.58,64.5062 C2386.07,63.6624 2386.35,62.803 2386.35,61.9437 C2386.35,61.2874 2386.16,60.7093 2385.88,60.053 C2385.12,58.6155 2383.88,57.3812 2382.18,56.3343 C2380.46,55.303 2378.66,54.3499 2376.57,53.5843 C2374.48,52.8187 2372.48,52.3499 2370.49,52.0687 C2369.05,51.7874 2367.93,51.6937 2366.98,51.6937 C2366.49,51.6937 2366.12,51.6937 2365.83,51.7874"/>
<path class="Harmony" d="M187.627,383.117 C187.158,383.211 186.392,383.305 185.158,383.414 C183.923,383.508 182.97,383.695 182.314,383.789 C181.642,383.883 180.689,383.977 179.548,384.164 C178.408,384.352 177.564,384.649 176.798,384.93 C176.033,385.211 175.189,385.586 174.423,386.07 C173.658,386.539 173.002,387.024 172.517,387.68 C171.861,388.352 171.377,389.102 171.002,389.867 C170.627,390.633 170.345,391.57 170.236,392.524 C170.142,393.195 170.142,393.852 170.142,394.524 L170.142,395.086 C170.236,395.758 170.236,396.711 170.345,397.852 C170.439,398.992 170.439,399.93 170.439,400.602 C170.439,411.43 170.72,422.07 171.189,432.617 C171.283,433.18 171.283,433.758 171.283,434.43 C171.189,436.414 171.095,439.07 170.908,442.211 C170.627,445.914 170.439,448.68 170.439,450.477 L170.439,451.055 L170.439,452.664 C170.439,453.133 170.627,453.617 170.72,454.18 C170.814,454.758 171.002,455.227 171.283,455.508 C171.58,455.805 171.861,456.086 172.33,456.367 C172.72,456.555 173.189,456.649 173.752,456.649 L174.048,456.649 C177.361,456.555 180.689,455.899 184.017,454.664 C187.345,453.43 190.486,451.899 193.423,449.914 C196.377,447.914 199.127,445.539 201.783,442.789 C204.439,440.024 206.72,437.18 208.627,434.133 C210.517,431.102 212.142,427.961 213.377,424.633 C214.611,421.305 215.267,417.992 215.47,414.852 C215.564,414.18 215.564,413.43 215.564,412.758 C215.564,410.961 215.377,409.055 214.986,407.164 C214.517,404.492 213.752,401.836 212.705,399.367 C211.658,396.899 210.33,394.617 208.627,392.43 C206.908,390.242 205.017,388.445 202.923,386.93 C200.83,385.399 198.548,384.258 195.892,383.602 C194.189,383.117 192.377,382.93 190.58,382.93 C189.627,382.93 188.673,383.024 187.627,383.117 M181.736,444.492 C181.736,441.742 181.83,437.742 181.923,432.617 C182.017,428.539 182.111,424.633 182.111,421.117 C182.111,420.274 182.017,419.414 182.017,418.555 C182.017,414.383 181.923,410.289 181.736,406.492 C181.736,406.024 181.642,405.164 181.455,403.742 C181.267,402.305 180.986,400.977 180.877,399.742 C180.783,399.18 180.783,398.602 180.783,398.039 C180.783,397.367 180.783,396.805 180.877,396.133 C181.08,394.899 181.455,393.945 182.111,393.477 C182.97,392.805 183.923,392.524 184.97,392.524 C185.252,392.617 185.533,392.617 185.83,392.617 C187.252,392.805 188.767,393.289 190.377,394.149 C192.002,394.992 193.517,396.133 194.939,397.274 C196.377,398.414 197.705,399.555 198.752,400.695 C199.783,401.836 200.642,402.695 201.127,403.555 C202.642,406.024 203.689,408.774 204.252,411.805 C204.533,413.524 204.736,415.227 204.736,416.945 C204.736,418.18 204.627,419.414 204.533,420.649 C204.064,423.586 203.205,426.445 201.97,429.195 C200.736,431.945 199.127,434.43 197.22,436.602 C195.236,438.789 192.955,440.508 190.283,441.93 C187.627,443.352 184.783,444.211 181.736,444.492"/>
<path class="Harmony" d="M847.483,383.508 C843.78,383.977 840.265,384.836 836.843,386.07 C833.421,387.305 830.28,389.008 827.249,391.008 C824.202,393.008 821.452,395.289 819.077,397.852 C816.702,400.414 814.702,403.352 812.999,406.68 C811.28,410.008 810.14,413.524 809.483,417.227 C808.999,419.508 808.811,421.883 808.811,424.258 L808.811,424.93 C808.811,427.195 808.905,429.383 809.186,431.57 C809.483,433.945 810.046,436.32 810.811,438.508 C811.671,440.789 812.608,442.977 813.655,444.961 C814.702,446.961 816.03,448.774 817.561,450.383 C819.077,451.992 820.968,453.32 822.874,454.461 C824.78,455.602 826.952,456.461 829.327,456.945 C830.952,457.227 832.561,457.414 834.186,457.414 C835.03,457.414 835.983,457.414 837.03,457.32 C839.968,457.039 842.733,456.367 845.296,455.414 C847.858,454.461 850.233,453.32 852.233,451.992 C854.218,450.664 856.218,448.961 858.03,447.055 C859.827,445.164 861.546,443.07 862.968,440.977 C864.39,438.883 865.718,436.508 867.14,433.852 C869.327,429.477 870.374,425.774 870.374,422.836 C870.374,419.883 869.327,417.602 867.14,415.992 C865.905,414.945 863.827,414.289 861.061,413.805 C859.077,413.524 857.077,413.336 855.077,413.336 L854.608,413.336 L852.515,413.336 C849.577,413.43 846.811,413.899 844.155,414.758 C841.499,415.617 839.686,416.664 838.733,417.899 C838.452,418.367 838.171,418.742 837.89,419.133 C837.218,420.18 836.843,421.117 836.843,421.977 C836.843,423.211 837.702,424.07 839.311,424.539 C840.64,424.93 843.202,425.117 846.905,425.117 L847.765,425.117 C848.999,425.211 849.952,425.211 850.608,425.211 C854.515,425.211 856.89,425.68 857.64,426.727 C857.936,427.102 858.218,427.68 858.218,428.242 C858.218,428.82 858.124,429.383 858.03,429.961 C857.936,430.524 857.64,431.195 857.358,431.945 C857.077,432.711 856.796,433.289 856.499,433.758 C856.218,434.227 855.936,434.899 855.561,435.664 C855.171,436.414 854.89,436.805 854.796,436.992 C854.327,437.836 854.03,438.508 853.749,438.977 C853.468,439.461 853.077,439.93 852.608,440.602 C852.14,441.258 851.561,441.836 851.093,442.211 C849.093,443.727 846.905,444.774 844.343,445.258 L841.108,445.633 L840.733,445.633 C839.499,445.539 838.171,445.445 836.936,445.164 C834.561,444.68 832.186,443.82 829.999,442.492 C827.811,441.164 825.921,439.555 824.483,437.649 C823.061,435.664 821.733,433.289 820.78,430.617 C819.827,427.961 819.265,425.211 819.077,422.258 C818.983,421.211 818.983,420.274 818.983,419.227 C818.983,417.32 819.077,415.43 819.358,413.617 C819.827,410.867 820.686,408.195 822.015,405.727 C823.343,403.258 825.061,401.274 827.155,399.742 C829.718,397.758 832.843,396.32 836.452,395.383 C838.452,394.805 840.452,394.524 842.343,394.524 C843.686,394.524 845.015,394.711 846.249,394.992 C847.296,395.289 848.327,395.664 849.577,396.227 C850.811,396.805 851.843,397.367 852.796,397.945 C853.749,398.508 854.796,399.086 855.843,399.649 C856.89,400.227 857.936,400.695 858.874,400.883 C859.827,401.07 860.78,401.18 861.733,401.07 C862.686,400.977 863.624,400.508 864.577,399.649 C865.53,398.805 866.39,397.664 867.233,396.227 C867.718,395.383 867.999,394.524 867.999,393.664 C867.999,393.008 867.811,392.43 867.53,391.774 C866.765,390.336 865.53,389.102 863.827,388.055 C862.108,387.024 860.311,386.07 858.218,385.305 C856.124,384.539 854.124,384.07 852.14,383.789 C850.702,383.508 849.577,383.414 848.624,383.414 C848.14,383.414 847.765,383.414 847.483,383.508"/>
<path class="Harmony" d="M1480.45,403.07 C1481.68,404.68 1482.53,406.867 1483.2,409.633 C1483.87,412.383 1484.34,415.039 1484.81,417.805 C1485.29,420.555 1485.57,423.117 1485.67,425.399 L1478.45,424.633 L1470.65,425.399 L1474.65,413.524 L1480.45,403.07 M1478.73,436.508 L1480.64,436.508 L1483.48,436.508 L1484.25,436.508 L1485.11,436.508 C1485.2,436.508 1485.48,436.602 1485.86,436.602 C1486.25,436.602 1486.53,436.602 1486.72,436.695 C1486.9,436.805 1487.09,436.899 1487.39,436.992 C1487.67,437.086 1487.86,437.18 1488.04,437.367 C1488.23,437.555 1488.53,437.649 1488.72,437.836 C1489.18,438.32 1489.65,439.274 1490.04,440.508 C1490.42,441.649 1490.79,442.883 1491.09,444.305 C1491.37,445.727 1491.65,447.149 1491.93,448.774 C1492.23,450.383 1492.61,451.805 1492.98,453.133 C1493.37,454.461 1493.93,455.695 1494.51,456.742 C1495.07,457.789 1495.75,458.461 1496.59,458.836 C1496.98,459.024 1497.45,459.117 1498.03,459.117 C1498.5,459.117 1499.06,459.024 1499.64,458.836 C1500.5,458.555 1501.15,458.18 1501.82,457.789 C1502.48,457.414 1502.97,457.039 1503.34,456.555 C1503.72,456.086 1504.01,455.602 1504.29,455.039 C1504.57,454.461 1504.76,454.086 1504.86,453.617 C1504.95,453.227 1504.95,452.852 1504.95,452.383 L1504.95,451.899 C1504.95,451.242 1504.95,450.57 1504.86,450.102 C1504.76,449.617 1504.57,449.055 1504.39,448.289 C1504.2,447.539 1504.01,446.961 1503.81,446.492 C1503.62,446.008 1503.53,445.352 1503.25,444.492 C1502.97,443.633 1502.67,443.07 1502.57,442.695 C1501.92,440.789 1500.78,436.992 1499.15,431.383 C1498.03,427.305 1497.07,423.883 1496.4,421.211 C1495.17,416.367 1494.12,412.383 1493.37,409.242 C1492.14,404.024 1491.18,400.508 1490.7,398.695 C1490.61,398.32 1490.51,397.758 1490.32,396.992 C1490.14,396.227 1490.04,395.57 1489.95,394.992 C1489.86,394.43 1489.56,393.852 1489.37,393.102 C1489.18,392.336 1489,391.57 1488.81,391.008 C1488.62,390.43 1488.23,389.774 1487.95,389.102 C1487.67,388.445 1487.28,387.961 1486.9,387.492 C1486.53,387.024 1486.25,386.633 1485.76,386.258 C1485.29,385.883 1484.81,385.492 1484.25,385.399 C1483.78,385.305 1483.29,385.211 1482.73,385.211 L1482.34,385.211 C1481.68,385.305 1480.92,385.399 1480.06,385.68 C1479.4,385.977 1478.64,386.352 1477.98,386.82 C1477.31,387.305 1476.65,387.68 1476.17,388.164 C1475.7,388.633 1475.22,389.305 1474.75,390.055 C1474.28,390.82 1473.79,391.383 1473.51,391.961 C1473.23,392.524 1472.84,393.289 1472.47,394.242 C1472.09,395.18 1471.7,395.945 1471.51,396.524 C1471.32,397.086 1471.14,397.852 1470.76,398.805 C1470.37,399.742 1470.09,400.414 1470,400.883 C1467.25,407.82 1464.48,414.383 1461.73,420.742 C1457.26,430.914 1454.61,437.086 1453.84,439.367 C1453.75,439.742 1453.37,440.414 1452.89,441.445 C1452.42,442.492 1451.86,443.445 1451.37,444.399 C1450.9,445.352 1450.42,446.586 1449.86,447.82 C1449.28,449.055 1448.81,450.289 1448.53,451.336 C1448.14,452.383 1447.95,453.32 1447.95,454.18 C1448.04,455.039 1448.25,455.602 1448.72,456.086 C1449.57,456.742 1450.51,457.133 1451.56,457.133 L1452.23,457.133 C1453.56,456.945 1454.89,456.555 1456.22,455.805 C1457.54,455.039 1458.5,454.18 1458.98,453.32 C1459.54,452.289 1460.12,451.055 1460.59,449.524 C1461.06,448.008 1461.54,446.586 1461.82,445.352 C1462.11,444.117 1462.5,442.789 1463.15,441.352 C1463.82,439.93 1464.57,438.789 1465.43,437.836 L1470.56,436.227 C1470.86,436.133 1471.23,436.227 1471.9,436.227 L1474.65,436.227 C1474.93,436.227 1476.36,436.32 1478.73,436.508"/>
<path class="Harmony" d="M1975.17,383.117 C1974.7,383.211 1973.93,383.305 1972.7,383.414 C1971.46,383.508 1970.51,383.695 1969.85,383.789 C1969.18,383.883 1968.23,383.977 1967.09,384.164 C1965.95,384.352 1965.1,384.649 1964.34,384.93 C1963.57,385.211 1962.73,385.586 1961.96,386.07 C1961.2,386.539 1960.54,387.024 1960.06,387.68 C1959.4,388.352 1958.92,389.102 1958.54,389.867 C1958.17,390.633 1957.88,391.57 1957.78,392.524 C1957.68,393.195 1957.68,393.852 1957.68,394.524 L1957.68,395.086 C1957.78,395.758 1957.78,396.711 1957.88,397.852 C1957.98,398.992 1957.98,399.93 1957.98,400.602 C1957.98,411.43 1958.26,422.07 1958.73,432.617 C1958.82,433.18 1958.82,433.758 1958.82,434.43 C1958.73,436.414 1958.63,439.07 1958.45,442.211 C1958.17,445.914 1957.98,448.68 1957.98,450.477 L1957.98,451.055 L1957.98,452.664 C1957.98,453.133 1958.17,453.617 1958.26,454.18 C1958.35,454.758 1958.54,455.227 1958.82,455.508 C1959.12,455.805 1959.4,456.086 1959.87,456.367 C1960.26,456.555 1960.73,456.649 1961.29,456.649 L1961.59,456.649 C1964.9,456.555 1968.23,455.899 1971.56,454.664 C1974.88,453.43 1978.03,451.899 1980.96,449.914 C1983.92,447.914 1986.67,445.539 1989.32,442.789 C1991.98,440.024 1994.26,437.18 1996.17,434.133 C1998.06,431.102 1999.68,427.961 2000.92,424.633 C2002.15,421.305 2002.81,417.992 2003.01,414.852 C2003.1,414.18 2003.1,413.43 2003.1,412.758 C2003.1,410.961 2002.92,409.055 2002.53,407.164 C2002.06,404.492 2001.29,401.836 2000.24,399.367 C1999.2,396.899 1997.87,394.617 1996.17,392.43 C1994.45,390.242 1992.56,388.445 1990.46,386.93 C1988.37,385.399 1986.09,384.258 1983.43,383.602 C1981.73,383.117 1979.92,382.93 1978.12,382.93 C1977.17,382.93 1976.21,383.024 1975.17,383.117 M1969.28,444.492 C1969.28,441.742 1969.37,437.742 1969.46,432.617 C1969.56,428.539 1969.65,424.633 1969.65,421.117 C1969.65,420.274 1969.56,419.414 1969.56,418.555 C1969.56,414.383 1969.46,410.289 1969.28,406.492 C1969.28,406.024 1969.18,405.164 1968.99,403.742 C1968.81,402.305 1968.53,400.977 1968.42,399.742 C1968.32,399.18 1968.32,398.602 1968.32,398.039 C1968.32,397.367 1968.32,396.805 1968.42,396.133 C1968.62,394.899 1968.99,393.945 1969.65,393.477 C1970.51,392.805 1971.46,392.524 1972.51,392.524 C1972.79,392.617 1973.07,392.617 1973.37,392.617 C1974.79,392.805 1976.31,393.289 1977.92,394.149 C1979.54,394.992 1981.06,396.133 1982.48,397.274 C1983.92,398.414 1985.24,399.555 1986.29,400.695 C1987.32,401.836 1988.18,402.695 1988.67,403.555 C1990.18,406.024 1991.23,408.774 1991.79,411.805 C1992.07,413.524 1992.28,415.227 1992.28,416.945 C1992.28,418.18 1992.17,419.414 1992.07,420.649 C1991.6,423.586 1990.74,426.445 1989.51,429.195 C1988.28,431.945 1986.67,434.43 1984.76,436.602 C1982.78,438.789 1980.49,440.508 1977.82,441.93 C1975.17,443.352 1972.32,444.211 1969.28,444.492"/>
<path class="Harmony" d="M2517.13,383.117 C2516.66,383.211 2515.9,383.305 2514.66,383.414 C2513.43,383.508 2512.48,383.695 2511.82,383.789 C2511.15,383.883 2510.2,383.977 2509.05,384.164 C2507.91,384.352 2507.07,384.649 2506.3,384.93 C2505.54,385.211 2504.7,385.586 2503.93,386.07 C2503.16,386.539 2502.51,387.024 2502.02,387.68 C2501.37,388.352 2500.88,389.102 2500.51,389.867 C2500.13,390.633 2499.85,391.57 2499.74,392.524 C2499.65,393.195 2499.65,393.852 2499.65,394.524 L2499.65,395.086 C2499.74,395.758 2499.74,396.711 2499.85,397.852 C2499.95,398.992 2499.95,399.93 2499.95,400.602 C2499.95,411.43 2500.23,422.07 2500.7,432.617 C2500.79,433.18 2500.79,433.758 2500.79,434.43 C2500.7,436.414 2500.6,439.07 2500.41,442.211 C2500.13,445.914 2499.95,448.68 2499.95,450.477 L2499.95,451.055 L2499.95,452.664 C2499.95,453.133 2500.13,453.617 2500.23,454.18 C2500.32,454.758 2500.51,455.227 2500.79,455.508 C2501.09,455.805 2501.37,456.086 2501.84,456.367 C2502.23,456.555 2502.7,456.649 2503.26,456.649 L2503.55,456.649 C2506.87,456.555 2510.2,455.899 2513.52,454.664 C2516.85,453.43 2519.99,451.899 2522.93,449.914 C2525.88,447.914 2528.63,445.539 2531.29,442.789 C2533.95,440.024 2536.23,437.18 2538.13,434.133 C2540.02,431.102 2541.65,427.961 2542.88,424.633 C2544.12,421.305 2544.77,417.992 2544.98,414.852 C2545.07,414.18 2545.07,413.43 2545.07,412.758 C2545.07,410.961 2544.88,409.055 2544.49,407.164 C2544.02,404.492 2543.26,401.836 2542.21,399.367 C2541.16,396.899 2539.84,394.617 2538.13,392.43 C2536.41,390.242 2534.52,388.445 2532.43,386.93 C2530.34,385.399 2528.05,384.258 2525.4,383.602 C2523.7,383.117 2521.88,382.93 2520.09,382.93 C2519.13,382.93 2518.18,383.024 2517.13,383.117 M2511.24,444.492 C2511.24,441.742 2511.34,437.742 2511.43,432.617 C2511.52,428.539 2511.62,424.633 2511.62,421.117 C2511.62,420.274 2511.52,419.414 2511.52,418.555 C2511.52,414.383 2511.43,410.289 2511.24,406.492 C2511.24,406.024 2511.15,405.164 2510.96,403.742 C2510.77,402.305 2510.49,400.977 2510.38,399.742 C2510.29,399.18 2510.29,398.602 2510.29,398.039 C2510.29,397.367 2510.29,396.805 2510.38,396.133 C2510.59,394.899 2510.96,393.945 2511.62,393.477 C2512.48,392.805 2513.43,392.524 2514.48,392.524 C2514.76,392.617 2515.04,392.617 2515.34,392.617 C2516.76,392.805 2518.27,393.289 2519.88,394.149 C2521.51,394.992 2523.02,396.133 2524.45,397.274 C2525.88,398.414 2527.21,399.555 2528.26,400.695 C2529.29,401.836 2530.15,402.695 2530.63,403.555 C2532.15,406.024 2533.2,408.774 2533.76,411.805 C2534.04,413.524 2534.24,415.227 2534.24,416.945 C2534.24,418.18 2534.13,419.414 2534.04,420.649 C2533.57,423.586 2532.71,426.445 2531.48,429.195 C2530.24,431.945 2528.63,434.43 2526.73,436.602 C2524.74,438.789 2522.46,440.508 2519.79,441.93 C2517.13,443.352 2514.29,444.211 2511.24,444.492"/>
<path class="Harmony" d="M2732.01,383.508 C2728.3,383.977 2724.79,384.836 2721.37,386.07 C2717.94,387.305 2714.8,389.008 2711.77,391.008 C2708.73,393.008 2705.98,395.289 2703.6,397.852 C2701.23,400.414 2699.23,403.352 2697.52,406.68 C2695.8,410.008 2694.66,413.524 2694.01,417.227 C2693.52,419.508 2693.33,421.883 2693.33,424.258 L2693.33,424.93 C2693.33,427.195 2693.43,429.383 2693.71,431.57 C2694.01,433.945 2694.57,436.32 2695.33,438.508 C2696.19,440.789 2697.13,442.977 2698.18,444.961 C2699.23,446.961 2700.55,448.774 2702.08,450.383 C2703.6,451.992 2705.49,453.32 2707.4,454.461 C2709.3,455.602 2711.48,456.461 2713.85,456.945 C2715.48,457.227 2717.08,457.414 2718.71,457.414 C2719.55,457.414 2720.51,457.414 2721.55,457.32 C2724.49,457.039 2727.26,456.367 2729.82,455.414 C2732.38,454.461 2734.76,453.32 2736.76,451.992 C2738.74,450.664 2740.74,448.961 2742.55,447.055 C2744.35,445.164 2746.07,443.07 2747.49,440.977 C2748.91,438.883 2750.24,436.508 2751.66,433.852 C2753.85,429.477 2754.9,425.774 2754.9,422.836 C2754.9,419.883 2753.85,417.602 2751.66,415.992 C2750.43,414.945 2748.35,414.289 2745.58,413.805 C2743.6,413.524 2741.6,413.336 2739.6,413.336 L2739.13,413.336 L2737.04,413.336 C2734.1,413.43 2731.33,413.899 2728.68,414.758 C2726.02,415.617 2724.21,416.664 2723.26,417.899 C2722.98,418.367 2722.69,418.742 2722.41,419.133 C2721.74,420.18 2721.37,421.117 2721.37,421.977 C2721.37,423.211 2722.23,424.07 2723.83,424.539 C2725.16,424.93 2727.73,425.117 2731.43,425.117 L2732.29,425.117 C2733.52,425.211 2734.48,425.211 2735.13,425.211 C2739.04,425.211 2741.41,425.68 2742.16,426.727 C2742.46,427.102 2742.74,427.68 2742.74,428.242 C2742.74,428.82 2742.65,429.383 2742.55,429.961 C2742.46,430.524 2742.16,431.195 2741.88,431.945 C2741.6,432.711 2741.32,433.289 2741.02,433.758 C2740.74,434.227 2740.46,434.899 2740.08,435.664 C2739.69,436.414 2739.41,436.805 2739.32,436.992 C2738.85,437.836 2738.55,438.508 2738.27,438.977 C2737.99,439.461 2737.6,439.93 2737.13,440.602 C2736.66,441.258 2736.08,441.836 2735.62,442.211 C2733.62,443.727 2731.43,444.774 2728.87,445.258 L2725.63,445.633 L2725.26,445.633 C2724.02,445.539 2722.69,445.445 2721.46,445.164 C2719.08,444.68 2716.71,443.82 2714.52,442.492 C2712.33,441.164 2710.44,439.555 2709.01,437.649 C2707.58,435.664 2706.26,433.289 2705.3,430.617 C2704.35,427.961 2703.79,425.211 2703.6,422.258 C2703.51,421.211 2703.51,420.274 2703.51,419.227 C2703.51,417.32 2703.6,415.43 2703.88,413.617 C2704.35,410.867 2705.21,408.195 2706.54,405.727 C2707.87,403.258 2709.58,401.274 2711.68,399.742 C2714.24,397.758 2717.37,396.32 2720.98,395.383 C2722.98,394.805 2724.98,394.524 2726.87,394.524 C2728.21,394.524 2729.54,394.711 2730.77,394.992 C2731.82,395.289 2732.85,395.664 2734.1,396.227 C2735.33,396.805 2736.37,397.367 2737.32,397.945 C2738.27,398.508 2739.32,399.086 2740.37,399.649 C2741.41,400.227 2742.46,400.695 2743.4,400.883 C2744.35,401.07 2745.3,401.18 2746.26,401.07 C2747.21,400.977 2748.15,400.508 2749.1,399.649 C2750.05,398.805 2750.91,397.664 2751.76,396.227 C2752.24,395.383 2752.52,394.524 2752.52,393.664 C2752.52,393.008 2752.33,392.43 2752.05,391.774 C2751.29,390.336 2750.05,389.102 2748.35,388.055 C2746.63,387.024 2744.83,386.07 2742.74,385.305 C2740.65,384.539 2738.65,384.07 2736.66,383.789 C2735.23,383.508 2734.1,383.414 2733.15,383.414 C2732.66,383.414 2732.29,383.414 2732.01,383.508"/>
<path class="Harmony" d="M204.595,715.025 C201.361,715.51 198.127,716.463 195.002,717.978 C191.861,719.494 189.002,721.4 186.439,723.681 C183.877,725.963 181.502,728.525 179.314,731.463 C177.127,734.416 175.423,737.447 174.002,740.588 C172.58,743.728 171.627,747.041 171.048,750.556 C170.767,752.463 170.58,754.369 170.58,756.166 C170.58,757.681 170.673,759.213 170.861,760.635 C171.345,763.572 172.189,766.525 173.517,769.275 C174.861,772.041 176.377,774.603 178.267,776.978 C180.173,779.353 182.548,781.338 185.111,783.15 C187.673,784.947 190.236,786.291 193.002,787.228 C195.564,788.088 198.22,788.556 201.173,788.556 L201.455,788.556 L201.736,788.556 C204.877,788.463 207.908,787.9 210.861,786.76 C211.72,786.478 212.564,786.181 213.423,785.806 C214.283,785.431 215.236,784.947 216.47,784.291 C217.705,783.619 218.752,783.056 219.783,782.385 C220.83,781.728 221.783,780.963 222.736,780.103 C223.689,779.26 224.439,778.306 224.923,777.447 C225.392,776.588 225.673,775.744 225.673,774.697 C225.58,773.65 225.205,772.603 224.533,771.556 C224.252,771.088 223.783,770.791 223.298,770.603 C222.83,770.416 222.252,770.322 221.783,770.416 C221.314,770.51 220.83,770.697 220.267,770.994 C219.689,771.275 219.127,771.556 218.642,771.744 C218.173,771.931 217.705,772.228 217.127,772.603 C216.564,772.978 216.173,773.275 215.892,773.369 C212.564,775.166 209.345,776.119 206.017,776.119 C202.97,776.119 200.033,775.353 197.08,773.838 C194.33,772.416 191.767,770.791 189.486,768.9 C187.205,766.994 185.486,764.9 184.252,762.525 C183.22,760.353 182.361,758.072 181.877,755.697 C181.408,753.51 181.22,751.416 181.22,749.228 L181.22,748.478 C181.22,746.103 181.595,743.728 182.361,741.353 C183.111,738.978 184.064,736.791 185.298,734.885 C186.533,732.994 188.252,731.275 190.236,729.853 C192.236,728.431 194.517,727.478 197.08,727.01 C197.658,726.806 198.314,726.713 198.986,726.713 C199.455,726.806 199.939,726.806 200.408,726.9 C201.642,727.103 202.97,727.385 204.298,727.76 C205.627,728.041 206.97,728.525 208.298,729.181 L212.283,730.9 C213.611,731.463 214.939,731.853 216.173,732.322 C217.408,732.791 218.642,732.994 219.877,733.088 C220.267,733.181 220.642,733.181 220.923,733.181 C221.689,733.088 222.455,732.994 223.111,732.9 C224.064,732.697 224.923,732.135 225.767,731.275 C226.627,730.416 227.392,729.385 227.861,727.947 C228.048,727.291 228.142,726.713 228.142,726.15 C228.252,725.666 228.142,725.197 227.955,724.728 C227.767,724.244 227.486,723.869 227.205,723.494 C226.908,723.01 226.533,722.728 226.064,722.353 C225.58,721.963 225.205,721.588 224.83,721.306 C224.439,721.025 223.877,720.635 223.392,720.353 C217.502,716.65 212.095,714.838 207.064,714.838 C206.205,714.838 205.439,714.931 204.595,715.025"/>
<path class="Harmony" d="M908.788,715.025 C905.553,715.51 902.319,716.463 899.194,717.978 C896.053,719.494 893.194,721.4 890.631,723.681 C888.069,725.963 885.694,728.525 883.506,731.463 C881.319,734.416 879.616,737.447 878.194,740.588 C876.772,743.728 875.819,747.041 875.241,750.556 C874.959,752.463 874.772,754.369 874.772,756.166 C874.772,757.681 874.866,759.213 875.053,760.635 C875.538,763.572 876.381,766.525 877.709,769.275 C879.053,772.041 880.569,774.603 882.459,776.978 C884.366,779.353 886.741,781.338 889.303,783.15 C891.866,784.947 894.428,786.291 897.194,787.228 C899.756,788.088 902.413,788.556 905.366,788.556 L905.647,788.556 L905.928,788.556 C909.069,788.463 912.1,787.9 915.053,786.76 C915.913,786.478 916.756,786.181 917.616,785.806 C918.475,785.431 919.428,784.947 920.663,784.291 C921.897,783.619 922.944,783.056 923.975,782.385 C925.022,781.728 925.975,780.963 926.928,780.103 C927.881,779.26 928.631,778.306 929.116,777.447 C929.584,776.588 929.866,775.744 929.866,774.697 C929.772,773.65 929.397,772.603 928.725,771.556 C928.444,771.088 927.975,770.791 927.491,770.603 C927.022,770.416 926.444,770.322 925.975,770.416 C925.506,770.51 925.022,770.697 924.459,770.994 C923.881,771.275 923.319,771.556 922.834,771.744 C922.366,771.931 921.897,772.228 921.319,772.603 C920.756,772.978 920.366,773.275 920.084,773.369 C916.756,775.166 913.538,776.119 910.209,776.119 C907.163,776.119 904.225,775.353 901.272,773.838 C898.522,772.416 895.959,770.791 893.678,768.9 C891.397,766.994 889.678,764.9 888.444,762.525 C887.413,760.353 886.553,758.072 886.069,755.697 C885.6,753.51 885.413,751.416 885.413,749.228 L885.413,748.478 C885.413,746.103 885.788,743.728 886.553,741.353 C887.303,738.978 888.256,736.791 889.491,734.885 C890.725,732.994 892.444,731.275 894.428,729.853 C896.428,728.431 898.709,727.478 901.272,727.01 C901.85,726.806 902.506,726.713 903.178,726.713 C903.647,726.806 904.131,726.806 904.6,726.9 C905.834,727.103 907.163,727.385 908.491,727.76 C909.819,728.041 911.163,728.525 912.491,729.181 L916.475,730.9 C917.803,731.463 919.131,731.853 920.366,732.322 C921.6,732.791 922.834,732.994 924.069,733.088 C924.459,733.181 924.834,733.181 925.116,733.181 C925.881,733.088 926.647,732.994 927.303,732.9 C928.256,732.697 929.116,732.135 929.959,731.275 C930.819,730.416 931.584,729.385 932.053,727.947 C932.241,727.291 932.334,726.713 932.334,726.15 C932.444,725.666 932.334,725.197 932.147,724.728 C931.959,724.244 931.678,723.869 931.397,723.494 C931.1,723.01 930.725,722.728 930.256,722.353 C929.772,721.963 929.397,721.588 929.022,721.306 C928.631,721.025 928.069,720.635 927.584,720.353 C921.694,716.65 916.288,714.838 911.256,714.838 C910.397,714.838 909.631,714.931 908.788,715.025"/>
<path class="Harmony" d="M1616.92,715.228 C1613.21,715.697 1609.7,716.556 1606.28,717.791 C1602.85,719.025 1599.71,720.728 1596.68,722.728 C1593.64,724.728 1590.89,727.01 1588.51,729.572 C1586.14,732.135 1584.14,735.072 1582.43,738.4 C1580.71,741.728 1579.57,745.244 1578.92,748.947 C1578.43,751.228 1578.25,753.603 1578.25,755.978 L1578.25,756.65 C1578.25,758.916 1578.34,761.103 1578.62,763.291 C1578.92,765.666 1579.48,768.041 1580.25,770.228 C1581.1,772.51 1582.04,774.697 1583.09,776.681 C1584.14,778.681 1585.46,780.494 1587,782.103 C1588.51,783.713 1590.4,785.041 1592.31,786.181 C1594.21,787.322 1596.39,788.181 1598.76,788.666 C1600.39,788.947 1602,789.135 1603.62,789.135 C1604.46,789.135 1605.42,789.135 1606.46,789.041 C1609.4,788.76 1612.17,788.088 1614.73,787.135 C1617.29,786.181 1619.67,785.041 1621.67,783.713 C1623.65,782.385 1625.65,780.681 1627.46,778.775 C1629.26,776.885 1630.98,774.791 1632.4,772.697 C1633.82,770.603 1635.15,768.228 1636.57,765.572 C1638.76,761.197 1639.81,757.494 1639.81,754.556 C1639.81,751.603 1638.76,749.322 1636.57,747.713 C1635.34,746.666 1633.26,746.01 1630.5,745.525 C1628.51,745.244 1626.51,745.056 1624.51,745.056 L1624.04,745.056 L1621.95,745.056 C1619.01,745.15 1616.25,745.619 1613.59,746.478 C1610.93,747.338 1609.12,748.385 1608.17,749.619 C1607.89,750.088 1607.6,750.463 1607.32,750.853 C1606.65,751.9 1606.28,752.838 1606.28,753.697 C1606.28,754.931 1607.14,755.791 1608.75,756.26 C1610.07,756.65 1612.64,756.838 1616.34,756.838 L1617.2,756.838 C1618.43,756.931 1619.39,756.931 1620.04,756.931 C1623.95,756.931 1626.32,757.4 1627.07,758.447 C1627.37,758.822 1627.65,759.4 1627.65,759.963 C1627.65,760.541 1627.56,761.103 1627.46,761.681 C1627.37,762.244 1627.07,762.916 1626.79,763.666 C1626.51,764.431 1626.23,765.01 1625.93,765.478 C1625.65,765.947 1625.37,766.619 1625,767.385 C1624.6,768.135 1624.32,768.525 1624.23,768.713 C1623.76,769.556 1623.46,770.228 1623.18,770.697 C1622.9,771.181 1622.51,771.65 1622.04,772.322 C1621.57,772.978 1621,773.556 1620.53,773.931 C1618.53,775.447 1616.34,776.494 1613.78,776.978 L1610.54,777.353 L1610.17,777.353 C1608.93,777.26 1607.6,777.166 1606.37,776.885 C1604,776.4 1601.62,775.541 1599.43,774.213 C1597.25,772.885 1595.35,771.275 1593.92,769.369 C1592.5,767.385 1591.17,765.01 1590.21,762.338 C1589.26,759.681 1588.7,756.931 1588.51,753.978 C1588.42,752.931 1588.42,751.994 1588.42,750.947 C1588.42,749.041 1588.51,747.15 1588.79,745.338 C1589.26,742.588 1590.12,739.916 1591.45,737.447 C1592.78,734.978 1594.5,732.994 1596.59,731.463 C1599.15,729.478 1602.28,728.041 1605.89,727.103 C1607.89,726.525 1609.89,726.244 1611.78,726.244 C1613.12,726.244 1614.45,726.431 1615.68,726.713 C1616.73,727.01 1617.76,727.385 1619.01,727.947 C1620.25,728.525 1621.28,729.088 1622.23,729.666 C1623.18,730.228 1624.23,730.806 1625.28,731.369 C1626.32,731.947 1627.37,732.416 1628.31,732.603 C1629.26,732.791 1630.21,732.9 1631.17,732.791 C1632.12,732.697 1633.06,732.228 1634.01,731.369 C1634.96,730.525 1635.82,729.385 1636.67,727.947 C1637.15,727.103 1637.43,726.244 1637.43,725.385 C1637.43,724.728 1637.25,724.15 1636.96,723.494 C1636.2,722.056 1634.96,720.822 1633.26,719.775 C1631.54,718.744 1629.75,717.791 1627.65,717.025 C1625.56,716.26 1623.56,715.791 1621.57,715.51 C1620.14,715.228 1619.01,715.135 1618.06,715.135 C1617.57,715.135 1617.2,715.135 1616.92,715.228"/>
<path class="Harmony" d="M2321.11,715.228 C2317.41,715.697 2313.89,716.556 2310.47,717.791 C2307.05,719.025 2303.91,720.728 2300.88,722.728 C2297.83,724.728 2295.08,727.01 2292.7,729.572 C2290.33,732.135 2288.33,735.072 2286.63,738.4 C2284.91,741.728 2283.77,745.244 2283.11,748.947 C2282.63,751.228 2282.44,753.603 2282.44,755.978 L2282.44,756.65 C2282.44,758.916 2282.53,761.103 2282.81,763.291 C2283.11,765.666 2283.67,768.041 2284.44,770.228 C2285.3,772.51 2286.23,774.697 2287.28,776.681 C2288.33,778.681 2289.66,780.494 2291.19,782.103 C2292.7,783.713 2294.59,785.041 2296.5,786.181 C2298.41,787.322 2300.58,788.181 2302.95,788.666 C2304.58,788.947 2306.19,789.135 2307.81,789.135 C2308.66,789.135 2309.61,789.135 2310.66,789.041 C2313.59,788.76 2316.36,788.088 2318.92,787.135 C2321.48,786.181 2323.86,785.041 2325.86,783.713 C2327.84,782.385 2329.84,780.681 2331.66,778.775 C2333.45,776.885 2335.17,774.791 2336.59,772.697 C2338.02,770.603 2339.34,768.228 2340.77,765.572 C2342.95,761.197 2344,757.494 2344,754.556 C2344,751.603 2342.95,749.322 2340.77,747.713 C2339.53,746.666 2337.45,746.01 2334.69,745.525 C2332.7,745.244 2330.7,745.056 2328.7,745.056 L2328.23,745.056 L2326.14,745.056 C2323.2,745.15 2320.44,745.619 2317.78,746.478 C2315.13,747.338 2313.31,748.385 2312.36,749.619 C2312.08,750.088 2311.8,750.463 2311.52,750.853 C2310.84,751.9 2310.47,752.838 2310.47,753.697 C2310.47,754.931 2311.33,755.791 2312.94,756.26 C2314.27,756.65 2316.83,756.838 2320.53,756.838 L2321.39,756.838 C2322.63,756.931 2323.58,756.931 2324.23,756.931 C2328.14,756.931 2330.52,757.4 2331.27,758.447 C2331.56,758.822 2331.84,759.4 2331.84,759.963 C2331.84,760.541 2331.75,761.103 2331.66,761.681 C2331.56,762.244 2331.27,762.916 2330.98,763.666 C2330.7,764.431 2330.42,765.01 2330.13,765.478 C2329.84,765.947 2329.56,766.619 2329.19,767.385 C2328.8,768.135 2328.52,768.525 2328.42,768.713 C2327.95,769.556 2327.66,770.228 2327.38,770.697 C2327.09,771.181 2326.7,771.65 2326.23,772.322 C2325.77,772.978 2325.19,773.556 2324.72,773.931 C2322.72,775.447 2320.53,776.494 2317.97,776.978 L2314.73,777.353 L2314.36,777.353 C2313.13,777.26 2311.8,777.166 2310.56,776.885 C2308.19,776.4 2305.81,775.541 2303.63,774.213 C2301.44,772.885 2299.55,771.275 2298.11,769.369 C2296.69,767.385 2295.36,765.01 2294.41,762.338 C2293.45,759.681 2292.89,756.931 2292.7,753.978 C2292.61,752.931 2292.61,751.994 2292.61,750.947 C2292.61,749.041 2292.7,747.15 2292.98,745.338 C2293.45,742.588 2294.31,739.916 2295.64,737.447 C2296.97,734.978 2298.69,732.994 2300.78,731.463 C2303.34,729.478 2306.47,728.041 2310.08,727.103 C2312.08,726.525 2314.08,726.244 2315.97,726.244 C2317.31,726.244 2318.64,726.431 2319.88,726.713 C2320.92,727.01 2321.95,727.385 2323.2,727.947 C2324.44,728.525 2325.47,729.088 2326.42,729.666 C2327.38,730.228 2328.42,730.806 2329.47,731.369 C2330.52,731.947 2331.56,732.416 2332.5,732.603 C2333.45,732.791 2334.41,732.9 2335.36,732.791 C2336.31,732.697 2337.25,732.228 2338.2,731.369 C2339.16,730.525 2340.02,729.385 2340.86,727.947 C2341.34,727.103 2341.63,726.244 2341.63,725.385 C2341.63,724.728 2341.44,724.15 2341.16,723.494 C2340.39,722.056 2339.16,720.822 2337.45,719.775 C2335.73,718.744 2333.94,717.791 2331.84,717.025 C2329.75,716.26 2327.75,715.791 2325.77,715.51 C2324.33,715.228 2323.2,715.135 2322.25,715.135 C2321.77,715.135 2321.39,715.135 2321.11,715.228"/>
<path class="Harmony" d="M187.627,1046.56 C187.158,1046.65 186.392,1046.75 185.158,1046.86 C183.923,1046.95 182.97,1047.14 182.314,1047.23 C181.642,1047.32 180.689,1047.42 179.548,1047.61 C178.408,1047.79 177.564,1048.09 176.798,1048.37 C176.033,1048.65 175.189,1049.03 174.423,1049.51 C173.658,1049.98 173.002,1050.46 172.517,1051.12 C171.861,1051.79 171.377,1052.54 171.002,1053.31 C170.627,1054.07 170.345,1055.01 170.236,1055.96 C170.142,1056.64 170.142,1057.29 170.142,1057.96 L170.142,1058.53 C170.236,1059.2 170.236,1060.15 170.345,1061.29 C170.439,1062.43 170.439,1063.37 170.439,1064.04 C170.439,1074.87 170.72,1085.51 171.189,1096.06 C171.283,1096.62 171.283,1097.2 171.283,1097.87 C171.189,1099.86 171.095,1102.51 170.908,1105.65 C170.627,1109.36 170.439,1112.12 170.439,1113.92 L170.439,1114.5 L170.439,1116.11 C170.439,1116.57 170.627,1117.06 170.72,1117.62 C170.814,1118.2 171.002,1118.67 171.283,1118.95 C171.58,1119.25 171.861,1119.53 172.33,1119.81 C172.72,1120 173.189,1120.09 173.752,1120.09 L174.048,1120.09 C177.361,1120 180.689,1119.34 184.017,1118.11 C187.345,1116.87 190.486,1115.34 193.423,1113.36 C196.377,1111.36 199.127,1108.98 201.783,1106.23 C204.439,1103.46 206.72,1100.62 208.627,1097.57 C210.517,1094.54 212.142,1091.4 213.377,1088.07 C214.611,1084.75 215.267,1081.43 215.47,1078.29 C215.564,1077.62 215.564,1076.87 215.564,1076.2 C215.564,1074.4 215.377,1072.5 214.986,1070.61 C214.517,1067.93 213.752,1065.28 212.705,1062.81 C211.658,1060.34 210.33,1058.06 208.627,1055.87 C206.908,1053.68 205.017,1051.89 202.923,1050.37 C200.83,1048.84 198.548,1047.7 195.892,1047.04 C194.189,1046.56 192.377,1046.37 190.58,1046.37 C189.627,1046.37 188.673,1046.46 187.627,1046.56 M181.736,1107.93 C181.736,1105.18 181.83,1101.18 181.923,1096.06 C182.017,1091.98 182.111,1088.07 182.111,1084.56 C182.111,1083.71 182.017,1082.86 182.017,1082 C182.017,1077.82 181.923,1073.73 181.736,1069.93 C181.736,1069.46 181.642,1068.61 181.455,1067.18 C181.267,1065.75 180.986,1064.42 180.877,1063.18 C180.783,1062.62 180.783,1062.04 180.783,1061.48 C180.783,1060.81 180.783,1060.25 180.877,1059.57 C181.08,1058.34 181.455,1057.39 182.111,1056.92 C182.97,1056.25 183.923,1055.96 184.97,1055.96 C185.252,1056.06 185.533,1056.06 185.83,1056.06 C187.252,1056.25 188.767,1056.73 190.377,1057.59 C192.002,1058.43 193.517,1059.57 194.939,1060.71 C196.377,1061.86 197.705,1063 198.752,1064.14 C199.783,1065.28 200.642,1066.14 201.127,1067 C202.642,1069.46 203.689,1072.21 204.252,1075.25 C204.533,1076.96 204.736,1078.67 204.736,1080.39 C204.736,1081.62 204.627,1082.86 204.533,1084.09 C204.064,1087.03 203.205,1089.89 201.97,1092.64 C200.736,1095.39 199.127,1097.87 197.22,1100.04 C195.236,1102.23 192.955,1103.95 190.283,1105.37 C187.627,1106.79 184.783,1107.65 181.736,1107.93"/>
<path class="Harmony" d="M869.157,1046.56 C868.689,1046.65 867.923,1046.75 866.689,1046.86 C865.454,1046.95 864.501,1047.14 863.845,1047.23 C863.173,1047.32 862.22,1047.42 861.079,1047.61 C859.939,1047.79 859.095,1048.09 858.329,1048.37 C857.564,1048.65 856.72,1049.03 855.954,1049.51 C855.189,1049.98 854.532,1050.46 854.048,1051.12 C853.392,1051.79 852.907,1052.54 852.532,1053.31 C852.157,1054.07 851.876,1055.01 851.767,1055.96 C851.673,1056.64 851.673,1057.29 851.673,1057.96 L851.673,1058.53 C851.767,1059.2 851.767,1060.15 851.876,1061.29 C851.97,1062.43 851.97,1063.37 851.97,1064.04 C851.97,1074.87 852.251,1085.51 852.72,1096.06 C852.814,1096.62 852.814,1097.2 852.814,1097.87 C852.72,1099.86 852.626,1102.51 852.439,1105.65 C852.157,1109.36 851.97,1112.12 851.97,1113.92 L851.97,1114.5 L851.97,1116.11 C851.97,1116.57 852.157,1117.06 852.251,1117.62 C852.345,1118.2 852.532,1118.67 852.814,1118.95 C853.11,1119.25 853.392,1119.53 853.86,1119.81 C854.251,1120 854.72,1120.09 855.282,1120.09 L855.579,1120.09 C858.892,1120 862.22,1119.34 865.548,1118.11 C868.876,1116.87 872.017,1115.34 874.954,1113.36 C877.907,1111.36 880.657,1108.98 883.314,1106.23 C885.97,1103.46 888.251,1100.62 890.157,1097.57 C892.048,1094.54 893.673,1091.4 894.907,1088.07 C896.142,1084.75 896.798,1081.43 897.001,1078.29 C897.095,1077.62 897.095,1076.87 897.095,1076.2 C897.095,1074.4 896.907,1072.5 896.517,1070.61 C896.048,1067.93 895.282,1065.28 894.235,1062.81 C893.189,1060.34 891.86,1058.06 890.157,1055.87 C888.439,1053.68 886.548,1051.89 884.454,1050.37 C882.36,1048.84 880.079,1047.7 877.423,1047.04 C875.72,1046.56 873.907,1046.37 872.11,1046.37 C871.157,1046.37 870.204,1046.46 869.157,1046.56 M863.267,1107.93 C863.267,1105.18 863.36,1101.18 863.454,1096.06 C863.548,1091.98 863.642,1088.07 863.642,1084.56 C863.642,1083.71 863.548,1082.86 863.548,1082 C863.548,1077.82 863.454,1073.73 863.267,1069.93 C863.267,1069.46 863.173,1068.61 862.985,1067.18 C862.798,1065.75 862.517,1064.42 862.407,1063.18 C862.314,1062.62 862.314,1062.04 862.314,1061.48 C862.314,1060.81 862.314,1060.25 862.407,1059.57 C862.61,1058.34 862.985,1057.39 863.642,1056.92 C864.501,1056.25 865.454,1055.96 866.501,1055.96 C866.782,1056.06 867.064,1056.06 867.36,1056.06 C868.782,1056.25 870.298,1056.73 871.907,1057.59 C873.532,1058.43 875.048,1059.57 876.47,1060.71 C877.907,1061.86 879.235,1063 880.282,1064.14 C881.314,1065.28 882.173,1066.14 882.657,1067 C884.173,1069.46 885.22,1072.21 885.782,1075.25 C886.064,1076.96 886.267,1078.67 886.267,1080.39 C886.267,1081.62 886.157,1082.86 886.064,1084.09 C885.595,1087.03 884.735,1089.89 883.501,1092.64 C882.267,1095.39 880.657,1097.87 878.751,1100.04 C876.767,1102.23 874.485,1103.95 871.814,1105.37 C869.157,1106.79 866.314,1107.65 863.267,1107.93"/>
<path class="Harmony" d="M1587.72,1046.95 C1584.01,1047.42 1580.5,1048.28 1577.08,1049.51 C1573.65,1050.75 1570.51,1052.45 1567.48,1054.45 C1564.44,1056.45 1561.69,1058.73 1559.31,1061.29 C1556.94,1063.86 1554.94,1066.79 1553.23,1070.12 C1551.51,1073.45 1550.37,1076.96 1549.72,1080.67 C1549.23,1082.95 1549.04,1085.32 1549.04,1087.7 L1549.04,1088.37 C1549.04,1090.64 1549.14,1092.82 1549.42,1095.01 C1549.72,1097.39 1550.28,1099.76 1551.04,1101.95 C1551.9,1104.23 1552.84,1106.42 1553.89,1108.4 C1554.94,1110.4 1556.26,1112.21 1557.79,1113.82 C1559.31,1115.43 1561.2,1116.76 1563.11,1117.9 C1565.01,1119.04 1567.19,1119.9 1569.56,1120.39 C1571.19,1120.67 1572.79,1120.86 1574.42,1120.86 C1575.26,1120.86 1576.22,1120.86 1577.26,1120.76 C1580.2,1120.48 1582.97,1119.81 1585.53,1118.86 C1588.09,1117.9 1590.47,1116.76 1592.47,1115.43 C1594.45,1114.11 1596.45,1112.4 1598.26,1110.5 C1600.06,1108.61 1601.78,1106.51 1603.2,1104.42 C1604.62,1102.32 1605.95,1099.95 1607.37,1097.29 C1609.56,1092.92 1610.61,1089.21 1610.61,1086.28 C1610.61,1083.32 1609.56,1081.04 1607.37,1079.43 C1606.14,1078.39 1604.06,1077.73 1601.29,1077.25 C1599.31,1076.96 1597.31,1076.78 1595.31,1076.78 L1594.84,1076.78 L1592.75,1076.78 C1589.81,1076.87 1587.04,1077.34 1584.39,1078.2 C1581.73,1079.06 1579.92,1080.11 1578.97,1081.34 C1578.69,1081.81 1578.4,1082.18 1578.12,1082.57 C1577.45,1083.62 1577.08,1084.56 1577.08,1085.42 C1577.08,1086.65 1577.94,1087.51 1579.54,1087.98 C1580.87,1088.37 1583.44,1088.56 1587.14,1088.56 L1588,1088.56 C1589.23,1088.65 1590.19,1088.65 1590.84,1088.65 C1594.75,1088.65 1597.12,1089.12 1597.87,1090.17 C1598.17,1090.54 1598.45,1091.12 1598.45,1091.68 C1598.45,1092.26 1598.36,1092.82 1598.26,1093.4 C1598.17,1093.96 1597.87,1094.64 1597.59,1095.39 C1597.31,1096.15 1597.03,1096.73 1596.73,1097.2 C1596.45,1097.67 1596.17,1098.34 1595.79,1099.11 C1595.4,1099.86 1595.12,1100.25 1595.03,1100.43 C1594.56,1101.28 1594.26,1101.95 1593.98,1102.42 C1593.7,1102.9 1593.31,1103.37 1592.84,1104.04 C1592.37,1104.7 1591.79,1105.28 1591.33,1105.65 C1589.33,1107.17 1587.14,1108.21 1584.58,1108.7 L1581.34,1109.07 L1580.97,1109.07 C1579.73,1108.98 1578.4,1108.89 1577.17,1108.61 C1574.79,1108.12 1572.42,1107.26 1570.23,1105.93 C1568.04,1104.61 1566.15,1103 1564.72,1101.09 C1563.29,1099.11 1561.97,1096.73 1561.01,1094.06 C1560.06,1091.4 1559.5,1088.65 1559.31,1085.7 C1559.22,1084.65 1559.22,1083.71 1559.22,1082.67 C1559.22,1080.76 1559.31,1078.87 1559.59,1077.06 C1560.06,1074.31 1560.92,1071.64 1562.25,1069.17 C1563.58,1066.7 1565.29,1064.71 1567.39,1063.18 C1569.95,1061.2 1573.08,1059.76 1576.69,1058.82 C1578.69,1058.25 1580.69,1057.96 1582.58,1057.96 C1583.92,1057.96 1585.25,1058.15 1586.48,1058.43 C1587.53,1058.73 1588.56,1059.11 1589.81,1059.67 C1591.04,1060.25 1592.08,1060.81 1593.03,1061.39 C1593.98,1061.95 1595.03,1062.53 1596.08,1063.09 C1597.12,1063.67 1598.17,1064.14 1599.11,1064.32 C1600.06,1064.51 1601.01,1064.62 1601.97,1064.51 C1602.92,1064.42 1603.86,1063.95 1604.81,1063.09 C1605.76,1062.25 1606.62,1061.11 1607.47,1059.67 C1607.95,1058.82 1608.23,1057.96 1608.23,1057.11 C1608.23,1056.45 1608.04,1055.87 1607.76,1055.21 C1607,1053.78 1605.76,1052.54 1604.06,1051.5 C1602.34,1050.46 1600.54,1049.51 1598.45,1048.75 C1596.36,1047.98 1594.36,1047.51 1592.37,1047.23 C1590.94,1046.95 1589.81,1046.86 1588.86,1046.86 C1588.37,1046.86 1588,1046.86 1587.72,1046.95"/>
<path class="Harmony" d="M2285.37,1046.95 C2281.67,1047.42 2278.15,1048.28 2274.73,1049.51 C2271.31,1050.75 2268.17,1052.45 2265.13,1054.45 C2262.09,1056.45 2259.34,1058.73 2256.96,1061.29 C2254.59,1063.86 2252.59,1066.79 2250.88,1070.12 C2249.17,1073.45 2248.03,1076.96 2247.37,1080.67 C2246.88,1082.95 2246.7,1085.32 2246.7,1087.7 L2246.7,1088.37 C2246.7,1090.64 2246.79,1092.82 2247.07,1095.01 C2247.37,1097.39 2247.93,1099.76 2248.7,1101.95 C2249.56,1104.23 2250.49,1106.42 2251.54,1108.4 C2252.59,1110.4 2253.92,1112.21 2255.45,1113.82 C2256.96,1115.43 2258.85,1116.76 2260.76,1117.9 C2262.67,1119.04 2264.84,1119.9 2267.21,1120.39 C2268.84,1120.67 2270.45,1120.86 2272.07,1120.86 C2272.92,1120.86 2273.87,1120.86 2274.92,1120.76 C2277.85,1120.48 2280.62,1119.81 2283.18,1118.86 C2285.74,1117.9 2288.12,1116.76 2290.12,1115.43 C2292.1,1114.11 2294.1,1112.4 2295.92,1110.5 C2297.71,1108.61 2299.43,1106.51 2300.85,1104.42 C2302.28,1102.32 2303.6,1099.95 2305.03,1097.29 C2307.21,1092.92 2308.26,1089.21 2308.26,1086.28 C2308.26,1083.32 2307.21,1081.04 2305.03,1079.43 C2303.79,1078.39 2301.71,1077.73 2298.95,1077.25 C2296.96,1076.96 2294.96,1076.78 2292.96,1076.78 L2292.49,1076.78 L2290.4,1076.78 C2287.46,1076.87 2284.7,1077.34 2282.04,1078.2 C2279.38,1079.06 2277.57,1080.11 2276.62,1081.34 C2276.34,1081.81 2276.06,1082.18 2275.78,1082.57 C2275.1,1083.62 2274.73,1084.56 2274.73,1085.42 C2274.73,1086.65 2275.59,1087.51 2277.2,1087.98 C2278.53,1088.37 2281.09,1088.56 2284.79,1088.56 L2285.65,1088.56 C2286.88,1088.65 2287.84,1088.65 2288.49,1088.65 C2292.4,1088.65 2294.78,1089.12 2295.53,1090.17 C2295.82,1090.54 2296.1,1091.12 2296.1,1091.68 C2296.1,1092.26 2296.01,1092.82 2295.92,1093.4 C2295.82,1093.96 2295.53,1094.64 2295.24,1095.39 C2294.96,1096.15 2294.68,1096.73 2294.38,1097.2 C2294.1,1097.67 2293.82,1098.34 2293.45,1099.11 C2293.06,1099.86 2292.78,1100.25 2292.68,1100.43 C2292.21,1101.28 2291.92,1101.95 2291.63,1102.42 C2291.35,1102.9 2290.96,1103.37 2290.49,1104.04 C2290.03,1104.7 2289.45,1105.28 2288.98,1105.65 C2286.98,1107.17 2284.79,1108.21 2282.23,1108.7 L2278.99,1109.07 L2278.62,1109.07 C2277.38,1108.98 2276.06,1108.89 2274.82,1108.61 C2272.45,1108.12 2270.07,1107.26 2267.88,1105.93 C2265.7,1104.61 2263.81,1103 2262.37,1101.09 C2260.95,1099.11 2259.62,1096.73 2258.67,1094.06 C2257.71,1091.4 2257.15,1088.65 2256.96,1085.7 C2256.87,1084.65 2256.87,1083.71 2256.87,1082.67 C2256.87,1080.76 2256.96,1078.87 2257.24,1077.06 C2257.71,1074.31 2258.57,1071.64 2259.9,1069.17 C2261.23,1066.7 2262.95,1064.71 2265.04,1063.18 C2267.6,1061.2 2270.73,1059.76 2274.34,1058.82 C2276.34,1058.25 2278.34,1057.96 2280.23,1057.96 C2281.57,1057.96 2282.9,1058.15 2284.13,1058.43 C2285.18,1058.73 2286.21,1059.11 2287.46,1059.67 C2288.7,1060.25 2289.73,1060.81 2290.68,1061.39 C2291.63,1061.95 2292.68,1062.53 2293.73,1063.09 C2294.78,1063.67 2295.82,1064.14 2296.76,1064.32 C2297.71,1064.51 2298.67,1064.62 2299.62,1064.51 C2300.57,1064.42 2301.51,1063.95 2302.46,1063.09 C2303.42,1062.25 2304.28,1061.11 2305.12,1059.67 C2305.6,1058.82 2305.88,1057.96 2305.88,1057.11 C2305.88,1056.45 2305.7,1055.87 2305.42,1055.21 C2304.65,1053.78 2303.42,1052.54 2301.71,1051.5 C2299.99,1050.46 2298.2,1049.51 2296.1,1048.75 C2294.01,1047.98 2292.01,1047.51 2290.03,1047.23 C2288.59,1046.95 2287.46,1046.86 2286.51,1046.86 C2286.03,1046.86 2285.65,1046.86 2285.37,1046.95"/>
<path class="VoltaSegment" d="M1935.92,317.767 L1934,317.767 C1930.53,320.361 1926.62,321.455 1920.07,321.564 L1920.07,324.642 L1922.39,324.642 C1927.28,324.642 1927.34,324.752 1927.28,329.267 L1927.28,348.783 C1927.28,352.189 1927.28,352.361 1926.9,352.908 C1926.4,353.517 1925.29,353.736 1922.32,353.736 L1920.57,353.736 L1920.57,356.705 L1942.51,356.705 L1942.51,353.736 L1940.75,353.736 C1937.84,353.736 1936.79,353.517 1936.29,352.908 C1935.92,352.361 1935.92,352.142 1935.92,348.783 L1935.92,317.767 M1955.15,347.189 C1952.29,347.189 1949.98,349.502 1949.98,352.361 C1949.98,355.158 1952.29,357.533 1955.11,357.533 C1958.01,357.533 1960.32,355.22 1960.32,352.361 C1960.32,349.502 1958.01,347.189 1955.15,347.189"/>
<polyline class="VoltaSegment" fill="none" stroke="#000000" stroke-width="2.73" stroke-linecap="square" stroke-linejoin="bevel" points="1904.63,356.705 1904.63,302.138"/>
<polyline class="VoltaSegment" fill="none" stroke="#000000" stroke-width="2.73" stroke-linecap="square" stroke-linejoin="bevel" points="1904.63,302.138 2444.36,302.138"/>
<polyline class="VoltaSegment" fill="none" stroke="#000000" stroke-width="2.73" stroke-linecap="square" stroke-linejoin="bevel" points="2444.36,302.138 2444.36,356.705"/>
<path class="VoltaSegment" d="M2486.71,342.08 L2486.1,344.83 C2485.6,347.033 2485.28,347.736 2484.84,348.017 C2484.29,348.408 2484.18,348.408 2480.71,348.455 L2470.1,348.455 C2472.03,346.798 2473.46,345.767 2475.6,344.33 C2483.35,339.33 2484.95,338.111 2486.54,336.08 C2488.42,333.611 2489.51,330.689 2489.51,328.111 C2489.51,322.22 2483.74,317.767 2475.99,317.767 C2468.51,317.767 2462.73,322.611 2462.73,328.877 C2462.73,332.72 2464.89,335.205 2468.18,335.205 C2471.04,335.205 2472.85,333.392 2472.85,330.533 C2472.85,328.158 2471.81,326.783 2469.28,325.58 C2468.67,325.298 2468.4,324.97 2468.4,324.533 C2468.4,322.767 2471.37,320.908 2474.12,320.908 C2477.96,320.908 2480.17,323.267 2480.17,327.345 C2480.17,331.908 2478.4,335.142 2472.57,341.361 C2466.42,347.908 2464.28,350.377 2461.53,354.345 L2461.53,356.923 C2462.95,356.767 2463.56,356.705 2464.39,356.705 L2485.06,356.705 C2486.1,356.705 2486.76,356.767 2488.42,356.923 L2489.68,342.08 L2486.71,342.08 M2500.12,347.189 C2497.26,347.189 2494.95,349.502 2494.95,352.361 C2494.95,355.158 2497.26,357.533 2500.07,357.533 C2502.98,357.533 2505.29,355.22 2505.29,352.361 C2505.29,349.502 2502.98,347.189 2500.12,347.189"/>
<polyline class="VoltaSegment" fill="none" stroke="#000000" stroke-width="2.73" stroke-linecap="square" stroke-linejoin="bevel" points="2446.6,356.705 2446.6,302.138"/>
<polyline class="VoltaSegment" fill="none" stroke="#000000" stroke-width="2.73" stroke-linecap="square" stroke-linejoin="bevel" points="2446.6,302.138 2917.03,302.138"/>
<polyline class="VoltaSegment" fill="none" stroke="#000000" stroke-width="2.73" stroke-linecap="square" stroke-linejoin="bevel" points="2917.03,302.138 2917.03,356.705"/>
</svg>
