<?xml version="1.0" encoding="UTF-8" standalone="no"?>
<svg width="2976.38px" height="1417.32px" viewBox="0 0 2976.38 1417.32"
 xmlns="http://www.w3.org/2000/svg" xmlns:xlink="http://www.w3.org/1999/xlink" version="1.2" baseProfile="tiny">
<title>Rock_The_Cradle_Joe</title>
<desc>Generated by MuseScore 3.6.2</desc>
<polyline class="StaffLines" fill="none" stroke="#000000" stroke-width="2.73" stroke-linejoin="bevel" points="138.189,187.795 2933.86,187.795"/>
<polyline class="StaffLines" fill="none" stroke="#000000" stroke-width="2.73" stroke-linejoin="bevel" points="138.189,212.598 2933.86,212.598"/>
<polyline class="StaffLines" fill="none" stroke="#000000" stroke-width="2.73" stroke-linejoin="bevel" points="138.189,237.402 2933.86,237.402"/>
<polyline class="StaffLines" fill="none" stroke="#000000" stroke-width="2.73" stroke-linejoin="bevel" points="138.189,262.205 2933.86,262.205"/>
<polyline class="StaffLines" fill="none" stroke="#000000" stroke-width="2.73" stroke-linejoin="bevel" points="138.189,287.008 2933.86,287.008"/>
<polyline class="StaffLines" fill="none" stroke="#000000" stroke-width="2.73" stroke-linejoin="bevel" points="14.1732,497.835 2933.86,497.835"/>
<polyline class="StaffLines" fill="none" stroke="#000000" stroke-width="2.73" stroke-linejoin="bevel" points="14.1732,522.638 2933.86,522.638"/>
<polyline class="StaffLines" fill="none" stroke="#000000" stroke-width="2.73" stroke-linejoin="bevel" points="14.1732,547.441 2933.86,547.441"/>
<polyline class="StaffLines" fill="none" stroke="#000000" stroke-width="2.73" stroke-linejoin="bevel" points="14.1732,572.244 2933.86,572.244"/>
<polyline class="StaffLines" fill="none" stroke="#000000" stroke-width="2.73" stroke-linejoin="bevel" points="14.1732,597.047 2933.86,597.047"/>
<polyline class="StaffLines" fill="none" stroke="#000000" stroke-width="2.73" stroke-linejoin="bevel" points="14.1732,815.417 2933.86,815.417"/>
<polyline class="StaffLines" fill="none" stroke="#000000" stroke-width="2.73" stroke-linejoin="bevel" points="14.1732,840.22 2933.86,840.22"/>
<polyline class="StaffLines" fill="none" stroke="#000000" stroke-width="2.73" stroke-linejoin="bevel" points="14.1732,865.023 2933.86,865.023"/>
<polyline class="StaffLines" fill="none" stroke="#000000" stroke-width="2.73" stroke-linejoin="bevel" points="14.1732,889.826 2933.86,889.826"/>
<polyline class="StaffLines" fill="none" stroke="#000000" stroke-width="2.73" stroke-linejoin="bevel" points="14.1732,914.629 2933.86,914.629"/>
<polyline class="StaffLines" fill="none" stroke="#000000" stroke-width="2.73" stroke-linejoin="bevel" points="14.1732,1125.46 2933.86,1125.46"/>
<polyline class="StaffLines" fill="none" stroke="#000000" stroke-width="2.73" stroke-linejoin="bevel" points="14.1732,1150.26 2933.86,1150.26"/>
<polyline class="StaffLines" fill="none" stroke="#000000" stroke-width="2.73" stroke-linejoin="bevel" points="14.1732,1175.06 2933.86,1175.06"/>
<polyline class="StaffLines" fill="none" stroke="#000000" stroke-width="2.73" stroke-linejoin="bevel" points="14.1732,1199.87 2933.86,1199.87"/>
<polyline class="StaffLines" fill="none" stroke="#000000" stroke-width="2.73" stroke-linejoin="bevel" points="14.1732,1224.67 2933.86,1224.67"/>
<polyline class="BarLine" fill="none" stroke="#000000" stroke-width="4.46" stroke-linejoin="bevel" points="953.226,186.431 953.226,288.372"/>
<polyline class="BarLine" fill="none" stroke="#000000" stroke-width="4.46" stroke-linejoin="bevel" points="1612.69,186.431 1612.69,288.372"/>
<polyline class="BarLine" fill="none" stroke="#000000" stroke-width="4.46" stroke-linejoin="bevel" points="2272.16,186.431 2272.16,288.372"/>
<polyline class="BarLine" fill="none" stroke="#000000" stroke-width="4.46" stroke-linejoin="bevel" points="2931.63,186.431 2931.63,288.372"/>
<polyline class="BarLine" fill="none" stroke="#000000" stroke-width="4.46" stroke-linejoin="bevel" points="808.481,496.47 808.481,598.411"/>
<polyline class="BarLine" fill="none" stroke="#000000" stroke-width="4.46" stroke-linejoin="bevel" points="1502.1,496.47 1502.1,598.411"/>
<polyline class="BarLine" fill="none" stroke="#000000" stroke-width="4.46" stroke-linejoin="bevel" points="2195.73,496.47 2195.73,598.411"/>
<path class="BarLine" transform="matrix(0.992126,0,0,0.992126,2887.12,535.039)" d="M10.4063,0 C10.4063,-2.90625 8.09375,-5.29688 5.20313,-5.29688 C2.29688,-5.29688 0,-2.90625 0,0 C0,2.90625 2.29688,5.29688 5.20313,5.29688 C8.09375,5.29688 10.4063,2.90625 10.4063,0"/>
<path class="BarLine" transform="matrix(0.992126,0,0,0.992126,2887.12,559.843)" d="M10.4063,0 C10.4063,-2.90625 8.09375,-5.29688 5.20313,-5.29688 C2.29688,-5.29688 0,-2.90625 0,0 C0,2.90625 2.29688,5.29688 5.20313,5.29688 C8.09375,5.29688 10.4063,2.90625 10.4063,0"/>
<polyline class="BarLine" fill="none" stroke="#000000" stroke-width="4.46" stroke-linejoin="bevel" points="2909.64,496.47 2909.64,598.411"/>
<polyline class="BarLine" fill="none" stroke="#000000" stroke-width="13.64" stroke-linejoin="bevel" points="2927,496.47 2927,598.411"/>
<polyline class="BarLine" fill="none" stroke="#000000" stroke-width="4.46" stroke-linejoin="bevel" points="819.051,814.053 819.051,915.994"/>
<polyline class="BarLine" fill="none" stroke="#000000" stroke-width="4.46" stroke-linejoin="bevel" points="1523.24,814.053 1523.24,915.994"/>
<polyline class="BarLine" fill="none" stroke="#000000" stroke-width="4.46" stroke-linejoin="bevel" points="2227.44,814.053 2227.44,915.994"/>
<polyline class="BarLine" fill="none" stroke="#000000" stroke-width="4.46" stroke-linejoin="bevel" points="2931.63,814.053 2931.63,915.994"/>
<polyline class="BarLine" fill="none" stroke="#000000" stroke-width="4.46" stroke-linejoin="bevel" points="812.511,1124.09 812.511,1226.03"/>
<polyline class="BarLine" fill="none" stroke="#000000" stroke-width="4.46" stroke-linejoin="bevel" points="1494.04,1124.09 1494.04,1226.03"/>
<polyline class="BarLine" fill="none" stroke="#000000" stroke-width="4.46" stroke-linejoin="bevel" points="2191.69,1124.09 2191.69,1226.03"/>
<path class="BarLine" transform="matrix(0.992126,0,0,0.992126,2887.12,1162.66)" d="M10.4063,0 C10.4063,-2.90625 8.09375,-5.29688 5.20313,-5.29688 C2.29688,-5.29688 0,-2.90625 0,0 C0,2.90625 2.29688,5.29688 5.20313,5.29688 C8.09375,5.29688 10.4063,2.90625 10.4063,0"/>
<path class="BarLine" transform="matrix(0.992126,0,0,0.992126,2887.12,1187.46)" d="M10.4063,0 C10.4063,-2.90625 8.09375,-5.29688 5.20313,-5.29688 C2.29688,-5.29688 0,-2.90625 0,0 C0,2.90625 2.29688,5.29688 5.20313,5.29688 C8.09375,5.29688 10.4063,2.90625 10.4063,0"/>
<polyline class="BarLine" fill="none" stroke="#000000" stroke-width="4.46" stroke-linejoin="bevel" points="2909.64,1124.09 2909.64,1226.03"/>
<polyline class="BarLine" fill="none" stroke="#000000" stroke-width="13.64" stroke-linejoin="bevel" points="2927,1124.09 2927,1226.03"/>
<path class="Note" transform="matrix(0.992126,0,0,0.992126,338.405,237.402)" d="M43,-25 L0,25 L10,25 L53,-25 L43,-25 "/>
<path class="Note" transform="matrix(0.992126,0,0,0.992126,489.01,237.402)" d="M43,-25 L0,25 L10,25 L53,-25 L43,-25 "/>
<path class="Note" transform="matrix(0.992126,0,0,0.992126,639.615,237.402)" d="M43,-25 L0,25 L10,25 L53,-25 L43,-25 "/>
<path class="Note" transform="matrix(0.992126,0,0,0.992126,790.22,237.402)" d="M43,-25 L0,25 L10,25 L53,-25 L43,-25 "/>
<path class="Note" transform="matrix(0.992126,0,0,0.992126,997.872,237.402)" d="M43,-25 L0,25 L10,25 L53,-25 L43,-25 "/>
<path class="Note" transform="matrix(0.992126,0,0,0.992126,1148.48,237.402)" d="M43,-25 L0,25 L10,25 L53,-25 L43,-25 "/>
<path class="Note" transform="matrix(0.992126,0,0,0.992126,1299.08,237.402)" d="M43,-25 L0,25 L10,25 L53,-25 L43,-25 "/>
<path class="Note" transform="matrix(0.992126,0,0,0.992126,1449.69,237.402)" d="M43,-25 L0,25 L10,25 L53,-25 L43,-25 "/>
<path class="Note" transform="matrix(0.992126,0,0,0.992126,1657.34,237.402)" d="M43,-25 L0,25 L10,25 L53,-25 L43,-25 "/>
<path class="Note" transform="matrix(0.992126,0,0,0.992126,1807.94,237.402)" d="M43,-25 L0,25 L10,25 L53,-25 L43,-25 "/>
<path class="Note" transform="matrix(0.992126,0,0,0.992126,1958.55,237.402)" d="M43,-25 L0,25 L10,25 L53,-25 L43,-25 "/>
<path class="Note" transform="matrix(0.992126,0,0,0.992126,2109.15,237.402)" d="M43,-25 L0,25 L10,25 L53,-25 L43,-25 "/>
<path class="Note" transform="matrix(0.992126,0,0,0.992126,2316.81,237.402)" d="M43,-25 L0,25 L10,25 L53,-25 L43,-25 "/>
<path class="Note" transform="matrix(0.992126,0,0,0.992126,2467.41,237.402)" d="M43,-25 L0,25 L10,25 L53,-25 L43,-25 "/>
<path class="Note" transform="matrix(0.992126,0,0,0.992126,2618.02,237.402)" d="M43,-25 L0,25 L10,25 L53,-25 L43,-25 "/>
<path class="Note" transform="matrix(0.992126,0,0,0.992126,2768.62,237.402)" d="M43,-25 L0,25 L10,25 L53,-25 L43,-25 "/>
<path class="Note" transform="matrix(0.992126,0,0,0.992126,159.504,547.441)" d="M43,-25 L0,25 L10,25 L53,-25 L43,-25 "/>
<path class="Note" transform="matrix(0.992126,0,0,0.992126,318.648,547.441)" d="M43,-25 L0,25 L10,25 L53,-25 L43,-25 "/>
<path class="Note" transform="matrix(0.992126,0,0,0.992126,477.792,547.441)" d="M43,-25 L0,25 L10,25 L53,-25 L43,-25 "/>
<path class="Note" transform="matrix(0.992126,0,0,0.992126,636.935,547.441)" d="M43,-25 L0,25 L10,25 L53,-25 L43,-25 "/>
<path class="Note" transform="matrix(0.992126,0,0,0.992126,853.126,547.441)" d="M43,-25 L0,25 L10,25 L53,-25 L43,-25 "/>
<path class="Note" transform="matrix(0.992126,0,0,0.992126,1012.27,547.441)" d="M43,-25 L0,25 L10,25 L53,-25 L43,-25 "/>
<path class="Note" transform="matrix(0.992126,0,0,0.992126,1171.41,547.441)" d="M43,-25 L0,25 L10,25 L53,-25 L43,-25 "/>
<path class="Note" transform="matrix(0.992126,0,0,0.992126,1330.56,547.441)" d="M43,-25 L0,25 L10,25 L53,-25 L43,-25 "/>
<path class="Note" transform="matrix(0.992126,0,0,0.992126,1546.75,547.441)" d="M43,-25 L0,25 L10,25 L53,-25 L43,-25 "/>
<path class="Note" transform="matrix(0.992126,0,0,0.992126,1705.89,547.441)" d="M43,-25 L0,25 L10,25 L53,-25 L43,-25 "/>
<path class="Note" transform="matrix(0.992126,0,0,0.992126,1865.04,547.441)" d="M43,-25 L0,25 L10,25 L53,-25 L43,-25 "/>
<path class="Note" transform="matrix(0.992126,0,0,0.992126,2024.18,547.441)" d="M43,-25 L0,25 L10,25 L53,-25 L43,-25 "/>
<path class="Note" transform="matrix(0.992126,0,0,0.992126,2240.37,547.441)" d="M43,-25 L0,25 L10,25 L53,-25 L43,-25 "/>
<path class="Note" transform="matrix(0.992126,0,0,0.992126,2399.51,547.441)" d="M43,-25 L0,25 L10,25 L53,-25 L43,-25 "/>
<path class="Note" transform="matrix(0.992126,0,0,0.992126,2558.66,547.441)" d="M43,-25 L0,25 L10,25 L53,-25 L43,-25 "/>
<path class="Note" transform="matrix(0.992126,0,0,0.992126,2717.8,547.441)" d="M43,-25 L0,25 L10,25 L53,-25 L43,-25 "/>
<path class="Note" transform="matrix(0.992126,0,0,0.992126,159.504,865.023)" d="M43,-25 L0,25 L10,25 L53,-25 L43,-25 "/>
<path class="Note" transform="matrix(0.992126,0,0,0.992126,321.29,865.023)" d="M43,-25 L0,25 L10,25 L53,-25 L43,-25 "/>
<path class="Note" transform="matrix(0.992126,0,0,0.992126,483.077,865.023)" d="M43,-25 L0,25 L10,25 L53,-25 L43,-25 "/>
<path class="Note" transform="matrix(0.992126,0,0,0.992126,644.863,865.023)" d="M43,-25 L0,25 L10,25 L53,-25 L43,-25 "/>
<path class="Note" transform="matrix(0.992126,0,0,0.992126,863.696,865.023)" d="M43,-25 L0,25 L10,25 L53,-25 L43,-25 "/>
<path class="Note" transform="matrix(0.992126,0,0,0.992126,1025.48,865.023)" d="M43,-25 L0,25 L10,25 L53,-25 L43,-25 "/>
<path class="Note" transform="matrix(0.992126,0,0,0.992126,1187.27,865.023)" d="M43,-25 L0,25 L10,25 L53,-25 L43,-25 "/>
<path class="Note" transform="matrix(0.992126,0,0,0.992126,1349.06,865.023)" d="M43,-25 L0,25 L10,25 L53,-25 L43,-25 "/>
<path class="Note" transform="matrix(0.992126,0,0,0.992126,1567.89,865.023)" d="M43,-25 L0,25 L10,25 L53,-25 L43,-25 "/>
<path class="Note" transform="matrix(0.992126,0,0,0.992126,1729.67,865.023)" d="M43,-25 L0,25 L10,25 L53,-25 L43,-25 "/>
<path class="Note" transform="matrix(0.992126,0,0,0.992126,1891.46,865.023)" d="M43,-25 L0,25 L10,25 L53,-25 L43,-25 "/>
<path class="Note" transform="matrix(0.992126,0,0,0.992126,2053.25,865.023)" d="M43,-25 L0,25 L10,25 L53,-25 L43,-25 "/>
<path class="Note" transform="matrix(0.992126,0,0,0.992126,2272.08,865.023)" d="M43,-25 L0,25 L10,25 L53,-25 L43,-25 "/>
<path class="Note" transform="matrix(0.992126,0,0,0.992126,2433.87,865.023)" d="M43,-25 L0,25 L10,25 L53,-25 L43,-25 "/>
<path class="Note" transform="matrix(0.992126,0,0,0.992126,2595.65,865.023)" d="M43,-25 L0,25 L10,25 L53,-25 L43,-25 "/>
<path class="Note" transform="matrix(0.992126,0,0,0.992126,2757.44,865.023)" d="M43,-25 L0,25 L10,25 L53,-25 L43,-25 "/>
<path class="Note" transform="matrix(0.992126,0,0,0.992126,159.504,1175.06)" d="M43,-25 L0,25 L10,25 L53,-25 L43,-25 "/>
<path class="Note" transform="matrix(0.992126,0,0,0.992126,319.656,1175.06)" d="M43,-25 L0,25 L10,25 L53,-25 L43,-25 "/>
<path class="Note" transform="matrix(0.992126,0,0,0.992126,479.807,1175.06)" d="M43,-25 L0,25 L10,25 L53,-25 L43,-25 "/>
<path class="Note" transform="matrix(0.992126,0,0,0.992126,639.958,1175.06)" d="M43,-25 L0,25 L10,25 L53,-25 L43,-25 "/>
<path class="Note" transform="matrix(0.992126,0,0,0.992126,841.035,1175.06)" d="M43,-25 L0,25 L10,25 L53,-25 L43,-25 "/>
<path class="Note" transform="matrix(0.992126,0,0,0.992126,1001.19,1175.06)" d="M43,-25 L0,25 L10,25 L53,-25 L43,-25 "/>
<path class="Note" transform="matrix(0.992126,0,0,0.992126,1161.34,1175.06)" d="M43,-25 L0,25 L10,25 L53,-25 L43,-25 "/>
<path class="Note" transform="matrix(0.992126,0,0,0.992126,1321.49,1175.06)" d="M43,-25 L0,25 L10,25 L53,-25 L43,-25 "/>
<path class="Note" transform="matrix(0.992126,0,0,0.992126,1538.69,1175.06)" d="M43,-25 L0,25 L10,25 L53,-25 L43,-25 "/>
<path class="Note" transform="matrix(0.992126,0,0,0.992126,1698.84,1175.06)" d="M43,-25 L0,25 L10,25 L53,-25 L43,-25 "/>
<path class="Note" transform="matrix(0.992126,0,0,0.992126,1858.99,1175.06)" d="M43,-25 L0,25 L10,25 L53,-25 L43,-25 "/>
<path class="Note" transform="matrix(0.992126,0,0,0.992126,2019.14,1175.06)" d="M43,-25 L0,25 L10,25 L53,-25 L43,-25 "/>
<path class="Note" transform="matrix(0.992126,0,0,0.992126,2236.34,1175.06)" d="M43,-25 L0,25 L10,25 L53,-25 L43,-25 "/>
<path class="Note" transform="matrix(0.992126,0,0,0.992126,2396.49,1175.06)" d="M43,-25 L0,25 L10,25 L53,-25 L43,-25 "/>
<path class="Note" transform="matrix(0.992126,0,0,0.992126,2556.64,1175.06)" d="M43,-25 L0,25 L10,25 L53,-25 L43,-25 "/>
<path class="Note" transform="matrix(0.992126,0,0,0.992126,2716.79,1175.06)" d="M43,-25 L0,25 L10,25 L53,-25 L43,-25 "/>
<path class="Clef" transform="matrix(0.992126,0,0,0.992126,158.032,262.205)" d="M63.3594,-5.92188 C62.125,-11.3438 59.4844,-15.1719 58.7031,-16.2031 C55.5156,-20.4844 51.5,-23.3281 46.8125,-24.6875 C43.7031,-25.5625 40.7031,-25.6875 38.2813,-25.5 C37.2344,-31.5156 36.2344,-37.3906 35.3281,-42.8438 C40.7813,-49.0156 44.4063,-54.8125 46.6875,-59.1094 C50.1563,-65.6875 51.2969,-70.2656 51.3594,-70.4688 C53.0781,-75.6875 53.4375,-83.3906 52.3281,-91.5938 C51.3281,-99.1406 49.2344,-105.859 46.875,-109.109 C45.8594,-110.531 44.7969,-111.266 43.7656,-111.266 C42.5469,-111.266 40.0313,-110.031 37.1406,-107.25 C34.8438,-105.063 31.5781,-101.172 29.0156,-95.1563 C26.0156,-88.0938 25.7969,-78.6094 26.1563,-71.8906 C26.5313,-64.6094 27.6406,-58.9219 27.6563,-58.875 C27.6719,-58.7813 27.9375,-57.2813 28.375,-54.7188 C28.1563,-54.4844 27.9063,-54.2656 27.6563,-54.0156 C26.625,-53.0156 25.4375,-51.8906 24.0469,-50.5 C23.1875,-49.6406 22.2344,-48.7344 21.2344,-47.7656 C12.7969,-39.625 0,-27.2969 0,-8.14063 C0,-3.4375 0.90625,0.984375 2.6875,5 C4.26563,8.59375 6.5625,11.875 9.5,14.75 C17.2344,22.3125 27.8281,25.5156 34.875,25.3594 C37.8281,25.2813 40.4688,25.0469 42.8594,24.5938 C44.6875,34.2031 45.8281,41.2344 45.8594,46.5781 C45.9063,53.0938 44.25,57.0781 40.3594,59.8438 C37.9219,61.5781 35.1094,62.5313 32.0156,62.6719 C29.4219,62.7969 27.1563,62.3281 25.7344,61.9219 L25.7188,61.9219 C25.7188,61.9219 25.4375,61.8281 25.4219,61.6406 C25.4063,61.4531 25.7656,61.4063 25.7656,61.4063 L25.7969,61.4063 C27.7188,60.9688 31.2813,59.7344 33.6406,56.4375 C35.4375,53.9063 36.3125,49.2813 34.4688,45.3438 C33.3594,42.9531 30.8594,40 25.2344,39.5469 C22.7344,39.3438 20.4688,39.8594 18.4688,41.0625 C16.6563,42.1406 15.1563,43.7813 14.1094,45.7813 C11.6563,50.4844 12.1094,56.2188 15.2344,60.0625 C18.2031,63.6875 22.8125,66 28.25,66.5781 C29.1094,66.6719 29.9531,66.7031 30.7969,66.7031 C35.2344,66.7031 39.625,65.5 43.2031,63.2969 C46.8594,60.7188 48.9844,56.7344 49.6563,51.1094 C50.2188,46.4688 49.8281,40.5469 48.4375,32.4688 C48.0781,30.375 47.5313,27.3438 46.875,23.5938 C52.625,21.6719 56.7813,18.0938 60.5469,12.2344 C63.8438,6.5 64.7813,0.390625 63.3594,-5.92188 M29.1406,20.2969 C24.5,19.0781 20.0625,16.5781 16.3125,13.0625 C15,11.8438 13.125,9.67188 11.6563,6.28125 C10.2969,3.10938 9.625,-0.328125 9.6875,-3.90625 C9.75,-8.60938 11.0625,-13.4375 13.5625,-18.2188 C16.4844,-23.7969 21.0469,-29.3281 27.1094,-34.6563 C28.5625,-35.9375 29.9375,-37.2188 31.2188,-38.5 C31.9844,-34.2344 32.8125,-29.5469 33.6875,-24.6719 C29.8438,-23.4063 25.0938,-20.25 21.9844,-14.5938 C18.4375,-8.03125 18.5781,-2.5 19.3125,0.984375 C20.25,5.4375 22.7813,9.20313 26.2344,11.2969 C27.1719,11.8594 31.2969,13.9844 33.1406,13.4063 C33.5156,13.2969 33.7813,13.0625 33.9219,12.7344 C34.4375,11.5625 33.4063,10.9219 31.8594,9.96875 C31.25,9.59375 30.5781,9.17188 29.8594,8.64063 C26.5313,6.15625 25.0781,1.70313 26.1563,-2.6875 C26.7344,-5.07813 28.0156,-7.25 29.8594,-8.95313 C31.5156,-10.5 33.5625,-11.5938 35.9375,-12.2344 C37.9844,-0.984375 40.0469,10.1719 41.6875,18.5313 C41.8125,19.2188 41.9531,19.8906 42.0781,20.5625 C37.7031,21.5 33.3594,21.4063 29.1406,20.2969 M40.4688,-12.9063 C50.8125,-13.375 55.0781,-5.9375 55.9688,-1.10938 C56.4375,1.4375 56.4375,5.875 54.8906,10.0938 C53.7188,13.2656 51.2656,17.3438 46.125,19.4063 C46.0625,18.9844 45.9844,18.5469 45.9063,18.125 C44.3594,9.34375 42.4219,-1.65625 40.4688,-12.9063 M33.1406,-83.8594 C34.9219,-89.5938 37.6563,-92.8438 39.6563,-94.5781 C41.4063,-96.0938 43.0469,-96.8125 43.9688,-96.8125 C44.1094,-96.8125 44.2344,-96.7813 44.3281,-96.75 C44.7969,-96.6094 45.3281,-96.0469 45.7969,-95.1719 C48.1094,-90.8906 47.3594,-84.1719 46.0156,-79.7344 C44.3906,-74.3281 41.4688,-68.7188 32.6719,-59.1094 C32.5,-60.2188 32.3438,-61.2656 32.1875,-62.25 C30.9375,-70.5313 31.2656,-77.8125 33.1406,-83.8594"/>
<path class="Clef" transform="matrix(0.992126,0,0,0.992126,34.0158,572.244)" d="M63.3594,-5.92188 C62.125,-11.3438 59.4844,-15.1719 58.7031,-16.2031 C55.5156,-20.4844 51.5,-23.3281 46.8125,-24.6875 C43.7031,-25.5625 40.7031,-25.6875 38.2813,-25.5 C37.2344,-31.5156 36.2344,-37.3906 35.3281,-42.8438 C40.7813,-49.0156 44.4063,-54.8125 46.6875,-59.1094 C50.1563,-65.6875 51.2969,-70.2656 51.3594,-70.4688 C53.0781,-75.6875 53.4375,-83.3906 52.3281,-91.5938 C51.3281,-99.1406 49.2344,-105.859 46.875,-109.109 C45.8594,-110.531 44.7969,-111.266 43.7656,-111.266 C42.5469,-111.266 40.0313,-110.031 37.1406,-107.25 C34.8438,-105.063 31.5781,-101.172 29.0156,-95.1563 C26.0156,-88.0938 25.7969,-78.6094 26.1563,-71.8906 C26.5313,-64.6094 27.6406,-58.9219 27.6563,-58.875 C27.6719,-58.7813 27.9375,-57.2813 28.375,-54.7188 C28.1563,-54.4844 27.9063,-54.2656 27.6563,-54.0156 C26.625,-53.0156 25.4375,-51.8906 24.0469,-50.5 C23.1875,-49.6406 22.2344,-48.7344 21.2344,-47.7656 C12.7969,-39.625 0,-27.2969 0,-8.14063 C0,-3.4375 0.90625,0.984375 2.6875,5 C4.26563,8.59375 6.5625,11.875 9.5,14.75 C17.2344,22.3125 27.8281,25.5156 34.875,25.3594 C37.8281,25.2813 40.4688,25.0469 42.8594,24.5938 C44.6875,34.2031 45.8281,41.2344 45.8594,46.5781 C45.9063,53.0938 44.25,57.0781 40.3594,59.8438 C37.9219,61.5781 35.1094,62.5313 32.0156,62.6719 C29.4219,62.7969 27.1563,62.3281 25.7344,61.9219 L25.7188,61.9219 C25.7188,61.9219 25.4375,61.8281 25.4219,61.6406 C25.4063,61.4531 25.7656,61.4063 25.7656,61.4063 L25.7969,61.4063 C27.7188,60.9688 31.2813,59.7344 33.6406,56.4375 C35.4375,53.9063 36.3125,49.2813 34.4688,45.3438 C33.3594,42.9531 30.8594,40 25.2344,39.5469 C22.7344,39.3438 20.4688,39.8594 18.4688,41.0625 C16.6563,42.1406 15.1563,43.7813 14.1094,45.7813 C11.6563,50.4844 12.1094,56.2188 15.2344,60.0625 C18.2031,63.6875 22.8125,66 28.25,66.5781 C29.1094,66.6719 29.9531,66.7031 30.7969,66.7031 C35.2344,66.7031 39.625,65.5 43.2031,63.2969 C46.8594,60.7188 48.9844,56.7344 49.6563,51.1094 C50.2188,46.4688 49.8281,40.5469 48.4375,32.4688 C48.0781,30.375 47.5313,27.3438 46.875,23.5938 C52.625,21.6719 56.7813,18.0938 60.5469,12.2344 C63.8438,6.5 64.7813,0.390625 63.3594,-5.92188 M29.1406,20.2969 C24.5,19.0781 20.0625,16.5781 16.3125,13.0625 C15,11.8438 13.125,9.67188 11.6563,6.28125 C10.2969,3.10938 9.625,-0.328125 9.6875,-3.90625 C9.75,-8.60938 11.0625,-13.4375 13.5625,-18.2188 C16.4844,-23.7969 21.0469,-29.3281 27.1094,-34.6563 C28.5625,-35.9375 29.9375,-37.2188 31.2188,-38.5 C31.9844,-34.2344 32.8125,-29.5469 33.6875,-24.6719 C29.8438,-23.4063 25.0938,-20.25 21.9844,-14.5938 C18.4375,-8.03125 18.5781,-2.5 19.3125,0.984375 C20.25,5.4375 22.7813,9.20313 26.2344,11.2969 C27.1719,11.8594 31.2969,13.9844 33.1406,13.4063 C33.5156,13.2969 33.7813,13.0625 33.9219,12.7344 C34.4375,11.5625 33.4063,10.9219 31.8594,9.96875 C31.25,9.59375 30.5781,9.17188 29.8594,8.64063 C26.5313,6.15625 25.0781,1.70313 26.1563,-2.6875 C26.7344,-5.07813 28.0156,-7.25 29.8594,-8.95313 C31.5156,-10.5 33.5625,-11.5938 35.9375,-12.2344 C37.9844,-0.984375 40.0469,10.1719 41.6875,18.5313 C41.8125,19.2188 41.9531,19.8906 42.0781,20.5625 C37.7031,21.5 33.3594,21.4063 29.1406,20.2969 M40.4688,-12.9063 C50.8125,-13.375 55.0781,-5.9375 55.9688,-1.10938 C56.4375,1.4375 56.4375,5.875 54.8906,10.0938 C53.7188,13.2656 51.2656,17.3438 46.125,19.4063 C46.0625,18.9844 45.9844,18.5469 45.9063,18.125 C44.3594,9.34375 42.4219,-1.65625 40.4688,-12.9063 M33.1406,-83.8594 C34.9219,-89.5938 37.6563,-92.8438 39.6563,-94.5781 C41.4063,-96.0938 43.0469,-96.8125 43.9688,-96.8125 C44.1094,-96.8125 44.2344,-96.7813 44.3281,-96.75 C44.7969,-96.6094 45.3281,-96.0469 45.7969,-95.1719 C48.1094,-90.8906 47.3594,-84.1719 46.0156,-79.7344 C44.3906,-74.3281 41.4688,-68.7188 32.6719,-59.1094 C32.5,-60.2188 32.3438,-61.2656 32.1875,-62.25 C30.9375,-70.5313 31.2656,-77.8125 33.1406,-83.8594"/>
<path class="Clef" transform="matrix(0.992126,0,0,0.992126,34.0158,889.826)" d="M63.3594,-5.92188 C62.125,-11.3438 59.4844,-15.1719 58.7031,-16.2031 C55.5156,-20.4844 51.5,-23.3281 46.8125,-24.6875 C43.7031,-25.5625 40.7031,-25.6875 38.2813,-25.5 C37.2344,-31.5156 36.2344,-37.3906 35.3281,-42.8438 C40.7813,-49.0156 44.4063,-54.8125 46.6875,-59.1094 C50.1563,-65.6875 51.2969,-70.2656 51.3594,-70.4688 C53.0781,-75.6875 53.4375,-83.3906 52.3281,-91.5938 C51.3281,-99.1406 49.2344,-105.859 46.875,-109.109 C45.8594,-110.531 44.7969,-111.266 43.7656,-111.266 C42.5469,-111.266 40.0313,-110.031 37.1406,-107.25 C34.8438,-105.063 31.5781,-101.172 29.0156,-95.1563 C26.0156,-88.0938 25.7969,-78.6094 26.1563,-71.8906 C26.5313,-64.6094 27.6406,-58.9219 27.6563,-58.875 C27.6719,-58.7813 27.9375,-57.2813 28.375,-54.7188 C28.1563,-54.4844 27.9063,-54.2656 27.6563,-54.0156 C26.625,-53.0156 25.4375,-51.8906 24.0469,-50.5 C23.1875,-49.6406 22.2344,-48.7344 21.2344,-47.7656 C12.7969,-39.625 0,-27.2969 0,-8.14063 C0,-3.4375 0.90625,0.984375 2.6875,5 C4.26563,8.59375 6.5625,11.875 9.5,14.75 C17.2344,22.3125 27.8281,25.5156 34.875,25.3594 C37.8281,25.2813 40.4688,25.0469 42.8594,24.5938 C44.6875,34.2031 45.8281,41.2344 45.8594,46.5781 C45.9063,53.0938 44.25,57.0781 40.3594,59.8438 C37.9219,61.5781 35.1094,62.5313 32.0156,62.6719 C29.4219,62.7969 27.1563,62.3281 25.7344,61.9219 L25.7188,61.9219 C25.7188,61.9219 25.4375,61.8281 25.4219,61.6406 C25.4063,61.4531 25.7656,61.4063 25.7656,61.4063 L25.7969,61.4063 C27.7188,60.9688 31.2813,59.7344 33.6406,56.4375 C35.4375,53.9063 36.3125,49.2813 34.4688,45.3438 C33.3594,42.9531 30.8594,40 25.2344,39.5469 C22.7344,39.3438 20.4688,39.8594 18.4688,41.0625 C16.6563,42.1406 15.1563,43.7813 14.1094,45.7813 C11.6563,50.4844 12.1094,56.2188 15.2344,60.0625 C18.2031,63.6875 22.8125,66 28.25,66.5781 C29.1094,66.6719 29.9531,66.7031 30.7969,66.7031 C35.2344,66.7031 39.625,65.5 43.2031,63.2969 C46.8594,60.7188 48.9844,56.7344 49.6563,51.1094 C50.2188,46.4688 49.8281,40.5469 48.4375,32.4688 C48.0781,30.375 47.5313,27.3438 46.875,23.5938 C52.625,21.6719 56.7813,18.0938 60.5469,12.2344 C63.8438,6.5 64.7813,0.390625 63.3594,-5.92188 M29.1406,20.2969 C24.5,19.0781 20.0625,16.5781 16.3125,13.0625 C15,11.8438 13.125,9.67188 11.6563,6.28125 C10.2969,3.10938 9.625,-0.328125 9.6875,-3.90625 C9.75,-8.60938 11.0625,-13.4375 13.5625,-18.2188 C16.4844,-23.7969 21.0469,-29.3281 27.1094,-34.6563 C28.5625,-35.9375 29.9375,-37.2188 31.2188,-38.5 C31.9844,-34.2344 32.8125,-29.5469 33.6875,-24.6719 C29.8438,-23.4063 25.0938,-20.25 21.9844,-14.5938 C18.4375,-8.03125 18.5781,-2.5 19.3125,0.984375 C20.25,5.4375 22.7813,9.20313 26.2344,11.2969 C27.1719,11.8594 31.2969,13.9844 33.1406,13.4063 C33.5156,13.2969 33.7813,13.0625 33.9219,12.7344 C34.4375,11.5625 33.4063,10.9219 31.8594,9.96875 C31.25,9.59375 30.5781,9.17188 29.8594,8.64063 C26.5313,6.15625 25.0781,1.70313 26.1563,-2.6875 C26.7344,-5.07813 28.0156,-7.25 29.8594,-8.95313 C31.5156,-10.5 33.5625,-11.5938 35.9375,-12.2344 C37.9844,-0.984375 40.0469,10.1719 41.6875,18.5313 C41.8125,19.2188 41.9531,19.8906 42.0781,20.5625 C37.7031,21.5 33.3594,21.4063 29.1406,20.2969 M40.4688,-12.9063 C50.8125,-13.375 55.0781,-5.9375 55.9688,-1.10938 C56.4375,1.4375 56.4375,5.875 54.8906,10.0938 C53.7188,13.2656 51.2656,17.3438 46.125,19.4063 C46.0625,18.9844 45.9844,18.5469 45.9063,18.125 C44.3594,9.34375 42.4219,-1.65625 40.4688,-12.9063 M33.1406,-83.8594 C34.9219,-89.5938 37.6563,-92.8438 39.6563,-94.5781 C41.4063,-96.0938 43.0469,-96.8125 43.9688,-96.8125 C44.1094,-96.8125 44.2344,-96.7813 44.3281,-96.75 C44.7969,-96.6094 45.3281,-96.0469 45.7969,-95.1719 C48.1094,-90.8906 47.3594,-84.1719 46.0156,-79.7344 C44.3906,-74.3281 41.4688,-68.7188 32.6719,-59.1094 C32.5,-60.2188 32.3438,-61.2656 32.1875,-62.25 C30.9375,-70.5313 31.2656,-77.8125 33.1406,-83.8594"/>
<path class="Clef" transform="matrix(0.992126,0,0,0.992126,34.0158,1199.87)" d="M63.3594,-5.92188 C62.125,-11.3438 59.4844,-15.1719 58.7031,-16.2031 C55.5156,-20.4844 51.5,-23.3281 46.8125,-24.6875 C43.7031,-25.5625 40.7031,-25.6875 38.2813,-25.5 C37.2344,-31.5156 36.2344,-37.3906 35.3281,-42.8438 C40.7813,-49.0156 44.4063,-54.8125 46.6875,-59.1094 C50.1563,-65.6875 51.2969,-70.2656 51.3594,-70.4688 C53.0781,-75.6875 53.4375,-83.3906 52.3281,-91.5938 C51.3281,-99.1406 49.2344,-105.859 46.875,-109.109 C45.8594,-110.531 44.7969,-111.266 43.7656,-111.266 C42.5469,-111.266 40.0313,-110.031 37.1406,-107.25 C34.8438,-105.063 31.5781,-101.172 29.0156,-95.1563 C26.0156,-88.0938 25.7969,-78.6094 26.1563,-71.8906 C26.5313,-64.6094 27.6406,-58.9219 27.6563,-58.875 C27.6719,-58.7813 27.9375,-57.2813 28.375,-54.7188 C28.1563,-54.4844 27.9063,-54.2656 27.6563,-54.0156 C26.625,-53.0156 25.4375,-51.8906 24.0469,-50.5 C23.1875,-49.6406 22.2344,-48.7344 21.2344,-47.7656 C12.7969,-39.625 0,-27.2969 0,-8.14063 C0,-3.4375 0.90625,0.984375 2.6875,5 C4.26563,8.59375 6.5625,11.875 9.5,14.75 C17.2344,22.3125 27.8281,25.5156 34.875,25.3594 C37.8281,25.2813 40.4688,25.0469 42.8594,24.5938 C44.6875,34.2031 45.8281,41.2344 45.8594,46.5781 C45.9063,53.0938 44.25,57.0781 40.3594,59.8438 C37.9219,61.5781 35.1094,62.5313 32.0156,62.6719 C29.4219,62.7969 27.1563,62.3281 25.7344,61.9219 L25.7188,61.9219 C25.7188,61.9219 25.4375,61.8281 25.4219,61.6406 C25.4063,61.4531 25.7656,61.4063 25.7656,61.4063 L25.7969,61.4063 C27.7188,60.9688 31.2813,59.7344 33.6406,56.4375 C35.4375,53.9063 36.3125,49.2813 34.4688,45.3438 C33.3594,42.9531 30.8594,40 25.2344,39.5469 C22.7344,39.3438 20.4688,39.8594 18.4688,41.0625 C16.6563,42.1406 15.1563,43.7813 14.1094,45.7813 C11.6563,50.4844 12.1094,56.2188 15.2344,60.0625 C18.2031,63.6875 22.8125,66 28.25,66.5781 C29.1094,66.6719 29.9531,66.7031 30.7969,66.7031 C35.2344,66.7031 39.625,65.5 43.2031,63.2969 C46.8594,60.7188 48.9844,56.7344 49.6563,51.1094 C50.2188,46.4688 49.8281,40.5469 48.4375,32.4688 C48.0781,30.375 47.5313,27.3438 46.875,23.5938 C52.625,21.6719 56.7813,18.0938 60.5469,12.2344 C63.8438,6.5 64.7813,0.390625 63.3594,-5.92188 M29.1406,20.2969 C24.5,19.0781 20.0625,16.5781 16.3125,13.0625 C15,11.8438 13.125,9.67188 11.6563,6.28125 C10.2969,3.10938 9.625,-0.328125 9.6875,-3.90625 C9.75,-8.60938 11.0625,-13.4375 13.5625,-18.2188 C16.4844,-23.7969 21.0469,-29.3281 27.1094,-34.6563 C28.5625,-35.9375 29.9375,-37.2188 31.2188,-38.5 C31.9844,-34.2344 32.8125,-29.5469 33.6875,-24.6719 C29.8438,-23.4063 25.0938,-20.25 21.9844,-14.5938 C18.4375,-8.03125 18.5781,-2.5 19.3125,0.984375 C20.25,5.4375 22.7813,9.20313 26.2344,11.2969 C27.1719,11.8594 31.2969,13.9844 33.1406,13.4063 C33.5156,13.2969 33.7813,13.0625 33.9219,12.7344 C34.4375,11.5625 33.4063,10.9219 31.8594,9.96875 C31.25,9.59375 30.5781,9.17188 29.8594,8.64063 C26.5313,6.15625 25.0781,1.70313 26.1563,-2.6875 C26.7344,-5.07813 28.0156,-7.25 29.8594,-8.95313 C31.5156,-10.5 33.5625,-11.5938 35.9375,-12.2344 C37.9844,-0.984375 40.0469,10.1719 41.6875,18.5313 C41.8125,19.2188 41.9531,19.8906 42.0781,20.5625 C37.7031,21.5 33.3594,21.4063 29.1406,20.2969 M40.4688,-12.9063 C50.8125,-13.375 55.0781,-5.9375 55.9688,-1.10938 C56.4375,1.4375 56.4375,5.875 54.8906,10.0938 C53.7188,13.2656 51.2656,17.3438 46.125,19.4063 C46.0625,18.9844 45.9844,18.5469 45.9063,18.125 C44.3594,9.34375 42.4219,-1.65625 40.4688,-12.9063 M33.1406,-83.8594 C34.9219,-89.5938 37.6563,-92.8438 39.6563,-94.5781 C41.4063,-96.0938 43.0469,-96.8125 43.9688,-96.8125 C44.1094,-96.8125 44.2344,-96.7813 44.3281,-96.75 C44.7969,-96.6094 45.3281,-96.0469 45.7969,-95.1719 C48.1094,-90.8906 47.3594,-84.1719 46.0156,-79.7344 C44.3906,-74.3281 41.4688,-68.7188 32.6719,-59.1094 C32.5,-60.2188 32.3438,-61.2656 32.1875,-62.25 C30.9375,-70.5313 31.2656,-77.8125 33.1406,-83.8594"/>
<path class="TimeSig" transform="matrix(0.992126,0,0,0.992126,244.951,212.73)" d="M3.59375,12.625 L20.7656,12.625 L20.7656,20.0781 L12.5469,20.0781 C11.7656,20.0781 11.125,20.7031 11.125,21.4844 L11.125,23.3906 C11.125,24.1719 11.7656,24.7969 12.5469,24.7969 L42.7969,24.7969 C43.5781,24.7969 44.2031,24.1719 44.2031,23.3906 L44.2031,21.4844 C44.2031,20.7031 43.5781,20.0781 42.7969,20.0781 L33.8594,20.0781 L33.8594,12.625 L42.7969,12.625 C43.5781,12.625 44.2031,12 44.2031,11.2188 L44.2031,9.3125 C44.2031,8.53125 43.5781,7.90625 42.7969,7.90625 L33.8594,7.90625 L33.8594,-8.0625 C33.8594,-8.59375 33.5469,-9.07813 33.0781,-9.3125 L31.8594,-9.92188 C31.3281,-10.1719 30.7031,-10.0781 30.2656,-9.6875 L21.2188,-1.375 C20.9375,-1.09375 20.7656,-0.734375 20.7656,-0.328125 L20.7656,7.90625 L9.25,7.90625 C9.25,7.90625 20.375,-4.125 32.2188,-19.8906 C33.0781,-21.0469 32.5781,-22.0938 32.3906,-22.2813 L30.2188,-24.4844 C29.9531,-24.75 29.5938,-24.9063 29.2188,-24.9063 C28.625,-24.9063 15.0625,-24.875 14.3438,-24.9063 C13.625,-24.9219 13.0938,-24.2969 13.0156,-23.6875 C13.0156,-23.6875 12.4844,-16.3281 9.875,-8.1875 C7.28125,-0.078125 4.34375,4.90625 1.6875,8.53125 C1.6875,8.53125 1.14063,9.51563 1.5,10.2656 C1.84375,11.0156 2.48438,12.0938 2.48438,12.0938 C2.48438,12.0938 2.73438,12.625 3.59375,12.625"/>
<path class="TimeSig" transform="matrix(0.992126,0,0,0.992126,244.951,262.073)" d="M3.59375,12.625 L20.7656,12.625 L20.7656,20.0781 L12.5469,20.0781 C11.7656,20.0781 11.125,20.7031 11.125,21.4844 L11.125,23.3906 C11.125,24.1719 11.7656,24.7969 12.5469,24.7969 L42.7969,24.7969 C43.5781,24.7969 44.2031,24.1719 44.2031,23.3906 L44.2031,21.4844 C44.2031,20.7031 43.5781,20.0781 42.7969,20.0781 L33.8594,20.0781 L33.8594,12.625 L42.7969,12.625 C43.5781,12.625 44.2031,12 44.2031,11.2188 L44.2031,9.3125 C44.2031,8.53125 43.5781,7.90625 42.7969,7.90625 L33.8594,7.90625 L33.8594,-8.0625 C33.8594,-8.59375 33.5469,-9.07813 33.0781,-9.3125 L31.8594,-9.92188 C31.3281,-10.1719 30.7031,-10.0781 30.2656,-9.6875 L21.2188,-1.375 C20.9375,-1.09375 20.7656,-0.734375 20.7656,-0.328125 L20.7656,7.90625 L9.25,7.90625 C9.25,7.90625 20.375,-4.125 32.2188,-19.8906 C33.0781,-21.0469 32.5781,-22.0938 32.3906,-22.2813 L30.2188,-24.4844 C29.9531,-24.75 29.5938,-24.9063 29.2188,-24.9063 C28.625,-24.9063 15.0625,-24.875 14.3438,-24.9063 C13.625,-24.9219 13.0938,-24.2969 13.0156,-23.6875 C13.0156,-23.6875 12.4844,-16.3281 9.875,-8.1875 C7.28125,-0.078125 4.34375,4.90625 1.6875,8.53125 C1.6875,8.53125 1.14063,9.51563 1.5,10.2656 C1.84375,11.0156 2.48438,12.0938 2.48438,12.0938 C2.48438,12.0938 2.73438,12.625 3.59375,12.625"/>
<path class="RehearsalMark" fill="none" stroke="#000000" stroke-width="3.97" stroke-linecap="square" stroke-linejoin="miter" stroke-miterlimit="2" fill-rule="evenodd" d="M154.216,21.0729 L262.987,21.0729 L262.987,122.845 L154.216,122.845 L154.216,21.0729 "/>
<path class="RehearsalMark" d="M205.352,35.4899 L182.883,87.9587 C178.32,98.6618 174.664,102.521 168.82,103.115 L168.82,108.459 L197.43,108.459 L197.43,103.115 C190.398,102.724 187.633,100.834 187.633,96.2868 C187.633,94.5993 188.023,93.0212 189.117,90.6462 L190.695,86.8806 L215.352,86.8806 L219.117,96.5837 C220.195,99.3493 220.305,99.8493 220.305,100.631 C220.305,102.427 218.914,103.021 214.555,103.021 L212.867,103.115 L212.867,108.459 L247.617,108.459 L247.617,103.115 C241.977,102.912 240.398,101.927 238.32,96.8806 L212.867,35.4899 L205.352,35.4899 M203.273,56.5837 L212.867,80.2399 L193.273,80.2399 L203.273,56.5837 "/>
<path class="RehearsalMark" fill="none" stroke="#000000" stroke-width="3.97" stroke-linecap="square" stroke-linejoin="miter" stroke-miterlimit="2" fill-rule="evenodd" d="M32.3294,654.622 L133.101,654.622 L133.101,755.393 L32.3294,755.393 L32.3294,654.622 "/>
<path class="RehearsalMark" d="M47.4027,669.523 L47.4027,674.882 L48.8871,674.882 C54.2308,674.882 56.1058,675.273 56.9964,676.257 C57.6996,677.351 57.6996,677.648 57.6996,683.789 L57.6996,726.757 C57.6996,732.882 57.6996,733.179 56.9964,734.179 C56.1058,735.273 54.1371,735.664 48.8871,735.664 L47.4027,735.664 L47.4027,741.007 L87.4964,741.007 C97.7933,741.007 103.043,740.211 108.184,737.945 C114.418,735.164 118.575,728.929 118.575,722.195 C118.575,715.273 114.621,709.82 107.293,706.461 C103.934,704.867 101.059,704.086 95.8089,703.382 C100.653,702.601 103.434,701.898 106.2,700.617 C112.137,697.742 115.309,692.992 115.309,687.054 C115.309,681.414 112.34,676.164 107.496,673.492 C102.043,670.414 97.2933,669.523 85.6058,669.523 L47.4027,669.523 M75.5121,701.601 L75.5121,680.617 C75.3089,676.461 76.6996,675.07 81.0589,674.882 L84.0277,674.882 C92.7464,674.882 97.3871,679.226 97.3871,687.445 C97.3871,692.304 95.7152,696.164 92.5433,698.632 C89.8714,700.82 86.4964,701.601 80.3714,701.601 L75.5121,701.601 M75.5121,707.054 L82.3402,707.054 C88.5746,707.054 91.4496,707.648 94.2308,709.429 C97.6839,711.711 99.6683,716.054 99.6683,721.211 C99.6683,725.961 97.8871,730.32 95.0121,732.695 C92.5433,734.664 89.2777,735.664 84.5277,735.664 L81.5589,735.664 C75.9027,735.461 75.3089,734.867 75.5121,729.32 L75.5121,707.054 "/>
<path class="Harmony" d="M350.527,121.866 C350.496,121.881 350.449,121.881 350.386,121.881 C350.324,121.881 350.277,121.897 350.246,121.897 C350.199,121.912 350.152,121.912 350.09,121.928 C350.027,121.928 349.996,121.944 349.949,121.959 C349.902,121.975 349.871,122.006 349.824,122.022 C349.777,122.053 349.746,122.069 349.73,122.116 C349.683,122.147 349.668,122.178 349.636,122.225 C349.621,122.256 349.605,122.319 349.605,122.366 C349.605,122.397 349.605,122.428 349.605,122.475 L349.605,122.506 C349.605,122.537 349.605,122.584 349.605,122.647 C349.621,122.709 349.621,122.756 349.621,122.787 C349.621,123.366 349.636,123.928 349.652,124.475 C349.652,124.506 349.652,124.537 349.652,124.569 C349.652,124.678 349.652,124.819 349.636,124.975 C349.621,125.178 349.621,125.319 349.621,125.412 L349.621,125.444 L349.621,125.537 C349.621,125.553 349.621,125.584 349.636,125.616 C349.636,125.647 349.636,125.662 349.652,125.678 C349.668,125.694 349.683,125.709 349.715,125.725 C349.73,125.741 349.761,125.741 349.793,125.741 L349.808,125.741 C349.98,125.741 350.152,125.709 350.324,125.631 C350.511,125.569 350.668,125.491 350.824,125.381 C350.98,125.287 351.121,125.162 351.261,125.006 C351.402,124.866 351.527,124.709 351.621,124.553 C351.73,124.397 351.808,124.225 351.871,124.053 C351.949,123.881 351.98,123.709 351.98,123.537 C351.996,123.506 351.996,123.459 351.996,123.428 C351.996,123.334 351.98,123.241 351.965,123.131 C351.933,122.991 351.902,122.85 351.84,122.725 C351.793,122.6 351.715,122.475 351.621,122.366 C351.543,122.241 351.433,122.147 351.324,122.069 C351.215,121.991 351.09,121.928 350.949,121.897 C350.871,121.866 350.777,121.866 350.668,121.866 C350.621,121.866 350.574,121.866 350.527,121.866 M350.215,125.1 C350.215,124.959 350.215,124.741 350.215,124.475 C350.23,124.256 350.23,124.053 350.23,123.866 C350.23,123.819 350.23,123.787 350.23,123.741 C350.23,123.522 350.215,123.303 350.215,123.1 C350.215,123.069 350.199,123.037 350.199,122.959 C350.183,122.881 350.168,122.803 350.168,122.741 C350.152,122.709 350.152,122.678 350.152,122.647 C350.152,122.616 350.152,122.584 350.168,122.553 C350.168,122.491 350.199,122.444 350.23,122.412 C350.277,122.381 350.324,122.366 350.386,122.366 C350.402,122.366 350.402,122.366 350.418,122.366 C350.496,122.381 350.574,122.397 350.668,122.444 C350.746,122.491 350.824,122.553 350.902,122.616 C350.98,122.678 351.043,122.741 351.105,122.787 C351.168,122.85 351.199,122.897 351.23,122.944 C351.308,123.069 351.371,123.225 351.402,123.381 C351.418,123.475 351.418,123.553 351.418,123.647 C351.418,123.709 351.418,123.787 351.418,123.85 C351.386,124.006 351.34,124.147 351.277,124.303 C351.215,124.444 351.121,124.569 351.027,124.694 C350.918,124.803 350.793,124.897 350.668,124.959 C350.527,125.037 350.371,125.084 350.215,125.1"/>
<path class="Harmony" d="M366.527,34.9952 C366.058,35.089 365.293,35.1827 364.058,35.2921 C362.824,35.3858 361.871,35.5733 361.215,35.6671 C360.543,35.7608 359.59,35.8546 358.449,36.0421 C357.308,36.2296 356.465,36.5265 355.699,36.8077 C354.933,37.089 354.09,37.464 353.324,37.9483 C352.558,38.4171 351.902,38.9015 351.418,39.5577 C350.761,40.2296 350.277,40.9796 349.902,41.7452 C349.527,42.5108 349.246,43.4483 349.136,44.4015 C349.043,45.0733 349.043,45.7296 349.043,46.4015 L349.043,46.964 C349.136,47.6358 349.136,48.589 349.246,49.7296 C349.34,50.8702 349.34,51.8077 349.34,52.4796 C349.34,63.3077 349.621,73.9483 350.09,84.4952 C350.183,85.0577 350.183,85.6358 350.183,86.3077 C350.09,88.2921 349.996,90.9483 349.808,94.089 C349.527,97.7921 349.34,100.558 349.34,102.355 L349.34,102.933 L349.34,104.542 C349.34,105.011 349.527,105.495 349.621,106.058 C349.715,106.636 349.902,107.105 350.183,107.386 C350.48,107.683 350.761,107.964 351.23,108.245 C351.621,108.433 352.09,108.526 352.652,108.526 L352.949,108.526 C356.261,108.433 359.59,107.776 362.918,106.542 C366.246,105.308 369.386,103.776 372.324,101.792 C375.277,99.7921 378.027,97.4171 380.683,94.6671 C383.34,91.9015 385.621,89.0577 387.527,86.0108 C389.418,82.9796 391.043,79.839 392.277,76.5108 C393.511,73.1827 394.168,69.8702 394.371,66.7296 C394.465,66.0577 394.465,65.3077 394.465,64.6358 C394.465,62.839 394.277,60.9327 393.886,59.0421 C393.418,56.3702 392.652,53.714 391.605,51.2452 C390.558,48.7765 389.23,46.4952 387.527,44.3077 C385.808,42.1202 383.918,40.3233 381.824,38.8077 C379.73,37.2765 377.449,36.1358 374.793,35.4796 C373.09,34.9952 371.277,34.8077 369.48,34.8077 C368.527,34.8077 367.574,34.9015 366.527,34.9952 M360.636,96.3702 C360.636,93.6202 360.73,89.6202 360.824,84.4952 C360.918,80.4171 361.011,76.5108 361.011,72.9952 C361.011,72.1515 360.918,71.2921 360.918,70.4327 C360.918,66.2608 360.824,62.1671 360.636,58.3702 C360.636,57.9015 360.543,57.0421 360.355,55.6202 C360.168,54.1827 359.886,52.8546 359.777,51.6202 C359.683,51.0577 359.683,50.4796 359.683,49.9171 C359.683,49.2452 359.683,48.6827 359.777,48.0108 C359.98,46.7765 360.355,45.8233 361.011,45.3546 C361.871,44.6827 362.824,44.4015 363.871,44.4015 C364.152,44.4952 364.433,44.4952 364.73,44.4952 C366.152,44.6827 367.668,45.1671 369.277,46.0265 C370.902,46.8702 372.418,48.0108 373.84,49.1515 C375.277,50.2921 376.605,51.4327 377.652,52.5733 C378.683,53.714 379.543,54.5733 380.027,55.4327 C381.543,57.9015 382.59,60.6515 383.152,63.6827 C383.433,65.4015 383.636,67.1046 383.636,68.8233 C383.636,70.0577 383.527,71.2921 383.433,72.5265 C382.965,75.464 382.105,78.3233 380.871,81.0733 C379.636,83.8233 378.027,86.3077 376.121,88.4796 C374.136,90.6671 371.855,92.3858 369.183,93.8077 C366.527,95.2296 363.683,96.089 360.636,96.3702"/>
<path class="Harmony" d="M1025.99,51.3968 C1025.53,51.4905 1024.76,51.5843 1023.53,51.6937 C1022.29,51.7874 1021.34,51.9749 1020.68,52.0687 C1020.01,52.1624 1019.06,52.2562 1017.92,52.4437 C1016.78,52.6312 1015.93,52.928 1015.17,53.2093 C1014.4,53.4905 1013.56,53.8655 1012.79,54.3499 C1012.03,54.8187 1011.37,55.303 1010.88,55.9593 C1010.23,56.6312 1009.74,57.3812 1009.37,58.1468 C1008.99,58.9124 1008.71,59.8499 1008.6,60.803 C1008.51,61.4749 1008.51,62.1312 1008.51,62.803 L1008.51,63.3655 C1008.6,64.0374 1008.6,64.9905 1008.71,66.1312 C1008.81,67.2718 1008.81,68.2093 1008.81,68.8812 C1008.81,79.7093 1009.09,90.3499 1009.56,100.897 C1009.65,101.459 1009.65,102.037 1009.65,102.709 C1009.56,104.694 1009.46,107.35 1009.28,110.491 C1008.99,114.194 1008.81,116.959 1008.81,118.756 L1008.81,119.334 L1008.81,120.944 C1008.81,121.412 1008.99,121.897 1009.09,122.459 C1009.18,123.037 1009.37,123.506 1009.65,123.787 C1009.95,124.084 1010.23,124.366 1010.7,124.647 C1011.09,124.834 1011.56,124.928 1012.12,124.928 L1012.42,124.928 C1015.73,124.834 1019.06,124.178 1022.38,122.944 C1025.71,121.709 1028.85,120.178 1031.79,118.194 C1034.74,116.194 1037.49,113.819 1040.15,111.069 C1042.81,108.303 1045.09,105.459 1046.99,102.412 C1048.88,99.3812 1050.51,96.2405 1051.74,92.9124 C1052.98,89.5843 1053.63,86.2718 1053.84,83.1312 C1053.93,82.4593 1053.93,81.7093 1053.93,81.0374 C1053.93,79.2405 1053.74,77.3343 1053.35,75.4437 C1052.88,72.7718 1052.12,70.1155 1051.07,67.6468 C1050.03,65.178 1048.7,62.8968 1046.99,60.7093 C1045.28,58.5218 1043.38,56.7249 1041.29,55.2093 C1039.2,53.678 1036.92,52.5374 1034.26,51.8812 C1032.56,51.3968 1030.74,51.2093 1028.95,51.2093 C1027.99,51.2093 1027.04,51.303 1025.99,51.3968 M1020.1,112.772 C1020.1,110.022 1020.2,106.022 1020.29,100.897 C1020.38,96.8187 1020.48,92.9124 1020.48,89.3968 C1020.48,88.553 1020.38,87.6937 1020.38,86.8343 C1020.38,82.6624 1020.29,78.5687 1020.1,74.7718 C1020.1,74.303 1020.01,73.4437 1019.82,72.0218 C1019.63,70.5843 1019.35,69.2562 1019.24,68.0218 C1019.15,67.4593 1019.15,66.8812 1019.15,66.3187 C1019.15,65.6468 1019.15,65.0843 1019.24,64.4124 C1019.45,63.178 1019.82,62.2249 1020.48,61.7562 C1021.34,61.0843 1022.29,60.803 1023.34,60.803 C1023.62,60.8968 1023.9,60.8968 1024.2,60.8968 C1025.62,61.0843 1027.13,61.5687 1028.74,62.428 C1030.37,63.2718 1031.88,64.4124 1033.31,65.553 C1034.74,66.6937 1036.07,67.8343 1037.12,68.9749 C1038.15,70.1155 1039.01,70.9749 1039.49,71.8343 C1041.01,74.303 1042.06,77.053 1042.62,80.0843 C1042.9,81.803 1043.1,83.5062 1043.1,85.2249 C1043.1,86.4593 1042.99,87.6937 1042.9,88.928 C1042.43,91.8655 1041.57,94.7249 1040.34,97.4749 C1039.1,100.225 1037.49,102.709 1035.59,104.881 C1033.6,107.069 1031.32,108.787 1028.65,110.209 C1025.99,111.631 1023.15,112.491 1020.1,112.772"/>
<path class="Harmony" d="M1685.46,51.3968 C1684.99,51.4905 1684.23,51.5843 1682.99,51.6937 C1681.76,51.7874 1680.81,51.9749 1680.15,52.0687 C1679.48,52.1624 1678.52,52.2562 1677.38,52.4437 C1676.24,52.6312 1675.4,52.928 1674.63,53.2093 C1673.87,53.4905 1673.02,53.8655 1672.26,54.3499 C1671.49,54.8187 1670.84,55.303 1670.35,55.9593 C1669.7,56.6312 1669.21,57.3812 1668.84,58.1468 C1668.46,58.9124 1668.18,59.8499 1668.07,60.803 C1667.98,61.4749 1667.98,62.1312 1667.98,62.803 L1667.98,63.3655 C1668.07,64.0374 1668.07,64.9905 1668.18,66.1312 C1668.27,67.2718 1668.27,68.2093 1668.27,68.8812 C1668.27,79.7093 1668.56,90.3499 1669.02,100.897 C1669.12,101.459 1669.12,102.037 1669.12,102.709 C1669.02,104.694 1668.93,107.35 1668.74,110.491 C1668.46,114.194 1668.27,116.959 1668.27,118.756 L1668.27,119.334 L1668.27,120.944 C1668.27,121.412 1668.46,121.897 1668.56,122.459 C1668.65,123.037 1668.84,123.506 1669.12,123.787 C1669.41,124.084 1669.7,124.366 1670.16,124.647 C1670.56,124.834 1671.02,124.928 1671.59,124.928 L1671.88,124.928 C1675.2,124.834 1678.52,124.178 1681.85,122.944 C1685.18,121.709 1688.32,120.178 1691.26,118.194 C1694.21,116.194 1696.96,113.819 1699.62,111.069 C1702.27,108.303 1704.56,105.459 1706.46,102.412 C1708.35,99.3812 1709.98,96.2405 1711.21,92.9124 C1712.45,89.5843 1713.1,86.2718 1713.31,83.1312 C1713.4,82.4593 1713.4,81.7093 1713.4,81.0374 C1713.4,79.2405 1713.21,77.3343 1712.82,75.4437 C1712.35,72.7718 1711.59,70.1155 1710.54,67.6468 C1709.49,65.178 1708.16,62.8968 1706.46,60.7093 C1704.74,58.5218 1702.85,56.7249 1700.76,55.2093 C1698.66,53.678 1696.38,52.5374 1693.73,51.8812 C1692.02,51.3968 1690.21,51.2093 1688.41,51.2093 C1687.46,51.2093 1686.51,51.303 1685.46,51.3968 M1679.57,112.772 C1679.57,110.022 1679.66,106.022 1679.76,100.897 C1679.85,96.8187 1679.95,92.9124 1679.95,89.3968 C1679.95,88.553 1679.85,87.6937 1679.85,86.8343 C1679.85,82.6624 1679.76,78.5687 1679.57,74.7718 C1679.57,74.303 1679.48,73.4437 1679.29,72.0218 C1679.1,70.5843 1678.82,69.2562 1678.71,68.0218 C1678.62,67.4593 1678.62,66.8812 1678.62,66.3187 C1678.62,65.6468 1678.62,65.0843 1678.71,64.4124 C1678.91,63.178 1679.29,62.2249 1679.95,61.7562 C1680.81,61.0843 1681.76,60.803 1682.81,60.803 C1683.09,60.8968 1683.37,60.8968 1683.66,60.8968 C1685.09,61.0843 1686.6,61.5687 1688.21,62.428 C1689.84,63.2718 1691.35,64.4124 1692.77,65.553 C1694.21,66.6937 1695.54,67.8343 1696.59,68.9749 C1697.62,70.1155 1698.48,70.9749 1698.96,71.8343 C1700.48,74.303 1701.52,77.053 1702.09,80.0843 C1702.37,81.803 1702.57,83.5062 1702.57,85.2249 C1702.57,86.4593 1702.46,87.6937 1702.37,88.928 C1701.9,91.8655 1701.04,94.7249 1699.81,97.4749 C1698.57,100.225 1696.96,102.709 1695.06,104.881 C1693.07,107.069 1690.79,108.787 1688.12,110.209 C1685.46,111.631 1682.62,112.491 1679.57,112.772"/>
<path class="Harmony" d="M2344.93,51.3968 C2344.46,51.4905 2343.69,51.5843 2342.46,51.6937 C2341.23,51.7874 2340.27,51.9749 2339.62,52.0687 C2338.94,52.1624 2337.99,52.2562 2336.85,52.4437 C2335.71,52.6312 2334.87,52.928 2334.1,53.2093 C2333.33,53.4905 2332.49,53.8655 2331.73,54.3499 C2330.96,54.8187 2330.3,55.303 2329.82,55.9593 C2329.16,56.6312 2328.68,57.3812 2328.3,58.1468 C2327.93,58.9124 2327.65,59.8499 2327.54,60.803 C2327.44,61.4749 2327.44,62.1312 2327.44,62.803 L2327.44,63.3655 C2327.54,64.0374 2327.54,64.9905 2327.65,66.1312 C2327.74,67.2718 2327.74,68.2093 2327.74,68.8812 C2327.74,79.7093 2328.02,90.3499 2328.49,100.897 C2328.58,101.459 2328.58,102.037 2328.58,102.709 C2328.49,104.694 2328.4,107.35 2328.21,110.491 C2327.93,114.194 2327.74,116.959 2327.74,118.756 L2327.74,119.334 L2327.74,120.944 C2327.74,121.412 2327.93,121.897 2328.02,122.459 C2328.12,123.037 2328.3,123.506 2328.58,123.787 C2328.88,124.084 2329.16,124.366 2329.63,124.647 C2330.02,124.834 2330.49,124.928 2331.05,124.928 L2331.35,124.928 C2334.66,124.834 2337.99,124.178 2341.32,122.944 C2344.65,121.709 2347.79,120.178 2350.73,118.194 C2353.68,116.194 2356.43,113.819 2359.08,111.069 C2361.74,108.303 2364.02,105.459 2365.93,102.412 C2367.82,99.3812 2369.44,96.2405 2370.68,92.9124 C2371.91,89.5843 2372.57,86.2718 2372.77,83.1312 C2372.87,82.4593 2372.87,81.7093 2372.87,81.0374 C2372.87,79.2405 2372.68,77.3343 2372.29,75.4437 C2371.82,72.7718 2371.05,70.1155 2370.01,67.6468 C2368.96,65.178 2367.63,62.8968 2365.93,60.7093 C2364.21,58.5218 2362.32,56.7249 2360.23,55.2093 C2358.13,53.678 2355.85,52.5374 2353.19,51.8812 C2351.49,51.3968 2349.68,51.2093 2347.88,51.2093 C2346.93,51.2093 2345.98,51.303 2344.93,51.3968 M2339.04,112.772 C2339.04,110.022 2339.13,106.022 2339.23,100.897 C2339.32,96.8187 2339.41,92.9124 2339.41,89.3968 C2339.41,88.553 2339.32,87.6937 2339.32,86.8343 C2339.32,82.6624 2339.23,78.5687 2339.04,74.7718 C2339.04,74.303 2338.94,73.4437 2338.76,72.0218 C2338.57,70.5843 2338.29,69.2562 2338.18,68.0218 C2338.08,67.4593 2338.08,66.8812 2338.08,66.3187 C2338.08,65.6468 2338.08,65.0843 2338.18,64.4124 C2338.38,63.178 2338.76,62.2249 2339.41,61.7562 C2340.27,61.0843 2341.23,60.803 2342.27,60.803 C2342.55,60.8968 2342.83,60.8968 2343.13,60.8968 C2344.55,61.0843 2346.07,61.5687 2347.68,62.428 C2349.3,63.2718 2350.82,64.4124 2352.24,65.553 C2353.68,66.6937 2355.01,67.8343 2356.05,68.9749 C2357.08,70.1155 2357.94,70.9749 2358.43,71.8343 C2359.94,74.303 2360.99,77.053 2361.55,80.0843 C2361.83,81.803 2362.04,83.5062 2362.04,85.2249 C2362.04,86.4593 2361.93,87.6937 2361.83,88.928 C2361.37,91.8655 2360.51,94.7249 2359.27,97.4749 C2358.04,100.225 2356.43,102.709 2354.52,104.881 C2352.54,107.069 2350.26,108.787 2347.58,110.209 C2344.93,111.631 2342.08,112.491 2339.04,112.772"/>
<path class="Harmony" d="M187.627,361.436 C187.158,361.53 186.392,361.624 185.158,361.733 C183.923,361.827 182.97,362.014 182.314,362.108 C181.642,362.202 180.689,362.296 179.548,362.483 C178.408,362.671 177.564,362.967 176.798,363.249 C176.033,363.53 175.189,363.905 174.423,364.389 C173.658,364.858 173.002,365.342 172.517,365.999 C171.861,366.671 171.377,367.421 171.002,368.186 C170.627,368.952 170.345,369.889 170.236,370.842 C170.142,371.514 170.142,372.171 170.142,372.842 L170.142,373.405 C170.236,374.077 170.236,375.03 170.345,376.171 C170.439,377.311 170.439,378.249 170.439,378.921 C170.439,389.749 170.72,400.389 171.189,410.936 C171.283,411.499 171.283,412.077 171.283,412.749 C171.189,414.733 171.095,417.389 170.908,420.53 C170.627,424.233 170.439,426.999 170.439,428.796 L170.439,429.374 L170.439,430.983 C170.439,431.452 170.627,431.936 170.72,432.499 C170.814,433.077 171.002,433.546 171.283,433.827 C171.58,434.124 171.861,434.405 172.33,434.686 C172.72,434.874 173.189,434.967 173.752,434.967 L174.048,434.967 C177.361,434.874 180.689,434.217 184.017,432.983 C187.345,431.749 190.486,430.217 193.423,428.233 C196.377,426.233 199.127,423.858 201.783,421.108 C204.439,418.342 206.72,415.499 208.627,412.452 C210.517,409.421 212.142,406.28 213.377,402.952 C214.611,399.624 215.267,396.311 215.47,393.171 C215.564,392.499 215.564,391.749 215.564,391.077 C215.564,389.28 215.377,387.374 214.986,385.483 C214.517,382.811 213.752,380.155 212.705,377.686 C211.658,375.217 210.33,372.936 208.627,370.749 C206.908,368.561 205.017,366.764 202.923,365.249 C200.83,363.717 198.548,362.577 195.892,361.921 C194.189,361.436 192.377,361.249 190.58,361.249 C189.627,361.249 188.673,361.342 187.627,361.436 M181.736,422.811 C181.736,420.061 181.83,416.061 181.923,410.936 C182.017,406.858 182.111,402.952 182.111,399.436 C182.111,398.592 182.017,397.733 182.017,396.874 C182.017,392.702 181.923,388.608 181.736,384.811 C181.736,384.342 181.642,383.483 181.455,382.061 C181.267,380.624 180.986,379.296 180.877,378.061 C180.783,377.499 180.783,376.921 180.783,376.358 C180.783,375.686 180.783,375.124 180.877,374.452 C181.08,373.217 181.455,372.264 182.111,371.796 C182.97,371.124 183.923,370.842 184.97,370.842 C185.252,370.936 185.533,370.936 185.83,370.936 C187.252,371.124 188.767,371.608 190.377,372.467 C192.002,373.311 193.517,374.452 194.939,375.592 C196.377,376.733 197.705,377.874 198.752,379.014 C199.783,380.155 200.642,381.014 201.127,381.874 C202.642,384.342 203.689,387.092 204.252,390.124 C204.533,391.842 204.736,393.546 204.736,395.264 C204.736,396.499 204.627,397.733 204.533,398.967 C204.064,401.905 203.205,404.764 201.97,407.514 C200.736,410.264 199.127,412.749 197.22,414.921 C195.236,417.108 192.955,418.827 190.283,420.249 C187.627,421.671 184.783,422.53 181.736,422.811"/>
<path class="Harmony" d="M881.249,361.436 C880.78,361.53 880.014,361.624 878.78,361.733 C877.546,361.827 876.593,362.014 875.936,362.108 C875.264,362.202 874.311,362.296 873.171,362.483 C872.03,362.671 871.186,362.967 870.421,363.249 C869.655,363.53 868.811,363.905 868.046,364.389 C867.28,364.858 866.624,365.342 866.139,365.999 C865.483,366.671 864.999,367.421 864.624,368.186 C864.249,368.952 863.968,369.889 863.858,370.842 C863.764,371.514 863.764,372.171 863.764,372.842 L863.764,373.405 C863.858,374.077 863.858,375.03 863.968,376.171 C864.061,377.311 864.061,378.249 864.061,378.921 C864.061,389.749 864.343,400.389 864.811,410.936 C864.905,411.499 864.905,412.077 864.905,412.749 C864.811,414.733 864.718,417.389 864.53,420.53 C864.249,424.233 864.061,426.999 864.061,428.796 L864.061,429.374 L864.061,430.983 C864.061,431.452 864.249,431.936 864.343,432.499 C864.436,433.077 864.624,433.546 864.905,433.827 C865.202,434.124 865.483,434.405 865.952,434.686 C866.343,434.874 866.811,434.967 867.374,434.967 L867.671,434.967 C870.983,434.874 874.311,434.217 877.639,432.983 C880.968,431.749 884.108,430.217 887.046,428.233 C889.999,426.233 892.749,423.858 895.405,421.108 C898.061,418.342 900.343,415.499 902.249,412.452 C904.139,409.421 905.764,406.28 906.999,402.952 C908.233,399.624 908.889,396.311 909.093,393.171 C909.186,392.499 909.186,391.749 909.186,391.077 C909.186,389.28 908.999,387.374 908.608,385.483 C908.139,382.811 907.374,380.155 906.327,377.686 C905.28,375.217 903.952,372.936 902.249,370.749 C900.53,368.561 898.639,366.764 896.546,365.249 C894.452,363.717 892.171,362.577 889.514,361.921 C887.811,361.436 885.999,361.249 884.202,361.249 C883.249,361.249 882.296,361.342 881.249,361.436 M875.358,422.811 C875.358,420.061 875.452,416.061 875.546,410.936 C875.639,406.858 875.733,402.952 875.733,399.436 C875.733,398.592 875.639,397.733 875.639,396.874 C875.639,392.702 875.546,388.608 875.358,384.811 C875.358,384.342 875.264,383.483 875.077,382.061 C874.889,380.624 874.608,379.296 874.499,378.061 C874.405,377.499 874.405,376.921 874.405,376.358 C874.405,375.686 874.405,375.124 874.499,374.452 C874.702,373.217 875.077,372.264 875.733,371.796 C876.593,371.124 877.546,370.842 878.593,370.842 C878.874,370.936 879.155,370.936 879.452,370.936 C880.874,371.124 882.389,371.608 883.999,372.467 C885.624,373.311 887.139,374.452 888.561,375.592 C889.999,376.733 891.327,377.874 892.374,379.014 C893.405,380.155 894.264,381.014 894.749,381.874 C896.264,384.342 897.311,387.092 897.874,390.124 C898.155,391.842 898.358,393.546 898.358,395.264 C898.358,396.499 898.249,397.733 898.155,398.967 C897.686,401.905 896.827,404.764 895.593,407.514 C894.358,410.264 892.749,412.749 890.843,414.921 C888.858,417.108 886.577,418.827 883.905,420.249 C881.249,421.671 878.405,422.53 875.358,422.811"/>
<path class="Harmony" d="M1595.78,361.827 C1592.07,362.296 1588.56,363.155 1585.14,364.389 C1581.71,365.624 1578.57,367.327 1575.54,369.327 C1572.5,371.327 1569.75,373.608 1567.37,376.171 C1565,378.733 1563,381.671 1561.29,384.999 C1559.57,388.327 1558.43,391.842 1557.78,395.546 C1557.29,397.827 1557.11,400.202 1557.11,402.577 L1557.11,403.249 C1557.11,405.514 1557.2,407.702 1557.48,409.889 C1557.78,412.264 1558.34,414.639 1559.11,416.827 C1559.96,419.108 1560.9,421.296 1561.95,423.28 C1563,425.28 1564.32,427.092 1565.86,428.702 C1567.37,430.311 1569.26,431.639 1571.17,432.78 C1573.07,433.921 1575.25,434.78 1577.62,435.264 C1579.25,435.546 1580.86,435.733 1582.48,435.733 C1583.32,435.733 1584.28,435.733 1585.32,435.639 C1588.26,435.358 1591.03,434.686 1593.59,433.733 C1596.15,432.78 1598.53,431.639 1600.53,430.311 C1602.51,428.983 1604.51,427.28 1606.32,425.374 C1608.12,423.483 1609.84,421.389 1611.26,419.296 C1612.68,417.202 1614.01,414.827 1615.43,412.171 C1617.62,407.796 1618.67,404.092 1618.67,401.155 C1618.67,398.202 1617.62,395.921 1615.43,394.311 C1614.2,393.264 1612.12,392.608 1609.36,392.124 C1607.37,391.842 1605.37,391.655 1603.37,391.655 L1602.9,391.655 L1600.81,391.655 C1597.87,391.749 1595.11,392.217 1592.45,393.077 C1589.79,393.936 1587.98,394.983 1587.03,396.217 C1586.75,396.686 1586.46,397.061 1586.18,397.452 C1585.51,398.499 1585.14,399.436 1585.14,400.296 C1585.14,401.53 1586,402.389 1587.61,402.858 C1588.93,403.249 1591.5,403.436 1595.2,403.436 L1596.06,403.436 C1597.29,403.53 1598.25,403.53 1598.9,403.53 C1602.81,403.53 1605.18,403.999 1605.93,405.046 C1606.23,405.421 1606.51,405.999 1606.51,406.561 C1606.51,407.139 1606.42,407.702 1606.32,408.28 C1606.23,408.842 1605.93,409.514 1605.65,410.264 C1605.37,411.03 1605.09,411.608 1604.79,412.077 C1604.51,412.546 1604.23,413.217 1603.86,413.983 C1603.46,414.733 1603.18,415.124 1603.09,415.311 C1602.62,416.155 1602.32,416.827 1602.04,417.296 C1601.76,417.78 1601.37,418.249 1600.9,418.921 C1600.43,419.577 1599.86,420.155 1599.39,420.53 C1597.39,422.046 1595.2,423.092 1592.64,423.577 L1589.4,423.952 L1589.03,423.952 C1587.79,423.858 1586.46,423.764 1585.23,423.483 C1582.86,422.999 1580.48,422.139 1578.29,420.811 C1576.11,419.483 1574.21,417.874 1572.78,415.967 C1571.36,413.983 1570.03,411.608 1569.07,408.936 C1568.12,406.28 1567.56,403.53 1567.37,400.577 C1567.28,399.53 1567.28,398.592 1567.28,397.546 C1567.28,395.639 1567.37,393.749 1567.65,391.936 C1568.12,389.186 1568.98,386.514 1570.31,384.046 C1571.64,381.577 1573.36,379.592 1575.45,378.061 C1578.01,376.077 1581.14,374.639 1584.75,373.702 C1586.75,373.124 1588.75,372.842 1590.64,372.842 C1591.98,372.842 1593.31,373.03 1594.54,373.311 C1595.59,373.608 1596.62,373.983 1597.87,374.546 C1599.11,375.124 1600.14,375.686 1601.09,376.264 C1602.04,376.827 1603.09,377.405 1604.14,377.967 C1605.18,378.546 1606.23,379.014 1607.17,379.202 C1608.12,379.389 1609.07,379.499 1610.03,379.389 C1610.98,379.296 1611.92,378.827 1612.87,377.967 C1613.82,377.124 1614.68,375.983 1615.53,374.546 C1616.01,373.702 1616.29,372.842 1616.29,371.983 C1616.29,371.327 1616.11,370.749 1615.82,370.092 C1615.06,368.655 1613.82,367.421 1612.12,366.374 C1610.4,365.342 1608.61,364.389 1606.51,363.624 C1604.42,362.858 1602.42,362.389 1600.43,362.108 C1599,361.827 1597.87,361.733 1596.92,361.733 C1596.43,361.733 1596.06,361.733 1595.78,361.827"/>
<path class="Harmony" d="M1908.08,381.389 C1909.31,382.999 1910.16,385.186 1910.83,387.952 C1911.5,390.702 1911.97,393.358 1912.44,396.124 C1912.92,398.874 1913.21,401.436 1913.3,403.717 L1906.08,402.952 L1898.28,403.717 L1902.28,391.842 L1908.08,381.389 M1906.36,414.827 L1908.27,414.827 L1911.11,414.827 L1911.88,414.827 L1912.74,414.827 C1912.83,414.827 1913.11,414.921 1913.49,414.921 C1913.88,414.921 1914.16,414.921 1914.35,415.014 C1914.53,415.124 1914.72,415.217 1915.02,415.311 C1915.3,415.405 1915.49,415.499 1915.67,415.686 C1915.86,415.874 1916.16,415.967 1916.35,416.155 C1916.81,416.639 1917.28,417.592 1917.67,418.827 C1918.05,419.967 1918.42,421.202 1918.72,422.624 C1919,424.046 1919.28,425.467 1919.56,427.092 C1919.86,428.702 1920.24,430.124 1920.61,431.452 C1921,432.78 1921.56,434.014 1922.14,435.061 C1922.71,436.108 1923.38,436.78 1924.22,437.155 C1924.61,437.342 1925.08,437.436 1925.66,437.436 C1926.13,437.436 1926.69,437.342 1927.27,437.155 C1928.13,436.874 1928.78,436.499 1929.46,436.108 C1930.11,435.733 1930.6,435.358 1930.97,434.874 C1931.35,434.405 1931.64,433.921 1931.92,433.358 C1932.21,432.78 1932.39,432.405 1932.49,431.936 C1932.58,431.546 1932.58,431.171 1932.58,430.702 L1932.58,430.217 C1932.58,429.561 1932.58,428.889 1932.49,428.421 C1932.39,427.936 1932.21,427.374 1932.02,426.608 C1931.83,425.858 1931.64,425.28 1931.44,424.811 C1931.25,424.327 1931.16,423.671 1930.88,422.811 C1930.6,421.952 1930.3,421.389 1930.21,421.014 C1929.55,419.108 1928.41,415.311 1926.78,409.702 C1925.66,405.624 1924.71,402.202 1924.03,399.53 C1922.8,394.686 1921.75,390.702 1921,387.561 C1919.77,382.342 1918.81,378.827 1918.33,377.014 C1918.24,376.639 1918.14,376.077 1917.96,375.311 C1917.77,374.546 1917.67,373.889 1917.58,373.311 C1917.49,372.749 1917.19,372.171 1917,371.421 C1916.81,370.655 1916.63,369.889 1916.44,369.327 C1916.25,368.749 1915.86,368.092 1915.58,367.421 C1915.3,366.764 1914.91,366.28 1914.53,365.811 C1914.16,365.342 1913.88,364.952 1913.39,364.577 C1912.92,364.202 1912.44,363.811 1911.88,363.717 C1911.41,363.624 1910.92,363.53 1910.36,363.53 L1909.97,363.53 C1909.31,363.624 1908.55,363.717 1907.69,363.999 C1907.03,364.296 1906.27,364.671 1905.61,365.139 C1904.94,365.624 1904.28,365.999 1903.8,366.483 C1903.33,366.952 1902.85,367.624 1902.38,368.374 C1901.91,369.139 1901.42,369.702 1901.14,370.28 C1900.86,370.842 1900.47,371.608 1900.1,372.561 C1899.72,373.499 1899.33,374.264 1899.14,374.842 C1898.96,375.405 1898.77,376.171 1898.39,377.124 C1898,378.061 1897.72,378.733 1897.63,379.202 C1894.88,386.139 1892.11,392.702 1889.36,399.061 C1884.89,409.233 1882.24,415.405 1881.47,417.686 C1881.38,418.061 1881,418.733 1880.52,419.764 C1880.05,420.811 1879.49,421.764 1879,422.717 C1878.53,423.671 1878.05,424.905 1877.49,426.139 C1876.91,427.374 1876.44,428.608 1876.16,429.655 C1875.77,430.702 1875.58,431.639 1875.58,432.499 C1875.67,433.358 1875.88,433.921 1876.35,434.405 C1877.21,435.061 1878.14,435.452 1879.19,435.452 L1879.86,435.452 C1881.19,435.264 1882.52,434.874 1883.85,434.124 C1885.17,433.358 1886.13,432.499 1886.61,431.639 C1887.17,430.608 1887.75,429.374 1888.22,427.842 C1888.69,426.327 1889.17,424.905 1889.46,423.671 C1889.74,422.436 1890.13,421.108 1890.78,419.671 C1891.46,418.249 1892.21,417.108 1893.06,416.155 L1898.19,414.546 C1898.49,414.452 1898.86,414.546 1899.53,414.546 L1902.28,414.546 C1902.56,414.546 1903.99,414.639 1906.36,414.827"/>
<path class="Harmony" d="M2268.49,361.436 C2268.02,361.53 2267.26,361.624 2266.02,361.733 C2264.79,361.827 2263.84,362.014 2263.18,362.108 C2262.51,362.202 2261.56,362.296 2260.42,362.483 C2259.27,362.671 2258.43,362.967 2257.67,363.249 C2256.9,363.53 2256.06,363.905 2255.29,364.389 C2254.52,364.858 2253.87,365.342 2253.38,365.999 C2252.73,366.671 2252.24,367.421 2251.87,368.186 C2251.49,368.952 2251.21,369.889 2251.1,370.842 C2251.01,371.514 2251.01,372.171 2251.01,372.842 L2251.01,373.405 C2251.1,374.077 2251.1,375.03 2251.21,376.171 C2251.31,377.311 2251.31,378.249 2251.31,378.921 C2251.31,389.749 2251.59,400.389 2252.06,410.936 C2252.15,411.499 2252.15,412.077 2252.15,412.749 C2252.06,414.733 2251.96,417.389 2251.77,420.53 C2251.49,424.233 2251.31,426.999 2251.31,428.796 L2251.31,429.374 L2251.31,430.983 C2251.31,431.452 2251.49,431.936 2251.59,432.499 C2251.68,433.077 2251.87,433.546 2252.15,433.827 C2252.45,434.124 2252.73,434.405 2253.2,434.686 C2253.59,434.874 2254.06,434.967 2254.62,434.967 L2254.92,434.967 C2258.23,434.874 2261.56,434.217 2264.88,432.983 C2268.21,431.749 2271.35,430.217 2274.29,428.233 C2277.24,426.233 2279.99,423.858 2282.65,421.108 C2285.31,418.342 2287.59,415.499 2289.49,412.452 C2291.38,409.421 2293.01,406.28 2294.24,402.952 C2295.48,399.624 2296.13,396.311 2296.34,393.171 C2296.43,392.499 2296.43,391.749 2296.43,391.077 C2296.43,389.28 2296.24,387.374 2295.85,385.483 C2295.38,382.811 2294.62,380.155 2293.57,377.686 C2292.52,375.217 2291.2,372.936 2289.49,370.749 C2287.77,368.561 2285.88,366.764 2283.79,365.249 C2281.7,363.717 2279.42,362.577 2276.76,361.921 C2275.06,361.436 2273.24,361.249 2271.45,361.249 C2270.49,361.249 2269.54,361.342 2268.49,361.436 M2262.6,422.811 C2262.6,420.061 2262.7,416.061 2262.79,410.936 C2262.88,406.858 2262.98,402.952 2262.98,399.436 C2262.98,398.592 2262.88,397.733 2262.88,396.874 C2262.88,392.702 2262.79,388.608 2262.6,384.811 C2262.6,384.342 2262.51,383.483 2262.32,382.061 C2262.13,380.624 2261.85,379.296 2261.74,378.061 C2261.65,377.499 2261.65,376.921 2261.65,376.358 C2261.65,375.686 2261.65,375.124 2261.74,374.452 C2261.95,373.217 2262.32,372.264 2262.98,371.796 C2263.84,371.124 2264.79,370.842 2265.84,370.842 C2266.12,370.936 2266.4,370.936 2266.7,370.936 C2268.12,371.124 2269.63,371.608 2271.24,372.467 C2272.87,373.311 2274.38,374.452 2275.81,375.592 C2277.24,376.733 2278.57,377.874 2279.62,379.014 C2280.65,380.155 2281.51,381.014 2281.99,381.874 C2283.51,384.342 2284.56,387.092 2285.12,390.124 C2285.4,391.842 2285.6,393.546 2285.6,395.264 C2285.6,396.499 2285.49,397.733 2285.4,398.967 C2284.93,401.905 2284.07,404.764 2282.84,407.514 C2281.6,410.264 2279.99,412.749 2278.09,414.921 C2276.1,417.108 2273.82,418.827 2271.15,420.249 C2268.49,421.671 2265.65,422.53 2262.6,422.811"/>
<path class="Harmony" d="M202.548,698.971 C203.783,700.581 204.627,702.768 205.298,705.534 C205.97,708.284 206.439,710.94 206.908,713.706 C207.392,716.456 207.673,719.018 207.767,721.3 L200.548,720.534 L192.752,721.3 L196.752,709.425 L202.548,698.971 M200.83,732.409 L202.736,732.409 L205.58,732.409 L206.345,732.409 L207.205,732.409 C207.298,732.409 207.58,732.503 207.955,732.503 C208.345,732.503 208.627,732.503 208.814,732.596 C209.002,732.706 209.189,732.8 209.486,732.893 C209.767,732.987 209.955,733.081 210.142,733.268 C210.33,733.456 210.627,733.55 210.814,733.737 C211.283,734.221 211.752,735.175 212.142,736.409 C212.517,737.55 212.892,738.784 213.189,740.206 C213.47,741.628 213.752,743.05 214.033,744.675 C214.33,746.284 214.705,747.706 215.08,749.034 C215.47,750.362 216.033,751.596 216.611,752.643 C217.173,753.69 217.845,754.362 218.689,754.737 C219.08,754.925 219.548,755.018 220.127,755.018 C220.595,755.018 221.158,754.925 221.736,754.737 C222.595,754.456 223.252,754.081 223.923,753.69 C224.58,753.315 225.064,752.94 225.439,752.456 C225.814,751.987 226.111,751.503 226.392,750.94 C226.673,750.362 226.861,749.987 226.955,749.518 C227.048,749.128 227.048,748.753 227.048,748.284 L227.048,747.8 C227.048,747.143 227.048,746.471 226.955,746.003 C226.861,745.518 226.673,744.956 226.486,744.19 C226.298,743.44 226.111,742.862 225.908,742.393 C225.72,741.909 225.627,741.253 225.345,740.393 C225.064,739.534 224.767,738.971 224.673,738.596 C224.017,736.69 222.877,732.893 221.252,727.284 C220.127,723.206 219.173,719.784 218.502,717.112 C217.267,712.268 216.22,708.284 215.47,705.143 C214.236,699.925 213.283,696.409 212.798,694.596 C212.705,694.221 212.611,693.659 212.423,692.893 C212.236,692.128 212.142,691.471 212.048,690.893 C211.955,690.331 211.658,689.753 211.47,689.003 C211.283,688.237 211.095,687.471 210.908,686.909 C210.72,686.331 210.33,685.675 210.048,685.003 C209.767,684.346 209.377,683.862 209.002,683.393 C208.627,682.925 208.345,682.534 207.861,682.159 C207.392,681.784 206.908,681.393 206.345,681.3 C205.877,681.206 205.392,681.112 204.83,681.112 L204.439,681.112 C203.783,681.206 203.017,681.3 202.158,681.581 C201.502,681.878 200.736,682.253 200.08,682.721 C199.408,683.206 198.752,683.581 198.267,684.065 C197.798,684.534 197.314,685.206 196.845,685.956 C196.377,686.721 195.892,687.284 195.611,687.862 C195.33,688.425 194.939,689.19 194.564,690.143 C194.189,691.081 193.798,691.846 193.611,692.425 C193.423,692.987 193.236,693.753 192.861,694.706 C192.47,695.643 192.189,696.315 192.095,696.784 C189.345,703.721 186.58,710.284 183.83,716.643 C179.361,726.815 176.705,732.987 175.939,735.268 C175.845,735.643 175.47,736.315 174.986,737.346 C174.517,738.393 173.955,739.346 173.47,740.3 C173.002,741.253 172.517,742.487 171.955,743.721 C171.377,744.956 170.908,746.19 170.627,747.237 C170.236,748.284 170.048,749.221 170.048,750.081 C170.142,750.94 170.345,751.503 170.814,751.987 C171.673,752.643 172.611,753.034 173.658,753.034 L174.33,753.034 C175.658,752.846 176.986,752.456 178.314,751.706 C179.642,750.94 180.595,750.081 181.08,749.221 C181.642,748.19 182.22,746.956 182.689,745.425 C183.158,743.909 183.642,742.487 183.923,741.253 C184.205,740.018 184.595,738.69 185.252,737.253 C185.923,735.831 186.673,734.69 187.533,733.737 L192.658,732.128 C192.955,732.034 193.33,732.128 194.002,732.128 L196.752,732.128 C197.033,732.128 198.455,732.221 200.83,732.409"/>
<path class="Harmony" d="M891.819,679.018 C891.35,679.112 890.584,679.206 889.35,679.315 C888.116,679.409 887.163,679.596 886.506,679.69 C885.834,679.784 884.881,679.878 883.741,680.065 C882.6,680.253 881.756,680.55 880.991,680.831 C880.225,681.112 879.381,681.487 878.616,681.971 C877.85,682.44 877.194,682.925 876.709,683.581 C876.053,684.253 875.569,685.003 875.194,685.768 C874.819,686.534 874.538,687.471 874.428,688.425 C874.334,689.096 874.334,689.753 874.334,690.425 L874.334,690.987 C874.428,691.659 874.428,692.612 874.538,693.753 C874.631,694.893 874.631,695.831 874.631,696.503 C874.631,707.331 874.913,717.971 875.381,728.518 C875.475,729.081 875.475,729.659 875.475,730.331 C875.381,732.315 875.288,734.971 875.1,738.112 C874.819,741.815 874.631,744.581 874.631,746.378 L874.631,746.956 L874.631,748.565 C874.631,749.034 874.819,749.518 874.913,750.081 C875.006,750.659 875.194,751.128 875.475,751.409 C875.772,751.706 876.053,751.987 876.522,752.268 C876.913,752.456 877.381,752.55 877.944,752.55 L878.241,752.55 C881.553,752.456 884.881,751.8 888.209,750.565 C891.538,749.331 894.678,747.8 897.616,745.815 C900.569,743.815 903.319,741.44 905.975,738.69 C908.631,735.925 910.913,733.081 912.819,730.034 C914.709,727.003 916.334,723.862 917.569,720.534 C918.803,717.206 919.459,713.893 919.663,710.753 C919.756,710.081 919.756,709.331 919.756,708.659 C919.756,706.862 919.569,704.956 919.178,703.065 C918.709,700.393 917.944,697.737 916.897,695.268 C915.85,692.8 914.522,690.518 912.819,688.331 C911.1,686.143 909.209,684.346 907.116,682.831 C905.022,681.3 902.741,680.159 900.084,679.503 C898.381,679.018 896.569,678.831 894.772,678.831 C893.819,678.831 892.866,678.925 891.819,679.018 M885.928,740.393 C885.928,737.643 886.022,733.643 886.116,728.518 C886.209,724.44 886.303,720.534 886.303,717.018 C886.303,716.175 886.209,715.315 886.209,714.456 C886.209,710.284 886.116,706.19 885.928,702.393 C885.928,701.925 885.834,701.065 885.647,699.643 C885.459,698.206 885.178,696.878 885.069,695.643 C884.975,695.081 884.975,694.503 884.975,693.94 C884.975,693.268 884.975,692.706 885.069,692.034 C885.272,690.8 885.647,689.846 886.303,689.378 C887.163,688.706 888.116,688.425 889.163,688.425 C889.444,688.518 889.725,688.518 890.022,688.518 C891.444,688.706 892.959,689.19 894.569,690.05 C896.194,690.893 897.709,692.034 899.131,693.175 C900.569,694.315 901.897,695.456 902.944,696.596 C903.975,697.737 904.834,698.596 905.319,699.456 C906.834,701.925 907.881,704.675 908.444,707.706 C908.725,709.425 908.928,711.128 908.928,712.846 C908.928,714.081 908.819,715.315 908.725,716.55 C908.256,719.487 907.397,722.346 906.163,725.096 C904.928,727.846 903.319,730.331 901.413,732.503 C899.428,734.69 897.147,736.409 894.475,737.831 C891.819,739.253 888.975,740.112 885.928,740.393"/>
<path class="Harmony" d="M1616.92,679.409 C1613.21,679.878 1609.7,680.737 1606.28,681.971 C1602.85,683.206 1599.71,684.909 1596.68,686.909 C1593.64,688.909 1590.89,691.19 1588.51,693.753 C1586.14,696.315 1584.14,699.253 1582.43,702.581 C1580.71,705.909 1579.57,709.425 1578.92,713.128 C1578.43,715.409 1578.25,717.784 1578.25,720.159 L1578.25,720.831 C1578.25,723.096 1578.34,725.284 1578.62,727.471 C1578.92,729.846 1579.48,732.221 1580.25,734.409 C1581.1,736.69 1582.04,738.878 1583.09,740.862 C1584.14,742.862 1585.46,744.675 1587,746.284 C1588.51,747.893 1590.4,749.221 1592.31,750.362 C1594.21,751.503 1596.39,752.362 1598.76,752.846 C1600.39,753.128 1602,753.315 1603.62,753.315 C1604.46,753.315 1605.42,753.315 1606.46,753.221 C1609.4,752.94 1612.17,752.268 1614.73,751.315 C1617.29,750.362 1619.67,749.221 1621.67,747.893 C1623.65,746.565 1625.65,744.862 1627.46,742.956 C1629.26,741.065 1630.98,738.971 1632.4,736.878 C1633.82,734.784 1635.15,732.409 1636.57,729.753 C1638.76,725.378 1639.81,721.675 1639.81,718.737 C1639.81,715.784 1638.76,713.503 1636.57,711.893 C1635.34,710.846 1633.26,710.19 1630.5,709.706 C1628.51,709.425 1626.51,709.237 1624.51,709.237 L1624.04,709.237 L1621.95,709.237 C1619.01,709.331 1616.25,709.8 1613.59,710.659 C1610.93,711.518 1609.12,712.565 1608.17,713.8 C1607.89,714.268 1607.6,714.643 1607.32,715.034 C1606.65,716.081 1606.28,717.018 1606.28,717.878 C1606.28,719.112 1607.14,719.971 1608.75,720.44 C1610.07,720.831 1612.64,721.018 1616.34,721.018 L1617.2,721.018 C1618.43,721.112 1619.39,721.112 1620.04,721.112 C1623.95,721.112 1626.32,721.581 1627.07,722.628 C1627.37,723.003 1627.65,723.581 1627.65,724.143 C1627.65,724.721 1627.56,725.284 1627.46,725.862 C1627.37,726.425 1627.07,727.096 1626.79,727.846 C1626.51,728.612 1626.23,729.19 1625.93,729.659 C1625.65,730.128 1625.37,730.8 1625,731.565 C1624.6,732.315 1624.32,732.706 1624.23,732.893 C1623.76,733.737 1623.46,734.409 1623.18,734.878 C1622.9,735.362 1622.51,735.831 1622.04,736.503 C1621.57,737.159 1621,737.737 1620.53,738.112 C1618.53,739.628 1616.34,740.675 1613.78,741.159 L1610.54,741.534 L1610.17,741.534 C1608.93,741.44 1607.6,741.346 1606.37,741.065 C1604,740.581 1601.62,739.721 1599.43,738.393 C1597.25,737.065 1595.35,735.456 1593.92,733.55 C1592.5,731.565 1591.17,729.19 1590.21,726.518 C1589.26,723.862 1588.7,721.112 1588.51,718.159 C1588.42,717.112 1588.42,716.175 1588.42,715.128 C1588.42,713.221 1588.51,711.331 1588.79,709.518 C1589.26,706.768 1590.12,704.096 1591.45,701.628 C1592.78,699.159 1594.5,697.175 1596.59,695.643 C1599.15,693.659 1602.28,692.221 1605.89,691.284 C1607.89,690.706 1609.89,690.425 1611.78,690.425 C1613.12,690.425 1614.45,690.612 1615.68,690.893 C1616.73,691.19 1617.76,691.565 1619.01,692.128 C1620.25,692.706 1621.28,693.268 1622.23,693.846 C1623.18,694.409 1624.23,694.987 1625.28,695.55 C1626.32,696.128 1627.37,696.596 1628.31,696.784 C1629.26,696.971 1630.21,697.081 1631.17,696.971 C1632.12,696.878 1633.06,696.409 1634.01,695.55 C1634.96,694.706 1635.82,693.565 1636.67,692.128 C1637.15,691.284 1637.43,690.425 1637.43,689.565 C1637.43,688.909 1637.25,688.331 1636.96,687.675 C1636.2,686.237 1634.96,685.003 1633.26,683.956 C1631.54,682.925 1629.75,681.971 1627.65,681.206 C1625.56,680.44 1623.56,679.971 1621.57,679.69 C1620.14,679.409 1619.01,679.315 1618.06,679.315 C1617.57,679.315 1617.2,679.315 1616.92,679.409"/>
<path class="Harmony" d="M2300.2,679.018 C2299.73,679.112 2298.97,679.206 2297.73,679.315 C2296.5,679.409 2295.55,679.596 2294.89,679.69 C2294.22,679.784 2293.27,679.878 2292.13,680.065 C2290.98,680.253 2290.14,680.55 2289.38,680.831 C2288.61,681.112 2287.77,681.487 2287,681.971 C2286.23,682.44 2285.58,682.925 2285.09,683.581 C2284.44,684.253 2283.95,685.003 2283.58,685.768 C2283.2,686.534 2282.92,687.471 2282.81,688.425 C2282.72,689.096 2282.72,689.753 2282.72,690.425 L2282.72,690.987 C2282.81,691.659 2282.81,692.612 2282.92,693.753 C2283.02,694.893 2283.02,695.831 2283.02,696.503 C2283.02,707.331 2283.3,717.971 2283.77,728.518 C2283.86,729.081 2283.86,729.659 2283.86,730.331 C2283.77,732.315 2283.67,734.971 2283.48,738.112 C2283.2,741.815 2283.02,744.581 2283.02,746.378 L2283.02,746.956 L2283.02,748.565 C2283.02,749.034 2283.2,749.518 2283.3,750.081 C2283.39,750.659 2283.58,751.128 2283.86,751.409 C2284.16,751.706 2284.44,751.987 2284.91,752.268 C2285.3,752.456 2285.77,752.55 2286.33,752.55 L2286.63,752.55 C2289.94,752.456 2293.27,751.8 2296.59,750.565 C2299.92,749.331 2303.06,747.8 2306,745.815 C2308.95,743.815 2311.7,741.44 2314.36,738.69 C2317.02,735.925 2319.3,733.081 2321.2,730.034 C2323.09,727.003 2324.72,723.862 2325.95,720.534 C2327.19,717.206 2327.84,713.893 2328.05,710.753 C2328.14,710.081 2328.14,709.331 2328.14,708.659 C2328.14,706.862 2327.95,704.956 2327.56,703.065 C2327.09,700.393 2326.33,697.737 2325.28,695.268 C2324.23,692.8 2322.91,690.518 2321.2,688.331 C2319.48,686.143 2317.59,684.346 2315.5,682.831 C2313.41,681.3 2311.13,680.159 2308.47,679.503 C2306.77,679.018 2304.95,678.831 2303.16,678.831 C2302.2,678.831 2301.25,678.925 2300.2,679.018 M2294.31,740.393 C2294.31,737.643 2294.41,733.643 2294.5,728.518 C2294.59,724.44 2294.69,720.534 2294.69,717.018 C2294.69,716.175 2294.59,715.315 2294.59,714.456 C2294.59,710.284 2294.5,706.19 2294.31,702.393 C2294.31,701.925 2294.22,701.065 2294.03,699.643 C2293.84,698.206 2293.56,696.878 2293.45,695.643 C2293.36,695.081 2293.36,694.503 2293.36,693.94 C2293.36,693.268 2293.36,692.706 2293.45,692.034 C2293.66,690.8 2294.03,689.846 2294.69,689.378 C2295.55,688.706 2296.5,688.425 2297.55,688.425 C2297.83,688.518 2298.11,688.518 2298.41,688.518 C2299.83,688.706 2301.34,689.19 2302.95,690.05 C2304.58,690.893 2306.09,692.034 2307.52,693.175 C2308.95,694.315 2310.28,695.456 2311.33,696.596 C2312.36,697.737 2313.22,698.596 2313.7,699.456 C2315.22,701.925 2316.27,704.675 2316.83,707.706 C2317.11,709.425 2317.31,711.128 2317.31,712.846 C2317.31,714.081 2317.2,715.315 2317.11,716.55 C2316.64,719.487 2315.78,722.346 2314.55,725.096 C2313.31,727.846 2311.7,730.331 2309.8,732.503 C2307.81,734.69 2305.53,736.409 2302.86,737.831 C2300.2,739.253 2297.36,740.112 2294.31,740.393"/>
<path class="Harmony" d="M202.548,1009.01 C203.783,1010.62 204.627,1012.81 205.298,1015.57 C205.97,1018.32 206.439,1020.98 206.908,1023.75 C207.392,1026.5 207.673,1029.06 207.767,1031.34 L200.548,1030.57 L192.752,1031.34 L196.752,1019.46 L202.548,1009.01 M200.83,1042.45 L202.736,1042.45 L205.58,1042.45 L206.345,1042.45 L207.205,1042.45 C207.298,1042.45 207.58,1042.54 207.955,1042.54 C208.345,1042.54 208.627,1042.54 208.814,1042.64 C209.002,1042.75 209.189,1042.84 209.486,1042.93 C209.767,1043.03 209.955,1043.12 210.142,1043.31 C210.33,1043.5 210.627,1043.59 210.814,1043.78 C211.283,1044.26 211.752,1045.21 212.142,1046.45 C212.517,1047.59 212.892,1048.82 213.189,1050.25 C213.47,1051.67 213.752,1053.09 214.033,1054.71 C214.33,1056.32 214.705,1057.75 215.08,1059.07 C215.47,1060.4 216.033,1061.64 216.611,1062.68 C217.173,1063.73 217.845,1064.4 218.689,1064.78 C219.08,1064.96 219.548,1065.06 220.127,1065.06 C220.595,1065.06 221.158,1064.96 221.736,1064.78 C222.595,1064.5 223.252,1064.12 223.923,1063.73 C224.58,1063.35 225.064,1062.98 225.439,1062.5 C225.814,1062.03 226.111,1061.54 226.392,1060.98 C226.673,1060.4 226.861,1060.03 226.955,1059.56 C227.048,1059.17 227.048,1058.79 227.048,1058.32 L227.048,1057.84 C227.048,1057.18 227.048,1056.51 226.955,1056.04 C226.861,1055.56 226.673,1055 226.486,1054.23 C226.298,1053.48 226.111,1052.9 225.908,1052.43 C225.72,1051.95 225.627,1051.29 225.345,1050.43 C225.064,1049.57 224.767,1049.01 224.673,1048.64 C224.017,1046.73 222.877,1042.93 221.252,1037.32 C220.127,1033.25 219.173,1029.82 218.502,1027.15 C217.267,1022.31 216.22,1018.32 215.47,1015.18 C214.236,1009.96 213.283,1006.45 212.798,1004.64 C212.705,1004.26 212.611,1003.7 212.423,1002.93 C212.236,1002.17 212.142,1001.51 212.048,1000.93 C211.955,1000.37 211.658,999.792 211.47,999.042 C211.283,998.276 211.095,997.511 210.908,996.948 C210.72,996.37 210.33,995.714 210.048,995.042 C209.767,994.386 209.377,993.901 209.002,993.433 C208.627,992.964 208.345,992.573 207.861,992.198 C207.392,991.823 206.908,991.433 206.345,991.339 C205.877,991.245 205.392,991.151 204.83,991.151 L204.439,991.151 C203.783,991.245 203.017,991.339 202.158,991.62 C201.502,991.917 200.736,992.292 200.08,992.761 C199.408,993.245 198.752,993.62 198.267,994.105 C197.798,994.573 197.314,995.245 196.845,995.995 C196.377,996.761 195.892,997.323 195.611,997.901 C195.33,998.464 194.939,999.23 194.564,1000.18 C194.189,1001.12 193.798,1001.89 193.611,1002.46 C193.423,1003.03 193.236,1003.79 192.861,1004.75 C192.47,1005.68 192.189,1006.35 192.095,1006.82 C189.345,1013.76 186.58,1020.32 183.83,1026.68 C179.361,1036.85 176.705,1043.03 175.939,1045.31 C175.845,1045.68 175.47,1046.35 174.986,1047.39 C174.517,1048.43 173.955,1049.39 173.47,1050.34 C173.002,1051.29 172.517,1052.53 171.955,1053.76 C171.377,1055 170.908,1056.23 170.627,1057.28 C170.236,1058.32 170.048,1059.26 170.048,1060.12 C170.142,1060.98 170.345,1061.54 170.814,1062.03 C171.673,1062.68 172.611,1063.07 173.658,1063.07 L174.33,1063.07 C175.658,1062.89 176.986,1062.5 178.314,1061.75 C179.642,1060.98 180.595,1060.12 181.08,1059.26 C181.642,1058.23 182.22,1057 182.689,1055.46 C183.158,1053.95 183.642,1052.53 183.923,1051.29 C184.205,1050.06 184.595,1048.73 185.252,1047.29 C185.923,1045.87 186.673,1044.73 187.533,1043.78 L192.658,1042.17 C192.955,1042.07 193.33,1042.17 194.002,1042.17 L196.752,1042.17 C197.033,1042.17 198.455,1042.26 200.83,1042.45"/>
<path class="Harmony" d="M869.157,989.058 C868.689,989.151 867.923,989.245 866.689,989.355 C865.454,989.448 864.501,989.636 863.845,989.73 C863.173,989.823 862.22,989.917 861.079,990.105 C859.939,990.292 859.095,990.589 858.329,990.87 C857.564,991.151 856.72,991.526 855.954,992.011 C855.189,992.48 854.532,992.964 854.048,993.62 C853.392,994.292 852.907,995.042 852.532,995.808 C852.157,996.573 851.876,997.511 851.767,998.464 C851.673,999.136 851.673,999.792 851.673,1000.46 L851.673,1001.03 C851.767,1001.7 851.767,1002.65 851.876,1003.79 C851.97,1004.93 851.97,1005.87 851.97,1006.54 C851.97,1017.37 852.251,1028.01 852.72,1038.56 C852.814,1039.12 852.814,1039.7 852.814,1040.37 C852.72,1042.35 852.626,1045.01 852.439,1048.15 C852.157,1051.85 851.97,1054.62 851.97,1056.42 L851.97,1057 L851.97,1058.6 C851.97,1059.07 852.157,1059.56 852.251,1060.12 C852.345,1060.7 852.532,1061.17 852.814,1061.45 C853.11,1061.75 853.392,1062.03 853.86,1062.31 C854.251,1062.5 854.72,1062.59 855.282,1062.59 L855.579,1062.59 C858.892,1062.5 862.22,1061.84 865.548,1060.6 C868.876,1059.37 872.017,1057.84 874.954,1055.85 C877.907,1053.85 880.657,1051.48 883.314,1048.73 C885.97,1045.96 888.251,1043.12 890.157,1040.07 C892.048,1037.04 893.673,1033.9 894.907,1030.57 C896.142,1027.25 896.798,1023.93 897.001,1020.79 C897.095,1020.12 897.095,1019.37 897.095,1018.7 C897.095,1016.9 896.907,1015 896.517,1013.1 C896.048,1010.43 895.282,1007.78 894.235,1005.31 C893.189,1002.84 891.86,1000.56 890.157,998.37 C888.439,996.183 886.548,994.386 884.454,992.87 C882.36,991.339 880.079,990.198 877.423,989.542 C875.72,989.058 873.907,988.87 872.11,988.87 C871.157,988.87 870.204,988.964 869.157,989.058 M863.267,1050.43 C863.267,1047.68 863.36,1043.68 863.454,1038.56 C863.548,1034.48 863.642,1030.57 863.642,1027.06 C863.642,1026.21 863.548,1025.35 863.548,1024.5 C863.548,1020.32 863.454,1016.23 863.267,1012.43 C863.267,1011.96 863.173,1011.1 862.985,1009.68 C862.798,1008.25 862.517,1006.92 862.407,1005.68 C862.314,1005.12 862.314,1004.54 862.314,1003.98 C862.314,1003.31 862.314,1002.75 862.407,1002.07 C862.61,1000.84 862.985,999.886 863.642,999.417 C864.501,998.745 865.454,998.464 866.501,998.464 C866.782,998.558 867.064,998.558 867.36,998.558 C868.782,998.745 870.298,999.23 871.907,1000.09 C873.532,1000.93 875.048,1002.07 876.47,1003.21 C877.907,1004.35 879.235,1005.5 880.282,1006.64 C881.314,1007.78 882.173,1008.64 882.657,1009.5 C884.173,1011.96 885.22,1014.71 885.782,1017.75 C886.064,1019.46 886.267,1021.17 886.267,1022.89 C886.267,1024.12 886.157,1025.35 886.064,1026.59 C885.595,1029.53 884.735,1032.39 883.501,1035.14 C882.267,1037.89 880.657,1040.37 878.751,1042.54 C876.767,1044.73 874.485,1046.45 871.814,1047.87 C869.157,1049.29 866.314,1050.15 863.267,1050.43"/>
<path class="Harmony" d="M1587.72,989.448 C1584.01,989.917 1580.5,990.776 1577.08,992.011 C1573.65,993.245 1570.51,994.948 1567.48,996.948 C1564.44,998.948 1561.69,1001.23 1559.31,1003.79 C1556.94,1006.35 1554.94,1009.29 1553.23,1012.62 C1551.51,1015.95 1550.37,1019.46 1549.72,1023.17 C1549.23,1025.45 1549.04,1027.82 1549.04,1030.2 L1549.04,1030.87 C1549.04,1033.14 1549.14,1035.32 1549.42,1037.51 C1549.72,1039.89 1550.28,1042.26 1551.04,1044.45 C1551.9,1046.73 1552.84,1048.92 1553.89,1050.9 C1554.94,1052.9 1556.26,1054.71 1557.79,1056.32 C1559.31,1057.93 1561.2,1059.26 1563.11,1060.4 C1565.01,1061.54 1567.19,1062.4 1569.56,1062.89 C1571.19,1063.17 1572.79,1063.35 1574.42,1063.35 C1575.26,1063.35 1576.22,1063.35 1577.26,1063.26 C1580.2,1062.98 1582.97,1062.31 1585.53,1061.35 C1588.09,1060.4 1590.47,1059.26 1592.47,1057.93 C1594.45,1056.6 1596.45,1054.9 1598.26,1053 C1600.06,1051.1 1601.78,1049.01 1603.2,1046.92 C1604.62,1044.82 1605.95,1042.45 1607.37,1039.79 C1609.56,1035.42 1610.61,1031.71 1610.61,1028.78 C1610.61,1025.82 1609.56,1023.54 1607.37,1021.93 C1606.14,1020.89 1604.06,1020.23 1601.29,1019.75 C1599.31,1019.46 1597.31,1019.28 1595.31,1019.28 L1594.84,1019.28 L1592.75,1019.28 C1589.81,1019.37 1587.04,1019.84 1584.39,1020.7 C1581.73,1021.56 1579.92,1022.6 1578.97,1023.84 C1578.69,1024.31 1578.4,1024.68 1578.12,1025.07 C1577.45,1026.12 1577.08,1027.06 1577.08,1027.92 C1577.08,1029.15 1577.94,1030.01 1579.54,1030.48 C1580.87,1030.87 1583.44,1031.06 1587.14,1031.06 L1588,1031.06 C1589.23,1031.15 1590.19,1031.15 1590.84,1031.15 C1594.75,1031.15 1597.12,1031.62 1597.87,1032.67 C1598.17,1033.04 1598.45,1033.62 1598.45,1034.18 C1598.45,1034.76 1598.36,1035.32 1598.26,1035.9 C1598.17,1036.46 1597.87,1037.14 1597.59,1037.89 C1597.31,1038.65 1597.03,1039.23 1596.73,1039.7 C1596.45,1040.17 1596.17,1040.84 1595.79,1041.6 C1595.4,1042.35 1595.12,1042.75 1595.03,1042.93 C1594.56,1043.78 1594.26,1044.45 1593.98,1044.92 C1593.7,1045.4 1593.31,1045.87 1592.84,1046.54 C1592.37,1047.2 1591.79,1047.78 1591.33,1048.15 C1589.33,1049.67 1587.14,1050.71 1584.58,1051.2 L1581.34,1051.57 L1580.97,1051.57 C1579.73,1051.48 1578.4,1051.39 1577.17,1051.1 C1574.79,1050.62 1572.42,1049.76 1570.23,1048.43 C1568.04,1047.1 1566.15,1045.5 1564.72,1043.59 C1563.29,1041.6 1561.97,1039.23 1561.01,1036.56 C1560.06,1033.9 1559.5,1031.15 1559.31,1028.2 C1559.22,1027.15 1559.22,1026.21 1559.22,1025.17 C1559.22,1023.26 1559.31,1021.37 1559.59,1019.56 C1560.06,1016.81 1560.92,1014.14 1562.25,1011.67 C1563.58,1009.2 1565.29,1007.21 1567.39,1005.68 C1569.95,1003.7 1573.08,1002.26 1576.69,1001.32 C1578.69,1000.75 1580.69,1000.46 1582.58,1000.46 C1583.92,1000.46 1585.25,1000.65 1586.48,1000.93 C1587.53,1001.23 1588.56,1001.6 1589.81,1002.17 C1591.04,1002.75 1592.08,1003.31 1593.03,1003.89 C1593.98,1004.45 1595.03,1005.03 1596.08,1005.59 C1597.12,1006.17 1598.17,1006.64 1599.11,1006.82 C1600.06,1007.01 1601.01,1007.12 1601.97,1007.01 C1602.92,1006.92 1603.86,1006.45 1604.81,1005.59 C1605.76,1004.75 1606.62,1003.6 1607.47,1002.17 C1607.95,1001.32 1608.23,1000.46 1608.23,999.605 C1608.23,998.948 1608.04,998.37 1607.76,997.714 C1607,996.276 1605.76,995.042 1604.06,993.995 C1602.34,992.964 1600.54,992.011 1598.45,991.245 C1596.36,990.48 1594.36,990.011 1592.37,989.73 C1590.94,989.448 1589.81,989.355 1588.86,989.355 C1588.37,989.355 1588,989.355 1587.72,989.448"/>
<path class="Harmony" d="M1902.03,1009.01 C1903.27,1010.62 1904.11,1012.81 1904.78,1015.57 C1905.46,1018.32 1905.93,1020.98 1906.39,1023.75 C1906.88,1026.5 1907.16,1029.06 1907.25,1031.34 L1900.03,1030.57 L1892.24,1031.34 L1896.24,1019.46 L1902.03,1009.01 M1900.32,1042.45 L1902.22,1042.45 L1905.07,1042.45 L1905.83,1042.45 L1906.69,1042.45 C1906.78,1042.45 1907.07,1042.54 1907.44,1042.54 C1907.83,1042.54 1908.11,1042.54 1908.3,1042.64 C1908.49,1042.75 1908.68,1042.84 1908.97,1042.93 C1909.25,1043.03 1909.44,1043.12 1909.63,1043.31 C1909.82,1043.5 1910.11,1043.59 1910.3,1043.78 C1910.77,1044.26 1911.24,1045.21 1911.63,1046.45 C1912,1047.59 1912.38,1048.82 1912.68,1050.25 C1912.96,1051.67 1913.24,1053.09 1913.52,1054.71 C1913.82,1056.32 1914.19,1057.75 1914.57,1059.07 C1914.96,1060.4 1915.52,1061.64 1916.1,1062.68 C1916.66,1063.73 1917.33,1064.4 1918.18,1064.78 C1918.57,1064.96 1919.03,1065.06 1919.61,1065.06 C1920.08,1065.06 1920.64,1064.96 1921.22,1064.78 C1922.08,1064.5 1922.74,1064.12 1923.41,1063.73 C1924.07,1063.35 1924.55,1062.98 1924.93,1062.5 C1925.3,1062.03 1925.6,1061.54 1925.88,1060.98 C1926.16,1060.4 1926.35,1060.03 1926.44,1059.56 C1926.53,1059.17 1926.53,1058.79 1926.53,1058.32 L1926.53,1057.84 C1926.53,1057.18 1926.53,1056.51 1926.44,1056.04 C1926.35,1055.56 1926.16,1055 1925.97,1054.23 C1925.78,1053.48 1925.6,1052.9 1925.39,1052.43 C1925.21,1051.95 1925.11,1051.29 1924.83,1050.43 C1924.55,1049.57 1924.25,1049.01 1924.16,1048.64 C1923.5,1046.73 1922.36,1042.93 1920.74,1037.32 C1919.61,1033.25 1918.66,1029.82 1917.99,1027.15 C1916.75,1022.31 1915.71,1018.32 1914.96,1015.18 C1913.72,1009.96 1912.77,1006.45 1912.28,1004.64 C1912.19,1004.26 1912.1,1003.7 1911.91,1002.93 C1911.72,1002.17 1911.63,1001.51 1911.53,1000.93 C1911.44,1000.37 1911.14,999.792 1910.96,999.042 C1910.77,998.276 1910.58,997.511 1910.39,996.948 C1910.21,996.37 1909.82,995.714 1909.53,995.042 C1909.25,994.386 1908.86,993.901 1908.49,993.433 C1908.11,992.964 1907.83,992.573 1907.35,992.198 C1906.88,991.823 1906.39,991.433 1905.83,991.339 C1905.36,991.245 1904.88,991.151 1904.32,991.151 L1903.93,991.151 C1903.27,991.245 1902.5,991.339 1901.64,991.62 C1900.99,991.917 1900.22,992.292 1899.57,992.761 C1898.89,993.245 1898.24,993.62 1897.75,994.105 C1897.28,994.573 1896.8,995.245 1896.33,995.995 C1895.86,996.761 1895.38,997.323 1895.1,997.901 C1894.82,998.464 1894.43,999.23 1894.05,1000.18 C1893.68,1001.12 1893.28,1001.89 1893.1,1002.46 C1892.91,1003.03 1892.72,1003.79 1892.35,1004.75 C1891.96,1005.68 1891.68,1006.35 1891.58,1006.82 C1888.83,1013.76 1886.07,1020.32 1883.32,1026.68 C1878.85,1036.85 1876.19,1043.03 1875.43,1045.31 C1875.33,1045.68 1874.96,1046.35 1874.47,1047.39 C1874,1048.43 1873.44,1049.39 1872.96,1050.34 C1872.49,1051.29 1872,1052.53 1871.44,1053.76 C1870.86,1055 1870.39,1056.23 1870.11,1057.28 C1869.72,1058.32 1869.53,1059.26 1869.53,1060.12 C1869.63,1060.98 1869.83,1061.54 1870.3,1062.03 C1871.16,1062.68 1872.1,1063.07 1873.14,1063.07 L1873.82,1063.07 C1875.14,1062.89 1876.47,1062.5 1877.8,1061.75 C1879.13,1060.98 1880.08,1060.12 1880.57,1059.26 C1881.13,1058.23 1881.71,1057 1882.18,1055.46 C1882.64,1053.95 1883.13,1052.53 1883.41,1051.29 C1883.69,1050.06 1884.08,1048.73 1884.74,1047.29 C1885.41,1045.87 1886.16,1044.73 1887.02,1043.78 L1892.14,1042.17 C1892.44,1042.07 1892.82,1042.17 1893.49,1042.17 L1896.24,1042.17 C1896.52,1042.17 1897.94,1042.26 1900.32,1042.45"/>
<path class="Harmony" d="M2264.46,989.058 C2263.99,989.151 2263.23,989.245 2261.99,989.355 C2260.76,989.448 2259.81,989.636 2259.15,989.73 C2258.48,989.823 2257.53,989.917 2256.38,990.105 C2255.24,990.292 2254.4,990.589 2253.63,990.87 C2252.87,991.151 2252.03,991.526 2251.26,992.011 C2250.49,992.48 2249.84,992.964 2249.35,993.62 C2248.7,994.292 2248.21,995.042 2247.84,995.808 C2247.46,996.573 2247.18,997.511 2247.07,998.464 C2246.98,999.136 2246.98,999.792 2246.98,1000.46 L2246.98,1001.03 C2247.07,1001.7 2247.07,1002.65 2247.18,1003.79 C2247.28,1004.93 2247.28,1005.87 2247.28,1006.54 C2247.28,1017.37 2247.56,1028.01 2248.03,1038.56 C2248.12,1039.12 2248.12,1039.7 2248.12,1040.37 C2248.03,1042.35 2247.93,1045.01 2247.74,1048.15 C2247.46,1051.85 2247.28,1054.62 2247.28,1056.42 L2247.28,1057 L2247.28,1058.6 C2247.28,1059.07 2247.46,1059.56 2247.56,1060.12 C2247.65,1060.7 2247.84,1061.17 2248.12,1061.45 C2248.42,1061.75 2248.7,1062.03 2249.17,1062.31 C2249.56,1062.5 2250.03,1062.59 2250.59,1062.59 L2250.88,1062.59 C2254.2,1062.5 2257.53,1061.84 2260.85,1060.6 C2264.18,1059.37 2267.32,1057.84 2270.26,1055.85 C2273.21,1053.85 2275.96,1051.48 2278.62,1048.73 C2281.28,1045.96 2283.56,1043.12 2285.46,1040.07 C2287.35,1037.04 2288.98,1033.9 2290.21,1030.57 C2291.45,1027.25 2292.1,1023.93 2292.31,1020.79 C2292.4,1020.12 2292.4,1019.37 2292.4,1018.7 C2292.4,1016.9 2292.21,1015 2291.82,1013.1 C2291.35,1010.43 2290.59,1007.78 2289.54,1005.31 C2288.49,1002.84 2287.17,1000.56 2285.46,998.37 C2283.74,996.183 2281.85,994.386 2279.76,992.87 C2277.67,991.339 2275.38,990.198 2272.73,989.542 C2271.03,989.058 2269.21,988.87 2267.42,988.87 C2266.46,988.87 2265.51,988.964 2264.46,989.058 M2258.57,1050.43 C2258.57,1047.68 2258.67,1043.68 2258.76,1038.56 C2258.85,1034.48 2258.95,1030.57 2258.95,1027.06 C2258.95,1026.21 2258.85,1025.35 2258.85,1024.5 C2258.85,1020.32 2258.76,1016.23 2258.57,1012.43 C2258.57,1011.96 2258.48,1011.1 2258.29,1009.68 C2258.1,1008.25 2257.82,1006.92 2257.71,1005.68 C2257.62,1005.12 2257.62,1004.54 2257.62,1003.98 C2257.62,1003.31 2257.62,1002.75 2257.71,1002.07 C2257.92,1000.84 2258.29,999.886 2258.95,999.417 C2259.81,998.745 2260.76,998.464 2261.81,998.464 C2262.09,998.558 2262.37,998.558 2262.67,998.558 C2264.09,998.745 2265.6,999.23 2267.21,1000.09 C2268.84,1000.93 2270.35,1002.07 2271.78,1003.21 C2273.21,1004.35 2274.54,1005.5 2275.59,1006.64 C2276.62,1007.78 2277.48,1008.64 2277.96,1009.5 C2279.48,1011.96 2280.53,1014.71 2281.09,1017.75 C2281.37,1019.46 2281.57,1021.17 2281.57,1022.89 C2281.57,1024.12 2281.46,1025.35 2281.37,1026.59 C2280.9,1029.53 2280.04,1032.39 2278.81,1035.14 C2277.57,1037.89 2275.96,1040.37 2274.06,1042.54 C2272.07,1044.73 2269.79,1046.45 2267.12,1047.87 C2264.46,1049.29 2261.62,1050.15 2258.57,1050.43"/>
</svg>
