<?xml version="1.0" encoding="UTF-8" standalone="no"?>
<svg width="2976.38px" height="1417.32px" viewBox="0 0 2976.38 1417.32"
 xmlns="http://www.w3.org/2000/svg" xmlns:xlink="http://www.w3.org/1999/xlink" version="1.2" baseProfile="tiny">
<title>SadieThroughTheBackDoor</title>
<desc>Generated by MuseScore 3.6.2</desc>
<polyline class="StaffLines" fill="none" stroke="#000000" stroke-width="2.73" stroke-linejoin="bevel" points="138.189,187.795 2933.86,187.795"/>
<polyline class="StaffLines" fill="none" stroke="#000000" stroke-width="2.73" stroke-linejoin="bevel" points="138.189,212.598 2933.86,212.598"/>
<polyline class="StaffLines" fill="none" stroke="#000000" stroke-width="2.73" stroke-linejoin="bevel" points="138.189,237.402 2933.86,237.402"/>
<polyline class="StaffLines" fill="none" stroke="#000000" stroke-width="2.73" stroke-linejoin="bevel" points="138.189,262.205 2933.86,262.205"/>
<polyline class="StaffLines" fill="none" stroke="#000000" stroke-width="2.73" stroke-linejoin="bevel" points="138.189,287.008 2933.86,287.008"/>
<polyline class="StaffLines" fill="none" stroke="#000000" stroke-width="2.73" stroke-linejoin="bevel" points="14.1732,497.835 2933.86,497.835"/>
<polyline class="StaffLines" fill="none" stroke="#000000" stroke-width="2.73" stroke-linejoin="bevel" points="14.1732,522.638 2933.86,522.638"/>
<polyline class="StaffLines" fill="none" stroke="#000000" stroke-width="2.73" stroke-linejoin="bevel" points="14.1732,547.441 2933.86,547.441"/>
<polyline class="StaffLines" fill="none" stroke="#000000" stroke-width="2.73" stroke-linejoin="bevel" points="14.1732,572.244 2933.86,572.244"/>
<polyline class="StaffLines" fill="none" stroke="#000000" stroke-width="2.73" stroke-linejoin="bevel" points="14.1732,597.047 2933.86,597.047"/>
<polyline class="StaffLines" fill="none" stroke="#000000" stroke-width="2.73" stroke-linejoin="bevel" points="14.1732,815.417 2933.86,815.417"/>
<polyline class="StaffLines" fill="none" stroke="#000000" stroke-width="2.73" stroke-linejoin="bevel" points="14.1732,840.22 2933.86,840.22"/>
<polyline class="StaffLines" fill="none" stroke="#000000" stroke-width="2.73" stroke-linejoin="bevel" points="14.1732,865.023 2933.86,865.023"/>
<polyline class="StaffLines" fill="none" stroke="#000000" stroke-width="2.73" stroke-linejoin="bevel" points="14.1732,889.826 2933.86,889.826"/>
<polyline class="StaffLines" fill="none" stroke="#000000" stroke-width="2.73" stroke-linejoin="bevel" points="14.1732,914.629 2933.86,914.629"/>
<polyline class="StaffLines" fill="none" stroke="#000000" stroke-width="2.73" stroke-linejoin="bevel" points="14.1732,1125.46 2933.86,1125.46"/>
<polyline class="StaffLines" fill="none" stroke="#000000" stroke-width="2.73" stroke-linejoin="bevel" points="14.1732,1150.26 2933.86,1150.26"/>
<polyline class="StaffLines" fill="none" stroke="#000000" stroke-width="2.73" stroke-linejoin="bevel" points="14.1732,1175.06 2933.86,1175.06"/>
<polyline class="StaffLines" fill="none" stroke="#000000" stroke-width="2.73" stroke-linejoin="bevel" points="14.1732,1199.87 2933.86,1199.87"/>
<polyline class="StaffLines" fill="none" stroke="#000000" stroke-width="2.73" stroke-linejoin="bevel" points="14.1732,1224.67 2933.86,1224.67"/>
<polyline class="BarLine" fill="none" stroke="#000000" stroke-width="4.46" stroke-linejoin="bevel" points="953.226,186.431 953.226,288.372"/>
<polyline class="BarLine" fill="none" stroke="#000000" stroke-width="4.46" stroke-linejoin="bevel" points="1612.69,186.431 1612.69,288.372"/>
<polyline class="BarLine" fill="none" stroke="#000000" stroke-width="4.46" stroke-linejoin="bevel" points="2272.16,186.431 2272.16,288.372"/>
<polyline class="BarLine" fill="none" stroke="#000000" stroke-width="4.46" stroke-linejoin="bevel" points="2931.63,186.431 2931.63,288.372"/>
<polyline class="BarLine" fill="none" stroke="#000000" stroke-width="4.46" stroke-linejoin="bevel" points="808.481,496.47 808.481,598.411"/>
<polyline class="BarLine" fill="none" stroke="#000000" stroke-width="4.46" stroke-linejoin="bevel" points="1502.1,496.47 1502.1,598.411"/>
<polyline class="BarLine" fill="none" stroke="#000000" stroke-width="4.46" stroke-linejoin="bevel" points="2195.73,496.47 2195.73,598.411"/>
<path class="BarLine" transform="matrix(0.992126,0,0,0.992126,2887.12,535.039)" d="M10.4063,0 C10.4063,-2.90625 8.09375,-5.29688 5.20313,-5.29688 C2.29688,-5.29688 0,-2.90625 0,0 C0,2.90625 2.29688,5.29688 5.20313,5.29688 C8.09375,5.29688 10.4063,2.90625 10.4063,0"/>
<path class="BarLine" transform="matrix(0.992126,0,0,0.992126,2887.12,559.843)" d="M10.4063,0 C10.4063,-2.90625 8.09375,-5.29688 5.20313,-5.29688 C2.29688,-5.29688 0,-2.90625 0,0 C0,2.90625 2.29688,5.29688 5.20313,5.29688 C8.09375,5.29688 10.4063,2.90625 10.4063,0"/>
<polyline class="BarLine" fill="none" stroke="#000000" stroke-width="4.46" stroke-linejoin="bevel" points="2909.64,496.47 2909.64,598.411"/>
<polyline class="BarLine" fill="none" stroke="#000000" stroke-width="13.64" stroke-linejoin="bevel" points="2927,496.47 2927,598.411"/>
<polyline class="BarLine" fill="none" stroke="#000000" stroke-width="4.46" stroke-linejoin="bevel" points="819.051,814.053 819.051,915.994"/>
<polyline class="BarLine" fill="none" stroke="#000000" stroke-width="4.46" stroke-linejoin="bevel" points="1523.24,814.053 1523.24,915.994"/>
<polyline class="BarLine" fill="none" stroke="#000000" stroke-width="4.46" stroke-linejoin="bevel" points="2227.44,814.053 2227.44,915.994"/>
<polyline class="BarLine" fill="none" stroke="#000000" stroke-width="4.46" stroke-linejoin="bevel" points="2931.63,814.053 2931.63,915.994"/>
<polyline class="BarLine" fill="none" stroke="#000000" stroke-width="4.46" stroke-linejoin="bevel" points="812.511,1124.09 812.511,1226.03"/>
<polyline class="BarLine" fill="none" stroke="#000000" stroke-width="4.46" stroke-linejoin="bevel" points="1494.04,1124.09 1494.04,1226.03"/>
<polyline class="BarLine" fill="none" stroke="#000000" stroke-width="4.46" stroke-linejoin="bevel" points="2191.69,1124.09 2191.69,1226.03"/>
<path class="BarLine" transform="matrix(0.992126,0,0,0.992126,2887.12,1162.66)" d="M10.4063,0 C10.4063,-2.90625 8.09375,-5.29688 5.20313,-5.29688 C2.29688,-5.29688 0,-2.90625 0,0 C0,2.90625 2.29688,5.29688 5.20313,5.29688 C8.09375,5.29688 10.4063,2.90625 10.4063,0"/>
<path class="BarLine" transform="matrix(0.992126,0,0,0.992126,2887.12,1187.46)" d="M10.4063,0 C10.4063,-2.90625 8.09375,-5.29688 5.20313,-5.29688 C2.29688,-5.29688 0,-2.90625 0,0 C0,2.90625 2.29688,5.29688 5.20313,5.29688 C8.09375,5.29688 10.4063,2.90625 10.4063,0"/>
<polyline class="BarLine" fill="none" stroke="#000000" stroke-width="4.46" stroke-linejoin="bevel" points="2909.64,1124.09 2909.64,1226.03"/>
<polyline class="BarLine" fill="none" stroke="#000000" stroke-width="13.64" stroke-linejoin="bevel" points="2927,1124.09 2927,1226.03"/>
<path class="Note" transform="matrix(0.992126,0,0,0.992126,338.405,237.402)" d="M43,-25 L0,25 L10,25 L53,-25 L43,-25 "/>
<path class="Note" transform="matrix(0.992126,0,0,0.992126,489.01,237.402)" d="M43,-25 L0,25 L10,25 L53,-25 L43,-25 "/>
<path class="Note" transform="matrix(0.992126,0,0,0.992126,639.615,237.402)" d="M43,-25 L0,25 L10,25 L53,-25 L43,-25 "/>
<path class="Note" transform="matrix(0.992126,0,0,0.992126,790.22,237.402)" d="M43,-25 L0,25 L10,25 L53,-25 L43,-25 "/>
<path class="Note" transform="matrix(0.992126,0,0,0.992126,997.872,237.402)" d="M43,-25 L0,25 L10,25 L53,-25 L43,-25 "/>
<path class="Note" transform="matrix(0.992126,0,0,0.992126,1148.48,237.402)" d="M43,-25 L0,25 L10,25 L53,-25 L43,-25 "/>
<path class="Note" transform="matrix(0.992126,0,0,0.992126,1299.08,237.402)" d="M43,-25 L0,25 L10,25 L53,-25 L43,-25 "/>
<path class="Note" transform="matrix(0.992126,0,0,0.992126,1449.69,237.402)" d="M43,-25 L0,25 L10,25 L53,-25 L43,-25 "/>
<path class="Note" transform="matrix(0.992126,0,0,0.992126,1657.34,237.402)" d="M43,-25 L0,25 L10,25 L53,-25 L43,-25 "/>
<path class="Note" transform="matrix(0.992126,0,0,0.992126,1807.94,237.402)" d="M43,-25 L0,25 L10,25 L53,-25 L43,-25 "/>
<path class="Note" transform="matrix(0.992126,0,0,0.992126,1958.55,237.402)" d="M43,-25 L0,25 L10,25 L53,-25 L43,-25 "/>
<path class="Note" transform="matrix(0.992126,0,0,0.992126,2109.15,237.402)" d="M43,-25 L0,25 L10,25 L53,-25 L43,-25 "/>
<path class="Note" transform="matrix(0.992126,0,0,0.992126,2316.81,237.402)" d="M43,-25 L0,25 L10,25 L53,-25 L43,-25 "/>
<path class="Note" transform="matrix(0.992126,0,0,0.992126,2467.41,237.402)" d="M43,-25 L0,25 L10,25 L53,-25 L43,-25 "/>
<path class="Note" transform="matrix(0.992126,0,0,0.992126,2618.02,237.402)" d="M43,-25 L0,25 L10,25 L53,-25 L43,-25 "/>
<path class="Note" transform="matrix(0.992126,0,0,0.992126,2768.62,237.402)" d="M43,-25 L0,25 L10,25 L53,-25 L43,-25 "/>
<path class="Note" transform="matrix(0.992126,0,0,0.992126,159.504,547.441)" d="M43,-25 L0,25 L10,25 L53,-25 L43,-25 "/>
<path class="Note" transform="matrix(0.992126,0,0,0.992126,318.648,547.441)" d="M43,-25 L0,25 L10,25 L53,-25 L43,-25 "/>
<path class="Note" transform="matrix(0.992126,0,0,0.992126,477.792,547.441)" d="M43,-25 L0,25 L10,25 L53,-25 L43,-25 "/>
<path class="Note" transform="matrix(0.992126,0,0,0.992126,636.935,547.441)" d="M43,-25 L0,25 L10,25 L53,-25 L43,-25 "/>
<path class="Note" transform="matrix(0.992126,0,0,0.992126,853.126,547.441)" d="M43,-25 L0,25 L10,25 L53,-25 L43,-25 "/>
<path class="Note" transform="matrix(0.992126,0,0,0.992126,1012.27,547.441)" d="M43,-25 L0,25 L10,25 L53,-25 L43,-25 "/>
<path class="Note" transform="matrix(0.992126,0,0,0.992126,1171.41,547.441)" d="M43,-25 L0,25 L10,25 L53,-25 L43,-25 "/>
<path class="Note" transform="matrix(0.992126,0,0,0.992126,1330.56,547.441)" d="M43,-25 L0,25 L10,25 L53,-25 L43,-25 "/>
<path class="Note" transform="matrix(0.992126,0,0,0.992126,1546.75,547.441)" d="M43,-25 L0,25 L10,25 L53,-25 L43,-25 "/>
<path class="Note" transform="matrix(0.992126,0,0,0.992126,1705.89,547.441)" d="M43,-25 L0,25 L10,25 L53,-25 L43,-25 "/>
<path class="Note" transform="matrix(0.992126,0,0,0.992126,1865.04,547.441)" d="M43,-25 L0,25 L10,25 L53,-25 L43,-25 "/>
<path class="Note" transform="matrix(0.992126,0,0,0.992126,2024.18,547.441)" d="M43,-25 L0,25 L10,25 L53,-25 L43,-25 "/>
<path class="Note" transform="matrix(0.992126,0,0,0.992126,2240.37,547.441)" d="M43,-25 L0,25 L10,25 L53,-25 L43,-25 "/>
<path class="Note" transform="matrix(0.992126,0,0,0.992126,2399.51,547.441)" d="M43,-25 L0,25 L10,25 L53,-25 L43,-25 "/>
<path class="Note" transform="matrix(0.992126,0,0,0.992126,2558.66,547.441)" d="M43,-25 L0,25 L10,25 L53,-25 L43,-25 "/>
<path class="Note" transform="matrix(0.992126,0,0,0.992126,2717.8,547.441)" d="M43,-25 L0,25 L10,25 L53,-25 L43,-25 "/>
<path class="Note" transform="matrix(0.992126,0,0,0.992126,159.504,865.023)" d="M43,-25 L0,25 L10,25 L53,-25 L43,-25 "/>
<path class="Note" transform="matrix(0.992126,0,0,0.992126,321.29,865.023)" d="M43,-25 L0,25 L10,25 L53,-25 L43,-25 "/>
<path class="Note" transform="matrix(0.992126,0,0,0.992126,483.077,865.023)" d="M43,-25 L0,25 L10,25 L53,-25 L43,-25 "/>
<path class="Note" transform="matrix(0.992126,0,0,0.992126,644.863,865.023)" d="M43,-25 L0,25 L10,25 L53,-25 L43,-25 "/>
<path class="Note" transform="matrix(0.992126,0,0,0.992126,863.696,865.023)" d="M43,-25 L0,25 L10,25 L53,-25 L43,-25 "/>
<path class="Note" transform="matrix(0.992126,0,0,0.992126,1025.48,865.023)" d="M43,-25 L0,25 L10,25 L53,-25 L43,-25 "/>
<path class="Note" transform="matrix(0.992126,0,0,0.992126,1187.27,865.023)" d="M43,-25 L0,25 L10,25 L53,-25 L43,-25 "/>
<path class="Note" transform="matrix(0.992126,0,0,0.992126,1349.06,865.023)" d="M43,-25 L0,25 L10,25 L53,-25 L43,-25 "/>
<path class="Note" transform="matrix(0.992126,0,0,0.992126,1567.89,865.023)" d="M43,-25 L0,25 L10,25 L53,-25 L43,-25 "/>
<path class="Note" transform="matrix(0.992126,0,0,0.992126,1729.67,865.023)" d="M43,-25 L0,25 L10,25 L53,-25 L43,-25 "/>
<path class="Note" transform="matrix(0.992126,0,0,0.992126,1891.46,865.023)" d="M43,-25 L0,25 L10,25 L53,-25 L43,-25 "/>
<path class="Note" transform="matrix(0.992126,0,0,0.992126,2053.25,865.023)" d="M43,-25 L0,25 L10,25 L53,-25 L43,-25 "/>
<path class="Note" transform="matrix(0.992126,0,0,0.992126,2272.08,865.023)" d="M43,-25 L0,25 L10,25 L53,-25 L43,-25 "/>
<path class="Note" transform="matrix(0.992126,0,0,0.992126,2433.87,865.023)" d="M43,-25 L0,25 L10,25 L53,-25 L43,-25 "/>
<path class="Note" transform="matrix(0.992126,0,0,0.992126,2595.65,865.023)" d="M43,-25 L0,25 L10,25 L53,-25 L43,-25 "/>
<path class="Note" transform="matrix(0.992126,0,0,0.992126,2757.44,865.023)" d="M43,-25 L0,25 L10,25 L53,-25 L43,-25 "/>
<path class="Note" transform="matrix(0.992126,0,0,0.992126,159.504,1175.06)" d="M43,-25 L0,25 L10,25 L53,-25 L43,-25 "/>
<path class="Note" transform="matrix(0.992126,0,0,0.992126,319.656,1175.06)" d="M43,-25 L0,25 L10,25 L53,-25 L43,-25 "/>
<path class="Note" transform="matrix(0.992126,0,0,0.992126,479.807,1175.06)" d="M43,-25 L0,25 L10,25 L53,-25 L43,-25 "/>
<path class="Note" transform="matrix(0.992126,0,0,0.992126,639.958,1175.06)" d="M43,-25 L0,25 L10,25 L53,-25 L43,-25 "/>
<path class="Note" transform="matrix(0.992126,0,0,0.992126,841.035,1175.06)" d="M43,-25 L0,25 L10,25 L53,-25 L43,-25 "/>
<path class="Note" transform="matrix(0.992126,0,0,0.992126,1001.19,1175.06)" d="M43,-25 L0,25 L10,25 L53,-25 L43,-25 "/>
<path class="Note" transform="matrix(0.992126,0,0,0.992126,1161.34,1175.06)" d="M43,-25 L0,25 L10,25 L53,-25 L43,-25 "/>
<path class="Note" transform="matrix(0.992126,0,0,0.992126,1321.49,1175.06)" d="M43,-25 L0,25 L10,25 L53,-25 L43,-25 "/>
<path class="Note" transform="matrix(0.992126,0,0,0.992126,1538.69,1175.06)" d="M43,-25 L0,25 L10,25 L53,-25 L43,-25 "/>
<path class="Note" transform="matrix(0.992126,0,0,0.992126,1698.84,1175.06)" d="M43,-25 L0,25 L10,25 L53,-25 L43,-25 "/>
<path class="Note" transform="matrix(0.992126,0,0,0.992126,1858.99,1175.06)" d="M43,-25 L0,25 L10,25 L53,-25 L43,-25 "/>
<path class="Note" transform="matrix(0.992126,0,0,0.992126,2019.14,1175.06)" d="M43,-25 L0,25 L10,25 L53,-25 L43,-25 "/>
<path class="Note" transform="matrix(0.992126,0,0,0.992126,2236.34,1175.06)" d="M43,-25 L0,25 L10,25 L53,-25 L43,-25 "/>
<path class="Note" transform="matrix(0.992126,0,0,0.992126,2396.49,1175.06)" d="M43,-25 L0,25 L10,25 L53,-25 L43,-25 "/>
<path class="Note" transform="matrix(0.992126,0,0,0.992126,2556.64,1175.06)" d="M43,-25 L0,25 L10,25 L53,-25 L43,-25 "/>
<path class="Note" transform="matrix(0.992126,0,0,0.992126,2716.79,1175.06)" d="M43,-25 L0,25 L10,25 L53,-25 L43,-25 "/>
<path class="Clef" transform="matrix(0.992126,0,0,0.992126,158.032,262.205)" d="M63.3594,-5.92188 C62.125,-11.3438 59.4844,-15.1719 58.7031,-16.2031 C55.5156,-20.4844 51.5,-23.3281 46.8125,-24.6875 C43.7031,-25.5625 40.7031,-25.6875 38.2813,-25.5 C37.2344,-31.5156 36.2344,-37.3906 35.3281,-42.8438 C40.7813,-49.0156 44.4063,-54.8125 46.6875,-59.1094 C50.1563,-65.6875 51.2969,-70.2656 51.3594,-70.4688 C53.0781,-75.6875 53.4375,-83.3906 52.3281,-91.5938 C51.3281,-99.1406 49.2344,-105.859 46.875,-109.109 C45.8594,-110.531 44.7969,-111.266 43.7656,-111.266 C42.5469,-111.266 40.0313,-110.031 37.1406,-107.25 C34.8438,-105.063 31.5781,-101.172 29.0156,-95.1563 C26.0156,-88.0938 25.7969,-78.6094 26.1563,-71.8906 C26.5313,-64.6094 27.6406,-58.9219 27.6563,-58.875 C27.6719,-58.7813 27.9375,-57.2813 28.375,-54.7188 C28.1563,-54.4844 27.9063,-54.2656 27.6563,-54.0156 C26.625,-53.0156 25.4375,-51.8906 24.0469,-50.5 C23.1875,-49.6406 22.2344,-48.7344 21.2344,-47.7656 C12.7969,-39.625 0,-27.2969 0,-8.14063 C0,-3.4375 0.90625,0.984375 2.6875,5 C4.26563,8.59375 6.5625,11.875 9.5,14.75 C17.2344,22.3125 27.8281,25.5156 34.875,25.3594 C37.8281,25.2813 40.4688,25.0469 42.8594,24.5938 C44.6875,34.2031 45.8281,41.2344 45.8594,46.5781 C45.9063,53.0938 44.25,57.0781 40.3594,59.8438 C37.9219,61.5781 35.1094,62.5313 32.0156,62.6719 C29.4219,62.7969 27.1563,62.3281 25.7344,61.9219 L25.7188,61.9219 C25.7188,61.9219 25.4375,61.8281 25.4219,61.6406 C25.4063,61.4531 25.7656,61.4063 25.7656,61.4063 L25.7969,61.4063 C27.7188,60.9688 31.2813,59.7344 33.6406,56.4375 C35.4375,53.9063 36.3125,49.2813 34.4688,45.3438 C33.3594,42.9531 30.8594,40 25.2344,39.5469 C22.7344,39.3438 20.4688,39.8594 18.4688,41.0625 C16.6563,42.1406 15.1563,43.7813 14.1094,45.7813 C11.6563,50.4844 12.1094,56.2188 15.2344,60.0625 C18.2031,63.6875 22.8125,66 28.25,66.5781 C29.1094,66.6719 29.9531,66.7031 30.7969,66.7031 C35.2344,66.7031 39.625,65.5 43.2031,63.2969 C46.8594,60.7188 48.9844,56.7344 49.6563,51.1094 C50.2188,46.4688 49.8281,40.5469 48.4375,32.4688 C48.0781,30.375 47.5313,27.3438 46.875,23.5938 C52.625,21.6719 56.7813,18.0938 60.5469,12.2344 C63.8438,6.5 64.7813,0.390625 63.3594,-5.92188 M29.1406,20.2969 C24.5,19.0781 20.0625,16.5781 16.3125,13.0625 C15,11.8438 13.125,9.67188 11.6563,6.28125 C10.2969,3.10938 9.625,-0.328125 9.6875,-3.90625 C9.75,-8.60938 11.0625,-13.4375 13.5625,-18.2188 C16.4844,-23.7969 21.0469,-29.3281 27.1094,-34.6563 C28.5625,-35.9375 29.9375,-37.2188 31.2188,-38.5 C31.9844,-34.2344 32.8125,-29.5469 33.6875,-24.6719 C29.8438,-23.4063 25.0938,-20.25 21.9844,-14.5938 C18.4375,-8.03125 18.5781,-2.5 19.3125,0.984375 C20.25,5.4375 22.7813,9.20313 26.2344,11.2969 C27.1719,11.8594 31.2969,13.9844 33.1406,13.4063 C33.5156,13.2969 33.7813,13.0625 33.9219,12.7344 C34.4375,11.5625 33.4063,10.9219 31.8594,9.96875 C31.25,9.59375 30.5781,9.17188 29.8594,8.64063 C26.5313,6.15625 25.0781,1.70313 26.1563,-2.6875 C26.7344,-5.07813 28.0156,-7.25 29.8594,-8.95313 C31.5156,-10.5 33.5625,-11.5938 35.9375,-12.2344 C37.9844,-0.984375 40.0469,10.1719 41.6875,18.5313 C41.8125,19.2188 41.9531,19.8906 42.0781,20.5625 C37.7031,21.5 33.3594,21.4063 29.1406,20.2969 M40.4688,-12.9063 C50.8125,-13.375 55.0781,-5.9375 55.9688,-1.10938 C56.4375,1.4375 56.4375,5.875 54.8906,10.0938 C53.7188,13.2656 51.2656,17.3438 46.125,19.4063 C46.0625,18.9844 45.9844,18.5469 45.9063,18.125 C44.3594,9.34375 42.4219,-1.65625 40.4688,-12.9063 M33.1406,-83.8594 C34.9219,-89.5938 37.6563,-92.8438 39.6563,-94.5781 C41.4063,-96.0938 43.0469,-96.8125 43.9688,-96.8125 C44.1094,-96.8125 44.2344,-96.7813 44.3281,-96.75 C44.7969,-96.6094 45.3281,-96.0469 45.7969,-95.1719 C48.1094,-90.8906 47.3594,-84.1719 46.0156,-79.7344 C44.3906,-74.3281 41.4688,-68.7188 32.6719,-59.1094 C32.5,-60.2188 32.3438,-61.2656 32.1875,-62.25 C30.9375,-70.5313 31.2656,-77.8125 33.1406,-83.8594"/>
<path class="Clef" transform="matrix(0.992126,0,0,0.992126,34.0158,572.244)" d="M63.3594,-5.92188 C62.125,-11.3438 59.4844,-15.1719 58.7031,-16.2031 C55.5156,-20.4844 51.5,-23.3281 46.8125,-24.6875 C43.7031,-25.5625 40.7031,-25.6875 38.2813,-25.5 C37.2344,-31.5156 36.2344,-37.3906 35.3281,-42.8438 C40.7813,-49.0156 44.4063,-54.8125 46.6875,-59.1094 C50.1563,-65.6875 51.2969,-70.2656 51.3594,-70.4688 C53.0781,-75.6875 53.4375,-83.3906 52.3281,-91.5938 C51.3281,-99.1406 49.2344,-105.859 46.875,-109.109 C45.8594,-110.531 44.7969,-111.266 43.7656,-111.266 C42.5469,-111.266 40.0313,-110.031 37.1406,-107.25 C34.8438,-105.063 31.5781,-101.172 29.0156,-95.1563 C26.0156,-88.0938 25.7969,-78.6094 26.1563,-71.8906 C26.5313,-64.6094 27.6406,-58.9219 27.6563,-58.875 C27.6719,-58.7813 27.9375,-57.2813 28.375,-54.7188 C28.1563,-54.4844 27.9063,-54.2656 27.6563,-54.0156 C26.625,-53.0156 25.4375,-51.8906 24.0469,-50.5 C23.1875,-49.6406 22.2344,-48.7344 21.2344,-47.7656 C12.7969,-39.625 0,-27.2969 0,-8.14063 C0,-3.4375 0.90625,0.984375 2.6875,5 C4.26563,8.59375 6.5625,11.875 9.5,14.75 C17.2344,22.3125 27.8281,25.5156 34.875,25.3594 C37.8281,25.2813 40.4688,25.0469 42.8594,24.5938 C44.6875,34.2031 45.8281,41.2344 45.8594,46.5781 C45.9063,53.0938 44.25,57.0781 40.3594,59.8438 C37.9219,61.5781 35.1094,62.5313 32.0156,62.6719 C29.4219,62.7969 27.1563,62.3281 25.7344,61.9219 L25.7188,61.9219 C25.7188,61.9219 25.4375,61.8281 25.4219,61.6406 C25.4063,61.4531 25.7656,61.4063 25.7656,61.4063 L25.7969,61.4063 C27.7188,60.9688 31.2813,59.7344 33.6406,56.4375 C35.4375,53.9063 36.3125,49.2813 34.4688,45.3438 C33.3594,42.9531 30.8594,40 25.2344,39.5469 C22.7344,39.3438 20.4688,39.8594 18.4688,41.0625 C16.6563,42.1406 15.1563,43.7813 14.1094,45.7813 C11.6563,50.4844 12.1094,56.2188 15.2344,60.0625 C18.2031,63.6875 22.8125,66 28.25,66.5781 C29.1094,66.6719 29.9531,66.7031 30.7969,66.7031 C35.2344,66.7031 39.625,65.5 43.2031,63.2969 C46.8594,60.7188 48.9844,56.7344 49.6563,51.1094 C50.2188,46.4688 49.8281,40.5469 48.4375,32.4688 C48.0781,30.375 47.5313,27.3438 46.875,23.5938 C52.625,21.6719 56.7813,18.0938 60.5469,12.2344 C63.8438,6.5 64.7813,0.390625 63.3594,-5.92188 M29.1406,20.2969 C24.5,19.0781 20.0625,16.5781 16.3125,13.0625 C15,11.8438 13.125,9.67188 11.6563,6.28125 C10.2969,3.10938 9.625,-0.328125 9.6875,-3.90625 C9.75,-8.60938 11.0625,-13.4375 13.5625,-18.2188 C16.4844,-23.7969 21.0469,-29.3281 27.1094,-34.6563 C28.5625,-35.9375 29.9375,-37.2188 31.2188,-38.5 C31.9844,-34.2344 32.8125,-29.5469 33.6875,-24.6719 C29.8438,-23.4063 25.0938,-20.25 21.9844,-14.5938 C18.4375,-8.03125 18.5781,-2.5 19.3125,0.984375 C20.25,5.4375 22.7813,9.20313 26.2344,11.2969 C27.1719,11.8594 31.2969,13.9844 33.1406,13.4063 C33.5156,13.2969 33.7813,13.0625 33.9219,12.7344 C34.4375,11.5625 33.4063,10.9219 31.8594,9.96875 C31.25,9.59375 30.5781,9.17188 29.8594,8.64063 C26.5313,6.15625 25.0781,1.70313 26.1563,-2.6875 C26.7344,-5.07813 28.0156,-7.25 29.8594,-8.95313 C31.5156,-10.5 33.5625,-11.5938 35.9375,-12.2344 C37.9844,-0.984375 40.0469,10.1719 41.6875,18.5313 C41.8125,19.2188 41.9531,19.8906 42.0781,20.5625 C37.7031,21.5 33.3594,21.4063 29.1406,20.2969 M40.4688,-12.9063 C50.8125,-13.375 55.0781,-5.9375 55.9688,-1.10938 C56.4375,1.4375 56.4375,5.875 54.8906,10.0938 C53.7188,13.2656 51.2656,17.3438 46.125,19.4063 C46.0625,18.9844 45.9844,18.5469 45.9063,18.125 C44.3594,9.34375 42.4219,-1.65625 40.4688,-12.9063 M33.1406,-83.8594 C34.9219,-89.5938 37.6563,-92.8438 39.6563,-94.5781 C41.4063,-96.0938 43.0469,-96.8125 43.9688,-96.8125 C44.1094,-96.8125 44.2344,-96.7813 44.3281,-96.75 C44.7969,-96.6094 45.3281,-96.0469 45.7969,-95.1719 C48.1094,-90.8906 47.3594,-84.1719 46.0156,-79.7344 C44.3906,-74.3281 41.4688,-68.7188 32.6719,-59.1094 C32.5,-60.2188 32.3438,-61.2656 32.1875,-62.25 C30.9375,-70.5313 31.2656,-77.8125 33.1406,-83.8594"/>
<path class="Clef" transform="matrix(0.992126,0,0,0.992126,34.0158,889.826)" d="M63.3594,-5.92188 C62.125,-11.3438 59.4844,-15.1719 58.7031,-16.2031 C55.5156,-20.4844 51.5,-23.3281 46.8125,-24.6875 C43.7031,-25.5625 40.7031,-25.6875 38.2813,-25.5 C37.2344,-31.5156 36.2344,-37.3906 35.3281,-42.8438 C40.7813,-49.0156 44.4063,-54.8125 46.6875,-59.1094 C50.1563,-65.6875 51.2969,-70.2656 51.3594,-70.4688 C53.0781,-75.6875 53.4375,-83.3906 52.3281,-91.5938 C51.3281,-99.1406 49.2344,-105.859 46.875,-109.109 C45.8594,-110.531 44.7969,-111.266 43.7656,-111.266 C42.5469,-111.266 40.0313,-110.031 37.1406,-107.25 C34.8438,-105.063 31.5781,-101.172 29.0156,-95.1563 C26.0156,-88.0938 25.7969,-78.6094 26.1563,-71.8906 C26.5313,-64.6094 27.6406,-58.9219 27.6563,-58.875 C27.6719,-58.7813 27.9375,-57.2813 28.375,-54.7188 C28.1563,-54.4844 27.9063,-54.2656 27.6563,-54.0156 C26.625,-53.0156 25.4375,-51.8906 24.0469,-50.5 C23.1875,-49.6406 22.2344,-48.7344 21.2344,-47.7656 C12.7969,-39.625 0,-27.2969 0,-8.14063 C0,-3.4375 0.90625,0.984375 2.6875,5 C4.26563,8.59375 6.5625,11.875 9.5,14.75 C17.2344,22.3125 27.8281,25.5156 34.875,25.3594 C37.8281,25.2813 40.4688,25.0469 42.8594,24.5938 C44.6875,34.2031 45.8281,41.2344 45.8594,46.5781 C45.9063,53.0938 44.25,57.0781 40.3594,59.8438 C37.9219,61.5781 35.1094,62.5313 32.0156,62.6719 C29.4219,62.7969 27.1563,62.3281 25.7344,61.9219 L25.7188,61.9219 C25.7188,61.9219 25.4375,61.8281 25.4219,61.6406 C25.4063,61.4531 25.7656,61.4063 25.7656,61.4063 L25.7969,61.4063 C27.7188,60.9688 31.2813,59.7344 33.6406,56.4375 C35.4375,53.9063 36.3125,49.2813 34.4688,45.3438 C33.3594,42.9531 30.8594,40 25.2344,39.5469 C22.7344,39.3438 20.4688,39.8594 18.4688,41.0625 C16.6563,42.1406 15.1563,43.7813 14.1094,45.7813 C11.6563,50.4844 12.1094,56.2188 15.2344,60.0625 C18.2031,63.6875 22.8125,66 28.25,66.5781 C29.1094,66.6719 29.9531,66.7031 30.7969,66.7031 C35.2344,66.7031 39.625,65.5 43.2031,63.2969 C46.8594,60.7188 48.9844,56.7344 49.6563,51.1094 C50.2188,46.4688 49.8281,40.5469 48.4375,32.4688 C48.0781,30.375 47.5313,27.3438 46.875,23.5938 C52.625,21.6719 56.7813,18.0938 60.5469,12.2344 C63.8438,6.5 64.7813,0.390625 63.3594,-5.92188 M29.1406,20.2969 C24.5,19.0781 20.0625,16.5781 16.3125,13.0625 C15,11.8438 13.125,9.67188 11.6563,6.28125 C10.2969,3.10938 9.625,-0.328125 9.6875,-3.90625 C9.75,-8.60938 11.0625,-13.4375 13.5625,-18.2188 C16.4844,-23.7969 21.0469,-29.3281 27.1094,-34.6563 C28.5625,-35.9375 29.9375,-37.2188 31.2188,-38.5 C31.9844,-34.2344 32.8125,-29.5469 33.6875,-24.6719 C29.8438,-23.4063 25.0938,-20.25 21.9844,-14.5938 C18.4375,-8.03125 18.5781,-2.5 19.3125,0.984375 C20.25,5.4375 22.7813,9.20313 26.2344,11.2969 C27.1719,11.8594 31.2969,13.9844 33.1406,13.4063 C33.5156,13.2969 33.7813,13.0625 33.9219,12.7344 C34.4375,11.5625 33.4063,10.9219 31.8594,9.96875 C31.25,9.59375 30.5781,9.17188 29.8594,8.64063 C26.5313,6.15625 25.0781,1.70313 26.1563,-2.6875 C26.7344,-5.07813 28.0156,-7.25 29.8594,-8.95313 C31.5156,-10.5 33.5625,-11.5938 35.9375,-12.2344 C37.9844,-0.984375 40.0469,10.1719 41.6875,18.5313 C41.8125,19.2188 41.9531,19.8906 42.0781,20.5625 C37.7031,21.5 33.3594,21.4063 29.1406,20.2969 M40.4688,-12.9063 C50.8125,-13.375 55.0781,-5.9375 55.9688,-1.10938 C56.4375,1.4375 56.4375,5.875 54.8906,10.0938 C53.7188,13.2656 51.2656,17.3438 46.125,19.4063 C46.0625,18.9844 45.9844,18.5469 45.9063,18.125 C44.3594,9.34375 42.4219,-1.65625 40.4688,-12.9063 M33.1406,-83.8594 C34.9219,-89.5938 37.6563,-92.8438 39.6563,-94.5781 C41.4063,-96.0938 43.0469,-96.8125 43.9688,-96.8125 C44.1094,-96.8125 44.2344,-96.7813 44.3281,-96.75 C44.7969,-96.6094 45.3281,-96.0469 45.7969,-95.1719 C48.1094,-90.8906 47.3594,-84.1719 46.0156,-79.7344 C44.3906,-74.3281 41.4688,-68.7188 32.6719,-59.1094 C32.5,-60.2188 32.3438,-61.2656 32.1875,-62.25 C30.9375,-70.5313 31.2656,-77.8125 33.1406,-83.8594"/>
<path class="Clef" transform="matrix(0.992126,0,0,0.992126,34.0158,1199.87)" d="M63.3594,-5.92188 C62.125,-11.3438 59.4844,-15.1719 58.7031,-16.2031 C55.5156,-20.4844 51.5,-23.3281 46.8125,-24.6875 C43.7031,-25.5625 40.7031,-25.6875 38.2813,-25.5 C37.2344,-31.5156 36.2344,-37.3906 35.3281,-42.8438 C40.7813,-49.0156 44.4063,-54.8125 46.6875,-59.1094 C50.1563,-65.6875 51.2969,-70.2656 51.3594,-70.4688 C53.0781,-75.6875 53.4375,-83.3906 52.3281,-91.5938 C51.3281,-99.1406 49.2344,-105.859 46.875,-109.109 C45.8594,-110.531 44.7969,-111.266 43.7656,-111.266 C42.5469,-111.266 40.0313,-110.031 37.1406,-107.25 C34.8438,-105.063 31.5781,-101.172 29.0156,-95.1563 C26.0156,-88.0938 25.7969,-78.6094 26.1563,-71.8906 C26.5313,-64.6094 27.6406,-58.9219 27.6563,-58.875 C27.6719,-58.7813 27.9375,-57.2813 28.375,-54.7188 C28.1563,-54.4844 27.9063,-54.2656 27.6563,-54.0156 C26.625,-53.0156 25.4375,-51.8906 24.0469,-50.5 C23.1875,-49.6406 22.2344,-48.7344 21.2344,-47.7656 C12.7969,-39.625 0,-27.2969 0,-8.14063 C0,-3.4375 0.90625,0.984375 2.6875,5 C4.26563,8.59375 6.5625,11.875 9.5,14.75 C17.2344,22.3125 27.8281,25.5156 34.875,25.3594 C37.8281,25.2813 40.4688,25.0469 42.8594,24.5938 C44.6875,34.2031 45.8281,41.2344 45.8594,46.5781 C45.9063,53.0938 44.25,57.0781 40.3594,59.8438 C37.9219,61.5781 35.1094,62.5313 32.0156,62.6719 C29.4219,62.7969 27.1563,62.3281 25.7344,61.9219 L25.7188,61.9219 C25.7188,61.9219 25.4375,61.8281 25.4219,61.6406 C25.4063,61.4531 25.7656,61.4063 25.7656,61.4063 L25.7969,61.4063 C27.7188,60.9688 31.2813,59.7344 33.6406,56.4375 C35.4375,53.9063 36.3125,49.2813 34.4688,45.3438 C33.3594,42.9531 30.8594,40 25.2344,39.5469 C22.7344,39.3438 20.4688,39.8594 18.4688,41.0625 C16.6563,42.1406 15.1563,43.7813 14.1094,45.7813 C11.6563,50.4844 12.1094,56.2188 15.2344,60.0625 C18.2031,63.6875 22.8125,66 28.25,66.5781 C29.1094,66.6719 29.9531,66.7031 30.7969,66.7031 C35.2344,66.7031 39.625,65.5 43.2031,63.2969 C46.8594,60.7188 48.9844,56.7344 49.6563,51.1094 C50.2188,46.4688 49.8281,40.5469 48.4375,32.4688 C48.0781,30.375 47.5313,27.3438 46.875,23.5938 C52.625,21.6719 56.7813,18.0938 60.5469,12.2344 C63.8438,6.5 64.7813,0.390625 63.3594,-5.92188 M29.1406,20.2969 C24.5,19.0781 20.0625,16.5781 16.3125,13.0625 C15,11.8438 13.125,9.67188 11.6563,6.28125 C10.2969,3.10938 9.625,-0.328125 9.6875,-3.90625 C9.75,-8.60938 11.0625,-13.4375 13.5625,-18.2188 C16.4844,-23.7969 21.0469,-29.3281 27.1094,-34.6563 C28.5625,-35.9375 29.9375,-37.2188 31.2188,-38.5 C31.9844,-34.2344 32.8125,-29.5469 33.6875,-24.6719 C29.8438,-23.4063 25.0938,-20.25 21.9844,-14.5938 C18.4375,-8.03125 18.5781,-2.5 19.3125,0.984375 C20.25,5.4375 22.7813,9.20313 26.2344,11.2969 C27.1719,11.8594 31.2969,13.9844 33.1406,13.4063 C33.5156,13.2969 33.7813,13.0625 33.9219,12.7344 C34.4375,11.5625 33.4063,10.9219 31.8594,9.96875 C31.25,9.59375 30.5781,9.17188 29.8594,8.64063 C26.5313,6.15625 25.0781,1.70313 26.1563,-2.6875 C26.7344,-5.07813 28.0156,-7.25 29.8594,-8.95313 C31.5156,-10.5 33.5625,-11.5938 35.9375,-12.2344 C37.9844,-0.984375 40.0469,10.1719 41.6875,18.5313 C41.8125,19.2188 41.9531,19.8906 42.0781,20.5625 C37.7031,21.5 33.3594,21.4063 29.1406,20.2969 M40.4688,-12.9063 C50.8125,-13.375 55.0781,-5.9375 55.9688,-1.10938 C56.4375,1.4375 56.4375,5.875 54.8906,10.0938 C53.7188,13.2656 51.2656,17.3438 46.125,19.4063 C46.0625,18.9844 45.9844,18.5469 45.9063,18.125 C44.3594,9.34375 42.4219,-1.65625 40.4688,-12.9063 M33.1406,-83.8594 C34.9219,-89.5938 37.6563,-92.8438 39.6563,-94.5781 C41.4063,-96.0938 43.0469,-96.8125 43.9688,-96.8125 C44.1094,-96.8125 44.2344,-96.7813 44.3281,-96.75 C44.7969,-96.6094 45.3281,-96.0469 45.7969,-95.1719 C48.1094,-90.8906 47.3594,-84.1719 46.0156,-79.7344 C44.3906,-74.3281 41.4688,-68.7188 32.6719,-59.1094 C32.5,-60.2188 32.3438,-61.2656 32.1875,-62.25 C30.9375,-70.5313 31.2656,-77.8125 33.1406,-83.8594"/>
<path class="TimeSig" transform="matrix(0.992126,0,0,0.992126,244.951,212.73)" d="M3.59375,12.625 L20.7656,12.625 L20.7656,20.0781 L12.5469,20.0781 C11.7656,20.0781 11.125,20.7031 11.125,21.4844 L11.125,23.3906 C11.125,24.1719 11.7656,24.7969 12.5469,24.7969 L42.7969,24.7969 C43.5781,24.7969 44.2031,24.1719 44.2031,23.3906 L44.2031,21.4844 C44.2031,20.7031 43.5781,20.0781 42.7969,20.0781 L33.8594,20.0781 L33.8594,12.625 L42.7969,12.625 C43.5781,12.625 44.2031,12 44.2031,11.2188 L44.2031,9.3125 C44.2031,8.53125 43.5781,7.90625 42.7969,7.90625 L33.8594,7.90625 L33.8594,-8.0625 C33.8594,-8.59375 33.5469,-9.07813 33.0781,-9.3125 L31.8594,-9.92188 C31.3281,-10.1719 30.7031,-10.0781 30.2656,-9.6875 L21.2188,-1.375 C20.9375,-1.09375 20.7656,-0.734375 20.7656,-0.328125 L20.7656,7.90625 L9.25,7.90625 C9.25,7.90625 20.375,-4.125 32.2188,-19.8906 C33.0781,-21.0469 32.5781,-22.0938 32.3906,-22.2813 L30.2188,-24.4844 C29.9531,-24.75 29.5938,-24.9063 29.2188,-24.9063 C28.625,-24.9063 15.0625,-24.875 14.3438,-24.9063 C13.625,-24.9219 13.0938,-24.2969 13.0156,-23.6875 C13.0156,-23.6875 12.4844,-16.3281 9.875,-8.1875 C7.28125,-0.078125 4.34375,4.90625 1.6875,8.53125 C1.6875,8.53125 1.14063,9.51563 1.5,10.2656 C1.84375,11.0156 2.48438,12.0938 2.48438,12.0938 C2.48438,12.0938 2.73438,12.625 3.59375,12.625"/>
<path class="TimeSig" transform="matrix(0.992126,0,0,0.992126,244.951,262.073)" d="M3.59375,12.625 L20.7656,12.625 L20.7656,20.0781 L12.5469,20.0781 C11.7656,20.0781 11.125,20.7031 11.125,21.4844 L11.125,23.3906 C11.125,24.1719 11.7656,24.7969 12.5469,24.7969 L42.7969,24.7969 C43.5781,24.7969 44.2031,24.1719 44.2031,23.3906 L44.2031,21.4844 C44.2031,20.7031 43.5781,20.0781 42.7969,20.0781 L33.8594,20.0781 L33.8594,12.625 L42.7969,12.625 C43.5781,12.625 44.2031,12 44.2031,11.2188 L44.2031,9.3125 C44.2031,8.53125 43.5781,7.90625 42.7969,7.90625 L33.8594,7.90625 L33.8594,-8.0625 C33.8594,-8.59375 33.5469,-9.07813 33.0781,-9.3125 L31.8594,-9.92188 C31.3281,-10.1719 30.7031,-10.0781 30.2656,-9.6875 L21.2188,-1.375 C20.9375,-1.09375 20.7656,-0.734375 20.7656,-0.328125 L20.7656,7.90625 L9.25,7.90625 C9.25,7.90625 20.375,-4.125 32.2188,-19.8906 C33.0781,-21.0469 32.5781,-22.0938 32.3906,-22.2813 L30.2188,-24.4844 C29.9531,-24.75 29.5938,-24.9063 29.2188,-24.9063 C28.625,-24.9063 15.0625,-24.875 14.3438,-24.9063 C13.625,-24.9219 13.0938,-24.2969 13.0156,-23.6875 C13.0156,-23.6875 12.4844,-16.3281 9.875,-8.1875 C7.28125,-0.078125 4.34375,4.90625 1.6875,8.53125 C1.6875,8.53125 1.14063,9.51563 1.5,10.2656 C1.84375,11.0156 2.48438,12.0938 2.48438,12.0938 C2.48438,12.0938 2.73438,12.625 3.59375,12.625"/>
<path class="RehearsalMark" fill="none" stroke="#000000" stroke-width="3.97" stroke-linecap="square" stroke-linejoin="miter" stroke-miterlimit="2" fill-rule="evenodd" d="M154.216,21.0729 L262.987,21.0729 L262.987,122.845 L154.216,122.845 L154.216,21.0729 "/>
<path class="RehearsalMark" d="M205.352,35.4899 L182.883,87.9587 C178.32,98.6618 174.664,102.521 168.82,103.115 L168.82,108.459 L197.43,108.459 L197.43,103.115 C190.398,102.724 187.633,100.834 187.633,96.2868 C187.633,94.5993 188.023,93.0212 189.117,90.6462 L190.695,86.8806 L215.352,86.8806 L219.117,96.5837 C220.195,99.3493 220.305,99.8493 220.305,100.631 C220.305,102.427 218.914,103.021 214.555,103.021 L212.867,103.115 L212.867,108.459 L247.617,108.459 L247.617,103.115 C241.977,102.912 240.398,101.927 238.32,96.8806 L212.867,35.4899 L205.352,35.4899 M203.273,56.5837 L212.867,80.2399 L193.273,80.2399 L203.273,56.5837 "/>
<path class="RehearsalMark" fill="none" stroke="#000000" stroke-width="3.97" stroke-linecap="square" stroke-linejoin="miter" stroke-miterlimit="2" fill-rule="evenodd" d="M32.3294,654.622 L133.101,654.622 L133.101,755.393 L32.3294,755.393 L32.3294,654.622 "/>
<path class="RehearsalMark" d="M47.4027,669.523 L47.4027,674.882 L48.8871,674.882 C54.2308,674.882 56.1058,675.273 56.9964,676.257 C57.6996,677.351 57.6996,677.648 57.6996,683.789 L57.6996,726.757 C57.6996,732.882 57.6996,733.179 56.9964,734.179 C56.1058,735.273 54.1371,735.664 48.8871,735.664 L47.4027,735.664 L47.4027,741.007 L87.4964,741.007 C97.7933,741.007 103.043,740.211 108.184,737.945 C114.418,735.164 118.575,728.929 118.575,722.195 C118.575,715.273 114.621,709.82 107.293,706.461 C103.934,704.867 101.059,704.086 95.8089,703.382 C100.653,702.601 103.434,701.898 106.2,700.617 C112.137,697.742 115.309,692.992 115.309,687.054 C115.309,681.414 112.34,676.164 107.496,673.492 C102.043,670.414 97.2933,669.523 85.6058,669.523 L47.4027,669.523 M75.5121,701.601 L75.5121,680.617 C75.3089,676.461 76.6996,675.07 81.0589,674.882 L84.0277,674.882 C92.7464,674.882 97.3871,679.226 97.3871,687.445 C97.3871,692.304 95.7152,696.164 92.5433,698.632 C89.8714,700.82 86.4964,701.601 80.3714,701.601 L75.5121,701.601 M75.5121,707.054 L82.3402,707.054 C88.5746,707.054 91.4496,707.648 94.2308,709.429 C97.6839,711.711 99.6683,716.054 99.6683,721.211 C99.6683,725.961 97.8871,730.32 95.0121,732.695 C92.5433,734.664 89.2777,735.664 84.5277,735.664 L81.5589,735.664 C75.9027,735.461 75.3089,734.867 75.5121,729.32 L75.5121,707.054 "/>
<path class="Harmony" d="M350.527,121.866 C350.496,121.881 350.449,121.881 350.386,121.881 C350.324,121.881 350.277,121.897 350.246,121.897 C350.199,121.912 350.152,121.912 350.09,121.928 C350.027,121.928 349.996,121.944 349.949,121.959 C349.902,121.975 349.871,122.006 349.824,122.022 C349.777,122.053 349.746,122.069 349.73,122.116 C349.683,122.147 349.668,122.178 349.636,122.225 C349.621,122.256 349.605,122.319 349.605,122.366 C349.605,122.397 349.605,122.428 349.605,122.475 L349.605,122.506 C349.605,122.537 349.605,122.584 349.605,122.647 C349.621,122.709 349.621,122.756 349.621,122.787 C349.621,123.366 349.636,123.928 349.652,124.475 C349.652,124.506 349.652,124.537 349.652,124.569 C349.652,124.678 349.652,124.819 349.636,124.975 C349.621,125.178 349.621,125.319 349.621,125.412 L349.621,125.444 L349.621,125.537 C349.621,125.553 349.621,125.584 349.636,125.616 C349.636,125.647 349.636,125.662 349.652,125.678 C349.668,125.694 349.683,125.709 349.715,125.725 C349.73,125.741 349.761,125.741 349.793,125.741 L349.808,125.741 C349.98,125.741 350.152,125.709 350.324,125.631 C350.511,125.569 350.668,125.491 350.824,125.381 C350.98,125.287 351.121,125.162 351.261,125.006 C351.402,124.866 351.527,124.709 351.621,124.553 C351.73,124.397 351.808,124.225 351.871,124.053 C351.949,123.881 351.98,123.709 351.98,123.537 C351.996,123.506 351.996,123.459 351.996,123.428 C351.996,123.334 351.98,123.241 351.965,123.131 C351.933,122.991 351.902,122.85 351.84,122.725 C351.793,122.6 351.715,122.475 351.621,122.366 C351.543,122.241 351.433,122.147 351.324,122.069 C351.215,121.991 351.09,121.928 350.949,121.897 C350.871,121.866 350.777,121.866 350.668,121.866 C350.621,121.866 350.574,121.866 350.527,121.866 M350.215,125.1 C350.215,124.959 350.215,124.741 350.215,124.475 C350.23,124.256 350.23,124.053 350.23,123.866 C350.23,123.819 350.23,123.787 350.23,123.741 C350.23,123.522 350.215,123.303 350.215,123.1 C350.215,123.069 350.199,123.037 350.199,122.959 C350.183,122.881 350.168,122.803 350.168,122.741 C350.152,122.709 350.152,122.678 350.152,122.647 C350.152,122.616 350.152,122.584 350.168,122.553 C350.168,122.491 350.199,122.444 350.23,122.412 C350.277,122.381 350.324,122.366 350.386,122.366 C350.402,122.366 350.402,122.366 350.418,122.366 C350.496,122.381 350.574,122.397 350.668,122.444 C350.746,122.491 350.824,122.553 350.902,122.616 C350.98,122.678 351.043,122.741 351.105,122.787 C351.168,122.85 351.199,122.897 351.23,122.944 C351.308,123.069 351.371,123.225 351.402,123.381 C351.418,123.475 351.418,123.553 351.418,123.647 C351.418,123.709 351.418,123.787 351.418,123.85 C351.386,124.006 351.34,124.147 351.277,124.303 C351.215,124.444 351.121,124.569 351.027,124.694 C350.918,124.803 350.793,124.897 350.668,124.959 C350.527,125.037 350.371,125.084 350.215,125.1"/>
<path class="Harmony" d="M366.527,34.9952 C366.058,35.089 365.293,35.1827 364.058,35.2921 C362.824,35.3858 361.871,35.5733 361.215,35.6671 C360.543,35.7608 359.59,35.8546 358.449,36.0421 C357.308,36.2296 356.465,36.5265 355.699,36.8077 C354.933,37.089 354.09,37.464 353.324,37.9483 C352.558,38.4171 351.902,38.9015 351.418,39.5577 C350.761,40.2296 350.277,40.9796 349.902,41.7452 C349.527,42.5108 349.246,43.4483 349.136,44.4015 C349.043,45.0733 349.043,45.7296 349.043,46.4015 L349.043,46.964 C349.136,47.6358 349.136,48.589 349.246,49.7296 C349.34,50.8702 349.34,51.8077 349.34,52.4796 C349.34,63.3077 349.621,73.9483 350.09,84.4952 C350.183,85.0577 350.183,85.6358 350.183,86.3077 C350.09,88.2921 349.996,90.9483 349.808,94.089 C349.527,97.7921 349.34,100.558 349.34,102.355 L349.34,102.933 L349.34,104.542 C349.34,105.011 349.527,105.495 349.621,106.058 C349.715,106.636 349.902,107.105 350.183,107.386 C350.48,107.683 350.761,107.964 351.23,108.245 C351.621,108.433 352.09,108.526 352.652,108.526 L352.949,108.526 C356.261,108.433 359.59,107.776 362.918,106.542 C366.246,105.308 369.386,103.776 372.324,101.792 C375.277,99.7921 378.027,97.4171 380.683,94.6671 C383.34,91.9015 385.621,89.0577 387.527,86.0108 C389.418,82.9796 391.043,79.839 392.277,76.5108 C393.511,73.1827 394.168,69.8702 394.371,66.7296 C394.465,66.0577 394.465,65.3077 394.465,64.6358 C394.465,62.839 394.277,60.9327 393.886,59.0421 C393.418,56.3702 392.652,53.714 391.605,51.2452 C390.558,48.7765 389.23,46.4952 387.527,44.3077 C385.808,42.1202 383.918,40.3233 381.824,38.8077 C379.73,37.2765 377.449,36.1358 374.793,35.4796 C373.09,34.9952 371.277,34.8077 369.48,34.8077 C368.527,34.8077 367.574,34.9015 366.527,34.9952 M360.636,96.3702 C360.636,93.6202 360.73,89.6202 360.824,84.4952 C360.918,80.4171 361.011,76.5108 361.011,72.9952 C361.011,72.1515 360.918,71.2921 360.918,70.4327 C360.918,66.2608 360.824,62.1671 360.636,58.3702 C360.636,57.9015 360.543,57.0421 360.355,55.6202 C360.168,54.1827 359.886,52.8546 359.777,51.6202 C359.683,51.0577 359.683,50.4796 359.683,49.9171 C359.683,49.2452 359.683,48.6827 359.777,48.0108 C359.98,46.7765 360.355,45.8233 361.011,45.3546 C361.871,44.6827 362.824,44.4015 363.871,44.4015 C364.152,44.4952 364.433,44.4952 364.73,44.4952 C366.152,44.6827 367.668,45.1671 369.277,46.0265 C370.902,46.8702 372.418,48.0108 373.84,49.1515 C375.277,50.2921 376.605,51.4327 377.652,52.5733 C378.683,53.714 379.543,54.5733 380.027,55.4327 C381.543,57.9015 382.59,60.6515 383.152,63.6827 C383.433,65.4015 383.636,67.1046 383.636,68.8233 C383.636,70.0577 383.527,71.2921 383.433,72.5265 C382.965,75.464 382.105,78.3233 380.871,81.0733 C379.636,83.8233 378.027,86.3077 376.121,88.4796 C374.136,90.6671 371.855,92.3858 369.183,93.8077 C366.527,95.2296 363.683,96.089 360.636,96.3702"/>
<path class="Harmony" d="M1025.99,51.3968 C1025.53,51.4905 1024.76,51.5843 1023.53,51.6937 C1022.29,51.7874 1021.34,51.9749 1020.68,52.0687 C1020.01,52.1624 1019.06,52.2562 1017.92,52.4437 C1016.78,52.6312 1015.93,52.928 1015.17,53.2093 C1014.4,53.4905 1013.56,53.8655 1012.79,54.3499 C1012.03,54.8187 1011.37,55.303 1010.88,55.9593 C1010.23,56.6312 1009.74,57.3812 1009.37,58.1468 C1008.99,58.9124 1008.71,59.8499 1008.6,60.803 C1008.51,61.4749 1008.51,62.1312 1008.51,62.803 L1008.51,63.3655 C1008.6,64.0374 1008.6,64.9905 1008.71,66.1312 C1008.81,67.2718 1008.81,68.2093 1008.81,68.8812 C1008.81,79.7093 1009.09,90.3499 1009.56,100.897 C1009.65,101.459 1009.65,102.037 1009.65,102.709 C1009.56,104.694 1009.46,107.35 1009.28,110.491 C1008.99,114.194 1008.81,116.959 1008.81,118.756 L1008.81,119.334 L1008.81,120.944 C1008.81,121.412 1008.99,121.897 1009.09,122.459 C1009.18,123.037 1009.37,123.506 1009.65,123.787 C1009.95,124.084 1010.23,124.366 1010.7,124.647 C1011.09,124.834 1011.56,124.928 1012.12,124.928 L1012.42,124.928 C1015.73,124.834 1019.06,124.178 1022.38,122.944 C1025.71,121.709 1028.85,120.178 1031.79,118.194 C1034.74,116.194 1037.49,113.819 1040.15,111.069 C1042.81,108.303 1045.09,105.459 1046.99,102.412 C1048.88,99.3812 1050.51,96.2405 1051.74,92.9124 C1052.98,89.5843 1053.63,86.2718 1053.84,83.1312 C1053.93,82.4593 1053.93,81.7093 1053.93,81.0374 C1053.93,79.2405 1053.74,77.3343 1053.35,75.4437 C1052.88,72.7718 1052.12,70.1155 1051.07,67.6468 C1050.03,65.178 1048.7,62.8968 1046.99,60.7093 C1045.28,58.5218 1043.38,56.7249 1041.29,55.2093 C1039.2,53.678 1036.92,52.5374 1034.26,51.8812 C1032.56,51.3968 1030.74,51.2093 1028.95,51.2093 C1027.99,51.2093 1027.04,51.303 1025.99,51.3968 M1020.1,112.772 C1020.1,110.022 1020.2,106.022 1020.29,100.897 C1020.38,96.8187 1020.48,92.9124 1020.48,89.3968 C1020.48,88.553 1020.38,87.6937 1020.38,86.8343 C1020.38,82.6624 1020.29,78.5687 1020.1,74.7718 C1020.1,74.303 1020.01,73.4437 1019.82,72.0218 C1019.63,70.5843 1019.35,69.2562 1019.24,68.0218 C1019.15,67.4593 1019.15,66.8812 1019.15,66.3187 C1019.15,65.6468 1019.15,65.0843 1019.24,64.4124 C1019.45,63.178 1019.82,62.2249 1020.48,61.7562 C1021.34,61.0843 1022.29,60.803 1023.34,60.803 C1023.62,60.8968 1023.9,60.8968 1024.2,60.8968 C1025.62,61.0843 1027.13,61.5687 1028.74,62.428 C1030.37,63.2718 1031.88,64.4124 1033.31,65.553 C1034.74,66.6937 1036.07,67.8343 1037.12,68.9749 C1038.15,70.1155 1039.01,70.9749 1039.49,71.8343 C1041.01,74.303 1042.06,77.053 1042.62,80.0843 C1042.9,81.803 1043.1,83.5062 1043.1,85.2249 C1043.1,86.4593 1042.99,87.6937 1042.9,88.928 C1042.43,91.8655 1041.57,94.7249 1040.34,97.4749 C1039.1,100.225 1037.49,102.709 1035.59,104.881 C1033.6,107.069 1031.32,108.787 1028.65,110.209 C1025.99,111.631 1023.15,112.491 1020.1,112.772"/>
<path class="Harmony" d="M1685.46,51.3968 C1684.99,51.4905 1684.23,51.5843 1682.99,51.6937 C1681.76,51.7874 1680.81,51.9749 1680.15,52.0687 C1679.48,52.1624 1678.52,52.2562 1677.38,52.4437 C1676.24,52.6312 1675.4,52.928 1674.63,53.2093 C1673.87,53.4905 1673.02,53.8655 1672.26,54.3499 C1671.49,54.8187 1670.84,55.303 1670.35,55.9593 C1669.7,56.6312 1669.21,57.3812 1668.84,58.1468 C1668.46,58.9124 1668.18,59.8499 1668.07,60.803 C1667.98,61.4749 1667.98,62.1312 1667.98,62.803 L1667.98,63.3655 C1668.07,64.0374 1668.07,64.9905 1668.18,66.1312 C1668.27,67.2718 1668.27,68.2093 1668.27,68.8812 C1668.27,79.7093 1668.56,90.3499 1669.02,100.897 C1669.12,101.459 1669.12,102.037 1669.12,102.709 C1669.02,104.694 1668.93,107.35 1668.74,110.491 C1668.46,114.194 1668.27,116.959 1668.27,118.756 L1668.27,119.334 L1668.27,120.944 C1668.27,121.412 1668.46,121.897 1668.56,122.459 C1668.65,123.037 1668.84,123.506 1669.12,123.787 C1669.41,124.084 1669.7,124.366 1670.16,124.647 C1670.56,124.834 1671.02,124.928 1671.59,124.928 L1671.88,124.928 C1675.2,124.834 1678.52,124.178 1681.85,122.944 C1685.18,121.709 1688.32,120.178 1691.26,118.194 C1694.21,116.194 1696.96,113.819 1699.62,111.069 C1702.27,108.303 1704.56,105.459 1706.46,102.412 C1708.35,99.3812 1709.98,96.2405 1711.21,92.9124 C1712.45,89.5843 1713.1,86.2718 1713.31,83.1312 C1713.4,82.4593 1713.4,81.7093 1713.4,81.0374 C1713.4,79.2405 1713.21,77.3343 1712.82,75.4437 C1712.35,72.7718 1711.59,70.1155 1710.54,67.6468 C1709.49,65.178 1708.16,62.8968 1706.46,60.7093 C1704.74,58.5218 1702.85,56.7249 1700.76,55.2093 C1698.66,53.678 1696.38,52.5374 1693.73,51.8812 C1692.02,51.3968 1690.21,51.2093 1688.41,51.2093 C1687.46,51.2093 1686.51,51.303 1685.46,51.3968 M1679.57,112.772 C1679.57,110.022 1679.66,106.022 1679.76,100.897 C1679.85,96.8187 1679.95,92.9124 1679.95,89.3968 C1679.95,88.553 1679.85,87.6937 1679.85,86.8343 C1679.85,82.6624 1679.76,78.5687 1679.57,74.7718 C1679.57,74.303 1679.48,73.4437 1679.29,72.0218 C1679.1,70.5843 1678.82,69.2562 1678.71,68.0218 C1678.62,67.4593 1678.62,66.8812 1678.62,66.3187 C1678.62,65.6468 1678.62,65.0843 1678.71,64.4124 C1678.91,63.178 1679.29,62.2249 1679.95,61.7562 C1680.81,61.0843 1681.76,60.803 1682.81,60.803 C1683.09,60.8968 1683.37,60.8968 1683.66,60.8968 C1685.09,61.0843 1686.6,61.5687 1688.21,62.428 C1689.84,63.2718 1691.35,64.4124 1692.77,65.553 C1694.21,66.6937 1695.54,67.8343 1696.59,68.9749 C1697.62,70.1155 1698.48,70.9749 1698.96,71.8343 C1700.48,74.303 1701.52,77.053 1702.09,80.0843 C1702.37,81.803 1702.57,83.5062 1702.57,85.2249 C1702.57,86.4593 1702.46,87.6937 1702.37,88.928 C1701.9,91.8655 1701.04,94.7249 1699.81,97.4749 C1698.57,100.225 1696.96,102.709 1695.06,104.881 C1693.07,107.069 1690.79,108.787 1688.12,110.209 C1685.46,111.631 1682.62,112.491 1679.57,112.772"/>
<path class="Harmony" d="M2361.9,51.5843 C2358.66,52.0687 2355.43,53.0218 2352.3,54.5374 C2349.16,56.053 2346.3,57.9593 2343.74,60.2405 C2341.18,62.5218 2338.8,65.0843 2336.62,68.0218 C2334.43,70.9749 2332.73,74.0062 2331.3,77.1468 C2329.88,80.2874 2328.93,83.5999 2328.35,87.1155 C2328.07,89.0218 2327.88,90.928 2327.88,92.7249 C2327.88,94.2405 2327.98,95.7718 2328.16,97.1937 C2328.65,100.131 2329.49,103.084 2330.82,105.834 C2332.16,108.6 2333.68,111.162 2335.57,113.537 C2337.48,115.912 2339.85,117.897 2342.41,119.709 C2344.98,121.506 2347.54,122.85 2350.3,123.787 C2352.87,124.647 2355.52,125.116 2358.48,125.116 L2358.76,125.116 L2359.04,125.116 C2362.18,125.022 2365.21,124.459 2368.16,123.319 C2369.02,123.037 2369.87,122.741 2370.73,122.366 C2371.58,121.991 2372.54,121.506 2373.77,120.85 C2375.01,120.178 2376.05,119.616 2377.08,118.944 C2378.13,118.287 2379.08,117.522 2380.04,116.662 C2380.99,115.819 2381.74,114.866 2382.23,114.006 C2382.69,113.147 2382.98,112.303 2382.98,111.256 C2382.88,110.209 2382.51,109.162 2381.83,108.116 C2381.55,107.647 2381.08,107.35 2380.6,107.162 C2380.13,106.975 2379.55,106.881 2379.08,106.975 C2378.62,107.069 2378.13,107.256 2377.57,107.553 C2376.99,107.834 2376.43,108.116 2375.94,108.303 C2375.48,108.491 2375.01,108.787 2374.43,109.162 C2373.87,109.537 2373.48,109.834 2373.19,109.928 C2369.87,111.725 2366.65,112.678 2363.32,112.678 C2360.27,112.678 2357.33,111.912 2354.38,110.397 C2351.63,108.975 2349.07,107.35 2346.79,105.459 C2344.51,103.553 2342.79,101.459 2341.55,99.0843 C2340.52,96.9124 2339.66,94.6312 2339.18,92.2562 C2338.71,90.0687 2338.52,87.9749 2338.52,85.7874 L2338.52,85.0374 C2338.52,82.6624 2338.9,80.2874 2339.66,77.9124 C2340.41,75.5374 2341.37,73.3499 2342.6,71.4437 C2343.83,69.553 2345.55,67.8343 2347.54,66.4124 C2349.54,64.9905 2351.82,64.0374 2354.38,63.5687 C2354.96,63.3655 2355.62,63.2718 2356.29,63.2718 C2356.76,63.3655 2357.24,63.3655 2357.71,63.4593 C2358.94,63.6624 2360.27,63.9437 2361.6,64.3187 C2362.93,64.5999 2364.27,65.0843 2365.6,65.7405 L2369.58,67.4593 C2370.91,68.0218 2372.24,68.4124 2373.48,68.8812 C2374.71,69.3499 2375.94,69.553 2377.18,69.6468 C2377.57,69.7405 2377.94,69.7405 2378.23,69.7405 C2378.99,69.6468 2379.76,69.553 2380.41,69.4593 C2381.37,69.2562 2382.23,68.6937 2383.07,67.8343 C2383.93,66.9749 2384.69,65.9437 2385.16,64.5062 C2385.35,63.8499 2385.44,63.2718 2385.44,62.7093 C2385.55,62.2249 2385.44,61.7562 2385.26,61.2874 C2385.07,60.803 2384.79,60.428 2384.51,60.053 C2384.21,59.5687 2383.83,59.2874 2383.37,58.9124 C2382.88,58.5218 2382.51,58.1468 2382.13,57.8655 C2381.74,57.5843 2381.18,57.1937 2380.69,56.9124 C2374.8,53.2093 2369.4,51.3968 2364.37,51.3968 C2363.51,51.3968 2362.74,51.4905 2361.9,51.5843"/>
<path class="Harmony" d="M187.627,361.436 C187.158,361.53 186.392,361.624 185.158,361.733 C183.923,361.827 182.97,362.014 182.314,362.108 C181.642,362.202 180.689,362.296 179.548,362.483 C178.408,362.671 177.564,362.967 176.798,363.249 C176.033,363.53 175.189,363.905 174.423,364.389 C173.658,364.858 173.002,365.342 172.517,365.999 C171.861,366.671 171.377,367.421 171.002,368.186 C170.627,368.952 170.345,369.889 170.236,370.842 C170.142,371.514 170.142,372.171 170.142,372.842 L170.142,373.405 C170.236,374.077 170.236,375.03 170.345,376.171 C170.439,377.311 170.439,378.249 170.439,378.921 C170.439,389.749 170.72,400.389 171.189,410.936 C171.283,411.499 171.283,412.077 171.283,412.749 C171.189,414.733 171.095,417.389 170.908,420.53 C170.627,424.233 170.439,426.999 170.439,428.796 L170.439,429.374 L170.439,430.983 C170.439,431.452 170.627,431.936 170.72,432.499 C170.814,433.077 171.002,433.546 171.283,433.827 C171.58,434.124 171.861,434.405 172.33,434.686 C172.72,434.874 173.189,434.967 173.752,434.967 L174.048,434.967 C177.361,434.874 180.689,434.217 184.017,432.983 C187.345,431.749 190.486,430.217 193.423,428.233 C196.377,426.233 199.127,423.858 201.783,421.108 C204.439,418.342 206.72,415.499 208.627,412.452 C210.517,409.421 212.142,406.28 213.377,402.952 C214.611,399.624 215.267,396.311 215.47,393.171 C215.564,392.499 215.564,391.749 215.564,391.077 C215.564,389.28 215.377,387.374 214.986,385.483 C214.517,382.811 213.752,380.155 212.705,377.686 C211.658,375.217 210.33,372.936 208.627,370.749 C206.908,368.561 205.017,366.764 202.923,365.249 C200.83,363.717 198.548,362.577 195.892,361.921 C194.189,361.436 192.377,361.249 190.58,361.249 C189.627,361.249 188.673,361.342 187.627,361.436 M181.736,422.811 C181.736,420.061 181.83,416.061 181.923,410.936 C182.017,406.858 182.111,402.952 182.111,399.436 C182.111,398.592 182.017,397.733 182.017,396.874 C182.017,392.702 181.923,388.608 181.736,384.811 C181.736,384.342 181.642,383.483 181.455,382.061 C181.267,380.624 180.986,379.296 180.877,378.061 C180.783,377.499 180.783,376.921 180.783,376.358 C180.783,375.686 180.783,375.124 180.877,374.452 C181.08,373.217 181.455,372.264 182.111,371.796 C182.97,371.124 183.923,370.842 184.97,370.842 C185.252,370.936 185.533,370.936 185.83,370.936 C187.252,371.124 188.767,371.608 190.377,372.467 C192.002,373.311 193.517,374.452 194.939,375.592 C196.377,376.733 197.705,377.874 198.752,379.014 C199.783,380.155 200.642,381.014 201.127,381.874 C202.642,384.342 203.689,387.092 204.252,390.124 C204.533,391.842 204.736,393.546 204.736,395.264 C204.736,396.499 204.627,397.733 204.533,398.967 C204.064,401.905 203.205,404.764 201.97,407.514 C200.736,410.264 199.127,412.749 197.22,414.921 C195.236,417.108 192.955,418.827 190.283,420.249 C187.627,421.671 184.783,422.53 181.736,422.811"/>
<path class="Harmony" d="M898.218,361.624 C894.983,362.108 891.749,363.061 888.624,364.577 C885.483,366.092 882.624,367.999 880.061,370.28 C877.499,372.561 875.124,375.124 872.936,378.061 C870.749,381.014 869.046,384.046 867.624,387.186 C866.202,390.327 865.249,393.639 864.671,397.155 C864.389,399.061 864.202,400.967 864.202,402.764 C864.202,404.28 864.296,405.811 864.483,407.233 C864.968,410.171 865.811,413.124 867.139,415.874 C868.483,418.639 869.999,421.202 871.889,423.577 C873.796,425.952 876.171,427.936 878.733,429.749 C881.296,431.546 883.858,432.889 886.624,433.827 C889.186,434.686 891.843,435.155 894.796,435.155 L895.077,435.155 L895.358,435.155 C898.499,435.061 901.53,434.499 904.483,433.358 C905.343,433.077 906.186,432.78 907.046,432.405 C907.905,432.03 908.858,431.546 910.093,430.889 C911.327,430.217 912.374,429.655 913.405,428.983 C914.452,428.327 915.405,427.561 916.358,426.702 C917.311,425.858 918.061,424.905 918.546,424.046 C919.014,423.186 919.296,422.342 919.296,421.296 C919.202,420.249 918.827,419.202 918.155,418.155 C917.874,417.686 917.405,417.389 916.921,417.202 C916.452,417.014 915.874,416.921 915.405,417.014 C914.936,417.108 914.452,417.296 913.889,417.592 C913.311,417.874 912.749,418.155 912.264,418.342 C911.796,418.53 911.327,418.827 910.749,419.202 C910.186,419.577 909.796,419.874 909.514,419.967 C906.186,421.764 902.968,422.717 899.639,422.717 C896.593,422.717 893.655,421.952 890.702,420.436 C887.952,419.014 885.389,417.389 883.108,415.499 C880.827,413.592 879.108,411.499 877.874,409.124 C876.843,406.952 875.983,404.671 875.499,402.296 C875.03,400.108 874.843,398.014 874.843,395.827 L874.843,395.077 C874.843,392.702 875.218,390.327 875.983,387.952 C876.733,385.577 877.686,383.389 878.921,381.483 C880.155,379.592 881.874,377.874 883.858,376.452 C885.858,375.03 888.139,374.077 890.702,373.608 C891.28,373.405 891.936,373.311 892.608,373.311 C893.077,373.405 893.561,373.405 894.03,373.499 C895.264,373.702 896.593,373.983 897.921,374.358 C899.249,374.639 900.593,375.124 901.921,375.78 L905.905,377.499 C907.233,378.061 908.561,378.452 909.796,378.921 C911.03,379.389 912.264,379.592 913.499,379.686 C913.889,379.78 914.264,379.78 914.546,379.78 C915.311,379.686 916.077,379.592 916.733,379.499 C917.686,379.296 918.546,378.733 919.389,377.874 C920.249,377.014 921.014,375.983 921.483,374.546 C921.671,373.889 921.764,373.311 921.764,372.749 C921.874,372.264 921.764,371.796 921.577,371.327 C921.389,370.842 921.108,370.467 920.827,370.092 C920.53,369.608 920.155,369.327 919.686,368.952 C919.202,368.561 918.827,368.186 918.452,367.905 C918.061,367.624 917.499,367.233 917.014,366.952 C911.124,363.249 905.718,361.436 900.686,361.436 C899.827,361.436 899.061,361.53 898.218,361.624"/>
<path class="Harmony" d="M1220.44,361.827 C1216.74,362.296 1213.22,363.155 1209.8,364.389 C1206.38,365.624 1203.24,367.327 1200.21,369.327 C1197.16,371.327 1194.41,373.608 1192.04,376.171 C1189.66,378.733 1187.66,381.671 1185.96,384.999 C1184.24,388.327 1183.1,391.842 1182.44,395.546 C1181.96,397.827 1181.77,400.202 1181.77,402.577 L1181.77,403.249 C1181.77,405.514 1181.86,407.702 1182.15,409.889 C1182.44,412.264 1183.01,414.639 1183.77,416.827 C1184.63,419.108 1185.57,421.296 1186.61,423.28 C1187.66,425.28 1188.99,427.092 1190.52,428.702 C1192.04,430.311 1193.93,431.639 1195.83,432.78 C1197.74,433.921 1199.91,434.78 1202.29,435.264 C1203.91,435.546 1205.52,435.733 1207.15,435.733 C1207.99,435.733 1208.94,435.733 1209.99,435.639 C1212.93,435.358 1215.69,434.686 1218.26,433.733 C1220.82,432.78 1223.19,431.639 1225.19,430.311 C1227.18,428.983 1229.18,427.28 1230.99,425.374 C1232.79,423.483 1234.51,421.389 1235.93,419.296 C1237.35,417.202 1238.68,414.827 1240.1,412.171 C1242.29,407.796 1243.33,404.092 1243.33,401.155 C1243.33,398.202 1242.29,395.921 1240.1,394.311 C1238.86,393.264 1236.79,392.608 1234.02,392.124 C1232.04,391.842 1230.04,391.655 1228.04,391.655 L1227.57,391.655 L1225.47,391.655 C1222.54,391.749 1219.77,392.217 1217.11,393.077 C1214.46,393.936 1212.65,394.983 1211.69,396.217 C1211.41,396.686 1211.13,397.061 1210.85,397.452 C1210.18,398.499 1209.8,399.436 1209.8,400.296 C1209.8,401.53 1210.66,402.389 1212.27,402.858 C1213.6,403.249 1216.16,403.436 1219.86,403.436 L1220.72,403.436 C1221.96,403.53 1222.91,403.53 1223.57,403.53 C1227.47,403.53 1229.85,403.999 1230.6,405.046 C1230.9,405.421 1231.18,405.999 1231.18,406.561 C1231.18,407.139 1231.08,407.702 1230.99,408.28 C1230.9,408.842 1230.6,409.514 1230.32,410.264 C1230.04,411.03 1229.76,411.608 1229.46,412.077 C1229.18,412.546 1228.9,413.217 1228.52,413.983 C1228.13,414.733 1227.85,415.124 1227.76,415.311 C1227.29,416.155 1226.99,416.827 1226.71,417.296 C1226.43,417.78 1226.04,418.249 1225.57,418.921 C1225.1,419.577 1224.52,420.155 1224.05,420.53 C1222.05,422.046 1219.86,423.092 1217.3,423.577 L1214.07,423.952 L1213.69,423.952 C1212.46,423.858 1211.13,423.764 1209.9,423.483 C1207.52,422.999 1205.15,422.139 1202.96,420.811 C1200.77,419.483 1198.88,417.874 1197.44,415.967 C1196.02,413.983 1194.69,411.608 1193.74,408.936 C1192.79,406.28 1192.22,403.53 1192.04,400.577 C1191.94,399.53 1191.94,398.592 1191.94,397.546 C1191.94,395.639 1192.04,393.749 1192.32,391.936 C1192.79,389.186 1193.65,386.514 1194.97,384.046 C1196.3,381.577 1198.02,379.592 1200.11,378.061 C1202.68,376.077 1205.8,374.639 1209.41,373.702 C1211.41,373.124 1213.41,372.842 1215.3,372.842 C1216.65,372.842 1217.97,373.03 1219.21,373.311 C1220.26,373.608 1221.29,373.983 1222.54,374.546 C1223.77,375.124 1224.8,375.686 1225.76,376.264 C1226.71,376.827 1227.76,377.405 1228.8,377.967 C1229.85,378.546 1230.9,379.014 1231.83,379.202 C1232.79,379.389 1233.74,379.499 1234.69,379.389 C1235.65,379.296 1236.58,378.827 1237.54,377.967 C1238.49,377.124 1239.35,375.983 1240.19,374.546 C1240.68,373.702 1240.96,372.842 1240.96,371.983 C1240.96,371.327 1240.77,370.749 1240.49,370.092 C1239.72,368.655 1238.49,367.421 1236.79,366.374 C1235.07,365.342 1233.27,364.389 1231.18,363.624 C1229.08,362.858 1227.08,362.389 1225.1,362.108 C1223.66,361.827 1222.54,361.733 1221.58,361.733 C1221.1,361.733 1220.72,361.733 1220.44,361.827"/>
<path class="Harmony" d="M1591.84,361.624 C1588.61,362.108 1585.37,363.061 1582.25,364.577 C1579.11,366.092 1576.25,367.999 1573.68,370.28 C1571.12,372.561 1568.75,375.124 1566.56,378.061 C1564.37,381.014 1562.67,384.046 1561.25,387.186 C1559.82,390.327 1558.87,393.639 1558.29,397.155 C1558.01,399.061 1557.82,400.967 1557.82,402.764 C1557.82,404.28 1557.92,405.811 1558.11,407.233 C1558.59,410.171 1559.43,413.124 1560.76,415.874 C1562.11,418.639 1563.62,421.202 1565.51,423.577 C1567.42,425.952 1569.79,427.936 1572.36,429.749 C1574.92,431.546 1577.48,432.889 1580.25,433.827 C1582.81,434.686 1585.46,435.155 1588.42,435.155 L1588.7,435.155 L1588.98,435.155 C1592.12,435.061 1595.15,434.499 1598.11,433.358 C1598.96,433.077 1599.81,432.78 1600.67,432.405 C1601.53,432.03 1602.48,431.546 1603.71,430.889 C1604.95,430.217 1606,429.655 1607.03,428.983 C1608.07,428.327 1609.03,427.561 1609.98,426.702 C1610.93,425.858 1611.68,424.905 1612.17,424.046 C1612.64,423.186 1612.92,422.342 1612.92,421.296 C1612.82,420.249 1612.45,419.202 1611.78,418.155 C1611.5,417.686 1611.03,417.389 1610.54,417.202 C1610.07,417.014 1609.5,416.921 1609.03,417.014 C1608.56,417.108 1608.07,417.296 1607.51,417.592 C1606.93,417.874 1606.37,418.155 1605.89,418.342 C1605.42,418.53 1604.95,418.827 1604.37,419.202 C1603.81,419.577 1603.42,419.874 1603.14,419.967 C1599.81,421.764 1596.59,422.717 1593.26,422.717 C1590.21,422.717 1587.28,421.952 1584.32,420.436 C1581.57,419.014 1579.01,417.389 1576.73,415.499 C1574.45,413.592 1572.73,411.499 1571.5,409.124 C1570.46,406.952 1569.61,404.671 1569.12,402.296 C1568.65,400.108 1568.46,398.014 1568.46,395.827 L1568.46,395.077 C1568.46,392.702 1568.84,390.327 1569.61,387.952 C1570.36,385.577 1571.31,383.389 1572.54,381.483 C1573.78,379.592 1575.5,377.874 1577.48,376.452 C1579.48,375.03 1581.76,374.077 1584.32,373.608 C1584.9,373.405 1585.56,373.311 1586.23,373.311 C1586.7,373.405 1587.18,373.405 1587.65,373.499 C1588.89,373.702 1590.21,373.983 1591.54,374.358 C1592.87,374.639 1594.21,375.124 1595.54,375.78 L1599.53,377.499 C1600.86,378.061 1602.18,378.452 1603.42,378.921 C1604.65,379.389 1605.89,379.592 1607.12,379.686 C1607.51,379.78 1607.89,379.78 1608.17,379.78 C1608.93,379.686 1609.7,379.592 1610.36,379.499 C1611.31,379.296 1612.17,378.733 1613.01,377.874 C1613.87,377.014 1614.64,375.983 1615.11,374.546 C1615.29,373.889 1615.39,373.311 1615.39,372.749 C1615.5,372.264 1615.39,371.796 1615.2,371.327 C1615.01,370.842 1614.73,370.467 1614.45,370.092 C1614.15,369.608 1613.78,369.327 1613.31,368.952 C1612.82,368.561 1612.45,368.186 1612.07,367.905 C1611.68,367.624 1611.12,367.233 1610.64,366.952 C1604.75,363.249 1599.34,361.436 1594.31,361.436 C1593.45,361.436 1592.68,361.53 1591.84,361.624"/>
<path class="Harmony" d="M1908.08,381.389 C1909.31,382.999 1910.16,385.186 1910.83,387.952 C1911.5,390.702 1911.97,393.358 1912.44,396.124 C1912.92,398.874 1913.21,401.436 1913.3,403.717 L1906.08,402.952 L1898.28,403.717 L1902.28,391.842 L1908.08,381.389 M1906.36,414.827 L1908.27,414.827 L1911.11,414.827 L1911.88,414.827 L1912.74,414.827 C1912.83,414.827 1913.11,414.921 1913.49,414.921 C1913.88,414.921 1914.16,414.921 1914.35,415.014 C1914.53,415.124 1914.72,415.217 1915.02,415.311 C1915.3,415.405 1915.49,415.499 1915.67,415.686 C1915.86,415.874 1916.16,415.967 1916.35,416.155 C1916.81,416.639 1917.28,417.592 1917.67,418.827 C1918.05,419.967 1918.42,421.202 1918.72,422.624 C1919,424.046 1919.28,425.467 1919.56,427.092 C1919.86,428.702 1920.24,430.124 1920.61,431.452 C1921,432.78 1921.56,434.014 1922.14,435.061 C1922.71,436.108 1923.38,436.78 1924.22,437.155 C1924.61,437.342 1925.08,437.436 1925.66,437.436 C1926.13,437.436 1926.69,437.342 1927.27,437.155 C1928.13,436.874 1928.78,436.499 1929.46,436.108 C1930.11,435.733 1930.6,435.358 1930.97,434.874 C1931.35,434.405 1931.64,433.921 1931.92,433.358 C1932.21,432.78 1932.39,432.405 1932.49,431.936 C1932.58,431.546 1932.58,431.171 1932.58,430.702 L1932.58,430.217 C1932.58,429.561 1932.58,428.889 1932.49,428.421 C1932.39,427.936 1932.21,427.374 1932.02,426.608 C1931.83,425.858 1931.64,425.28 1931.44,424.811 C1931.25,424.327 1931.16,423.671 1930.88,422.811 C1930.6,421.952 1930.3,421.389 1930.21,421.014 C1929.55,419.108 1928.41,415.311 1926.78,409.702 C1925.66,405.624 1924.71,402.202 1924.03,399.53 C1922.8,394.686 1921.75,390.702 1921,387.561 C1919.77,382.342 1918.81,378.827 1918.33,377.014 C1918.24,376.639 1918.14,376.077 1917.96,375.311 C1917.77,374.546 1917.67,373.889 1917.58,373.311 C1917.49,372.749 1917.19,372.171 1917,371.421 C1916.81,370.655 1916.63,369.889 1916.44,369.327 C1916.25,368.749 1915.86,368.092 1915.58,367.421 C1915.3,366.764 1914.91,366.28 1914.53,365.811 C1914.16,365.342 1913.88,364.952 1913.39,364.577 C1912.92,364.202 1912.44,363.811 1911.88,363.717 C1911.41,363.624 1910.92,363.53 1910.36,363.53 L1909.97,363.53 C1909.31,363.624 1908.55,363.717 1907.69,363.999 C1907.03,364.296 1906.27,364.671 1905.61,365.139 C1904.94,365.624 1904.28,365.999 1903.8,366.483 C1903.33,366.952 1902.85,367.624 1902.38,368.374 C1901.91,369.139 1901.42,369.702 1901.14,370.28 C1900.86,370.842 1900.47,371.608 1900.1,372.561 C1899.72,373.499 1899.33,374.264 1899.14,374.842 C1898.96,375.405 1898.77,376.171 1898.39,377.124 C1898,378.061 1897.72,378.733 1897.63,379.202 C1894.88,386.139 1892.11,392.702 1889.36,399.061 C1884.89,409.233 1882.24,415.405 1881.47,417.686 C1881.38,418.061 1881,418.733 1880.52,419.764 C1880.05,420.811 1879.49,421.764 1879,422.717 C1878.53,423.671 1878.05,424.905 1877.49,426.139 C1876.91,427.374 1876.44,428.608 1876.16,429.655 C1875.77,430.702 1875.58,431.639 1875.58,432.499 C1875.67,433.358 1875.88,433.921 1876.35,434.405 C1877.21,435.061 1878.14,435.452 1879.19,435.452 L1879.86,435.452 C1881.19,435.264 1882.52,434.874 1883.85,434.124 C1885.17,433.358 1886.13,432.499 1886.61,431.639 C1887.17,430.608 1887.75,429.374 1888.22,427.842 C1888.69,426.327 1889.17,424.905 1889.46,423.671 C1889.74,422.436 1890.13,421.108 1890.78,419.671 C1891.46,418.249 1892.21,417.108 1893.06,416.155 L1898.19,414.546 C1898.49,414.452 1898.86,414.546 1899.53,414.546 L1902.28,414.546 C1902.56,414.546 1903.99,414.639 1906.36,414.827"/>
<path class="Harmony" d="M2268.49,361.436 C2268.02,361.53 2267.26,361.624 2266.02,361.733 C2264.79,361.827 2263.84,362.014 2263.18,362.108 C2262.51,362.202 2261.56,362.296 2260.42,362.483 C2259.27,362.671 2258.43,362.967 2257.67,363.249 C2256.9,363.53 2256.06,363.905 2255.29,364.389 C2254.52,364.858 2253.87,365.342 2253.38,365.999 C2252.73,366.671 2252.24,367.421 2251.87,368.186 C2251.49,368.952 2251.21,369.889 2251.1,370.842 C2251.01,371.514 2251.01,372.171 2251.01,372.842 L2251.01,373.405 C2251.1,374.077 2251.1,375.03 2251.21,376.171 C2251.31,377.311 2251.31,378.249 2251.31,378.921 C2251.31,389.749 2251.59,400.389 2252.06,410.936 C2252.15,411.499 2252.15,412.077 2252.15,412.749 C2252.06,414.733 2251.96,417.389 2251.77,420.53 C2251.49,424.233 2251.31,426.999 2251.31,428.796 L2251.31,429.374 L2251.31,430.983 C2251.31,431.452 2251.49,431.936 2251.59,432.499 C2251.68,433.077 2251.87,433.546 2252.15,433.827 C2252.45,434.124 2252.73,434.405 2253.2,434.686 C2253.59,434.874 2254.06,434.967 2254.62,434.967 L2254.92,434.967 C2258.23,434.874 2261.56,434.217 2264.88,432.983 C2268.21,431.749 2271.35,430.217 2274.29,428.233 C2277.24,426.233 2279.99,423.858 2282.65,421.108 C2285.31,418.342 2287.59,415.499 2289.49,412.452 C2291.38,409.421 2293.01,406.28 2294.24,402.952 C2295.48,399.624 2296.13,396.311 2296.34,393.171 C2296.43,392.499 2296.43,391.749 2296.43,391.077 C2296.43,389.28 2296.24,387.374 2295.85,385.483 C2295.38,382.811 2294.62,380.155 2293.57,377.686 C2292.52,375.217 2291.2,372.936 2289.49,370.749 C2287.77,368.561 2285.88,366.764 2283.79,365.249 C2281.7,363.717 2279.42,362.577 2276.76,361.921 C2275.06,361.436 2273.24,361.249 2271.45,361.249 C2270.49,361.249 2269.54,361.342 2268.49,361.436 M2262.6,422.811 C2262.6,420.061 2262.7,416.061 2262.79,410.936 C2262.88,406.858 2262.98,402.952 2262.98,399.436 C2262.98,398.592 2262.88,397.733 2262.88,396.874 C2262.88,392.702 2262.79,388.608 2262.6,384.811 C2262.6,384.342 2262.51,383.483 2262.32,382.061 C2262.13,380.624 2261.85,379.296 2261.74,378.061 C2261.65,377.499 2261.65,376.921 2261.65,376.358 C2261.65,375.686 2261.65,375.124 2261.74,374.452 C2261.95,373.217 2262.32,372.264 2262.98,371.796 C2263.84,371.124 2264.79,370.842 2265.84,370.842 C2266.12,370.936 2266.4,370.936 2266.7,370.936 C2268.12,371.124 2269.63,371.608 2271.24,372.467 C2272.87,373.311 2274.38,374.452 2275.81,375.592 C2277.24,376.733 2278.57,377.874 2279.62,379.014 C2280.65,380.155 2281.51,381.014 2281.99,381.874 C2283.51,384.342 2284.56,387.092 2285.12,390.124 C2285.4,391.842 2285.6,393.546 2285.6,395.264 C2285.6,396.499 2285.49,397.733 2285.4,398.967 C2284.93,401.905 2284.07,404.764 2282.84,407.514 C2281.6,410.264 2279.99,412.749 2278.09,414.921 C2276.1,417.108 2273.82,418.827 2271.15,420.249 C2268.49,421.671 2265.65,422.53 2262.6,422.811"/>
<path class="Harmony" d="M236.897,674.091 C236.428,674.185 235.663,674.279 234.428,674.388 C233.194,674.482 232.241,674.669 231.585,674.763 C230.913,674.857 229.96,674.951 228.819,675.138 C227.678,675.326 226.835,675.623 226.069,675.904 C225.303,676.185 224.46,676.56 223.694,677.044 C222.928,677.513 222.272,677.998 221.788,678.654 C221.131,679.326 220.647,680.076 220.272,680.841 C219.897,681.607 219.616,682.544 219.506,683.498 C219.413,684.169 219.413,684.826 219.413,685.498 L219.413,686.06 C219.506,686.732 219.506,687.685 219.616,688.826 C219.71,689.966 219.71,690.904 219.71,691.576 C219.71,702.404 219.991,713.044 220.46,723.591 C220.553,724.154 220.553,724.732 220.553,725.404 C220.46,727.388 220.366,730.044 220.178,733.185 C219.897,736.888 219.71,739.654 219.71,741.451 L219.71,742.029 L219.71,743.638 C219.71,744.107 219.897,744.591 219.991,745.154 C220.085,745.732 220.272,746.201 220.553,746.482 C220.85,746.779 221.131,747.06 221.6,747.341 C221.991,747.529 222.46,747.623 223.022,747.623 L223.319,747.623 C226.631,747.529 229.96,746.873 233.288,745.638 C236.616,744.404 239.756,742.873 242.694,740.888 C245.647,738.888 248.397,736.513 251.053,733.763 C253.71,730.998 255.991,728.154 257.897,725.107 C259.788,722.076 261.413,718.935 262.647,715.607 C263.881,712.279 264.538,708.966 264.741,705.826 C264.835,705.154 264.835,704.404 264.835,703.732 C264.835,701.935 264.647,700.029 264.256,698.138 C263.788,695.466 263.022,692.81 261.975,690.341 C260.928,687.873 259.6,685.591 257.897,683.404 C256.178,681.216 254.288,679.419 252.194,677.904 C250.1,676.373 247.819,675.232 245.163,674.576 C243.46,674.091 241.647,673.904 239.85,673.904 C238.897,673.904 237.944,673.998 236.897,674.091 M231.006,735.466 C231.006,732.716 231.1,728.716 231.194,723.591 C231.288,719.513 231.381,715.607 231.381,712.091 C231.381,711.248 231.288,710.388 231.288,709.529 C231.288,705.357 231.194,701.263 231.006,697.466 C231.006,696.998 230.913,696.138 230.725,694.716 C230.538,693.279 230.256,691.951 230.147,690.716 C230.053,690.154 230.053,689.576 230.053,689.013 C230.053,688.341 230.053,687.779 230.147,687.107 C230.35,685.873 230.725,684.919 231.381,684.451 C232.241,683.779 233.194,683.498 234.241,683.498 C234.522,683.591 234.803,683.591 235.1,683.591 C236.522,683.779 238.038,684.263 239.647,685.123 C241.272,685.966 242.788,687.107 244.21,688.248 C245.647,689.388 246.975,690.529 248.022,691.669 C249.053,692.81 249.913,693.669 250.397,694.529 C251.913,696.998 252.96,699.748 253.522,702.779 C253.803,704.498 254.006,706.201 254.006,707.919 C254.006,709.154 253.897,710.388 253.803,711.623 C253.335,714.56 252.475,717.419 251.241,720.169 C250.006,722.919 248.397,725.404 246.491,727.576 C244.506,729.763 242.225,731.482 239.553,732.904 C236.897,734.326 234.053,735.185 231.006,735.466"/>
<path class="Harmony" d="M891.819,679.018 C891.35,679.112 890.584,679.206 889.35,679.315 C888.116,679.409 887.163,679.596 886.506,679.69 C885.834,679.784 884.881,679.878 883.741,680.065 C882.6,680.253 881.756,680.55 880.991,680.831 C880.225,681.112 879.381,681.487 878.616,681.971 C877.85,682.44 877.194,682.925 876.709,683.581 C876.053,684.253 875.569,685.003 875.194,685.768 C874.819,686.534 874.538,687.471 874.428,688.425 C874.334,689.096 874.334,689.753 874.334,690.425 L874.334,690.987 C874.428,691.659 874.428,692.612 874.538,693.753 C874.631,694.893 874.631,695.831 874.631,696.503 C874.631,707.331 874.913,717.971 875.381,728.518 C875.475,729.081 875.475,729.659 875.475,730.331 C875.381,732.315 875.288,734.971 875.1,738.112 C874.819,741.815 874.631,744.581 874.631,746.378 L874.631,746.956 L874.631,748.565 C874.631,749.034 874.819,749.518 874.913,750.081 C875.006,750.659 875.194,751.128 875.475,751.409 C875.772,751.706 876.053,751.987 876.522,752.268 C876.913,752.456 877.381,752.55 877.944,752.55 L878.241,752.55 C881.553,752.456 884.881,751.8 888.209,750.565 C891.538,749.331 894.678,747.8 897.616,745.815 C900.569,743.815 903.319,741.44 905.975,738.69 C908.631,735.925 910.913,733.081 912.819,730.034 C914.709,727.003 916.334,723.862 917.569,720.534 C918.803,717.206 919.459,713.893 919.663,710.753 C919.756,710.081 919.756,709.331 919.756,708.659 C919.756,706.862 919.569,704.956 919.178,703.065 C918.709,700.393 917.944,697.737 916.897,695.268 C915.85,692.8 914.522,690.518 912.819,688.331 C911.1,686.143 909.209,684.346 907.116,682.831 C905.022,681.3 902.741,680.159 900.084,679.503 C898.381,679.018 896.569,678.831 894.772,678.831 C893.819,678.831 892.866,678.925 891.819,679.018 M885.928,740.393 C885.928,737.643 886.022,733.643 886.116,728.518 C886.209,724.44 886.303,720.534 886.303,717.018 C886.303,716.175 886.209,715.315 886.209,714.456 C886.209,710.284 886.116,706.19 885.928,702.393 C885.928,701.925 885.834,701.065 885.647,699.643 C885.459,698.206 885.178,696.878 885.069,695.643 C884.975,695.081 884.975,694.503 884.975,693.94 C884.975,693.268 884.975,692.706 885.069,692.034 C885.272,690.8 885.647,689.846 886.303,689.378 C887.163,688.706 888.116,688.425 889.163,688.425 C889.444,688.518 889.725,688.518 890.022,688.518 C891.444,688.706 892.959,689.19 894.569,690.05 C896.194,690.893 897.709,692.034 899.131,693.175 C900.569,694.315 901.897,695.456 902.944,696.596 C903.975,697.737 904.834,698.596 905.319,699.456 C906.834,701.925 907.881,704.675 908.444,707.706 C908.725,709.425 908.928,711.128 908.928,712.846 C908.928,714.081 908.819,715.315 908.725,716.55 C908.256,719.487 907.397,722.346 906.163,725.096 C904.928,727.846 903.319,730.331 901.413,732.503 C899.428,734.69 897.147,736.409 894.475,737.831 C891.819,739.253 888.975,740.112 885.928,740.393"/>
<path class="Harmony" d="M1612.98,679.206 C1609.75,679.69 1606.51,680.643 1603.39,682.159 C1600.25,683.675 1597.39,685.581 1594.82,687.862 C1592.26,690.143 1589.89,692.706 1587.7,695.643 C1585.51,698.596 1583.81,701.628 1582.39,704.768 C1580.96,707.909 1580.01,711.221 1579.43,714.737 C1579.15,716.643 1578.96,718.55 1578.96,720.346 C1578.96,721.862 1579.06,723.393 1579.25,724.815 C1579.73,727.753 1580.57,730.706 1581.9,733.456 C1583.25,736.221 1584.76,738.784 1586.65,741.159 C1588.56,743.534 1590.93,745.518 1593.5,747.331 C1596.06,749.128 1598.62,750.471 1601.39,751.409 C1603.95,752.268 1606.6,752.737 1609.56,752.737 L1609.84,752.737 L1610.12,752.737 C1613.26,752.643 1616.29,752.081 1619.25,750.94 C1620.1,750.659 1620.95,750.362 1621.81,749.987 C1622.67,749.612 1623.62,749.128 1624.85,748.471 C1626.09,747.8 1627.14,747.237 1628.17,746.565 C1629.21,745.909 1630.17,745.143 1631.12,744.284 C1632.07,743.44 1632.82,742.487 1633.31,741.628 C1633.78,740.768 1634.06,739.925 1634.06,738.878 C1633.96,737.831 1633.59,736.784 1632.92,735.737 C1632.64,735.268 1632.17,734.971 1631.68,734.784 C1631.21,734.596 1630.64,734.503 1630.17,734.596 C1629.7,734.69 1629.21,734.878 1628.65,735.175 C1628.07,735.456 1627.51,735.737 1627.03,735.925 C1626.56,736.112 1626.09,736.409 1625.51,736.784 C1624.95,737.159 1624.56,737.456 1624.28,737.55 C1620.95,739.346 1617.73,740.3 1614.4,740.3 C1611.35,740.3 1608.42,739.534 1605.46,738.018 C1602.71,736.596 1600.15,734.971 1597.87,733.081 C1595.59,731.175 1593.87,729.081 1592.64,726.706 C1591.6,724.534 1590.75,722.253 1590.26,719.878 C1589.79,717.69 1589.6,715.596 1589.6,713.409 L1589.6,712.659 C1589.6,710.284 1589.98,707.909 1590.75,705.534 C1591.5,703.159 1592.45,700.971 1593.68,699.065 C1594.92,697.175 1596.64,695.456 1598.62,694.034 C1600.62,692.612 1602.9,691.659 1605.46,691.19 C1606.04,690.987 1606.7,690.893 1607.37,690.893 C1607.84,690.987 1608.32,690.987 1608.79,691.081 C1610.03,691.284 1611.35,691.565 1612.68,691.94 C1614.01,692.221 1615.35,692.706 1616.68,693.362 L1620.67,695.081 C1622,695.643 1623.32,696.034 1624.56,696.503 C1625.79,696.971 1627.03,697.175 1628.26,697.268 C1628.65,697.362 1629.03,697.362 1629.31,697.362 C1630.07,697.268 1630.84,697.175 1631.5,697.081 C1632.45,696.878 1633.31,696.315 1634.15,695.456 C1635.01,694.596 1635.78,693.565 1636.25,692.128 C1636.43,691.471 1636.53,690.893 1636.53,690.331 C1636.64,689.846 1636.53,689.378 1636.34,688.909 C1636.15,688.425 1635.87,688.05 1635.59,687.675 C1635.29,687.19 1634.92,686.909 1634.45,686.534 C1633.96,686.143 1633.59,685.768 1633.21,685.487 C1632.82,685.206 1632.26,684.815 1631.78,684.534 C1625.89,680.831 1620.48,679.018 1615.45,679.018 C1614.59,679.018 1613.82,679.112 1612.98,679.206"/>
<path class="Harmony" d="M1934.51,698.971 C1935.74,700.581 1936.58,702.768 1937.26,705.534 C1937.93,708.284 1938.4,710.94 1938.86,713.706 C1939.35,716.456 1939.63,719.018 1939.72,721.3 L1932.51,720.534 L1924.71,721.3 L1928.71,709.425 L1934.51,698.971 M1932.79,732.409 L1934.69,732.409 L1937.54,732.409 L1938.3,732.409 L1939.16,732.409 C1939.26,732.409 1939.54,732.503 1939.91,732.503 C1940.3,732.503 1940.58,732.503 1940.77,732.596 C1940.96,732.706 1941.15,732.8 1941.44,732.893 C1941.72,732.987 1941.91,733.081 1942.1,733.268 C1942.29,733.456 1942.58,733.55 1942.77,733.737 C1943.24,734.221 1943.71,735.175 1944.1,736.409 C1944.47,737.55 1944.85,738.784 1945.15,740.206 C1945.43,741.628 1945.71,743.05 1945.99,744.675 C1946.29,746.284 1946.66,747.706 1947.04,749.034 C1947.43,750.362 1947.99,751.596 1948.57,752.643 C1949.13,753.69 1949.8,754.362 1950.65,754.737 C1951.04,754.925 1951.51,755.018 1952.08,755.018 C1952.55,755.018 1953.11,754.925 1953.69,754.737 C1954.55,754.456 1955.21,754.081 1955.88,753.69 C1956.54,753.315 1957.02,752.94 1957.4,752.456 C1957.77,751.987 1958.07,751.503 1958.35,750.94 C1958.63,750.362 1958.82,749.987 1958.91,749.518 C1959.01,749.128 1959.01,748.753 1959.01,748.284 L1959.01,747.8 C1959.01,747.143 1959.01,746.471 1958.91,746.003 C1958.82,745.518 1958.63,744.956 1958.44,744.19 C1958.26,743.44 1958.07,742.862 1957.86,742.393 C1957.68,741.909 1957.58,741.253 1957.3,740.393 C1957.02,739.534 1956.72,738.971 1956.63,738.596 C1955.97,736.69 1954.83,732.893 1953.21,727.284 C1952.08,723.206 1951.13,719.784 1950.46,717.112 C1949.22,712.268 1948.18,708.284 1947.43,705.143 C1946.19,699.925 1945.24,696.409 1944.76,694.596 C1944.66,694.221 1944.57,693.659 1944.38,692.893 C1944.19,692.128 1944.1,691.471 1944.01,690.893 C1943.91,690.331 1943.61,689.753 1943.43,689.003 C1943.24,688.237 1943.05,687.471 1942.86,686.909 C1942.68,686.331 1942.29,685.675 1942.01,685.003 C1941.72,684.346 1941.33,683.862 1940.96,683.393 C1940.58,682.925 1940.3,682.534 1939.82,682.159 C1939.35,681.784 1938.86,681.393 1938.3,681.3 C1937.83,681.206 1937.35,681.112 1936.79,681.112 L1936.4,681.112 C1935.74,681.206 1934.97,681.3 1934.11,681.581 C1933.46,681.878 1932.69,682.253 1932.04,682.721 C1931.36,683.206 1930.71,683.581 1930.22,684.065 C1929.76,684.534 1929.27,685.206 1928.8,685.956 C1928.33,686.721 1927.85,687.284 1927.57,687.862 C1927.29,688.425 1926.9,689.19 1926.52,690.143 C1926.15,691.081 1925.76,691.846 1925.57,692.425 C1925.38,692.987 1925.19,693.753 1924.82,694.706 C1924.43,695.643 1924.15,696.315 1924.05,696.784 C1921.3,703.721 1918.54,710.284 1915.79,716.643 C1911.32,726.815 1908.66,732.987 1907.9,735.268 C1907.8,735.643 1907.43,736.315 1906.94,737.346 C1906.47,738.393 1905.91,739.346 1905.43,740.3 C1904.96,741.253 1904.47,742.487 1903.91,743.721 C1903.33,744.956 1902.86,746.19 1902.58,747.237 C1902.19,748.284 1902.01,749.221 1902.01,750.081 C1902.1,750.94 1902.3,751.503 1902.77,751.987 C1903.63,752.643 1904.57,753.034 1905.61,753.034 L1906.29,753.034 C1907.61,752.846 1908.94,752.456 1910.27,751.706 C1911.6,750.94 1912.55,750.081 1913.04,749.221 C1913.6,748.19 1914.18,746.956 1914.65,745.425 C1915.11,743.909 1915.6,742.487 1915.88,741.253 C1916.16,740.018 1916.55,738.69 1917.21,737.253 C1917.88,735.831 1918.63,734.69 1919.49,733.737 L1924.61,732.128 C1924.91,732.034 1925.29,732.128 1925.96,732.128 L1928.71,732.128 C1928.99,732.128 1930.41,732.221 1932.79,732.409"/>
<path class="Harmony" d="M2300.2,679.018 C2299.73,679.112 2298.97,679.206 2297.73,679.315 C2296.5,679.409 2295.55,679.596 2294.89,679.69 C2294.22,679.784 2293.27,679.878 2292.13,680.065 C2290.98,680.253 2290.14,680.55 2289.38,680.831 C2288.61,681.112 2287.77,681.487 2287,681.971 C2286.23,682.44 2285.58,682.925 2285.09,683.581 C2284.44,684.253 2283.95,685.003 2283.58,685.768 C2283.2,686.534 2282.92,687.471 2282.81,688.425 C2282.72,689.096 2282.72,689.753 2282.72,690.425 L2282.72,690.987 C2282.81,691.659 2282.81,692.612 2282.92,693.753 C2283.02,694.893 2283.02,695.831 2283.02,696.503 C2283.02,707.331 2283.3,717.971 2283.77,728.518 C2283.86,729.081 2283.86,729.659 2283.86,730.331 C2283.77,732.315 2283.67,734.971 2283.48,738.112 C2283.2,741.815 2283.02,744.581 2283.02,746.378 L2283.02,746.956 L2283.02,748.565 C2283.02,749.034 2283.2,749.518 2283.3,750.081 C2283.39,750.659 2283.58,751.128 2283.86,751.409 C2284.16,751.706 2284.44,751.987 2284.91,752.268 C2285.3,752.456 2285.77,752.55 2286.33,752.55 L2286.63,752.55 C2289.94,752.456 2293.27,751.8 2296.59,750.565 C2299.92,749.331 2303.06,747.8 2306,745.815 C2308.95,743.815 2311.7,741.44 2314.36,738.69 C2317.02,735.925 2319.3,733.081 2321.2,730.034 C2323.09,727.003 2324.72,723.862 2325.95,720.534 C2327.19,717.206 2327.84,713.893 2328.05,710.753 C2328.14,710.081 2328.14,709.331 2328.14,708.659 C2328.14,706.862 2327.95,704.956 2327.56,703.065 C2327.09,700.393 2326.33,697.737 2325.28,695.268 C2324.23,692.8 2322.91,690.518 2321.2,688.331 C2319.48,686.143 2317.59,684.346 2315.5,682.831 C2313.41,681.3 2311.13,680.159 2308.47,679.503 C2306.77,679.018 2304.95,678.831 2303.16,678.831 C2302.2,678.831 2301.25,678.925 2300.2,679.018 M2294.31,740.393 C2294.31,737.643 2294.41,733.643 2294.5,728.518 C2294.59,724.44 2294.69,720.534 2294.69,717.018 C2294.69,716.175 2294.59,715.315 2294.59,714.456 C2294.59,710.284 2294.5,706.19 2294.31,702.393 C2294.31,701.925 2294.22,701.065 2294.03,699.643 C2293.84,698.206 2293.56,696.878 2293.45,695.643 C2293.36,695.081 2293.36,694.503 2293.36,693.94 C2293.36,693.268 2293.36,692.706 2293.45,692.034 C2293.66,690.8 2294.03,689.846 2294.69,689.378 C2295.55,688.706 2296.5,688.425 2297.55,688.425 C2297.83,688.518 2298.11,688.518 2298.41,688.518 C2299.83,688.706 2301.34,689.19 2302.95,690.05 C2304.58,690.893 2306.09,692.034 2307.52,693.175 C2308.95,694.315 2310.28,695.456 2311.33,696.596 C2312.36,697.737 2313.22,698.596 2313.7,699.456 C2315.22,701.925 2316.27,704.675 2316.83,707.706 C2317.11,709.425 2317.31,711.128 2317.31,712.846 C2317.31,714.081 2317.2,715.315 2317.11,716.55 C2316.64,719.487 2315.78,722.346 2314.55,725.096 C2313.31,727.846 2311.7,730.331 2309.8,732.503 C2307.81,734.69 2305.53,736.409 2302.86,737.831 C2300.2,739.253 2297.36,740.112 2294.31,740.393"/>
<path class="Harmony" d="M187.627,989.058 C187.158,989.151 186.392,989.245 185.158,989.355 C183.923,989.448 182.97,989.636 182.314,989.73 C181.642,989.823 180.689,989.917 179.548,990.105 C178.408,990.292 177.564,990.589 176.798,990.87 C176.033,991.151 175.189,991.526 174.423,992.011 C173.658,992.48 173.002,992.964 172.517,993.62 C171.861,994.292 171.377,995.042 171.002,995.808 C170.627,996.573 170.345,997.511 170.236,998.464 C170.142,999.136 170.142,999.792 170.142,1000.46 L170.142,1001.03 C170.236,1001.7 170.236,1002.65 170.345,1003.79 C170.439,1004.93 170.439,1005.87 170.439,1006.54 C170.439,1017.37 170.72,1028.01 171.189,1038.56 C171.283,1039.12 171.283,1039.7 171.283,1040.37 C171.189,1042.35 171.095,1045.01 170.908,1048.15 C170.627,1051.85 170.439,1054.62 170.439,1056.42 L170.439,1057 L170.439,1058.6 C170.439,1059.07 170.627,1059.56 170.72,1060.12 C170.814,1060.7 171.002,1061.17 171.283,1061.45 C171.58,1061.75 171.861,1062.03 172.33,1062.31 C172.72,1062.5 173.189,1062.59 173.752,1062.59 L174.048,1062.59 C177.361,1062.5 180.689,1061.84 184.017,1060.6 C187.345,1059.37 190.486,1057.84 193.423,1055.85 C196.377,1053.85 199.127,1051.48 201.783,1048.73 C204.439,1045.96 206.72,1043.12 208.627,1040.07 C210.517,1037.04 212.142,1033.9 213.377,1030.57 C214.611,1027.25 215.267,1023.93 215.47,1020.79 C215.564,1020.12 215.564,1019.37 215.564,1018.7 C215.564,1016.9 215.377,1015 214.986,1013.1 C214.517,1010.43 213.752,1007.78 212.705,1005.31 C211.658,1002.84 210.33,1000.56 208.627,998.37 C206.908,996.183 205.017,994.386 202.923,992.87 C200.83,991.339 198.548,990.198 195.892,989.542 C194.189,989.058 192.377,988.87 190.58,988.87 C189.627,988.87 188.673,988.964 187.627,989.058 M181.736,1050.43 C181.736,1047.68 181.83,1043.68 181.923,1038.56 C182.017,1034.48 182.111,1030.57 182.111,1027.06 C182.111,1026.21 182.017,1025.35 182.017,1024.5 C182.017,1020.32 181.923,1016.23 181.736,1012.43 C181.736,1011.96 181.642,1011.1 181.455,1009.68 C181.267,1008.25 180.986,1006.92 180.877,1005.68 C180.783,1005.12 180.783,1004.54 180.783,1003.98 C180.783,1003.31 180.783,1002.75 180.877,1002.07 C181.08,1000.84 181.455,999.886 182.111,999.417 C182.97,998.745 183.923,998.464 184.97,998.464 C185.252,998.558 185.533,998.558 185.83,998.558 C187.252,998.745 188.767,999.23 190.377,1000.09 C192.002,1000.93 193.517,1002.07 194.939,1003.21 C196.377,1004.35 197.705,1005.5 198.752,1006.64 C199.783,1007.78 200.642,1008.64 201.127,1009.5 C202.642,1011.96 203.689,1014.71 204.252,1017.75 C204.533,1019.46 204.736,1021.17 204.736,1022.89 C204.736,1024.12 204.627,1025.35 204.533,1026.59 C204.064,1029.53 203.205,1032.39 201.97,1035.14 C200.736,1037.89 199.127,1040.37 197.22,1042.54 C195.236,1044.73 192.955,1046.45 190.283,1047.87 C187.627,1049.29 184.783,1050.15 181.736,1050.43"/>
<path class="Harmony" d="M886.126,989.245 C882.892,989.73 879.657,990.683 876.532,992.198 C873.392,993.714 870.532,995.62 867.97,997.901 C865.407,1000.18 863.032,1002.75 860.845,1005.68 C858.657,1008.64 856.954,1011.67 855.532,1014.81 C854.11,1017.95 853.157,1021.26 852.579,1024.78 C852.298,1026.68 852.11,1028.59 852.11,1030.39 C852.11,1031.9 852.204,1033.43 852.392,1034.85 C852.876,1037.79 853.72,1040.75 855.048,1043.5 C856.392,1046.26 857.907,1048.82 859.798,1051.2 C861.704,1053.57 864.079,1055.56 866.642,1057.37 C869.204,1059.17 871.767,1060.51 874.532,1061.45 C877.095,1062.31 879.751,1062.78 882.704,1062.78 L882.985,1062.78 L883.267,1062.78 C886.407,1062.68 889.439,1062.12 892.392,1060.98 C893.251,1060.7 894.095,1060.4 894.954,1060.03 C895.814,1059.65 896.767,1059.17 898.001,1058.51 C899.235,1057.84 900.282,1057.28 901.314,1056.6 C902.36,1055.95 903.314,1055.18 904.267,1054.32 C905.22,1053.48 905.97,1052.53 906.454,1051.67 C906.923,1050.81 907.204,1049.96 907.204,1048.92 C907.11,1047.87 906.735,1046.82 906.064,1045.78 C905.782,1045.31 905.314,1045.01 904.829,1044.82 C904.36,1044.64 903.782,1044.54 903.314,1044.64 C902.845,1044.73 902.36,1044.92 901.798,1045.21 C901.22,1045.5 900.657,1045.78 900.173,1045.96 C899.704,1046.15 899.235,1046.45 898.657,1046.82 C898.095,1047.2 897.704,1047.5 897.423,1047.59 C894.095,1049.39 890.876,1050.34 887.548,1050.34 C884.501,1050.34 881.564,1049.57 878.61,1048.06 C875.86,1046.64 873.298,1045.01 871.017,1043.12 C868.735,1041.21 867.017,1039.12 865.782,1036.75 C864.751,1034.57 863.892,1032.29 863.407,1029.92 C862.939,1027.73 862.751,1025.64 862.751,1023.45 L862.751,1022.7 C862.751,1020.32 863.126,1017.95 863.892,1015.57 C864.642,1013.2 865.595,1011.01 866.829,1009.1 C868.064,1007.21 869.782,1005.5 871.767,1004.07 C873.767,1002.65 876.048,1001.7 878.61,1001.23 C879.189,1001.03 879.845,1000.93 880.517,1000.93 C880.985,1001.03 881.47,1001.03 881.939,1001.12 C883.173,1001.32 884.501,1001.6 885.829,1001.98 C887.157,1002.26 888.501,1002.75 889.829,1003.4 L893.814,1005.12 C895.142,1005.68 896.47,1006.07 897.704,1006.54 C898.939,1007.01 900.173,1007.21 901.407,1007.31 C901.798,1007.4 902.173,1007.4 902.454,1007.4 C903.22,1007.31 903.985,1007.21 904.642,1007.12 C905.595,1006.92 906.454,1006.35 907.298,1005.5 C908.157,1004.64 908.923,1003.6 909.392,1002.17 C909.579,1001.51 909.673,1000.93 909.673,1000.37 C909.782,999.886 909.673,999.417 909.485,998.948 C909.298,998.464 909.017,998.089 908.735,997.714 C908.439,997.23 908.064,996.948 907.595,996.573 C907.11,996.183 906.735,995.808 906.36,995.526 C905.97,995.245 905.407,994.855 904.923,994.573 C899.032,990.87 893.626,989.058 888.595,989.058 C887.735,989.058 886.97,989.151 886.126,989.245"/>
<path class="Harmony" d="M1210.37,989.448 C1206.66,989.917 1203.15,990.776 1199.73,992.011 C1196.3,993.245 1193.16,994.948 1190.13,996.948 C1187.09,998.948 1184.34,1001.23 1181.96,1003.79 C1179.59,1006.35 1177.59,1009.29 1175.88,1012.62 C1174.16,1015.95 1173.02,1019.46 1172.37,1023.17 C1171.88,1025.45 1171.69,1027.82 1171.69,1030.2 L1171.69,1030.87 C1171.69,1033.14 1171.79,1035.32 1172.07,1037.51 C1172.37,1039.89 1172.93,1042.26 1173.69,1044.45 C1174.55,1046.73 1175.49,1048.92 1176.54,1050.9 C1177.59,1052.9 1178.91,1054.71 1180.44,1056.32 C1181.96,1057.93 1183.85,1059.26 1185.76,1060.4 C1187.66,1061.54 1189.84,1062.4 1192.21,1062.89 C1193.84,1063.17 1195.44,1063.35 1197.07,1063.35 C1197.91,1063.35 1198.87,1063.35 1199.91,1063.26 C1202.85,1062.98 1205.62,1062.31 1208.18,1061.35 C1210.74,1060.4 1213.12,1059.26 1215.12,1057.93 C1217.1,1056.6 1219.1,1054.9 1220.91,1053 C1222.71,1051.1 1224.43,1049.01 1225.85,1046.92 C1227.27,1044.82 1228.6,1042.45 1230.02,1039.79 C1232.21,1035.42 1233.26,1031.71 1233.26,1028.78 C1233.26,1025.82 1232.21,1023.54 1230.02,1021.93 C1228.79,1020.89 1226.71,1020.23 1223.94,1019.75 C1221.96,1019.46 1219.96,1019.28 1217.96,1019.28 L1217.49,1019.28 L1215.4,1019.28 C1212.46,1019.37 1209.69,1019.84 1207.04,1020.7 C1204.38,1021.56 1202.57,1022.6 1201.62,1023.84 C1201.34,1024.31 1201.05,1024.68 1200.77,1025.07 C1200.1,1026.12 1199.73,1027.06 1199.73,1027.92 C1199.73,1029.15 1200.59,1030.01 1202.19,1030.48 C1203.52,1030.87 1206.09,1031.06 1209.79,1031.06 L1210.65,1031.06 C1211.88,1031.15 1212.84,1031.15 1213.49,1031.15 C1217.4,1031.15 1219.77,1031.62 1220.52,1032.67 C1220.82,1033.04 1221.1,1033.62 1221.1,1034.18 C1221.1,1034.76 1221.01,1035.32 1220.91,1035.9 C1220.82,1036.46 1220.52,1037.14 1220.24,1037.89 C1219.96,1038.65 1219.68,1039.23 1219.38,1039.7 C1219.1,1040.17 1218.82,1040.84 1218.44,1041.6 C1218.05,1042.35 1217.77,1042.75 1217.68,1042.93 C1217.21,1043.78 1216.91,1044.45 1216.63,1044.92 C1216.35,1045.4 1215.96,1045.87 1215.49,1046.54 C1215.02,1047.2 1214.44,1047.78 1213.98,1048.15 C1211.98,1049.67 1209.79,1050.71 1207.23,1051.2 L1203.99,1051.57 L1203.62,1051.57 C1202.38,1051.48 1201.05,1051.39 1199.82,1051.1 C1197.44,1050.62 1195.07,1049.76 1192.88,1048.43 C1190.69,1047.1 1188.8,1045.5 1187.37,1043.59 C1185.94,1041.6 1184.62,1039.23 1183.66,1036.56 C1182.71,1033.9 1182.15,1031.15 1181.96,1028.2 C1181.87,1027.15 1181.87,1026.21 1181.87,1025.17 C1181.87,1023.26 1181.96,1021.37 1182.24,1019.56 C1182.71,1016.81 1183.57,1014.14 1184.9,1011.67 C1186.23,1009.2 1187.94,1007.21 1190.04,1005.68 C1192.6,1003.7 1195.73,1002.26 1199.34,1001.32 C1201.34,1000.75 1203.34,1000.46 1205.23,1000.46 C1206.57,1000.46 1207.9,1000.65 1209.13,1000.93 C1210.18,1001.23 1211.21,1001.6 1212.46,1002.17 C1213.69,1002.75 1214.73,1003.31 1215.68,1003.89 C1216.63,1004.45 1217.68,1005.03 1218.73,1005.59 C1219.77,1006.17 1220.82,1006.64 1221.76,1006.82 C1222.71,1007.01 1223.66,1007.12 1224.62,1007.01 C1225.57,1006.92 1226.51,1006.45 1227.46,1005.59 C1228.41,1004.75 1229.27,1003.6 1230.12,1002.17 C1230.6,1001.32 1230.88,1000.46 1230.88,999.605 C1230.88,998.948 1230.69,998.37 1230.41,997.714 C1229.65,996.276 1228.41,995.042 1226.71,993.995 C1224.99,992.964 1223.19,992.011 1221.1,991.245 C1219.01,990.48 1217.01,990.011 1215.02,989.73 C1213.59,989.448 1212.46,989.355 1211.51,989.355 C1211.02,989.355 1210.65,989.355 1210.37,989.448"/>
<path class="Harmony" d="M1566.81,989.058 C1566.34,989.151 1565.58,989.245 1564.34,989.355 C1563.11,989.448 1562.15,989.636 1561.5,989.73 C1560.83,989.823 1559.87,989.917 1558.73,990.105 C1557.59,990.292 1556.75,990.589 1555.98,990.87 C1555.22,991.151 1554.37,991.526 1553.61,992.011 C1552.84,992.48 1552.19,992.964 1551.7,993.62 C1551.04,994.292 1550.56,995.042 1550.19,995.808 C1549.81,996.573 1549.53,997.511 1549.42,998.464 C1549.33,999.136 1549.33,999.792 1549.33,1000.46 L1549.33,1001.03 C1549.42,1001.7 1549.42,1002.65 1549.53,1003.79 C1549.62,1004.93 1549.62,1005.87 1549.62,1006.54 C1549.62,1017.37 1549.9,1028.01 1550.37,1038.56 C1550.47,1039.12 1550.47,1039.7 1550.47,1040.37 C1550.37,1042.35 1550.28,1045.01 1550.09,1048.15 C1549.81,1051.85 1549.62,1054.62 1549.62,1056.42 L1549.62,1057 L1549.62,1058.6 C1549.62,1059.07 1549.81,1059.56 1549.9,1060.12 C1550,1060.7 1550.19,1061.17 1550.47,1061.45 C1550.76,1061.75 1551.04,1062.03 1551.51,1062.31 C1551.9,1062.5 1552.37,1062.59 1552.94,1062.59 L1553.23,1062.59 C1556.54,1062.5 1559.87,1061.84 1563.2,1060.6 C1566.53,1059.37 1569.67,1057.84 1572.61,1055.85 C1575.56,1053.85 1578.31,1051.48 1580.97,1048.73 C1583.62,1045.96 1585.9,1043.12 1587.81,1040.07 C1589.7,1037.04 1591.33,1033.9 1592.56,1030.57 C1593.79,1027.25 1594.45,1023.93 1594.65,1020.79 C1594.75,1020.12 1594.75,1019.37 1594.75,1018.7 C1594.75,1016.9 1594.56,1015 1594.17,1013.1 C1593.7,1010.43 1592.94,1007.78 1591.89,1005.31 C1590.84,1002.84 1589.51,1000.56 1587.81,998.37 C1586.09,996.183 1584.2,994.386 1582.11,992.87 C1580.01,991.339 1577.73,990.198 1575.08,989.542 C1573.37,989.058 1571.56,988.87 1569.76,988.87 C1568.81,988.87 1567.86,988.964 1566.81,989.058 M1560.92,1050.43 C1560.92,1047.68 1561.01,1043.68 1561.11,1038.56 C1561.2,1034.48 1561.29,1030.57 1561.29,1027.06 C1561.29,1026.21 1561.2,1025.35 1561.2,1024.5 C1561.2,1020.32 1561.11,1016.23 1560.92,1012.43 C1560.92,1011.96 1560.83,1011.1 1560.64,1009.68 C1560.45,1008.25 1560.17,1006.92 1560.06,1005.68 C1559.97,1005.12 1559.97,1004.54 1559.97,1003.98 C1559.97,1003.31 1559.97,1002.75 1560.06,1002.07 C1560.26,1000.84 1560.64,999.886 1561.29,999.417 C1562.15,998.745 1563.11,998.464 1564.15,998.464 C1564.44,998.558 1564.72,998.558 1565.01,998.558 C1566.44,998.745 1567.95,999.23 1569.56,1000.09 C1571.19,1000.93 1572.7,1002.07 1574.12,1003.21 C1575.56,1004.35 1576.89,1005.5 1577.94,1006.64 C1578.97,1007.78 1579.83,1008.64 1580.31,1009.5 C1581.83,1011.96 1582.87,1014.71 1583.44,1017.75 C1583.72,1019.46 1583.92,1021.17 1583.92,1022.89 C1583.92,1024.12 1583.81,1025.35 1583.72,1026.59 C1583.25,1029.53 1582.39,1032.39 1581.15,1035.14 C1579.92,1037.89 1578.31,1040.37 1576.4,1042.54 C1574.42,1044.73 1572.14,1046.45 1569.47,1047.87 C1566.81,1049.29 1563.97,1050.15 1560.92,1050.43"/>
<path class="Harmony" d="M2279.38,1009.01 C2280.62,1010.62 2281.46,1012.81 2282.13,1015.57 C2282.81,1018.32 2283.28,1020.98 2283.74,1023.75 C2284.23,1026.5 2284.51,1029.06 2284.6,1031.34 L2277.38,1030.57 L2269.59,1031.34 L2273.59,1019.46 L2279.38,1009.01 M2277.67,1042.45 L2279.57,1042.45 L2282.42,1042.45 L2283.18,1042.45 L2284.04,1042.45 C2284.13,1042.45 2284.42,1042.54 2284.79,1042.54 C2285.18,1042.54 2285.46,1042.54 2285.65,1042.64 C2285.84,1042.75 2286.03,1042.84 2286.32,1042.93 C2286.6,1043.03 2286.79,1043.12 2286.98,1043.31 C2287.17,1043.5 2287.46,1043.59 2287.65,1043.78 C2288.12,1044.26 2288.59,1045.21 2288.98,1046.45 C2289.35,1047.59 2289.73,1048.82 2290.03,1050.25 C2290.31,1051.67 2290.59,1053.09 2290.87,1054.71 C2291.17,1056.32 2291.54,1057.75 2291.92,1059.07 C2292.31,1060.4 2292.87,1061.64 2293.45,1062.68 C2294.01,1063.73 2294.68,1064.4 2295.53,1064.78 C2295.92,1064.96 2296.38,1065.06 2296.96,1065.06 C2297.43,1065.06 2297.99,1064.96 2298.57,1064.78 C2299.43,1064.5 2300.09,1064.12 2300.76,1063.73 C2301.42,1063.35 2301.9,1062.98 2302.28,1062.5 C2302.65,1062.03 2302.95,1061.54 2303.23,1060.98 C2303.51,1060.4 2303.7,1060.03 2303.79,1059.56 C2303.88,1059.17 2303.88,1058.79 2303.88,1058.32 L2303.88,1057.84 C2303.88,1057.18 2303.88,1056.51 2303.79,1056.04 C2303.7,1055.56 2303.51,1055 2303.32,1054.23 C2303.13,1053.48 2302.95,1052.9 2302.74,1052.43 C2302.56,1051.95 2302.46,1051.29 2302.18,1050.43 C2301.9,1049.57 2301.6,1049.01 2301.51,1048.64 C2300.85,1046.73 2299.71,1042.93 2298.09,1037.32 C2296.96,1033.25 2296.01,1029.82 2295.34,1027.15 C2294.1,1022.31 2293.06,1018.32 2292.31,1015.18 C2291.07,1009.96 2290.12,1006.45 2289.63,1004.64 C2289.54,1004.26 2289.45,1003.7 2289.26,1002.93 C2289.07,1002.17 2288.98,1001.51 2288.88,1000.93 C2288.79,1000.37 2288.49,999.792 2288.31,999.042 C2288.12,998.276 2287.93,997.511 2287.74,996.948 C2287.56,996.37 2287.17,995.714 2286.88,995.042 C2286.6,994.386 2286.21,993.901 2285.84,993.433 C2285.46,992.964 2285.18,992.573 2284.7,992.198 C2284.23,991.823 2283.74,991.433 2283.18,991.339 C2282.71,991.245 2282.23,991.151 2281.67,991.151 L2281.28,991.151 C2280.62,991.245 2279.85,991.339 2278.99,991.62 C2278.34,991.917 2277.57,992.292 2276.92,992.761 C2276.24,993.245 2275.59,993.62 2275.1,994.105 C2274.63,994.573 2274.15,995.245 2273.68,995.995 C2273.21,996.761 2272.73,997.323 2272.45,997.901 C2272.17,998.464 2271.78,999.23 2271.4,1000.18 C2271.03,1001.12 2270.63,1001.89 2270.45,1002.46 C2270.26,1003.03 2270.07,1003.79 2269.7,1004.75 C2269.31,1005.68 2269.03,1006.35 2268.93,1006.82 C2266.18,1013.76 2263.42,1020.32 2260.67,1026.68 C2256.2,1036.85 2253.54,1043.03 2252.78,1045.31 C2252.68,1045.68 2252.31,1046.35 2251.82,1047.39 C2251.35,1048.43 2250.79,1049.39 2250.31,1050.34 C2249.84,1051.29 2249.35,1052.53 2248.79,1053.76 C2248.21,1055 2247.74,1056.23 2247.46,1057.28 C2247.07,1058.32 2246.88,1059.26 2246.88,1060.12 C2246.98,1060.98 2247.18,1061.54 2247.65,1062.03 C2248.51,1062.68 2249.45,1063.07 2250.49,1063.07 L2251.17,1063.07 C2252.49,1062.89 2253.82,1062.5 2255.15,1061.75 C2256.48,1060.98 2257.43,1060.12 2257.92,1059.26 C2258.48,1058.23 2259.06,1057 2259.53,1055.46 C2259.99,1053.95 2260.48,1052.53 2260.76,1051.29 C2261.04,1050.06 2261.43,1048.73 2262.09,1047.29 C2262.76,1045.87 2263.51,1044.73 2264.37,1043.78 L2269.49,1042.17 C2269.79,1042.07 2270.17,1042.17 2270.84,1042.17 L2273.59,1042.17 C2273.87,1042.17 2275.29,1042.26 2277.67,1042.45"/>
<path class="Harmony" d="M2584.77,989.058 C2584.3,989.151 2583.53,989.245 2582.3,989.355 C2581.06,989.448 2580.11,989.636 2579.45,989.73 C2578.78,989.823 2577.83,989.917 2576.69,990.105 C2575.55,990.292 2574.7,990.589 2573.94,990.87 C2573.17,991.151 2572.33,991.526 2571.56,992.011 C2570.8,992.48 2570.14,992.964 2569.66,993.62 C2569,994.292 2568.52,995.042 2568.14,995.808 C2567.77,996.573 2567.48,997.511 2567.37,998.464 C2567.28,999.136 2567.28,999.792 2567.28,1000.46 L2567.28,1001.03 C2567.37,1001.7 2567.37,1002.65 2567.48,1003.79 C2567.58,1004.93 2567.58,1005.87 2567.58,1006.54 C2567.58,1017.37 2567.86,1028.01 2568.33,1038.56 C2568.42,1039.12 2568.42,1039.7 2568.42,1040.37 C2568.33,1042.35 2568.23,1045.01 2568.05,1048.15 C2567.77,1051.85 2567.58,1054.62 2567.58,1056.42 L2567.58,1057 L2567.58,1058.6 C2567.58,1059.07 2567.77,1059.56 2567.86,1060.12 C2567.95,1060.7 2568.14,1061.17 2568.42,1061.45 C2568.72,1061.75 2569,1062.03 2569.47,1062.31 C2569.86,1062.5 2570.33,1062.59 2570.89,1062.59 L2571.19,1062.59 C2574.5,1062.5 2577.83,1061.84 2581.16,1060.6 C2584.48,1059.37 2587.62,1057.84 2590.56,1055.85 C2593.52,1053.85 2596.27,1051.48 2598.92,1048.73 C2601.58,1045.96 2603.86,1043.12 2605.77,1040.07 C2607.66,1037.04 2609.28,1033.9 2610.52,1030.57 C2611.75,1027.25 2612.41,1023.93 2612.61,1020.79 C2612.7,1020.12 2612.7,1019.37 2612.7,1018.7 C2612.7,1016.9 2612.52,1015 2612.12,1013.1 C2611.66,1010.43 2610.89,1007.78 2609.84,1005.31 C2608.8,1002.84 2607.47,1000.56 2605.77,998.37 C2604.05,996.183 2602.16,994.386 2600.06,992.87 C2597.97,991.339 2595.69,990.198 2593.03,989.542 C2591.33,989.058 2589.52,988.87 2587.72,988.87 C2586.77,988.87 2585.81,988.964 2584.77,989.058 M2578.87,1050.43 C2578.87,1047.68 2578.97,1043.68 2579.06,1038.56 C2579.16,1034.48 2579.25,1030.57 2579.25,1027.06 C2579.25,1026.21 2579.16,1025.35 2579.16,1024.5 C2579.16,1020.32 2579.06,1016.23 2578.87,1012.43 C2578.87,1011.96 2578.78,1011.1 2578.59,1009.68 C2578.41,1008.25 2578.12,1006.92 2578.02,1005.68 C2577.92,1005.12 2577.92,1004.54 2577.92,1003.98 C2577.92,1003.31 2577.92,1002.75 2578.02,1002.07 C2578.22,1000.84 2578.59,999.886 2579.25,999.417 C2580.11,998.745 2581.06,998.464 2582.11,998.464 C2582.39,998.558 2582.67,998.558 2582.97,998.558 C2584.39,998.745 2585.91,999.23 2587.52,1000.09 C2589.14,1000.93 2590.66,1002.07 2592.08,1003.21 C2593.52,1004.35 2594.84,1005.5 2595.89,1006.64 C2596.92,1007.78 2597.78,1008.64 2598.27,1009.5 C2599.78,1011.96 2600.83,1014.71 2601.39,1017.75 C2601.67,1019.46 2601.87,1021.17 2601.87,1022.89 C2601.87,1024.12 2601.77,1025.35 2601.67,1026.59 C2601.2,1029.53 2600.34,1032.39 2599.11,1035.14 C2597.87,1037.89 2596.27,1040.37 2594.36,1042.54 C2592.37,1044.73 2590.09,1046.45 2587.42,1047.87 C2584.77,1049.29 2581.92,1050.15 2578.87,1050.43"/>
</svg>
