<?xml version="1.0" encoding="UTF-8" standalone="no"?>
<svg width="2976.38px" height="1417.32px" viewBox="0 0 2976.38 1417.32"
 xmlns="http://www.w3.org/2000/svg" xmlns:xlink="http://www.w3.org/1999/xlink" version="1.2" baseProfile="tiny">
<title>Salt_Creek_A_mod</title>
<desc>Generated by MuseScore 3.6.2</desc>
<polyline class="StaffLines" fill="none" stroke="#000000" stroke-width="2.73" stroke-linejoin="bevel" points="138.189,187.795 2933.86,187.795"/>
<polyline class="StaffLines" fill="none" stroke="#000000" stroke-width="2.73" stroke-linejoin="bevel" points="138.189,212.598 2933.86,212.598"/>
<polyline class="StaffLines" fill="none" stroke="#000000" stroke-width="2.73" stroke-linejoin="bevel" points="138.189,237.402 2933.86,237.402"/>
<polyline class="StaffLines" fill="none" stroke="#000000" stroke-width="2.73" stroke-linejoin="bevel" points="138.189,262.205 2933.86,262.205"/>
<polyline class="StaffLines" fill="none" stroke="#000000" stroke-width="2.73" stroke-linejoin="bevel" points="138.189,287.008 2933.86,287.008"/>
<polyline class="StaffLines" fill="none" stroke="#000000" stroke-width="2.73" stroke-linejoin="bevel" points="14.1732,497.835 2933.86,497.835"/>
<polyline class="StaffLines" fill="none" stroke="#000000" stroke-width="2.73" stroke-linejoin="bevel" points="14.1732,522.638 2933.86,522.638"/>
<polyline class="StaffLines" fill="none" stroke="#000000" stroke-width="2.73" stroke-linejoin="bevel" points="14.1732,547.441 2933.86,547.441"/>
<polyline class="StaffLines" fill="none" stroke="#000000" stroke-width="2.73" stroke-linejoin="bevel" points="14.1732,572.244 2933.86,572.244"/>
<polyline class="StaffLines" fill="none" stroke="#000000" stroke-width="2.73" stroke-linejoin="bevel" points="14.1732,597.047 2933.86,597.047"/>
<polyline class="StaffLines" fill="none" stroke="#000000" stroke-width="2.73" stroke-linejoin="bevel" points="14.1732,807.874 2933.86,807.874"/>
<polyline class="StaffLines" fill="none" stroke="#000000" stroke-width="2.73" stroke-linejoin="bevel" points="14.1732,832.677 2933.86,832.677"/>
<polyline class="StaffLines" fill="none" stroke="#000000" stroke-width="2.73" stroke-linejoin="bevel" points="14.1732,857.48 2933.86,857.48"/>
<polyline class="StaffLines" fill="none" stroke="#000000" stroke-width="2.73" stroke-linejoin="bevel" points="14.1732,882.283 2933.86,882.283"/>
<polyline class="StaffLines" fill="none" stroke="#000000" stroke-width="2.73" stroke-linejoin="bevel" points="14.1732,907.087 2933.86,907.087"/>
<polyline class="StaffLines" fill="none" stroke="#000000" stroke-width="2.73" stroke-linejoin="bevel" points="14.1732,1117.91 2933.86,1117.91"/>
<polyline class="StaffLines" fill="none" stroke="#000000" stroke-width="2.73" stroke-linejoin="bevel" points="14.1732,1142.72 2933.86,1142.72"/>
<polyline class="StaffLines" fill="none" stroke="#000000" stroke-width="2.73" stroke-linejoin="bevel" points="14.1732,1167.52 2933.86,1167.52"/>
<polyline class="StaffLines" fill="none" stroke="#000000" stroke-width="2.73" stroke-linejoin="bevel" points="14.1732,1192.32 2933.86,1192.32"/>
<polyline class="StaffLines" fill="none" stroke="#000000" stroke-width="2.73" stroke-linejoin="bevel" points="14.1732,1217.13 2933.86,1217.13"/>
<polyline class="BarLine" fill="none" stroke="#000000" stroke-width="4.46" stroke-linejoin="bevel" points="953.226,186.431 953.226,288.372"/>
<polyline class="BarLine" fill="none" stroke="#000000" stroke-width="4.46" stroke-linejoin="bevel" points="1612.69,186.431 1612.69,288.372"/>
<polyline class="BarLine" fill="none" stroke="#000000" stroke-width="4.46" stroke-linejoin="bevel" points="2272.16,186.431 2272.16,288.372"/>
<polyline class="BarLine" fill="none" stroke="#000000" stroke-width="4.46" stroke-linejoin="bevel" points="2931.63,186.431 2931.63,288.372"/>
<polyline class="BarLine" fill="none" stroke="#000000" stroke-width="4.46" stroke-linejoin="bevel" points="808.481,496.47 808.481,598.411"/>
<polyline class="BarLine" fill="none" stroke="#000000" stroke-width="4.46" stroke-linejoin="bevel" points="1502.1,496.47 1502.1,598.411"/>
<polyline class="BarLine" fill="none" stroke="#000000" stroke-width="4.46" stroke-linejoin="bevel" points="2195.73,496.47 2195.73,598.411"/>
<path class="BarLine" transform="matrix(0.992126,0,0,0.992126,2887.12,535.039)" d="M10.4063,0 C10.4063,-2.90625 8.09375,-5.29688 5.20313,-5.29688 C2.29688,-5.29688 0,-2.90625 0,0 C0,2.90625 2.29688,5.29688 5.20313,5.29688 C8.09375,5.29688 10.4063,2.90625 10.4063,0"/>
<path class="BarLine" transform="matrix(0.992126,0,0,0.992126,2887.12,559.843)" d="M10.4063,0 C10.4063,-2.90625 8.09375,-5.29688 5.20313,-5.29688 C2.29688,-5.29688 0,-2.90625 0,0 C0,2.90625 2.29688,5.29688 5.20313,5.29688 C8.09375,5.29688 10.4063,2.90625 10.4063,0"/>
<polyline class="BarLine" fill="none" stroke="#000000" stroke-width="4.46" stroke-linejoin="bevel" points="2909.64,496.47 2909.64,598.411"/>
<polyline class="BarLine" fill="none" stroke="#000000" stroke-width="13.64" stroke-linejoin="bevel" points="2927,496.47 2927,598.411"/>
<polyline class="BarLine" fill="none" stroke="#000000" stroke-width="4.46" stroke-linejoin="bevel" points="819.051,806.51 819.051,908.451"/>
<polyline class="BarLine" fill="none" stroke="#000000" stroke-width="4.46" stroke-linejoin="bevel" points="1523.24,806.51 1523.24,908.451"/>
<polyline class="BarLine" fill="none" stroke="#000000" stroke-width="4.46" stroke-linejoin="bevel" points="2227.44,806.51 2227.44,908.451"/>
<polyline class="BarLine" fill="none" stroke="#000000" stroke-width="4.46" stroke-linejoin="bevel" points="2931.63,806.51 2931.63,908.451"/>
<polyline class="BarLine" fill="none" stroke="#000000" stroke-width="4.46" stroke-linejoin="bevel" points="812.511,1116.55 812.511,1218.49"/>
<polyline class="BarLine" fill="none" stroke="#000000" stroke-width="4.46" stroke-linejoin="bevel" points="1494.04,1116.55 1494.04,1218.49"/>
<polyline class="BarLine" fill="none" stroke="#000000" stroke-width="4.46" stroke-linejoin="bevel" points="2191.69,1116.55 2191.69,1218.49"/>
<path class="BarLine" transform="matrix(0.992126,0,0,0.992126,2887.12,1155.12)" d="M10.4063,0 C10.4063,-2.90625 8.09375,-5.29688 5.20313,-5.29688 C2.29688,-5.29688 0,-2.90625 0,0 C0,2.90625 2.29688,5.29688 5.20313,5.29688 C8.09375,5.29688 10.4063,2.90625 10.4063,0"/>
<path class="BarLine" transform="matrix(0.992126,0,0,0.992126,2887.12,1179.92)" d="M10.4063,0 C10.4063,-2.90625 8.09375,-5.29688 5.20313,-5.29688 C2.29688,-5.29688 0,-2.90625 0,0 C0,2.90625 2.29688,5.29688 5.20313,5.29688 C8.09375,5.29688 10.4063,2.90625 10.4063,0"/>
<polyline class="BarLine" fill="none" stroke="#000000" stroke-width="4.46" stroke-linejoin="bevel" points="2909.64,1116.55 2909.64,1218.49"/>
<polyline class="BarLine" fill="none" stroke="#000000" stroke-width="13.64" stroke-linejoin="bevel" points="2927,1116.55 2927,1218.49"/>
<path class="Note" transform="matrix(0.992126,0,0,0.992126,338.405,237.402)" d="M43,-25 L0,25 L10,25 L53,-25 L43,-25 "/>
<path class="Note" transform="matrix(0.992126,0,0,0.992126,489.01,237.402)" d="M43,-25 L0,25 L10,25 L53,-25 L43,-25 "/>
<path class="Note" transform="matrix(0.992126,0,0,0.992126,639.615,237.402)" d="M43,-25 L0,25 L10,25 L53,-25 L43,-25 "/>
<path class="Note" transform="matrix(0.992126,0,0,0.992126,790.22,237.402)" d="M43,-25 L0,25 L10,25 L53,-25 L43,-25 "/>
<path class="Note" transform="matrix(0.992126,0,0,0.992126,997.872,237.402)" d="M43,-25 L0,25 L10,25 L53,-25 L43,-25 "/>
<path class="Note" transform="matrix(0.992126,0,0,0.992126,1148.48,237.402)" d="M43,-25 L0,25 L10,25 L53,-25 L43,-25 "/>
<path class="Note" transform="matrix(0.992126,0,0,0.992126,1299.08,237.402)" d="M43,-25 L0,25 L10,25 L53,-25 L43,-25 "/>
<path class="Note" transform="matrix(0.992126,0,0,0.992126,1449.69,237.402)" d="M43,-25 L0,25 L10,25 L53,-25 L43,-25 "/>
<path class="Note" transform="matrix(0.992126,0,0,0.992126,1657.34,237.402)" d="M43,-25 L0,25 L10,25 L53,-25 L43,-25 "/>
<path class="Note" transform="matrix(0.992126,0,0,0.992126,1807.94,237.402)" d="M43,-25 L0,25 L10,25 L53,-25 L43,-25 "/>
<path class="Note" transform="matrix(0.992126,0,0,0.992126,1958.55,237.402)" d="M43,-25 L0,25 L10,25 L53,-25 L43,-25 "/>
<path class="Note" transform="matrix(0.992126,0,0,0.992126,2109.15,237.402)" d="M43,-25 L0,25 L10,25 L53,-25 L43,-25 "/>
<path class="Note" transform="matrix(0.992126,0,0,0.992126,2316.81,237.402)" d="M43,-25 L0,25 L10,25 L53,-25 L43,-25 "/>
<path class="Note" transform="matrix(0.992126,0,0,0.992126,2467.41,237.402)" d="M43,-25 L0,25 L10,25 L53,-25 L43,-25 "/>
<path class="Note" transform="matrix(0.992126,0,0,0.992126,2618.02,237.402)" d="M43,-25 L0,25 L10,25 L53,-25 L43,-25 "/>
<path class="Note" transform="matrix(0.992126,0,0,0.992126,2768.62,237.402)" d="M43,-25 L0,25 L10,25 L53,-25 L43,-25 "/>
<path class="Note" transform="matrix(0.992126,0,0,0.992126,159.504,547.441)" d="M43,-25 L0,25 L10,25 L53,-25 L43,-25 "/>
<path class="Note" transform="matrix(0.992126,0,0,0.992126,318.648,547.441)" d="M43,-25 L0,25 L10,25 L53,-25 L43,-25 "/>
<path class="Note" transform="matrix(0.992126,0,0,0.992126,477.792,547.441)" d="M43,-25 L0,25 L10,25 L53,-25 L43,-25 "/>
<path class="Note" transform="matrix(0.992126,0,0,0.992126,636.935,547.441)" d="M43,-25 L0,25 L10,25 L53,-25 L43,-25 "/>
<path class="Note" transform="matrix(0.992126,0,0,0.992126,853.126,547.441)" d="M43,-25 L0,25 L10,25 L53,-25 L43,-25 "/>
<path class="Note" transform="matrix(0.992126,0,0,0.992126,1012.27,547.441)" d="M43,-25 L0,25 L10,25 L53,-25 L43,-25 "/>
<path class="Note" transform="matrix(0.992126,0,0,0.992126,1171.41,547.441)" d="M43,-25 L0,25 L10,25 L53,-25 L43,-25 "/>
<path class="Note" transform="matrix(0.992126,0,0,0.992126,1330.56,547.441)" d="M43,-25 L0,25 L10,25 L53,-25 L43,-25 "/>
<path class="Note" transform="matrix(0.992126,0,0,0.992126,1546.75,547.441)" d="M43,-25 L0,25 L10,25 L53,-25 L43,-25 "/>
<path class="Note" transform="matrix(0.992126,0,0,0.992126,1705.89,547.441)" d="M43,-25 L0,25 L10,25 L53,-25 L43,-25 "/>
<path class="Note" transform="matrix(0.992126,0,0,0.992126,1865.04,547.441)" d="M43,-25 L0,25 L10,25 L53,-25 L43,-25 "/>
<path class="Note" transform="matrix(0.992126,0,0,0.992126,2024.18,547.441)" d="M43,-25 L0,25 L10,25 L53,-25 L43,-25 "/>
<path class="Note" transform="matrix(0.992126,0,0,0.992126,2240.37,547.441)" d="M43,-25 L0,25 L10,25 L53,-25 L43,-25 "/>
<path class="Note" transform="matrix(0.992126,0,0,0.992126,2399.51,547.441)" d="M43,-25 L0,25 L10,25 L53,-25 L43,-25 "/>
<path class="Note" transform="matrix(0.992126,0,0,0.992126,2558.66,547.441)" d="M43,-25 L0,25 L10,25 L53,-25 L43,-25 "/>
<path class="Note" transform="matrix(0.992126,0,0,0.992126,2717.8,547.441)" d="M43,-25 L0,25 L10,25 L53,-25 L43,-25 "/>
<path class="Note" transform="matrix(0.992126,0,0,0.992126,159.504,857.48)" d="M43,-25 L0,25 L10,25 L53,-25 L43,-25 "/>
<path class="Note" transform="matrix(0.992126,0,0,0.992126,321.29,857.48)" d="M43,-25 L0,25 L10,25 L53,-25 L43,-25 "/>
<path class="Note" transform="matrix(0.992126,0,0,0.992126,483.077,857.48)" d="M43,-25 L0,25 L10,25 L53,-25 L43,-25 "/>
<path class="Note" transform="matrix(0.992126,0,0,0.992126,644.863,857.48)" d="M43,-25 L0,25 L10,25 L53,-25 L43,-25 "/>
<path class="Note" transform="matrix(0.992126,0,0,0.992126,863.696,857.48)" d="M43,-25 L0,25 L10,25 L53,-25 L43,-25 "/>
<path class="Note" transform="matrix(0.992126,0,0,0.992126,1025.48,857.48)" d="M43,-25 L0,25 L10,25 L53,-25 L43,-25 "/>
<path class="Note" transform="matrix(0.992126,0,0,0.992126,1187.27,857.48)" d="M43,-25 L0,25 L10,25 L53,-25 L43,-25 "/>
<path class="Note" transform="matrix(0.992126,0,0,0.992126,1349.06,857.48)" d="M43,-25 L0,25 L10,25 L53,-25 L43,-25 "/>
<path class="Note" transform="matrix(0.992126,0,0,0.992126,1567.89,857.48)" d="M43,-25 L0,25 L10,25 L53,-25 L43,-25 "/>
<path class="Note" transform="matrix(0.992126,0,0,0.992126,1729.67,857.48)" d="M43,-25 L0,25 L10,25 L53,-25 L43,-25 "/>
<path class="Note" transform="matrix(0.992126,0,0,0.992126,1891.46,857.48)" d="M43,-25 L0,25 L10,25 L53,-25 L43,-25 "/>
<path class="Note" transform="matrix(0.992126,0,0,0.992126,2053.25,857.48)" d="M43,-25 L0,25 L10,25 L53,-25 L43,-25 "/>
<path class="Note" transform="matrix(0.992126,0,0,0.992126,2272.08,857.48)" d="M43,-25 L0,25 L10,25 L53,-25 L43,-25 "/>
<path class="Note" transform="matrix(0.992126,0,0,0.992126,2433.87,857.48)" d="M43,-25 L0,25 L10,25 L53,-25 L43,-25 "/>
<path class="Note" transform="matrix(0.992126,0,0,0.992126,2595.65,857.48)" d="M43,-25 L0,25 L10,25 L53,-25 L43,-25 "/>
<path class="Note" transform="matrix(0.992126,0,0,0.992126,2757.44,857.48)" d="M43,-25 L0,25 L10,25 L53,-25 L43,-25 "/>
<path class="Note" transform="matrix(0.992126,0,0,0.992126,159.504,1167.52)" d="M43,-25 L0,25 L10,25 L53,-25 L43,-25 "/>
<path class="Note" transform="matrix(0.992126,0,0,0.992126,319.656,1167.52)" d="M43,-25 L0,25 L10,25 L53,-25 L43,-25 "/>
<path class="Note" transform="matrix(0.992126,0,0,0.992126,479.807,1167.52)" d="M43,-25 L0,25 L10,25 L53,-25 L43,-25 "/>
<path class="Note" transform="matrix(0.992126,0,0,0.992126,639.958,1167.52)" d="M43,-25 L0,25 L10,25 L53,-25 L43,-25 "/>
<path class="Note" transform="matrix(0.992126,0,0,0.992126,841.035,1167.52)" d="M43,-25 L0,25 L10,25 L53,-25 L43,-25 "/>
<path class="Note" transform="matrix(0.992126,0,0,0.992126,1001.19,1167.52)" d="M43,-25 L0,25 L10,25 L53,-25 L43,-25 "/>
<path class="Note" transform="matrix(0.992126,0,0,0.992126,1161.34,1167.52)" d="M43,-25 L0,25 L10,25 L53,-25 L43,-25 "/>
<path class="Note" transform="matrix(0.992126,0,0,0.992126,1321.49,1167.52)" d="M43,-25 L0,25 L10,25 L53,-25 L43,-25 "/>
<path class="Note" transform="matrix(0.992126,0,0,0.992126,1538.69,1167.52)" d="M43,-25 L0,25 L10,25 L53,-25 L43,-25 "/>
<path class="Note" transform="matrix(0.992126,0,0,0.992126,1698.84,1167.52)" d="M43,-25 L0,25 L10,25 L53,-25 L43,-25 "/>
<path class="Note" transform="matrix(0.992126,0,0,0.992126,1858.99,1167.52)" d="M43,-25 L0,25 L10,25 L53,-25 L43,-25 "/>
<path class="Note" transform="matrix(0.992126,0,0,0.992126,2019.14,1167.52)" d="M43,-25 L0,25 L10,25 L53,-25 L43,-25 "/>
<path class="Note" transform="matrix(0.992126,0,0,0.992126,2236.34,1167.52)" d="M43,-25 L0,25 L10,25 L53,-25 L43,-25 "/>
<path class="Note" transform="matrix(0.992126,0,0,0.992126,2396.49,1167.52)" d="M43,-25 L0,25 L10,25 L53,-25 L43,-25 "/>
<path class="Note" transform="matrix(0.992126,0,0,0.992126,2556.64,1167.52)" d="M43,-25 L0,25 L10,25 L53,-25 L43,-25 "/>
<path class="Note" transform="matrix(0.992126,0,0,0.992126,2716.79,1167.52)" d="M43,-25 L0,25 L10,25 L53,-25 L43,-25 "/>
<path class="Clef" transform="matrix(0.992126,0,0,0.992126,158.032,262.205)" d="M63.3594,-5.92188 C62.125,-11.3438 59.4844,-15.1719 58.7031,-16.2031 C55.5156,-20.4844 51.5,-23.3281 46.8125,-24.6875 C43.7031,-25.5625 40.7031,-25.6875 38.2813,-25.5 C37.2344,-31.5156 36.2344,-37.3906 35.3281,-42.8438 C40.7813,-49.0156 44.4063,-54.8125 46.6875,-59.1094 C50.1563,-65.6875 51.2969,-70.2656 51.3594,-70.4688 C53.0781,-75.6875 53.4375,-83.3906 52.3281,-91.5938 C51.3281,-99.1406 49.2344,-105.859 46.875,-109.109 C45.8594,-110.531 44.7969,-111.266 43.7656,-111.266 C42.5469,-111.266 40.0313,-110.031 37.1406,-107.25 C34.8438,-105.063 31.5781,-101.172 29.0156,-95.1563 C26.0156,-88.0938 25.7969,-78.6094 26.1563,-71.8906 C26.5313,-64.6094 27.6406,-58.9219 27.6563,-58.875 C27.6719,-58.7813 27.9375,-57.2813 28.375,-54.7188 C28.1563,-54.4844 27.9063,-54.2656 27.6563,-54.0156 C26.625,-53.0156 25.4375,-51.8906 24.0469,-50.5 C23.1875,-49.6406 22.2344,-48.7344 21.2344,-47.7656 C12.7969,-39.625 0,-27.2969 0,-8.14063 C0,-3.4375 0.90625,0.984375 2.6875,5 C4.26563,8.59375 6.5625,11.875 9.5,14.75 C17.2344,22.3125 27.8281,25.5156 34.875,25.3594 C37.8281,25.2813 40.4688,25.0469 42.8594,24.5938 C44.6875,34.2031 45.8281,41.2344 45.8594,46.5781 C45.9063,53.0938 44.25,57.0781 40.3594,59.8438 C37.9219,61.5781 35.1094,62.5313 32.0156,62.6719 C29.4219,62.7969 27.1563,62.3281 25.7344,61.9219 L25.7188,61.9219 C25.7188,61.9219 25.4375,61.8281 25.4219,61.6406 C25.4063,61.4531 25.7656,61.4063 25.7656,61.4063 L25.7969,61.4063 C27.7188,60.9688 31.2813,59.7344 33.6406,56.4375 C35.4375,53.9063 36.3125,49.2813 34.4688,45.3438 C33.3594,42.9531 30.8594,40 25.2344,39.5469 C22.7344,39.3438 20.4688,39.8594 18.4688,41.0625 C16.6563,42.1406 15.1563,43.7813 14.1094,45.7813 C11.6563,50.4844 12.1094,56.2188 15.2344,60.0625 C18.2031,63.6875 22.8125,66 28.25,66.5781 C29.1094,66.6719 29.9531,66.7031 30.7969,66.7031 C35.2344,66.7031 39.625,65.5 43.2031,63.2969 C46.8594,60.7188 48.9844,56.7344 49.6563,51.1094 C50.2188,46.4688 49.8281,40.5469 48.4375,32.4688 C48.0781,30.375 47.5313,27.3438 46.875,23.5938 C52.625,21.6719 56.7813,18.0938 60.5469,12.2344 C63.8438,6.5 64.7813,0.390625 63.3594,-5.92188 M29.1406,20.2969 C24.5,19.0781 20.0625,16.5781 16.3125,13.0625 C15,11.8438 13.125,9.67188 11.6563,6.28125 C10.2969,3.10938 9.625,-0.328125 9.6875,-3.90625 C9.75,-8.60938 11.0625,-13.4375 13.5625,-18.2188 C16.4844,-23.7969 21.0469,-29.3281 27.1094,-34.6563 C28.5625,-35.9375 29.9375,-37.2188 31.2188,-38.5 C31.9844,-34.2344 32.8125,-29.5469 33.6875,-24.6719 C29.8438,-23.4063 25.0938,-20.25 21.9844,-14.5938 C18.4375,-8.03125 18.5781,-2.5 19.3125,0.984375 C20.25,5.4375 22.7813,9.20313 26.2344,11.2969 C27.1719,11.8594 31.2969,13.9844 33.1406,13.4063 C33.5156,13.2969 33.7813,13.0625 33.9219,12.7344 C34.4375,11.5625 33.4063,10.9219 31.8594,9.96875 C31.25,9.59375 30.5781,9.17188 29.8594,8.64063 C26.5313,6.15625 25.0781,1.70313 26.1563,-2.6875 C26.7344,-5.07813 28.0156,-7.25 29.8594,-8.95313 C31.5156,-10.5 33.5625,-11.5938 35.9375,-12.2344 C37.9844,-0.984375 40.0469,10.1719 41.6875,18.5313 C41.8125,19.2188 41.9531,19.8906 42.0781,20.5625 C37.7031,21.5 33.3594,21.4063 29.1406,20.2969 M40.4688,-12.9063 C50.8125,-13.375 55.0781,-5.9375 55.9688,-1.10938 C56.4375,1.4375 56.4375,5.875 54.8906,10.0938 C53.7188,13.2656 51.2656,17.3438 46.125,19.4063 C46.0625,18.9844 45.9844,18.5469 45.9063,18.125 C44.3594,9.34375 42.4219,-1.65625 40.4688,-12.9063 M33.1406,-83.8594 C34.9219,-89.5938 37.6563,-92.8438 39.6563,-94.5781 C41.4063,-96.0938 43.0469,-96.8125 43.9688,-96.8125 C44.1094,-96.8125 44.2344,-96.7813 44.3281,-96.75 C44.7969,-96.6094 45.3281,-96.0469 45.7969,-95.1719 C48.1094,-90.8906 47.3594,-84.1719 46.0156,-79.7344 C44.3906,-74.3281 41.4688,-68.7188 32.6719,-59.1094 C32.5,-60.2188 32.3438,-61.2656 32.1875,-62.25 C30.9375,-70.5313 31.2656,-77.8125 33.1406,-83.8594"/>
<path class="Clef" transform="matrix(0.992126,0,0,0.992126,34.0158,572.244)" d="M63.3594,-5.92188 C62.125,-11.3438 59.4844,-15.1719 58.7031,-16.2031 C55.5156,-20.4844 51.5,-23.3281 46.8125,-24.6875 C43.7031,-25.5625 40.7031,-25.6875 38.2813,-25.5 C37.2344,-31.5156 36.2344,-37.3906 35.3281,-42.8438 C40.7813,-49.0156 44.4063,-54.8125 46.6875,-59.1094 C50.1563,-65.6875 51.2969,-70.2656 51.3594,-70.4688 C53.0781,-75.6875 53.4375,-83.3906 52.3281,-91.5938 C51.3281,-99.1406 49.2344,-105.859 46.875,-109.109 C45.8594,-110.531 44.7969,-111.266 43.7656,-111.266 C42.5469,-111.266 40.0313,-110.031 37.1406,-107.25 C34.8438,-105.063 31.5781,-101.172 29.0156,-95.1563 C26.0156,-88.0938 25.7969,-78.6094 26.1563,-71.8906 C26.5313,-64.6094 27.6406,-58.9219 27.6563,-58.875 C27.6719,-58.7813 27.9375,-57.2813 28.375,-54.7188 C28.1563,-54.4844 27.9063,-54.2656 27.6563,-54.0156 C26.625,-53.0156 25.4375,-51.8906 24.0469,-50.5 C23.1875,-49.6406 22.2344,-48.7344 21.2344,-47.7656 C12.7969,-39.625 0,-27.2969 0,-8.14063 C0,-3.4375 0.90625,0.984375 2.6875,5 C4.26563,8.59375 6.5625,11.875 9.5,14.75 C17.2344,22.3125 27.8281,25.5156 34.875,25.3594 C37.8281,25.2813 40.4688,25.0469 42.8594,24.5938 C44.6875,34.2031 45.8281,41.2344 45.8594,46.5781 C45.9063,53.0938 44.25,57.0781 40.3594,59.8438 C37.9219,61.5781 35.1094,62.5313 32.0156,62.6719 C29.4219,62.7969 27.1563,62.3281 25.7344,61.9219 L25.7188,61.9219 C25.7188,61.9219 25.4375,61.8281 25.4219,61.6406 C25.4063,61.4531 25.7656,61.4063 25.7656,61.4063 L25.7969,61.4063 C27.7188,60.9688 31.2813,59.7344 33.6406,56.4375 C35.4375,53.9063 36.3125,49.2813 34.4688,45.3438 C33.3594,42.9531 30.8594,40 25.2344,39.5469 C22.7344,39.3438 20.4688,39.8594 18.4688,41.0625 C16.6563,42.1406 15.1563,43.7813 14.1094,45.7813 C11.6563,50.4844 12.1094,56.2188 15.2344,60.0625 C18.2031,63.6875 22.8125,66 28.25,66.5781 C29.1094,66.6719 29.9531,66.7031 30.7969,66.7031 C35.2344,66.7031 39.625,65.5 43.2031,63.2969 C46.8594,60.7188 48.9844,56.7344 49.6563,51.1094 C50.2188,46.4688 49.8281,40.5469 48.4375,32.4688 C48.0781,30.375 47.5313,27.3438 46.875,23.5938 C52.625,21.6719 56.7813,18.0938 60.5469,12.2344 C63.8438,6.5 64.7813,0.390625 63.3594,-5.92188 M29.1406,20.2969 C24.5,19.0781 20.0625,16.5781 16.3125,13.0625 C15,11.8438 13.125,9.67188 11.6563,6.28125 C10.2969,3.10938 9.625,-0.328125 9.6875,-3.90625 C9.75,-8.60938 11.0625,-13.4375 13.5625,-18.2188 C16.4844,-23.7969 21.0469,-29.3281 27.1094,-34.6563 C28.5625,-35.9375 29.9375,-37.2188 31.2188,-38.5 C31.9844,-34.2344 32.8125,-29.5469 33.6875,-24.6719 C29.8438,-23.4063 25.0938,-20.25 21.9844,-14.5938 C18.4375,-8.03125 18.5781,-2.5 19.3125,0.984375 C20.25,5.4375 22.7813,9.20313 26.2344,11.2969 C27.1719,11.8594 31.2969,13.9844 33.1406,13.4063 C33.5156,13.2969 33.7813,13.0625 33.9219,12.7344 C34.4375,11.5625 33.4063,10.9219 31.8594,9.96875 C31.25,9.59375 30.5781,9.17188 29.8594,8.64063 C26.5313,6.15625 25.0781,1.70313 26.1563,-2.6875 C26.7344,-5.07813 28.0156,-7.25 29.8594,-8.95313 C31.5156,-10.5 33.5625,-11.5938 35.9375,-12.2344 C37.9844,-0.984375 40.0469,10.1719 41.6875,18.5313 C41.8125,19.2188 41.9531,19.8906 42.0781,20.5625 C37.7031,21.5 33.3594,21.4063 29.1406,20.2969 M40.4688,-12.9063 C50.8125,-13.375 55.0781,-5.9375 55.9688,-1.10938 C56.4375,1.4375 56.4375,5.875 54.8906,10.0938 C53.7188,13.2656 51.2656,17.3438 46.125,19.4063 C46.0625,18.9844 45.9844,18.5469 45.9063,18.125 C44.3594,9.34375 42.4219,-1.65625 40.4688,-12.9063 M33.1406,-83.8594 C34.9219,-89.5938 37.6563,-92.8438 39.6563,-94.5781 C41.4063,-96.0938 43.0469,-96.8125 43.9688,-96.8125 C44.1094,-96.8125 44.2344,-96.7813 44.3281,-96.75 C44.7969,-96.6094 45.3281,-96.0469 45.7969,-95.1719 C48.1094,-90.8906 47.3594,-84.1719 46.0156,-79.7344 C44.3906,-74.3281 41.4688,-68.7188 32.6719,-59.1094 C32.5,-60.2188 32.3438,-61.2656 32.1875,-62.25 C30.9375,-70.5313 31.2656,-77.8125 33.1406,-83.8594"/>
<path class="Clef" transform="matrix(0.992126,0,0,0.992126,34.0158,882.283)" d="M63.3594,-5.92188 C62.125,-11.3438 59.4844,-15.1719 58.7031,-16.2031 C55.5156,-20.4844 51.5,-23.3281 46.8125,-24.6875 C43.7031,-25.5625 40.7031,-25.6875 38.2813,-25.5 C37.2344,-31.5156 36.2344,-37.3906 35.3281,-42.8438 C40.7813,-49.0156 44.4063,-54.8125 46.6875,-59.1094 C50.1563,-65.6875 51.2969,-70.2656 51.3594,-70.4688 C53.0781,-75.6875 53.4375,-83.3906 52.3281,-91.5938 C51.3281,-99.1406 49.2344,-105.859 46.875,-109.109 C45.8594,-110.531 44.7969,-111.266 43.7656,-111.266 C42.5469,-111.266 40.0313,-110.031 37.1406,-107.25 C34.8438,-105.063 31.5781,-101.172 29.0156,-95.1563 C26.0156,-88.0938 25.7969,-78.6094 26.1563,-71.8906 C26.5313,-64.6094 27.6406,-58.9219 27.6563,-58.875 C27.6719,-58.7813 27.9375,-57.2813 28.375,-54.7188 C28.1563,-54.4844 27.9063,-54.2656 27.6563,-54.0156 C26.625,-53.0156 25.4375,-51.8906 24.0469,-50.5 C23.1875,-49.6406 22.2344,-48.7344 21.2344,-47.7656 C12.7969,-39.625 0,-27.2969 0,-8.14063 C0,-3.4375 0.90625,0.984375 2.6875,5 C4.26563,8.59375 6.5625,11.875 9.5,14.75 C17.2344,22.3125 27.8281,25.5156 34.875,25.3594 C37.8281,25.2813 40.4688,25.0469 42.8594,24.5938 C44.6875,34.2031 45.8281,41.2344 45.8594,46.5781 C45.9063,53.0938 44.25,57.0781 40.3594,59.8438 C37.9219,61.5781 35.1094,62.5313 32.0156,62.6719 C29.4219,62.7969 27.1563,62.3281 25.7344,61.9219 L25.7188,61.9219 C25.7188,61.9219 25.4375,61.8281 25.4219,61.6406 C25.4063,61.4531 25.7656,61.4063 25.7656,61.4063 L25.7969,61.4063 C27.7188,60.9688 31.2813,59.7344 33.6406,56.4375 C35.4375,53.9063 36.3125,49.2813 34.4688,45.3438 C33.3594,42.9531 30.8594,40 25.2344,39.5469 C22.7344,39.3438 20.4688,39.8594 18.4688,41.0625 C16.6563,42.1406 15.1563,43.7813 14.1094,45.7813 C11.6563,50.4844 12.1094,56.2188 15.2344,60.0625 C18.2031,63.6875 22.8125,66 28.25,66.5781 C29.1094,66.6719 29.9531,66.7031 30.7969,66.7031 C35.2344,66.7031 39.625,65.5 43.2031,63.2969 C46.8594,60.7188 48.9844,56.7344 49.6563,51.1094 C50.2188,46.4688 49.8281,40.5469 48.4375,32.4688 C48.0781,30.375 47.5313,27.3438 46.875,23.5938 C52.625,21.6719 56.7813,18.0938 60.5469,12.2344 C63.8438,6.5 64.7813,0.390625 63.3594,-5.92188 M29.1406,20.2969 C24.5,19.0781 20.0625,16.5781 16.3125,13.0625 C15,11.8438 13.125,9.67188 11.6563,6.28125 C10.2969,3.10938 9.625,-0.328125 9.6875,-3.90625 C9.75,-8.60938 11.0625,-13.4375 13.5625,-18.2188 C16.4844,-23.7969 21.0469,-29.3281 27.1094,-34.6563 C28.5625,-35.9375 29.9375,-37.2188 31.2188,-38.5 C31.9844,-34.2344 32.8125,-29.5469 33.6875,-24.6719 C29.8438,-23.4063 25.0938,-20.25 21.9844,-14.5938 C18.4375,-8.03125 18.5781,-2.5 19.3125,0.984375 C20.25,5.4375 22.7813,9.20313 26.2344,11.2969 C27.1719,11.8594 31.2969,13.9844 33.1406,13.4063 C33.5156,13.2969 33.7813,13.0625 33.9219,12.7344 C34.4375,11.5625 33.4063,10.9219 31.8594,9.96875 C31.25,9.59375 30.5781,9.17188 29.8594,8.64063 C26.5313,6.15625 25.0781,1.70313 26.1563,-2.6875 C26.7344,-5.07813 28.0156,-7.25 29.8594,-8.95313 C31.5156,-10.5 33.5625,-11.5938 35.9375,-12.2344 C37.9844,-0.984375 40.0469,10.1719 41.6875,18.5313 C41.8125,19.2188 41.9531,19.8906 42.0781,20.5625 C37.7031,21.5 33.3594,21.4063 29.1406,20.2969 M40.4688,-12.9063 C50.8125,-13.375 55.0781,-5.9375 55.9688,-1.10938 C56.4375,1.4375 56.4375,5.875 54.8906,10.0938 C53.7188,13.2656 51.2656,17.3438 46.125,19.4063 C46.0625,18.9844 45.9844,18.5469 45.9063,18.125 C44.3594,9.34375 42.4219,-1.65625 40.4688,-12.9063 M33.1406,-83.8594 C34.9219,-89.5938 37.6563,-92.8438 39.6563,-94.5781 C41.4063,-96.0938 43.0469,-96.8125 43.9688,-96.8125 C44.1094,-96.8125 44.2344,-96.7813 44.3281,-96.75 C44.7969,-96.6094 45.3281,-96.0469 45.7969,-95.1719 C48.1094,-90.8906 47.3594,-84.1719 46.0156,-79.7344 C44.3906,-74.3281 41.4688,-68.7188 32.6719,-59.1094 C32.5,-60.2188 32.3438,-61.2656 32.1875,-62.25 C30.9375,-70.5313 31.2656,-77.8125 33.1406,-83.8594"/>
<path class="Clef" transform="matrix(0.992126,0,0,0.992126,34.0158,1192.32)" d="M63.3594,-5.92188 C62.125,-11.3438 59.4844,-15.1719 58.7031,-16.2031 C55.5156,-20.4844 51.5,-23.3281 46.8125,-24.6875 C43.7031,-25.5625 40.7031,-25.6875 38.2813,-25.5 C37.2344,-31.5156 36.2344,-37.3906 35.3281,-42.8438 C40.7813,-49.0156 44.4063,-54.8125 46.6875,-59.1094 C50.1563,-65.6875 51.2969,-70.2656 51.3594,-70.4688 C53.0781,-75.6875 53.4375,-83.3906 52.3281,-91.5938 C51.3281,-99.1406 49.2344,-105.859 46.875,-109.109 C45.8594,-110.531 44.7969,-111.266 43.7656,-111.266 C42.5469,-111.266 40.0313,-110.031 37.1406,-107.25 C34.8438,-105.063 31.5781,-101.172 29.0156,-95.1563 C26.0156,-88.0938 25.7969,-78.6094 26.1563,-71.8906 C26.5313,-64.6094 27.6406,-58.9219 27.6563,-58.875 C27.6719,-58.7813 27.9375,-57.2813 28.375,-54.7188 C28.1563,-54.4844 27.9063,-54.2656 27.6563,-54.0156 C26.625,-53.0156 25.4375,-51.8906 24.0469,-50.5 C23.1875,-49.6406 22.2344,-48.7344 21.2344,-47.7656 C12.7969,-39.625 0,-27.2969 0,-8.14063 C0,-3.4375 0.90625,0.984375 2.6875,5 C4.26563,8.59375 6.5625,11.875 9.5,14.75 C17.2344,22.3125 27.8281,25.5156 34.875,25.3594 C37.8281,25.2813 40.4688,25.0469 42.8594,24.5938 C44.6875,34.2031 45.8281,41.2344 45.8594,46.5781 C45.9063,53.0938 44.25,57.0781 40.3594,59.8438 C37.9219,61.5781 35.1094,62.5313 32.0156,62.6719 C29.4219,62.7969 27.1563,62.3281 25.7344,61.9219 L25.7188,61.9219 C25.7188,61.9219 25.4375,61.8281 25.4219,61.6406 C25.4063,61.4531 25.7656,61.4063 25.7656,61.4063 L25.7969,61.4063 C27.7188,60.9688 31.2813,59.7344 33.6406,56.4375 C35.4375,53.9063 36.3125,49.2813 34.4688,45.3438 C33.3594,42.9531 30.8594,40 25.2344,39.5469 C22.7344,39.3438 20.4688,39.8594 18.4688,41.0625 C16.6563,42.1406 15.1563,43.7813 14.1094,45.7813 C11.6563,50.4844 12.1094,56.2188 15.2344,60.0625 C18.2031,63.6875 22.8125,66 28.25,66.5781 C29.1094,66.6719 29.9531,66.7031 30.7969,66.7031 C35.2344,66.7031 39.625,65.5 43.2031,63.2969 C46.8594,60.7188 48.9844,56.7344 49.6563,51.1094 C50.2188,46.4688 49.8281,40.5469 48.4375,32.4688 C48.0781,30.375 47.5313,27.3438 46.875,23.5938 C52.625,21.6719 56.7813,18.0938 60.5469,12.2344 C63.8438,6.5 64.7813,0.390625 63.3594,-5.92188 M29.1406,20.2969 C24.5,19.0781 20.0625,16.5781 16.3125,13.0625 C15,11.8438 13.125,9.67188 11.6563,6.28125 C10.2969,3.10938 9.625,-0.328125 9.6875,-3.90625 C9.75,-8.60938 11.0625,-13.4375 13.5625,-18.2188 C16.4844,-23.7969 21.0469,-29.3281 27.1094,-34.6563 C28.5625,-35.9375 29.9375,-37.2188 31.2188,-38.5 C31.9844,-34.2344 32.8125,-29.5469 33.6875,-24.6719 C29.8438,-23.4063 25.0938,-20.25 21.9844,-14.5938 C18.4375,-8.03125 18.5781,-2.5 19.3125,0.984375 C20.25,5.4375 22.7813,9.20313 26.2344,11.2969 C27.1719,11.8594 31.2969,13.9844 33.1406,13.4063 C33.5156,13.2969 33.7813,13.0625 33.9219,12.7344 C34.4375,11.5625 33.4063,10.9219 31.8594,9.96875 C31.25,9.59375 30.5781,9.17188 29.8594,8.64063 C26.5313,6.15625 25.0781,1.70313 26.1563,-2.6875 C26.7344,-5.07813 28.0156,-7.25 29.8594,-8.95313 C31.5156,-10.5 33.5625,-11.5938 35.9375,-12.2344 C37.9844,-0.984375 40.0469,10.1719 41.6875,18.5313 C41.8125,19.2188 41.9531,19.8906 42.0781,20.5625 C37.7031,21.5 33.3594,21.4063 29.1406,20.2969 M40.4688,-12.9063 C50.8125,-13.375 55.0781,-5.9375 55.9688,-1.10938 C56.4375,1.4375 56.4375,5.875 54.8906,10.0938 C53.7188,13.2656 51.2656,17.3438 46.125,19.4063 C46.0625,18.9844 45.9844,18.5469 45.9063,18.125 C44.3594,9.34375 42.4219,-1.65625 40.4688,-12.9063 M33.1406,-83.8594 C34.9219,-89.5938 37.6563,-92.8438 39.6563,-94.5781 C41.4063,-96.0938 43.0469,-96.8125 43.9688,-96.8125 C44.1094,-96.8125 44.2344,-96.7813 44.3281,-96.75 C44.7969,-96.6094 45.3281,-96.0469 45.7969,-95.1719 C48.1094,-90.8906 47.3594,-84.1719 46.0156,-79.7344 C44.3906,-74.3281 41.4688,-68.7188 32.6719,-59.1094 C32.5,-60.2188 32.3438,-61.2656 32.1875,-62.25 C30.9375,-70.5313 31.2656,-77.8125 33.1406,-83.8594"/>
<path class="TimeSig" transform="matrix(0.992126,0,0,0.992126,244.951,212.73)" d="M3.59375,12.625 L20.7656,12.625 L20.7656,20.0781 L12.5469,20.0781 C11.7656,20.0781 11.125,20.7031 11.125,21.4844 L11.125,23.3906 C11.125,24.1719 11.7656,24.7969 12.5469,24.7969 L42.7969,24.7969 C43.5781,24.7969 44.2031,24.1719 44.2031,23.3906 L44.2031,21.4844 C44.2031,20.7031 43.5781,20.0781 42.7969,20.0781 L33.8594,20.0781 L33.8594,12.625 L42.7969,12.625 C43.5781,12.625 44.2031,12 44.2031,11.2188 L44.2031,9.3125 C44.2031,8.53125 43.5781,7.90625 42.7969,7.90625 L33.8594,7.90625 L33.8594,-8.0625 C33.8594,-8.59375 33.5469,-9.07813 33.0781,-9.3125 L31.8594,-9.92188 C31.3281,-10.1719 30.7031,-10.0781 30.2656,-9.6875 L21.2188,-1.375 C20.9375,-1.09375 20.7656,-0.734375 20.7656,-0.328125 L20.7656,7.90625 L9.25,7.90625 C9.25,7.90625 20.375,-4.125 32.2188,-19.8906 C33.0781,-21.0469 32.5781,-22.0938 32.3906,-22.2813 L30.2188,-24.4844 C29.9531,-24.75 29.5938,-24.9063 29.2188,-24.9063 C28.625,-24.9063 15.0625,-24.875 14.3438,-24.9063 C13.625,-24.9219 13.0938,-24.2969 13.0156,-23.6875 C13.0156,-23.6875 12.4844,-16.3281 9.875,-8.1875 C7.28125,-0.078125 4.34375,4.90625 1.6875,8.53125 C1.6875,8.53125 1.14063,9.51563 1.5,10.2656 C1.84375,11.0156 2.48438,12.0938 2.48438,12.0938 C2.48438,12.0938 2.73438,12.625 3.59375,12.625"/>
<path class="TimeSig" transform="matrix(0.992126,0,0,0.992126,244.951,262.073)" d="M3.59375,12.625 L20.7656,12.625 L20.7656,20.0781 L12.5469,20.0781 C11.7656,20.0781 11.125,20.7031 11.125,21.4844 L11.125,23.3906 C11.125,24.1719 11.7656,24.7969 12.5469,24.7969 L42.7969,24.7969 C43.5781,24.7969 44.2031,24.1719 44.2031,23.3906 L44.2031,21.4844 C44.2031,20.7031 43.5781,20.0781 42.7969,20.0781 L33.8594,20.0781 L33.8594,12.625 L42.7969,12.625 C43.5781,12.625 44.2031,12 44.2031,11.2188 L44.2031,9.3125 C44.2031,8.53125 43.5781,7.90625 42.7969,7.90625 L33.8594,7.90625 L33.8594,-8.0625 C33.8594,-8.59375 33.5469,-9.07813 33.0781,-9.3125 L31.8594,-9.92188 C31.3281,-10.1719 30.7031,-10.0781 30.2656,-9.6875 L21.2188,-1.375 C20.9375,-1.09375 20.7656,-0.734375 20.7656,-0.328125 L20.7656,7.90625 L9.25,7.90625 C9.25,7.90625 20.375,-4.125 32.2188,-19.8906 C33.0781,-21.0469 32.5781,-22.0938 32.3906,-22.2813 L30.2188,-24.4844 C29.9531,-24.75 29.5938,-24.9063 29.2188,-24.9063 C28.625,-24.9063 15.0625,-24.875 14.3438,-24.9063 C13.625,-24.9219 13.0938,-24.2969 13.0156,-23.6875 C13.0156,-23.6875 12.4844,-16.3281 9.875,-8.1875 C7.28125,-0.078125 4.34375,4.90625 1.6875,8.53125 C1.6875,8.53125 1.14063,9.51563 1.5,10.2656 C1.84375,11.0156 2.48438,12.0938 2.48438,12.0938 C2.48438,12.0938 2.73438,12.625 3.59375,12.625"/>
<path class="Harmony" d="M350.527,121.866 C350.496,121.881 350.449,121.881 350.386,121.881 C350.324,121.881 350.277,121.897 350.246,121.897 C350.199,121.912 350.152,121.912 350.09,121.928 C350.027,121.928 349.996,121.944 349.949,121.959 C349.902,121.975 349.871,122.006 349.824,122.022 C349.777,122.053 349.746,122.069 349.73,122.116 C349.683,122.147 349.668,122.178 349.636,122.225 C349.621,122.256 349.605,122.319 349.605,122.366 C349.605,122.397 349.605,122.428 349.605,122.475 L349.605,122.506 C349.605,122.537 349.605,122.584 349.605,122.647 C349.621,122.709 349.621,122.756 349.621,122.787 C349.621,123.366 349.636,123.928 349.652,124.475 C349.652,124.506 349.652,124.537 349.652,124.569 C349.652,124.678 349.652,124.819 349.636,124.975 C349.621,125.178 349.621,125.319 349.621,125.412 L349.621,125.444 L349.621,125.537 C349.621,125.553 349.621,125.584 349.636,125.616 C349.636,125.647 349.636,125.662 349.652,125.678 C349.668,125.694 349.683,125.709 349.715,125.725 C349.73,125.741 349.761,125.741 349.793,125.741 L349.808,125.741 C349.98,125.741 350.152,125.709 350.324,125.631 C350.511,125.569 350.668,125.491 350.824,125.381 C350.98,125.287 351.121,125.162 351.261,125.006 C351.402,124.866 351.527,124.709 351.621,124.553 C351.73,124.397 351.808,124.225 351.871,124.053 C351.949,123.881 351.98,123.709 351.98,123.537 C351.996,123.506 351.996,123.459 351.996,123.428 C351.996,123.334 351.98,123.241 351.965,123.131 C351.933,122.991 351.902,122.85 351.84,122.725 C351.793,122.6 351.715,122.475 351.621,122.366 C351.543,122.241 351.433,122.147 351.324,122.069 C351.215,121.991 351.09,121.928 350.949,121.897 C350.871,121.866 350.777,121.866 350.668,121.866 C350.621,121.866 350.574,121.866 350.527,121.866 M350.215,125.1 C350.215,124.959 350.215,124.741 350.215,124.475 C350.23,124.256 350.23,124.053 350.23,123.866 C350.23,123.819 350.23,123.787 350.23,123.741 C350.23,123.522 350.215,123.303 350.215,123.1 C350.215,123.069 350.199,123.037 350.199,122.959 C350.183,122.881 350.168,122.803 350.168,122.741 C350.152,122.709 350.152,122.678 350.152,122.647 C350.152,122.616 350.152,122.584 350.168,122.553 C350.168,122.491 350.199,122.444 350.23,122.412 C350.277,122.381 350.324,122.366 350.386,122.366 C350.402,122.366 350.402,122.366 350.418,122.366 C350.496,122.381 350.574,122.397 350.668,122.444 C350.746,122.491 350.824,122.553 350.902,122.616 C350.98,122.678 351.043,122.741 351.105,122.787 C351.168,122.85 351.199,122.897 351.23,122.944 C351.308,123.069 351.371,123.225 351.402,123.381 C351.418,123.475 351.418,123.553 351.418,123.647 C351.418,123.709 351.418,123.787 351.418,123.85 C351.386,124.006 351.34,124.147 351.277,124.303 C351.215,124.444 351.121,124.569 351.027,124.694 C350.918,124.803 350.793,124.897 350.668,124.959 C350.527,125.037 350.371,125.084 350.215,125.1"/>
<path class="Harmony" d="M365.871,78.7296 C366.527,79.589 366.98,80.7296 367.324,82.1827 C367.668,83.6358 367.918,85.0421 368.168,86.4796 C368.418,87.9327 368.574,89.2921 368.621,90.4796 L364.824,90.089 L360.73,90.4796 L362.824,84.2296 L365.871,78.7296 M364.98,96.339 L365.98,96.339 L367.48,96.339 L367.871,96.339 L368.324,96.339 C368.371,96.339 368.527,96.3858 368.73,96.3858 C368.918,96.3858 369.074,96.3858 369.168,96.4327 C369.277,96.4796 369.371,96.5421 369.527,96.589 C369.668,96.6358 369.777,96.6827 369.871,96.7921 C369.98,96.8858 370.121,96.9327 370.23,97.0421 C370.48,97.2921 370.73,97.7921 370.918,98.4327 C371.121,99.0421 371.324,99.6827 371.48,100.433 C371.621,101.183 371.777,101.933 371.918,102.792 C372.074,103.636 372.277,104.386 372.48,105.089 C372.668,105.792 372.98,106.433 373.277,106.98 C373.574,107.542 373.918,107.886 374.371,108.089 C374.574,108.183 374.824,108.23 375.121,108.23 C375.371,108.23 375.683,108.183 375.98,108.089 C376.433,107.933 376.777,107.73 377.121,107.542 C377.48,107.339 377.73,107.136 377.933,106.886 C378.121,106.636 378.277,106.386 378.433,106.089 C378.574,105.792 378.683,105.589 378.73,105.339 C378.777,105.136 378.777,104.933 378.777,104.683 L378.777,104.433 C378.777,104.089 378.777,103.73 378.73,103.48 C378.683,103.23 378.574,102.933 378.48,102.542 C378.371,102.136 378.277,101.839 378.183,101.589 C378.074,101.339 378.027,100.98 377.871,100.542 C377.73,100.089 377.574,99.7921 377.527,99.589 C377.183,98.589 376.574,96.589 375.73,93.6358 C375.121,91.4796 374.621,89.6827 374.277,88.2921 C373.621,85.7296 373.074,83.6358 372.668,81.9796 C372.027,79.2296 371.527,77.3858 371.277,76.4327 C371.23,76.2296 371.168,75.9327 371.074,75.5265 C370.98,75.1358 370.918,74.7765 370.871,74.4796 C370.824,74.1827 370.668,73.8858 370.574,73.4796 C370.48,73.089 370.371,72.6827 370.277,72.3858 C370.168,72.089 369.98,71.7296 369.824,71.3858 C369.668,71.0265 369.48,70.7765 369.277,70.5265 C369.074,70.2765 368.918,70.089 368.668,69.8858 C368.418,69.6827 368.168,69.4796 367.871,69.4327 C367.621,69.3858 367.371,69.339 367.074,69.339 L366.871,69.339 C366.527,69.3858 366.121,69.4327 365.668,69.589 C365.324,69.7296 364.918,69.9327 364.574,70.1827 C364.23,70.4327 363.871,70.6358 363.621,70.8858 C363.371,71.1358 363.121,71.4796 362.871,71.8858 C362.621,72.2765 362.371,72.589 362.23,72.8858 C362.074,73.1827 361.871,73.589 361.668,74.089 C361.48,74.589 361.277,74.9796 361.168,75.2765 C361.074,75.589 360.98,75.9796 360.777,76.4796 C360.574,76.9796 360.418,77.339 360.371,77.589 C358.918,81.2296 357.48,84.6827 356.027,88.0421 C353.668,93.3858 352.277,96.6358 351.871,97.839 C351.824,98.0421 351.621,98.3858 351.371,98.9327 C351.121,99.4796 350.824,99.9796 350.574,100.48 C350.324,100.98 350.074,101.636 349.777,102.292 C349.48,102.933 349.23,103.589 349.074,104.136 C348.871,104.683 348.777,105.183 348.777,105.636 C348.824,106.089 348.918,106.386 349.168,106.636 C349.621,106.98 350.121,107.183 350.668,107.183 L351.027,107.183 C351.73,107.089 352.418,106.886 353.121,106.48 C353.824,106.089 354.324,105.636 354.574,105.183 C354.871,104.636 355.168,103.98 355.418,103.183 C355.668,102.386 355.918,101.636 356.074,100.98 C356.23,100.339 356.418,99.6358 356.777,98.8858 C357.121,98.1358 357.527,97.5421 357.98,97.0421 L360.668,96.1827 C360.824,96.1358 361.027,96.1827 361.371,96.1827 L362.824,96.1827 C362.98,96.1827 363.73,96.2296 364.98,96.339"/>
<path class="Harmony" d="M1025.34,97.1312 C1025.99,97.9905 1026.45,99.1312 1026.79,100.584 C1027.13,102.037 1027.38,103.444 1027.63,104.881 C1027.88,106.334 1028.04,107.694 1028.09,108.881 L1024.29,108.491 L1020.2,108.881 L1022.29,102.631 L1025.34,97.1312 M1024.45,114.741 L1025.45,114.741 L1026.95,114.741 L1027.34,114.741 L1027.79,114.741 C1027.84,114.741 1027.99,114.787 1028.2,114.787 C1028.38,114.787 1028.54,114.787 1028.63,114.834 C1028.74,114.881 1028.84,114.944 1028.99,114.991 C1029.13,115.037 1029.24,115.084 1029.34,115.194 C1029.45,115.287 1029.59,115.334 1029.7,115.444 C1029.95,115.694 1030.2,116.194 1030.38,116.834 C1030.59,117.444 1030.79,118.084 1030.95,118.834 C1031.09,119.584 1031.24,120.334 1031.38,121.194 C1031.54,122.037 1031.74,122.787 1031.95,123.491 C1032.13,124.194 1032.45,124.834 1032.74,125.381 C1033.04,125.944 1033.38,126.287 1033.84,126.491 C1034.04,126.584 1034.29,126.631 1034.59,126.631 C1034.84,126.631 1035.15,126.584 1035.45,126.491 C1035.9,126.334 1036.24,126.131 1036.59,125.944 C1036.95,125.741 1037.2,125.537 1037.4,125.287 C1037.59,125.037 1037.74,124.787 1037.9,124.491 C1038.04,124.194 1038.15,123.991 1038.2,123.741 C1038.24,123.537 1038.24,123.334 1038.24,123.084 L1038.24,122.834 C1038.24,122.491 1038.24,122.131 1038.2,121.881 C1038.15,121.631 1038.04,121.334 1037.95,120.944 C1037.84,120.537 1037.74,120.241 1037.65,119.991 C1037.54,119.741 1037.49,119.381 1037.34,118.944 C1037.2,118.491 1037.04,118.194 1036.99,117.991 C1036.65,116.991 1036.04,114.991 1035.2,112.037 C1034.59,109.881 1034.09,108.084 1033.74,106.694 C1033.09,104.131 1032.54,102.037 1032.13,100.381 C1031.49,97.6312 1030.99,95.7874 1030.74,94.8343 C1030.7,94.6312 1030.63,94.3343 1030.54,93.928 C1030.45,93.5374 1030.38,93.178 1030.34,92.8812 C1030.29,92.5843 1030.13,92.2874 1030.04,91.8812 C1029.95,91.4905 1029.84,91.0843 1029.74,90.7874 C1029.63,90.4905 1029.45,90.1312 1029.29,89.7874 C1029.13,89.428 1028.95,89.178 1028.74,88.928 C1028.54,88.678 1028.38,88.4905 1028.13,88.2874 C1027.88,88.0843 1027.63,87.8812 1027.34,87.8343 C1027.09,87.7874 1026.84,87.7405 1026.54,87.7405 L1026.34,87.7405 C1025.99,87.7874 1025.59,87.8343 1025.13,87.9905 C1024.79,88.1312 1024.38,88.3343 1024.04,88.5843 C1023.7,88.8343 1023.34,89.0374 1023.09,89.2874 C1022.84,89.5374 1022.59,89.8812 1022.34,90.2874 C1022.09,90.678 1021.84,90.9905 1021.7,91.2874 C1021.54,91.5843 1021.34,91.9905 1021.13,92.4905 C1020.95,92.9905 1020.74,93.3812 1020.63,93.678 C1020.54,93.9905 1020.45,94.3812 1020.24,94.8812 C1020.04,95.3812 1019.88,95.7405 1019.84,95.9905 C1018.38,99.6312 1016.95,103.084 1015.49,106.444 C1013.13,111.787 1011.74,115.037 1011.34,116.241 C1011.29,116.444 1011.09,116.787 1010.84,117.334 C1010.59,117.881 1010.29,118.381 1010.04,118.881 C1009.79,119.381 1009.54,120.037 1009.24,120.694 C1008.95,121.334 1008.7,121.991 1008.54,122.537 C1008.34,123.084 1008.24,123.584 1008.24,124.037 C1008.29,124.491 1008.38,124.787 1008.63,125.037 C1009.09,125.381 1009.59,125.584 1010.13,125.584 L1010.49,125.584 C1011.2,125.491 1011.88,125.287 1012.59,124.881 C1013.29,124.491 1013.79,124.037 1014.04,123.584 C1014.34,123.037 1014.63,122.381 1014.88,121.584 C1015.13,120.787 1015.38,120.037 1015.54,119.381 C1015.7,118.741 1015.88,118.037 1016.24,117.287 C1016.59,116.537 1016.99,115.944 1017.45,115.444 L1020.13,114.584 C1020.29,114.537 1020.49,114.584 1020.84,114.584 L1022.29,114.584 C1022.45,114.584 1023.2,114.631 1024.45,114.741"/>
<path class="Harmony" d="M1318.7,86.6312 C1318.45,86.678 1318.05,86.7405 1317.41,86.7874 C1316.75,86.8343 1316.25,86.928 1315.91,86.9905 C1315.55,87.0374 1315.05,87.0843 1314.45,87.178 C1313.84,87.2874 1313.41,87.428 1313,87.5843 C1312.59,87.7405 1312.16,87.928 1311.75,88.178 C1311.34,88.428 1311,88.678 1310.75,89.0374 C1310.41,89.3812 1310.16,89.7874 1309.95,90.178 C1309.75,90.5843 1309.59,91.0843 1309.55,91.5843 C1309.5,91.928 1309.5,92.2874 1309.5,92.6312 L1309.5,92.928 C1309.55,93.2874 1309.55,93.7874 1309.59,94.3812 C1309.66,94.9905 1309.66,95.4905 1309.66,95.8343 C1309.66,101.537 1309.8,107.131 1310.05,112.694 C1310.09,112.991 1310.09,113.287 1310.09,113.631 C1310.05,114.694 1310,116.084 1309.91,117.741 C1309.75,119.694 1309.66,121.131 1309.66,122.084 L1309.66,122.381 L1309.66,123.241 C1309.66,123.491 1309.75,123.741 1309.8,124.037 C1309.84,124.334 1309.95,124.584 1310.09,124.741 C1310.25,124.881 1310.41,125.037 1310.66,125.194 C1310.84,125.287 1311.09,125.334 1311.41,125.334 L1311.55,125.334 C1313.3,125.287 1315.05,124.944 1316.8,124.287 C1318.55,123.631 1320.2,122.834 1321.75,121.787 C1323.3,120.741 1324.75,119.491 1326.16,118.037 C1327.55,116.584 1328.75,115.084 1329.75,113.491 C1330.75,111.881 1331.59,110.241 1332.25,108.491 C1332.91,106.741 1333.25,104.991 1333.34,103.334 C1333.41,102.991 1333.41,102.584 1333.41,102.241 C1333.41,101.287 1333.3,100.287 1333.09,99.2874 C1332.84,97.8812 1332.45,96.4905 1331.91,95.178 C1331.34,93.8812 1330.66,92.678 1329.75,91.5374 C1328.84,90.3812 1327.84,89.428 1326.75,88.6312 C1325.66,87.8343 1324.45,87.2405 1323.05,86.8812 C1322.16,86.6312 1321.2,86.5374 1320.25,86.5374 C1319.75,86.5374 1319.25,86.5843 1318.7,86.6312 M1315.59,118.944 C1315.59,117.491 1315.66,115.381 1315.7,112.694 C1315.75,110.537 1315.8,108.491 1315.8,106.631 C1315.8,106.194 1315.75,105.741 1315.75,105.287 C1315.75,103.084 1315.7,100.944 1315.59,98.928 C1315.59,98.678 1315.55,98.2405 1315.45,97.4905 C1315.34,96.7405 1315.2,96.0374 1315.16,95.3812 C1315.09,95.0843 1315.09,94.7874 1315.09,94.4905 C1315.09,94.1312 1315.09,93.8343 1315.16,93.4905 C1315.25,92.8343 1315.45,92.3343 1315.8,92.0843 C1316.25,91.7405 1316.75,91.5843 1317.3,91.5843 C1317.45,91.6312 1317.59,91.6312 1317.75,91.6312 C1318.5,91.7405 1319.3,91.9905 1320.16,92.428 C1321,92.8812 1321.8,93.4905 1322.55,94.0843 C1323.3,94.678 1324,95.2874 1324.55,95.8812 C1325.09,96.4905 1325.55,96.928 1325.8,97.3812 C1326.59,98.678 1327.16,100.131 1327.45,101.741 C1327.59,102.631 1327.7,103.537 1327.7,104.444 C1327.7,105.084 1327.66,105.741 1327.59,106.381 C1327.34,107.944 1326.91,109.444 1326.25,110.881 C1325.59,112.334 1324.75,113.631 1323.75,114.787 C1322.7,115.944 1321.5,116.834 1320.09,117.584 C1318.7,118.334 1317.2,118.787 1315.59,118.944"/>
<path class="Harmony" d="M1687.96,86.8343 C1686.01,87.0843 1684.16,87.5374 1682.35,88.178 C1680.56,88.8343 1678.91,89.7405 1677.31,90.7874 C1675.71,91.8343 1674.26,93.0374 1673.01,94.3812 C1671.76,95.7405 1670.71,97.2874 1669.81,99.0374 C1668.91,100.787 1668.31,102.631 1667.96,104.584 C1667.71,105.787 1667.6,107.037 1667.6,108.287 L1667.6,108.631 C1667.6,109.834 1667.66,110.991 1667.81,112.131 C1667.96,113.381 1668.26,114.631 1668.66,115.787 C1669.1,116.991 1669.6,118.131 1670.16,119.194 C1670.71,120.241 1671.41,121.194 1672.21,122.037 C1673.01,122.881 1674.01,123.584 1675.01,124.194 C1676.01,124.787 1677.16,125.241 1678.41,125.491 C1679.26,125.631 1680.1,125.741 1680.96,125.741 C1681.41,125.741 1681.91,125.741 1682.46,125.694 C1684.01,125.537 1685.46,125.194 1686.81,124.694 C1688.16,124.194 1689.41,123.584 1690.46,122.881 C1691.51,122.194 1692.56,121.287 1693.51,120.287 C1694.46,119.287 1695.37,118.194 1696.12,117.084 C1696.87,115.991 1697.56,114.741 1698.31,113.334 C1699.46,111.037 1700.01,109.084 1700.01,107.537 C1700.01,105.991 1699.46,104.787 1698.31,103.944 C1697.66,103.381 1696.56,103.037 1695.12,102.787 C1694.06,102.631 1693.01,102.537 1691.96,102.537 L1691.71,102.537 L1690.6,102.537 C1689.06,102.584 1687.6,102.834 1686.21,103.287 C1684.81,103.741 1683.85,104.287 1683.35,104.944 C1683.21,105.194 1683.06,105.381 1682.91,105.584 C1682.56,106.131 1682.35,106.631 1682.35,107.084 C1682.35,107.741 1682.81,108.194 1683.66,108.444 C1684.35,108.631 1685.71,108.741 1687.66,108.741 L1688.1,108.741 C1688.76,108.787 1689.26,108.787 1689.6,108.787 C1691.66,108.787 1692.91,109.037 1693.31,109.584 C1693.46,109.787 1693.62,110.084 1693.62,110.381 C1693.62,110.694 1693.56,110.991 1693.51,111.287 C1693.46,111.584 1693.31,111.944 1693.16,112.334 C1693.01,112.741 1692.85,113.037 1692.71,113.287 C1692.56,113.537 1692.41,113.881 1692.21,114.287 C1692.01,114.694 1691.85,114.881 1691.81,114.991 C1691.56,115.444 1691.41,115.787 1691.26,116.037 C1691.1,116.287 1690.91,116.537 1690.66,116.881 C1690.41,117.241 1690.1,117.537 1689.85,117.741 C1688.81,118.537 1687.66,119.084 1686.31,119.334 L1684.6,119.537 L1684.41,119.537 C1683.76,119.491 1683.06,119.444 1682.41,119.287 C1681.16,119.037 1679.91,118.584 1678.76,117.881 C1677.6,117.194 1676.6,116.334 1675.85,115.334 C1675.1,114.287 1674.41,113.037 1673.91,111.631 C1673.41,110.241 1673.1,108.787 1673.01,107.241 C1672.96,106.694 1672.96,106.194 1672.96,105.631 C1672.96,104.631 1673.01,103.631 1673.16,102.694 C1673.41,101.241 1673.85,99.8343 1674.56,98.5374 C1675.26,97.2405 1676.16,96.178 1677.26,95.3812 C1678.6,94.3343 1680.26,93.5843 1682.16,93.0843 C1683.21,92.7874 1684.26,92.6312 1685.26,92.6312 C1685.96,92.6312 1686.66,92.7405 1687.31,92.8812 C1687.85,93.0374 1688.41,93.2405 1689.06,93.5374 C1689.71,93.8343 1690.26,94.1312 1690.76,94.428 C1691.26,94.7405 1691.81,95.0374 1692.35,95.3343 C1692.91,95.6312 1693.46,95.8812 1693.96,95.9905 C1694.46,96.0843 1694.96,96.1312 1695.46,96.0843 C1695.96,96.0374 1696.46,95.7874 1696.96,95.3343 C1697.46,94.8812 1697.91,94.2874 1698.37,93.5374 C1698.62,93.0843 1698.76,92.6312 1698.76,92.178 C1698.76,91.8343 1698.66,91.5374 1698.51,91.178 C1698.12,90.428 1697.46,89.7874 1696.56,89.2405 C1695.66,88.678 1694.71,88.178 1693.62,87.7874 C1692.51,87.3812 1691.46,87.1312 1690.41,86.9905 C1689.66,86.8343 1689.06,86.7874 1688.56,86.7874 C1688.31,86.7874 1688.1,86.7874 1687.96,86.8343"/>
<path class="Harmony" d="M2347.43,86.8343 C2345.48,87.0843 2343.63,87.5374 2341.82,88.178 C2340.02,88.8343 2338.38,89.7405 2336.77,90.7874 C2335.18,91.8343 2333.73,93.0374 2332.48,94.3812 C2331.23,95.7405 2330.18,97.2874 2329.27,99.0374 C2328.38,100.787 2327.77,102.631 2327.43,104.584 C2327.18,105.787 2327.07,107.037 2327.07,108.287 L2327.07,108.631 C2327.07,109.834 2327.13,110.991 2327.27,112.131 C2327.43,113.381 2327.73,114.631 2328.13,115.787 C2328.57,116.991 2329.07,118.131 2329.63,119.194 C2330.18,120.241 2330.88,121.194 2331.68,122.037 C2332.48,122.881 2333.48,123.584 2334.48,124.194 C2335.48,124.787 2336.63,125.241 2337.88,125.491 C2338.73,125.631 2339.57,125.741 2340.43,125.741 C2340.88,125.741 2341.38,125.741 2341.93,125.694 C2343.48,125.537 2344.93,125.194 2346.27,124.694 C2347.63,124.194 2348.88,123.584 2349.93,122.881 C2350.98,122.194 2352.02,121.287 2352.98,120.287 C2353.93,119.287 2354.83,118.194 2355.58,117.084 C2356.33,115.991 2357.02,114.741 2357.77,113.334 C2358.93,111.037 2359.48,109.084 2359.48,107.537 C2359.48,105.991 2358.93,104.787 2357.77,103.944 C2357.13,103.381 2356.02,103.037 2354.58,102.787 C2353.52,102.631 2352.48,102.537 2351.43,102.537 L2351.18,102.537 L2350.07,102.537 C2348.52,102.584 2347.07,102.834 2345.68,103.287 C2344.27,103.741 2343.32,104.287 2342.82,104.944 C2342.68,105.194 2342.52,105.381 2342.38,105.584 C2342.02,106.131 2341.82,106.631 2341.82,107.084 C2341.82,107.741 2342.27,108.194 2343.13,108.444 C2343.82,108.631 2345.18,108.741 2347.13,108.741 L2347.57,108.741 C2348.23,108.787 2348.73,108.787 2349.07,108.787 C2351.13,108.787 2352.38,109.037 2352.77,109.584 C2352.93,109.787 2353.08,110.084 2353.08,110.381 C2353.08,110.694 2353.02,110.991 2352.98,111.287 C2352.93,111.584 2352.77,111.944 2352.63,112.334 C2352.48,112.741 2352.32,113.037 2352.18,113.287 C2352.02,113.537 2351.88,113.881 2351.68,114.287 C2351.48,114.694 2351.32,114.881 2351.27,114.991 C2351.02,115.444 2350.88,115.787 2350.73,116.037 C2350.57,116.287 2350.38,116.537 2350.13,116.881 C2349.88,117.241 2349.57,117.537 2349.32,117.741 C2348.27,118.537 2347.13,119.084 2345.77,119.334 L2344.07,119.537 L2343.88,119.537 C2343.23,119.491 2342.52,119.444 2341.88,119.287 C2340.63,119.037 2339.38,118.584 2338.23,117.881 C2337.07,117.194 2336.07,116.334 2335.32,115.334 C2334.57,114.287 2333.88,113.037 2333.38,111.631 C2332.88,110.241 2332.57,108.787 2332.48,107.241 C2332.43,106.694 2332.43,106.194 2332.43,105.631 C2332.43,104.631 2332.48,103.631 2332.63,102.694 C2332.88,101.241 2333.32,99.8343 2334.02,98.5374 C2334.73,97.2405 2335.63,96.178 2336.73,95.3812 C2338.07,94.3343 2339.73,93.5843 2341.63,93.0843 C2342.68,92.7874 2343.73,92.6312 2344.73,92.6312 C2345.43,92.6312 2346.13,92.7405 2346.77,92.8812 C2347.32,93.0374 2347.88,93.2405 2348.52,93.5374 C2349.18,93.8343 2349.73,94.1312 2350.23,94.428 C2350.73,94.7405 2351.27,95.0374 2351.82,95.3343 C2352.38,95.6312 2352.93,95.8812 2353.43,95.9905 C2353.93,96.0843 2354.43,96.1312 2354.93,96.0843 C2355.43,96.0374 2355.93,95.7874 2356.43,95.3343 C2356.93,94.8812 2357.38,94.2874 2357.83,93.5374 C2358.08,93.0843 2358.23,92.6312 2358.23,92.178 C2358.23,91.8343 2358.13,91.5374 2357.98,91.178 C2357.58,90.428 2356.93,89.7874 2356.02,89.2405 C2355.13,88.678 2354.18,88.178 2353.08,87.7874 C2351.98,87.3812 2350.93,87.1312 2349.88,86.9905 C2349.13,86.8343 2348.52,86.7874 2348.02,86.7874 C2347.77,86.7874 2347.57,86.7874 2347.43,86.8343"/>
<path class="Harmony" d="M186.97,407.171 C187.627,408.03 188.08,409.171 188.423,410.624 C188.767,412.077 189.017,413.483 189.267,414.921 C189.517,416.374 189.673,417.733 189.72,418.921 L185.923,418.53 L181.83,418.921 L183.923,412.671 L186.97,407.171 M186.08,424.78 L187.08,424.78 L188.58,424.78 L188.97,424.78 L189.423,424.78 C189.47,424.78 189.627,424.827 189.83,424.827 C190.017,424.827 190.173,424.827 190.267,424.874 C190.377,424.921 190.47,424.983 190.627,425.03 C190.767,425.077 190.877,425.124 190.97,425.233 C191.08,425.327 191.22,425.374 191.33,425.483 C191.58,425.733 191.83,426.233 192.017,426.874 C192.22,427.483 192.423,428.124 192.58,428.874 C192.72,429.624 192.877,430.374 193.017,431.233 C193.173,432.077 193.377,432.827 193.58,433.53 C193.767,434.233 194.08,434.874 194.377,435.421 C194.673,435.983 195.017,436.327 195.47,436.53 C195.673,436.624 195.923,436.671 196.22,436.671 C196.47,436.671 196.783,436.624 197.08,436.53 C197.533,436.374 197.877,436.171 198.22,435.983 C198.58,435.78 198.83,435.577 199.033,435.327 C199.22,435.077 199.377,434.827 199.533,434.53 C199.673,434.233 199.783,434.03 199.83,433.78 C199.877,433.577 199.877,433.374 199.877,433.124 L199.877,432.874 C199.877,432.53 199.877,432.171 199.83,431.921 C199.783,431.671 199.673,431.374 199.58,430.983 C199.47,430.577 199.377,430.28 199.283,430.03 C199.173,429.78 199.127,429.421 198.97,428.983 C198.83,428.53 198.673,428.233 198.627,428.03 C198.283,427.03 197.673,425.03 196.83,422.077 C196.22,419.921 195.72,418.124 195.377,416.733 C194.72,414.171 194.173,412.077 193.767,410.421 C193.127,407.671 192.627,405.827 192.377,404.874 C192.33,404.671 192.267,404.374 192.173,403.967 C192.08,403.577 192.017,403.217 191.97,402.921 C191.923,402.624 191.767,402.327 191.673,401.921 C191.58,401.53 191.47,401.124 191.377,400.827 C191.267,400.53 191.08,400.171 190.923,399.827 C190.767,399.467 190.58,399.217 190.377,398.967 C190.173,398.717 190.017,398.53 189.767,398.327 C189.517,398.124 189.267,397.921 188.97,397.874 C188.72,397.827 188.47,397.78 188.173,397.78 L187.97,397.78 C187.627,397.827 187.22,397.874 186.767,398.03 C186.423,398.171 186.017,398.374 185.673,398.624 C185.33,398.874 184.97,399.077 184.72,399.327 C184.47,399.577 184.22,399.921 183.97,400.327 C183.72,400.717 183.47,401.03 183.33,401.327 C183.173,401.624 182.97,402.03 182.767,402.53 C182.58,403.03 182.377,403.421 182.267,403.717 C182.173,404.03 182.08,404.421 181.877,404.921 C181.673,405.421 181.517,405.78 181.47,406.03 C180.017,409.671 178.58,413.124 177.127,416.483 C174.767,421.827 173.377,425.077 172.97,426.28 C172.923,426.483 172.72,426.827 172.47,427.374 C172.22,427.921 171.923,428.421 171.673,428.921 C171.423,429.421 171.173,430.077 170.877,430.733 C170.58,431.374 170.33,432.03 170.173,432.577 C169.97,433.124 169.877,433.624 169.877,434.077 C169.923,434.53 170.017,434.827 170.267,435.077 C170.72,435.421 171.22,435.624 171.767,435.624 L172.127,435.624 C172.83,435.53 173.517,435.327 174.22,434.921 C174.923,434.53 175.423,434.077 175.673,433.624 C175.97,433.077 176.267,432.421 176.517,431.624 C176.767,430.827 177.017,430.077 177.173,429.421 C177.33,428.78 177.517,428.077 177.877,427.327 C178.22,426.577 178.627,425.983 179.08,425.483 L181.767,424.624 C181.923,424.577 182.127,424.624 182.47,424.624 L183.923,424.624 C184.08,424.624 184.83,424.671 186.08,424.78"/>
<path class="Harmony" d="M880.593,407.171 C881.249,408.03 881.702,409.171 882.046,410.624 C882.389,412.077 882.639,413.483 882.889,414.921 C883.139,416.374 883.296,417.733 883.343,418.921 L879.546,418.53 L875.452,418.921 L877.546,412.671 L880.593,407.171 M879.702,424.78 L880.702,424.78 L882.202,424.78 L882.593,424.78 L883.046,424.78 C883.093,424.78 883.249,424.827 883.452,424.827 C883.639,424.827 883.796,424.827 883.889,424.874 C883.999,424.921 884.093,424.983 884.249,425.03 C884.389,425.077 884.499,425.124 884.593,425.233 C884.702,425.327 884.843,425.374 884.952,425.483 C885.202,425.733 885.452,426.233 885.639,426.874 C885.843,427.483 886.046,428.124 886.202,428.874 C886.343,429.624 886.499,430.374 886.639,431.233 C886.796,432.077 886.999,432.827 887.202,433.53 C887.389,434.233 887.702,434.874 887.999,435.421 C888.296,435.983 888.639,436.327 889.093,436.53 C889.296,436.624 889.546,436.671 889.843,436.671 C890.093,436.671 890.405,436.624 890.702,436.53 C891.155,436.374 891.499,436.171 891.843,435.983 C892.202,435.78 892.452,435.577 892.655,435.327 C892.843,435.077 892.999,434.827 893.155,434.53 C893.296,434.233 893.405,434.03 893.452,433.78 C893.499,433.577 893.499,433.374 893.499,433.124 L893.499,432.874 C893.499,432.53 893.499,432.171 893.452,431.921 C893.405,431.671 893.296,431.374 893.202,430.983 C893.093,430.577 892.999,430.28 892.905,430.03 C892.796,429.78 892.749,429.421 892.593,428.983 C892.452,428.53 892.296,428.233 892.249,428.03 C891.905,427.03 891.296,425.03 890.452,422.077 C889.843,419.921 889.343,418.124 888.999,416.733 C888.343,414.171 887.796,412.077 887.389,410.421 C886.749,407.671 886.249,405.827 885.999,404.874 C885.952,404.671 885.889,404.374 885.796,403.967 C885.702,403.577 885.639,403.217 885.593,402.921 C885.546,402.624 885.389,402.327 885.296,401.921 C885.202,401.53 885.093,401.124 884.999,400.827 C884.889,400.53 884.702,400.171 884.546,399.827 C884.389,399.467 884.202,399.217 883.999,398.967 C883.796,398.717 883.639,398.53 883.389,398.327 C883.139,398.124 882.889,397.921 882.593,397.874 C882.343,397.827 882.093,397.78 881.796,397.78 L881.593,397.78 C881.249,397.827 880.843,397.874 880.389,398.03 C880.046,398.171 879.639,398.374 879.296,398.624 C878.952,398.874 878.593,399.077 878.343,399.327 C878.093,399.577 877.843,399.921 877.593,400.327 C877.343,400.717 877.093,401.03 876.952,401.327 C876.796,401.624 876.593,402.03 876.389,402.53 C876.202,403.03 875.999,403.421 875.889,403.717 C875.796,404.03 875.702,404.421 875.499,404.921 C875.296,405.421 875.139,405.78 875.093,406.03 C873.639,409.671 872.202,413.124 870.749,416.483 C868.389,421.827 866.999,425.077 866.593,426.28 C866.546,426.483 866.343,426.827 866.093,427.374 C865.843,427.921 865.546,428.421 865.296,428.921 C865.046,429.421 864.796,430.077 864.499,430.733 C864.202,431.374 863.952,432.03 863.796,432.577 C863.593,433.124 863.499,433.624 863.499,434.077 C863.546,434.53 863.639,434.827 863.889,435.077 C864.343,435.421 864.843,435.624 865.389,435.624 L865.749,435.624 C866.452,435.53 867.139,435.327 867.843,434.921 C868.546,434.53 869.046,434.077 869.296,433.624 C869.593,433.077 869.889,432.421 870.139,431.624 C870.389,430.827 870.639,430.077 870.796,429.421 C870.952,428.78 871.139,428.077 871.499,427.327 C871.843,426.577 872.249,425.983 872.702,425.483 L875.389,424.624 C875.546,424.577 875.749,424.624 876.093,424.624 L877.546,424.624 C877.702,424.624 878.452,424.671 879.702,424.78"/>
<path class="Harmony" d="M1191.04,396.671 C1190.79,396.717 1190.38,396.78 1189.74,396.827 C1189.08,396.874 1188.58,396.967 1188.24,397.03 C1187.88,397.077 1187.38,397.124 1186.79,397.217 C1186.18,397.327 1185.74,397.467 1185.33,397.624 C1184.93,397.78 1184.49,397.967 1184.08,398.217 C1183.68,398.467 1183.33,398.717 1183.08,399.077 C1182.74,399.421 1182.49,399.827 1182.29,400.217 C1182.08,400.624 1181.93,401.124 1181.88,401.624 C1181.83,401.967 1181.83,402.327 1181.83,402.671 L1181.83,402.967 C1181.88,403.327 1181.88,403.827 1181.93,404.421 C1181.99,405.03 1181.99,405.53 1181.99,405.874 C1181.99,411.577 1182.13,417.171 1182.38,422.733 C1182.43,423.03 1182.43,423.327 1182.43,423.671 C1182.38,424.733 1182.33,426.124 1182.24,427.78 C1182.08,429.733 1181.99,431.171 1181.99,432.124 L1181.99,432.421 L1181.99,433.28 C1181.99,433.53 1182.08,433.78 1182.13,434.077 C1182.18,434.374 1182.29,434.624 1182.43,434.78 C1182.58,434.921 1182.74,435.077 1182.99,435.233 C1183.18,435.327 1183.43,435.374 1183.74,435.374 L1183.88,435.374 C1185.63,435.327 1187.38,434.983 1189.13,434.327 C1190.88,433.671 1192.54,432.874 1194.08,431.827 C1195.63,430.78 1197.08,429.53 1198.49,428.077 C1199.88,426.624 1201.08,425.124 1202.08,423.53 C1203.08,421.921 1203.93,420.28 1204.58,418.53 C1205.24,416.78 1205.58,415.03 1205.68,413.374 C1205.74,413.03 1205.74,412.624 1205.74,412.28 C1205.74,411.327 1205.63,410.327 1205.43,409.327 C1205.18,407.921 1204.79,406.53 1204.24,405.217 C1203.68,403.921 1202.99,402.717 1202.08,401.577 C1201.18,400.421 1200.18,399.467 1199.08,398.671 C1197.99,397.874 1196.79,397.28 1195.38,396.921 C1194.49,396.671 1193.54,396.577 1192.58,396.577 C1192.08,396.577 1191.58,396.624 1191.04,396.671 M1187.93,428.983 C1187.93,427.53 1187.99,425.421 1188.04,422.733 C1188.08,420.577 1188.13,418.53 1188.13,416.671 C1188.13,416.233 1188.08,415.78 1188.08,415.327 C1188.08,413.124 1188.04,410.983 1187.93,408.967 C1187.93,408.717 1187.88,408.28 1187.79,407.53 C1187.68,406.78 1187.54,406.077 1187.49,405.421 C1187.43,405.124 1187.43,404.827 1187.43,404.53 C1187.43,404.171 1187.43,403.874 1187.49,403.53 C1187.58,402.874 1187.79,402.374 1188.13,402.124 C1188.58,401.78 1189.08,401.624 1189.63,401.624 C1189.79,401.671 1189.93,401.671 1190.08,401.671 C1190.83,401.78 1191.63,402.03 1192.49,402.467 C1193.33,402.921 1194.13,403.53 1194.88,404.124 C1195.63,404.717 1196.33,405.327 1196.88,405.921 C1197.43,406.53 1197.88,406.967 1198.13,407.421 C1198.93,408.717 1199.49,410.171 1199.79,411.78 C1199.93,412.671 1200.04,413.577 1200.04,414.483 C1200.04,415.124 1199.99,415.78 1199.93,416.421 C1199.68,417.983 1199.24,419.483 1198.58,420.921 C1197.93,422.374 1197.08,423.671 1196.08,424.827 C1195.04,425.983 1193.83,426.874 1192.43,427.624 C1191.04,428.374 1189.54,428.827 1187.93,428.983"/>
<path class="Harmony" d="M1577.37,396.874 C1575.42,397.124 1573.57,397.577 1571.76,398.217 C1569.96,398.874 1568.32,399.78 1566.71,400.827 C1565.12,401.874 1563.67,403.077 1562.42,404.421 C1561.17,405.78 1560.12,407.327 1559.21,409.077 C1558.32,410.827 1557.71,412.671 1557.37,414.624 C1557.12,415.827 1557.01,417.077 1557.01,418.327 L1557.01,418.671 C1557.01,419.874 1557.07,421.03 1557.21,422.171 C1557.37,423.421 1557.67,424.671 1558.07,425.827 C1558.51,427.03 1559.01,428.171 1559.57,429.233 C1560.12,430.28 1560.82,431.233 1561.62,432.077 C1562.42,432.921 1563.42,433.624 1564.42,434.233 C1565.42,434.827 1566.57,435.28 1567.82,435.53 C1568.67,435.671 1569.51,435.78 1570.37,435.78 C1570.82,435.78 1571.32,435.78 1571.87,435.733 C1573.42,435.577 1574.87,435.233 1576.21,434.733 C1577.57,434.233 1578.82,433.624 1579.87,432.921 C1580.92,432.233 1581.96,431.327 1582.92,430.327 C1583.87,429.327 1584.78,428.233 1585.53,427.124 C1586.28,426.03 1586.96,424.78 1587.71,423.374 C1588.87,421.077 1589.42,419.124 1589.42,417.577 C1589.42,416.03 1588.87,414.827 1587.71,413.983 C1587.07,413.421 1585.96,413.077 1584.53,412.827 C1583.46,412.671 1582.42,412.577 1581.37,412.577 L1581.12,412.577 L1580.01,412.577 C1578.46,412.624 1577.01,412.874 1575.62,413.327 C1574.21,413.78 1573.26,414.327 1572.76,414.983 C1572.62,415.233 1572.46,415.421 1572.32,415.624 C1571.96,416.171 1571.76,416.671 1571.76,417.124 C1571.76,417.78 1572.21,418.233 1573.07,418.483 C1573.76,418.671 1575.12,418.78 1577.07,418.78 L1577.51,418.78 C1578.17,418.827 1578.67,418.827 1579.01,418.827 C1581.07,418.827 1582.32,419.077 1582.71,419.624 C1582.87,419.827 1583.03,420.124 1583.03,420.421 C1583.03,420.733 1582.96,421.03 1582.92,421.327 C1582.87,421.624 1582.71,421.983 1582.57,422.374 C1582.42,422.78 1582.26,423.077 1582.12,423.327 C1581.96,423.577 1581.82,423.921 1581.62,424.327 C1581.42,424.733 1581.26,424.921 1581.21,425.03 C1580.96,425.483 1580.82,425.827 1580.67,426.077 C1580.51,426.327 1580.32,426.577 1580.07,426.921 C1579.82,427.28 1579.51,427.577 1579.26,427.78 C1578.21,428.577 1577.07,429.124 1575.71,429.374 L1574.01,429.577 L1573.82,429.577 C1573.17,429.53 1572.46,429.483 1571.82,429.327 C1570.57,429.077 1569.32,428.624 1568.17,427.921 C1567.01,427.233 1566.01,426.374 1565.26,425.374 C1564.51,424.327 1563.82,423.077 1563.32,421.671 C1562.82,420.28 1562.51,418.827 1562.42,417.28 C1562.37,416.733 1562.37,416.233 1562.37,415.671 C1562.37,414.671 1562.42,413.671 1562.57,412.733 C1562.82,411.28 1563.26,409.874 1563.96,408.577 C1564.67,407.28 1565.57,406.217 1566.67,405.421 C1568.01,404.374 1569.67,403.624 1571.57,403.124 C1572.62,402.827 1573.67,402.671 1574.67,402.671 C1575.37,402.671 1576.07,402.78 1576.71,402.921 C1577.26,403.077 1577.82,403.28 1578.46,403.577 C1579.12,403.874 1579.67,404.171 1580.17,404.467 C1580.67,404.78 1581.21,405.077 1581.76,405.374 C1582.32,405.671 1582.87,405.921 1583.37,406.03 C1583.87,406.124 1584.37,406.171 1584.87,406.124 C1585.37,406.077 1585.87,405.827 1586.37,405.374 C1586.87,404.921 1587.32,404.327 1587.78,403.577 C1588.03,403.124 1588.17,402.671 1588.17,402.217 C1588.17,401.874 1588.07,401.577 1587.92,401.217 C1587.53,400.467 1586.87,399.827 1585.96,399.28 C1585.07,398.717 1584.12,398.217 1583.03,397.827 C1581.92,397.421 1580.87,397.171 1579.82,397.03 C1579.07,396.874 1578.46,396.827 1577.96,396.827 C1577.71,396.827 1577.51,396.827 1577.37,396.874"/>
<path class="Harmony" d="M2270.99,396.874 C2269.04,397.124 2267.2,397.577 2265.38,398.217 C2263.59,398.874 2261.95,399.78 2260.34,400.827 C2258.74,401.874 2257.29,403.077 2256.04,404.421 C2254.79,405.78 2253.74,407.327 2252.84,409.077 C2251.95,410.827 2251.34,412.671 2250.99,414.624 C2250.74,415.827 2250.63,417.077 2250.63,418.327 L2250.63,418.671 C2250.63,419.874 2250.7,421.03 2250.84,422.171 C2250.99,423.421 2251.29,424.671 2251.7,425.827 C2252.13,427.03 2252.63,428.171 2253.2,429.233 C2253.74,430.28 2254.45,431.233 2255.24,432.077 C2256.04,432.921 2257.04,433.624 2258.04,434.233 C2259.04,434.827 2260.2,435.28 2261.45,435.53 C2262.29,435.671 2263.13,435.78 2263.99,435.78 C2264.45,435.78 2264.95,435.78 2265.49,435.733 C2267.04,435.577 2268.49,435.233 2269.84,434.733 C2271.2,434.233 2272.45,433.624 2273.49,432.921 C2274.54,432.233 2275.59,431.327 2276.54,430.327 C2277.49,429.327 2278.4,428.233 2279.15,427.124 C2279.9,426.03 2280.59,424.78 2281.34,423.374 C2282.49,421.077 2283.04,419.124 2283.04,417.577 C2283.04,416.03 2282.49,414.827 2281.34,413.983 C2280.7,413.421 2279.59,413.077 2278.15,412.827 C2277.09,412.671 2276.04,412.577 2274.99,412.577 L2274.74,412.577 L2273.63,412.577 C2272.09,412.624 2270.63,412.874 2269.24,413.327 C2267.84,413.78 2266.88,414.327 2266.38,414.983 C2266.24,415.233 2266.09,415.421 2265.95,415.624 C2265.59,416.171 2265.38,416.671 2265.38,417.124 C2265.38,417.78 2265.84,418.233 2266.7,418.483 C2267.38,418.671 2268.74,418.78 2270.7,418.78 L2271.13,418.78 C2271.79,418.827 2272.29,418.827 2272.63,418.827 C2274.7,418.827 2275.95,419.077 2276.34,419.624 C2276.49,419.827 2276.65,420.124 2276.65,420.421 C2276.65,420.733 2276.59,421.03 2276.54,421.327 C2276.49,421.624 2276.34,421.983 2276.2,422.374 C2276.04,422.78 2275.88,423.077 2275.74,423.327 C2275.59,423.577 2275.45,423.921 2275.24,424.327 C2275.04,424.733 2274.88,424.921 2274.84,425.03 C2274.59,425.483 2274.45,425.827 2274.29,426.077 C2274.13,426.327 2273.95,426.577 2273.7,426.921 C2273.45,427.28 2273.13,427.577 2272.88,427.78 C2271.84,428.577 2270.7,429.124 2269.34,429.374 L2267.63,429.577 L2267.45,429.577 C2266.79,429.53 2266.09,429.483 2265.45,429.327 C2264.2,429.077 2262.95,428.624 2261.79,427.921 C2260.63,427.233 2259.63,426.374 2258.88,425.374 C2258.13,424.327 2257.45,423.077 2256.95,421.671 C2256.45,420.28 2256.13,418.827 2256.04,417.28 C2255.99,416.733 2255.99,416.233 2255.99,415.671 C2255.99,414.671 2256.04,413.671 2256.2,412.733 C2256.45,411.28 2256.88,409.874 2257.59,408.577 C2258.29,407.28 2259.2,406.217 2260.29,405.421 C2261.63,404.374 2263.29,403.624 2265.2,403.124 C2266.24,402.827 2267.29,402.671 2268.29,402.671 C2268.99,402.671 2269.7,402.78 2270.34,402.921 C2270.88,403.077 2271.45,403.28 2272.09,403.577 C2272.74,403.874 2273.29,404.171 2273.79,404.467 C2274.29,404.78 2274.84,405.077 2275.38,405.374 C2275.95,405.671 2276.49,405.921 2276.99,406.03 C2277.49,406.124 2277.99,406.171 2278.49,406.124 C2278.99,406.077 2279.49,405.827 2279.99,405.374 C2280.49,404.921 2280.95,404.327 2281.4,403.577 C2281.65,403.124 2281.79,402.671 2281.79,402.217 C2281.79,401.874 2281.7,401.577 2281.54,401.217 C2281.15,400.467 2280.49,399.827 2279.59,399.28 C2278.7,398.717 2277.74,398.217 2276.65,397.827 C2275.54,397.421 2274.49,397.171 2273.45,397.03 C2272.7,396.874 2272.09,396.827 2271.59,396.827 C2271.34,396.827 2271.13,396.827 2270.99,396.874"/>
<path class="Harmony" d="M186.97,717.21 C187.627,718.069 188.08,719.21 188.423,720.663 C188.767,722.116 189.017,723.522 189.267,724.96 C189.517,726.413 189.673,727.772 189.72,728.96 L185.923,728.569 L181.83,728.96 L183.923,722.71 L186.97,717.21 M186.08,734.819 L187.08,734.819 L188.58,734.819 L188.97,734.819 L189.423,734.819 C189.47,734.819 189.627,734.866 189.83,734.866 C190.017,734.866 190.173,734.866 190.267,734.913 C190.377,734.96 190.47,735.022 190.627,735.069 C190.767,735.116 190.877,735.163 190.97,735.272 C191.08,735.366 191.22,735.413 191.33,735.522 C191.58,735.772 191.83,736.272 192.017,736.913 C192.22,737.522 192.423,738.163 192.58,738.913 C192.72,739.663 192.877,740.413 193.017,741.272 C193.173,742.116 193.377,742.866 193.58,743.569 C193.767,744.272 194.08,744.913 194.377,745.46 C194.673,746.022 195.017,746.366 195.47,746.569 C195.673,746.663 195.923,746.71 196.22,746.71 C196.47,746.71 196.783,746.663 197.08,746.569 C197.533,746.413 197.877,746.21 198.22,746.022 C198.58,745.819 198.83,745.616 199.033,745.366 C199.22,745.116 199.377,744.866 199.533,744.569 C199.673,744.272 199.783,744.069 199.83,743.819 C199.877,743.616 199.877,743.413 199.877,743.163 L199.877,742.913 C199.877,742.569 199.877,742.21 199.83,741.96 C199.783,741.71 199.673,741.413 199.58,741.022 C199.47,740.616 199.377,740.319 199.283,740.069 C199.173,739.819 199.127,739.46 198.97,739.022 C198.83,738.569 198.673,738.272 198.627,738.069 C198.283,737.069 197.673,735.069 196.83,732.116 C196.22,729.96 195.72,728.163 195.377,726.772 C194.72,724.21 194.173,722.116 193.767,720.46 C193.127,717.71 192.627,715.866 192.377,714.913 C192.33,714.71 192.267,714.413 192.173,714.007 C192.08,713.616 192.017,713.257 191.97,712.96 C191.923,712.663 191.767,712.366 191.673,711.96 C191.58,711.569 191.47,711.163 191.377,710.866 C191.267,710.569 191.08,710.21 190.923,709.866 C190.767,709.507 190.58,709.257 190.377,709.007 C190.173,708.757 190.017,708.569 189.767,708.366 C189.517,708.163 189.267,707.96 188.97,707.913 C188.72,707.866 188.47,707.819 188.173,707.819 L187.97,707.819 C187.627,707.866 187.22,707.913 186.767,708.069 C186.423,708.21 186.017,708.413 185.673,708.663 C185.33,708.913 184.97,709.116 184.72,709.366 C184.47,709.616 184.22,709.96 183.97,710.366 C183.72,710.757 183.47,711.069 183.33,711.366 C183.173,711.663 182.97,712.069 182.767,712.569 C182.58,713.069 182.377,713.46 182.267,713.757 C182.173,714.069 182.08,714.46 181.877,714.96 C181.673,715.46 181.517,715.819 181.47,716.069 C180.017,719.71 178.58,723.163 177.127,726.522 C174.767,731.866 173.377,735.116 172.97,736.319 C172.923,736.522 172.72,736.866 172.47,737.413 C172.22,737.96 171.923,738.46 171.673,738.96 C171.423,739.46 171.173,740.116 170.877,740.772 C170.58,741.413 170.33,742.069 170.173,742.616 C169.97,743.163 169.877,743.663 169.877,744.116 C169.923,744.569 170.017,744.866 170.267,745.116 C170.72,745.46 171.22,745.663 171.767,745.663 L172.127,745.663 C172.83,745.569 173.517,745.366 174.22,744.96 C174.923,744.569 175.423,744.116 175.673,743.663 C175.97,743.116 176.267,742.46 176.517,741.663 C176.767,740.866 177.017,740.116 177.173,739.46 C177.33,738.819 177.517,738.116 177.877,737.366 C178.22,736.616 178.627,736.022 179.08,735.522 L181.767,734.663 C181.923,734.616 182.127,734.663 182.47,734.663 L183.923,734.663 C184.08,734.663 184.83,734.71 186.08,734.819"/>
<path class="Harmony" d="M891.163,717.21 C891.819,718.069 892.272,719.21 892.616,720.663 C892.959,722.116 893.209,723.522 893.459,724.96 C893.709,726.413 893.866,727.772 893.913,728.96 L890.116,728.569 L886.022,728.96 L888.116,722.71 L891.163,717.21 M890.272,734.819 L891.272,734.819 L892.772,734.819 L893.163,734.819 L893.616,734.819 C893.663,734.819 893.819,734.866 894.022,734.866 C894.209,734.866 894.366,734.866 894.459,734.913 C894.569,734.96 894.663,735.022 894.819,735.069 C894.959,735.116 895.069,735.163 895.163,735.272 C895.272,735.366 895.413,735.413 895.522,735.522 C895.772,735.772 896.022,736.272 896.209,736.913 C896.413,737.522 896.616,738.163 896.772,738.913 C896.913,739.663 897.069,740.413 897.209,741.272 C897.366,742.116 897.569,742.866 897.772,743.569 C897.959,744.272 898.272,744.913 898.569,745.46 C898.866,746.022 899.209,746.366 899.663,746.569 C899.866,746.663 900.116,746.71 900.413,746.71 C900.663,746.71 900.975,746.663 901.272,746.569 C901.725,746.413 902.069,746.21 902.413,746.022 C902.772,745.819 903.022,745.616 903.225,745.366 C903.413,745.116 903.569,744.866 903.725,744.569 C903.866,744.272 903.975,744.069 904.022,743.819 C904.069,743.616 904.069,743.413 904.069,743.163 L904.069,742.913 C904.069,742.569 904.069,742.21 904.022,741.96 C903.975,741.71 903.866,741.413 903.772,741.022 C903.663,740.616 903.569,740.319 903.475,740.069 C903.366,739.819 903.319,739.46 903.163,739.022 C903.022,738.569 902.866,738.272 902.819,738.069 C902.475,737.069 901.866,735.069 901.022,732.116 C900.413,729.96 899.913,728.163 899.569,726.772 C898.913,724.21 898.366,722.116 897.959,720.46 C897.319,717.71 896.819,715.866 896.569,714.913 C896.522,714.71 896.459,714.413 896.366,714.007 C896.272,713.616 896.209,713.257 896.163,712.96 C896.116,712.663 895.959,712.366 895.866,711.96 C895.772,711.569 895.663,711.163 895.569,710.866 C895.459,710.569 895.272,710.21 895.116,709.866 C894.959,709.507 894.772,709.257 894.569,709.007 C894.366,708.757 894.209,708.569 893.959,708.366 C893.709,708.163 893.459,707.96 893.163,707.913 C892.913,707.866 892.663,707.819 892.366,707.819 L892.163,707.819 C891.819,707.866 891.413,707.913 890.959,708.069 C890.616,708.21 890.209,708.413 889.866,708.663 C889.522,708.913 889.163,709.116 888.913,709.366 C888.663,709.616 888.413,709.96 888.163,710.366 C887.913,710.757 887.663,711.069 887.522,711.366 C887.366,711.663 887.163,712.069 886.959,712.569 C886.772,713.069 886.569,713.46 886.459,713.757 C886.366,714.069 886.272,714.46 886.069,714.96 C885.866,715.46 885.709,715.819 885.663,716.069 C884.209,719.71 882.772,723.163 881.319,726.522 C878.959,731.866 877.569,735.116 877.163,736.319 C877.116,736.522 876.913,736.866 876.663,737.413 C876.413,737.96 876.116,738.46 875.866,738.96 C875.616,739.46 875.366,740.116 875.069,740.772 C874.772,741.413 874.522,742.069 874.366,742.616 C874.163,743.163 874.069,743.663 874.069,744.116 C874.116,744.569 874.209,744.866 874.459,745.116 C874.913,745.46 875.413,745.663 875.959,745.663 L876.319,745.663 C877.022,745.569 877.709,745.366 878.413,744.96 C879.116,744.569 879.616,744.116 879.866,743.663 C880.163,743.116 880.459,742.46 880.709,741.663 C880.959,740.866 881.209,740.116 881.366,739.46 C881.522,738.819 881.709,738.116 882.069,737.366 C882.413,736.616 882.819,736.022 883.272,735.522 L885.959,734.663 C886.116,734.616 886.319,734.663 886.663,734.663 L888.116,734.663 C888.272,734.663 889.022,734.71 890.272,734.819"/>
<path class="Harmony" d="M1598.51,706.913 C1596.56,707.163 1594.71,707.616 1592.9,708.257 C1591.1,708.913 1589.46,709.819 1587.85,710.866 C1586.26,711.913 1584.81,713.116 1583.56,714.46 C1582.31,715.819 1581.26,717.366 1580.35,719.116 C1579.46,720.866 1578.85,722.71 1578.51,724.663 C1578.26,725.866 1578.15,727.116 1578.15,728.366 L1578.15,728.71 C1578.15,729.913 1578.21,731.069 1578.35,732.21 C1578.51,733.46 1578.81,734.71 1579.21,735.866 C1579.65,737.069 1580.15,738.21 1580.71,739.272 C1581.26,740.319 1581.96,741.272 1582.76,742.116 C1583.56,742.96 1584.56,743.663 1585.56,744.272 C1586.56,744.866 1587.71,745.319 1588.96,745.569 C1589.81,745.71 1590.65,745.819 1591.51,745.819 C1591.96,745.819 1592.46,745.819 1593.01,745.772 C1594.56,745.616 1596.01,745.272 1597.35,744.772 C1598.71,744.272 1599.96,743.663 1601.01,742.96 C1602.06,742.272 1603.1,741.366 1604.06,740.366 C1605.01,739.366 1605.92,738.272 1606.67,737.163 C1607.42,736.069 1608.1,734.819 1608.85,733.413 C1610.01,731.116 1610.56,729.163 1610.56,727.616 C1610.56,726.069 1610.01,724.866 1608.85,724.022 C1608.21,723.46 1607.1,723.116 1605.67,722.866 C1604.6,722.71 1603.56,722.616 1602.51,722.616 L1602.26,722.616 L1601.15,722.616 C1599.6,722.663 1598.15,722.913 1596.76,723.366 C1595.35,723.819 1594.4,724.366 1593.9,725.022 C1593.76,725.272 1593.6,725.46 1593.46,725.663 C1593.1,726.21 1592.9,726.71 1592.9,727.163 C1592.9,727.819 1593.35,728.272 1594.21,728.522 C1594.9,728.71 1596.26,728.819 1598.21,728.819 L1598.65,728.819 C1599.31,728.866 1599.81,728.866 1600.15,728.866 C1602.21,728.866 1603.46,729.116 1603.85,729.663 C1604.01,729.866 1604.17,730.163 1604.17,730.46 C1604.17,730.772 1604.1,731.069 1604.06,731.366 C1604.01,731.663 1603.85,732.022 1603.71,732.413 C1603.56,732.819 1603.4,733.116 1603.26,733.366 C1603.1,733.616 1602.96,733.96 1602.76,734.366 C1602.56,734.772 1602.4,734.96 1602.35,735.069 C1602.1,735.522 1601.96,735.866 1601.81,736.116 C1601.65,736.366 1601.46,736.616 1601.21,736.96 C1600.96,737.319 1600.65,737.616 1600.4,737.819 C1599.35,738.616 1598.21,739.163 1596.85,739.413 L1595.15,739.616 L1594.96,739.616 C1594.31,739.569 1593.6,739.522 1592.96,739.366 C1591.71,739.116 1590.46,738.663 1589.31,737.96 C1588.15,737.272 1587.15,736.413 1586.4,735.413 C1585.65,734.366 1584.96,733.116 1584.46,731.71 C1583.96,730.319 1583.65,728.866 1583.56,727.319 C1583.51,726.772 1583.51,726.272 1583.51,725.71 C1583.51,724.71 1583.56,723.71 1583.71,722.772 C1583.96,721.319 1584.4,719.913 1585.1,718.616 C1585.81,717.319 1586.71,716.257 1587.81,715.46 C1589.15,714.413 1590.81,713.663 1592.71,713.163 C1593.76,712.866 1594.81,712.71 1595.81,712.71 C1596.51,712.71 1597.21,712.819 1597.85,712.96 C1598.4,713.116 1598.96,713.319 1599.6,713.616 C1600.26,713.913 1600.81,714.21 1601.31,714.507 C1601.81,714.819 1602.35,715.116 1602.9,715.413 C1603.46,715.71 1604.01,715.96 1604.51,716.069 C1605.01,716.163 1605.51,716.21 1606.01,716.163 C1606.51,716.116 1607.01,715.866 1607.51,715.413 C1608.01,714.96 1608.46,714.366 1608.92,713.616 C1609.17,713.163 1609.31,712.71 1609.31,712.257 C1609.31,711.913 1609.21,711.616 1609.06,711.257 C1608.67,710.507 1608.01,709.866 1607.1,709.319 C1606.21,708.757 1605.26,708.257 1604.17,707.866 C1603.06,707.46 1602.01,707.21 1600.96,707.069 C1600.21,706.913 1599.6,706.866 1599.1,706.866 C1598.85,706.866 1598.65,706.866 1598.51,706.913"/>
<path class="Harmony" d="M2302.7,706.913 C2300.75,707.163 2298.91,707.616 2297.09,708.257 C2295.3,708.913 2293.66,709.819 2292.05,710.866 C2290.45,711.913 2289,713.116 2287.75,714.46 C2286.5,715.819 2285.45,717.366 2284.55,719.116 C2283.66,720.866 2283.05,722.71 2282.7,724.663 C2282.45,725.866 2282.34,727.116 2282.34,728.366 L2282.34,728.71 C2282.34,729.913 2282.41,731.069 2282.55,732.21 C2282.7,733.46 2283,734.71 2283.41,735.866 C2283.84,737.069 2284.34,738.21 2284.91,739.272 C2285.45,740.319 2286.16,741.272 2286.95,742.116 C2287.75,742.96 2288.75,743.663 2289.75,744.272 C2290.75,744.866 2291.91,745.319 2293.16,745.569 C2294,745.71 2294.84,745.819 2295.7,745.819 C2296.16,745.819 2296.66,745.819 2297.2,745.772 C2298.75,745.616 2300.2,745.272 2301.55,744.772 C2302.91,744.272 2304.16,743.663 2305.2,742.96 C2306.25,742.272 2307.3,741.366 2308.25,740.366 C2309.2,739.366 2310.11,738.272 2310.86,737.163 C2311.61,736.069 2312.3,734.819 2313.05,733.413 C2314.2,731.116 2314.75,729.163 2314.75,727.616 C2314.75,726.069 2314.2,724.866 2313.05,724.022 C2312.41,723.46 2311.3,723.116 2309.86,722.866 C2308.8,722.71 2307.75,722.616 2306.7,722.616 L2306.45,722.616 L2305.34,722.616 C2303.8,722.663 2302.34,722.913 2300.95,723.366 C2299.55,723.819 2298.59,724.366 2298.09,725.022 C2297.95,725.272 2297.8,725.46 2297.66,725.663 C2297.3,726.21 2297.09,726.71 2297.09,727.163 C2297.09,727.819 2297.55,728.272 2298.41,728.522 C2299.09,728.71 2300.45,728.819 2302.41,728.819 L2302.84,728.819 C2303.5,728.866 2304,728.866 2304.34,728.866 C2306.41,728.866 2307.66,729.116 2308.05,729.663 C2308.2,729.866 2308.36,730.163 2308.36,730.46 C2308.36,730.772 2308.3,731.069 2308.25,731.366 C2308.2,731.663 2308.05,732.022 2307.91,732.413 C2307.75,732.819 2307.59,733.116 2307.45,733.366 C2307.3,733.616 2307.16,733.96 2306.95,734.366 C2306.75,734.772 2306.59,734.96 2306.55,735.069 C2306.3,735.522 2306.16,735.866 2306,736.116 C2305.84,736.366 2305.66,736.616 2305.41,736.96 C2305.16,737.319 2304.84,737.616 2304.59,737.819 C2303.55,738.616 2302.41,739.163 2301.05,739.413 L2299.34,739.616 L2299.16,739.616 C2298.5,739.569 2297.8,739.522 2297.16,739.366 C2295.91,739.116 2294.66,738.663 2293.5,737.96 C2292.34,737.272 2291.34,736.413 2290.59,735.413 C2289.84,734.366 2289.16,733.116 2288.66,731.71 C2288.16,730.319 2287.84,728.866 2287.75,727.319 C2287.7,726.772 2287.7,726.272 2287.7,725.71 C2287.7,724.71 2287.75,723.71 2287.91,722.772 C2288.16,721.319 2288.59,719.913 2289.3,718.616 C2290,717.319 2290.91,716.257 2292,715.46 C2293.34,714.413 2295,713.663 2296.91,713.163 C2297.95,712.866 2299,712.71 2300,712.71 C2300.7,712.71 2301.41,712.819 2302.05,712.96 C2302.59,713.116 2303.16,713.319 2303.8,713.616 C2304.45,713.913 2305,714.21 2305.5,714.507 C2306,714.819 2306.55,715.116 2307.09,715.413 C2307.66,715.71 2308.2,715.96 2308.7,716.069 C2309.2,716.163 2309.7,716.21 2310.2,716.163 C2310.7,716.116 2311.2,715.866 2311.7,715.413 C2312.2,714.96 2312.66,714.366 2313.11,713.616 C2313.36,713.163 2313.5,712.71 2313.5,712.257 C2313.5,711.913 2313.41,711.616 2313.25,711.257 C2312.86,710.507 2312.2,709.866 2311.3,709.319 C2310.41,708.757 2309.45,708.257 2308.36,707.866 C2307.25,707.46 2306.2,707.21 2305.16,707.069 C2304.41,706.913 2303.8,706.866 2303.3,706.866 C2303.05,706.866 2302.84,706.866 2302.7,706.913"/>
<path class="Harmony" d="M186.97,1027.25 C187.627,1028.11 188.08,1029.25 188.423,1030.7 C188.767,1032.16 189.017,1033.56 189.267,1035 C189.517,1036.45 189.673,1037.81 189.72,1039 L185.923,1038.61 L181.83,1039 L183.923,1032.75 L186.97,1027.25 M186.08,1044.86 L187.08,1044.86 L188.58,1044.86 L188.97,1044.86 L189.423,1044.86 C189.47,1044.86 189.627,1044.91 189.83,1044.91 C190.017,1044.91 190.173,1044.91 190.267,1044.95 C190.377,1045 190.47,1045.06 190.627,1045.11 C190.767,1045.16 190.877,1045.2 190.97,1045.31 C191.08,1045.41 191.22,1045.45 191.33,1045.56 C191.58,1045.81 191.83,1046.31 192.017,1046.95 C192.22,1047.56 192.423,1048.2 192.58,1048.95 C192.72,1049.7 192.877,1050.45 193.017,1051.31 C193.173,1052.16 193.377,1052.91 193.58,1053.61 C193.767,1054.31 194.08,1054.95 194.377,1055.5 C194.673,1056.06 195.017,1056.41 195.47,1056.61 C195.673,1056.7 195.923,1056.75 196.22,1056.75 C196.47,1056.75 196.783,1056.7 197.08,1056.61 C197.533,1056.45 197.877,1056.25 198.22,1056.06 C198.58,1055.86 198.83,1055.66 199.033,1055.41 C199.22,1055.16 199.377,1054.91 199.533,1054.61 C199.673,1054.31 199.783,1054.11 199.83,1053.86 C199.877,1053.66 199.877,1053.45 199.877,1053.2 L199.877,1052.95 C199.877,1052.61 199.877,1052.25 199.83,1052 C199.783,1051.75 199.673,1051.45 199.58,1051.06 C199.47,1050.66 199.377,1050.36 199.283,1050.11 C199.173,1049.86 199.127,1049.5 198.97,1049.06 C198.83,1048.61 198.673,1048.31 198.627,1048.11 C198.283,1047.11 197.673,1045.11 196.83,1042.16 C196.22,1040 195.72,1038.2 195.377,1036.81 C194.72,1034.25 194.173,1032.16 193.767,1030.5 C193.127,1027.75 192.627,1025.91 192.377,1024.95 C192.33,1024.75 192.267,1024.45 192.173,1024.05 C192.08,1023.66 192.017,1023.3 191.97,1023 C191.923,1022.7 191.767,1022.41 191.673,1022 C191.58,1021.61 191.47,1021.2 191.377,1020.91 C191.267,1020.61 191.08,1020.25 190.923,1019.91 C190.767,1019.55 190.58,1019.3 190.377,1019.05 C190.173,1018.8 190.017,1018.61 189.767,1018.41 C189.517,1018.2 189.267,1018 188.97,1017.95 C188.72,1017.91 188.47,1017.86 188.173,1017.86 L187.97,1017.86 C187.627,1017.91 187.22,1017.95 186.767,1018.11 C186.423,1018.25 186.017,1018.45 185.673,1018.7 C185.33,1018.95 184.97,1019.16 184.72,1019.41 C184.47,1019.66 184.22,1020 183.97,1020.41 C183.72,1020.8 183.47,1021.11 183.33,1021.41 C183.173,1021.7 182.97,1022.11 182.767,1022.61 C182.58,1023.11 182.377,1023.5 182.267,1023.8 C182.173,1024.11 182.08,1024.5 181.877,1025 C181.673,1025.5 181.517,1025.86 181.47,1026.11 C180.017,1029.75 178.58,1033.2 177.127,1036.56 C174.767,1041.91 173.377,1045.16 172.97,1046.36 C172.923,1046.56 172.72,1046.91 172.47,1047.45 C172.22,1048 171.923,1048.5 171.673,1049 C171.423,1049.5 171.173,1050.16 170.877,1050.81 C170.58,1051.45 170.33,1052.11 170.173,1052.66 C169.97,1053.2 169.877,1053.7 169.877,1054.16 C169.923,1054.61 170.017,1054.91 170.267,1055.16 C170.72,1055.5 171.22,1055.7 171.767,1055.7 L172.127,1055.7 C172.83,1055.61 173.517,1055.41 174.22,1055 C174.923,1054.61 175.423,1054.16 175.673,1053.7 C175.97,1053.16 176.267,1052.5 176.517,1051.7 C176.767,1050.91 177.017,1050.16 177.173,1049.5 C177.33,1048.86 177.517,1048.16 177.877,1047.41 C178.22,1046.66 178.627,1046.06 179.08,1045.56 L181.767,1044.7 C181.923,1044.66 182.127,1044.7 182.47,1044.7 L183.923,1044.7 C184.08,1044.7 184.83,1044.75 186.08,1044.86"/>
<path class="Harmony" d="M868.501,1027.25 C869.157,1028.11 869.61,1029.25 869.954,1030.7 C870.298,1032.16 870.548,1033.56 870.798,1035 C871.048,1036.45 871.204,1037.81 871.251,1039 L867.454,1038.61 L863.36,1039 L865.454,1032.75 L868.501,1027.25 M867.61,1044.86 L868.61,1044.86 L870.11,1044.86 L870.501,1044.86 L870.954,1044.86 C871.001,1044.86 871.157,1044.91 871.36,1044.91 C871.548,1044.91 871.704,1044.91 871.798,1044.95 C871.907,1045 872.001,1045.06 872.157,1045.11 C872.298,1045.16 872.407,1045.2 872.501,1045.31 C872.61,1045.41 872.751,1045.45 872.86,1045.56 C873.11,1045.81 873.36,1046.31 873.548,1046.95 C873.751,1047.56 873.954,1048.2 874.11,1048.95 C874.251,1049.7 874.407,1050.45 874.548,1051.31 C874.704,1052.16 874.907,1052.91 875.11,1053.61 C875.298,1054.31 875.61,1054.95 875.907,1055.5 C876.204,1056.06 876.548,1056.41 877.001,1056.61 C877.204,1056.7 877.454,1056.75 877.751,1056.75 C878.001,1056.75 878.314,1056.7 878.61,1056.61 C879.064,1056.45 879.407,1056.25 879.751,1056.06 C880.11,1055.86 880.36,1055.66 880.564,1055.41 C880.751,1055.16 880.907,1054.91 881.064,1054.61 C881.204,1054.31 881.314,1054.11 881.36,1053.86 C881.407,1053.66 881.407,1053.45 881.407,1053.2 L881.407,1052.95 C881.407,1052.61 881.407,1052.25 881.36,1052 C881.314,1051.75 881.204,1051.45 881.11,1051.06 C881.001,1050.66 880.907,1050.36 880.814,1050.11 C880.704,1049.86 880.657,1049.5 880.501,1049.06 C880.36,1048.61 880.204,1048.31 880.157,1048.11 C879.814,1047.11 879.204,1045.11 878.36,1042.16 C877.751,1040 877.251,1038.2 876.907,1036.81 C876.251,1034.25 875.704,1032.16 875.298,1030.5 C874.657,1027.75 874.157,1025.91 873.907,1024.95 C873.86,1024.75 873.798,1024.45 873.704,1024.05 C873.61,1023.66 873.548,1023.3 873.501,1023 C873.454,1022.7 873.298,1022.41 873.204,1022 C873.11,1021.61 873.001,1021.2 872.907,1020.91 C872.798,1020.61 872.61,1020.25 872.454,1019.91 C872.298,1019.55 872.11,1019.3 871.907,1019.05 C871.704,1018.8 871.548,1018.61 871.298,1018.41 C871.048,1018.2 870.798,1018 870.501,1017.95 C870.251,1017.91 870.001,1017.86 869.704,1017.86 L869.501,1017.86 C869.157,1017.91 868.751,1017.95 868.298,1018.11 C867.954,1018.25 867.548,1018.45 867.204,1018.7 C866.86,1018.95 866.501,1019.16 866.251,1019.41 C866.001,1019.66 865.751,1020 865.501,1020.41 C865.251,1020.8 865.001,1021.11 864.86,1021.41 C864.704,1021.7 864.501,1022.11 864.298,1022.61 C864.11,1023.11 863.907,1023.5 863.798,1023.8 C863.704,1024.11 863.61,1024.5 863.407,1025 C863.204,1025.5 863.048,1025.86 863.001,1026.11 C861.548,1029.75 860.11,1033.2 858.657,1036.56 C856.298,1041.91 854.907,1045.16 854.501,1046.36 C854.454,1046.56 854.251,1046.91 854.001,1047.45 C853.751,1048 853.454,1048.5 853.204,1049 C852.954,1049.5 852.704,1050.16 852.407,1050.81 C852.11,1051.45 851.86,1052.11 851.704,1052.66 C851.501,1053.2 851.407,1053.7 851.407,1054.16 C851.454,1054.61 851.548,1054.91 851.798,1055.16 C852.251,1055.5 852.751,1055.7 853.298,1055.7 L853.657,1055.7 C854.36,1055.61 855.048,1055.41 855.751,1055 C856.454,1054.61 856.954,1054.16 857.204,1053.7 C857.501,1053.16 857.798,1052.5 858.048,1051.7 C858.298,1050.91 858.548,1050.16 858.704,1049.5 C858.86,1048.86 859.048,1048.16 859.407,1047.41 C859.751,1046.66 860.157,1046.06 860.61,1045.56 L863.298,1044.7 C863.454,1044.66 863.657,1044.7 864.001,1044.7 L865.454,1044.7 C865.61,1044.7 866.36,1044.75 867.61,1044.86"/>
<path class="Harmony" d="M1569.31,1016.95 C1567.36,1017.2 1565.51,1017.66 1563.7,1018.3 C1561.9,1018.95 1560.26,1019.86 1558.65,1020.91 C1557.06,1021.95 1555.61,1023.16 1554.36,1024.5 C1553.11,1025.86 1552.06,1027.41 1551.15,1029.16 C1550.26,1030.91 1549.65,1032.75 1549.31,1034.7 C1549.06,1035.91 1548.95,1037.16 1548.95,1038.41 L1548.95,1038.75 C1548.95,1039.95 1549.01,1041.11 1549.15,1042.25 C1549.31,1043.5 1549.61,1044.75 1550.01,1045.91 C1550.45,1047.11 1550.95,1048.25 1551.51,1049.31 C1552.06,1050.36 1552.76,1051.31 1553.56,1052.16 C1554.36,1053 1555.36,1053.7 1556.36,1054.31 C1557.36,1054.91 1558.51,1055.36 1559.76,1055.61 C1560.61,1055.75 1561.45,1055.86 1562.31,1055.86 C1562.76,1055.86 1563.26,1055.86 1563.81,1055.81 C1565.36,1055.66 1566.81,1055.31 1568.15,1054.81 C1569.51,1054.31 1570.76,1053.7 1571.81,1053 C1572.86,1052.31 1573.9,1051.41 1574.86,1050.41 C1575.81,1049.41 1576.72,1048.31 1577.47,1047.2 C1578.22,1046.11 1578.9,1044.86 1579.65,1043.45 C1580.81,1041.16 1581.36,1039.2 1581.36,1037.66 C1581.36,1036.11 1580.81,1034.91 1579.65,1034.06 C1579.01,1033.5 1577.9,1033.16 1576.47,1032.91 C1575.4,1032.75 1574.36,1032.66 1573.31,1032.66 L1573.06,1032.66 L1571.95,1032.66 C1570.4,1032.7 1568.95,1032.95 1567.56,1033.41 C1566.15,1033.86 1565.2,1034.41 1564.7,1035.06 C1564.56,1035.31 1564.4,1035.5 1564.26,1035.7 C1563.9,1036.25 1563.7,1036.75 1563.7,1037.2 C1563.7,1037.86 1564.15,1038.31 1565.01,1038.56 C1565.7,1038.75 1567.06,1038.86 1569.01,1038.86 L1569.45,1038.86 C1570.11,1038.91 1570.61,1038.91 1570.95,1038.91 C1573.01,1038.91 1574.26,1039.16 1574.65,1039.7 C1574.81,1039.91 1574.97,1040.2 1574.97,1040.5 C1574.97,1040.81 1574.9,1041.11 1574.86,1041.41 C1574.81,1041.7 1574.65,1042.06 1574.51,1042.45 C1574.36,1042.86 1574.2,1043.16 1574.06,1043.41 C1573.9,1043.66 1573.76,1044 1573.56,1044.41 C1573.36,1044.81 1573.2,1045 1573.15,1045.11 C1572.9,1045.56 1572.76,1045.91 1572.61,1046.16 C1572.45,1046.41 1572.26,1046.66 1572.01,1047 C1571.76,1047.36 1571.45,1047.66 1571.2,1047.86 C1570.15,1048.66 1569.01,1049.2 1567.65,1049.45 L1565.95,1049.66 L1565.76,1049.66 C1565.11,1049.61 1564.4,1049.56 1563.76,1049.41 C1562.51,1049.16 1561.26,1048.7 1560.11,1048 C1558.95,1047.31 1557.95,1046.45 1557.2,1045.45 C1556.45,1044.41 1555.76,1043.16 1555.26,1041.75 C1554.76,1040.36 1554.45,1038.91 1554.36,1037.36 C1554.31,1036.81 1554.31,1036.31 1554.31,1035.75 C1554.31,1034.75 1554.36,1033.75 1554.51,1032.81 C1554.76,1031.36 1555.2,1029.95 1555.9,1028.66 C1556.61,1027.36 1557.51,1026.3 1558.61,1025.5 C1559.95,1024.45 1561.61,1023.7 1563.51,1023.2 C1564.56,1022.91 1565.61,1022.75 1566.61,1022.75 C1567.31,1022.75 1568.01,1022.86 1568.65,1023 C1569.2,1023.16 1569.76,1023.36 1570.4,1023.66 C1571.06,1023.95 1571.61,1024.25 1572.11,1024.55 C1572.61,1024.86 1573.15,1025.16 1573.7,1025.45 C1574.26,1025.75 1574.81,1026 1575.31,1026.11 C1575.81,1026.2 1576.31,1026.25 1576.81,1026.2 C1577.31,1026.16 1577.81,1025.91 1578.31,1025.45 C1578.81,1025 1579.26,1024.41 1579.72,1023.66 C1579.97,1023.2 1580.11,1022.75 1580.11,1022.3 C1580.11,1021.95 1580.01,1021.66 1579.86,1021.3 C1579.47,1020.55 1578.81,1019.91 1577.9,1019.36 C1577.01,1018.8 1576.06,1018.3 1574.97,1017.91 C1573.86,1017.5 1572.81,1017.25 1571.76,1017.11 C1571.01,1016.95 1570.4,1016.91 1569.9,1016.91 C1569.65,1016.91 1569.45,1016.91 1569.31,1016.95"/>
<path class="Harmony" d="M2252.6,1032.31 C2252.6,1032.11 2252.56,1031.66 2252.51,1030.91 C2252.46,1030.16 2252.46,1029.45 2252.46,1028.8 L2252.46,1028.5 C2252.46,1027.95 2252.46,1027.36 2252.51,1026.7 C2252.56,1025.95 2252.71,1025.36 2252.85,1024.8 C2253.01,1024.25 2253.26,1023.86 2253.56,1023.66 C2253.92,1023.41 2254.35,1023.3 2254.92,1023.3 C2255.46,1023.3 2256.1,1023.41 2256.76,1023.5 C2257.42,1023.61 2257.92,1023.66 2258.21,1023.66 L2259.01,1023.66 C2259.85,1023.66 2260.96,1023.7 2262.26,1023.75 C2264.01,1023.86 2265.6,1023.91 2267.17,1023.91 L2267.71,1023.91 C2269.01,1023.91 2270.17,1023.8 2271.17,1023.61 C2271.81,1023.45 2272.31,1023 2272.67,1022.25 C2273.01,1021.5 2273.21,1020.7 2273.21,1019.86 C2273.21,1018.95 2273.01,1018.25 2272.62,1017.8 C2272.37,1017.55 2272.01,1017.3 2271.51,1017.2 C2271.01,1017.11 2270.6,1017.05 2270.21,1017.05 C2269.81,1017.05 2269.31,1017.05 2268.67,1017.11 C2268.01,1017.16 2267.6,1017.16 2267.46,1017.16 C2266.56,1017.16 2265.1,1017.2 2263.1,1017.25 C2261.67,1017.3 2260.31,1017.3 2259.1,1017.3 L2257.81,1017.3 C2256.26,1017.25 2254.81,1017.16 2253.46,1017 C2253.06,1016.95 2252.76,1016.91 2252.6,1016.91 C2252.46,1016.91 2252.17,1016.91 2251.71,1016.86 C2251.46,1016.8 2251.26,1016.8 2251.06,1016.8 L2250.6,1016.8 C2250.31,1016.86 2250.01,1016.91 2249.67,1016.95 C2249.31,1017 2249.01,1017.11 2248.76,1017.25 C2248.51,1017.41 2248.31,1017.55 2248.17,1017.8 C2247.85,1018.3 2247.67,1019 2247.51,1019.86 C2247.35,1020.61 2247.31,1021.3 2247.31,1021.95 L2247.31,1022.2 C2247.31,1022.95 2247.35,1023.8 2247.42,1024.86 C2247.46,1025.91 2247.51,1026.61 2247.51,1026.95 L2247.51,1027.61 C2247.51,1029.45 2247.46,1032.36 2247.31,1036.25 C2247.21,1039.5 2247.17,1042.16 2247.17,1044.25 L2247.17,1046.31 L2247.17,1046.5 C2247.17,1046.95 2247.1,1047.56 2247.01,1048.25 C2246.85,1049.06 2246.76,1049.81 2246.67,1050.5 C2246.56,1051.16 2246.51,1051.86 2246.51,1052.56 L2246.51,1052.7 C2246.51,1053.45 2246.6,1054.06 2246.85,1054.56 C2247.01,1054.95 2247.31,1055.25 2247.67,1055.45 C2248.01,1055.66 2248.46,1055.75 2249.01,1055.81 L2249.71,1055.81 L2250.46,1055.81 C2250.92,1055.75 2251.46,1055.7 2252.01,1055.61 C2252.56,1055.5 2252.92,1055.5 2253.17,1055.5 L2268.67,1055.5 C2268.92,1055.5 2269.21,1055.5 2269.6,1055.56 C2270.01,1055.61 2270.35,1055.61 2270.6,1055.61 L2271.51,1055.61 C2271.85,1055.61 2272.17,1055.5 2272.42,1055.41 C2272.67,1055.31 2272.87,1055.25 2273.12,1055.11 C2273.37,1054.95 2273.51,1054.7 2273.71,1054.41 C2273.92,1054.11 2274.06,1053.81 2274.17,1053.45 C2274.26,1053.16 2274.31,1052.81 2274.31,1052.36 L2274.31,1052.06 C2274.31,1051.75 2274.31,1051.45 2274.26,1051.11 C2274.21,1050.7 2274.06,1050.31 2273.87,1049.95 C2273.67,1049.61 2273.42,1049.36 2273.06,1049.2 C2272.81,1049.11 2272.46,1049 2272.06,1049 C2271.67,1049 2271.26,1049 2270.92,1049.06 C2270.56,1049.11 2270.17,1049.16 2269.71,1049.2 C2269.26,1049.25 2268.92,1049.31 2268.67,1049.31 L2257.67,1049.31 C2257.51,1049.31 2257.21,1049.31 2256.71,1049.36 C2256.21,1049.41 2255.76,1049.41 2255.42,1049.41 C2255.06,1049.41 2254.67,1049.41 2254.21,1049.36 C2253.76,1049.31 2253.42,1049.2 2253.1,1049.06 C2252.81,1048.91 2252.6,1048.66 2252.51,1048.41 C2252.42,1047.95 2252.42,1047.5 2252.42,1047.2 C2252.42,1046.91 2252.46,1046.5 2252.51,1045.95 C2252.56,1045.41 2252.6,1045.06 2252.6,1044.81 C2252.56,1044.61 2252.51,1044.06 2252.46,1043.2 C2252.42,1042.66 2252.42,1042.2 2252.42,1041.75 L2252.42,1041 C2252.46,1040.36 2252.6,1039.91 2252.85,1039.56 C2253.06,1039.31 2253.35,1039.11 2253.81,1038.95 C2254.26,1038.81 2254.71,1038.75 2255.1,1038.75 C2255.51,1038.75 2255.96,1038.75 2256.56,1038.81 C2257.17,1038.86 2257.51,1038.86 2257.67,1038.86 C2260.6,1038.91 2263.67,1039 2266.85,1039.2 C2267.1,1039.2 2267.51,1039.25 2268.01,1039.31 C2268.51,1039.36 2268.92,1039.45 2269.26,1039.5 C2269.6,1039.56 2270.01,1039.56 2270.42,1039.5 C2270.81,1039.45 2271.21,1039.41 2271.56,1039.25 C2272.12,1039.06 2272.46,1038.5 2272.71,1037.66 C2272.87,1037.16 2272.92,1036.66 2272.92,1036.16 C2272.92,1035.75 2272.87,1035.36 2272.81,1035 C2272.67,1034.16 2272.31,1033.56 2271.81,1033.2 C2271.35,1032.91 2270.67,1032.7 2269.67,1032.56 C2269.01,1032.5 2268.31,1032.45 2267.67,1032.45 L2267.35,1032.45 L2266.71,1032.45 C2265.76,1032.45 2264.76,1032.5 2263.6,1032.56 C2262.92,1032.61 2262.31,1032.66 2261.85,1032.66 C2261.6,1032.61 2261.35,1032.61 2261.21,1032.61 C2260.85,1032.61 2259.6,1032.61 2257.46,1032.56 C2255.31,1032.5 2253.71,1032.45 2252.6,1032.31"/>
<path class="Harmony" d="M2584.11,1027.25 C2584.77,1028.11 2585.22,1029.25 2585.56,1030.7 C2585.91,1032.16 2586.16,1033.56 2586.41,1035 C2586.66,1036.45 2586.81,1037.81 2586.86,1039 L2583.06,1038.61 L2578.97,1039 L2581.06,1032.75 L2584.11,1027.25 M2583.22,1044.86 L2584.22,1044.86 L2585.72,1044.86 L2586.11,1044.86 L2586.56,1044.86 C2586.61,1044.86 2586.77,1044.91 2586.97,1044.91 C2587.16,1044.91 2587.31,1044.91 2587.41,1044.95 C2587.52,1045 2587.61,1045.06 2587.77,1045.11 C2587.91,1045.16 2588.02,1045.2 2588.11,1045.31 C2588.22,1045.41 2588.36,1045.45 2588.47,1045.56 C2588.72,1045.81 2588.97,1046.31 2589.16,1046.95 C2589.36,1047.56 2589.56,1048.2 2589.72,1048.95 C2589.86,1049.7 2590.02,1050.45 2590.16,1051.31 C2590.31,1052.16 2590.52,1052.91 2590.72,1053.61 C2590.91,1054.31 2591.22,1054.95 2591.52,1055.5 C2591.81,1056.06 2592.16,1056.41 2592.61,1056.61 C2592.81,1056.7 2593.06,1056.75 2593.36,1056.75 C2593.61,1056.75 2593.92,1056.7 2594.22,1056.61 C2594.67,1056.45 2595.02,1056.25 2595.36,1056.06 C2595.72,1055.86 2595.97,1055.66 2596.17,1055.41 C2596.36,1055.16 2596.52,1054.91 2596.67,1054.61 C2596.81,1054.31 2596.92,1054.11 2596.97,1053.86 C2597.02,1053.66 2597.02,1053.45 2597.02,1053.2 L2597.02,1052.95 C2597.02,1052.61 2597.02,1052.25 2596.97,1052 C2596.92,1051.75 2596.81,1051.45 2596.72,1051.06 C2596.61,1050.66 2596.52,1050.36 2596.42,1050.11 C2596.31,1049.86 2596.27,1049.5 2596.11,1049.06 C2595.97,1048.61 2595.81,1048.31 2595.77,1048.11 C2595.42,1047.11 2594.81,1045.11 2593.97,1042.16 C2593.36,1040 2592.86,1038.2 2592.52,1036.81 C2591.86,1034.25 2591.31,1032.16 2590.91,1030.5 C2590.27,1027.75 2589.77,1025.91 2589.52,1024.95 C2589.47,1024.75 2589.41,1024.45 2589.31,1024.05 C2589.22,1023.66 2589.16,1023.3 2589.11,1023 C2589.06,1022.7 2588.91,1022.41 2588.81,1022 C2588.72,1021.61 2588.61,1021.2 2588.52,1020.91 C2588.41,1020.61 2588.22,1020.25 2588.06,1019.91 C2587.91,1019.55 2587.72,1019.3 2587.52,1019.05 C2587.31,1018.8 2587.16,1018.61 2586.91,1018.41 C2586.66,1018.2 2586.41,1018 2586.11,1017.95 C2585.86,1017.91 2585.61,1017.86 2585.31,1017.86 L2585.11,1017.86 C2584.77,1017.91 2584.36,1017.95 2583.91,1018.11 C2583.56,1018.25 2583.16,1018.45 2582.81,1018.7 C2582.47,1018.95 2582.11,1019.16 2581.86,1019.41 C2581.61,1019.66 2581.36,1020 2581.11,1020.41 C2580.86,1020.8 2580.61,1021.11 2580.47,1021.41 C2580.31,1021.7 2580.11,1022.11 2579.91,1022.61 C2579.72,1023.11 2579.52,1023.5 2579.41,1023.8 C2579.31,1024.11 2579.22,1024.5 2579.02,1025 C2578.81,1025.5 2578.66,1025.86 2578.61,1026.11 C2577.16,1029.75 2575.72,1033.2 2574.27,1036.56 C2571.91,1041.91 2570.52,1045.16 2570.11,1046.36 C2570.06,1046.56 2569.86,1046.91 2569.61,1047.45 C2569.36,1048 2569.06,1048.5 2568.81,1049 C2568.56,1049.5 2568.31,1050.16 2568.02,1050.81 C2567.72,1051.45 2567.47,1052.11 2567.31,1052.66 C2567.11,1053.2 2567.02,1053.7 2567.02,1054.16 C2567.06,1054.61 2567.16,1054.91 2567.41,1055.16 C2567.86,1055.5 2568.36,1055.7 2568.91,1055.7 L2569.27,1055.7 C2569.97,1055.61 2570.66,1055.41 2571.36,1055 C2572.06,1054.61 2572.56,1054.16 2572.81,1053.7 C2573.11,1053.16 2573.41,1052.5 2573.66,1051.7 C2573.91,1050.91 2574.16,1050.16 2574.31,1049.5 C2574.47,1048.86 2574.66,1048.16 2575.02,1047.41 C2575.36,1046.66 2575.77,1046.06 2576.22,1045.56 L2578.91,1044.7 C2579.06,1044.66 2579.27,1044.7 2579.61,1044.7 L2581.06,1044.7 C2581.22,1044.7 2581.97,1044.75 2583.22,1044.86"/>
</svg>
