<?xml version="1.0" encoding="UTF-8" standalone="no"?>
<svg width="2976.38px" height="1417.32px" viewBox="0 0 2976.38 1417.32"
 xmlns="http://www.w3.org/2000/svg" xmlns:xlink="http://www.w3.org/1999/xlink" version="1.2" baseProfile="tiny">
<title>SquirellHunters_Dmix</title>
<desc>Generated by MuseScore 3.6.2</desc>
<polyline class="StaffLines" fill="none" stroke="#000000" stroke-width="2.73" stroke-linejoin="bevel" points="138.189,187.795 2933.86,187.795"/>
<polyline class="StaffLines" fill="none" stroke="#000000" stroke-width="2.73" stroke-linejoin="bevel" points="138.189,212.598 2933.86,212.598"/>
<polyline class="StaffLines" fill="none" stroke="#000000" stroke-width="2.73" stroke-linejoin="bevel" points="138.189,237.402 2933.86,237.402"/>
<polyline class="StaffLines" fill="none" stroke="#000000" stroke-width="2.73" stroke-linejoin="bevel" points="138.189,262.205 2933.86,262.205"/>
<polyline class="StaffLines" fill="none" stroke="#000000" stroke-width="2.73" stroke-linejoin="bevel" points="138.189,287.008 2933.86,287.008"/>
<polyline class="StaffLines" fill="none" stroke="#000000" stroke-width="2.73" stroke-linejoin="bevel" points="14.1732,497.835 2933.86,497.835"/>
<polyline class="StaffLines" fill="none" stroke="#000000" stroke-width="2.73" stroke-linejoin="bevel" points="14.1732,522.638 2933.86,522.638"/>
<polyline class="StaffLines" fill="none" stroke="#000000" stroke-width="2.73" stroke-linejoin="bevel" points="14.1732,547.441 2933.86,547.441"/>
<polyline class="StaffLines" fill="none" stroke="#000000" stroke-width="2.73" stroke-linejoin="bevel" points="14.1732,572.244 2933.86,572.244"/>
<polyline class="StaffLines" fill="none" stroke="#000000" stroke-width="2.73" stroke-linejoin="bevel" points="14.1732,597.047 2933.86,597.047"/>
<polyline class="StaffLines" fill="none" stroke="#000000" stroke-width="2.73" stroke-linejoin="bevel" points="14.1732,815.417 2933.86,815.417"/>
<polyline class="StaffLines" fill="none" stroke="#000000" stroke-width="2.73" stroke-linejoin="bevel" points="14.1732,840.22 2933.86,840.22"/>
<polyline class="StaffLines" fill="none" stroke="#000000" stroke-width="2.73" stroke-linejoin="bevel" points="14.1732,865.023 2933.86,865.023"/>
<polyline class="StaffLines" fill="none" stroke="#000000" stroke-width="2.73" stroke-linejoin="bevel" points="14.1732,889.826 2933.86,889.826"/>
<polyline class="StaffLines" fill="none" stroke="#000000" stroke-width="2.73" stroke-linejoin="bevel" points="14.1732,914.629 2933.86,914.629"/>
<polyline class="StaffLines" fill="none" stroke="#000000" stroke-width="2.73" stroke-linejoin="bevel" points="14.1732,1125.46 2933.86,1125.46"/>
<polyline class="StaffLines" fill="none" stroke="#000000" stroke-width="2.73" stroke-linejoin="bevel" points="14.1732,1150.26 2933.86,1150.26"/>
<polyline class="StaffLines" fill="none" stroke="#000000" stroke-width="2.73" stroke-linejoin="bevel" points="14.1732,1175.06 2933.86,1175.06"/>
<polyline class="StaffLines" fill="none" stroke="#000000" stroke-width="2.73" stroke-linejoin="bevel" points="14.1732,1199.87 2933.86,1199.87"/>
<polyline class="StaffLines" fill="none" stroke="#000000" stroke-width="2.73" stroke-linejoin="bevel" points="14.1732,1224.67 2933.86,1224.67"/>
<polyline class="BarLine" fill="none" stroke="#000000" stroke-width="4.46" stroke-linejoin="bevel" points="953.226,186.431 953.226,288.372"/>
<polyline class="BarLine" fill="none" stroke="#000000" stroke-width="4.46" stroke-linejoin="bevel" points="1612.69,186.431 1612.69,288.372"/>
<polyline class="BarLine" fill="none" stroke="#000000" stroke-width="4.46" stroke-linejoin="bevel" points="2272.16,186.431 2272.16,288.372"/>
<polyline class="BarLine" fill="none" stroke="#000000" stroke-width="4.46" stroke-linejoin="bevel" points="2931.63,186.431 2931.63,288.372"/>
<polyline class="BarLine" fill="none" stroke="#000000" stroke-width="4.46" stroke-linejoin="bevel" points="808.481,496.47 808.481,598.411"/>
<polyline class="BarLine" fill="none" stroke="#000000" stroke-width="4.46" stroke-linejoin="bevel" points="1502.1,496.47 1502.1,598.411"/>
<polyline class="BarLine" fill="none" stroke="#000000" stroke-width="4.46" stroke-linejoin="bevel" points="2195.73,496.47 2195.73,598.411"/>
<path class="BarLine" transform="matrix(0.992126,0,0,0.992126,2887.12,535.039)" d="M10.4063,0 C10.4063,-2.90625 8.09375,-5.29688 5.20313,-5.29688 C2.29688,-5.29688 0,-2.90625 0,0 C0,2.90625 2.29688,5.29688 5.20313,5.29688 C8.09375,5.29688 10.4063,2.90625 10.4063,0"/>
<path class="BarLine" transform="matrix(0.992126,0,0,0.992126,2887.12,559.843)" d="M10.4063,0 C10.4063,-2.90625 8.09375,-5.29688 5.20313,-5.29688 C2.29688,-5.29688 0,-2.90625 0,0 C0,2.90625 2.29688,5.29688 5.20313,5.29688 C8.09375,5.29688 10.4063,2.90625 10.4063,0"/>
<polyline class="BarLine" fill="none" stroke="#000000" stroke-width="4.46" stroke-linejoin="bevel" points="2909.64,496.47 2909.64,598.411"/>
<polyline class="BarLine" fill="none" stroke="#000000" stroke-width="13.64" stroke-linejoin="bevel" points="2927,496.47 2927,598.411"/>
<polyline class="BarLine" fill="none" stroke="#000000" stroke-width="4.46" stroke-linejoin="bevel" points="819.051,814.053 819.051,915.994"/>
<polyline class="BarLine" fill="none" stroke="#000000" stroke-width="4.46" stroke-linejoin="bevel" points="1523.24,814.053 1523.24,915.994"/>
<polyline class="BarLine" fill="none" stroke="#000000" stroke-width="4.46" stroke-linejoin="bevel" points="2227.44,814.053 2227.44,915.994"/>
<polyline class="BarLine" fill="none" stroke="#000000" stroke-width="4.46" stroke-linejoin="bevel" points="2931.63,814.053 2931.63,915.994"/>
<polyline class="BarLine" fill="none" stroke="#000000" stroke-width="4.46" stroke-linejoin="bevel" points="812.511,1124.09 812.511,1226.03"/>
<polyline class="BarLine" fill="none" stroke="#000000" stroke-width="4.46" stroke-linejoin="bevel" points="1494.04,1124.09 1494.04,1226.03"/>
<polyline class="BarLine" fill="none" stroke="#000000" stroke-width="4.46" stroke-linejoin="bevel" points="2191.69,1124.09 2191.69,1226.03"/>
<path class="BarLine" transform="matrix(0.992126,0,0,0.992126,2887.12,1162.66)" d="M10.4063,0 C10.4063,-2.90625 8.09375,-5.29688 5.20313,-5.29688 C2.29688,-5.29688 0,-2.90625 0,0 C0,2.90625 2.29688,5.29688 5.20313,5.29688 C8.09375,5.29688 10.4063,2.90625 10.4063,0"/>
<path class="BarLine" transform="matrix(0.992126,0,0,0.992126,2887.12,1187.46)" d="M10.4063,0 C10.4063,-2.90625 8.09375,-5.29688 5.20313,-5.29688 C2.29688,-5.29688 0,-2.90625 0,0 C0,2.90625 2.29688,5.29688 5.20313,5.29688 C8.09375,5.29688 10.4063,2.90625 10.4063,0"/>
<polyline class="BarLine" fill="none" stroke="#000000" stroke-width="4.46" stroke-linejoin="bevel" points="2909.64,1124.09 2909.64,1226.03"/>
<polyline class="BarLine" fill="none" stroke="#000000" stroke-width="13.64" stroke-linejoin="bevel" points="2927,1124.09 2927,1226.03"/>
<path class="Note" transform="matrix(0.992126,0,0,0.992126,338.405,237.402)" d="M43,-25 L0,25 L10,25 L53,-25 L43,-25 "/>
<path class="Note" transform="matrix(0.992126,0,0,0.992126,489.01,237.402)" d="M43,-25 L0,25 L10,25 L53,-25 L43,-25 "/>
<path class="Note" transform="matrix(0.992126,0,0,0.992126,639.615,237.402)" d="M43,-25 L0,25 L10,25 L53,-25 L43,-25 "/>
<path class="Note" transform="matrix(0.992126,0,0,0.992126,790.22,237.402)" d="M43,-25 L0,25 L10,25 L53,-25 L43,-25 "/>
<path class="Note" transform="matrix(0.992126,0,0,0.992126,997.872,237.402)" d="M43,-25 L0,25 L10,25 L53,-25 L43,-25 "/>
<path class="Note" transform="matrix(0.992126,0,0,0.992126,1148.48,237.402)" d="M43,-25 L0,25 L10,25 L53,-25 L43,-25 "/>
<path class="Note" transform="matrix(0.992126,0,0,0.992126,1299.08,237.402)" d="M43,-25 L0,25 L10,25 L53,-25 L43,-25 "/>
<path class="Note" transform="matrix(0.992126,0,0,0.992126,1449.69,237.402)" d="M43,-25 L0,25 L10,25 L53,-25 L43,-25 "/>
<path class="Note" transform="matrix(0.992126,0,0,0.992126,1657.34,237.402)" d="M43,-25 L0,25 L10,25 L53,-25 L43,-25 "/>
<path class="Note" transform="matrix(0.992126,0,0,0.992126,1807.94,237.402)" d="M43,-25 L0,25 L10,25 L53,-25 L43,-25 "/>
<path class="Note" transform="matrix(0.992126,0,0,0.992126,1958.55,237.402)" d="M43,-25 L0,25 L10,25 L53,-25 L43,-25 "/>
<path class="Note" transform="matrix(0.992126,0,0,0.992126,2109.15,237.402)" d="M43,-25 L0,25 L10,25 L53,-25 L43,-25 "/>
<path class="Note" transform="matrix(0.992126,0,0,0.992126,2316.81,237.402)" d="M43,-25 L0,25 L10,25 L53,-25 L43,-25 "/>
<path class="Note" transform="matrix(0.992126,0,0,0.992126,2467.41,237.402)" d="M43,-25 L0,25 L10,25 L53,-25 L43,-25 "/>
<path class="Note" transform="matrix(0.992126,0,0,0.992126,2618.02,237.402)" d="M43,-25 L0,25 L10,25 L53,-25 L43,-25 "/>
<path class="Note" transform="matrix(0.992126,0,0,0.992126,2768.62,237.402)" d="M43,-25 L0,25 L10,25 L53,-25 L43,-25 "/>
<path class="Note" transform="matrix(0.992126,0,0,0.992126,159.504,547.441)" d="M43,-25 L0,25 L10,25 L53,-25 L43,-25 "/>
<path class="Note" transform="matrix(0.992126,0,0,0.992126,318.648,547.441)" d="M43,-25 L0,25 L10,25 L53,-25 L43,-25 "/>
<path class="Note" transform="matrix(0.992126,0,0,0.992126,477.792,547.441)" d="M43,-25 L0,25 L10,25 L53,-25 L43,-25 "/>
<path class="Note" transform="matrix(0.992126,0,0,0.992126,636.935,547.441)" d="M43,-25 L0,25 L10,25 L53,-25 L43,-25 "/>
<path class="Note" transform="matrix(0.992126,0,0,0.992126,853.126,547.441)" d="M43,-25 L0,25 L10,25 L53,-25 L43,-25 "/>
<path class="Note" transform="matrix(0.992126,0,0,0.992126,1012.27,547.441)" d="M43,-25 L0,25 L10,25 L53,-25 L43,-25 "/>
<path class="Note" transform="matrix(0.992126,0,0,0.992126,1171.41,547.441)" d="M43,-25 L0,25 L10,25 L53,-25 L43,-25 "/>
<path class="Note" transform="matrix(0.992126,0,0,0.992126,1330.56,547.441)" d="M43,-25 L0,25 L10,25 L53,-25 L43,-25 "/>
<path class="Note" transform="matrix(0.992126,0,0,0.992126,1546.75,547.441)" d="M43,-25 L0,25 L10,25 L53,-25 L43,-25 "/>
<path class="Note" transform="matrix(0.992126,0,0,0.992126,1705.89,547.441)" d="M43,-25 L0,25 L10,25 L53,-25 L43,-25 "/>
<path class="Note" transform="matrix(0.992126,0,0,0.992126,1865.04,547.441)" d="M43,-25 L0,25 L10,25 L53,-25 L43,-25 "/>
<path class="Note" transform="matrix(0.992126,0,0,0.992126,2024.18,547.441)" d="M43,-25 L0,25 L10,25 L53,-25 L43,-25 "/>
<path class="Note" transform="matrix(0.992126,0,0,0.992126,2240.37,547.441)" d="M43,-25 L0,25 L10,25 L53,-25 L43,-25 "/>
<path class="Note" transform="matrix(0.992126,0,0,0.992126,2399.51,547.441)" d="M43,-25 L0,25 L10,25 L53,-25 L43,-25 "/>
<path class="Note" transform="matrix(0.992126,0,0,0.992126,2558.66,547.441)" d="M43,-25 L0,25 L10,25 L53,-25 L43,-25 "/>
<path class="Note" transform="matrix(0.992126,0,0,0.992126,2717.8,547.441)" d="M43,-25 L0,25 L10,25 L53,-25 L43,-25 "/>
<path class="Note" transform="matrix(0.992126,0,0,0.992126,159.504,865.023)" d="M43,-25 L0,25 L10,25 L53,-25 L43,-25 "/>
<path class="Note" transform="matrix(0.992126,0,0,0.992126,321.29,865.023)" d="M43,-25 L0,25 L10,25 L53,-25 L43,-25 "/>
<path class="Note" transform="matrix(0.992126,0,0,0.992126,483.077,865.023)" d="M43,-25 L0,25 L10,25 L53,-25 L43,-25 "/>
<path class="Note" transform="matrix(0.992126,0,0,0.992126,644.863,865.023)" d="M43,-25 L0,25 L10,25 L53,-25 L43,-25 "/>
<path class="Note" transform="matrix(0.992126,0,0,0.992126,863.696,865.023)" d="M43,-25 L0,25 L10,25 L53,-25 L43,-25 "/>
<path class="Note" transform="matrix(0.992126,0,0,0.992126,1025.48,865.023)" d="M43,-25 L0,25 L10,25 L53,-25 L43,-25 "/>
<path class="Note" transform="matrix(0.992126,0,0,0.992126,1187.27,865.023)" d="M43,-25 L0,25 L10,25 L53,-25 L43,-25 "/>
<path class="Note" transform="matrix(0.992126,0,0,0.992126,1349.06,865.023)" d="M43,-25 L0,25 L10,25 L53,-25 L43,-25 "/>
<path class="Note" transform="matrix(0.992126,0,0,0.992126,1567.89,865.023)" d="M43,-25 L0,25 L10,25 L53,-25 L43,-25 "/>
<path class="Note" transform="matrix(0.992126,0,0,0.992126,1729.67,865.023)" d="M43,-25 L0,25 L10,25 L53,-25 L43,-25 "/>
<path class="Note" transform="matrix(0.992126,0,0,0.992126,1891.46,865.023)" d="M43,-25 L0,25 L10,25 L53,-25 L43,-25 "/>
<path class="Note" transform="matrix(0.992126,0,0,0.992126,2053.25,865.023)" d="M43,-25 L0,25 L10,25 L53,-25 L43,-25 "/>
<path class="Note" transform="matrix(0.992126,0,0,0.992126,2272.08,865.023)" d="M43,-25 L0,25 L10,25 L53,-25 L43,-25 "/>
<path class="Note" transform="matrix(0.992126,0,0,0.992126,2433.87,865.023)" d="M43,-25 L0,25 L10,25 L53,-25 L43,-25 "/>
<path class="Note" transform="matrix(0.992126,0,0,0.992126,2595.65,865.023)" d="M43,-25 L0,25 L10,25 L53,-25 L43,-25 "/>
<path class="Note" transform="matrix(0.992126,0,0,0.992126,2757.44,865.023)" d="M43,-25 L0,25 L10,25 L53,-25 L43,-25 "/>
<path class="Note" transform="matrix(0.992126,0,0,0.992126,159.504,1175.06)" d="M43,-25 L0,25 L10,25 L53,-25 L43,-25 "/>
<path class="Note" transform="matrix(0.992126,0,0,0.992126,319.656,1175.06)" d="M43,-25 L0,25 L10,25 L53,-25 L43,-25 "/>
<path class="Note" transform="matrix(0.992126,0,0,0.992126,479.807,1175.06)" d="M43,-25 L0,25 L10,25 L53,-25 L43,-25 "/>
<path class="Note" transform="matrix(0.992126,0,0,0.992126,639.958,1175.06)" d="M43,-25 L0,25 L10,25 L53,-25 L43,-25 "/>
<path class="Note" transform="matrix(0.992126,0,0,0.992126,841.035,1175.06)" d="M43,-25 L0,25 L10,25 L53,-25 L43,-25 "/>
<path class="Note" transform="matrix(0.992126,0,0,0.992126,1001.19,1175.06)" d="M43,-25 L0,25 L10,25 L53,-25 L43,-25 "/>
<path class="Note" transform="matrix(0.992126,0,0,0.992126,1161.34,1175.06)" d="M43,-25 L0,25 L10,25 L53,-25 L43,-25 "/>
<path class="Note" transform="matrix(0.992126,0,0,0.992126,1321.49,1175.06)" d="M43,-25 L0,25 L10,25 L53,-25 L43,-25 "/>
<path class="Note" transform="matrix(0.992126,0,0,0.992126,1538.69,1175.06)" d="M43,-25 L0,25 L10,25 L53,-25 L43,-25 "/>
<path class="Note" transform="matrix(0.992126,0,0,0.992126,1698.84,1175.06)" d="M43,-25 L0,25 L10,25 L53,-25 L43,-25 "/>
<path class="Note" transform="matrix(0.992126,0,0,0.992126,1858.99,1175.06)" d="M43,-25 L0,25 L10,25 L53,-25 L43,-25 "/>
<path class="Note" transform="matrix(0.992126,0,0,0.992126,2019.14,1175.06)" d="M43,-25 L0,25 L10,25 L53,-25 L43,-25 "/>
<path class="Note" transform="matrix(0.992126,0,0,0.992126,2236.34,1175.06)" d="M43,-25 L0,25 L10,25 L53,-25 L43,-25 "/>
<path class="Note" transform="matrix(0.992126,0,0,0.992126,2396.49,1175.06)" d="M43,-25 L0,25 L10,25 L53,-25 L43,-25 "/>
<path class="Note" transform="matrix(0.992126,0,0,0.992126,2556.64,1175.06)" d="M43,-25 L0,25 L10,25 L53,-25 L43,-25 "/>
<path class="Note" transform="matrix(0.992126,0,0,0.992126,2716.79,1175.06)" d="M43,-25 L0,25 L10,25 L53,-25 L43,-25 "/>
<path class="Clef" transform="matrix(0.992126,0,0,0.992126,158.032,262.205)" d="M63.3594,-5.92188 C62.125,-11.3438 59.4844,-15.1719 58.7031,-16.2031 C55.5156,-20.4844 51.5,-23.3281 46.8125,-24.6875 C43.7031,-25.5625 40.7031,-25.6875 38.2813,-25.5 C37.2344,-31.5156 36.2344,-37.3906 35.3281,-42.8438 C40.7813,-49.0156 44.4063,-54.8125 46.6875,-59.1094 C50.1563,-65.6875 51.2969,-70.2656 51.3594,-70.4688 C53.0781,-75.6875 53.4375,-83.3906 52.3281,-91.5938 C51.3281,-99.1406 49.2344,-105.859 46.875,-109.109 C45.8594,-110.531 44.7969,-111.266 43.7656,-111.266 C42.5469,-111.266 40.0313,-110.031 37.1406,-107.25 C34.8438,-105.063 31.5781,-101.172 29.0156,-95.1563 C26.0156,-88.0938 25.7969,-78.6094 26.1563,-71.8906 C26.5313,-64.6094 27.6406,-58.9219 27.6563,-58.875 C27.6719,-58.7813 27.9375,-57.2813 28.375,-54.7188 C28.1563,-54.4844 27.9063,-54.2656 27.6563,-54.0156 C26.625,-53.0156 25.4375,-51.8906 24.0469,-50.5 C23.1875,-49.6406 22.2344,-48.7344 21.2344,-47.7656 C12.7969,-39.625 0,-27.2969 0,-8.14063 C0,-3.4375 0.90625,0.984375 2.6875,5 C4.26563,8.59375 6.5625,11.875 9.5,14.75 C17.2344,22.3125 27.8281,25.5156 34.875,25.3594 C37.8281,25.2813 40.4688,25.0469 42.8594,24.5938 C44.6875,34.2031 45.8281,41.2344 45.8594,46.5781 C45.9063,53.0938 44.25,57.0781 40.3594,59.8438 C37.9219,61.5781 35.1094,62.5313 32.0156,62.6719 C29.4219,62.7969 27.1563,62.3281 25.7344,61.9219 L25.7188,61.9219 C25.7188,61.9219 25.4375,61.8281 25.4219,61.6406 C25.4063,61.4531 25.7656,61.4063 25.7656,61.4063 L25.7969,61.4063 C27.7188,60.9688 31.2813,59.7344 33.6406,56.4375 C35.4375,53.9063 36.3125,49.2813 34.4688,45.3438 C33.3594,42.9531 30.8594,40 25.2344,39.5469 C22.7344,39.3438 20.4688,39.8594 18.4688,41.0625 C16.6563,42.1406 15.1563,43.7813 14.1094,45.7813 C11.6563,50.4844 12.1094,56.2188 15.2344,60.0625 C18.2031,63.6875 22.8125,66 28.25,66.5781 C29.1094,66.6719 29.9531,66.7031 30.7969,66.7031 C35.2344,66.7031 39.625,65.5 43.2031,63.2969 C46.8594,60.7188 48.9844,56.7344 49.6563,51.1094 C50.2188,46.4688 49.8281,40.5469 48.4375,32.4688 C48.0781,30.375 47.5313,27.3438 46.875,23.5938 C52.625,21.6719 56.7813,18.0938 60.5469,12.2344 C63.8438,6.5 64.7813,0.390625 63.3594,-5.92188 M29.1406,20.2969 C24.5,19.0781 20.0625,16.5781 16.3125,13.0625 C15,11.8438 13.125,9.67188 11.6563,6.28125 C10.2969,3.10938 9.625,-0.328125 9.6875,-3.90625 C9.75,-8.60938 11.0625,-13.4375 13.5625,-18.2188 C16.4844,-23.7969 21.0469,-29.3281 27.1094,-34.6563 C28.5625,-35.9375 29.9375,-37.2188 31.2188,-38.5 C31.9844,-34.2344 32.8125,-29.5469 33.6875,-24.6719 C29.8438,-23.4063 25.0938,-20.25 21.9844,-14.5938 C18.4375,-8.03125 18.5781,-2.5 19.3125,0.984375 C20.25,5.4375 22.7813,9.20313 26.2344,11.2969 C27.1719,11.8594 31.2969,13.9844 33.1406,13.4063 C33.5156,13.2969 33.7813,13.0625 33.9219,12.7344 C34.4375,11.5625 33.4063,10.9219 31.8594,9.96875 C31.25,9.59375 30.5781,9.17188 29.8594,8.64063 C26.5313,6.15625 25.0781,1.70313 26.1563,-2.6875 C26.7344,-5.07813 28.0156,-7.25 29.8594,-8.95313 C31.5156,-10.5 33.5625,-11.5938 35.9375,-12.2344 C37.9844,-0.984375 40.0469,10.1719 41.6875,18.5313 C41.8125,19.2188 41.9531,19.8906 42.0781,20.5625 C37.7031,21.5 33.3594,21.4063 29.1406,20.2969 M40.4688,-12.9063 C50.8125,-13.375 55.0781,-5.9375 55.9688,-1.10938 C56.4375,1.4375 56.4375,5.875 54.8906,10.0938 C53.7188,13.2656 51.2656,17.3438 46.125,19.4063 C46.0625,18.9844 45.9844,18.5469 45.9063,18.125 C44.3594,9.34375 42.4219,-1.65625 40.4688,-12.9063 M33.1406,-83.8594 C34.9219,-89.5938 37.6563,-92.8438 39.6563,-94.5781 C41.4063,-96.0938 43.0469,-96.8125 43.9688,-96.8125 C44.1094,-96.8125 44.2344,-96.7813 44.3281,-96.75 C44.7969,-96.6094 45.3281,-96.0469 45.7969,-95.1719 C48.1094,-90.8906 47.3594,-84.1719 46.0156,-79.7344 C44.3906,-74.3281 41.4688,-68.7188 32.6719,-59.1094 C32.5,-60.2188 32.3438,-61.2656 32.1875,-62.25 C30.9375,-70.5313 31.2656,-77.8125 33.1406,-83.8594"/>
<path class="Clef" transform="matrix(0.992126,0,0,0.992126,34.0158,572.244)" d="M63.3594,-5.92188 C62.125,-11.3438 59.4844,-15.1719 58.7031,-16.2031 C55.5156,-20.4844 51.5,-23.3281 46.8125,-24.6875 C43.7031,-25.5625 40.7031,-25.6875 38.2813,-25.5 C37.2344,-31.5156 36.2344,-37.3906 35.3281,-42.8438 C40.7813,-49.0156 44.4063,-54.8125 46.6875,-59.1094 C50.1563,-65.6875 51.2969,-70.2656 51.3594,-70.4688 C53.0781,-75.6875 53.4375,-83.3906 52.3281,-91.5938 C51.3281,-99.1406 49.2344,-105.859 46.875,-109.109 C45.8594,-110.531 44.7969,-111.266 43.7656,-111.266 C42.5469,-111.266 40.0313,-110.031 37.1406,-107.25 C34.8438,-105.063 31.5781,-101.172 29.0156,-95.1563 C26.0156,-88.0938 25.7969,-78.6094 26.1563,-71.8906 C26.5313,-64.6094 27.6406,-58.9219 27.6563,-58.875 C27.6719,-58.7813 27.9375,-57.2813 28.375,-54.7188 C28.1563,-54.4844 27.9063,-54.2656 27.6563,-54.0156 C26.625,-53.0156 25.4375,-51.8906 24.0469,-50.5 C23.1875,-49.6406 22.2344,-48.7344 21.2344,-47.7656 C12.7969,-39.625 0,-27.2969 0,-8.14063 C0,-3.4375 0.90625,0.984375 2.6875,5 C4.26563,8.59375 6.5625,11.875 9.5,14.75 C17.2344,22.3125 27.8281,25.5156 34.875,25.3594 C37.8281,25.2813 40.4688,25.0469 42.8594,24.5938 C44.6875,34.2031 45.8281,41.2344 45.8594,46.5781 C45.9063,53.0938 44.25,57.0781 40.3594,59.8438 C37.9219,61.5781 35.1094,62.5313 32.0156,62.6719 C29.4219,62.7969 27.1563,62.3281 25.7344,61.9219 L25.7188,61.9219 C25.7188,61.9219 25.4375,61.8281 25.4219,61.6406 C25.4063,61.4531 25.7656,61.4063 25.7656,61.4063 L25.7969,61.4063 C27.7188,60.9688 31.2813,59.7344 33.6406,56.4375 C35.4375,53.9063 36.3125,49.2813 34.4688,45.3438 C33.3594,42.9531 30.8594,40 25.2344,39.5469 C22.7344,39.3438 20.4688,39.8594 18.4688,41.0625 C16.6563,42.1406 15.1563,43.7813 14.1094,45.7813 C11.6563,50.4844 12.1094,56.2188 15.2344,60.0625 C18.2031,63.6875 22.8125,66 28.25,66.5781 C29.1094,66.6719 29.9531,66.7031 30.7969,66.7031 C35.2344,66.7031 39.625,65.5 43.2031,63.2969 C46.8594,60.7188 48.9844,56.7344 49.6563,51.1094 C50.2188,46.4688 49.8281,40.5469 48.4375,32.4688 C48.0781,30.375 47.5313,27.3438 46.875,23.5938 C52.625,21.6719 56.7813,18.0938 60.5469,12.2344 C63.8438,6.5 64.7813,0.390625 63.3594,-5.92188 M29.1406,20.2969 C24.5,19.0781 20.0625,16.5781 16.3125,13.0625 C15,11.8438 13.125,9.67188 11.6563,6.28125 C10.2969,3.10938 9.625,-0.328125 9.6875,-3.90625 C9.75,-8.60938 11.0625,-13.4375 13.5625,-18.2188 C16.4844,-23.7969 21.0469,-29.3281 27.1094,-34.6563 C28.5625,-35.9375 29.9375,-37.2188 31.2188,-38.5 C31.9844,-34.2344 32.8125,-29.5469 33.6875,-24.6719 C29.8438,-23.4063 25.0938,-20.25 21.9844,-14.5938 C18.4375,-8.03125 18.5781,-2.5 19.3125,0.984375 C20.25,5.4375 22.7813,9.20313 26.2344,11.2969 C27.1719,11.8594 31.2969,13.9844 33.1406,13.4063 C33.5156,13.2969 33.7813,13.0625 33.9219,12.7344 C34.4375,11.5625 33.4063,10.9219 31.8594,9.96875 C31.25,9.59375 30.5781,9.17188 29.8594,8.64063 C26.5313,6.15625 25.0781,1.70313 26.1563,-2.6875 C26.7344,-5.07813 28.0156,-7.25 29.8594,-8.95313 C31.5156,-10.5 33.5625,-11.5938 35.9375,-12.2344 C37.9844,-0.984375 40.0469,10.1719 41.6875,18.5313 C41.8125,19.2188 41.9531,19.8906 42.0781,20.5625 C37.7031,21.5 33.3594,21.4063 29.1406,20.2969 M40.4688,-12.9063 C50.8125,-13.375 55.0781,-5.9375 55.9688,-1.10938 C56.4375,1.4375 56.4375,5.875 54.8906,10.0938 C53.7188,13.2656 51.2656,17.3438 46.125,19.4063 C46.0625,18.9844 45.9844,18.5469 45.9063,18.125 C44.3594,9.34375 42.4219,-1.65625 40.4688,-12.9063 M33.1406,-83.8594 C34.9219,-89.5938 37.6563,-92.8438 39.6563,-94.5781 C41.4063,-96.0938 43.0469,-96.8125 43.9688,-96.8125 C44.1094,-96.8125 44.2344,-96.7813 44.3281,-96.75 C44.7969,-96.6094 45.3281,-96.0469 45.7969,-95.1719 C48.1094,-90.8906 47.3594,-84.1719 46.0156,-79.7344 C44.3906,-74.3281 41.4688,-68.7188 32.6719,-59.1094 C32.5,-60.2188 32.3438,-61.2656 32.1875,-62.25 C30.9375,-70.5313 31.2656,-77.8125 33.1406,-83.8594"/>
<path class="Clef" transform="matrix(0.992126,0,0,0.992126,34.0158,889.826)" d="M63.3594,-5.92188 C62.125,-11.3438 59.4844,-15.1719 58.7031,-16.2031 C55.5156,-20.4844 51.5,-23.3281 46.8125,-24.6875 C43.7031,-25.5625 40.7031,-25.6875 38.2813,-25.5 C37.2344,-31.5156 36.2344,-37.3906 35.3281,-42.8438 C40.7813,-49.0156 44.4063,-54.8125 46.6875,-59.1094 C50.1563,-65.6875 51.2969,-70.2656 51.3594,-70.4688 C53.0781,-75.6875 53.4375,-83.3906 52.3281,-91.5938 C51.3281,-99.1406 49.2344,-105.859 46.875,-109.109 C45.8594,-110.531 44.7969,-111.266 43.7656,-111.266 C42.5469,-111.266 40.0313,-110.031 37.1406,-107.25 C34.8438,-105.063 31.5781,-101.172 29.0156,-95.1563 C26.0156,-88.0938 25.7969,-78.6094 26.1563,-71.8906 C26.5313,-64.6094 27.6406,-58.9219 27.6563,-58.875 C27.6719,-58.7813 27.9375,-57.2813 28.375,-54.7188 C28.1563,-54.4844 27.9063,-54.2656 27.6563,-54.0156 C26.625,-53.0156 25.4375,-51.8906 24.0469,-50.5 C23.1875,-49.6406 22.2344,-48.7344 21.2344,-47.7656 C12.7969,-39.625 0,-27.2969 0,-8.14063 C0,-3.4375 0.90625,0.984375 2.6875,5 C4.26563,8.59375 6.5625,11.875 9.5,14.75 C17.2344,22.3125 27.8281,25.5156 34.875,25.3594 C37.8281,25.2813 40.4688,25.0469 42.8594,24.5938 C44.6875,34.2031 45.8281,41.2344 45.8594,46.5781 C45.9063,53.0938 44.25,57.0781 40.3594,59.8438 C37.9219,61.5781 35.1094,62.5313 32.0156,62.6719 C29.4219,62.7969 27.1563,62.3281 25.7344,61.9219 L25.7188,61.9219 C25.7188,61.9219 25.4375,61.8281 25.4219,61.6406 C25.4063,61.4531 25.7656,61.4063 25.7656,61.4063 L25.7969,61.4063 C27.7188,60.9688 31.2813,59.7344 33.6406,56.4375 C35.4375,53.9063 36.3125,49.2813 34.4688,45.3438 C33.3594,42.9531 30.8594,40 25.2344,39.5469 C22.7344,39.3438 20.4688,39.8594 18.4688,41.0625 C16.6563,42.1406 15.1563,43.7813 14.1094,45.7813 C11.6563,50.4844 12.1094,56.2188 15.2344,60.0625 C18.2031,63.6875 22.8125,66 28.25,66.5781 C29.1094,66.6719 29.9531,66.7031 30.7969,66.7031 C35.2344,66.7031 39.625,65.5 43.2031,63.2969 C46.8594,60.7188 48.9844,56.7344 49.6563,51.1094 C50.2188,46.4688 49.8281,40.5469 48.4375,32.4688 C48.0781,30.375 47.5313,27.3438 46.875,23.5938 C52.625,21.6719 56.7813,18.0938 60.5469,12.2344 C63.8438,6.5 64.7813,0.390625 63.3594,-5.92188 M29.1406,20.2969 C24.5,19.0781 20.0625,16.5781 16.3125,13.0625 C15,11.8438 13.125,9.67188 11.6563,6.28125 C10.2969,3.10938 9.625,-0.328125 9.6875,-3.90625 C9.75,-8.60938 11.0625,-13.4375 13.5625,-18.2188 C16.4844,-23.7969 21.0469,-29.3281 27.1094,-34.6563 C28.5625,-35.9375 29.9375,-37.2188 31.2188,-38.5 C31.9844,-34.2344 32.8125,-29.5469 33.6875,-24.6719 C29.8438,-23.4063 25.0938,-20.25 21.9844,-14.5938 C18.4375,-8.03125 18.5781,-2.5 19.3125,0.984375 C20.25,5.4375 22.7813,9.20313 26.2344,11.2969 C27.1719,11.8594 31.2969,13.9844 33.1406,13.4063 C33.5156,13.2969 33.7813,13.0625 33.9219,12.7344 C34.4375,11.5625 33.4063,10.9219 31.8594,9.96875 C31.25,9.59375 30.5781,9.17188 29.8594,8.64063 C26.5313,6.15625 25.0781,1.70313 26.1563,-2.6875 C26.7344,-5.07813 28.0156,-7.25 29.8594,-8.95313 C31.5156,-10.5 33.5625,-11.5938 35.9375,-12.2344 C37.9844,-0.984375 40.0469,10.1719 41.6875,18.5313 C41.8125,19.2188 41.9531,19.8906 42.0781,20.5625 C37.7031,21.5 33.3594,21.4063 29.1406,20.2969 M40.4688,-12.9063 C50.8125,-13.375 55.0781,-5.9375 55.9688,-1.10938 C56.4375,1.4375 56.4375,5.875 54.8906,10.0938 C53.7188,13.2656 51.2656,17.3438 46.125,19.4063 C46.0625,18.9844 45.9844,18.5469 45.9063,18.125 C44.3594,9.34375 42.4219,-1.65625 40.4688,-12.9063 M33.1406,-83.8594 C34.9219,-89.5938 37.6563,-92.8438 39.6563,-94.5781 C41.4063,-96.0938 43.0469,-96.8125 43.9688,-96.8125 C44.1094,-96.8125 44.2344,-96.7813 44.3281,-96.75 C44.7969,-96.6094 45.3281,-96.0469 45.7969,-95.1719 C48.1094,-90.8906 47.3594,-84.1719 46.0156,-79.7344 C44.3906,-74.3281 41.4688,-68.7188 32.6719,-59.1094 C32.5,-60.2188 32.3438,-61.2656 32.1875,-62.25 C30.9375,-70.5313 31.2656,-77.8125 33.1406,-83.8594"/>
<path class="Clef" transform="matrix(0.992126,0,0,0.992126,34.0158,1199.87)" d="M63.3594,-5.92188 C62.125,-11.3438 59.4844,-15.1719 58.7031,-16.2031 C55.5156,-20.4844 51.5,-23.3281 46.8125,-24.6875 C43.7031,-25.5625 40.7031,-25.6875 38.2813,-25.5 C37.2344,-31.5156 36.2344,-37.3906 35.3281,-42.8438 C40.7813,-49.0156 44.4063,-54.8125 46.6875,-59.1094 C50.1563,-65.6875 51.2969,-70.2656 51.3594,-70.4688 C53.0781,-75.6875 53.4375,-83.3906 52.3281,-91.5938 C51.3281,-99.1406 49.2344,-105.859 46.875,-109.109 C45.8594,-110.531 44.7969,-111.266 43.7656,-111.266 C42.5469,-111.266 40.0313,-110.031 37.1406,-107.25 C34.8438,-105.063 31.5781,-101.172 29.0156,-95.1563 C26.0156,-88.0938 25.7969,-78.6094 26.1563,-71.8906 C26.5313,-64.6094 27.6406,-58.9219 27.6563,-58.875 C27.6719,-58.7813 27.9375,-57.2813 28.375,-54.7188 C28.1563,-54.4844 27.9063,-54.2656 27.6563,-54.0156 C26.625,-53.0156 25.4375,-51.8906 24.0469,-50.5 C23.1875,-49.6406 22.2344,-48.7344 21.2344,-47.7656 C12.7969,-39.625 0,-27.2969 0,-8.14063 C0,-3.4375 0.90625,0.984375 2.6875,5 C4.26563,8.59375 6.5625,11.875 9.5,14.75 C17.2344,22.3125 27.8281,25.5156 34.875,25.3594 C37.8281,25.2813 40.4688,25.0469 42.8594,24.5938 C44.6875,34.2031 45.8281,41.2344 45.8594,46.5781 C45.9063,53.0938 44.25,57.0781 40.3594,59.8438 C37.9219,61.5781 35.1094,62.5313 32.0156,62.6719 C29.4219,62.7969 27.1563,62.3281 25.7344,61.9219 L25.7188,61.9219 C25.7188,61.9219 25.4375,61.8281 25.4219,61.6406 C25.4063,61.4531 25.7656,61.4063 25.7656,61.4063 L25.7969,61.4063 C27.7188,60.9688 31.2813,59.7344 33.6406,56.4375 C35.4375,53.9063 36.3125,49.2813 34.4688,45.3438 C33.3594,42.9531 30.8594,40 25.2344,39.5469 C22.7344,39.3438 20.4688,39.8594 18.4688,41.0625 C16.6563,42.1406 15.1563,43.7813 14.1094,45.7813 C11.6563,50.4844 12.1094,56.2188 15.2344,60.0625 C18.2031,63.6875 22.8125,66 28.25,66.5781 C29.1094,66.6719 29.9531,66.7031 30.7969,66.7031 C35.2344,66.7031 39.625,65.5 43.2031,63.2969 C46.8594,60.7188 48.9844,56.7344 49.6563,51.1094 C50.2188,46.4688 49.8281,40.5469 48.4375,32.4688 C48.0781,30.375 47.5313,27.3438 46.875,23.5938 C52.625,21.6719 56.7813,18.0938 60.5469,12.2344 C63.8438,6.5 64.7813,0.390625 63.3594,-5.92188 M29.1406,20.2969 C24.5,19.0781 20.0625,16.5781 16.3125,13.0625 C15,11.8438 13.125,9.67188 11.6563,6.28125 C10.2969,3.10938 9.625,-0.328125 9.6875,-3.90625 C9.75,-8.60938 11.0625,-13.4375 13.5625,-18.2188 C16.4844,-23.7969 21.0469,-29.3281 27.1094,-34.6563 C28.5625,-35.9375 29.9375,-37.2188 31.2188,-38.5 C31.9844,-34.2344 32.8125,-29.5469 33.6875,-24.6719 C29.8438,-23.4063 25.0938,-20.25 21.9844,-14.5938 C18.4375,-8.03125 18.5781,-2.5 19.3125,0.984375 C20.25,5.4375 22.7813,9.20313 26.2344,11.2969 C27.1719,11.8594 31.2969,13.9844 33.1406,13.4063 C33.5156,13.2969 33.7813,13.0625 33.9219,12.7344 C34.4375,11.5625 33.4063,10.9219 31.8594,9.96875 C31.25,9.59375 30.5781,9.17188 29.8594,8.64063 C26.5313,6.15625 25.0781,1.70313 26.1563,-2.6875 C26.7344,-5.07813 28.0156,-7.25 29.8594,-8.95313 C31.5156,-10.5 33.5625,-11.5938 35.9375,-12.2344 C37.9844,-0.984375 40.0469,10.1719 41.6875,18.5313 C41.8125,19.2188 41.9531,19.8906 42.0781,20.5625 C37.7031,21.5 33.3594,21.4063 29.1406,20.2969 M40.4688,-12.9063 C50.8125,-13.375 55.0781,-5.9375 55.9688,-1.10938 C56.4375,1.4375 56.4375,5.875 54.8906,10.0938 C53.7188,13.2656 51.2656,17.3438 46.125,19.4063 C46.0625,18.9844 45.9844,18.5469 45.9063,18.125 C44.3594,9.34375 42.4219,-1.65625 40.4688,-12.9063 M33.1406,-83.8594 C34.9219,-89.5938 37.6563,-92.8438 39.6563,-94.5781 C41.4063,-96.0938 43.0469,-96.8125 43.9688,-96.8125 C44.1094,-96.8125 44.2344,-96.7813 44.3281,-96.75 C44.7969,-96.6094 45.3281,-96.0469 45.7969,-95.1719 C48.1094,-90.8906 47.3594,-84.1719 46.0156,-79.7344 C44.3906,-74.3281 41.4688,-68.7188 32.6719,-59.1094 C32.5,-60.2188 32.3438,-61.2656 32.1875,-62.25 C30.9375,-70.5313 31.2656,-77.8125 33.1406,-83.8594"/>
<path class="TimeSig" transform="matrix(0.992126,0,0,0.992126,244.951,212.73)" d="M3.59375,12.625 L20.7656,12.625 L20.7656,20.0781 L12.5469,20.0781 C11.7656,20.0781 11.125,20.7031 11.125,21.4844 L11.125,23.3906 C11.125,24.1719 11.7656,24.7969 12.5469,24.7969 L42.7969,24.7969 C43.5781,24.7969 44.2031,24.1719 44.2031,23.3906 L44.2031,21.4844 C44.2031,20.7031 43.5781,20.0781 42.7969,20.0781 L33.8594,20.0781 L33.8594,12.625 L42.7969,12.625 C43.5781,12.625 44.2031,12 44.2031,11.2188 L44.2031,9.3125 C44.2031,8.53125 43.5781,7.90625 42.7969,7.90625 L33.8594,7.90625 L33.8594,-8.0625 C33.8594,-8.59375 33.5469,-9.07813 33.0781,-9.3125 L31.8594,-9.92188 C31.3281,-10.1719 30.7031,-10.0781 30.2656,-9.6875 L21.2188,-1.375 C20.9375,-1.09375 20.7656,-0.734375 20.7656,-0.328125 L20.7656,7.90625 L9.25,7.90625 C9.25,7.90625 20.375,-4.125 32.2188,-19.8906 C33.0781,-21.0469 32.5781,-22.0938 32.3906,-22.2813 L30.2188,-24.4844 C29.9531,-24.75 29.5938,-24.9063 29.2188,-24.9063 C28.625,-24.9063 15.0625,-24.875 14.3438,-24.9063 C13.625,-24.9219 13.0938,-24.2969 13.0156,-23.6875 C13.0156,-23.6875 12.4844,-16.3281 9.875,-8.1875 C7.28125,-0.078125 4.34375,4.90625 1.6875,8.53125 C1.6875,8.53125 1.14063,9.51563 1.5,10.2656 C1.84375,11.0156 2.48438,12.0938 2.48438,12.0938 C2.48438,12.0938 2.73438,12.625 3.59375,12.625"/>
<path class="TimeSig" transform="matrix(0.992126,0,0,0.992126,244.951,262.073)" d="M3.59375,12.625 L20.7656,12.625 L20.7656,20.0781 L12.5469,20.0781 C11.7656,20.0781 11.125,20.7031 11.125,21.4844 L11.125,23.3906 C11.125,24.1719 11.7656,24.7969 12.5469,24.7969 L42.7969,24.7969 C43.5781,24.7969 44.2031,24.1719 44.2031,23.3906 L44.2031,21.4844 C44.2031,20.7031 43.5781,20.0781 42.7969,20.0781 L33.8594,20.0781 L33.8594,12.625 L42.7969,12.625 C43.5781,12.625 44.2031,12 44.2031,11.2188 L44.2031,9.3125 C44.2031,8.53125 43.5781,7.90625 42.7969,7.90625 L33.8594,7.90625 L33.8594,-8.0625 C33.8594,-8.59375 33.5469,-9.07813 33.0781,-9.3125 L31.8594,-9.92188 C31.3281,-10.1719 30.7031,-10.0781 30.2656,-9.6875 L21.2188,-1.375 C20.9375,-1.09375 20.7656,-0.734375 20.7656,-0.328125 L20.7656,7.90625 L9.25,7.90625 C9.25,7.90625 20.375,-4.125 32.2188,-19.8906 C33.0781,-21.0469 32.5781,-22.0938 32.3906,-22.2813 L30.2188,-24.4844 C29.9531,-24.75 29.5938,-24.9063 29.2188,-24.9063 C28.625,-24.9063 15.0625,-24.875 14.3438,-24.9063 C13.625,-24.9219 13.0938,-24.2969 13.0156,-23.6875 C13.0156,-23.6875 12.4844,-16.3281 9.875,-8.1875 C7.28125,-0.078125 4.34375,4.90625 1.6875,8.53125 C1.6875,8.53125 1.14063,9.51563 1.5,10.2656 C1.84375,11.0156 2.48438,12.0938 2.48438,12.0938 C2.48438,12.0938 2.73438,12.625 3.59375,12.625"/>
<path class="RehearsalMark" fill="none" stroke="#000000" stroke-width="3.97" stroke-linecap="square" stroke-linejoin="miter" stroke-miterlimit="2" fill-rule="evenodd" d="M154.216,21.0729 L262.987,21.0729 L262.987,122.845 L154.216,122.845 L154.216,21.0729 "/>
<path class="RehearsalMark" d="M205.352,35.4899 L182.883,87.9587 C178.32,98.6618 174.664,102.521 168.82,103.115 L168.82,108.459 L197.43,108.459 L197.43,103.115 C190.398,102.724 187.633,100.834 187.633,96.2868 C187.633,94.5993 188.023,93.0212 189.117,90.6462 L190.695,86.8806 L215.352,86.8806 L219.117,96.5837 C220.195,99.3493 220.305,99.8493 220.305,100.631 C220.305,102.427 218.914,103.021 214.555,103.021 L212.867,103.115 L212.867,108.459 L247.617,108.459 L247.617,103.115 C241.977,102.912 240.398,101.927 238.32,96.8806 L212.867,35.4899 L205.352,35.4899 M203.273,56.5837 L212.867,80.2399 L193.273,80.2399 L203.273,56.5837 "/>
<path class="RehearsalMark" fill="none" stroke="#000000" stroke-width="3.97" stroke-linecap="square" stroke-linejoin="miter" stroke-miterlimit="2" fill-rule="evenodd" d="M32.3294,654.622 L133.101,654.622 L133.101,755.393 L32.3294,755.393 L32.3294,654.622 "/>
<path class="RehearsalMark" d="M47.4027,669.523 L47.4027,674.882 L48.8871,674.882 C54.2308,674.882 56.1058,675.273 56.9964,676.257 C57.6996,677.351 57.6996,677.648 57.6996,683.789 L57.6996,726.757 C57.6996,732.882 57.6996,733.179 56.9964,734.179 C56.1058,735.273 54.1371,735.664 48.8871,735.664 L47.4027,735.664 L47.4027,741.007 L87.4964,741.007 C97.7933,741.007 103.043,740.211 108.184,737.945 C114.418,735.164 118.575,728.929 118.575,722.195 C118.575,715.273 114.621,709.82 107.293,706.461 C103.934,704.867 101.059,704.086 95.8089,703.382 C100.653,702.601 103.434,701.898 106.2,700.617 C112.137,697.742 115.309,692.992 115.309,687.054 C115.309,681.414 112.34,676.164 107.496,673.492 C102.043,670.414 97.2933,669.523 85.6058,669.523 L47.4027,669.523 M75.5121,701.601 L75.5121,680.617 C75.3089,676.461 76.6996,675.07 81.0589,674.882 L84.0277,674.882 C92.7464,674.882 97.3871,679.226 97.3871,687.445 C97.3871,692.304 95.7152,696.164 92.5433,698.632 C89.8714,700.82 86.4964,701.601 80.3714,701.601 L75.5121,701.601 M75.5121,707.054 L82.3402,707.054 C88.5746,707.054 91.4496,707.648 94.2308,709.429 C97.6839,711.711 99.6683,716.054 99.6683,721.211 C99.6683,725.961 97.8871,730.32 95.0121,732.695 C92.5433,734.664 89.2777,735.664 84.5277,735.664 L81.5589,735.664 C75.9027,735.461 75.3089,734.867 75.5121,729.32 L75.5121,707.054 "/>
<path class="Harmony" d="M350.527,121.866 C350.496,121.881 350.449,121.881 350.386,121.881 C350.324,121.881 350.277,121.897 350.246,121.897 C350.199,121.912 350.152,121.912 350.09,121.928 C350.027,121.928 349.996,121.944 349.949,121.959 C349.902,121.975 349.871,122.006 349.824,122.022 C349.777,122.053 349.746,122.069 349.73,122.116 C349.683,122.147 349.668,122.178 349.636,122.225 C349.621,122.256 349.605,122.319 349.605,122.366 C349.605,122.397 349.605,122.428 349.605,122.475 L349.605,122.506 C349.605,122.537 349.605,122.584 349.605,122.647 C349.621,122.709 349.621,122.756 349.621,122.787 C349.621,123.366 349.636,123.928 349.652,124.475 C349.652,124.506 349.652,124.537 349.652,124.569 C349.652,124.678 349.652,124.819 349.636,124.975 C349.621,125.178 349.621,125.319 349.621,125.412 L349.621,125.444 L349.621,125.537 C349.621,125.553 349.621,125.584 349.636,125.616 C349.636,125.647 349.636,125.662 349.652,125.678 C349.668,125.694 349.683,125.709 349.715,125.725 C349.73,125.741 349.761,125.741 349.793,125.741 L349.808,125.741 C349.98,125.741 350.152,125.709 350.324,125.631 C350.511,125.569 350.668,125.491 350.824,125.381 C350.98,125.287 351.121,125.162 351.261,125.006 C351.402,124.866 351.527,124.709 351.621,124.553 C351.73,124.397 351.808,124.225 351.871,124.053 C351.949,123.881 351.98,123.709 351.98,123.537 C351.996,123.506 351.996,123.459 351.996,123.428 C351.996,123.334 351.98,123.241 351.965,123.131 C351.933,122.991 351.902,122.85 351.84,122.725 C351.793,122.6 351.715,122.475 351.621,122.366 C351.543,122.241 351.433,122.147 351.324,122.069 C351.215,121.991 351.09,121.928 350.949,121.897 C350.871,121.866 350.777,121.866 350.668,121.866 C350.621,121.866 350.574,121.866 350.527,121.866 M350.215,125.1 C350.215,124.959 350.215,124.741 350.215,124.475 C350.23,124.256 350.23,124.053 350.23,123.866 C350.23,123.819 350.23,123.787 350.23,123.741 C350.23,123.522 350.215,123.303 350.215,123.1 C350.215,123.069 350.199,123.037 350.199,122.959 C350.183,122.881 350.168,122.803 350.168,122.741 C350.152,122.709 350.152,122.678 350.152,122.647 C350.152,122.616 350.152,122.584 350.168,122.553 C350.168,122.491 350.199,122.444 350.23,122.412 C350.277,122.381 350.324,122.366 350.386,122.366 C350.402,122.366 350.402,122.366 350.418,122.366 C350.496,122.381 350.574,122.397 350.668,122.444 C350.746,122.491 350.824,122.553 350.902,122.616 C350.98,122.678 351.043,122.741 351.105,122.787 C351.168,122.85 351.199,122.897 351.23,122.944 C351.308,123.069 351.371,123.225 351.402,123.381 C351.418,123.475 351.418,123.553 351.418,123.647 C351.418,123.709 351.418,123.787 351.418,123.85 C351.386,124.006 351.34,124.147 351.277,124.303 C351.215,124.444 351.121,124.569 351.027,124.694 C350.918,124.803 350.793,124.897 350.668,124.959 C350.527,125.037 350.371,125.084 350.215,125.1"/>
<path class="Harmony" d="M381.449,52.9483 C382.683,54.5577 383.527,56.7452 384.199,59.5108 C384.871,62.2608 385.34,64.9171 385.808,67.6827 C386.293,70.4327 386.574,72.9952 386.668,75.2765 L379.449,74.5108 L371.652,75.2765 L375.652,63.4015 L381.449,52.9483 M379.73,86.3858 L381.636,86.3858 L384.48,86.3858 L385.246,86.3858 L386.105,86.3858 C386.199,86.3858 386.48,86.4796 386.855,86.4796 C387.246,86.4796 387.527,86.4796 387.715,86.5733 C387.902,86.6827 388.09,86.7765 388.386,86.8702 C388.668,86.964 388.855,87.0577 389.043,87.2452 C389.23,87.4327 389.527,87.5265 389.715,87.714 C390.183,88.1983 390.652,89.1515 391.043,90.3858 C391.418,91.5265 391.793,92.7608 392.09,94.1827 C392.371,95.6046 392.652,97.0265 392.933,98.6515 C393.23,100.261 393.605,101.683 393.98,103.011 C394.371,104.339 394.933,105.573 395.511,106.62 C396.074,107.667 396.746,108.339 397.59,108.714 C397.98,108.901 398.449,108.995 399.027,108.995 C399.496,108.995 400.058,108.901 400.636,108.714 C401.496,108.433 402.152,108.058 402.824,107.667 C403.48,107.292 403.965,106.917 404.34,106.433 C404.715,105.964 405.011,105.48 405.293,104.917 C405.574,104.339 405.761,103.964 405.855,103.495 C405.949,103.105 405.949,102.73 405.949,102.261 L405.949,101.776 C405.949,101.12 405.949,100.448 405.855,99.9796 C405.761,99.4952 405.574,98.9327 405.386,98.1671 C405.199,97.4171 405.011,96.839 404.808,96.3702 C404.621,95.8858 404.527,95.2296 404.246,94.3702 C403.965,93.5108 403.668,92.9483 403.574,92.5733 C402.918,90.6671 401.777,86.8702 400.152,81.2608 C399.027,77.1827 398.074,73.7608 397.402,71.089 C396.168,66.2452 395.121,62.2608 394.371,59.1202 C393.136,53.9015 392.183,50.3858 391.699,48.5733 C391.605,48.1983 391.511,47.6358 391.324,46.8702 C391.136,46.1046 391.043,45.4483 390.949,44.8702 C390.855,44.3077 390.558,43.7296 390.371,42.9796 C390.183,42.214 389.996,41.4483 389.808,40.8858 C389.621,40.3077 389.23,39.6515 388.949,38.9796 C388.668,38.3233 388.277,37.839 387.902,37.3702 C387.527,36.9015 387.246,36.5108 386.761,36.1358 C386.293,35.7608 385.808,35.3702 385.246,35.2765 C384.777,35.1827 384.293,35.089 383.73,35.089 L383.34,35.089 C382.683,35.1827 381.918,35.2765 381.058,35.5577 C380.402,35.8546 379.636,36.2296 378.98,36.6983 C378.308,37.1827 377.652,37.5577 377.168,38.0421 C376.699,38.5108 376.215,39.1827 375.746,39.9327 C375.277,40.6983 374.793,41.2608 374.511,41.839 C374.23,42.4015 373.84,43.1671 373.465,44.1202 C373.09,45.0577 372.699,45.8233 372.511,46.4015 C372.324,46.964 372.136,47.7296 371.761,48.6827 C371.371,49.6202 371.09,50.2921 370.996,50.7608 C368.246,57.6983 365.48,64.2608 362.73,70.6202 C358.261,80.7921 355.605,86.964 354.84,89.2452 C354.746,89.6202 354.371,90.2921 353.886,91.3233 C353.418,92.3702 352.855,93.3233 352.371,94.2765 C351.902,95.2296 351.418,96.464 350.855,97.6983 C350.277,98.9327 349.808,100.167 349.527,101.214 C349.136,102.261 348.949,103.198 348.949,104.058 C349.043,104.917 349.246,105.48 349.715,105.964 C350.574,106.62 351.511,107.011 352.558,107.011 L353.23,107.011 C354.558,106.823 355.886,106.433 357.215,105.683 C358.543,104.917 359.496,104.058 359.98,103.198 C360.543,102.167 361.121,100.933 361.59,99.4015 C362.058,97.8858 362.543,96.464 362.824,95.2296 C363.105,93.9952 363.496,92.6671 364.152,91.2296 C364.824,89.8077 365.574,88.6671 366.433,87.714 L371.558,86.1046 C371.855,86.0108 372.23,86.1046 372.902,86.1046 L375.652,86.1046 C375.933,86.1046 377.355,86.1983 379.73,86.3858"/>
<path class="Harmony" d="M1040.92,71.3499 C1042.15,72.9593 1042.99,75.1468 1043.67,77.9124 C1044.34,80.6624 1044.81,83.3187 1045.28,86.0843 C1045.76,88.8343 1046.04,91.3968 1046.13,93.678 L1038.92,92.9124 L1031.12,93.678 L1035.12,81.803 L1040.92,71.3499 M1039.2,104.787 L1041.1,104.787 L1043.95,104.787 L1044.71,104.787 L1045.57,104.787 C1045.67,104.787 1045.95,104.881 1046.32,104.881 C1046.71,104.881 1046.99,104.881 1047.18,104.975 C1047.37,105.084 1047.56,105.178 1047.85,105.272 C1048.13,105.366 1048.32,105.459 1048.51,105.647 C1048.7,105.834 1048.99,105.928 1049.18,106.116 C1049.65,106.6 1050.12,107.553 1050.51,108.787 C1050.88,109.928 1051.26,111.162 1051.56,112.584 C1051.84,114.006 1052.12,115.428 1052.4,117.053 C1052.7,118.662 1053.07,120.084 1053.45,121.412 C1053.84,122.741 1054.4,123.975 1054.98,125.022 C1055.54,126.069 1056.21,126.741 1057.06,127.116 C1057.45,127.303 1057.92,127.397 1058.49,127.397 C1058.96,127.397 1059.53,127.303 1060.1,127.116 C1060.96,126.834 1061.62,126.459 1062.29,126.069 C1062.95,125.694 1063.43,125.319 1063.81,124.834 C1064.18,124.366 1064.48,123.881 1064.76,123.319 C1065.04,122.741 1065.23,122.366 1065.32,121.897 C1065.42,121.506 1065.42,121.131 1065.42,120.662 L1065.42,120.178 C1065.42,119.522 1065.42,118.85 1065.32,118.381 C1065.23,117.897 1065.04,117.334 1064.85,116.569 C1064.67,115.819 1064.48,115.241 1064.28,114.772 C1064.09,114.287 1063.99,113.631 1063.71,112.772 C1063.43,111.912 1063.13,111.35 1063.04,110.975 C1062.38,109.069 1061.24,105.272 1059.62,99.6624 C1058.49,95.5843 1057.54,92.1624 1056.87,89.4905 C1055.63,84.6468 1054.59,80.6624 1053.84,77.5218 C1052.6,72.303 1051.65,68.7874 1051.17,66.9749 C1051.07,66.5999 1050.98,66.0374 1050.79,65.2718 C1050.6,64.5062 1050.51,63.8499 1050.42,63.2718 C1050.32,62.7093 1050.03,62.1312 1049.84,61.3812 C1049.65,60.6155 1049.46,59.8499 1049.28,59.2874 C1049.09,58.7093 1048.7,58.053 1048.42,57.3812 C1048.13,56.7249 1047.74,56.2405 1047.37,55.7718 C1046.99,55.303 1046.71,54.9124 1046.23,54.5374 C1045.76,54.1624 1045.28,53.7718 1044.71,53.678 C1044.24,53.5843 1043.76,53.4905 1043.2,53.4905 L1042.81,53.4905 C1042.15,53.5843 1041.38,53.678 1040.53,53.9593 C1039.87,54.2562 1039.1,54.6312 1038.45,55.0999 C1037.78,55.5843 1037.12,55.9593 1036.63,56.4437 C1036.17,56.9124 1035.68,57.5843 1035.21,58.3343 C1034.74,59.0999 1034.26,59.6624 1033.98,60.2405 C1033.7,60.803 1033.31,61.5687 1032.93,62.5218 C1032.56,63.4593 1032.17,64.2249 1031.98,64.803 C1031.79,65.3655 1031.6,66.1312 1031.23,67.0843 C1030.84,68.0218 1030.56,68.6937 1030.46,69.1624 C1027.71,76.0999 1024.95,82.6624 1022.2,89.0218 C1017.73,99.1937 1015.07,105.366 1014.31,107.647 C1014.21,108.022 1013.84,108.694 1013.35,109.725 C1012.88,110.772 1012.32,111.725 1011.84,112.678 C1011.37,113.631 1010.88,114.866 1010.32,116.1 C1009.74,117.334 1009.28,118.569 1008.99,119.616 C1008.6,120.662 1008.42,121.6 1008.42,122.459 C1008.51,123.319 1008.71,123.881 1009.18,124.366 C1010.04,125.022 1010.98,125.412 1012.03,125.412 L1012.7,125.412 C1014.03,125.225 1015.35,124.834 1016.68,124.084 C1018.01,123.319 1018.96,122.459 1019.45,121.6 C1020.01,120.569 1020.59,119.334 1021.06,117.803 C1021.53,116.287 1022.01,114.866 1022.29,113.631 C1022.57,112.397 1022.96,111.069 1023.62,109.631 C1024.29,108.209 1025.04,107.069 1025.9,106.116 L1031.03,104.506 C1031.32,104.412 1031.7,104.506 1032.37,104.506 L1035.12,104.506 C1035.4,104.506 1036.82,104.6 1039.2,104.787"/>
<path class="Harmony" d="M1706.37,51.7874 C1702.66,52.2562 1699.15,53.1155 1695.73,54.3499 C1692.31,55.5843 1689.16,57.2874 1686.13,59.2874 C1683.09,61.2874 1680.34,63.5687 1677.96,66.1312 C1675.59,68.6937 1673.59,71.6312 1671.88,74.9593 C1670.16,78.2874 1669.02,81.803 1668.37,85.5062 C1667.88,87.7874 1667.7,90.1624 1667.7,92.5374 L1667.7,93.2093 C1667.7,95.4749 1667.79,97.6624 1668.07,99.8499 C1668.37,102.225 1668.93,104.6 1669.7,106.787 C1670.56,109.069 1671.49,111.256 1672.54,113.241 C1673.59,115.241 1674.91,117.053 1676.45,118.662 C1677.96,120.272 1679.85,121.6 1681.76,122.741 C1683.66,123.881 1685.84,124.741 1688.21,125.225 C1689.84,125.506 1691.45,125.694 1693.07,125.694 C1693.91,125.694 1694.87,125.694 1695.91,125.6 C1698.85,125.319 1701.62,124.647 1704.18,123.694 C1706.74,122.741 1709.12,121.6 1711.12,120.272 C1713.1,118.944 1715.1,117.241 1716.91,115.334 C1718.71,113.444 1720.43,111.35 1721.85,109.256 C1723.27,107.162 1724.6,104.787 1726.02,102.131 C1728.21,97.7562 1729.26,94.053 1729.26,91.1155 C1729.26,88.1624 1728.21,85.8812 1726.02,84.2718 C1724.79,83.2249 1722.71,82.5687 1719.95,82.0843 C1717.96,81.803 1715.96,81.6155 1713.96,81.6155 L1713.49,81.6155 L1711.4,81.6155 C1708.46,81.7093 1705.7,82.178 1703.04,83.0374 C1700.38,83.8968 1698.57,84.9437 1697.62,86.178 C1697.34,86.6468 1697.06,87.0218 1696.77,87.4124 C1696.1,88.4593 1695.73,89.3968 1695.73,90.2562 C1695.73,91.4905 1696.59,92.3499 1698.2,92.8187 C1699.52,93.2093 1702.09,93.3968 1705.79,93.3968 L1706.65,93.3968 C1707.88,93.4905 1708.84,93.4905 1709.49,93.4905 C1713.4,93.4905 1715.77,93.9593 1716.52,95.0062 C1716.82,95.3812 1717.1,95.9593 1717.1,96.5218 C1717.1,97.0999 1717.01,97.6624 1716.91,98.2405 C1716.82,98.803 1716.52,99.4749 1716.24,100.225 C1715.96,100.991 1715.68,101.569 1715.38,102.037 C1715.1,102.506 1714.82,103.178 1714.45,103.944 C1714.06,104.694 1713.77,105.084 1713.68,105.272 C1713.21,106.116 1712.91,106.787 1712.63,107.256 C1712.35,107.741 1711.96,108.209 1711.49,108.881 C1711.02,109.537 1710.45,110.116 1709.98,110.491 C1707.98,112.006 1705.79,113.053 1703.23,113.537 L1699.99,113.912 L1699.62,113.912 C1698.38,113.819 1697.06,113.725 1695.82,113.444 C1693.45,112.959 1691.07,112.1 1688.88,110.772 C1686.7,109.444 1684.81,107.834 1683.37,105.928 C1681.95,103.944 1680.62,101.569 1679.66,98.8968 C1678.71,96.2405 1678.15,93.4905 1677.96,90.5374 C1677.87,89.4905 1677.87,88.553 1677.87,87.5062 C1677.87,85.5999 1677.96,83.7093 1678.24,81.8968 C1678.71,79.1468 1679.57,76.4749 1680.9,74.0062 C1682.23,71.5374 1683.95,69.553 1686.04,68.0218 C1688.6,66.0374 1691.73,64.5999 1695.34,63.6624 C1697.34,63.0843 1699.34,62.803 1701.23,62.803 C1702.57,62.803 1703.9,62.9905 1705.13,63.2718 C1706.18,63.5687 1707.21,63.9437 1708.46,64.5062 C1709.7,65.0843 1710.73,65.6468 1711.68,66.2249 C1712.63,66.7874 1713.68,67.3655 1714.73,67.928 C1715.77,68.5062 1716.82,68.9749 1717.76,69.1624 C1718.71,69.3499 1719.66,69.4593 1720.62,69.3499 C1721.57,69.2562 1722.51,68.7874 1723.46,67.928 C1724.41,67.0843 1725.27,65.9437 1726.12,64.5062 C1726.6,63.6624 1726.88,62.803 1726.88,61.9437 C1726.88,61.2874 1726.7,60.7093 1726.41,60.053 C1725.65,58.6155 1724.41,57.3812 1722.71,56.3343 C1720.99,55.303 1719.2,54.3499 1717.1,53.5843 C1715.01,52.8187 1713.01,52.3499 1711.02,52.0687 C1709.59,51.7874 1708.46,51.6937 1707.51,51.6937 C1707.02,51.6937 1706.65,51.6937 1706.37,51.7874"/>
<path class="Harmony" d="M2365.83,51.7874 C2362.13,52.2562 2358.62,53.1155 2355.19,54.3499 C2351.77,55.5843 2348.63,57.2874 2345.6,59.2874 C2342.55,61.2874 2339.8,63.5687 2337.43,66.1312 C2335.05,68.6937 2333.05,71.6312 2331.35,74.9593 C2329.63,78.2874 2328.49,81.803 2327.83,85.5062 C2327.35,87.7874 2327.16,90.1624 2327.16,92.5374 L2327.16,93.2093 C2327.16,95.4749 2327.26,97.6624 2327.54,99.8499 C2327.83,102.225 2328.4,104.6 2329.16,106.787 C2330.02,109.069 2330.96,111.256 2332.01,113.241 C2333.05,115.241 2334.38,117.053 2335.91,118.662 C2337.43,120.272 2339.32,121.6 2341.23,122.741 C2343.13,123.881 2345.3,124.741 2347.68,125.225 C2349.3,125.506 2350.91,125.694 2352.54,125.694 C2353.38,125.694 2354.33,125.694 2355.38,125.6 C2358.32,125.319 2361.08,124.647 2363.65,123.694 C2366.21,122.741 2368.58,121.6 2370.58,120.272 C2372.57,118.944 2374.57,117.241 2376.38,115.334 C2378.18,113.444 2379.9,111.35 2381.32,109.256 C2382.74,107.162 2384.07,104.787 2385.49,102.131 C2387.68,97.7562 2388.73,94.053 2388.73,91.1155 C2388.73,88.1624 2387.68,85.8812 2385.49,84.2718 C2384.26,83.2249 2382.18,82.5687 2379.41,82.0843 C2377.43,81.803 2375.43,81.6155 2373.43,81.6155 L2372.96,81.6155 L2370.87,81.6155 C2367.93,81.7093 2365.16,82.178 2362.51,83.0374 C2359.85,83.8968 2358.04,84.9437 2357.08,86.178 C2356.8,86.6468 2356.52,87.0218 2356.24,87.4124 C2355.57,88.4593 2355.19,89.3968 2355.19,90.2562 C2355.19,91.4905 2356.05,92.3499 2357.66,92.8187 C2358.99,93.2093 2361.55,93.3968 2365.26,93.3968 L2366.12,93.3968 C2367.35,93.4905 2368.3,93.4905 2368.96,93.4905 C2372.87,93.4905 2375.24,93.9593 2375.99,95.0062 C2376.29,95.3812 2376.57,95.9593 2376.57,96.5218 C2376.57,97.0999 2376.48,97.6624 2376.38,98.2405 C2376.29,98.803 2375.99,99.4749 2375.71,100.225 C2375.43,100.991 2375.15,101.569 2374.85,102.037 C2374.57,102.506 2374.29,103.178 2373.91,103.944 C2373.52,104.694 2373.24,105.084 2373.15,105.272 C2372.68,106.116 2372.38,106.787 2372.1,107.256 C2371.82,107.741 2371.43,108.209 2370.96,108.881 C2370.49,109.537 2369.91,110.116 2369.44,110.491 C2367.44,112.006 2365.26,113.053 2362.69,113.537 L2359.46,113.912 L2359.08,113.912 C2357.85,113.819 2356.52,113.725 2355.29,113.444 C2352.91,112.959 2350.54,112.1 2348.35,110.772 C2346.16,109.444 2344.27,107.834 2342.83,105.928 C2341.41,103.944 2340.08,101.569 2339.13,98.8968 C2338.18,96.2405 2337.62,93.4905 2337.43,90.5374 C2337.33,89.4905 2337.33,88.553 2337.33,87.5062 C2337.33,85.5999 2337.43,83.7093 2337.71,81.8968 C2338.18,79.1468 2339.04,76.4749 2340.37,74.0062 C2341.69,71.5374 2343.41,69.553 2345.51,68.0218 C2348.07,66.0374 2351.19,64.5999 2354.8,63.6624 C2356.8,63.0843 2358.8,62.803 2360.69,62.803 C2362.04,62.803 2363.37,62.9905 2364.6,63.2718 C2365.65,63.5687 2366.68,63.9437 2367.93,64.5062 C2369.16,65.0843 2370.19,65.6468 2371.15,66.2249 C2372.1,66.7874 2373.15,67.3655 2374.19,67.928 C2375.24,68.5062 2376.29,68.9749 2377.23,69.1624 C2378.18,69.3499 2379.13,69.4593 2380.08,69.3499 C2381.04,69.2562 2381.98,68.7874 2382.93,67.928 C2383.88,67.0843 2384.74,65.9437 2385.58,64.5062 C2386.07,63.6624 2386.35,62.803 2386.35,61.9437 C2386.35,61.2874 2386.16,60.7093 2385.88,60.053 C2385.12,58.6155 2383.88,57.3812 2382.18,56.3343 C2380.46,55.303 2378.66,54.3499 2376.57,53.5843 C2374.48,52.8187 2372.48,52.3499 2370.49,52.0687 C2369.05,51.7874 2367.93,51.6937 2366.98,51.6937 C2366.49,51.6937 2366.12,51.6937 2365.83,51.7874"/>
<path class="Harmony" d="M202.548,381.389 C203.783,382.999 204.627,385.186 205.298,387.952 C205.97,390.702 206.439,393.358 206.908,396.124 C207.392,398.874 207.673,401.436 207.767,403.717 L200.548,402.952 L192.752,403.717 L196.752,391.842 L202.548,381.389 M200.83,414.827 L202.736,414.827 L205.58,414.827 L206.345,414.827 L207.205,414.827 C207.298,414.827 207.58,414.921 207.955,414.921 C208.345,414.921 208.627,414.921 208.814,415.014 C209.002,415.124 209.189,415.217 209.486,415.311 C209.767,415.405 209.955,415.499 210.142,415.686 C210.33,415.874 210.627,415.967 210.814,416.155 C211.283,416.639 211.752,417.592 212.142,418.827 C212.517,419.967 212.892,421.202 213.189,422.624 C213.47,424.046 213.752,425.467 214.033,427.092 C214.33,428.702 214.705,430.124 215.08,431.452 C215.47,432.78 216.033,434.014 216.611,435.061 C217.173,436.108 217.845,436.78 218.689,437.155 C219.08,437.342 219.548,437.436 220.127,437.436 C220.595,437.436 221.158,437.342 221.736,437.155 C222.595,436.874 223.252,436.499 223.923,436.108 C224.58,435.733 225.064,435.358 225.439,434.874 C225.814,434.405 226.111,433.921 226.392,433.358 C226.673,432.78 226.861,432.405 226.955,431.936 C227.048,431.546 227.048,431.171 227.048,430.702 L227.048,430.217 C227.048,429.561 227.048,428.889 226.955,428.421 C226.861,427.936 226.673,427.374 226.486,426.608 C226.298,425.858 226.111,425.28 225.908,424.811 C225.72,424.327 225.627,423.671 225.345,422.811 C225.064,421.952 224.767,421.389 224.673,421.014 C224.017,419.108 222.877,415.311 221.252,409.702 C220.127,405.624 219.173,402.202 218.502,399.53 C217.267,394.686 216.22,390.702 215.47,387.561 C214.236,382.342 213.283,378.827 212.798,377.014 C212.705,376.639 212.611,376.077 212.423,375.311 C212.236,374.546 212.142,373.889 212.048,373.311 C211.955,372.749 211.658,372.171 211.47,371.421 C211.283,370.655 211.095,369.889 210.908,369.327 C210.72,368.749 210.33,368.092 210.048,367.421 C209.767,366.764 209.377,366.28 209.002,365.811 C208.627,365.342 208.345,364.952 207.861,364.577 C207.392,364.202 206.908,363.811 206.345,363.717 C205.877,363.624 205.392,363.53 204.83,363.53 L204.439,363.53 C203.783,363.624 203.017,363.717 202.158,363.999 C201.502,364.296 200.736,364.671 200.08,365.139 C199.408,365.624 198.752,365.999 198.267,366.483 C197.798,366.952 197.314,367.624 196.845,368.374 C196.377,369.139 195.892,369.702 195.611,370.28 C195.33,370.842 194.939,371.608 194.564,372.561 C194.189,373.499 193.798,374.264 193.611,374.842 C193.423,375.405 193.236,376.171 192.861,377.124 C192.47,378.061 192.189,378.733 192.095,379.202 C189.345,386.139 186.58,392.702 183.83,399.061 C179.361,409.233 176.705,415.405 175.939,417.686 C175.845,418.061 175.47,418.733 174.986,419.764 C174.517,420.811 173.955,421.764 173.47,422.717 C173.002,423.671 172.517,424.905 171.955,426.139 C171.377,427.374 170.908,428.608 170.627,429.655 C170.236,430.702 170.048,431.639 170.048,432.499 C170.142,433.358 170.345,433.921 170.814,434.405 C171.673,435.061 172.611,435.452 173.658,435.452 L174.33,435.452 C175.658,435.264 176.986,434.874 178.314,434.124 C179.642,433.358 180.595,432.499 181.08,431.639 C181.642,430.608 182.22,429.374 182.689,427.842 C183.158,426.327 183.642,424.905 183.923,423.671 C184.205,422.436 184.595,421.108 185.252,419.671 C185.923,418.249 186.673,417.108 187.533,416.155 L192.658,414.546 C192.955,414.452 193.33,414.546 194.002,414.546 L196.752,414.546 C197.033,414.546 198.455,414.639 200.83,414.827"/>
<path class="Harmony" d="M896.171,381.389 C897.405,382.999 898.249,385.186 898.921,387.952 C899.593,390.702 900.061,393.358 900.53,396.124 C901.014,398.874 901.296,401.436 901.389,403.717 L894.171,402.952 L886.374,403.717 L890.374,391.842 L896.171,381.389 M894.452,414.827 L896.358,414.827 L899.202,414.827 L899.968,414.827 L900.827,414.827 C900.921,414.827 901.202,414.921 901.577,414.921 C901.968,414.921 902.249,414.921 902.436,415.014 C902.624,415.124 902.811,415.217 903.108,415.311 C903.389,415.405 903.577,415.499 903.764,415.686 C903.952,415.874 904.249,415.967 904.436,416.155 C904.905,416.639 905.374,417.592 905.764,418.827 C906.139,419.967 906.514,421.202 906.811,422.624 C907.093,424.046 907.374,425.467 907.655,427.092 C907.952,428.702 908.327,430.124 908.702,431.452 C909.093,432.78 909.655,434.014 910.233,435.061 C910.796,436.108 911.468,436.78 912.311,437.155 C912.702,437.342 913.171,437.436 913.749,437.436 C914.218,437.436 914.78,437.342 915.358,437.155 C916.218,436.874 916.874,436.499 917.546,436.108 C918.202,435.733 918.686,435.358 919.061,434.874 C919.436,434.405 919.733,433.921 920.014,433.358 C920.296,432.78 920.483,432.405 920.577,431.936 C920.671,431.546 920.671,431.171 920.671,430.702 L920.671,430.217 C920.671,429.561 920.671,428.889 920.577,428.421 C920.483,427.936 920.296,427.374 920.108,426.608 C919.921,425.858 919.733,425.28 919.53,424.811 C919.343,424.327 919.249,423.671 918.968,422.811 C918.686,421.952 918.389,421.389 918.296,421.014 C917.639,419.108 916.499,415.311 914.874,409.702 C913.749,405.624 912.796,402.202 912.124,399.53 C910.889,394.686 909.843,390.702 909.093,387.561 C907.858,382.342 906.905,378.827 906.421,377.014 C906.327,376.639 906.233,376.077 906.046,375.311 C905.858,374.546 905.764,373.889 905.671,373.311 C905.577,372.749 905.28,372.171 905.093,371.421 C904.905,370.655 904.718,369.889 904.53,369.327 C904.343,368.749 903.952,368.092 903.671,367.421 C903.389,366.764 902.999,366.28 902.624,365.811 C902.249,365.342 901.968,364.952 901.483,364.577 C901.014,364.202 900.53,363.811 899.968,363.717 C899.499,363.624 899.014,363.53 898.452,363.53 L898.061,363.53 C897.405,363.624 896.639,363.717 895.78,363.999 C895.124,364.296 894.358,364.671 893.702,365.139 C893.03,365.624 892.374,365.999 891.889,366.483 C891.421,366.952 890.936,367.624 890.468,368.374 C889.999,369.139 889.514,369.702 889.233,370.28 C888.952,370.842 888.561,371.608 888.186,372.561 C887.811,373.499 887.421,374.264 887.233,374.842 C887.046,375.405 886.858,376.171 886.483,377.124 C886.093,378.061 885.811,378.733 885.718,379.202 C882.968,386.139 880.202,392.702 877.452,399.061 C872.983,409.233 870.327,415.405 869.561,417.686 C869.468,418.061 869.093,418.733 868.608,419.764 C868.139,420.811 867.577,421.764 867.093,422.717 C866.624,423.671 866.139,424.905 865.577,426.139 C864.999,427.374 864.53,428.608 864.249,429.655 C863.858,430.702 863.671,431.639 863.671,432.499 C863.764,433.358 863.968,433.921 864.436,434.405 C865.296,435.061 866.233,435.452 867.28,435.452 L867.952,435.452 C869.28,435.264 870.608,434.874 871.936,434.124 C873.264,433.358 874.218,432.499 874.702,431.639 C875.264,430.608 875.843,429.374 876.311,427.842 C876.78,426.327 877.264,424.905 877.546,423.671 C877.827,422.436 878.218,421.108 878.874,419.671 C879.546,418.249 880.296,417.108 881.155,416.155 L886.28,414.546 C886.577,414.452 886.952,414.546 887.624,414.546 L890.374,414.546 C890.655,414.546 892.077,414.639 894.452,414.827"/>
<path class="Harmony" d="M1595.78,361.827 C1592.07,362.296 1588.56,363.155 1585.14,364.389 C1581.71,365.624 1578.57,367.327 1575.54,369.327 C1572.5,371.327 1569.75,373.608 1567.37,376.171 C1565,378.733 1563,381.671 1561.29,384.999 C1559.57,388.327 1558.43,391.842 1557.78,395.546 C1557.29,397.827 1557.11,400.202 1557.11,402.577 L1557.11,403.249 C1557.11,405.514 1557.2,407.702 1557.48,409.889 C1557.78,412.264 1558.34,414.639 1559.11,416.827 C1559.96,419.108 1560.9,421.296 1561.95,423.28 C1563,425.28 1564.32,427.092 1565.86,428.702 C1567.37,430.311 1569.26,431.639 1571.17,432.78 C1573.07,433.921 1575.25,434.78 1577.62,435.264 C1579.25,435.546 1580.86,435.733 1582.48,435.733 C1583.32,435.733 1584.28,435.733 1585.32,435.639 C1588.26,435.358 1591.03,434.686 1593.59,433.733 C1596.15,432.78 1598.53,431.639 1600.53,430.311 C1602.51,428.983 1604.51,427.28 1606.32,425.374 C1608.12,423.483 1609.84,421.389 1611.26,419.296 C1612.68,417.202 1614.01,414.827 1615.43,412.171 C1617.62,407.796 1618.67,404.092 1618.67,401.155 C1618.67,398.202 1617.62,395.921 1615.43,394.311 C1614.2,393.264 1612.12,392.608 1609.36,392.124 C1607.37,391.842 1605.37,391.655 1603.37,391.655 L1602.9,391.655 L1600.81,391.655 C1597.87,391.749 1595.11,392.217 1592.45,393.077 C1589.79,393.936 1587.98,394.983 1587.03,396.217 C1586.75,396.686 1586.46,397.061 1586.18,397.452 C1585.51,398.499 1585.14,399.436 1585.14,400.296 C1585.14,401.53 1586,402.389 1587.61,402.858 C1588.93,403.249 1591.5,403.436 1595.2,403.436 L1596.06,403.436 C1597.29,403.53 1598.25,403.53 1598.9,403.53 C1602.81,403.53 1605.18,403.999 1605.93,405.046 C1606.23,405.421 1606.51,405.999 1606.51,406.561 C1606.51,407.139 1606.42,407.702 1606.32,408.28 C1606.23,408.842 1605.93,409.514 1605.65,410.264 C1605.37,411.03 1605.09,411.608 1604.79,412.077 C1604.51,412.546 1604.23,413.217 1603.86,413.983 C1603.46,414.733 1603.18,415.124 1603.09,415.311 C1602.62,416.155 1602.32,416.827 1602.04,417.296 C1601.76,417.78 1601.37,418.249 1600.9,418.921 C1600.43,419.577 1599.86,420.155 1599.39,420.53 C1597.39,422.046 1595.2,423.092 1592.64,423.577 L1589.4,423.952 L1589.03,423.952 C1587.79,423.858 1586.46,423.764 1585.23,423.483 C1582.86,422.999 1580.48,422.139 1578.29,420.811 C1576.11,419.483 1574.21,417.874 1572.78,415.967 C1571.36,413.983 1570.03,411.608 1569.07,408.936 C1568.12,406.28 1567.56,403.53 1567.37,400.577 C1567.28,399.53 1567.28,398.592 1567.28,397.546 C1567.28,395.639 1567.37,393.749 1567.65,391.936 C1568.12,389.186 1568.98,386.514 1570.31,384.046 C1571.64,381.577 1573.36,379.592 1575.45,378.061 C1578.01,376.077 1581.14,374.639 1584.75,373.702 C1586.75,373.124 1588.75,372.842 1590.64,372.842 C1591.98,372.842 1593.31,373.03 1594.54,373.311 C1595.59,373.608 1596.62,373.983 1597.87,374.546 C1599.11,375.124 1600.14,375.686 1601.09,376.264 C1602.04,376.827 1603.09,377.405 1604.14,377.967 C1605.18,378.546 1606.23,379.014 1607.17,379.202 C1608.12,379.389 1609.07,379.499 1610.03,379.389 C1610.98,379.296 1611.92,378.827 1612.87,377.967 C1613.82,377.124 1614.68,375.983 1615.53,374.546 C1616.01,373.702 1616.29,372.842 1616.29,371.983 C1616.29,371.327 1616.11,370.749 1615.82,370.092 C1615.06,368.655 1613.82,367.421 1612.12,366.374 C1610.4,365.342 1608.61,364.389 1606.51,363.624 C1604.42,362.858 1602.42,362.389 1600.43,362.108 C1599,361.827 1597.87,361.733 1596.92,361.733 C1596.43,361.733 1596.06,361.733 1595.78,361.827"/>
<path class="Harmony" d="M2268.49,361.436 C2268.02,361.53 2267.26,361.624 2266.02,361.733 C2264.79,361.827 2263.84,362.014 2263.18,362.108 C2262.51,362.202 2261.56,362.296 2260.42,362.483 C2259.27,362.671 2258.43,362.967 2257.67,363.249 C2256.9,363.53 2256.06,363.905 2255.29,364.389 C2254.52,364.858 2253.87,365.342 2253.38,365.999 C2252.73,366.671 2252.24,367.421 2251.87,368.186 C2251.49,368.952 2251.21,369.889 2251.1,370.842 C2251.01,371.514 2251.01,372.171 2251.01,372.842 L2251.01,373.405 C2251.1,374.077 2251.1,375.03 2251.21,376.171 C2251.31,377.311 2251.31,378.249 2251.31,378.921 C2251.31,389.749 2251.59,400.389 2252.06,410.936 C2252.15,411.499 2252.15,412.077 2252.15,412.749 C2252.06,414.733 2251.96,417.389 2251.77,420.53 C2251.49,424.233 2251.31,426.999 2251.31,428.796 L2251.31,429.374 L2251.31,430.983 C2251.31,431.452 2251.49,431.936 2251.59,432.499 C2251.68,433.077 2251.87,433.546 2252.15,433.827 C2252.45,434.124 2252.73,434.405 2253.2,434.686 C2253.59,434.874 2254.06,434.967 2254.62,434.967 L2254.92,434.967 C2258.23,434.874 2261.56,434.217 2264.88,432.983 C2268.21,431.749 2271.35,430.217 2274.29,428.233 C2277.24,426.233 2279.99,423.858 2282.65,421.108 C2285.31,418.342 2287.59,415.499 2289.49,412.452 C2291.38,409.421 2293.01,406.28 2294.24,402.952 C2295.48,399.624 2296.13,396.311 2296.34,393.171 C2296.43,392.499 2296.43,391.749 2296.43,391.077 C2296.43,389.28 2296.24,387.374 2295.85,385.483 C2295.38,382.811 2294.62,380.155 2293.57,377.686 C2292.52,375.217 2291.2,372.936 2289.49,370.749 C2287.77,368.561 2285.88,366.764 2283.79,365.249 C2281.7,363.717 2279.42,362.577 2276.76,361.921 C2275.06,361.436 2273.24,361.249 2271.45,361.249 C2270.49,361.249 2269.54,361.342 2268.49,361.436 M2262.6,422.811 C2262.6,420.061 2262.7,416.061 2262.79,410.936 C2262.88,406.858 2262.98,402.952 2262.98,399.436 C2262.98,398.592 2262.88,397.733 2262.88,396.874 C2262.88,392.702 2262.79,388.608 2262.6,384.811 C2262.6,384.342 2262.51,383.483 2262.32,382.061 C2262.13,380.624 2261.85,379.296 2261.74,378.061 C2261.65,377.499 2261.65,376.921 2261.65,376.358 C2261.65,375.686 2261.65,375.124 2261.74,374.452 C2261.95,373.217 2262.32,372.264 2262.98,371.796 C2263.84,371.124 2264.79,370.842 2265.84,370.842 C2266.12,370.936 2266.4,370.936 2266.7,370.936 C2268.12,371.124 2269.63,371.608 2271.24,372.467 C2272.87,373.311 2274.38,374.452 2275.81,375.592 C2277.24,376.733 2278.57,377.874 2279.62,379.014 C2280.65,380.155 2281.51,381.014 2281.99,381.874 C2283.51,384.342 2284.56,387.092 2285.12,390.124 C2285.4,391.842 2285.6,393.546 2285.6,395.264 C2285.6,396.499 2285.49,397.733 2285.4,398.967 C2284.93,401.905 2284.07,404.764 2282.84,407.514 C2281.6,410.264 2279.99,412.749 2278.09,414.921 C2276.1,417.108 2273.82,418.827 2271.15,420.249 C2268.49,421.671 2265.65,422.53 2262.6,422.811"/>
<path class="Harmony" d="M202.548,698.971 C203.783,700.581 204.627,702.768 205.298,705.534 C205.97,708.284 206.439,710.94 206.908,713.706 C207.392,716.456 207.673,719.018 207.767,721.3 L200.548,720.534 L192.752,721.3 L196.752,709.425 L202.548,698.971 M200.83,732.409 L202.736,732.409 L205.58,732.409 L206.345,732.409 L207.205,732.409 C207.298,732.409 207.58,732.503 207.955,732.503 C208.345,732.503 208.627,732.503 208.814,732.596 C209.002,732.706 209.189,732.8 209.486,732.893 C209.767,732.987 209.955,733.081 210.142,733.268 C210.33,733.456 210.627,733.55 210.814,733.737 C211.283,734.221 211.752,735.175 212.142,736.409 C212.517,737.55 212.892,738.784 213.189,740.206 C213.47,741.628 213.752,743.05 214.033,744.675 C214.33,746.284 214.705,747.706 215.08,749.034 C215.47,750.362 216.033,751.596 216.611,752.643 C217.173,753.69 217.845,754.362 218.689,754.737 C219.08,754.925 219.548,755.018 220.127,755.018 C220.595,755.018 221.158,754.925 221.736,754.737 C222.595,754.456 223.252,754.081 223.923,753.69 C224.58,753.315 225.064,752.94 225.439,752.456 C225.814,751.987 226.111,751.503 226.392,750.94 C226.673,750.362 226.861,749.987 226.955,749.518 C227.048,749.128 227.048,748.753 227.048,748.284 L227.048,747.8 C227.048,747.143 227.048,746.471 226.955,746.003 C226.861,745.518 226.673,744.956 226.486,744.19 C226.298,743.44 226.111,742.862 225.908,742.393 C225.72,741.909 225.627,741.253 225.345,740.393 C225.064,739.534 224.767,738.971 224.673,738.596 C224.017,736.69 222.877,732.893 221.252,727.284 C220.127,723.206 219.173,719.784 218.502,717.112 C217.267,712.268 216.22,708.284 215.47,705.143 C214.236,699.925 213.283,696.409 212.798,694.596 C212.705,694.221 212.611,693.659 212.423,692.893 C212.236,692.128 212.142,691.471 212.048,690.893 C211.955,690.331 211.658,689.753 211.47,689.003 C211.283,688.237 211.095,687.471 210.908,686.909 C210.72,686.331 210.33,685.675 210.048,685.003 C209.767,684.346 209.377,683.862 209.002,683.393 C208.627,682.925 208.345,682.534 207.861,682.159 C207.392,681.784 206.908,681.393 206.345,681.3 C205.877,681.206 205.392,681.112 204.83,681.112 L204.439,681.112 C203.783,681.206 203.017,681.3 202.158,681.581 C201.502,681.878 200.736,682.253 200.08,682.721 C199.408,683.206 198.752,683.581 198.267,684.065 C197.798,684.534 197.314,685.206 196.845,685.956 C196.377,686.721 195.892,687.284 195.611,687.862 C195.33,688.425 194.939,689.19 194.564,690.143 C194.189,691.081 193.798,691.846 193.611,692.425 C193.423,692.987 193.236,693.753 192.861,694.706 C192.47,695.643 192.189,696.315 192.095,696.784 C189.345,703.721 186.58,710.284 183.83,716.643 C179.361,726.815 176.705,732.987 175.939,735.268 C175.845,735.643 175.47,736.315 174.986,737.346 C174.517,738.393 173.955,739.346 173.47,740.3 C173.002,741.253 172.517,742.487 171.955,743.721 C171.377,744.956 170.908,746.19 170.627,747.237 C170.236,748.284 170.048,749.221 170.048,750.081 C170.142,750.94 170.345,751.503 170.814,751.987 C171.673,752.643 172.611,753.034 173.658,753.034 L174.33,753.034 C175.658,752.846 176.986,752.456 178.314,751.706 C179.642,750.94 180.595,750.081 181.08,749.221 C181.642,748.19 182.22,746.956 182.689,745.425 C183.158,743.909 183.642,742.487 183.923,741.253 C184.205,740.018 184.595,738.69 185.252,737.253 C185.923,735.831 186.673,734.69 187.533,733.737 L192.658,732.128 C192.955,732.034 193.33,732.128 194.002,732.128 L196.752,732.128 C197.033,732.128 198.455,732.221 200.83,732.409"/>
<path class="Harmony" d="M906.741,698.971 C907.975,700.581 908.819,702.768 909.491,705.534 C910.163,708.284 910.631,710.94 911.1,713.706 C911.584,716.456 911.866,719.018 911.959,721.3 L904.741,720.534 L896.944,721.3 L900.944,709.425 L906.741,698.971 M905.022,732.409 L906.928,732.409 L909.772,732.409 L910.538,732.409 L911.397,732.409 C911.491,732.409 911.772,732.503 912.147,732.503 C912.538,732.503 912.819,732.503 913.006,732.596 C913.194,732.706 913.381,732.8 913.678,732.893 C913.959,732.987 914.147,733.081 914.334,733.268 C914.522,733.456 914.819,733.55 915.006,733.737 C915.475,734.221 915.944,735.175 916.334,736.409 C916.709,737.55 917.084,738.784 917.381,740.206 C917.663,741.628 917.944,743.05 918.225,744.675 C918.522,746.284 918.897,747.706 919.272,749.034 C919.663,750.362 920.225,751.596 920.803,752.643 C921.366,753.69 922.038,754.362 922.881,754.737 C923.272,754.925 923.741,755.018 924.319,755.018 C924.788,755.018 925.35,754.925 925.928,754.737 C926.788,754.456 927.444,754.081 928.116,753.69 C928.772,753.315 929.256,752.94 929.631,752.456 C930.006,751.987 930.303,751.503 930.584,750.94 C930.866,750.362 931.053,749.987 931.147,749.518 C931.241,749.128 931.241,748.753 931.241,748.284 L931.241,747.8 C931.241,747.143 931.241,746.471 931.147,746.003 C931.053,745.518 930.866,744.956 930.678,744.19 C930.491,743.44 930.303,742.862 930.1,742.393 C929.913,741.909 929.819,741.253 929.538,740.393 C929.256,739.534 928.959,738.971 928.866,738.596 C928.209,736.69 927.069,732.893 925.444,727.284 C924.319,723.206 923.366,719.784 922.694,717.112 C921.459,712.268 920.413,708.284 919.663,705.143 C918.428,699.925 917.475,696.409 916.991,694.596 C916.897,694.221 916.803,693.659 916.616,692.893 C916.428,692.128 916.334,691.471 916.241,690.893 C916.147,690.331 915.85,689.753 915.663,689.003 C915.475,688.237 915.288,687.471 915.1,686.909 C914.913,686.331 914.522,685.675 914.241,685.003 C913.959,684.346 913.569,683.862 913.194,683.393 C912.819,682.925 912.538,682.534 912.053,682.159 C911.584,681.784 911.1,681.393 910.538,681.3 C910.069,681.206 909.584,681.112 909.022,681.112 L908.631,681.112 C907.975,681.206 907.209,681.3 906.35,681.581 C905.694,681.878 904.928,682.253 904.272,682.721 C903.6,683.206 902.944,683.581 902.459,684.065 C901.991,684.534 901.506,685.206 901.038,685.956 C900.569,686.721 900.084,687.284 899.803,687.862 C899.522,688.425 899.131,689.19 898.756,690.143 C898.381,691.081 897.991,691.846 897.803,692.425 C897.616,692.987 897.428,693.753 897.053,694.706 C896.663,695.643 896.381,696.315 896.288,696.784 C893.538,703.721 890.772,710.284 888.022,716.643 C883.553,726.815 880.897,732.987 880.131,735.268 C880.038,735.643 879.663,736.315 879.178,737.346 C878.709,738.393 878.147,739.346 877.663,740.3 C877.194,741.253 876.709,742.487 876.147,743.721 C875.569,744.956 875.1,746.19 874.819,747.237 C874.428,748.284 874.241,749.221 874.241,750.081 C874.334,750.94 874.538,751.503 875.006,751.987 C875.866,752.643 876.803,753.034 877.85,753.034 L878.522,753.034 C879.85,752.846 881.178,752.456 882.506,751.706 C883.834,750.94 884.788,750.081 885.272,749.221 C885.834,748.19 886.413,746.956 886.881,745.425 C887.35,743.909 887.834,742.487 888.116,741.253 C888.397,740.018 888.788,738.69 889.444,737.253 C890.116,735.831 890.866,734.69 891.725,733.737 L896.85,732.128 C897.147,732.034 897.522,732.128 898.194,732.128 L900.944,732.128 C901.225,732.128 902.647,732.221 905.022,732.409"/>
<path class="Harmony" d="M1616.92,679.409 C1613.21,679.878 1609.7,680.737 1606.28,681.971 C1602.85,683.206 1599.71,684.909 1596.68,686.909 C1593.64,688.909 1590.89,691.19 1588.51,693.753 C1586.14,696.315 1584.14,699.253 1582.43,702.581 C1580.71,705.909 1579.57,709.425 1578.92,713.128 C1578.43,715.409 1578.25,717.784 1578.25,720.159 L1578.25,720.831 C1578.25,723.096 1578.34,725.284 1578.62,727.471 C1578.92,729.846 1579.48,732.221 1580.25,734.409 C1581.1,736.69 1582.04,738.878 1583.09,740.862 C1584.14,742.862 1585.46,744.675 1587,746.284 C1588.51,747.893 1590.4,749.221 1592.31,750.362 C1594.21,751.503 1596.39,752.362 1598.76,752.846 C1600.39,753.128 1602,753.315 1603.62,753.315 C1604.46,753.315 1605.42,753.315 1606.46,753.221 C1609.4,752.94 1612.17,752.268 1614.73,751.315 C1617.29,750.362 1619.67,749.221 1621.67,747.893 C1623.65,746.565 1625.65,744.862 1627.46,742.956 C1629.26,741.065 1630.98,738.971 1632.4,736.878 C1633.82,734.784 1635.15,732.409 1636.57,729.753 C1638.76,725.378 1639.81,721.675 1639.81,718.737 C1639.81,715.784 1638.76,713.503 1636.57,711.893 C1635.34,710.846 1633.26,710.19 1630.5,709.706 C1628.51,709.425 1626.51,709.237 1624.51,709.237 L1624.04,709.237 L1621.95,709.237 C1619.01,709.331 1616.25,709.8 1613.59,710.659 C1610.93,711.518 1609.12,712.565 1608.17,713.8 C1607.89,714.268 1607.6,714.643 1607.32,715.034 C1606.65,716.081 1606.28,717.018 1606.28,717.878 C1606.28,719.112 1607.14,719.971 1608.75,720.44 C1610.07,720.831 1612.64,721.018 1616.34,721.018 L1617.2,721.018 C1618.43,721.112 1619.39,721.112 1620.04,721.112 C1623.95,721.112 1626.32,721.581 1627.07,722.628 C1627.37,723.003 1627.65,723.581 1627.65,724.143 C1627.65,724.721 1627.56,725.284 1627.46,725.862 C1627.37,726.425 1627.07,727.096 1626.79,727.846 C1626.51,728.612 1626.23,729.19 1625.93,729.659 C1625.65,730.128 1625.37,730.8 1625,731.565 C1624.6,732.315 1624.32,732.706 1624.23,732.893 C1623.76,733.737 1623.46,734.409 1623.18,734.878 C1622.9,735.362 1622.51,735.831 1622.04,736.503 C1621.57,737.159 1621,737.737 1620.53,738.112 C1618.53,739.628 1616.34,740.675 1613.78,741.159 L1610.54,741.534 L1610.17,741.534 C1608.93,741.44 1607.6,741.346 1606.37,741.065 C1604,740.581 1601.62,739.721 1599.43,738.393 C1597.25,737.065 1595.35,735.456 1593.92,733.55 C1592.5,731.565 1591.17,729.19 1590.21,726.518 C1589.26,723.862 1588.7,721.112 1588.51,718.159 C1588.42,717.112 1588.42,716.175 1588.42,715.128 C1588.42,713.221 1588.51,711.331 1588.79,709.518 C1589.26,706.768 1590.12,704.096 1591.45,701.628 C1592.78,699.159 1594.5,697.175 1596.59,695.643 C1599.15,693.659 1602.28,692.221 1605.89,691.284 C1607.89,690.706 1609.89,690.425 1611.78,690.425 C1613.12,690.425 1614.45,690.612 1615.68,690.893 C1616.73,691.19 1617.76,691.565 1619.01,692.128 C1620.25,692.706 1621.28,693.268 1622.23,693.846 C1623.18,694.409 1624.23,694.987 1625.28,695.55 C1626.32,696.128 1627.37,696.596 1628.31,696.784 C1629.26,696.971 1630.21,697.081 1631.17,696.971 C1632.12,696.878 1633.06,696.409 1634.01,695.55 C1634.96,694.706 1635.82,693.565 1636.67,692.128 C1637.15,691.284 1637.43,690.425 1637.43,689.565 C1637.43,688.909 1637.25,688.331 1636.96,687.675 C1636.2,686.237 1634.96,685.003 1633.26,683.956 C1631.54,682.925 1629.75,681.971 1627.65,681.206 C1625.56,680.44 1623.56,679.971 1621.57,679.69 C1620.14,679.409 1619.01,679.315 1618.06,679.315 C1617.57,679.315 1617.2,679.315 1616.92,679.409"/>
<path class="Harmony" d="M2321.11,679.409 C2317.41,679.878 2313.89,680.737 2310.47,681.971 C2307.05,683.206 2303.91,684.909 2300.88,686.909 C2297.83,688.909 2295.08,691.19 2292.7,693.753 C2290.33,696.315 2288.33,699.253 2286.63,702.581 C2284.91,705.909 2283.77,709.425 2283.11,713.128 C2282.63,715.409 2282.44,717.784 2282.44,720.159 L2282.44,720.831 C2282.44,723.096 2282.53,725.284 2282.81,727.471 C2283.11,729.846 2283.67,732.221 2284.44,734.409 C2285.3,736.69 2286.23,738.878 2287.28,740.862 C2288.33,742.862 2289.66,744.675 2291.19,746.284 C2292.7,747.893 2294.59,749.221 2296.5,750.362 C2298.41,751.503 2300.58,752.362 2302.95,752.846 C2304.58,753.128 2306.19,753.315 2307.81,753.315 C2308.66,753.315 2309.61,753.315 2310.66,753.221 C2313.59,752.94 2316.36,752.268 2318.92,751.315 C2321.48,750.362 2323.86,749.221 2325.86,747.893 C2327.84,746.565 2329.84,744.862 2331.66,742.956 C2333.45,741.065 2335.17,738.971 2336.59,736.878 C2338.02,734.784 2339.34,732.409 2340.77,729.753 C2342.95,725.378 2344,721.675 2344,718.737 C2344,715.784 2342.95,713.503 2340.77,711.893 C2339.53,710.846 2337.45,710.19 2334.69,709.706 C2332.7,709.425 2330.7,709.237 2328.7,709.237 L2328.23,709.237 L2326.14,709.237 C2323.2,709.331 2320.44,709.8 2317.78,710.659 C2315.13,711.518 2313.31,712.565 2312.36,713.8 C2312.08,714.268 2311.8,714.643 2311.52,715.034 C2310.84,716.081 2310.47,717.018 2310.47,717.878 C2310.47,719.112 2311.33,719.971 2312.94,720.44 C2314.27,720.831 2316.83,721.018 2320.53,721.018 L2321.39,721.018 C2322.63,721.112 2323.58,721.112 2324.23,721.112 C2328.14,721.112 2330.52,721.581 2331.27,722.628 C2331.56,723.003 2331.84,723.581 2331.84,724.143 C2331.84,724.721 2331.75,725.284 2331.66,725.862 C2331.56,726.425 2331.27,727.096 2330.98,727.846 C2330.7,728.612 2330.42,729.19 2330.13,729.659 C2329.84,730.128 2329.56,730.8 2329.19,731.565 C2328.8,732.315 2328.52,732.706 2328.42,732.893 C2327.95,733.737 2327.66,734.409 2327.38,734.878 C2327.09,735.362 2326.7,735.831 2326.23,736.503 C2325.77,737.159 2325.19,737.737 2324.72,738.112 C2322.72,739.628 2320.53,740.675 2317.97,741.159 L2314.73,741.534 L2314.36,741.534 C2313.13,741.44 2311.8,741.346 2310.56,741.065 C2308.19,740.581 2305.81,739.721 2303.63,738.393 C2301.44,737.065 2299.55,735.456 2298.11,733.55 C2296.69,731.565 2295.36,729.19 2294.41,726.518 C2293.45,723.862 2292.89,721.112 2292.7,718.159 C2292.61,717.112 2292.61,716.175 2292.61,715.128 C2292.61,713.221 2292.7,711.331 2292.98,709.518 C2293.45,706.768 2294.31,704.096 2295.64,701.628 C2296.97,699.159 2298.69,697.175 2300.78,695.643 C2303.34,693.659 2306.47,692.221 2310.08,691.284 C2312.08,690.706 2314.08,690.425 2315.97,690.425 C2317.31,690.425 2318.64,690.612 2319.88,690.893 C2320.92,691.19 2321.95,691.565 2323.2,692.128 C2324.44,692.706 2325.47,693.268 2326.42,693.846 C2327.38,694.409 2328.42,694.987 2329.47,695.55 C2330.52,696.128 2331.56,696.596 2332.5,696.784 C2333.45,696.971 2334.41,697.081 2335.36,696.971 C2336.31,696.878 2337.25,696.409 2338.2,695.55 C2339.16,694.706 2340.02,693.565 2340.86,692.128 C2341.34,691.284 2341.63,690.425 2341.63,689.565 C2341.63,688.909 2341.44,688.331 2341.16,687.675 C2340.39,686.237 2339.16,685.003 2337.45,683.956 C2335.73,682.925 2333.94,681.971 2331.84,681.206 C2329.75,680.44 2327.75,679.971 2325.77,679.69 C2324.33,679.409 2323.2,679.315 2322.25,679.315 C2321.77,679.315 2321.39,679.315 2321.11,679.409"/>
<path class="Harmony" d="M202.548,1009.01 C203.783,1010.62 204.627,1012.81 205.298,1015.57 C205.97,1018.32 206.439,1020.98 206.908,1023.75 C207.392,1026.5 207.673,1029.06 207.767,1031.34 L200.548,1030.57 L192.752,1031.34 L196.752,1019.46 L202.548,1009.01 M200.83,1042.45 L202.736,1042.45 L205.58,1042.45 L206.345,1042.45 L207.205,1042.45 C207.298,1042.45 207.58,1042.54 207.955,1042.54 C208.345,1042.54 208.627,1042.54 208.814,1042.64 C209.002,1042.75 209.189,1042.84 209.486,1042.93 C209.767,1043.03 209.955,1043.12 210.142,1043.31 C210.33,1043.5 210.627,1043.59 210.814,1043.78 C211.283,1044.26 211.752,1045.21 212.142,1046.45 C212.517,1047.59 212.892,1048.82 213.189,1050.25 C213.47,1051.67 213.752,1053.09 214.033,1054.71 C214.33,1056.32 214.705,1057.75 215.08,1059.07 C215.47,1060.4 216.033,1061.64 216.611,1062.68 C217.173,1063.73 217.845,1064.4 218.689,1064.78 C219.08,1064.96 219.548,1065.06 220.127,1065.06 C220.595,1065.06 221.158,1064.96 221.736,1064.78 C222.595,1064.5 223.252,1064.12 223.923,1063.73 C224.58,1063.35 225.064,1062.98 225.439,1062.5 C225.814,1062.03 226.111,1061.54 226.392,1060.98 C226.673,1060.4 226.861,1060.03 226.955,1059.56 C227.048,1059.17 227.048,1058.79 227.048,1058.32 L227.048,1057.84 C227.048,1057.18 227.048,1056.51 226.955,1056.04 C226.861,1055.56 226.673,1055 226.486,1054.23 C226.298,1053.48 226.111,1052.9 225.908,1052.43 C225.72,1051.95 225.627,1051.29 225.345,1050.43 C225.064,1049.57 224.767,1049.01 224.673,1048.64 C224.017,1046.73 222.877,1042.93 221.252,1037.32 C220.127,1033.25 219.173,1029.82 218.502,1027.15 C217.267,1022.31 216.22,1018.32 215.47,1015.18 C214.236,1009.96 213.283,1006.45 212.798,1004.64 C212.705,1004.26 212.611,1003.7 212.423,1002.93 C212.236,1002.17 212.142,1001.51 212.048,1000.93 C211.955,1000.37 211.658,999.792 211.47,999.042 C211.283,998.276 211.095,997.511 210.908,996.948 C210.72,996.37 210.33,995.714 210.048,995.042 C209.767,994.386 209.377,993.901 209.002,993.433 C208.627,992.964 208.345,992.573 207.861,992.198 C207.392,991.823 206.908,991.433 206.345,991.339 C205.877,991.245 205.392,991.151 204.83,991.151 L204.439,991.151 C203.783,991.245 203.017,991.339 202.158,991.62 C201.502,991.917 200.736,992.292 200.08,992.761 C199.408,993.245 198.752,993.62 198.267,994.105 C197.798,994.573 197.314,995.245 196.845,995.995 C196.377,996.761 195.892,997.323 195.611,997.901 C195.33,998.464 194.939,999.23 194.564,1000.18 C194.189,1001.12 193.798,1001.89 193.611,1002.46 C193.423,1003.03 193.236,1003.79 192.861,1004.75 C192.47,1005.68 192.189,1006.35 192.095,1006.82 C189.345,1013.76 186.58,1020.32 183.83,1026.68 C179.361,1036.85 176.705,1043.03 175.939,1045.31 C175.845,1045.68 175.47,1046.35 174.986,1047.39 C174.517,1048.43 173.955,1049.39 173.47,1050.34 C173.002,1051.29 172.517,1052.53 171.955,1053.76 C171.377,1055 170.908,1056.23 170.627,1057.28 C170.236,1058.32 170.048,1059.26 170.048,1060.12 C170.142,1060.98 170.345,1061.54 170.814,1062.03 C171.673,1062.68 172.611,1063.07 173.658,1063.07 L174.33,1063.07 C175.658,1062.89 176.986,1062.5 178.314,1061.75 C179.642,1060.98 180.595,1060.12 181.08,1059.26 C181.642,1058.23 182.22,1057 182.689,1055.46 C183.158,1053.95 183.642,1052.53 183.923,1051.29 C184.205,1050.06 184.595,1048.73 185.252,1047.29 C185.923,1045.87 186.673,1044.73 187.533,1043.78 L192.658,1042.17 C192.955,1042.07 193.33,1042.17 194.002,1042.17 L196.752,1042.17 C197.033,1042.17 198.455,1042.26 200.83,1042.45"/>
<path class="Harmony" d="M884.079,1009.01 C885.314,1010.62 886.157,1012.81 886.829,1015.57 C887.501,1018.32 887.97,1020.98 888.439,1023.75 C888.923,1026.5 889.204,1029.06 889.298,1031.34 L882.079,1030.57 L874.282,1031.34 L878.282,1019.46 L884.079,1009.01 M882.36,1042.45 L884.267,1042.45 L887.11,1042.45 L887.876,1042.45 L888.735,1042.45 C888.829,1042.45 889.11,1042.54 889.485,1042.54 C889.876,1042.54 890.157,1042.54 890.345,1042.64 C890.532,1042.75 890.72,1042.84 891.017,1042.93 C891.298,1043.03 891.485,1043.12 891.673,1043.31 C891.86,1043.5 892.157,1043.59 892.345,1043.78 C892.814,1044.26 893.282,1045.21 893.673,1046.45 C894.048,1047.59 894.423,1048.82 894.72,1050.25 C895.001,1051.67 895.282,1053.09 895.564,1054.71 C895.86,1056.32 896.235,1057.75 896.61,1059.07 C897.001,1060.4 897.564,1061.64 898.142,1062.68 C898.704,1063.73 899.376,1064.4 900.22,1064.78 C900.61,1064.96 901.079,1065.06 901.657,1065.06 C902.126,1065.06 902.689,1064.96 903.267,1064.78 C904.126,1064.5 904.782,1064.12 905.454,1063.73 C906.11,1063.35 906.595,1062.98 906.97,1062.5 C907.345,1062.03 907.642,1061.54 907.923,1060.98 C908.204,1060.4 908.392,1060.03 908.485,1059.56 C908.579,1059.17 908.579,1058.79 908.579,1058.32 L908.579,1057.84 C908.579,1057.18 908.579,1056.51 908.485,1056.04 C908.392,1055.56 908.204,1055 908.017,1054.23 C907.829,1053.48 907.642,1052.9 907.439,1052.43 C907.251,1051.95 907.157,1051.29 906.876,1050.43 C906.595,1049.57 906.298,1049.01 906.204,1048.64 C905.548,1046.73 904.407,1042.93 902.782,1037.32 C901.657,1033.25 900.704,1029.82 900.032,1027.15 C898.798,1022.31 897.751,1018.32 897.001,1015.18 C895.767,1009.96 894.814,1006.45 894.329,1004.64 C894.235,1004.26 894.142,1003.7 893.954,1002.93 C893.767,1002.17 893.673,1001.51 893.579,1000.93 C893.485,1000.37 893.189,999.792 893.001,999.042 C892.814,998.276 892.626,997.511 892.439,996.948 C892.251,996.37 891.86,995.714 891.579,995.042 C891.298,994.386 890.907,993.901 890.532,993.433 C890.157,992.964 889.876,992.573 889.392,992.198 C888.923,991.823 888.439,991.433 887.876,991.339 C887.407,991.245 886.923,991.151 886.36,991.151 L885.97,991.151 C885.314,991.245 884.548,991.339 883.689,991.62 C883.032,991.917 882.267,992.292 881.61,992.761 C880.939,993.245 880.282,993.62 879.798,994.105 C879.329,994.573 878.845,995.245 878.376,995.995 C877.907,996.761 877.423,997.323 877.142,997.901 C876.86,998.464 876.47,999.23 876.095,1000.18 C875.72,1001.12 875.329,1001.89 875.142,1002.46 C874.954,1003.03 874.767,1003.79 874.392,1004.75 C874.001,1005.68 873.72,1006.35 873.626,1006.82 C870.876,1013.76 868.11,1020.32 865.36,1026.68 C860.892,1036.85 858.235,1043.03 857.47,1045.31 C857.376,1045.68 857.001,1046.35 856.517,1047.39 C856.048,1048.43 855.485,1049.39 855.001,1050.34 C854.532,1051.29 854.048,1052.53 853.485,1053.76 C852.907,1055 852.439,1056.23 852.157,1057.28 C851.767,1058.32 851.579,1059.26 851.579,1060.12 C851.673,1060.98 851.876,1061.54 852.345,1062.03 C853.204,1062.68 854.142,1063.07 855.189,1063.07 L855.86,1063.07 C857.189,1062.89 858.517,1062.5 859.845,1061.75 C861.173,1060.98 862.126,1060.12 862.61,1059.26 C863.173,1058.23 863.751,1057 864.22,1055.46 C864.689,1053.95 865.173,1052.53 865.454,1051.29 C865.735,1050.06 866.126,1048.73 866.782,1047.29 C867.454,1045.87 868.204,1044.73 869.064,1043.78 L874.189,1042.17 C874.485,1042.07 874.86,1042.17 875.532,1042.17 L878.282,1042.17 C878.564,1042.17 879.985,1042.26 882.36,1042.45"/>
<path class="Harmony" d="M1587.72,989.448 C1584.01,989.917 1580.5,990.776 1577.08,992.011 C1573.65,993.245 1570.51,994.948 1567.48,996.948 C1564.44,998.948 1561.69,1001.23 1559.31,1003.79 C1556.94,1006.35 1554.94,1009.29 1553.23,1012.62 C1551.51,1015.95 1550.37,1019.46 1549.72,1023.17 C1549.23,1025.45 1549.04,1027.82 1549.04,1030.2 L1549.04,1030.87 C1549.04,1033.14 1549.14,1035.32 1549.42,1037.51 C1549.72,1039.89 1550.28,1042.26 1551.04,1044.45 C1551.9,1046.73 1552.84,1048.92 1553.89,1050.9 C1554.94,1052.9 1556.26,1054.71 1557.79,1056.32 C1559.31,1057.93 1561.2,1059.26 1563.11,1060.4 C1565.01,1061.54 1567.19,1062.4 1569.56,1062.89 C1571.19,1063.17 1572.79,1063.35 1574.42,1063.35 C1575.26,1063.35 1576.22,1063.35 1577.26,1063.26 C1580.2,1062.98 1582.97,1062.31 1585.53,1061.35 C1588.09,1060.4 1590.47,1059.26 1592.47,1057.93 C1594.45,1056.6 1596.45,1054.9 1598.26,1053 C1600.06,1051.1 1601.78,1049.01 1603.2,1046.92 C1604.62,1044.82 1605.95,1042.45 1607.37,1039.79 C1609.56,1035.42 1610.61,1031.71 1610.61,1028.78 C1610.61,1025.82 1609.56,1023.54 1607.37,1021.93 C1606.14,1020.89 1604.06,1020.23 1601.29,1019.75 C1599.31,1019.46 1597.31,1019.28 1595.31,1019.28 L1594.84,1019.28 L1592.75,1019.28 C1589.81,1019.37 1587.04,1019.84 1584.39,1020.7 C1581.73,1021.56 1579.92,1022.6 1578.97,1023.84 C1578.69,1024.31 1578.4,1024.68 1578.12,1025.07 C1577.45,1026.12 1577.08,1027.06 1577.08,1027.92 C1577.08,1029.15 1577.94,1030.01 1579.54,1030.48 C1580.87,1030.87 1583.44,1031.06 1587.14,1031.06 L1588,1031.06 C1589.23,1031.15 1590.19,1031.15 1590.84,1031.15 C1594.75,1031.15 1597.12,1031.62 1597.87,1032.67 C1598.17,1033.04 1598.45,1033.62 1598.45,1034.18 C1598.45,1034.76 1598.36,1035.32 1598.26,1035.9 C1598.17,1036.46 1597.87,1037.14 1597.59,1037.89 C1597.31,1038.65 1597.03,1039.23 1596.73,1039.7 C1596.45,1040.17 1596.17,1040.84 1595.79,1041.6 C1595.4,1042.35 1595.12,1042.75 1595.03,1042.93 C1594.56,1043.78 1594.26,1044.45 1593.98,1044.92 C1593.7,1045.4 1593.31,1045.87 1592.84,1046.54 C1592.37,1047.2 1591.79,1047.78 1591.33,1048.15 C1589.33,1049.67 1587.14,1050.71 1584.58,1051.2 L1581.34,1051.57 L1580.97,1051.57 C1579.73,1051.48 1578.4,1051.39 1577.17,1051.1 C1574.79,1050.62 1572.42,1049.76 1570.23,1048.43 C1568.04,1047.1 1566.15,1045.5 1564.72,1043.59 C1563.29,1041.6 1561.97,1039.23 1561.01,1036.56 C1560.06,1033.9 1559.5,1031.15 1559.31,1028.2 C1559.22,1027.15 1559.22,1026.21 1559.22,1025.17 C1559.22,1023.26 1559.31,1021.37 1559.59,1019.56 C1560.06,1016.81 1560.92,1014.14 1562.25,1011.67 C1563.58,1009.2 1565.29,1007.21 1567.39,1005.68 C1569.95,1003.7 1573.08,1002.26 1576.69,1001.32 C1578.69,1000.75 1580.69,1000.46 1582.58,1000.46 C1583.92,1000.46 1585.25,1000.65 1586.48,1000.93 C1587.53,1001.23 1588.56,1001.6 1589.81,1002.17 C1591.04,1002.75 1592.08,1003.31 1593.03,1003.89 C1593.98,1004.45 1595.03,1005.03 1596.08,1005.59 C1597.12,1006.17 1598.17,1006.64 1599.11,1006.82 C1600.06,1007.01 1601.01,1007.12 1601.97,1007.01 C1602.92,1006.92 1603.86,1006.45 1604.81,1005.59 C1605.76,1004.75 1606.62,1003.6 1607.47,1002.17 C1607.95,1001.32 1608.23,1000.46 1608.23,999.605 C1608.23,998.948 1608.04,998.37 1607.76,997.714 C1607,996.276 1605.76,995.042 1604.06,993.995 C1602.34,992.964 1600.54,992.011 1598.45,991.245 C1596.36,990.48 1594.36,990.011 1592.37,989.73 C1590.94,989.448 1589.81,989.355 1588.86,989.355 C1588.37,989.355 1588,989.355 1587.72,989.448"/>
<path class="Harmony" d="M2264.46,989.058 C2263.99,989.151 2263.23,989.245 2261.99,989.355 C2260.76,989.448 2259.81,989.636 2259.15,989.73 C2258.48,989.823 2257.53,989.917 2256.38,990.105 C2255.24,990.292 2254.4,990.589 2253.63,990.87 C2252.87,991.151 2252.03,991.526 2251.26,992.011 C2250.49,992.48 2249.84,992.964 2249.35,993.62 C2248.7,994.292 2248.21,995.042 2247.84,995.808 C2247.46,996.573 2247.18,997.511 2247.07,998.464 C2246.98,999.136 2246.98,999.792 2246.98,1000.46 L2246.98,1001.03 C2247.07,1001.7 2247.07,1002.65 2247.18,1003.79 C2247.28,1004.93 2247.28,1005.87 2247.28,1006.54 C2247.28,1017.37 2247.56,1028.01 2248.03,1038.56 C2248.12,1039.12 2248.12,1039.7 2248.12,1040.37 C2248.03,1042.35 2247.93,1045.01 2247.74,1048.15 C2247.46,1051.85 2247.28,1054.62 2247.28,1056.42 L2247.28,1057 L2247.28,1058.6 C2247.28,1059.07 2247.46,1059.56 2247.56,1060.12 C2247.65,1060.7 2247.84,1061.17 2248.12,1061.45 C2248.42,1061.75 2248.7,1062.03 2249.17,1062.31 C2249.56,1062.5 2250.03,1062.59 2250.59,1062.59 L2250.88,1062.59 C2254.2,1062.5 2257.53,1061.84 2260.85,1060.6 C2264.18,1059.37 2267.32,1057.84 2270.26,1055.85 C2273.21,1053.85 2275.96,1051.48 2278.62,1048.73 C2281.28,1045.96 2283.56,1043.12 2285.46,1040.07 C2287.35,1037.04 2288.98,1033.9 2290.21,1030.57 C2291.45,1027.25 2292.1,1023.93 2292.31,1020.79 C2292.4,1020.12 2292.4,1019.37 2292.4,1018.7 C2292.4,1016.9 2292.21,1015 2291.82,1013.1 C2291.35,1010.43 2290.59,1007.78 2289.54,1005.31 C2288.49,1002.84 2287.17,1000.56 2285.46,998.37 C2283.74,996.183 2281.85,994.386 2279.76,992.87 C2277.67,991.339 2275.38,990.198 2272.73,989.542 C2271.03,989.058 2269.21,988.87 2267.42,988.87 C2266.46,988.87 2265.51,988.964 2264.46,989.058 M2258.57,1050.43 C2258.57,1047.68 2258.67,1043.68 2258.76,1038.56 C2258.85,1034.48 2258.95,1030.57 2258.95,1027.06 C2258.95,1026.21 2258.85,1025.35 2258.85,1024.5 C2258.85,1020.32 2258.76,1016.23 2258.57,1012.43 C2258.57,1011.96 2258.48,1011.1 2258.29,1009.68 C2258.1,1008.25 2257.82,1006.92 2257.71,1005.68 C2257.62,1005.12 2257.62,1004.54 2257.62,1003.98 C2257.62,1003.31 2257.62,1002.75 2257.71,1002.07 C2257.92,1000.84 2258.29,999.886 2258.95,999.417 C2259.81,998.745 2260.76,998.464 2261.81,998.464 C2262.09,998.558 2262.37,998.558 2262.67,998.558 C2264.09,998.745 2265.6,999.23 2267.21,1000.09 C2268.84,1000.93 2270.35,1002.07 2271.78,1003.21 C2273.21,1004.35 2274.54,1005.5 2275.59,1006.64 C2276.62,1007.78 2277.48,1008.64 2277.96,1009.5 C2279.48,1011.96 2280.53,1014.71 2281.09,1017.75 C2281.37,1019.46 2281.57,1021.17 2281.57,1022.89 C2281.57,1024.12 2281.46,1025.35 2281.37,1026.59 C2280.9,1029.53 2280.04,1032.39 2278.81,1035.14 C2277.57,1037.89 2275.96,1040.37 2274.06,1042.54 C2272.07,1044.73 2269.79,1046.45 2267.12,1047.87 C2264.46,1049.29 2261.62,1050.15 2258.57,1050.43"/>
</svg>
