<?xml version="1.0" encoding="UTF-8" standalone="no"?>
<svg width="2976.38px" height="1417.32px" viewBox="0 0 2976.38 1417.32"
 xmlns="http://www.w3.org/2000/svg" xmlns:xlink="http://www.w3.org/1999/xlink" version="1.2" baseProfile="tiny">
<title>St_Annes_Reel_D</title>
<desc>Generated by MuseScore 3.6.2</desc>
<polyline class="StaffLines" fill="none" stroke="#000000" stroke-width="2.73" stroke-linejoin="bevel" points="138.189,187.795 2933.86,187.795"/>
<polyline class="StaffLines" fill="none" stroke="#000000" stroke-width="2.73" stroke-linejoin="bevel" points="138.189,212.598 2933.86,212.598"/>
<polyline class="StaffLines" fill="none" stroke="#000000" stroke-width="2.73" stroke-linejoin="bevel" points="138.189,237.402 2933.86,237.402"/>
<polyline class="StaffLines" fill="none" stroke="#000000" stroke-width="2.73" stroke-linejoin="bevel" points="138.189,262.205 2933.86,262.205"/>
<polyline class="StaffLines" fill="none" stroke="#000000" stroke-width="2.73" stroke-linejoin="bevel" points="138.189,287.008 2933.86,287.008"/>
<polyline class="StaffLines" fill="none" stroke="#000000" stroke-width="2.73" stroke-linejoin="bevel" points="14.1732,497.835 2933.86,497.835"/>
<polyline class="StaffLines" fill="none" stroke="#000000" stroke-width="2.73" stroke-linejoin="bevel" points="14.1732,522.638 2933.86,522.638"/>
<polyline class="StaffLines" fill="none" stroke="#000000" stroke-width="2.73" stroke-linejoin="bevel" points="14.1732,547.441 2933.86,547.441"/>
<polyline class="StaffLines" fill="none" stroke="#000000" stroke-width="2.73" stroke-linejoin="bevel" points="14.1732,572.244 2933.86,572.244"/>
<polyline class="StaffLines" fill="none" stroke="#000000" stroke-width="2.73" stroke-linejoin="bevel" points="14.1732,597.047 2933.86,597.047"/>
<polyline class="StaffLines" fill="none" stroke="#000000" stroke-width="2.73" stroke-linejoin="bevel" points="14.1732,815.417 2933.86,815.417"/>
<polyline class="StaffLines" fill="none" stroke="#000000" stroke-width="2.73" stroke-linejoin="bevel" points="14.1732,840.22 2933.86,840.22"/>
<polyline class="StaffLines" fill="none" stroke="#000000" stroke-width="2.73" stroke-linejoin="bevel" points="14.1732,865.023 2933.86,865.023"/>
<polyline class="StaffLines" fill="none" stroke="#000000" stroke-width="2.73" stroke-linejoin="bevel" points="14.1732,889.826 2933.86,889.826"/>
<polyline class="StaffLines" fill="none" stroke="#000000" stroke-width="2.73" stroke-linejoin="bevel" points="14.1732,914.629 2933.86,914.629"/>
<polyline class="StaffLines" fill="none" stroke="#000000" stroke-width="2.73" stroke-linejoin="bevel" points="14.1732,1125.46 2933.86,1125.46"/>
<polyline class="StaffLines" fill="none" stroke="#000000" stroke-width="2.73" stroke-linejoin="bevel" points="14.1732,1150.26 2933.86,1150.26"/>
<polyline class="StaffLines" fill="none" stroke="#000000" stroke-width="2.73" stroke-linejoin="bevel" points="14.1732,1175.06 2933.86,1175.06"/>
<polyline class="StaffLines" fill="none" stroke="#000000" stroke-width="2.73" stroke-linejoin="bevel" points="14.1732,1199.87 2933.86,1199.87"/>
<polyline class="StaffLines" fill="none" stroke="#000000" stroke-width="2.73" stroke-linejoin="bevel" points="14.1732,1224.67 2933.86,1224.67"/>
<polyline class="BarLine" fill="none" stroke="#000000" stroke-width="4.46" stroke-linejoin="bevel" points="953.226,186.431 953.226,288.372"/>
<polyline class="BarLine" fill="none" stroke="#000000" stroke-width="4.46" stroke-linejoin="bevel" points="1612.69,186.431 1612.69,288.372"/>
<polyline class="BarLine" fill="none" stroke="#000000" stroke-width="4.46" stroke-linejoin="bevel" points="2272.16,186.431 2272.16,288.372"/>
<polyline class="BarLine" fill="none" stroke="#000000" stroke-width="4.46" stroke-linejoin="bevel" points="2931.63,186.431 2931.63,288.372"/>
<polyline class="BarLine" fill="none" stroke="#000000" stroke-width="4.46" stroke-linejoin="bevel" points="808.481,496.47 808.481,598.411"/>
<polyline class="BarLine" fill="none" stroke="#000000" stroke-width="4.46" stroke-linejoin="bevel" points="1502.1,496.47 1502.1,598.411"/>
<polyline class="BarLine" fill="none" stroke="#000000" stroke-width="4.46" stroke-linejoin="bevel" points="2195.73,496.47 2195.73,598.411"/>
<path class="BarLine" transform="matrix(0.992126,0,0,0.992126,2887.12,535.039)" d="M10.4063,0 C10.4063,-2.90625 8.09375,-5.29688 5.20313,-5.29688 C2.29688,-5.29688 0,-2.90625 0,0 C0,2.90625 2.29688,5.29688 5.20313,5.29688 C8.09375,5.29688 10.4063,2.90625 10.4063,0"/>
<path class="BarLine" transform="matrix(0.992126,0,0,0.992126,2887.12,559.843)" d="M10.4063,0 C10.4063,-2.90625 8.09375,-5.29688 5.20313,-5.29688 C2.29688,-5.29688 0,-2.90625 0,0 C0,2.90625 2.29688,5.29688 5.20313,5.29688 C8.09375,5.29688 10.4063,2.90625 10.4063,0"/>
<polyline class="BarLine" fill="none" stroke="#000000" stroke-width="4.46" stroke-linejoin="bevel" points="2909.64,496.47 2909.64,598.411"/>
<polyline class="BarLine" fill="none" stroke="#000000" stroke-width="13.64" stroke-linejoin="bevel" points="2927,496.47 2927,598.411"/>
<polyline class="BarLine" fill="none" stroke="#000000" stroke-width="4.46" stroke-linejoin="bevel" points="819.051,814.053 819.051,915.994"/>
<polyline class="BarLine" fill="none" stroke="#000000" stroke-width="4.46" stroke-linejoin="bevel" points="1523.24,814.053 1523.24,915.994"/>
<polyline class="BarLine" fill="none" stroke="#000000" stroke-width="4.46" stroke-linejoin="bevel" points="2227.44,814.053 2227.44,915.994"/>
<polyline class="BarLine" fill="none" stroke="#000000" stroke-width="4.46" stroke-linejoin="bevel" points="2931.63,814.053 2931.63,915.994"/>
<polyline class="BarLine" fill="none" stroke="#000000" stroke-width="4.46" stroke-linejoin="bevel" points="812.511,1124.09 812.511,1226.03"/>
<polyline class="BarLine" fill="none" stroke="#000000" stroke-width="4.46" stroke-linejoin="bevel" points="1494.04,1124.09 1494.04,1226.03"/>
<polyline class="BarLine" fill="none" stroke="#000000" stroke-width="4.46" stroke-linejoin="bevel" points="2191.69,1124.09 2191.69,1226.03"/>
<path class="BarLine" transform="matrix(0.992126,0,0,0.992126,2887.12,1162.66)" d="M10.4063,0 C10.4063,-2.90625 8.09375,-5.29688 5.20313,-5.29688 C2.29688,-5.29688 0,-2.90625 0,0 C0,2.90625 2.29688,5.29688 5.20313,5.29688 C8.09375,5.29688 10.4063,2.90625 10.4063,0"/>
<path class="BarLine" transform="matrix(0.992126,0,0,0.992126,2887.12,1187.46)" d="M10.4063,0 C10.4063,-2.90625 8.09375,-5.29688 5.20313,-5.29688 C2.29688,-5.29688 0,-2.90625 0,0 C0,2.90625 2.29688,5.29688 5.20313,5.29688 C8.09375,5.29688 10.4063,2.90625 10.4063,0"/>
<polyline class="BarLine" fill="none" stroke="#000000" stroke-width="4.46" stroke-linejoin="bevel" points="2909.64,1124.09 2909.64,1226.03"/>
<polyline class="BarLine" fill="none" stroke="#000000" stroke-width="13.64" stroke-linejoin="bevel" points="2927,1124.09 2927,1226.03"/>
<path class="Note" transform="matrix(0.992126,0,0,0.992126,338.405,237.402)" d="M43,-25 L0,25 L10,25 L53,-25 L43,-25 "/>
<path class="Note" transform="matrix(0.992126,0,0,0.992126,489.01,237.402)" d="M43,-25 L0,25 L10,25 L53,-25 L43,-25 "/>
<path class="Note" transform="matrix(0.992126,0,0,0.992126,639.615,237.402)" d="M43,-25 L0,25 L10,25 L53,-25 L43,-25 "/>
<path class="Note" transform="matrix(0.992126,0,0,0.992126,790.22,237.402)" d="M43,-25 L0,25 L10,25 L53,-25 L43,-25 "/>
<path class="Note" transform="matrix(0.992126,0,0,0.992126,997.872,237.402)" d="M43,-25 L0,25 L10,25 L53,-25 L43,-25 "/>
<path class="Note" transform="matrix(0.992126,0,0,0.992126,1148.48,237.402)" d="M43,-25 L0,25 L10,25 L53,-25 L43,-25 "/>
<path class="Note" transform="matrix(0.992126,0,0,0.992126,1299.08,237.402)" d="M43,-25 L0,25 L10,25 L53,-25 L43,-25 "/>
<path class="Note" transform="matrix(0.992126,0,0,0.992126,1449.69,237.402)" d="M43,-25 L0,25 L10,25 L53,-25 L43,-25 "/>
<path class="Note" transform="matrix(0.992126,0,0,0.992126,1657.34,237.402)" d="M43,-25 L0,25 L10,25 L53,-25 L43,-25 "/>
<path class="Note" transform="matrix(0.992126,0,0,0.992126,1807.94,237.402)" d="M43,-25 L0,25 L10,25 L53,-25 L43,-25 "/>
<path class="Note" transform="matrix(0.992126,0,0,0.992126,1958.55,237.402)" d="M43,-25 L0,25 L10,25 L53,-25 L43,-25 "/>
<path class="Note" transform="matrix(0.992126,0,0,0.992126,2109.15,237.402)" d="M43,-25 L0,25 L10,25 L53,-25 L43,-25 "/>
<path class="Note" transform="matrix(0.992126,0,0,0.992126,2316.81,237.402)" d="M43,-25 L0,25 L10,25 L53,-25 L43,-25 "/>
<path class="Note" transform="matrix(0.992126,0,0,0.992126,2467.41,237.402)" d="M43,-25 L0,25 L10,25 L53,-25 L43,-25 "/>
<path class="Note" transform="matrix(0.992126,0,0,0.992126,2618.02,237.402)" d="M43,-25 L0,25 L10,25 L53,-25 L43,-25 "/>
<path class="Note" transform="matrix(0.992126,0,0,0.992126,2768.62,237.402)" d="M43,-25 L0,25 L10,25 L53,-25 L43,-25 "/>
<path class="Note" transform="matrix(0.992126,0,0,0.992126,159.504,547.441)" d="M43,-25 L0,25 L10,25 L53,-25 L43,-25 "/>
<path class="Note" transform="matrix(0.992126,0,0,0.992126,318.648,547.441)" d="M43,-25 L0,25 L10,25 L53,-25 L43,-25 "/>
<path class="Note" transform="matrix(0.992126,0,0,0.992126,477.792,547.441)" d="M43,-25 L0,25 L10,25 L53,-25 L43,-25 "/>
<path class="Note" transform="matrix(0.992126,0,0,0.992126,636.935,547.441)" d="M43,-25 L0,25 L10,25 L53,-25 L43,-25 "/>
<path class="Note" transform="matrix(0.992126,0,0,0.992126,853.126,547.441)" d="M43,-25 L0,25 L10,25 L53,-25 L43,-25 "/>
<path class="Note" transform="matrix(0.992126,0,0,0.992126,1012.27,547.441)" d="M43,-25 L0,25 L10,25 L53,-25 L43,-25 "/>
<path class="Note" transform="matrix(0.992126,0,0,0.992126,1171.41,547.441)" d="M43,-25 L0,25 L10,25 L53,-25 L43,-25 "/>
<path class="Note" transform="matrix(0.992126,0,0,0.992126,1330.56,547.441)" d="M43,-25 L0,25 L10,25 L53,-25 L43,-25 "/>
<path class="Note" transform="matrix(0.992126,0,0,0.992126,1546.75,547.441)" d="M43,-25 L0,25 L10,25 L53,-25 L43,-25 "/>
<path class="Note" transform="matrix(0.992126,0,0,0.992126,1705.89,547.441)" d="M43,-25 L0,25 L10,25 L53,-25 L43,-25 "/>
<path class="Note" transform="matrix(0.992126,0,0,0.992126,1865.04,547.441)" d="M43,-25 L0,25 L10,25 L53,-25 L43,-25 "/>
<path class="Note" transform="matrix(0.992126,0,0,0.992126,2024.18,547.441)" d="M43,-25 L0,25 L10,25 L53,-25 L43,-25 "/>
<path class="Note" transform="matrix(0.992126,0,0,0.992126,2240.37,547.441)" d="M43,-25 L0,25 L10,25 L53,-25 L43,-25 "/>
<path class="Note" transform="matrix(0.992126,0,0,0.992126,2399.51,547.441)" d="M43,-25 L0,25 L10,25 L53,-25 L43,-25 "/>
<path class="Note" transform="matrix(0.992126,0,0,0.992126,2558.66,547.441)" d="M43,-25 L0,25 L10,25 L53,-25 L43,-25 "/>
<path class="Note" transform="matrix(0.992126,0,0,0.992126,2717.8,547.441)" d="M43,-25 L0,25 L10,25 L53,-25 L43,-25 "/>
<path class="Note" transform="matrix(0.992126,0,0,0.992126,159.504,865.023)" d="M43,-25 L0,25 L10,25 L53,-25 L43,-25 "/>
<path class="Note" transform="matrix(0.992126,0,0,0.992126,321.29,865.023)" d="M43,-25 L0,25 L10,25 L53,-25 L43,-25 "/>
<path class="Note" transform="matrix(0.992126,0,0,0.992126,483.077,865.023)" d="M43,-25 L0,25 L10,25 L53,-25 L43,-25 "/>
<path class="Note" transform="matrix(0.992126,0,0,0.992126,644.863,865.023)" d="M43,-25 L0,25 L10,25 L53,-25 L43,-25 "/>
<path class="Note" transform="matrix(0.992126,0,0,0.992126,863.696,865.023)" d="M43,-25 L0,25 L10,25 L53,-25 L43,-25 "/>
<path class="Note" transform="matrix(0.992126,0,0,0.992126,1025.48,865.023)" d="M43,-25 L0,25 L10,25 L53,-25 L43,-25 "/>
<path class="Note" transform="matrix(0.992126,0,0,0.992126,1187.27,865.023)" d="M43,-25 L0,25 L10,25 L53,-25 L43,-25 "/>
<path class="Note" transform="matrix(0.992126,0,0,0.992126,1349.06,865.023)" d="M43,-25 L0,25 L10,25 L53,-25 L43,-25 "/>
<path class="Note" transform="matrix(0.992126,0,0,0.992126,1567.89,865.023)" d="M43,-25 L0,25 L10,25 L53,-25 L43,-25 "/>
<path class="Note" transform="matrix(0.992126,0,0,0.992126,1729.67,865.023)" d="M43,-25 L0,25 L10,25 L53,-25 L43,-25 "/>
<path class="Note" transform="matrix(0.992126,0,0,0.992126,1891.46,865.023)" d="M43,-25 L0,25 L10,25 L53,-25 L43,-25 "/>
<path class="Note" transform="matrix(0.992126,0,0,0.992126,2053.25,865.023)" d="M43,-25 L0,25 L10,25 L53,-25 L43,-25 "/>
<path class="Note" transform="matrix(0.992126,0,0,0.992126,2272.08,865.023)" d="M43,-25 L0,25 L10,25 L53,-25 L43,-25 "/>
<path class="Note" transform="matrix(0.992126,0,0,0.992126,2433.87,865.023)" d="M43,-25 L0,25 L10,25 L53,-25 L43,-25 "/>
<path class="Note" transform="matrix(0.992126,0,0,0.992126,2595.65,865.023)" d="M43,-25 L0,25 L10,25 L53,-25 L43,-25 "/>
<path class="Note" transform="matrix(0.992126,0,0,0.992126,2757.44,865.023)" d="M43,-25 L0,25 L10,25 L53,-25 L43,-25 "/>
<path class="Note" transform="matrix(0.992126,0,0,0.992126,159.504,1175.06)" d="M43,-25 L0,25 L10,25 L53,-25 L43,-25 "/>
<path class="Note" transform="matrix(0.992126,0,0,0.992126,319.656,1175.06)" d="M43,-25 L0,25 L10,25 L53,-25 L43,-25 "/>
<path class="Note" transform="matrix(0.992126,0,0,0.992126,479.807,1175.06)" d="M43,-25 L0,25 L10,25 L53,-25 L43,-25 "/>
<path class="Note" transform="matrix(0.992126,0,0,0.992126,639.958,1175.06)" d="M43,-25 L0,25 L10,25 L53,-25 L43,-25 "/>
<path class="Note" transform="matrix(0.992126,0,0,0.992126,841.035,1175.06)" d="M43,-25 L0,25 L10,25 L53,-25 L43,-25 "/>
<path class="Note" transform="matrix(0.992126,0,0,0.992126,1001.19,1175.06)" d="M43,-25 L0,25 L10,25 L53,-25 L43,-25 "/>
<path class="Note" transform="matrix(0.992126,0,0,0.992126,1161.34,1175.06)" d="M43,-25 L0,25 L10,25 L53,-25 L43,-25 "/>
<path class="Note" transform="matrix(0.992126,0,0,0.992126,1321.49,1175.06)" d="M43,-25 L0,25 L10,25 L53,-25 L43,-25 "/>
<path class="Note" transform="matrix(0.992126,0,0,0.992126,1538.69,1175.06)" d="M43,-25 L0,25 L10,25 L53,-25 L43,-25 "/>
<path class="Note" transform="matrix(0.992126,0,0,0.992126,1698.84,1175.06)" d="M43,-25 L0,25 L10,25 L53,-25 L43,-25 "/>
<path class="Note" transform="matrix(0.992126,0,0,0.992126,1858.99,1175.06)" d="M43,-25 L0,25 L10,25 L53,-25 L43,-25 "/>
<path class="Note" transform="matrix(0.992126,0,0,0.992126,2019.14,1175.06)" d="M43,-25 L0,25 L10,25 L53,-25 L43,-25 "/>
<path class="Note" transform="matrix(0.992126,0,0,0.992126,2236.34,1175.06)" d="M43,-25 L0,25 L10,25 L53,-25 L43,-25 "/>
<path class="Note" transform="matrix(0.992126,0,0,0.992126,2396.49,1175.06)" d="M43,-25 L0,25 L10,25 L53,-25 L43,-25 "/>
<path class="Note" transform="matrix(0.992126,0,0,0.992126,2556.64,1175.06)" d="M43,-25 L0,25 L10,25 L53,-25 L43,-25 "/>
<path class="Note" transform="matrix(0.992126,0,0,0.992126,2716.79,1175.06)" d="M43,-25 L0,25 L10,25 L53,-25 L43,-25 "/>
<path class="Clef" transform="matrix(0.992126,0,0,0.992126,158.032,262.205)" d="M63.3594,-5.92188 C62.125,-11.3438 59.4844,-15.1719 58.7031,-16.2031 C55.5156,-20.4844 51.5,-23.3281 46.8125,-24.6875 C43.7031,-25.5625 40.7031,-25.6875 38.2813,-25.5 C37.2344,-31.5156 36.2344,-37.3906 35.3281,-42.8438 C40.7813,-49.0156 44.4063,-54.8125 46.6875,-59.1094 C50.1563,-65.6875 51.2969,-70.2656 51.3594,-70.4688 C53.0781,-75.6875 53.4375,-83.3906 52.3281,-91.5938 C51.3281,-99.1406 49.2344,-105.859 46.875,-109.109 C45.8594,-110.531 44.7969,-111.266 43.7656,-111.266 C42.5469,-111.266 40.0313,-110.031 37.1406,-107.25 C34.8438,-105.063 31.5781,-101.172 29.0156,-95.1563 C26.0156,-88.0938 25.7969,-78.6094 26.1563,-71.8906 C26.5313,-64.6094 27.6406,-58.9219 27.6563,-58.875 C27.6719,-58.7813 27.9375,-57.2813 28.375,-54.7188 C28.1563,-54.4844 27.9063,-54.2656 27.6563,-54.0156 C26.625,-53.0156 25.4375,-51.8906 24.0469,-50.5 C23.1875,-49.6406 22.2344,-48.7344 21.2344,-47.7656 C12.7969,-39.625 0,-27.2969 0,-8.14063 C0,-3.4375 0.90625,0.984375 2.6875,5 C4.26563,8.59375 6.5625,11.875 9.5,14.75 C17.2344,22.3125 27.8281,25.5156 34.875,25.3594 C37.8281,25.2813 40.4688,25.0469 42.8594,24.5938 C44.6875,34.2031 45.8281,41.2344 45.8594,46.5781 C45.9063,53.0938 44.25,57.0781 40.3594,59.8438 C37.9219,61.5781 35.1094,62.5313 32.0156,62.6719 C29.4219,62.7969 27.1563,62.3281 25.7344,61.9219 L25.7188,61.9219 C25.7188,61.9219 25.4375,61.8281 25.4219,61.6406 C25.4063,61.4531 25.7656,61.4063 25.7656,61.4063 L25.7969,61.4063 C27.7188,60.9688 31.2813,59.7344 33.6406,56.4375 C35.4375,53.9063 36.3125,49.2813 34.4688,45.3438 C33.3594,42.9531 30.8594,40 25.2344,39.5469 C22.7344,39.3438 20.4688,39.8594 18.4688,41.0625 C16.6563,42.1406 15.1563,43.7813 14.1094,45.7813 C11.6563,50.4844 12.1094,56.2188 15.2344,60.0625 C18.2031,63.6875 22.8125,66 28.25,66.5781 C29.1094,66.6719 29.9531,66.7031 30.7969,66.7031 C35.2344,66.7031 39.625,65.5 43.2031,63.2969 C46.8594,60.7188 48.9844,56.7344 49.6563,51.1094 C50.2188,46.4688 49.8281,40.5469 48.4375,32.4688 C48.0781,30.375 47.5313,27.3438 46.875,23.5938 C52.625,21.6719 56.7813,18.0938 60.5469,12.2344 C63.8438,6.5 64.7813,0.390625 63.3594,-5.92188 M29.1406,20.2969 C24.5,19.0781 20.0625,16.5781 16.3125,13.0625 C15,11.8438 13.125,9.67188 11.6563,6.28125 C10.2969,3.10938 9.625,-0.328125 9.6875,-3.90625 C9.75,-8.60938 11.0625,-13.4375 13.5625,-18.2188 C16.4844,-23.7969 21.0469,-29.3281 27.1094,-34.6563 C28.5625,-35.9375 29.9375,-37.2188 31.2188,-38.5 C31.9844,-34.2344 32.8125,-29.5469 33.6875,-24.6719 C29.8438,-23.4063 25.0938,-20.25 21.9844,-14.5938 C18.4375,-8.03125 18.5781,-2.5 19.3125,0.984375 C20.25,5.4375 22.7813,9.20313 26.2344,11.2969 C27.1719,11.8594 31.2969,13.9844 33.1406,13.4063 C33.5156,13.2969 33.7813,13.0625 33.9219,12.7344 C34.4375,11.5625 33.4063,10.9219 31.8594,9.96875 C31.25,9.59375 30.5781,9.17188 29.8594,8.64063 C26.5313,6.15625 25.0781,1.70313 26.1563,-2.6875 C26.7344,-5.07813 28.0156,-7.25 29.8594,-8.95313 C31.5156,-10.5 33.5625,-11.5938 35.9375,-12.2344 C37.9844,-0.984375 40.0469,10.1719 41.6875,18.5313 C41.8125,19.2188 41.9531,19.8906 42.0781,20.5625 C37.7031,21.5 33.3594,21.4063 29.1406,20.2969 M40.4688,-12.9063 C50.8125,-13.375 55.0781,-5.9375 55.9688,-1.10938 C56.4375,1.4375 56.4375,5.875 54.8906,10.0938 C53.7188,13.2656 51.2656,17.3438 46.125,19.4063 C46.0625,18.9844 45.9844,18.5469 45.9063,18.125 C44.3594,9.34375 42.4219,-1.65625 40.4688,-12.9063 M33.1406,-83.8594 C34.9219,-89.5938 37.6563,-92.8438 39.6563,-94.5781 C41.4063,-96.0938 43.0469,-96.8125 43.9688,-96.8125 C44.1094,-96.8125 44.2344,-96.7813 44.3281,-96.75 C44.7969,-96.6094 45.3281,-96.0469 45.7969,-95.1719 C48.1094,-90.8906 47.3594,-84.1719 46.0156,-79.7344 C44.3906,-74.3281 41.4688,-68.7188 32.6719,-59.1094 C32.5,-60.2188 32.3438,-61.2656 32.1875,-62.25 C30.9375,-70.5313 31.2656,-77.8125 33.1406,-83.8594"/>
<path class="Clef" transform="matrix(0.992126,0,0,0.992126,34.0158,572.244)" d="M63.3594,-5.92188 C62.125,-11.3438 59.4844,-15.1719 58.7031,-16.2031 C55.5156,-20.4844 51.5,-23.3281 46.8125,-24.6875 C43.7031,-25.5625 40.7031,-25.6875 38.2813,-25.5 C37.2344,-31.5156 36.2344,-37.3906 35.3281,-42.8438 C40.7813,-49.0156 44.4063,-54.8125 46.6875,-59.1094 C50.1563,-65.6875 51.2969,-70.2656 51.3594,-70.4688 C53.0781,-75.6875 53.4375,-83.3906 52.3281,-91.5938 C51.3281,-99.1406 49.2344,-105.859 46.875,-109.109 C45.8594,-110.531 44.7969,-111.266 43.7656,-111.266 C42.5469,-111.266 40.0313,-110.031 37.1406,-107.25 C34.8438,-105.063 31.5781,-101.172 29.0156,-95.1563 C26.0156,-88.0938 25.7969,-78.6094 26.1563,-71.8906 C26.5313,-64.6094 27.6406,-58.9219 27.6563,-58.875 C27.6719,-58.7813 27.9375,-57.2813 28.375,-54.7188 C28.1563,-54.4844 27.9063,-54.2656 27.6563,-54.0156 C26.625,-53.0156 25.4375,-51.8906 24.0469,-50.5 C23.1875,-49.6406 22.2344,-48.7344 21.2344,-47.7656 C12.7969,-39.625 0,-27.2969 0,-8.14063 C0,-3.4375 0.90625,0.984375 2.6875,5 C4.26563,8.59375 6.5625,11.875 9.5,14.75 C17.2344,22.3125 27.8281,25.5156 34.875,25.3594 C37.8281,25.2813 40.4688,25.0469 42.8594,24.5938 C44.6875,34.2031 45.8281,41.2344 45.8594,46.5781 C45.9063,53.0938 44.25,57.0781 40.3594,59.8438 C37.9219,61.5781 35.1094,62.5313 32.0156,62.6719 C29.4219,62.7969 27.1563,62.3281 25.7344,61.9219 L25.7188,61.9219 C25.7188,61.9219 25.4375,61.8281 25.4219,61.6406 C25.4063,61.4531 25.7656,61.4063 25.7656,61.4063 L25.7969,61.4063 C27.7188,60.9688 31.2813,59.7344 33.6406,56.4375 C35.4375,53.9063 36.3125,49.2813 34.4688,45.3438 C33.3594,42.9531 30.8594,40 25.2344,39.5469 C22.7344,39.3438 20.4688,39.8594 18.4688,41.0625 C16.6563,42.1406 15.1563,43.7813 14.1094,45.7813 C11.6563,50.4844 12.1094,56.2188 15.2344,60.0625 C18.2031,63.6875 22.8125,66 28.25,66.5781 C29.1094,66.6719 29.9531,66.7031 30.7969,66.7031 C35.2344,66.7031 39.625,65.5 43.2031,63.2969 C46.8594,60.7188 48.9844,56.7344 49.6563,51.1094 C50.2188,46.4688 49.8281,40.5469 48.4375,32.4688 C48.0781,30.375 47.5313,27.3438 46.875,23.5938 C52.625,21.6719 56.7813,18.0938 60.5469,12.2344 C63.8438,6.5 64.7813,0.390625 63.3594,-5.92188 M29.1406,20.2969 C24.5,19.0781 20.0625,16.5781 16.3125,13.0625 C15,11.8438 13.125,9.67188 11.6563,6.28125 C10.2969,3.10938 9.625,-0.328125 9.6875,-3.90625 C9.75,-8.60938 11.0625,-13.4375 13.5625,-18.2188 C16.4844,-23.7969 21.0469,-29.3281 27.1094,-34.6563 C28.5625,-35.9375 29.9375,-37.2188 31.2188,-38.5 C31.9844,-34.2344 32.8125,-29.5469 33.6875,-24.6719 C29.8438,-23.4063 25.0938,-20.25 21.9844,-14.5938 C18.4375,-8.03125 18.5781,-2.5 19.3125,0.984375 C20.25,5.4375 22.7813,9.20313 26.2344,11.2969 C27.1719,11.8594 31.2969,13.9844 33.1406,13.4063 C33.5156,13.2969 33.7813,13.0625 33.9219,12.7344 C34.4375,11.5625 33.4063,10.9219 31.8594,9.96875 C31.25,9.59375 30.5781,9.17188 29.8594,8.64063 C26.5313,6.15625 25.0781,1.70313 26.1563,-2.6875 C26.7344,-5.07813 28.0156,-7.25 29.8594,-8.95313 C31.5156,-10.5 33.5625,-11.5938 35.9375,-12.2344 C37.9844,-0.984375 40.0469,10.1719 41.6875,18.5313 C41.8125,19.2188 41.9531,19.8906 42.0781,20.5625 C37.7031,21.5 33.3594,21.4063 29.1406,20.2969 M40.4688,-12.9063 C50.8125,-13.375 55.0781,-5.9375 55.9688,-1.10938 C56.4375,1.4375 56.4375,5.875 54.8906,10.0938 C53.7188,13.2656 51.2656,17.3438 46.125,19.4063 C46.0625,18.9844 45.9844,18.5469 45.9063,18.125 C44.3594,9.34375 42.4219,-1.65625 40.4688,-12.9063 M33.1406,-83.8594 C34.9219,-89.5938 37.6563,-92.8438 39.6563,-94.5781 C41.4063,-96.0938 43.0469,-96.8125 43.9688,-96.8125 C44.1094,-96.8125 44.2344,-96.7813 44.3281,-96.75 C44.7969,-96.6094 45.3281,-96.0469 45.7969,-95.1719 C48.1094,-90.8906 47.3594,-84.1719 46.0156,-79.7344 C44.3906,-74.3281 41.4688,-68.7188 32.6719,-59.1094 C32.5,-60.2188 32.3438,-61.2656 32.1875,-62.25 C30.9375,-70.5313 31.2656,-77.8125 33.1406,-83.8594"/>
<path class="Clef" transform="matrix(0.992126,0,0,0.992126,34.0158,889.826)" d="M63.3594,-5.92188 C62.125,-11.3438 59.4844,-15.1719 58.7031,-16.2031 C55.5156,-20.4844 51.5,-23.3281 46.8125,-24.6875 C43.7031,-25.5625 40.7031,-25.6875 38.2813,-25.5 C37.2344,-31.5156 36.2344,-37.3906 35.3281,-42.8438 C40.7813,-49.0156 44.4063,-54.8125 46.6875,-59.1094 C50.1563,-65.6875 51.2969,-70.2656 51.3594,-70.4688 C53.0781,-75.6875 53.4375,-83.3906 52.3281,-91.5938 C51.3281,-99.1406 49.2344,-105.859 46.875,-109.109 C45.8594,-110.531 44.7969,-111.266 43.7656,-111.266 C42.5469,-111.266 40.0313,-110.031 37.1406,-107.25 C34.8438,-105.063 31.5781,-101.172 29.0156,-95.1563 C26.0156,-88.0938 25.7969,-78.6094 26.1563,-71.8906 C26.5313,-64.6094 27.6406,-58.9219 27.6563,-58.875 C27.6719,-58.7813 27.9375,-57.2813 28.375,-54.7188 C28.1563,-54.4844 27.9063,-54.2656 27.6563,-54.0156 C26.625,-53.0156 25.4375,-51.8906 24.0469,-50.5 C23.1875,-49.6406 22.2344,-48.7344 21.2344,-47.7656 C12.7969,-39.625 0,-27.2969 0,-8.14063 C0,-3.4375 0.90625,0.984375 2.6875,5 C4.26563,8.59375 6.5625,11.875 9.5,14.75 C17.2344,22.3125 27.8281,25.5156 34.875,25.3594 C37.8281,25.2813 40.4688,25.0469 42.8594,24.5938 C44.6875,34.2031 45.8281,41.2344 45.8594,46.5781 C45.9063,53.0938 44.25,57.0781 40.3594,59.8438 C37.9219,61.5781 35.1094,62.5313 32.0156,62.6719 C29.4219,62.7969 27.1563,62.3281 25.7344,61.9219 L25.7188,61.9219 C25.7188,61.9219 25.4375,61.8281 25.4219,61.6406 C25.4063,61.4531 25.7656,61.4063 25.7656,61.4063 L25.7969,61.4063 C27.7188,60.9688 31.2813,59.7344 33.6406,56.4375 C35.4375,53.9063 36.3125,49.2813 34.4688,45.3438 C33.3594,42.9531 30.8594,40 25.2344,39.5469 C22.7344,39.3438 20.4688,39.8594 18.4688,41.0625 C16.6563,42.1406 15.1563,43.7813 14.1094,45.7813 C11.6563,50.4844 12.1094,56.2188 15.2344,60.0625 C18.2031,63.6875 22.8125,66 28.25,66.5781 C29.1094,66.6719 29.9531,66.7031 30.7969,66.7031 C35.2344,66.7031 39.625,65.5 43.2031,63.2969 C46.8594,60.7188 48.9844,56.7344 49.6563,51.1094 C50.2188,46.4688 49.8281,40.5469 48.4375,32.4688 C48.0781,30.375 47.5313,27.3438 46.875,23.5938 C52.625,21.6719 56.7813,18.0938 60.5469,12.2344 C63.8438,6.5 64.7813,0.390625 63.3594,-5.92188 M29.1406,20.2969 C24.5,19.0781 20.0625,16.5781 16.3125,13.0625 C15,11.8438 13.125,9.67188 11.6563,6.28125 C10.2969,3.10938 9.625,-0.328125 9.6875,-3.90625 C9.75,-8.60938 11.0625,-13.4375 13.5625,-18.2188 C16.4844,-23.7969 21.0469,-29.3281 27.1094,-34.6563 C28.5625,-35.9375 29.9375,-37.2188 31.2188,-38.5 C31.9844,-34.2344 32.8125,-29.5469 33.6875,-24.6719 C29.8438,-23.4063 25.0938,-20.25 21.9844,-14.5938 C18.4375,-8.03125 18.5781,-2.5 19.3125,0.984375 C20.25,5.4375 22.7813,9.20313 26.2344,11.2969 C27.1719,11.8594 31.2969,13.9844 33.1406,13.4063 C33.5156,13.2969 33.7813,13.0625 33.9219,12.7344 C34.4375,11.5625 33.4063,10.9219 31.8594,9.96875 C31.25,9.59375 30.5781,9.17188 29.8594,8.64063 C26.5313,6.15625 25.0781,1.70313 26.1563,-2.6875 C26.7344,-5.07813 28.0156,-7.25 29.8594,-8.95313 C31.5156,-10.5 33.5625,-11.5938 35.9375,-12.2344 C37.9844,-0.984375 40.0469,10.1719 41.6875,18.5313 C41.8125,19.2188 41.9531,19.8906 42.0781,20.5625 C37.7031,21.5 33.3594,21.4063 29.1406,20.2969 M40.4688,-12.9063 C50.8125,-13.375 55.0781,-5.9375 55.9688,-1.10938 C56.4375,1.4375 56.4375,5.875 54.8906,10.0938 C53.7188,13.2656 51.2656,17.3438 46.125,19.4063 C46.0625,18.9844 45.9844,18.5469 45.9063,18.125 C44.3594,9.34375 42.4219,-1.65625 40.4688,-12.9063 M33.1406,-83.8594 C34.9219,-89.5938 37.6563,-92.8438 39.6563,-94.5781 C41.4063,-96.0938 43.0469,-96.8125 43.9688,-96.8125 C44.1094,-96.8125 44.2344,-96.7813 44.3281,-96.75 C44.7969,-96.6094 45.3281,-96.0469 45.7969,-95.1719 C48.1094,-90.8906 47.3594,-84.1719 46.0156,-79.7344 C44.3906,-74.3281 41.4688,-68.7188 32.6719,-59.1094 C32.5,-60.2188 32.3438,-61.2656 32.1875,-62.25 C30.9375,-70.5313 31.2656,-77.8125 33.1406,-83.8594"/>
<path class="Clef" transform="matrix(0.992126,0,0,0.992126,34.0158,1199.87)" d="M63.3594,-5.92188 C62.125,-11.3438 59.4844,-15.1719 58.7031,-16.2031 C55.5156,-20.4844 51.5,-23.3281 46.8125,-24.6875 C43.7031,-25.5625 40.7031,-25.6875 38.2813,-25.5 C37.2344,-31.5156 36.2344,-37.3906 35.3281,-42.8438 C40.7813,-49.0156 44.4063,-54.8125 46.6875,-59.1094 C50.1563,-65.6875 51.2969,-70.2656 51.3594,-70.4688 C53.0781,-75.6875 53.4375,-83.3906 52.3281,-91.5938 C51.3281,-99.1406 49.2344,-105.859 46.875,-109.109 C45.8594,-110.531 44.7969,-111.266 43.7656,-111.266 C42.5469,-111.266 40.0313,-110.031 37.1406,-107.25 C34.8438,-105.063 31.5781,-101.172 29.0156,-95.1563 C26.0156,-88.0938 25.7969,-78.6094 26.1563,-71.8906 C26.5313,-64.6094 27.6406,-58.9219 27.6563,-58.875 C27.6719,-58.7813 27.9375,-57.2813 28.375,-54.7188 C28.1563,-54.4844 27.9063,-54.2656 27.6563,-54.0156 C26.625,-53.0156 25.4375,-51.8906 24.0469,-50.5 C23.1875,-49.6406 22.2344,-48.7344 21.2344,-47.7656 C12.7969,-39.625 0,-27.2969 0,-8.14063 C0,-3.4375 0.90625,0.984375 2.6875,5 C4.26563,8.59375 6.5625,11.875 9.5,14.75 C17.2344,22.3125 27.8281,25.5156 34.875,25.3594 C37.8281,25.2813 40.4688,25.0469 42.8594,24.5938 C44.6875,34.2031 45.8281,41.2344 45.8594,46.5781 C45.9063,53.0938 44.25,57.0781 40.3594,59.8438 C37.9219,61.5781 35.1094,62.5313 32.0156,62.6719 C29.4219,62.7969 27.1563,62.3281 25.7344,61.9219 L25.7188,61.9219 C25.7188,61.9219 25.4375,61.8281 25.4219,61.6406 C25.4063,61.4531 25.7656,61.4063 25.7656,61.4063 L25.7969,61.4063 C27.7188,60.9688 31.2813,59.7344 33.6406,56.4375 C35.4375,53.9063 36.3125,49.2813 34.4688,45.3438 C33.3594,42.9531 30.8594,40 25.2344,39.5469 C22.7344,39.3438 20.4688,39.8594 18.4688,41.0625 C16.6563,42.1406 15.1563,43.7813 14.1094,45.7813 C11.6563,50.4844 12.1094,56.2188 15.2344,60.0625 C18.2031,63.6875 22.8125,66 28.25,66.5781 C29.1094,66.6719 29.9531,66.7031 30.7969,66.7031 C35.2344,66.7031 39.625,65.5 43.2031,63.2969 C46.8594,60.7188 48.9844,56.7344 49.6563,51.1094 C50.2188,46.4688 49.8281,40.5469 48.4375,32.4688 C48.0781,30.375 47.5313,27.3438 46.875,23.5938 C52.625,21.6719 56.7813,18.0938 60.5469,12.2344 C63.8438,6.5 64.7813,0.390625 63.3594,-5.92188 M29.1406,20.2969 C24.5,19.0781 20.0625,16.5781 16.3125,13.0625 C15,11.8438 13.125,9.67188 11.6563,6.28125 C10.2969,3.10938 9.625,-0.328125 9.6875,-3.90625 C9.75,-8.60938 11.0625,-13.4375 13.5625,-18.2188 C16.4844,-23.7969 21.0469,-29.3281 27.1094,-34.6563 C28.5625,-35.9375 29.9375,-37.2188 31.2188,-38.5 C31.9844,-34.2344 32.8125,-29.5469 33.6875,-24.6719 C29.8438,-23.4063 25.0938,-20.25 21.9844,-14.5938 C18.4375,-8.03125 18.5781,-2.5 19.3125,0.984375 C20.25,5.4375 22.7813,9.20313 26.2344,11.2969 C27.1719,11.8594 31.2969,13.9844 33.1406,13.4063 C33.5156,13.2969 33.7813,13.0625 33.9219,12.7344 C34.4375,11.5625 33.4063,10.9219 31.8594,9.96875 C31.25,9.59375 30.5781,9.17188 29.8594,8.64063 C26.5313,6.15625 25.0781,1.70313 26.1563,-2.6875 C26.7344,-5.07813 28.0156,-7.25 29.8594,-8.95313 C31.5156,-10.5 33.5625,-11.5938 35.9375,-12.2344 C37.9844,-0.984375 40.0469,10.1719 41.6875,18.5313 C41.8125,19.2188 41.9531,19.8906 42.0781,20.5625 C37.7031,21.5 33.3594,21.4063 29.1406,20.2969 M40.4688,-12.9063 C50.8125,-13.375 55.0781,-5.9375 55.9688,-1.10938 C56.4375,1.4375 56.4375,5.875 54.8906,10.0938 C53.7188,13.2656 51.2656,17.3438 46.125,19.4063 C46.0625,18.9844 45.9844,18.5469 45.9063,18.125 C44.3594,9.34375 42.4219,-1.65625 40.4688,-12.9063 M33.1406,-83.8594 C34.9219,-89.5938 37.6563,-92.8438 39.6563,-94.5781 C41.4063,-96.0938 43.0469,-96.8125 43.9688,-96.8125 C44.1094,-96.8125 44.2344,-96.7813 44.3281,-96.75 C44.7969,-96.6094 45.3281,-96.0469 45.7969,-95.1719 C48.1094,-90.8906 47.3594,-84.1719 46.0156,-79.7344 C44.3906,-74.3281 41.4688,-68.7188 32.6719,-59.1094 C32.5,-60.2188 32.3438,-61.2656 32.1875,-62.25 C30.9375,-70.5313 31.2656,-77.8125 33.1406,-83.8594"/>
<path class="TimeSig" transform="matrix(0.992126,0,0,0.992126,244.951,212.73)" d="M3.59375,12.625 L20.7656,12.625 L20.7656,20.0781 L12.5469,20.0781 C11.7656,20.0781 11.125,20.7031 11.125,21.4844 L11.125,23.3906 C11.125,24.1719 11.7656,24.7969 12.5469,24.7969 L42.7969,24.7969 C43.5781,24.7969 44.2031,24.1719 44.2031,23.3906 L44.2031,21.4844 C44.2031,20.7031 43.5781,20.0781 42.7969,20.0781 L33.8594,20.0781 L33.8594,12.625 L42.7969,12.625 C43.5781,12.625 44.2031,12 44.2031,11.2188 L44.2031,9.3125 C44.2031,8.53125 43.5781,7.90625 42.7969,7.90625 L33.8594,7.90625 L33.8594,-8.0625 C33.8594,-8.59375 33.5469,-9.07813 33.0781,-9.3125 L31.8594,-9.92188 C31.3281,-10.1719 30.7031,-10.0781 30.2656,-9.6875 L21.2188,-1.375 C20.9375,-1.09375 20.7656,-0.734375 20.7656,-0.328125 L20.7656,7.90625 L9.25,7.90625 C9.25,7.90625 20.375,-4.125 32.2188,-19.8906 C33.0781,-21.0469 32.5781,-22.0938 32.3906,-22.2813 L30.2188,-24.4844 C29.9531,-24.75 29.5938,-24.9063 29.2188,-24.9063 C28.625,-24.9063 15.0625,-24.875 14.3438,-24.9063 C13.625,-24.9219 13.0938,-24.2969 13.0156,-23.6875 C13.0156,-23.6875 12.4844,-16.3281 9.875,-8.1875 C7.28125,-0.078125 4.34375,4.90625 1.6875,8.53125 C1.6875,8.53125 1.14063,9.51563 1.5,10.2656 C1.84375,11.0156 2.48438,12.0938 2.48438,12.0938 C2.48438,12.0938 2.73438,12.625 3.59375,12.625"/>
<path class="TimeSig" transform="matrix(0.992126,0,0,0.992126,244.951,262.073)" d="M3.59375,12.625 L20.7656,12.625 L20.7656,20.0781 L12.5469,20.0781 C11.7656,20.0781 11.125,20.7031 11.125,21.4844 L11.125,23.3906 C11.125,24.1719 11.7656,24.7969 12.5469,24.7969 L42.7969,24.7969 C43.5781,24.7969 44.2031,24.1719 44.2031,23.3906 L44.2031,21.4844 C44.2031,20.7031 43.5781,20.0781 42.7969,20.0781 L33.8594,20.0781 L33.8594,12.625 L42.7969,12.625 C43.5781,12.625 44.2031,12 44.2031,11.2188 L44.2031,9.3125 C44.2031,8.53125 43.5781,7.90625 42.7969,7.90625 L33.8594,7.90625 L33.8594,-8.0625 C33.8594,-8.59375 33.5469,-9.07813 33.0781,-9.3125 L31.8594,-9.92188 C31.3281,-10.1719 30.7031,-10.0781 30.2656,-9.6875 L21.2188,-1.375 C20.9375,-1.09375 20.7656,-0.734375 20.7656,-0.328125 L20.7656,7.90625 L9.25,7.90625 C9.25,7.90625 20.375,-4.125 32.2188,-19.8906 C33.0781,-21.0469 32.5781,-22.0938 32.3906,-22.2813 L30.2188,-24.4844 C29.9531,-24.75 29.5938,-24.9063 29.2188,-24.9063 C28.625,-24.9063 15.0625,-24.875 14.3438,-24.9063 C13.625,-24.9219 13.0938,-24.2969 13.0156,-23.6875 C13.0156,-23.6875 12.4844,-16.3281 9.875,-8.1875 C7.28125,-0.078125 4.34375,4.90625 1.6875,8.53125 C1.6875,8.53125 1.14063,9.51563 1.5,10.2656 C1.84375,11.0156 2.48438,12.0938 2.48438,12.0938 C2.48438,12.0938 2.73438,12.625 3.59375,12.625"/>
<path class="RehearsalMark" fill="none" stroke="#000000" stroke-width="3.97" stroke-linecap="square" stroke-linejoin="miter" stroke-miterlimit="2" fill-rule="evenodd" d="M154.216,21.0729 L262.987,21.0729 L262.987,122.845 L154.216,122.845 L154.216,21.0729 "/>
<path class="RehearsalMark" d="M205.352,35.4899 L182.883,87.9587 C178.32,98.6618 174.664,102.521 168.82,103.115 L168.82,108.459 L197.43,108.459 L197.43,103.115 C190.398,102.724 187.633,100.834 187.633,96.2868 C187.633,94.5993 188.023,93.0212 189.117,90.6462 L190.695,86.8806 L215.352,86.8806 L219.117,96.5837 C220.195,99.3493 220.305,99.8493 220.305,100.631 C220.305,102.427 218.914,103.021 214.555,103.021 L212.867,103.115 L212.867,108.459 L247.617,108.459 L247.617,103.115 C241.977,102.912 240.398,101.927 238.32,96.8806 L212.867,35.4899 L205.352,35.4899 M203.273,56.5837 L212.867,80.2399 L193.273,80.2399 L203.273,56.5837 "/>
<path class="RehearsalMark" fill="none" stroke="#000000" stroke-width="3.97" stroke-linecap="square" stroke-linejoin="miter" stroke-miterlimit="2" fill-rule="evenodd" d="M32.3294,654.622 L133.101,654.622 L133.101,755.393 L32.3294,755.393 L32.3294,654.622 "/>
<path class="RehearsalMark" d="M47.4027,669.523 L47.4027,674.882 L48.8871,674.882 C54.2308,674.882 56.1058,675.273 56.9964,676.257 C57.6996,677.351 57.6996,677.648 57.6996,683.789 L57.6996,726.757 C57.6996,732.882 57.6996,733.179 56.9964,734.179 C56.1058,735.273 54.1371,735.664 48.8871,735.664 L47.4027,735.664 L47.4027,741.007 L87.4964,741.007 C97.7933,741.007 103.043,740.211 108.184,737.945 C114.418,735.164 118.575,728.929 118.575,722.195 C118.575,715.273 114.621,709.82 107.293,706.461 C103.934,704.867 101.059,704.086 95.8089,703.382 C100.653,702.601 103.434,701.898 106.2,700.617 C112.137,697.742 115.309,692.992 115.309,687.054 C115.309,681.414 112.34,676.164 107.496,673.492 C102.043,670.414 97.2933,669.523 85.6058,669.523 L47.4027,669.523 M75.5121,701.601 L75.5121,680.617 C75.3089,676.461 76.6996,675.07 81.0589,674.882 L84.0277,674.882 C92.7464,674.882 97.3871,679.226 97.3871,687.445 C97.3871,692.304 95.7152,696.164 92.5433,698.632 C89.8714,700.82 86.4964,701.601 80.3714,701.601 L75.5121,701.601 M75.5121,707.054 L82.3402,707.054 C88.5746,707.054 91.4496,707.648 94.2308,709.429 C97.6839,711.711 99.6683,716.054 99.6683,721.211 C99.6683,725.961 97.8871,730.32 95.0121,732.695 C92.5433,734.664 89.2777,735.664 84.5277,735.664 L81.5589,735.664 C75.9027,735.461 75.3089,734.867 75.5121,729.32 L75.5121,707.054 "/>
<path class="Harmony" d="M350.527,121.866 C350.496,121.881 350.449,121.881 350.386,121.881 C350.324,121.881 350.277,121.897 350.246,121.897 C350.199,121.912 350.152,121.912 350.09,121.928 C350.027,121.928 349.996,121.944 349.949,121.959 C349.902,121.975 349.871,122.006 349.824,122.022 C349.777,122.053 349.746,122.069 349.73,122.116 C349.683,122.147 349.668,122.178 349.636,122.225 C349.621,122.256 349.605,122.319 349.605,122.366 C349.605,122.397 349.605,122.428 349.605,122.475 L349.605,122.506 C349.605,122.537 349.605,122.584 349.605,122.647 C349.621,122.709 349.621,122.756 349.621,122.787 C349.621,123.366 349.636,123.928 349.652,124.475 C349.652,124.506 349.652,124.537 349.652,124.569 C349.652,124.678 349.652,124.819 349.636,124.975 C349.621,125.178 349.621,125.319 349.621,125.412 L349.621,125.444 L349.621,125.537 C349.621,125.553 349.621,125.584 349.636,125.616 C349.636,125.647 349.636,125.662 349.652,125.678 C349.668,125.694 349.683,125.709 349.715,125.725 C349.73,125.741 349.761,125.741 349.793,125.741 L349.808,125.741 C349.98,125.741 350.152,125.709 350.324,125.631 C350.511,125.569 350.668,125.491 350.824,125.381 C350.98,125.287 351.121,125.162 351.261,125.006 C351.402,124.866 351.527,124.709 351.621,124.553 C351.73,124.397 351.808,124.225 351.871,124.053 C351.949,123.881 351.98,123.709 351.98,123.537 C351.996,123.506 351.996,123.459 351.996,123.428 C351.996,123.334 351.98,123.241 351.965,123.131 C351.933,122.991 351.902,122.85 351.84,122.725 C351.793,122.6 351.715,122.475 351.621,122.366 C351.543,122.241 351.433,122.147 351.324,122.069 C351.215,121.991 351.09,121.928 350.949,121.897 C350.871,121.866 350.777,121.866 350.668,121.866 C350.621,121.866 350.574,121.866 350.527,121.866 M350.215,125.1 C350.215,124.959 350.215,124.741 350.215,124.475 C350.23,124.256 350.23,124.053 350.23,123.866 C350.23,123.819 350.23,123.787 350.23,123.741 C350.23,123.522 350.215,123.303 350.215,123.1 C350.215,123.069 350.199,123.037 350.199,122.959 C350.183,122.881 350.168,122.803 350.168,122.741 C350.152,122.709 350.152,122.678 350.152,122.647 C350.152,122.616 350.152,122.584 350.168,122.553 C350.168,122.491 350.199,122.444 350.23,122.412 C350.277,122.381 350.324,122.366 350.386,122.366 C350.402,122.366 350.402,122.366 350.418,122.366 C350.496,122.381 350.574,122.397 350.668,122.444 C350.746,122.491 350.824,122.553 350.902,122.616 C350.98,122.678 351.043,122.741 351.105,122.787 C351.168,122.85 351.199,122.897 351.23,122.944 C351.308,123.069 351.371,123.225 351.402,123.381 C351.418,123.475 351.418,123.553 351.418,123.647 C351.418,123.709 351.418,123.787 351.418,123.85 C351.386,124.006 351.34,124.147 351.277,124.303 C351.215,124.444 351.121,124.569 351.027,124.694 C350.918,124.803 350.793,124.897 350.668,124.959 C350.527,125.037 350.371,125.084 350.215,125.1"/>
<path class="Harmony" d="M366.527,34.9952 C366.058,35.089 365.293,35.1827 364.058,35.2921 C362.824,35.3858 361.871,35.5733 361.215,35.6671 C360.543,35.7608 359.59,35.8546 358.449,36.0421 C357.308,36.2296 356.465,36.5265 355.699,36.8077 C354.933,37.089 354.09,37.464 353.324,37.9483 C352.558,38.4171 351.902,38.9015 351.418,39.5577 C350.761,40.2296 350.277,40.9796 349.902,41.7452 C349.527,42.5108 349.246,43.4483 349.136,44.4015 C349.043,45.0733 349.043,45.7296 349.043,46.4015 L349.043,46.964 C349.136,47.6358 349.136,48.589 349.246,49.7296 C349.34,50.8702 349.34,51.8077 349.34,52.4796 C349.34,63.3077 349.621,73.9483 350.09,84.4952 C350.183,85.0577 350.183,85.6358 350.183,86.3077 C350.09,88.2921 349.996,90.9483 349.808,94.089 C349.527,97.7921 349.34,100.558 349.34,102.355 L349.34,102.933 L349.34,104.542 C349.34,105.011 349.527,105.495 349.621,106.058 C349.715,106.636 349.902,107.105 350.183,107.386 C350.48,107.683 350.761,107.964 351.23,108.245 C351.621,108.433 352.09,108.526 352.652,108.526 L352.949,108.526 C356.261,108.433 359.59,107.776 362.918,106.542 C366.246,105.308 369.386,103.776 372.324,101.792 C375.277,99.7921 378.027,97.4171 380.683,94.6671 C383.34,91.9015 385.621,89.0577 387.527,86.0108 C389.418,82.9796 391.043,79.839 392.277,76.5108 C393.511,73.1827 394.168,69.8702 394.371,66.7296 C394.465,66.0577 394.465,65.3077 394.465,64.6358 C394.465,62.839 394.277,60.9327 393.886,59.0421 C393.418,56.3702 392.652,53.714 391.605,51.2452 C390.558,48.7765 389.23,46.4952 387.527,44.3077 C385.808,42.1202 383.918,40.3233 381.824,38.8077 C379.73,37.2765 377.449,36.1358 374.793,35.4796 C373.09,34.9952 371.277,34.8077 369.48,34.8077 C368.527,34.8077 367.574,34.9015 366.527,34.9952 M360.636,96.3702 C360.636,93.6202 360.73,89.6202 360.824,84.4952 C360.918,80.4171 361.011,76.5108 361.011,72.9952 C361.011,72.1515 360.918,71.2921 360.918,70.4327 C360.918,66.2608 360.824,62.1671 360.636,58.3702 C360.636,57.9015 360.543,57.0421 360.355,55.6202 C360.168,54.1827 359.886,52.8546 359.777,51.6202 C359.683,51.0577 359.683,50.4796 359.683,49.9171 C359.683,49.2452 359.683,48.6827 359.777,48.0108 C359.98,46.7765 360.355,45.8233 361.011,45.3546 C361.871,44.6827 362.824,44.4015 363.871,44.4015 C364.152,44.4952 364.433,44.4952 364.73,44.4952 C366.152,44.6827 367.668,45.1671 369.277,46.0265 C370.902,46.8702 372.418,48.0108 373.84,49.1515 C375.277,50.2921 376.605,51.4327 377.652,52.5733 C378.683,53.714 379.543,54.5733 380.027,55.4327 C381.543,57.9015 382.59,60.6515 383.152,63.6827 C383.433,65.4015 383.636,67.1046 383.636,68.8233 C383.636,70.0577 383.527,71.2921 383.433,72.5265 C382.965,75.464 382.105,78.3233 380.871,81.0733 C379.636,83.8233 378.027,86.3077 376.121,88.4796 C374.136,90.6671 371.855,92.3858 369.183,93.8077 C366.527,95.2296 363.683,96.089 360.636,96.3702"/>
<path class="Harmony" d="M1706.37,51.7874 C1702.66,52.2562 1699.15,53.1155 1695.73,54.3499 C1692.31,55.5843 1689.16,57.2874 1686.13,59.2874 C1683.09,61.2874 1680.34,63.5687 1677.96,66.1312 C1675.59,68.6937 1673.59,71.6312 1671.88,74.9593 C1670.16,78.2874 1669.02,81.803 1668.37,85.5062 C1667.88,87.7874 1667.7,90.1624 1667.7,92.5374 L1667.7,93.2093 C1667.7,95.4749 1667.79,97.6624 1668.07,99.8499 C1668.37,102.225 1668.93,104.6 1669.7,106.787 C1670.56,109.069 1671.49,111.256 1672.54,113.241 C1673.59,115.241 1674.91,117.053 1676.45,118.662 C1677.96,120.272 1679.85,121.6 1681.76,122.741 C1683.66,123.881 1685.84,124.741 1688.21,125.225 C1689.84,125.506 1691.45,125.694 1693.07,125.694 C1693.91,125.694 1694.87,125.694 1695.91,125.6 C1698.85,125.319 1701.62,124.647 1704.18,123.694 C1706.74,122.741 1709.12,121.6 1711.12,120.272 C1713.1,118.944 1715.1,117.241 1716.91,115.334 C1718.71,113.444 1720.43,111.35 1721.85,109.256 C1723.27,107.162 1724.6,104.787 1726.02,102.131 C1728.21,97.7562 1729.26,94.053 1729.26,91.1155 C1729.26,88.1624 1728.21,85.8812 1726.02,84.2718 C1724.79,83.2249 1722.71,82.5687 1719.95,82.0843 C1717.96,81.803 1715.96,81.6155 1713.96,81.6155 L1713.49,81.6155 L1711.4,81.6155 C1708.46,81.7093 1705.7,82.178 1703.04,83.0374 C1700.38,83.8968 1698.57,84.9437 1697.62,86.178 C1697.34,86.6468 1697.06,87.0218 1696.77,87.4124 C1696.1,88.4593 1695.73,89.3968 1695.73,90.2562 C1695.73,91.4905 1696.59,92.3499 1698.2,92.8187 C1699.52,93.2093 1702.09,93.3968 1705.79,93.3968 L1706.65,93.3968 C1707.88,93.4905 1708.84,93.4905 1709.49,93.4905 C1713.4,93.4905 1715.77,93.9593 1716.52,95.0062 C1716.82,95.3812 1717.1,95.9593 1717.1,96.5218 C1717.1,97.0999 1717.01,97.6624 1716.91,98.2405 C1716.82,98.803 1716.52,99.4749 1716.24,100.225 C1715.96,100.991 1715.68,101.569 1715.38,102.037 C1715.1,102.506 1714.82,103.178 1714.45,103.944 C1714.06,104.694 1713.77,105.084 1713.68,105.272 C1713.21,106.116 1712.91,106.787 1712.63,107.256 C1712.35,107.741 1711.96,108.209 1711.49,108.881 C1711.02,109.537 1710.45,110.116 1709.98,110.491 C1707.98,112.006 1705.79,113.053 1703.23,113.537 L1699.99,113.912 L1699.62,113.912 C1698.38,113.819 1697.06,113.725 1695.82,113.444 C1693.45,112.959 1691.07,112.1 1688.88,110.772 C1686.7,109.444 1684.81,107.834 1683.37,105.928 C1681.95,103.944 1680.62,101.569 1679.66,98.8968 C1678.71,96.2405 1678.15,93.4905 1677.96,90.5374 C1677.87,89.4905 1677.87,88.553 1677.87,87.5062 C1677.87,85.5999 1677.96,83.7093 1678.24,81.8968 C1678.71,79.1468 1679.57,76.4749 1680.9,74.0062 C1682.23,71.5374 1683.95,69.553 1686.04,68.0218 C1688.6,66.0374 1691.73,64.5999 1695.34,63.6624 C1697.34,63.0843 1699.34,62.803 1701.23,62.803 C1702.57,62.803 1703.9,62.9905 1705.13,63.2718 C1706.18,63.5687 1707.21,63.9437 1708.46,64.5062 C1709.7,65.0843 1710.73,65.6468 1711.68,66.2249 C1712.63,66.7874 1713.68,67.3655 1714.73,67.928 C1715.77,68.5062 1716.82,68.9749 1717.76,69.1624 C1718.71,69.3499 1719.66,69.4593 1720.62,69.3499 C1721.57,69.2562 1722.51,68.7874 1723.46,67.928 C1724.41,67.0843 1725.27,65.9437 1726.12,64.5062 C1726.6,63.6624 1726.88,62.803 1726.88,61.9437 C1726.88,61.2874 1726.7,60.7093 1726.41,60.053 C1725.65,58.6155 1724.41,57.3812 1722.71,56.3343 C1720.99,55.303 1719.2,54.3499 1717.1,53.5843 C1715.01,52.8187 1713.01,52.3499 1711.02,52.0687 C1709.59,51.7874 1708.46,51.6937 1707.51,51.6937 C1707.02,51.6937 1706.65,51.6937 1706.37,51.7874"/>
<path class="Harmony" d="M2344.93,51.3968 C2344.46,51.4905 2343.69,51.5843 2342.46,51.6937 C2341.23,51.7874 2340.27,51.9749 2339.62,52.0687 C2338.94,52.1624 2337.99,52.2562 2336.85,52.4437 C2335.71,52.6312 2334.87,52.928 2334.1,53.2093 C2333.33,53.4905 2332.49,53.8655 2331.73,54.3499 C2330.96,54.8187 2330.3,55.303 2329.82,55.9593 C2329.16,56.6312 2328.68,57.3812 2328.3,58.1468 C2327.93,58.9124 2327.65,59.8499 2327.54,60.803 C2327.44,61.4749 2327.44,62.1312 2327.44,62.803 L2327.44,63.3655 C2327.54,64.0374 2327.54,64.9905 2327.65,66.1312 C2327.74,67.2718 2327.74,68.2093 2327.74,68.8812 C2327.74,79.7093 2328.02,90.3499 2328.49,100.897 C2328.58,101.459 2328.58,102.037 2328.58,102.709 C2328.49,104.694 2328.4,107.35 2328.21,110.491 C2327.93,114.194 2327.74,116.959 2327.74,118.756 L2327.74,119.334 L2327.74,120.944 C2327.74,121.412 2327.93,121.897 2328.02,122.459 C2328.12,123.037 2328.3,123.506 2328.58,123.787 C2328.88,124.084 2329.16,124.366 2329.63,124.647 C2330.02,124.834 2330.49,124.928 2331.05,124.928 L2331.35,124.928 C2334.66,124.834 2337.99,124.178 2341.32,122.944 C2344.65,121.709 2347.79,120.178 2350.73,118.194 C2353.68,116.194 2356.43,113.819 2359.08,111.069 C2361.74,108.303 2364.02,105.459 2365.93,102.412 C2367.82,99.3812 2369.44,96.2405 2370.68,92.9124 C2371.91,89.5843 2372.57,86.2718 2372.77,83.1312 C2372.87,82.4593 2372.87,81.7093 2372.87,81.0374 C2372.87,79.2405 2372.68,77.3343 2372.29,75.4437 C2371.82,72.7718 2371.05,70.1155 2370.01,67.6468 C2368.96,65.178 2367.63,62.8968 2365.93,60.7093 C2364.21,58.5218 2362.32,56.7249 2360.23,55.2093 C2358.13,53.678 2355.85,52.5374 2353.19,51.8812 C2351.49,51.3968 2349.68,51.2093 2347.88,51.2093 C2346.93,51.2093 2345.98,51.303 2344.93,51.3968 M2339.04,112.772 C2339.04,110.022 2339.13,106.022 2339.23,100.897 C2339.32,96.8187 2339.41,92.9124 2339.41,89.3968 C2339.41,88.553 2339.32,87.6937 2339.32,86.8343 C2339.32,82.6624 2339.23,78.5687 2339.04,74.7718 C2339.04,74.303 2338.94,73.4437 2338.76,72.0218 C2338.57,70.5843 2338.29,69.2562 2338.18,68.0218 C2338.08,67.4593 2338.08,66.8812 2338.08,66.3187 C2338.08,65.6468 2338.08,65.0843 2338.18,64.4124 C2338.38,63.178 2338.76,62.2249 2339.41,61.7562 C2340.27,61.0843 2341.23,60.803 2342.27,60.803 C2342.55,60.8968 2342.83,60.8968 2343.13,60.8968 C2344.55,61.0843 2346.07,61.5687 2347.68,62.428 C2349.3,63.2718 2350.82,64.4124 2352.24,65.553 C2353.68,66.6937 2355.01,67.8343 2356.05,68.9749 C2357.08,70.1155 2357.94,70.9749 2358.43,71.8343 C2359.94,74.303 2360.99,77.053 2361.55,80.0843 C2361.83,81.803 2362.04,83.5062 2362.04,85.2249 C2362.04,86.4593 2361.93,87.6937 2361.83,88.928 C2361.37,91.8655 2360.51,94.7249 2359.27,97.4749 C2358.04,100.225 2356.43,102.709 2354.52,104.881 C2352.54,107.069 2350.26,108.787 2347.58,110.209 C2344.93,111.631 2342.08,112.491 2339.04,112.772"/>
<path class="Harmony" d="M187.627,361.436 C187.158,361.53 186.392,361.624 185.158,361.733 C183.923,361.827 182.97,362.014 182.314,362.108 C181.642,362.202 180.689,362.296 179.548,362.483 C178.408,362.671 177.564,362.967 176.798,363.249 C176.033,363.53 175.189,363.905 174.423,364.389 C173.658,364.858 173.002,365.342 172.517,365.999 C171.861,366.671 171.377,367.421 171.002,368.186 C170.627,368.952 170.345,369.889 170.236,370.842 C170.142,371.514 170.142,372.171 170.142,372.842 L170.142,373.405 C170.236,374.077 170.236,375.03 170.345,376.171 C170.439,377.311 170.439,378.249 170.439,378.921 C170.439,389.749 170.72,400.389 171.189,410.936 C171.283,411.499 171.283,412.077 171.283,412.749 C171.189,414.733 171.095,417.389 170.908,420.53 C170.627,424.233 170.439,426.999 170.439,428.796 L170.439,429.374 L170.439,430.983 C170.439,431.452 170.627,431.936 170.72,432.499 C170.814,433.077 171.002,433.546 171.283,433.827 C171.58,434.124 171.861,434.405 172.33,434.686 C172.72,434.874 173.189,434.967 173.752,434.967 L174.048,434.967 C177.361,434.874 180.689,434.217 184.017,432.983 C187.345,431.749 190.486,430.217 193.423,428.233 C196.377,426.233 199.127,423.858 201.783,421.108 C204.439,418.342 206.72,415.499 208.627,412.452 C210.517,409.421 212.142,406.28 213.377,402.952 C214.611,399.624 215.267,396.311 215.47,393.171 C215.564,392.499 215.564,391.749 215.564,391.077 C215.564,389.28 215.377,387.374 214.986,385.483 C214.517,382.811 213.752,380.155 212.705,377.686 C211.658,375.217 210.33,372.936 208.627,370.749 C206.908,368.561 205.017,366.764 202.923,365.249 C200.83,363.717 198.548,362.577 195.892,361.921 C194.189,361.436 192.377,361.249 190.58,361.249 C189.627,361.249 188.673,361.342 187.627,361.436 M181.736,422.811 C181.736,420.061 181.83,416.061 181.923,410.936 C182.017,406.858 182.111,402.952 182.111,399.436 C182.111,398.592 182.017,397.733 182.017,396.874 C182.017,392.702 181.923,388.608 181.736,384.811 C181.736,384.342 181.642,383.483 181.455,382.061 C181.267,380.624 180.986,379.296 180.877,378.061 C180.783,377.499 180.783,376.921 180.783,376.358 C180.783,375.686 180.783,375.124 180.877,374.452 C181.08,373.217 181.455,372.264 182.111,371.796 C182.97,371.124 183.923,370.842 184.97,370.842 C185.252,370.936 185.533,370.936 185.83,370.936 C187.252,371.124 188.767,371.608 190.377,372.467 C192.002,373.311 193.517,374.452 194.939,375.592 C196.377,376.733 197.705,377.874 198.752,379.014 C199.783,380.155 200.642,381.014 201.127,381.874 C202.642,384.342 203.689,387.092 204.252,390.124 C204.533,391.842 204.736,393.546 204.736,395.264 C204.736,396.499 204.627,397.733 204.533,398.967 C204.064,401.905 203.205,404.764 201.97,407.514 C200.736,410.264 199.127,412.749 197.22,414.921 C195.236,417.108 192.955,418.827 190.283,420.249 C187.627,421.671 184.783,422.53 181.736,422.811"/>
<path class="Harmony" d="M1595.78,361.827 C1592.07,362.296 1588.56,363.155 1585.14,364.389 C1581.71,365.624 1578.57,367.327 1575.54,369.327 C1572.5,371.327 1569.75,373.608 1567.37,376.171 C1565,378.733 1563,381.671 1561.29,384.999 C1559.57,388.327 1558.43,391.842 1557.78,395.546 C1557.29,397.827 1557.11,400.202 1557.11,402.577 L1557.11,403.249 C1557.11,405.514 1557.2,407.702 1557.48,409.889 C1557.78,412.264 1558.34,414.639 1559.11,416.827 C1559.96,419.108 1560.9,421.296 1561.95,423.28 C1563,425.28 1564.32,427.092 1565.86,428.702 C1567.37,430.311 1569.26,431.639 1571.17,432.78 C1573.07,433.921 1575.25,434.78 1577.62,435.264 C1579.25,435.546 1580.86,435.733 1582.48,435.733 C1583.32,435.733 1584.28,435.733 1585.32,435.639 C1588.26,435.358 1591.03,434.686 1593.59,433.733 C1596.15,432.78 1598.53,431.639 1600.53,430.311 C1602.51,428.983 1604.51,427.28 1606.32,425.374 C1608.12,423.483 1609.84,421.389 1611.26,419.296 C1612.68,417.202 1614.01,414.827 1615.43,412.171 C1617.62,407.796 1618.67,404.092 1618.67,401.155 C1618.67,398.202 1617.62,395.921 1615.43,394.311 C1614.2,393.264 1612.12,392.608 1609.36,392.124 C1607.37,391.842 1605.37,391.655 1603.37,391.655 L1602.9,391.655 L1600.81,391.655 C1597.87,391.749 1595.11,392.217 1592.45,393.077 C1589.79,393.936 1587.98,394.983 1587.03,396.217 C1586.75,396.686 1586.46,397.061 1586.18,397.452 C1585.51,398.499 1585.14,399.436 1585.14,400.296 C1585.14,401.53 1586,402.389 1587.61,402.858 C1588.93,403.249 1591.5,403.436 1595.2,403.436 L1596.06,403.436 C1597.29,403.53 1598.25,403.53 1598.9,403.53 C1602.81,403.53 1605.18,403.999 1605.93,405.046 C1606.23,405.421 1606.51,405.999 1606.51,406.561 C1606.51,407.139 1606.42,407.702 1606.32,408.28 C1606.23,408.842 1605.93,409.514 1605.65,410.264 C1605.37,411.03 1605.09,411.608 1604.79,412.077 C1604.51,412.546 1604.23,413.217 1603.86,413.983 C1603.46,414.733 1603.18,415.124 1603.09,415.311 C1602.62,416.155 1602.32,416.827 1602.04,417.296 C1601.76,417.78 1601.37,418.249 1600.9,418.921 C1600.43,419.577 1599.86,420.155 1599.39,420.53 C1597.39,422.046 1595.2,423.092 1592.64,423.577 L1589.4,423.952 L1589.03,423.952 C1587.79,423.858 1586.46,423.764 1585.23,423.483 C1582.86,422.999 1580.48,422.139 1578.29,420.811 C1576.11,419.483 1574.21,417.874 1572.78,415.967 C1571.36,413.983 1570.03,411.608 1569.07,408.936 C1568.12,406.28 1567.56,403.53 1567.37,400.577 C1567.28,399.53 1567.28,398.592 1567.28,397.546 C1567.28,395.639 1567.37,393.749 1567.65,391.936 C1568.12,389.186 1568.98,386.514 1570.31,384.046 C1571.64,381.577 1573.36,379.592 1575.45,378.061 C1578.01,376.077 1581.14,374.639 1584.75,373.702 C1586.75,373.124 1588.75,372.842 1590.64,372.842 C1591.98,372.842 1593.31,373.03 1594.54,373.311 C1595.59,373.608 1596.62,373.983 1597.87,374.546 C1599.11,375.124 1600.14,375.686 1601.09,376.264 C1602.04,376.827 1603.09,377.405 1604.14,377.967 C1605.18,378.546 1606.23,379.014 1607.17,379.202 C1608.12,379.389 1609.07,379.499 1610.03,379.389 C1610.98,379.296 1611.92,378.827 1612.87,377.967 C1613.82,377.124 1614.68,375.983 1615.53,374.546 C1616.01,373.702 1616.29,372.842 1616.29,371.983 C1616.29,371.327 1616.11,370.749 1615.82,370.092 C1615.06,368.655 1613.82,367.421 1612.12,366.374 C1610.4,365.342 1608.61,364.389 1606.51,363.624 C1604.42,362.858 1602.42,362.389 1600.43,362.108 C1599,361.827 1597.87,361.733 1596.92,361.733 C1596.43,361.733 1596.06,361.733 1595.78,361.827"/>
<path class="Harmony" d="M1908.08,381.389 C1909.31,382.999 1910.16,385.186 1910.83,387.952 C1911.5,390.702 1911.97,393.358 1912.44,396.124 C1912.92,398.874 1913.21,401.436 1913.3,403.717 L1906.08,402.952 L1898.28,403.717 L1902.28,391.842 L1908.08,381.389 M1906.36,414.827 L1908.27,414.827 L1911.11,414.827 L1911.88,414.827 L1912.74,414.827 C1912.83,414.827 1913.11,414.921 1913.49,414.921 C1913.88,414.921 1914.16,414.921 1914.35,415.014 C1914.53,415.124 1914.72,415.217 1915.02,415.311 C1915.3,415.405 1915.49,415.499 1915.67,415.686 C1915.86,415.874 1916.16,415.967 1916.35,416.155 C1916.81,416.639 1917.28,417.592 1917.67,418.827 C1918.05,419.967 1918.42,421.202 1918.72,422.624 C1919,424.046 1919.28,425.467 1919.56,427.092 C1919.86,428.702 1920.24,430.124 1920.61,431.452 C1921,432.78 1921.56,434.014 1922.14,435.061 C1922.71,436.108 1923.38,436.78 1924.22,437.155 C1924.61,437.342 1925.08,437.436 1925.66,437.436 C1926.13,437.436 1926.69,437.342 1927.27,437.155 C1928.13,436.874 1928.78,436.499 1929.46,436.108 C1930.11,435.733 1930.6,435.358 1930.97,434.874 C1931.35,434.405 1931.64,433.921 1931.92,433.358 C1932.21,432.78 1932.39,432.405 1932.49,431.936 C1932.58,431.546 1932.58,431.171 1932.58,430.702 L1932.58,430.217 C1932.58,429.561 1932.58,428.889 1932.49,428.421 C1932.39,427.936 1932.21,427.374 1932.02,426.608 C1931.83,425.858 1931.64,425.28 1931.44,424.811 C1931.25,424.327 1931.16,423.671 1930.88,422.811 C1930.6,421.952 1930.3,421.389 1930.21,421.014 C1929.55,419.108 1928.41,415.311 1926.78,409.702 C1925.66,405.624 1924.71,402.202 1924.03,399.53 C1922.8,394.686 1921.75,390.702 1921,387.561 C1919.77,382.342 1918.81,378.827 1918.33,377.014 C1918.24,376.639 1918.14,376.077 1917.96,375.311 C1917.77,374.546 1917.67,373.889 1917.58,373.311 C1917.49,372.749 1917.19,372.171 1917,371.421 C1916.81,370.655 1916.63,369.889 1916.44,369.327 C1916.25,368.749 1915.86,368.092 1915.58,367.421 C1915.3,366.764 1914.91,366.28 1914.53,365.811 C1914.16,365.342 1913.88,364.952 1913.39,364.577 C1912.92,364.202 1912.44,363.811 1911.88,363.717 C1911.41,363.624 1910.92,363.53 1910.36,363.53 L1909.97,363.53 C1909.31,363.624 1908.55,363.717 1907.69,363.999 C1907.03,364.296 1906.27,364.671 1905.61,365.139 C1904.94,365.624 1904.28,365.999 1903.8,366.483 C1903.33,366.952 1902.85,367.624 1902.38,368.374 C1901.91,369.139 1901.42,369.702 1901.14,370.28 C1900.86,370.842 1900.47,371.608 1900.1,372.561 C1899.72,373.499 1899.33,374.264 1899.14,374.842 C1898.96,375.405 1898.77,376.171 1898.39,377.124 C1898,378.061 1897.72,378.733 1897.63,379.202 C1894.88,386.139 1892.11,392.702 1889.36,399.061 C1884.89,409.233 1882.24,415.405 1881.47,417.686 C1881.38,418.061 1881,418.733 1880.52,419.764 C1880.05,420.811 1879.49,421.764 1879,422.717 C1878.53,423.671 1878.05,424.905 1877.49,426.139 C1876.91,427.374 1876.44,428.608 1876.16,429.655 C1875.77,430.702 1875.58,431.639 1875.58,432.499 C1875.67,433.358 1875.88,433.921 1876.35,434.405 C1877.21,435.061 1878.14,435.452 1879.19,435.452 L1879.86,435.452 C1881.19,435.264 1882.52,434.874 1883.85,434.124 C1885.17,433.358 1886.13,432.499 1886.61,431.639 C1887.17,430.608 1887.75,429.374 1888.22,427.842 C1888.69,426.327 1889.17,424.905 1889.46,423.671 C1889.74,422.436 1890.13,421.108 1890.78,419.671 C1891.46,418.249 1892.21,417.108 1893.06,416.155 L1898.19,414.546 C1898.49,414.452 1898.86,414.546 1899.53,414.546 L1902.28,414.546 C1902.56,414.546 1903.99,414.639 1906.36,414.827"/>
<path class="Harmony" d="M2268.49,361.436 C2268.02,361.53 2267.26,361.624 2266.02,361.733 C2264.79,361.827 2263.84,362.014 2263.18,362.108 C2262.51,362.202 2261.56,362.296 2260.42,362.483 C2259.27,362.671 2258.43,362.967 2257.67,363.249 C2256.9,363.53 2256.06,363.905 2255.29,364.389 C2254.52,364.858 2253.87,365.342 2253.38,365.999 C2252.73,366.671 2252.24,367.421 2251.87,368.186 C2251.49,368.952 2251.21,369.889 2251.1,370.842 C2251.01,371.514 2251.01,372.171 2251.01,372.842 L2251.01,373.405 C2251.1,374.077 2251.1,375.03 2251.21,376.171 C2251.31,377.311 2251.31,378.249 2251.31,378.921 C2251.31,389.749 2251.59,400.389 2252.06,410.936 C2252.15,411.499 2252.15,412.077 2252.15,412.749 C2252.06,414.733 2251.96,417.389 2251.77,420.53 C2251.49,424.233 2251.31,426.999 2251.31,428.796 L2251.31,429.374 L2251.31,430.983 C2251.31,431.452 2251.49,431.936 2251.59,432.499 C2251.68,433.077 2251.87,433.546 2252.15,433.827 C2252.45,434.124 2252.73,434.405 2253.2,434.686 C2253.59,434.874 2254.06,434.967 2254.62,434.967 L2254.92,434.967 C2258.23,434.874 2261.56,434.217 2264.88,432.983 C2268.21,431.749 2271.35,430.217 2274.29,428.233 C2277.24,426.233 2279.99,423.858 2282.65,421.108 C2285.31,418.342 2287.59,415.499 2289.49,412.452 C2291.38,409.421 2293.01,406.28 2294.24,402.952 C2295.48,399.624 2296.13,396.311 2296.34,393.171 C2296.43,392.499 2296.43,391.749 2296.43,391.077 C2296.43,389.28 2296.24,387.374 2295.85,385.483 C2295.38,382.811 2294.62,380.155 2293.57,377.686 C2292.52,375.217 2291.2,372.936 2289.49,370.749 C2287.77,368.561 2285.88,366.764 2283.79,365.249 C2281.7,363.717 2279.42,362.577 2276.76,361.921 C2275.06,361.436 2273.24,361.249 2271.45,361.249 C2270.49,361.249 2269.54,361.342 2268.49,361.436 M2262.6,422.811 C2262.6,420.061 2262.7,416.061 2262.79,410.936 C2262.88,406.858 2262.98,402.952 2262.98,399.436 C2262.98,398.592 2262.88,397.733 2262.88,396.874 C2262.88,392.702 2262.79,388.608 2262.6,384.811 C2262.6,384.342 2262.51,383.483 2262.32,382.061 C2262.13,380.624 2261.85,379.296 2261.74,378.061 C2261.65,377.499 2261.65,376.921 2261.65,376.358 C2261.65,375.686 2261.65,375.124 2261.74,374.452 C2261.95,373.217 2262.32,372.264 2262.98,371.796 C2263.84,371.124 2264.79,370.842 2265.84,370.842 C2266.12,370.936 2266.4,370.936 2266.7,370.936 C2268.12,371.124 2269.63,371.608 2271.24,372.467 C2272.87,373.311 2274.38,374.452 2275.81,375.592 C2277.24,376.733 2278.57,377.874 2279.62,379.014 C2280.65,380.155 2281.51,381.014 2281.99,381.874 C2283.51,384.342 2284.56,387.092 2285.12,390.124 C2285.4,391.842 2285.6,393.546 2285.6,395.264 C2285.6,396.499 2285.49,397.733 2285.4,398.967 C2284.93,401.905 2284.07,404.764 2282.84,407.514 C2281.6,410.264 2279.99,412.749 2278.09,414.921 C2276.1,417.108 2273.82,418.827 2271.15,420.249 C2268.49,421.671 2265.65,422.53 2262.6,422.811"/>
<path class="Harmony" d="M187.627,679.018 C187.158,679.112 186.392,679.206 185.158,679.315 C183.923,679.409 182.97,679.596 182.314,679.69 C181.642,679.784 180.689,679.878 179.548,680.065 C178.408,680.253 177.564,680.55 176.798,680.831 C176.033,681.112 175.189,681.487 174.423,681.971 C173.658,682.44 173.002,682.925 172.517,683.581 C171.861,684.253 171.377,685.003 171.002,685.768 C170.627,686.534 170.345,687.471 170.236,688.425 C170.142,689.096 170.142,689.753 170.142,690.425 L170.142,690.987 C170.236,691.659 170.236,692.612 170.345,693.753 C170.439,694.893 170.439,695.831 170.439,696.503 C170.439,707.331 170.72,717.971 171.189,728.518 C171.283,729.081 171.283,729.659 171.283,730.331 C171.189,732.315 171.095,734.971 170.908,738.112 C170.627,741.815 170.439,744.581 170.439,746.378 L170.439,746.956 L170.439,748.565 C170.439,749.034 170.627,749.518 170.72,750.081 C170.814,750.659 171.002,751.128 171.283,751.409 C171.58,751.706 171.861,751.987 172.33,752.268 C172.72,752.456 173.189,752.55 173.752,752.55 L174.048,752.55 C177.361,752.456 180.689,751.8 184.017,750.565 C187.345,749.331 190.486,747.8 193.423,745.815 C196.377,743.815 199.127,741.44 201.783,738.69 C204.439,735.925 206.72,733.081 208.627,730.034 C210.517,727.003 212.142,723.862 213.377,720.534 C214.611,717.206 215.267,713.893 215.47,710.753 C215.564,710.081 215.564,709.331 215.564,708.659 C215.564,706.862 215.377,704.956 214.986,703.065 C214.517,700.393 213.752,697.737 212.705,695.268 C211.658,692.8 210.33,690.518 208.627,688.331 C206.908,686.143 205.017,684.346 202.923,682.831 C200.83,681.3 198.548,680.159 195.892,679.503 C194.189,679.018 192.377,678.831 190.58,678.831 C189.627,678.831 188.673,678.925 187.627,679.018 M181.736,740.393 C181.736,737.643 181.83,733.643 181.923,728.518 C182.017,724.44 182.111,720.534 182.111,717.018 C182.111,716.175 182.017,715.315 182.017,714.456 C182.017,710.284 181.923,706.19 181.736,702.393 C181.736,701.925 181.642,701.065 181.455,699.643 C181.267,698.206 180.986,696.878 180.877,695.643 C180.783,695.081 180.783,694.503 180.783,693.94 C180.783,693.268 180.783,692.706 180.877,692.034 C181.08,690.8 181.455,689.846 182.111,689.378 C182.97,688.706 183.923,688.425 184.97,688.425 C185.252,688.518 185.533,688.518 185.83,688.518 C187.252,688.706 188.767,689.19 190.377,690.05 C192.002,690.893 193.517,692.034 194.939,693.175 C196.377,694.315 197.705,695.456 198.752,696.596 C199.783,697.737 200.642,698.596 201.127,699.456 C202.642,701.925 203.689,704.675 204.252,707.706 C204.533,709.425 204.736,711.128 204.736,712.846 C204.736,714.081 204.627,715.315 204.533,716.55 C204.064,719.487 203.205,722.346 201.97,725.096 C200.736,727.846 199.127,730.331 197.22,732.503 C195.236,734.69 192.955,736.409 190.283,737.831 C187.627,739.253 184.783,740.112 181.736,740.393"/>
<path class="Harmony" d="M912.725,679.409 C909.022,679.878 905.506,680.737 902.084,681.971 C898.663,683.206 895.522,684.909 892.491,686.909 C889.444,688.909 886.694,691.19 884.319,693.753 C881.944,696.315 879.944,699.253 878.241,702.581 C876.522,705.909 875.381,709.425 874.725,713.128 C874.241,715.409 874.053,717.784 874.053,720.159 L874.053,720.831 C874.053,723.096 874.147,725.284 874.428,727.471 C874.725,729.846 875.288,732.221 876.053,734.409 C876.913,736.69 877.85,738.878 878.897,740.862 C879.944,742.862 881.272,744.675 882.803,746.284 C884.319,747.893 886.209,749.221 888.116,750.362 C890.022,751.503 892.194,752.362 894.569,752.846 C896.194,753.128 897.803,753.315 899.428,753.315 C900.272,753.315 901.225,753.315 902.272,753.221 C905.209,752.94 907.975,752.268 910.538,751.315 C913.1,750.362 915.475,749.221 917.475,747.893 C919.459,746.565 921.459,744.862 923.272,742.956 C925.069,741.065 926.788,738.971 928.209,736.878 C929.631,734.784 930.959,732.409 932.381,729.753 C934.569,725.378 935.616,721.675 935.616,718.737 C935.616,715.784 934.569,713.503 932.381,711.893 C931.147,710.846 929.069,710.19 926.303,709.706 C924.319,709.425 922.319,709.237 920.319,709.237 L919.85,709.237 L917.756,709.237 C914.819,709.331 912.053,709.8 909.397,710.659 C906.741,711.518 904.928,712.565 903.975,713.8 C903.694,714.268 903.413,714.643 903.131,715.034 C902.459,716.081 902.084,717.018 902.084,717.878 C902.084,719.112 902.944,719.971 904.553,720.44 C905.881,720.831 908.444,721.018 912.147,721.018 L913.006,721.018 C914.241,721.112 915.194,721.112 915.85,721.112 C919.756,721.112 922.131,721.581 922.881,722.628 C923.178,723.003 923.459,723.581 923.459,724.143 C923.459,724.721 923.366,725.284 923.272,725.862 C923.178,726.425 922.881,727.096 922.6,727.846 C922.319,728.612 922.038,729.19 921.741,729.659 C921.459,730.128 921.178,730.8 920.803,731.565 C920.413,732.315 920.131,732.706 920.038,732.893 C919.569,733.737 919.272,734.409 918.991,734.878 C918.709,735.362 918.319,735.831 917.85,736.503 C917.381,737.159 916.803,737.737 916.334,738.112 C914.334,739.628 912.147,740.675 909.584,741.159 L906.35,741.534 L905.975,741.534 C904.741,741.44 903.413,741.346 902.178,741.065 C899.803,740.581 897.428,739.721 895.241,738.393 C893.053,737.065 891.163,735.456 889.725,733.55 C888.303,731.565 886.975,729.19 886.022,726.518 C885.069,723.862 884.506,721.112 884.319,718.159 C884.225,717.112 884.225,716.175 884.225,715.128 C884.225,713.221 884.319,711.331 884.6,709.518 C885.069,706.768 885.928,704.096 887.256,701.628 C888.584,699.159 890.303,697.175 892.397,695.643 C894.959,693.659 898.084,692.221 901.694,691.284 C903.694,690.706 905.694,690.425 907.584,690.425 C908.928,690.425 910.256,690.612 911.491,690.893 C912.538,691.19 913.569,691.565 914.819,692.128 C916.053,692.706 917.084,693.268 918.038,693.846 C918.991,694.409 920.038,694.987 921.084,695.55 C922.131,696.128 923.178,696.596 924.116,696.784 C925.069,696.971 926.022,697.081 926.975,696.971 C927.928,696.878 928.866,696.409 929.819,695.55 C930.772,694.706 931.631,693.565 932.475,692.128 C932.959,691.284 933.241,690.425 933.241,689.565 C933.241,688.909 933.053,688.331 932.772,687.675 C932.006,686.237 930.772,685.003 929.069,683.956 C927.35,682.925 925.553,681.971 923.459,681.206 C921.366,680.44 919.366,679.971 917.381,679.69 C915.944,679.409 914.819,679.315 913.866,679.315 C913.381,679.315 913.006,679.315 912.725,679.409"/>
<path class="Harmony" d="M1610.93,698.971 C1612.17,700.581 1613.01,702.768 1613.68,705.534 C1614.35,708.284 1614.82,710.94 1615.29,713.706 C1615.78,716.456 1616.06,719.018 1616.15,721.3 L1608.93,720.534 L1601.14,721.3 L1605.14,709.425 L1610.93,698.971 M1609.21,732.409 L1611.12,732.409 L1613.96,732.409 L1614.73,732.409 L1615.59,732.409 C1615.68,732.409 1615.96,732.503 1616.34,732.503 C1616.73,732.503 1617.01,732.503 1617.2,732.596 C1617.39,732.706 1617.57,732.8 1617.87,732.893 C1618.15,732.987 1618.34,733.081 1618.53,733.268 C1618.71,733.456 1619.01,733.55 1619.2,733.737 C1619.67,734.221 1620.14,735.175 1620.53,736.409 C1620.9,737.55 1621.28,738.784 1621.57,740.206 C1621.85,741.628 1622.14,743.05 1622.42,744.675 C1622.71,746.284 1623.09,747.706 1623.46,749.034 C1623.85,750.362 1624.42,751.596 1625,752.643 C1625.56,753.69 1626.23,754.362 1627.07,754.737 C1627.46,754.925 1627.93,755.018 1628.51,755.018 C1628.98,755.018 1629.54,754.925 1630.12,754.737 C1630.98,754.456 1631.64,754.081 1632.31,753.69 C1632.96,753.315 1633.45,752.94 1633.82,752.456 C1634.2,751.987 1634.5,751.503 1634.78,750.94 C1635.06,750.362 1635.25,749.987 1635.34,749.518 C1635.43,749.128 1635.43,748.753 1635.43,748.284 L1635.43,747.8 C1635.43,747.143 1635.43,746.471 1635.34,746.003 C1635.25,745.518 1635.06,744.956 1634.87,744.19 C1634.68,743.44 1634.5,742.862 1634.29,742.393 C1634.1,741.909 1634.01,741.253 1633.73,740.393 C1633.45,739.534 1633.15,738.971 1633.06,738.596 C1632.4,736.69 1631.26,732.893 1629.64,727.284 C1628.51,723.206 1627.56,719.784 1626.89,717.112 C1625.65,712.268 1624.6,708.284 1623.85,705.143 C1622.62,699.925 1621.67,696.409 1621.18,694.596 C1621.09,694.221 1621,693.659 1620.81,692.893 C1620.62,692.128 1620.53,691.471 1620.43,690.893 C1620.34,690.331 1620.04,689.753 1619.85,689.003 C1619.67,688.237 1619.48,687.471 1619.29,686.909 C1619.1,686.331 1618.71,685.675 1618.43,685.003 C1618.15,684.346 1617.76,683.862 1617.39,683.393 C1617.01,682.925 1616.73,682.534 1616.25,682.159 C1615.78,681.784 1615.29,681.393 1614.73,681.3 C1614.26,681.206 1613.78,681.112 1613.21,681.112 L1612.82,681.112 C1612.17,681.206 1611.4,681.3 1610.54,681.581 C1609.89,681.878 1609.12,682.253 1608.46,682.721 C1607.79,683.206 1607.14,683.581 1606.65,684.065 C1606.18,684.534 1605.7,685.206 1605.23,685.956 C1604.76,686.721 1604.28,687.284 1604,687.862 C1603.71,688.425 1603.32,689.19 1602.95,690.143 C1602.57,691.081 1602.18,691.846 1602,692.425 C1601.81,692.987 1601.62,693.753 1601.25,694.706 C1600.85,695.643 1600.57,696.315 1600.48,696.784 C1597.73,703.721 1594.96,710.284 1592.21,716.643 C1587.75,726.815 1585.09,732.987 1584.32,735.268 C1584.23,735.643 1583.85,736.315 1583.37,737.346 C1582.9,738.393 1582.34,739.346 1581.85,740.3 C1581.39,741.253 1580.9,742.487 1580.34,743.721 C1579.76,744.956 1579.29,746.19 1579.01,747.237 C1578.62,748.284 1578.43,749.221 1578.43,750.081 C1578.53,750.94 1578.73,751.503 1579.2,751.987 C1580.06,752.643 1581,753.034 1582.04,753.034 L1582.71,753.034 C1584.04,752.846 1585.37,752.456 1586.7,751.706 C1588.03,750.94 1588.98,750.081 1589.46,749.221 C1590.03,748.19 1590.6,746.956 1591.07,745.425 C1591.54,743.909 1592.03,742.487 1592.31,741.253 C1592.59,740.018 1592.98,738.69 1593.64,737.253 C1594.31,735.831 1595.06,734.69 1595.92,733.737 L1601.04,732.128 C1601.34,732.034 1601.71,732.128 1602.39,732.128 L1605.14,732.128 C1605.42,732.128 1606.84,732.221 1609.21,732.409"/>
<path class="Harmony" d="M2300.2,679.018 C2299.73,679.112 2298.97,679.206 2297.73,679.315 C2296.5,679.409 2295.55,679.596 2294.89,679.69 C2294.22,679.784 2293.27,679.878 2292.13,680.065 C2290.98,680.253 2290.14,680.55 2289.38,680.831 C2288.61,681.112 2287.77,681.487 2287,681.971 C2286.23,682.44 2285.58,682.925 2285.09,683.581 C2284.44,684.253 2283.95,685.003 2283.58,685.768 C2283.2,686.534 2282.92,687.471 2282.81,688.425 C2282.72,689.096 2282.72,689.753 2282.72,690.425 L2282.72,690.987 C2282.81,691.659 2282.81,692.612 2282.92,693.753 C2283.02,694.893 2283.02,695.831 2283.02,696.503 C2283.02,707.331 2283.3,717.971 2283.77,728.518 C2283.86,729.081 2283.86,729.659 2283.86,730.331 C2283.77,732.315 2283.67,734.971 2283.48,738.112 C2283.2,741.815 2283.02,744.581 2283.02,746.378 L2283.02,746.956 L2283.02,748.565 C2283.02,749.034 2283.2,749.518 2283.3,750.081 C2283.39,750.659 2283.58,751.128 2283.86,751.409 C2284.16,751.706 2284.44,751.987 2284.91,752.268 C2285.3,752.456 2285.77,752.55 2286.33,752.55 L2286.63,752.55 C2289.94,752.456 2293.27,751.8 2296.59,750.565 C2299.92,749.331 2303.06,747.8 2306,745.815 C2308.95,743.815 2311.7,741.44 2314.36,738.69 C2317.02,735.925 2319.3,733.081 2321.2,730.034 C2323.09,727.003 2324.72,723.862 2325.95,720.534 C2327.19,717.206 2327.84,713.893 2328.05,710.753 C2328.14,710.081 2328.14,709.331 2328.14,708.659 C2328.14,706.862 2327.95,704.956 2327.56,703.065 C2327.09,700.393 2326.33,697.737 2325.28,695.268 C2324.23,692.8 2322.91,690.518 2321.2,688.331 C2319.48,686.143 2317.59,684.346 2315.5,682.831 C2313.41,681.3 2311.13,680.159 2308.47,679.503 C2306.77,679.018 2304.95,678.831 2303.16,678.831 C2302.2,678.831 2301.25,678.925 2300.2,679.018 M2294.31,740.393 C2294.31,737.643 2294.41,733.643 2294.5,728.518 C2294.59,724.44 2294.69,720.534 2294.69,717.018 C2294.69,716.175 2294.59,715.315 2294.59,714.456 C2294.59,710.284 2294.5,706.19 2294.31,702.393 C2294.31,701.925 2294.22,701.065 2294.03,699.643 C2293.84,698.206 2293.56,696.878 2293.45,695.643 C2293.36,695.081 2293.36,694.503 2293.36,693.94 C2293.36,693.268 2293.36,692.706 2293.45,692.034 C2293.66,690.8 2294.03,689.846 2294.69,689.378 C2295.55,688.706 2296.5,688.425 2297.55,688.425 C2297.83,688.518 2298.11,688.518 2298.41,688.518 C2299.83,688.706 2301.34,689.19 2302.95,690.05 C2304.58,690.893 2306.09,692.034 2307.52,693.175 C2308.95,694.315 2310.28,695.456 2311.33,696.596 C2312.36,697.737 2313.22,698.596 2313.7,699.456 C2315.22,701.925 2316.27,704.675 2316.83,707.706 C2317.11,709.425 2317.31,711.128 2317.31,712.846 C2317.31,714.081 2317.2,715.315 2317.11,716.55 C2316.64,719.487 2315.78,722.346 2314.55,725.096 C2313.31,727.846 2311.7,730.331 2309.8,732.503 C2307.81,734.69 2305.53,736.409 2302.86,737.831 C2300.2,739.253 2297.36,740.112 2294.31,740.393"/>
<path class="Harmony" d="M181.267,1018.6 C181.267,1018.23 181.173,1017.37 181.08,1015.95 C180.986,1014.53 180.986,1013.2 180.986,1011.96 L180.986,1011.39 C180.986,1010.34 180.986,1009.2 181.08,1007.96 C181.173,1006.54 181.455,1005.4 181.736,1004.35 C182.017,1003.31 182.502,1002.56 183.064,1002.17 C183.736,1001.7 184.595,1001.51 185.627,1001.51 C186.673,1001.51 187.908,1001.7 189.142,1001.89 C190.377,1002.07 191.33,1002.17 191.908,1002.17 L193.423,1002.17 C195.033,1002.17 197.127,1002.26 199.595,1002.37 C202.923,1002.56 205.97,1002.65 208.908,1002.65 L209.955,1002.65 C212.423,1002.65 214.611,1002.46 216.502,1002.07 C217.752,1001.79 218.689,1000.93 219.361,999.511 C220.017,998.089 220.408,996.573 220.408,994.948 C220.408,993.245 220.017,991.917 219.267,991.058 C218.783,990.589 218.127,990.105 217.173,989.917 C216.22,989.73 215.47,989.636 214.705,989.636 C213.939,989.636 213.002,989.636 211.752,989.73 C210.517,989.823 209.767,989.823 209.486,989.823 C207.767,989.823 205.017,989.917 201.22,990.011 C198.455,990.105 195.892,990.105 193.611,990.105 L191.142,990.105 C188.205,990.011 185.439,989.823 182.877,989.542 C182.111,989.448 181.548,989.355 181.267,989.355 C180.986,989.355 180.408,989.355 179.548,989.245 C179.08,989.151 178.705,989.151 178.314,989.151 L177.47,989.151 C176.892,989.245 176.33,989.355 175.658,989.448 C174.986,989.542 174.423,989.73 173.955,990.011 C173.47,990.292 173.095,990.589 172.814,991.058 C172.236,992.011 171.861,993.339 171.58,994.948 C171.283,996.37 171.189,997.714 171.189,998.948 L171.189,999.417 C171.189,1000.84 171.283,1002.46 171.377,1004.45 C171.486,1006.45 171.58,1007.78 171.58,1008.45 L171.58,1009.68 C171.58,1013.2 171.486,1018.7 171.189,1026.12 C171.002,1032.29 170.908,1037.32 170.908,1041.31 L170.908,1045.21 L170.908,1045.59 C170.908,1046.45 170.814,1047.59 170.627,1048.92 C170.345,1050.43 170.142,1051.85 169.955,1053.18 C169.767,1054.42 169.673,1055.76 169.673,1057.09 L169.673,1057.37 C169.673,1058.79 169.861,1059.93 170.345,1060.89 C170.627,1061.64 171.189,1062.21 171.861,1062.59 C172.517,1062.98 173.377,1063.17 174.423,1063.26 L175.752,1063.26 L177.173,1063.26 C178.033,1063.17 179.08,1063.07 180.127,1062.89 C181.173,1062.68 181.83,1062.68 182.314,1062.68 L211.752,1062.68 C212.236,1062.68 212.798,1062.68 213.564,1062.78 C214.33,1062.89 214.986,1062.89 215.47,1062.89 L217.173,1062.89 C217.845,1062.89 218.408,1062.68 218.877,1062.5 C219.361,1062.31 219.736,1062.21 220.22,1061.93 C220.689,1061.64 220.97,1061.17 221.361,1060.6 C221.736,1060.03 222.017,1059.46 222.205,1058.79 C222.392,1058.23 222.502,1057.56 222.502,1056.7 L222.502,1056.14 C222.502,1055.56 222.502,1055 222.392,1054.32 C222.298,1053.57 222.017,1052.81 221.642,1052.14 C221.252,1051.48 220.783,1051.01 220.127,1050.71 C219.642,1050.53 218.986,1050.34 218.22,1050.34 C217.455,1050.34 216.705,1050.34 216.033,1050.43 C215.377,1050.53 214.611,1050.62 213.752,1050.71 C212.892,1050.81 212.236,1050.9 211.752,1050.9 L190.861,1050.9 C190.58,1050.9 190.002,1050.9 189.048,1051.01 C188.111,1051.1 187.252,1051.1 186.58,1051.1 C185.923,1051.1 185.158,1051.1 184.298,1051.01 C183.455,1050.9 182.783,1050.71 182.22,1050.43 C181.642,1050.15 181.267,1049.67 181.08,1049.2 C180.877,1048.34 180.877,1047.5 180.877,1046.92 C180.877,1046.35 180.986,1045.59 181.08,1044.54 C181.173,1043.5 181.267,1042.84 181.267,1042.35 C181.173,1041.98 181.08,1040.93 180.986,1039.32 C180.877,1038.28 180.877,1037.42 180.877,1036.56 L180.877,1035.14 C180.986,1033.9 181.267,1033.04 181.736,1032.39 C182.111,1031.9 182.689,1031.53 183.548,1031.25 C184.392,1030.96 185.252,1030.87 186.017,1030.87 C186.767,1030.87 187.627,1030.87 188.767,1030.96 C189.908,1031.06 190.58,1031.06 190.861,1031.06 C196.47,1031.15 202.252,1031.34 208.345,1031.71 C208.814,1031.71 209.58,1031.81 210.517,1031.9 C211.47,1032 212.236,1032.2 212.892,1032.29 C213.564,1032.39 214.33,1032.39 215.08,1032.29 C215.845,1032.2 216.611,1032.1 217.267,1031.81 C218.314,1031.43 218.986,1030.39 219.455,1028.78 C219.736,1027.82 219.83,1026.87 219.83,1025.92 C219.83,1025.17 219.736,1024.4 219.642,1023.75 C219.361,1022.12 218.689,1020.98 217.752,1020.32 C216.892,1019.75 215.564,1019.37 213.658,1019.09 C212.423,1019 211.095,1018.89 209.861,1018.89 L209.283,1018.89 L208.048,1018.89 C206.252,1018.89 204.345,1019 202.158,1019.09 C200.83,1019.18 199.689,1019.28 198.845,1019.28 C198.361,1019.18 197.892,1019.18 197.611,1019.18 C196.939,1019.18 194.564,1019.18 190.486,1019.09 C186.392,1019 183.361,1018.89 181.267,1018.6"/>
<path class="Harmony" d="M227.111,1037.21 C227.111,1041.34 227.017,1044.17 226.939,1045.54 C226.861,1045.64 226.783,1047.25 226.705,1050.25 C226.611,1050.98 226.533,1052.68 226.455,1055.51 C226.455,1055.67 226.298,1056.32 225.97,1057.45 C225.642,1058.59 225.564,1059.23 225.564,1059.64 L225.564,1060.21 C225.642,1061.01 225.642,1061.67 225.72,1062.23 C225.814,1062.64 226.205,1062.89 227.017,1062.89 C227.267,1062.89 227.908,1062.71 228.72,1062.31 C229.533,1061.92 230.345,1061.42 231.314,1060.85 C232.283,1060.29 233.095,1059.73 233.83,1059.23 C234.548,1058.75 234.877,1058.26 234.955,1058.03 C235.533,1056 235.767,1053.89 235.767,1051.62 L235.767,1051.21 L235.767,1049.92 C235.689,1049.68 235.689,1049.35 235.689,1048.95 C235.767,1047.82 235.845,1046.12 236.017,1043.93 C236.173,1041.57 236.658,1039.31 237.47,1037.21 C238.205,1035.18 239.736,1033.48 242.002,1032.18 L242.58,1032.18 C242.814,1032.18 242.892,1032.18 242.97,1032.1 C243.064,1032.03 243.22,1032.03 243.298,1032.03 L244.845,1032.03 C245.408,1032.03 245.814,1032.43 245.97,1033.07 L245.97,1036.64 L245.97,1039.96 C245.892,1041.18 245.736,1042.71 245.658,1044.5 C245.564,1046.28 245.486,1047.98 245.408,1049.68 C245.33,1051.39 245.158,1052.84 245.08,1054.06 L244.923,1055.92 L243.877,1056.96 L243.877,1064.18 C245.736,1064.18 247.517,1063.93 249.127,1063.53 C250.752,1063.12 252.298,1062.23 253.83,1060.93 C254.314,1057.29 254.72,1053.48 255.048,1049.51 C255.377,1045.54 255.611,1041.75 255.783,1038.1 C256.423,1037.6 256.986,1037.04 257.392,1036.31 C257.798,1035.59 258.205,1034.93 258.689,1034.29 C259.173,1033.64 259.658,1033.15 260.314,1032.67 C260.955,1032.18 261.767,1032.03 262.814,1032.03 C263.548,1032.03 264.111,1032.18 264.517,1032.67 C264.923,1033.15 265.173,1033.73 265.33,1034.37 C265.502,1035.03 265.58,1035.67 265.658,1036.4 C265.736,1037.12 265.736,1037.78 265.736,1038.34 C265.736,1042.56 265.58,1046.76 265.173,1050.9 C264.767,1055.03 264.611,1059.23 264.611,1063.45 C266.877,1063.45 268.814,1062.96 270.361,1062 C271.892,1061.01 273.345,1059.73 274.642,1058.03 C274.892,1056 275.127,1054.21 275.298,1052.59 C275.455,1050.98 275.533,1049.35 275.611,1047.73 C275.705,1046.12 275.705,1044.5 275.705,1042.96 L275.705,1037.6 L275.705,1035.75 C275.705,1034.85 275.705,1033.89 275.611,1032.92 C275.533,1031.95 275.533,1030.96 275.533,1030.07 L275.533,1028.21 C275.127,1026.43 274.158,1025.14 272.783,1024.32 C271.408,1023.51 269.861,1023.12 268.33,1023.12 C267.111,1023.12 265.986,1023.43 265.002,1023.92 C264.033,1024.42 263.314,1025.06 262.58,1025.7 C261.845,1026.35 261.033,1027 260.314,1027.48 C259.58,1027.98 258.767,1028.21 257.877,1028.21 C257.064,1028.21 256.502,1027.98 256.095,1027.32 C255.689,1026.68 255.377,1026.03 254.97,1025.21 C254.564,1024.42 253.986,1023.76 253.267,1023.12 C252.533,1022.46 251.314,1022.14 249.783,1022.14 C248.408,1022.14 247.189,1022.46 246.22,1023.12 C245.252,1023.76 244.189,1024.42 243.298,1025.21 C242.408,1026.03 241.517,1026.68 240.705,1027.32 C239.908,1027.98 239.002,1028.21 237.955,1028.21 L236.986,1028.21 C236.986,1027.98 236.908,1027.57 236.83,1027 C236.736,1026.43 236.58,1025.79 236.502,1025.21 C236.33,1024.32 236.502,1024.32 236.33,1023.43 C236.252,1022.87 236.095,1022.46 236.017,1022.31 C236.017,1022.14 235.845,1021.98 235.611,1021.82 C235.361,1021.65 235.127,1021.42 234.955,1021.34 L234.877,1021.34 L234.548,1021.25 C233.908,1021.25 233.252,1021.42 232.533,1021.82 C231.798,1022.23 231.158,1022.79 230.58,1023.43 C230.017,1024.09 229.455,1024.73 228.97,1025.39 C228.486,1026.03 228.158,1026.68 228.08,1027.25 C228.002,1027.65 227.908,1028.29 227.752,1029.18 C227.595,1030.07 227.502,1031.14 227.423,1032.18 C227.345,1033.25 227.267,1034.21 227.189,1035.18 C227.111,1036.15 227.111,1036.81 227.111,1037.21"/>
<path class="Harmony" d="M882.36,1021.17 C882.845,1020.7 883.501,1020.12 884.454,1019.37 C885.407,1018.6 886.157,1018.04 886.829,1017.56 C887.501,1017.09 888.251,1016.42 889.017,1015.67 C889.782,1014.9 890.345,1014.14 890.907,1013.48 C891.485,1012.81 891.954,1012.06 892.439,1011.2 C892.907,1010.34 893.282,1009.5 893.485,1008.54 C893.673,1007.68 893.767,1006.82 893.767,1005.98 L893.767,1005.59 C893.673,1004.64 893.485,1003.7 893.095,1002.75 C892.814,1001.79 892.439,1000.93 891.86,1000.18 C891.298,999.417 890.72,998.651 889.97,997.901 C889.204,997.136 888.439,996.37 887.689,995.808 C886.923,995.245 886.157,994.667 885.314,994.105 C883.595,992.87 881.61,991.917 879.235,991.245 C876.86,990.589 874.579,990.292 872.11,990.292 C869.642,990.292 867.267,990.589 864.892,991.151 C862.517,991.73 860.329,992.761 858.329,994.105 C856.329,995.433 854.626,997.136 853.392,999.136 C852.907,999.886 852.72,1000.93 852.72,1002.26 C852.72,1003.6 852.907,1005.12 853.11,1006.82 C853.298,1008.54 853.392,1009.68 853.392,1010.34 C853.392,1012.43 853.298,1014.9 853.11,1017.75 C852.907,1020.6 852.814,1022.98 852.626,1025.07 C852.439,1027.15 852.345,1029.62 852.345,1032.48 L852.345,1033.34 C852.345,1035.81 852.439,1038 852.72,1039.79 C852.814,1040.75 852.814,1041.79 852.814,1042.84 L852.814,1043.4 C852.814,1044.64 852.72,1046.06 852.626,1047.5 C852.345,1050.25 852.157,1052.43 852.157,1053.95 L852.157,1054.32 C852.157,1054.81 852.157,1055.76 852.064,1057.37 C851.97,1058.89 851.876,1059.84 851.876,1060.31 C851.97,1060.6 851.97,1060.98 852.064,1061.64 C852.157,1062.12 852.251,1062.59 852.345,1062.89 C852.439,1063.17 852.814,1063.35 853.485,1063.45 C855.485,1063.82 857.47,1064.01 859.564,1064.01 C861.751,1064.01 864.126,1063.82 866.595,1063.35 C871.439,1062.5 875.907,1060.89 879.985,1058.7 C884.079,1056.42 887.298,1053.76 889.673,1050.71 C891.11,1048.92 892.157,1047.1 893.001,1045.21 C893.86,1043.31 894.329,1041.31 894.626,1039.32 C894.72,1038.56 894.814,1037.79 894.814,1036.95 C894.814,1035.81 894.72,1034.67 894.532,1033.62 C894.142,1031.71 893.485,1030.01 892.532,1028.39 C891.579,1026.78 890.157,1025.35 888.439,1024.12 C886.735,1022.89 884.735,1021.84 882.36,1021.17 M866.689,1028.78 C867.735,1028.5 868.689,1028.39 869.642,1028.29 C871.439,1028.29 873.345,1028.78 875.142,1029.82 C877.907,1031.43 880.173,1033.71 881.798,1036.85 C883.126,1039.32 883.782,1041.7 883.782,1043.98 C883.782,1044.82 883.689,1045.59 883.501,1046.45 C882.845,1049.87 880.657,1052.25 876.954,1053.48 C876.095,1053.76 875.142,1053.95 874.189,1054.23 C873.251,1054.51 872.017,1054.71 870.673,1054.9 C870.11,1055 869.532,1055.09 868.97,1055.09 C868.298,1055 867.735,1055 867.157,1054.9 C866.126,1054.81 865.36,1054.32 864.892,1053.57 C864.407,1052.81 864.126,1051.67 864.032,1050.06 C863.939,1049.39 863.939,1048.73 863.939,1048.06 C864.032,1047.01 864.032,1045.78 864.126,1044.45 C864.22,1042.26 864.314,1040.93 864.314,1040.65 C864.314,1040.17 864.314,1039.42 864.22,1038.37 C864.126,1037.32 864.126,1036.46 864.126,1035.51 C864.126,1034.57 864.22,1033.62 864.314,1032.67 C864.407,1031.71 864.689,1030.76 865.079,1030.1 C865.454,1029.43 866.017,1028.96 866.689,1028.78 M864.892,999.511 C865.548,999.417 866.22,999.23 866.782,999.23 C867.36,999.23 867.923,999.23 868.595,999.417 C869.251,999.605 869.735,999.792 870.204,999.995 C870.673,1000.18 871.345,1000.37 872.11,1000.65 C873.345,1001.23 874.579,1001.89 875.72,1002.65 C876.86,1003.4 877.907,1004.07 878.845,1004.93 C879.798,1005.78 880.47,1006.73 881.032,1007.78 C881.61,1008.82 881.892,1009.87 881.985,1010.92 L881.985,1011.1 C881.985,1012.06 881.61,1013 880.939,1014.04 C880.173,1015.18 879.032,1016.23 877.517,1017.18 C877.048,1017.46 876.47,1017.85 875.72,1018.23 C874.954,1018.6 874.095,1019 873.048,1019.37 C872.017,1019.75 871.064,1020.12 870.11,1020.32 C869.157,1020.51 868.298,1020.6 867.454,1020.51 C866.595,1020.42 866.017,1020.12 865.735,1019.65 C865.454,1019.28 865.36,1018.79 865.267,1018.23 C865.173,1017.65 865.173,1017.09 865.267,1016.62 C865.36,1016.14 865.548,1015.57 865.642,1014.9 C865.735,1014.25 865.735,1013.76 865.735,1013.39 C865.735,1007.21 865.454,1002.65 864.892,999.511"/>
<path class="Harmony" d="M899.642,1037.21 C899.642,1041.34 899.548,1044.17 899.47,1045.54 C899.392,1045.64 899.314,1047.25 899.235,1050.25 C899.142,1050.98 899.064,1052.68 898.985,1055.51 C898.985,1055.67 898.829,1056.32 898.501,1057.45 C898.173,1058.59 898.095,1059.23 898.095,1059.64 L898.095,1060.21 C898.173,1061.01 898.173,1061.67 898.251,1062.23 C898.345,1062.64 898.735,1062.89 899.548,1062.89 C899.798,1062.89 900.439,1062.71 901.251,1062.31 C902.064,1061.92 902.876,1061.42 903.845,1060.85 C904.814,1060.29 905.626,1059.73 906.36,1059.23 C907.079,1058.75 907.407,1058.26 907.485,1058.03 C908.064,1056 908.298,1053.89 908.298,1051.62 L908.298,1051.21 L908.298,1049.92 C908.22,1049.68 908.22,1049.35 908.22,1048.95 C908.298,1047.82 908.376,1046.12 908.548,1043.93 C908.704,1041.57 909.189,1039.31 910.001,1037.21 C910.735,1035.18 912.267,1033.48 914.532,1032.18 L915.11,1032.18 C915.345,1032.18 915.423,1032.18 915.501,1032.1 C915.595,1032.03 915.751,1032.03 915.829,1032.03 L917.376,1032.03 C917.939,1032.03 918.345,1032.43 918.501,1033.07 L918.501,1036.64 L918.501,1039.96 C918.423,1041.18 918.267,1042.71 918.189,1044.5 C918.095,1046.28 918.017,1047.98 917.939,1049.68 C917.86,1051.39 917.689,1052.84 917.61,1054.06 L917.454,1055.92 L916.407,1056.96 L916.407,1064.18 C918.267,1064.18 920.048,1063.93 921.657,1063.53 C923.282,1063.12 924.829,1062.23 926.36,1060.93 C926.845,1057.29 927.251,1053.48 927.579,1049.51 C927.907,1045.54 928.142,1041.75 928.314,1038.1 C928.954,1037.6 929.517,1037.04 929.923,1036.31 C930.329,1035.59 930.735,1034.93 931.22,1034.29 C931.704,1033.64 932.189,1033.15 932.845,1032.67 C933.485,1032.18 934.298,1032.03 935.345,1032.03 C936.079,1032.03 936.642,1032.18 937.048,1032.67 C937.454,1033.15 937.704,1033.73 937.86,1034.37 C938.032,1035.03 938.11,1035.67 938.189,1036.4 C938.267,1037.12 938.267,1037.78 938.267,1038.34 C938.267,1042.56 938.11,1046.76 937.704,1050.9 C937.298,1055.03 937.142,1059.23 937.142,1063.45 C939.407,1063.45 941.345,1062.96 942.892,1062 C944.423,1061.01 945.876,1059.73 947.173,1058.03 C947.423,1056 947.657,1054.21 947.829,1052.59 C947.985,1050.98 948.064,1049.35 948.142,1047.73 C948.235,1046.12 948.235,1044.5 948.235,1042.96 L948.235,1037.6 L948.235,1035.75 C948.235,1034.85 948.235,1033.89 948.142,1032.92 C948.064,1031.95 948.064,1030.96 948.064,1030.07 L948.064,1028.21 C947.657,1026.43 946.689,1025.14 945.314,1024.32 C943.939,1023.51 942.392,1023.12 940.86,1023.12 C939.642,1023.12 938.517,1023.43 937.532,1023.92 C936.564,1024.42 935.845,1025.06 935.11,1025.7 C934.376,1026.35 933.564,1027 932.845,1027.48 C932.11,1027.98 931.298,1028.21 930.407,1028.21 C929.595,1028.21 929.032,1027.98 928.626,1027.32 C928.22,1026.68 927.907,1026.03 927.501,1025.21 C927.095,1024.42 926.517,1023.76 925.798,1023.12 C925.064,1022.46 923.845,1022.14 922.314,1022.14 C920.939,1022.14 919.72,1022.46 918.751,1023.12 C917.782,1023.76 916.72,1024.42 915.829,1025.21 C914.939,1026.03 914.048,1026.68 913.235,1027.32 C912.439,1027.98 911.532,1028.21 910.485,1028.21 L909.517,1028.21 C909.517,1027.98 909.439,1027.57 909.36,1027 C909.267,1026.43 909.11,1025.79 909.032,1025.21 C908.86,1024.32 909.032,1024.32 908.86,1023.43 C908.782,1022.87 908.626,1022.46 908.548,1022.31 C908.548,1022.14 908.376,1021.98 908.142,1021.82 C907.892,1021.65 907.657,1021.42 907.485,1021.34 L907.407,1021.34 L907.079,1021.25 C906.439,1021.25 905.782,1021.42 905.064,1021.82 C904.329,1022.23 903.689,1022.79 903.11,1023.43 C902.548,1024.09 901.985,1024.73 901.501,1025.39 C901.017,1026.03 900.689,1026.68 900.61,1027.25 C900.532,1027.65 900.439,1028.29 900.282,1029.18 C900.126,1030.07 900.032,1031.14 899.954,1032.18 C899.876,1033.25 899.798,1034.21 899.72,1035.18 C899.642,1036.15 899.642,1036.81 899.642,1037.21"/>
<path class="Harmony" d="M1587.72,989.448 C1584.01,989.917 1580.5,990.776 1577.08,992.011 C1573.65,993.245 1570.51,994.948 1567.48,996.948 C1564.44,998.948 1561.69,1001.23 1559.31,1003.79 C1556.94,1006.35 1554.94,1009.29 1553.23,1012.62 C1551.51,1015.95 1550.37,1019.46 1549.72,1023.17 C1549.23,1025.45 1549.04,1027.82 1549.04,1030.2 L1549.04,1030.87 C1549.04,1033.14 1549.14,1035.32 1549.42,1037.51 C1549.72,1039.89 1550.28,1042.26 1551.04,1044.45 C1551.9,1046.73 1552.84,1048.92 1553.89,1050.9 C1554.94,1052.9 1556.26,1054.71 1557.79,1056.32 C1559.31,1057.93 1561.2,1059.26 1563.11,1060.4 C1565.01,1061.54 1567.19,1062.4 1569.56,1062.89 C1571.19,1063.17 1572.79,1063.35 1574.42,1063.35 C1575.26,1063.35 1576.22,1063.35 1577.26,1063.26 C1580.2,1062.98 1582.97,1062.31 1585.53,1061.35 C1588.09,1060.4 1590.47,1059.26 1592.47,1057.93 C1594.45,1056.6 1596.45,1054.9 1598.26,1053 C1600.06,1051.1 1601.78,1049.01 1603.2,1046.92 C1604.62,1044.82 1605.95,1042.45 1607.37,1039.79 C1609.56,1035.42 1610.61,1031.71 1610.61,1028.78 C1610.61,1025.82 1609.56,1023.54 1607.37,1021.93 C1606.14,1020.89 1604.06,1020.23 1601.29,1019.75 C1599.31,1019.46 1597.31,1019.28 1595.31,1019.28 L1594.84,1019.28 L1592.75,1019.28 C1589.81,1019.37 1587.04,1019.84 1584.39,1020.7 C1581.73,1021.56 1579.92,1022.6 1578.97,1023.84 C1578.69,1024.31 1578.4,1024.68 1578.12,1025.07 C1577.45,1026.12 1577.08,1027.06 1577.08,1027.92 C1577.08,1029.15 1577.94,1030.01 1579.54,1030.48 C1580.87,1030.87 1583.44,1031.06 1587.14,1031.06 L1588,1031.06 C1589.23,1031.15 1590.19,1031.15 1590.84,1031.15 C1594.75,1031.15 1597.12,1031.62 1597.87,1032.67 C1598.17,1033.04 1598.45,1033.62 1598.45,1034.18 C1598.45,1034.76 1598.36,1035.32 1598.26,1035.9 C1598.17,1036.46 1597.87,1037.14 1597.59,1037.89 C1597.31,1038.65 1597.03,1039.23 1596.73,1039.7 C1596.45,1040.17 1596.17,1040.84 1595.79,1041.6 C1595.4,1042.35 1595.12,1042.75 1595.03,1042.93 C1594.56,1043.78 1594.26,1044.45 1593.98,1044.92 C1593.7,1045.4 1593.31,1045.87 1592.84,1046.54 C1592.37,1047.2 1591.79,1047.78 1591.33,1048.15 C1589.33,1049.67 1587.14,1050.71 1584.58,1051.2 L1581.34,1051.57 L1580.97,1051.57 C1579.73,1051.48 1578.4,1051.39 1577.17,1051.1 C1574.79,1050.62 1572.42,1049.76 1570.23,1048.43 C1568.04,1047.1 1566.15,1045.5 1564.72,1043.59 C1563.29,1041.6 1561.97,1039.23 1561.01,1036.56 C1560.06,1033.9 1559.5,1031.15 1559.31,1028.2 C1559.22,1027.15 1559.22,1026.21 1559.22,1025.17 C1559.22,1023.26 1559.31,1021.37 1559.59,1019.56 C1560.06,1016.81 1560.92,1014.14 1562.25,1011.67 C1563.58,1009.2 1565.29,1007.21 1567.39,1005.68 C1569.95,1003.7 1573.08,1002.26 1576.69,1001.32 C1578.69,1000.75 1580.69,1000.46 1582.58,1000.46 C1583.92,1000.46 1585.25,1000.65 1586.48,1000.93 C1587.53,1001.23 1588.56,1001.6 1589.81,1002.17 C1591.04,1002.75 1592.08,1003.31 1593.03,1003.89 C1593.98,1004.45 1595.03,1005.03 1596.08,1005.59 C1597.12,1006.17 1598.17,1006.64 1599.11,1006.82 C1600.06,1007.01 1601.01,1007.12 1601.97,1007.01 C1602.92,1006.92 1603.86,1006.45 1604.81,1005.59 C1605.76,1004.75 1606.62,1003.6 1607.47,1002.17 C1607.95,1001.32 1608.23,1000.46 1608.23,999.605 C1608.23,998.948 1608.04,998.37 1607.76,997.714 C1607,996.276 1605.76,995.042 1604.06,993.995 C1602.34,992.964 1600.54,992.011 1598.45,991.245 C1596.36,990.48 1594.36,990.011 1592.37,989.73 C1590.94,989.448 1589.81,989.355 1588.86,989.355 C1588.37,989.355 1588,989.355 1587.72,989.448"/>
<path class="Harmony" d="M1902.03,1009.01 C1903.27,1010.62 1904.11,1012.81 1904.78,1015.57 C1905.46,1018.32 1905.93,1020.98 1906.39,1023.75 C1906.88,1026.5 1907.16,1029.06 1907.25,1031.34 L1900.03,1030.57 L1892.24,1031.34 L1896.24,1019.46 L1902.03,1009.01 M1900.32,1042.45 L1902.22,1042.45 L1905.07,1042.45 L1905.83,1042.45 L1906.69,1042.45 C1906.78,1042.45 1907.07,1042.54 1907.44,1042.54 C1907.83,1042.54 1908.11,1042.54 1908.3,1042.64 C1908.49,1042.75 1908.68,1042.84 1908.97,1042.93 C1909.25,1043.03 1909.44,1043.12 1909.63,1043.31 C1909.82,1043.5 1910.11,1043.59 1910.3,1043.78 C1910.77,1044.26 1911.24,1045.21 1911.63,1046.45 C1912,1047.59 1912.38,1048.82 1912.68,1050.25 C1912.96,1051.67 1913.24,1053.09 1913.52,1054.71 C1913.82,1056.32 1914.19,1057.75 1914.57,1059.07 C1914.96,1060.4 1915.52,1061.64 1916.1,1062.68 C1916.66,1063.73 1917.33,1064.4 1918.18,1064.78 C1918.57,1064.96 1919.03,1065.06 1919.61,1065.06 C1920.08,1065.06 1920.64,1064.96 1921.22,1064.78 C1922.08,1064.5 1922.74,1064.12 1923.41,1063.73 C1924.07,1063.35 1924.55,1062.98 1924.93,1062.5 C1925.3,1062.03 1925.6,1061.54 1925.88,1060.98 C1926.16,1060.4 1926.35,1060.03 1926.44,1059.56 C1926.53,1059.17 1926.53,1058.79 1926.53,1058.32 L1926.53,1057.84 C1926.53,1057.18 1926.53,1056.51 1926.44,1056.04 C1926.35,1055.56 1926.16,1055 1925.97,1054.23 C1925.78,1053.48 1925.6,1052.9 1925.39,1052.43 C1925.21,1051.95 1925.11,1051.29 1924.83,1050.43 C1924.55,1049.57 1924.25,1049.01 1924.16,1048.64 C1923.5,1046.73 1922.36,1042.93 1920.74,1037.32 C1919.61,1033.25 1918.66,1029.82 1917.99,1027.15 C1916.75,1022.31 1915.71,1018.32 1914.96,1015.18 C1913.72,1009.96 1912.77,1006.45 1912.28,1004.64 C1912.19,1004.26 1912.1,1003.7 1911.91,1002.93 C1911.72,1002.17 1911.63,1001.51 1911.53,1000.93 C1911.44,1000.37 1911.14,999.792 1910.96,999.042 C1910.77,998.276 1910.58,997.511 1910.39,996.948 C1910.21,996.37 1909.82,995.714 1909.53,995.042 C1909.25,994.386 1908.86,993.901 1908.49,993.433 C1908.11,992.964 1907.83,992.573 1907.35,992.198 C1906.88,991.823 1906.39,991.433 1905.83,991.339 C1905.36,991.245 1904.88,991.151 1904.32,991.151 L1903.93,991.151 C1903.27,991.245 1902.5,991.339 1901.64,991.62 C1900.99,991.917 1900.22,992.292 1899.57,992.761 C1898.89,993.245 1898.24,993.62 1897.75,994.105 C1897.28,994.573 1896.8,995.245 1896.33,995.995 C1895.86,996.761 1895.38,997.323 1895.1,997.901 C1894.82,998.464 1894.43,999.23 1894.05,1000.18 C1893.68,1001.12 1893.28,1001.89 1893.1,1002.46 C1892.91,1003.03 1892.72,1003.79 1892.35,1004.75 C1891.96,1005.68 1891.68,1006.35 1891.58,1006.82 C1888.83,1013.76 1886.07,1020.32 1883.32,1026.68 C1878.85,1036.85 1876.19,1043.03 1875.43,1045.31 C1875.33,1045.68 1874.96,1046.35 1874.47,1047.39 C1874,1048.43 1873.44,1049.39 1872.96,1050.34 C1872.49,1051.29 1872,1052.53 1871.44,1053.76 C1870.86,1055 1870.39,1056.23 1870.11,1057.28 C1869.72,1058.32 1869.53,1059.26 1869.53,1060.12 C1869.63,1060.98 1869.83,1061.54 1870.3,1062.03 C1871.16,1062.68 1872.1,1063.07 1873.14,1063.07 L1873.82,1063.07 C1875.14,1062.89 1876.47,1062.5 1877.8,1061.75 C1879.13,1060.98 1880.08,1060.12 1880.57,1059.26 C1881.13,1058.23 1881.71,1057 1882.18,1055.46 C1882.64,1053.95 1883.13,1052.53 1883.41,1051.29 C1883.69,1050.06 1884.08,1048.73 1884.74,1047.29 C1885.41,1045.87 1886.16,1044.73 1887.02,1043.78 L1892.14,1042.17 C1892.44,1042.07 1892.82,1042.17 1893.49,1042.17 L1896.24,1042.17 C1896.52,1042.17 1897.94,1042.26 1900.32,1042.45"/>
<path class="Harmony" d="M2264.46,989.058 C2263.99,989.151 2263.23,989.245 2261.99,989.355 C2260.76,989.448 2259.81,989.636 2259.15,989.73 C2258.48,989.823 2257.53,989.917 2256.38,990.105 C2255.24,990.292 2254.4,990.589 2253.63,990.87 C2252.87,991.151 2252.03,991.526 2251.26,992.011 C2250.49,992.48 2249.84,992.964 2249.35,993.62 C2248.7,994.292 2248.21,995.042 2247.84,995.808 C2247.46,996.573 2247.18,997.511 2247.07,998.464 C2246.98,999.136 2246.98,999.792 2246.98,1000.46 L2246.98,1001.03 C2247.07,1001.7 2247.07,1002.65 2247.18,1003.79 C2247.28,1004.93 2247.28,1005.87 2247.28,1006.54 C2247.28,1017.37 2247.56,1028.01 2248.03,1038.56 C2248.12,1039.12 2248.12,1039.7 2248.12,1040.37 C2248.03,1042.35 2247.93,1045.01 2247.74,1048.15 C2247.46,1051.85 2247.28,1054.62 2247.28,1056.42 L2247.28,1057 L2247.28,1058.6 C2247.28,1059.07 2247.46,1059.56 2247.56,1060.12 C2247.65,1060.7 2247.84,1061.17 2248.12,1061.45 C2248.42,1061.75 2248.7,1062.03 2249.17,1062.31 C2249.56,1062.5 2250.03,1062.59 2250.59,1062.59 L2250.88,1062.59 C2254.2,1062.5 2257.53,1061.84 2260.85,1060.6 C2264.18,1059.37 2267.32,1057.84 2270.26,1055.85 C2273.21,1053.85 2275.96,1051.48 2278.62,1048.73 C2281.28,1045.96 2283.56,1043.12 2285.46,1040.07 C2287.35,1037.04 2288.98,1033.9 2290.21,1030.57 C2291.45,1027.25 2292.1,1023.93 2292.31,1020.79 C2292.4,1020.12 2292.4,1019.37 2292.4,1018.7 C2292.4,1016.9 2292.21,1015 2291.82,1013.1 C2291.35,1010.43 2290.59,1007.78 2289.54,1005.31 C2288.49,1002.84 2287.17,1000.56 2285.46,998.37 C2283.74,996.183 2281.85,994.386 2279.76,992.87 C2277.67,991.339 2275.38,990.198 2272.73,989.542 C2271.03,989.058 2269.21,988.87 2267.42,988.87 C2266.46,988.87 2265.51,988.964 2264.46,989.058 M2258.57,1050.43 C2258.57,1047.68 2258.67,1043.68 2258.76,1038.56 C2258.85,1034.48 2258.95,1030.57 2258.95,1027.06 C2258.95,1026.21 2258.85,1025.35 2258.85,1024.5 C2258.85,1020.32 2258.76,1016.23 2258.57,1012.43 C2258.57,1011.96 2258.48,1011.1 2258.29,1009.68 C2258.1,1008.25 2257.82,1006.92 2257.71,1005.68 C2257.62,1005.12 2257.62,1004.54 2257.62,1003.98 C2257.62,1003.31 2257.62,1002.75 2257.71,1002.07 C2257.92,1000.84 2258.29,999.886 2258.95,999.417 C2259.81,998.745 2260.76,998.464 2261.81,998.464 C2262.09,998.558 2262.37,998.558 2262.67,998.558 C2264.09,998.745 2265.6,999.23 2267.21,1000.09 C2268.84,1000.93 2270.35,1002.07 2271.78,1003.21 C2273.21,1004.35 2274.54,1005.5 2275.59,1006.64 C2276.62,1007.78 2277.48,1008.64 2277.96,1009.5 C2279.48,1011.96 2280.53,1014.71 2281.09,1017.75 C2281.37,1019.46 2281.57,1021.17 2281.57,1022.89 C2281.57,1024.12 2281.46,1025.35 2281.37,1026.59 C2280.9,1029.53 2280.04,1032.39 2278.81,1035.14 C2277.57,1037.89 2275.96,1040.37 2274.06,1042.54 C2272.07,1044.73 2269.79,1046.45 2267.12,1047.87 C2264.46,1049.29 2261.62,1050.15 2258.57,1050.43"/>
</svg>
