<?xml version="1.0" encoding="UTF-8" standalone="no"?>
<svg width="2976.38px" height="1417.32px" viewBox="0 0 2976.38 1417.32"
 xmlns="http://www.w3.org/2000/svg" xmlns:xlink="http://www.w3.org/1999/xlink" version="1.2" baseProfile="tiny">
<title>Waiting_For_Nancy_D</title>
<desc>Generated by MuseScore 3.6.2</desc>
<polyline class="StaffLines" fill="none" stroke="#000000" stroke-width="2.73" stroke-linejoin="bevel" points="138.189,187.795 2933.86,187.795"/>
<polyline class="StaffLines" fill="none" stroke="#000000" stroke-width="2.73" stroke-linejoin="bevel" points="138.189,212.598 2933.86,212.598"/>
<polyline class="StaffLines" fill="none" stroke="#000000" stroke-width="2.73" stroke-linejoin="bevel" points="138.189,237.402 2933.86,237.402"/>
<polyline class="StaffLines" fill="none" stroke="#000000" stroke-width="2.73" stroke-linejoin="bevel" points="138.189,262.205 2933.86,262.205"/>
<polyline class="StaffLines" fill="none" stroke="#000000" stroke-width="2.73" stroke-linejoin="bevel" points="138.189,287.008 2933.86,287.008"/>
<polyline class="StaffLines" fill="none" stroke="#000000" stroke-width="2.73" stroke-linejoin="bevel" points="14.1732,497.835 2933.86,497.835"/>
<polyline class="StaffLines" fill="none" stroke="#000000" stroke-width="2.73" stroke-linejoin="bevel" points="14.1732,522.638 2933.86,522.638"/>
<polyline class="StaffLines" fill="none" stroke="#000000" stroke-width="2.73" stroke-linejoin="bevel" points="14.1732,547.441 2933.86,547.441"/>
<polyline class="StaffLines" fill="none" stroke="#000000" stroke-width="2.73" stroke-linejoin="bevel" points="14.1732,572.244 2933.86,572.244"/>
<polyline class="StaffLines" fill="none" stroke="#000000" stroke-width="2.73" stroke-linejoin="bevel" points="14.1732,597.047 2933.86,597.047"/>
<polyline class="StaffLines" fill="none" stroke="#000000" stroke-width="2.73" stroke-linejoin="bevel" points="14.1732,815.417 2933.86,815.417"/>
<polyline class="StaffLines" fill="none" stroke="#000000" stroke-width="2.73" stroke-linejoin="bevel" points="14.1732,840.22 2933.86,840.22"/>
<polyline class="StaffLines" fill="none" stroke="#000000" stroke-width="2.73" stroke-linejoin="bevel" points="14.1732,865.023 2933.86,865.023"/>
<polyline class="StaffLines" fill="none" stroke="#000000" stroke-width="2.73" stroke-linejoin="bevel" points="14.1732,889.826 2933.86,889.826"/>
<polyline class="StaffLines" fill="none" stroke="#000000" stroke-width="2.73" stroke-linejoin="bevel" points="14.1732,914.629 2933.86,914.629"/>
<polyline class="StaffLines" fill="none" stroke="#000000" stroke-width="2.73" stroke-linejoin="bevel" points="14.1732,1125.46 2933.86,1125.46"/>
<polyline class="StaffLines" fill="none" stroke="#000000" stroke-width="2.73" stroke-linejoin="bevel" points="14.1732,1150.26 2933.86,1150.26"/>
<polyline class="StaffLines" fill="none" stroke="#000000" stroke-width="2.73" stroke-linejoin="bevel" points="14.1732,1175.06 2933.86,1175.06"/>
<polyline class="StaffLines" fill="none" stroke="#000000" stroke-width="2.73" stroke-linejoin="bevel" points="14.1732,1199.87 2933.86,1199.87"/>
<polyline class="StaffLines" fill="none" stroke="#000000" stroke-width="2.73" stroke-linejoin="bevel" points="14.1732,1224.67 2933.86,1224.67"/>
<polyline class="BarLine" fill="none" stroke="#000000" stroke-width="4.46" stroke-linejoin="bevel" points="953.226,186.431 953.226,288.372"/>
<polyline class="BarLine" fill="none" stroke="#000000" stroke-width="4.46" stroke-linejoin="bevel" points="1612.69,186.431 1612.69,288.372"/>
<polyline class="BarLine" fill="none" stroke="#000000" stroke-width="4.46" stroke-linejoin="bevel" points="2272.16,186.431 2272.16,288.372"/>
<polyline class="BarLine" fill="none" stroke="#000000" stroke-width="4.46" stroke-linejoin="bevel" points="2931.63,186.431 2931.63,288.372"/>
<polyline class="BarLine" fill="none" stroke="#000000" stroke-width="4.46" stroke-linejoin="bevel" points="808.481,496.47 808.481,598.411"/>
<polyline class="BarLine" fill="none" stroke="#000000" stroke-width="4.46" stroke-linejoin="bevel" points="1502.1,496.47 1502.1,598.411"/>
<polyline class="BarLine" fill="none" stroke="#000000" stroke-width="4.46" stroke-linejoin="bevel" points="2195.73,496.47 2195.73,598.411"/>
<path class="BarLine" transform="matrix(0.992126,0,0,0.992126,2887.12,535.039)" d="M10.4063,0 C10.4063,-2.90625 8.09375,-5.29688 5.20313,-5.29688 C2.29688,-5.29688 0,-2.90625 0,0 C0,2.90625 2.29688,5.29688 5.20313,5.29688 C8.09375,5.29688 10.4063,2.90625 10.4063,0"/>
<path class="BarLine" transform="matrix(0.992126,0,0,0.992126,2887.12,559.843)" d="M10.4063,0 C10.4063,-2.90625 8.09375,-5.29688 5.20313,-5.29688 C2.29688,-5.29688 0,-2.90625 0,0 C0,2.90625 2.29688,5.29688 5.20313,5.29688 C8.09375,5.29688 10.4063,2.90625 10.4063,0"/>
<polyline class="BarLine" fill="none" stroke="#000000" stroke-width="4.46" stroke-linejoin="bevel" points="2909.64,496.47 2909.64,598.411"/>
<polyline class="BarLine" fill="none" stroke="#000000" stroke-width="13.64" stroke-linejoin="bevel" points="2927,496.47 2927,598.411"/>
<polyline class="BarLine" fill="none" stroke="#000000" stroke-width="4.46" stroke-linejoin="bevel" points="819.051,814.053 819.051,915.994"/>
<polyline class="BarLine" fill="none" stroke="#000000" stroke-width="4.46" stroke-linejoin="bevel" points="1523.24,814.053 1523.24,915.994"/>
<polyline class="BarLine" fill="none" stroke="#000000" stroke-width="4.46" stroke-linejoin="bevel" points="2227.44,814.053 2227.44,915.994"/>
<polyline class="BarLine" fill="none" stroke="#000000" stroke-width="4.46" stroke-linejoin="bevel" points="2931.63,814.053 2931.63,915.994"/>
<polyline class="BarLine" fill="none" stroke="#000000" stroke-width="4.46" stroke-linejoin="bevel" points="812.511,1124.09 812.511,1226.03"/>
<polyline class="BarLine" fill="none" stroke="#000000" stroke-width="4.46" stroke-linejoin="bevel" points="1494.04,1124.09 1494.04,1226.03"/>
<polyline class="BarLine" fill="none" stroke="#000000" stroke-width="4.46" stroke-linejoin="bevel" points="2191.69,1124.09 2191.69,1226.03"/>
<path class="BarLine" transform="matrix(0.992126,0,0,0.992126,2887.12,1162.66)" d="M10.4063,0 C10.4063,-2.90625 8.09375,-5.29688 5.20313,-5.29688 C2.29688,-5.29688 0,-2.90625 0,0 C0,2.90625 2.29688,5.29688 5.20313,5.29688 C8.09375,5.29688 10.4063,2.90625 10.4063,0"/>
<path class="BarLine" transform="matrix(0.992126,0,0,0.992126,2887.12,1187.46)" d="M10.4063,0 C10.4063,-2.90625 8.09375,-5.29688 5.20313,-5.29688 C2.29688,-5.29688 0,-2.90625 0,0 C0,2.90625 2.29688,5.29688 5.20313,5.29688 C8.09375,5.29688 10.4063,2.90625 10.4063,0"/>
<polyline class="BarLine" fill="none" stroke="#000000" stroke-width="4.46" stroke-linejoin="bevel" points="2909.64,1124.09 2909.64,1226.03"/>
<polyline class="BarLine" fill="none" stroke="#000000" stroke-width="13.64" stroke-linejoin="bevel" points="2927,1124.09 2927,1226.03"/>
<path class="Note" transform="matrix(0.992126,0,0,0.992126,338.405,237.402)" d="M43,-25 L0,25 L10,25 L53,-25 L43,-25 "/>
<path class="Note" transform="matrix(0.992126,0,0,0.992126,489.01,237.402)" d="M43,-25 L0,25 L10,25 L53,-25 L43,-25 "/>
<path class="Note" transform="matrix(0.992126,0,0,0.992126,639.615,237.402)" d="M43,-25 L0,25 L10,25 L53,-25 L43,-25 "/>
<path class="Note" transform="matrix(0.992126,0,0,0.992126,790.22,237.402)" d="M43,-25 L0,25 L10,25 L53,-25 L43,-25 "/>
<path class="Note" transform="matrix(0.992126,0,0,0.992126,997.872,237.402)" d="M43,-25 L0,25 L10,25 L53,-25 L43,-25 "/>
<path class="Note" transform="matrix(0.992126,0,0,0.992126,1148.48,237.402)" d="M43,-25 L0,25 L10,25 L53,-25 L43,-25 "/>
<path class="Note" transform="matrix(0.992126,0,0,0.992126,1299.08,237.402)" d="M43,-25 L0,25 L10,25 L53,-25 L43,-25 "/>
<path class="Note" transform="matrix(0.992126,0,0,0.992126,1449.69,237.402)" d="M43,-25 L0,25 L10,25 L53,-25 L43,-25 "/>
<path class="Note" transform="matrix(0.992126,0,0,0.992126,1657.34,237.402)" d="M43,-25 L0,25 L10,25 L53,-25 L43,-25 "/>
<path class="Note" transform="matrix(0.992126,0,0,0.992126,1807.94,237.402)" d="M43,-25 L0,25 L10,25 L53,-25 L43,-25 "/>
<path class="Note" transform="matrix(0.992126,0,0,0.992126,1958.55,237.402)" d="M43,-25 L0,25 L10,25 L53,-25 L43,-25 "/>
<path class="Note" transform="matrix(0.992126,0,0,0.992126,2109.15,237.402)" d="M43,-25 L0,25 L10,25 L53,-25 L43,-25 "/>
<path class="Note" transform="matrix(0.992126,0,0,0.992126,2316.81,237.402)" d="M43,-25 L0,25 L10,25 L53,-25 L43,-25 "/>
<path class="Note" transform="matrix(0.992126,0,0,0.992126,2467.41,237.402)" d="M43,-25 L0,25 L10,25 L53,-25 L43,-25 "/>
<path class="Note" transform="matrix(0.992126,0,0,0.992126,2618.02,237.402)" d="M43,-25 L0,25 L10,25 L53,-25 L43,-25 "/>
<path class="Note" transform="matrix(0.992126,0,0,0.992126,2768.62,237.402)" d="M43,-25 L0,25 L10,25 L53,-25 L43,-25 "/>
<path class="Note" transform="matrix(0.992126,0,0,0.992126,159.504,547.441)" d="M43,-25 L0,25 L10,25 L53,-25 L43,-25 "/>
<path class="Note" transform="matrix(0.992126,0,0,0.992126,318.648,547.441)" d="M43,-25 L0,25 L10,25 L53,-25 L43,-25 "/>
<path class="Note" transform="matrix(0.992126,0,0,0.992126,477.792,547.441)" d="M43,-25 L0,25 L10,25 L53,-25 L43,-25 "/>
<path class="Note" transform="matrix(0.992126,0,0,0.992126,636.935,547.441)" d="M43,-25 L0,25 L10,25 L53,-25 L43,-25 "/>
<path class="Note" transform="matrix(0.992126,0,0,0.992126,853.126,547.441)" d="M43,-25 L0,25 L10,25 L53,-25 L43,-25 "/>
<path class="Note" transform="matrix(0.992126,0,0,0.992126,1012.27,547.441)" d="M43,-25 L0,25 L10,25 L53,-25 L43,-25 "/>
<path class="Note" transform="matrix(0.992126,0,0,0.992126,1171.41,547.441)" d="M43,-25 L0,25 L10,25 L53,-25 L43,-25 "/>
<path class="Note" transform="matrix(0.992126,0,0,0.992126,1330.56,547.441)" d="M43,-25 L0,25 L10,25 L53,-25 L43,-25 "/>
<path class="Note" transform="matrix(0.992126,0,0,0.992126,1546.75,547.441)" d="M43,-25 L0,25 L10,25 L53,-25 L43,-25 "/>
<path class="Note" transform="matrix(0.992126,0,0,0.992126,1705.89,547.441)" d="M43,-25 L0,25 L10,25 L53,-25 L43,-25 "/>
<path class="Note" transform="matrix(0.992126,0,0,0.992126,1865.04,547.441)" d="M43,-25 L0,25 L10,25 L53,-25 L43,-25 "/>
<path class="Note" transform="matrix(0.992126,0,0,0.992126,2024.18,547.441)" d="M43,-25 L0,25 L10,25 L53,-25 L43,-25 "/>
<path class="Note" transform="matrix(0.992126,0,0,0.992126,2240.37,547.441)" d="M43,-25 L0,25 L10,25 L53,-25 L43,-25 "/>
<path class="Note" transform="matrix(0.992126,0,0,0.992126,2399.51,547.441)" d="M43,-25 L0,25 L10,25 L53,-25 L43,-25 "/>
<path class="Note" transform="matrix(0.992126,0,0,0.992126,2558.66,547.441)" d="M43,-25 L0,25 L10,25 L53,-25 L43,-25 "/>
<path class="Note" transform="matrix(0.992126,0,0,0.992126,2717.8,547.441)" d="M43,-25 L0,25 L10,25 L53,-25 L43,-25 "/>
<path class="Note" transform="matrix(0.992126,0,0,0.992126,159.504,865.023)" d="M43,-25 L0,25 L10,25 L53,-25 L43,-25 "/>
<path class="Note" transform="matrix(0.992126,0,0,0.992126,321.29,865.023)" d="M43,-25 L0,25 L10,25 L53,-25 L43,-25 "/>
<path class="Note" transform="matrix(0.992126,0,0,0.992126,483.077,865.023)" d="M43,-25 L0,25 L10,25 L53,-25 L43,-25 "/>
<path class="Note" transform="matrix(0.992126,0,0,0.992126,644.863,865.023)" d="M43,-25 L0,25 L10,25 L53,-25 L43,-25 "/>
<path class="Note" transform="matrix(0.992126,0,0,0.992126,863.696,865.023)" d="M43,-25 L0,25 L10,25 L53,-25 L43,-25 "/>
<path class="Note" transform="matrix(0.992126,0,0,0.992126,1025.48,865.023)" d="M43,-25 L0,25 L10,25 L53,-25 L43,-25 "/>
<path class="Note" transform="matrix(0.992126,0,0,0.992126,1187.27,865.023)" d="M43,-25 L0,25 L10,25 L53,-25 L43,-25 "/>
<path class="Note" transform="matrix(0.992126,0,0,0.992126,1349.06,865.023)" d="M43,-25 L0,25 L10,25 L53,-25 L43,-25 "/>
<path class="Note" transform="matrix(0.992126,0,0,0.992126,1567.89,865.023)" d="M43,-25 L0,25 L10,25 L53,-25 L43,-25 "/>
<path class="Note" transform="matrix(0.992126,0,0,0.992126,1729.67,865.023)" d="M43,-25 L0,25 L10,25 L53,-25 L43,-25 "/>
<path class="Note" transform="matrix(0.992126,0,0,0.992126,1891.46,865.023)" d="M43,-25 L0,25 L10,25 L53,-25 L43,-25 "/>
<path class="Note" transform="matrix(0.992126,0,0,0.992126,2053.25,865.023)" d="M43,-25 L0,25 L10,25 L53,-25 L43,-25 "/>
<path class="Note" transform="matrix(0.992126,0,0,0.992126,2272.08,865.023)" d="M43,-25 L0,25 L10,25 L53,-25 L43,-25 "/>
<path class="Note" transform="matrix(0.992126,0,0,0.992126,2433.87,865.023)" d="M43,-25 L0,25 L10,25 L53,-25 L43,-25 "/>
<path class="Note" transform="matrix(0.992126,0,0,0.992126,2595.65,865.023)" d="M43,-25 L0,25 L10,25 L53,-25 L43,-25 "/>
<path class="Note" transform="matrix(0.992126,0,0,0.992126,2757.44,865.023)" d="M43,-25 L0,25 L10,25 L53,-25 L43,-25 "/>
<path class="Note" transform="matrix(0.992126,0,0,0.992126,159.504,1175.06)" d="M43,-25 L0,25 L10,25 L53,-25 L43,-25 "/>
<path class="Note" transform="matrix(0.992126,0,0,0.992126,319.656,1175.06)" d="M43,-25 L0,25 L10,25 L53,-25 L43,-25 "/>
<path class="Note" transform="matrix(0.992126,0,0,0.992126,479.807,1175.06)" d="M43,-25 L0,25 L10,25 L53,-25 L43,-25 "/>
<path class="Note" transform="matrix(0.992126,0,0,0.992126,639.958,1175.06)" d="M43,-25 L0,25 L10,25 L53,-25 L43,-25 "/>
<path class="Note" transform="matrix(0.992126,0,0,0.992126,841.035,1175.06)" d="M43,-25 L0,25 L10,25 L53,-25 L43,-25 "/>
<path class="Note" transform="matrix(0.992126,0,0,0.992126,1001.19,1175.06)" d="M43,-25 L0,25 L10,25 L53,-25 L43,-25 "/>
<path class="Note" transform="matrix(0.992126,0,0,0.992126,1161.34,1175.06)" d="M43,-25 L0,25 L10,25 L53,-25 L43,-25 "/>
<path class="Note" transform="matrix(0.992126,0,0,0.992126,1321.49,1175.06)" d="M43,-25 L0,25 L10,25 L53,-25 L43,-25 "/>
<path class="Note" transform="matrix(0.992126,0,0,0.992126,1538.69,1175.06)" d="M43,-25 L0,25 L10,25 L53,-25 L43,-25 "/>
<path class="Note" transform="matrix(0.992126,0,0,0.992126,1698.84,1175.06)" d="M43,-25 L0,25 L10,25 L53,-25 L43,-25 "/>
<path class="Note" transform="matrix(0.992126,0,0,0.992126,2019.14,1175.06)" d="M43,-25 L0,25 L10,25 L53,-25 L43,-25 "/>
<path class="Note" transform="matrix(0.992126,0,0,0.992126,2236.34,1175.06)" d="M43,-25 L0,25 L10,25 L53,-25 L43,-25 "/>
<path class="Note" transform="matrix(0.992126,0,0,0.992126,2396.49,1175.06)" d="M43,-25 L0,25 L10,25 L53,-25 L43,-25 "/>
<path class="Note" transform="matrix(0.992126,0,0,0.992126,2556.64,1175.06)" d="M43,-25 L0,25 L10,25 L53,-25 L43,-25 "/>
<path class="Note" transform="matrix(0.992126,0,0,0.992126,2716.79,1175.06)" d="M43,-25 L0,25 L10,25 L53,-25 L43,-25 "/>
<path class="Note" transform="matrix(0.992126,0,0,0.992126,1858.99,1175.06)" d="M43,-25 L0,25 L10,25 L53,-25 L43,-25 "/>
<path class="Clef" transform="matrix(0.992126,0,0,0.992126,158.032,262.205)" d="M63.3594,-5.92188 C62.125,-11.3438 59.4844,-15.1719 58.7031,-16.2031 C55.5156,-20.4844 51.5,-23.3281 46.8125,-24.6875 C43.7031,-25.5625 40.7031,-25.6875 38.2813,-25.5 C37.2344,-31.5156 36.2344,-37.3906 35.3281,-42.8438 C40.7813,-49.0156 44.4063,-54.8125 46.6875,-59.1094 C50.1563,-65.6875 51.2969,-70.2656 51.3594,-70.4688 C53.0781,-75.6875 53.4375,-83.3906 52.3281,-91.5938 C51.3281,-99.1406 49.2344,-105.859 46.875,-109.109 C45.8594,-110.531 44.7969,-111.266 43.7656,-111.266 C42.5469,-111.266 40.0313,-110.031 37.1406,-107.25 C34.8438,-105.063 31.5781,-101.172 29.0156,-95.1563 C26.0156,-88.0938 25.7969,-78.6094 26.1563,-71.8906 C26.5313,-64.6094 27.6406,-58.9219 27.6563,-58.875 C27.6719,-58.7813 27.9375,-57.2813 28.375,-54.7188 C28.1563,-54.4844 27.9063,-54.2656 27.6563,-54.0156 C26.625,-53.0156 25.4375,-51.8906 24.0469,-50.5 C23.1875,-49.6406 22.2344,-48.7344 21.2344,-47.7656 C12.7969,-39.625 0,-27.2969 0,-8.14063 C0,-3.4375 0.90625,0.984375 2.6875,5 C4.26563,8.59375 6.5625,11.875 9.5,14.75 C17.2344,22.3125 27.8281,25.5156 34.875,25.3594 C37.8281,25.2813 40.4688,25.0469 42.8594,24.5938 C44.6875,34.2031 45.8281,41.2344 45.8594,46.5781 C45.9063,53.0938 44.25,57.0781 40.3594,59.8438 C37.9219,61.5781 35.1094,62.5313 32.0156,62.6719 C29.4219,62.7969 27.1563,62.3281 25.7344,61.9219 L25.7188,61.9219 C25.7188,61.9219 25.4375,61.8281 25.4219,61.6406 C25.4063,61.4531 25.7656,61.4063 25.7656,61.4063 L25.7969,61.4063 C27.7188,60.9688 31.2813,59.7344 33.6406,56.4375 C35.4375,53.9063 36.3125,49.2813 34.4688,45.3438 C33.3594,42.9531 30.8594,40 25.2344,39.5469 C22.7344,39.3438 20.4688,39.8594 18.4688,41.0625 C16.6563,42.1406 15.1563,43.7813 14.1094,45.7813 C11.6563,50.4844 12.1094,56.2188 15.2344,60.0625 C18.2031,63.6875 22.8125,66 28.25,66.5781 C29.1094,66.6719 29.9531,66.7031 30.7969,66.7031 C35.2344,66.7031 39.625,65.5 43.2031,63.2969 C46.8594,60.7188 48.9844,56.7344 49.6563,51.1094 C50.2188,46.4688 49.8281,40.5469 48.4375,32.4688 C48.0781,30.375 47.5313,27.3438 46.875,23.5938 C52.625,21.6719 56.7813,18.0938 60.5469,12.2344 C63.8438,6.5 64.7813,0.390625 63.3594,-5.92188 M29.1406,20.2969 C24.5,19.0781 20.0625,16.5781 16.3125,13.0625 C15,11.8438 13.125,9.67188 11.6563,6.28125 C10.2969,3.10938 9.625,-0.328125 9.6875,-3.90625 C9.75,-8.60938 11.0625,-13.4375 13.5625,-18.2188 C16.4844,-23.7969 21.0469,-29.3281 27.1094,-34.6563 C28.5625,-35.9375 29.9375,-37.2188 31.2188,-38.5 C31.9844,-34.2344 32.8125,-29.5469 33.6875,-24.6719 C29.8438,-23.4063 25.0938,-20.25 21.9844,-14.5938 C18.4375,-8.03125 18.5781,-2.5 19.3125,0.984375 C20.25,5.4375 22.7813,9.20313 26.2344,11.2969 C27.1719,11.8594 31.2969,13.9844 33.1406,13.4063 C33.5156,13.2969 33.7813,13.0625 33.9219,12.7344 C34.4375,11.5625 33.4063,10.9219 31.8594,9.96875 C31.25,9.59375 30.5781,9.17188 29.8594,8.64063 C26.5313,6.15625 25.0781,1.70313 26.1563,-2.6875 C26.7344,-5.07813 28.0156,-7.25 29.8594,-8.95313 C31.5156,-10.5 33.5625,-11.5938 35.9375,-12.2344 C37.9844,-0.984375 40.0469,10.1719 41.6875,18.5313 C41.8125,19.2188 41.9531,19.8906 42.0781,20.5625 C37.7031,21.5 33.3594,21.4063 29.1406,20.2969 M40.4688,-12.9063 C50.8125,-13.375 55.0781,-5.9375 55.9688,-1.10938 C56.4375,1.4375 56.4375,5.875 54.8906,10.0938 C53.7188,13.2656 51.2656,17.3438 46.125,19.4063 C46.0625,18.9844 45.9844,18.5469 45.9063,18.125 C44.3594,9.34375 42.4219,-1.65625 40.4688,-12.9063 M33.1406,-83.8594 C34.9219,-89.5938 37.6563,-92.8438 39.6563,-94.5781 C41.4063,-96.0938 43.0469,-96.8125 43.9688,-96.8125 C44.1094,-96.8125 44.2344,-96.7813 44.3281,-96.75 C44.7969,-96.6094 45.3281,-96.0469 45.7969,-95.1719 C48.1094,-90.8906 47.3594,-84.1719 46.0156,-79.7344 C44.3906,-74.3281 41.4688,-68.7188 32.6719,-59.1094 C32.5,-60.2188 32.3438,-61.2656 32.1875,-62.25 C30.9375,-70.5313 31.2656,-77.8125 33.1406,-83.8594"/>
<path class="Clef" transform="matrix(0.992126,0,0,0.992126,34.0158,572.244)" d="M63.3594,-5.92188 C62.125,-11.3438 59.4844,-15.1719 58.7031,-16.2031 C55.5156,-20.4844 51.5,-23.3281 46.8125,-24.6875 C43.7031,-25.5625 40.7031,-25.6875 38.2813,-25.5 C37.2344,-31.5156 36.2344,-37.3906 35.3281,-42.8438 C40.7813,-49.0156 44.4063,-54.8125 46.6875,-59.1094 C50.1563,-65.6875 51.2969,-70.2656 51.3594,-70.4688 C53.0781,-75.6875 53.4375,-83.3906 52.3281,-91.5938 C51.3281,-99.1406 49.2344,-105.859 46.875,-109.109 C45.8594,-110.531 44.7969,-111.266 43.7656,-111.266 C42.5469,-111.266 40.0313,-110.031 37.1406,-107.25 C34.8438,-105.063 31.5781,-101.172 29.0156,-95.1563 C26.0156,-88.0938 25.7969,-78.6094 26.1563,-71.8906 C26.5313,-64.6094 27.6406,-58.9219 27.6563,-58.875 C27.6719,-58.7813 27.9375,-57.2813 28.375,-54.7188 C28.1563,-54.4844 27.9063,-54.2656 27.6563,-54.0156 C26.625,-53.0156 25.4375,-51.8906 24.0469,-50.5 C23.1875,-49.6406 22.2344,-48.7344 21.2344,-47.7656 C12.7969,-39.625 0,-27.2969 0,-8.14063 C0,-3.4375 0.90625,0.984375 2.6875,5 C4.26563,8.59375 6.5625,11.875 9.5,14.75 C17.2344,22.3125 27.8281,25.5156 34.875,25.3594 C37.8281,25.2813 40.4688,25.0469 42.8594,24.5938 C44.6875,34.2031 45.8281,41.2344 45.8594,46.5781 C45.9063,53.0938 44.25,57.0781 40.3594,59.8438 C37.9219,61.5781 35.1094,62.5313 32.0156,62.6719 C29.4219,62.7969 27.1563,62.3281 25.7344,61.9219 L25.7188,61.9219 C25.7188,61.9219 25.4375,61.8281 25.4219,61.6406 C25.4063,61.4531 25.7656,61.4063 25.7656,61.4063 L25.7969,61.4063 C27.7188,60.9688 31.2813,59.7344 33.6406,56.4375 C35.4375,53.9063 36.3125,49.2813 34.4688,45.3438 C33.3594,42.9531 30.8594,40 25.2344,39.5469 C22.7344,39.3438 20.4688,39.8594 18.4688,41.0625 C16.6563,42.1406 15.1563,43.7813 14.1094,45.7813 C11.6563,50.4844 12.1094,56.2188 15.2344,60.0625 C18.2031,63.6875 22.8125,66 28.25,66.5781 C29.1094,66.6719 29.9531,66.7031 30.7969,66.7031 C35.2344,66.7031 39.625,65.5 43.2031,63.2969 C46.8594,60.7188 48.9844,56.7344 49.6563,51.1094 C50.2188,46.4688 49.8281,40.5469 48.4375,32.4688 C48.0781,30.375 47.5313,27.3438 46.875,23.5938 C52.625,21.6719 56.7813,18.0938 60.5469,12.2344 C63.8438,6.5 64.7813,0.390625 63.3594,-5.92188 M29.1406,20.2969 C24.5,19.0781 20.0625,16.5781 16.3125,13.0625 C15,11.8438 13.125,9.67188 11.6563,6.28125 C10.2969,3.10938 9.625,-0.328125 9.6875,-3.90625 C9.75,-8.60938 11.0625,-13.4375 13.5625,-18.2188 C16.4844,-23.7969 21.0469,-29.3281 27.1094,-34.6563 C28.5625,-35.9375 29.9375,-37.2188 31.2188,-38.5 C31.9844,-34.2344 32.8125,-29.5469 33.6875,-24.6719 C29.8438,-23.4063 25.0938,-20.25 21.9844,-14.5938 C18.4375,-8.03125 18.5781,-2.5 19.3125,0.984375 C20.25,5.4375 22.7813,9.20313 26.2344,11.2969 C27.1719,11.8594 31.2969,13.9844 33.1406,13.4063 C33.5156,13.2969 33.7813,13.0625 33.9219,12.7344 C34.4375,11.5625 33.4063,10.9219 31.8594,9.96875 C31.25,9.59375 30.5781,9.17188 29.8594,8.64063 C26.5313,6.15625 25.0781,1.70313 26.1563,-2.6875 C26.7344,-5.07813 28.0156,-7.25 29.8594,-8.95313 C31.5156,-10.5 33.5625,-11.5938 35.9375,-12.2344 C37.9844,-0.984375 40.0469,10.1719 41.6875,18.5313 C41.8125,19.2188 41.9531,19.8906 42.0781,20.5625 C37.7031,21.5 33.3594,21.4063 29.1406,20.2969 M40.4688,-12.9063 C50.8125,-13.375 55.0781,-5.9375 55.9688,-1.10938 C56.4375,1.4375 56.4375,5.875 54.8906,10.0938 C53.7188,13.2656 51.2656,17.3438 46.125,19.4063 C46.0625,18.9844 45.9844,18.5469 45.9063,18.125 C44.3594,9.34375 42.4219,-1.65625 40.4688,-12.9063 M33.1406,-83.8594 C34.9219,-89.5938 37.6563,-92.8438 39.6563,-94.5781 C41.4063,-96.0938 43.0469,-96.8125 43.9688,-96.8125 C44.1094,-96.8125 44.2344,-96.7813 44.3281,-96.75 C44.7969,-96.6094 45.3281,-96.0469 45.7969,-95.1719 C48.1094,-90.8906 47.3594,-84.1719 46.0156,-79.7344 C44.3906,-74.3281 41.4688,-68.7188 32.6719,-59.1094 C32.5,-60.2188 32.3438,-61.2656 32.1875,-62.25 C30.9375,-70.5313 31.2656,-77.8125 33.1406,-83.8594"/>
<path class="Clef" transform="matrix(0.992126,0,0,0.992126,34.0158,889.826)" d="M63.3594,-5.92188 C62.125,-11.3438 59.4844,-15.1719 58.7031,-16.2031 C55.5156,-20.4844 51.5,-23.3281 46.8125,-24.6875 C43.7031,-25.5625 40.7031,-25.6875 38.2813,-25.5 C37.2344,-31.5156 36.2344,-37.3906 35.3281,-42.8438 C40.7813,-49.0156 44.4063,-54.8125 46.6875,-59.1094 C50.1563,-65.6875 51.2969,-70.2656 51.3594,-70.4688 C53.0781,-75.6875 53.4375,-83.3906 52.3281,-91.5938 C51.3281,-99.1406 49.2344,-105.859 46.875,-109.109 C45.8594,-110.531 44.7969,-111.266 43.7656,-111.266 C42.5469,-111.266 40.0313,-110.031 37.1406,-107.25 C34.8438,-105.063 31.5781,-101.172 29.0156,-95.1563 C26.0156,-88.0938 25.7969,-78.6094 26.1563,-71.8906 C26.5313,-64.6094 27.6406,-58.9219 27.6563,-58.875 C27.6719,-58.7813 27.9375,-57.2813 28.375,-54.7188 C28.1563,-54.4844 27.9063,-54.2656 27.6563,-54.0156 C26.625,-53.0156 25.4375,-51.8906 24.0469,-50.5 C23.1875,-49.6406 22.2344,-48.7344 21.2344,-47.7656 C12.7969,-39.625 0,-27.2969 0,-8.14063 C0,-3.4375 0.90625,0.984375 2.6875,5 C4.26563,8.59375 6.5625,11.875 9.5,14.75 C17.2344,22.3125 27.8281,25.5156 34.875,25.3594 C37.8281,25.2813 40.4688,25.0469 42.8594,24.5938 C44.6875,34.2031 45.8281,41.2344 45.8594,46.5781 C45.9063,53.0938 44.25,57.0781 40.3594,59.8438 C37.9219,61.5781 35.1094,62.5313 32.0156,62.6719 C29.4219,62.7969 27.1563,62.3281 25.7344,61.9219 L25.7188,61.9219 C25.7188,61.9219 25.4375,61.8281 25.4219,61.6406 C25.4063,61.4531 25.7656,61.4063 25.7656,61.4063 L25.7969,61.4063 C27.7188,60.9688 31.2813,59.7344 33.6406,56.4375 C35.4375,53.9063 36.3125,49.2813 34.4688,45.3438 C33.3594,42.9531 30.8594,40 25.2344,39.5469 C22.7344,39.3438 20.4688,39.8594 18.4688,41.0625 C16.6563,42.1406 15.1563,43.7813 14.1094,45.7813 C11.6563,50.4844 12.1094,56.2188 15.2344,60.0625 C18.2031,63.6875 22.8125,66 28.25,66.5781 C29.1094,66.6719 29.9531,66.7031 30.7969,66.7031 C35.2344,66.7031 39.625,65.5 43.2031,63.2969 C46.8594,60.7188 48.9844,56.7344 49.6563,51.1094 C50.2188,46.4688 49.8281,40.5469 48.4375,32.4688 C48.0781,30.375 47.5313,27.3438 46.875,23.5938 C52.625,21.6719 56.7813,18.0938 60.5469,12.2344 C63.8438,6.5 64.7813,0.390625 63.3594,-5.92188 M29.1406,20.2969 C24.5,19.0781 20.0625,16.5781 16.3125,13.0625 C15,11.8438 13.125,9.67188 11.6563,6.28125 C10.2969,3.10938 9.625,-0.328125 9.6875,-3.90625 C9.75,-8.60938 11.0625,-13.4375 13.5625,-18.2188 C16.4844,-23.7969 21.0469,-29.3281 27.1094,-34.6563 C28.5625,-35.9375 29.9375,-37.2188 31.2188,-38.5 C31.9844,-34.2344 32.8125,-29.5469 33.6875,-24.6719 C29.8438,-23.4063 25.0938,-20.25 21.9844,-14.5938 C18.4375,-8.03125 18.5781,-2.5 19.3125,0.984375 C20.25,5.4375 22.7813,9.20313 26.2344,11.2969 C27.1719,11.8594 31.2969,13.9844 33.1406,13.4063 C33.5156,13.2969 33.7813,13.0625 33.9219,12.7344 C34.4375,11.5625 33.4063,10.9219 31.8594,9.96875 C31.25,9.59375 30.5781,9.17188 29.8594,8.64063 C26.5313,6.15625 25.0781,1.70313 26.1563,-2.6875 C26.7344,-5.07813 28.0156,-7.25 29.8594,-8.95313 C31.5156,-10.5 33.5625,-11.5938 35.9375,-12.2344 C37.9844,-0.984375 40.0469,10.1719 41.6875,18.5313 C41.8125,19.2188 41.9531,19.8906 42.0781,20.5625 C37.7031,21.5 33.3594,21.4063 29.1406,20.2969 M40.4688,-12.9063 C50.8125,-13.375 55.0781,-5.9375 55.9688,-1.10938 C56.4375,1.4375 56.4375,5.875 54.8906,10.0938 C53.7188,13.2656 51.2656,17.3438 46.125,19.4063 C46.0625,18.9844 45.9844,18.5469 45.9063,18.125 C44.3594,9.34375 42.4219,-1.65625 40.4688,-12.9063 M33.1406,-83.8594 C34.9219,-89.5938 37.6563,-92.8438 39.6563,-94.5781 C41.4063,-96.0938 43.0469,-96.8125 43.9688,-96.8125 C44.1094,-96.8125 44.2344,-96.7813 44.3281,-96.75 C44.7969,-96.6094 45.3281,-96.0469 45.7969,-95.1719 C48.1094,-90.8906 47.3594,-84.1719 46.0156,-79.7344 C44.3906,-74.3281 41.4688,-68.7188 32.6719,-59.1094 C32.5,-60.2188 32.3438,-61.2656 32.1875,-62.25 C30.9375,-70.5313 31.2656,-77.8125 33.1406,-83.8594"/>
<path class="Clef" transform="matrix(0.992126,0,0,0.992126,34.0158,1199.87)" d="M63.3594,-5.92188 C62.125,-11.3438 59.4844,-15.1719 58.7031,-16.2031 C55.5156,-20.4844 51.5,-23.3281 46.8125,-24.6875 C43.7031,-25.5625 40.7031,-25.6875 38.2813,-25.5 C37.2344,-31.5156 36.2344,-37.3906 35.3281,-42.8438 C40.7813,-49.0156 44.4063,-54.8125 46.6875,-59.1094 C50.1563,-65.6875 51.2969,-70.2656 51.3594,-70.4688 C53.0781,-75.6875 53.4375,-83.3906 52.3281,-91.5938 C51.3281,-99.1406 49.2344,-105.859 46.875,-109.109 C45.8594,-110.531 44.7969,-111.266 43.7656,-111.266 C42.5469,-111.266 40.0313,-110.031 37.1406,-107.25 C34.8438,-105.063 31.5781,-101.172 29.0156,-95.1563 C26.0156,-88.0938 25.7969,-78.6094 26.1563,-71.8906 C26.5313,-64.6094 27.6406,-58.9219 27.6563,-58.875 C27.6719,-58.7813 27.9375,-57.2813 28.375,-54.7188 C28.1563,-54.4844 27.9063,-54.2656 27.6563,-54.0156 C26.625,-53.0156 25.4375,-51.8906 24.0469,-50.5 C23.1875,-49.6406 22.2344,-48.7344 21.2344,-47.7656 C12.7969,-39.625 0,-27.2969 0,-8.14063 C0,-3.4375 0.90625,0.984375 2.6875,5 C4.26563,8.59375 6.5625,11.875 9.5,14.75 C17.2344,22.3125 27.8281,25.5156 34.875,25.3594 C37.8281,25.2813 40.4688,25.0469 42.8594,24.5938 C44.6875,34.2031 45.8281,41.2344 45.8594,46.5781 C45.9063,53.0938 44.25,57.0781 40.3594,59.8438 C37.9219,61.5781 35.1094,62.5313 32.0156,62.6719 C29.4219,62.7969 27.1563,62.3281 25.7344,61.9219 L25.7188,61.9219 C25.7188,61.9219 25.4375,61.8281 25.4219,61.6406 C25.4063,61.4531 25.7656,61.4063 25.7656,61.4063 L25.7969,61.4063 C27.7188,60.9688 31.2813,59.7344 33.6406,56.4375 C35.4375,53.9063 36.3125,49.2813 34.4688,45.3438 C33.3594,42.9531 30.8594,40 25.2344,39.5469 C22.7344,39.3438 20.4688,39.8594 18.4688,41.0625 C16.6563,42.1406 15.1563,43.7813 14.1094,45.7813 C11.6563,50.4844 12.1094,56.2188 15.2344,60.0625 C18.2031,63.6875 22.8125,66 28.25,66.5781 C29.1094,66.6719 29.9531,66.7031 30.7969,66.7031 C35.2344,66.7031 39.625,65.5 43.2031,63.2969 C46.8594,60.7188 48.9844,56.7344 49.6563,51.1094 C50.2188,46.4688 49.8281,40.5469 48.4375,32.4688 C48.0781,30.375 47.5313,27.3438 46.875,23.5938 C52.625,21.6719 56.7813,18.0938 60.5469,12.2344 C63.8438,6.5 64.7813,0.390625 63.3594,-5.92188 M29.1406,20.2969 C24.5,19.0781 20.0625,16.5781 16.3125,13.0625 C15,11.8438 13.125,9.67188 11.6563,6.28125 C10.2969,3.10938 9.625,-0.328125 9.6875,-3.90625 C9.75,-8.60938 11.0625,-13.4375 13.5625,-18.2188 C16.4844,-23.7969 21.0469,-29.3281 27.1094,-34.6563 C28.5625,-35.9375 29.9375,-37.2188 31.2188,-38.5 C31.9844,-34.2344 32.8125,-29.5469 33.6875,-24.6719 C29.8438,-23.4063 25.0938,-20.25 21.9844,-14.5938 C18.4375,-8.03125 18.5781,-2.5 19.3125,0.984375 C20.25,5.4375 22.7813,9.20313 26.2344,11.2969 C27.1719,11.8594 31.2969,13.9844 33.1406,13.4063 C33.5156,13.2969 33.7813,13.0625 33.9219,12.7344 C34.4375,11.5625 33.4063,10.9219 31.8594,9.96875 C31.25,9.59375 30.5781,9.17188 29.8594,8.64063 C26.5313,6.15625 25.0781,1.70313 26.1563,-2.6875 C26.7344,-5.07813 28.0156,-7.25 29.8594,-8.95313 C31.5156,-10.5 33.5625,-11.5938 35.9375,-12.2344 C37.9844,-0.984375 40.0469,10.1719 41.6875,18.5313 C41.8125,19.2188 41.9531,19.8906 42.0781,20.5625 C37.7031,21.5 33.3594,21.4063 29.1406,20.2969 M40.4688,-12.9063 C50.8125,-13.375 55.0781,-5.9375 55.9688,-1.10938 C56.4375,1.4375 56.4375,5.875 54.8906,10.0938 C53.7188,13.2656 51.2656,17.3438 46.125,19.4063 C46.0625,18.9844 45.9844,18.5469 45.9063,18.125 C44.3594,9.34375 42.4219,-1.65625 40.4688,-12.9063 M33.1406,-83.8594 C34.9219,-89.5938 37.6563,-92.8438 39.6563,-94.5781 C41.4063,-96.0938 43.0469,-96.8125 43.9688,-96.8125 C44.1094,-96.8125 44.2344,-96.7813 44.3281,-96.75 C44.7969,-96.6094 45.3281,-96.0469 45.7969,-95.1719 C48.1094,-90.8906 47.3594,-84.1719 46.0156,-79.7344 C44.3906,-74.3281 41.4688,-68.7188 32.6719,-59.1094 C32.5,-60.2188 32.3438,-61.2656 32.1875,-62.25 C30.9375,-70.5313 31.2656,-77.8125 33.1406,-83.8594"/>
<path class="TimeSig" transform="matrix(0.992126,0,0,0.992126,244.951,212.73)" d="M3.59375,12.625 L20.7656,12.625 L20.7656,20.0781 L12.5469,20.0781 C11.7656,20.0781 11.125,20.7031 11.125,21.4844 L11.125,23.3906 C11.125,24.1719 11.7656,24.7969 12.5469,24.7969 L42.7969,24.7969 C43.5781,24.7969 44.2031,24.1719 44.2031,23.3906 L44.2031,21.4844 C44.2031,20.7031 43.5781,20.0781 42.7969,20.0781 L33.8594,20.0781 L33.8594,12.625 L42.7969,12.625 C43.5781,12.625 44.2031,12 44.2031,11.2188 L44.2031,9.3125 C44.2031,8.53125 43.5781,7.90625 42.7969,7.90625 L33.8594,7.90625 L33.8594,-8.0625 C33.8594,-8.59375 33.5469,-9.07813 33.0781,-9.3125 L31.8594,-9.92188 C31.3281,-10.1719 30.7031,-10.0781 30.2656,-9.6875 L21.2188,-1.375 C20.9375,-1.09375 20.7656,-0.734375 20.7656,-0.328125 L20.7656,7.90625 L9.25,7.90625 C9.25,7.90625 20.375,-4.125 32.2188,-19.8906 C33.0781,-21.0469 32.5781,-22.0938 32.3906,-22.2813 L30.2188,-24.4844 C29.9531,-24.75 29.5938,-24.9063 29.2188,-24.9063 C28.625,-24.9063 15.0625,-24.875 14.3438,-24.9063 C13.625,-24.9219 13.0938,-24.2969 13.0156,-23.6875 C13.0156,-23.6875 12.4844,-16.3281 9.875,-8.1875 C7.28125,-0.078125 4.34375,4.90625 1.6875,8.53125 C1.6875,8.53125 1.14063,9.51563 1.5,10.2656 C1.84375,11.0156 2.48438,12.0938 2.48438,12.0938 C2.48438,12.0938 2.73438,12.625 3.59375,12.625"/>
<path class="TimeSig" transform="matrix(0.992126,0,0,0.992126,244.951,262.073)" d="M3.59375,12.625 L20.7656,12.625 L20.7656,20.0781 L12.5469,20.0781 C11.7656,20.0781 11.125,20.7031 11.125,21.4844 L11.125,23.3906 C11.125,24.1719 11.7656,24.7969 12.5469,24.7969 L42.7969,24.7969 C43.5781,24.7969 44.2031,24.1719 44.2031,23.3906 L44.2031,21.4844 C44.2031,20.7031 43.5781,20.0781 42.7969,20.0781 L33.8594,20.0781 L33.8594,12.625 L42.7969,12.625 C43.5781,12.625 44.2031,12 44.2031,11.2188 L44.2031,9.3125 C44.2031,8.53125 43.5781,7.90625 42.7969,7.90625 L33.8594,7.90625 L33.8594,-8.0625 C33.8594,-8.59375 33.5469,-9.07813 33.0781,-9.3125 L31.8594,-9.92188 C31.3281,-10.1719 30.7031,-10.0781 30.2656,-9.6875 L21.2188,-1.375 C20.9375,-1.09375 20.7656,-0.734375 20.7656,-0.328125 L20.7656,7.90625 L9.25,7.90625 C9.25,7.90625 20.375,-4.125 32.2188,-19.8906 C33.0781,-21.0469 32.5781,-22.0938 32.3906,-22.2813 L30.2188,-24.4844 C29.9531,-24.75 29.5938,-24.9063 29.2188,-24.9063 C28.625,-24.9063 15.0625,-24.875 14.3438,-24.9063 C13.625,-24.9219 13.0938,-24.2969 13.0156,-23.6875 C13.0156,-23.6875 12.4844,-16.3281 9.875,-8.1875 C7.28125,-0.078125 4.34375,4.90625 1.6875,8.53125 C1.6875,8.53125 1.14063,9.51563 1.5,10.2656 C1.84375,11.0156 2.48438,12.0938 2.48438,12.0938 C2.48438,12.0938 2.73438,12.625 3.59375,12.625"/>
<path class="RehearsalMark" fill="none" stroke="#000000" stroke-width="3.97" stroke-linecap="square" stroke-linejoin="miter" stroke-miterlimit="2" fill-rule="evenodd" d="M154.216,21.0729 L262.987,21.0729 L262.987,122.845 L154.216,122.845 L154.216,21.0729 "/>
<path class="RehearsalMark" d="M205.352,35.4899 L182.883,87.9587 C178.32,98.6618 174.664,102.521 168.82,103.115 L168.82,108.459 L197.43,108.459 L197.43,103.115 C190.398,102.724 187.633,100.834 187.633,96.2868 C187.633,94.5993 188.023,93.0212 189.117,90.6462 L190.695,86.8806 L215.352,86.8806 L219.117,96.5837 C220.195,99.3493 220.305,99.8493 220.305,100.631 C220.305,102.427 218.914,103.021 214.555,103.021 L212.867,103.115 L212.867,108.459 L247.617,108.459 L247.617,103.115 C241.977,102.912 240.398,101.927 238.32,96.8806 L212.867,35.4899 L205.352,35.4899 M203.273,56.5837 L212.867,80.2399 L193.273,80.2399 L203.273,56.5837 "/>
<path class="RehearsalMark" fill="none" stroke="#000000" stroke-width="3.97" stroke-linecap="square" stroke-linejoin="miter" stroke-miterlimit="2" fill-rule="evenodd" d="M32.3294,654.622 L133.101,654.622 L133.101,755.393 L32.3294,755.393 L32.3294,654.622 "/>
<path class="RehearsalMark" d="M47.4027,669.523 L47.4027,674.882 L48.8871,674.882 C54.2308,674.882 56.1058,675.273 56.9964,676.257 C57.6996,677.351 57.6996,677.648 57.6996,683.789 L57.6996,726.757 C57.6996,732.882 57.6996,733.179 56.9964,734.179 C56.1058,735.273 54.1371,735.664 48.8871,735.664 L47.4027,735.664 L47.4027,741.007 L87.4964,741.007 C97.7933,741.007 103.043,740.211 108.184,737.945 C114.418,735.164 118.575,728.929 118.575,722.195 C118.575,715.273 114.621,709.82 107.293,706.461 C103.934,704.867 101.059,704.086 95.8089,703.382 C100.653,702.601 103.434,701.898 106.2,700.617 C112.137,697.742 115.309,692.992 115.309,687.054 C115.309,681.414 112.34,676.164 107.496,673.492 C102.043,670.414 97.2933,669.523 85.6058,669.523 L47.4027,669.523 M75.5121,701.601 L75.5121,680.617 C75.3089,676.461 76.6996,675.07 81.0589,674.882 L84.0277,674.882 C92.7464,674.882 97.3871,679.226 97.3871,687.445 C97.3871,692.304 95.7152,696.164 92.5433,698.632 C89.8714,700.82 86.4964,701.601 80.3714,701.601 L75.5121,701.601 M75.5121,707.054 L82.3402,707.054 C88.5746,707.054 91.4496,707.648 94.2308,709.429 C97.6839,711.711 99.6683,716.054 99.6683,721.211 C99.6683,725.961 97.8871,730.32 95.0121,732.695 C92.5433,734.664 89.2777,735.664 84.5277,735.664 L81.5589,735.664 C75.9027,735.461 75.3089,734.867 75.5121,729.32 L75.5121,707.054 "/>
<path class="Harmony" d="M350.527,121.866 C350.496,121.881 350.449,121.881 350.386,121.881 C350.324,121.881 350.277,121.897 350.246,121.897 C350.199,121.912 350.152,121.912 350.09,121.928 C350.027,121.928 349.996,121.944 349.949,121.959 C349.902,121.975 349.871,122.006 349.824,122.022 C349.777,122.053 349.746,122.069 349.73,122.116 C349.683,122.147 349.668,122.178 349.636,122.225 C349.621,122.256 349.605,122.319 349.605,122.366 C349.605,122.397 349.605,122.428 349.605,122.475 L349.605,122.506 C349.605,122.537 349.605,122.584 349.605,122.647 C349.621,122.709 349.621,122.756 349.621,122.787 C349.621,123.366 349.636,123.928 349.652,124.475 C349.652,124.506 349.652,124.537 349.652,124.569 C349.652,124.678 349.652,124.819 349.636,124.975 C349.621,125.178 349.621,125.319 349.621,125.412 L349.621,125.444 L349.621,125.537 C349.621,125.553 349.621,125.584 349.636,125.616 C349.636,125.647 349.636,125.662 349.652,125.678 C349.668,125.694 349.683,125.709 349.715,125.725 C349.73,125.741 349.761,125.741 349.793,125.741 L349.808,125.741 C349.98,125.741 350.152,125.709 350.324,125.631 C350.511,125.569 350.668,125.491 350.824,125.381 C350.98,125.287 351.121,125.162 351.261,125.006 C351.402,124.866 351.527,124.709 351.621,124.553 C351.73,124.397 351.808,124.225 351.871,124.053 C351.949,123.881 351.98,123.709 351.98,123.537 C351.996,123.506 351.996,123.459 351.996,123.428 C351.996,123.334 351.98,123.241 351.965,123.131 C351.933,122.991 351.902,122.85 351.84,122.725 C351.793,122.6 351.715,122.475 351.621,122.366 C351.543,122.241 351.433,122.147 351.324,122.069 C351.215,121.991 351.09,121.928 350.949,121.897 C350.871,121.866 350.777,121.866 350.668,121.866 C350.621,121.866 350.574,121.866 350.527,121.866 M350.215,125.1 C350.215,124.959 350.215,124.741 350.215,124.475 C350.23,124.256 350.23,124.053 350.23,123.866 C350.23,123.819 350.23,123.787 350.23,123.741 C350.23,123.522 350.215,123.303 350.215,123.1 C350.215,123.069 350.199,123.037 350.199,122.959 C350.183,122.881 350.168,122.803 350.168,122.741 C350.152,122.709 350.152,122.678 350.152,122.647 C350.152,122.616 350.152,122.584 350.168,122.553 C350.168,122.491 350.199,122.444 350.23,122.412 C350.277,122.381 350.324,122.366 350.386,122.366 C350.402,122.366 350.402,122.366 350.418,122.366 C350.496,122.381 350.574,122.397 350.668,122.444 C350.746,122.491 350.824,122.553 350.902,122.616 C350.98,122.678 351.043,122.741 351.105,122.787 C351.168,122.85 351.199,122.897 351.23,122.944 C351.308,123.069 351.371,123.225 351.402,123.381 C351.418,123.475 351.418,123.553 351.418,123.647 C351.418,123.709 351.418,123.787 351.418,123.85 C351.386,124.006 351.34,124.147 351.277,124.303 C351.215,124.444 351.121,124.569 351.027,124.694 C350.918,124.803 350.793,124.897 350.668,124.959 C350.527,125.037 350.371,125.084 350.215,125.1"/>
<path class="Harmony" d="M366.527,34.9952 C366.058,35.089 365.293,35.1827 364.058,35.2921 C362.824,35.3858 361.871,35.5733 361.215,35.6671 C360.543,35.7608 359.59,35.8546 358.449,36.0421 C357.308,36.2296 356.465,36.5265 355.699,36.8077 C354.933,37.089 354.09,37.464 353.324,37.9483 C352.558,38.4171 351.902,38.9015 351.418,39.5577 C350.761,40.2296 350.277,40.9796 349.902,41.7452 C349.527,42.5108 349.246,43.4483 349.136,44.4015 C349.043,45.0733 349.043,45.7296 349.043,46.4015 L349.043,46.964 C349.136,47.6358 349.136,48.589 349.246,49.7296 C349.34,50.8702 349.34,51.8077 349.34,52.4796 C349.34,63.3077 349.621,73.9483 350.09,84.4952 C350.183,85.0577 350.183,85.6358 350.183,86.3077 C350.09,88.2921 349.996,90.9483 349.808,94.089 C349.527,97.7921 349.34,100.558 349.34,102.355 L349.34,102.933 L349.34,104.542 C349.34,105.011 349.527,105.495 349.621,106.058 C349.715,106.636 349.902,107.105 350.183,107.386 C350.48,107.683 350.761,107.964 351.23,108.245 C351.621,108.433 352.09,108.526 352.652,108.526 L352.949,108.526 C356.261,108.433 359.59,107.776 362.918,106.542 C366.246,105.308 369.386,103.776 372.324,101.792 C375.277,99.7921 378.027,97.4171 380.683,94.6671 C383.34,91.9015 385.621,89.0577 387.527,86.0108 C389.418,82.9796 391.043,79.839 392.277,76.5108 C393.511,73.1827 394.168,69.8702 394.371,66.7296 C394.465,66.0577 394.465,65.3077 394.465,64.6358 C394.465,62.839 394.277,60.9327 393.886,59.0421 C393.418,56.3702 392.652,53.714 391.605,51.2452 C390.558,48.7765 389.23,46.4952 387.527,44.3077 C385.808,42.1202 383.918,40.3233 381.824,38.8077 C379.73,37.2765 377.449,36.1358 374.793,35.4796 C373.09,34.9952 371.277,34.8077 369.48,34.8077 C368.527,34.8077 367.574,34.9015 366.527,34.9952 M360.636,96.3702 C360.636,93.6202 360.73,89.6202 360.824,84.4952 C360.918,80.4171 361.011,76.5108 361.011,72.9952 C361.011,72.1515 360.918,71.2921 360.918,70.4327 C360.918,66.2608 360.824,62.1671 360.636,58.3702 C360.636,57.9015 360.543,57.0421 360.355,55.6202 C360.168,54.1827 359.886,52.8546 359.777,51.6202 C359.683,51.0577 359.683,50.4796 359.683,49.9171 C359.683,49.2452 359.683,48.6827 359.777,48.0108 C359.98,46.7765 360.355,45.8233 361.011,45.3546 C361.871,44.6827 362.824,44.4015 363.871,44.4015 C364.152,44.4952 364.433,44.4952 364.73,44.4952 C366.152,44.6827 367.668,45.1671 369.277,46.0265 C370.902,46.8702 372.418,48.0108 373.84,49.1515 C375.277,50.2921 376.605,51.4327 377.652,52.5733 C378.683,53.714 379.543,54.5733 380.027,55.4327 C381.543,57.9015 382.59,60.6515 383.152,63.6827 C383.433,65.4015 383.636,67.1046 383.636,68.8233 C383.636,70.0577 383.527,71.2921 383.433,72.5265 C382.965,75.464 382.105,78.3233 380.871,81.0733 C379.636,83.8233 378.027,86.3077 376.121,88.4796 C374.136,90.6671 371.855,92.3858 369.183,93.8077 C366.527,95.2296 363.683,96.089 360.636,96.3702"/>
<path class="Harmony" d="M1025.99,51.3968 C1025.53,51.4905 1024.76,51.5843 1023.53,51.6937 C1022.29,51.7874 1021.34,51.9749 1020.68,52.0687 C1020.01,52.1624 1019.06,52.2562 1017.92,52.4437 C1016.78,52.6312 1015.93,52.928 1015.17,53.2093 C1014.4,53.4905 1013.56,53.8655 1012.79,54.3499 C1012.03,54.8187 1011.37,55.303 1010.88,55.9593 C1010.23,56.6312 1009.74,57.3812 1009.37,58.1468 C1008.99,58.9124 1008.71,59.8499 1008.6,60.803 C1008.51,61.4749 1008.51,62.1312 1008.51,62.803 L1008.51,63.3655 C1008.6,64.0374 1008.6,64.9905 1008.71,66.1312 C1008.81,67.2718 1008.81,68.2093 1008.81,68.8812 C1008.81,79.7093 1009.09,90.3499 1009.56,100.897 C1009.65,101.459 1009.65,102.037 1009.65,102.709 C1009.56,104.694 1009.46,107.35 1009.28,110.491 C1008.99,114.194 1008.81,116.959 1008.81,118.756 L1008.81,119.334 L1008.81,120.944 C1008.81,121.412 1008.99,121.897 1009.09,122.459 C1009.18,123.037 1009.37,123.506 1009.65,123.787 C1009.95,124.084 1010.23,124.366 1010.7,124.647 C1011.09,124.834 1011.56,124.928 1012.12,124.928 L1012.42,124.928 C1015.73,124.834 1019.06,124.178 1022.38,122.944 C1025.71,121.709 1028.85,120.178 1031.79,118.194 C1034.74,116.194 1037.49,113.819 1040.15,111.069 C1042.81,108.303 1045.09,105.459 1046.99,102.412 C1048.88,99.3812 1050.51,96.2405 1051.74,92.9124 C1052.98,89.5843 1053.63,86.2718 1053.84,83.1312 C1053.93,82.4593 1053.93,81.7093 1053.93,81.0374 C1053.93,79.2405 1053.74,77.3343 1053.35,75.4437 C1052.88,72.7718 1052.12,70.1155 1051.07,67.6468 C1050.03,65.178 1048.7,62.8968 1046.99,60.7093 C1045.28,58.5218 1043.38,56.7249 1041.29,55.2093 C1039.2,53.678 1036.92,52.5374 1034.26,51.8812 C1032.56,51.3968 1030.74,51.2093 1028.95,51.2093 C1027.99,51.2093 1027.04,51.303 1025.99,51.3968 M1020.1,112.772 C1020.1,110.022 1020.2,106.022 1020.29,100.897 C1020.38,96.8187 1020.48,92.9124 1020.48,89.3968 C1020.48,88.553 1020.38,87.6937 1020.38,86.8343 C1020.38,82.6624 1020.29,78.5687 1020.1,74.7718 C1020.1,74.303 1020.01,73.4437 1019.82,72.0218 C1019.63,70.5843 1019.35,69.2562 1019.24,68.0218 C1019.15,67.4593 1019.15,66.8812 1019.15,66.3187 C1019.15,65.6468 1019.15,65.0843 1019.24,64.4124 C1019.45,63.178 1019.82,62.2249 1020.48,61.7562 C1021.34,61.0843 1022.29,60.803 1023.34,60.803 C1023.62,60.8968 1023.9,60.8968 1024.2,60.8968 C1025.62,61.0843 1027.13,61.5687 1028.74,62.428 C1030.37,63.2718 1031.88,64.4124 1033.31,65.553 C1034.74,66.6937 1036.07,67.8343 1037.12,68.9749 C1038.15,70.1155 1039.01,70.9749 1039.49,71.8343 C1041.01,74.303 1042.06,77.053 1042.62,80.0843 C1042.9,81.803 1043.1,83.5062 1043.1,85.2249 C1043.1,86.4593 1042.99,87.6937 1042.9,88.928 C1042.43,91.8655 1041.57,94.7249 1040.34,97.4749 C1039.1,100.225 1037.49,102.709 1035.59,104.881 C1033.6,107.069 1031.32,108.787 1028.65,110.209 C1025.99,111.631 1023.15,112.491 1020.1,112.772"/>
<path class="Harmony" d="M1700.38,71.3499 C1701.62,72.9593 1702.46,75.1468 1703.13,77.9124 C1703.81,80.6624 1704.27,83.3187 1704.74,86.0843 C1705.23,88.8343 1705.51,91.3968 1705.6,93.678 L1698.38,92.9124 L1690.59,93.678 L1694.59,81.803 L1700.38,71.3499 M1698.66,104.787 L1700.57,104.787 L1703.41,104.787 L1704.18,104.787 L1705.04,104.787 C1705.13,104.787 1705.41,104.881 1705.79,104.881 C1706.18,104.881 1706.46,104.881 1706.65,104.975 C1706.84,105.084 1707.02,105.178 1707.32,105.272 C1707.6,105.366 1707.79,105.459 1707.98,105.647 C1708.16,105.834 1708.46,105.928 1708.65,106.116 C1709.12,106.6 1709.59,107.553 1709.98,108.787 C1710.35,109.928 1710.73,111.162 1711.02,112.584 C1711.31,114.006 1711.59,115.428 1711.87,117.053 C1712.16,118.662 1712.54,120.084 1712.91,121.412 C1713.31,122.741 1713.87,123.975 1714.45,125.022 C1715.01,126.069 1715.68,126.741 1716.52,127.116 C1716.91,127.303 1717.38,127.397 1717.96,127.397 C1718.43,127.397 1718.99,127.303 1719.57,127.116 C1720.43,126.834 1721.09,126.459 1721.76,126.069 C1722.41,125.694 1722.9,125.319 1723.27,124.834 C1723.65,124.366 1723.95,123.881 1724.23,123.319 C1724.51,122.741 1724.7,122.366 1724.79,121.897 C1724.88,121.506 1724.88,121.131 1724.88,120.662 L1724.88,120.178 C1724.88,119.522 1724.88,118.85 1724.79,118.381 C1724.7,117.897 1724.51,117.334 1724.32,116.569 C1724.13,115.819 1723.95,115.241 1723.74,114.772 C1723.56,114.287 1723.46,113.631 1723.18,112.772 C1722.9,111.912 1722.6,111.35 1722.51,110.975 C1721.85,109.069 1720.71,105.272 1719.09,99.6624 C1717.96,95.5843 1717.01,92.1624 1716.34,89.4905 C1715.1,84.6468 1714.06,80.6624 1713.31,77.5218 C1712.07,72.303 1711.12,68.7874 1710.63,66.9749 C1710.54,66.5999 1710.45,66.0374 1710.26,65.2718 C1710.07,64.5062 1709.98,63.8499 1709.88,63.2718 C1709.79,62.7093 1709.49,62.1312 1709.31,61.3812 C1709.12,60.6155 1708.93,59.8499 1708.74,59.2874 C1708.56,58.7093 1708.16,58.053 1707.88,57.3812 C1707.6,56.7249 1707.21,56.2405 1706.84,55.7718 C1706.46,55.303 1706.18,54.9124 1705.7,54.5374 C1705.23,54.1624 1704.74,53.7718 1704.18,53.678 C1703.71,53.5843 1703.23,53.4905 1702.66,53.4905 L1702.27,53.4905 C1701.62,53.5843 1700.85,53.678 1699.99,53.9593 C1699.34,54.2562 1698.57,54.6312 1697.91,55.0999 C1697.24,55.5843 1696.59,55.9593 1696.1,56.4437 C1695.63,56.9124 1695.15,57.5843 1694.68,58.3343 C1694.21,59.0999 1693.73,59.6624 1693.45,60.2405 C1693.16,60.803 1692.77,61.5687 1692.4,62.5218 C1692.02,63.4593 1691.63,64.2249 1691.45,64.803 C1691.26,65.3655 1691.07,66.1312 1690.7,67.0843 C1690.31,68.0218 1690.02,68.6937 1689.93,69.1624 C1687.18,76.0999 1684.41,82.6624 1681.66,89.0218 C1677.2,99.1937 1674.54,105.366 1673.77,107.647 C1673.68,108.022 1673.31,108.694 1672.82,109.725 C1672.35,110.772 1671.79,111.725 1671.31,112.678 C1670.84,113.631 1670.35,114.866 1669.79,116.1 C1669.21,117.334 1668.74,118.569 1668.46,119.616 C1668.07,120.662 1667.88,121.6 1667.88,122.459 C1667.98,123.319 1668.18,123.881 1668.65,124.366 C1669.51,125.022 1670.45,125.412 1671.49,125.412 L1672.16,125.412 C1673.49,125.225 1674.82,124.834 1676.15,124.084 C1677.48,123.319 1678.43,122.459 1678.91,121.6 C1679.48,120.569 1680.06,119.334 1680.52,117.803 C1680.99,116.287 1681.48,114.866 1681.76,113.631 C1682.04,112.397 1682.43,111.069 1683.09,109.631 C1683.76,108.209 1684.51,107.069 1685.37,106.116 L1690.49,104.506 C1690.79,104.412 1691.16,104.506 1691.84,104.506 L1694.59,104.506 C1694.87,104.506 1696.29,104.6 1698.66,104.787"/>
<path class="Harmony" d="M2359.85,71.3499 C2361.08,72.9593 2361.93,75.1468 2362.6,77.9124 C2363.27,80.6624 2363.74,83.3187 2364.21,86.0843 C2364.69,88.8343 2364.98,91.3968 2365.07,93.678 L2357.85,92.9124 L2350.05,93.678 L2354.05,81.803 L2359.85,71.3499 M2358.13,104.787 L2360.04,104.787 L2362.88,104.787 L2363.65,104.787 L2364.51,104.787 C2364.6,104.787 2364.88,104.881 2365.26,104.881 C2365.65,104.881 2365.93,104.881 2366.12,104.975 C2366.3,105.084 2366.49,105.178 2366.79,105.272 C2367.07,105.366 2367.26,105.459 2367.44,105.647 C2367.63,105.834 2367.93,105.928 2368.12,106.116 C2368.58,106.6 2369.05,107.553 2369.44,108.787 C2369.82,109.928 2370.19,111.162 2370.49,112.584 C2370.77,114.006 2371.05,115.428 2371.33,117.053 C2371.63,118.662 2372.01,120.084 2372.38,121.412 C2372.77,122.741 2373.33,123.975 2373.91,125.022 C2374.48,126.069 2375.15,126.741 2375.99,127.116 C2376.38,127.303 2376.85,127.397 2377.43,127.397 C2377.9,127.397 2378.46,127.303 2379.04,127.116 C2379.9,126.834 2380.55,126.459 2381.23,126.069 C2381.88,125.694 2382.37,125.319 2382.74,124.834 C2383.12,124.366 2383.41,123.881 2383.69,123.319 C2383.98,122.741 2384.16,122.366 2384.26,121.897 C2384.35,121.506 2384.35,121.131 2384.35,120.662 L2384.35,120.178 C2384.35,119.522 2384.35,118.85 2384.26,118.381 C2384.16,117.897 2383.98,117.334 2383.79,116.569 C2383.6,115.819 2383.41,115.241 2383.21,114.772 C2383.02,114.287 2382.93,113.631 2382.65,112.772 C2382.37,111.912 2382.07,111.35 2381.98,110.975 C2381.32,109.069 2380.18,105.272 2378.55,99.6624 C2377.43,95.5843 2376.48,92.1624 2375.8,89.4905 C2374.57,84.6468 2373.52,80.6624 2372.77,77.5218 C2371.54,72.303 2370.58,68.7874 2370.1,66.9749 C2370.01,66.5999 2369.91,66.0374 2369.73,65.2718 C2369.54,64.5062 2369.44,63.8499 2369.35,63.2718 C2369.26,62.7093 2368.96,62.1312 2368.77,61.3812 C2368.58,60.6155 2368.4,59.8499 2368.21,59.2874 C2368.02,58.7093 2367.63,58.053 2367.35,57.3812 C2367.07,56.7249 2366.68,56.2405 2366.3,55.7718 C2365.93,55.303 2365.65,54.9124 2365.16,54.5374 C2364.69,54.1624 2364.21,53.7718 2363.65,53.678 C2363.18,53.5843 2362.69,53.4905 2362.13,53.4905 L2361.74,53.4905 C2361.08,53.5843 2360.32,53.678 2359.46,53.9593 C2358.8,54.2562 2358.04,54.6312 2357.38,55.0999 C2356.71,55.5843 2356.05,55.9593 2355.57,56.4437 C2355.1,56.9124 2354.62,57.5843 2354.15,58.3343 C2353.68,59.0999 2353.19,59.6624 2352.91,60.2405 C2352.63,60.803 2352.24,61.5687 2351.87,62.5218 C2351.49,63.4593 2351.1,64.2249 2350.91,64.803 C2350.73,65.3655 2350.54,66.1312 2350.16,67.0843 C2349.77,68.0218 2349.49,68.6937 2349.4,69.1624 C2346.65,76.0999 2343.88,82.6624 2341.13,89.0218 C2336.66,99.1937 2334.01,105.366 2333.24,107.647 C2333.15,108.022 2332.77,108.694 2332.29,109.725 C2331.82,110.772 2331.26,111.725 2330.77,112.678 C2330.3,113.631 2329.82,114.866 2329.26,116.1 C2328.68,117.334 2328.21,118.569 2327.93,119.616 C2327.54,120.662 2327.35,121.6 2327.35,122.459 C2327.44,123.319 2327.65,123.881 2328.12,124.366 C2328.98,125.022 2329.91,125.412 2330.96,125.412 L2331.63,125.412 C2332.96,125.225 2334.29,124.834 2335.62,124.084 C2336.94,123.319 2337.9,122.459 2338.38,121.6 C2338.94,120.569 2339.52,119.334 2339.99,117.803 C2340.46,116.287 2340.94,114.866 2341.23,113.631 C2341.51,112.397 2341.9,111.069 2342.55,109.631 C2343.23,108.209 2343.98,107.069 2344.83,106.116 L2349.96,104.506 C2350.26,104.412 2350.63,104.506 2351.3,104.506 L2354.05,104.506 C2354.33,104.506 2355.76,104.6 2358.13,104.787"/>
<path class="Harmony" d="M187.627,361.436 C187.158,361.53 186.392,361.624 185.158,361.733 C183.923,361.827 182.97,362.014 182.314,362.108 C181.642,362.202 180.689,362.296 179.548,362.483 C178.408,362.671 177.564,362.967 176.798,363.249 C176.033,363.53 175.189,363.905 174.423,364.389 C173.658,364.858 173.002,365.342 172.517,365.999 C171.861,366.671 171.377,367.421 171.002,368.186 C170.627,368.952 170.345,369.889 170.236,370.842 C170.142,371.514 170.142,372.171 170.142,372.842 L170.142,373.405 C170.236,374.077 170.236,375.03 170.345,376.171 C170.439,377.311 170.439,378.249 170.439,378.921 C170.439,389.749 170.72,400.389 171.189,410.936 C171.283,411.499 171.283,412.077 171.283,412.749 C171.189,414.733 171.095,417.389 170.908,420.53 C170.627,424.233 170.439,426.999 170.439,428.796 L170.439,429.374 L170.439,430.983 C170.439,431.452 170.627,431.936 170.72,432.499 C170.814,433.077 171.002,433.546 171.283,433.827 C171.58,434.124 171.861,434.405 172.33,434.686 C172.72,434.874 173.189,434.967 173.752,434.967 L174.048,434.967 C177.361,434.874 180.689,434.217 184.017,432.983 C187.345,431.749 190.486,430.217 193.423,428.233 C196.377,426.233 199.127,423.858 201.783,421.108 C204.439,418.342 206.72,415.499 208.627,412.452 C210.517,409.421 212.142,406.28 213.377,402.952 C214.611,399.624 215.267,396.311 215.47,393.171 C215.564,392.499 215.564,391.749 215.564,391.077 C215.564,389.28 215.377,387.374 214.986,385.483 C214.517,382.811 213.752,380.155 212.705,377.686 C211.658,375.217 210.33,372.936 208.627,370.749 C206.908,368.561 205.017,366.764 202.923,365.249 C200.83,363.717 198.548,362.577 195.892,361.921 C194.189,361.436 192.377,361.249 190.58,361.249 C189.627,361.249 188.673,361.342 187.627,361.436 M181.736,422.811 C181.736,420.061 181.83,416.061 181.923,410.936 C182.017,406.858 182.111,402.952 182.111,399.436 C182.111,398.592 182.017,397.733 182.017,396.874 C182.017,392.702 181.923,388.608 181.736,384.811 C181.736,384.342 181.642,383.483 181.455,382.061 C181.267,380.624 180.986,379.296 180.877,378.061 C180.783,377.499 180.783,376.921 180.783,376.358 C180.783,375.686 180.783,375.124 180.877,374.452 C181.08,373.217 181.455,372.264 182.111,371.796 C182.97,371.124 183.923,370.842 184.97,370.842 C185.252,370.936 185.533,370.936 185.83,370.936 C187.252,371.124 188.767,371.608 190.377,372.467 C192.002,373.311 193.517,374.452 194.939,375.592 C196.377,376.733 197.705,377.874 198.752,379.014 C199.783,380.155 200.642,381.014 201.127,381.874 C202.642,384.342 203.689,387.092 204.252,390.124 C204.533,391.842 204.736,393.546 204.736,395.264 C204.736,396.499 204.627,397.733 204.533,398.967 C204.064,401.905 203.205,404.764 201.97,407.514 C200.736,410.264 199.127,412.749 197.22,414.921 C195.236,417.108 192.955,418.827 190.283,420.249 C187.627,421.671 184.783,422.53 181.736,422.811"/>
<path class="Harmony" d="M881.249,361.436 C880.78,361.53 880.014,361.624 878.78,361.733 C877.546,361.827 876.593,362.014 875.936,362.108 C875.264,362.202 874.311,362.296 873.171,362.483 C872.03,362.671 871.186,362.967 870.421,363.249 C869.655,363.53 868.811,363.905 868.046,364.389 C867.28,364.858 866.624,365.342 866.139,365.999 C865.483,366.671 864.999,367.421 864.624,368.186 C864.249,368.952 863.968,369.889 863.858,370.842 C863.764,371.514 863.764,372.171 863.764,372.842 L863.764,373.405 C863.858,374.077 863.858,375.03 863.968,376.171 C864.061,377.311 864.061,378.249 864.061,378.921 C864.061,389.749 864.343,400.389 864.811,410.936 C864.905,411.499 864.905,412.077 864.905,412.749 C864.811,414.733 864.718,417.389 864.53,420.53 C864.249,424.233 864.061,426.999 864.061,428.796 L864.061,429.374 L864.061,430.983 C864.061,431.452 864.249,431.936 864.343,432.499 C864.436,433.077 864.624,433.546 864.905,433.827 C865.202,434.124 865.483,434.405 865.952,434.686 C866.343,434.874 866.811,434.967 867.374,434.967 L867.671,434.967 C870.983,434.874 874.311,434.217 877.639,432.983 C880.968,431.749 884.108,430.217 887.046,428.233 C889.999,426.233 892.749,423.858 895.405,421.108 C898.061,418.342 900.343,415.499 902.249,412.452 C904.139,409.421 905.764,406.28 906.999,402.952 C908.233,399.624 908.889,396.311 909.093,393.171 C909.186,392.499 909.186,391.749 909.186,391.077 C909.186,389.28 908.999,387.374 908.608,385.483 C908.139,382.811 907.374,380.155 906.327,377.686 C905.28,375.217 903.952,372.936 902.249,370.749 C900.53,368.561 898.639,366.764 896.546,365.249 C894.452,363.717 892.171,362.577 889.514,361.921 C887.811,361.436 885.999,361.249 884.202,361.249 C883.249,361.249 882.296,361.342 881.249,361.436 M875.358,422.811 C875.358,420.061 875.452,416.061 875.546,410.936 C875.639,406.858 875.733,402.952 875.733,399.436 C875.733,398.592 875.639,397.733 875.639,396.874 C875.639,392.702 875.546,388.608 875.358,384.811 C875.358,384.342 875.264,383.483 875.077,382.061 C874.889,380.624 874.608,379.296 874.499,378.061 C874.405,377.499 874.405,376.921 874.405,376.358 C874.405,375.686 874.405,375.124 874.499,374.452 C874.702,373.217 875.077,372.264 875.733,371.796 C876.593,371.124 877.546,370.842 878.593,370.842 C878.874,370.936 879.155,370.936 879.452,370.936 C880.874,371.124 882.389,371.608 883.999,372.467 C885.624,373.311 887.139,374.452 888.561,375.592 C889.999,376.733 891.327,377.874 892.374,379.014 C893.405,380.155 894.264,381.014 894.749,381.874 C896.264,384.342 897.311,387.092 897.874,390.124 C898.155,391.842 898.358,393.546 898.358,395.264 C898.358,396.499 898.249,397.733 898.155,398.967 C897.686,401.905 896.827,404.764 895.593,407.514 C894.358,410.264 892.749,412.749 890.843,414.921 C888.858,417.108 886.577,418.827 883.905,420.249 C881.249,421.671 878.405,422.53 875.358,422.811"/>
<path class="Harmony" d="M1589.79,381.389 C1591.03,382.999 1591.87,385.186 1592.54,387.952 C1593.21,390.702 1593.68,393.358 1594.15,396.124 C1594.64,398.874 1594.92,401.436 1595.01,403.717 L1587.79,402.952 L1580,403.717 L1584,391.842 L1589.79,381.389 M1588.07,414.827 L1589.98,414.827 L1592.82,414.827 L1593.59,414.827 L1594.45,414.827 C1594.54,414.827 1594.82,414.921 1595.2,414.921 C1595.59,414.921 1595.87,414.921 1596.06,415.014 C1596.25,415.124 1596.43,415.217 1596.73,415.311 C1597.01,415.405 1597.2,415.499 1597.39,415.686 C1597.57,415.874 1597.87,415.967 1598.06,416.155 C1598.53,416.639 1599,417.592 1599.39,418.827 C1599.76,419.967 1600.14,421.202 1600.43,422.624 C1600.71,424.046 1601,425.467 1601.28,427.092 C1601.57,428.702 1601.95,430.124 1602.32,431.452 C1602.71,432.78 1603.28,434.014 1603.86,435.061 C1604.42,436.108 1605.09,436.78 1605.93,437.155 C1606.32,437.342 1606.79,437.436 1607.37,437.436 C1607.84,437.436 1608.4,437.342 1608.98,437.155 C1609.84,436.874 1610.5,436.499 1611.17,436.108 C1611.82,435.733 1612.31,435.358 1612.68,434.874 C1613.06,434.405 1613.36,433.921 1613.64,433.358 C1613.92,432.78 1614.11,432.405 1614.2,431.936 C1614.29,431.546 1614.29,431.171 1614.29,430.702 L1614.29,430.217 C1614.29,429.561 1614.29,428.889 1614.2,428.421 C1614.11,427.936 1613.92,427.374 1613.73,426.608 C1613.54,425.858 1613.36,425.28 1613.15,424.811 C1612.96,424.327 1612.87,423.671 1612.59,422.811 C1612.31,421.952 1612.01,421.389 1611.92,421.014 C1611.26,419.108 1610.12,415.311 1608.5,409.702 C1607.37,405.624 1606.42,402.202 1605.75,399.53 C1604.51,394.686 1603.46,390.702 1602.71,387.561 C1601.48,382.342 1600.53,378.827 1600.04,377.014 C1599.95,376.639 1599.86,376.077 1599.67,375.311 C1599.48,374.546 1599.39,373.889 1599.29,373.311 C1599.2,372.749 1598.9,372.171 1598.71,371.421 C1598.53,370.655 1598.34,369.889 1598.15,369.327 C1597.96,368.749 1597.57,368.092 1597.29,367.421 C1597.01,366.764 1596.62,366.28 1596.25,365.811 C1595.87,365.342 1595.59,364.952 1595.11,364.577 C1594.64,364.202 1594.15,363.811 1593.59,363.717 C1593.12,363.624 1592.64,363.53 1592.07,363.53 L1591.68,363.53 C1591.03,363.624 1590.26,363.717 1589.4,363.999 C1588.75,364.296 1587.98,364.671 1587.32,365.139 C1586.65,365.624 1586,365.999 1585.51,366.483 C1585.04,366.952 1584.56,367.624 1584.09,368.374 C1583.62,369.139 1583.14,369.702 1582.86,370.28 C1582.57,370.842 1582.18,371.608 1581.81,372.561 C1581.43,373.499 1581.04,374.264 1580.86,374.842 C1580.67,375.405 1580.48,376.171 1580.11,377.124 C1579.71,378.061 1579.43,378.733 1579.34,379.202 C1576.59,386.139 1573.82,392.702 1571.07,399.061 C1566.61,409.233 1563.95,415.405 1563.18,417.686 C1563.09,418.061 1562.71,418.733 1562.23,419.764 C1561.76,420.811 1561.2,421.764 1560.71,422.717 C1560.25,423.671 1559.76,424.905 1559.2,426.139 C1558.62,427.374 1558.15,428.608 1557.87,429.655 C1557.48,430.702 1557.29,431.639 1557.29,432.499 C1557.39,433.358 1557.59,433.921 1558.06,434.405 C1558.92,435.061 1559.86,435.452 1560.9,435.452 L1561.57,435.452 C1562.9,435.264 1564.23,434.874 1565.56,434.124 C1566.89,433.358 1567.84,432.499 1568.32,431.639 C1568.89,430.608 1569.46,429.374 1569.93,427.842 C1570.4,426.327 1570.89,424.905 1571.17,423.671 C1571.45,422.436 1571.84,421.108 1572.5,419.671 C1573.17,418.249 1573.92,417.108 1574.78,416.155 L1579.9,414.546 C1580.2,414.452 1580.57,414.546 1581.25,414.546 L1584,414.546 C1584.28,414.546 1585.7,414.639 1588.07,414.827"/>
<path class="Harmony" d="M2268.49,361.436 C2268.02,361.53 2267.26,361.624 2266.02,361.733 C2264.79,361.827 2263.84,362.014 2263.18,362.108 C2262.51,362.202 2261.56,362.296 2260.42,362.483 C2259.27,362.671 2258.43,362.967 2257.67,363.249 C2256.9,363.53 2256.06,363.905 2255.29,364.389 C2254.52,364.858 2253.87,365.342 2253.38,365.999 C2252.73,366.671 2252.24,367.421 2251.87,368.186 C2251.49,368.952 2251.21,369.889 2251.1,370.842 C2251.01,371.514 2251.01,372.171 2251.01,372.842 L2251.01,373.405 C2251.1,374.077 2251.1,375.03 2251.21,376.171 C2251.31,377.311 2251.31,378.249 2251.31,378.921 C2251.31,389.749 2251.59,400.389 2252.06,410.936 C2252.15,411.499 2252.15,412.077 2252.15,412.749 C2252.06,414.733 2251.96,417.389 2251.77,420.53 C2251.49,424.233 2251.31,426.999 2251.31,428.796 L2251.31,429.374 L2251.31,430.983 C2251.31,431.452 2251.49,431.936 2251.59,432.499 C2251.68,433.077 2251.87,433.546 2252.15,433.827 C2252.45,434.124 2252.73,434.405 2253.2,434.686 C2253.59,434.874 2254.06,434.967 2254.62,434.967 L2254.92,434.967 C2258.23,434.874 2261.56,434.217 2264.88,432.983 C2268.21,431.749 2271.35,430.217 2274.29,428.233 C2277.24,426.233 2279.99,423.858 2282.65,421.108 C2285.31,418.342 2287.59,415.499 2289.49,412.452 C2291.38,409.421 2293.01,406.28 2294.24,402.952 C2295.48,399.624 2296.13,396.311 2296.34,393.171 C2296.43,392.499 2296.43,391.749 2296.43,391.077 C2296.43,389.28 2296.24,387.374 2295.85,385.483 C2295.38,382.811 2294.62,380.155 2293.57,377.686 C2292.52,375.217 2291.2,372.936 2289.49,370.749 C2287.77,368.561 2285.88,366.764 2283.79,365.249 C2281.7,363.717 2279.42,362.577 2276.76,361.921 C2275.06,361.436 2273.24,361.249 2271.45,361.249 C2270.49,361.249 2269.54,361.342 2268.49,361.436 M2262.6,422.811 C2262.6,420.061 2262.7,416.061 2262.79,410.936 C2262.88,406.858 2262.98,402.952 2262.98,399.436 C2262.98,398.592 2262.88,397.733 2262.88,396.874 C2262.88,392.702 2262.79,388.608 2262.6,384.811 C2262.6,384.342 2262.51,383.483 2262.32,382.061 C2262.13,380.624 2261.85,379.296 2261.74,378.061 C2261.65,377.499 2261.65,376.921 2261.65,376.358 C2261.65,375.686 2261.65,375.124 2261.74,374.452 C2261.95,373.217 2262.32,372.264 2262.98,371.796 C2263.84,371.124 2264.79,370.842 2265.84,370.842 C2266.12,370.936 2266.4,370.936 2266.7,370.936 C2268.12,371.124 2269.63,371.608 2271.24,372.467 C2272.87,373.311 2274.38,374.452 2275.81,375.592 C2277.24,376.733 2278.57,377.874 2279.62,379.014 C2280.65,380.155 2281.51,381.014 2281.99,381.874 C2283.51,384.342 2284.56,387.092 2285.12,390.124 C2285.4,391.842 2285.6,393.546 2285.6,395.264 C2285.6,396.499 2285.49,397.733 2285.4,398.967 C2284.93,401.905 2284.07,404.764 2282.84,407.514 C2281.6,410.264 2279.99,412.749 2278.09,414.921 C2276.1,417.108 2273.82,418.827 2271.15,420.249 C2268.49,421.671 2265.65,422.53 2262.6,422.811"/>
<path class="Harmony" d="M204.595,679.206 C201.361,679.69 198.127,680.643 195.002,682.159 C191.861,683.675 189.002,685.581 186.439,687.862 C183.877,690.143 181.502,692.706 179.314,695.643 C177.127,698.596 175.423,701.628 174.002,704.768 C172.58,707.909 171.627,711.221 171.048,714.737 C170.767,716.643 170.58,718.55 170.58,720.346 C170.58,721.862 170.673,723.393 170.861,724.815 C171.345,727.753 172.189,730.706 173.517,733.456 C174.861,736.221 176.377,738.784 178.267,741.159 C180.173,743.534 182.548,745.518 185.111,747.331 C187.673,749.128 190.236,750.471 193.002,751.409 C195.564,752.268 198.22,752.737 201.173,752.737 L201.455,752.737 L201.736,752.737 C204.877,752.643 207.908,752.081 210.861,750.94 C211.72,750.659 212.564,750.362 213.423,749.987 C214.283,749.612 215.236,749.128 216.47,748.471 C217.705,747.8 218.752,747.237 219.783,746.565 C220.83,745.909 221.783,745.143 222.736,744.284 C223.689,743.44 224.439,742.487 224.923,741.628 C225.392,740.768 225.673,739.925 225.673,738.878 C225.58,737.831 225.205,736.784 224.533,735.737 C224.252,735.268 223.783,734.971 223.298,734.784 C222.83,734.596 222.252,734.503 221.783,734.596 C221.314,734.69 220.83,734.878 220.267,735.175 C219.689,735.456 219.127,735.737 218.642,735.925 C218.173,736.112 217.705,736.409 217.127,736.784 C216.564,737.159 216.173,737.456 215.892,737.55 C212.564,739.346 209.345,740.3 206.017,740.3 C202.97,740.3 200.033,739.534 197.08,738.018 C194.33,736.596 191.767,734.971 189.486,733.081 C187.205,731.175 185.486,729.081 184.252,726.706 C183.22,724.534 182.361,722.253 181.877,719.878 C181.408,717.69 181.22,715.596 181.22,713.409 L181.22,712.659 C181.22,710.284 181.595,707.909 182.361,705.534 C183.111,703.159 184.064,700.971 185.298,699.065 C186.533,697.175 188.252,695.456 190.236,694.034 C192.236,692.612 194.517,691.659 197.08,691.19 C197.658,690.987 198.314,690.893 198.986,690.893 C199.455,690.987 199.939,690.987 200.408,691.081 C201.642,691.284 202.97,691.565 204.298,691.94 C205.627,692.221 206.97,692.706 208.298,693.362 L212.283,695.081 C213.611,695.643 214.939,696.034 216.173,696.503 C217.408,696.971 218.642,697.175 219.877,697.268 C220.267,697.362 220.642,697.362 220.923,697.362 C221.689,697.268 222.455,697.175 223.111,697.081 C224.064,696.878 224.923,696.315 225.767,695.456 C226.627,694.596 227.392,693.565 227.861,692.128 C228.048,691.471 228.142,690.893 228.142,690.331 C228.252,689.846 228.142,689.378 227.955,688.909 C227.767,688.425 227.486,688.05 227.205,687.675 C226.908,687.19 226.533,686.909 226.064,686.534 C225.58,686.143 225.205,685.768 224.83,685.487 C224.439,685.206 223.877,684.815 223.392,684.534 C217.502,680.831 212.095,679.018 207.064,679.018 C206.205,679.018 205.439,679.112 204.595,679.206"/>
<path class="Harmony" d="M908.788,679.206 C905.553,679.69 902.319,680.643 899.194,682.159 C896.053,683.675 893.194,685.581 890.631,687.862 C888.069,690.143 885.694,692.706 883.506,695.643 C881.319,698.596 879.616,701.628 878.194,704.768 C876.772,707.909 875.819,711.221 875.241,714.737 C874.959,716.643 874.772,718.55 874.772,720.346 C874.772,721.862 874.866,723.393 875.053,724.815 C875.538,727.753 876.381,730.706 877.709,733.456 C879.053,736.221 880.569,738.784 882.459,741.159 C884.366,743.534 886.741,745.518 889.303,747.331 C891.866,749.128 894.428,750.471 897.194,751.409 C899.756,752.268 902.413,752.737 905.366,752.737 L905.647,752.737 L905.928,752.737 C909.069,752.643 912.1,752.081 915.053,750.94 C915.913,750.659 916.756,750.362 917.616,749.987 C918.475,749.612 919.428,749.128 920.663,748.471 C921.897,747.8 922.944,747.237 923.975,746.565 C925.022,745.909 925.975,745.143 926.928,744.284 C927.881,743.44 928.631,742.487 929.116,741.628 C929.584,740.768 929.866,739.925 929.866,738.878 C929.772,737.831 929.397,736.784 928.725,735.737 C928.444,735.268 927.975,734.971 927.491,734.784 C927.022,734.596 926.444,734.503 925.975,734.596 C925.506,734.69 925.022,734.878 924.459,735.175 C923.881,735.456 923.319,735.737 922.834,735.925 C922.366,736.112 921.897,736.409 921.319,736.784 C920.756,737.159 920.366,737.456 920.084,737.55 C916.756,739.346 913.538,740.3 910.209,740.3 C907.163,740.3 904.225,739.534 901.272,738.018 C898.522,736.596 895.959,734.971 893.678,733.081 C891.397,731.175 889.678,729.081 888.444,726.706 C887.413,724.534 886.553,722.253 886.069,719.878 C885.6,717.69 885.413,715.596 885.413,713.409 L885.413,712.659 C885.413,710.284 885.788,707.909 886.553,705.534 C887.303,703.159 888.256,700.971 889.491,699.065 C890.725,697.175 892.444,695.456 894.428,694.034 C896.428,692.612 898.709,691.659 901.272,691.19 C901.85,690.987 902.506,690.893 903.178,690.893 C903.647,690.987 904.131,690.987 904.6,691.081 C905.834,691.284 907.163,691.565 908.491,691.94 C909.819,692.221 911.163,692.706 912.491,693.362 L916.475,695.081 C917.803,695.643 919.131,696.034 920.366,696.503 C921.6,696.971 922.834,697.175 924.069,697.268 C924.459,697.362 924.834,697.362 925.116,697.362 C925.881,697.268 926.647,697.175 927.303,697.081 C928.256,696.878 929.116,696.315 929.959,695.456 C930.819,694.596 931.584,693.565 932.053,692.128 C932.241,691.471 932.334,690.893 932.334,690.331 C932.444,689.846 932.334,689.378 932.147,688.909 C931.959,688.425 931.678,688.05 931.397,687.675 C931.1,687.19 930.725,686.909 930.256,686.534 C929.772,686.143 929.397,685.768 929.022,685.487 C928.631,685.206 928.069,684.815 927.584,684.534 C921.694,680.831 916.288,679.018 911.256,679.018 C910.397,679.018 909.631,679.112 908.788,679.206"/>
<path class="Harmony" d="M1612.98,679.206 C1609.75,679.69 1606.51,680.643 1603.39,682.159 C1600.25,683.675 1597.39,685.581 1594.82,687.862 C1592.26,690.143 1589.89,692.706 1587.7,695.643 C1585.51,698.596 1583.81,701.628 1582.39,704.768 C1580.96,707.909 1580.01,711.221 1579.43,714.737 C1579.15,716.643 1578.96,718.55 1578.96,720.346 C1578.96,721.862 1579.06,723.393 1579.25,724.815 C1579.73,727.753 1580.57,730.706 1581.9,733.456 C1583.25,736.221 1584.76,738.784 1586.65,741.159 C1588.56,743.534 1590.93,745.518 1593.5,747.331 C1596.06,749.128 1598.62,750.471 1601.39,751.409 C1603.95,752.268 1606.6,752.737 1609.56,752.737 L1609.84,752.737 L1610.12,752.737 C1613.26,752.643 1616.29,752.081 1619.25,750.94 C1620.1,750.659 1620.95,750.362 1621.81,749.987 C1622.67,749.612 1623.62,749.128 1624.85,748.471 C1626.09,747.8 1627.14,747.237 1628.17,746.565 C1629.21,745.909 1630.17,745.143 1631.12,744.284 C1632.07,743.44 1632.82,742.487 1633.31,741.628 C1633.78,740.768 1634.06,739.925 1634.06,738.878 C1633.96,737.831 1633.59,736.784 1632.92,735.737 C1632.64,735.268 1632.17,734.971 1631.68,734.784 C1631.21,734.596 1630.64,734.503 1630.17,734.596 C1629.7,734.69 1629.21,734.878 1628.65,735.175 C1628.07,735.456 1627.51,735.737 1627.03,735.925 C1626.56,736.112 1626.09,736.409 1625.51,736.784 C1624.95,737.159 1624.56,737.456 1624.28,737.55 C1620.95,739.346 1617.73,740.3 1614.4,740.3 C1611.35,740.3 1608.42,739.534 1605.46,738.018 C1602.71,736.596 1600.15,734.971 1597.87,733.081 C1595.59,731.175 1593.87,729.081 1592.64,726.706 C1591.6,724.534 1590.75,722.253 1590.26,719.878 C1589.79,717.69 1589.6,715.596 1589.6,713.409 L1589.6,712.659 C1589.6,710.284 1589.98,707.909 1590.75,705.534 C1591.5,703.159 1592.45,700.971 1593.68,699.065 C1594.92,697.175 1596.64,695.456 1598.62,694.034 C1600.62,692.612 1602.9,691.659 1605.46,691.19 C1606.04,690.987 1606.7,690.893 1607.37,690.893 C1607.84,690.987 1608.32,690.987 1608.79,691.081 C1610.03,691.284 1611.35,691.565 1612.68,691.94 C1614.01,692.221 1615.35,692.706 1616.68,693.362 L1620.67,695.081 C1622,695.643 1623.32,696.034 1624.56,696.503 C1625.79,696.971 1627.03,697.175 1628.26,697.268 C1628.65,697.362 1629.03,697.362 1629.31,697.362 C1630.07,697.268 1630.84,697.175 1631.5,697.081 C1632.45,696.878 1633.31,696.315 1634.15,695.456 C1635.01,694.596 1635.78,693.565 1636.25,692.128 C1636.43,691.471 1636.53,690.893 1636.53,690.331 C1636.64,689.846 1636.53,689.378 1636.34,688.909 C1636.15,688.425 1635.87,688.05 1635.59,687.675 C1635.29,687.19 1634.92,686.909 1634.45,686.534 C1633.96,686.143 1633.59,685.768 1633.21,685.487 C1632.82,685.206 1632.26,684.815 1631.78,684.534 C1625.89,680.831 1620.48,679.018 1615.45,679.018 C1614.59,679.018 1613.82,679.112 1612.98,679.206"/>
<path class="Harmony" d="M2317.17,679.206 C2313.94,679.69 2310.7,680.643 2307.58,682.159 C2304.44,683.675 2301.58,685.581 2299.02,687.862 C2296.45,690.143 2294.08,692.706 2291.89,695.643 C2289.7,698.596 2288,701.628 2286.58,704.768 C2285.16,707.909 2284.2,711.221 2283.63,714.737 C2283.34,716.643 2283.16,718.55 2283.16,720.346 C2283.16,721.862 2283.25,723.393 2283.44,724.815 C2283.92,727.753 2284.77,730.706 2286.09,733.456 C2287.44,736.221 2288.95,738.784 2290.84,741.159 C2292.75,743.534 2295.13,745.518 2297.69,747.331 C2300.25,749.128 2302.81,750.471 2305.58,751.409 C2308.14,752.268 2310.8,752.737 2313.75,752.737 L2314.03,752.737 L2314.31,752.737 C2317.45,752.643 2320.48,752.081 2323.44,750.94 C2324.3,750.659 2325.14,750.362 2326,749.987 C2326.86,749.612 2327.81,749.128 2329.05,748.471 C2330.28,747.8 2331.33,747.237 2332.36,746.565 C2333.41,745.909 2334.36,745.143 2335.31,744.284 C2336.27,743.44 2337.02,742.487 2337.5,741.628 C2337.97,740.768 2338.25,739.925 2338.25,738.878 C2338.16,737.831 2337.78,736.784 2337.11,735.737 C2336.83,735.268 2336.36,734.971 2335.88,734.784 C2335.41,734.596 2334.83,734.503 2334.36,734.596 C2333.89,734.69 2333.41,734.878 2332.84,735.175 C2332.27,735.456 2331.7,735.737 2331.22,735.925 C2330.75,736.112 2330.28,736.409 2329.7,736.784 C2329.14,737.159 2328.75,737.456 2328.47,737.55 C2325.14,739.346 2321.92,740.3 2318.59,740.3 C2315.55,740.3 2312.61,739.534 2309.66,738.018 C2306.91,736.596 2304.34,734.971 2302.06,733.081 C2299.78,731.175 2298.06,729.081 2296.83,726.706 C2295.8,724.534 2294.94,722.253 2294.45,719.878 C2293.98,717.69 2293.8,715.596 2293.8,713.409 L2293.8,712.659 C2293.8,710.284 2294.17,707.909 2294.94,705.534 C2295.69,703.159 2296.64,700.971 2297.88,699.065 C2299.11,697.175 2300.83,695.456 2302.81,694.034 C2304.81,692.612 2307.09,691.659 2309.66,691.19 C2310.23,690.987 2310.89,690.893 2311.56,690.893 C2312.03,690.987 2312.52,690.987 2312.98,691.081 C2314.22,691.284 2315.55,691.565 2316.88,691.94 C2318.2,692.221 2319.55,692.706 2320.88,693.362 L2324.86,695.081 C2326.19,695.643 2327.52,696.034 2328.75,696.503 C2329.98,696.971 2331.22,697.175 2332.45,697.268 C2332.84,697.362 2333.22,697.362 2333.5,697.362 C2334.27,697.268 2335.03,697.175 2335.69,697.081 C2336.64,696.878 2337.5,696.315 2338.34,695.456 C2339.2,694.596 2339.97,693.565 2340.44,692.128 C2340.63,691.471 2340.72,690.893 2340.72,690.331 C2340.83,689.846 2340.72,689.378 2340.53,688.909 C2340.34,688.425 2340.06,688.05 2339.78,687.675 C2339.48,687.19 2339.11,686.909 2338.64,686.534 C2338.16,686.143 2337.78,685.768 2337.41,685.487 C2337.02,685.206 2336.45,684.815 2335.97,684.534 C2330.08,680.831 2324.67,679.018 2319.64,679.018 C2318.78,679.018 2318.02,679.112 2317.17,679.206"/>
<path class="Harmony" d="M204.595,989.245 C201.361,989.73 198.127,990.683 195.002,992.198 C191.861,993.714 189.002,995.62 186.439,997.901 C183.877,1000.18 181.502,1002.75 179.314,1005.68 C177.127,1008.64 175.423,1011.67 174.002,1014.81 C172.58,1017.95 171.627,1021.26 171.048,1024.78 C170.767,1026.68 170.58,1028.59 170.58,1030.39 C170.58,1031.9 170.673,1033.43 170.861,1034.85 C171.345,1037.79 172.189,1040.75 173.517,1043.5 C174.861,1046.26 176.377,1048.82 178.267,1051.2 C180.173,1053.57 182.548,1055.56 185.111,1057.37 C187.673,1059.17 190.236,1060.51 193.002,1061.45 C195.564,1062.31 198.22,1062.78 201.173,1062.78 L201.455,1062.78 L201.736,1062.78 C204.877,1062.68 207.908,1062.12 210.861,1060.98 C211.72,1060.7 212.564,1060.4 213.423,1060.03 C214.283,1059.65 215.236,1059.17 216.47,1058.51 C217.705,1057.84 218.752,1057.28 219.783,1056.6 C220.83,1055.95 221.783,1055.18 222.736,1054.32 C223.689,1053.48 224.439,1052.53 224.923,1051.67 C225.392,1050.81 225.673,1049.96 225.673,1048.92 C225.58,1047.87 225.205,1046.82 224.533,1045.78 C224.252,1045.31 223.783,1045.01 223.298,1044.82 C222.83,1044.64 222.252,1044.54 221.783,1044.64 C221.314,1044.73 220.83,1044.92 220.267,1045.21 C219.689,1045.5 219.127,1045.78 218.642,1045.96 C218.173,1046.15 217.705,1046.45 217.127,1046.82 C216.564,1047.2 216.173,1047.5 215.892,1047.59 C212.564,1049.39 209.345,1050.34 206.017,1050.34 C202.97,1050.34 200.033,1049.57 197.08,1048.06 C194.33,1046.64 191.767,1045.01 189.486,1043.12 C187.205,1041.21 185.486,1039.12 184.252,1036.75 C183.22,1034.57 182.361,1032.29 181.877,1029.92 C181.408,1027.73 181.22,1025.64 181.22,1023.45 L181.22,1022.7 C181.22,1020.32 181.595,1017.95 182.361,1015.57 C183.111,1013.2 184.064,1011.01 185.298,1009.1 C186.533,1007.21 188.252,1005.5 190.236,1004.07 C192.236,1002.65 194.517,1001.7 197.08,1001.23 C197.658,1001.03 198.314,1000.93 198.986,1000.93 C199.455,1001.03 199.939,1001.03 200.408,1001.12 C201.642,1001.32 202.97,1001.6 204.298,1001.98 C205.627,1002.26 206.97,1002.75 208.298,1003.4 L212.283,1005.12 C213.611,1005.68 214.939,1006.07 216.173,1006.54 C217.408,1007.01 218.642,1007.21 219.877,1007.31 C220.267,1007.4 220.642,1007.4 220.923,1007.4 C221.689,1007.31 222.455,1007.21 223.111,1007.12 C224.064,1006.92 224.923,1006.35 225.767,1005.5 C226.627,1004.64 227.392,1003.6 227.861,1002.17 C228.048,1001.51 228.142,1000.93 228.142,1000.37 C228.252,999.886 228.142,999.417 227.955,998.948 C227.767,998.464 227.486,998.089 227.205,997.714 C226.908,997.23 226.533,996.948 226.064,996.573 C225.58,996.183 225.205,995.808 224.83,995.526 C224.439,995.245 223.877,994.855 223.392,994.573 C217.502,990.87 212.095,989.058 207.064,989.058 C206.205,989.058 205.439,989.151 204.595,989.245"/>
<path class="Harmony" d="M886.126,989.245 C882.892,989.73 879.657,990.683 876.532,992.198 C873.392,993.714 870.532,995.62 867.97,997.901 C865.407,1000.18 863.032,1002.75 860.845,1005.68 C858.657,1008.64 856.954,1011.67 855.532,1014.81 C854.11,1017.95 853.157,1021.26 852.579,1024.78 C852.298,1026.68 852.11,1028.59 852.11,1030.39 C852.11,1031.9 852.204,1033.43 852.392,1034.85 C852.876,1037.79 853.72,1040.75 855.048,1043.5 C856.392,1046.26 857.907,1048.82 859.798,1051.2 C861.704,1053.57 864.079,1055.56 866.642,1057.37 C869.204,1059.17 871.767,1060.51 874.532,1061.45 C877.095,1062.31 879.751,1062.78 882.704,1062.78 L882.985,1062.78 L883.267,1062.78 C886.407,1062.68 889.439,1062.12 892.392,1060.98 C893.251,1060.7 894.095,1060.4 894.954,1060.03 C895.814,1059.65 896.767,1059.17 898.001,1058.51 C899.235,1057.84 900.282,1057.28 901.314,1056.6 C902.36,1055.95 903.314,1055.18 904.267,1054.32 C905.22,1053.48 905.97,1052.53 906.454,1051.67 C906.923,1050.81 907.204,1049.96 907.204,1048.92 C907.11,1047.87 906.735,1046.82 906.064,1045.78 C905.782,1045.31 905.314,1045.01 904.829,1044.82 C904.36,1044.64 903.782,1044.54 903.314,1044.64 C902.845,1044.73 902.36,1044.92 901.798,1045.21 C901.22,1045.5 900.657,1045.78 900.173,1045.96 C899.704,1046.15 899.235,1046.45 898.657,1046.82 C898.095,1047.2 897.704,1047.5 897.423,1047.59 C894.095,1049.39 890.876,1050.34 887.548,1050.34 C884.501,1050.34 881.564,1049.57 878.61,1048.06 C875.86,1046.64 873.298,1045.01 871.017,1043.12 C868.735,1041.21 867.017,1039.12 865.782,1036.75 C864.751,1034.57 863.892,1032.29 863.407,1029.92 C862.939,1027.73 862.751,1025.64 862.751,1023.45 L862.751,1022.7 C862.751,1020.32 863.126,1017.95 863.892,1015.57 C864.642,1013.2 865.595,1011.01 866.829,1009.1 C868.064,1007.21 869.782,1005.5 871.767,1004.07 C873.767,1002.65 876.048,1001.7 878.61,1001.23 C879.189,1001.03 879.845,1000.93 880.517,1000.93 C880.985,1001.03 881.47,1001.03 881.939,1001.12 C883.173,1001.32 884.501,1001.6 885.829,1001.98 C887.157,1002.26 888.501,1002.75 889.829,1003.4 L893.814,1005.12 C895.142,1005.68 896.47,1006.07 897.704,1006.54 C898.939,1007.01 900.173,1007.21 901.407,1007.31 C901.798,1007.4 902.173,1007.4 902.454,1007.4 C903.22,1007.31 903.985,1007.21 904.642,1007.12 C905.595,1006.92 906.454,1006.35 907.298,1005.5 C908.157,1004.64 908.923,1003.6 909.392,1002.17 C909.579,1001.51 909.673,1000.93 909.673,1000.37 C909.782,999.886 909.673,999.417 909.485,998.948 C909.298,998.464 909.017,998.089 908.735,997.714 C908.439,997.23 908.064,996.948 907.595,996.573 C907.11,996.183 906.735,995.808 906.36,995.526 C905.97,995.245 905.407,994.855 904.923,994.573 C899.032,990.87 893.626,989.058 888.595,989.058 C887.735,989.058 886.97,989.151 886.126,989.245"/>
<path class="Harmony" d="M1581.73,1009.01 C1582.97,1010.62 1583.81,1012.81 1584.48,1015.57 C1585.15,1018.32 1585.62,1020.98 1586.09,1023.75 C1586.58,1026.5 1586.86,1029.06 1586.95,1031.34 L1579.73,1030.57 L1571.94,1031.34 L1575.94,1019.46 L1581.73,1009.01 M1580.01,1042.45 L1581.92,1042.45 L1584.76,1042.45 L1585.53,1042.45 L1586.39,1042.45 C1586.48,1042.45 1586.76,1042.54 1587.14,1042.54 C1587.53,1042.54 1587.81,1042.54 1588,1042.64 C1588.19,1042.75 1588.37,1042.84 1588.67,1042.93 C1588.95,1043.03 1589.14,1043.12 1589.33,1043.31 C1589.51,1043.5 1589.81,1043.59 1590,1043.78 C1590.47,1044.26 1590.94,1045.21 1591.33,1046.45 C1591.7,1047.59 1592.08,1048.82 1592.37,1050.25 C1592.65,1051.67 1592.94,1053.09 1593.22,1054.71 C1593.51,1056.32 1593.89,1057.75 1594.26,1059.07 C1594.65,1060.4 1595.22,1061.64 1595.79,1062.68 C1596.36,1063.73 1597.03,1064.4 1597.87,1064.78 C1598.26,1064.96 1598.73,1065.06 1599.31,1065.06 C1599.78,1065.06 1600.34,1064.96 1600.92,1064.78 C1601.78,1064.5 1602.44,1064.12 1603.11,1063.73 C1603.76,1063.35 1604.25,1062.98 1604.62,1062.5 C1605,1062.03 1605.29,1061.54 1605.58,1060.98 C1605.86,1060.4 1606.04,1060.03 1606.14,1059.56 C1606.23,1059.17 1606.23,1058.79 1606.23,1058.32 L1606.23,1057.84 C1606.23,1057.18 1606.23,1056.51 1606.14,1056.04 C1606.04,1055.56 1605.86,1055 1605.67,1054.23 C1605.48,1053.48 1605.29,1052.9 1605.09,1052.43 C1604.9,1051.95 1604.81,1051.29 1604.53,1050.43 C1604.25,1049.57 1603.95,1049.01 1603.86,1048.64 C1603.2,1046.73 1602.06,1042.93 1600.44,1037.32 C1599.31,1033.25 1598.36,1029.82 1597.69,1027.15 C1596.45,1022.31 1595.4,1018.32 1594.65,1015.18 C1593.42,1009.96 1592.47,1006.45 1591.98,1004.64 C1591.89,1004.26 1591.79,1003.7 1591.61,1002.93 C1591.42,1002.17 1591.33,1001.51 1591.23,1000.93 C1591.14,1000.37 1590.84,999.792 1590.65,999.042 C1590.47,998.276 1590.28,997.511 1590.09,996.948 C1589.9,996.37 1589.51,995.714 1589.23,995.042 C1588.95,994.386 1588.56,993.901 1588.19,993.433 C1587.81,992.964 1587.53,992.573 1587.04,992.198 C1586.58,991.823 1586.09,991.433 1585.53,991.339 C1585.06,991.245 1584.58,991.151 1584.01,991.151 L1583.62,991.151 C1582.97,991.245 1582.2,991.339 1581.34,991.62 C1580.69,991.917 1579.92,992.292 1579.26,992.761 C1578.59,993.245 1577.94,993.62 1577.45,994.105 C1576.98,994.573 1576.5,995.245 1576.03,995.995 C1575.56,996.761 1575.08,997.323 1574.79,997.901 C1574.51,998.464 1574.12,999.23 1573.75,1000.18 C1573.37,1001.12 1572.98,1001.89 1572.79,1002.46 C1572.61,1003.03 1572.42,1003.79 1572.04,1004.75 C1571.65,1005.68 1571.37,1006.35 1571.28,1006.82 C1568.53,1013.76 1565.76,1020.32 1563.01,1026.68 C1558.54,1036.85 1555.89,1043.03 1555.12,1045.31 C1555.03,1045.68 1554.65,1046.35 1554.17,1047.39 C1553.7,1048.43 1553.14,1049.39 1552.65,1050.34 C1552.19,1051.29 1551.7,1052.53 1551.14,1053.76 C1550.56,1055 1550.09,1056.23 1549.81,1057.28 C1549.42,1058.32 1549.23,1059.26 1549.23,1060.12 C1549.33,1060.98 1549.53,1061.54 1550,1062.03 C1550.86,1062.68 1551.79,1063.07 1552.84,1063.07 L1553.51,1063.07 C1554.84,1062.89 1556.17,1062.5 1557.5,1061.75 C1558.83,1060.98 1559.78,1060.12 1560.26,1059.26 C1560.83,1058.23 1561.4,1057 1561.87,1055.46 C1562.34,1053.95 1562.83,1052.53 1563.11,1051.29 C1563.39,1050.06 1563.78,1048.73 1564.44,1047.29 C1565.11,1045.87 1565.86,1044.73 1566.72,1043.78 L1571.84,1042.17 C1572.14,1042.07 1572.51,1042.17 1573.19,1042.17 L1575.94,1042.17 C1576.22,1042.17 1577.64,1042.26 1580.01,1042.45"/>
<path class="Harmony" d="M2264.46,989.058 C2263.99,989.151 2263.23,989.245 2261.99,989.355 C2260.76,989.448 2259.81,989.636 2259.15,989.73 C2258.48,989.823 2257.53,989.917 2256.38,990.105 C2255.24,990.292 2254.4,990.589 2253.63,990.87 C2252.87,991.151 2252.03,991.526 2251.26,992.011 C2250.49,992.48 2249.84,992.964 2249.35,993.62 C2248.7,994.292 2248.21,995.042 2247.84,995.808 C2247.46,996.573 2247.18,997.511 2247.07,998.464 C2246.98,999.136 2246.98,999.792 2246.98,1000.46 L2246.98,1001.03 C2247.07,1001.7 2247.07,1002.65 2247.18,1003.79 C2247.28,1004.93 2247.28,1005.87 2247.28,1006.54 C2247.28,1017.37 2247.56,1028.01 2248.03,1038.56 C2248.12,1039.12 2248.12,1039.7 2248.12,1040.37 C2248.03,1042.35 2247.93,1045.01 2247.74,1048.15 C2247.46,1051.85 2247.28,1054.62 2247.28,1056.42 L2247.28,1057 L2247.28,1058.6 C2247.28,1059.07 2247.46,1059.56 2247.56,1060.12 C2247.65,1060.7 2247.84,1061.17 2248.12,1061.45 C2248.42,1061.75 2248.7,1062.03 2249.17,1062.31 C2249.56,1062.5 2250.03,1062.59 2250.59,1062.59 L2250.88,1062.59 C2254.2,1062.5 2257.53,1061.84 2260.85,1060.6 C2264.18,1059.37 2267.32,1057.84 2270.26,1055.85 C2273.21,1053.85 2275.96,1051.48 2278.62,1048.73 C2281.28,1045.96 2283.56,1043.12 2285.46,1040.07 C2287.35,1037.04 2288.98,1033.9 2290.21,1030.57 C2291.45,1027.25 2292.1,1023.93 2292.31,1020.79 C2292.4,1020.12 2292.4,1019.37 2292.4,1018.7 C2292.4,1016.9 2292.21,1015 2291.82,1013.1 C2291.35,1010.43 2290.59,1007.78 2289.54,1005.31 C2288.49,1002.84 2287.17,1000.56 2285.46,998.37 C2283.74,996.183 2281.85,994.386 2279.76,992.87 C2277.67,991.339 2275.38,990.198 2272.73,989.542 C2271.03,989.058 2269.21,988.87 2267.42,988.87 C2266.46,988.87 2265.51,988.964 2264.46,989.058 M2258.57,1050.43 C2258.57,1047.68 2258.67,1043.68 2258.76,1038.56 C2258.85,1034.48 2258.95,1030.57 2258.95,1027.06 C2258.95,1026.21 2258.85,1025.35 2258.85,1024.5 C2258.85,1020.32 2258.76,1016.23 2258.57,1012.43 C2258.57,1011.96 2258.48,1011.1 2258.29,1009.68 C2258.1,1008.25 2257.82,1006.92 2257.71,1005.68 C2257.62,1005.12 2257.62,1004.54 2257.62,1003.98 C2257.62,1003.31 2257.62,1002.75 2257.71,1002.07 C2257.92,1000.84 2258.29,999.886 2258.95,999.417 C2259.81,998.745 2260.76,998.464 2261.81,998.464 C2262.09,998.558 2262.37,998.558 2262.67,998.558 C2264.09,998.745 2265.6,999.23 2267.21,1000.09 C2268.84,1000.93 2270.35,1002.07 2271.78,1003.21 C2273.21,1004.35 2274.54,1005.5 2275.59,1006.64 C2276.62,1007.78 2277.48,1008.64 2277.96,1009.5 C2279.48,1011.96 2280.53,1014.71 2281.09,1017.75 C2281.37,1019.46 2281.57,1021.17 2281.57,1022.89 C2281.57,1024.12 2281.46,1025.35 2281.37,1026.59 C2280.9,1029.53 2280.04,1032.39 2278.81,1035.14 C2277.57,1037.89 2275.96,1040.37 2274.06,1042.54 C2272.07,1044.73 2269.79,1046.45 2267.12,1047.87 C2264.46,1049.29 2261.62,1050.15 2258.57,1050.43"/>
</svg>
