<?xml version="1.0" encoding="UTF-8" standalone="no"?>
<svg width="2976.38px" height="1417.32px" viewBox="0 0 2976.38 1417.32"
 xmlns="http://www.w3.org/2000/svg" xmlns:xlink="http://www.w3.org/1999/xlink" version="1.2" baseProfile="tiny">
<title>WestForkGals_D</title>
<desc>Generated by MuseScore 3.6.2</desc>
<polyline class="StaffLines" fill="none" stroke="#000000" stroke-width="2.73" stroke-linejoin="bevel" points="138.189,187.795 2933.86,187.795"/>
<polyline class="StaffLines" fill="none" stroke="#000000" stroke-width="2.73" stroke-linejoin="bevel" points="138.189,212.598 2933.86,212.598"/>
<polyline class="StaffLines" fill="none" stroke="#000000" stroke-width="2.73" stroke-linejoin="bevel" points="138.189,237.402 2933.86,237.402"/>
<polyline class="StaffLines" fill="none" stroke="#000000" stroke-width="2.73" stroke-linejoin="bevel" points="138.189,262.205 2933.86,262.205"/>
<polyline class="StaffLines" fill="none" stroke="#000000" stroke-width="2.73" stroke-linejoin="bevel" points="138.189,287.008 2933.86,287.008"/>
<polyline class="StaffLines" fill="none" stroke="#000000" stroke-width="2.73" stroke-linejoin="bevel" points="14.1732,497.835 2933.86,497.835"/>
<polyline class="StaffLines" fill="none" stroke="#000000" stroke-width="2.73" stroke-linejoin="bevel" points="14.1732,522.638 2933.86,522.638"/>
<polyline class="StaffLines" fill="none" stroke="#000000" stroke-width="2.73" stroke-linejoin="bevel" points="14.1732,547.441 2933.86,547.441"/>
<polyline class="StaffLines" fill="none" stroke="#000000" stroke-width="2.73" stroke-linejoin="bevel" points="14.1732,572.244 2933.86,572.244"/>
<polyline class="StaffLines" fill="none" stroke="#000000" stroke-width="2.73" stroke-linejoin="bevel" points="14.1732,597.047 2933.86,597.047"/>
<polyline class="StaffLines" fill="none" stroke="#000000" stroke-width="2.73" stroke-linejoin="bevel" points="14.1732,815.417 2933.86,815.417"/>
<polyline class="StaffLines" fill="none" stroke="#000000" stroke-width="2.73" stroke-linejoin="bevel" points="14.1732,840.22 2933.86,840.22"/>
<polyline class="StaffLines" fill="none" stroke="#000000" stroke-width="2.73" stroke-linejoin="bevel" points="14.1732,865.023 2933.86,865.023"/>
<polyline class="StaffLines" fill="none" stroke="#000000" stroke-width="2.73" stroke-linejoin="bevel" points="14.1732,889.826 2933.86,889.826"/>
<polyline class="StaffLines" fill="none" stroke="#000000" stroke-width="2.73" stroke-linejoin="bevel" points="14.1732,914.629 2933.86,914.629"/>
<polyline class="StaffLines" fill="none" stroke="#000000" stroke-width="2.73" stroke-linejoin="bevel" points="14.1732,1125.46 2933.86,1125.46"/>
<polyline class="StaffLines" fill="none" stroke="#000000" stroke-width="2.73" stroke-linejoin="bevel" points="14.1732,1150.26 2933.86,1150.26"/>
<polyline class="StaffLines" fill="none" stroke="#000000" stroke-width="2.73" stroke-linejoin="bevel" points="14.1732,1175.06 2933.86,1175.06"/>
<polyline class="StaffLines" fill="none" stroke="#000000" stroke-width="2.73" stroke-linejoin="bevel" points="14.1732,1199.87 2933.86,1199.87"/>
<polyline class="StaffLines" fill="none" stroke="#000000" stroke-width="2.73" stroke-linejoin="bevel" points="14.1732,1224.67 2933.86,1224.67"/>
<polyline class="BarLine" fill="none" stroke="#000000" stroke-width="4.46" stroke-linejoin="bevel" points="953.226,186.431 953.226,288.372"/>
<polyline class="BarLine" fill="none" stroke="#000000" stroke-width="4.46" stroke-linejoin="bevel" points="1612.69,186.431 1612.69,288.372"/>
<polyline class="BarLine" fill="none" stroke="#000000" stroke-width="4.46" stroke-linejoin="bevel" points="2272.16,186.431 2272.16,288.372"/>
<polyline class="BarLine" fill="none" stroke="#000000" stroke-width="4.46" stroke-linejoin="bevel" points="2931.63,186.431 2931.63,288.372"/>
<polyline class="BarLine" fill="none" stroke="#000000" stroke-width="4.46" stroke-linejoin="bevel" points="808.481,496.47 808.481,598.411"/>
<polyline class="BarLine" fill="none" stroke="#000000" stroke-width="4.46" stroke-linejoin="bevel" points="1502.1,496.47 1502.1,598.411"/>
<polyline class="BarLine" fill="none" stroke="#000000" stroke-width="4.46" stroke-linejoin="bevel" points="2195.73,496.47 2195.73,598.411"/>
<path class="BarLine" transform="matrix(0.992126,0,0,0.992126,2887.12,535.039)" d="M10.4063,0 C10.4063,-2.90625 8.09375,-5.29688 5.20313,-5.29688 C2.29688,-5.29688 0,-2.90625 0,0 C0,2.90625 2.29688,5.29688 5.20313,5.29688 C8.09375,5.29688 10.4063,2.90625 10.4063,0"/>
<path class="BarLine" transform="matrix(0.992126,0,0,0.992126,2887.12,559.843)" d="M10.4063,0 C10.4063,-2.90625 8.09375,-5.29688 5.20313,-5.29688 C2.29688,-5.29688 0,-2.90625 0,0 C0,2.90625 2.29688,5.29688 5.20313,5.29688 C8.09375,5.29688 10.4063,2.90625 10.4063,0"/>
<polyline class="BarLine" fill="none" stroke="#000000" stroke-width="4.46" stroke-linejoin="bevel" points="2909.64,496.47 2909.64,598.411"/>
<polyline class="BarLine" fill="none" stroke="#000000" stroke-width="13.64" stroke-linejoin="bevel" points="2927,496.47 2927,598.411"/>
<polyline class="BarLine" fill="none" stroke="#000000" stroke-width="4.46" stroke-linejoin="bevel" points="819.051,814.053 819.051,915.994"/>
<polyline class="BarLine" fill="none" stroke="#000000" stroke-width="4.46" stroke-linejoin="bevel" points="1523.24,814.053 1523.24,915.994"/>
<polyline class="BarLine" fill="none" stroke="#000000" stroke-width="4.46" stroke-linejoin="bevel" points="2227.44,814.053 2227.44,915.994"/>
<polyline class="BarLine" fill="none" stroke="#000000" stroke-width="4.46" stroke-linejoin="bevel" points="2931.63,814.053 2931.63,915.994"/>
<polyline class="BarLine" fill="none" stroke="#000000" stroke-width="4.46" stroke-linejoin="bevel" points="812.511,1124.09 812.511,1226.03"/>
<polyline class="BarLine" fill="none" stroke="#000000" stroke-width="4.46" stroke-linejoin="bevel" points="1494.04,1124.09 1494.04,1226.03"/>
<polyline class="BarLine" fill="none" stroke="#000000" stroke-width="4.46" stroke-linejoin="bevel" points="2191.69,1124.09 2191.69,1226.03"/>
<path class="BarLine" transform="matrix(0.992126,0,0,0.992126,2887.12,1162.66)" d="M10.4063,0 C10.4063,-2.90625 8.09375,-5.29688 5.20313,-5.29688 C2.29688,-5.29688 0,-2.90625 0,0 C0,2.90625 2.29688,5.29688 5.20313,5.29688 C8.09375,5.29688 10.4063,2.90625 10.4063,0"/>
<path class="BarLine" transform="matrix(0.992126,0,0,0.992126,2887.12,1187.46)" d="M10.4063,0 C10.4063,-2.90625 8.09375,-5.29688 5.20313,-5.29688 C2.29688,-5.29688 0,-2.90625 0,0 C0,2.90625 2.29688,5.29688 5.20313,5.29688 C8.09375,5.29688 10.4063,2.90625 10.4063,0"/>
<polyline class="BarLine" fill="none" stroke="#000000" stroke-width="4.46" stroke-linejoin="bevel" points="2909.64,1124.09 2909.64,1226.03"/>
<polyline class="BarLine" fill="none" stroke="#000000" stroke-width="13.64" stroke-linejoin="bevel" points="2927,1124.09 2927,1226.03"/>
<path class="Note" transform="matrix(0.992126,0,0,0.992126,338.405,237.402)" d="M43,-25 L0,25 L10,25 L53,-25 L43,-25 "/>
<path class="Note" transform="matrix(0.992126,0,0,0.992126,489.01,237.402)" d="M43,-25 L0,25 L10,25 L53,-25 L43,-25 "/>
<path class="Note" transform="matrix(0.992126,0,0,0.992126,639.615,237.402)" d="M43,-25 L0,25 L10,25 L53,-25 L43,-25 "/>
<path class="Note" transform="matrix(0.992126,0,0,0.992126,790.22,237.402)" d="M43,-25 L0,25 L10,25 L53,-25 L43,-25 "/>
<path class="Note" transform="matrix(0.992126,0,0,0.992126,997.872,237.402)" d="M43,-25 L0,25 L10,25 L53,-25 L43,-25 "/>
<path class="Note" transform="matrix(0.992126,0,0,0.992126,1148.48,237.402)" d="M43,-25 L0,25 L10,25 L53,-25 L43,-25 "/>
<path class="Note" transform="matrix(0.992126,0,0,0.992126,1299.08,237.402)" d="M43,-25 L0,25 L10,25 L53,-25 L43,-25 "/>
<path class="Note" transform="matrix(0.992126,0,0,0.992126,1449.69,237.402)" d="M43,-25 L0,25 L10,25 L53,-25 L43,-25 "/>
<path class="Note" transform="matrix(0.992126,0,0,0.992126,1657.34,237.402)" d="M43,-25 L0,25 L10,25 L53,-25 L43,-25 "/>
<path class="Note" transform="matrix(0.992126,0,0,0.992126,1807.94,237.402)" d="M43,-25 L0,25 L10,25 L53,-25 L43,-25 "/>
<path class="Note" transform="matrix(0.992126,0,0,0.992126,1958.55,237.402)" d="M43,-25 L0,25 L10,25 L53,-25 L43,-25 "/>
<path class="Note" transform="matrix(0.992126,0,0,0.992126,2109.15,237.402)" d="M43,-25 L0,25 L10,25 L53,-25 L43,-25 "/>
<path class="Note" transform="matrix(0.992126,0,0,0.992126,2316.81,237.402)" d="M43,-25 L0,25 L10,25 L53,-25 L43,-25 "/>
<path class="Note" transform="matrix(0.992126,0,0,0.992126,2467.41,237.402)" d="M43,-25 L0,25 L10,25 L53,-25 L43,-25 "/>
<path class="Note" transform="matrix(0.992126,0,0,0.992126,2618.02,237.402)" d="M43,-25 L0,25 L10,25 L53,-25 L43,-25 "/>
<path class="Note" transform="matrix(0.992126,0,0,0.992126,2768.62,237.402)" d="M43,-25 L0,25 L10,25 L53,-25 L43,-25 "/>
<path class="Note" transform="matrix(0.992126,0,0,0.992126,159.504,547.441)" d="M43,-25 L0,25 L10,25 L53,-25 L43,-25 "/>
<path class="Note" transform="matrix(0.992126,0,0,0.992126,318.648,547.441)" d="M43,-25 L0,25 L10,25 L53,-25 L43,-25 "/>
<path class="Note" transform="matrix(0.992126,0,0,0.992126,477.792,547.441)" d="M43,-25 L0,25 L10,25 L53,-25 L43,-25 "/>
<path class="Note" transform="matrix(0.992126,0,0,0.992126,636.935,547.441)" d="M43,-25 L0,25 L10,25 L53,-25 L43,-25 "/>
<path class="Note" transform="matrix(0.992126,0,0,0.992126,853.126,547.441)" d="M43,-25 L0,25 L10,25 L53,-25 L43,-25 "/>
<path class="Note" transform="matrix(0.992126,0,0,0.992126,1012.27,547.441)" d="M43,-25 L0,25 L10,25 L53,-25 L43,-25 "/>
<path class="Note" transform="matrix(0.992126,0,0,0.992126,1171.41,547.441)" d="M43,-25 L0,25 L10,25 L53,-25 L43,-25 "/>
<path class="Note" transform="matrix(0.992126,0,0,0.992126,1330.56,547.441)" d="M43,-25 L0,25 L10,25 L53,-25 L43,-25 "/>
<path class="Note" transform="matrix(0.992126,0,0,0.992126,1546.75,547.441)" d="M43,-25 L0,25 L10,25 L53,-25 L43,-25 "/>
<path class="Note" transform="matrix(0.992126,0,0,0.992126,1705.89,547.441)" d="M43,-25 L0,25 L10,25 L53,-25 L43,-25 "/>
<path class="Note" transform="matrix(0.992126,0,0,0.992126,1865.04,547.441)" d="M43,-25 L0,25 L10,25 L53,-25 L43,-25 "/>
<path class="Note" transform="matrix(0.992126,0,0,0.992126,2024.18,547.441)" d="M43,-25 L0,25 L10,25 L53,-25 L43,-25 "/>
<path class="Note" transform="matrix(0.992126,0,0,0.992126,2240.37,547.441)" d="M43,-25 L0,25 L10,25 L53,-25 L43,-25 "/>
<path class="Note" transform="matrix(0.992126,0,0,0.992126,2399.51,547.441)" d="M43,-25 L0,25 L10,25 L53,-25 L43,-25 "/>
<path class="Note" transform="matrix(0.992126,0,0,0.992126,2558.66,547.441)" d="M43,-25 L0,25 L10,25 L53,-25 L43,-25 "/>
<path class="Note" transform="matrix(0.992126,0,0,0.992126,2717.8,547.441)" d="M43,-25 L0,25 L10,25 L53,-25 L43,-25 "/>
<path class="Note" transform="matrix(0.992126,0,0,0.992126,159.504,865.023)" d="M43,-25 L0,25 L10,25 L53,-25 L43,-25 "/>
<path class="Note" transform="matrix(0.992126,0,0,0.992126,321.29,865.023)" d="M43,-25 L0,25 L10,25 L53,-25 L43,-25 "/>
<path class="Note" transform="matrix(0.992126,0,0,0.992126,483.077,865.023)" d="M43,-25 L0,25 L10,25 L53,-25 L43,-25 "/>
<path class="Note" transform="matrix(0.992126,0,0,0.992126,644.863,865.023)" d="M43,-25 L0,25 L10,25 L53,-25 L43,-25 "/>
<path class="Note" transform="matrix(0.992126,0,0,0.992126,863.696,865.023)" d="M43,-25 L0,25 L10,25 L53,-25 L43,-25 "/>
<path class="Note" transform="matrix(0.992126,0,0,0.992126,1025.48,865.023)" d="M43,-25 L0,25 L10,25 L53,-25 L43,-25 "/>
<path class="Note" transform="matrix(0.992126,0,0,0.992126,1187.27,865.023)" d="M43,-25 L0,25 L10,25 L53,-25 L43,-25 "/>
<path class="Note" transform="matrix(0.992126,0,0,0.992126,1349.06,865.023)" d="M43,-25 L0,25 L10,25 L53,-25 L43,-25 "/>
<path class="Note" transform="matrix(0.992126,0,0,0.992126,1567.89,865.023)" d="M43,-25 L0,25 L10,25 L53,-25 L43,-25 "/>
<path class="Note" transform="matrix(0.992126,0,0,0.992126,1729.67,865.023)" d="M43,-25 L0,25 L10,25 L53,-25 L43,-25 "/>
<path class="Note" transform="matrix(0.992126,0,0,0.992126,1891.46,865.023)" d="M43,-25 L0,25 L10,25 L53,-25 L43,-25 "/>
<path class="Note" transform="matrix(0.992126,0,0,0.992126,2053.25,865.023)" d="M43,-25 L0,25 L10,25 L53,-25 L43,-25 "/>
<path class="Note" transform="matrix(0.992126,0,0,0.992126,2272.08,865.023)" d="M43,-25 L0,25 L10,25 L53,-25 L43,-25 "/>
<path class="Note" transform="matrix(0.992126,0,0,0.992126,2433.87,865.023)" d="M43,-25 L0,25 L10,25 L53,-25 L43,-25 "/>
<path class="Note" transform="matrix(0.992126,0,0,0.992126,2595.65,865.023)" d="M43,-25 L0,25 L10,25 L53,-25 L43,-25 "/>
<path class="Note" transform="matrix(0.992126,0,0,0.992126,2757.44,865.023)" d="M43,-25 L0,25 L10,25 L53,-25 L43,-25 "/>
<path class="Note" transform="matrix(0.992126,0,0,0.992126,159.504,1175.06)" d="M43,-25 L0,25 L10,25 L53,-25 L43,-25 "/>
<path class="Note" transform="matrix(0.992126,0,0,0.992126,319.656,1175.06)" d="M43,-25 L0,25 L10,25 L53,-25 L43,-25 "/>
<path class="Note" transform="matrix(0.992126,0,0,0.992126,479.807,1175.06)" d="M43,-25 L0,25 L10,25 L53,-25 L43,-25 "/>
<path class="Note" transform="matrix(0.992126,0,0,0.992126,639.958,1175.06)" d="M43,-25 L0,25 L10,25 L53,-25 L43,-25 "/>
<path class="Note" transform="matrix(0.992126,0,0,0.992126,841.035,1175.06)" d="M43,-25 L0,25 L10,25 L53,-25 L43,-25 "/>
<path class="Note" transform="matrix(0.992126,0,0,0.992126,1001.19,1175.06)" d="M43,-25 L0,25 L10,25 L53,-25 L43,-25 "/>
<path class="Note" transform="matrix(0.992126,0,0,0.992126,1161.34,1175.06)" d="M43,-25 L0,25 L10,25 L53,-25 L43,-25 "/>
<path class="Note" transform="matrix(0.992126,0,0,0.992126,1321.49,1175.06)" d="M43,-25 L0,25 L10,25 L53,-25 L43,-25 "/>
<path class="Note" transform="matrix(0.992126,0,0,0.992126,1538.69,1175.06)" d="M43,-25 L0,25 L10,25 L53,-25 L43,-25 "/>
<path class="Note" transform="matrix(0.992126,0,0,0.992126,1698.84,1175.06)" d="M43,-25 L0,25 L10,25 L53,-25 L43,-25 "/>
<path class="Note" transform="matrix(0.992126,0,0,0.992126,1858.99,1175.06)" d="M43,-25 L0,25 L10,25 L53,-25 L43,-25 "/>
<path class="Note" transform="matrix(0.992126,0,0,0.992126,2019.14,1175.06)" d="M43,-25 L0,25 L10,25 L53,-25 L43,-25 "/>
<path class="Note" transform="matrix(0.992126,0,0,0.992126,2236.34,1175.06)" d="M43,-25 L0,25 L10,25 L53,-25 L43,-25 "/>
<path class="Note" transform="matrix(0.992126,0,0,0.992126,2396.49,1175.06)" d="M43,-25 L0,25 L10,25 L53,-25 L43,-25 "/>
<path class="Note" transform="matrix(0.992126,0,0,0.992126,2556.64,1175.06)" d="M43,-25 L0,25 L10,25 L53,-25 L43,-25 "/>
<path class="Note" transform="matrix(0.992126,0,0,0.992126,2716.79,1175.06)" d="M43,-25 L0,25 L10,25 L53,-25 L43,-25 "/>
<path class="Clef" transform="matrix(0.992126,0,0,0.992126,158.032,262.205)" d="M63.3594,-5.92188 C62.125,-11.3438 59.4844,-15.1719 58.7031,-16.2031 C55.5156,-20.4844 51.5,-23.3281 46.8125,-24.6875 C43.7031,-25.5625 40.7031,-25.6875 38.2813,-25.5 C37.2344,-31.5156 36.2344,-37.3906 35.3281,-42.8438 C40.7813,-49.0156 44.4063,-54.8125 46.6875,-59.1094 C50.1563,-65.6875 51.2969,-70.2656 51.3594,-70.4688 C53.0781,-75.6875 53.4375,-83.3906 52.3281,-91.5938 C51.3281,-99.1406 49.2344,-105.859 46.875,-109.109 C45.8594,-110.531 44.7969,-111.266 43.7656,-111.266 C42.5469,-111.266 40.0313,-110.031 37.1406,-107.25 C34.8438,-105.063 31.5781,-101.172 29.0156,-95.1563 C26.0156,-88.0938 25.7969,-78.6094 26.1563,-71.8906 C26.5313,-64.6094 27.6406,-58.9219 27.6563,-58.875 C27.6719,-58.7813 27.9375,-57.2813 28.375,-54.7188 C28.1563,-54.4844 27.9063,-54.2656 27.6563,-54.0156 C26.625,-53.0156 25.4375,-51.8906 24.0469,-50.5 C23.1875,-49.6406 22.2344,-48.7344 21.2344,-47.7656 C12.7969,-39.625 0,-27.2969 0,-8.14063 C0,-3.4375 0.90625,0.984375 2.6875,5 C4.26563,8.59375 6.5625,11.875 9.5,14.75 C17.2344,22.3125 27.8281,25.5156 34.875,25.3594 C37.8281,25.2813 40.4688,25.0469 42.8594,24.5938 C44.6875,34.2031 45.8281,41.2344 45.8594,46.5781 C45.9063,53.0938 44.25,57.0781 40.3594,59.8438 C37.9219,61.5781 35.1094,62.5313 32.0156,62.6719 C29.4219,62.7969 27.1563,62.3281 25.7344,61.9219 L25.7188,61.9219 C25.7188,61.9219 25.4375,61.8281 25.4219,61.6406 C25.4063,61.4531 25.7656,61.4063 25.7656,61.4063 L25.7969,61.4063 C27.7188,60.9688 31.2813,59.7344 33.6406,56.4375 C35.4375,53.9063 36.3125,49.2813 34.4688,45.3438 C33.3594,42.9531 30.8594,40 25.2344,39.5469 C22.7344,39.3438 20.4688,39.8594 18.4688,41.0625 C16.6563,42.1406 15.1563,43.7813 14.1094,45.7813 C11.6563,50.4844 12.1094,56.2188 15.2344,60.0625 C18.2031,63.6875 22.8125,66 28.25,66.5781 C29.1094,66.6719 29.9531,66.7031 30.7969,66.7031 C35.2344,66.7031 39.625,65.5 43.2031,63.2969 C46.8594,60.7188 48.9844,56.7344 49.6563,51.1094 C50.2188,46.4688 49.8281,40.5469 48.4375,32.4688 C48.0781,30.375 47.5313,27.3438 46.875,23.5938 C52.625,21.6719 56.7813,18.0938 60.5469,12.2344 C63.8438,6.5 64.7813,0.390625 63.3594,-5.92188 M29.1406,20.2969 C24.5,19.0781 20.0625,16.5781 16.3125,13.0625 C15,11.8438 13.125,9.67188 11.6563,6.28125 C10.2969,3.10938 9.625,-0.328125 9.6875,-3.90625 C9.75,-8.60938 11.0625,-13.4375 13.5625,-18.2188 C16.4844,-23.7969 21.0469,-29.3281 27.1094,-34.6563 C28.5625,-35.9375 29.9375,-37.2188 31.2188,-38.5 C31.9844,-34.2344 32.8125,-29.5469 33.6875,-24.6719 C29.8438,-23.4063 25.0938,-20.25 21.9844,-14.5938 C18.4375,-8.03125 18.5781,-2.5 19.3125,0.984375 C20.25,5.4375 22.7813,9.20313 26.2344,11.2969 C27.1719,11.8594 31.2969,13.9844 33.1406,13.4063 C33.5156,13.2969 33.7813,13.0625 33.9219,12.7344 C34.4375,11.5625 33.4063,10.9219 31.8594,9.96875 C31.25,9.59375 30.5781,9.17188 29.8594,8.64063 C26.5313,6.15625 25.0781,1.70313 26.1563,-2.6875 C26.7344,-5.07813 28.0156,-7.25 29.8594,-8.95313 C31.5156,-10.5 33.5625,-11.5938 35.9375,-12.2344 C37.9844,-0.984375 40.0469,10.1719 41.6875,18.5313 C41.8125,19.2188 41.9531,19.8906 42.0781,20.5625 C37.7031,21.5 33.3594,21.4063 29.1406,20.2969 M40.4688,-12.9063 C50.8125,-13.375 55.0781,-5.9375 55.9688,-1.10938 C56.4375,1.4375 56.4375,5.875 54.8906,10.0938 C53.7188,13.2656 51.2656,17.3438 46.125,19.4063 C46.0625,18.9844 45.9844,18.5469 45.9063,18.125 C44.3594,9.34375 42.4219,-1.65625 40.4688,-12.9063 M33.1406,-83.8594 C34.9219,-89.5938 37.6563,-92.8438 39.6563,-94.5781 C41.4063,-96.0938 43.0469,-96.8125 43.9688,-96.8125 C44.1094,-96.8125 44.2344,-96.7813 44.3281,-96.75 C44.7969,-96.6094 45.3281,-96.0469 45.7969,-95.1719 C48.1094,-90.8906 47.3594,-84.1719 46.0156,-79.7344 C44.3906,-74.3281 41.4688,-68.7188 32.6719,-59.1094 C32.5,-60.2188 32.3438,-61.2656 32.1875,-62.25 C30.9375,-70.5313 31.2656,-77.8125 33.1406,-83.8594"/>
<path class="Clef" transform="matrix(0.992126,0,0,0.992126,34.0158,572.244)" d="M63.3594,-5.92188 C62.125,-11.3438 59.4844,-15.1719 58.7031,-16.2031 C55.5156,-20.4844 51.5,-23.3281 46.8125,-24.6875 C43.7031,-25.5625 40.7031,-25.6875 38.2813,-25.5 C37.2344,-31.5156 36.2344,-37.3906 35.3281,-42.8438 C40.7813,-49.0156 44.4063,-54.8125 46.6875,-59.1094 C50.1563,-65.6875 51.2969,-70.2656 51.3594,-70.4688 C53.0781,-75.6875 53.4375,-83.3906 52.3281,-91.5938 C51.3281,-99.1406 49.2344,-105.859 46.875,-109.109 C45.8594,-110.531 44.7969,-111.266 43.7656,-111.266 C42.5469,-111.266 40.0313,-110.031 37.1406,-107.25 C34.8438,-105.063 31.5781,-101.172 29.0156,-95.1563 C26.0156,-88.0938 25.7969,-78.6094 26.1563,-71.8906 C26.5313,-64.6094 27.6406,-58.9219 27.6563,-58.875 C27.6719,-58.7813 27.9375,-57.2813 28.375,-54.7188 C28.1563,-54.4844 27.9063,-54.2656 27.6563,-54.0156 C26.625,-53.0156 25.4375,-51.8906 24.0469,-50.5 C23.1875,-49.6406 22.2344,-48.7344 21.2344,-47.7656 C12.7969,-39.625 0,-27.2969 0,-8.14063 C0,-3.4375 0.90625,0.984375 2.6875,5 C4.26563,8.59375 6.5625,11.875 9.5,14.75 C17.2344,22.3125 27.8281,25.5156 34.875,25.3594 C37.8281,25.2813 40.4688,25.0469 42.8594,24.5938 C44.6875,34.2031 45.8281,41.2344 45.8594,46.5781 C45.9063,53.0938 44.25,57.0781 40.3594,59.8438 C37.9219,61.5781 35.1094,62.5313 32.0156,62.6719 C29.4219,62.7969 27.1563,62.3281 25.7344,61.9219 L25.7188,61.9219 C25.7188,61.9219 25.4375,61.8281 25.4219,61.6406 C25.4063,61.4531 25.7656,61.4063 25.7656,61.4063 L25.7969,61.4063 C27.7188,60.9688 31.2813,59.7344 33.6406,56.4375 C35.4375,53.9063 36.3125,49.2813 34.4688,45.3438 C33.3594,42.9531 30.8594,40 25.2344,39.5469 C22.7344,39.3438 20.4688,39.8594 18.4688,41.0625 C16.6563,42.1406 15.1563,43.7813 14.1094,45.7813 C11.6563,50.4844 12.1094,56.2188 15.2344,60.0625 C18.2031,63.6875 22.8125,66 28.25,66.5781 C29.1094,66.6719 29.9531,66.7031 30.7969,66.7031 C35.2344,66.7031 39.625,65.5 43.2031,63.2969 C46.8594,60.7188 48.9844,56.7344 49.6563,51.1094 C50.2188,46.4688 49.8281,40.5469 48.4375,32.4688 C48.0781,30.375 47.5313,27.3438 46.875,23.5938 C52.625,21.6719 56.7813,18.0938 60.5469,12.2344 C63.8438,6.5 64.7813,0.390625 63.3594,-5.92188 M29.1406,20.2969 C24.5,19.0781 20.0625,16.5781 16.3125,13.0625 C15,11.8438 13.125,9.67188 11.6563,6.28125 C10.2969,3.10938 9.625,-0.328125 9.6875,-3.90625 C9.75,-8.60938 11.0625,-13.4375 13.5625,-18.2188 C16.4844,-23.7969 21.0469,-29.3281 27.1094,-34.6563 C28.5625,-35.9375 29.9375,-37.2188 31.2188,-38.5 C31.9844,-34.2344 32.8125,-29.5469 33.6875,-24.6719 C29.8438,-23.4063 25.0938,-20.25 21.9844,-14.5938 C18.4375,-8.03125 18.5781,-2.5 19.3125,0.984375 C20.25,5.4375 22.7813,9.20313 26.2344,11.2969 C27.1719,11.8594 31.2969,13.9844 33.1406,13.4063 C33.5156,13.2969 33.7813,13.0625 33.9219,12.7344 C34.4375,11.5625 33.4063,10.9219 31.8594,9.96875 C31.25,9.59375 30.5781,9.17188 29.8594,8.64063 C26.5313,6.15625 25.0781,1.70313 26.1563,-2.6875 C26.7344,-5.07813 28.0156,-7.25 29.8594,-8.95313 C31.5156,-10.5 33.5625,-11.5938 35.9375,-12.2344 C37.9844,-0.984375 40.0469,10.1719 41.6875,18.5313 C41.8125,19.2188 41.9531,19.8906 42.0781,20.5625 C37.7031,21.5 33.3594,21.4063 29.1406,20.2969 M40.4688,-12.9063 C50.8125,-13.375 55.0781,-5.9375 55.9688,-1.10938 C56.4375,1.4375 56.4375,5.875 54.8906,10.0938 C53.7188,13.2656 51.2656,17.3438 46.125,19.4063 C46.0625,18.9844 45.9844,18.5469 45.9063,18.125 C44.3594,9.34375 42.4219,-1.65625 40.4688,-12.9063 M33.1406,-83.8594 C34.9219,-89.5938 37.6563,-92.8438 39.6563,-94.5781 C41.4063,-96.0938 43.0469,-96.8125 43.9688,-96.8125 C44.1094,-96.8125 44.2344,-96.7813 44.3281,-96.75 C44.7969,-96.6094 45.3281,-96.0469 45.7969,-95.1719 C48.1094,-90.8906 47.3594,-84.1719 46.0156,-79.7344 C44.3906,-74.3281 41.4688,-68.7188 32.6719,-59.1094 C32.5,-60.2188 32.3438,-61.2656 32.1875,-62.25 C30.9375,-70.5313 31.2656,-77.8125 33.1406,-83.8594"/>
<path class="Clef" transform="matrix(0.992126,0,0,0.992126,34.0158,889.826)" d="M63.3594,-5.92188 C62.125,-11.3438 59.4844,-15.1719 58.7031,-16.2031 C55.5156,-20.4844 51.5,-23.3281 46.8125,-24.6875 C43.7031,-25.5625 40.7031,-25.6875 38.2813,-25.5 C37.2344,-31.5156 36.2344,-37.3906 35.3281,-42.8438 C40.7813,-49.0156 44.4063,-54.8125 46.6875,-59.1094 C50.1563,-65.6875 51.2969,-70.2656 51.3594,-70.4688 C53.0781,-75.6875 53.4375,-83.3906 52.3281,-91.5938 C51.3281,-99.1406 49.2344,-105.859 46.875,-109.109 C45.8594,-110.531 44.7969,-111.266 43.7656,-111.266 C42.5469,-111.266 40.0313,-110.031 37.1406,-107.25 C34.8438,-105.063 31.5781,-101.172 29.0156,-95.1563 C26.0156,-88.0938 25.7969,-78.6094 26.1563,-71.8906 C26.5313,-64.6094 27.6406,-58.9219 27.6563,-58.875 C27.6719,-58.7813 27.9375,-57.2813 28.375,-54.7188 C28.1563,-54.4844 27.9063,-54.2656 27.6563,-54.0156 C26.625,-53.0156 25.4375,-51.8906 24.0469,-50.5 C23.1875,-49.6406 22.2344,-48.7344 21.2344,-47.7656 C12.7969,-39.625 0,-27.2969 0,-8.14063 C0,-3.4375 0.90625,0.984375 2.6875,5 C4.26563,8.59375 6.5625,11.875 9.5,14.75 C17.2344,22.3125 27.8281,25.5156 34.875,25.3594 C37.8281,25.2813 40.4688,25.0469 42.8594,24.5938 C44.6875,34.2031 45.8281,41.2344 45.8594,46.5781 C45.9063,53.0938 44.25,57.0781 40.3594,59.8438 C37.9219,61.5781 35.1094,62.5313 32.0156,62.6719 C29.4219,62.7969 27.1563,62.3281 25.7344,61.9219 L25.7188,61.9219 C25.7188,61.9219 25.4375,61.8281 25.4219,61.6406 C25.4063,61.4531 25.7656,61.4063 25.7656,61.4063 L25.7969,61.4063 C27.7188,60.9688 31.2813,59.7344 33.6406,56.4375 C35.4375,53.9063 36.3125,49.2813 34.4688,45.3438 C33.3594,42.9531 30.8594,40 25.2344,39.5469 C22.7344,39.3438 20.4688,39.8594 18.4688,41.0625 C16.6563,42.1406 15.1563,43.7813 14.1094,45.7813 C11.6563,50.4844 12.1094,56.2188 15.2344,60.0625 C18.2031,63.6875 22.8125,66 28.25,66.5781 C29.1094,66.6719 29.9531,66.7031 30.7969,66.7031 C35.2344,66.7031 39.625,65.5 43.2031,63.2969 C46.8594,60.7188 48.9844,56.7344 49.6563,51.1094 C50.2188,46.4688 49.8281,40.5469 48.4375,32.4688 C48.0781,30.375 47.5313,27.3438 46.875,23.5938 C52.625,21.6719 56.7813,18.0938 60.5469,12.2344 C63.8438,6.5 64.7813,0.390625 63.3594,-5.92188 M29.1406,20.2969 C24.5,19.0781 20.0625,16.5781 16.3125,13.0625 C15,11.8438 13.125,9.67188 11.6563,6.28125 C10.2969,3.10938 9.625,-0.328125 9.6875,-3.90625 C9.75,-8.60938 11.0625,-13.4375 13.5625,-18.2188 C16.4844,-23.7969 21.0469,-29.3281 27.1094,-34.6563 C28.5625,-35.9375 29.9375,-37.2188 31.2188,-38.5 C31.9844,-34.2344 32.8125,-29.5469 33.6875,-24.6719 C29.8438,-23.4063 25.0938,-20.25 21.9844,-14.5938 C18.4375,-8.03125 18.5781,-2.5 19.3125,0.984375 C20.25,5.4375 22.7813,9.20313 26.2344,11.2969 C27.1719,11.8594 31.2969,13.9844 33.1406,13.4063 C33.5156,13.2969 33.7813,13.0625 33.9219,12.7344 C34.4375,11.5625 33.4063,10.9219 31.8594,9.96875 C31.25,9.59375 30.5781,9.17188 29.8594,8.64063 C26.5313,6.15625 25.0781,1.70313 26.1563,-2.6875 C26.7344,-5.07813 28.0156,-7.25 29.8594,-8.95313 C31.5156,-10.5 33.5625,-11.5938 35.9375,-12.2344 C37.9844,-0.984375 40.0469,10.1719 41.6875,18.5313 C41.8125,19.2188 41.9531,19.8906 42.0781,20.5625 C37.7031,21.5 33.3594,21.4063 29.1406,20.2969 M40.4688,-12.9063 C50.8125,-13.375 55.0781,-5.9375 55.9688,-1.10938 C56.4375,1.4375 56.4375,5.875 54.8906,10.0938 C53.7188,13.2656 51.2656,17.3438 46.125,19.4063 C46.0625,18.9844 45.9844,18.5469 45.9063,18.125 C44.3594,9.34375 42.4219,-1.65625 40.4688,-12.9063 M33.1406,-83.8594 C34.9219,-89.5938 37.6563,-92.8438 39.6563,-94.5781 C41.4063,-96.0938 43.0469,-96.8125 43.9688,-96.8125 C44.1094,-96.8125 44.2344,-96.7813 44.3281,-96.75 C44.7969,-96.6094 45.3281,-96.0469 45.7969,-95.1719 C48.1094,-90.8906 47.3594,-84.1719 46.0156,-79.7344 C44.3906,-74.3281 41.4688,-68.7188 32.6719,-59.1094 C32.5,-60.2188 32.3438,-61.2656 32.1875,-62.25 C30.9375,-70.5313 31.2656,-77.8125 33.1406,-83.8594"/>
<path class="Clef" transform="matrix(0.992126,0,0,0.992126,34.0158,1199.87)" d="M63.3594,-5.92188 C62.125,-11.3438 59.4844,-15.1719 58.7031,-16.2031 C55.5156,-20.4844 51.5,-23.3281 46.8125,-24.6875 C43.7031,-25.5625 40.7031,-25.6875 38.2813,-25.5 C37.2344,-31.5156 36.2344,-37.3906 35.3281,-42.8438 C40.7813,-49.0156 44.4063,-54.8125 46.6875,-59.1094 C50.1563,-65.6875 51.2969,-70.2656 51.3594,-70.4688 C53.0781,-75.6875 53.4375,-83.3906 52.3281,-91.5938 C51.3281,-99.1406 49.2344,-105.859 46.875,-109.109 C45.8594,-110.531 44.7969,-111.266 43.7656,-111.266 C42.5469,-111.266 40.0313,-110.031 37.1406,-107.25 C34.8438,-105.063 31.5781,-101.172 29.0156,-95.1563 C26.0156,-88.0938 25.7969,-78.6094 26.1563,-71.8906 C26.5313,-64.6094 27.6406,-58.9219 27.6563,-58.875 C27.6719,-58.7813 27.9375,-57.2813 28.375,-54.7188 C28.1563,-54.4844 27.9063,-54.2656 27.6563,-54.0156 C26.625,-53.0156 25.4375,-51.8906 24.0469,-50.5 C23.1875,-49.6406 22.2344,-48.7344 21.2344,-47.7656 C12.7969,-39.625 0,-27.2969 0,-8.14063 C0,-3.4375 0.90625,0.984375 2.6875,5 C4.26563,8.59375 6.5625,11.875 9.5,14.75 C17.2344,22.3125 27.8281,25.5156 34.875,25.3594 C37.8281,25.2813 40.4688,25.0469 42.8594,24.5938 C44.6875,34.2031 45.8281,41.2344 45.8594,46.5781 C45.9063,53.0938 44.25,57.0781 40.3594,59.8438 C37.9219,61.5781 35.1094,62.5313 32.0156,62.6719 C29.4219,62.7969 27.1563,62.3281 25.7344,61.9219 L25.7188,61.9219 C25.7188,61.9219 25.4375,61.8281 25.4219,61.6406 C25.4063,61.4531 25.7656,61.4063 25.7656,61.4063 L25.7969,61.4063 C27.7188,60.9688 31.2813,59.7344 33.6406,56.4375 C35.4375,53.9063 36.3125,49.2813 34.4688,45.3438 C33.3594,42.9531 30.8594,40 25.2344,39.5469 C22.7344,39.3438 20.4688,39.8594 18.4688,41.0625 C16.6563,42.1406 15.1563,43.7813 14.1094,45.7813 C11.6563,50.4844 12.1094,56.2188 15.2344,60.0625 C18.2031,63.6875 22.8125,66 28.25,66.5781 C29.1094,66.6719 29.9531,66.7031 30.7969,66.7031 C35.2344,66.7031 39.625,65.5 43.2031,63.2969 C46.8594,60.7188 48.9844,56.7344 49.6563,51.1094 C50.2188,46.4688 49.8281,40.5469 48.4375,32.4688 C48.0781,30.375 47.5313,27.3438 46.875,23.5938 C52.625,21.6719 56.7813,18.0938 60.5469,12.2344 C63.8438,6.5 64.7813,0.390625 63.3594,-5.92188 M29.1406,20.2969 C24.5,19.0781 20.0625,16.5781 16.3125,13.0625 C15,11.8438 13.125,9.67188 11.6563,6.28125 C10.2969,3.10938 9.625,-0.328125 9.6875,-3.90625 C9.75,-8.60938 11.0625,-13.4375 13.5625,-18.2188 C16.4844,-23.7969 21.0469,-29.3281 27.1094,-34.6563 C28.5625,-35.9375 29.9375,-37.2188 31.2188,-38.5 C31.9844,-34.2344 32.8125,-29.5469 33.6875,-24.6719 C29.8438,-23.4063 25.0938,-20.25 21.9844,-14.5938 C18.4375,-8.03125 18.5781,-2.5 19.3125,0.984375 C20.25,5.4375 22.7813,9.20313 26.2344,11.2969 C27.1719,11.8594 31.2969,13.9844 33.1406,13.4063 C33.5156,13.2969 33.7813,13.0625 33.9219,12.7344 C34.4375,11.5625 33.4063,10.9219 31.8594,9.96875 C31.25,9.59375 30.5781,9.17188 29.8594,8.64063 C26.5313,6.15625 25.0781,1.70313 26.1563,-2.6875 C26.7344,-5.07813 28.0156,-7.25 29.8594,-8.95313 C31.5156,-10.5 33.5625,-11.5938 35.9375,-12.2344 C37.9844,-0.984375 40.0469,10.1719 41.6875,18.5313 C41.8125,19.2188 41.9531,19.8906 42.0781,20.5625 C37.7031,21.5 33.3594,21.4063 29.1406,20.2969 M40.4688,-12.9063 C50.8125,-13.375 55.0781,-5.9375 55.9688,-1.10938 C56.4375,1.4375 56.4375,5.875 54.8906,10.0938 C53.7188,13.2656 51.2656,17.3438 46.125,19.4063 C46.0625,18.9844 45.9844,18.5469 45.9063,18.125 C44.3594,9.34375 42.4219,-1.65625 40.4688,-12.9063 M33.1406,-83.8594 C34.9219,-89.5938 37.6563,-92.8438 39.6563,-94.5781 C41.4063,-96.0938 43.0469,-96.8125 43.9688,-96.8125 C44.1094,-96.8125 44.2344,-96.7813 44.3281,-96.75 C44.7969,-96.6094 45.3281,-96.0469 45.7969,-95.1719 C48.1094,-90.8906 47.3594,-84.1719 46.0156,-79.7344 C44.3906,-74.3281 41.4688,-68.7188 32.6719,-59.1094 C32.5,-60.2188 32.3438,-61.2656 32.1875,-62.25 C30.9375,-70.5313 31.2656,-77.8125 33.1406,-83.8594"/>
<path class="TimeSig" transform="matrix(0.992126,0,0,0.992126,244.951,212.73)" d="M3.59375,12.625 L20.7656,12.625 L20.7656,20.0781 L12.5469,20.0781 C11.7656,20.0781 11.125,20.7031 11.125,21.4844 L11.125,23.3906 C11.125,24.1719 11.7656,24.7969 12.5469,24.7969 L42.7969,24.7969 C43.5781,24.7969 44.2031,24.1719 44.2031,23.3906 L44.2031,21.4844 C44.2031,20.7031 43.5781,20.0781 42.7969,20.0781 L33.8594,20.0781 L33.8594,12.625 L42.7969,12.625 C43.5781,12.625 44.2031,12 44.2031,11.2188 L44.2031,9.3125 C44.2031,8.53125 43.5781,7.90625 42.7969,7.90625 L33.8594,7.90625 L33.8594,-8.0625 C33.8594,-8.59375 33.5469,-9.07813 33.0781,-9.3125 L31.8594,-9.92188 C31.3281,-10.1719 30.7031,-10.0781 30.2656,-9.6875 L21.2188,-1.375 C20.9375,-1.09375 20.7656,-0.734375 20.7656,-0.328125 L20.7656,7.90625 L9.25,7.90625 C9.25,7.90625 20.375,-4.125 32.2188,-19.8906 C33.0781,-21.0469 32.5781,-22.0938 32.3906,-22.2813 L30.2188,-24.4844 C29.9531,-24.75 29.5938,-24.9063 29.2188,-24.9063 C28.625,-24.9063 15.0625,-24.875 14.3438,-24.9063 C13.625,-24.9219 13.0938,-24.2969 13.0156,-23.6875 C13.0156,-23.6875 12.4844,-16.3281 9.875,-8.1875 C7.28125,-0.078125 4.34375,4.90625 1.6875,8.53125 C1.6875,8.53125 1.14063,9.51563 1.5,10.2656 C1.84375,11.0156 2.48438,12.0938 2.48438,12.0938 C2.48438,12.0938 2.73438,12.625 3.59375,12.625"/>
<path class="TimeSig" transform="matrix(0.992126,0,0,0.992126,244.951,262.073)" d="M3.59375,12.625 L20.7656,12.625 L20.7656,20.0781 L12.5469,20.0781 C11.7656,20.0781 11.125,20.7031 11.125,21.4844 L11.125,23.3906 C11.125,24.1719 11.7656,24.7969 12.5469,24.7969 L42.7969,24.7969 C43.5781,24.7969 44.2031,24.1719 44.2031,23.3906 L44.2031,21.4844 C44.2031,20.7031 43.5781,20.0781 42.7969,20.0781 L33.8594,20.0781 L33.8594,12.625 L42.7969,12.625 C43.5781,12.625 44.2031,12 44.2031,11.2188 L44.2031,9.3125 C44.2031,8.53125 43.5781,7.90625 42.7969,7.90625 L33.8594,7.90625 L33.8594,-8.0625 C33.8594,-8.59375 33.5469,-9.07813 33.0781,-9.3125 L31.8594,-9.92188 C31.3281,-10.1719 30.7031,-10.0781 30.2656,-9.6875 L21.2188,-1.375 C20.9375,-1.09375 20.7656,-0.734375 20.7656,-0.328125 L20.7656,7.90625 L9.25,7.90625 C9.25,7.90625 20.375,-4.125 32.2188,-19.8906 C33.0781,-21.0469 32.5781,-22.0938 32.3906,-22.2813 L30.2188,-24.4844 C29.9531,-24.75 29.5938,-24.9063 29.2188,-24.9063 C28.625,-24.9063 15.0625,-24.875 14.3438,-24.9063 C13.625,-24.9219 13.0938,-24.2969 13.0156,-23.6875 C13.0156,-23.6875 12.4844,-16.3281 9.875,-8.1875 C7.28125,-0.078125 4.34375,4.90625 1.6875,8.53125 C1.6875,8.53125 1.14063,9.51563 1.5,10.2656 C1.84375,11.0156 2.48438,12.0938 2.48438,12.0938 C2.48438,12.0938 2.73438,12.625 3.59375,12.625"/>
<path class="RehearsalMark" fill="none" stroke="#000000" stroke-width="3.97" stroke-linecap="square" stroke-linejoin="miter" stroke-miterlimit="2" fill-rule="evenodd" d="M154.216,21.0729 L262.987,21.0729 L262.987,122.845 L154.216,122.845 L154.216,21.0729 "/>
<path class="RehearsalMark" d="M205.352,35.4899 L182.883,87.9587 C178.32,98.6618 174.664,102.521 168.82,103.115 L168.82,108.459 L197.43,108.459 L197.43,103.115 C190.398,102.724 187.633,100.834 187.633,96.2868 C187.633,94.5993 188.023,93.0212 189.117,90.6462 L190.695,86.8806 L215.352,86.8806 L219.117,96.5837 C220.195,99.3493 220.305,99.8493 220.305,100.631 C220.305,102.427 218.914,103.021 214.555,103.021 L212.867,103.115 L212.867,108.459 L247.617,108.459 L247.617,103.115 C241.977,102.912 240.398,101.927 238.32,96.8806 L212.867,35.4899 L205.352,35.4899 M203.273,56.5837 L212.867,80.2399 L193.273,80.2399 L203.273,56.5837 "/>
<path class="RehearsalMark" fill="none" stroke="#000000" stroke-width="3.97" stroke-linecap="square" stroke-linejoin="miter" stroke-miterlimit="2" fill-rule="evenodd" d="M32.3294,654.622 L133.101,654.622 L133.101,755.393 L32.3294,755.393 L32.3294,654.622 "/>
<path class="RehearsalMark" d="M47.4027,669.523 L47.4027,674.882 L48.8871,674.882 C54.2308,674.882 56.1058,675.273 56.9964,676.257 C57.6996,677.351 57.6996,677.648 57.6996,683.789 L57.6996,726.757 C57.6996,732.882 57.6996,733.179 56.9964,734.179 C56.1058,735.273 54.1371,735.664 48.8871,735.664 L47.4027,735.664 L47.4027,741.007 L87.4964,741.007 C97.7933,741.007 103.043,740.211 108.184,737.945 C114.418,735.164 118.575,728.929 118.575,722.195 C118.575,715.273 114.621,709.82 107.293,706.461 C103.934,704.867 101.059,704.086 95.8089,703.382 C100.653,702.601 103.434,701.898 106.2,700.617 C112.137,697.742 115.309,692.992 115.309,687.054 C115.309,681.414 112.34,676.164 107.496,673.492 C102.043,670.414 97.2933,669.523 85.6058,669.523 L47.4027,669.523 M75.5121,701.601 L75.5121,680.617 C75.3089,676.461 76.6996,675.07 81.0589,674.882 L84.0277,674.882 C92.7464,674.882 97.3871,679.226 97.3871,687.445 C97.3871,692.304 95.7152,696.164 92.5433,698.632 C89.8714,700.82 86.4964,701.601 80.3714,701.601 L75.5121,701.601 M75.5121,707.054 L82.3402,707.054 C88.5746,707.054 91.4496,707.648 94.2308,709.429 C97.6839,711.711 99.6683,716.054 99.6683,721.211 C99.6683,725.961 97.8871,730.32 95.0121,732.695 C92.5433,734.664 89.2777,735.664 84.5277,735.664 L81.5589,735.664 C75.9027,735.461 75.3089,734.867 75.5121,729.32 L75.5121,707.054 "/>
<path class="Harmony" d="M350.527,121.866 C350.496,121.881 350.449,121.881 350.386,121.881 C350.324,121.881 350.277,121.897 350.246,121.897 C350.199,121.912 350.152,121.912 350.09,121.928 C350.027,121.928 349.996,121.944 349.949,121.959 C349.902,121.975 349.871,122.006 349.824,122.022 C349.777,122.053 349.746,122.069 349.73,122.116 C349.683,122.147 349.668,122.178 349.636,122.225 C349.621,122.256 349.605,122.319 349.605,122.366 C349.605,122.397 349.605,122.428 349.605,122.475 L349.605,122.506 C349.605,122.537 349.605,122.584 349.605,122.647 C349.621,122.709 349.621,122.756 349.621,122.787 C349.621,123.366 349.636,123.928 349.652,124.475 C349.652,124.506 349.652,124.537 349.652,124.569 C349.652,124.678 349.652,124.819 349.636,124.975 C349.621,125.178 349.621,125.319 349.621,125.412 L349.621,125.444 L349.621,125.537 C349.621,125.553 349.621,125.584 349.636,125.616 C349.636,125.647 349.636,125.662 349.652,125.678 C349.668,125.694 349.683,125.709 349.715,125.725 C349.73,125.741 349.761,125.741 349.793,125.741 L349.808,125.741 C349.98,125.741 350.152,125.709 350.324,125.631 C350.511,125.569 350.668,125.491 350.824,125.381 C350.98,125.287 351.121,125.162 351.261,125.006 C351.402,124.866 351.527,124.709 351.621,124.553 C351.73,124.397 351.808,124.225 351.871,124.053 C351.949,123.881 351.98,123.709 351.98,123.537 C351.996,123.506 351.996,123.459 351.996,123.428 C351.996,123.334 351.98,123.241 351.965,123.131 C351.933,122.991 351.902,122.85 351.84,122.725 C351.793,122.6 351.715,122.475 351.621,122.366 C351.543,122.241 351.433,122.147 351.324,122.069 C351.215,121.991 351.09,121.928 350.949,121.897 C350.871,121.866 350.777,121.866 350.668,121.866 C350.621,121.866 350.574,121.866 350.527,121.866 M350.215,125.1 C350.215,124.959 350.215,124.741 350.215,124.475 C350.23,124.256 350.23,124.053 350.23,123.866 C350.23,123.819 350.23,123.787 350.23,123.741 C350.23,123.522 350.215,123.303 350.215,123.1 C350.215,123.069 350.199,123.037 350.199,122.959 C350.183,122.881 350.168,122.803 350.168,122.741 C350.152,122.709 350.152,122.678 350.152,122.647 C350.152,122.616 350.152,122.584 350.168,122.553 C350.168,122.491 350.199,122.444 350.23,122.412 C350.277,122.381 350.324,122.366 350.386,122.366 C350.402,122.366 350.402,122.366 350.418,122.366 C350.496,122.381 350.574,122.397 350.668,122.444 C350.746,122.491 350.824,122.553 350.902,122.616 C350.98,122.678 351.043,122.741 351.105,122.787 C351.168,122.85 351.199,122.897 351.23,122.944 C351.308,123.069 351.371,123.225 351.402,123.381 C351.418,123.475 351.418,123.553 351.418,123.647 C351.418,123.709 351.418,123.787 351.418,123.85 C351.386,124.006 351.34,124.147 351.277,124.303 C351.215,124.444 351.121,124.569 351.027,124.694 C350.918,124.803 350.793,124.897 350.668,124.959 C350.527,125.037 350.371,125.084 350.215,125.1"/>
<path class="Harmony" d="M358.027,70.2296 C357.777,70.2765 357.371,70.339 356.73,70.3858 C356.074,70.4327 355.574,70.5265 355.23,70.589 C354.871,70.6358 354.371,70.6827 353.777,70.7765 C353.168,70.8858 352.73,71.0265 352.324,71.1827 C351.918,71.339 351.48,71.5265 351.074,71.7765 C350.668,72.0265 350.324,72.2765 350.074,72.6358 C349.73,72.9796 349.48,73.3858 349.277,73.7765 C349.074,74.1827 348.918,74.6827 348.871,75.1827 C348.824,75.5265 348.824,75.8858 348.824,76.2296 L348.824,76.5265 C348.871,76.8858 348.871,77.3858 348.918,77.9796 C348.98,78.589 348.98,79.089 348.98,79.4327 C348.98,85.1358 349.121,90.7296 349.371,96.2921 C349.418,96.589 349.418,96.8858 349.418,97.2296 C349.371,98.2921 349.324,99.6827 349.23,101.339 C349.074,103.292 348.98,104.73 348.98,105.683 L348.98,105.98 L348.98,106.839 C348.98,107.089 349.074,107.339 349.121,107.636 C349.168,107.933 349.277,108.183 349.418,108.339 C349.574,108.48 349.73,108.636 349.98,108.792 C350.168,108.886 350.418,108.933 350.73,108.933 L350.871,108.933 C352.621,108.886 354.371,108.542 356.121,107.886 C357.871,107.23 359.527,106.433 361.074,105.386 C362.621,104.339 364.074,103.089 365.48,101.636 C366.871,100.183 368.074,98.6827 369.074,97.089 C370.074,95.4796 370.918,93.839 371.574,92.089 C372.23,90.339 372.574,88.589 372.668,86.9327 C372.73,86.589 372.73,86.1827 372.73,85.839 C372.73,84.8858 372.621,83.8858 372.418,82.8858 C372.168,81.4796 371.777,80.089 371.23,78.7765 C370.668,77.4796 369.98,76.2765 369.074,75.1358 C368.168,73.9796 367.168,73.0265 366.074,72.2296 C364.98,71.4327 363.777,70.839 362.371,70.4796 C361.48,70.2296 360.527,70.1358 359.574,70.1358 C359.074,70.1358 358.574,70.1827 358.027,70.2296 M354.918,102.542 C354.918,101.089 354.98,98.9796 355.027,96.2921 C355.074,94.1358 355.121,92.089 355.121,90.2296 C355.121,89.7921 355.074,89.339 355.074,88.8858 C355.074,86.6827 355.027,84.5421 354.918,82.5265 C354.918,82.2765 354.871,81.839 354.777,81.089 C354.668,80.339 354.527,79.6358 354.48,78.9796 C354.418,78.6827 354.418,78.3858 354.418,78.089 C354.418,77.7296 354.418,77.4327 354.48,77.089 C354.574,76.4327 354.777,75.9327 355.121,75.6827 C355.574,75.339 356.074,75.1827 356.621,75.1827 C356.777,75.2296 356.918,75.2296 357.074,75.2296 C357.824,75.339 358.621,75.589 359.48,76.0265 C360.324,76.4796 361.121,77.089 361.871,77.6827 C362.621,78.2765 363.324,78.8858 363.871,79.4796 C364.418,80.089 364.871,80.5265 365.121,80.9796 C365.918,82.2765 366.48,83.7296 366.777,85.339 C366.918,86.2296 367.027,87.1358 367.027,88.0421 C367.027,88.6827 366.98,89.339 366.918,89.9796 C366.668,91.5421 366.23,93.0421 365.574,94.4796 C364.918,95.9327 364.074,97.2296 363.074,98.3858 C362.027,99.5421 360.824,100.433 359.418,101.183 C358.027,101.933 356.527,102.386 354.918,102.542"/>
<path class="Harmony" d="M1028.49,86.8343 C1026.54,87.0843 1024.7,87.5374 1022.88,88.178 C1021.09,88.8343 1019.45,89.7405 1017.84,90.7874 C1016.24,91.8343 1014.79,93.0374 1013.54,94.3812 C1012.29,95.7405 1011.24,97.2874 1010.34,99.0374 C1009.45,100.787 1008.84,102.631 1008.49,104.584 C1008.24,105.787 1008.13,107.037 1008.13,108.287 L1008.13,108.631 C1008.13,109.834 1008.2,110.991 1008.34,112.131 C1008.49,113.381 1008.79,114.631 1009.2,115.787 C1009.63,116.991 1010.13,118.131 1010.7,119.194 C1011.24,120.241 1011.95,121.194 1012.74,122.037 C1013.54,122.881 1014.54,123.584 1015.54,124.194 C1016.54,124.787 1017.7,125.241 1018.95,125.491 C1019.79,125.631 1020.63,125.741 1021.49,125.741 C1021.95,125.741 1022.45,125.741 1022.99,125.694 C1024.54,125.537 1025.99,125.194 1027.34,124.694 C1028.7,124.194 1029.95,123.584 1030.99,122.881 C1032.04,122.194 1033.09,121.287 1034.04,120.287 C1034.99,119.287 1035.9,118.194 1036.65,117.084 C1037.4,115.991 1038.09,114.741 1038.84,113.334 C1039.99,111.037 1040.54,109.084 1040.54,107.537 C1040.54,105.991 1039.99,104.787 1038.84,103.944 C1038.2,103.381 1037.09,103.037 1035.65,102.787 C1034.59,102.631 1033.54,102.537 1032.49,102.537 L1032.24,102.537 L1031.13,102.537 C1029.59,102.584 1028.13,102.834 1026.74,103.287 C1025.34,103.741 1024.38,104.287 1023.88,104.944 C1023.74,105.194 1023.59,105.381 1023.45,105.584 C1023.09,106.131 1022.88,106.631 1022.88,107.084 C1022.88,107.741 1023.34,108.194 1024.2,108.444 C1024.88,108.631 1026.24,108.741 1028.2,108.741 L1028.63,108.741 C1029.29,108.787 1029.79,108.787 1030.13,108.787 C1032.2,108.787 1033.45,109.037 1033.84,109.584 C1033.99,109.787 1034.15,110.084 1034.15,110.381 C1034.15,110.694 1034.09,110.991 1034.04,111.287 C1033.99,111.584 1033.84,111.944 1033.7,112.334 C1033.54,112.741 1033.38,113.037 1033.24,113.287 C1033.09,113.537 1032.95,113.881 1032.74,114.287 C1032.54,114.694 1032.38,114.881 1032.34,114.991 C1032.09,115.444 1031.95,115.787 1031.79,116.037 C1031.63,116.287 1031.45,116.537 1031.2,116.881 C1030.95,117.241 1030.63,117.537 1030.38,117.741 C1029.34,118.537 1028.2,119.084 1026.84,119.334 L1025.13,119.537 L1024.95,119.537 C1024.29,119.491 1023.59,119.444 1022.95,119.287 C1021.7,119.037 1020.45,118.584 1019.29,117.881 C1018.13,117.194 1017.13,116.334 1016.38,115.334 C1015.63,114.287 1014.95,113.037 1014.45,111.631 C1013.95,110.241 1013.63,108.787 1013.54,107.241 C1013.49,106.694 1013.49,106.194 1013.49,105.631 C1013.49,104.631 1013.54,103.631 1013.7,102.694 C1013.95,101.241 1014.38,99.8343 1015.09,98.5374 C1015.79,97.2405 1016.7,96.178 1017.79,95.3812 C1019.13,94.3343 1020.79,93.5843 1022.7,93.0843 C1023.74,92.7874 1024.79,92.6312 1025.79,92.6312 C1026.49,92.6312 1027.2,92.7405 1027.84,92.8812 C1028.38,93.0374 1028.95,93.2405 1029.59,93.5374 C1030.24,93.8343 1030.79,94.1312 1031.29,94.428 C1031.79,94.7405 1032.34,95.0374 1032.88,95.3343 C1033.45,95.6312 1033.99,95.8812 1034.49,95.9905 C1034.99,96.0843 1035.49,96.1312 1035.99,96.0843 C1036.49,96.0374 1036.99,95.7874 1037.49,95.3343 C1037.99,94.8812 1038.45,94.2874 1038.9,93.5374 C1039.15,93.0843 1039.29,92.6312 1039.29,92.178 C1039.29,91.8343 1039.2,91.5374 1039.04,91.178 C1038.65,90.428 1037.99,89.7874 1037.09,89.2405 C1036.2,88.678 1035.24,88.178 1034.15,87.7874 C1033.04,87.3812 1031.99,87.1312 1030.95,86.9905 C1030.2,86.8343 1029.59,86.7874 1029.09,86.7874 C1028.84,86.7874 1028.63,86.7874 1028.49,86.8343"/>
<path class="Harmony" d="M1684.81,97.1312 C1685.46,97.9905 1685.91,99.1312 1686.26,100.584 C1686.6,102.037 1686.85,103.444 1687.1,104.881 C1687.35,106.334 1687.51,107.694 1687.56,108.881 L1683.76,108.491 L1679.66,108.881 L1681.76,102.631 L1684.81,97.1312 M1683.91,114.741 L1684.91,114.741 L1686.41,114.741 L1686.81,114.741 L1687.26,114.741 C1687.31,114.741 1687.46,114.787 1687.66,114.787 C1687.85,114.787 1688.01,114.787 1688.1,114.834 C1688.21,114.881 1688.31,114.944 1688.46,114.991 C1688.6,115.037 1688.71,115.084 1688.81,115.194 C1688.91,115.287 1689.06,115.334 1689.16,115.444 C1689.41,115.694 1689.66,116.194 1689.85,116.834 C1690.06,117.444 1690.26,118.084 1690.41,118.834 C1690.56,119.584 1690.71,120.334 1690.85,121.194 C1691.01,122.037 1691.21,122.787 1691.41,123.491 C1691.6,124.194 1691.91,124.834 1692.21,125.381 C1692.51,125.944 1692.85,126.287 1693.31,126.491 C1693.51,126.584 1693.76,126.631 1694.06,126.631 C1694.31,126.631 1694.62,126.584 1694.91,126.491 C1695.37,126.334 1695.71,126.131 1696.06,125.944 C1696.41,125.741 1696.66,125.537 1696.87,125.287 C1697.06,125.037 1697.21,124.787 1697.37,124.491 C1697.51,124.194 1697.62,123.991 1697.66,123.741 C1697.71,123.537 1697.71,123.334 1697.71,123.084 L1697.71,122.834 C1697.71,122.491 1697.71,122.131 1697.66,121.881 C1697.62,121.631 1697.51,121.334 1697.41,120.944 C1697.31,120.537 1697.21,120.241 1697.12,119.991 C1697.01,119.741 1696.96,119.381 1696.81,118.944 C1696.66,118.491 1696.51,118.194 1696.46,117.991 C1696.12,116.991 1695.51,114.991 1694.66,112.037 C1694.06,109.881 1693.56,108.084 1693.21,106.694 C1692.56,104.131 1692.01,102.037 1691.6,100.381 C1690.96,97.6312 1690.46,95.7874 1690.21,94.8343 C1690.16,94.6312 1690.1,94.3343 1690.01,93.928 C1689.91,93.5374 1689.85,93.178 1689.81,92.8812 C1689.76,92.5843 1689.6,92.2874 1689.51,91.8812 C1689.41,91.4905 1689.31,91.0843 1689.21,90.7874 C1689.1,90.4905 1688.91,90.1312 1688.76,89.7874 C1688.6,89.428 1688.41,89.178 1688.21,88.928 C1688.01,88.678 1687.85,88.4905 1687.6,88.2874 C1687.35,88.0843 1687.1,87.8812 1686.81,87.8343 C1686.56,87.7874 1686.31,87.7405 1686.01,87.7405 L1685.81,87.7405 C1685.46,87.7874 1685.06,87.8343 1684.6,87.9905 C1684.26,88.1312 1683.85,88.3343 1683.51,88.5843 C1683.16,88.8343 1682.81,89.0374 1682.56,89.2874 C1682.31,89.5374 1682.06,89.8812 1681.81,90.2874 C1681.56,90.678 1681.31,90.9905 1681.16,91.2874 C1681.01,91.5843 1680.81,91.9905 1680.6,92.4905 C1680.41,92.9905 1680.21,93.3812 1680.1,93.678 C1680.01,93.9905 1679.91,94.3812 1679.71,94.8812 C1679.51,95.3812 1679.35,95.7405 1679.31,95.9905 C1677.85,99.6312 1676.41,103.084 1674.96,106.444 C1672.6,111.787 1671.21,115.037 1670.81,116.241 C1670.76,116.444 1670.56,116.787 1670.31,117.334 C1670.06,117.881 1669.76,118.381 1669.51,118.881 C1669.26,119.381 1669.01,120.037 1668.71,120.694 C1668.41,121.334 1668.16,121.991 1668.01,122.537 C1667.81,123.084 1667.71,123.584 1667.71,124.037 C1667.76,124.491 1667.85,124.787 1668.1,125.037 C1668.56,125.381 1669.06,125.584 1669.6,125.584 L1669.96,125.584 C1670.66,125.491 1671.35,125.287 1672.06,124.881 C1672.76,124.491 1673.26,124.037 1673.51,123.584 C1673.81,123.037 1674.1,122.381 1674.35,121.584 C1674.6,120.787 1674.85,120.037 1675.01,119.381 C1675.16,118.741 1675.35,118.037 1675.71,117.287 C1676.06,116.537 1676.46,115.944 1676.91,115.444 L1679.6,114.584 C1679.76,114.537 1679.96,114.584 1680.31,114.584 L1681.76,114.584 C1681.91,114.584 1682.66,114.631 1683.91,114.741"/>
<path class="Harmony" d="M179.127,396.671 C178.877,396.717 178.47,396.78 177.83,396.827 C177.173,396.874 176.673,396.967 176.33,397.03 C175.97,397.077 175.47,397.124 174.877,397.217 C174.267,397.327 173.83,397.467 173.423,397.624 C173.017,397.78 172.58,397.967 172.173,398.217 C171.767,398.467 171.423,398.717 171.173,399.077 C170.83,399.421 170.58,399.827 170.377,400.217 C170.173,400.624 170.017,401.124 169.97,401.624 C169.923,401.967 169.923,402.327 169.923,402.671 L169.923,402.967 C169.97,403.327 169.97,403.827 170.017,404.421 C170.08,405.03 170.08,405.53 170.08,405.874 C170.08,411.577 170.22,417.171 170.47,422.733 C170.517,423.03 170.517,423.327 170.517,423.671 C170.47,424.733 170.423,426.124 170.33,427.78 C170.173,429.733 170.08,431.171 170.08,432.124 L170.08,432.421 L170.08,433.28 C170.08,433.53 170.173,433.78 170.22,434.077 C170.267,434.374 170.377,434.624 170.517,434.78 C170.673,434.921 170.83,435.077 171.08,435.233 C171.267,435.327 171.517,435.374 171.83,435.374 L171.97,435.374 C173.72,435.327 175.47,434.983 177.22,434.327 C178.97,433.671 180.627,432.874 182.173,431.827 C183.72,430.78 185.173,429.53 186.58,428.077 C187.97,426.624 189.173,425.124 190.173,423.53 C191.173,421.921 192.017,420.28 192.673,418.53 C193.33,416.78 193.673,415.03 193.767,413.374 C193.83,413.03 193.83,412.624 193.83,412.28 C193.83,411.327 193.72,410.327 193.517,409.327 C193.267,407.921 192.877,406.53 192.33,405.217 C191.767,403.921 191.08,402.717 190.173,401.577 C189.267,400.421 188.267,399.467 187.173,398.671 C186.08,397.874 184.877,397.28 183.47,396.921 C182.58,396.671 181.627,396.577 180.673,396.577 C180.173,396.577 179.673,396.624 179.127,396.671 M176.017,428.983 C176.017,427.53 176.08,425.421 176.127,422.733 C176.173,420.577 176.22,418.53 176.22,416.671 C176.22,416.233 176.173,415.78 176.173,415.327 C176.173,413.124 176.127,410.983 176.017,408.967 C176.017,408.717 175.97,408.28 175.877,407.53 C175.767,406.78 175.627,406.077 175.58,405.421 C175.517,405.124 175.517,404.827 175.517,404.53 C175.517,404.171 175.517,403.874 175.58,403.53 C175.673,402.874 175.877,402.374 176.22,402.124 C176.673,401.78 177.173,401.624 177.72,401.624 C177.877,401.671 178.017,401.671 178.173,401.671 C178.923,401.78 179.72,402.03 180.58,402.467 C181.423,402.921 182.22,403.53 182.97,404.124 C183.72,404.717 184.423,405.327 184.97,405.921 C185.517,406.53 185.97,406.967 186.22,407.421 C187.017,408.717 187.58,410.171 187.877,411.78 C188.017,412.671 188.127,413.577 188.127,414.483 C188.127,415.124 188.08,415.78 188.017,416.421 C187.767,417.983 187.33,419.483 186.673,420.921 C186.017,422.374 185.173,423.671 184.173,424.827 C183.127,425.983 181.923,426.874 180.517,427.624 C179.127,428.374 177.627,428.827 176.017,428.983"/>
<path class="Harmony" d="M883.749,396.874 C881.796,397.124 879.952,397.577 878.139,398.217 C876.343,398.874 874.702,399.78 873.093,400.827 C871.499,401.874 870.046,403.077 868.796,404.421 C867.546,405.78 866.499,407.327 865.593,409.077 C864.702,410.827 864.093,412.671 863.749,414.624 C863.499,415.827 863.389,417.077 863.389,418.327 L863.389,418.671 C863.389,419.874 863.452,421.03 863.593,422.171 C863.749,423.421 864.046,424.671 864.452,425.827 C864.889,427.03 865.389,428.171 865.952,429.233 C866.499,430.28 867.202,431.233 867.999,432.077 C868.796,432.921 869.796,433.624 870.796,434.233 C871.796,434.827 872.952,435.28 874.202,435.53 C875.046,435.671 875.889,435.78 876.749,435.78 C877.202,435.78 877.702,435.78 878.249,435.733 C879.796,435.577 881.249,435.233 882.593,434.733 C883.952,434.233 885.202,433.624 886.249,432.921 C887.296,432.233 888.343,431.327 889.296,430.327 C890.249,429.327 891.155,428.233 891.905,427.124 C892.655,426.03 893.343,424.78 894.093,423.374 C895.249,421.077 895.796,419.124 895.796,417.577 C895.796,416.03 895.249,414.827 894.093,413.983 C893.452,413.421 892.343,413.077 890.905,412.827 C889.843,412.671 888.796,412.577 887.749,412.577 L887.499,412.577 L886.389,412.577 C884.843,412.624 883.389,412.874 881.999,413.327 C880.593,413.78 879.639,414.327 879.139,414.983 C878.999,415.233 878.843,415.421 878.702,415.624 C878.343,416.171 878.139,416.671 878.139,417.124 C878.139,417.78 878.593,418.233 879.452,418.483 C880.139,418.671 881.499,418.78 883.452,418.78 L883.889,418.78 C884.546,418.827 885.046,418.827 885.389,418.827 C887.452,418.827 888.702,419.077 889.093,419.624 C889.249,419.827 889.405,420.124 889.405,420.421 C889.405,420.733 889.343,421.03 889.296,421.327 C889.249,421.624 889.093,421.983 888.952,422.374 C888.796,422.78 888.639,423.077 888.499,423.327 C888.343,423.577 888.202,423.921 887.999,424.327 C887.796,424.733 887.639,424.921 887.593,425.03 C887.343,425.483 887.202,425.827 887.046,426.077 C886.889,426.327 886.702,426.577 886.452,426.921 C886.202,427.28 885.889,427.577 885.639,427.78 C884.593,428.577 883.452,429.124 882.093,429.374 L880.389,429.577 L880.202,429.577 C879.546,429.53 878.843,429.483 878.202,429.327 C876.952,429.077 875.702,428.624 874.546,427.921 C873.389,427.233 872.389,426.374 871.639,425.374 C870.889,424.327 870.202,423.077 869.702,421.671 C869.202,420.28 868.889,418.827 868.796,417.28 C868.749,416.733 868.749,416.233 868.749,415.671 C868.749,414.671 868.796,413.671 868.952,412.733 C869.202,411.28 869.639,409.874 870.343,408.577 C871.046,407.28 871.952,406.217 873.046,405.421 C874.389,404.374 876.046,403.624 877.952,403.124 C878.999,402.827 880.046,402.671 881.046,402.671 C881.749,402.671 882.452,402.78 883.093,402.921 C883.639,403.077 884.202,403.28 884.843,403.577 C885.499,403.874 886.046,404.171 886.546,404.467 C887.046,404.78 887.593,405.077 888.139,405.374 C888.702,405.671 889.249,405.921 889.749,406.03 C890.249,406.124 890.749,406.171 891.249,406.124 C891.749,406.077 892.249,405.827 892.749,405.374 C893.249,404.921 893.702,404.327 894.155,403.577 C894.405,403.124 894.546,402.671 894.546,402.217 C894.546,401.874 894.452,401.577 894.296,401.217 C893.905,400.467 893.249,399.827 892.343,399.28 C891.452,398.717 890.499,398.217 889.405,397.827 C888.296,397.421 887.249,397.171 886.202,397.03 C885.452,396.874 884.843,396.827 884.343,396.827 C884.093,396.827 883.889,396.827 883.749,396.874"/>
<path class="Harmony" d="M1574.21,407.171 C1574.87,408.03 1575.32,409.171 1575.67,410.624 C1576.01,412.077 1576.26,413.483 1576.51,414.921 C1576.76,416.374 1576.92,417.733 1576.96,418.921 L1573.17,418.53 L1569.07,418.921 L1571.17,412.671 L1574.21,407.171 M1573.32,424.78 L1574.32,424.78 L1575.82,424.78 L1576.21,424.78 L1576.67,424.78 C1576.71,424.78 1576.87,424.827 1577.07,424.827 C1577.26,424.827 1577.42,424.827 1577.51,424.874 C1577.62,424.921 1577.71,424.983 1577.87,425.03 C1578.01,425.077 1578.12,425.124 1578.21,425.233 C1578.32,425.327 1578.46,425.374 1578.57,425.483 C1578.82,425.733 1579.07,426.233 1579.26,426.874 C1579.46,427.483 1579.67,428.124 1579.82,428.874 C1579.96,429.624 1580.12,430.374 1580.26,431.233 C1580.42,432.077 1580.62,432.827 1580.82,433.53 C1581.01,434.233 1581.32,434.874 1581.62,435.421 C1581.92,435.983 1582.26,436.327 1582.71,436.53 C1582.92,436.624 1583.17,436.671 1583.46,436.671 C1583.71,436.671 1584.03,436.624 1584.32,436.53 C1584.78,436.374 1585.12,436.171 1585.46,435.983 C1585.82,435.78 1586.07,435.577 1586.28,435.327 C1586.46,435.077 1586.62,434.827 1586.78,434.53 C1586.92,434.233 1587.03,434.03 1587.07,433.78 C1587.12,433.577 1587.12,433.374 1587.12,433.124 L1587.12,432.874 C1587.12,432.53 1587.12,432.171 1587.07,431.921 C1587.03,431.671 1586.92,431.374 1586.82,430.983 C1586.71,430.577 1586.62,430.28 1586.53,430.03 C1586.42,429.78 1586.37,429.421 1586.21,428.983 C1586.07,428.53 1585.92,428.233 1585.87,428.03 C1585.53,427.03 1584.92,425.03 1584.07,422.077 C1583.46,419.921 1582.96,418.124 1582.62,416.733 C1581.96,414.171 1581.42,412.077 1581.01,410.421 C1580.37,407.671 1579.87,405.827 1579.62,404.874 C1579.57,404.671 1579.51,404.374 1579.42,403.967 C1579.32,403.577 1579.26,403.217 1579.21,402.921 C1579.17,402.624 1579.01,402.327 1578.92,401.921 C1578.82,401.53 1578.71,401.124 1578.62,400.827 C1578.51,400.53 1578.32,400.171 1578.17,399.827 C1578.01,399.467 1577.82,399.217 1577.62,398.967 C1577.42,398.717 1577.26,398.53 1577.01,398.327 C1576.76,398.124 1576.51,397.921 1576.21,397.874 C1575.96,397.827 1575.71,397.78 1575.42,397.78 L1575.21,397.78 C1574.87,397.827 1574.46,397.874 1574.01,398.03 C1573.67,398.171 1573.26,398.374 1572.92,398.624 C1572.57,398.874 1572.21,399.077 1571.96,399.327 C1571.71,399.577 1571.46,399.921 1571.21,400.327 C1570.96,400.717 1570.71,401.03 1570.57,401.327 C1570.42,401.624 1570.21,402.03 1570.01,402.53 C1569.82,403.03 1569.62,403.421 1569.51,403.717 C1569.42,404.03 1569.32,404.421 1569.12,404.921 C1568.92,405.421 1568.76,405.78 1568.71,406.03 C1567.26,409.671 1565.82,413.124 1564.37,416.483 C1562.01,421.827 1560.62,425.077 1560.21,426.28 C1560.17,426.483 1559.96,426.827 1559.71,427.374 C1559.46,427.921 1559.17,428.421 1558.92,428.921 C1558.67,429.421 1558.42,430.077 1558.12,430.733 C1557.82,431.374 1557.57,432.03 1557.42,432.577 C1557.21,433.124 1557.12,433.624 1557.12,434.077 C1557.17,434.53 1557.26,434.827 1557.51,435.077 C1557.96,435.421 1558.46,435.624 1559.01,435.624 L1559.37,435.624 C1560.07,435.53 1560.76,435.327 1561.46,434.921 C1562.17,434.53 1562.67,434.077 1562.92,433.624 C1563.21,433.077 1563.51,432.421 1563.76,431.624 C1564.01,430.827 1564.26,430.077 1564.42,429.421 C1564.57,428.78 1564.76,428.077 1565.12,427.327 C1565.46,426.577 1565.87,425.983 1566.32,425.483 L1569.01,424.624 C1569.17,424.577 1569.37,424.624 1569.71,424.624 L1571.17,424.624 C1571.32,424.624 1572.07,424.671 1573.32,424.78"/>
<path class="Harmony" d="M2578.28,396.671 C2578.03,396.717 2577.62,396.78 2576.98,396.827 C2576.33,396.874 2575.83,396.967 2575.48,397.03 C2575.12,397.077 2574.62,397.124 2574.03,397.217 C2573.42,397.327 2572.98,397.467 2572.58,397.624 C2572.17,397.78 2571.73,397.967 2571.33,398.217 C2570.92,398.467 2570.58,398.717 2570.33,399.077 C2569.98,399.421 2569.73,399.827 2569.53,400.217 C2569.33,400.624 2569.17,401.124 2569.12,401.624 C2569.08,401.967 2569.08,402.327 2569.08,402.671 L2569.08,402.967 C2569.12,403.327 2569.12,403.827 2569.17,404.421 C2569.23,405.03 2569.23,405.53 2569.23,405.874 C2569.23,411.577 2569.37,417.171 2569.62,422.733 C2569.67,423.03 2569.67,423.327 2569.67,423.671 C2569.62,424.733 2569.58,426.124 2569.48,427.78 C2569.33,429.733 2569.23,431.171 2569.23,432.124 L2569.23,432.421 L2569.23,433.28 C2569.23,433.53 2569.33,433.78 2569.37,434.077 C2569.42,434.374 2569.53,434.624 2569.67,434.78 C2569.83,434.921 2569.98,435.077 2570.23,435.233 C2570.42,435.327 2570.67,435.374 2570.98,435.374 L2571.12,435.374 C2572.87,435.327 2574.62,434.983 2576.37,434.327 C2578.12,433.671 2579.78,432.874 2581.33,431.827 C2582.87,430.78 2584.33,429.53 2585.73,428.077 C2587.12,426.624 2588.33,425.124 2589.33,423.53 C2590.33,421.921 2591.17,420.28 2591.83,418.53 C2592.48,416.78 2592.83,415.03 2592.92,413.374 C2592.98,413.03 2592.98,412.624 2592.98,412.28 C2592.98,411.327 2592.87,410.327 2592.67,409.327 C2592.42,407.921 2592.03,406.53 2591.48,405.217 C2590.92,403.921 2590.23,402.717 2589.33,401.577 C2588.42,400.421 2587.42,399.467 2586.33,398.671 C2585.23,397.874 2584.03,397.28 2582.62,396.921 C2581.73,396.671 2580.78,396.577 2579.83,396.577 C2579.33,396.577 2578.83,396.624 2578.28,396.671 M2575.17,428.983 C2575.17,427.53 2575.23,425.421 2575.28,422.733 C2575.33,420.577 2575.37,418.53 2575.37,416.671 C2575.37,416.233 2575.33,415.78 2575.33,415.327 C2575.33,413.124 2575.28,410.983 2575.17,408.967 C2575.17,408.717 2575.12,408.28 2575.03,407.53 C2574.92,406.78 2574.78,406.077 2574.73,405.421 C2574.67,405.124 2574.67,404.827 2574.67,404.53 C2574.67,404.171 2574.67,403.874 2574.73,403.53 C2574.83,402.874 2575.03,402.374 2575.37,402.124 C2575.83,401.78 2576.33,401.624 2576.87,401.624 C2577.03,401.671 2577.17,401.671 2577.33,401.671 C2578.08,401.78 2578.87,402.03 2579.73,402.467 C2580.58,402.921 2581.37,403.53 2582.12,404.124 C2582.87,404.717 2583.58,405.327 2584.12,405.921 C2584.67,406.53 2585.12,406.967 2585.37,407.421 C2586.17,408.717 2586.73,410.171 2587.03,411.78 C2587.17,412.671 2587.28,413.577 2587.28,414.483 C2587.28,415.124 2587.23,415.78 2587.17,416.421 C2586.92,417.983 2586.48,419.483 2585.83,420.921 C2585.17,422.374 2584.33,423.671 2583.33,424.827 C2582.28,425.983 2581.08,426.874 2579.67,427.624 C2578.28,428.374 2576.78,428.827 2575.17,428.983"/>
<path class="Harmony" d="M179.127,714.253 C178.877,714.3 178.47,714.362 177.83,714.409 C177.173,714.456 176.673,714.55 176.33,714.612 C175.97,714.659 175.47,714.706 174.877,714.8 C174.267,714.909 173.83,715.05 173.423,715.206 C173.017,715.362 172.58,715.55 172.173,715.8 C171.767,716.05 171.423,716.3 171.173,716.659 C170.83,717.003 170.58,717.409 170.377,717.8 C170.173,718.206 170.017,718.706 169.97,719.206 C169.923,719.55 169.923,719.909 169.923,720.253 L169.923,720.55 C169.97,720.909 169.97,721.409 170.017,722.003 C170.08,722.612 170.08,723.112 170.08,723.456 C170.08,729.159 170.22,734.753 170.47,740.315 C170.517,740.612 170.517,740.909 170.517,741.253 C170.47,742.315 170.423,743.706 170.33,745.362 C170.173,747.315 170.08,748.753 170.08,749.706 L170.08,750.003 L170.08,750.862 C170.08,751.112 170.173,751.362 170.22,751.659 C170.267,751.956 170.377,752.206 170.517,752.362 C170.673,752.503 170.83,752.659 171.08,752.815 C171.267,752.909 171.517,752.956 171.83,752.956 L171.97,752.956 C173.72,752.909 175.47,752.565 177.22,751.909 C178.97,751.253 180.627,750.456 182.173,749.409 C183.72,748.362 185.173,747.112 186.58,745.659 C187.97,744.206 189.173,742.706 190.173,741.112 C191.173,739.503 192.017,737.862 192.673,736.112 C193.33,734.362 193.673,732.612 193.767,730.956 C193.83,730.612 193.83,730.206 193.83,729.862 C193.83,728.909 193.72,727.909 193.517,726.909 C193.267,725.503 192.877,724.112 192.33,722.8 C191.767,721.503 191.08,720.3 190.173,719.159 C189.267,718.003 188.267,717.05 187.173,716.253 C186.08,715.456 184.877,714.862 183.47,714.503 C182.58,714.253 181.627,714.159 180.673,714.159 C180.173,714.159 179.673,714.206 179.127,714.253 M176.017,746.565 C176.017,745.112 176.08,743.003 176.127,740.315 C176.173,738.159 176.22,736.112 176.22,734.253 C176.22,733.815 176.173,733.362 176.173,732.909 C176.173,730.706 176.127,728.565 176.017,726.55 C176.017,726.3 175.97,725.862 175.877,725.112 C175.767,724.362 175.627,723.659 175.58,723.003 C175.517,722.706 175.517,722.409 175.517,722.112 C175.517,721.753 175.517,721.456 175.58,721.112 C175.673,720.456 175.877,719.956 176.22,719.706 C176.673,719.362 177.173,719.206 177.72,719.206 C177.877,719.253 178.017,719.253 178.173,719.253 C178.923,719.362 179.72,719.612 180.58,720.05 C181.423,720.503 182.22,721.112 182.97,721.706 C183.72,722.3 184.423,722.909 184.97,723.503 C185.517,724.112 185.97,724.55 186.22,725.003 C187.017,726.3 187.58,727.753 187.877,729.362 C188.017,730.253 188.127,731.159 188.127,732.065 C188.127,732.706 188.08,733.362 188.017,734.003 C187.767,735.565 187.33,737.065 186.673,738.503 C186.017,739.956 185.173,741.253 184.173,742.409 C183.127,743.565 181.923,744.456 180.517,745.206 C179.127,745.956 177.627,746.409 176.017,746.565"/>
<path class="Harmony" d="M883.319,714.253 C883.069,714.3 882.663,714.362 882.022,714.409 C881.366,714.456 880.866,714.55 880.522,714.612 C880.163,714.659 879.663,714.706 879.069,714.8 C878.459,714.909 878.022,715.05 877.616,715.206 C877.209,715.362 876.772,715.55 876.366,715.8 C875.959,716.05 875.616,716.3 875.366,716.659 C875.022,717.003 874.772,717.409 874.569,717.8 C874.366,718.206 874.209,718.706 874.163,719.206 C874.116,719.55 874.116,719.909 874.116,720.253 L874.116,720.55 C874.163,720.909 874.163,721.409 874.209,722.003 C874.272,722.612 874.272,723.112 874.272,723.456 C874.272,729.159 874.413,734.753 874.663,740.315 C874.709,740.612 874.709,740.909 874.709,741.253 C874.663,742.315 874.616,743.706 874.522,745.362 C874.366,747.315 874.272,748.753 874.272,749.706 L874.272,750.003 L874.272,750.862 C874.272,751.112 874.366,751.362 874.413,751.659 C874.459,751.956 874.569,752.206 874.709,752.362 C874.866,752.503 875.022,752.659 875.272,752.815 C875.459,752.909 875.709,752.956 876.022,752.956 L876.163,752.956 C877.913,752.909 879.663,752.565 881.413,751.909 C883.163,751.253 884.819,750.456 886.366,749.409 C887.913,748.362 889.366,747.112 890.772,745.659 C892.163,744.206 893.366,742.706 894.366,741.112 C895.366,739.503 896.209,737.862 896.866,736.112 C897.522,734.362 897.866,732.612 897.959,730.956 C898.022,730.612 898.022,730.206 898.022,729.862 C898.022,728.909 897.913,727.909 897.709,726.909 C897.459,725.503 897.069,724.112 896.522,722.8 C895.959,721.503 895.272,720.3 894.366,719.159 C893.459,718.003 892.459,717.05 891.366,716.253 C890.272,715.456 889.069,714.862 887.663,714.503 C886.772,714.253 885.819,714.159 884.866,714.159 C884.366,714.159 883.866,714.206 883.319,714.253 M880.209,746.565 C880.209,745.112 880.272,743.003 880.319,740.315 C880.366,738.159 880.413,736.112 880.413,734.253 C880.413,733.815 880.366,733.362 880.366,732.909 C880.366,730.706 880.319,728.565 880.209,726.55 C880.209,726.3 880.163,725.862 880.069,725.112 C879.959,724.362 879.819,723.659 879.772,723.003 C879.709,722.706 879.709,722.409 879.709,722.112 C879.709,721.753 879.709,721.456 879.772,721.112 C879.866,720.456 880.069,719.956 880.413,719.706 C880.866,719.362 881.366,719.206 881.913,719.206 C882.069,719.253 882.209,719.253 882.366,719.253 C883.116,719.362 883.913,719.612 884.772,720.05 C885.616,720.503 886.413,721.112 887.163,721.706 C887.913,722.3 888.616,722.909 889.163,723.503 C889.709,724.112 890.163,724.55 890.413,725.003 C891.209,726.3 891.772,727.753 892.069,729.362 C892.209,730.253 892.319,731.159 892.319,732.065 C892.319,732.706 892.272,733.362 892.209,734.003 C891.959,735.565 891.522,737.065 890.866,738.503 C890.209,739.956 889.366,741.253 888.366,742.409 C887.319,743.565 886.116,744.456 884.709,745.206 C883.319,745.956 881.819,746.409 880.209,746.565"/>
<path class="Harmony" d="M1595.35,724.753 C1596.01,725.612 1596.46,726.753 1596.81,728.206 C1597.15,729.659 1597.4,731.065 1597.65,732.503 C1597.9,733.956 1598.06,735.315 1598.1,736.503 L1594.31,736.112 L1590.21,736.503 L1592.31,730.253 L1595.35,724.753 M1594.46,742.362 L1595.46,742.362 L1596.96,742.362 L1597.35,742.362 L1597.81,742.362 C1597.85,742.362 1598.01,742.409 1598.21,742.409 C1598.4,742.409 1598.56,742.409 1598.65,742.456 C1598.76,742.503 1598.85,742.565 1599.01,742.612 C1599.15,742.659 1599.26,742.706 1599.35,742.815 C1599.46,742.909 1599.6,742.956 1599.71,743.065 C1599.96,743.315 1600.21,743.815 1600.4,744.456 C1600.6,745.065 1600.81,745.706 1600.96,746.456 C1601.1,747.206 1601.26,747.956 1601.4,748.815 C1601.56,749.659 1601.76,750.409 1601.96,751.112 C1602.15,751.815 1602.46,752.456 1602.76,753.003 C1603.06,753.565 1603.4,753.909 1603.85,754.112 C1604.06,754.206 1604.31,754.253 1604.6,754.253 C1604.85,754.253 1605.17,754.206 1605.46,754.112 C1605.92,753.956 1606.26,753.753 1606.6,753.565 C1606.96,753.362 1607.21,753.159 1607.42,752.909 C1607.6,752.659 1607.76,752.409 1607.92,752.112 C1608.06,751.815 1608.17,751.612 1608.21,751.362 C1608.26,751.159 1608.26,750.956 1608.26,750.706 L1608.26,750.456 C1608.26,750.112 1608.26,749.753 1608.21,749.503 C1608.17,749.253 1608.06,748.956 1607.96,748.565 C1607.85,748.159 1607.76,747.862 1607.67,747.612 C1607.56,747.362 1607.51,747.003 1607.35,746.565 C1607.21,746.112 1607.06,745.815 1607.01,745.612 C1606.67,744.612 1606.06,742.612 1605.21,739.659 C1604.6,737.503 1604.1,735.706 1603.76,734.315 C1603.1,731.753 1602.56,729.659 1602.15,728.003 C1601.51,725.253 1601.01,723.409 1600.76,722.456 C1600.71,722.253 1600.65,721.956 1600.56,721.55 C1600.46,721.159 1600.4,720.8 1600.35,720.503 C1600.31,720.206 1600.15,719.909 1600.06,719.503 C1599.96,719.112 1599.85,718.706 1599.76,718.409 C1599.65,718.112 1599.46,717.753 1599.31,717.409 C1599.15,717.05 1598.96,716.8 1598.76,716.55 C1598.56,716.3 1598.4,716.112 1598.15,715.909 C1597.9,715.706 1597.65,715.503 1597.35,715.456 C1597.1,715.409 1596.85,715.362 1596.56,715.362 L1596.35,715.362 C1596.01,715.409 1595.6,715.456 1595.15,715.612 C1594.81,715.753 1594.4,715.956 1594.06,716.206 C1593.71,716.456 1593.35,716.659 1593.1,716.909 C1592.85,717.159 1592.6,717.503 1592.35,717.909 C1592.1,718.3 1591.85,718.612 1591.71,718.909 C1591.56,719.206 1591.35,719.612 1591.15,720.112 C1590.96,720.612 1590.76,721.003 1590.65,721.3 C1590.56,721.612 1590.46,722.003 1590.26,722.503 C1590.06,723.003 1589.9,723.362 1589.85,723.612 C1588.4,727.253 1586.96,730.706 1585.51,734.065 C1583.15,739.409 1581.76,742.659 1581.35,743.862 C1581.31,744.065 1581.1,744.409 1580.85,744.956 C1580.6,745.503 1580.31,746.003 1580.06,746.503 C1579.81,747.003 1579.56,747.659 1579.26,748.315 C1578.96,748.956 1578.71,749.612 1578.56,750.159 C1578.35,750.706 1578.26,751.206 1578.26,751.659 C1578.31,752.112 1578.4,752.409 1578.65,752.659 C1579.1,753.003 1579.6,753.206 1580.15,753.206 L1580.51,753.206 C1581.21,753.112 1581.9,752.909 1582.6,752.503 C1583.31,752.112 1583.81,751.659 1584.06,751.206 C1584.35,750.659 1584.65,750.003 1584.9,749.206 C1585.15,748.409 1585.4,747.659 1585.56,747.003 C1585.71,746.362 1585.9,745.659 1586.26,744.909 C1586.6,744.159 1587.01,743.565 1587.46,743.065 L1590.15,742.206 C1590.31,742.159 1590.51,742.206 1590.85,742.206 L1592.31,742.206 C1592.46,742.206 1593.21,742.253 1594.46,742.362"/>
<path class="Harmony" d="M2299.55,724.753 C2300.2,725.612 2300.66,726.753 2301,728.206 C2301.34,729.659 2301.59,731.065 2301.84,732.503 C2302.09,733.956 2302.25,735.315 2302.3,736.503 L2298.5,736.112 L2294.41,736.503 L2296.5,730.253 L2299.55,724.753 M2298.66,742.362 L2299.66,742.362 L2301.16,742.362 L2301.55,742.362 L2302,742.362 C2302.05,742.362 2302.2,742.409 2302.41,742.409 C2302.59,742.409 2302.75,742.409 2302.84,742.456 C2302.95,742.503 2303.05,742.565 2303.2,742.612 C2303.34,742.659 2303.45,742.706 2303.55,742.815 C2303.66,742.909 2303.8,742.956 2303.91,743.065 C2304.16,743.315 2304.41,743.815 2304.59,744.456 C2304.8,745.065 2305,745.706 2305.16,746.456 C2305.3,747.206 2305.45,747.956 2305.59,748.815 C2305.75,749.659 2305.95,750.409 2306.16,751.112 C2306.34,751.815 2306.66,752.456 2306.95,753.003 C2307.25,753.565 2307.59,753.909 2308.05,754.112 C2308.25,754.206 2308.5,754.253 2308.8,754.253 C2309.05,754.253 2309.36,754.206 2309.66,754.112 C2310.11,753.956 2310.45,753.753 2310.8,753.565 C2311.16,753.362 2311.41,753.159 2311.61,752.909 C2311.8,752.659 2311.95,752.409 2312.11,752.112 C2312.25,751.815 2312.36,751.612 2312.41,751.362 C2312.45,751.159 2312.45,750.956 2312.45,750.706 L2312.45,750.456 C2312.45,750.112 2312.45,749.753 2312.41,749.503 C2312.36,749.253 2312.25,748.956 2312.16,748.565 C2312.05,748.159 2311.95,747.862 2311.86,747.612 C2311.75,747.362 2311.7,747.003 2311.55,746.565 C2311.41,746.112 2311.25,745.815 2311.2,745.612 C2310.86,744.612 2310.25,742.612 2309.41,739.659 C2308.8,737.503 2308.3,735.706 2307.95,734.315 C2307.3,731.753 2306.75,729.659 2306.34,728.003 C2305.7,725.253 2305.2,723.409 2304.95,722.456 C2304.91,722.253 2304.84,721.956 2304.75,721.55 C2304.66,721.159 2304.59,720.8 2304.55,720.503 C2304.5,720.206 2304.34,719.909 2304.25,719.503 C2304.16,719.112 2304.05,718.706 2303.95,718.409 C2303.84,718.112 2303.66,717.753 2303.5,717.409 C2303.34,717.05 2303.16,716.8 2302.95,716.55 C2302.75,716.3 2302.59,716.112 2302.34,715.909 C2302.09,715.706 2301.84,715.503 2301.55,715.456 C2301.3,715.409 2301.05,715.362 2300.75,715.362 L2300.55,715.362 C2300.2,715.409 2299.8,715.456 2299.34,715.612 C2299,715.753 2298.59,715.956 2298.25,716.206 C2297.91,716.456 2297.55,716.659 2297.3,716.909 C2297.05,717.159 2296.8,717.503 2296.55,717.909 C2296.3,718.3 2296.05,718.612 2295.91,718.909 C2295.75,719.206 2295.55,719.612 2295.34,720.112 C2295.16,720.612 2294.95,721.003 2294.84,721.3 C2294.75,721.612 2294.66,722.003 2294.45,722.503 C2294.25,723.003 2294.09,723.362 2294.05,723.612 C2292.59,727.253 2291.16,730.706 2289.7,734.065 C2287.34,739.409 2285.95,742.659 2285.55,743.862 C2285.5,744.065 2285.3,744.409 2285.05,744.956 C2284.8,745.503 2284.5,746.003 2284.25,746.503 C2284,747.003 2283.75,747.659 2283.45,748.315 C2283.16,748.956 2282.91,749.612 2282.75,750.159 C2282.55,750.706 2282.45,751.206 2282.45,751.659 C2282.5,752.112 2282.59,752.409 2282.84,752.659 C2283.3,753.003 2283.8,753.206 2284.34,753.206 L2284.7,753.206 C2285.41,753.112 2286.09,752.909 2286.8,752.503 C2287.5,752.112 2288,751.659 2288.25,751.206 C2288.55,750.659 2288.84,750.003 2289.09,749.206 C2289.34,748.409 2289.59,747.659 2289.75,747.003 C2289.91,746.362 2290.09,745.659 2290.45,744.909 C2290.8,744.159 2291.2,743.565 2291.66,743.065 L2294.34,742.206 C2294.5,742.159 2294.7,742.206 2295.05,742.206 L2296.5,742.206 C2296.66,742.206 2297.41,742.253 2298.66,742.362"/>
<path class="Harmony" d="M186.97,1034.79 C187.627,1035.65 188.08,1036.79 188.423,1038.25 C188.767,1039.7 189.017,1041.1 189.267,1042.54 C189.517,1044 189.673,1045.35 189.72,1046.54 L185.923,1046.15 L181.83,1046.54 L183.923,1040.29 L186.97,1034.79 M186.08,1052.4 L187.08,1052.4 L188.58,1052.4 L188.97,1052.4 L189.423,1052.4 C189.47,1052.4 189.627,1052.45 189.83,1052.45 C190.017,1052.45 190.173,1052.45 190.267,1052.5 C190.377,1052.54 190.47,1052.6 190.627,1052.65 C190.767,1052.7 190.877,1052.75 190.97,1052.85 C191.08,1052.95 191.22,1053 191.33,1053.1 C191.58,1053.35 191.83,1053.85 192.017,1054.5 C192.22,1055.1 192.423,1055.75 192.58,1056.5 C192.72,1057.25 192.877,1058 193.017,1058.85 C193.173,1059.7 193.377,1060.45 193.58,1061.15 C193.767,1061.85 194.08,1062.5 194.377,1063.04 C194.673,1063.6 195.017,1063.95 195.47,1064.15 C195.673,1064.25 195.923,1064.29 196.22,1064.29 C196.47,1064.29 196.783,1064.25 197.08,1064.15 C197.533,1064 197.877,1063.79 198.22,1063.6 C198.58,1063.4 198.83,1063.2 199.033,1062.95 C199.22,1062.7 199.377,1062.45 199.533,1062.15 C199.673,1061.85 199.783,1061.65 199.83,1061.4 C199.877,1061.2 199.877,1061 199.877,1060.75 L199.877,1060.5 C199.877,1060.15 199.877,1059.79 199.83,1059.54 C199.783,1059.29 199.673,1059 199.58,1058.6 C199.47,1058.2 199.377,1057.9 199.283,1057.65 C199.173,1057.4 199.127,1057.04 198.97,1056.6 C198.83,1056.15 198.673,1055.85 198.627,1055.65 C198.283,1054.65 197.673,1052.65 196.83,1049.7 C196.22,1047.54 195.72,1045.75 195.377,1044.35 C194.72,1041.79 194.173,1039.7 193.767,1038.04 C193.127,1035.29 192.627,1033.45 192.377,1032.5 C192.33,1032.29 192.267,1032 192.173,1031.59 C192.08,1031.2 192.017,1030.84 191.97,1030.54 C191.923,1030.25 191.767,1029.95 191.673,1029.54 C191.58,1029.15 191.47,1028.75 191.377,1028.45 C191.267,1028.15 191.08,1027.79 190.923,1027.45 C190.767,1027.09 190.58,1026.84 190.377,1026.59 C190.173,1026.34 190.017,1026.15 189.767,1025.95 C189.517,1025.75 189.267,1025.54 188.97,1025.5 C188.72,1025.45 188.47,1025.4 188.173,1025.4 L187.97,1025.4 C187.627,1025.45 187.22,1025.5 186.767,1025.65 C186.423,1025.79 186.017,1026 185.673,1026.25 C185.33,1026.5 184.97,1026.7 184.72,1026.95 C184.47,1027.2 184.22,1027.54 183.97,1027.95 C183.72,1028.34 183.47,1028.65 183.33,1028.95 C183.173,1029.25 182.97,1029.65 182.767,1030.15 C182.58,1030.65 182.377,1031.04 182.267,1031.34 C182.173,1031.65 182.08,1032.04 181.877,1032.54 C181.673,1033.04 181.517,1033.4 181.47,1033.65 C180.017,1037.29 178.58,1040.75 177.127,1044.1 C174.767,1049.45 173.377,1052.7 172.97,1053.9 C172.923,1054.1 172.72,1054.45 172.47,1055 C172.22,1055.54 171.923,1056.04 171.673,1056.54 C171.423,1057.04 171.173,1057.7 170.877,1058.35 C170.58,1059 170.33,1059.65 170.173,1060.2 C169.97,1060.75 169.877,1061.25 169.877,1061.7 C169.923,1062.15 170.017,1062.45 170.267,1062.7 C170.72,1063.04 171.22,1063.25 171.767,1063.25 L172.127,1063.25 C172.83,1063.15 173.517,1062.95 174.22,1062.54 C174.923,1062.15 175.423,1061.7 175.673,1061.25 C175.97,1060.7 176.267,1060.04 176.517,1059.25 C176.767,1058.45 177.017,1057.7 177.173,1057.04 C177.33,1056.4 177.517,1055.7 177.877,1054.95 C178.22,1054.2 178.627,1053.6 179.08,1053.1 L181.767,1052.25 C181.923,1052.2 182.127,1052.25 182.47,1052.25 L183.923,1052.25 C184.08,1052.25 184.83,1052.29 186.08,1052.4"/>
<path class="Harmony" d="M860.657,1024.29 C860.407,1024.34 860.001,1024.4 859.36,1024.45 C858.704,1024.5 858.204,1024.59 857.86,1024.65 C857.501,1024.7 857.001,1024.75 856.407,1024.84 C855.798,1024.95 855.36,1025.09 854.954,1025.25 C854.548,1025.4 854.11,1025.59 853.704,1025.84 C853.298,1026.09 852.954,1026.34 852.704,1026.7 C852.36,1027.04 852.11,1027.45 851.907,1027.84 C851.704,1028.25 851.548,1028.75 851.501,1029.25 C851.454,1029.59 851.454,1029.95 851.454,1030.29 L851.454,1030.59 C851.501,1030.95 851.501,1031.45 851.548,1032.04 C851.61,1032.65 851.61,1033.15 851.61,1033.5 C851.61,1039.2 851.751,1044.79 852.001,1050.35 C852.048,1050.65 852.048,1050.95 852.048,1051.29 C852.001,1052.35 851.954,1053.75 851.86,1055.4 C851.704,1057.35 851.61,1058.79 851.61,1059.75 L851.61,1060.04 L851.61,1060.9 C851.61,1061.15 851.704,1061.4 851.751,1061.7 C851.798,1062 851.907,1062.25 852.048,1062.4 C852.204,1062.54 852.36,1062.7 852.61,1062.85 C852.798,1062.95 853.048,1063 853.36,1063 L853.501,1063 C855.251,1062.95 857.001,1062.6 858.751,1061.95 C860.501,1061.29 862.157,1060.5 863.704,1059.45 C865.251,1058.4 866.704,1057.15 868.11,1055.7 C869.501,1054.25 870.704,1052.75 871.704,1051.15 C872.704,1049.54 873.548,1047.9 874.204,1046.15 C874.86,1044.4 875.204,1042.65 875.298,1041 C875.36,1040.65 875.36,1040.25 875.36,1039.9 C875.36,1038.95 875.251,1037.95 875.048,1036.95 C874.798,1035.54 874.407,1034.15 873.86,1032.84 C873.298,1031.54 872.61,1030.34 871.704,1029.2 C870.798,1028.04 869.798,1027.09 868.704,1026.29 C867.61,1025.5 866.407,1024.9 865.001,1024.54 C864.11,1024.29 863.157,1024.2 862.204,1024.2 C861.704,1024.2 861.204,1024.25 860.657,1024.29 M857.548,1056.6 C857.548,1055.15 857.61,1053.04 857.657,1050.35 C857.704,1048.2 857.751,1046.15 857.751,1044.29 C857.751,1043.85 857.704,1043.4 857.704,1042.95 C857.704,1040.75 857.657,1038.6 857.548,1036.59 C857.548,1036.34 857.501,1035.9 857.407,1035.15 C857.298,1034.4 857.157,1033.7 857.11,1033.04 C857.048,1032.75 857.048,1032.45 857.048,1032.15 C857.048,1031.79 857.048,1031.5 857.11,1031.15 C857.204,1030.5 857.407,1030 857.751,1029.75 C858.204,1029.4 858.704,1029.25 859.251,1029.25 C859.407,1029.29 859.548,1029.29 859.704,1029.29 C860.454,1029.4 861.251,1029.65 862.11,1030.09 C862.954,1030.54 863.751,1031.15 864.501,1031.75 C865.251,1032.34 865.954,1032.95 866.501,1033.54 C867.048,1034.15 867.501,1034.59 867.751,1035.04 C868.548,1036.34 869.11,1037.79 869.407,1039.4 C869.548,1040.29 869.657,1041.2 869.657,1042.1 C869.657,1042.75 869.61,1043.4 869.548,1044.04 C869.298,1045.6 868.86,1047.1 868.204,1048.54 C867.548,1050 866.704,1051.29 865.704,1052.45 C864.657,1053.6 863.454,1054.5 862.048,1055.25 C860.657,1056 859.157,1056.45 857.548,1056.6"/>
<path class="Harmony" d="M1558.31,1024.29 C1558.06,1024.34 1557.65,1024.4 1557.01,1024.45 C1556.36,1024.5 1555.86,1024.59 1555.51,1024.65 C1555.15,1024.7 1554.65,1024.75 1554.06,1024.84 C1553.45,1024.95 1553.01,1025.09 1552.61,1025.25 C1552.2,1025.4 1551.76,1025.59 1551.36,1025.84 C1550.95,1026.09 1550.61,1026.34 1550.36,1026.7 C1550.01,1027.04 1549.76,1027.45 1549.56,1027.84 C1549.36,1028.25 1549.2,1028.75 1549.15,1029.25 C1549.11,1029.59 1549.11,1029.95 1549.11,1030.29 L1549.11,1030.59 C1549.15,1030.95 1549.15,1031.45 1549.2,1032.04 C1549.26,1032.65 1549.26,1033.15 1549.26,1033.5 C1549.26,1039.2 1549.4,1044.79 1549.65,1050.35 C1549.7,1050.65 1549.7,1050.95 1549.7,1051.29 C1549.65,1052.35 1549.61,1053.75 1549.51,1055.4 C1549.36,1057.35 1549.26,1058.79 1549.26,1059.75 L1549.26,1060.04 L1549.26,1060.9 C1549.26,1061.15 1549.36,1061.4 1549.4,1061.7 C1549.45,1062 1549.56,1062.25 1549.7,1062.4 C1549.86,1062.54 1550.01,1062.7 1550.26,1062.85 C1550.45,1062.95 1550.7,1063 1551.01,1063 L1551.15,1063 C1552.9,1062.95 1554.65,1062.6 1556.4,1061.95 C1558.15,1061.29 1559.81,1060.5 1561.36,1059.45 C1562.9,1058.4 1564.36,1057.15 1565.76,1055.7 C1567.15,1054.25 1568.36,1052.75 1569.36,1051.15 C1570.36,1049.54 1571.2,1047.9 1571.86,1046.15 C1572.51,1044.4 1572.86,1042.65 1572.95,1041 C1573.01,1040.65 1573.01,1040.25 1573.01,1039.9 C1573.01,1038.95 1572.9,1037.95 1572.7,1036.95 C1572.45,1035.54 1572.06,1034.15 1571.51,1032.84 C1570.95,1031.54 1570.26,1030.34 1569.36,1029.2 C1568.45,1028.04 1567.45,1027.09 1566.36,1026.29 C1565.26,1025.5 1564.06,1024.9 1562.65,1024.54 C1561.76,1024.29 1560.81,1024.2 1559.86,1024.2 C1559.36,1024.2 1558.86,1024.25 1558.31,1024.29 M1555.2,1056.6 C1555.2,1055.15 1555.26,1053.04 1555.31,1050.35 C1555.36,1048.2 1555.4,1046.15 1555.4,1044.29 C1555.4,1043.85 1555.36,1043.4 1555.36,1042.95 C1555.36,1040.75 1555.31,1038.6 1555.2,1036.59 C1555.2,1036.34 1555.15,1035.9 1555.06,1035.15 C1554.95,1034.4 1554.81,1033.7 1554.76,1033.04 C1554.7,1032.75 1554.7,1032.45 1554.7,1032.15 C1554.7,1031.79 1554.7,1031.5 1554.76,1031.15 C1554.86,1030.5 1555.06,1030 1555.4,1029.75 C1555.86,1029.4 1556.36,1029.25 1556.9,1029.25 C1557.06,1029.29 1557.2,1029.29 1557.36,1029.29 C1558.11,1029.4 1558.9,1029.65 1559.76,1030.09 C1560.61,1030.54 1561.4,1031.15 1562.15,1031.75 C1562.9,1032.34 1563.61,1032.95 1564.15,1033.54 C1564.7,1034.15 1565.15,1034.59 1565.4,1035.04 C1566.2,1036.34 1566.76,1037.79 1567.06,1039.4 C1567.2,1040.29 1567.31,1041.2 1567.31,1042.1 C1567.31,1042.75 1567.26,1043.4 1567.2,1044.04 C1566.95,1045.6 1566.51,1047.1 1565.86,1048.54 C1565.2,1050 1564.36,1051.29 1563.36,1052.45 C1562.31,1053.6 1561.11,1054.5 1559.7,1055.25 C1558.31,1056 1556.81,1056.45 1555.2,1056.6"/>
<path class="Harmony" d="M1886.46,1034.79 C1887.11,1035.65 1887.57,1036.79 1887.91,1038.25 C1888.25,1039.7 1888.5,1041.1 1888.75,1042.54 C1889,1044 1889.16,1045.35 1889.21,1046.54 L1885.41,1046.15 L1881.32,1046.54 L1883.41,1040.29 L1886.46,1034.79 M1885.57,1052.4 L1886.57,1052.4 L1888.07,1052.4 L1888.46,1052.4 L1888.91,1052.4 C1888.96,1052.4 1889.11,1052.45 1889.32,1052.45 C1889.5,1052.45 1889.66,1052.45 1889.75,1052.5 C1889.86,1052.54 1889.96,1052.6 1890.11,1052.65 C1890.25,1052.7 1890.36,1052.75 1890.46,1052.85 C1890.57,1052.95 1890.71,1053 1890.82,1053.1 C1891.07,1053.35 1891.32,1053.85 1891.5,1054.5 C1891.71,1055.1 1891.91,1055.75 1892.07,1056.5 C1892.21,1057.25 1892.36,1058 1892.5,1058.85 C1892.66,1059.7 1892.86,1060.45 1893.07,1061.15 C1893.25,1061.85 1893.57,1062.5 1893.86,1063.04 C1894.16,1063.6 1894.5,1063.95 1894.96,1064.15 C1895.16,1064.25 1895.41,1064.29 1895.71,1064.29 C1895.96,1064.29 1896.27,1064.25 1896.57,1064.15 C1897.02,1064 1897.36,1063.79 1897.71,1063.6 C1898.07,1063.4 1898.32,1063.2 1898.52,1062.95 C1898.71,1062.7 1898.86,1062.45 1899.02,1062.15 C1899.16,1061.85 1899.27,1061.65 1899.32,1061.4 C1899.36,1061.2 1899.36,1061 1899.36,1060.75 L1899.36,1060.5 C1899.36,1060.15 1899.36,1059.79 1899.32,1059.54 C1899.27,1059.29 1899.16,1059 1899.07,1058.6 C1898.96,1058.2 1898.86,1057.9 1898.77,1057.65 C1898.66,1057.4 1898.61,1057.04 1898.46,1056.6 C1898.32,1056.15 1898.16,1055.85 1898.11,1055.65 C1897.77,1054.65 1897.16,1052.65 1896.32,1049.7 C1895.71,1047.54 1895.21,1045.75 1894.86,1044.35 C1894.21,1041.79 1893.66,1039.7 1893.25,1038.04 C1892.61,1035.29 1892.11,1033.45 1891.86,1032.5 C1891.82,1032.29 1891.75,1032 1891.66,1031.59 C1891.57,1031.2 1891.5,1030.84 1891.46,1030.54 C1891.41,1030.25 1891.25,1029.95 1891.16,1029.54 C1891.07,1029.15 1890.96,1028.75 1890.86,1028.45 C1890.75,1028.15 1890.57,1027.79 1890.41,1027.45 C1890.25,1027.09 1890.07,1026.84 1889.86,1026.59 C1889.66,1026.34 1889.5,1026.15 1889.25,1025.95 C1889,1025.75 1888.75,1025.54 1888.46,1025.5 C1888.21,1025.45 1887.96,1025.4 1887.66,1025.4 L1887.46,1025.4 C1887.11,1025.45 1886.71,1025.5 1886.25,1025.65 C1885.91,1025.79 1885.5,1026 1885.16,1026.25 C1884.82,1026.5 1884.46,1026.7 1884.21,1026.95 C1883.96,1027.2 1883.71,1027.54 1883.46,1027.95 C1883.21,1028.34 1882.96,1028.65 1882.82,1028.95 C1882.66,1029.25 1882.46,1029.65 1882.25,1030.15 C1882.07,1030.65 1881.86,1031.04 1881.75,1031.34 C1881.66,1031.65 1881.57,1032.04 1881.36,1032.54 C1881.16,1033.04 1881,1033.4 1880.96,1033.65 C1879.5,1037.29 1878.07,1040.75 1876.61,1044.1 C1874.25,1049.45 1872.86,1052.7 1872.46,1053.9 C1872.41,1054.1 1872.21,1054.45 1871.96,1055 C1871.71,1055.54 1871.41,1056.04 1871.16,1056.54 C1870.91,1057.04 1870.66,1057.7 1870.36,1058.35 C1870.07,1059 1869.82,1059.65 1869.66,1060.2 C1869.46,1060.75 1869.36,1061.25 1869.36,1061.7 C1869.41,1062.15 1869.5,1062.45 1869.75,1062.7 C1870.21,1063.04 1870.71,1063.25 1871.25,1063.25 L1871.61,1063.25 C1872.32,1063.15 1873,1062.95 1873.71,1062.54 C1874.41,1062.15 1874.91,1061.7 1875.16,1061.25 C1875.46,1060.7 1875.75,1060.04 1876,1059.25 C1876.25,1058.45 1876.5,1057.7 1876.66,1057.04 C1876.82,1056.4 1877,1055.7 1877.36,1054.95 C1877.71,1054.2 1878.11,1053.6 1878.57,1053.1 L1881.25,1052.25 C1881.41,1052.2 1881.61,1052.25 1881.96,1052.25 L1883.41,1052.25 C1883.57,1052.25 1884.32,1052.29 1885.57,1052.4"/>
<path class="Harmony" d="M2255.96,1024.29 C2255.71,1024.34 2255.31,1024.4 2254.67,1024.45 C2254.01,1024.5 2253.51,1024.59 2253.17,1024.65 C2252.81,1024.7 2252.31,1024.75 2251.71,1024.84 C2251.1,1024.95 2250.67,1025.09 2250.26,1025.25 C2249.85,1025.4 2249.42,1025.59 2249.01,1025.84 C2248.6,1026.09 2248.26,1026.34 2248.01,1026.7 C2247.67,1027.04 2247.42,1027.45 2247.21,1027.84 C2247.01,1028.25 2246.85,1028.75 2246.81,1029.25 C2246.76,1029.59 2246.76,1029.95 2246.76,1030.29 L2246.76,1030.59 C2246.81,1030.95 2246.81,1031.45 2246.85,1032.04 C2246.92,1032.65 2246.92,1033.15 2246.92,1033.5 C2246.92,1039.2 2247.06,1044.79 2247.31,1050.35 C2247.35,1050.65 2247.35,1050.95 2247.35,1051.29 C2247.31,1052.35 2247.26,1053.75 2247.17,1055.4 C2247.01,1057.35 2246.92,1058.79 2246.92,1059.75 L2246.92,1060.04 L2246.92,1060.9 C2246.92,1061.15 2247.01,1061.4 2247.06,1061.7 C2247.1,1062 2247.21,1062.25 2247.35,1062.4 C2247.51,1062.54 2247.67,1062.7 2247.92,1062.85 C2248.1,1062.95 2248.35,1063 2248.67,1063 L2248.81,1063 C2250.56,1062.95 2252.31,1062.6 2254.06,1061.95 C2255.81,1061.29 2257.46,1060.5 2259.01,1059.45 C2260.56,1058.4 2262.01,1057.15 2263.42,1055.7 C2264.81,1054.25 2266.01,1052.75 2267.01,1051.15 C2268.01,1049.54 2268.85,1047.9 2269.51,1046.15 C2270.17,1044.4 2270.51,1042.65 2270.6,1041 C2270.67,1040.65 2270.67,1040.25 2270.67,1039.9 C2270.67,1038.95 2270.56,1037.95 2270.35,1036.95 C2270.1,1035.54 2269.71,1034.15 2269.17,1032.84 C2268.6,1031.54 2267.92,1030.34 2267.01,1029.2 C2266.1,1028.04 2265.1,1027.09 2264.01,1026.29 C2262.92,1025.5 2261.71,1024.9 2260.31,1024.54 C2259.42,1024.29 2258.46,1024.2 2257.51,1024.2 C2257.01,1024.2 2256.51,1024.25 2255.96,1024.29 M2252.85,1056.6 C2252.85,1055.15 2252.92,1053.04 2252.96,1050.35 C2253.01,1048.2 2253.06,1046.15 2253.06,1044.29 C2253.06,1043.85 2253.01,1043.4 2253.01,1042.95 C2253.01,1040.75 2252.96,1038.6 2252.85,1036.59 C2252.85,1036.34 2252.81,1035.9 2252.71,1035.15 C2252.6,1034.4 2252.46,1033.7 2252.42,1033.04 C2252.35,1032.75 2252.35,1032.45 2252.35,1032.15 C2252.35,1031.79 2252.35,1031.5 2252.42,1031.15 C2252.51,1030.5 2252.71,1030 2253.06,1029.75 C2253.51,1029.4 2254.01,1029.25 2254.56,1029.25 C2254.71,1029.29 2254.85,1029.29 2255.01,1029.29 C2255.76,1029.4 2256.56,1029.65 2257.42,1030.09 C2258.26,1030.54 2259.06,1031.15 2259.81,1031.75 C2260.56,1032.34 2261.26,1032.95 2261.81,1033.54 C2262.35,1034.15 2262.81,1034.59 2263.06,1035.04 C2263.85,1036.34 2264.42,1037.79 2264.71,1039.4 C2264.85,1040.29 2264.96,1041.2 2264.96,1042.1 C2264.96,1042.75 2264.92,1043.4 2264.85,1044.04 C2264.6,1045.6 2264.17,1047.1 2263.51,1048.54 C2262.85,1050 2262.01,1051.29 2261.01,1052.45 C2259.96,1053.6 2258.76,1054.5 2257.35,1055.25 C2255.96,1056 2254.46,1056.45 2252.85,1056.6"/>
</svg>
