<?xml version="1.0" encoding="UTF-8" standalone="no"?>
<svg width="2976.38px" height="1417.32px" viewBox="0 0 2976.38 1417.32"
 xmlns="http://www.w3.org/2000/svg" xmlns:xlink="http://www.w3.org/1999/xlink" version="1.2" baseProfile="tiny">
<title>WinderSlide_D</title>
<desc>Generated by MuseScore 3.6.2</desc>
<polyline class="StaffLines" fill="none" stroke="#000000" stroke-width="2.73" stroke-linejoin="bevel" points="138.189,187.795 2933.86,187.795"/>
<polyline class="StaffLines" fill="none" stroke="#000000" stroke-width="2.73" stroke-linejoin="bevel" points="138.189,212.598 2933.86,212.598"/>
<polyline class="StaffLines" fill="none" stroke="#000000" stroke-width="2.73" stroke-linejoin="bevel" points="138.189,237.402 2933.86,237.402"/>
<polyline class="StaffLines" fill="none" stroke="#000000" stroke-width="2.73" stroke-linejoin="bevel" points="138.189,262.205 2933.86,262.205"/>
<polyline class="StaffLines" fill="none" stroke="#000000" stroke-width="2.73" stroke-linejoin="bevel" points="138.189,287.008 2933.86,287.008"/>
<polyline class="StaffLines" fill="none" stroke="#000000" stroke-width="2.73" stroke-linejoin="bevel" points="14.1732,497.835 2933.86,497.835"/>
<polyline class="StaffLines" fill="none" stroke="#000000" stroke-width="2.73" stroke-linejoin="bevel" points="14.1732,522.638 2933.86,522.638"/>
<polyline class="StaffLines" fill="none" stroke="#000000" stroke-width="2.73" stroke-linejoin="bevel" points="14.1732,547.441 2933.86,547.441"/>
<polyline class="StaffLines" fill="none" stroke="#000000" stroke-width="2.73" stroke-linejoin="bevel" points="14.1732,572.244 2933.86,572.244"/>
<polyline class="StaffLines" fill="none" stroke="#000000" stroke-width="2.73" stroke-linejoin="bevel" points="14.1732,597.047 2933.86,597.047"/>
<polyline class="StaffLines" fill="none" stroke="#000000" stroke-width="2.73" stroke-linejoin="bevel" points="14.1732,815.417 2933.86,815.417"/>
<polyline class="StaffLines" fill="none" stroke="#000000" stroke-width="2.73" stroke-linejoin="bevel" points="14.1732,840.22 2933.86,840.22"/>
<polyline class="StaffLines" fill="none" stroke="#000000" stroke-width="2.73" stroke-linejoin="bevel" points="14.1732,865.023 2933.86,865.023"/>
<polyline class="StaffLines" fill="none" stroke="#000000" stroke-width="2.73" stroke-linejoin="bevel" points="14.1732,889.826 2933.86,889.826"/>
<polyline class="StaffLines" fill="none" stroke="#000000" stroke-width="2.73" stroke-linejoin="bevel" points="14.1732,914.629 2933.86,914.629"/>
<polyline class="StaffLines" fill="none" stroke="#000000" stroke-width="2.73" stroke-linejoin="bevel" points="14.1732,1125.46 2933.86,1125.46"/>
<polyline class="StaffLines" fill="none" stroke="#000000" stroke-width="2.73" stroke-linejoin="bevel" points="14.1732,1150.26 2933.86,1150.26"/>
<polyline class="StaffLines" fill="none" stroke="#000000" stroke-width="2.73" stroke-linejoin="bevel" points="14.1732,1175.06 2933.86,1175.06"/>
<polyline class="StaffLines" fill="none" stroke="#000000" stroke-width="2.73" stroke-linejoin="bevel" points="14.1732,1199.87 2933.86,1199.87"/>
<polyline class="StaffLines" fill="none" stroke="#000000" stroke-width="2.73" stroke-linejoin="bevel" points="14.1732,1224.67 2933.86,1224.67"/>
<polyline class="BarLine" fill="none" stroke="#000000" stroke-width="4.46" stroke-linejoin="bevel" points="953.226,186.431 953.226,288.372"/>
<polyline class="BarLine" fill="none" stroke="#000000" stroke-width="4.46" stroke-linejoin="bevel" points="1612.69,186.431 1612.69,288.372"/>
<polyline class="BarLine" fill="none" stroke="#000000" stroke-width="4.46" stroke-linejoin="bevel" points="2272.16,186.431 2272.16,288.372"/>
<polyline class="BarLine" fill="none" stroke="#000000" stroke-width="4.46" stroke-linejoin="bevel" points="2931.63,186.431 2931.63,288.372"/>
<polyline class="BarLine" fill="none" stroke="#000000" stroke-width="4.46" stroke-linejoin="bevel" points="808.481,496.47 808.481,598.411"/>
<polyline class="BarLine" fill="none" stroke="#000000" stroke-width="4.46" stroke-linejoin="bevel" points="1502.1,496.47 1502.1,598.411"/>
<polyline class="BarLine" fill="none" stroke="#000000" stroke-width="4.46" stroke-linejoin="bevel" points="2195.73,496.47 2195.73,598.411"/>
<path class="BarLine" transform="matrix(0.992126,0,0,0.992126,2887.12,535.039)" d="M10.4063,0 C10.4063,-2.90625 8.09375,-5.29688 5.20313,-5.29688 C2.29688,-5.29688 0,-2.90625 0,0 C0,2.90625 2.29688,5.29688 5.20313,5.29688 C8.09375,5.29688 10.4063,2.90625 10.4063,0"/>
<path class="BarLine" transform="matrix(0.992126,0,0,0.992126,2887.12,559.843)" d="M10.4063,0 C10.4063,-2.90625 8.09375,-5.29688 5.20313,-5.29688 C2.29688,-5.29688 0,-2.90625 0,0 C0,2.90625 2.29688,5.29688 5.20313,5.29688 C8.09375,5.29688 10.4063,2.90625 10.4063,0"/>
<polyline class="BarLine" fill="none" stroke="#000000" stroke-width="4.46" stroke-linejoin="bevel" points="2909.64,496.47 2909.64,598.411"/>
<polyline class="BarLine" fill="none" stroke="#000000" stroke-width="13.64" stroke-linejoin="bevel" points="2927,496.47 2927,598.411"/>
<polyline class="BarLine" fill="none" stroke="#000000" stroke-width="4.46" stroke-linejoin="bevel" points="819.051,814.053 819.051,915.994"/>
<polyline class="BarLine" fill="none" stroke="#000000" stroke-width="4.46" stroke-linejoin="bevel" points="1523.24,814.053 1523.24,915.994"/>
<polyline class="BarLine" fill="none" stroke="#000000" stroke-width="4.46" stroke-linejoin="bevel" points="2227.44,814.053 2227.44,915.994"/>
<polyline class="BarLine" fill="none" stroke="#000000" stroke-width="4.46" stroke-linejoin="bevel" points="2931.63,814.053 2931.63,915.994"/>
<polyline class="BarLine" fill="none" stroke="#000000" stroke-width="4.46" stroke-linejoin="bevel" points="812.511,1124.09 812.511,1226.03"/>
<polyline class="BarLine" fill="none" stroke="#000000" stroke-width="4.46" stroke-linejoin="bevel" points="1494.04,1124.09 1494.04,1226.03"/>
<polyline class="BarLine" fill="none" stroke="#000000" stroke-width="4.46" stroke-linejoin="bevel" points="2191.69,1124.09 2191.69,1226.03"/>
<path class="BarLine" transform="matrix(0.992126,0,0,0.992126,2887.12,1162.66)" d="M10.4063,0 C10.4063,-2.90625 8.09375,-5.29688 5.20313,-5.29688 C2.29688,-5.29688 0,-2.90625 0,0 C0,2.90625 2.29688,5.29688 5.20313,5.29688 C8.09375,5.29688 10.4063,2.90625 10.4063,0"/>
<path class="BarLine" transform="matrix(0.992126,0,0,0.992126,2887.12,1187.46)" d="M10.4063,0 C10.4063,-2.90625 8.09375,-5.29688 5.20313,-5.29688 C2.29688,-5.29688 0,-2.90625 0,0 C0,2.90625 2.29688,5.29688 5.20313,5.29688 C8.09375,5.29688 10.4063,2.90625 10.4063,0"/>
<polyline class="BarLine" fill="none" stroke="#000000" stroke-width="4.46" stroke-linejoin="bevel" points="2909.64,1124.09 2909.64,1226.03"/>
<polyline class="BarLine" fill="none" stroke="#000000" stroke-width="13.64" stroke-linejoin="bevel" points="2927,1124.09 2927,1226.03"/>
<path class="Note" transform="matrix(0.992126,0,0,0.992126,338.405,237.402)" d="M43,-25 L0,25 L10,25 L53,-25 L43,-25 "/>
<path class="Note" transform="matrix(0.992126,0,0,0.992126,489.01,237.402)" d="M43,-25 L0,25 L10,25 L53,-25 L43,-25 "/>
<path class="Note" transform="matrix(0.992126,0,0,0.992126,639.615,237.402)" d="M43,-25 L0,25 L10,25 L53,-25 L43,-25 "/>
<path class="Note" transform="matrix(0.992126,0,0,0.992126,790.22,237.402)" d="M43,-25 L0,25 L10,25 L53,-25 L43,-25 "/>
<path class="Note" transform="matrix(0.992126,0,0,0.992126,997.872,237.402)" d="M43,-25 L0,25 L10,25 L53,-25 L43,-25 "/>
<path class="Note" transform="matrix(0.992126,0,0,0.992126,1148.48,237.402)" d="M43,-25 L0,25 L10,25 L53,-25 L43,-25 "/>
<path class="Note" transform="matrix(0.992126,0,0,0.992126,1299.08,237.402)" d="M43,-25 L0,25 L10,25 L53,-25 L43,-25 "/>
<path class="Note" transform="matrix(0.992126,0,0,0.992126,1449.69,237.402)" d="M43,-25 L0,25 L10,25 L53,-25 L43,-25 "/>
<path class="Note" transform="matrix(0.992126,0,0,0.992126,1657.34,237.402)" d="M43,-25 L0,25 L10,25 L53,-25 L43,-25 "/>
<path class="Note" transform="matrix(0.992126,0,0,0.992126,1807.94,237.402)" d="M43,-25 L0,25 L10,25 L53,-25 L43,-25 "/>
<path class="Note" transform="matrix(0.992126,0,0,0.992126,1958.55,237.402)" d="M43,-25 L0,25 L10,25 L53,-25 L43,-25 "/>
<path class="Note" transform="matrix(0.992126,0,0,0.992126,2109.15,237.402)" d="M43,-25 L0,25 L10,25 L53,-25 L43,-25 "/>
<path class="Note" transform="matrix(0.992126,0,0,0.992126,2316.81,237.402)" d="M43,-25 L0,25 L10,25 L53,-25 L43,-25 "/>
<path class="Note" transform="matrix(0.992126,0,0,0.992126,2467.41,237.402)" d="M43,-25 L0,25 L10,25 L53,-25 L43,-25 "/>
<path class="Note" transform="matrix(0.992126,0,0,0.992126,2618.02,237.402)" d="M43,-25 L0,25 L10,25 L53,-25 L43,-25 "/>
<path class="Note" transform="matrix(0.992126,0,0,0.992126,2768.62,237.402)" d="M43,-25 L0,25 L10,25 L53,-25 L43,-25 "/>
<path class="Note" transform="matrix(0.992126,0,0,0.992126,159.504,547.441)" d="M43,-25 L0,25 L10,25 L53,-25 L43,-25 "/>
<path class="Note" transform="matrix(0.992126,0,0,0.992126,318.648,547.441)" d="M43,-25 L0,25 L10,25 L53,-25 L43,-25 "/>
<path class="Note" transform="matrix(0.992126,0,0,0.992126,477.792,547.441)" d="M43,-25 L0,25 L10,25 L53,-25 L43,-25 "/>
<path class="Note" transform="matrix(0.992126,0,0,0.992126,636.935,547.441)" d="M43,-25 L0,25 L10,25 L53,-25 L43,-25 "/>
<path class="Note" transform="matrix(0.992126,0,0,0.992126,853.126,547.441)" d="M43,-25 L0,25 L10,25 L53,-25 L43,-25 "/>
<path class="Note" transform="matrix(0.992126,0,0,0.992126,1012.27,547.441)" d="M43,-25 L0,25 L10,25 L53,-25 L43,-25 "/>
<path class="Note" transform="matrix(0.992126,0,0,0.992126,1171.41,547.441)" d="M43,-25 L0,25 L10,25 L53,-25 L43,-25 "/>
<path class="Note" transform="matrix(0.992126,0,0,0.992126,1330.56,547.441)" d="M43,-25 L0,25 L10,25 L53,-25 L43,-25 "/>
<path class="Note" transform="matrix(0.992126,0,0,0.992126,1546.75,547.441)" d="M43,-25 L0,25 L10,25 L53,-25 L43,-25 "/>
<path class="Note" transform="matrix(0.992126,0,0,0.992126,1705.89,547.441)" d="M43,-25 L0,25 L10,25 L53,-25 L43,-25 "/>
<path class="Note" transform="matrix(0.992126,0,0,0.992126,1865.04,547.441)" d="M43,-25 L0,25 L10,25 L53,-25 L43,-25 "/>
<path class="Note" transform="matrix(0.992126,0,0,0.992126,2024.18,547.441)" d="M43,-25 L0,25 L10,25 L53,-25 L43,-25 "/>
<path class="Note" transform="matrix(0.992126,0,0,0.992126,2240.37,547.441)" d="M43,-25 L0,25 L10,25 L53,-25 L43,-25 "/>
<path class="Note" transform="matrix(0.992126,0,0,0.992126,2399.51,547.441)" d="M43,-25 L0,25 L10,25 L53,-25 L43,-25 "/>
<path class="Note" transform="matrix(0.992126,0,0,0.992126,2558.66,547.441)" d="M43,-25 L0,25 L10,25 L53,-25 L43,-25 "/>
<path class="Note" transform="matrix(0.992126,0,0,0.992126,2717.8,547.441)" d="M43,-25 L0,25 L10,25 L53,-25 L43,-25 "/>
<path class="Note" transform="matrix(0.992126,0,0,0.992126,159.504,865.023)" d="M43,-25 L0,25 L10,25 L53,-25 L43,-25 "/>
<path class="Note" transform="matrix(0.992126,0,0,0.992126,321.29,865.023)" d="M43,-25 L0,25 L10,25 L53,-25 L43,-25 "/>
<path class="Note" transform="matrix(0.992126,0,0,0.992126,483.077,865.023)" d="M43,-25 L0,25 L10,25 L53,-25 L43,-25 "/>
<path class="Note" transform="matrix(0.992126,0,0,0.992126,644.863,865.023)" d="M43,-25 L0,25 L10,25 L53,-25 L43,-25 "/>
<path class="Note" transform="matrix(0.992126,0,0,0.992126,863.696,865.023)" d="M43,-25 L0,25 L10,25 L53,-25 L43,-25 "/>
<path class="Note" transform="matrix(0.992126,0,0,0.992126,1025.48,865.023)" d="M43,-25 L0,25 L10,25 L53,-25 L43,-25 "/>
<path class="Note" transform="matrix(0.992126,0,0,0.992126,1187.27,865.023)" d="M43,-25 L0,25 L10,25 L53,-25 L43,-25 "/>
<path class="Note" transform="matrix(0.992126,0,0,0.992126,1349.06,865.023)" d="M43,-25 L0,25 L10,25 L53,-25 L43,-25 "/>
<path class="Note" transform="matrix(0.992126,0,0,0.992126,1567.89,865.023)" d="M43,-25 L0,25 L10,25 L53,-25 L43,-25 "/>
<path class="Note" transform="matrix(0.992126,0,0,0.992126,1729.67,865.023)" d="M43,-25 L0,25 L10,25 L53,-25 L43,-25 "/>
<path class="Note" transform="matrix(0.992126,0,0,0.992126,1891.46,865.023)" d="M43,-25 L0,25 L10,25 L53,-25 L43,-25 "/>
<path class="Note" transform="matrix(0.992126,0,0,0.992126,2053.25,865.023)" d="M43,-25 L0,25 L10,25 L53,-25 L43,-25 "/>
<path class="Note" transform="matrix(0.992126,0,0,0.992126,2272.08,865.023)" d="M43,-25 L0,25 L10,25 L53,-25 L43,-25 "/>
<path class="Note" transform="matrix(0.992126,0,0,0.992126,2433.87,865.023)" d="M43,-25 L0,25 L10,25 L53,-25 L43,-25 "/>
<path class="Note" transform="matrix(0.992126,0,0,0.992126,2595.65,865.023)" d="M43,-25 L0,25 L10,25 L53,-25 L43,-25 "/>
<path class="Note" transform="matrix(0.992126,0,0,0.992126,2757.44,865.023)" d="M43,-25 L0,25 L10,25 L53,-25 L43,-25 "/>
<path class="Note" transform="matrix(0.992126,0,0,0.992126,159.504,1175.06)" d="M43,-25 L0,25 L10,25 L53,-25 L43,-25 "/>
<path class="Note" transform="matrix(0.992126,0,0,0.992126,319.656,1175.06)" d="M43,-25 L0,25 L10,25 L53,-25 L43,-25 "/>
<path class="Note" transform="matrix(0.992126,0,0,0.992126,479.807,1175.06)" d="M43,-25 L0,25 L10,25 L53,-25 L43,-25 "/>
<path class="Note" transform="matrix(0.992126,0,0,0.992126,639.958,1175.06)" d="M43,-25 L0,25 L10,25 L53,-25 L43,-25 "/>
<path class="Note" transform="matrix(0.992126,0,0,0.992126,841.035,1175.06)" d="M43,-25 L0,25 L10,25 L53,-25 L43,-25 "/>
<path class="Note" transform="matrix(0.992126,0,0,0.992126,1001.19,1175.06)" d="M43,-25 L0,25 L10,25 L53,-25 L43,-25 "/>
<path class="Note" transform="matrix(0.992126,0,0,0.992126,1161.34,1175.06)" d="M43,-25 L0,25 L10,25 L53,-25 L43,-25 "/>
<path class="Note" transform="matrix(0.992126,0,0,0.992126,1321.49,1175.06)" d="M43,-25 L0,25 L10,25 L53,-25 L43,-25 "/>
<path class="Note" transform="matrix(0.992126,0,0,0.992126,1538.69,1175.06)" d="M43,-25 L0,25 L10,25 L53,-25 L43,-25 "/>
<path class="Note" transform="matrix(0.992126,0,0,0.992126,1698.84,1175.06)" d="M43,-25 L0,25 L10,25 L53,-25 L43,-25 "/>
<path class="Note" transform="matrix(0.992126,0,0,0.992126,1858.99,1175.06)" d="M43,-25 L0,25 L10,25 L53,-25 L43,-25 "/>
<path class="Note" transform="matrix(0.992126,0,0,0.992126,2019.14,1175.06)" d="M43,-25 L0,25 L10,25 L53,-25 L43,-25 "/>
<path class="Note" transform="matrix(0.992126,0,0,0.992126,2236.34,1175.06)" d="M43,-25 L0,25 L10,25 L53,-25 L43,-25 "/>
<path class="Note" transform="matrix(0.992126,0,0,0.992126,2396.49,1175.06)" d="M43,-25 L0,25 L10,25 L53,-25 L43,-25 "/>
<path class="Note" transform="matrix(0.992126,0,0,0.992126,2556.64,1175.06)" d="M43,-25 L0,25 L10,25 L53,-25 L43,-25 "/>
<path class="Note" transform="matrix(0.992126,0,0,0.992126,2716.79,1175.06)" d="M43,-25 L0,25 L10,25 L53,-25 L43,-25 "/>
<path class="Clef" transform="matrix(0.992126,0,0,0.992126,158.032,262.205)" d="M63.3594,-5.92188 C62.125,-11.3438 59.4844,-15.1719 58.7031,-16.2031 C55.5156,-20.4844 51.5,-23.3281 46.8125,-24.6875 C43.7031,-25.5625 40.7031,-25.6875 38.2813,-25.5 C37.2344,-31.5156 36.2344,-37.3906 35.3281,-42.8438 C40.7813,-49.0156 44.4063,-54.8125 46.6875,-59.1094 C50.1563,-65.6875 51.2969,-70.2656 51.3594,-70.4688 C53.0781,-75.6875 53.4375,-83.3906 52.3281,-91.5938 C51.3281,-99.1406 49.2344,-105.859 46.875,-109.109 C45.8594,-110.531 44.7969,-111.266 43.7656,-111.266 C42.5469,-111.266 40.0313,-110.031 37.1406,-107.25 C34.8438,-105.063 31.5781,-101.172 29.0156,-95.1563 C26.0156,-88.0938 25.7969,-78.6094 26.1563,-71.8906 C26.5313,-64.6094 27.6406,-58.9219 27.6563,-58.875 C27.6719,-58.7813 27.9375,-57.2813 28.375,-54.7188 C28.1563,-54.4844 27.9063,-54.2656 27.6563,-54.0156 C26.625,-53.0156 25.4375,-51.8906 24.0469,-50.5 C23.1875,-49.6406 22.2344,-48.7344 21.2344,-47.7656 C12.7969,-39.625 0,-27.2969 0,-8.14063 C0,-3.4375 0.90625,0.984375 2.6875,5 C4.26563,8.59375 6.5625,11.875 9.5,14.75 C17.2344,22.3125 27.8281,25.5156 34.875,25.3594 C37.8281,25.2813 40.4688,25.0469 42.8594,24.5938 C44.6875,34.2031 45.8281,41.2344 45.8594,46.5781 C45.9063,53.0938 44.25,57.0781 40.3594,59.8438 C37.9219,61.5781 35.1094,62.5313 32.0156,62.6719 C29.4219,62.7969 27.1563,62.3281 25.7344,61.9219 L25.7188,61.9219 C25.7188,61.9219 25.4375,61.8281 25.4219,61.6406 C25.4063,61.4531 25.7656,61.4063 25.7656,61.4063 L25.7969,61.4063 C27.7188,60.9688 31.2813,59.7344 33.6406,56.4375 C35.4375,53.9063 36.3125,49.2813 34.4688,45.3438 C33.3594,42.9531 30.8594,40 25.2344,39.5469 C22.7344,39.3438 20.4688,39.8594 18.4688,41.0625 C16.6563,42.1406 15.1563,43.7813 14.1094,45.7813 C11.6563,50.4844 12.1094,56.2188 15.2344,60.0625 C18.2031,63.6875 22.8125,66 28.25,66.5781 C29.1094,66.6719 29.9531,66.7031 30.7969,66.7031 C35.2344,66.7031 39.625,65.5 43.2031,63.2969 C46.8594,60.7188 48.9844,56.7344 49.6563,51.1094 C50.2188,46.4688 49.8281,40.5469 48.4375,32.4688 C48.0781,30.375 47.5313,27.3438 46.875,23.5938 C52.625,21.6719 56.7813,18.0938 60.5469,12.2344 C63.8438,6.5 64.7813,0.390625 63.3594,-5.92188 M29.1406,20.2969 C24.5,19.0781 20.0625,16.5781 16.3125,13.0625 C15,11.8438 13.125,9.67188 11.6563,6.28125 C10.2969,3.10938 9.625,-0.328125 9.6875,-3.90625 C9.75,-8.60938 11.0625,-13.4375 13.5625,-18.2188 C16.4844,-23.7969 21.0469,-29.3281 27.1094,-34.6563 C28.5625,-35.9375 29.9375,-37.2188 31.2188,-38.5 C31.9844,-34.2344 32.8125,-29.5469 33.6875,-24.6719 C29.8438,-23.4063 25.0938,-20.25 21.9844,-14.5938 C18.4375,-8.03125 18.5781,-2.5 19.3125,0.984375 C20.25,5.4375 22.7813,9.20313 26.2344,11.2969 C27.1719,11.8594 31.2969,13.9844 33.1406,13.4063 C33.5156,13.2969 33.7813,13.0625 33.9219,12.7344 C34.4375,11.5625 33.4063,10.9219 31.8594,9.96875 C31.25,9.59375 30.5781,9.17188 29.8594,8.64063 C26.5313,6.15625 25.0781,1.70313 26.1563,-2.6875 C26.7344,-5.07813 28.0156,-7.25 29.8594,-8.95313 C31.5156,-10.5 33.5625,-11.5938 35.9375,-12.2344 C37.9844,-0.984375 40.0469,10.1719 41.6875,18.5313 C41.8125,19.2188 41.9531,19.8906 42.0781,20.5625 C37.7031,21.5 33.3594,21.4063 29.1406,20.2969 M40.4688,-12.9063 C50.8125,-13.375 55.0781,-5.9375 55.9688,-1.10938 C56.4375,1.4375 56.4375,5.875 54.8906,10.0938 C53.7188,13.2656 51.2656,17.3438 46.125,19.4063 C46.0625,18.9844 45.9844,18.5469 45.9063,18.125 C44.3594,9.34375 42.4219,-1.65625 40.4688,-12.9063 M33.1406,-83.8594 C34.9219,-89.5938 37.6563,-92.8438 39.6563,-94.5781 C41.4063,-96.0938 43.0469,-96.8125 43.9688,-96.8125 C44.1094,-96.8125 44.2344,-96.7813 44.3281,-96.75 C44.7969,-96.6094 45.3281,-96.0469 45.7969,-95.1719 C48.1094,-90.8906 47.3594,-84.1719 46.0156,-79.7344 C44.3906,-74.3281 41.4688,-68.7188 32.6719,-59.1094 C32.5,-60.2188 32.3438,-61.2656 32.1875,-62.25 C30.9375,-70.5313 31.2656,-77.8125 33.1406,-83.8594"/>
<path class="Clef" transform="matrix(0.992126,0,0,0.992126,34.0158,572.244)" d="M63.3594,-5.92188 C62.125,-11.3438 59.4844,-15.1719 58.7031,-16.2031 C55.5156,-20.4844 51.5,-23.3281 46.8125,-24.6875 C43.7031,-25.5625 40.7031,-25.6875 38.2813,-25.5 C37.2344,-31.5156 36.2344,-37.3906 35.3281,-42.8438 C40.7813,-49.0156 44.4063,-54.8125 46.6875,-59.1094 C50.1563,-65.6875 51.2969,-70.2656 51.3594,-70.4688 C53.0781,-75.6875 53.4375,-83.3906 52.3281,-91.5938 C51.3281,-99.1406 49.2344,-105.859 46.875,-109.109 C45.8594,-110.531 44.7969,-111.266 43.7656,-111.266 C42.5469,-111.266 40.0313,-110.031 37.1406,-107.25 C34.8438,-105.063 31.5781,-101.172 29.0156,-95.1563 C26.0156,-88.0938 25.7969,-78.6094 26.1563,-71.8906 C26.5313,-64.6094 27.6406,-58.9219 27.6563,-58.875 C27.6719,-58.7813 27.9375,-57.2813 28.375,-54.7188 C28.1563,-54.4844 27.9063,-54.2656 27.6563,-54.0156 C26.625,-53.0156 25.4375,-51.8906 24.0469,-50.5 C23.1875,-49.6406 22.2344,-48.7344 21.2344,-47.7656 C12.7969,-39.625 0,-27.2969 0,-8.14063 C0,-3.4375 0.90625,0.984375 2.6875,5 C4.26563,8.59375 6.5625,11.875 9.5,14.75 C17.2344,22.3125 27.8281,25.5156 34.875,25.3594 C37.8281,25.2813 40.4688,25.0469 42.8594,24.5938 C44.6875,34.2031 45.8281,41.2344 45.8594,46.5781 C45.9063,53.0938 44.25,57.0781 40.3594,59.8438 C37.9219,61.5781 35.1094,62.5313 32.0156,62.6719 C29.4219,62.7969 27.1563,62.3281 25.7344,61.9219 L25.7188,61.9219 C25.7188,61.9219 25.4375,61.8281 25.4219,61.6406 C25.4063,61.4531 25.7656,61.4063 25.7656,61.4063 L25.7969,61.4063 C27.7188,60.9688 31.2813,59.7344 33.6406,56.4375 C35.4375,53.9063 36.3125,49.2813 34.4688,45.3438 C33.3594,42.9531 30.8594,40 25.2344,39.5469 C22.7344,39.3438 20.4688,39.8594 18.4688,41.0625 C16.6563,42.1406 15.1563,43.7813 14.1094,45.7813 C11.6563,50.4844 12.1094,56.2188 15.2344,60.0625 C18.2031,63.6875 22.8125,66 28.25,66.5781 C29.1094,66.6719 29.9531,66.7031 30.7969,66.7031 C35.2344,66.7031 39.625,65.5 43.2031,63.2969 C46.8594,60.7188 48.9844,56.7344 49.6563,51.1094 C50.2188,46.4688 49.8281,40.5469 48.4375,32.4688 C48.0781,30.375 47.5313,27.3438 46.875,23.5938 C52.625,21.6719 56.7813,18.0938 60.5469,12.2344 C63.8438,6.5 64.7813,0.390625 63.3594,-5.92188 M29.1406,20.2969 C24.5,19.0781 20.0625,16.5781 16.3125,13.0625 C15,11.8438 13.125,9.67188 11.6563,6.28125 C10.2969,3.10938 9.625,-0.328125 9.6875,-3.90625 C9.75,-8.60938 11.0625,-13.4375 13.5625,-18.2188 C16.4844,-23.7969 21.0469,-29.3281 27.1094,-34.6563 C28.5625,-35.9375 29.9375,-37.2188 31.2188,-38.5 C31.9844,-34.2344 32.8125,-29.5469 33.6875,-24.6719 C29.8438,-23.4063 25.0938,-20.25 21.9844,-14.5938 C18.4375,-8.03125 18.5781,-2.5 19.3125,0.984375 C20.25,5.4375 22.7813,9.20313 26.2344,11.2969 C27.1719,11.8594 31.2969,13.9844 33.1406,13.4063 C33.5156,13.2969 33.7813,13.0625 33.9219,12.7344 C34.4375,11.5625 33.4063,10.9219 31.8594,9.96875 C31.25,9.59375 30.5781,9.17188 29.8594,8.64063 C26.5313,6.15625 25.0781,1.70313 26.1563,-2.6875 C26.7344,-5.07813 28.0156,-7.25 29.8594,-8.95313 C31.5156,-10.5 33.5625,-11.5938 35.9375,-12.2344 C37.9844,-0.984375 40.0469,10.1719 41.6875,18.5313 C41.8125,19.2188 41.9531,19.8906 42.0781,20.5625 C37.7031,21.5 33.3594,21.4063 29.1406,20.2969 M40.4688,-12.9063 C50.8125,-13.375 55.0781,-5.9375 55.9688,-1.10938 C56.4375,1.4375 56.4375,5.875 54.8906,10.0938 C53.7188,13.2656 51.2656,17.3438 46.125,19.4063 C46.0625,18.9844 45.9844,18.5469 45.9063,18.125 C44.3594,9.34375 42.4219,-1.65625 40.4688,-12.9063 M33.1406,-83.8594 C34.9219,-89.5938 37.6563,-92.8438 39.6563,-94.5781 C41.4063,-96.0938 43.0469,-96.8125 43.9688,-96.8125 C44.1094,-96.8125 44.2344,-96.7813 44.3281,-96.75 C44.7969,-96.6094 45.3281,-96.0469 45.7969,-95.1719 C48.1094,-90.8906 47.3594,-84.1719 46.0156,-79.7344 C44.3906,-74.3281 41.4688,-68.7188 32.6719,-59.1094 C32.5,-60.2188 32.3438,-61.2656 32.1875,-62.25 C30.9375,-70.5313 31.2656,-77.8125 33.1406,-83.8594"/>
<path class="Clef" transform="matrix(0.992126,0,0,0.992126,34.0158,889.826)" d="M63.3594,-5.92188 C62.125,-11.3438 59.4844,-15.1719 58.7031,-16.2031 C55.5156,-20.4844 51.5,-23.3281 46.8125,-24.6875 C43.7031,-25.5625 40.7031,-25.6875 38.2813,-25.5 C37.2344,-31.5156 36.2344,-37.3906 35.3281,-42.8438 C40.7813,-49.0156 44.4063,-54.8125 46.6875,-59.1094 C50.1563,-65.6875 51.2969,-70.2656 51.3594,-70.4688 C53.0781,-75.6875 53.4375,-83.3906 52.3281,-91.5938 C51.3281,-99.1406 49.2344,-105.859 46.875,-109.109 C45.8594,-110.531 44.7969,-111.266 43.7656,-111.266 C42.5469,-111.266 40.0313,-110.031 37.1406,-107.25 C34.8438,-105.063 31.5781,-101.172 29.0156,-95.1563 C26.0156,-88.0938 25.7969,-78.6094 26.1563,-71.8906 C26.5313,-64.6094 27.6406,-58.9219 27.6563,-58.875 C27.6719,-58.7813 27.9375,-57.2813 28.375,-54.7188 C28.1563,-54.4844 27.9063,-54.2656 27.6563,-54.0156 C26.625,-53.0156 25.4375,-51.8906 24.0469,-50.5 C23.1875,-49.6406 22.2344,-48.7344 21.2344,-47.7656 C12.7969,-39.625 0,-27.2969 0,-8.14063 C0,-3.4375 0.90625,0.984375 2.6875,5 C4.26563,8.59375 6.5625,11.875 9.5,14.75 C17.2344,22.3125 27.8281,25.5156 34.875,25.3594 C37.8281,25.2813 40.4688,25.0469 42.8594,24.5938 C44.6875,34.2031 45.8281,41.2344 45.8594,46.5781 C45.9063,53.0938 44.25,57.0781 40.3594,59.8438 C37.9219,61.5781 35.1094,62.5313 32.0156,62.6719 C29.4219,62.7969 27.1563,62.3281 25.7344,61.9219 L25.7188,61.9219 C25.7188,61.9219 25.4375,61.8281 25.4219,61.6406 C25.4063,61.4531 25.7656,61.4063 25.7656,61.4063 L25.7969,61.4063 C27.7188,60.9688 31.2813,59.7344 33.6406,56.4375 C35.4375,53.9063 36.3125,49.2813 34.4688,45.3438 C33.3594,42.9531 30.8594,40 25.2344,39.5469 C22.7344,39.3438 20.4688,39.8594 18.4688,41.0625 C16.6563,42.1406 15.1563,43.7813 14.1094,45.7813 C11.6563,50.4844 12.1094,56.2188 15.2344,60.0625 C18.2031,63.6875 22.8125,66 28.25,66.5781 C29.1094,66.6719 29.9531,66.7031 30.7969,66.7031 C35.2344,66.7031 39.625,65.5 43.2031,63.2969 C46.8594,60.7188 48.9844,56.7344 49.6563,51.1094 C50.2188,46.4688 49.8281,40.5469 48.4375,32.4688 C48.0781,30.375 47.5313,27.3438 46.875,23.5938 C52.625,21.6719 56.7813,18.0938 60.5469,12.2344 C63.8438,6.5 64.7813,0.390625 63.3594,-5.92188 M29.1406,20.2969 C24.5,19.0781 20.0625,16.5781 16.3125,13.0625 C15,11.8438 13.125,9.67188 11.6563,6.28125 C10.2969,3.10938 9.625,-0.328125 9.6875,-3.90625 C9.75,-8.60938 11.0625,-13.4375 13.5625,-18.2188 C16.4844,-23.7969 21.0469,-29.3281 27.1094,-34.6563 C28.5625,-35.9375 29.9375,-37.2188 31.2188,-38.5 C31.9844,-34.2344 32.8125,-29.5469 33.6875,-24.6719 C29.8438,-23.4063 25.0938,-20.25 21.9844,-14.5938 C18.4375,-8.03125 18.5781,-2.5 19.3125,0.984375 C20.25,5.4375 22.7813,9.20313 26.2344,11.2969 C27.1719,11.8594 31.2969,13.9844 33.1406,13.4063 C33.5156,13.2969 33.7813,13.0625 33.9219,12.7344 C34.4375,11.5625 33.4063,10.9219 31.8594,9.96875 C31.25,9.59375 30.5781,9.17188 29.8594,8.64063 C26.5313,6.15625 25.0781,1.70313 26.1563,-2.6875 C26.7344,-5.07813 28.0156,-7.25 29.8594,-8.95313 C31.5156,-10.5 33.5625,-11.5938 35.9375,-12.2344 C37.9844,-0.984375 40.0469,10.1719 41.6875,18.5313 C41.8125,19.2188 41.9531,19.8906 42.0781,20.5625 C37.7031,21.5 33.3594,21.4063 29.1406,20.2969 M40.4688,-12.9063 C50.8125,-13.375 55.0781,-5.9375 55.9688,-1.10938 C56.4375,1.4375 56.4375,5.875 54.8906,10.0938 C53.7188,13.2656 51.2656,17.3438 46.125,19.4063 C46.0625,18.9844 45.9844,18.5469 45.9063,18.125 C44.3594,9.34375 42.4219,-1.65625 40.4688,-12.9063 M33.1406,-83.8594 C34.9219,-89.5938 37.6563,-92.8438 39.6563,-94.5781 C41.4063,-96.0938 43.0469,-96.8125 43.9688,-96.8125 C44.1094,-96.8125 44.2344,-96.7813 44.3281,-96.75 C44.7969,-96.6094 45.3281,-96.0469 45.7969,-95.1719 C48.1094,-90.8906 47.3594,-84.1719 46.0156,-79.7344 C44.3906,-74.3281 41.4688,-68.7188 32.6719,-59.1094 C32.5,-60.2188 32.3438,-61.2656 32.1875,-62.25 C30.9375,-70.5313 31.2656,-77.8125 33.1406,-83.8594"/>
<path class="Clef" transform="matrix(0.992126,0,0,0.992126,34.0158,1199.87)" d="M63.3594,-5.92188 C62.125,-11.3438 59.4844,-15.1719 58.7031,-16.2031 C55.5156,-20.4844 51.5,-23.3281 46.8125,-24.6875 C43.7031,-25.5625 40.7031,-25.6875 38.2813,-25.5 C37.2344,-31.5156 36.2344,-37.3906 35.3281,-42.8438 C40.7813,-49.0156 44.4063,-54.8125 46.6875,-59.1094 C50.1563,-65.6875 51.2969,-70.2656 51.3594,-70.4688 C53.0781,-75.6875 53.4375,-83.3906 52.3281,-91.5938 C51.3281,-99.1406 49.2344,-105.859 46.875,-109.109 C45.8594,-110.531 44.7969,-111.266 43.7656,-111.266 C42.5469,-111.266 40.0313,-110.031 37.1406,-107.25 C34.8438,-105.063 31.5781,-101.172 29.0156,-95.1563 C26.0156,-88.0938 25.7969,-78.6094 26.1563,-71.8906 C26.5313,-64.6094 27.6406,-58.9219 27.6563,-58.875 C27.6719,-58.7813 27.9375,-57.2813 28.375,-54.7188 C28.1563,-54.4844 27.9063,-54.2656 27.6563,-54.0156 C26.625,-53.0156 25.4375,-51.8906 24.0469,-50.5 C23.1875,-49.6406 22.2344,-48.7344 21.2344,-47.7656 C12.7969,-39.625 0,-27.2969 0,-8.14063 C0,-3.4375 0.90625,0.984375 2.6875,5 C4.26563,8.59375 6.5625,11.875 9.5,14.75 C17.2344,22.3125 27.8281,25.5156 34.875,25.3594 C37.8281,25.2813 40.4688,25.0469 42.8594,24.5938 C44.6875,34.2031 45.8281,41.2344 45.8594,46.5781 C45.9063,53.0938 44.25,57.0781 40.3594,59.8438 C37.9219,61.5781 35.1094,62.5313 32.0156,62.6719 C29.4219,62.7969 27.1563,62.3281 25.7344,61.9219 L25.7188,61.9219 C25.7188,61.9219 25.4375,61.8281 25.4219,61.6406 C25.4063,61.4531 25.7656,61.4063 25.7656,61.4063 L25.7969,61.4063 C27.7188,60.9688 31.2813,59.7344 33.6406,56.4375 C35.4375,53.9063 36.3125,49.2813 34.4688,45.3438 C33.3594,42.9531 30.8594,40 25.2344,39.5469 C22.7344,39.3438 20.4688,39.8594 18.4688,41.0625 C16.6563,42.1406 15.1563,43.7813 14.1094,45.7813 C11.6563,50.4844 12.1094,56.2188 15.2344,60.0625 C18.2031,63.6875 22.8125,66 28.25,66.5781 C29.1094,66.6719 29.9531,66.7031 30.7969,66.7031 C35.2344,66.7031 39.625,65.5 43.2031,63.2969 C46.8594,60.7188 48.9844,56.7344 49.6563,51.1094 C50.2188,46.4688 49.8281,40.5469 48.4375,32.4688 C48.0781,30.375 47.5313,27.3438 46.875,23.5938 C52.625,21.6719 56.7813,18.0938 60.5469,12.2344 C63.8438,6.5 64.7813,0.390625 63.3594,-5.92188 M29.1406,20.2969 C24.5,19.0781 20.0625,16.5781 16.3125,13.0625 C15,11.8438 13.125,9.67188 11.6563,6.28125 C10.2969,3.10938 9.625,-0.328125 9.6875,-3.90625 C9.75,-8.60938 11.0625,-13.4375 13.5625,-18.2188 C16.4844,-23.7969 21.0469,-29.3281 27.1094,-34.6563 C28.5625,-35.9375 29.9375,-37.2188 31.2188,-38.5 C31.9844,-34.2344 32.8125,-29.5469 33.6875,-24.6719 C29.8438,-23.4063 25.0938,-20.25 21.9844,-14.5938 C18.4375,-8.03125 18.5781,-2.5 19.3125,0.984375 C20.25,5.4375 22.7813,9.20313 26.2344,11.2969 C27.1719,11.8594 31.2969,13.9844 33.1406,13.4063 C33.5156,13.2969 33.7813,13.0625 33.9219,12.7344 C34.4375,11.5625 33.4063,10.9219 31.8594,9.96875 C31.25,9.59375 30.5781,9.17188 29.8594,8.64063 C26.5313,6.15625 25.0781,1.70313 26.1563,-2.6875 C26.7344,-5.07813 28.0156,-7.25 29.8594,-8.95313 C31.5156,-10.5 33.5625,-11.5938 35.9375,-12.2344 C37.9844,-0.984375 40.0469,10.1719 41.6875,18.5313 C41.8125,19.2188 41.9531,19.8906 42.0781,20.5625 C37.7031,21.5 33.3594,21.4063 29.1406,20.2969 M40.4688,-12.9063 C50.8125,-13.375 55.0781,-5.9375 55.9688,-1.10938 C56.4375,1.4375 56.4375,5.875 54.8906,10.0938 C53.7188,13.2656 51.2656,17.3438 46.125,19.4063 C46.0625,18.9844 45.9844,18.5469 45.9063,18.125 C44.3594,9.34375 42.4219,-1.65625 40.4688,-12.9063 M33.1406,-83.8594 C34.9219,-89.5938 37.6563,-92.8438 39.6563,-94.5781 C41.4063,-96.0938 43.0469,-96.8125 43.9688,-96.8125 C44.1094,-96.8125 44.2344,-96.7813 44.3281,-96.75 C44.7969,-96.6094 45.3281,-96.0469 45.7969,-95.1719 C48.1094,-90.8906 47.3594,-84.1719 46.0156,-79.7344 C44.3906,-74.3281 41.4688,-68.7188 32.6719,-59.1094 C32.5,-60.2188 32.3438,-61.2656 32.1875,-62.25 C30.9375,-70.5313 31.2656,-77.8125 33.1406,-83.8594"/>
<path class="TimeSig" transform="matrix(0.992126,0,0,0.992126,244.951,212.73)" d="M3.59375,12.625 L20.7656,12.625 L20.7656,20.0781 L12.5469,20.0781 C11.7656,20.0781 11.125,20.7031 11.125,21.4844 L11.125,23.3906 C11.125,24.1719 11.7656,24.7969 12.5469,24.7969 L42.7969,24.7969 C43.5781,24.7969 44.2031,24.1719 44.2031,23.3906 L44.2031,21.4844 C44.2031,20.7031 43.5781,20.0781 42.7969,20.0781 L33.8594,20.0781 L33.8594,12.625 L42.7969,12.625 C43.5781,12.625 44.2031,12 44.2031,11.2188 L44.2031,9.3125 C44.2031,8.53125 43.5781,7.90625 42.7969,7.90625 L33.8594,7.90625 L33.8594,-8.0625 C33.8594,-8.59375 33.5469,-9.07813 33.0781,-9.3125 L31.8594,-9.92188 C31.3281,-10.1719 30.7031,-10.0781 30.2656,-9.6875 L21.2188,-1.375 C20.9375,-1.09375 20.7656,-0.734375 20.7656,-0.328125 L20.7656,7.90625 L9.25,7.90625 C9.25,7.90625 20.375,-4.125 32.2188,-19.8906 C33.0781,-21.0469 32.5781,-22.0938 32.3906,-22.2813 L30.2188,-24.4844 C29.9531,-24.75 29.5938,-24.9063 29.2188,-24.9063 C28.625,-24.9063 15.0625,-24.875 14.3438,-24.9063 C13.625,-24.9219 13.0938,-24.2969 13.0156,-23.6875 C13.0156,-23.6875 12.4844,-16.3281 9.875,-8.1875 C7.28125,-0.078125 4.34375,4.90625 1.6875,8.53125 C1.6875,8.53125 1.14063,9.51563 1.5,10.2656 C1.84375,11.0156 2.48438,12.0938 2.48438,12.0938 C2.48438,12.0938 2.73438,12.625 3.59375,12.625"/>
<path class="TimeSig" transform="matrix(0.992126,0,0,0.992126,244.951,262.073)" d="M3.59375,12.625 L20.7656,12.625 L20.7656,20.0781 L12.5469,20.0781 C11.7656,20.0781 11.125,20.7031 11.125,21.4844 L11.125,23.3906 C11.125,24.1719 11.7656,24.7969 12.5469,24.7969 L42.7969,24.7969 C43.5781,24.7969 44.2031,24.1719 44.2031,23.3906 L44.2031,21.4844 C44.2031,20.7031 43.5781,20.0781 42.7969,20.0781 L33.8594,20.0781 L33.8594,12.625 L42.7969,12.625 C43.5781,12.625 44.2031,12 44.2031,11.2188 L44.2031,9.3125 C44.2031,8.53125 43.5781,7.90625 42.7969,7.90625 L33.8594,7.90625 L33.8594,-8.0625 C33.8594,-8.59375 33.5469,-9.07813 33.0781,-9.3125 L31.8594,-9.92188 C31.3281,-10.1719 30.7031,-10.0781 30.2656,-9.6875 L21.2188,-1.375 C20.9375,-1.09375 20.7656,-0.734375 20.7656,-0.328125 L20.7656,7.90625 L9.25,7.90625 C9.25,7.90625 20.375,-4.125 32.2188,-19.8906 C33.0781,-21.0469 32.5781,-22.0938 32.3906,-22.2813 L30.2188,-24.4844 C29.9531,-24.75 29.5938,-24.9063 29.2188,-24.9063 C28.625,-24.9063 15.0625,-24.875 14.3438,-24.9063 C13.625,-24.9219 13.0938,-24.2969 13.0156,-23.6875 C13.0156,-23.6875 12.4844,-16.3281 9.875,-8.1875 C7.28125,-0.078125 4.34375,4.90625 1.6875,8.53125 C1.6875,8.53125 1.14063,9.51563 1.5,10.2656 C1.84375,11.0156 2.48438,12.0938 2.48438,12.0938 C2.48438,12.0938 2.73438,12.625 3.59375,12.625"/>
<path class="RehearsalMark" fill="none" stroke="#000000" stroke-width="3.97" stroke-linecap="square" stroke-linejoin="miter" stroke-miterlimit="2" fill-rule="evenodd" d="M154.216,21.0729 L262.987,21.0729 L262.987,122.845 L154.216,122.845 L154.216,21.0729 "/>
<path class="RehearsalMark" d="M205.352,35.4899 L182.883,87.9587 C178.32,98.6618 174.664,102.521 168.82,103.115 L168.82,108.459 L197.43,108.459 L197.43,103.115 C190.398,102.724 187.633,100.834 187.633,96.2868 C187.633,94.5993 188.023,93.0212 189.117,90.6462 L190.695,86.8806 L215.352,86.8806 L219.117,96.5837 C220.195,99.3493 220.305,99.8493 220.305,100.631 C220.305,102.427 218.914,103.021 214.555,103.021 L212.867,103.115 L212.867,108.459 L247.617,108.459 L247.617,103.115 C241.977,102.912 240.398,101.927 238.32,96.8806 L212.867,35.4899 L205.352,35.4899 M203.273,56.5837 L212.867,80.2399 L193.273,80.2399 L203.273,56.5837 "/>
<path class="RehearsalMark" fill="none" stroke="#000000" stroke-width="3.97" stroke-linecap="square" stroke-linejoin="miter" stroke-miterlimit="2" fill-rule="evenodd" d="M32.3294,654.622 L133.101,654.622 L133.101,755.393 L32.3294,755.393 L32.3294,654.622 "/>
<path class="RehearsalMark" d="M47.4027,669.523 L47.4027,674.882 L48.8871,674.882 C54.2308,674.882 56.1058,675.273 56.9964,676.257 C57.6996,677.351 57.6996,677.648 57.6996,683.789 L57.6996,726.757 C57.6996,732.882 57.6996,733.179 56.9964,734.179 C56.1058,735.273 54.1371,735.664 48.8871,735.664 L47.4027,735.664 L47.4027,741.007 L87.4964,741.007 C97.7933,741.007 103.043,740.211 108.184,737.945 C114.418,735.164 118.575,728.929 118.575,722.195 C118.575,715.273 114.621,709.82 107.293,706.461 C103.934,704.867 101.059,704.086 95.8089,703.382 C100.653,702.601 103.434,701.898 106.2,700.617 C112.137,697.742 115.309,692.992 115.309,687.054 C115.309,681.414 112.34,676.164 107.496,673.492 C102.043,670.414 97.2933,669.523 85.6058,669.523 L47.4027,669.523 M75.5121,701.601 L75.5121,680.617 C75.3089,676.461 76.6996,675.07 81.0589,674.882 L84.0277,674.882 C92.7464,674.882 97.3871,679.226 97.3871,687.445 C97.3871,692.304 95.7152,696.164 92.5433,698.632 C89.8714,700.82 86.4964,701.601 80.3714,701.601 L75.5121,701.601 M75.5121,707.054 L82.3402,707.054 C88.5746,707.054 91.4496,707.648 94.2308,709.429 C97.6839,711.711 99.6683,716.054 99.6683,721.211 C99.6683,725.961 97.8871,730.32 95.0121,732.695 C92.5433,734.664 89.2777,735.664 84.5277,735.664 L81.5589,735.664 C75.9027,735.461 75.3089,734.867 75.5121,729.32 L75.5121,707.054 "/>
<path class="Harmony" d="M350.527,121.866 C350.496,121.881 350.449,121.881 350.386,121.881 C350.324,121.881 350.277,121.897 350.246,121.897 C350.199,121.912 350.152,121.912 350.09,121.928 C350.027,121.928 349.996,121.944 349.949,121.959 C349.902,121.975 349.871,122.006 349.824,122.022 C349.777,122.053 349.746,122.069 349.73,122.116 C349.683,122.147 349.668,122.178 349.636,122.225 C349.621,122.256 349.605,122.319 349.605,122.366 C349.605,122.397 349.605,122.428 349.605,122.475 L349.605,122.506 C349.605,122.537 349.605,122.584 349.605,122.647 C349.621,122.709 349.621,122.756 349.621,122.787 C349.621,123.366 349.636,123.928 349.652,124.475 C349.652,124.506 349.652,124.537 349.652,124.569 C349.652,124.678 349.652,124.819 349.636,124.975 C349.621,125.178 349.621,125.319 349.621,125.412 L349.621,125.444 L349.621,125.537 C349.621,125.553 349.621,125.584 349.636,125.616 C349.636,125.647 349.636,125.662 349.652,125.678 C349.668,125.694 349.683,125.709 349.715,125.725 C349.73,125.741 349.761,125.741 349.793,125.741 L349.808,125.741 C349.98,125.741 350.152,125.709 350.324,125.631 C350.511,125.569 350.668,125.491 350.824,125.381 C350.98,125.287 351.121,125.162 351.261,125.006 C351.402,124.866 351.527,124.709 351.621,124.553 C351.73,124.397 351.808,124.225 351.871,124.053 C351.949,123.881 351.98,123.709 351.98,123.537 C351.996,123.506 351.996,123.459 351.996,123.428 C351.996,123.334 351.98,123.241 351.965,123.131 C351.933,122.991 351.902,122.85 351.84,122.725 C351.793,122.6 351.715,122.475 351.621,122.366 C351.543,122.241 351.433,122.147 351.324,122.069 C351.215,121.991 351.09,121.928 350.949,121.897 C350.871,121.866 350.777,121.866 350.668,121.866 C350.621,121.866 350.574,121.866 350.527,121.866 M350.215,125.1 C350.215,124.959 350.215,124.741 350.215,124.475 C350.23,124.256 350.23,124.053 350.23,123.866 C350.23,123.819 350.23,123.787 350.23,123.741 C350.23,123.522 350.215,123.303 350.215,123.1 C350.215,123.069 350.199,123.037 350.199,122.959 C350.183,122.881 350.168,122.803 350.168,122.741 C350.152,122.709 350.152,122.678 350.152,122.647 C350.152,122.616 350.152,122.584 350.168,122.553 C350.168,122.491 350.199,122.444 350.23,122.412 C350.277,122.381 350.324,122.366 350.386,122.366 C350.402,122.366 350.402,122.366 350.418,122.366 C350.496,122.381 350.574,122.397 350.668,122.444 C350.746,122.491 350.824,122.553 350.902,122.616 C350.98,122.678 351.043,122.741 351.105,122.787 C351.168,122.85 351.199,122.897 351.23,122.944 C351.308,123.069 351.371,123.225 351.402,123.381 C351.418,123.475 351.418,123.553 351.418,123.647 C351.418,123.709 351.418,123.787 351.418,123.85 C351.386,124.006 351.34,124.147 351.277,124.303 C351.215,124.444 351.121,124.569 351.027,124.694 C350.918,124.803 350.793,124.897 350.668,124.959 C350.527,125.037 350.371,125.084 350.215,125.1"/>
<path class="Harmony" d="M366.527,34.9952 C366.058,35.089 365.293,35.1827 364.058,35.2921 C362.824,35.3858 361.871,35.5733 361.215,35.6671 C360.543,35.7608 359.59,35.8546 358.449,36.0421 C357.308,36.2296 356.465,36.5265 355.699,36.8077 C354.933,37.089 354.09,37.464 353.324,37.9483 C352.558,38.4171 351.902,38.9015 351.418,39.5577 C350.761,40.2296 350.277,40.9796 349.902,41.7452 C349.527,42.5108 349.246,43.4483 349.136,44.4015 C349.043,45.0733 349.043,45.7296 349.043,46.4015 L349.043,46.964 C349.136,47.6358 349.136,48.589 349.246,49.7296 C349.34,50.8702 349.34,51.8077 349.34,52.4796 C349.34,63.3077 349.621,73.9483 350.09,84.4952 C350.183,85.0577 350.183,85.6358 350.183,86.3077 C350.09,88.2921 349.996,90.9483 349.808,94.089 C349.527,97.7921 349.34,100.558 349.34,102.355 L349.34,102.933 L349.34,104.542 C349.34,105.011 349.527,105.495 349.621,106.058 C349.715,106.636 349.902,107.105 350.183,107.386 C350.48,107.683 350.761,107.964 351.23,108.245 C351.621,108.433 352.09,108.526 352.652,108.526 L352.949,108.526 C356.261,108.433 359.59,107.776 362.918,106.542 C366.246,105.308 369.386,103.776 372.324,101.792 C375.277,99.7921 378.027,97.4171 380.683,94.6671 C383.34,91.9015 385.621,89.0577 387.527,86.0108 C389.418,82.9796 391.043,79.839 392.277,76.5108 C393.511,73.1827 394.168,69.8702 394.371,66.7296 C394.465,66.0577 394.465,65.3077 394.465,64.6358 C394.465,62.839 394.277,60.9327 393.886,59.0421 C393.418,56.3702 392.652,53.714 391.605,51.2452 C390.558,48.7765 389.23,46.4952 387.527,44.3077 C385.808,42.1202 383.918,40.3233 381.824,38.8077 C379.73,37.2765 377.449,36.1358 374.793,35.4796 C373.09,34.9952 371.277,34.8077 369.48,34.8077 C368.527,34.8077 367.574,34.9015 366.527,34.9952 M360.636,96.3702 C360.636,93.6202 360.73,89.6202 360.824,84.4952 C360.918,80.4171 361.011,76.5108 361.011,72.9952 C361.011,72.1515 360.918,71.2921 360.918,70.4327 C360.918,66.2608 360.824,62.1671 360.636,58.3702 C360.636,57.9015 360.543,57.0421 360.355,55.6202 C360.168,54.1827 359.886,52.8546 359.777,51.6202 C359.683,51.0577 359.683,50.4796 359.683,49.9171 C359.683,49.2452 359.683,48.6827 359.777,48.0108 C359.98,46.7765 360.355,45.8233 361.011,45.3546 C361.871,44.6827 362.824,44.4015 363.871,44.4015 C364.152,44.4952 364.433,44.4952 364.73,44.4952 C366.152,44.6827 367.668,45.1671 369.277,46.0265 C370.902,46.8702 372.418,48.0108 373.84,49.1515 C375.277,50.2921 376.605,51.4327 377.652,52.5733 C378.683,53.714 379.543,54.5733 380.027,55.4327 C381.543,57.9015 382.59,60.6515 383.152,63.6827 C383.433,65.4015 383.636,67.1046 383.636,68.8233 C383.636,70.0577 383.527,71.2921 383.433,72.5265 C382.965,75.464 382.105,78.3233 380.871,81.0733 C379.636,83.8233 378.027,86.3077 376.121,88.4796 C374.136,90.6671 371.855,92.3858 369.183,93.8077 C366.527,95.2296 363.683,96.089 360.636,96.3702"/>
<path class="Harmony" d="M1025.99,51.3968 C1025.53,51.4905 1024.76,51.5843 1023.53,51.6937 C1022.29,51.7874 1021.34,51.9749 1020.68,52.0687 C1020.01,52.1624 1019.06,52.2562 1017.92,52.4437 C1016.78,52.6312 1015.93,52.928 1015.17,53.2093 C1014.4,53.4905 1013.56,53.8655 1012.79,54.3499 C1012.03,54.8187 1011.37,55.303 1010.88,55.9593 C1010.23,56.6312 1009.74,57.3812 1009.37,58.1468 C1008.99,58.9124 1008.71,59.8499 1008.6,60.803 C1008.51,61.4749 1008.51,62.1312 1008.51,62.803 L1008.51,63.3655 C1008.6,64.0374 1008.6,64.9905 1008.71,66.1312 C1008.81,67.2718 1008.81,68.2093 1008.81,68.8812 C1008.81,79.7093 1009.09,90.3499 1009.56,100.897 C1009.65,101.459 1009.65,102.037 1009.65,102.709 C1009.56,104.694 1009.46,107.35 1009.28,110.491 C1008.99,114.194 1008.81,116.959 1008.81,118.756 L1008.81,119.334 L1008.81,120.944 C1008.81,121.412 1008.99,121.897 1009.09,122.459 C1009.18,123.037 1009.37,123.506 1009.65,123.787 C1009.95,124.084 1010.23,124.366 1010.7,124.647 C1011.09,124.834 1011.56,124.928 1012.12,124.928 L1012.42,124.928 C1015.73,124.834 1019.06,124.178 1022.38,122.944 C1025.71,121.709 1028.85,120.178 1031.79,118.194 C1034.74,116.194 1037.49,113.819 1040.15,111.069 C1042.81,108.303 1045.09,105.459 1046.99,102.412 C1048.88,99.3812 1050.51,96.2405 1051.74,92.9124 C1052.98,89.5843 1053.63,86.2718 1053.84,83.1312 C1053.93,82.4593 1053.93,81.7093 1053.93,81.0374 C1053.93,79.2405 1053.74,77.3343 1053.35,75.4437 C1052.88,72.7718 1052.12,70.1155 1051.07,67.6468 C1050.03,65.178 1048.7,62.8968 1046.99,60.7093 C1045.28,58.5218 1043.38,56.7249 1041.29,55.2093 C1039.2,53.678 1036.92,52.5374 1034.26,51.8812 C1032.56,51.3968 1030.74,51.2093 1028.95,51.2093 C1027.99,51.2093 1027.04,51.303 1025.99,51.3968 M1020.1,112.772 C1020.1,110.022 1020.2,106.022 1020.29,100.897 C1020.38,96.8187 1020.48,92.9124 1020.48,89.3968 C1020.48,88.553 1020.38,87.6937 1020.38,86.8343 C1020.38,82.6624 1020.29,78.5687 1020.1,74.7718 C1020.1,74.303 1020.01,73.4437 1019.82,72.0218 C1019.63,70.5843 1019.35,69.2562 1019.24,68.0218 C1019.15,67.4593 1019.15,66.8812 1019.15,66.3187 C1019.15,65.6468 1019.15,65.0843 1019.24,64.4124 C1019.45,63.178 1019.82,62.2249 1020.48,61.7562 C1021.34,61.0843 1022.29,60.803 1023.34,60.803 C1023.62,60.8968 1023.9,60.8968 1024.2,60.8968 C1025.62,61.0843 1027.13,61.5687 1028.74,62.428 C1030.37,63.2718 1031.88,64.4124 1033.31,65.553 C1034.74,66.6937 1036.07,67.8343 1037.12,68.9749 C1038.15,70.1155 1039.01,70.9749 1039.49,71.8343 C1041.01,74.303 1042.06,77.053 1042.62,80.0843 C1042.9,81.803 1043.1,83.5062 1043.1,85.2249 C1043.1,86.4593 1042.99,87.6937 1042.9,88.928 C1042.43,91.8655 1041.57,94.7249 1040.34,97.4749 C1039.1,100.225 1037.49,102.709 1035.59,104.881 C1033.6,107.069 1031.32,108.787 1028.65,110.209 C1025.99,111.631 1023.15,112.491 1020.1,112.772"/>
<path class="Harmony" d="M1685.46,51.3968 C1684.99,51.4905 1684.23,51.5843 1682.99,51.6937 C1681.76,51.7874 1680.81,51.9749 1680.15,52.0687 C1679.48,52.1624 1678.52,52.2562 1677.38,52.4437 C1676.24,52.6312 1675.4,52.928 1674.63,53.2093 C1673.87,53.4905 1673.02,53.8655 1672.26,54.3499 C1671.49,54.8187 1670.84,55.303 1670.35,55.9593 C1669.7,56.6312 1669.21,57.3812 1668.84,58.1468 C1668.46,58.9124 1668.18,59.8499 1668.07,60.803 C1667.98,61.4749 1667.98,62.1312 1667.98,62.803 L1667.98,63.3655 C1668.07,64.0374 1668.07,64.9905 1668.18,66.1312 C1668.27,67.2718 1668.27,68.2093 1668.27,68.8812 C1668.27,79.7093 1668.56,90.3499 1669.02,100.897 C1669.12,101.459 1669.12,102.037 1669.12,102.709 C1669.02,104.694 1668.93,107.35 1668.74,110.491 C1668.46,114.194 1668.27,116.959 1668.27,118.756 L1668.27,119.334 L1668.27,120.944 C1668.27,121.412 1668.46,121.897 1668.56,122.459 C1668.65,123.037 1668.84,123.506 1669.12,123.787 C1669.41,124.084 1669.7,124.366 1670.16,124.647 C1670.56,124.834 1671.02,124.928 1671.59,124.928 L1671.88,124.928 C1675.2,124.834 1678.52,124.178 1681.85,122.944 C1685.18,121.709 1688.32,120.178 1691.26,118.194 C1694.21,116.194 1696.96,113.819 1699.62,111.069 C1702.27,108.303 1704.56,105.459 1706.46,102.412 C1708.35,99.3812 1709.98,96.2405 1711.21,92.9124 C1712.45,89.5843 1713.1,86.2718 1713.31,83.1312 C1713.4,82.4593 1713.4,81.7093 1713.4,81.0374 C1713.4,79.2405 1713.21,77.3343 1712.82,75.4437 C1712.35,72.7718 1711.59,70.1155 1710.54,67.6468 C1709.49,65.178 1708.16,62.8968 1706.46,60.7093 C1704.74,58.5218 1702.85,56.7249 1700.76,55.2093 C1698.66,53.678 1696.38,52.5374 1693.73,51.8812 C1692.02,51.3968 1690.21,51.2093 1688.41,51.2093 C1687.46,51.2093 1686.51,51.303 1685.46,51.3968 M1679.57,112.772 C1679.57,110.022 1679.66,106.022 1679.76,100.897 C1679.85,96.8187 1679.95,92.9124 1679.95,89.3968 C1679.95,88.553 1679.85,87.6937 1679.85,86.8343 C1679.85,82.6624 1679.76,78.5687 1679.57,74.7718 C1679.57,74.303 1679.48,73.4437 1679.29,72.0218 C1679.1,70.5843 1678.82,69.2562 1678.71,68.0218 C1678.62,67.4593 1678.62,66.8812 1678.62,66.3187 C1678.62,65.6468 1678.62,65.0843 1678.71,64.4124 C1678.91,63.178 1679.29,62.2249 1679.95,61.7562 C1680.81,61.0843 1681.76,60.803 1682.81,60.803 C1683.09,60.8968 1683.37,60.8968 1683.66,60.8968 C1685.09,61.0843 1686.6,61.5687 1688.21,62.428 C1689.84,63.2718 1691.35,64.4124 1692.77,65.553 C1694.21,66.6937 1695.54,67.8343 1696.59,68.9749 C1697.62,70.1155 1698.48,70.9749 1698.96,71.8343 C1700.48,74.303 1701.52,77.053 1702.09,80.0843 C1702.37,81.803 1702.57,83.5062 1702.57,85.2249 C1702.57,86.4593 1702.46,87.6937 1702.37,88.928 C1701.9,91.8655 1701.04,94.7249 1699.81,97.4749 C1698.57,100.225 1696.96,102.709 1695.06,104.881 C1693.07,107.069 1690.79,108.787 1688.12,110.209 C1685.46,111.631 1682.62,112.491 1679.57,112.772"/>
<path class="Harmony" d="M2365.83,51.7874 C2362.13,52.2562 2358.62,53.1155 2355.19,54.3499 C2351.77,55.5843 2348.63,57.2874 2345.6,59.2874 C2342.55,61.2874 2339.8,63.5687 2337.43,66.1312 C2335.05,68.6937 2333.05,71.6312 2331.35,74.9593 C2329.63,78.2874 2328.49,81.803 2327.83,85.5062 C2327.35,87.7874 2327.16,90.1624 2327.16,92.5374 L2327.16,93.2093 C2327.16,95.4749 2327.26,97.6624 2327.54,99.8499 C2327.83,102.225 2328.4,104.6 2329.16,106.787 C2330.02,109.069 2330.96,111.256 2332.01,113.241 C2333.05,115.241 2334.38,117.053 2335.91,118.662 C2337.43,120.272 2339.32,121.6 2341.23,122.741 C2343.13,123.881 2345.3,124.741 2347.68,125.225 C2349.3,125.506 2350.91,125.694 2352.54,125.694 C2353.38,125.694 2354.33,125.694 2355.38,125.6 C2358.32,125.319 2361.08,124.647 2363.65,123.694 C2366.21,122.741 2368.58,121.6 2370.58,120.272 C2372.57,118.944 2374.57,117.241 2376.38,115.334 C2378.18,113.444 2379.9,111.35 2381.32,109.256 C2382.74,107.162 2384.07,104.787 2385.49,102.131 C2387.68,97.7562 2388.73,94.053 2388.73,91.1155 C2388.73,88.1624 2387.68,85.8812 2385.49,84.2718 C2384.26,83.2249 2382.18,82.5687 2379.41,82.0843 C2377.43,81.803 2375.43,81.6155 2373.43,81.6155 L2372.96,81.6155 L2370.87,81.6155 C2367.93,81.7093 2365.16,82.178 2362.51,83.0374 C2359.85,83.8968 2358.04,84.9437 2357.08,86.178 C2356.8,86.6468 2356.52,87.0218 2356.24,87.4124 C2355.57,88.4593 2355.19,89.3968 2355.19,90.2562 C2355.19,91.4905 2356.05,92.3499 2357.66,92.8187 C2358.99,93.2093 2361.55,93.3968 2365.26,93.3968 L2366.12,93.3968 C2367.35,93.4905 2368.3,93.4905 2368.96,93.4905 C2372.87,93.4905 2375.24,93.9593 2375.99,95.0062 C2376.29,95.3812 2376.57,95.9593 2376.57,96.5218 C2376.57,97.0999 2376.48,97.6624 2376.38,98.2405 C2376.29,98.803 2375.99,99.4749 2375.71,100.225 C2375.43,100.991 2375.15,101.569 2374.85,102.037 C2374.57,102.506 2374.29,103.178 2373.91,103.944 C2373.52,104.694 2373.24,105.084 2373.15,105.272 C2372.68,106.116 2372.38,106.787 2372.1,107.256 C2371.82,107.741 2371.43,108.209 2370.96,108.881 C2370.49,109.537 2369.91,110.116 2369.44,110.491 C2367.44,112.006 2365.26,113.053 2362.69,113.537 L2359.46,113.912 L2359.08,113.912 C2357.85,113.819 2356.52,113.725 2355.29,113.444 C2352.91,112.959 2350.54,112.1 2348.35,110.772 C2346.16,109.444 2344.27,107.834 2342.83,105.928 C2341.41,103.944 2340.08,101.569 2339.13,98.8968 C2338.18,96.2405 2337.62,93.4905 2337.43,90.5374 C2337.33,89.4905 2337.33,88.553 2337.33,87.5062 C2337.33,85.5999 2337.43,83.7093 2337.71,81.8968 C2338.18,79.1468 2339.04,76.4749 2340.37,74.0062 C2341.69,71.5374 2343.41,69.553 2345.51,68.0218 C2348.07,66.0374 2351.19,64.5999 2354.8,63.6624 C2356.8,63.0843 2358.8,62.803 2360.69,62.803 C2362.04,62.803 2363.37,62.9905 2364.6,63.2718 C2365.65,63.5687 2366.68,63.9437 2367.93,64.5062 C2369.16,65.0843 2370.19,65.6468 2371.15,66.2249 C2372.1,66.7874 2373.15,67.3655 2374.19,67.928 C2375.24,68.5062 2376.29,68.9749 2377.23,69.1624 C2378.18,69.3499 2379.13,69.4593 2380.08,69.3499 C2381.04,69.2562 2381.98,68.7874 2382.93,67.928 C2383.88,67.0843 2384.74,65.9437 2385.58,64.5062 C2386.07,63.6624 2386.35,62.803 2386.35,61.9437 C2386.35,61.2874 2386.16,60.7093 2385.88,60.053 C2385.12,58.6155 2383.88,57.3812 2382.18,56.3343 C2380.46,55.303 2378.66,54.3499 2376.57,53.5843 C2374.48,52.8187 2372.48,52.3499 2370.49,52.0687 C2369.05,51.7874 2367.93,51.6937 2366.98,51.6937 C2366.49,51.6937 2366.12,51.6937 2365.83,51.7874"/>
<path class="Harmony" d="M208.533,361.827 C204.83,362.296 201.314,363.155 197.892,364.389 C194.47,365.624 191.33,367.327 188.298,369.327 C185.252,371.327 182.502,373.608 180.127,376.171 C177.752,378.733 175.752,381.671 174.048,384.999 C172.33,388.327 171.189,391.842 170.533,395.546 C170.048,397.827 169.861,400.202 169.861,402.577 L169.861,403.249 C169.861,405.514 169.955,407.702 170.236,409.889 C170.533,412.264 171.095,414.639 171.861,416.827 C172.72,419.108 173.658,421.296 174.705,423.28 C175.752,425.28 177.08,427.092 178.611,428.702 C180.127,430.311 182.017,431.639 183.923,432.78 C185.83,433.921 188.002,434.78 190.377,435.264 C192.002,435.546 193.611,435.733 195.236,435.733 C196.08,435.733 197.033,435.733 198.08,435.639 C201.017,435.358 203.783,434.686 206.345,433.733 C208.908,432.78 211.283,431.639 213.283,430.311 C215.267,428.983 217.267,427.28 219.08,425.374 C220.877,423.483 222.595,421.389 224.017,419.296 C225.439,417.202 226.767,414.827 228.189,412.171 C230.377,407.796 231.423,404.092 231.423,401.155 C231.423,398.202 230.377,395.921 228.189,394.311 C226.955,393.264 224.877,392.608 222.111,392.124 C220.127,391.842 218.127,391.655 216.127,391.655 L215.658,391.655 L213.564,391.655 C210.627,391.749 207.861,392.217 205.205,393.077 C202.548,393.936 200.736,394.983 199.783,396.217 C199.502,396.686 199.22,397.061 198.939,397.452 C198.267,398.499 197.892,399.436 197.892,400.296 C197.892,401.53 198.752,402.389 200.361,402.858 C201.689,403.249 204.252,403.436 207.955,403.436 L208.814,403.436 C210.048,403.53 211.002,403.53 211.658,403.53 C215.564,403.53 217.939,403.999 218.689,405.046 C218.986,405.421 219.267,405.999 219.267,406.561 C219.267,407.139 219.173,407.702 219.08,408.28 C218.986,408.842 218.689,409.514 218.408,410.264 C218.127,411.03 217.845,411.608 217.548,412.077 C217.267,412.546 216.986,413.217 216.611,413.983 C216.22,414.733 215.939,415.124 215.845,415.311 C215.377,416.155 215.08,416.827 214.798,417.296 C214.517,417.78 214.127,418.249 213.658,418.921 C213.189,419.577 212.611,420.155 212.142,420.53 C210.142,422.046 207.955,423.092 205.392,423.577 L202.158,423.952 L201.783,423.952 C200.548,423.858 199.22,423.764 197.986,423.483 C195.611,422.999 193.236,422.139 191.048,420.811 C188.861,419.483 186.97,417.874 185.533,415.967 C184.111,413.983 182.783,411.608 181.83,408.936 C180.877,406.28 180.314,403.53 180.127,400.577 C180.033,399.53 180.033,398.592 180.033,397.546 C180.033,395.639 180.127,393.749 180.408,391.936 C180.877,389.186 181.736,386.514 183.064,384.046 C184.392,381.577 186.111,379.592 188.205,378.061 C190.767,376.077 193.892,374.639 197.502,373.702 C199.502,373.124 201.502,372.842 203.392,372.842 C204.736,372.842 206.064,373.03 207.298,373.311 C208.345,373.608 209.377,373.983 210.627,374.546 C211.861,375.124 212.892,375.686 213.845,376.264 C214.798,376.827 215.845,377.405 216.892,377.967 C217.939,378.546 218.986,379.014 219.923,379.202 C220.877,379.389 221.83,379.499 222.783,379.389 C223.736,379.296 224.673,378.827 225.627,377.967 C226.58,377.124 227.439,375.983 228.283,374.546 C228.767,373.702 229.048,372.842 229.048,371.983 C229.048,371.327 228.861,370.749 228.58,370.092 C227.814,368.655 226.58,367.421 224.877,366.374 C223.158,365.342 221.361,364.389 219.267,363.624 C217.173,362.858 215.173,362.389 213.189,362.108 C211.752,361.827 210.627,361.733 209.673,361.733 C209.189,361.733 208.814,361.733 208.533,361.827"/>
<path class="Harmony" d="M896.171,381.389 C897.405,382.999 898.249,385.186 898.921,387.952 C899.593,390.702 900.061,393.358 900.53,396.124 C901.014,398.874 901.296,401.436 901.389,403.717 L894.171,402.952 L886.374,403.717 L890.374,391.842 L896.171,381.389 M894.452,414.827 L896.358,414.827 L899.202,414.827 L899.968,414.827 L900.827,414.827 C900.921,414.827 901.202,414.921 901.577,414.921 C901.968,414.921 902.249,414.921 902.436,415.014 C902.624,415.124 902.811,415.217 903.108,415.311 C903.389,415.405 903.577,415.499 903.764,415.686 C903.952,415.874 904.249,415.967 904.436,416.155 C904.905,416.639 905.374,417.592 905.764,418.827 C906.139,419.967 906.514,421.202 906.811,422.624 C907.093,424.046 907.374,425.467 907.655,427.092 C907.952,428.702 908.327,430.124 908.702,431.452 C909.093,432.78 909.655,434.014 910.233,435.061 C910.796,436.108 911.468,436.78 912.311,437.155 C912.702,437.342 913.171,437.436 913.749,437.436 C914.218,437.436 914.78,437.342 915.358,437.155 C916.218,436.874 916.874,436.499 917.546,436.108 C918.202,435.733 918.686,435.358 919.061,434.874 C919.436,434.405 919.733,433.921 920.014,433.358 C920.296,432.78 920.483,432.405 920.577,431.936 C920.671,431.546 920.671,431.171 920.671,430.702 L920.671,430.217 C920.671,429.561 920.671,428.889 920.577,428.421 C920.483,427.936 920.296,427.374 920.108,426.608 C919.921,425.858 919.733,425.28 919.53,424.811 C919.343,424.327 919.249,423.671 918.968,422.811 C918.686,421.952 918.389,421.389 918.296,421.014 C917.639,419.108 916.499,415.311 914.874,409.702 C913.749,405.624 912.796,402.202 912.124,399.53 C910.889,394.686 909.843,390.702 909.093,387.561 C907.858,382.342 906.905,378.827 906.421,377.014 C906.327,376.639 906.233,376.077 906.046,375.311 C905.858,374.546 905.764,373.889 905.671,373.311 C905.577,372.749 905.28,372.171 905.093,371.421 C904.905,370.655 904.718,369.889 904.53,369.327 C904.343,368.749 903.952,368.092 903.671,367.421 C903.389,366.764 902.999,366.28 902.624,365.811 C902.249,365.342 901.968,364.952 901.483,364.577 C901.014,364.202 900.53,363.811 899.968,363.717 C899.499,363.624 899.014,363.53 898.452,363.53 L898.061,363.53 C897.405,363.624 896.639,363.717 895.78,363.999 C895.124,364.296 894.358,364.671 893.702,365.139 C893.03,365.624 892.374,365.999 891.889,366.483 C891.421,366.952 890.936,367.624 890.468,368.374 C889.999,369.139 889.514,369.702 889.233,370.28 C888.952,370.842 888.561,371.608 888.186,372.561 C887.811,373.499 887.421,374.264 887.233,374.842 C887.046,375.405 886.858,376.171 886.483,377.124 C886.093,378.061 885.811,378.733 885.718,379.202 C882.968,386.139 880.202,392.702 877.452,399.061 C872.983,409.233 870.327,415.405 869.561,417.686 C869.468,418.061 869.093,418.733 868.608,419.764 C868.139,420.811 867.577,421.764 867.093,422.717 C866.624,423.671 866.139,424.905 865.577,426.139 C864.999,427.374 864.53,428.608 864.249,429.655 C863.858,430.702 863.671,431.639 863.671,432.499 C863.764,433.358 863.968,433.921 864.436,434.405 C865.296,435.061 866.233,435.452 867.28,435.452 L867.952,435.452 C869.28,435.264 870.608,434.874 871.936,434.124 C873.264,433.358 874.218,432.499 874.702,431.639 C875.264,430.608 875.843,429.374 876.311,427.842 C876.78,426.327 877.264,424.905 877.546,423.671 C877.827,422.436 878.218,421.108 878.874,419.671 C879.546,418.249 880.296,417.108 881.155,416.155 L886.28,414.546 C886.577,414.452 886.952,414.546 887.624,414.546 L890.374,414.546 C890.655,414.546 892.077,414.639 894.452,414.827"/>
<path class="Harmony" d="M1589.79,381.389 C1591.03,382.999 1591.87,385.186 1592.54,387.952 C1593.21,390.702 1593.68,393.358 1594.15,396.124 C1594.64,398.874 1594.92,401.436 1595.01,403.717 L1587.79,402.952 L1580,403.717 L1584,391.842 L1589.79,381.389 M1588.07,414.827 L1589.98,414.827 L1592.82,414.827 L1593.59,414.827 L1594.45,414.827 C1594.54,414.827 1594.82,414.921 1595.2,414.921 C1595.59,414.921 1595.87,414.921 1596.06,415.014 C1596.25,415.124 1596.43,415.217 1596.73,415.311 C1597.01,415.405 1597.2,415.499 1597.39,415.686 C1597.57,415.874 1597.87,415.967 1598.06,416.155 C1598.53,416.639 1599,417.592 1599.39,418.827 C1599.76,419.967 1600.14,421.202 1600.43,422.624 C1600.71,424.046 1601,425.467 1601.28,427.092 C1601.57,428.702 1601.95,430.124 1602.32,431.452 C1602.71,432.78 1603.28,434.014 1603.86,435.061 C1604.42,436.108 1605.09,436.78 1605.93,437.155 C1606.32,437.342 1606.79,437.436 1607.37,437.436 C1607.84,437.436 1608.4,437.342 1608.98,437.155 C1609.84,436.874 1610.5,436.499 1611.17,436.108 C1611.82,435.733 1612.31,435.358 1612.68,434.874 C1613.06,434.405 1613.36,433.921 1613.64,433.358 C1613.92,432.78 1614.11,432.405 1614.2,431.936 C1614.29,431.546 1614.29,431.171 1614.29,430.702 L1614.29,430.217 C1614.29,429.561 1614.29,428.889 1614.2,428.421 C1614.11,427.936 1613.92,427.374 1613.73,426.608 C1613.54,425.858 1613.36,425.28 1613.15,424.811 C1612.96,424.327 1612.87,423.671 1612.59,422.811 C1612.31,421.952 1612.01,421.389 1611.92,421.014 C1611.26,419.108 1610.12,415.311 1608.5,409.702 C1607.37,405.624 1606.42,402.202 1605.75,399.53 C1604.51,394.686 1603.46,390.702 1602.71,387.561 C1601.48,382.342 1600.53,378.827 1600.04,377.014 C1599.95,376.639 1599.86,376.077 1599.67,375.311 C1599.48,374.546 1599.39,373.889 1599.29,373.311 C1599.2,372.749 1598.9,372.171 1598.71,371.421 C1598.53,370.655 1598.34,369.889 1598.15,369.327 C1597.96,368.749 1597.57,368.092 1597.29,367.421 C1597.01,366.764 1596.62,366.28 1596.25,365.811 C1595.87,365.342 1595.59,364.952 1595.11,364.577 C1594.64,364.202 1594.15,363.811 1593.59,363.717 C1593.12,363.624 1592.64,363.53 1592.07,363.53 L1591.68,363.53 C1591.03,363.624 1590.26,363.717 1589.4,363.999 C1588.75,364.296 1587.98,364.671 1587.32,365.139 C1586.65,365.624 1586,365.999 1585.51,366.483 C1585.04,366.952 1584.56,367.624 1584.09,368.374 C1583.62,369.139 1583.14,369.702 1582.86,370.28 C1582.57,370.842 1582.18,371.608 1581.81,372.561 C1581.43,373.499 1581.04,374.264 1580.86,374.842 C1580.67,375.405 1580.48,376.171 1580.11,377.124 C1579.71,378.061 1579.43,378.733 1579.34,379.202 C1576.59,386.139 1573.82,392.702 1571.07,399.061 C1566.61,409.233 1563.95,415.405 1563.18,417.686 C1563.09,418.061 1562.71,418.733 1562.23,419.764 C1561.76,420.811 1561.2,421.764 1560.71,422.717 C1560.25,423.671 1559.76,424.905 1559.2,426.139 C1558.62,427.374 1558.15,428.608 1557.87,429.655 C1557.48,430.702 1557.29,431.639 1557.29,432.499 C1557.39,433.358 1557.59,433.921 1558.06,434.405 C1558.92,435.061 1559.86,435.452 1560.9,435.452 L1561.57,435.452 C1562.9,435.264 1564.23,434.874 1565.56,434.124 C1566.89,433.358 1567.84,432.499 1568.32,431.639 C1568.89,430.608 1569.46,429.374 1569.93,427.842 C1570.4,426.327 1570.89,424.905 1571.17,423.671 C1571.45,422.436 1571.84,421.108 1572.5,419.671 C1573.17,418.249 1573.92,417.108 1574.78,416.155 L1579.9,414.546 C1580.2,414.452 1580.57,414.546 1581.25,414.546 L1584,414.546 C1584.28,414.546 1585.7,414.639 1588.07,414.827"/>
<path class="Harmony" d="M2268.49,361.436 C2268.02,361.53 2267.26,361.624 2266.02,361.733 C2264.79,361.827 2263.84,362.014 2263.18,362.108 C2262.51,362.202 2261.56,362.296 2260.42,362.483 C2259.27,362.671 2258.43,362.967 2257.67,363.249 C2256.9,363.53 2256.06,363.905 2255.29,364.389 C2254.52,364.858 2253.87,365.342 2253.38,365.999 C2252.73,366.671 2252.24,367.421 2251.87,368.186 C2251.49,368.952 2251.21,369.889 2251.1,370.842 C2251.01,371.514 2251.01,372.171 2251.01,372.842 L2251.01,373.405 C2251.1,374.077 2251.1,375.03 2251.21,376.171 C2251.31,377.311 2251.31,378.249 2251.31,378.921 C2251.31,389.749 2251.59,400.389 2252.06,410.936 C2252.15,411.499 2252.15,412.077 2252.15,412.749 C2252.06,414.733 2251.96,417.389 2251.77,420.53 C2251.49,424.233 2251.31,426.999 2251.31,428.796 L2251.31,429.374 L2251.31,430.983 C2251.31,431.452 2251.49,431.936 2251.59,432.499 C2251.68,433.077 2251.87,433.546 2252.15,433.827 C2252.45,434.124 2252.73,434.405 2253.2,434.686 C2253.59,434.874 2254.06,434.967 2254.62,434.967 L2254.92,434.967 C2258.23,434.874 2261.56,434.217 2264.88,432.983 C2268.21,431.749 2271.35,430.217 2274.29,428.233 C2277.24,426.233 2279.99,423.858 2282.65,421.108 C2285.31,418.342 2287.59,415.499 2289.49,412.452 C2291.38,409.421 2293.01,406.28 2294.24,402.952 C2295.48,399.624 2296.13,396.311 2296.34,393.171 C2296.43,392.499 2296.43,391.749 2296.43,391.077 C2296.43,389.28 2296.24,387.374 2295.85,385.483 C2295.38,382.811 2294.62,380.155 2293.57,377.686 C2292.52,375.217 2291.2,372.936 2289.49,370.749 C2287.77,368.561 2285.88,366.764 2283.79,365.249 C2281.7,363.717 2279.42,362.577 2276.76,361.921 C2275.06,361.436 2273.24,361.249 2271.45,361.249 C2270.49,361.249 2269.54,361.342 2268.49,361.436 M2262.6,422.811 C2262.6,420.061 2262.7,416.061 2262.79,410.936 C2262.88,406.858 2262.98,402.952 2262.98,399.436 C2262.98,398.592 2262.88,397.733 2262.88,396.874 C2262.88,392.702 2262.79,388.608 2262.6,384.811 C2262.6,384.342 2262.51,383.483 2262.32,382.061 C2262.13,380.624 2261.85,379.296 2261.74,378.061 C2261.65,377.499 2261.65,376.921 2261.65,376.358 C2261.65,375.686 2261.65,375.124 2261.74,374.452 C2261.95,373.217 2262.32,372.264 2262.98,371.796 C2263.84,371.124 2264.79,370.842 2265.84,370.842 C2266.12,370.936 2266.4,370.936 2266.7,370.936 C2268.12,371.124 2269.63,371.608 2271.24,372.467 C2272.87,373.311 2274.38,374.452 2275.81,375.592 C2277.24,376.733 2278.57,377.874 2279.62,379.014 C2280.65,380.155 2281.51,381.014 2281.99,381.874 C2283.51,384.342 2284.56,387.092 2285.12,390.124 C2285.4,391.842 2285.6,393.546 2285.6,395.264 C2285.6,396.499 2285.49,397.733 2285.4,398.967 C2284.93,401.905 2284.07,404.764 2282.84,407.514 C2281.6,410.264 2279.99,412.749 2278.09,414.921 C2276.1,417.108 2273.82,418.827 2271.15,420.249 C2268.49,421.671 2265.65,422.53 2262.6,422.811"/>
<path class="Harmony" d="M208.533,679.409 C204.83,679.878 201.314,680.737 197.892,681.971 C194.47,683.206 191.33,684.909 188.298,686.909 C185.252,688.909 182.502,691.19 180.127,693.753 C177.752,696.315 175.752,699.253 174.048,702.581 C172.33,705.909 171.189,709.425 170.533,713.128 C170.048,715.409 169.861,717.784 169.861,720.159 L169.861,720.831 C169.861,723.096 169.955,725.284 170.236,727.471 C170.533,729.846 171.095,732.221 171.861,734.409 C172.72,736.69 173.658,738.878 174.705,740.862 C175.752,742.862 177.08,744.675 178.611,746.284 C180.127,747.893 182.017,749.221 183.923,750.362 C185.83,751.503 188.002,752.362 190.377,752.846 C192.002,753.128 193.611,753.315 195.236,753.315 C196.08,753.315 197.033,753.315 198.08,753.221 C201.017,752.94 203.783,752.268 206.345,751.315 C208.908,750.362 211.283,749.221 213.283,747.893 C215.267,746.565 217.267,744.862 219.08,742.956 C220.877,741.065 222.595,738.971 224.017,736.878 C225.439,734.784 226.767,732.409 228.189,729.753 C230.377,725.378 231.423,721.675 231.423,718.737 C231.423,715.784 230.377,713.503 228.189,711.893 C226.955,710.846 224.877,710.19 222.111,709.706 C220.127,709.425 218.127,709.237 216.127,709.237 L215.658,709.237 L213.564,709.237 C210.627,709.331 207.861,709.8 205.205,710.659 C202.548,711.518 200.736,712.565 199.783,713.8 C199.502,714.268 199.22,714.643 198.939,715.034 C198.267,716.081 197.892,717.018 197.892,717.878 C197.892,719.112 198.752,719.971 200.361,720.44 C201.689,720.831 204.252,721.018 207.955,721.018 L208.814,721.018 C210.048,721.112 211.002,721.112 211.658,721.112 C215.564,721.112 217.939,721.581 218.689,722.628 C218.986,723.003 219.267,723.581 219.267,724.143 C219.267,724.721 219.173,725.284 219.08,725.862 C218.986,726.425 218.689,727.096 218.408,727.846 C218.127,728.612 217.845,729.19 217.548,729.659 C217.267,730.128 216.986,730.8 216.611,731.565 C216.22,732.315 215.939,732.706 215.845,732.893 C215.377,733.737 215.08,734.409 214.798,734.878 C214.517,735.362 214.127,735.831 213.658,736.503 C213.189,737.159 212.611,737.737 212.142,738.112 C210.142,739.628 207.955,740.675 205.392,741.159 L202.158,741.534 L201.783,741.534 C200.548,741.44 199.22,741.346 197.986,741.065 C195.611,740.581 193.236,739.721 191.048,738.393 C188.861,737.065 186.97,735.456 185.533,733.55 C184.111,731.565 182.783,729.19 181.83,726.518 C180.877,723.862 180.314,721.112 180.127,718.159 C180.033,717.112 180.033,716.175 180.033,715.128 C180.033,713.221 180.127,711.331 180.408,709.518 C180.877,706.768 181.736,704.096 183.064,701.628 C184.392,699.159 186.111,697.175 188.205,695.643 C190.767,693.659 193.892,692.221 197.502,691.284 C199.502,690.706 201.502,690.425 203.392,690.425 C204.736,690.425 206.064,690.612 207.298,690.893 C208.345,691.19 209.377,691.565 210.627,692.128 C211.861,692.706 212.892,693.268 213.845,693.846 C214.798,694.409 215.845,694.987 216.892,695.55 C217.939,696.128 218.986,696.596 219.923,696.784 C220.877,696.971 221.83,697.081 222.783,696.971 C223.736,696.878 224.673,696.409 225.627,695.55 C226.58,694.706 227.439,693.565 228.283,692.128 C228.767,691.284 229.048,690.425 229.048,689.565 C229.048,688.909 228.861,688.331 228.58,687.675 C227.814,686.237 226.58,685.003 224.877,683.956 C223.158,682.925 221.361,681.971 219.267,681.206 C217.173,680.44 215.173,679.971 213.189,679.69 C211.752,679.409 210.627,679.315 209.673,679.315 C209.189,679.315 208.814,679.315 208.533,679.409"/>
<path class="Harmony" d="M906.741,698.971 C907.975,700.581 908.819,702.768 909.491,705.534 C910.163,708.284 910.631,710.94 911.1,713.706 C911.584,716.456 911.866,719.018 911.959,721.3 L904.741,720.534 L896.944,721.3 L900.944,709.425 L906.741,698.971 M905.022,732.409 L906.928,732.409 L909.772,732.409 L910.538,732.409 L911.397,732.409 C911.491,732.409 911.772,732.503 912.147,732.503 C912.538,732.503 912.819,732.503 913.006,732.596 C913.194,732.706 913.381,732.8 913.678,732.893 C913.959,732.987 914.147,733.081 914.334,733.268 C914.522,733.456 914.819,733.55 915.006,733.737 C915.475,734.221 915.944,735.175 916.334,736.409 C916.709,737.55 917.084,738.784 917.381,740.206 C917.663,741.628 917.944,743.05 918.225,744.675 C918.522,746.284 918.897,747.706 919.272,749.034 C919.663,750.362 920.225,751.596 920.803,752.643 C921.366,753.69 922.038,754.362 922.881,754.737 C923.272,754.925 923.741,755.018 924.319,755.018 C924.788,755.018 925.35,754.925 925.928,754.737 C926.788,754.456 927.444,754.081 928.116,753.69 C928.772,753.315 929.256,752.94 929.631,752.456 C930.006,751.987 930.303,751.503 930.584,750.94 C930.866,750.362 931.053,749.987 931.147,749.518 C931.241,749.128 931.241,748.753 931.241,748.284 L931.241,747.8 C931.241,747.143 931.241,746.471 931.147,746.003 C931.053,745.518 930.866,744.956 930.678,744.19 C930.491,743.44 930.303,742.862 930.1,742.393 C929.913,741.909 929.819,741.253 929.538,740.393 C929.256,739.534 928.959,738.971 928.866,738.596 C928.209,736.69 927.069,732.893 925.444,727.284 C924.319,723.206 923.366,719.784 922.694,717.112 C921.459,712.268 920.413,708.284 919.663,705.143 C918.428,699.925 917.475,696.409 916.991,694.596 C916.897,694.221 916.803,693.659 916.616,692.893 C916.428,692.128 916.334,691.471 916.241,690.893 C916.147,690.331 915.85,689.753 915.663,689.003 C915.475,688.237 915.288,687.471 915.1,686.909 C914.913,686.331 914.522,685.675 914.241,685.003 C913.959,684.346 913.569,683.862 913.194,683.393 C912.819,682.925 912.538,682.534 912.053,682.159 C911.584,681.784 911.1,681.393 910.538,681.3 C910.069,681.206 909.584,681.112 909.022,681.112 L908.631,681.112 C907.975,681.206 907.209,681.3 906.35,681.581 C905.694,681.878 904.928,682.253 904.272,682.721 C903.6,683.206 902.944,683.581 902.459,684.065 C901.991,684.534 901.506,685.206 901.038,685.956 C900.569,686.721 900.084,687.284 899.803,687.862 C899.522,688.425 899.131,689.19 898.756,690.143 C898.381,691.081 897.991,691.846 897.803,692.425 C897.616,692.987 897.428,693.753 897.053,694.706 C896.663,695.643 896.381,696.315 896.288,696.784 C893.538,703.721 890.772,710.284 888.022,716.643 C883.553,726.815 880.897,732.987 880.131,735.268 C880.038,735.643 879.663,736.315 879.178,737.346 C878.709,738.393 878.147,739.346 877.663,740.3 C877.194,741.253 876.709,742.487 876.147,743.721 C875.569,744.956 875.1,746.19 874.819,747.237 C874.428,748.284 874.241,749.221 874.241,750.081 C874.334,750.94 874.538,751.503 875.006,751.987 C875.866,752.643 876.803,753.034 877.85,753.034 L878.522,753.034 C879.85,752.846 881.178,752.456 882.506,751.706 C883.834,750.94 884.788,750.081 885.272,749.221 C885.834,748.19 886.413,746.956 886.881,745.425 C887.35,743.909 887.834,742.487 888.116,741.253 C888.397,740.018 888.788,738.69 889.444,737.253 C890.116,735.831 890.866,734.69 891.725,733.737 L896.85,732.128 C897.147,732.034 897.522,732.128 898.194,732.128 L900.944,732.128 C901.225,732.128 902.647,732.221 905.022,732.409"/>
<path class="Harmony" d="M1610.93,698.971 C1612.17,700.581 1613.01,702.768 1613.68,705.534 C1614.35,708.284 1614.82,710.94 1615.29,713.706 C1615.78,716.456 1616.06,719.018 1616.15,721.3 L1608.93,720.534 L1601.14,721.3 L1605.14,709.425 L1610.93,698.971 M1609.21,732.409 L1611.12,732.409 L1613.96,732.409 L1614.73,732.409 L1615.59,732.409 C1615.68,732.409 1615.96,732.503 1616.34,732.503 C1616.73,732.503 1617.01,732.503 1617.2,732.596 C1617.39,732.706 1617.57,732.8 1617.87,732.893 C1618.15,732.987 1618.34,733.081 1618.53,733.268 C1618.71,733.456 1619.01,733.55 1619.2,733.737 C1619.67,734.221 1620.14,735.175 1620.53,736.409 C1620.9,737.55 1621.28,738.784 1621.57,740.206 C1621.85,741.628 1622.14,743.05 1622.42,744.675 C1622.71,746.284 1623.09,747.706 1623.46,749.034 C1623.85,750.362 1624.42,751.596 1625,752.643 C1625.56,753.69 1626.23,754.362 1627.07,754.737 C1627.46,754.925 1627.93,755.018 1628.51,755.018 C1628.98,755.018 1629.54,754.925 1630.12,754.737 C1630.98,754.456 1631.64,754.081 1632.31,753.69 C1632.96,753.315 1633.45,752.94 1633.82,752.456 C1634.2,751.987 1634.5,751.503 1634.78,750.94 C1635.06,750.362 1635.25,749.987 1635.34,749.518 C1635.43,749.128 1635.43,748.753 1635.43,748.284 L1635.43,747.8 C1635.43,747.143 1635.43,746.471 1635.34,746.003 C1635.25,745.518 1635.06,744.956 1634.87,744.19 C1634.68,743.44 1634.5,742.862 1634.29,742.393 C1634.1,741.909 1634.01,741.253 1633.73,740.393 C1633.45,739.534 1633.15,738.971 1633.06,738.596 C1632.4,736.69 1631.26,732.893 1629.64,727.284 C1628.51,723.206 1627.56,719.784 1626.89,717.112 C1625.65,712.268 1624.6,708.284 1623.85,705.143 C1622.62,699.925 1621.67,696.409 1621.18,694.596 C1621.09,694.221 1621,693.659 1620.81,692.893 C1620.62,692.128 1620.53,691.471 1620.43,690.893 C1620.34,690.331 1620.04,689.753 1619.85,689.003 C1619.67,688.237 1619.48,687.471 1619.29,686.909 C1619.1,686.331 1618.71,685.675 1618.43,685.003 C1618.15,684.346 1617.76,683.862 1617.39,683.393 C1617.01,682.925 1616.73,682.534 1616.25,682.159 C1615.78,681.784 1615.29,681.393 1614.73,681.3 C1614.26,681.206 1613.78,681.112 1613.21,681.112 L1612.82,681.112 C1612.17,681.206 1611.4,681.3 1610.54,681.581 C1609.89,681.878 1609.12,682.253 1608.46,682.721 C1607.79,683.206 1607.14,683.581 1606.65,684.065 C1606.18,684.534 1605.7,685.206 1605.23,685.956 C1604.76,686.721 1604.28,687.284 1604,687.862 C1603.71,688.425 1603.32,689.19 1602.95,690.143 C1602.57,691.081 1602.18,691.846 1602,692.425 C1601.81,692.987 1601.62,693.753 1601.25,694.706 C1600.85,695.643 1600.57,696.315 1600.48,696.784 C1597.73,703.721 1594.96,710.284 1592.21,716.643 C1587.75,726.815 1585.09,732.987 1584.32,735.268 C1584.23,735.643 1583.85,736.315 1583.37,737.346 C1582.9,738.393 1582.34,739.346 1581.85,740.3 C1581.39,741.253 1580.9,742.487 1580.34,743.721 C1579.76,744.956 1579.29,746.19 1579.01,747.237 C1578.62,748.284 1578.43,749.221 1578.43,750.081 C1578.53,750.94 1578.73,751.503 1579.2,751.987 C1580.06,752.643 1581,753.034 1582.04,753.034 L1582.71,753.034 C1584.04,752.846 1585.37,752.456 1586.7,751.706 C1588.03,750.94 1588.98,750.081 1589.46,749.221 C1590.03,748.19 1590.6,746.956 1591.07,745.425 C1591.54,743.909 1592.03,742.487 1592.31,741.253 C1592.59,740.018 1592.98,738.69 1593.64,737.253 C1594.31,735.831 1595.06,734.69 1595.92,733.737 L1601.04,732.128 C1601.34,732.034 1601.71,732.128 1602.39,732.128 L1605.14,732.128 C1605.42,732.128 1606.84,732.221 1609.21,732.409"/>
<path class="Harmony" d="M2300.2,679.018 C2299.73,679.112 2298.97,679.206 2297.73,679.315 C2296.5,679.409 2295.55,679.596 2294.89,679.69 C2294.22,679.784 2293.27,679.878 2292.13,680.065 C2290.98,680.253 2290.14,680.55 2289.38,680.831 C2288.61,681.112 2287.77,681.487 2287,681.971 C2286.23,682.44 2285.58,682.925 2285.09,683.581 C2284.44,684.253 2283.95,685.003 2283.58,685.768 C2283.2,686.534 2282.92,687.471 2282.81,688.425 C2282.72,689.096 2282.72,689.753 2282.72,690.425 L2282.72,690.987 C2282.81,691.659 2282.81,692.612 2282.92,693.753 C2283.02,694.893 2283.02,695.831 2283.02,696.503 C2283.02,707.331 2283.3,717.971 2283.77,728.518 C2283.86,729.081 2283.86,729.659 2283.86,730.331 C2283.77,732.315 2283.67,734.971 2283.48,738.112 C2283.2,741.815 2283.02,744.581 2283.02,746.378 L2283.02,746.956 L2283.02,748.565 C2283.02,749.034 2283.2,749.518 2283.3,750.081 C2283.39,750.659 2283.58,751.128 2283.86,751.409 C2284.16,751.706 2284.44,751.987 2284.91,752.268 C2285.3,752.456 2285.77,752.55 2286.33,752.55 L2286.63,752.55 C2289.94,752.456 2293.27,751.8 2296.59,750.565 C2299.92,749.331 2303.06,747.8 2306,745.815 C2308.95,743.815 2311.7,741.44 2314.36,738.69 C2317.02,735.925 2319.3,733.081 2321.2,730.034 C2323.09,727.003 2324.72,723.862 2325.95,720.534 C2327.19,717.206 2327.84,713.893 2328.05,710.753 C2328.14,710.081 2328.14,709.331 2328.14,708.659 C2328.14,706.862 2327.95,704.956 2327.56,703.065 C2327.09,700.393 2326.33,697.737 2325.28,695.268 C2324.23,692.8 2322.91,690.518 2321.2,688.331 C2319.48,686.143 2317.59,684.346 2315.5,682.831 C2313.41,681.3 2311.13,680.159 2308.47,679.503 C2306.77,679.018 2304.95,678.831 2303.16,678.831 C2302.2,678.831 2301.25,678.925 2300.2,679.018 M2294.31,740.393 C2294.31,737.643 2294.41,733.643 2294.5,728.518 C2294.59,724.44 2294.69,720.534 2294.69,717.018 C2294.69,716.175 2294.59,715.315 2294.59,714.456 C2294.59,710.284 2294.5,706.19 2294.31,702.393 C2294.31,701.925 2294.22,701.065 2294.03,699.643 C2293.84,698.206 2293.56,696.878 2293.45,695.643 C2293.36,695.081 2293.36,694.503 2293.36,693.94 C2293.36,693.268 2293.36,692.706 2293.45,692.034 C2293.66,690.8 2294.03,689.846 2294.69,689.378 C2295.55,688.706 2296.5,688.425 2297.55,688.425 C2297.83,688.518 2298.11,688.518 2298.41,688.518 C2299.83,688.706 2301.34,689.19 2302.95,690.05 C2304.58,690.893 2306.09,692.034 2307.52,693.175 C2308.95,694.315 2310.28,695.456 2311.33,696.596 C2312.36,697.737 2313.22,698.596 2313.7,699.456 C2315.22,701.925 2316.27,704.675 2316.83,707.706 C2317.11,709.425 2317.31,711.128 2317.31,712.846 C2317.31,714.081 2317.2,715.315 2317.11,716.55 C2316.64,719.487 2315.78,722.346 2314.55,725.096 C2313.31,727.846 2311.7,730.331 2309.8,732.503 C2307.81,734.69 2305.53,736.409 2302.86,737.831 C2300.2,739.253 2297.36,740.112 2294.31,740.393"/>
<path class="Harmony" d="M208.533,989.448 C204.83,989.917 201.314,990.776 197.892,992.011 C194.47,993.245 191.33,994.948 188.298,996.948 C185.252,998.948 182.502,1001.23 180.127,1003.79 C177.752,1006.35 175.752,1009.29 174.048,1012.62 C172.33,1015.95 171.189,1019.46 170.533,1023.17 C170.048,1025.45 169.861,1027.82 169.861,1030.2 L169.861,1030.87 C169.861,1033.14 169.955,1035.32 170.236,1037.51 C170.533,1039.89 171.095,1042.26 171.861,1044.45 C172.72,1046.73 173.658,1048.92 174.705,1050.9 C175.752,1052.9 177.08,1054.71 178.611,1056.32 C180.127,1057.93 182.017,1059.26 183.923,1060.4 C185.83,1061.54 188.002,1062.4 190.377,1062.89 C192.002,1063.17 193.611,1063.35 195.236,1063.35 C196.08,1063.35 197.033,1063.35 198.08,1063.26 C201.017,1062.98 203.783,1062.31 206.345,1061.35 C208.908,1060.4 211.283,1059.26 213.283,1057.93 C215.267,1056.6 217.267,1054.9 219.08,1053 C220.877,1051.1 222.595,1049.01 224.017,1046.92 C225.439,1044.82 226.767,1042.45 228.189,1039.79 C230.377,1035.42 231.423,1031.71 231.423,1028.78 C231.423,1025.82 230.377,1023.54 228.189,1021.93 C226.955,1020.89 224.877,1020.23 222.111,1019.75 C220.127,1019.46 218.127,1019.28 216.127,1019.28 L215.658,1019.28 L213.564,1019.28 C210.627,1019.37 207.861,1019.84 205.205,1020.7 C202.548,1021.56 200.736,1022.6 199.783,1023.84 C199.502,1024.31 199.22,1024.68 198.939,1025.07 C198.267,1026.12 197.892,1027.06 197.892,1027.92 C197.892,1029.15 198.752,1030.01 200.361,1030.48 C201.689,1030.87 204.252,1031.06 207.955,1031.06 L208.814,1031.06 C210.048,1031.15 211.002,1031.15 211.658,1031.15 C215.564,1031.15 217.939,1031.62 218.689,1032.67 C218.986,1033.04 219.267,1033.62 219.267,1034.18 C219.267,1034.76 219.173,1035.32 219.08,1035.9 C218.986,1036.46 218.689,1037.14 218.408,1037.89 C218.127,1038.65 217.845,1039.23 217.548,1039.7 C217.267,1040.17 216.986,1040.84 216.611,1041.6 C216.22,1042.35 215.939,1042.75 215.845,1042.93 C215.377,1043.78 215.08,1044.45 214.798,1044.92 C214.517,1045.4 214.127,1045.87 213.658,1046.54 C213.189,1047.2 212.611,1047.78 212.142,1048.15 C210.142,1049.67 207.955,1050.71 205.392,1051.2 L202.158,1051.57 L201.783,1051.57 C200.548,1051.48 199.22,1051.39 197.986,1051.1 C195.611,1050.62 193.236,1049.76 191.048,1048.43 C188.861,1047.1 186.97,1045.5 185.533,1043.59 C184.111,1041.6 182.783,1039.23 181.83,1036.56 C180.877,1033.9 180.314,1031.15 180.127,1028.2 C180.033,1027.15 180.033,1026.21 180.033,1025.17 C180.033,1023.26 180.127,1021.37 180.408,1019.56 C180.877,1016.81 181.736,1014.14 183.064,1011.67 C184.392,1009.2 186.111,1007.21 188.205,1005.68 C190.767,1003.7 193.892,1002.26 197.502,1001.32 C199.502,1000.75 201.502,1000.46 203.392,1000.46 C204.736,1000.46 206.064,1000.65 207.298,1000.93 C208.345,1001.23 209.377,1001.6 210.627,1002.17 C211.861,1002.75 212.892,1003.31 213.845,1003.89 C214.798,1004.45 215.845,1005.03 216.892,1005.59 C217.939,1006.17 218.986,1006.64 219.923,1006.82 C220.877,1007.01 221.83,1007.12 222.783,1007.01 C223.736,1006.92 224.673,1006.45 225.627,1005.59 C226.58,1004.75 227.439,1003.6 228.283,1002.17 C228.767,1001.32 229.048,1000.46 229.048,999.605 C229.048,998.948 228.861,998.37 228.58,997.714 C227.814,996.276 226.58,995.042 224.877,993.995 C223.158,992.964 221.361,992.011 219.267,991.245 C217.173,990.48 215.173,990.011 213.189,989.73 C211.752,989.448 210.627,989.355 209.673,989.355 C209.189,989.355 208.814,989.355 208.533,989.448"/>
<path class="Harmony" d="M507.929,989.058 C507.461,989.151 506.695,989.245 505.461,989.355 C504.226,989.448 503.273,989.636 502.617,989.73 C501.945,989.823 500.992,989.917 499.851,990.105 C498.711,990.292 497.867,990.589 497.101,990.87 C496.336,991.151 495.492,991.526 494.726,992.011 C493.961,992.48 493.304,992.964 492.82,993.62 C492.164,994.292 491.679,995.042 491.304,995.808 C490.929,996.573 490.648,997.511 490.539,998.464 C490.445,999.136 490.445,999.792 490.445,1000.46 L490.445,1001.03 C490.539,1001.7 490.539,1002.65 490.648,1003.79 C490.742,1004.93 490.742,1005.87 490.742,1006.54 C490.742,1017.37 491.023,1028.01 491.492,1038.56 C491.586,1039.12 491.586,1039.7 491.586,1040.37 C491.492,1042.35 491.398,1045.01 491.211,1048.15 C490.929,1051.85 490.742,1054.62 490.742,1056.42 L490.742,1057 L490.742,1058.6 C490.742,1059.07 490.929,1059.56 491.023,1060.12 C491.117,1060.7 491.304,1061.17 491.586,1061.45 C491.882,1061.75 492.164,1062.03 492.632,1062.31 C493.023,1062.5 493.492,1062.59 494.054,1062.59 L494.351,1062.59 C497.664,1062.5 500.992,1061.84 504.32,1060.6 C507.648,1059.37 510.789,1057.84 513.726,1055.85 C516.679,1053.85 519.429,1051.48 522.086,1048.73 C524.742,1045.96 527.023,1043.12 528.929,1040.07 C530.82,1037.04 532.445,1033.9 533.679,1030.57 C534.914,1027.25 535.57,1023.93 535.773,1020.79 C535.867,1020.12 535.867,1019.37 535.867,1018.7 C535.867,1016.9 535.679,1015 535.289,1013.1 C534.82,1010.43 534.054,1007.78 533.007,1005.31 C531.961,1002.84 530.632,1000.56 528.929,998.37 C527.211,996.183 525.32,994.386 523.226,992.87 C521.132,991.339 518.851,990.198 516.195,989.542 C514.492,989.058 512.679,988.87 510.882,988.87 C509.929,988.87 508.976,988.964 507.929,989.058 M502.039,1050.43 C502.039,1047.68 502.132,1043.68 502.226,1038.56 C502.32,1034.48 502.414,1030.57 502.414,1027.06 C502.414,1026.21 502.32,1025.35 502.32,1024.5 C502.32,1020.32 502.226,1016.23 502.039,1012.43 C502.039,1011.96 501.945,1011.1 501.757,1009.68 C501.57,1008.25 501.289,1006.92 501.179,1005.68 C501.086,1005.12 501.086,1004.54 501.086,1003.98 C501.086,1003.31 501.086,1002.75 501.179,1002.07 C501.382,1000.84 501.757,999.886 502.414,999.417 C503.273,998.745 504.226,998.464 505.273,998.464 C505.554,998.558 505.836,998.558 506.132,998.558 C507.554,998.745 509.07,999.23 510.679,1000.09 C512.304,1000.93 513.82,1002.07 515.242,1003.21 C516.679,1004.35 518.007,1005.5 519.054,1006.64 C520.086,1007.78 520.945,1008.64 521.429,1009.5 C522.945,1011.96 523.992,1014.71 524.554,1017.75 C524.836,1019.46 525.039,1021.17 525.039,1022.89 C525.039,1024.12 524.929,1025.35 524.836,1026.59 C524.367,1029.53 523.507,1032.39 522.273,1035.14 C521.039,1037.89 519.429,1040.37 517.523,1042.54 C515.539,1044.73 513.257,1046.45 510.586,1047.87 C507.929,1049.29 505.086,1050.15 502.039,1050.43"/>
<path class="Harmony" d="M884.079,1009.01 C885.314,1010.62 886.157,1012.81 886.829,1015.57 C887.501,1018.32 887.97,1020.98 888.439,1023.75 C888.923,1026.5 889.204,1029.06 889.298,1031.34 L882.079,1030.57 L874.282,1031.34 L878.282,1019.46 L884.079,1009.01 M882.36,1042.45 L884.267,1042.45 L887.11,1042.45 L887.876,1042.45 L888.735,1042.45 C888.829,1042.45 889.11,1042.54 889.485,1042.54 C889.876,1042.54 890.157,1042.54 890.345,1042.64 C890.532,1042.75 890.72,1042.84 891.017,1042.93 C891.298,1043.03 891.485,1043.12 891.673,1043.31 C891.86,1043.5 892.157,1043.59 892.345,1043.78 C892.814,1044.26 893.282,1045.21 893.673,1046.45 C894.048,1047.59 894.423,1048.82 894.72,1050.25 C895.001,1051.67 895.282,1053.09 895.564,1054.71 C895.86,1056.32 896.235,1057.75 896.61,1059.07 C897.001,1060.4 897.564,1061.64 898.142,1062.68 C898.704,1063.73 899.376,1064.4 900.22,1064.78 C900.61,1064.96 901.079,1065.06 901.657,1065.06 C902.126,1065.06 902.689,1064.96 903.267,1064.78 C904.126,1064.5 904.782,1064.12 905.454,1063.73 C906.11,1063.35 906.595,1062.98 906.97,1062.5 C907.345,1062.03 907.642,1061.54 907.923,1060.98 C908.204,1060.4 908.392,1060.03 908.485,1059.56 C908.579,1059.17 908.579,1058.79 908.579,1058.32 L908.579,1057.84 C908.579,1057.18 908.579,1056.51 908.485,1056.04 C908.392,1055.56 908.204,1055 908.017,1054.23 C907.829,1053.48 907.642,1052.9 907.439,1052.43 C907.251,1051.95 907.157,1051.29 906.876,1050.43 C906.595,1049.57 906.298,1049.01 906.204,1048.64 C905.548,1046.73 904.407,1042.93 902.782,1037.32 C901.657,1033.25 900.704,1029.82 900.032,1027.15 C898.798,1022.31 897.751,1018.32 897.001,1015.18 C895.767,1009.96 894.814,1006.45 894.329,1004.64 C894.235,1004.26 894.142,1003.7 893.954,1002.93 C893.767,1002.17 893.673,1001.51 893.579,1000.93 C893.485,1000.37 893.189,999.792 893.001,999.042 C892.814,998.276 892.626,997.511 892.439,996.948 C892.251,996.37 891.86,995.714 891.579,995.042 C891.298,994.386 890.907,993.901 890.532,993.433 C890.157,992.964 889.876,992.573 889.392,992.198 C888.923,991.823 888.439,991.433 887.876,991.339 C887.407,991.245 886.923,991.151 886.36,991.151 L885.97,991.151 C885.314,991.245 884.548,991.339 883.689,991.62 C883.032,991.917 882.267,992.292 881.61,992.761 C880.939,993.245 880.282,993.62 879.798,994.105 C879.329,994.573 878.845,995.245 878.376,995.995 C877.907,996.761 877.423,997.323 877.142,997.901 C876.86,998.464 876.47,999.23 876.095,1000.18 C875.72,1001.12 875.329,1001.89 875.142,1002.46 C874.954,1003.03 874.767,1003.79 874.392,1004.75 C874.001,1005.68 873.72,1006.35 873.626,1006.82 C870.876,1013.76 868.11,1020.32 865.36,1026.68 C860.892,1036.85 858.235,1043.03 857.47,1045.31 C857.376,1045.68 857.001,1046.35 856.517,1047.39 C856.048,1048.43 855.485,1049.39 855.001,1050.34 C854.532,1051.29 854.048,1052.53 853.485,1053.76 C852.907,1055 852.439,1056.23 852.157,1057.28 C851.767,1058.32 851.579,1059.26 851.579,1060.12 C851.673,1060.98 851.876,1061.54 852.345,1062.03 C853.204,1062.68 854.142,1063.07 855.189,1063.07 L855.86,1063.07 C857.189,1062.89 858.517,1062.5 859.845,1061.75 C861.173,1060.98 862.126,1060.12 862.61,1059.26 C863.173,1058.23 863.751,1057 864.22,1055.46 C864.689,1053.95 865.173,1052.53 865.454,1051.29 C865.735,1050.06 866.126,1048.73 866.782,1047.29 C867.454,1045.87 868.204,1044.73 869.064,1043.78 L874.189,1042.17 C874.485,1042.07 874.86,1042.17 875.532,1042.17 L878.282,1042.17 C878.564,1042.17 879.985,1042.26 882.36,1042.45"/>
<path class="Harmony" d="M1581.73,1009.01 C1582.97,1010.62 1583.81,1012.81 1584.48,1015.57 C1585.15,1018.32 1585.62,1020.98 1586.09,1023.75 C1586.58,1026.5 1586.86,1029.06 1586.95,1031.34 L1579.73,1030.57 L1571.94,1031.34 L1575.94,1019.46 L1581.73,1009.01 M1580.01,1042.45 L1581.92,1042.45 L1584.76,1042.45 L1585.53,1042.45 L1586.39,1042.45 C1586.48,1042.45 1586.76,1042.54 1587.14,1042.54 C1587.53,1042.54 1587.81,1042.54 1588,1042.64 C1588.19,1042.75 1588.37,1042.84 1588.67,1042.93 C1588.95,1043.03 1589.14,1043.12 1589.33,1043.31 C1589.51,1043.5 1589.81,1043.59 1590,1043.78 C1590.47,1044.26 1590.94,1045.21 1591.33,1046.45 C1591.7,1047.59 1592.08,1048.82 1592.37,1050.25 C1592.65,1051.67 1592.94,1053.09 1593.22,1054.71 C1593.51,1056.32 1593.89,1057.75 1594.26,1059.07 C1594.65,1060.4 1595.22,1061.64 1595.79,1062.68 C1596.36,1063.73 1597.03,1064.4 1597.87,1064.78 C1598.26,1064.96 1598.73,1065.06 1599.31,1065.06 C1599.78,1065.06 1600.34,1064.96 1600.92,1064.78 C1601.78,1064.5 1602.44,1064.12 1603.11,1063.73 C1603.76,1063.35 1604.25,1062.98 1604.62,1062.5 C1605,1062.03 1605.29,1061.54 1605.58,1060.98 C1605.86,1060.4 1606.04,1060.03 1606.14,1059.56 C1606.23,1059.17 1606.23,1058.79 1606.23,1058.32 L1606.23,1057.84 C1606.23,1057.18 1606.23,1056.51 1606.14,1056.04 C1606.04,1055.56 1605.86,1055 1605.67,1054.23 C1605.48,1053.48 1605.29,1052.9 1605.09,1052.43 C1604.9,1051.95 1604.81,1051.29 1604.53,1050.43 C1604.25,1049.57 1603.95,1049.01 1603.86,1048.64 C1603.2,1046.73 1602.06,1042.93 1600.44,1037.32 C1599.31,1033.25 1598.36,1029.82 1597.69,1027.15 C1596.45,1022.31 1595.4,1018.32 1594.65,1015.18 C1593.42,1009.96 1592.47,1006.45 1591.98,1004.64 C1591.89,1004.26 1591.79,1003.7 1591.61,1002.93 C1591.42,1002.17 1591.33,1001.51 1591.23,1000.93 C1591.14,1000.37 1590.84,999.792 1590.65,999.042 C1590.47,998.276 1590.28,997.511 1590.09,996.948 C1589.9,996.37 1589.51,995.714 1589.23,995.042 C1588.95,994.386 1588.56,993.901 1588.19,993.433 C1587.81,992.964 1587.53,992.573 1587.04,992.198 C1586.58,991.823 1586.09,991.433 1585.53,991.339 C1585.06,991.245 1584.58,991.151 1584.01,991.151 L1583.62,991.151 C1582.97,991.245 1582.2,991.339 1581.34,991.62 C1580.69,991.917 1579.92,992.292 1579.26,992.761 C1578.59,993.245 1577.94,993.62 1577.45,994.105 C1576.98,994.573 1576.5,995.245 1576.03,995.995 C1575.56,996.761 1575.08,997.323 1574.79,997.901 C1574.51,998.464 1574.12,999.23 1573.75,1000.18 C1573.37,1001.12 1572.98,1001.89 1572.79,1002.46 C1572.61,1003.03 1572.42,1003.79 1572.04,1004.75 C1571.65,1005.68 1571.37,1006.35 1571.28,1006.82 C1568.53,1013.76 1565.76,1020.32 1563.01,1026.68 C1558.54,1036.85 1555.89,1043.03 1555.12,1045.31 C1555.03,1045.68 1554.65,1046.35 1554.17,1047.39 C1553.7,1048.43 1553.14,1049.39 1552.65,1050.34 C1552.19,1051.29 1551.7,1052.53 1551.14,1053.76 C1550.56,1055 1550.09,1056.23 1549.81,1057.28 C1549.42,1058.32 1549.23,1059.26 1549.23,1060.12 C1549.33,1060.98 1549.53,1061.54 1550,1062.03 C1550.86,1062.68 1551.79,1063.07 1552.84,1063.07 L1553.51,1063.07 C1554.84,1062.89 1556.17,1062.5 1557.5,1061.75 C1558.83,1060.98 1559.78,1060.12 1560.26,1059.26 C1560.83,1058.23 1561.4,1057 1561.87,1055.46 C1562.34,1053.95 1562.83,1052.53 1563.11,1051.29 C1563.39,1050.06 1563.78,1048.73 1564.44,1047.29 C1565.11,1045.87 1565.86,1044.73 1566.72,1043.78 L1571.84,1042.17 C1572.14,1042.07 1572.51,1042.17 1573.19,1042.17 L1575.94,1042.17 C1576.22,1042.17 1577.64,1042.26 1580.01,1042.45"/>
<path class="Harmony" d="M2279.38,1009.01 C2280.62,1010.62 2281.46,1012.81 2282.13,1015.57 C2282.81,1018.32 2283.28,1020.98 2283.74,1023.75 C2284.23,1026.5 2284.51,1029.06 2284.6,1031.34 L2277.38,1030.57 L2269.59,1031.34 L2273.59,1019.46 L2279.38,1009.01 M2277.67,1042.45 L2279.57,1042.45 L2282.42,1042.45 L2283.18,1042.45 L2284.04,1042.45 C2284.13,1042.45 2284.42,1042.54 2284.79,1042.54 C2285.18,1042.54 2285.46,1042.54 2285.65,1042.64 C2285.84,1042.75 2286.03,1042.84 2286.32,1042.93 C2286.6,1043.03 2286.79,1043.12 2286.98,1043.31 C2287.17,1043.5 2287.46,1043.59 2287.65,1043.78 C2288.12,1044.26 2288.59,1045.21 2288.98,1046.45 C2289.35,1047.59 2289.73,1048.82 2290.03,1050.25 C2290.31,1051.67 2290.59,1053.09 2290.87,1054.71 C2291.17,1056.32 2291.54,1057.75 2291.92,1059.07 C2292.31,1060.4 2292.87,1061.64 2293.45,1062.68 C2294.01,1063.73 2294.68,1064.4 2295.53,1064.78 C2295.92,1064.96 2296.38,1065.06 2296.96,1065.06 C2297.43,1065.06 2297.99,1064.96 2298.57,1064.78 C2299.43,1064.5 2300.09,1064.12 2300.76,1063.73 C2301.42,1063.35 2301.9,1062.98 2302.28,1062.5 C2302.65,1062.03 2302.95,1061.54 2303.23,1060.98 C2303.51,1060.4 2303.7,1060.03 2303.79,1059.56 C2303.88,1059.17 2303.88,1058.79 2303.88,1058.32 L2303.88,1057.84 C2303.88,1057.18 2303.88,1056.51 2303.79,1056.04 C2303.7,1055.56 2303.51,1055 2303.32,1054.23 C2303.13,1053.48 2302.95,1052.9 2302.74,1052.43 C2302.56,1051.95 2302.46,1051.29 2302.18,1050.43 C2301.9,1049.57 2301.6,1049.01 2301.51,1048.64 C2300.85,1046.73 2299.71,1042.93 2298.09,1037.32 C2296.96,1033.25 2296.01,1029.82 2295.34,1027.15 C2294.1,1022.31 2293.06,1018.32 2292.31,1015.18 C2291.07,1009.96 2290.12,1006.45 2289.63,1004.64 C2289.54,1004.26 2289.45,1003.7 2289.26,1002.93 C2289.07,1002.17 2288.98,1001.51 2288.88,1000.93 C2288.79,1000.37 2288.49,999.792 2288.31,999.042 C2288.12,998.276 2287.93,997.511 2287.74,996.948 C2287.56,996.37 2287.17,995.714 2286.88,995.042 C2286.6,994.386 2286.21,993.901 2285.84,993.433 C2285.46,992.964 2285.18,992.573 2284.7,992.198 C2284.23,991.823 2283.74,991.433 2283.18,991.339 C2282.71,991.245 2282.23,991.151 2281.67,991.151 L2281.28,991.151 C2280.62,991.245 2279.85,991.339 2278.99,991.62 C2278.34,991.917 2277.57,992.292 2276.92,992.761 C2276.24,993.245 2275.59,993.62 2275.1,994.105 C2274.63,994.573 2274.15,995.245 2273.68,995.995 C2273.21,996.761 2272.73,997.323 2272.45,997.901 C2272.17,998.464 2271.78,999.23 2271.4,1000.18 C2271.03,1001.12 2270.63,1001.89 2270.45,1002.46 C2270.26,1003.03 2270.07,1003.79 2269.7,1004.75 C2269.31,1005.68 2269.03,1006.35 2268.93,1006.82 C2266.18,1013.76 2263.42,1020.32 2260.67,1026.68 C2256.2,1036.85 2253.54,1043.03 2252.78,1045.31 C2252.68,1045.68 2252.31,1046.35 2251.82,1047.39 C2251.35,1048.43 2250.79,1049.39 2250.31,1050.34 C2249.84,1051.29 2249.35,1052.53 2248.79,1053.76 C2248.21,1055 2247.74,1056.23 2247.46,1057.28 C2247.07,1058.32 2246.88,1059.26 2246.88,1060.12 C2246.98,1060.98 2247.18,1061.54 2247.65,1062.03 C2248.51,1062.68 2249.45,1063.07 2250.49,1063.07 L2251.17,1063.07 C2252.49,1062.89 2253.82,1062.5 2255.15,1061.75 C2256.48,1060.98 2257.43,1060.12 2257.92,1059.26 C2258.48,1058.23 2259.06,1057 2259.53,1055.46 C2259.99,1053.95 2260.48,1052.53 2260.76,1051.29 C2261.04,1050.06 2261.43,1048.73 2262.09,1047.29 C2262.76,1045.87 2263.51,1044.73 2264.37,1043.78 L2269.49,1042.17 C2269.79,1042.07 2270.17,1042.17 2270.84,1042.17 L2273.59,1042.17 C2273.87,1042.17 2275.29,1042.26 2277.67,1042.45"/>
<path class="Harmony" d="M2584.77,989.058 C2584.3,989.151 2583.53,989.245 2582.3,989.355 C2581.06,989.448 2580.11,989.636 2579.45,989.73 C2578.78,989.823 2577.83,989.917 2576.69,990.105 C2575.55,990.292 2574.7,990.589 2573.94,990.87 C2573.17,991.151 2572.33,991.526 2571.56,992.011 C2570.8,992.48 2570.14,992.964 2569.66,993.62 C2569,994.292 2568.52,995.042 2568.14,995.808 C2567.77,996.573 2567.48,997.511 2567.37,998.464 C2567.28,999.136 2567.28,999.792 2567.28,1000.46 L2567.28,1001.03 C2567.37,1001.7 2567.37,1002.65 2567.48,1003.79 C2567.58,1004.93 2567.58,1005.87 2567.58,1006.54 C2567.58,1017.37 2567.86,1028.01 2568.33,1038.56 C2568.42,1039.12 2568.42,1039.7 2568.42,1040.37 C2568.33,1042.35 2568.23,1045.01 2568.05,1048.15 C2567.77,1051.85 2567.58,1054.62 2567.58,1056.42 L2567.58,1057 L2567.58,1058.6 C2567.58,1059.07 2567.77,1059.56 2567.86,1060.12 C2567.95,1060.7 2568.14,1061.17 2568.42,1061.45 C2568.72,1061.75 2569,1062.03 2569.47,1062.31 C2569.86,1062.5 2570.33,1062.59 2570.89,1062.59 L2571.19,1062.59 C2574.5,1062.5 2577.83,1061.84 2581.16,1060.6 C2584.48,1059.37 2587.62,1057.84 2590.56,1055.85 C2593.52,1053.85 2596.27,1051.48 2598.92,1048.73 C2601.58,1045.96 2603.86,1043.12 2605.77,1040.07 C2607.66,1037.04 2609.28,1033.9 2610.52,1030.57 C2611.75,1027.25 2612.41,1023.93 2612.61,1020.79 C2612.7,1020.12 2612.7,1019.37 2612.7,1018.7 C2612.7,1016.9 2612.52,1015 2612.12,1013.1 C2611.66,1010.43 2610.89,1007.78 2609.84,1005.31 C2608.8,1002.84 2607.47,1000.56 2605.77,998.37 C2604.05,996.183 2602.16,994.386 2600.06,992.87 C2597.97,991.339 2595.69,990.198 2593.03,989.542 C2591.33,989.058 2589.52,988.87 2587.72,988.87 C2586.77,988.87 2585.81,988.964 2584.77,989.058 M2578.87,1050.43 C2578.87,1047.68 2578.97,1043.68 2579.06,1038.56 C2579.16,1034.48 2579.25,1030.57 2579.25,1027.06 C2579.25,1026.21 2579.16,1025.35 2579.16,1024.5 C2579.16,1020.32 2579.06,1016.23 2578.87,1012.43 C2578.87,1011.96 2578.78,1011.1 2578.59,1009.68 C2578.41,1008.25 2578.12,1006.92 2578.02,1005.68 C2577.92,1005.12 2577.92,1004.54 2577.92,1003.98 C2577.92,1003.31 2577.92,1002.75 2578.02,1002.07 C2578.22,1000.84 2578.59,999.886 2579.25,999.417 C2580.11,998.745 2581.06,998.464 2582.11,998.464 C2582.39,998.558 2582.67,998.558 2582.97,998.558 C2584.39,998.745 2585.91,999.23 2587.52,1000.09 C2589.14,1000.93 2590.66,1002.07 2592.08,1003.21 C2593.52,1004.35 2594.84,1005.5 2595.89,1006.64 C2596.92,1007.78 2597.78,1008.64 2598.27,1009.5 C2599.78,1011.96 2600.83,1014.71 2601.39,1017.75 C2601.67,1019.46 2601.87,1021.17 2601.87,1022.89 C2601.87,1024.12 2601.77,1025.35 2601.67,1026.59 C2601.2,1029.53 2600.34,1032.39 2599.11,1035.14 C2597.87,1037.89 2596.27,1040.37 2594.36,1042.54 C2592.37,1044.73 2590.09,1046.45 2587.42,1047.87 C2584.77,1049.29 2581.92,1050.15 2578.87,1050.43"/>
</svg>
