<?xml version="1.0" encoding="UTF-8" standalone="no"?>
<svg width="2976.38px" height="1417.32px" viewBox="0 0 2976.38 1417.32"
 xmlns="http://www.w3.org/2000/svg" xmlns:xlink="http://www.w3.org/1999/xlink" version="1.2" baseProfile="tiny">
<title>Yellow_Rose_Of_Texas_D</title>
<desc>Generated by MuseScore 3.6.2</desc>
<polyline class="StaffLines" fill="none" stroke="#000000" stroke-width="2.73" stroke-linejoin="bevel" points="138.189,187.795 2933.86,187.795"/>
<polyline class="StaffLines" fill="none" stroke="#000000" stroke-width="2.73" stroke-linejoin="bevel" points="138.189,212.598 2933.86,212.598"/>
<polyline class="StaffLines" fill="none" stroke="#000000" stroke-width="2.73" stroke-linejoin="bevel" points="138.189,237.402 2933.86,237.402"/>
<polyline class="StaffLines" fill="none" stroke="#000000" stroke-width="2.73" stroke-linejoin="bevel" points="138.189,262.205 2933.86,262.205"/>
<polyline class="StaffLines" fill="none" stroke="#000000" stroke-width="2.73" stroke-linejoin="bevel" points="138.189,287.008 2933.86,287.008"/>
<polyline class="StaffLines" fill="none" stroke="#000000" stroke-width="2.73" stroke-linejoin="bevel" points="14.1732,497.835 2933.86,497.835"/>
<polyline class="StaffLines" fill="none" stroke="#000000" stroke-width="2.73" stroke-linejoin="bevel" points="14.1732,522.638 2933.86,522.638"/>
<polyline class="StaffLines" fill="none" stroke="#000000" stroke-width="2.73" stroke-linejoin="bevel" points="14.1732,547.441 2933.86,547.441"/>
<polyline class="StaffLines" fill="none" stroke="#000000" stroke-width="2.73" stroke-linejoin="bevel" points="14.1732,572.244 2933.86,572.244"/>
<polyline class="StaffLines" fill="none" stroke="#000000" stroke-width="2.73" stroke-linejoin="bevel" points="14.1732,597.047 2933.86,597.047"/>
<polyline class="StaffLines" fill="none" stroke="#000000" stroke-width="2.73" stroke-linejoin="bevel" points="14.1732,815.417 2933.86,815.417"/>
<polyline class="StaffLines" fill="none" stroke="#000000" stroke-width="2.73" stroke-linejoin="bevel" points="14.1732,840.22 2933.86,840.22"/>
<polyline class="StaffLines" fill="none" stroke="#000000" stroke-width="2.73" stroke-linejoin="bevel" points="14.1732,865.023 2933.86,865.023"/>
<polyline class="StaffLines" fill="none" stroke="#000000" stroke-width="2.73" stroke-linejoin="bevel" points="14.1732,889.826 2933.86,889.826"/>
<polyline class="StaffLines" fill="none" stroke="#000000" stroke-width="2.73" stroke-linejoin="bevel" points="14.1732,914.629 2933.86,914.629"/>
<polyline class="StaffLines" fill="none" stroke="#000000" stroke-width="2.73" stroke-linejoin="bevel" points="14.1732,1125.46 2933.86,1125.46"/>
<polyline class="StaffLines" fill="none" stroke="#000000" stroke-width="2.73" stroke-linejoin="bevel" points="14.1732,1150.26 2933.86,1150.26"/>
<polyline class="StaffLines" fill="none" stroke="#000000" stroke-width="2.73" stroke-linejoin="bevel" points="14.1732,1175.06 2933.86,1175.06"/>
<polyline class="StaffLines" fill="none" stroke="#000000" stroke-width="2.73" stroke-linejoin="bevel" points="14.1732,1199.87 2933.86,1199.87"/>
<polyline class="StaffLines" fill="none" stroke="#000000" stroke-width="2.73" stroke-linejoin="bevel" points="14.1732,1224.67 2933.86,1224.67"/>
<polyline class="BarLine" fill="none" stroke="#000000" stroke-width="4.46" stroke-linejoin="bevel" points="953.226,186.431 953.226,288.372"/>
<polyline class="BarLine" fill="none" stroke="#000000" stroke-width="4.46" stroke-linejoin="bevel" points="1612.69,186.431 1612.69,288.372"/>
<polyline class="BarLine" fill="none" stroke="#000000" stroke-width="4.46" stroke-linejoin="bevel" points="2272.16,186.431 2272.16,288.372"/>
<polyline class="BarLine" fill="none" stroke="#000000" stroke-width="4.46" stroke-linejoin="bevel" points="2931.63,186.431 2931.63,288.372"/>
<polyline class="BarLine" fill="none" stroke="#000000" stroke-width="4.46" stroke-linejoin="bevel" points="808.481,496.47 808.481,598.411"/>
<polyline class="BarLine" fill="none" stroke="#000000" stroke-width="4.46" stroke-linejoin="bevel" points="1502.1,496.47 1502.1,598.411"/>
<polyline class="BarLine" fill="none" stroke="#000000" stroke-width="4.46" stroke-linejoin="bevel" points="2195.73,496.47 2195.73,598.411"/>
<path class="BarLine" transform="matrix(0.992126,0,0,0.992126,2887.12,535.039)" d="M10.4063,0 C10.4063,-2.90625 8.09375,-5.29688 5.20313,-5.29688 C2.29688,-5.29688 0,-2.90625 0,0 C0,2.90625 2.29688,5.29688 5.20313,5.29688 C8.09375,5.29688 10.4063,2.90625 10.4063,0"/>
<path class="BarLine" transform="matrix(0.992126,0,0,0.992126,2887.12,559.843)" d="M10.4063,0 C10.4063,-2.90625 8.09375,-5.29688 5.20313,-5.29688 C2.29688,-5.29688 0,-2.90625 0,0 C0,2.90625 2.29688,5.29688 5.20313,5.29688 C8.09375,5.29688 10.4063,2.90625 10.4063,0"/>
<polyline class="BarLine" fill="none" stroke="#000000" stroke-width="4.46" stroke-linejoin="bevel" points="2909.64,496.47 2909.64,598.411"/>
<polyline class="BarLine" fill="none" stroke="#000000" stroke-width="13.64" stroke-linejoin="bevel" points="2927,496.47 2927,598.411"/>
<polyline class="BarLine" fill="none" stroke="#000000" stroke-width="4.46" stroke-linejoin="bevel" points="819.051,814.053 819.051,915.994"/>
<polyline class="BarLine" fill="none" stroke="#000000" stroke-width="4.46" stroke-linejoin="bevel" points="1523.24,814.053 1523.24,915.994"/>
<polyline class="BarLine" fill="none" stroke="#000000" stroke-width="4.46" stroke-linejoin="bevel" points="2227.44,814.053 2227.44,915.994"/>
<polyline class="BarLine" fill="none" stroke="#000000" stroke-width="4.46" stroke-linejoin="bevel" points="2931.63,814.053 2931.63,915.994"/>
<polyline class="BarLine" fill="none" stroke="#000000" stroke-width="4.46" stroke-linejoin="bevel" points="812.511,1124.09 812.511,1226.03"/>
<polyline class="BarLine" fill="none" stroke="#000000" stroke-width="4.46" stroke-linejoin="bevel" points="1494.04,1124.09 1494.04,1226.03"/>
<polyline class="BarLine" fill="none" stroke="#000000" stroke-width="4.46" stroke-linejoin="bevel" points="2191.69,1124.09 2191.69,1226.03"/>
<path class="BarLine" transform="matrix(0.992126,0,0,0.992126,2887.12,1162.66)" d="M10.4063,0 C10.4063,-2.90625 8.09375,-5.29688 5.20313,-5.29688 C2.29688,-5.29688 0,-2.90625 0,0 C0,2.90625 2.29688,5.29688 5.20313,5.29688 C8.09375,5.29688 10.4063,2.90625 10.4063,0"/>
<path class="BarLine" transform="matrix(0.992126,0,0,0.992126,2887.12,1187.46)" d="M10.4063,0 C10.4063,-2.90625 8.09375,-5.29688 5.20313,-5.29688 C2.29688,-5.29688 0,-2.90625 0,0 C0,2.90625 2.29688,5.29688 5.20313,5.29688 C8.09375,5.29688 10.4063,2.90625 10.4063,0"/>
<polyline class="BarLine" fill="none" stroke="#000000" stroke-width="4.46" stroke-linejoin="bevel" points="2909.64,1124.09 2909.64,1226.03"/>
<polyline class="BarLine" fill="none" stroke="#000000" stroke-width="13.64" stroke-linejoin="bevel" points="2927,1124.09 2927,1226.03"/>
<path class="Note" transform="matrix(0.992126,0,0,0.992126,338.405,237.402)" d="M43,-25 L0,25 L10,25 L53,-25 L43,-25 "/>
<path class="Note" transform="matrix(0.992126,0,0,0.992126,489.01,237.402)" d="M43,-25 L0,25 L10,25 L53,-25 L43,-25 "/>
<path class="Note" transform="matrix(0.992126,0,0,0.992126,639.615,237.402)" d="M43,-25 L0,25 L10,25 L53,-25 L43,-25 "/>
<path class="Note" transform="matrix(0.992126,0,0,0.992126,790.22,237.402)" d="M43,-25 L0,25 L10,25 L53,-25 L43,-25 "/>
<path class="Note" transform="matrix(0.992126,0,0,0.992126,997.872,237.402)" d="M43,-25 L0,25 L10,25 L53,-25 L43,-25 "/>
<path class="Note" transform="matrix(0.992126,0,0,0.992126,1148.48,237.402)" d="M43,-25 L0,25 L10,25 L53,-25 L43,-25 "/>
<path class="Note" transform="matrix(0.992126,0,0,0.992126,1299.08,237.402)" d="M43,-25 L0,25 L10,25 L53,-25 L43,-25 "/>
<path class="Note" transform="matrix(0.992126,0,0,0.992126,1449.69,237.402)" d="M43,-25 L0,25 L10,25 L53,-25 L43,-25 "/>
<path class="Note" transform="matrix(0.992126,0,0,0.992126,1657.34,237.402)" d="M43,-25 L0,25 L10,25 L53,-25 L43,-25 "/>
<path class="Note" transform="matrix(0.992126,0,0,0.992126,1807.94,237.402)" d="M43,-25 L0,25 L10,25 L53,-25 L43,-25 "/>
<path class="Note" transform="matrix(0.992126,0,0,0.992126,1958.55,237.402)" d="M43,-25 L0,25 L10,25 L53,-25 L43,-25 "/>
<path class="Note" transform="matrix(0.992126,0,0,0.992126,2109.15,237.402)" d="M43,-25 L0,25 L10,25 L53,-25 L43,-25 "/>
<path class="Note" transform="matrix(0.992126,0,0,0.992126,2316.81,237.402)" d="M43,-25 L0,25 L10,25 L53,-25 L43,-25 "/>
<path class="Note" transform="matrix(0.992126,0,0,0.992126,2467.41,237.402)" d="M43,-25 L0,25 L10,25 L53,-25 L43,-25 "/>
<path class="Note" transform="matrix(0.992126,0,0,0.992126,2618.02,237.402)" d="M43,-25 L0,25 L10,25 L53,-25 L43,-25 "/>
<path class="Note" transform="matrix(0.992126,0,0,0.992126,2768.62,237.402)" d="M43,-25 L0,25 L10,25 L53,-25 L43,-25 "/>
<path class="Note" transform="matrix(0.992126,0,0,0.992126,159.504,547.441)" d="M43,-25 L0,25 L10,25 L53,-25 L43,-25 "/>
<path class="Note" transform="matrix(0.992126,0,0,0.992126,318.648,547.441)" d="M43,-25 L0,25 L10,25 L53,-25 L43,-25 "/>
<path class="Note" transform="matrix(0.992126,0,0,0.992126,477.792,547.441)" d="M43,-25 L0,25 L10,25 L53,-25 L43,-25 "/>
<path class="Note" transform="matrix(0.992126,0,0,0.992126,636.935,547.441)" d="M43,-25 L0,25 L10,25 L53,-25 L43,-25 "/>
<path class="Note" transform="matrix(0.992126,0,0,0.992126,853.126,547.441)" d="M43,-25 L0,25 L10,25 L53,-25 L43,-25 "/>
<path class="Note" transform="matrix(0.992126,0,0,0.992126,1012.27,547.441)" d="M43,-25 L0,25 L10,25 L53,-25 L43,-25 "/>
<path class="Note" transform="matrix(0.992126,0,0,0.992126,1171.41,547.441)" d="M43,-25 L0,25 L10,25 L53,-25 L43,-25 "/>
<path class="Note" transform="matrix(0.992126,0,0,0.992126,1330.56,547.441)" d="M43,-25 L0,25 L10,25 L53,-25 L43,-25 "/>
<path class="Note" transform="matrix(0.992126,0,0,0.992126,1546.75,547.441)" d="M43,-25 L0,25 L10,25 L53,-25 L43,-25 "/>
<path class="Note" transform="matrix(0.992126,0,0,0.992126,1705.89,547.441)" d="M43,-25 L0,25 L10,25 L53,-25 L43,-25 "/>
<path class="Note" transform="matrix(0.992126,0,0,0.992126,1865.04,547.441)" d="M43,-25 L0,25 L10,25 L53,-25 L43,-25 "/>
<path class="Note" transform="matrix(0.992126,0,0,0.992126,2024.18,547.441)" d="M43,-25 L0,25 L10,25 L53,-25 L43,-25 "/>
<path class="Note" transform="matrix(0.992126,0,0,0.992126,2240.37,547.441)" d="M43,-25 L0,25 L10,25 L53,-25 L43,-25 "/>
<path class="Note" transform="matrix(0.992126,0,0,0.992126,2399.51,547.441)" d="M43,-25 L0,25 L10,25 L53,-25 L43,-25 "/>
<path class="Note" transform="matrix(0.992126,0,0,0.992126,2558.66,547.441)" d="M43,-25 L0,25 L10,25 L53,-25 L43,-25 "/>
<path class="Note" transform="matrix(0.992126,0,0,0.992126,2717.8,547.441)" d="M43,-25 L0,25 L10,25 L53,-25 L43,-25 "/>
<path class="Note" transform="matrix(0.992126,0,0,0.992126,159.504,865.023)" d="M43,-25 L0,25 L10,25 L53,-25 L43,-25 "/>
<path class="Note" transform="matrix(0.992126,0,0,0.992126,321.29,865.023)" d="M43,-25 L0,25 L10,25 L53,-25 L43,-25 "/>
<path class="Note" transform="matrix(0.992126,0,0,0.992126,483.077,865.023)" d="M43,-25 L0,25 L10,25 L53,-25 L43,-25 "/>
<path class="Note" transform="matrix(0.992126,0,0,0.992126,644.863,865.023)" d="M43,-25 L0,25 L10,25 L53,-25 L43,-25 "/>
<path class="Note" transform="matrix(0.992126,0,0,0.992126,863.696,865.023)" d="M43,-25 L0,25 L10,25 L53,-25 L43,-25 "/>
<path class="Note" transform="matrix(0.992126,0,0,0.992126,1025.48,865.023)" d="M43,-25 L0,25 L10,25 L53,-25 L43,-25 "/>
<path class="Note" transform="matrix(0.992126,0,0,0.992126,1187.27,865.023)" d="M43,-25 L0,25 L10,25 L53,-25 L43,-25 "/>
<path class="Note" transform="matrix(0.992126,0,0,0.992126,1349.06,865.023)" d="M43,-25 L0,25 L10,25 L53,-25 L43,-25 "/>
<path class="Note" transform="matrix(0.992126,0,0,0.992126,1567.89,865.023)" d="M43,-25 L0,25 L10,25 L53,-25 L43,-25 "/>
<path class="Note" transform="matrix(0.992126,0,0,0.992126,1729.67,865.023)" d="M43,-25 L0,25 L10,25 L53,-25 L43,-25 "/>
<path class="Note" transform="matrix(0.992126,0,0,0.992126,1891.46,865.023)" d="M43,-25 L0,25 L10,25 L53,-25 L43,-25 "/>
<path class="Note" transform="matrix(0.992126,0,0,0.992126,2053.25,865.023)" d="M43,-25 L0,25 L10,25 L53,-25 L43,-25 "/>
<path class="Note" transform="matrix(0.992126,0,0,0.992126,2272.08,865.023)" d="M43,-25 L0,25 L10,25 L53,-25 L43,-25 "/>
<path class="Note" transform="matrix(0.992126,0,0,0.992126,2433.87,865.023)" d="M43,-25 L0,25 L10,25 L53,-25 L43,-25 "/>
<path class="Note" transform="matrix(0.992126,0,0,0.992126,2595.65,865.023)" d="M43,-25 L0,25 L10,25 L53,-25 L43,-25 "/>
<path class="Note" transform="matrix(0.992126,0,0,0.992126,2757.44,865.023)" d="M43,-25 L0,25 L10,25 L53,-25 L43,-25 "/>
<path class="Note" transform="matrix(0.992126,0,0,0.992126,159.504,1175.06)" d="M43,-25 L0,25 L10,25 L53,-25 L43,-25 "/>
<path class="Note" transform="matrix(0.992126,0,0,0.992126,319.656,1175.06)" d="M43,-25 L0,25 L10,25 L53,-25 L43,-25 "/>
<path class="Note" transform="matrix(0.992126,0,0,0.992126,479.807,1175.06)" d="M43,-25 L0,25 L10,25 L53,-25 L43,-25 "/>
<path class="Note" transform="matrix(0.992126,0,0,0.992126,639.958,1175.06)" d="M43,-25 L0,25 L10,25 L53,-25 L43,-25 "/>
<path class="Note" transform="matrix(0.992126,0,0,0.992126,841.035,1175.06)" d="M43,-25 L0,25 L10,25 L53,-25 L43,-25 "/>
<path class="Note" transform="matrix(0.992126,0,0,0.992126,1001.19,1175.06)" d="M43,-25 L0,25 L10,25 L53,-25 L43,-25 "/>
<path class="Note" transform="matrix(0.992126,0,0,0.992126,1161.34,1175.06)" d="M43,-25 L0,25 L10,25 L53,-25 L43,-25 "/>
<path class="Note" transform="matrix(0.992126,0,0,0.992126,1321.49,1175.06)" d="M43,-25 L0,25 L10,25 L53,-25 L43,-25 "/>
<path class="Note" transform="matrix(0.992126,0,0,0.992126,1538.69,1175.06)" d="M43,-25 L0,25 L10,25 L53,-25 L43,-25 "/>
<path class="Note" transform="matrix(0.992126,0,0,0.992126,1698.84,1175.06)" d="M43,-25 L0,25 L10,25 L53,-25 L43,-25 "/>
<path class="Note" transform="matrix(0.992126,0,0,0.992126,1858.99,1175.06)" d="M43,-25 L0,25 L10,25 L53,-25 L43,-25 "/>
<path class="Note" transform="matrix(0.992126,0,0,0.992126,2019.14,1175.06)" d="M43,-25 L0,25 L10,25 L53,-25 L43,-25 "/>
<path class="Note" transform="matrix(0.992126,0,0,0.992126,2236.34,1175.06)" d="M43,-25 L0,25 L10,25 L53,-25 L43,-25 "/>
<path class="Note" transform="matrix(0.992126,0,0,0.992126,2396.49,1175.06)" d="M43,-25 L0,25 L10,25 L53,-25 L43,-25 "/>
<path class="Note" transform="matrix(0.992126,0,0,0.992126,2556.64,1175.06)" d="M43,-25 L0,25 L10,25 L53,-25 L43,-25 "/>
<path class="Note" transform="matrix(0.992126,0,0,0.992126,2716.79,1175.06)" d="M43,-25 L0,25 L10,25 L53,-25 L43,-25 "/>
<path class="Clef" transform="matrix(0.992126,0,0,0.992126,158.032,262.205)" d="M63.3594,-5.92188 C62.125,-11.3438 59.4844,-15.1719 58.7031,-16.2031 C55.5156,-20.4844 51.5,-23.3281 46.8125,-24.6875 C43.7031,-25.5625 40.7031,-25.6875 38.2813,-25.5 C37.2344,-31.5156 36.2344,-37.3906 35.3281,-42.8438 C40.7813,-49.0156 44.4063,-54.8125 46.6875,-59.1094 C50.1563,-65.6875 51.2969,-70.2656 51.3594,-70.4688 C53.0781,-75.6875 53.4375,-83.3906 52.3281,-91.5938 C51.3281,-99.1406 49.2344,-105.859 46.875,-109.109 C45.8594,-110.531 44.7969,-111.266 43.7656,-111.266 C42.5469,-111.266 40.0313,-110.031 37.1406,-107.25 C34.8438,-105.063 31.5781,-101.172 29.0156,-95.1563 C26.0156,-88.0938 25.7969,-78.6094 26.1563,-71.8906 C26.5313,-64.6094 27.6406,-58.9219 27.6563,-58.875 C27.6719,-58.7813 27.9375,-57.2813 28.375,-54.7188 C28.1563,-54.4844 27.9063,-54.2656 27.6563,-54.0156 C26.625,-53.0156 25.4375,-51.8906 24.0469,-50.5 C23.1875,-49.6406 22.2344,-48.7344 21.2344,-47.7656 C12.7969,-39.625 0,-27.2969 0,-8.14063 C0,-3.4375 0.90625,0.984375 2.6875,5 C4.26563,8.59375 6.5625,11.875 9.5,14.75 C17.2344,22.3125 27.8281,25.5156 34.875,25.3594 C37.8281,25.2813 40.4688,25.0469 42.8594,24.5938 C44.6875,34.2031 45.8281,41.2344 45.8594,46.5781 C45.9063,53.0938 44.25,57.0781 40.3594,59.8438 C37.9219,61.5781 35.1094,62.5313 32.0156,62.6719 C29.4219,62.7969 27.1563,62.3281 25.7344,61.9219 L25.7188,61.9219 C25.7188,61.9219 25.4375,61.8281 25.4219,61.6406 C25.4063,61.4531 25.7656,61.4063 25.7656,61.4063 L25.7969,61.4063 C27.7188,60.9688 31.2813,59.7344 33.6406,56.4375 C35.4375,53.9063 36.3125,49.2813 34.4688,45.3438 C33.3594,42.9531 30.8594,40 25.2344,39.5469 C22.7344,39.3438 20.4688,39.8594 18.4688,41.0625 C16.6563,42.1406 15.1563,43.7813 14.1094,45.7813 C11.6563,50.4844 12.1094,56.2188 15.2344,60.0625 C18.2031,63.6875 22.8125,66 28.25,66.5781 C29.1094,66.6719 29.9531,66.7031 30.7969,66.7031 C35.2344,66.7031 39.625,65.5 43.2031,63.2969 C46.8594,60.7188 48.9844,56.7344 49.6563,51.1094 C50.2188,46.4688 49.8281,40.5469 48.4375,32.4688 C48.0781,30.375 47.5313,27.3438 46.875,23.5938 C52.625,21.6719 56.7813,18.0938 60.5469,12.2344 C63.8438,6.5 64.7813,0.390625 63.3594,-5.92188 M29.1406,20.2969 C24.5,19.0781 20.0625,16.5781 16.3125,13.0625 C15,11.8438 13.125,9.67188 11.6563,6.28125 C10.2969,3.10938 9.625,-0.328125 9.6875,-3.90625 C9.75,-8.60938 11.0625,-13.4375 13.5625,-18.2188 C16.4844,-23.7969 21.0469,-29.3281 27.1094,-34.6563 C28.5625,-35.9375 29.9375,-37.2188 31.2188,-38.5 C31.9844,-34.2344 32.8125,-29.5469 33.6875,-24.6719 C29.8438,-23.4063 25.0938,-20.25 21.9844,-14.5938 C18.4375,-8.03125 18.5781,-2.5 19.3125,0.984375 C20.25,5.4375 22.7813,9.20313 26.2344,11.2969 C27.1719,11.8594 31.2969,13.9844 33.1406,13.4063 C33.5156,13.2969 33.7813,13.0625 33.9219,12.7344 C34.4375,11.5625 33.4063,10.9219 31.8594,9.96875 C31.25,9.59375 30.5781,9.17188 29.8594,8.64063 C26.5313,6.15625 25.0781,1.70313 26.1563,-2.6875 C26.7344,-5.07813 28.0156,-7.25 29.8594,-8.95313 C31.5156,-10.5 33.5625,-11.5938 35.9375,-12.2344 C37.9844,-0.984375 40.0469,10.1719 41.6875,18.5313 C41.8125,19.2188 41.9531,19.8906 42.0781,20.5625 C37.7031,21.5 33.3594,21.4063 29.1406,20.2969 M40.4688,-12.9063 C50.8125,-13.375 55.0781,-5.9375 55.9688,-1.10938 C56.4375,1.4375 56.4375,5.875 54.8906,10.0938 C53.7188,13.2656 51.2656,17.3438 46.125,19.4063 C46.0625,18.9844 45.9844,18.5469 45.9063,18.125 C44.3594,9.34375 42.4219,-1.65625 40.4688,-12.9063 M33.1406,-83.8594 C34.9219,-89.5938 37.6563,-92.8438 39.6563,-94.5781 C41.4063,-96.0938 43.0469,-96.8125 43.9688,-96.8125 C44.1094,-96.8125 44.2344,-96.7813 44.3281,-96.75 C44.7969,-96.6094 45.3281,-96.0469 45.7969,-95.1719 C48.1094,-90.8906 47.3594,-84.1719 46.0156,-79.7344 C44.3906,-74.3281 41.4688,-68.7188 32.6719,-59.1094 C32.5,-60.2188 32.3438,-61.2656 32.1875,-62.25 C30.9375,-70.5313 31.2656,-77.8125 33.1406,-83.8594"/>
<path class="Clef" transform="matrix(0.992126,0,0,0.992126,34.0158,572.244)" d="M63.3594,-5.92188 C62.125,-11.3438 59.4844,-15.1719 58.7031,-16.2031 C55.5156,-20.4844 51.5,-23.3281 46.8125,-24.6875 C43.7031,-25.5625 40.7031,-25.6875 38.2813,-25.5 C37.2344,-31.5156 36.2344,-37.3906 35.3281,-42.8438 C40.7813,-49.0156 44.4063,-54.8125 46.6875,-59.1094 C50.1563,-65.6875 51.2969,-70.2656 51.3594,-70.4688 C53.0781,-75.6875 53.4375,-83.3906 52.3281,-91.5938 C51.3281,-99.1406 49.2344,-105.859 46.875,-109.109 C45.8594,-110.531 44.7969,-111.266 43.7656,-111.266 C42.5469,-111.266 40.0313,-110.031 37.1406,-107.25 C34.8438,-105.063 31.5781,-101.172 29.0156,-95.1563 C26.0156,-88.0938 25.7969,-78.6094 26.1563,-71.8906 C26.5313,-64.6094 27.6406,-58.9219 27.6563,-58.875 C27.6719,-58.7813 27.9375,-57.2813 28.375,-54.7188 C28.1563,-54.4844 27.9063,-54.2656 27.6563,-54.0156 C26.625,-53.0156 25.4375,-51.8906 24.0469,-50.5 C23.1875,-49.6406 22.2344,-48.7344 21.2344,-47.7656 C12.7969,-39.625 0,-27.2969 0,-8.14063 C0,-3.4375 0.90625,0.984375 2.6875,5 C4.26563,8.59375 6.5625,11.875 9.5,14.75 C17.2344,22.3125 27.8281,25.5156 34.875,25.3594 C37.8281,25.2813 40.4688,25.0469 42.8594,24.5938 C44.6875,34.2031 45.8281,41.2344 45.8594,46.5781 C45.9063,53.0938 44.25,57.0781 40.3594,59.8438 C37.9219,61.5781 35.1094,62.5313 32.0156,62.6719 C29.4219,62.7969 27.1563,62.3281 25.7344,61.9219 L25.7188,61.9219 C25.7188,61.9219 25.4375,61.8281 25.4219,61.6406 C25.4063,61.4531 25.7656,61.4063 25.7656,61.4063 L25.7969,61.4063 C27.7188,60.9688 31.2813,59.7344 33.6406,56.4375 C35.4375,53.9063 36.3125,49.2813 34.4688,45.3438 C33.3594,42.9531 30.8594,40 25.2344,39.5469 C22.7344,39.3438 20.4688,39.8594 18.4688,41.0625 C16.6563,42.1406 15.1563,43.7813 14.1094,45.7813 C11.6563,50.4844 12.1094,56.2188 15.2344,60.0625 C18.2031,63.6875 22.8125,66 28.25,66.5781 C29.1094,66.6719 29.9531,66.7031 30.7969,66.7031 C35.2344,66.7031 39.625,65.5 43.2031,63.2969 C46.8594,60.7188 48.9844,56.7344 49.6563,51.1094 C50.2188,46.4688 49.8281,40.5469 48.4375,32.4688 C48.0781,30.375 47.5313,27.3438 46.875,23.5938 C52.625,21.6719 56.7813,18.0938 60.5469,12.2344 C63.8438,6.5 64.7813,0.390625 63.3594,-5.92188 M29.1406,20.2969 C24.5,19.0781 20.0625,16.5781 16.3125,13.0625 C15,11.8438 13.125,9.67188 11.6563,6.28125 C10.2969,3.10938 9.625,-0.328125 9.6875,-3.90625 C9.75,-8.60938 11.0625,-13.4375 13.5625,-18.2188 C16.4844,-23.7969 21.0469,-29.3281 27.1094,-34.6563 C28.5625,-35.9375 29.9375,-37.2188 31.2188,-38.5 C31.9844,-34.2344 32.8125,-29.5469 33.6875,-24.6719 C29.8438,-23.4063 25.0938,-20.25 21.9844,-14.5938 C18.4375,-8.03125 18.5781,-2.5 19.3125,0.984375 C20.25,5.4375 22.7813,9.20313 26.2344,11.2969 C27.1719,11.8594 31.2969,13.9844 33.1406,13.4063 C33.5156,13.2969 33.7813,13.0625 33.9219,12.7344 C34.4375,11.5625 33.4063,10.9219 31.8594,9.96875 C31.25,9.59375 30.5781,9.17188 29.8594,8.64063 C26.5313,6.15625 25.0781,1.70313 26.1563,-2.6875 C26.7344,-5.07813 28.0156,-7.25 29.8594,-8.95313 C31.5156,-10.5 33.5625,-11.5938 35.9375,-12.2344 C37.9844,-0.984375 40.0469,10.1719 41.6875,18.5313 C41.8125,19.2188 41.9531,19.8906 42.0781,20.5625 C37.7031,21.5 33.3594,21.4063 29.1406,20.2969 M40.4688,-12.9063 C50.8125,-13.375 55.0781,-5.9375 55.9688,-1.10938 C56.4375,1.4375 56.4375,5.875 54.8906,10.0938 C53.7188,13.2656 51.2656,17.3438 46.125,19.4063 C46.0625,18.9844 45.9844,18.5469 45.9063,18.125 C44.3594,9.34375 42.4219,-1.65625 40.4688,-12.9063 M33.1406,-83.8594 C34.9219,-89.5938 37.6563,-92.8438 39.6563,-94.5781 C41.4063,-96.0938 43.0469,-96.8125 43.9688,-96.8125 C44.1094,-96.8125 44.2344,-96.7813 44.3281,-96.75 C44.7969,-96.6094 45.3281,-96.0469 45.7969,-95.1719 C48.1094,-90.8906 47.3594,-84.1719 46.0156,-79.7344 C44.3906,-74.3281 41.4688,-68.7188 32.6719,-59.1094 C32.5,-60.2188 32.3438,-61.2656 32.1875,-62.25 C30.9375,-70.5313 31.2656,-77.8125 33.1406,-83.8594"/>
<path class="Clef" transform="matrix(0.992126,0,0,0.992126,34.0158,889.826)" d="M63.3594,-5.92188 C62.125,-11.3438 59.4844,-15.1719 58.7031,-16.2031 C55.5156,-20.4844 51.5,-23.3281 46.8125,-24.6875 C43.7031,-25.5625 40.7031,-25.6875 38.2813,-25.5 C37.2344,-31.5156 36.2344,-37.3906 35.3281,-42.8438 C40.7813,-49.0156 44.4063,-54.8125 46.6875,-59.1094 C50.1563,-65.6875 51.2969,-70.2656 51.3594,-70.4688 C53.0781,-75.6875 53.4375,-83.3906 52.3281,-91.5938 C51.3281,-99.1406 49.2344,-105.859 46.875,-109.109 C45.8594,-110.531 44.7969,-111.266 43.7656,-111.266 C42.5469,-111.266 40.0313,-110.031 37.1406,-107.25 C34.8438,-105.063 31.5781,-101.172 29.0156,-95.1563 C26.0156,-88.0938 25.7969,-78.6094 26.1563,-71.8906 C26.5313,-64.6094 27.6406,-58.9219 27.6563,-58.875 C27.6719,-58.7813 27.9375,-57.2813 28.375,-54.7188 C28.1563,-54.4844 27.9063,-54.2656 27.6563,-54.0156 C26.625,-53.0156 25.4375,-51.8906 24.0469,-50.5 C23.1875,-49.6406 22.2344,-48.7344 21.2344,-47.7656 C12.7969,-39.625 0,-27.2969 0,-8.14063 C0,-3.4375 0.90625,0.984375 2.6875,5 C4.26563,8.59375 6.5625,11.875 9.5,14.75 C17.2344,22.3125 27.8281,25.5156 34.875,25.3594 C37.8281,25.2813 40.4688,25.0469 42.8594,24.5938 C44.6875,34.2031 45.8281,41.2344 45.8594,46.5781 C45.9063,53.0938 44.25,57.0781 40.3594,59.8438 C37.9219,61.5781 35.1094,62.5313 32.0156,62.6719 C29.4219,62.7969 27.1563,62.3281 25.7344,61.9219 L25.7188,61.9219 C25.7188,61.9219 25.4375,61.8281 25.4219,61.6406 C25.4063,61.4531 25.7656,61.4063 25.7656,61.4063 L25.7969,61.4063 C27.7188,60.9688 31.2813,59.7344 33.6406,56.4375 C35.4375,53.9063 36.3125,49.2813 34.4688,45.3438 C33.3594,42.9531 30.8594,40 25.2344,39.5469 C22.7344,39.3438 20.4688,39.8594 18.4688,41.0625 C16.6563,42.1406 15.1563,43.7813 14.1094,45.7813 C11.6563,50.4844 12.1094,56.2188 15.2344,60.0625 C18.2031,63.6875 22.8125,66 28.25,66.5781 C29.1094,66.6719 29.9531,66.7031 30.7969,66.7031 C35.2344,66.7031 39.625,65.5 43.2031,63.2969 C46.8594,60.7188 48.9844,56.7344 49.6563,51.1094 C50.2188,46.4688 49.8281,40.5469 48.4375,32.4688 C48.0781,30.375 47.5313,27.3438 46.875,23.5938 C52.625,21.6719 56.7813,18.0938 60.5469,12.2344 C63.8438,6.5 64.7813,0.390625 63.3594,-5.92188 M29.1406,20.2969 C24.5,19.0781 20.0625,16.5781 16.3125,13.0625 C15,11.8438 13.125,9.67188 11.6563,6.28125 C10.2969,3.10938 9.625,-0.328125 9.6875,-3.90625 C9.75,-8.60938 11.0625,-13.4375 13.5625,-18.2188 C16.4844,-23.7969 21.0469,-29.3281 27.1094,-34.6563 C28.5625,-35.9375 29.9375,-37.2188 31.2188,-38.5 C31.9844,-34.2344 32.8125,-29.5469 33.6875,-24.6719 C29.8438,-23.4063 25.0938,-20.25 21.9844,-14.5938 C18.4375,-8.03125 18.5781,-2.5 19.3125,0.984375 C20.25,5.4375 22.7813,9.20313 26.2344,11.2969 C27.1719,11.8594 31.2969,13.9844 33.1406,13.4063 C33.5156,13.2969 33.7813,13.0625 33.9219,12.7344 C34.4375,11.5625 33.4063,10.9219 31.8594,9.96875 C31.25,9.59375 30.5781,9.17188 29.8594,8.64063 C26.5313,6.15625 25.0781,1.70313 26.1563,-2.6875 C26.7344,-5.07813 28.0156,-7.25 29.8594,-8.95313 C31.5156,-10.5 33.5625,-11.5938 35.9375,-12.2344 C37.9844,-0.984375 40.0469,10.1719 41.6875,18.5313 C41.8125,19.2188 41.9531,19.8906 42.0781,20.5625 C37.7031,21.5 33.3594,21.4063 29.1406,20.2969 M40.4688,-12.9063 C50.8125,-13.375 55.0781,-5.9375 55.9688,-1.10938 C56.4375,1.4375 56.4375,5.875 54.8906,10.0938 C53.7188,13.2656 51.2656,17.3438 46.125,19.4063 C46.0625,18.9844 45.9844,18.5469 45.9063,18.125 C44.3594,9.34375 42.4219,-1.65625 40.4688,-12.9063 M33.1406,-83.8594 C34.9219,-89.5938 37.6563,-92.8438 39.6563,-94.5781 C41.4063,-96.0938 43.0469,-96.8125 43.9688,-96.8125 C44.1094,-96.8125 44.2344,-96.7813 44.3281,-96.75 C44.7969,-96.6094 45.3281,-96.0469 45.7969,-95.1719 C48.1094,-90.8906 47.3594,-84.1719 46.0156,-79.7344 C44.3906,-74.3281 41.4688,-68.7188 32.6719,-59.1094 C32.5,-60.2188 32.3438,-61.2656 32.1875,-62.25 C30.9375,-70.5313 31.2656,-77.8125 33.1406,-83.8594"/>
<path class="Clef" transform="matrix(0.992126,0,0,0.992126,34.0158,1199.87)" d="M63.3594,-5.92188 C62.125,-11.3438 59.4844,-15.1719 58.7031,-16.2031 C55.5156,-20.4844 51.5,-23.3281 46.8125,-24.6875 C43.7031,-25.5625 40.7031,-25.6875 38.2813,-25.5 C37.2344,-31.5156 36.2344,-37.3906 35.3281,-42.8438 C40.7813,-49.0156 44.4063,-54.8125 46.6875,-59.1094 C50.1563,-65.6875 51.2969,-70.2656 51.3594,-70.4688 C53.0781,-75.6875 53.4375,-83.3906 52.3281,-91.5938 C51.3281,-99.1406 49.2344,-105.859 46.875,-109.109 C45.8594,-110.531 44.7969,-111.266 43.7656,-111.266 C42.5469,-111.266 40.0313,-110.031 37.1406,-107.25 C34.8438,-105.063 31.5781,-101.172 29.0156,-95.1563 C26.0156,-88.0938 25.7969,-78.6094 26.1563,-71.8906 C26.5313,-64.6094 27.6406,-58.9219 27.6563,-58.875 C27.6719,-58.7813 27.9375,-57.2813 28.375,-54.7188 C28.1563,-54.4844 27.9063,-54.2656 27.6563,-54.0156 C26.625,-53.0156 25.4375,-51.8906 24.0469,-50.5 C23.1875,-49.6406 22.2344,-48.7344 21.2344,-47.7656 C12.7969,-39.625 0,-27.2969 0,-8.14063 C0,-3.4375 0.90625,0.984375 2.6875,5 C4.26563,8.59375 6.5625,11.875 9.5,14.75 C17.2344,22.3125 27.8281,25.5156 34.875,25.3594 C37.8281,25.2813 40.4688,25.0469 42.8594,24.5938 C44.6875,34.2031 45.8281,41.2344 45.8594,46.5781 C45.9063,53.0938 44.25,57.0781 40.3594,59.8438 C37.9219,61.5781 35.1094,62.5313 32.0156,62.6719 C29.4219,62.7969 27.1563,62.3281 25.7344,61.9219 L25.7188,61.9219 C25.7188,61.9219 25.4375,61.8281 25.4219,61.6406 C25.4063,61.4531 25.7656,61.4063 25.7656,61.4063 L25.7969,61.4063 C27.7188,60.9688 31.2813,59.7344 33.6406,56.4375 C35.4375,53.9063 36.3125,49.2813 34.4688,45.3438 C33.3594,42.9531 30.8594,40 25.2344,39.5469 C22.7344,39.3438 20.4688,39.8594 18.4688,41.0625 C16.6563,42.1406 15.1563,43.7813 14.1094,45.7813 C11.6563,50.4844 12.1094,56.2188 15.2344,60.0625 C18.2031,63.6875 22.8125,66 28.25,66.5781 C29.1094,66.6719 29.9531,66.7031 30.7969,66.7031 C35.2344,66.7031 39.625,65.5 43.2031,63.2969 C46.8594,60.7188 48.9844,56.7344 49.6563,51.1094 C50.2188,46.4688 49.8281,40.5469 48.4375,32.4688 C48.0781,30.375 47.5313,27.3438 46.875,23.5938 C52.625,21.6719 56.7813,18.0938 60.5469,12.2344 C63.8438,6.5 64.7813,0.390625 63.3594,-5.92188 M29.1406,20.2969 C24.5,19.0781 20.0625,16.5781 16.3125,13.0625 C15,11.8438 13.125,9.67188 11.6563,6.28125 C10.2969,3.10938 9.625,-0.328125 9.6875,-3.90625 C9.75,-8.60938 11.0625,-13.4375 13.5625,-18.2188 C16.4844,-23.7969 21.0469,-29.3281 27.1094,-34.6563 C28.5625,-35.9375 29.9375,-37.2188 31.2188,-38.5 C31.9844,-34.2344 32.8125,-29.5469 33.6875,-24.6719 C29.8438,-23.4063 25.0938,-20.25 21.9844,-14.5938 C18.4375,-8.03125 18.5781,-2.5 19.3125,0.984375 C20.25,5.4375 22.7813,9.20313 26.2344,11.2969 C27.1719,11.8594 31.2969,13.9844 33.1406,13.4063 C33.5156,13.2969 33.7813,13.0625 33.9219,12.7344 C34.4375,11.5625 33.4063,10.9219 31.8594,9.96875 C31.25,9.59375 30.5781,9.17188 29.8594,8.64063 C26.5313,6.15625 25.0781,1.70313 26.1563,-2.6875 C26.7344,-5.07813 28.0156,-7.25 29.8594,-8.95313 C31.5156,-10.5 33.5625,-11.5938 35.9375,-12.2344 C37.9844,-0.984375 40.0469,10.1719 41.6875,18.5313 C41.8125,19.2188 41.9531,19.8906 42.0781,20.5625 C37.7031,21.5 33.3594,21.4063 29.1406,20.2969 M40.4688,-12.9063 C50.8125,-13.375 55.0781,-5.9375 55.9688,-1.10938 C56.4375,1.4375 56.4375,5.875 54.8906,10.0938 C53.7188,13.2656 51.2656,17.3438 46.125,19.4063 C46.0625,18.9844 45.9844,18.5469 45.9063,18.125 C44.3594,9.34375 42.4219,-1.65625 40.4688,-12.9063 M33.1406,-83.8594 C34.9219,-89.5938 37.6563,-92.8438 39.6563,-94.5781 C41.4063,-96.0938 43.0469,-96.8125 43.9688,-96.8125 C44.1094,-96.8125 44.2344,-96.7813 44.3281,-96.75 C44.7969,-96.6094 45.3281,-96.0469 45.7969,-95.1719 C48.1094,-90.8906 47.3594,-84.1719 46.0156,-79.7344 C44.3906,-74.3281 41.4688,-68.7188 32.6719,-59.1094 C32.5,-60.2188 32.3438,-61.2656 32.1875,-62.25 C30.9375,-70.5313 31.2656,-77.8125 33.1406,-83.8594"/>
<path class="TimeSig" transform="matrix(0.992126,0,0,0.992126,244.951,212.73)" d="M3.59375,12.625 L20.7656,12.625 L20.7656,20.0781 L12.5469,20.0781 C11.7656,20.0781 11.125,20.7031 11.125,21.4844 L11.125,23.3906 C11.125,24.1719 11.7656,24.7969 12.5469,24.7969 L42.7969,24.7969 C43.5781,24.7969 44.2031,24.1719 44.2031,23.3906 L44.2031,21.4844 C44.2031,20.7031 43.5781,20.0781 42.7969,20.0781 L33.8594,20.0781 L33.8594,12.625 L42.7969,12.625 C43.5781,12.625 44.2031,12 44.2031,11.2188 L44.2031,9.3125 C44.2031,8.53125 43.5781,7.90625 42.7969,7.90625 L33.8594,7.90625 L33.8594,-8.0625 C33.8594,-8.59375 33.5469,-9.07813 33.0781,-9.3125 L31.8594,-9.92188 C31.3281,-10.1719 30.7031,-10.0781 30.2656,-9.6875 L21.2188,-1.375 C20.9375,-1.09375 20.7656,-0.734375 20.7656,-0.328125 L20.7656,7.90625 L9.25,7.90625 C9.25,7.90625 20.375,-4.125 32.2188,-19.8906 C33.0781,-21.0469 32.5781,-22.0938 32.3906,-22.2813 L30.2188,-24.4844 C29.9531,-24.75 29.5938,-24.9063 29.2188,-24.9063 C28.625,-24.9063 15.0625,-24.875 14.3438,-24.9063 C13.625,-24.9219 13.0938,-24.2969 13.0156,-23.6875 C13.0156,-23.6875 12.4844,-16.3281 9.875,-8.1875 C7.28125,-0.078125 4.34375,4.90625 1.6875,8.53125 C1.6875,8.53125 1.14063,9.51563 1.5,10.2656 C1.84375,11.0156 2.48438,12.0938 2.48438,12.0938 C2.48438,12.0938 2.73438,12.625 3.59375,12.625"/>
<path class="TimeSig" transform="matrix(0.992126,0,0,0.992126,244.951,262.073)" d="M3.59375,12.625 L20.7656,12.625 L20.7656,20.0781 L12.5469,20.0781 C11.7656,20.0781 11.125,20.7031 11.125,21.4844 L11.125,23.3906 C11.125,24.1719 11.7656,24.7969 12.5469,24.7969 L42.7969,24.7969 C43.5781,24.7969 44.2031,24.1719 44.2031,23.3906 L44.2031,21.4844 C44.2031,20.7031 43.5781,20.0781 42.7969,20.0781 L33.8594,20.0781 L33.8594,12.625 L42.7969,12.625 C43.5781,12.625 44.2031,12 44.2031,11.2188 L44.2031,9.3125 C44.2031,8.53125 43.5781,7.90625 42.7969,7.90625 L33.8594,7.90625 L33.8594,-8.0625 C33.8594,-8.59375 33.5469,-9.07813 33.0781,-9.3125 L31.8594,-9.92188 C31.3281,-10.1719 30.7031,-10.0781 30.2656,-9.6875 L21.2188,-1.375 C20.9375,-1.09375 20.7656,-0.734375 20.7656,-0.328125 L20.7656,7.90625 L9.25,7.90625 C9.25,7.90625 20.375,-4.125 32.2188,-19.8906 C33.0781,-21.0469 32.5781,-22.0938 32.3906,-22.2813 L30.2188,-24.4844 C29.9531,-24.75 29.5938,-24.9063 29.2188,-24.9063 C28.625,-24.9063 15.0625,-24.875 14.3438,-24.9063 C13.625,-24.9219 13.0938,-24.2969 13.0156,-23.6875 C13.0156,-23.6875 12.4844,-16.3281 9.875,-8.1875 C7.28125,-0.078125 4.34375,4.90625 1.6875,8.53125 C1.6875,8.53125 1.14063,9.51563 1.5,10.2656 C1.84375,11.0156 2.48438,12.0938 2.48438,12.0938 C2.48438,12.0938 2.73438,12.625 3.59375,12.625"/>
<path class="RehearsalMark" fill="none" stroke="#000000" stroke-width="3.97" stroke-linecap="square" stroke-linejoin="miter" stroke-miterlimit="2" fill-rule="evenodd" d="M154.216,21.0729 L262.987,21.0729 L262.987,122.845 L154.216,122.845 L154.216,21.0729 "/>
<path class="RehearsalMark" d="M205.352,35.4899 L182.883,87.9587 C178.32,98.6618 174.664,102.521 168.82,103.115 L168.82,108.459 L197.43,108.459 L197.43,103.115 C190.398,102.724 187.633,100.834 187.633,96.2868 C187.633,94.5993 188.023,93.0212 189.117,90.6462 L190.695,86.8806 L215.352,86.8806 L219.117,96.5837 C220.195,99.3493 220.305,99.8493 220.305,100.631 C220.305,102.427 218.914,103.021 214.555,103.021 L212.867,103.115 L212.867,108.459 L247.617,108.459 L247.617,103.115 C241.977,102.912 240.398,101.927 238.32,96.8806 L212.867,35.4899 L205.352,35.4899 M203.273,56.5837 L212.867,80.2399 L193.273,80.2399 L203.273,56.5837 "/>
<path class="RehearsalMark" fill="none" stroke="#000000" stroke-width="3.97" stroke-linecap="square" stroke-linejoin="miter" stroke-miterlimit="2" fill-rule="evenodd" d="M32.3294,654.622 L133.101,654.622 L133.101,755.393 L32.3294,755.393 L32.3294,654.622 "/>
<path class="RehearsalMark" d="M47.4027,669.523 L47.4027,674.882 L48.8871,674.882 C54.2308,674.882 56.1058,675.273 56.9964,676.257 C57.6996,677.351 57.6996,677.648 57.6996,683.789 L57.6996,726.757 C57.6996,732.882 57.6996,733.179 56.9964,734.179 C56.1058,735.273 54.1371,735.664 48.8871,735.664 L47.4027,735.664 L47.4027,741.007 L87.4964,741.007 C97.7933,741.007 103.043,740.211 108.184,737.945 C114.418,735.164 118.575,728.929 118.575,722.195 C118.575,715.273 114.621,709.82 107.293,706.461 C103.934,704.867 101.059,704.086 95.8089,703.382 C100.653,702.601 103.434,701.898 106.2,700.617 C112.137,697.742 115.309,692.992 115.309,687.054 C115.309,681.414 112.34,676.164 107.496,673.492 C102.043,670.414 97.2933,669.523 85.6058,669.523 L47.4027,669.523 M75.5121,701.601 L75.5121,680.617 C75.3089,676.461 76.6996,675.07 81.0589,674.882 L84.0277,674.882 C92.7464,674.882 97.3871,679.226 97.3871,687.445 C97.3871,692.304 95.7152,696.164 92.5433,698.632 C89.8714,700.82 86.4964,701.601 80.3714,701.601 L75.5121,701.601 M75.5121,707.054 L82.3402,707.054 C88.5746,707.054 91.4496,707.648 94.2308,709.429 C97.6839,711.711 99.6683,716.054 99.6683,721.211 C99.6683,725.961 97.8871,730.32 95.0121,732.695 C92.5433,734.664 89.2777,735.664 84.5277,735.664 L81.5589,735.664 C75.9027,735.461 75.3089,734.867 75.5121,729.32 L75.5121,707.054 "/>
<path class="Harmony" d="M350.527,121.866 C350.496,121.881 350.449,121.881 350.386,121.881 C350.324,121.881 350.277,121.897 350.246,121.897 C350.199,121.912 350.152,121.912 350.09,121.928 C350.027,121.928 349.996,121.944 349.949,121.959 C349.902,121.975 349.871,122.006 349.824,122.022 C349.777,122.053 349.746,122.069 349.73,122.116 C349.683,122.147 349.668,122.178 349.636,122.225 C349.621,122.256 349.605,122.319 349.605,122.366 C349.605,122.397 349.605,122.428 349.605,122.475 L349.605,122.506 C349.605,122.537 349.605,122.584 349.605,122.647 C349.621,122.709 349.621,122.756 349.621,122.787 C349.621,123.366 349.636,123.928 349.652,124.475 C349.652,124.506 349.652,124.537 349.652,124.569 C349.652,124.678 349.652,124.819 349.636,124.975 C349.621,125.178 349.621,125.319 349.621,125.412 L349.621,125.444 L349.621,125.537 C349.621,125.553 349.621,125.584 349.636,125.616 C349.636,125.647 349.636,125.662 349.652,125.678 C349.668,125.694 349.683,125.709 349.715,125.725 C349.73,125.741 349.761,125.741 349.793,125.741 L349.808,125.741 C349.98,125.741 350.152,125.709 350.324,125.631 C350.511,125.569 350.668,125.491 350.824,125.381 C350.98,125.287 351.121,125.162 351.261,125.006 C351.402,124.866 351.527,124.709 351.621,124.553 C351.73,124.397 351.808,124.225 351.871,124.053 C351.949,123.881 351.98,123.709 351.98,123.537 C351.996,123.506 351.996,123.459 351.996,123.428 C351.996,123.334 351.98,123.241 351.965,123.131 C351.933,122.991 351.902,122.85 351.84,122.725 C351.793,122.6 351.715,122.475 351.621,122.366 C351.543,122.241 351.433,122.147 351.324,122.069 C351.215,121.991 351.09,121.928 350.949,121.897 C350.871,121.866 350.777,121.866 350.668,121.866 C350.621,121.866 350.574,121.866 350.527,121.866 M350.215,125.1 C350.215,124.959 350.215,124.741 350.215,124.475 C350.23,124.256 350.23,124.053 350.23,123.866 C350.23,123.819 350.23,123.787 350.23,123.741 C350.23,123.522 350.215,123.303 350.215,123.1 C350.215,123.069 350.199,123.037 350.199,122.959 C350.183,122.881 350.168,122.803 350.168,122.741 C350.152,122.709 350.152,122.678 350.152,122.647 C350.152,122.616 350.152,122.584 350.168,122.553 C350.168,122.491 350.199,122.444 350.23,122.412 C350.277,122.381 350.324,122.366 350.386,122.366 C350.402,122.366 350.402,122.366 350.418,122.366 C350.496,122.381 350.574,122.397 350.668,122.444 C350.746,122.491 350.824,122.553 350.902,122.616 C350.98,122.678 351.043,122.741 351.105,122.787 C351.168,122.85 351.199,122.897 351.23,122.944 C351.308,123.069 351.371,123.225 351.402,123.381 C351.418,123.475 351.418,123.553 351.418,123.647 C351.418,123.709 351.418,123.787 351.418,123.85 C351.386,124.006 351.34,124.147 351.277,124.303 C351.215,124.444 351.121,124.569 351.027,124.694 C350.918,124.803 350.793,124.897 350.668,124.959 C350.527,125.037 350.371,125.084 350.215,125.1"/>
<path class="Harmony" d="M366.527,18.5936 C366.058,18.6874 365.293,18.7811 364.058,18.8905 C362.824,18.9843 361.871,19.1718 361.215,19.2655 C360.543,19.3593 359.59,19.453 358.449,19.6405 C357.308,19.828 356.465,20.1249 355.699,20.4061 C354.933,20.6874 354.09,21.0624 353.324,21.5468 C352.558,22.0155 351.902,22.4999 351.418,23.1561 C350.761,23.828 350.277,24.578 349.902,25.3436 C349.527,26.1093 349.246,27.0468 349.136,27.9999 C349.043,28.6718 349.043,29.328 349.043,29.9999 L349.043,30.5624 C349.136,31.2343 349.136,32.1874 349.246,33.328 C349.34,34.4686 349.34,35.4061 349.34,36.078 C349.34,46.9061 349.621,57.5468 350.09,68.0936 C350.183,68.6561 350.183,69.2343 350.183,69.9061 C350.09,71.8905 349.996,74.5468 349.808,77.6874 C349.527,81.3905 349.34,84.1561 349.34,85.953 L349.34,86.5311 L349.34,88.1405 C349.34,88.6093 349.527,89.0936 349.621,89.6561 C349.715,90.2343 349.902,90.703 350.183,90.9843 C350.48,91.2811 350.761,91.5624 351.23,91.8436 C351.621,92.0311 352.09,92.1249 352.652,92.1249 L352.949,92.1249 C356.261,92.0311 359.59,91.3749 362.918,90.1405 C366.246,88.9061 369.386,87.3749 372.324,85.3905 C375.277,83.3905 378.027,81.0155 380.683,78.2655 C383.34,75.4999 385.621,72.6561 387.527,69.6093 C389.418,66.578 391.043,63.4374 392.277,60.1093 C393.511,56.7811 394.168,53.4686 394.371,50.328 C394.465,49.6561 394.465,48.9061 394.465,48.2343 C394.465,46.4374 394.277,44.5311 393.886,42.6405 C393.418,39.9686 392.652,37.3124 391.605,34.8436 C390.558,32.3749 389.23,30.0936 387.527,27.9061 C385.808,25.7186 383.918,23.9218 381.824,22.4061 C379.73,20.8749 377.449,19.7343 374.793,19.078 C373.09,18.5936 371.277,18.4061 369.48,18.4061 C368.527,18.4061 367.574,18.4999 366.527,18.5936 M360.636,79.9686 C360.636,77.2186 360.73,73.2186 360.824,68.0936 C360.918,64.0155 361.011,60.1093 361.011,56.5936 C361.011,55.7499 360.918,54.8905 360.918,54.0311 C360.918,49.8593 360.824,45.7655 360.636,41.9686 C360.636,41.4999 360.543,40.6405 360.355,39.2186 C360.168,37.7811 359.886,36.453 359.777,35.2186 C359.683,34.6561 359.683,34.078 359.683,33.5155 C359.683,32.8436 359.683,32.2811 359.777,31.6093 C359.98,30.3749 360.355,29.4218 361.011,28.953 C361.871,28.2811 362.824,27.9999 363.871,27.9999 C364.152,28.0936 364.433,28.0936 364.73,28.0936 C366.152,28.2811 367.668,28.7655 369.277,29.6249 C370.902,30.4686 372.418,31.6093 373.84,32.7499 C375.277,33.8905 376.605,35.0311 377.652,36.1718 C378.683,37.3124 379.543,38.1718 380.027,39.0311 C381.543,41.4999 382.59,44.2499 383.152,47.2811 C383.433,48.9999 383.636,50.703 383.636,52.4218 C383.636,53.6561 383.527,54.8905 383.433,56.1249 C382.965,59.0624 382.105,61.9218 380.871,64.6718 C379.636,67.4218 378.027,69.9061 376.121,72.078 C374.136,74.2655 371.855,75.9843 369.183,77.4061 C366.527,78.828 363.683,79.6874 360.636,79.9686"/>
<path class="Harmony" d="M1025.99,51.3968 C1025.53,51.4905 1024.76,51.5843 1023.53,51.6937 C1022.29,51.7874 1021.34,51.9749 1020.68,52.0687 C1020.01,52.1624 1019.06,52.2562 1017.92,52.4437 C1016.78,52.6312 1015.93,52.928 1015.17,53.2093 C1014.4,53.4905 1013.56,53.8655 1012.79,54.3499 C1012.03,54.8187 1011.37,55.303 1010.88,55.9593 C1010.23,56.6312 1009.74,57.3812 1009.37,58.1468 C1008.99,58.9124 1008.71,59.8499 1008.6,60.803 C1008.51,61.4749 1008.51,62.1312 1008.51,62.803 L1008.51,63.3655 C1008.6,64.0374 1008.6,64.9905 1008.71,66.1312 C1008.81,67.2718 1008.81,68.2093 1008.81,68.8812 C1008.81,79.7093 1009.09,90.3499 1009.56,100.897 C1009.65,101.459 1009.65,102.037 1009.65,102.709 C1009.56,104.694 1009.46,107.35 1009.28,110.491 C1008.99,114.194 1008.81,116.959 1008.81,118.756 L1008.81,119.334 L1008.81,120.944 C1008.81,121.412 1008.99,121.897 1009.09,122.459 C1009.18,123.037 1009.37,123.506 1009.65,123.787 C1009.95,124.084 1010.23,124.366 1010.7,124.647 C1011.09,124.834 1011.56,124.928 1012.12,124.928 L1012.42,124.928 C1015.73,124.834 1019.06,124.178 1022.38,122.944 C1025.71,121.709 1028.85,120.178 1031.79,118.194 C1034.74,116.194 1037.49,113.819 1040.15,111.069 C1042.81,108.303 1045.09,105.459 1046.99,102.412 C1048.88,99.3812 1050.51,96.2405 1051.74,92.9124 C1052.98,89.5843 1053.63,86.2718 1053.84,83.1312 C1053.93,82.4593 1053.93,81.7093 1053.93,81.0374 C1053.93,79.2405 1053.74,77.3343 1053.35,75.4437 C1052.88,72.7718 1052.12,70.1155 1051.07,67.6468 C1050.03,65.178 1048.7,62.8968 1046.99,60.7093 C1045.28,58.5218 1043.38,56.7249 1041.29,55.2093 C1039.2,53.678 1036.92,52.5374 1034.26,51.8812 C1032.56,51.3968 1030.74,51.2093 1028.95,51.2093 C1027.99,51.2093 1027.04,51.303 1025.99,51.3968 M1020.1,112.772 C1020.1,110.022 1020.2,106.022 1020.29,100.897 C1020.38,96.8187 1020.48,92.9124 1020.48,89.3968 C1020.48,88.553 1020.38,87.6937 1020.38,86.8343 C1020.38,82.6624 1020.29,78.5687 1020.1,74.7718 C1020.1,74.303 1020.01,73.4437 1019.82,72.0218 C1019.63,70.5843 1019.35,69.2562 1019.24,68.0218 C1019.15,67.4593 1019.15,66.8812 1019.15,66.3187 C1019.15,65.6468 1019.15,65.0843 1019.24,64.4124 C1019.45,63.178 1019.82,62.2249 1020.48,61.7562 C1021.34,61.0843 1022.29,60.803 1023.34,60.803 C1023.62,60.8968 1023.9,60.8968 1024.2,60.8968 C1025.62,61.0843 1027.13,61.5687 1028.74,62.428 C1030.37,63.2718 1031.88,64.4124 1033.31,65.553 C1034.74,66.6937 1036.07,67.8343 1037.12,68.9749 C1038.15,70.1155 1039.01,70.9749 1039.49,71.8343 C1041.01,74.303 1042.06,77.053 1042.62,80.0843 C1042.9,81.803 1043.1,83.5062 1043.1,85.2249 C1043.1,86.4593 1042.99,87.6937 1042.9,88.928 C1042.43,91.8655 1041.57,94.7249 1040.34,97.4749 C1039.1,100.225 1037.49,102.709 1035.59,104.881 C1033.6,107.069 1031.32,108.787 1028.65,110.209 C1025.99,111.631 1023.15,112.491 1020.1,112.772"/>
<path class="Harmony" d="M1685.46,51.3968 C1684.99,51.4905 1684.23,51.5843 1682.99,51.6937 C1681.76,51.7874 1680.81,51.9749 1680.15,52.0687 C1679.48,52.1624 1678.52,52.2562 1677.38,52.4437 C1676.24,52.6312 1675.4,52.928 1674.63,53.2093 C1673.87,53.4905 1673.02,53.8655 1672.26,54.3499 C1671.49,54.8187 1670.84,55.303 1670.35,55.9593 C1669.7,56.6312 1669.21,57.3812 1668.84,58.1468 C1668.46,58.9124 1668.18,59.8499 1668.07,60.803 C1667.98,61.4749 1667.98,62.1312 1667.98,62.803 L1667.98,63.3655 C1668.07,64.0374 1668.07,64.9905 1668.18,66.1312 C1668.27,67.2718 1668.27,68.2093 1668.27,68.8812 C1668.27,79.7093 1668.56,90.3499 1669.02,100.897 C1669.12,101.459 1669.12,102.037 1669.12,102.709 C1669.02,104.694 1668.93,107.35 1668.74,110.491 C1668.46,114.194 1668.27,116.959 1668.27,118.756 L1668.27,119.334 L1668.27,120.944 C1668.27,121.412 1668.46,121.897 1668.56,122.459 C1668.65,123.037 1668.84,123.506 1669.12,123.787 C1669.41,124.084 1669.7,124.366 1670.16,124.647 C1670.56,124.834 1671.02,124.928 1671.59,124.928 L1671.88,124.928 C1675.2,124.834 1678.52,124.178 1681.85,122.944 C1685.18,121.709 1688.32,120.178 1691.26,118.194 C1694.21,116.194 1696.96,113.819 1699.62,111.069 C1702.27,108.303 1704.56,105.459 1706.46,102.412 C1708.35,99.3812 1709.98,96.2405 1711.21,92.9124 C1712.45,89.5843 1713.1,86.2718 1713.31,83.1312 C1713.4,82.4593 1713.4,81.7093 1713.4,81.0374 C1713.4,79.2405 1713.21,77.3343 1712.82,75.4437 C1712.35,72.7718 1711.59,70.1155 1710.54,67.6468 C1709.49,65.178 1708.16,62.8968 1706.46,60.7093 C1704.74,58.5218 1702.85,56.7249 1700.76,55.2093 C1698.66,53.678 1696.38,52.5374 1693.73,51.8812 C1692.02,51.3968 1690.21,51.2093 1688.41,51.2093 C1687.46,51.2093 1686.51,51.303 1685.46,51.3968 M1679.57,112.772 C1679.57,110.022 1679.66,106.022 1679.76,100.897 C1679.85,96.8187 1679.95,92.9124 1679.95,89.3968 C1679.95,88.553 1679.85,87.6937 1679.85,86.8343 C1679.85,82.6624 1679.76,78.5687 1679.57,74.7718 C1679.57,74.303 1679.48,73.4437 1679.29,72.0218 C1679.1,70.5843 1678.82,69.2562 1678.71,68.0218 C1678.62,67.4593 1678.62,66.8812 1678.62,66.3187 C1678.62,65.6468 1678.62,65.0843 1678.71,64.4124 C1678.91,63.178 1679.29,62.2249 1679.95,61.7562 C1680.81,61.0843 1681.76,60.803 1682.81,60.803 C1683.09,60.8968 1683.37,60.8968 1683.66,60.8968 C1685.09,61.0843 1686.6,61.5687 1688.21,62.428 C1689.84,63.2718 1691.35,64.4124 1692.77,65.553 C1694.21,66.6937 1695.54,67.8343 1696.59,68.9749 C1697.62,70.1155 1698.48,70.9749 1698.96,71.8343 C1700.48,74.303 1701.52,77.053 1702.09,80.0843 C1702.37,81.803 1702.57,83.5062 1702.57,85.2249 C1702.57,86.4593 1702.46,87.6937 1702.37,88.928 C1701.9,91.8655 1701.04,94.7249 1699.81,97.4749 C1698.57,100.225 1696.96,102.709 1695.06,104.881 C1693.07,107.069 1690.79,108.787 1688.12,110.209 C1685.46,111.631 1682.62,112.491 1679.57,112.772"/>
<path class="Harmony" d="M2344.93,51.3968 C2344.46,51.4905 2343.69,51.5843 2342.46,51.6937 C2341.23,51.7874 2340.27,51.9749 2339.62,52.0687 C2338.94,52.1624 2337.99,52.2562 2336.85,52.4437 C2335.71,52.6312 2334.87,52.928 2334.1,53.2093 C2333.33,53.4905 2332.49,53.8655 2331.73,54.3499 C2330.96,54.8187 2330.3,55.303 2329.82,55.9593 C2329.16,56.6312 2328.68,57.3812 2328.3,58.1468 C2327.93,58.9124 2327.65,59.8499 2327.54,60.803 C2327.44,61.4749 2327.44,62.1312 2327.44,62.803 L2327.44,63.3655 C2327.54,64.0374 2327.54,64.9905 2327.65,66.1312 C2327.74,67.2718 2327.74,68.2093 2327.74,68.8812 C2327.74,79.7093 2328.02,90.3499 2328.49,100.897 C2328.58,101.459 2328.58,102.037 2328.58,102.709 C2328.49,104.694 2328.4,107.35 2328.21,110.491 C2327.93,114.194 2327.74,116.959 2327.74,118.756 L2327.74,119.334 L2327.74,120.944 C2327.74,121.412 2327.93,121.897 2328.02,122.459 C2328.12,123.037 2328.3,123.506 2328.58,123.787 C2328.88,124.084 2329.16,124.366 2329.63,124.647 C2330.02,124.834 2330.49,124.928 2331.05,124.928 L2331.35,124.928 C2334.66,124.834 2337.99,124.178 2341.32,122.944 C2344.65,121.709 2347.79,120.178 2350.73,118.194 C2353.68,116.194 2356.43,113.819 2359.08,111.069 C2361.74,108.303 2364.02,105.459 2365.93,102.412 C2367.82,99.3812 2369.44,96.2405 2370.68,92.9124 C2371.91,89.5843 2372.57,86.2718 2372.77,83.1312 C2372.87,82.4593 2372.87,81.7093 2372.87,81.0374 C2372.87,79.2405 2372.68,77.3343 2372.29,75.4437 C2371.82,72.7718 2371.05,70.1155 2370.01,67.6468 C2368.96,65.178 2367.63,62.8968 2365.93,60.7093 C2364.21,58.5218 2362.32,56.7249 2360.23,55.2093 C2358.13,53.678 2355.85,52.5374 2353.19,51.8812 C2351.49,51.3968 2349.68,51.2093 2347.88,51.2093 C2346.93,51.2093 2345.98,51.303 2344.93,51.3968 M2339.04,112.772 C2339.04,110.022 2339.13,106.022 2339.23,100.897 C2339.32,96.8187 2339.41,92.9124 2339.41,89.3968 C2339.41,88.553 2339.32,87.6937 2339.32,86.8343 C2339.32,82.6624 2339.23,78.5687 2339.04,74.7718 C2339.04,74.303 2338.94,73.4437 2338.76,72.0218 C2338.57,70.5843 2338.29,69.2562 2338.18,68.0218 C2338.08,67.4593 2338.08,66.8812 2338.08,66.3187 C2338.08,65.6468 2338.08,65.0843 2338.18,64.4124 C2338.38,63.178 2338.76,62.2249 2339.41,61.7562 C2340.27,61.0843 2341.23,60.803 2342.27,60.803 C2342.55,60.8968 2342.83,60.8968 2343.13,60.8968 C2344.55,61.0843 2346.07,61.5687 2347.68,62.428 C2349.3,63.2718 2350.82,64.4124 2352.24,65.553 C2353.68,66.6937 2355.01,67.8343 2356.05,68.9749 C2357.08,70.1155 2357.94,70.9749 2358.43,71.8343 C2359.94,74.303 2360.99,77.053 2361.55,80.0843 C2361.83,81.803 2362.04,83.5062 2362.04,85.2249 C2362.04,86.4593 2361.93,87.6937 2361.83,88.928 C2361.37,91.8655 2360.51,94.7249 2359.27,97.4749 C2358.04,100.225 2356.43,102.709 2354.52,104.881 C2352.54,107.069 2350.26,108.787 2347.58,110.209 C2344.93,111.631 2342.08,112.491 2339.04,112.772"/>
<path class="Harmony" d="M208.533,361.827 C204.83,362.296 201.314,363.155 197.892,364.389 C194.47,365.624 191.33,367.327 188.298,369.327 C185.252,371.327 182.502,373.608 180.127,376.171 C177.752,378.733 175.752,381.671 174.048,384.999 C172.33,388.327 171.189,391.842 170.533,395.546 C170.048,397.827 169.861,400.202 169.861,402.577 L169.861,403.249 C169.861,405.514 169.955,407.702 170.236,409.889 C170.533,412.264 171.095,414.639 171.861,416.827 C172.72,419.108 173.658,421.296 174.705,423.28 C175.752,425.28 177.08,427.092 178.611,428.702 C180.127,430.311 182.017,431.639 183.923,432.78 C185.83,433.921 188.002,434.78 190.377,435.264 C192.002,435.546 193.611,435.733 195.236,435.733 C196.08,435.733 197.033,435.733 198.08,435.639 C201.017,435.358 203.783,434.686 206.345,433.733 C208.908,432.78 211.283,431.639 213.283,430.311 C215.267,428.983 217.267,427.28 219.08,425.374 C220.877,423.483 222.595,421.389 224.017,419.296 C225.439,417.202 226.767,414.827 228.189,412.171 C230.377,407.796 231.423,404.092 231.423,401.155 C231.423,398.202 230.377,395.921 228.189,394.311 C226.955,393.264 224.877,392.608 222.111,392.124 C220.127,391.842 218.127,391.655 216.127,391.655 L215.658,391.655 L213.564,391.655 C210.627,391.749 207.861,392.217 205.205,393.077 C202.548,393.936 200.736,394.983 199.783,396.217 C199.502,396.686 199.22,397.061 198.939,397.452 C198.267,398.499 197.892,399.436 197.892,400.296 C197.892,401.53 198.752,402.389 200.361,402.858 C201.689,403.249 204.252,403.436 207.955,403.436 L208.814,403.436 C210.048,403.53 211.002,403.53 211.658,403.53 C215.564,403.53 217.939,403.999 218.689,405.046 C218.986,405.421 219.267,405.999 219.267,406.561 C219.267,407.139 219.173,407.702 219.08,408.28 C218.986,408.842 218.689,409.514 218.408,410.264 C218.127,411.03 217.845,411.608 217.548,412.077 C217.267,412.546 216.986,413.217 216.611,413.983 C216.22,414.733 215.939,415.124 215.845,415.311 C215.377,416.155 215.08,416.827 214.798,417.296 C214.517,417.78 214.127,418.249 213.658,418.921 C213.189,419.577 212.611,420.155 212.142,420.53 C210.142,422.046 207.955,423.092 205.392,423.577 L202.158,423.952 L201.783,423.952 C200.548,423.858 199.22,423.764 197.986,423.483 C195.611,422.999 193.236,422.139 191.048,420.811 C188.861,419.483 186.97,417.874 185.533,415.967 C184.111,413.983 182.783,411.608 181.83,408.936 C180.877,406.28 180.314,403.53 180.127,400.577 C180.033,399.53 180.033,398.592 180.033,397.546 C180.033,395.639 180.127,393.749 180.408,391.936 C180.877,389.186 181.736,386.514 183.064,384.046 C184.392,381.577 186.111,379.592 188.205,378.061 C190.767,376.077 193.892,374.639 197.502,373.702 C199.502,373.124 201.502,372.842 203.392,372.842 C204.736,372.842 206.064,373.03 207.298,373.311 C208.345,373.608 209.377,373.983 210.627,374.546 C211.861,375.124 212.892,375.686 213.845,376.264 C214.798,376.827 215.845,377.405 216.892,377.967 C217.939,378.546 218.986,379.014 219.923,379.202 C220.877,379.389 221.83,379.499 222.783,379.389 C223.736,379.296 224.673,378.827 225.627,377.967 C226.58,377.124 227.439,375.983 228.283,374.546 C228.767,373.702 229.048,372.842 229.048,371.983 C229.048,371.327 228.861,370.749 228.58,370.092 C227.814,368.655 226.58,367.421 224.877,366.374 C223.158,365.342 221.361,364.389 219.267,363.624 C217.173,362.858 215.173,362.389 213.189,362.108 C211.752,361.827 210.627,361.733 209.673,361.733 C209.189,361.733 208.814,361.733 208.533,361.827"/>
<path class="Harmony" d="M881.249,361.436 C880.78,361.53 880.014,361.624 878.78,361.733 C877.546,361.827 876.593,362.014 875.936,362.108 C875.264,362.202 874.311,362.296 873.171,362.483 C872.03,362.671 871.186,362.967 870.421,363.249 C869.655,363.53 868.811,363.905 868.046,364.389 C867.28,364.858 866.624,365.342 866.139,365.999 C865.483,366.671 864.999,367.421 864.624,368.186 C864.249,368.952 863.968,369.889 863.858,370.842 C863.764,371.514 863.764,372.171 863.764,372.842 L863.764,373.405 C863.858,374.077 863.858,375.03 863.968,376.171 C864.061,377.311 864.061,378.249 864.061,378.921 C864.061,389.749 864.343,400.389 864.811,410.936 C864.905,411.499 864.905,412.077 864.905,412.749 C864.811,414.733 864.718,417.389 864.53,420.53 C864.249,424.233 864.061,426.999 864.061,428.796 L864.061,429.374 L864.061,430.983 C864.061,431.452 864.249,431.936 864.343,432.499 C864.436,433.077 864.624,433.546 864.905,433.827 C865.202,434.124 865.483,434.405 865.952,434.686 C866.343,434.874 866.811,434.967 867.374,434.967 L867.671,434.967 C870.983,434.874 874.311,434.217 877.639,432.983 C880.968,431.749 884.108,430.217 887.046,428.233 C889.999,426.233 892.749,423.858 895.405,421.108 C898.061,418.342 900.343,415.499 902.249,412.452 C904.139,409.421 905.764,406.28 906.999,402.952 C908.233,399.624 908.889,396.311 909.093,393.171 C909.186,392.499 909.186,391.749 909.186,391.077 C909.186,389.28 908.999,387.374 908.608,385.483 C908.139,382.811 907.374,380.155 906.327,377.686 C905.28,375.217 903.952,372.936 902.249,370.749 C900.53,368.561 898.639,366.764 896.546,365.249 C894.452,363.717 892.171,362.577 889.514,361.921 C887.811,361.436 885.999,361.249 884.202,361.249 C883.249,361.249 882.296,361.342 881.249,361.436 M875.358,422.811 C875.358,420.061 875.452,416.061 875.546,410.936 C875.639,406.858 875.733,402.952 875.733,399.436 C875.733,398.592 875.639,397.733 875.639,396.874 C875.639,392.702 875.546,388.608 875.358,384.811 C875.358,384.342 875.264,383.483 875.077,382.061 C874.889,380.624 874.608,379.296 874.499,378.061 C874.405,377.499 874.405,376.921 874.405,376.358 C874.405,375.686 874.405,375.124 874.499,374.452 C874.702,373.217 875.077,372.264 875.733,371.796 C876.593,371.124 877.546,370.842 878.593,370.842 C878.874,370.936 879.155,370.936 879.452,370.936 C880.874,371.124 882.389,371.608 883.999,372.467 C885.624,373.311 887.139,374.452 888.561,375.592 C889.999,376.733 891.327,377.874 892.374,379.014 C893.405,380.155 894.264,381.014 894.749,381.874 C896.264,384.342 897.311,387.092 897.874,390.124 C898.155,391.842 898.358,393.546 898.358,395.264 C898.358,396.499 898.249,397.733 898.155,398.967 C897.686,401.905 896.827,404.764 895.593,407.514 C894.358,410.264 892.749,412.749 890.843,414.921 C888.858,417.108 886.577,418.827 883.905,420.249 C881.249,421.671 878.405,422.53 875.358,422.811"/>
<path class="Harmony" d="M1589.79,381.389 C1591.03,382.999 1591.87,385.186 1592.54,387.952 C1593.21,390.702 1593.68,393.358 1594.15,396.124 C1594.64,398.874 1594.92,401.436 1595.01,403.717 L1587.79,402.952 L1580,403.717 L1584,391.842 L1589.79,381.389 M1588.07,414.827 L1589.98,414.827 L1592.82,414.827 L1593.59,414.827 L1594.45,414.827 C1594.54,414.827 1594.82,414.921 1595.2,414.921 C1595.59,414.921 1595.87,414.921 1596.06,415.014 C1596.25,415.124 1596.43,415.217 1596.73,415.311 C1597.01,415.405 1597.2,415.499 1597.39,415.686 C1597.57,415.874 1597.87,415.967 1598.06,416.155 C1598.53,416.639 1599,417.592 1599.39,418.827 C1599.76,419.967 1600.14,421.202 1600.43,422.624 C1600.71,424.046 1601,425.467 1601.28,427.092 C1601.57,428.702 1601.95,430.124 1602.32,431.452 C1602.71,432.78 1603.28,434.014 1603.86,435.061 C1604.42,436.108 1605.09,436.78 1605.93,437.155 C1606.32,437.342 1606.79,437.436 1607.37,437.436 C1607.84,437.436 1608.4,437.342 1608.98,437.155 C1609.84,436.874 1610.5,436.499 1611.17,436.108 C1611.82,435.733 1612.31,435.358 1612.68,434.874 C1613.06,434.405 1613.36,433.921 1613.64,433.358 C1613.92,432.78 1614.11,432.405 1614.2,431.936 C1614.29,431.546 1614.29,431.171 1614.29,430.702 L1614.29,430.217 C1614.29,429.561 1614.29,428.889 1614.2,428.421 C1614.11,427.936 1613.92,427.374 1613.73,426.608 C1613.54,425.858 1613.36,425.28 1613.15,424.811 C1612.96,424.327 1612.87,423.671 1612.59,422.811 C1612.31,421.952 1612.01,421.389 1611.92,421.014 C1611.26,419.108 1610.12,415.311 1608.5,409.702 C1607.37,405.624 1606.42,402.202 1605.75,399.53 C1604.51,394.686 1603.46,390.702 1602.71,387.561 C1601.48,382.342 1600.53,378.827 1600.04,377.014 C1599.95,376.639 1599.86,376.077 1599.67,375.311 C1599.48,374.546 1599.39,373.889 1599.29,373.311 C1599.2,372.749 1598.9,372.171 1598.71,371.421 C1598.53,370.655 1598.34,369.889 1598.15,369.327 C1597.96,368.749 1597.57,368.092 1597.29,367.421 C1597.01,366.764 1596.62,366.28 1596.25,365.811 C1595.87,365.342 1595.59,364.952 1595.11,364.577 C1594.64,364.202 1594.15,363.811 1593.59,363.717 C1593.12,363.624 1592.64,363.53 1592.07,363.53 L1591.68,363.53 C1591.03,363.624 1590.26,363.717 1589.4,363.999 C1588.75,364.296 1587.98,364.671 1587.32,365.139 C1586.65,365.624 1586,365.999 1585.51,366.483 C1585.04,366.952 1584.56,367.624 1584.09,368.374 C1583.62,369.139 1583.14,369.702 1582.86,370.28 C1582.57,370.842 1582.18,371.608 1581.81,372.561 C1581.43,373.499 1581.04,374.264 1580.86,374.842 C1580.67,375.405 1580.48,376.171 1580.11,377.124 C1579.71,378.061 1579.43,378.733 1579.34,379.202 C1576.59,386.139 1573.82,392.702 1571.07,399.061 C1566.61,409.233 1563.95,415.405 1563.18,417.686 C1563.09,418.061 1562.71,418.733 1562.23,419.764 C1561.76,420.811 1561.2,421.764 1560.71,422.717 C1560.25,423.671 1559.76,424.905 1559.2,426.139 C1558.62,427.374 1558.15,428.608 1557.87,429.655 C1557.48,430.702 1557.29,431.639 1557.29,432.499 C1557.39,433.358 1557.59,433.921 1558.06,434.405 C1558.92,435.061 1559.86,435.452 1560.9,435.452 L1561.57,435.452 C1562.9,435.264 1564.23,434.874 1565.56,434.124 C1566.89,433.358 1567.84,432.499 1568.32,431.639 C1568.89,430.608 1569.46,429.374 1569.93,427.842 C1570.4,426.327 1570.89,424.905 1571.17,423.671 C1571.45,422.436 1571.84,421.108 1572.5,419.671 C1573.17,418.249 1573.92,417.108 1574.78,416.155 L1579.9,414.546 C1580.2,414.452 1580.57,414.546 1581.25,414.546 L1584,414.546 C1584.28,414.546 1585.7,414.639 1588.07,414.827"/>
<path class="Harmony" d="M2268.49,361.436 C2268.02,361.53 2267.26,361.624 2266.02,361.733 C2264.79,361.827 2263.84,362.014 2263.18,362.108 C2262.51,362.202 2261.56,362.296 2260.42,362.483 C2259.27,362.671 2258.43,362.967 2257.67,363.249 C2256.9,363.53 2256.06,363.905 2255.29,364.389 C2254.52,364.858 2253.87,365.342 2253.38,365.999 C2252.73,366.671 2252.24,367.421 2251.87,368.186 C2251.49,368.952 2251.21,369.889 2251.1,370.842 C2251.01,371.514 2251.01,372.171 2251.01,372.842 L2251.01,373.405 C2251.1,374.077 2251.1,375.03 2251.21,376.171 C2251.31,377.311 2251.31,378.249 2251.31,378.921 C2251.31,389.749 2251.59,400.389 2252.06,410.936 C2252.15,411.499 2252.15,412.077 2252.15,412.749 C2252.06,414.733 2251.96,417.389 2251.77,420.53 C2251.49,424.233 2251.31,426.999 2251.31,428.796 L2251.31,429.374 L2251.31,430.983 C2251.31,431.452 2251.49,431.936 2251.59,432.499 C2251.68,433.077 2251.87,433.546 2252.15,433.827 C2252.45,434.124 2252.73,434.405 2253.2,434.686 C2253.59,434.874 2254.06,434.967 2254.62,434.967 L2254.92,434.967 C2258.23,434.874 2261.56,434.217 2264.88,432.983 C2268.21,431.749 2271.35,430.217 2274.29,428.233 C2277.24,426.233 2279.99,423.858 2282.65,421.108 C2285.31,418.342 2287.59,415.499 2289.49,412.452 C2291.38,409.421 2293.01,406.28 2294.24,402.952 C2295.48,399.624 2296.13,396.311 2296.34,393.171 C2296.43,392.499 2296.43,391.749 2296.43,391.077 C2296.43,389.28 2296.24,387.374 2295.85,385.483 C2295.38,382.811 2294.62,380.155 2293.57,377.686 C2292.52,375.217 2291.2,372.936 2289.49,370.749 C2287.77,368.561 2285.88,366.764 2283.79,365.249 C2281.7,363.717 2279.42,362.577 2276.76,361.921 C2275.06,361.436 2273.24,361.249 2271.45,361.249 C2270.49,361.249 2269.54,361.342 2268.49,361.436 M2262.6,422.811 C2262.6,420.061 2262.7,416.061 2262.79,410.936 C2262.88,406.858 2262.98,402.952 2262.98,399.436 C2262.98,398.592 2262.88,397.733 2262.88,396.874 C2262.88,392.702 2262.79,388.608 2262.6,384.811 C2262.6,384.342 2262.51,383.483 2262.32,382.061 C2262.13,380.624 2261.85,379.296 2261.74,378.061 C2261.65,377.499 2261.65,376.921 2261.65,376.358 C2261.65,375.686 2261.65,375.124 2261.74,374.452 C2261.95,373.217 2262.32,372.264 2262.98,371.796 C2263.84,371.124 2264.79,370.842 2265.84,370.842 C2266.12,370.936 2266.4,370.936 2266.7,370.936 C2268.12,371.124 2269.63,371.608 2271.24,372.467 C2272.87,373.311 2274.38,374.452 2275.81,375.592 C2277.24,376.733 2278.57,377.874 2279.62,379.014 C2280.65,380.155 2281.51,381.014 2281.99,381.874 C2283.51,384.342 2284.56,387.092 2285.12,390.124 C2285.4,391.842 2285.6,393.546 2285.6,395.264 C2285.6,396.499 2285.49,397.733 2285.4,398.967 C2284.93,401.905 2284.07,404.764 2282.84,407.514 C2281.6,410.264 2279.99,412.749 2278.09,414.921 C2276.1,417.108 2273.82,418.827 2271.15,420.249 C2268.49,421.671 2265.65,422.53 2262.6,422.811"/>
<path class="Harmony" d="M187.627,679.018 C187.158,679.112 186.392,679.206 185.158,679.315 C183.923,679.409 182.97,679.596 182.314,679.69 C181.642,679.784 180.689,679.878 179.548,680.065 C178.408,680.253 177.564,680.55 176.798,680.831 C176.033,681.112 175.189,681.487 174.423,681.971 C173.658,682.44 173.002,682.925 172.517,683.581 C171.861,684.253 171.377,685.003 171.002,685.768 C170.627,686.534 170.345,687.471 170.236,688.425 C170.142,689.096 170.142,689.753 170.142,690.425 L170.142,690.987 C170.236,691.659 170.236,692.612 170.345,693.753 C170.439,694.893 170.439,695.831 170.439,696.503 C170.439,707.331 170.72,717.971 171.189,728.518 C171.283,729.081 171.283,729.659 171.283,730.331 C171.189,732.315 171.095,734.971 170.908,738.112 C170.627,741.815 170.439,744.581 170.439,746.378 L170.439,746.956 L170.439,748.565 C170.439,749.034 170.627,749.518 170.72,750.081 C170.814,750.659 171.002,751.128 171.283,751.409 C171.58,751.706 171.861,751.987 172.33,752.268 C172.72,752.456 173.189,752.55 173.752,752.55 L174.048,752.55 C177.361,752.456 180.689,751.8 184.017,750.565 C187.345,749.331 190.486,747.8 193.423,745.815 C196.377,743.815 199.127,741.44 201.783,738.69 C204.439,735.925 206.72,733.081 208.627,730.034 C210.517,727.003 212.142,723.862 213.377,720.534 C214.611,717.206 215.267,713.893 215.47,710.753 C215.564,710.081 215.564,709.331 215.564,708.659 C215.564,706.862 215.377,704.956 214.986,703.065 C214.517,700.393 213.752,697.737 212.705,695.268 C211.658,692.8 210.33,690.518 208.627,688.331 C206.908,686.143 205.017,684.346 202.923,682.831 C200.83,681.3 198.548,680.159 195.892,679.503 C194.189,679.018 192.377,678.831 190.58,678.831 C189.627,678.831 188.673,678.925 187.627,679.018 M181.736,740.393 C181.736,737.643 181.83,733.643 181.923,728.518 C182.017,724.44 182.111,720.534 182.111,717.018 C182.111,716.175 182.017,715.315 182.017,714.456 C182.017,710.284 181.923,706.19 181.736,702.393 C181.736,701.925 181.642,701.065 181.455,699.643 C181.267,698.206 180.986,696.878 180.877,695.643 C180.783,695.081 180.783,694.503 180.783,693.94 C180.783,693.268 180.783,692.706 180.877,692.034 C181.08,690.8 181.455,689.846 182.111,689.378 C182.97,688.706 183.923,688.425 184.97,688.425 C185.252,688.518 185.533,688.518 185.83,688.518 C187.252,688.706 188.767,689.19 190.377,690.05 C192.002,690.893 193.517,692.034 194.939,693.175 C196.377,694.315 197.705,695.456 198.752,696.596 C199.783,697.737 200.642,698.596 201.127,699.456 C202.642,701.925 203.689,704.675 204.252,707.706 C204.533,709.425 204.736,711.128 204.736,712.846 C204.736,714.081 204.627,715.315 204.533,716.55 C204.064,719.487 203.205,722.346 201.97,725.096 C200.736,727.846 199.127,730.331 197.22,732.503 C195.236,734.69 192.955,736.409 190.283,737.831 C187.627,739.253 184.783,740.112 181.736,740.393"/>
<path class="Harmony" d="M891.819,679.018 C891.35,679.112 890.584,679.206 889.35,679.315 C888.116,679.409 887.163,679.596 886.506,679.69 C885.834,679.784 884.881,679.878 883.741,680.065 C882.6,680.253 881.756,680.55 880.991,680.831 C880.225,681.112 879.381,681.487 878.616,681.971 C877.85,682.44 877.194,682.925 876.709,683.581 C876.053,684.253 875.569,685.003 875.194,685.768 C874.819,686.534 874.538,687.471 874.428,688.425 C874.334,689.096 874.334,689.753 874.334,690.425 L874.334,690.987 C874.428,691.659 874.428,692.612 874.538,693.753 C874.631,694.893 874.631,695.831 874.631,696.503 C874.631,707.331 874.913,717.971 875.381,728.518 C875.475,729.081 875.475,729.659 875.475,730.331 C875.381,732.315 875.288,734.971 875.1,738.112 C874.819,741.815 874.631,744.581 874.631,746.378 L874.631,746.956 L874.631,748.565 C874.631,749.034 874.819,749.518 874.913,750.081 C875.006,750.659 875.194,751.128 875.475,751.409 C875.772,751.706 876.053,751.987 876.522,752.268 C876.913,752.456 877.381,752.55 877.944,752.55 L878.241,752.55 C881.553,752.456 884.881,751.8 888.209,750.565 C891.538,749.331 894.678,747.8 897.616,745.815 C900.569,743.815 903.319,741.44 905.975,738.69 C908.631,735.925 910.913,733.081 912.819,730.034 C914.709,727.003 916.334,723.862 917.569,720.534 C918.803,717.206 919.459,713.893 919.663,710.753 C919.756,710.081 919.756,709.331 919.756,708.659 C919.756,706.862 919.569,704.956 919.178,703.065 C918.709,700.393 917.944,697.737 916.897,695.268 C915.85,692.8 914.522,690.518 912.819,688.331 C911.1,686.143 909.209,684.346 907.116,682.831 C905.022,681.3 902.741,680.159 900.084,679.503 C898.381,679.018 896.569,678.831 894.772,678.831 C893.819,678.831 892.866,678.925 891.819,679.018 M885.928,740.393 C885.928,737.643 886.022,733.643 886.116,728.518 C886.209,724.44 886.303,720.534 886.303,717.018 C886.303,716.175 886.209,715.315 886.209,714.456 C886.209,710.284 886.116,706.19 885.928,702.393 C885.928,701.925 885.834,701.065 885.647,699.643 C885.459,698.206 885.178,696.878 885.069,695.643 C884.975,695.081 884.975,694.503 884.975,693.94 C884.975,693.268 884.975,692.706 885.069,692.034 C885.272,690.8 885.647,689.846 886.303,689.378 C887.163,688.706 888.116,688.425 889.163,688.425 C889.444,688.518 889.725,688.518 890.022,688.518 C891.444,688.706 892.959,689.19 894.569,690.05 C896.194,690.893 897.709,692.034 899.131,693.175 C900.569,694.315 901.897,695.456 902.944,696.596 C903.975,697.737 904.834,698.596 905.319,699.456 C906.834,701.925 907.881,704.675 908.444,707.706 C908.725,709.425 908.928,711.128 908.928,712.846 C908.928,714.081 908.819,715.315 908.725,716.55 C908.256,719.487 907.397,722.346 906.163,725.096 C904.928,727.846 903.319,730.331 901.413,732.503 C899.428,734.69 897.147,736.409 894.475,737.831 C891.819,739.253 888.975,740.112 885.928,740.393"/>
<path class="Harmony" d="M1616.92,679.409 C1613.21,679.878 1609.7,680.737 1606.28,681.971 C1602.85,683.206 1599.71,684.909 1596.68,686.909 C1593.64,688.909 1590.89,691.19 1588.51,693.753 C1586.14,696.315 1584.14,699.253 1582.43,702.581 C1580.71,705.909 1579.57,709.425 1578.92,713.128 C1578.43,715.409 1578.25,717.784 1578.25,720.159 L1578.25,720.831 C1578.25,723.096 1578.34,725.284 1578.62,727.471 C1578.92,729.846 1579.48,732.221 1580.25,734.409 C1581.1,736.69 1582.04,738.878 1583.09,740.862 C1584.14,742.862 1585.46,744.675 1587,746.284 C1588.51,747.893 1590.4,749.221 1592.31,750.362 C1594.21,751.503 1596.39,752.362 1598.76,752.846 C1600.39,753.128 1602,753.315 1603.62,753.315 C1604.46,753.315 1605.42,753.315 1606.46,753.221 C1609.4,752.94 1612.17,752.268 1614.73,751.315 C1617.29,750.362 1619.67,749.221 1621.67,747.893 C1623.65,746.565 1625.65,744.862 1627.46,742.956 C1629.26,741.065 1630.98,738.971 1632.4,736.878 C1633.82,734.784 1635.15,732.409 1636.57,729.753 C1638.76,725.378 1639.81,721.675 1639.81,718.737 C1639.81,715.784 1638.76,713.503 1636.57,711.893 C1635.34,710.846 1633.26,710.19 1630.5,709.706 C1628.51,709.425 1626.51,709.237 1624.51,709.237 L1624.04,709.237 L1621.95,709.237 C1619.01,709.331 1616.25,709.8 1613.59,710.659 C1610.93,711.518 1609.12,712.565 1608.17,713.8 C1607.89,714.268 1607.6,714.643 1607.32,715.034 C1606.65,716.081 1606.28,717.018 1606.28,717.878 C1606.28,719.112 1607.14,719.971 1608.75,720.44 C1610.07,720.831 1612.64,721.018 1616.34,721.018 L1617.2,721.018 C1618.43,721.112 1619.39,721.112 1620.04,721.112 C1623.95,721.112 1626.32,721.581 1627.07,722.628 C1627.37,723.003 1627.65,723.581 1627.65,724.143 C1627.65,724.721 1627.56,725.284 1627.46,725.862 C1627.37,726.425 1627.07,727.096 1626.79,727.846 C1626.51,728.612 1626.23,729.19 1625.93,729.659 C1625.65,730.128 1625.37,730.8 1625,731.565 C1624.6,732.315 1624.32,732.706 1624.23,732.893 C1623.76,733.737 1623.46,734.409 1623.18,734.878 C1622.9,735.362 1622.51,735.831 1622.04,736.503 C1621.57,737.159 1621,737.737 1620.53,738.112 C1618.53,739.628 1616.34,740.675 1613.78,741.159 L1610.54,741.534 L1610.17,741.534 C1608.93,741.44 1607.6,741.346 1606.37,741.065 C1604,740.581 1601.62,739.721 1599.43,738.393 C1597.25,737.065 1595.35,735.456 1593.92,733.55 C1592.5,731.565 1591.17,729.19 1590.21,726.518 C1589.26,723.862 1588.7,721.112 1588.51,718.159 C1588.42,717.112 1588.42,716.175 1588.42,715.128 C1588.42,713.221 1588.51,711.331 1588.79,709.518 C1589.26,706.768 1590.12,704.096 1591.45,701.628 C1592.78,699.159 1594.5,697.175 1596.59,695.643 C1599.15,693.659 1602.28,692.221 1605.89,691.284 C1607.89,690.706 1609.89,690.425 1611.78,690.425 C1613.12,690.425 1614.45,690.612 1615.68,690.893 C1616.73,691.19 1617.76,691.565 1619.01,692.128 C1620.25,692.706 1621.28,693.268 1622.23,693.846 C1623.18,694.409 1624.23,694.987 1625.28,695.55 C1626.32,696.128 1627.37,696.596 1628.31,696.784 C1629.26,696.971 1630.21,697.081 1631.17,696.971 C1632.12,696.878 1633.06,696.409 1634.01,695.55 C1634.96,694.706 1635.82,693.565 1636.67,692.128 C1637.15,691.284 1637.43,690.425 1637.43,689.565 C1637.43,688.909 1637.25,688.331 1636.96,687.675 C1636.2,686.237 1634.96,685.003 1633.26,683.956 C1631.54,682.925 1629.75,681.971 1627.65,681.206 C1625.56,680.44 1623.56,679.971 1621.57,679.69 C1620.14,679.409 1619.01,679.315 1618.06,679.315 C1617.57,679.315 1617.2,679.315 1616.92,679.409"/>
<path class="Harmony" d="M2321.11,679.409 C2317.41,679.878 2313.89,680.737 2310.47,681.971 C2307.05,683.206 2303.91,684.909 2300.88,686.909 C2297.83,688.909 2295.08,691.19 2292.7,693.753 C2290.33,696.315 2288.33,699.253 2286.63,702.581 C2284.91,705.909 2283.77,709.425 2283.11,713.128 C2282.63,715.409 2282.44,717.784 2282.44,720.159 L2282.44,720.831 C2282.44,723.096 2282.53,725.284 2282.81,727.471 C2283.11,729.846 2283.67,732.221 2284.44,734.409 C2285.3,736.69 2286.23,738.878 2287.28,740.862 C2288.33,742.862 2289.66,744.675 2291.19,746.284 C2292.7,747.893 2294.59,749.221 2296.5,750.362 C2298.41,751.503 2300.58,752.362 2302.95,752.846 C2304.58,753.128 2306.19,753.315 2307.81,753.315 C2308.66,753.315 2309.61,753.315 2310.66,753.221 C2313.59,752.94 2316.36,752.268 2318.92,751.315 C2321.48,750.362 2323.86,749.221 2325.86,747.893 C2327.84,746.565 2329.84,744.862 2331.66,742.956 C2333.45,741.065 2335.17,738.971 2336.59,736.878 C2338.02,734.784 2339.34,732.409 2340.77,729.753 C2342.95,725.378 2344,721.675 2344,718.737 C2344,715.784 2342.95,713.503 2340.77,711.893 C2339.53,710.846 2337.45,710.19 2334.69,709.706 C2332.7,709.425 2330.7,709.237 2328.7,709.237 L2328.23,709.237 L2326.14,709.237 C2323.2,709.331 2320.44,709.8 2317.78,710.659 C2315.13,711.518 2313.31,712.565 2312.36,713.8 C2312.08,714.268 2311.8,714.643 2311.52,715.034 C2310.84,716.081 2310.47,717.018 2310.47,717.878 C2310.47,719.112 2311.33,719.971 2312.94,720.44 C2314.27,720.831 2316.83,721.018 2320.53,721.018 L2321.39,721.018 C2322.63,721.112 2323.58,721.112 2324.23,721.112 C2328.14,721.112 2330.52,721.581 2331.27,722.628 C2331.56,723.003 2331.84,723.581 2331.84,724.143 C2331.84,724.721 2331.75,725.284 2331.66,725.862 C2331.56,726.425 2331.27,727.096 2330.98,727.846 C2330.7,728.612 2330.42,729.19 2330.13,729.659 C2329.84,730.128 2329.56,730.8 2329.19,731.565 C2328.8,732.315 2328.52,732.706 2328.42,732.893 C2327.95,733.737 2327.66,734.409 2327.38,734.878 C2327.09,735.362 2326.7,735.831 2326.23,736.503 C2325.77,737.159 2325.19,737.737 2324.72,738.112 C2322.72,739.628 2320.53,740.675 2317.97,741.159 L2314.73,741.534 L2314.36,741.534 C2313.13,741.44 2311.8,741.346 2310.56,741.065 C2308.19,740.581 2305.81,739.721 2303.63,738.393 C2301.44,737.065 2299.55,735.456 2298.11,733.55 C2296.69,731.565 2295.36,729.19 2294.41,726.518 C2293.45,723.862 2292.89,721.112 2292.7,718.159 C2292.61,717.112 2292.61,716.175 2292.61,715.128 C2292.61,713.221 2292.7,711.331 2292.98,709.518 C2293.45,706.768 2294.31,704.096 2295.64,701.628 C2296.97,699.159 2298.69,697.175 2300.78,695.643 C2303.34,693.659 2306.47,692.221 2310.08,691.284 C2312.08,690.706 2314.08,690.425 2315.97,690.425 C2317.31,690.425 2318.64,690.612 2319.88,690.893 C2320.92,691.19 2321.95,691.565 2323.2,692.128 C2324.44,692.706 2325.47,693.268 2326.42,693.846 C2327.38,694.409 2328.42,694.987 2329.47,695.55 C2330.52,696.128 2331.56,696.596 2332.5,696.784 C2333.45,696.971 2334.41,697.081 2335.36,696.971 C2336.31,696.878 2337.25,696.409 2338.2,695.55 C2339.16,694.706 2340.02,693.565 2340.86,692.128 C2341.34,691.284 2341.63,690.425 2341.63,689.565 C2341.63,688.909 2341.44,688.331 2341.16,687.675 C2340.39,686.237 2339.16,685.003 2337.45,683.956 C2335.73,682.925 2333.94,681.971 2331.84,681.206 C2329.75,680.44 2327.75,679.971 2325.77,679.69 C2324.33,679.409 2323.2,679.315 2322.25,679.315 C2321.77,679.315 2321.39,679.315 2321.11,679.409"/>
<path class="Harmony" d="M187.627,989.058 C187.158,989.151 186.392,989.245 185.158,989.355 C183.923,989.448 182.97,989.636 182.314,989.73 C181.642,989.823 180.689,989.917 179.548,990.105 C178.408,990.292 177.564,990.589 176.798,990.87 C176.033,991.151 175.189,991.526 174.423,992.011 C173.658,992.48 173.002,992.964 172.517,993.62 C171.861,994.292 171.377,995.042 171.002,995.808 C170.627,996.573 170.345,997.511 170.236,998.464 C170.142,999.136 170.142,999.792 170.142,1000.46 L170.142,1001.03 C170.236,1001.7 170.236,1002.65 170.345,1003.79 C170.439,1004.93 170.439,1005.87 170.439,1006.54 C170.439,1017.37 170.72,1028.01 171.189,1038.56 C171.283,1039.12 171.283,1039.7 171.283,1040.37 C171.189,1042.35 171.095,1045.01 170.908,1048.15 C170.627,1051.85 170.439,1054.62 170.439,1056.42 L170.439,1057 L170.439,1058.6 C170.439,1059.07 170.627,1059.56 170.72,1060.12 C170.814,1060.7 171.002,1061.17 171.283,1061.45 C171.58,1061.75 171.861,1062.03 172.33,1062.31 C172.72,1062.5 173.189,1062.59 173.752,1062.59 L174.048,1062.59 C177.361,1062.5 180.689,1061.84 184.017,1060.6 C187.345,1059.37 190.486,1057.84 193.423,1055.85 C196.377,1053.85 199.127,1051.48 201.783,1048.73 C204.439,1045.96 206.72,1043.12 208.627,1040.07 C210.517,1037.04 212.142,1033.9 213.377,1030.57 C214.611,1027.25 215.267,1023.93 215.47,1020.79 C215.564,1020.12 215.564,1019.37 215.564,1018.7 C215.564,1016.9 215.377,1015 214.986,1013.1 C214.517,1010.43 213.752,1007.78 212.705,1005.31 C211.658,1002.84 210.33,1000.56 208.627,998.37 C206.908,996.183 205.017,994.386 202.923,992.87 C200.83,991.339 198.548,990.198 195.892,989.542 C194.189,989.058 192.377,988.87 190.58,988.87 C189.627,988.87 188.673,988.964 187.627,989.058 M181.736,1050.43 C181.736,1047.68 181.83,1043.68 181.923,1038.56 C182.017,1034.48 182.111,1030.57 182.111,1027.06 C182.111,1026.21 182.017,1025.35 182.017,1024.5 C182.017,1020.32 181.923,1016.23 181.736,1012.43 C181.736,1011.96 181.642,1011.1 181.455,1009.68 C181.267,1008.25 180.986,1006.92 180.877,1005.68 C180.783,1005.12 180.783,1004.54 180.783,1003.98 C180.783,1003.31 180.783,1002.75 180.877,1002.07 C181.08,1000.84 181.455,999.886 182.111,999.417 C182.97,998.745 183.923,998.464 184.97,998.464 C185.252,998.558 185.533,998.558 185.83,998.558 C187.252,998.745 188.767,999.23 190.377,1000.09 C192.002,1000.93 193.517,1002.07 194.939,1003.21 C196.377,1004.35 197.705,1005.5 198.752,1006.64 C199.783,1007.78 200.642,1008.64 201.127,1009.5 C202.642,1011.96 203.689,1014.71 204.252,1017.75 C204.533,1019.46 204.736,1021.17 204.736,1022.89 C204.736,1024.12 204.627,1025.35 204.533,1026.59 C204.064,1029.53 203.205,1032.39 201.97,1035.14 C200.736,1037.89 199.127,1040.37 197.22,1042.54 C195.236,1044.73 192.955,1046.45 190.283,1047.87 C187.627,1049.29 184.783,1050.15 181.736,1050.43"/>
<path class="Harmony" d="M869.157,989.058 C868.689,989.151 867.923,989.245 866.689,989.355 C865.454,989.448 864.501,989.636 863.845,989.73 C863.173,989.823 862.22,989.917 861.079,990.105 C859.939,990.292 859.095,990.589 858.329,990.87 C857.564,991.151 856.72,991.526 855.954,992.011 C855.189,992.48 854.532,992.964 854.048,993.62 C853.392,994.292 852.907,995.042 852.532,995.808 C852.157,996.573 851.876,997.511 851.767,998.464 C851.673,999.136 851.673,999.792 851.673,1000.46 L851.673,1001.03 C851.767,1001.7 851.767,1002.65 851.876,1003.79 C851.97,1004.93 851.97,1005.87 851.97,1006.54 C851.97,1017.37 852.251,1028.01 852.72,1038.56 C852.814,1039.12 852.814,1039.7 852.814,1040.37 C852.72,1042.35 852.626,1045.01 852.439,1048.15 C852.157,1051.85 851.97,1054.62 851.97,1056.42 L851.97,1057 L851.97,1058.6 C851.97,1059.07 852.157,1059.56 852.251,1060.12 C852.345,1060.7 852.532,1061.17 852.814,1061.45 C853.11,1061.75 853.392,1062.03 853.86,1062.31 C854.251,1062.5 854.72,1062.59 855.282,1062.59 L855.579,1062.59 C858.892,1062.5 862.22,1061.84 865.548,1060.6 C868.876,1059.37 872.017,1057.84 874.954,1055.85 C877.907,1053.85 880.657,1051.48 883.314,1048.73 C885.97,1045.96 888.251,1043.12 890.157,1040.07 C892.048,1037.04 893.673,1033.9 894.907,1030.57 C896.142,1027.25 896.798,1023.93 897.001,1020.79 C897.095,1020.12 897.095,1019.37 897.095,1018.7 C897.095,1016.9 896.907,1015 896.517,1013.1 C896.048,1010.43 895.282,1007.78 894.235,1005.31 C893.189,1002.84 891.86,1000.56 890.157,998.37 C888.439,996.183 886.548,994.386 884.454,992.87 C882.36,991.339 880.079,990.198 877.423,989.542 C875.72,989.058 873.907,988.87 872.11,988.87 C871.157,988.87 870.204,988.964 869.157,989.058 M863.267,1050.43 C863.267,1047.68 863.36,1043.68 863.454,1038.56 C863.548,1034.48 863.642,1030.57 863.642,1027.06 C863.642,1026.21 863.548,1025.35 863.548,1024.5 C863.548,1020.32 863.454,1016.23 863.267,1012.43 C863.267,1011.96 863.173,1011.1 862.985,1009.68 C862.798,1008.25 862.517,1006.92 862.407,1005.68 C862.314,1005.12 862.314,1004.54 862.314,1003.98 C862.314,1003.31 862.314,1002.75 862.407,1002.07 C862.61,1000.84 862.985,999.886 863.642,999.417 C864.501,998.745 865.454,998.464 866.501,998.464 C866.782,998.558 867.064,998.558 867.36,998.558 C868.782,998.745 870.298,999.23 871.907,1000.09 C873.532,1000.93 875.048,1002.07 876.47,1003.21 C877.907,1004.35 879.235,1005.5 880.282,1006.64 C881.314,1007.78 882.173,1008.64 882.657,1009.5 C884.173,1011.96 885.22,1014.71 885.782,1017.75 C886.064,1019.46 886.267,1021.17 886.267,1022.89 C886.267,1024.12 886.157,1025.35 886.064,1026.59 C885.595,1029.53 884.735,1032.39 883.501,1035.14 C882.267,1037.89 880.657,1040.37 878.751,1042.54 C876.767,1044.73 874.485,1046.45 871.814,1047.87 C869.157,1049.29 866.314,1050.15 863.267,1050.43"/>
<path class="Harmony" d="M1581.73,1009.01 C1582.97,1010.62 1583.81,1012.81 1584.48,1015.57 C1585.15,1018.32 1585.62,1020.98 1586.09,1023.75 C1586.58,1026.5 1586.86,1029.06 1586.95,1031.34 L1579.73,1030.57 L1571.94,1031.34 L1575.94,1019.46 L1581.73,1009.01 M1580.01,1042.45 L1581.92,1042.45 L1584.76,1042.45 L1585.53,1042.45 L1586.39,1042.45 C1586.48,1042.45 1586.76,1042.54 1587.14,1042.54 C1587.53,1042.54 1587.81,1042.54 1588,1042.64 C1588.19,1042.75 1588.37,1042.84 1588.67,1042.93 C1588.95,1043.03 1589.14,1043.12 1589.33,1043.31 C1589.51,1043.5 1589.81,1043.59 1590,1043.78 C1590.47,1044.26 1590.94,1045.21 1591.33,1046.45 C1591.7,1047.59 1592.08,1048.82 1592.37,1050.25 C1592.65,1051.67 1592.94,1053.09 1593.22,1054.71 C1593.51,1056.32 1593.89,1057.75 1594.26,1059.07 C1594.65,1060.4 1595.22,1061.64 1595.79,1062.68 C1596.36,1063.73 1597.03,1064.4 1597.87,1064.78 C1598.26,1064.96 1598.73,1065.06 1599.31,1065.06 C1599.78,1065.06 1600.34,1064.96 1600.92,1064.78 C1601.78,1064.5 1602.44,1064.12 1603.11,1063.73 C1603.76,1063.35 1604.25,1062.98 1604.62,1062.5 C1605,1062.03 1605.29,1061.54 1605.58,1060.98 C1605.86,1060.4 1606.04,1060.03 1606.14,1059.56 C1606.23,1059.17 1606.23,1058.79 1606.23,1058.32 L1606.23,1057.84 C1606.23,1057.18 1606.23,1056.51 1606.14,1056.04 C1606.04,1055.56 1605.86,1055 1605.67,1054.23 C1605.48,1053.48 1605.29,1052.9 1605.09,1052.43 C1604.9,1051.95 1604.81,1051.29 1604.53,1050.43 C1604.25,1049.57 1603.95,1049.01 1603.86,1048.64 C1603.2,1046.73 1602.06,1042.93 1600.44,1037.32 C1599.31,1033.25 1598.36,1029.82 1597.69,1027.15 C1596.45,1022.31 1595.4,1018.32 1594.65,1015.18 C1593.42,1009.96 1592.47,1006.45 1591.98,1004.64 C1591.89,1004.26 1591.79,1003.7 1591.61,1002.93 C1591.42,1002.17 1591.33,1001.51 1591.23,1000.93 C1591.14,1000.37 1590.84,999.792 1590.65,999.042 C1590.47,998.276 1590.28,997.511 1590.09,996.948 C1589.9,996.37 1589.51,995.714 1589.23,995.042 C1588.95,994.386 1588.56,993.901 1588.19,993.433 C1587.81,992.964 1587.53,992.573 1587.04,992.198 C1586.58,991.823 1586.09,991.433 1585.53,991.339 C1585.06,991.245 1584.58,991.151 1584.01,991.151 L1583.62,991.151 C1582.97,991.245 1582.2,991.339 1581.34,991.62 C1580.69,991.917 1579.92,992.292 1579.26,992.761 C1578.59,993.245 1577.94,993.62 1577.45,994.105 C1576.98,994.573 1576.5,995.245 1576.03,995.995 C1575.56,996.761 1575.08,997.323 1574.79,997.901 C1574.51,998.464 1574.12,999.23 1573.75,1000.18 C1573.37,1001.12 1572.98,1001.89 1572.79,1002.46 C1572.61,1003.03 1572.42,1003.79 1572.04,1004.75 C1571.65,1005.68 1571.37,1006.35 1571.28,1006.82 C1568.53,1013.76 1565.76,1020.32 1563.01,1026.68 C1558.54,1036.85 1555.89,1043.03 1555.12,1045.31 C1555.03,1045.68 1554.65,1046.35 1554.17,1047.39 C1553.7,1048.43 1553.14,1049.39 1552.65,1050.34 C1552.19,1051.29 1551.7,1052.53 1551.14,1053.76 C1550.56,1055 1550.09,1056.23 1549.81,1057.28 C1549.42,1058.32 1549.23,1059.26 1549.23,1060.12 C1549.33,1060.98 1549.53,1061.54 1550,1062.03 C1550.86,1062.68 1551.79,1063.07 1552.84,1063.07 L1553.51,1063.07 C1554.84,1062.89 1556.17,1062.5 1557.5,1061.75 C1558.83,1060.98 1559.78,1060.12 1560.26,1059.26 C1560.83,1058.23 1561.4,1057 1561.87,1055.46 C1562.34,1053.95 1562.83,1052.53 1563.11,1051.29 C1563.39,1050.06 1563.78,1048.73 1564.44,1047.29 C1565.11,1045.87 1565.86,1044.73 1566.72,1043.78 L1571.84,1042.17 C1572.14,1042.07 1572.51,1042.17 1573.19,1042.17 L1575.94,1042.17 C1576.22,1042.17 1577.64,1042.26 1580.01,1042.45"/>
<path class="Harmony" d="M2264.46,989.058 C2263.99,989.151 2263.23,989.245 2261.99,989.355 C2260.76,989.448 2259.81,989.636 2259.15,989.73 C2258.48,989.823 2257.53,989.917 2256.38,990.105 C2255.24,990.292 2254.4,990.589 2253.63,990.87 C2252.87,991.151 2252.03,991.526 2251.26,992.011 C2250.49,992.48 2249.84,992.964 2249.35,993.62 C2248.7,994.292 2248.21,995.042 2247.84,995.808 C2247.46,996.573 2247.18,997.511 2247.07,998.464 C2246.98,999.136 2246.98,999.792 2246.98,1000.46 L2246.98,1001.03 C2247.07,1001.7 2247.07,1002.65 2247.18,1003.79 C2247.28,1004.93 2247.28,1005.87 2247.28,1006.54 C2247.28,1017.37 2247.56,1028.01 2248.03,1038.56 C2248.12,1039.12 2248.12,1039.7 2248.12,1040.37 C2248.03,1042.35 2247.93,1045.01 2247.74,1048.15 C2247.46,1051.85 2247.28,1054.62 2247.28,1056.42 L2247.28,1057 L2247.28,1058.6 C2247.28,1059.07 2247.46,1059.56 2247.56,1060.12 C2247.65,1060.7 2247.84,1061.17 2248.12,1061.45 C2248.42,1061.75 2248.7,1062.03 2249.17,1062.31 C2249.56,1062.5 2250.03,1062.59 2250.59,1062.59 L2250.88,1062.59 C2254.2,1062.5 2257.53,1061.84 2260.85,1060.6 C2264.18,1059.37 2267.32,1057.84 2270.26,1055.85 C2273.21,1053.85 2275.96,1051.48 2278.62,1048.73 C2281.28,1045.96 2283.56,1043.12 2285.46,1040.07 C2287.35,1037.04 2288.98,1033.9 2290.21,1030.57 C2291.45,1027.25 2292.1,1023.93 2292.31,1020.79 C2292.4,1020.12 2292.4,1019.37 2292.4,1018.7 C2292.4,1016.9 2292.21,1015 2291.82,1013.1 C2291.35,1010.43 2290.59,1007.78 2289.54,1005.31 C2288.49,1002.84 2287.17,1000.56 2285.46,998.37 C2283.74,996.183 2281.85,994.386 2279.76,992.87 C2277.67,991.339 2275.38,990.198 2272.73,989.542 C2271.03,989.058 2269.21,988.87 2267.42,988.87 C2266.46,988.87 2265.51,988.964 2264.46,989.058 M2258.57,1050.43 C2258.57,1047.68 2258.67,1043.68 2258.76,1038.56 C2258.85,1034.48 2258.95,1030.57 2258.95,1027.06 C2258.95,1026.21 2258.85,1025.35 2258.85,1024.5 C2258.85,1020.32 2258.76,1016.23 2258.57,1012.43 C2258.57,1011.96 2258.48,1011.1 2258.29,1009.68 C2258.1,1008.25 2257.82,1006.92 2257.71,1005.68 C2257.62,1005.12 2257.62,1004.54 2257.62,1003.98 C2257.62,1003.31 2257.62,1002.75 2257.71,1002.07 C2257.92,1000.84 2258.29,999.886 2258.95,999.417 C2259.81,998.745 2260.76,998.464 2261.81,998.464 C2262.09,998.558 2262.37,998.558 2262.67,998.558 C2264.09,998.745 2265.6,999.23 2267.21,1000.09 C2268.84,1000.93 2270.35,1002.07 2271.78,1003.21 C2273.21,1004.35 2274.54,1005.5 2275.59,1006.64 C2276.62,1007.78 2277.48,1008.64 2277.96,1009.5 C2279.48,1011.96 2280.53,1014.71 2281.09,1017.75 C2281.37,1019.46 2281.57,1021.17 2281.57,1022.89 C2281.57,1024.12 2281.46,1025.35 2281.37,1026.59 C2280.9,1029.53 2280.04,1032.39 2278.81,1035.14 C2277.57,1037.89 2275.96,1040.37 2274.06,1042.54 C2272.07,1044.73 2269.79,1046.45 2267.12,1047.87 C2264.46,1049.29 2261.62,1050.15 2258.57,1050.43"/>
</svg>
