<?xml version="1.0" encoding="UTF-8" standalone="no"?>
<svg width="2976.38px" height="1417.32px" viewBox="0 0 2976.38 1417.32"
 xmlns="http://www.w3.org/2000/svg" xmlns:xlink="http://www.w3.org/1999/xlink" version="1.2" baseProfile="tiny">
<title>Yellow_Rose_Of_Texas_D</title>
<desc>Generated by MuseScore 3.6.2</desc>
<polyline class="StaffLines" fill="none" stroke="#000000" stroke-width="2.73" stroke-linejoin="bevel" points="138.189,187.795 2933.86,187.795"/>
<polyline class="StaffLines" fill="none" stroke="#000000" stroke-width="2.73" stroke-linejoin="bevel" points="138.189,212.598 2933.86,212.598"/>
<polyline class="StaffLines" fill="none" stroke="#000000" stroke-width="2.73" stroke-linejoin="bevel" points="138.189,237.402 2933.86,237.402"/>
<polyline class="StaffLines" fill="none" stroke="#000000" stroke-width="2.73" stroke-linejoin="bevel" points="138.189,262.205 2933.86,262.205"/>
<polyline class="StaffLines" fill="none" stroke="#000000" stroke-width="2.73" stroke-linejoin="bevel" points="138.189,287.008 2933.86,287.008"/>
<polyline class="StaffLines" fill="none" stroke="#000000" stroke-width="2.73" stroke-linejoin="bevel" points="14.1732,497.835 2933.86,497.835"/>
<polyline class="StaffLines" fill="none" stroke="#000000" stroke-width="2.73" stroke-linejoin="bevel" points="14.1732,522.638 2933.86,522.638"/>
<polyline class="StaffLines" fill="none" stroke="#000000" stroke-width="2.73" stroke-linejoin="bevel" points="14.1732,547.441 2933.86,547.441"/>
<polyline class="StaffLines" fill="none" stroke="#000000" stroke-width="2.73" stroke-linejoin="bevel" points="14.1732,572.244 2933.86,572.244"/>
<polyline class="StaffLines" fill="none" stroke="#000000" stroke-width="2.73" stroke-linejoin="bevel" points="14.1732,597.047 2933.86,597.047"/>
<polyline class="StaffLines" fill="none" stroke="#000000" stroke-width="2.73" stroke-linejoin="bevel" points="14.1732,815.417 2933.86,815.417"/>
<polyline class="StaffLines" fill="none" stroke="#000000" stroke-width="2.73" stroke-linejoin="bevel" points="14.1732,840.22 2933.86,840.22"/>
<polyline class="StaffLines" fill="none" stroke="#000000" stroke-width="2.73" stroke-linejoin="bevel" points="14.1732,865.023 2933.86,865.023"/>
<polyline class="StaffLines" fill="none" stroke="#000000" stroke-width="2.73" stroke-linejoin="bevel" points="14.1732,889.826 2933.86,889.826"/>
<polyline class="StaffLines" fill="none" stroke="#000000" stroke-width="2.73" stroke-linejoin="bevel" points="14.1732,914.629 2933.86,914.629"/>
<polyline class="StaffLines" fill="none" stroke="#000000" stroke-width="2.73" stroke-linejoin="bevel" points="14.1732,1125.46 2933.86,1125.46"/>
<polyline class="StaffLines" fill="none" stroke="#000000" stroke-width="2.73" stroke-linejoin="bevel" points="14.1732,1150.26 2933.86,1150.26"/>
<polyline class="StaffLines" fill="none" stroke="#000000" stroke-width="2.73" stroke-linejoin="bevel" points="14.1732,1175.06 2933.86,1175.06"/>
<polyline class="StaffLines" fill="none" stroke="#000000" stroke-width="2.73" stroke-linejoin="bevel" points="14.1732,1199.87 2933.86,1199.87"/>
<polyline class="StaffLines" fill="none" stroke="#000000" stroke-width="2.73" stroke-linejoin="bevel" points="14.1732,1224.67 2933.86,1224.67"/>
<polyline class="BarLine" fill="none" stroke="#000000" stroke-width="4.46" stroke-linejoin="bevel" points="953.226,186.431 953.226,288.372"/>
<polyline class="BarLine" fill="none" stroke="#000000" stroke-width="4.46" stroke-linejoin="bevel" points="1612.69,186.431 1612.69,288.372"/>
<polyline class="BarLine" fill="none" stroke="#000000" stroke-width="4.46" stroke-linejoin="bevel" points="2272.16,186.431 2272.16,288.372"/>
<polyline class="BarLine" fill="none" stroke="#000000" stroke-width="4.46" stroke-linejoin="bevel" points="2931.63,186.431 2931.63,288.372"/>
<polyline class="BarLine" fill="none" stroke="#000000" stroke-width="4.46" stroke-linejoin="bevel" points="808.481,496.47 808.481,598.411"/>
<polyline class="BarLine" fill="none" stroke="#000000" stroke-width="4.46" stroke-linejoin="bevel" points="1502.1,496.47 1502.1,598.411"/>
<polyline class="BarLine" fill="none" stroke="#000000" stroke-width="4.46" stroke-linejoin="bevel" points="2195.73,496.47 2195.73,598.411"/>
<path class="BarLine" transform="matrix(0.992126,0,0,0.992126,2887.12,535.039)" d="M10.4063,0 C10.4063,-2.90625 8.09375,-5.29688 5.20313,-5.29688 C2.29688,-5.29688 0,-2.90625 0,0 C0,2.90625 2.29688,5.29688 5.20313,5.29688 C8.09375,5.29688 10.4063,2.90625 10.4063,0"/>
<path class="BarLine" transform="matrix(0.992126,0,0,0.992126,2887.12,559.843)" d="M10.4063,0 C10.4063,-2.90625 8.09375,-5.29688 5.20313,-5.29688 C2.29688,-5.29688 0,-2.90625 0,0 C0,2.90625 2.29688,5.29688 5.20313,5.29688 C8.09375,5.29688 10.4063,2.90625 10.4063,0"/>
<polyline class="BarLine" fill="none" stroke="#000000" stroke-width="4.46" stroke-linejoin="bevel" points="2909.64,496.47 2909.64,598.411"/>
<polyline class="BarLine" fill="none" stroke="#000000" stroke-width="13.64" stroke-linejoin="bevel" points="2927,496.47 2927,598.411"/>
<polyline class="BarLine" fill="none" stroke="#000000" stroke-width="4.46" stroke-linejoin="bevel" points="819.051,814.053 819.051,915.994"/>
<polyline class="BarLine" fill="none" stroke="#000000" stroke-width="4.46" stroke-linejoin="bevel" points="1523.24,814.053 1523.24,915.994"/>
<polyline class="BarLine" fill="none" stroke="#000000" stroke-width="4.46" stroke-linejoin="bevel" points="2227.44,814.053 2227.44,915.994"/>
<polyline class="BarLine" fill="none" stroke="#000000" stroke-width="4.46" stroke-linejoin="bevel" points="2931.63,814.053 2931.63,915.994"/>
<polyline class="BarLine" fill="none" stroke="#000000" stroke-width="4.46" stroke-linejoin="bevel" points="812.511,1124.09 812.511,1226.03"/>
<polyline class="BarLine" fill="none" stroke="#000000" stroke-width="4.46" stroke-linejoin="bevel" points="1494.04,1124.09 1494.04,1226.03"/>
<polyline class="BarLine" fill="none" stroke="#000000" stroke-width="4.46" stroke-linejoin="bevel" points="2191.69,1124.09 2191.69,1226.03"/>
<path class="BarLine" transform="matrix(0.992126,0,0,0.992126,2887.12,1162.66)" d="M10.4063,0 C10.4063,-2.90625 8.09375,-5.29688 5.20313,-5.29688 C2.29688,-5.29688 0,-2.90625 0,0 C0,2.90625 2.29688,5.29688 5.20313,5.29688 C8.09375,5.29688 10.4063,2.90625 10.4063,0"/>
<path class="BarLine" transform="matrix(0.992126,0,0,0.992126,2887.12,1187.46)" d="M10.4063,0 C10.4063,-2.90625 8.09375,-5.29688 5.20313,-5.29688 C2.29688,-5.29688 0,-2.90625 0,0 C0,2.90625 2.29688,5.29688 5.20313,5.29688 C8.09375,5.29688 10.4063,2.90625 10.4063,0"/>
<polyline class="BarLine" fill="none" stroke="#000000" stroke-width="4.46" stroke-linejoin="bevel" points="2909.64,1124.09 2909.64,1226.03"/>
<polyline class="BarLine" fill="none" stroke="#000000" stroke-width="13.64" stroke-linejoin="bevel" points="2927,1124.09 2927,1226.03"/>
<path class="Note" transform="matrix(0.992126,0,0,0.992126,338.405,237.402)" d="M43,-25 L0,25 L10,25 L53,-25 L43,-25 "/>
<path class="Note" transform="matrix(0.992126,0,0,0.992126,489.01,237.402)" d="M43,-25 L0,25 L10,25 L53,-25 L43,-25 "/>
<path class="Note" transform="matrix(0.992126,0,0,0.992126,639.615,237.402)" d="M43,-25 L0,25 L10,25 L53,-25 L43,-25 "/>
<path class="Note" transform="matrix(0.992126,0,0,0.992126,790.22,237.402)" d="M43,-25 L0,25 L10,25 L53,-25 L43,-25 "/>
<path class="Note" transform="matrix(0.992126,0,0,0.992126,997.872,237.402)" d="M43,-25 L0,25 L10,25 L53,-25 L43,-25 "/>
<path class="Note" transform="matrix(0.992126,0,0,0.992126,1148.48,237.402)" d="M43,-25 L0,25 L10,25 L53,-25 L43,-25 "/>
<path class="Note" transform="matrix(0.992126,0,0,0.992126,1299.08,237.402)" d="M43,-25 L0,25 L10,25 L53,-25 L43,-25 "/>
<path class="Note" transform="matrix(0.992126,0,0,0.992126,1449.69,237.402)" d="M43,-25 L0,25 L10,25 L53,-25 L43,-25 "/>
<path class="Note" transform="matrix(0.992126,0,0,0.992126,1657.34,237.402)" d="M43,-25 L0,25 L10,25 L53,-25 L43,-25 "/>
<path class="Note" transform="matrix(0.992126,0,0,0.992126,1807.94,237.402)" d="M43,-25 L0,25 L10,25 L53,-25 L43,-25 "/>
<path class="Note" transform="matrix(0.992126,0,0,0.992126,1958.55,237.402)" d="M43,-25 L0,25 L10,25 L53,-25 L43,-25 "/>
<path class="Note" transform="matrix(0.992126,0,0,0.992126,2109.15,237.402)" d="M43,-25 L0,25 L10,25 L53,-25 L43,-25 "/>
<path class="Note" transform="matrix(0.992126,0,0,0.992126,2316.81,237.402)" d="M43,-25 L0,25 L10,25 L53,-25 L43,-25 "/>
<path class="Note" transform="matrix(0.992126,0,0,0.992126,2467.41,237.402)" d="M43,-25 L0,25 L10,25 L53,-25 L43,-25 "/>
<path class="Note" transform="matrix(0.992126,0,0,0.992126,2618.02,237.402)" d="M43,-25 L0,25 L10,25 L53,-25 L43,-25 "/>
<path class="Note" transform="matrix(0.992126,0,0,0.992126,2768.62,237.402)" d="M43,-25 L0,25 L10,25 L53,-25 L43,-25 "/>
<path class="Note" transform="matrix(0.992126,0,0,0.992126,159.504,547.441)" d="M43,-25 L0,25 L10,25 L53,-25 L43,-25 "/>
<path class="Note" transform="matrix(0.992126,0,0,0.992126,318.648,547.441)" d="M43,-25 L0,25 L10,25 L53,-25 L43,-25 "/>
<path class="Note" transform="matrix(0.992126,0,0,0.992126,477.792,547.441)" d="M43,-25 L0,25 L10,25 L53,-25 L43,-25 "/>
<path class="Note" transform="matrix(0.992126,0,0,0.992126,636.935,547.441)" d="M43,-25 L0,25 L10,25 L53,-25 L43,-25 "/>
<path class="Note" transform="matrix(0.992126,0,0,0.992126,853.126,547.441)" d="M43,-25 L0,25 L10,25 L53,-25 L43,-25 "/>
<path class="Note" transform="matrix(0.992126,0,0,0.992126,1012.27,547.441)" d="M43,-25 L0,25 L10,25 L53,-25 L43,-25 "/>
<path class="Note" transform="matrix(0.992126,0,0,0.992126,1171.41,547.441)" d="M43,-25 L0,25 L10,25 L53,-25 L43,-25 "/>
<path class="Note" transform="matrix(0.992126,0,0,0.992126,1330.56,547.441)" d="M43,-25 L0,25 L10,25 L53,-25 L43,-25 "/>
<path class="Note" transform="matrix(0.992126,0,0,0.992126,1546.75,547.441)" d="M43,-25 L0,25 L10,25 L53,-25 L43,-25 "/>
<path class="Note" transform="matrix(0.992126,0,0,0.992126,1705.89,547.441)" d="M43,-25 L0,25 L10,25 L53,-25 L43,-25 "/>
<path class="Note" transform="matrix(0.992126,0,0,0.992126,1865.04,547.441)" d="M43,-25 L0,25 L10,25 L53,-25 L43,-25 "/>
<path class="Note" transform="matrix(0.992126,0,0,0.992126,2024.18,547.441)" d="M43,-25 L0,25 L10,25 L53,-25 L43,-25 "/>
<path class="Note" transform="matrix(0.992126,0,0,0.992126,2240.37,547.441)" d="M43,-25 L0,25 L10,25 L53,-25 L43,-25 "/>
<path class="Note" transform="matrix(0.992126,0,0,0.992126,2399.51,547.441)" d="M43,-25 L0,25 L10,25 L53,-25 L43,-25 "/>
<path class="Note" transform="matrix(0.992126,0,0,0.992126,2558.66,547.441)" d="M43,-25 L0,25 L10,25 L53,-25 L43,-25 "/>
<path class="Note" transform="matrix(0.992126,0,0,0.992126,2717.8,547.441)" d="M43,-25 L0,25 L10,25 L53,-25 L43,-25 "/>
<path class="Note" transform="matrix(0.992126,0,0,0.992126,159.504,865.023)" d="M43,-25 L0,25 L10,25 L53,-25 L43,-25 "/>
<path class="Note" transform="matrix(0.992126,0,0,0.992126,321.29,865.023)" d="M43,-25 L0,25 L10,25 L53,-25 L43,-25 "/>
<path class="Note" transform="matrix(0.992126,0,0,0.992126,483.077,865.023)" d="M43,-25 L0,25 L10,25 L53,-25 L43,-25 "/>
<path class="Note" transform="matrix(0.992126,0,0,0.992126,644.863,865.023)" d="M43,-25 L0,25 L10,25 L53,-25 L43,-25 "/>
<path class="Note" transform="matrix(0.992126,0,0,0.992126,863.696,865.023)" d="M43,-25 L0,25 L10,25 L53,-25 L43,-25 "/>
<path class="Note" transform="matrix(0.992126,0,0,0.992126,1025.48,865.023)" d="M43,-25 L0,25 L10,25 L53,-25 L43,-25 "/>
<path class="Note" transform="matrix(0.992126,0,0,0.992126,1187.27,865.023)" d="M43,-25 L0,25 L10,25 L53,-25 L43,-25 "/>
<path class="Note" transform="matrix(0.992126,0,0,0.992126,1349.06,865.023)" d="M43,-25 L0,25 L10,25 L53,-25 L43,-25 "/>
<path class="Note" transform="matrix(0.992126,0,0,0.992126,1567.89,865.023)" d="M43,-25 L0,25 L10,25 L53,-25 L43,-25 "/>
<path class="Note" transform="matrix(0.992126,0,0,0.992126,1729.67,865.023)" d="M43,-25 L0,25 L10,25 L53,-25 L43,-25 "/>
<path class="Note" transform="matrix(0.992126,0,0,0.992126,1891.46,865.023)" d="M43,-25 L0,25 L10,25 L53,-25 L43,-25 "/>
<path class="Note" transform="matrix(0.992126,0,0,0.992126,2053.25,865.023)" d="M43,-25 L0,25 L10,25 L53,-25 L43,-25 "/>
<path class="Note" transform="matrix(0.992126,0,0,0.992126,2272.08,865.023)" d="M43,-25 L0,25 L10,25 L53,-25 L43,-25 "/>
<path class="Note" transform="matrix(0.992126,0,0,0.992126,2433.87,865.023)" d="M43,-25 L0,25 L10,25 L53,-25 L43,-25 "/>
<path class="Note" transform="matrix(0.992126,0,0,0.992126,2595.65,865.023)" d="M43,-25 L0,25 L10,25 L53,-25 L43,-25 "/>
<path class="Note" transform="matrix(0.992126,0,0,0.992126,2757.44,865.023)" d="M43,-25 L0,25 L10,25 L53,-25 L43,-25 "/>
<path class="Note" transform="matrix(0.992126,0,0,0.992126,159.504,1175.06)" d="M43,-25 L0,25 L10,25 L53,-25 L43,-25 "/>
<path class="Note" transform="matrix(0.992126,0,0,0.992126,319.656,1175.06)" d="M43,-25 L0,25 L10,25 L53,-25 L43,-25 "/>
<path class="Note" transform="matrix(0.992126,0,0,0.992126,479.807,1175.06)" d="M43,-25 L0,25 L10,25 L53,-25 L43,-25 "/>
<path class="Note" transform="matrix(0.992126,0,0,0.992126,639.958,1175.06)" d="M43,-25 L0,25 L10,25 L53,-25 L43,-25 "/>
<path class="Note" transform="matrix(0.992126,0,0,0.992126,841.035,1175.06)" d="M43,-25 L0,25 L10,25 L53,-25 L43,-25 "/>
<path class="Note" transform="matrix(0.992126,0,0,0.992126,1001.19,1175.06)" d="M43,-25 L0,25 L10,25 L53,-25 L43,-25 "/>
<path class="Note" transform="matrix(0.992126,0,0,0.992126,1161.34,1175.06)" d="M43,-25 L0,25 L10,25 L53,-25 L43,-25 "/>
<path class="Note" transform="matrix(0.992126,0,0,0.992126,1321.49,1175.06)" d="M43,-25 L0,25 L10,25 L53,-25 L43,-25 "/>
<path class="Note" transform="matrix(0.992126,0,0,0.992126,1538.69,1175.06)" d="M43,-25 L0,25 L10,25 L53,-25 L43,-25 "/>
<path class="Note" transform="matrix(0.992126,0,0,0.992126,1698.84,1175.06)" d="M43,-25 L0,25 L10,25 L53,-25 L43,-25 "/>
<path class="Note" transform="matrix(0.992126,0,0,0.992126,1858.99,1175.06)" d="M43,-25 L0,25 L10,25 L53,-25 L43,-25 "/>
<path class="Note" transform="matrix(0.992126,0,0,0.992126,2019.14,1175.06)" d="M43,-25 L0,25 L10,25 L53,-25 L43,-25 "/>
<path class="Note" transform="matrix(0.992126,0,0,0.992126,2236.34,1175.06)" d="M43,-25 L0,25 L10,25 L53,-25 L43,-25 "/>
<path class="Note" transform="matrix(0.992126,0,0,0.992126,2396.49,1175.06)" d="M43,-25 L0,25 L10,25 L53,-25 L43,-25 "/>
<path class="Note" transform="matrix(0.992126,0,0,0.992126,2556.64,1175.06)" d="M43,-25 L0,25 L10,25 L53,-25 L43,-25 "/>
<path class="Note" transform="matrix(0.992126,0,0,0.992126,2716.79,1175.06)" d="M43,-25 L0,25 L10,25 L53,-25 L43,-25 "/>
<path class="Clef" transform="matrix(0.992126,0,0,0.992126,158.032,262.205)" d="M63.3594,-5.92188 C62.125,-11.3438 59.4844,-15.1719 58.7031,-16.2031 C55.5156,-20.4844 51.5,-23.3281 46.8125,-24.6875 C43.7031,-25.5625 40.7031,-25.6875 38.2813,-25.5 C37.2344,-31.5156 36.2344,-37.3906 35.3281,-42.8438 C40.7813,-49.0156 44.4063,-54.8125 46.6875,-59.1094 C50.1563,-65.6875 51.2969,-70.2656 51.3594,-70.4688 C53.0781,-75.6875 53.4375,-83.3906 52.3281,-91.5938 C51.3281,-99.1406 49.2344,-105.859 46.875,-109.109 C45.8594,-110.531 44.7969,-111.266 43.7656,-111.266 C42.5469,-111.266 40.0313,-110.031 37.1406,-107.25 C34.8438,-105.063 31.5781,-101.172 29.0156,-95.1563 C26.0156,-88.0938 25.7969,-78.6094 26.1563,-71.8906 C26.5313,-64.6094 27.6406,-58.9219 27.6563,-58.875 C27.6719,-58.7813 27.9375,-57.2813 28.375,-54.7188 C28.1563,-54.4844 27.9063,-54.2656 27.6563,-54.0156 C26.625,-53.0156 25.4375,-51.8906 24.0469,-50.5 C23.1875,-49.6406 22.2344,-48.7344 21.2344,-47.7656 C12.7969,-39.625 0,-27.2969 0,-8.14063 C0,-3.4375 0.90625,0.984375 2.6875,5 C4.26563,8.59375 6.5625,11.875 9.5,14.75 C17.2344,22.3125 27.8281,25.5156 34.875,25.3594 C37.8281,25.2813 40.4688,25.0469 42.8594,24.5938 C44.6875,34.2031 45.8281,41.2344 45.8594,46.5781 C45.9063,53.0938 44.25,57.0781 40.3594,59.8438 C37.9219,61.5781 35.1094,62.5313 32.0156,62.6719 C29.4219,62.7969 27.1563,62.3281 25.7344,61.9219 L25.7188,61.9219 C25.7188,61.9219 25.4375,61.8281 25.4219,61.6406 C25.4063,61.4531 25.7656,61.4063 25.7656,61.4063 L25.7969,61.4063 C27.7188,60.9688 31.2813,59.7344 33.6406,56.4375 C35.4375,53.9063 36.3125,49.2813 34.4688,45.3438 C33.3594,42.9531 30.8594,40 25.2344,39.5469 C22.7344,39.3438 20.4688,39.8594 18.4688,41.0625 C16.6563,42.1406 15.1563,43.7813 14.1094,45.7813 C11.6563,50.4844 12.1094,56.2188 15.2344,60.0625 C18.2031,63.6875 22.8125,66 28.25,66.5781 C29.1094,66.6719 29.9531,66.7031 30.7969,66.7031 C35.2344,66.7031 39.625,65.5 43.2031,63.2969 C46.8594,60.7188 48.9844,56.7344 49.6563,51.1094 C50.2188,46.4688 49.8281,40.5469 48.4375,32.4688 C48.0781,30.375 47.5313,27.3438 46.875,23.5938 C52.625,21.6719 56.7813,18.0938 60.5469,12.2344 C63.8438,6.5 64.7813,0.390625 63.3594,-5.92188 M29.1406,20.2969 C24.5,19.0781 20.0625,16.5781 16.3125,13.0625 C15,11.8438 13.125,9.67188 11.6563,6.28125 C10.2969,3.10938 9.625,-0.328125 9.6875,-3.90625 C9.75,-8.60938 11.0625,-13.4375 13.5625,-18.2188 C16.4844,-23.7969 21.0469,-29.3281 27.1094,-34.6563 C28.5625,-35.9375 29.9375,-37.2188 31.2188,-38.5 C31.9844,-34.2344 32.8125,-29.5469 33.6875,-24.6719 C29.8438,-23.4063 25.0938,-20.25 21.9844,-14.5938 C18.4375,-8.03125 18.5781,-2.5 19.3125,0.984375 C20.25,5.4375 22.7813,9.20313 26.2344,11.2969 C27.1719,11.8594 31.2969,13.9844 33.1406,13.4063 C33.5156,13.2969 33.7813,13.0625 33.9219,12.7344 C34.4375,11.5625 33.4063,10.9219 31.8594,9.96875 C31.25,9.59375 30.5781,9.17188 29.8594,8.64063 C26.5313,6.15625 25.0781,1.70313 26.1563,-2.6875 C26.7344,-5.07813 28.0156,-7.25 29.8594,-8.95313 C31.5156,-10.5 33.5625,-11.5938 35.9375,-12.2344 C37.9844,-0.984375 40.0469,10.1719 41.6875,18.5313 C41.8125,19.2188 41.9531,19.8906 42.0781,20.5625 C37.7031,21.5 33.3594,21.4063 29.1406,20.2969 M40.4688,-12.9063 C50.8125,-13.375 55.0781,-5.9375 55.9688,-1.10938 C56.4375,1.4375 56.4375,5.875 54.8906,10.0938 C53.7188,13.2656 51.2656,17.3438 46.125,19.4063 C46.0625,18.9844 45.9844,18.5469 45.9063,18.125 C44.3594,9.34375 42.4219,-1.65625 40.4688,-12.9063 M33.1406,-83.8594 C34.9219,-89.5938 37.6563,-92.8438 39.6563,-94.5781 C41.4063,-96.0938 43.0469,-96.8125 43.9688,-96.8125 C44.1094,-96.8125 44.2344,-96.7813 44.3281,-96.75 C44.7969,-96.6094 45.3281,-96.0469 45.7969,-95.1719 C48.1094,-90.8906 47.3594,-84.1719 46.0156,-79.7344 C44.3906,-74.3281 41.4688,-68.7188 32.6719,-59.1094 C32.5,-60.2188 32.3438,-61.2656 32.1875,-62.25 C30.9375,-70.5313 31.2656,-77.8125 33.1406,-83.8594"/>
<path class="Clef" transform="matrix(0.992126,0,0,0.992126,34.0158,572.244)" d="M63.3594,-5.92188 C62.125,-11.3438 59.4844,-15.1719 58.7031,-16.2031 C55.5156,-20.4844 51.5,-23.3281 46.8125,-24.6875 C43.7031,-25.5625 40.7031,-25.6875 38.2813,-25.5 C37.2344,-31.5156 36.2344,-37.3906 35.3281,-42.8438 C40.7813,-49.0156 44.4063,-54.8125 46.6875,-59.1094 C50.1563,-65.6875 51.2969,-70.2656 51.3594,-70.4688 C53.0781,-75.6875 53.4375,-83.3906 52.3281,-91.5938 C51.3281,-99.1406 49.2344,-105.859 46.875,-109.109 C45.8594,-110.531 44.7969,-111.266 43.7656,-111.266 C42.5469,-111.266 40.0313,-110.031 37.1406,-107.25 C34.8438,-105.063 31.5781,-101.172 29.0156,-95.1563 C26.0156,-88.0938 25.7969,-78.6094 26.1563,-71.8906 C26.5313,-64.6094 27.6406,-58.9219 27.6563,-58.875 C27.6719,-58.7813 27.9375,-57.2813 28.375,-54.7188 C28.1563,-54.4844 27.9063,-54.2656 27.6563,-54.0156 C26.625,-53.0156 25.4375,-51.8906 24.0469,-50.5 C23.1875,-49.6406 22.2344,-48.7344 21.2344,-47.7656 C12.7969,-39.625 0,-27.2969 0,-8.14063 C0,-3.4375 0.90625,0.984375 2.6875,5 C4.26563,8.59375 6.5625,11.875 9.5,14.75 C17.2344,22.3125 27.8281,25.5156 34.875,25.3594 C37.8281,25.2813 40.4688,25.0469 42.8594,24.5938 C44.6875,34.2031 45.8281,41.2344 45.8594,46.5781 C45.9063,53.0938 44.25,57.0781 40.3594,59.8438 C37.9219,61.5781 35.1094,62.5313 32.0156,62.6719 C29.4219,62.7969 27.1563,62.3281 25.7344,61.9219 L25.7188,61.9219 C25.7188,61.9219 25.4375,61.8281 25.4219,61.6406 C25.4063,61.4531 25.7656,61.4063 25.7656,61.4063 L25.7969,61.4063 C27.7188,60.9688 31.2813,59.7344 33.6406,56.4375 C35.4375,53.9063 36.3125,49.2813 34.4688,45.3438 C33.3594,42.9531 30.8594,40 25.2344,39.5469 C22.7344,39.3438 20.4688,39.8594 18.4688,41.0625 C16.6563,42.1406 15.1563,43.7813 14.1094,45.7813 C11.6563,50.4844 12.1094,56.2188 15.2344,60.0625 C18.2031,63.6875 22.8125,66 28.25,66.5781 C29.1094,66.6719 29.9531,66.7031 30.7969,66.7031 C35.2344,66.7031 39.625,65.5 43.2031,63.2969 C46.8594,60.7188 48.9844,56.7344 49.6563,51.1094 C50.2188,46.4688 49.8281,40.5469 48.4375,32.4688 C48.0781,30.375 47.5313,27.3438 46.875,23.5938 C52.625,21.6719 56.7813,18.0938 60.5469,12.2344 C63.8438,6.5 64.7813,0.390625 63.3594,-5.92188 M29.1406,20.2969 C24.5,19.0781 20.0625,16.5781 16.3125,13.0625 C15,11.8438 13.125,9.67188 11.6563,6.28125 C10.2969,3.10938 9.625,-0.328125 9.6875,-3.90625 C9.75,-8.60938 11.0625,-13.4375 13.5625,-18.2188 C16.4844,-23.7969 21.0469,-29.3281 27.1094,-34.6563 C28.5625,-35.9375 29.9375,-37.2188 31.2188,-38.5 C31.9844,-34.2344 32.8125,-29.5469 33.6875,-24.6719 C29.8438,-23.4063 25.0938,-20.25 21.9844,-14.5938 C18.4375,-8.03125 18.5781,-2.5 19.3125,0.984375 C20.25,5.4375 22.7813,9.20313 26.2344,11.2969 C27.1719,11.8594 31.2969,13.9844 33.1406,13.4063 C33.5156,13.2969 33.7813,13.0625 33.9219,12.7344 C34.4375,11.5625 33.4063,10.9219 31.8594,9.96875 C31.25,9.59375 30.5781,9.17188 29.8594,8.64063 C26.5313,6.15625 25.0781,1.70313 26.1563,-2.6875 C26.7344,-5.07813 28.0156,-7.25 29.8594,-8.95313 C31.5156,-10.5 33.5625,-11.5938 35.9375,-12.2344 C37.9844,-0.984375 40.0469,10.1719 41.6875,18.5313 C41.8125,19.2188 41.9531,19.8906 42.0781,20.5625 C37.7031,21.5 33.3594,21.4063 29.1406,20.2969 M40.4688,-12.9063 C50.8125,-13.375 55.0781,-5.9375 55.9688,-1.10938 C56.4375,1.4375 56.4375,5.875 54.8906,10.0938 C53.7188,13.2656 51.2656,17.3438 46.125,19.4063 C46.0625,18.9844 45.9844,18.5469 45.9063,18.125 C44.3594,9.34375 42.4219,-1.65625 40.4688,-12.9063 M33.1406,-83.8594 C34.9219,-89.5938 37.6563,-92.8438 39.6563,-94.5781 C41.4063,-96.0938 43.0469,-96.8125 43.9688,-96.8125 C44.1094,-96.8125 44.2344,-96.7813 44.3281,-96.75 C44.7969,-96.6094 45.3281,-96.0469 45.7969,-95.1719 C48.1094,-90.8906 47.3594,-84.1719 46.0156,-79.7344 C44.3906,-74.3281 41.4688,-68.7188 32.6719,-59.1094 C32.5,-60.2188 32.3438,-61.2656 32.1875,-62.25 C30.9375,-70.5313 31.2656,-77.8125 33.1406,-83.8594"/>
<path class="Clef" transform="matrix(0.992126,0,0,0.992126,34.0158,889.826)" d="M63.3594,-5.92188 C62.125,-11.3438 59.4844,-15.1719 58.7031,-16.2031 C55.5156,-20.4844 51.5,-23.3281 46.8125,-24.6875 C43.7031,-25.5625 40.7031,-25.6875 38.2813,-25.5 C37.2344,-31.5156 36.2344,-37.3906 35.3281,-42.8438 C40.7813,-49.0156 44.4063,-54.8125 46.6875,-59.1094 C50.1563,-65.6875 51.2969,-70.2656 51.3594,-70.4688 C53.0781,-75.6875 53.4375,-83.3906 52.3281,-91.5938 C51.3281,-99.1406 49.2344,-105.859 46.875,-109.109 C45.8594,-110.531 44.7969,-111.266 43.7656,-111.266 C42.5469,-111.266 40.0313,-110.031 37.1406,-107.25 C34.8438,-105.063 31.5781,-101.172 29.0156,-95.1563 C26.0156,-88.0938 25.7969,-78.6094 26.1563,-71.8906 C26.5313,-64.6094 27.6406,-58.9219 27.6563,-58.875 C27.6719,-58.7813 27.9375,-57.2813 28.375,-54.7188 C28.1563,-54.4844 27.9063,-54.2656 27.6563,-54.0156 C26.625,-53.0156 25.4375,-51.8906 24.0469,-50.5 C23.1875,-49.6406 22.2344,-48.7344 21.2344,-47.7656 C12.7969,-39.625 0,-27.2969 0,-8.14063 C0,-3.4375 0.90625,0.984375 2.6875,5 C4.26563,8.59375 6.5625,11.875 9.5,14.75 C17.2344,22.3125 27.8281,25.5156 34.875,25.3594 C37.8281,25.2813 40.4688,25.0469 42.8594,24.5938 C44.6875,34.2031 45.8281,41.2344 45.8594,46.5781 C45.9063,53.0938 44.25,57.0781 40.3594,59.8438 C37.9219,61.5781 35.1094,62.5313 32.0156,62.6719 C29.4219,62.7969 27.1563,62.3281 25.7344,61.9219 L25.7188,61.9219 C25.7188,61.9219 25.4375,61.8281 25.4219,61.6406 C25.4063,61.4531 25.7656,61.4063 25.7656,61.4063 L25.7969,61.4063 C27.7188,60.9688 31.2813,59.7344 33.6406,56.4375 C35.4375,53.9063 36.3125,49.2813 34.4688,45.3438 C33.3594,42.9531 30.8594,40 25.2344,39.5469 C22.7344,39.3438 20.4688,39.8594 18.4688,41.0625 C16.6563,42.1406 15.1563,43.7813 14.1094,45.7813 C11.6563,50.4844 12.1094,56.2188 15.2344,60.0625 C18.2031,63.6875 22.8125,66 28.25,66.5781 C29.1094,66.6719 29.9531,66.7031 30.7969,66.7031 C35.2344,66.7031 39.625,65.5 43.2031,63.2969 C46.8594,60.7188 48.9844,56.7344 49.6563,51.1094 C50.2188,46.4688 49.8281,40.5469 48.4375,32.4688 C48.0781,30.375 47.5313,27.3438 46.875,23.5938 C52.625,21.6719 56.7813,18.0938 60.5469,12.2344 C63.8438,6.5 64.7813,0.390625 63.3594,-5.92188 M29.1406,20.2969 C24.5,19.0781 20.0625,16.5781 16.3125,13.0625 C15,11.8438 13.125,9.67188 11.6563,6.28125 C10.2969,3.10938 9.625,-0.328125 9.6875,-3.90625 C9.75,-8.60938 11.0625,-13.4375 13.5625,-18.2188 C16.4844,-23.7969 21.0469,-29.3281 27.1094,-34.6563 C28.5625,-35.9375 29.9375,-37.2188 31.2188,-38.5 C31.9844,-34.2344 32.8125,-29.5469 33.6875,-24.6719 C29.8438,-23.4063 25.0938,-20.25 21.9844,-14.5938 C18.4375,-8.03125 18.5781,-2.5 19.3125,0.984375 C20.25,5.4375 22.7813,9.20313 26.2344,11.2969 C27.1719,11.8594 31.2969,13.9844 33.1406,13.4063 C33.5156,13.2969 33.7813,13.0625 33.9219,12.7344 C34.4375,11.5625 33.4063,10.9219 31.8594,9.96875 C31.25,9.59375 30.5781,9.17188 29.8594,8.64063 C26.5313,6.15625 25.0781,1.70313 26.1563,-2.6875 C26.7344,-5.07813 28.0156,-7.25 29.8594,-8.95313 C31.5156,-10.5 33.5625,-11.5938 35.9375,-12.2344 C37.9844,-0.984375 40.0469,10.1719 41.6875,18.5313 C41.8125,19.2188 41.9531,19.8906 42.0781,20.5625 C37.7031,21.5 33.3594,21.4063 29.1406,20.2969 M40.4688,-12.9063 C50.8125,-13.375 55.0781,-5.9375 55.9688,-1.10938 C56.4375,1.4375 56.4375,5.875 54.8906,10.0938 C53.7188,13.2656 51.2656,17.3438 46.125,19.4063 C46.0625,18.9844 45.9844,18.5469 45.9063,18.125 C44.3594,9.34375 42.4219,-1.65625 40.4688,-12.9063 M33.1406,-83.8594 C34.9219,-89.5938 37.6563,-92.8438 39.6563,-94.5781 C41.4063,-96.0938 43.0469,-96.8125 43.9688,-96.8125 C44.1094,-96.8125 44.2344,-96.7813 44.3281,-96.75 C44.7969,-96.6094 45.3281,-96.0469 45.7969,-95.1719 C48.1094,-90.8906 47.3594,-84.1719 46.0156,-79.7344 C44.3906,-74.3281 41.4688,-68.7188 32.6719,-59.1094 C32.5,-60.2188 32.3438,-61.2656 32.1875,-62.25 C30.9375,-70.5313 31.2656,-77.8125 33.1406,-83.8594"/>
<path class="Clef" transform="matrix(0.992126,0,0,0.992126,34.0158,1199.87)" d="M63.3594,-5.92188 C62.125,-11.3438 59.4844,-15.1719 58.7031,-16.2031 C55.5156,-20.4844 51.5,-23.3281 46.8125,-24.6875 C43.7031,-25.5625 40.7031,-25.6875 38.2813,-25.5 C37.2344,-31.5156 36.2344,-37.3906 35.3281,-42.8438 C40.7813,-49.0156 44.4063,-54.8125 46.6875,-59.1094 C50.1563,-65.6875 51.2969,-70.2656 51.3594,-70.4688 C53.0781,-75.6875 53.4375,-83.3906 52.3281,-91.5938 C51.3281,-99.1406 49.2344,-105.859 46.875,-109.109 C45.8594,-110.531 44.7969,-111.266 43.7656,-111.266 C42.5469,-111.266 40.0313,-110.031 37.1406,-107.25 C34.8438,-105.063 31.5781,-101.172 29.0156,-95.1563 C26.0156,-88.0938 25.7969,-78.6094 26.1563,-71.8906 C26.5313,-64.6094 27.6406,-58.9219 27.6563,-58.875 C27.6719,-58.7813 27.9375,-57.2813 28.375,-54.7188 C28.1563,-54.4844 27.9063,-54.2656 27.6563,-54.0156 C26.625,-53.0156 25.4375,-51.8906 24.0469,-50.5 C23.1875,-49.6406 22.2344,-48.7344 21.2344,-47.7656 C12.7969,-39.625 0,-27.2969 0,-8.14063 C0,-3.4375 0.90625,0.984375 2.6875,5 C4.26563,8.59375 6.5625,11.875 9.5,14.75 C17.2344,22.3125 27.8281,25.5156 34.875,25.3594 C37.8281,25.2813 40.4688,25.0469 42.8594,24.5938 C44.6875,34.2031 45.8281,41.2344 45.8594,46.5781 C45.9063,53.0938 44.25,57.0781 40.3594,59.8438 C37.9219,61.5781 35.1094,62.5313 32.0156,62.6719 C29.4219,62.7969 27.1563,62.3281 25.7344,61.9219 L25.7188,61.9219 C25.7188,61.9219 25.4375,61.8281 25.4219,61.6406 C25.4063,61.4531 25.7656,61.4063 25.7656,61.4063 L25.7969,61.4063 C27.7188,60.9688 31.2813,59.7344 33.6406,56.4375 C35.4375,53.9063 36.3125,49.2813 34.4688,45.3438 C33.3594,42.9531 30.8594,40 25.2344,39.5469 C22.7344,39.3438 20.4688,39.8594 18.4688,41.0625 C16.6563,42.1406 15.1563,43.7813 14.1094,45.7813 C11.6563,50.4844 12.1094,56.2188 15.2344,60.0625 C18.2031,63.6875 22.8125,66 28.25,66.5781 C29.1094,66.6719 29.9531,66.7031 30.7969,66.7031 C35.2344,66.7031 39.625,65.5 43.2031,63.2969 C46.8594,60.7188 48.9844,56.7344 49.6563,51.1094 C50.2188,46.4688 49.8281,40.5469 48.4375,32.4688 C48.0781,30.375 47.5313,27.3438 46.875,23.5938 C52.625,21.6719 56.7813,18.0938 60.5469,12.2344 C63.8438,6.5 64.7813,0.390625 63.3594,-5.92188 M29.1406,20.2969 C24.5,19.0781 20.0625,16.5781 16.3125,13.0625 C15,11.8438 13.125,9.67188 11.6563,6.28125 C10.2969,3.10938 9.625,-0.328125 9.6875,-3.90625 C9.75,-8.60938 11.0625,-13.4375 13.5625,-18.2188 C16.4844,-23.7969 21.0469,-29.3281 27.1094,-34.6563 C28.5625,-35.9375 29.9375,-37.2188 31.2188,-38.5 C31.9844,-34.2344 32.8125,-29.5469 33.6875,-24.6719 C29.8438,-23.4063 25.0938,-20.25 21.9844,-14.5938 C18.4375,-8.03125 18.5781,-2.5 19.3125,0.984375 C20.25,5.4375 22.7813,9.20313 26.2344,11.2969 C27.1719,11.8594 31.2969,13.9844 33.1406,13.4063 C33.5156,13.2969 33.7813,13.0625 33.9219,12.7344 C34.4375,11.5625 33.4063,10.9219 31.8594,9.96875 C31.25,9.59375 30.5781,9.17188 29.8594,8.64063 C26.5313,6.15625 25.0781,1.70313 26.1563,-2.6875 C26.7344,-5.07813 28.0156,-7.25 29.8594,-8.95313 C31.5156,-10.5 33.5625,-11.5938 35.9375,-12.2344 C37.9844,-0.984375 40.0469,10.1719 41.6875,18.5313 C41.8125,19.2188 41.9531,19.8906 42.0781,20.5625 C37.7031,21.5 33.3594,21.4063 29.1406,20.2969 M40.4688,-12.9063 C50.8125,-13.375 55.0781,-5.9375 55.9688,-1.10938 C56.4375,1.4375 56.4375,5.875 54.8906,10.0938 C53.7188,13.2656 51.2656,17.3438 46.125,19.4063 C46.0625,18.9844 45.9844,18.5469 45.9063,18.125 C44.3594,9.34375 42.4219,-1.65625 40.4688,-12.9063 M33.1406,-83.8594 C34.9219,-89.5938 37.6563,-92.8438 39.6563,-94.5781 C41.4063,-96.0938 43.0469,-96.8125 43.9688,-96.8125 C44.1094,-96.8125 44.2344,-96.7813 44.3281,-96.75 C44.7969,-96.6094 45.3281,-96.0469 45.7969,-95.1719 C48.1094,-90.8906 47.3594,-84.1719 46.0156,-79.7344 C44.3906,-74.3281 41.4688,-68.7188 32.6719,-59.1094 C32.5,-60.2188 32.3438,-61.2656 32.1875,-62.25 C30.9375,-70.5313 31.2656,-77.8125 33.1406,-83.8594"/>
<path class="TimeSig" transform="matrix(0.992126,0,0,0.992126,244.951,212.73)" d="M3.59375,12.625 L20.7656,12.625 L20.7656,20.0781 L12.5469,20.0781 C11.7656,20.0781 11.125,20.7031 11.125,21.4844 L11.125,23.3906 C11.125,24.1719 11.7656,24.7969 12.5469,24.7969 L42.7969,24.7969 C43.5781,24.7969 44.2031,24.1719 44.2031,23.3906 L44.2031,21.4844 C44.2031,20.7031 43.5781,20.0781 42.7969,20.0781 L33.8594,20.0781 L33.8594,12.625 L42.7969,12.625 C43.5781,12.625 44.2031,12 44.2031,11.2188 L44.2031,9.3125 C44.2031,8.53125 43.5781,7.90625 42.7969,7.90625 L33.8594,7.90625 L33.8594,-8.0625 C33.8594,-8.59375 33.5469,-9.07813 33.0781,-9.3125 L31.8594,-9.92188 C31.3281,-10.1719 30.7031,-10.0781 30.2656,-9.6875 L21.2188,-1.375 C20.9375,-1.09375 20.7656,-0.734375 20.7656,-0.328125 L20.7656,7.90625 L9.25,7.90625 C9.25,7.90625 20.375,-4.125 32.2188,-19.8906 C33.0781,-21.0469 32.5781,-22.0938 32.3906,-22.2813 L30.2188,-24.4844 C29.9531,-24.75 29.5938,-24.9063 29.2188,-24.9063 C28.625,-24.9063 15.0625,-24.875 14.3438,-24.9063 C13.625,-24.9219 13.0938,-24.2969 13.0156,-23.6875 C13.0156,-23.6875 12.4844,-16.3281 9.875,-8.1875 C7.28125,-0.078125 4.34375,4.90625 1.6875,8.53125 C1.6875,8.53125 1.14063,9.51563 1.5,10.2656 C1.84375,11.0156 2.48438,12.0938 2.48438,12.0938 C2.48438,12.0938 2.73438,12.625 3.59375,12.625"/>
<path class="TimeSig" transform="matrix(0.992126,0,0,0.992126,244.951,262.073)" d="M3.59375,12.625 L20.7656,12.625 L20.7656,20.0781 L12.5469,20.0781 C11.7656,20.0781 11.125,20.7031 11.125,21.4844 L11.125,23.3906 C11.125,24.1719 11.7656,24.7969 12.5469,24.7969 L42.7969,24.7969 C43.5781,24.7969 44.2031,24.1719 44.2031,23.3906 L44.2031,21.4844 C44.2031,20.7031 43.5781,20.0781 42.7969,20.0781 L33.8594,20.0781 L33.8594,12.625 L42.7969,12.625 C43.5781,12.625 44.2031,12 44.2031,11.2188 L44.2031,9.3125 C44.2031,8.53125 43.5781,7.90625 42.7969,7.90625 L33.8594,7.90625 L33.8594,-8.0625 C33.8594,-8.59375 33.5469,-9.07813 33.0781,-9.3125 L31.8594,-9.92188 C31.3281,-10.1719 30.7031,-10.0781 30.2656,-9.6875 L21.2188,-1.375 C20.9375,-1.09375 20.7656,-0.734375 20.7656,-0.328125 L20.7656,7.90625 L9.25,7.90625 C9.25,7.90625 20.375,-4.125 32.2188,-19.8906 C33.0781,-21.0469 32.5781,-22.0938 32.3906,-22.2813 L30.2188,-24.4844 C29.9531,-24.75 29.5938,-24.9063 29.2188,-24.9063 C28.625,-24.9063 15.0625,-24.875 14.3438,-24.9063 C13.625,-24.9219 13.0938,-24.2969 13.0156,-23.6875 C13.0156,-23.6875 12.4844,-16.3281 9.875,-8.1875 C7.28125,-0.078125 4.34375,4.90625 1.6875,8.53125 C1.6875,8.53125 1.14063,9.51563 1.5,10.2656 C1.84375,11.0156 2.48438,12.0938 2.48438,12.0938 C2.48438,12.0938 2.73438,12.625 3.59375,12.625"/>
<path class="RehearsalMark" fill="none" stroke="#000000" stroke-width="3.97" stroke-linecap="square" stroke-linejoin="miter" stroke-miterlimit="2" fill-rule="evenodd" d="M154.216,21.0729 L262.987,21.0729 L262.987,122.845 L154.216,122.845 L154.216,21.0729 "/>
<path class="RehearsalMark" d="M205.352,35.4899 L182.883,87.9587 C178.32,98.6618 174.664,102.521 168.82,103.115 L168.82,108.459 L197.43,108.459 L197.43,103.115 C190.398,102.724 187.633,100.834 187.633,96.2868 C187.633,94.5993 188.023,93.0212 189.117,90.6462 L190.695,86.8806 L215.352,86.8806 L219.117,96.5837 C220.195,99.3493 220.305,99.8493 220.305,100.631 C220.305,102.427 218.914,103.021 214.555,103.021 L212.867,103.115 L212.867,108.459 L247.617,108.459 L247.617,103.115 C241.977,102.912 240.398,101.927 238.32,96.8806 L212.867,35.4899 L205.352,35.4899 M203.273,56.5837 L212.867,80.2399 L193.273,80.2399 L203.273,56.5837 "/>
<path class="RehearsalMark" fill="none" stroke="#000000" stroke-width="3.97" stroke-linecap="square" stroke-linejoin="miter" stroke-miterlimit="2" fill-rule="evenodd" d="M32.3294,654.622 L133.101,654.622 L133.101,755.393 L32.3294,755.393 L32.3294,654.622 "/>
<path class="RehearsalMark" d="M47.4027,669.523 L47.4027,674.882 L48.8871,674.882 C54.2308,674.882 56.1058,675.273 56.9964,676.257 C57.6996,677.351 57.6996,677.648 57.6996,683.789 L57.6996,726.757 C57.6996,732.882 57.6996,733.179 56.9964,734.179 C56.1058,735.273 54.1371,735.664 48.8871,735.664 L47.4027,735.664 L47.4027,741.007 L87.4964,741.007 C97.7933,741.007 103.043,740.211 108.184,737.945 C114.418,735.164 118.575,728.929 118.575,722.195 C118.575,715.273 114.621,709.82 107.293,706.461 C103.934,704.867 101.059,704.086 95.8089,703.382 C100.653,702.601 103.434,701.898 106.2,700.617 C112.137,697.742 115.309,692.992 115.309,687.054 C115.309,681.414 112.34,676.164 107.496,673.492 C102.043,670.414 97.2933,669.523 85.6058,669.523 L47.4027,669.523 M75.5121,701.601 L75.5121,680.617 C75.3089,676.461 76.6996,675.07 81.0589,674.882 L84.0277,674.882 C92.7464,674.882 97.3871,679.226 97.3871,687.445 C97.3871,692.304 95.7152,696.164 92.5433,698.632 C89.8714,700.82 86.4964,701.601 80.3714,701.601 L75.5121,701.601 M75.5121,707.054 L82.3402,707.054 C88.5746,707.054 91.4496,707.648 94.2308,709.429 C97.6839,711.711 99.6683,716.054 99.6683,721.211 C99.6683,725.961 97.8871,730.32 95.0121,732.695 C92.5433,734.664 89.2777,735.664 84.5277,735.664 L81.5589,735.664 C75.9027,735.461 75.3089,734.867 75.5121,729.32 L75.5121,707.054 "/>
<path class="Harmony" d="M350.527,121.866 C350.496,121.881 350.449,121.881 350.386,121.881 C350.324,121.881 350.277,121.897 350.246,121.897 C350.199,121.912 350.152,121.912 350.09,121.928 C350.027,121.928 349.996,121.944 349.949,121.959 C349.902,121.975 349.871,122.006 349.824,122.022 C349.777,122.053 349.746,122.069 349.73,122.116 C349.683,122.147 349.668,122.178 349.636,122.225 C349.621,122.256 349.605,122.319 349.605,122.366 C349.605,122.397 349.605,122.428 349.605,122.475 L349.605,122.506 C349.605,122.537 349.605,122.584 349.605,122.647 C349.621,122.709 349.621,122.756 349.621,122.787 C349.621,123.366 349.636,123.928 349.652,124.475 C349.652,124.506 349.652,124.537 349.652,124.569 C349.652,124.678 349.652,124.819 349.636,124.975 C349.621,125.178 349.621,125.319 349.621,125.412 L349.621,125.444 L349.621,125.537 C349.621,125.553 349.621,125.584 349.636,125.616 C349.636,125.647 349.636,125.662 349.652,125.678 C349.668,125.694 349.683,125.709 349.715,125.725 C349.73,125.741 349.761,125.741 349.793,125.741 L349.808,125.741 C349.98,125.741 350.152,125.709 350.324,125.631 C350.511,125.569 350.668,125.491 350.824,125.381 C350.98,125.287 351.121,125.162 351.261,125.006 C351.402,124.866 351.527,124.709 351.621,124.553 C351.73,124.397 351.808,124.225 351.871,124.053 C351.949,123.881 351.98,123.709 351.98,123.537 C351.996,123.506 351.996,123.459 351.996,123.428 C351.996,123.334 351.98,123.241 351.965,123.131 C351.933,122.991 351.902,122.85 351.84,122.725 C351.793,122.6 351.715,122.475 351.621,122.366 C351.543,122.241 351.433,122.147 351.324,122.069 C351.215,121.991 351.09,121.928 350.949,121.897 C350.871,121.866 350.777,121.866 350.668,121.866 C350.621,121.866 350.574,121.866 350.527,121.866 M350.215,125.1 C350.215,124.959 350.215,124.741 350.215,124.475 C350.23,124.256 350.23,124.053 350.23,123.866 C350.23,123.819 350.23,123.787 350.23,123.741 C350.23,123.522 350.215,123.303 350.215,123.1 C350.215,123.069 350.199,123.037 350.199,122.959 C350.183,122.881 350.168,122.803 350.168,122.741 C350.152,122.709 350.152,122.678 350.152,122.647 C350.152,122.616 350.152,122.584 350.168,122.553 C350.168,122.491 350.199,122.444 350.23,122.412 C350.277,122.381 350.324,122.366 350.386,122.366 C350.402,122.366 350.402,122.366 350.418,122.366 C350.496,122.381 350.574,122.397 350.668,122.444 C350.746,122.491 350.824,122.553 350.902,122.616 C350.98,122.678 351.043,122.741 351.105,122.787 C351.168,122.85 351.199,122.897 351.23,122.944 C351.308,123.069 351.371,123.225 351.402,123.381 C351.418,123.475 351.418,123.553 351.418,123.647 C351.418,123.709 351.418,123.787 351.418,123.85 C351.386,124.006 351.34,124.147 351.277,124.303 C351.215,124.444 351.121,124.569 351.027,124.694 C350.918,124.803 350.793,124.897 350.668,124.959 C350.527,125.037 350.371,125.084 350.215,125.1"/>
<path class="Harmony" d="M358.027,53.828 C357.777,53.8749 357.371,53.9374 356.73,53.9843 C356.074,54.0311 355.574,54.1249 355.23,54.1874 C354.871,54.2343 354.371,54.2811 353.777,54.3749 C353.168,54.4843 352.73,54.6249 352.324,54.7811 C351.918,54.9374 351.48,55.1249 351.074,55.3749 C350.668,55.6249 350.324,55.8749 350.074,56.2343 C349.73,56.578 349.48,56.9843 349.277,57.3749 C349.074,57.7811 348.918,58.2811 348.871,58.7811 C348.824,59.1249 348.824,59.4843 348.824,59.828 L348.824,60.1249 C348.871,60.4843 348.871,60.9843 348.918,61.578 C348.98,62.1874 348.98,62.6874 348.98,63.0311 C348.98,68.7343 349.121,74.328 349.371,79.8905 C349.418,80.1874 349.418,80.4843 349.418,80.828 C349.371,81.8905 349.324,83.2811 349.23,84.9374 C349.074,86.8905 348.98,88.328 348.98,89.2811 L348.98,89.578 L348.98,90.4374 C348.98,90.6874 349.074,90.9374 349.121,91.2343 C349.168,91.5311 349.277,91.7811 349.418,91.9374 C349.574,92.078 349.73,92.2343 349.98,92.3905 C350.168,92.4843 350.418,92.5311 350.73,92.5311 L350.871,92.5311 C352.621,92.4843 354.371,92.1405 356.121,91.4843 C357.871,90.828 359.527,90.0311 361.074,88.9843 C362.621,87.9374 364.074,86.6874 365.48,85.2343 C366.871,83.7811 368.074,82.2811 369.074,80.6874 C370.074,79.078 370.918,77.4374 371.574,75.6874 C372.23,73.9374 372.574,72.1874 372.668,70.5311 C372.73,70.1874 372.73,69.7811 372.73,69.4374 C372.73,68.4843 372.621,67.4843 372.418,66.4843 C372.168,65.078 371.777,63.6874 371.23,62.3749 C370.668,61.078 369.98,59.8749 369.074,58.7343 C368.168,57.578 367.168,56.6249 366.074,55.828 C364.98,55.0311 363.777,54.4374 362.371,54.078 C361.48,53.828 360.527,53.7343 359.574,53.7343 C359.074,53.7343 358.574,53.7811 358.027,53.828 M354.918,86.1405 C354.918,84.6874 354.98,82.578 355.027,79.8905 C355.074,77.7343 355.121,75.6874 355.121,73.828 C355.121,73.3905 355.074,72.9374 355.074,72.4843 C355.074,70.2811 355.027,68.1405 354.918,66.1249 C354.918,65.8749 354.871,65.4374 354.777,64.6874 C354.668,63.9374 354.527,63.2343 354.48,62.578 C354.418,62.2811 354.418,61.9843 354.418,61.6874 C354.418,61.328 354.418,61.0311 354.48,60.6874 C354.574,60.0311 354.777,59.5311 355.121,59.2811 C355.574,58.9374 356.074,58.7811 356.621,58.7811 C356.777,58.828 356.918,58.828 357.074,58.828 C357.824,58.9374 358.621,59.1874 359.48,59.6249 C360.324,60.078 361.121,60.6874 361.871,61.2811 C362.621,61.8749 363.324,62.4843 363.871,63.078 C364.418,63.6874 364.871,64.1249 365.121,64.578 C365.918,65.8749 366.48,67.328 366.777,68.9374 C366.918,69.828 367.027,70.7343 367.027,71.6405 C367.027,72.2811 366.98,72.9374 366.918,73.578 C366.668,75.1405 366.23,76.6405 365.574,78.078 C364.918,79.5311 364.074,80.828 363.074,81.9843 C362.027,83.1405 360.824,84.0311 359.418,84.7811 C358.027,85.5311 356.527,85.9843 354.918,86.1405"/>
<path class="Harmony" d="M1017.49,86.6312 C1017.24,86.678 1016.84,86.7405 1016.2,86.7874 C1015.54,86.8343 1015.04,86.928 1014.7,86.9905 C1014.34,87.0374 1013.84,87.0843 1013.24,87.178 C1012.63,87.2874 1012.2,87.428 1011.79,87.5843 C1011.38,87.7405 1010.95,87.928 1010.54,88.178 C1010.13,88.428 1009.79,88.678 1009.54,89.0374 C1009.2,89.3812 1008.95,89.7874 1008.74,90.178 C1008.54,90.5843 1008.38,91.0843 1008.34,91.5843 C1008.29,91.928 1008.29,92.2874 1008.29,92.6312 L1008.29,92.928 C1008.34,93.2874 1008.34,93.7874 1008.38,94.3812 C1008.45,94.9905 1008.45,95.4905 1008.45,95.8343 C1008.45,101.537 1008.59,107.131 1008.84,112.694 C1008.88,112.991 1008.88,113.287 1008.88,113.631 C1008.84,114.694 1008.79,116.084 1008.7,117.741 C1008.54,119.694 1008.45,121.131 1008.45,122.084 L1008.45,122.381 L1008.45,123.241 C1008.45,123.491 1008.54,123.741 1008.59,124.037 C1008.63,124.334 1008.74,124.584 1008.88,124.741 C1009.04,124.881 1009.2,125.037 1009.45,125.194 C1009.63,125.287 1009.88,125.334 1010.2,125.334 L1010.34,125.334 C1012.09,125.287 1013.84,124.944 1015.59,124.287 C1017.34,123.631 1018.99,122.834 1020.54,121.787 C1022.09,120.741 1023.54,119.491 1024.95,118.037 C1026.34,116.584 1027.54,115.084 1028.54,113.491 C1029.54,111.881 1030.38,110.241 1031.04,108.491 C1031.7,106.741 1032.04,104.991 1032.13,103.334 C1032.2,102.991 1032.2,102.584 1032.2,102.241 C1032.2,101.287 1032.09,100.287 1031.88,99.2874 C1031.63,97.8812 1031.24,96.4905 1030.7,95.178 C1030.13,93.8812 1029.45,92.678 1028.54,91.5374 C1027.63,90.3812 1026.63,89.428 1025.54,88.6312 C1024.45,87.8343 1023.24,87.2405 1021.84,86.8812 C1020.95,86.6312 1019.99,86.5374 1019.04,86.5374 C1018.54,86.5374 1018.04,86.5843 1017.49,86.6312 M1014.38,118.944 C1014.38,117.491 1014.45,115.381 1014.49,112.694 C1014.54,110.537 1014.59,108.491 1014.59,106.631 C1014.59,106.194 1014.54,105.741 1014.54,105.287 C1014.54,103.084 1014.49,100.944 1014.38,98.928 C1014.38,98.678 1014.34,98.2405 1014.24,97.4905 C1014.13,96.7405 1013.99,96.0374 1013.95,95.3812 C1013.88,95.0843 1013.88,94.7874 1013.88,94.4905 C1013.88,94.1312 1013.88,93.8343 1013.95,93.4905 C1014.04,92.8343 1014.24,92.3343 1014.59,92.0843 C1015.04,91.7405 1015.54,91.5843 1016.09,91.5843 C1016.24,91.6312 1016.38,91.6312 1016.54,91.6312 C1017.29,91.7405 1018.09,91.9905 1018.95,92.428 C1019.79,92.8812 1020.59,93.4905 1021.34,94.0843 C1022.09,94.678 1022.79,95.2874 1023.34,95.8812 C1023.88,96.4905 1024.34,96.928 1024.59,97.3812 C1025.38,98.678 1025.95,100.131 1026.24,101.741 C1026.38,102.631 1026.49,103.537 1026.49,104.444 C1026.49,105.084 1026.45,105.741 1026.38,106.381 C1026.13,107.944 1025.7,109.444 1025.04,110.881 C1024.38,112.334 1023.54,113.631 1022.54,114.787 C1021.49,115.944 1020.29,116.834 1018.88,117.584 C1017.49,118.334 1015.99,118.787 1014.38,118.944"/>
<path class="Harmony" d="M1676.96,86.6312 C1676.71,86.678 1676.31,86.7405 1675.66,86.7874 C1675.01,86.8343 1674.51,86.928 1674.16,86.9905 C1673.81,87.0374 1673.31,87.0843 1672.71,87.178 C1672.1,87.2874 1671.66,87.428 1671.26,87.5843 C1670.85,87.7405 1670.41,87.928 1670.01,88.178 C1669.6,88.428 1669.26,88.678 1669.01,89.0374 C1668.66,89.3812 1668.41,89.7874 1668.21,90.178 C1668.01,90.5843 1667.85,91.0843 1667.81,91.5843 C1667.76,91.928 1667.76,92.2874 1667.76,92.6312 L1667.76,92.928 C1667.81,93.2874 1667.81,93.7874 1667.85,94.3812 C1667.91,94.9905 1667.91,95.4905 1667.91,95.8343 C1667.91,101.537 1668.06,107.131 1668.31,112.694 C1668.35,112.991 1668.35,113.287 1668.35,113.631 C1668.31,114.694 1668.26,116.084 1668.16,117.741 C1668.01,119.694 1667.91,121.131 1667.91,122.084 L1667.91,122.381 L1667.91,123.241 C1667.91,123.491 1668.01,123.741 1668.06,124.037 C1668.1,124.334 1668.21,124.584 1668.35,124.741 C1668.51,124.881 1668.66,125.037 1668.91,125.194 C1669.1,125.287 1669.35,125.334 1669.66,125.334 L1669.81,125.334 C1671.56,125.287 1673.31,124.944 1675.06,124.287 C1676.81,123.631 1678.46,122.834 1680.01,121.787 C1681.56,120.741 1683.01,119.491 1684.41,118.037 C1685.81,116.584 1687.01,115.084 1688.01,113.491 C1689.01,111.881 1689.85,110.241 1690.51,108.491 C1691.16,106.741 1691.51,104.991 1691.6,103.334 C1691.66,102.991 1691.66,102.584 1691.66,102.241 C1691.66,101.287 1691.56,100.287 1691.35,99.2874 C1691.1,97.8812 1690.71,96.4905 1690.16,95.178 C1689.6,93.8812 1688.91,92.678 1688.01,91.5374 C1687.1,90.3812 1686.1,89.428 1685.01,88.6312 C1683.91,87.8343 1682.71,87.2405 1681.31,86.8812 C1680.41,86.6312 1679.46,86.5374 1678.51,86.5374 C1678.01,86.5374 1677.51,86.5843 1676.96,86.6312 M1673.85,118.944 C1673.85,117.491 1673.91,115.381 1673.96,112.694 C1674.01,110.537 1674.06,108.491 1674.06,106.631 C1674.06,106.194 1674.01,105.741 1674.01,105.287 C1674.01,103.084 1673.96,100.944 1673.85,98.928 C1673.85,98.678 1673.81,98.2405 1673.71,97.4905 C1673.6,96.7405 1673.46,96.0374 1673.41,95.3812 C1673.35,95.0843 1673.35,94.7874 1673.35,94.4905 C1673.35,94.1312 1673.35,93.8343 1673.41,93.4905 C1673.51,92.8343 1673.71,92.3343 1674.06,92.0843 C1674.51,91.7405 1675.01,91.5843 1675.56,91.5843 C1675.71,91.6312 1675.85,91.6312 1676.01,91.6312 C1676.76,91.7405 1677.56,91.9905 1678.41,92.428 C1679.26,92.8812 1680.06,93.4905 1680.81,94.0843 C1681.56,94.678 1682.26,95.2874 1682.81,95.8812 C1683.35,96.4905 1683.81,96.928 1684.06,97.3812 C1684.85,98.678 1685.41,100.131 1685.71,101.741 C1685.85,102.631 1685.96,103.537 1685.96,104.444 C1685.96,105.084 1685.91,105.741 1685.85,106.381 C1685.6,107.944 1685.16,109.444 1684.51,110.881 C1683.85,112.334 1683.01,113.631 1682.01,114.787 C1680.96,115.944 1679.76,116.834 1678.35,117.584 C1676.96,118.334 1675.46,118.787 1673.85,118.944"/>
<path class="Harmony" d="M2336.43,86.6312 C2336.18,86.678 2335.77,86.7405 2335.13,86.7874 C2334.48,86.8343 2333.98,86.928 2333.63,86.9905 C2333.27,87.0374 2332.77,87.0843 2332.18,87.178 C2331.57,87.2874 2331.13,87.428 2330.73,87.5843 C2330.32,87.7405 2329.88,87.928 2329.48,88.178 C2329.07,88.428 2328.73,88.678 2328.48,89.0374 C2328.13,89.3812 2327.88,89.7874 2327.68,90.178 C2327.48,90.5843 2327.32,91.0843 2327.27,91.5843 C2327.23,91.928 2327.23,92.2874 2327.23,92.6312 L2327.23,92.928 C2327.27,93.2874 2327.27,93.7874 2327.32,94.3812 C2327.38,94.9905 2327.38,95.4905 2327.38,95.8343 C2327.38,101.537 2327.52,107.131 2327.77,112.694 C2327.82,112.991 2327.82,113.287 2327.82,113.631 C2327.77,114.694 2327.73,116.084 2327.63,117.741 C2327.48,119.694 2327.38,121.131 2327.38,122.084 L2327.38,122.381 L2327.38,123.241 C2327.38,123.491 2327.48,123.741 2327.52,124.037 C2327.57,124.334 2327.68,124.584 2327.82,124.741 C2327.98,124.881 2328.13,125.037 2328.38,125.194 C2328.57,125.287 2328.82,125.334 2329.13,125.334 L2329.27,125.334 C2331.02,125.287 2332.77,124.944 2334.52,124.287 C2336.27,123.631 2337.93,122.834 2339.48,121.787 C2341.02,120.741 2342.48,119.491 2343.88,118.037 C2345.27,116.584 2346.48,115.084 2347.48,113.491 C2348.48,111.881 2349.32,110.241 2349.98,108.491 C2350.63,106.741 2350.98,104.991 2351.07,103.334 C2351.13,102.991 2351.13,102.584 2351.13,102.241 C2351.13,101.287 2351.02,100.287 2350.82,99.2874 C2350.57,97.8812 2350.18,96.4905 2349.63,95.178 C2349.07,93.8812 2348.38,92.678 2347.48,91.5374 C2346.57,90.3812 2345.57,89.428 2344.48,88.6312 C2343.38,87.8343 2342.18,87.2405 2340.77,86.8812 C2339.88,86.6312 2338.93,86.5374 2337.98,86.5374 C2337.48,86.5374 2336.98,86.5843 2336.43,86.6312 M2333.32,118.944 C2333.32,117.491 2333.38,115.381 2333.43,112.694 C2333.48,110.537 2333.52,108.491 2333.52,106.631 C2333.52,106.194 2333.48,105.741 2333.48,105.287 C2333.48,103.084 2333.43,100.944 2333.32,98.928 C2333.32,98.678 2333.27,98.2405 2333.18,97.4905 C2333.07,96.7405 2332.93,96.0374 2332.88,95.3812 C2332.82,95.0843 2332.82,94.7874 2332.82,94.4905 C2332.82,94.1312 2332.82,93.8343 2332.88,93.4905 C2332.98,92.8343 2333.18,92.3343 2333.52,92.0843 C2333.98,91.7405 2334.48,91.5843 2335.02,91.5843 C2335.18,91.6312 2335.32,91.6312 2335.48,91.6312 C2336.23,91.7405 2337.02,91.9905 2337.88,92.428 C2338.73,92.8812 2339.52,93.4905 2340.27,94.0843 C2341.02,94.678 2341.73,95.2874 2342.27,95.8812 C2342.82,96.4905 2343.27,96.928 2343.52,97.3812 C2344.32,98.678 2344.88,100.131 2345.18,101.741 C2345.32,102.631 2345.43,103.537 2345.43,104.444 C2345.43,105.084 2345.38,105.741 2345.32,106.381 C2345.07,107.944 2344.63,109.444 2343.98,110.881 C2343.32,112.334 2342.48,113.631 2341.48,114.787 C2340.43,115.944 2339.23,116.834 2337.82,117.584 C2336.43,118.334 2334.93,118.787 2333.32,118.944"/>
<path class="Harmony" d="M190.127,396.874 C188.173,397.124 186.33,397.577 184.517,398.217 C182.72,398.874 181.08,399.78 179.47,400.827 C177.877,401.874 176.423,403.077 175.173,404.421 C173.923,405.78 172.877,407.327 171.97,409.077 C171.08,410.827 170.47,412.671 170.127,414.624 C169.877,415.827 169.767,417.077 169.767,418.327 L169.767,418.671 C169.767,419.874 169.83,421.03 169.97,422.171 C170.127,423.421 170.423,424.671 170.83,425.827 C171.267,427.03 171.767,428.171 172.33,429.233 C172.877,430.28 173.58,431.233 174.377,432.077 C175.173,432.921 176.173,433.624 177.173,434.233 C178.173,434.827 179.33,435.28 180.58,435.53 C181.423,435.671 182.267,435.78 183.127,435.78 C183.58,435.78 184.08,435.78 184.627,435.733 C186.173,435.577 187.627,435.233 188.97,434.733 C190.33,434.233 191.58,433.624 192.627,432.921 C193.673,432.233 194.72,431.327 195.673,430.327 C196.627,429.327 197.533,428.233 198.283,427.124 C199.033,426.03 199.72,424.78 200.47,423.374 C201.627,421.077 202.173,419.124 202.173,417.577 C202.173,416.03 201.627,414.827 200.47,413.983 C199.83,413.421 198.72,413.077 197.283,412.827 C196.22,412.671 195.173,412.577 194.127,412.577 L193.877,412.577 L192.767,412.577 C191.22,412.624 189.767,412.874 188.377,413.327 C186.97,413.78 186.017,414.327 185.517,414.983 C185.377,415.233 185.22,415.421 185.08,415.624 C184.72,416.171 184.517,416.671 184.517,417.124 C184.517,417.78 184.97,418.233 185.83,418.483 C186.517,418.671 187.877,418.78 189.83,418.78 L190.267,418.78 C190.923,418.827 191.423,418.827 191.767,418.827 C193.83,418.827 195.08,419.077 195.47,419.624 C195.627,419.827 195.783,420.124 195.783,420.421 C195.783,420.733 195.72,421.03 195.673,421.327 C195.627,421.624 195.47,421.983 195.33,422.374 C195.173,422.78 195.017,423.077 194.877,423.327 C194.72,423.577 194.58,423.921 194.377,424.327 C194.173,424.733 194.017,424.921 193.97,425.03 C193.72,425.483 193.58,425.827 193.423,426.077 C193.267,426.327 193.08,426.577 192.83,426.921 C192.58,427.28 192.267,427.577 192.017,427.78 C190.97,428.577 189.83,429.124 188.47,429.374 L186.767,429.577 L186.58,429.577 C185.923,429.53 185.22,429.483 184.58,429.327 C183.33,429.077 182.08,428.624 180.923,427.921 C179.767,427.233 178.767,426.374 178.017,425.374 C177.267,424.327 176.58,423.077 176.08,421.671 C175.58,420.28 175.267,418.827 175.173,417.28 C175.127,416.733 175.127,416.233 175.127,415.671 C175.127,414.671 175.173,413.671 175.33,412.733 C175.58,411.28 176.017,409.874 176.72,408.577 C177.423,407.28 178.33,406.217 179.423,405.421 C180.767,404.374 182.423,403.624 184.33,403.124 C185.377,402.827 186.423,402.671 187.423,402.671 C188.127,402.671 188.83,402.78 189.47,402.921 C190.017,403.077 190.58,403.28 191.22,403.577 C191.877,403.874 192.423,404.171 192.923,404.467 C193.423,404.78 193.97,405.077 194.517,405.374 C195.08,405.671 195.627,405.921 196.127,406.03 C196.627,406.124 197.127,406.171 197.627,406.124 C198.127,406.077 198.627,405.827 199.127,405.374 C199.627,404.921 200.08,404.327 200.533,403.577 C200.783,403.124 200.923,402.671 200.923,402.217 C200.923,401.874 200.83,401.577 200.673,401.217 C200.283,400.467 199.627,399.827 198.72,399.28 C197.83,398.717 196.877,398.217 195.783,397.827 C194.673,397.421 193.627,397.171 192.58,397.03 C191.83,396.874 191.22,396.827 190.72,396.827 C190.47,396.827 190.267,396.827 190.127,396.874"/>
<path class="Harmony" d="M872.749,396.671 C872.499,396.717 872.093,396.78 871.452,396.827 C870.796,396.874 870.296,396.967 869.952,397.03 C869.593,397.077 869.093,397.124 868.499,397.217 C867.889,397.327 867.452,397.467 867.046,397.624 C866.639,397.78 866.202,397.967 865.796,398.217 C865.389,398.467 865.046,398.717 864.796,399.077 C864.452,399.421 864.202,399.827 863.999,400.217 C863.796,400.624 863.639,401.124 863.593,401.624 C863.546,401.967 863.546,402.327 863.546,402.671 L863.546,402.967 C863.593,403.327 863.593,403.827 863.639,404.421 C863.702,405.03 863.702,405.53 863.702,405.874 C863.702,411.577 863.843,417.171 864.093,422.733 C864.139,423.03 864.139,423.327 864.139,423.671 C864.093,424.733 864.046,426.124 863.952,427.78 C863.796,429.733 863.702,431.171 863.702,432.124 L863.702,432.421 L863.702,433.28 C863.702,433.53 863.796,433.78 863.843,434.077 C863.889,434.374 863.999,434.624 864.139,434.78 C864.296,434.921 864.452,435.077 864.702,435.233 C864.889,435.327 865.139,435.374 865.452,435.374 L865.593,435.374 C867.343,435.327 869.093,434.983 870.843,434.327 C872.593,433.671 874.249,432.874 875.796,431.827 C877.343,430.78 878.796,429.53 880.202,428.077 C881.593,426.624 882.796,425.124 883.796,423.53 C884.796,421.921 885.639,420.28 886.296,418.53 C886.952,416.78 887.296,415.03 887.389,413.374 C887.452,413.03 887.452,412.624 887.452,412.28 C887.452,411.327 887.343,410.327 887.139,409.327 C886.889,407.921 886.499,406.53 885.952,405.217 C885.389,403.921 884.702,402.717 883.796,401.577 C882.889,400.421 881.889,399.467 880.796,398.671 C879.702,397.874 878.499,397.28 877.093,396.921 C876.202,396.671 875.249,396.577 874.296,396.577 C873.796,396.577 873.296,396.624 872.749,396.671 M869.639,428.983 C869.639,427.53 869.702,425.421 869.749,422.733 C869.796,420.577 869.843,418.53 869.843,416.671 C869.843,416.233 869.796,415.78 869.796,415.327 C869.796,413.124 869.749,410.983 869.639,408.967 C869.639,408.717 869.593,408.28 869.499,407.53 C869.389,406.78 869.249,406.077 869.202,405.421 C869.139,405.124 869.139,404.827 869.139,404.53 C869.139,404.171 869.139,403.874 869.202,403.53 C869.296,402.874 869.499,402.374 869.843,402.124 C870.296,401.78 870.796,401.624 871.343,401.624 C871.499,401.671 871.639,401.671 871.796,401.671 C872.546,401.78 873.343,402.03 874.202,402.467 C875.046,402.921 875.843,403.53 876.593,404.124 C877.343,404.717 878.046,405.327 878.593,405.921 C879.139,406.53 879.593,406.967 879.843,407.421 C880.639,408.717 881.202,410.171 881.499,411.78 C881.639,412.671 881.749,413.577 881.749,414.483 C881.749,415.124 881.702,415.78 881.639,416.421 C881.389,417.983 880.952,419.483 880.296,420.921 C879.639,422.374 878.796,423.671 877.796,424.827 C876.749,425.983 875.546,426.874 874.139,427.624 C872.749,428.374 871.249,428.827 869.639,428.983"/>
<path class="Harmony" d="M1574.21,407.171 C1574.87,408.03 1575.32,409.171 1575.67,410.624 C1576.01,412.077 1576.26,413.483 1576.51,414.921 C1576.76,416.374 1576.92,417.733 1576.96,418.921 L1573.17,418.53 L1569.07,418.921 L1571.17,412.671 L1574.21,407.171 M1573.32,424.78 L1574.32,424.78 L1575.82,424.78 L1576.21,424.78 L1576.67,424.78 C1576.71,424.78 1576.87,424.827 1577.07,424.827 C1577.26,424.827 1577.42,424.827 1577.51,424.874 C1577.62,424.921 1577.71,424.983 1577.87,425.03 C1578.01,425.077 1578.12,425.124 1578.21,425.233 C1578.32,425.327 1578.46,425.374 1578.57,425.483 C1578.82,425.733 1579.07,426.233 1579.26,426.874 C1579.46,427.483 1579.67,428.124 1579.82,428.874 C1579.96,429.624 1580.12,430.374 1580.26,431.233 C1580.42,432.077 1580.62,432.827 1580.82,433.53 C1581.01,434.233 1581.32,434.874 1581.62,435.421 C1581.92,435.983 1582.26,436.327 1582.71,436.53 C1582.92,436.624 1583.17,436.671 1583.46,436.671 C1583.71,436.671 1584.03,436.624 1584.32,436.53 C1584.78,436.374 1585.12,436.171 1585.46,435.983 C1585.82,435.78 1586.07,435.577 1586.28,435.327 C1586.46,435.077 1586.62,434.827 1586.78,434.53 C1586.92,434.233 1587.03,434.03 1587.07,433.78 C1587.12,433.577 1587.12,433.374 1587.12,433.124 L1587.12,432.874 C1587.12,432.53 1587.12,432.171 1587.07,431.921 C1587.03,431.671 1586.92,431.374 1586.82,430.983 C1586.71,430.577 1586.62,430.28 1586.53,430.03 C1586.42,429.78 1586.37,429.421 1586.21,428.983 C1586.07,428.53 1585.92,428.233 1585.87,428.03 C1585.53,427.03 1584.92,425.03 1584.07,422.077 C1583.46,419.921 1582.96,418.124 1582.62,416.733 C1581.96,414.171 1581.42,412.077 1581.01,410.421 C1580.37,407.671 1579.87,405.827 1579.62,404.874 C1579.57,404.671 1579.51,404.374 1579.42,403.967 C1579.32,403.577 1579.26,403.217 1579.21,402.921 C1579.17,402.624 1579.01,402.327 1578.92,401.921 C1578.82,401.53 1578.71,401.124 1578.62,400.827 C1578.51,400.53 1578.32,400.171 1578.17,399.827 C1578.01,399.467 1577.82,399.217 1577.62,398.967 C1577.42,398.717 1577.26,398.53 1577.01,398.327 C1576.76,398.124 1576.51,397.921 1576.21,397.874 C1575.96,397.827 1575.71,397.78 1575.42,397.78 L1575.21,397.78 C1574.87,397.827 1574.46,397.874 1574.01,398.03 C1573.67,398.171 1573.26,398.374 1572.92,398.624 C1572.57,398.874 1572.21,399.077 1571.96,399.327 C1571.71,399.577 1571.46,399.921 1571.21,400.327 C1570.96,400.717 1570.71,401.03 1570.57,401.327 C1570.42,401.624 1570.21,402.03 1570.01,402.53 C1569.82,403.03 1569.62,403.421 1569.51,403.717 C1569.42,404.03 1569.32,404.421 1569.12,404.921 C1568.92,405.421 1568.76,405.78 1568.71,406.03 C1567.26,409.671 1565.82,413.124 1564.37,416.483 C1562.01,421.827 1560.62,425.077 1560.21,426.28 C1560.17,426.483 1559.96,426.827 1559.71,427.374 C1559.46,427.921 1559.17,428.421 1558.92,428.921 C1558.67,429.421 1558.42,430.077 1558.12,430.733 C1557.82,431.374 1557.57,432.03 1557.42,432.577 C1557.21,433.124 1557.12,433.624 1557.12,434.077 C1557.17,434.53 1557.26,434.827 1557.51,435.077 C1557.96,435.421 1558.46,435.624 1559.01,435.624 L1559.37,435.624 C1560.07,435.53 1560.76,435.327 1561.46,434.921 C1562.17,434.53 1562.67,434.077 1562.92,433.624 C1563.21,433.077 1563.51,432.421 1563.76,431.624 C1564.01,430.827 1564.26,430.077 1564.42,429.421 C1564.57,428.78 1564.76,428.077 1565.12,427.327 C1565.46,426.577 1565.87,425.983 1566.32,425.483 L1569.01,424.624 C1569.17,424.577 1569.37,424.624 1569.71,424.624 L1571.17,424.624 C1571.32,424.624 1572.07,424.671 1573.32,424.78"/>
<path class="Harmony" d="M2259.99,396.671 C2259.74,396.717 2259.34,396.78 2258.7,396.827 C2258.04,396.874 2257.54,396.967 2257.2,397.03 C2256.84,397.077 2256.34,397.124 2255.74,397.217 C2255.13,397.327 2254.7,397.467 2254.29,397.624 C2253.88,397.78 2253.45,397.967 2253.04,398.217 C2252.63,398.467 2252.29,398.717 2252.04,399.077 C2251.7,399.421 2251.45,399.827 2251.24,400.217 C2251.04,400.624 2250.88,401.124 2250.84,401.624 C2250.79,401.967 2250.79,402.327 2250.79,402.671 L2250.79,402.967 C2250.84,403.327 2250.84,403.827 2250.88,404.421 C2250.95,405.03 2250.95,405.53 2250.95,405.874 C2250.95,411.577 2251.09,417.171 2251.34,422.733 C2251.38,423.03 2251.38,423.327 2251.38,423.671 C2251.34,424.733 2251.29,426.124 2251.2,427.78 C2251.04,429.733 2250.95,431.171 2250.95,432.124 L2250.95,432.421 L2250.95,433.28 C2250.95,433.53 2251.04,433.78 2251.09,434.077 C2251.13,434.374 2251.24,434.624 2251.38,434.78 C2251.54,434.921 2251.7,435.077 2251.95,435.233 C2252.13,435.327 2252.38,435.374 2252.7,435.374 L2252.84,435.374 C2254.59,435.327 2256.34,434.983 2258.09,434.327 C2259.84,433.671 2261.49,432.874 2263.04,431.827 C2264.59,430.78 2266.04,429.53 2267.45,428.077 C2268.84,426.624 2270.04,425.124 2271.04,423.53 C2272.04,421.921 2272.88,420.28 2273.54,418.53 C2274.2,416.78 2274.54,415.03 2274.63,413.374 C2274.7,413.03 2274.7,412.624 2274.7,412.28 C2274.7,411.327 2274.59,410.327 2274.38,409.327 C2274.13,407.921 2273.74,406.53 2273.2,405.217 C2272.63,403.921 2271.95,402.717 2271.04,401.577 C2270.13,400.421 2269.13,399.467 2268.04,398.671 C2266.95,397.874 2265.74,397.28 2264.34,396.921 C2263.45,396.671 2262.49,396.577 2261.54,396.577 C2261.04,396.577 2260.54,396.624 2259.99,396.671 M2256.88,428.983 C2256.88,427.53 2256.95,425.421 2256.99,422.733 C2257.04,420.577 2257.09,418.53 2257.09,416.671 C2257.09,416.233 2257.04,415.78 2257.04,415.327 C2257.04,413.124 2256.99,410.983 2256.88,408.967 C2256.88,408.717 2256.84,408.28 2256.74,407.53 C2256.63,406.78 2256.49,406.077 2256.45,405.421 C2256.38,405.124 2256.38,404.827 2256.38,404.53 C2256.38,404.171 2256.38,403.874 2256.45,403.53 C2256.54,402.874 2256.74,402.374 2257.09,402.124 C2257.54,401.78 2258.04,401.624 2258.59,401.624 C2258.74,401.671 2258.88,401.671 2259.04,401.671 C2259.79,401.78 2260.59,402.03 2261.45,402.467 C2262.29,402.921 2263.09,403.53 2263.84,404.124 C2264.59,404.717 2265.29,405.327 2265.84,405.921 C2266.38,406.53 2266.84,406.967 2267.09,407.421 C2267.88,408.717 2268.45,410.171 2268.74,411.78 C2268.88,412.671 2268.99,413.577 2268.99,414.483 C2268.99,415.124 2268.95,415.78 2268.88,416.421 C2268.63,417.983 2268.2,419.483 2267.54,420.921 C2266.88,422.374 2266.04,423.671 2265.04,424.827 C2263.99,425.983 2262.79,426.874 2261.38,427.624 C2259.99,428.374 2258.49,428.827 2256.88,428.983"/>
<path class="Harmony" d="M179.127,714.253 C178.877,714.3 178.47,714.362 177.83,714.409 C177.173,714.456 176.673,714.55 176.33,714.612 C175.97,714.659 175.47,714.706 174.877,714.8 C174.267,714.909 173.83,715.05 173.423,715.206 C173.017,715.362 172.58,715.55 172.173,715.8 C171.767,716.05 171.423,716.3 171.173,716.659 C170.83,717.003 170.58,717.409 170.377,717.8 C170.173,718.206 170.017,718.706 169.97,719.206 C169.923,719.55 169.923,719.909 169.923,720.253 L169.923,720.55 C169.97,720.909 169.97,721.409 170.017,722.003 C170.08,722.612 170.08,723.112 170.08,723.456 C170.08,729.159 170.22,734.753 170.47,740.315 C170.517,740.612 170.517,740.909 170.517,741.253 C170.47,742.315 170.423,743.706 170.33,745.362 C170.173,747.315 170.08,748.753 170.08,749.706 L170.08,750.003 L170.08,750.862 C170.08,751.112 170.173,751.362 170.22,751.659 C170.267,751.956 170.377,752.206 170.517,752.362 C170.673,752.503 170.83,752.659 171.08,752.815 C171.267,752.909 171.517,752.956 171.83,752.956 L171.97,752.956 C173.72,752.909 175.47,752.565 177.22,751.909 C178.97,751.253 180.627,750.456 182.173,749.409 C183.72,748.362 185.173,747.112 186.58,745.659 C187.97,744.206 189.173,742.706 190.173,741.112 C191.173,739.503 192.017,737.862 192.673,736.112 C193.33,734.362 193.673,732.612 193.767,730.956 C193.83,730.612 193.83,730.206 193.83,729.862 C193.83,728.909 193.72,727.909 193.517,726.909 C193.267,725.503 192.877,724.112 192.33,722.8 C191.767,721.503 191.08,720.3 190.173,719.159 C189.267,718.003 188.267,717.05 187.173,716.253 C186.08,715.456 184.877,714.862 183.47,714.503 C182.58,714.253 181.627,714.159 180.673,714.159 C180.173,714.159 179.673,714.206 179.127,714.253 M176.017,746.565 C176.017,745.112 176.08,743.003 176.127,740.315 C176.173,738.159 176.22,736.112 176.22,734.253 C176.22,733.815 176.173,733.362 176.173,732.909 C176.173,730.706 176.127,728.565 176.017,726.55 C176.017,726.3 175.97,725.862 175.877,725.112 C175.767,724.362 175.627,723.659 175.58,723.003 C175.517,722.706 175.517,722.409 175.517,722.112 C175.517,721.753 175.517,721.456 175.58,721.112 C175.673,720.456 175.877,719.956 176.22,719.706 C176.673,719.362 177.173,719.206 177.72,719.206 C177.877,719.253 178.017,719.253 178.173,719.253 C178.923,719.362 179.72,719.612 180.58,720.05 C181.423,720.503 182.22,721.112 182.97,721.706 C183.72,722.3 184.423,722.909 184.97,723.503 C185.517,724.112 185.97,724.55 186.22,725.003 C187.017,726.3 187.58,727.753 187.877,729.362 C188.017,730.253 188.127,731.159 188.127,732.065 C188.127,732.706 188.08,733.362 188.017,734.003 C187.767,735.565 187.33,737.065 186.673,738.503 C186.017,739.956 185.173,741.253 184.173,742.409 C183.127,743.565 181.923,744.456 180.517,745.206 C179.127,745.956 177.627,746.409 176.017,746.565"/>
<path class="Harmony" d="M883.319,714.253 C883.069,714.3 882.663,714.362 882.022,714.409 C881.366,714.456 880.866,714.55 880.522,714.612 C880.163,714.659 879.663,714.706 879.069,714.8 C878.459,714.909 878.022,715.05 877.616,715.206 C877.209,715.362 876.772,715.55 876.366,715.8 C875.959,716.05 875.616,716.3 875.366,716.659 C875.022,717.003 874.772,717.409 874.569,717.8 C874.366,718.206 874.209,718.706 874.163,719.206 C874.116,719.55 874.116,719.909 874.116,720.253 L874.116,720.55 C874.163,720.909 874.163,721.409 874.209,722.003 C874.272,722.612 874.272,723.112 874.272,723.456 C874.272,729.159 874.413,734.753 874.663,740.315 C874.709,740.612 874.709,740.909 874.709,741.253 C874.663,742.315 874.616,743.706 874.522,745.362 C874.366,747.315 874.272,748.753 874.272,749.706 L874.272,750.003 L874.272,750.862 C874.272,751.112 874.366,751.362 874.413,751.659 C874.459,751.956 874.569,752.206 874.709,752.362 C874.866,752.503 875.022,752.659 875.272,752.815 C875.459,752.909 875.709,752.956 876.022,752.956 L876.163,752.956 C877.913,752.909 879.663,752.565 881.413,751.909 C883.163,751.253 884.819,750.456 886.366,749.409 C887.913,748.362 889.366,747.112 890.772,745.659 C892.163,744.206 893.366,742.706 894.366,741.112 C895.366,739.503 896.209,737.862 896.866,736.112 C897.522,734.362 897.866,732.612 897.959,730.956 C898.022,730.612 898.022,730.206 898.022,729.862 C898.022,728.909 897.913,727.909 897.709,726.909 C897.459,725.503 897.069,724.112 896.522,722.8 C895.959,721.503 895.272,720.3 894.366,719.159 C893.459,718.003 892.459,717.05 891.366,716.253 C890.272,715.456 889.069,714.862 887.663,714.503 C886.772,714.253 885.819,714.159 884.866,714.159 C884.366,714.159 883.866,714.206 883.319,714.253 M880.209,746.565 C880.209,745.112 880.272,743.003 880.319,740.315 C880.366,738.159 880.413,736.112 880.413,734.253 C880.413,733.815 880.366,733.362 880.366,732.909 C880.366,730.706 880.319,728.565 880.209,726.55 C880.209,726.3 880.163,725.862 880.069,725.112 C879.959,724.362 879.819,723.659 879.772,723.003 C879.709,722.706 879.709,722.409 879.709,722.112 C879.709,721.753 879.709,721.456 879.772,721.112 C879.866,720.456 880.069,719.956 880.413,719.706 C880.866,719.362 881.366,719.206 881.913,719.206 C882.069,719.253 882.209,719.253 882.366,719.253 C883.116,719.362 883.913,719.612 884.772,720.05 C885.616,720.503 886.413,721.112 887.163,721.706 C887.913,722.3 888.616,722.909 889.163,723.503 C889.709,724.112 890.163,724.55 890.413,725.003 C891.209,726.3 891.772,727.753 892.069,729.362 C892.209,730.253 892.319,731.159 892.319,732.065 C892.319,732.706 892.272,733.362 892.209,734.003 C891.959,735.565 891.522,737.065 890.866,738.503 C890.209,739.956 889.366,741.253 888.366,742.409 C887.319,743.565 886.116,744.456 884.709,745.206 C883.319,745.956 881.819,746.409 880.209,746.565"/>
<path class="Harmony" d="M1598.51,714.456 C1596.56,714.706 1594.71,715.159 1592.9,715.8 C1591.1,716.456 1589.46,717.362 1587.85,718.409 C1586.26,719.456 1584.81,720.659 1583.56,722.003 C1582.31,723.362 1581.26,724.909 1580.35,726.659 C1579.46,728.409 1578.85,730.253 1578.51,732.206 C1578.26,733.409 1578.15,734.659 1578.15,735.909 L1578.15,736.253 C1578.15,737.456 1578.21,738.612 1578.35,739.753 C1578.51,741.003 1578.81,742.253 1579.21,743.409 C1579.65,744.612 1580.15,745.753 1580.71,746.815 C1581.26,747.862 1581.96,748.815 1582.76,749.659 C1583.56,750.503 1584.56,751.206 1585.56,751.815 C1586.56,752.409 1587.71,752.862 1588.96,753.112 C1589.81,753.253 1590.65,753.362 1591.51,753.362 C1591.96,753.362 1592.46,753.362 1593.01,753.315 C1594.56,753.159 1596.01,752.815 1597.35,752.315 C1598.71,751.815 1599.96,751.206 1601.01,750.503 C1602.06,749.815 1603.1,748.909 1604.06,747.909 C1605.01,746.909 1605.92,745.815 1606.67,744.706 C1607.42,743.612 1608.1,742.362 1608.85,740.956 C1610.01,738.659 1610.56,736.706 1610.56,735.159 C1610.56,733.612 1610.01,732.409 1608.85,731.565 C1608.21,731.003 1607.1,730.659 1605.67,730.409 C1604.6,730.253 1603.56,730.159 1602.51,730.159 L1602.26,730.159 L1601.15,730.159 C1599.6,730.206 1598.15,730.456 1596.76,730.909 C1595.35,731.362 1594.4,731.909 1593.9,732.565 C1593.76,732.815 1593.6,733.003 1593.46,733.206 C1593.1,733.753 1592.9,734.253 1592.9,734.706 C1592.9,735.362 1593.35,735.815 1594.21,736.065 C1594.9,736.253 1596.26,736.362 1598.21,736.362 L1598.65,736.362 C1599.31,736.409 1599.81,736.409 1600.15,736.409 C1602.21,736.409 1603.46,736.659 1603.85,737.206 C1604.01,737.409 1604.17,737.706 1604.17,738.003 C1604.17,738.315 1604.1,738.612 1604.06,738.909 C1604.01,739.206 1603.85,739.565 1603.71,739.956 C1603.56,740.362 1603.4,740.659 1603.26,740.909 C1603.1,741.159 1602.96,741.503 1602.76,741.909 C1602.56,742.315 1602.4,742.503 1602.35,742.612 C1602.1,743.065 1601.96,743.409 1601.81,743.659 C1601.65,743.909 1601.46,744.159 1601.21,744.503 C1600.96,744.862 1600.65,745.159 1600.4,745.362 C1599.35,746.159 1598.21,746.706 1596.85,746.956 L1595.15,747.159 L1594.96,747.159 C1594.31,747.112 1593.6,747.065 1592.96,746.909 C1591.71,746.659 1590.46,746.206 1589.31,745.503 C1588.15,744.815 1587.15,743.956 1586.4,742.956 C1585.65,741.909 1584.96,740.659 1584.46,739.253 C1583.96,737.862 1583.65,736.409 1583.56,734.862 C1583.51,734.315 1583.51,733.815 1583.51,733.253 C1583.51,732.253 1583.56,731.253 1583.71,730.315 C1583.96,728.862 1584.4,727.456 1585.1,726.159 C1585.81,724.862 1586.71,723.8 1587.81,723.003 C1589.15,721.956 1590.81,721.206 1592.71,720.706 C1593.76,720.409 1594.81,720.253 1595.81,720.253 C1596.51,720.253 1597.21,720.362 1597.85,720.503 C1598.4,720.659 1598.96,720.862 1599.6,721.159 C1600.26,721.456 1600.81,721.753 1601.31,722.05 C1601.81,722.362 1602.35,722.659 1602.9,722.956 C1603.46,723.253 1604.01,723.503 1604.51,723.612 C1605.01,723.706 1605.51,723.753 1606.01,723.706 C1606.51,723.659 1607.01,723.409 1607.51,722.956 C1608.01,722.503 1608.46,721.909 1608.92,721.159 C1609.17,720.706 1609.31,720.253 1609.31,719.8 C1609.31,719.456 1609.21,719.159 1609.06,718.8 C1608.67,718.05 1608.01,717.409 1607.1,716.862 C1606.21,716.3 1605.26,715.8 1604.17,715.409 C1603.06,715.003 1602.01,714.753 1600.96,714.612 C1600.21,714.456 1599.6,714.409 1599.1,714.409 C1598.85,714.409 1598.65,714.409 1598.51,714.456"/>
<path class="Harmony" d="M2302.7,714.456 C2300.75,714.706 2298.91,715.159 2297.09,715.8 C2295.3,716.456 2293.66,717.362 2292.05,718.409 C2290.45,719.456 2289,720.659 2287.75,722.003 C2286.5,723.362 2285.45,724.909 2284.55,726.659 C2283.66,728.409 2283.05,730.253 2282.7,732.206 C2282.45,733.409 2282.34,734.659 2282.34,735.909 L2282.34,736.253 C2282.34,737.456 2282.41,738.612 2282.55,739.753 C2282.7,741.003 2283,742.253 2283.41,743.409 C2283.84,744.612 2284.34,745.753 2284.91,746.815 C2285.45,747.862 2286.16,748.815 2286.95,749.659 C2287.75,750.503 2288.75,751.206 2289.75,751.815 C2290.75,752.409 2291.91,752.862 2293.16,753.112 C2294,753.253 2294.84,753.362 2295.7,753.362 C2296.16,753.362 2296.66,753.362 2297.2,753.315 C2298.75,753.159 2300.2,752.815 2301.55,752.315 C2302.91,751.815 2304.16,751.206 2305.2,750.503 C2306.25,749.815 2307.3,748.909 2308.25,747.909 C2309.2,746.909 2310.11,745.815 2310.86,744.706 C2311.61,743.612 2312.3,742.362 2313.05,740.956 C2314.2,738.659 2314.75,736.706 2314.75,735.159 C2314.75,733.612 2314.2,732.409 2313.05,731.565 C2312.41,731.003 2311.3,730.659 2309.86,730.409 C2308.8,730.253 2307.75,730.159 2306.7,730.159 L2306.45,730.159 L2305.34,730.159 C2303.8,730.206 2302.34,730.456 2300.95,730.909 C2299.55,731.362 2298.59,731.909 2298.09,732.565 C2297.95,732.815 2297.8,733.003 2297.66,733.206 C2297.3,733.753 2297.09,734.253 2297.09,734.706 C2297.09,735.362 2297.55,735.815 2298.41,736.065 C2299.09,736.253 2300.45,736.362 2302.41,736.362 L2302.84,736.362 C2303.5,736.409 2304,736.409 2304.34,736.409 C2306.41,736.409 2307.66,736.659 2308.05,737.206 C2308.2,737.409 2308.36,737.706 2308.36,738.003 C2308.36,738.315 2308.3,738.612 2308.25,738.909 C2308.2,739.206 2308.05,739.565 2307.91,739.956 C2307.75,740.362 2307.59,740.659 2307.45,740.909 C2307.3,741.159 2307.16,741.503 2306.95,741.909 C2306.75,742.315 2306.59,742.503 2306.55,742.612 C2306.3,743.065 2306.16,743.409 2306,743.659 C2305.84,743.909 2305.66,744.159 2305.41,744.503 C2305.16,744.862 2304.84,745.159 2304.59,745.362 C2303.55,746.159 2302.41,746.706 2301.05,746.956 L2299.34,747.159 L2299.16,747.159 C2298.5,747.112 2297.8,747.065 2297.16,746.909 C2295.91,746.659 2294.66,746.206 2293.5,745.503 C2292.34,744.815 2291.34,743.956 2290.59,742.956 C2289.84,741.909 2289.16,740.659 2288.66,739.253 C2288.16,737.862 2287.84,736.409 2287.75,734.862 C2287.7,734.315 2287.7,733.815 2287.7,733.253 C2287.7,732.253 2287.75,731.253 2287.91,730.315 C2288.16,728.862 2288.59,727.456 2289.3,726.159 C2290,724.862 2290.91,723.8 2292,723.003 C2293.34,721.956 2295,721.206 2296.91,720.706 C2297.95,720.409 2299,720.253 2300,720.253 C2300.7,720.253 2301.41,720.362 2302.05,720.503 C2302.59,720.659 2303.16,720.862 2303.8,721.159 C2304.45,721.456 2305,721.753 2305.5,722.05 C2306,722.362 2306.55,722.659 2307.09,722.956 C2307.66,723.253 2308.2,723.503 2308.7,723.612 C2309.2,723.706 2309.7,723.753 2310.2,723.706 C2310.7,723.659 2311.2,723.409 2311.7,722.956 C2312.2,722.503 2312.66,721.909 2313.11,721.159 C2313.36,720.706 2313.5,720.253 2313.5,719.8 C2313.5,719.456 2313.41,719.159 2313.25,718.8 C2312.86,718.05 2312.2,717.409 2311.3,716.862 C2310.41,716.3 2309.45,715.8 2308.36,715.409 C2307.25,715.003 2306.2,714.753 2305.16,714.612 C2304.41,714.456 2303.8,714.409 2303.3,714.409 C2303.05,714.409 2302.84,714.409 2302.7,714.456"/>
<path class="Harmony" d="M179.127,1024.29 C178.877,1024.34 178.47,1024.4 177.83,1024.45 C177.173,1024.5 176.673,1024.59 176.33,1024.65 C175.97,1024.7 175.47,1024.75 174.877,1024.84 C174.267,1024.95 173.83,1025.09 173.423,1025.25 C173.017,1025.4 172.58,1025.59 172.173,1025.84 C171.767,1026.09 171.423,1026.34 171.173,1026.7 C170.83,1027.04 170.58,1027.45 170.377,1027.84 C170.173,1028.25 170.017,1028.75 169.97,1029.25 C169.923,1029.59 169.923,1029.95 169.923,1030.29 L169.923,1030.59 C169.97,1030.95 169.97,1031.45 170.017,1032.04 C170.08,1032.65 170.08,1033.15 170.08,1033.5 C170.08,1039.2 170.22,1044.79 170.47,1050.35 C170.517,1050.65 170.517,1050.95 170.517,1051.29 C170.47,1052.35 170.423,1053.75 170.33,1055.4 C170.173,1057.35 170.08,1058.79 170.08,1059.75 L170.08,1060.04 L170.08,1060.9 C170.08,1061.15 170.173,1061.4 170.22,1061.7 C170.267,1062 170.377,1062.25 170.517,1062.4 C170.673,1062.54 170.83,1062.7 171.08,1062.85 C171.267,1062.95 171.517,1063 171.83,1063 L171.97,1063 C173.72,1062.95 175.47,1062.6 177.22,1061.95 C178.97,1061.29 180.627,1060.5 182.173,1059.45 C183.72,1058.4 185.173,1057.15 186.58,1055.7 C187.97,1054.25 189.173,1052.75 190.173,1051.15 C191.173,1049.54 192.017,1047.9 192.673,1046.15 C193.33,1044.4 193.673,1042.65 193.767,1041 C193.83,1040.65 193.83,1040.25 193.83,1039.9 C193.83,1038.95 193.72,1037.95 193.517,1036.95 C193.267,1035.54 192.877,1034.15 192.33,1032.84 C191.767,1031.54 191.08,1030.34 190.173,1029.2 C189.267,1028.04 188.267,1027.09 187.173,1026.29 C186.08,1025.5 184.877,1024.9 183.47,1024.54 C182.58,1024.29 181.627,1024.2 180.673,1024.2 C180.173,1024.2 179.673,1024.25 179.127,1024.29 M176.017,1056.6 C176.017,1055.15 176.08,1053.04 176.127,1050.35 C176.173,1048.2 176.22,1046.15 176.22,1044.29 C176.22,1043.85 176.173,1043.4 176.173,1042.95 C176.173,1040.75 176.127,1038.6 176.017,1036.59 C176.017,1036.34 175.97,1035.9 175.877,1035.15 C175.767,1034.4 175.627,1033.7 175.58,1033.04 C175.517,1032.75 175.517,1032.45 175.517,1032.15 C175.517,1031.79 175.517,1031.5 175.58,1031.15 C175.673,1030.5 175.877,1030 176.22,1029.75 C176.673,1029.4 177.173,1029.25 177.72,1029.25 C177.877,1029.29 178.017,1029.29 178.173,1029.29 C178.923,1029.4 179.72,1029.65 180.58,1030.09 C181.423,1030.54 182.22,1031.15 182.97,1031.75 C183.72,1032.34 184.423,1032.95 184.97,1033.54 C185.517,1034.15 185.97,1034.59 186.22,1035.04 C187.017,1036.34 187.58,1037.79 187.877,1039.4 C188.017,1040.29 188.127,1041.2 188.127,1042.1 C188.127,1042.75 188.08,1043.4 188.017,1044.04 C187.767,1045.6 187.33,1047.1 186.673,1048.54 C186.017,1050 185.173,1051.29 184.173,1052.45 C183.127,1053.6 181.923,1054.5 180.517,1055.25 C179.127,1056 177.627,1056.45 176.017,1056.6"/>
<path class="Harmony" d="M860.657,1024.29 C860.407,1024.34 860.001,1024.4 859.36,1024.45 C858.704,1024.5 858.204,1024.59 857.86,1024.65 C857.501,1024.7 857.001,1024.75 856.407,1024.84 C855.798,1024.95 855.36,1025.09 854.954,1025.25 C854.548,1025.4 854.11,1025.59 853.704,1025.84 C853.298,1026.09 852.954,1026.34 852.704,1026.7 C852.36,1027.04 852.11,1027.45 851.907,1027.84 C851.704,1028.25 851.548,1028.75 851.501,1029.25 C851.454,1029.59 851.454,1029.95 851.454,1030.29 L851.454,1030.59 C851.501,1030.95 851.501,1031.45 851.548,1032.04 C851.61,1032.65 851.61,1033.15 851.61,1033.5 C851.61,1039.2 851.751,1044.79 852.001,1050.35 C852.048,1050.65 852.048,1050.95 852.048,1051.29 C852.001,1052.35 851.954,1053.75 851.86,1055.4 C851.704,1057.35 851.61,1058.79 851.61,1059.75 L851.61,1060.04 L851.61,1060.9 C851.61,1061.15 851.704,1061.4 851.751,1061.7 C851.798,1062 851.907,1062.25 852.048,1062.4 C852.204,1062.54 852.36,1062.7 852.61,1062.85 C852.798,1062.95 853.048,1063 853.36,1063 L853.501,1063 C855.251,1062.95 857.001,1062.6 858.751,1061.95 C860.501,1061.29 862.157,1060.5 863.704,1059.45 C865.251,1058.4 866.704,1057.15 868.11,1055.7 C869.501,1054.25 870.704,1052.75 871.704,1051.15 C872.704,1049.54 873.548,1047.9 874.204,1046.15 C874.86,1044.4 875.204,1042.65 875.298,1041 C875.36,1040.65 875.36,1040.25 875.36,1039.9 C875.36,1038.95 875.251,1037.95 875.048,1036.95 C874.798,1035.54 874.407,1034.15 873.86,1032.84 C873.298,1031.54 872.61,1030.34 871.704,1029.2 C870.798,1028.04 869.798,1027.09 868.704,1026.29 C867.61,1025.5 866.407,1024.9 865.001,1024.54 C864.11,1024.29 863.157,1024.2 862.204,1024.2 C861.704,1024.2 861.204,1024.25 860.657,1024.29 M857.548,1056.6 C857.548,1055.15 857.61,1053.04 857.657,1050.35 C857.704,1048.2 857.751,1046.15 857.751,1044.29 C857.751,1043.85 857.704,1043.4 857.704,1042.95 C857.704,1040.75 857.657,1038.6 857.548,1036.59 C857.548,1036.34 857.501,1035.9 857.407,1035.15 C857.298,1034.4 857.157,1033.7 857.11,1033.04 C857.048,1032.75 857.048,1032.45 857.048,1032.15 C857.048,1031.79 857.048,1031.5 857.11,1031.15 C857.204,1030.5 857.407,1030 857.751,1029.75 C858.204,1029.4 858.704,1029.25 859.251,1029.25 C859.407,1029.29 859.548,1029.29 859.704,1029.29 C860.454,1029.4 861.251,1029.65 862.11,1030.09 C862.954,1030.54 863.751,1031.15 864.501,1031.75 C865.251,1032.34 865.954,1032.95 866.501,1033.54 C867.048,1034.15 867.501,1034.59 867.751,1035.04 C868.548,1036.34 869.11,1037.79 869.407,1039.4 C869.548,1040.29 869.657,1041.2 869.657,1042.1 C869.657,1042.75 869.61,1043.4 869.548,1044.04 C869.298,1045.6 868.86,1047.1 868.204,1048.54 C867.548,1050 866.704,1051.29 865.704,1052.45 C864.657,1053.6 863.454,1054.5 862.048,1055.25 C860.657,1056 859.157,1056.45 857.548,1056.6"/>
<path class="Harmony" d="M1566.15,1034.79 C1566.81,1035.65 1567.26,1036.79 1567.61,1038.25 C1567.95,1039.7 1568.2,1041.1 1568.45,1042.54 C1568.7,1044 1568.86,1045.35 1568.9,1046.54 L1565.11,1046.15 L1561.01,1046.54 L1563.11,1040.29 L1566.15,1034.79 M1565.26,1052.4 L1566.26,1052.4 L1567.76,1052.4 L1568.15,1052.4 L1568.61,1052.4 C1568.65,1052.4 1568.81,1052.45 1569.01,1052.45 C1569.2,1052.45 1569.36,1052.45 1569.45,1052.5 C1569.56,1052.54 1569.65,1052.6 1569.81,1052.65 C1569.95,1052.7 1570.06,1052.75 1570.15,1052.85 C1570.26,1052.95 1570.4,1053 1570.51,1053.1 C1570.76,1053.35 1571.01,1053.85 1571.2,1054.5 C1571.4,1055.1 1571.61,1055.75 1571.76,1056.5 C1571.9,1057.25 1572.06,1058 1572.2,1058.85 C1572.36,1059.7 1572.56,1060.45 1572.76,1061.15 C1572.95,1061.85 1573.26,1062.5 1573.56,1063.04 C1573.86,1063.6 1574.2,1063.95 1574.65,1064.15 C1574.86,1064.25 1575.11,1064.29 1575.4,1064.29 C1575.65,1064.29 1575.97,1064.25 1576.26,1064.15 C1576.72,1064 1577.06,1063.79 1577.4,1063.6 C1577.76,1063.4 1578.01,1063.2 1578.22,1062.95 C1578.4,1062.7 1578.56,1062.45 1578.72,1062.15 C1578.86,1061.85 1578.97,1061.65 1579.01,1061.4 C1579.06,1061.2 1579.06,1061 1579.06,1060.75 L1579.06,1060.5 C1579.06,1060.15 1579.06,1059.79 1579.01,1059.54 C1578.97,1059.29 1578.86,1059 1578.76,1058.6 C1578.65,1058.2 1578.56,1057.9 1578.47,1057.65 C1578.36,1057.4 1578.31,1057.04 1578.15,1056.6 C1578.01,1056.15 1577.86,1055.85 1577.81,1055.65 C1577.47,1054.65 1576.86,1052.65 1576.01,1049.7 C1575.4,1047.54 1574.9,1045.75 1574.56,1044.35 C1573.9,1041.79 1573.36,1039.7 1572.95,1038.04 C1572.31,1035.29 1571.81,1033.45 1571.56,1032.5 C1571.51,1032.29 1571.45,1032 1571.36,1031.59 C1571.26,1031.2 1571.2,1030.84 1571.15,1030.54 C1571.11,1030.25 1570.95,1029.95 1570.86,1029.54 C1570.76,1029.15 1570.65,1028.75 1570.56,1028.45 C1570.45,1028.15 1570.26,1027.79 1570.11,1027.45 C1569.95,1027.09 1569.76,1026.84 1569.56,1026.59 C1569.36,1026.34 1569.2,1026.15 1568.95,1025.95 C1568.7,1025.75 1568.45,1025.54 1568.15,1025.5 C1567.9,1025.45 1567.65,1025.4 1567.36,1025.4 L1567.15,1025.4 C1566.81,1025.45 1566.4,1025.5 1565.95,1025.65 C1565.61,1025.79 1565.2,1026 1564.86,1026.25 C1564.51,1026.5 1564.15,1026.7 1563.9,1026.95 C1563.65,1027.2 1563.4,1027.54 1563.15,1027.95 C1562.9,1028.34 1562.65,1028.65 1562.51,1028.95 C1562.36,1029.25 1562.15,1029.65 1561.95,1030.15 C1561.76,1030.65 1561.56,1031.04 1561.45,1031.34 C1561.36,1031.65 1561.26,1032.04 1561.06,1032.54 C1560.86,1033.04 1560.7,1033.4 1560.65,1033.65 C1559.2,1037.29 1557.76,1040.75 1556.31,1044.1 C1553.95,1049.45 1552.56,1052.7 1552.15,1053.9 C1552.11,1054.1 1551.9,1054.45 1551.65,1055 C1551.4,1055.54 1551.11,1056.04 1550.86,1056.54 C1550.61,1057.04 1550.36,1057.7 1550.06,1058.35 C1549.76,1059 1549.51,1059.65 1549.36,1060.2 C1549.15,1060.75 1549.06,1061.25 1549.06,1061.7 C1549.11,1062.15 1549.2,1062.45 1549.45,1062.7 C1549.9,1063.04 1550.4,1063.25 1550.95,1063.25 L1551.31,1063.25 C1552.01,1063.15 1552.7,1062.95 1553.4,1062.54 C1554.11,1062.15 1554.61,1061.7 1554.86,1061.25 C1555.15,1060.7 1555.45,1060.04 1555.7,1059.25 C1555.95,1058.45 1556.2,1057.7 1556.36,1057.04 C1556.51,1056.4 1556.7,1055.7 1557.06,1054.95 C1557.4,1054.2 1557.81,1053.6 1558.26,1053.1 L1560.95,1052.25 C1561.11,1052.2 1561.31,1052.25 1561.65,1052.25 L1563.11,1052.25 C1563.26,1052.25 1564.01,1052.29 1565.26,1052.4"/>
<path class="Harmony" d="M2255.96,1024.29 C2255.71,1024.34 2255.31,1024.4 2254.67,1024.45 C2254.01,1024.5 2253.51,1024.59 2253.17,1024.65 C2252.81,1024.7 2252.31,1024.75 2251.71,1024.84 C2251.1,1024.95 2250.67,1025.09 2250.26,1025.25 C2249.85,1025.4 2249.42,1025.59 2249.01,1025.84 C2248.6,1026.09 2248.26,1026.34 2248.01,1026.7 C2247.67,1027.04 2247.42,1027.45 2247.21,1027.84 C2247.01,1028.25 2246.85,1028.75 2246.81,1029.25 C2246.76,1029.59 2246.76,1029.95 2246.76,1030.29 L2246.76,1030.59 C2246.81,1030.95 2246.81,1031.45 2246.85,1032.04 C2246.92,1032.65 2246.92,1033.15 2246.92,1033.5 C2246.92,1039.2 2247.06,1044.79 2247.31,1050.35 C2247.35,1050.65 2247.35,1050.95 2247.35,1051.29 C2247.31,1052.35 2247.26,1053.75 2247.17,1055.4 C2247.01,1057.35 2246.92,1058.79 2246.92,1059.75 L2246.92,1060.04 L2246.92,1060.9 C2246.92,1061.15 2247.01,1061.4 2247.06,1061.7 C2247.1,1062 2247.21,1062.25 2247.35,1062.4 C2247.51,1062.54 2247.67,1062.7 2247.92,1062.85 C2248.1,1062.95 2248.35,1063 2248.67,1063 L2248.81,1063 C2250.56,1062.95 2252.31,1062.6 2254.06,1061.95 C2255.81,1061.29 2257.46,1060.5 2259.01,1059.45 C2260.56,1058.4 2262.01,1057.15 2263.42,1055.7 C2264.81,1054.25 2266.01,1052.75 2267.01,1051.15 C2268.01,1049.54 2268.85,1047.9 2269.51,1046.15 C2270.17,1044.4 2270.51,1042.65 2270.6,1041 C2270.67,1040.65 2270.67,1040.25 2270.67,1039.9 C2270.67,1038.95 2270.56,1037.95 2270.35,1036.95 C2270.1,1035.54 2269.71,1034.15 2269.17,1032.84 C2268.6,1031.54 2267.92,1030.34 2267.01,1029.2 C2266.1,1028.04 2265.1,1027.09 2264.01,1026.29 C2262.92,1025.5 2261.71,1024.9 2260.31,1024.54 C2259.42,1024.29 2258.46,1024.2 2257.51,1024.2 C2257.01,1024.2 2256.51,1024.25 2255.96,1024.29 M2252.85,1056.6 C2252.85,1055.15 2252.92,1053.04 2252.96,1050.35 C2253.01,1048.2 2253.06,1046.15 2253.06,1044.29 C2253.06,1043.85 2253.01,1043.4 2253.01,1042.95 C2253.01,1040.75 2252.96,1038.6 2252.85,1036.59 C2252.85,1036.34 2252.81,1035.9 2252.71,1035.15 C2252.6,1034.4 2252.46,1033.7 2252.42,1033.04 C2252.35,1032.75 2252.35,1032.45 2252.35,1032.15 C2252.35,1031.79 2252.35,1031.5 2252.42,1031.15 C2252.51,1030.5 2252.71,1030 2253.06,1029.75 C2253.51,1029.4 2254.01,1029.25 2254.56,1029.25 C2254.71,1029.29 2254.85,1029.29 2255.01,1029.29 C2255.76,1029.4 2256.56,1029.65 2257.42,1030.09 C2258.26,1030.54 2259.06,1031.15 2259.81,1031.75 C2260.56,1032.34 2261.26,1032.95 2261.81,1033.54 C2262.35,1034.15 2262.81,1034.59 2263.06,1035.04 C2263.85,1036.34 2264.42,1037.79 2264.71,1039.4 C2264.85,1040.29 2264.96,1041.2 2264.96,1042.1 C2264.96,1042.75 2264.92,1043.4 2264.85,1044.04 C2264.6,1045.6 2264.17,1047.1 2263.51,1048.54 C2262.85,1050 2262.01,1051.29 2261.01,1052.45 C2259.96,1053.6 2258.76,1054.5 2257.35,1055.25 C2255.96,1056 2254.46,1056.45 2252.85,1056.6"/>
</svg>
